G04 EAGLE Gerber RS-274X export*
G75*
%MOMM*%
%FSLAX34Y34*%
%LPD*%
%INBottom Copper*%
%IPPOS*%
%AMOC8*
5,1,8,0,0,1.08239X$1,22.5*%
G01*
%ADD10C,1.219200*%
%ADD11P,1.319650X8X112.500000*%
%ADD12P,1.649562X8X292.500000*%
%ADD13P,1.649562X8X202.500000*%
%ADD14P,1.319650X8X202.500000*%
%ADD15P,1.319650X8X22.500000*%
%ADD16C,1.524000*%
%ADD17C,0.127000*%
%ADD18C,0.457200*%


D10*
X1168400Y717804D02*
X1168400Y729996D01*
X1193800Y729996D02*
X1193800Y717804D01*
X1320800Y717804D02*
X1320800Y729996D01*
X1320800Y794004D02*
X1320800Y806196D01*
X1219200Y729996D02*
X1219200Y717804D01*
X1244600Y717804D02*
X1244600Y729996D01*
X1295400Y729996D02*
X1295400Y717804D01*
X1270000Y717804D02*
X1270000Y729996D01*
X1295400Y794004D02*
X1295400Y806196D01*
X1270000Y806196D02*
X1270000Y794004D01*
X1244600Y794004D02*
X1244600Y806196D01*
X1219200Y806196D02*
X1219200Y794004D01*
X1193800Y794004D02*
X1193800Y806196D01*
X1168400Y806196D02*
X1168400Y794004D01*
X1168400Y602996D02*
X1168400Y590804D01*
X1193800Y590804D02*
X1193800Y602996D01*
X1320800Y602996D02*
X1320800Y590804D01*
X1320800Y667004D02*
X1320800Y679196D01*
X1219200Y602996D02*
X1219200Y590804D01*
X1244600Y590804D02*
X1244600Y602996D01*
X1295400Y602996D02*
X1295400Y590804D01*
X1270000Y590804D02*
X1270000Y602996D01*
X1295400Y667004D02*
X1295400Y679196D01*
X1270000Y679196D02*
X1270000Y667004D01*
X1244600Y667004D02*
X1244600Y679196D01*
X1219200Y679196D02*
X1219200Y667004D01*
X1193800Y667004D02*
X1193800Y679196D01*
X1168400Y679196D02*
X1168400Y667004D01*
X1409700Y717804D02*
X1409700Y729996D01*
X1435100Y729996D02*
X1435100Y717804D01*
X1562100Y717804D02*
X1562100Y729996D01*
X1587500Y729996D02*
X1587500Y717804D01*
X1460500Y717804D02*
X1460500Y729996D01*
X1485900Y729996D02*
X1485900Y717804D01*
X1536700Y717804D02*
X1536700Y729996D01*
X1511300Y729996D02*
X1511300Y717804D01*
X1612900Y717804D02*
X1612900Y729996D01*
X1638300Y729996D02*
X1638300Y717804D01*
X1638300Y794004D02*
X1638300Y806196D01*
X1612900Y806196D02*
X1612900Y794004D01*
X1587500Y794004D02*
X1587500Y806196D01*
X1562100Y806196D02*
X1562100Y794004D01*
X1536700Y794004D02*
X1536700Y806196D01*
X1511300Y806196D02*
X1511300Y794004D01*
X1485900Y794004D02*
X1485900Y806196D01*
X1460500Y806196D02*
X1460500Y794004D01*
X1435100Y794004D02*
X1435100Y806196D01*
X1409700Y806196D02*
X1409700Y794004D01*
X241300Y602996D02*
X241300Y590804D01*
X266700Y590804D02*
X266700Y602996D01*
X393700Y602996D02*
X393700Y590804D01*
X419100Y590804D02*
X419100Y602996D01*
X292100Y602996D02*
X292100Y590804D01*
X317500Y590804D02*
X317500Y602996D01*
X368300Y602996D02*
X368300Y590804D01*
X342900Y590804D02*
X342900Y602996D01*
X419100Y667004D02*
X419100Y679196D01*
X393700Y679196D02*
X393700Y667004D01*
X368300Y667004D02*
X368300Y679196D01*
X342900Y679196D02*
X342900Y667004D01*
X317500Y667004D02*
X317500Y679196D01*
X292100Y679196D02*
X292100Y667004D01*
X266700Y667004D02*
X266700Y679196D01*
X241300Y679196D02*
X241300Y667004D01*
X266700Y94996D02*
X266700Y82804D01*
X292100Y82804D02*
X292100Y94996D01*
X419100Y94996D02*
X419100Y82804D01*
X419100Y159004D02*
X419100Y171196D01*
X317500Y94996D02*
X317500Y82804D01*
X342900Y82804D02*
X342900Y94996D01*
X393700Y94996D02*
X393700Y82804D01*
X368300Y82804D02*
X368300Y94996D01*
X393700Y159004D02*
X393700Y171196D01*
X368300Y171196D02*
X368300Y159004D01*
X342900Y159004D02*
X342900Y171196D01*
X317500Y171196D02*
X317500Y159004D01*
X292100Y159004D02*
X292100Y171196D01*
X266700Y171196D02*
X266700Y159004D01*
X190500Y463804D02*
X190500Y475996D01*
X215900Y475996D02*
X215900Y463804D01*
X342900Y463804D02*
X342900Y475996D01*
X368300Y475996D02*
X368300Y463804D01*
X241300Y463804D02*
X241300Y475996D01*
X266700Y475996D02*
X266700Y463804D01*
X317500Y463804D02*
X317500Y475996D01*
X292100Y475996D02*
X292100Y463804D01*
X393700Y463804D02*
X393700Y475996D01*
X419100Y475996D02*
X419100Y463804D01*
X419100Y540004D02*
X419100Y552196D01*
X393700Y552196D02*
X393700Y540004D01*
X368300Y540004D02*
X368300Y552196D01*
X342900Y552196D02*
X342900Y540004D01*
X317500Y540004D02*
X317500Y552196D01*
X292100Y552196D02*
X292100Y540004D01*
X266700Y540004D02*
X266700Y552196D01*
X241300Y552196D02*
X241300Y540004D01*
X215900Y540004D02*
X215900Y552196D01*
X190500Y552196D02*
X190500Y540004D01*
X508000Y475996D02*
X508000Y463804D01*
X533400Y463804D02*
X533400Y475996D01*
X660400Y475996D02*
X660400Y463804D01*
X685800Y463804D02*
X685800Y475996D01*
X558800Y475996D02*
X558800Y463804D01*
X584200Y463804D02*
X584200Y475996D01*
X635000Y475996D02*
X635000Y463804D01*
X609600Y463804D02*
X609600Y475996D01*
X711200Y475996D02*
X711200Y463804D01*
X736600Y463804D02*
X736600Y475996D01*
X736600Y540004D02*
X736600Y552196D01*
X711200Y552196D02*
X711200Y540004D01*
X685800Y540004D02*
X685800Y552196D01*
X660400Y552196D02*
X660400Y540004D01*
X635000Y540004D02*
X635000Y552196D01*
X609600Y552196D02*
X609600Y540004D01*
X584200Y540004D02*
X584200Y552196D01*
X558800Y552196D02*
X558800Y540004D01*
X533400Y540004D02*
X533400Y552196D01*
X508000Y552196D02*
X508000Y540004D01*
X508000Y844804D02*
X508000Y856996D01*
X533400Y856996D02*
X533400Y844804D01*
X660400Y844804D02*
X660400Y856996D01*
X685800Y856996D02*
X685800Y844804D01*
X558800Y844804D02*
X558800Y856996D01*
X584200Y856996D02*
X584200Y844804D01*
X635000Y844804D02*
X635000Y856996D01*
X609600Y856996D02*
X609600Y844804D01*
X711200Y844804D02*
X711200Y856996D01*
X736600Y856996D02*
X736600Y844804D01*
X736600Y921004D02*
X736600Y933196D01*
X711200Y933196D02*
X711200Y921004D01*
X685800Y921004D02*
X685800Y933196D01*
X660400Y933196D02*
X660400Y921004D01*
X635000Y921004D02*
X635000Y933196D01*
X609600Y933196D02*
X609600Y921004D01*
X584200Y921004D02*
X584200Y933196D01*
X558800Y933196D02*
X558800Y921004D01*
X533400Y921004D02*
X533400Y933196D01*
X508000Y933196D02*
X508000Y921004D01*
X825500Y729996D02*
X825500Y717804D01*
X850900Y717804D02*
X850900Y729996D01*
X977900Y729996D02*
X977900Y717804D01*
X1003300Y717804D02*
X1003300Y729996D01*
X876300Y729996D02*
X876300Y717804D01*
X901700Y717804D02*
X901700Y729996D01*
X952500Y729996D02*
X952500Y717804D01*
X927100Y717804D02*
X927100Y729996D01*
X1028700Y729996D02*
X1028700Y717804D01*
X1054100Y717804D02*
X1054100Y729996D01*
X1054100Y794004D02*
X1054100Y806196D01*
X1028700Y806196D02*
X1028700Y794004D01*
X1003300Y794004D02*
X1003300Y806196D01*
X977900Y806196D02*
X977900Y794004D01*
X952500Y794004D02*
X952500Y806196D01*
X927100Y806196D02*
X927100Y794004D01*
X901700Y794004D02*
X901700Y806196D01*
X876300Y806196D02*
X876300Y794004D01*
X850900Y794004D02*
X850900Y806196D01*
X825500Y806196D02*
X825500Y794004D01*
X508000Y602996D02*
X508000Y590804D01*
X533400Y590804D02*
X533400Y602996D01*
X660400Y602996D02*
X660400Y590804D01*
X685800Y590804D02*
X685800Y602996D01*
X558800Y602996D02*
X558800Y590804D01*
X584200Y590804D02*
X584200Y602996D01*
X635000Y602996D02*
X635000Y590804D01*
X609600Y590804D02*
X609600Y602996D01*
X711200Y602996D02*
X711200Y590804D01*
X736600Y590804D02*
X736600Y602996D01*
X736600Y667004D02*
X736600Y679196D01*
X711200Y679196D02*
X711200Y667004D01*
X685800Y667004D02*
X685800Y679196D01*
X660400Y679196D02*
X660400Y667004D01*
X635000Y667004D02*
X635000Y679196D01*
X609600Y679196D02*
X609600Y667004D01*
X584200Y667004D02*
X584200Y679196D01*
X558800Y679196D02*
X558800Y667004D01*
X533400Y667004D02*
X533400Y679196D01*
X508000Y679196D02*
X508000Y667004D01*
X508000Y717804D02*
X508000Y729996D01*
X533400Y729996D02*
X533400Y717804D01*
X660400Y717804D02*
X660400Y729996D01*
X685800Y729996D02*
X685800Y717804D01*
X558800Y717804D02*
X558800Y729996D01*
X584200Y729996D02*
X584200Y717804D01*
X635000Y717804D02*
X635000Y729996D01*
X609600Y729996D02*
X609600Y717804D01*
X711200Y717804D02*
X711200Y729996D01*
X736600Y729996D02*
X736600Y717804D01*
X736600Y794004D02*
X736600Y806196D01*
X711200Y806196D02*
X711200Y794004D01*
X685800Y794004D02*
X685800Y806196D01*
X660400Y806196D02*
X660400Y794004D01*
X635000Y794004D02*
X635000Y806196D01*
X609600Y806196D02*
X609600Y794004D01*
X584200Y794004D02*
X584200Y806196D01*
X558800Y806196D02*
X558800Y794004D01*
X533400Y794004D02*
X533400Y806196D01*
X508000Y806196D02*
X508000Y794004D01*
X241300Y348996D02*
X241300Y336804D01*
X266700Y336804D02*
X266700Y348996D01*
X393700Y348996D02*
X393700Y336804D01*
X419100Y336804D02*
X419100Y348996D01*
X292100Y348996D02*
X292100Y336804D01*
X317500Y336804D02*
X317500Y348996D01*
X368300Y348996D02*
X368300Y336804D01*
X342900Y336804D02*
X342900Y348996D01*
X419100Y413004D02*
X419100Y425196D01*
X393700Y425196D02*
X393700Y413004D01*
X368300Y413004D02*
X368300Y425196D01*
X342900Y425196D02*
X342900Y413004D01*
X317500Y413004D02*
X317500Y425196D01*
X292100Y425196D02*
X292100Y413004D01*
X266700Y413004D02*
X266700Y425196D01*
X241300Y425196D02*
X241300Y413004D01*
X558800Y221996D02*
X558800Y209804D01*
X584200Y209804D02*
X584200Y221996D01*
X711200Y221996D02*
X711200Y209804D01*
X736600Y209804D02*
X736600Y221996D01*
X609600Y221996D02*
X609600Y209804D01*
X635000Y209804D02*
X635000Y221996D01*
X685800Y221996D02*
X685800Y209804D01*
X660400Y209804D02*
X660400Y221996D01*
X736600Y286004D02*
X736600Y298196D01*
X711200Y298196D02*
X711200Y286004D01*
X685800Y286004D02*
X685800Y298196D01*
X660400Y298196D02*
X660400Y286004D01*
X635000Y286004D02*
X635000Y298196D01*
X609600Y298196D02*
X609600Y286004D01*
X584200Y286004D02*
X584200Y298196D01*
X558800Y298196D02*
X558800Y286004D01*
X1168400Y221996D02*
X1168400Y209804D01*
X1193800Y209804D02*
X1193800Y221996D01*
X1320800Y221996D02*
X1320800Y209804D01*
X1320800Y286004D02*
X1320800Y298196D01*
X1219200Y221996D02*
X1219200Y209804D01*
X1244600Y209804D02*
X1244600Y221996D01*
X1295400Y221996D02*
X1295400Y209804D01*
X1270000Y209804D02*
X1270000Y221996D01*
X1295400Y286004D02*
X1295400Y298196D01*
X1270000Y298196D02*
X1270000Y286004D01*
X1244600Y286004D02*
X1244600Y298196D01*
X1219200Y298196D02*
X1219200Y286004D01*
X1193800Y286004D02*
X1193800Y298196D01*
X1168400Y298196D02*
X1168400Y286004D01*
X1485900Y94996D02*
X1485900Y82804D01*
X1511300Y82804D02*
X1511300Y94996D01*
X1638300Y94996D02*
X1638300Y82804D01*
X1638300Y159004D02*
X1638300Y171196D01*
X1536700Y94996D02*
X1536700Y82804D01*
X1562100Y82804D02*
X1562100Y94996D01*
X1612900Y94996D02*
X1612900Y82804D01*
X1587500Y82804D02*
X1587500Y94996D01*
X1612900Y159004D02*
X1612900Y171196D01*
X1587500Y171196D02*
X1587500Y159004D01*
X1562100Y159004D02*
X1562100Y171196D01*
X1536700Y171196D02*
X1536700Y159004D01*
X1511300Y159004D02*
X1511300Y171196D01*
X1485900Y171196D02*
X1485900Y159004D01*
X241300Y209804D02*
X241300Y221996D01*
X266700Y221996D02*
X266700Y209804D01*
X393700Y209804D02*
X393700Y221996D01*
X419100Y221996D02*
X419100Y209804D01*
X292100Y209804D02*
X292100Y221996D01*
X317500Y221996D02*
X317500Y209804D01*
X368300Y209804D02*
X368300Y221996D01*
X342900Y221996D02*
X342900Y209804D01*
X419100Y286004D02*
X419100Y298196D01*
X393700Y298196D02*
X393700Y286004D01*
X368300Y286004D02*
X368300Y298196D01*
X342900Y298196D02*
X342900Y286004D01*
X317500Y286004D02*
X317500Y298196D01*
X292100Y298196D02*
X292100Y286004D01*
X266700Y286004D02*
X266700Y298196D01*
X241300Y298196D02*
X241300Y286004D01*
X584200Y94996D02*
X584200Y82804D01*
X609600Y82804D02*
X609600Y94996D01*
X736600Y94996D02*
X736600Y82804D01*
X736600Y159004D02*
X736600Y171196D01*
X635000Y94996D02*
X635000Y82804D01*
X660400Y82804D02*
X660400Y94996D01*
X711200Y94996D02*
X711200Y82804D01*
X685800Y82804D02*
X685800Y94996D01*
X711200Y159004D02*
X711200Y171196D01*
X685800Y171196D02*
X685800Y159004D01*
X660400Y159004D02*
X660400Y171196D01*
X635000Y171196D02*
X635000Y159004D01*
X609600Y159004D02*
X609600Y171196D01*
X584200Y171196D02*
X584200Y159004D01*
X215900Y971804D02*
X215900Y983996D01*
X241300Y983996D02*
X241300Y971804D01*
X266700Y971804D02*
X266700Y983996D01*
X292100Y983996D02*
X292100Y971804D01*
X317500Y971804D02*
X317500Y983996D01*
X342900Y983996D02*
X342900Y971804D01*
X368300Y971804D02*
X368300Y983996D01*
X393700Y983996D02*
X393700Y971804D01*
X419100Y971804D02*
X419100Y983996D01*
X215900Y1035304D02*
X215900Y1047496D01*
X241300Y1047496D02*
X241300Y1035304D01*
X266700Y1035304D02*
X266700Y1047496D01*
X292100Y1047496D02*
X292100Y1035304D01*
X317500Y1035304D02*
X317500Y1047496D01*
X342900Y1047496D02*
X342900Y1035304D01*
X368300Y1035304D02*
X368300Y1047496D01*
X393700Y1047496D02*
X393700Y1035304D01*
X419100Y1035304D02*
X419100Y1047496D01*
X190500Y856996D02*
X190500Y844804D01*
X215900Y844804D02*
X215900Y856996D01*
X342900Y856996D02*
X342900Y844804D01*
X368300Y844804D02*
X368300Y856996D01*
X241300Y856996D02*
X241300Y844804D01*
X266700Y844804D02*
X266700Y856996D01*
X317500Y856996D02*
X317500Y844804D01*
X292100Y844804D02*
X292100Y856996D01*
X393700Y856996D02*
X393700Y844804D01*
X419100Y844804D02*
X419100Y856996D01*
X419100Y921004D02*
X419100Y933196D01*
X393700Y933196D02*
X393700Y921004D01*
X368300Y921004D02*
X368300Y933196D01*
X342900Y933196D02*
X342900Y921004D01*
X317500Y921004D02*
X317500Y933196D01*
X292100Y933196D02*
X292100Y921004D01*
X266700Y921004D02*
X266700Y933196D01*
X241300Y933196D02*
X241300Y921004D01*
X215900Y921004D02*
X215900Y933196D01*
X190500Y933196D02*
X190500Y921004D01*
X190500Y729996D02*
X190500Y717804D01*
X215900Y717804D02*
X215900Y729996D01*
X342900Y729996D02*
X342900Y717804D01*
X368300Y717804D02*
X368300Y729996D01*
X241300Y729996D02*
X241300Y717804D01*
X266700Y717804D02*
X266700Y729996D01*
X317500Y729996D02*
X317500Y717804D01*
X292100Y717804D02*
X292100Y729996D01*
X393700Y729996D02*
X393700Y717804D01*
X419100Y717804D02*
X419100Y729996D01*
X419100Y794004D02*
X419100Y806196D01*
X393700Y806196D02*
X393700Y794004D01*
X368300Y794004D02*
X368300Y806196D01*
X342900Y806196D02*
X342900Y794004D01*
X317500Y794004D02*
X317500Y806196D01*
X292100Y806196D02*
X292100Y794004D01*
X266700Y794004D02*
X266700Y806196D01*
X241300Y806196D02*
X241300Y794004D01*
X215900Y794004D02*
X215900Y806196D01*
X190500Y806196D02*
X190500Y794004D01*
X1143000Y844804D02*
X1143000Y856996D01*
X1168400Y856996D02*
X1168400Y844804D01*
X1295400Y844804D02*
X1295400Y856996D01*
X1320800Y856996D02*
X1320800Y844804D01*
X1193800Y844804D02*
X1193800Y856996D01*
X1219200Y856996D02*
X1219200Y844804D01*
X1270000Y844804D02*
X1270000Y856996D01*
X1244600Y856996D02*
X1244600Y844804D01*
X1320800Y921004D02*
X1320800Y933196D01*
X1295400Y933196D02*
X1295400Y921004D01*
X1270000Y921004D02*
X1270000Y933196D01*
X1244600Y933196D02*
X1244600Y921004D01*
X1219200Y921004D02*
X1219200Y933196D01*
X1193800Y933196D02*
X1193800Y921004D01*
X1168400Y921004D02*
X1168400Y933196D01*
X1143000Y933196D02*
X1143000Y921004D01*
X1143000Y475996D02*
X1143000Y463804D01*
X1168400Y463804D02*
X1168400Y475996D01*
X1295400Y475996D02*
X1295400Y463804D01*
X1320800Y463804D02*
X1320800Y475996D01*
X1193800Y475996D02*
X1193800Y463804D01*
X1219200Y463804D02*
X1219200Y475996D01*
X1270000Y475996D02*
X1270000Y463804D01*
X1244600Y463804D02*
X1244600Y475996D01*
X1320800Y540004D02*
X1320800Y552196D01*
X1295400Y552196D02*
X1295400Y540004D01*
X1270000Y540004D02*
X1270000Y552196D01*
X1244600Y552196D02*
X1244600Y540004D01*
X1219200Y540004D02*
X1219200Y552196D01*
X1193800Y552196D02*
X1193800Y540004D01*
X1168400Y540004D02*
X1168400Y552196D01*
X1143000Y552196D02*
X1143000Y540004D01*
X1143000Y971804D02*
X1143000Y983996D01*
X1168400Y983996D02*
X1168400Y971804D01*
X1295400Y971804D02*
X1295400Y983996D01*
X1320800Y983996D02*
X1320800Y971804D01*
X1193800Y971804D02*
X1193800Y983996D01*
X1219200Y983996D02*
X1219200Y971804D01*
X1270000Y971804D02*
X1270000Y983996D01*
X1244600Y983996D02*
X1244600Y971804D01*
X1320800Y1048004D02*
X1320800Y1060196D01*
X1295400Y1060196D02*
X1295400Y1048004D01*
X1270000Y1048004D02*
X1270000Y1060196D01*
X1244600Y1060196D02*
X1244600Y1048004D01*
X1219200Y1048004D02*
X1219200Y1060196D01*
X1193800Y1060196D02*
X1193800Y1048004D01*
X1168400Y1048004D02*
X1168400Y1060196D01*
X1143000Y1060196D02*
X1143000Y1048004D01*
X1460500Y602996D02*
X1460500Y590804D01*
X1485900Y590804D02*
X1485900Y602996D01*
X1612900Y602996D02*
X1612900Y590804D01*
X1638300Y590804D02*
X1638300Y602996D01*
X1511300Y602996D02*
X1511300Y590804D01*
X1536700Y590804D02*
X1536700Y602996D01*
X1587500Y602996D02*
X1587500Y590804D01*
X1562100Y590804D02*
X1562100Y602996D01*
X1638300Y667004D02*
X1638300Y679196D01*
X1612900Y679196D02*
X1612900Y667004D01*
X1587500Y667004D02*
X1587500Y679196D01*
X1562100Y679196D02*
X1562100Y667004D01*
X1536700Y667004D02*
X1536700Y679196D01*
X1511300Y679196D02*
X1511300Y667004D01*
X1485900Y667004D02*
X1485900Y679196D01*
X1460500Y679196D02*
X1460500Y667004D01*
X1409700Y844804D02*
X1409700Y856996D01*
X1435100Y856996D02*
X1435100Y844804D01*
X1562100Y844804D02*
X1562100Y856996D01*
X1587500Y856996D02*
X1587500Y844804D01*
X1460500Y844804D02*
X1460500Y856996D01*
X1485900Y856996D02*
X1485900Y844804D01*
X1536700Y844804D02*
X1536700Y856996D01*
X1511300Y856996D02*
X1511300Y844804D01*
X1612900Y844804D02*
X1612900Y856996D01*
X1638300Y856996D02*
X1638300Y844804D01*
X1638300Y921004D02*
X1638300Y933196D01*
X1612900Y933196D02*
X1612900Y921004D01*
X1587500Y921004D02*
X1587500Y933196D01*
X1562100Y933196D02*
X1562100Y921004D01*
X1536700Y921004D02*
X1536700Y933196D01*
X1511300Y933196D02*
X1511300Y921004D01*
X1485900Y921004D02*
X1485900Y933196D01*
X1460500Y933196D02*
X1460500Y921004D01*
X1435100Y921004D02*
X1435100Y933196D01*
X1409700Y933196D02*
X1409700Y921004D01*
X1460500Y971804D02*
X1460500Y983996D01*
X1485900Y983996D02*
X1485900Y971804D01*
X1612900Y971804D02*
X1612900Y983996D01*
X1638300Y983996D02*
X1638300Y971804D01*
X1511300Y971804D02*
X1511300Y983996D01*
X1536700Y983996D02*
X1536700Y971804D01*
X1587500Y971804D02*
X1587500Y983996D01*
X1562100Y983996D02*
X1562100Y971804D01*
X1638300Y1048004D02*
X1638300Y1060196D01*
X1612900Y1060196D02*
X1612900Y1048004D01*
X1587500Y1048004D02*
X1587500Y1060196D01*
X1562100Y1060196D02*
X1562100Y1048004D01*
X1536700Y1048004D02*
X1536700Y1060196D01*
X1511300Y1060196D02*
X1511300Y1048004D01*
X1485900Y1048004D02*
X1485900Y1060196D01*
X1460500Y1060196D02*
X1460500Y1048004D01*
D11*
X876300Y495300D03*
X876300Y520700D03*
X1143000Y114300D03*
X1143000Y139700D03*
X215900Y622300D03*
X215900Y647700D03*
X1384300Y876300D03*
X1384300Y901700D03*
X1117600Y495300D03*
X1117600Y520700D03*
X1143000Y368300D03*
X1143000Y393700D03*
X241300Y114300D03*
X241300Y139700D03*
X482600Y495300D03*
X482600Y520700D03*
X215900Y241300D03*
X215900Y266700D03*
X1117600Y876300D03*
X1117600Y901700D03*
X800100Y749300D03*
X800100Y774700D03*
X1460500Y368300D03*
X1460500Y393700D03*
X1435100Y1003300D03*
X1435100Y1028700D03*
X1117600Y1003300D03*
X1117600Y1028700D03*
X1460500Y241300D03*
X1460500Y266700D03*
X482600Y368300D03*
X482600Y393700D03*
X215900Y368300D03*
X215900Y393700D03*
X482600Y876300D03*
X482600Y901700D03*
X876300Y1003300D03*
X876300Y1028700D03*
X1143000Y241300D03*
X1143000Y266700D03*
X876300Y876300D03*
X876300Y901700D03*
X1460500Y114300D03*
X1460500Y139700D03*
X533400Y241300D03*
X533400Y266700D03*
X165100Y749300D03*
X165100Y774700D03*
X165100Y876300D03*
X165100Y901700D03*
X1384300Y749300D03*
X1384300Y774700D03*
X1435100Y622300D03*
X1435100Y647700D03*
X1143000Y749300D03*
X1143000Y774700D03*
X1143000Y622300D03*
X1143000Y647700D03*
X1435100Y495300D03*
X1435100Y520700D03*
X876300Y241300D03*
X876300Y266700D03*
X876300Y114300D03*
X876300Y139700D03*
X558800Y114300D03*
X558800Y139700D03*
X482600Y990600D03*
X482600Y1016000D03*
X876300Y622300D03*
X876300Y647700D03*
X165100Y495300D03*
X165100Y520700D03*
X800100Y368300D03*
X800100Y393700D03*
D10*
X901700Y221996D02*
X901700Y209804D01*
X927100Y209804D02*
X927100Y221996D01*
X1054100Y221996D02*
X1054100Y209804D01*
X1054100Y286004D02*
X1054100Y298196D01*
X952500Y221996D02*
X952500Y209804D01*
X977900Y209804D02*
X977900Y221996D01*
X1028700Y221996D02*
X1028700Y209804D01*
X1003300Y209804D02*
X1003300Y221996D01*
X1028700Y286004D02*
X1028700Y298196D01*
X1003300Y298196D02*
X1003300Y286004D01*
X977900Y286004D02*
X977900Y298196D01*
X952500Y298196D02*
X952500Y286004D01*
X927100Y286004D02*
X927100Y298196D01*
X901700Y298196D02*
X901700Y286004D01*
X901700Y94996D02*
X901700Y82804D01*
X927100Y82804D02*
X927100Y94996D01*
X1054100Y94996D02*
X1054100Y82804D01*
X1054100Y159004D02*
X1054100Y171196D01*
X952500Y94996D02*
X952500Y82804D01*
X977900Y82804D02*
X977900Y94996D01*
X1028700Y94996D02*
X1028700Y82804D01*
X1003300Y82804D02*
X1003300Y94996D01*
X1028700Y159004D02*
X1028700Y171196D01*
X1003300Y171196D02*
X1003300Y159004D01*
X977900Y159004D02*
X977900Y171196D01*
X952500Y171196D02*
X952500Y159004D01*
X927100Y159004D02*
X927100Y171196D01*
X901700Y171196D02*
X901700Y159004D01*
X901700Y844804D02*
X901700Y856996D01*
X927100Y856996D02*
X927100Y844804D01*
X1054100Y844804D02*
X1054100Y856996D01*
X1054100Y921004D02*
X1054100Y933196D01*
X952500Y856996D02*
X952500Y844804D01*
X977900Y844804D02*
X977900Y856996D01*
X1028700Y856996D02*
X1028700Y844804D01*
X1003300Y844804D02*
X1003300Y856996D01*
X1028700Y921004D02*
X1028700Y933196D01*
X1003300Y933196D02*
X1003300Y921004D01*
X977900Y921004D02*
X977900Y933196D01*
X952500Y933196D02*
X952500Y921004D01*
X927100Y921004D02*
X927100Y933196D01*
X901700Y933196D02*
X901700Y921004D01*
X508000Y348996D02*
X508000Y336804D01*
X533400Y336804D02*
X533400Y348996D01*
X660400Y348996D02*
X660400Y336804D01*
X685800Y336804D02*
X685800Y348996D01*
X558800Y348996D02*
X558800Y336804D01*
X584200Y336804D02*
X584200Y348996D01*
X635000Y348996D02*
X635000Y336804D01*
X609600Y336804D02*
X609600Y348996D01*
X711200Y348996D02*
X711200Y336804D01*
X736600Y336804D02*
X736600Y348996D01*
X736600Y413004D02*
X736600Y425196D01*
X711200Y425196D02*
X711200Y413004D01*
X685800Y413004D02*
X685800Y425196D01*
X660400Y425196D02*
X660400Y413004D01*
X635000Y413004D02*
X635000Y425196D01*
X609600Y425196D02*
X609600Y413004D01*
X584200Y413004D02*
X584200Y425196D01*
X558800Y425196D02*
X558800Y413004D01*
X533400Y413004D02*
X533400Y425196D01*
X508000Y425196D02*
X508000Y413004D01*
X825500Y348996D02*
X825500Y336804D01*
X850900Y336804D02*
X850900Y348996D01*
X977900Y348996D02*
X977900Y336804D01*
X1003300Y336804D02*
X1003300Y348996D01*
X876300Y348996D02*
X876300Y336804D01*
X901700Y336804D02*
X901700Y348996D01*
X952500Y348996D02*
X952500Y336804D01*
X927100Y336804D02*
X927100Y348996D01*
X1028700Y348996D02*
X1028700Y336804D01*
X1054100Y336804D02*
X1054100Y348996D01*
X1054100Y413004D02*
X1054100Y425196D01*
X1028700Y425196D02*
X1028700Y413004D01*
X1003300Y413004D02*
X1003300Y425196D01*
X977900Y425196D02*
X977900Y413004D01*
X952500Y413004D02*
X952500Y425196D01*
X927100Y425196D02*
X927100Y413004D01*
X901700Y413004D02*
X901700Y425196D01*
X876300Y425196D02*
X876300Y413004D01*
X850900Y413004D02*
X850900Y425196D01*
X825500Y425196D02*
X825500Y413004D01*
X508000Y959104D02*
X508000Y971296D01*
X533400Y971296D02*
X533400Y959104D01*
X660400Y959104D02*
X660400Y971296D01*
X685800Y971296D02*
X685800Y959104D01*
X558800Y959104D02*
X558800Y971296D01*
X584200Y971296D02*
X584200Y959104D01*
X635000Y959104D02*
X635000Y971296D01*
X609600Y971296D02*
X609600Y959104D01*
X711200Y959104D02*
X711200Y971296D01*
X736600Y971296D02*
X736600Y959104D01*
X736600Y1035304D02*
X736600Y1047496D01*
X711200Y1047496D02*
X711200Y1035304D01*
X685800Y1035304D02*
X685800Y1047496D01*
X660400Y1047496D02*
X660400Y1035304D01*
X635000Y1035304D02*
X635000Y1047496D01*
X609600Y1047496D02*
X609600Y1035304D01*
X584200Y1035304D02*
X584200Y1047496D01*
X558800Y1047496D02*
X558800Y1035304D01*
X533400Y1035304D02*
X533400Y1047496D01*
X508000Y1047496D02*
X508000Y1035304D01*
X901700Y602996D02*
X901700Y590804D01*
X927100Y590804D02*
X927100Y602996D01*
X1054100Y602996D02*
X1054100Y590804D01*
X1054100Y667004D02*
X1054100Y679196D01*
X952500Y602996D02*
X952500Y590804D01*
X977900Y590804D02*
X977900Y602996D01*
X1028700Y602996D02*
X1028700Y590804D01*
X1003300Y590804D02*
X1003300Y602996D01*
X1028700Y667004D02*
X1028700Y679196D01*
X1003300Y679196D02*
X1003300Y667004D01*
X977900Y667004D02*
X977900Y679196D01*
X952500Y679196D02*
X952500Y667004D01*
X927100Y667004D02*
X927100Y679196D01*
X901700Y679196D02*
X901700Y667004D01*
X901700Y475996D02*
X901700Y463804D01*
X927100Y463804D02*
X927100Y475996D01*
X1054100Y475996D02*
X1054100Y463804D01*
X1054100Y540004D02*
X1054100Y552196D01*
X952500Y475996D02*
X952500Y463804D01*
X977900Y463804D02*
X977900Y475996D01*
X1028700Y475996D02*
X1028700Y463804D01*
X1003300Y463804D02*
X1003300Y475996D01*
X1028700Y540004D02*
X1028700Y552196D01*
X1003300Y552196D02*
X1003300Y540004D01*
X977900Y540004D02*
X977900Y552196D01*
X952500Y552196D02*
X952500Y540004D01*
X927100Y540004D02*
X927100Y552196D01*
X901700Y552196D02*
X901700Y540004D01*
X901700Y971804D02*
X901700Y983996D01*
X927100Y983996D02*
X927100Y971804D01*
X1054100Y971804D02*
X1054100Y983996D01*
X1054100Y1048004D02*
X1054100Y1060196D01*
X952500Y983996D02*
X952500Y971804D01*
X977900Y971804D02*
X977900Y983996D01*
X1028700Y983996D02*
X1028700Y971804D01*
X1003300Y971804D02*
X1003300Y983996D01*
X1028700Y1048004D02*
X1028700Y1060196D01*
X1003300Y1060196D02*
X1003300Y1048004D01*
X977900Y1048004D02*
X977900Y1060196D01*
X952500Y1060196D02*
X952500Y1048004D01*
X927100Y1048004D02*
X927100Y1060196D01*
X901700Y1060196D02*
X901700Y1048004D01*
X1485900Y221996D02*
X1485900Y209804D01*
X1511300Y209804D02*
X1511300Y221996D01*
X1638300Y221996D02*
X1638300Y209804D01*
X1638300Y286004D02*
X1638300Y298196D01*
X1536700Y221996D02*
X1536700Y209804D01*
X1562100Y209804D02*
X1562100Y221996D01*
X1612900Y221996D02*
X1612900Y209804D01*
X1587500Y209804D02*
X1587500Y221996D01*
X1612900Y286004D02*
X1612900Y298196D01*
X1587500Y298196D02*
X1587500Y286004D01*
X1562100Y286004D02*
X1562100Y298196D01*
X1536700Y298196D02*
X1536700Y286004D01*
X1511300Y286004D02*
X1511300Y298196D01*
X1485900Y298196D02*
X1485900Y286004D01*
X1485900Y336804D02*
X1485900Y348996D01*
X1511300Y348996D02*
X1511300Y336804D01*
X1638300Y336804D02*
X1638300Y348996D01*
X1638300Y413004D02*
X1638300Y425196D01*
X1536700Y348996D02*
X1536700Y336804D01*
X1562100Y336804D02*
X1562100Y348996D01*
X1612900Y348996D02*
X1612900Y336804D01*
X1587500Y336804D02*
X1587500Y348996D01*
X1612900Y413004D02*
X1612900Y425196D01*
X1587500Y425196D02*
X1587500Y413004D01*
X1562100Y413004D02*
X1562100Y425196D01*
X1536700Y425196D02*
X1536700Y413004D01*
X1511300Y413004D02*
X1511300Y425196D01*
X1485900Y425196D02*
X1485900Y413004D01*
X1168400Y348996D02*
X1168400Y336804D01*
X1193800Y336804D02*
X1193800Y348996D01*
X1320800Y348996D02*
X1320800Y336804D01*
X1320800Y413004D02*
X1320800Y425196D01*
X1219200Y348996D02*
X1219200Y336804D01*
X1244600Y336804D02*
X1244600Y348996D01*
X1295400Y348996D02*
X1295400Y336804D01*
X1270000Y336804D02*
X1270000Y348996D01*
X1295400Y413004D02*
X1295400Y425196D01*
X1270000Y425196D02*
X1270000Y413004D01*
X1244600Y413004D02*
X1244600Y425196D01*
X1219200Y425196D02*
X1219200Y413004D01*
X1193800Y413004D02*
X1193800Y425196D01*
X1168400Y425196D02*
X1168400Y413004D01*
X1168400Y94996D02*
X1168400Y82804D01*
X1193800Y82804D02*
X1193800Y94996D01*
X1320800Y94996D02*
X1320800Y82804D01*
X1320800Y159004D02*
X1320800Y171196D01*
X1219200Y94996D02*
X1219200Y82804D01*
X1244600Y82804D02*
X1244600Y94996D01*
X1295400Y94996D02*
X1295400Y82804D01*
X1270000Y82804D02*
X1270000Y94996D01*
X1295400Y159004D02*
X1295400Y171196D01*
X1270000Y171196D02*
X1270000Y159004D01*
X1244600Y159004D02*
X1244600Y171196D01*
X1219200Y171196D02*
X1219200Y159004D01*
X1193800Y159004D02*
X1193800Y171196D01*
X1168400Y171196D02*
X1168400Y159004D01*
X1460500Y463804D02*
X1460500Y475996D01*
X1485900Y475996D02*
X1485900Y463804D01*
X1612900Y463804D02*
X1612900Y475996D01*
X1638300Y475996D02*
X1638300Y463804D01*
X1511300Y463804D02*
X1511300Y475996D01*
X1536700Y475996D02*
X1536700Y463804D01*
X1587500Y463804D02*
X1587500Y475996D01*
X1562100Y475996D02*
X1562100Y463804D01*
X1638300Y540004D02*
X1638300Y552196D01*
X1612900Y552196D02*
X1612900Y540004D01*
X1587500Y540004D02*
X1587500Y552196D01*
X1562100Y552196D02*
X1562100Y540004D01*
X1536700Y540004D02*
X1536700Y552196D01*
X1511300Y552196D02*
X1511300Y540004D01*
X1485900Y540004D02*
X1485900Y552196D01*
X1460500Y552196D02*
X1460500Y540004D01*
D11*
X482600Y749300D03*
X482600Y774700D03*
X482600Y622300D03*
X482600Y647700D03*
D12*
X1714500Y635000D03*
X1714500Y609600D03*
X1714500Y584200D03*
X1714500Y558800D03*
X1714500Y533400D03*
X1739900Y635000D03*
X1739900Y609600D03*
X1739900Y584200D03*
X1739900Y558800D03*
X1739900Y533400D03*
D13*
X50800Y177800D03*
X50800Y203200D03*
X50800Y228600D03*
X50800Y254000D03*
X50800Y279400D03*
X50800Y304800D03*
X50800Y330200D03*
X50800Y355600D03*
X50800Y381000D03*
X50800Y406400D03*
X50800Y431800D03*
X50800Y457200D03*
X50800Y482600D03*
X50800Y508000D03*
X50800Y533400D03*
X50800Y558800D03*
X76200Y177800D03*
X76200Y203200D03*
X76200Y228600D03*
X76200Y254000D03*
X76200Y279400D03*
X76200Y304800D03*
X76200Y330200D03*
X76200Y355600D03*
X76200Y381000D03*
X76200Y406400D03*
X76200Y431800D03*
X76200Y457200D03*
X76200Y482600D03*
X76200Y508000D03*
X76200Y533400D03*
X76200Y558800D03*
X101600Y177800D03*
X101600Y203200D03*
X101600Y228600D03*
X101600Y254000D03*
X101600Y279400D03*
X101600Y304800D03*
X101600Y330200D03*
X101600Y355600D03*
X101600Y381000D03*
X101600Y406400D03*
X101600Y431800D03*
X101600Y457200D03*
X101600Y482600D03*
X101600Y508000D03*
X101600Y533400D03*
X101600Y558800D03*
X50800Y584200D03*
X50800Y609600D03*
X50800Y635000D03*
X50800Y660400D03*
X50800Y685800D03*
X50800Y711200D03*
X50800Y736600D03*
X50800Y762000D03*
X50800Y787400D03*
X50800Y812800D03*
X50800Y838200D03*
X50800Y863600D03*
X50800Y889000D03*
X50800Y914400D03*
X50800Y939800D03*
X50800Y965200D03*
X76200Y584200D03*
X76200Y609600D03*
X76200Y635000D03*
X76200Y660400D03*
X76200Y685800D03*
X76200Y711200D03*
X76200Y736600D03*
X76200Y762000D03*
X76200Y787400D03*
X76200Y812800D03*
X76200Y838200D03*
X76200Y863600D03*
X76200Y889000D03*
X76200Y914400D03*
X76200Y939800D03*
X76200Y965200D03*
X101600Y584200D03*
X101600Y609600D03*
X101600Y635000D03*
X101600Y660400D03*
X101600Y685800D03*
X101600Y711200D03*
X101600Y736600D03*
X101600Y762000D03*
X101600Y787400D03*
X101600Y812800D03*
X101600Y838200D03*
X101600Y863600D03*
X101600Y889000D03*
X101600Y914400D03*
X101600Y939800D03*
X101600Y965200D03*
D14*
X1752600Y38100D03*
X1727200Y38100D03*
D15*
X1549400Y38100D03*
X1651000Y38100D03*
D16*
X101600Y55880D02*
X101600Y71120D01*
X127000Y71120D02*
X127000Y55880D01*
X152400Y55880D02*
X152400Y71120D01*
D17*
X266700Y520700D02*
X241300Y546100D01*
X266700Y520700D02*
X463550Y520700D01*
X860425Y403225D02*
X876300Y419100D01*
X860425Y403225D02*
X809625Y403225D01*
X806450Y406400D01*
X742950Y406400D01*
X739775Y403225D01*
X574675Y403225D01*
X558800Y419100D01*
D18*
X463550Y520700D03*
D17*
X311150Y527050D02*
X292100Y546100D01*
X311150Y527050D02*
X469900Y527050D01*
X479425Y536575D01*
X495300Y536575D01*
X908050Y400050D02*
X927100Y419100D01*
X908050Y400050D02*
X806450Y400050D01*
X803275Y403225D01*
X746125Y403225D01*
X739775Y396875D01*
X628650Y396875D01*
X1495425Y815975D02*
X1511300Y800100D01*
X1495425Y815975D02*
X1292225Y815975D01*
X1279525Y803275D01*
X1279525Y784225D01*
X1063625Y784225D01*
X1050925Y771525D01*
X822325Y771525D01*
X768350Y825500D02*
X762000Y831850D01*
X603250Y831850D01*
X584200Y850900D01*
D18*
X495300Y536575D03*
X628650Y396875D03*
X822325Y771525D03*
X768350Y825500D03*
D17*
X358775Y530225D02*
X342900Y546100D01*
X358775Y530225D02*
X466725Y530225D01*
X479425Y542925D01*
X495300Y542925D01*
X942975Y384175D02*
X977900Y419100D01*
X942975Y384175D02*
X574675Y384175D01*
X549275Y409575D01*
X549275Y434975D01*
X644525Y434975D01*
X660400Y419100D01*
X1546225Y784225D02*
X1562100Y800100D01*
X1546225Y784225D02*
X1285875Y784225D01*
X1260475Y758825D01*
X822325Y758825D01*
X803275Y739775D01*
X793750Y739775D01*
X787400Y746125D01*
X641350Y746125D01*
D18*
X495300Y542925D03*
X641350Y746125D03*
D17*
X685800Y454025D02*
X685800Y434975D01*
X685800Y454025D02*
X685800Y469900D01*
X685800Y434975D02*
X695325Y434975D01*
X711200Y419100D01*
X485775Y454025D02*
X482600Y457200D01*
X546100Y454025D02*
X685800Y454025D01*
X546100Y454025D02*
X485775Y454025D01*
X990600Y381000D02*
X1028700Y419100D01*
X990600Y381000D02*
X571500Y381000D01*
X546100Y406400D01*
X546100Y454025D01*
X1612900Y927100D02*
X1625600Y939800D01*
X1625600Y1079500D01*
X746125Y1079500D01*
D18*
X482600Y457200D03*
X746125Y1079500D03*
D17*
X1028700Y342900D02*
X1012825Y327025D01*
X727075Y327025D01*
X711200Y342900D01*
X431800Y508000D02*
X393700Y469900D01*
X431800Y508000D02*
X698500Y508000D01*
X736600Y546100D01*
X1593850Y869950D02*
X1612900Y850900D01*
X1593850Y869950D02*
X1517650Y869950D01*
X1476375Y911225D01*
X1355725Y911225D01*
X1323975Y942975D01*
X1292225Y942975D01*
X1279525Y930275D01*
X1279525Y892175D01*
X965200Y892175D01*
X958850Y898525D02*
X946150Y911225D01*
X812800Y911225D01*
X796925Y927100D01*
X736600Y927100D01*
D18*
X965200Y892175D03*
X958850Y898525D03*
D17*
X358775Y454025D02*
X342900Y469900D01*
X358775Y454025D02*
X469900Y454025D01*
X517525Y501650D01*
X644525Y501650D01*
X952500Y323850D02*
X955675Y320675D01*
X952500Y323850D02*
X685800Y323850D01*
X666750Y342900D01*
X660400Y342900D01*
X1543050Y704850D02*
X1562100Y723900D01*
X1543050Y704850D02*
X679450Y704850D01*
X669925Y695325D01*
X669925Y596900D01*
X660400Y596900D01*
D18*
X644525Y501650D03*
X955675Y320675D03*
D17*
X333375Y511175D02*
X292100Y469900D01*
X333375Y511175D02*
X600075Y511175D01*
X635000Y546100D01*
X898525Y320675D02*
X901700Y317500D01*
X898525Y320675D02*
X682625Y320675D01*
X676275Y327025D01*
X631825Y327025D01*
X615950Y342900D01*
X609600Y342900D01*
X1479550Y819150D02*
X1511300Y850900D01*
X1479550Y819150D02*
X1092200Y819150D01*
X1050925Y777875D01*
X822325Y777875D01*
X803275Y758825D01*
X711200Y758825D01*
D18*
X901700Y317500D03*
X711200Y758825D03*
D17*
X285750Y514350D02*
X241300Y469900D01*
X285750Y514350D02*
X463550Y514350D01*
X479425Y530225D01*
X568325Y530225D01*
X584200Y546100D01*
X876300Y342900D02*
X892175Y358775D01*
X1031875Y358775D01*
X1038225Y352425D01*
X1038225Y311150D01*
X854075Y311150D01*
X847725Y317500D01*
X679450Y317500D01*
X673100Y323850D01*
X628650Y323850D01*
X625475Y327025D01*
X581025Y327025D01*
X565150Y342900D01*
X558800Y342900D01*
X1444625Y866775D02*
X1460500Y850900D01*
X1444625Y866775D02*
X1235075Y866775D01*
X1216025Y885825D01*
X654050Y885825D01*
D18*
X654050Y885825D03*
D17*
X1152525Y739775D02*
X1168400Y723900D01*
X1152525Y739775D02*
X866775Y739775D01*
X850900Y723900D01*
X549275Y739775D02*
X533400Y723900D01*
X549275Y739775D02*
X787400Y739775D01*
X790575Y736600D01*
X819150Y736600D01*
X822325Y739775D01*
X866775Y739775D01*
X1527175Y993775D02*
X1587500Y1054100D01*
X1527175Y993775D02*
X1409700Y993775D01*
X1406525Y990600D01*
X1333500Y990600D01*
X1327150Y996950D01*
X1168400Y996950D01*
X1158875Y987425D01*
X1158875Y962025D01*
X1177925Y962025D01*
X1193800Y977900D01*
X927100Y723900D02*
X942975Y708025D01*
X1222375Y708025D02*
X1228725Y708025D01*
X1222375Y708025D02*
X942975Y708025D01*
X1228725Y708025D02*
X1244600Y723900D01*
X1666875Y708025D02*
X1739900Y635000D01*
X1666875Y708025D02*
X1584325Y708025D01*
X1571625Y720725D01*
X1571625Y739775D01*
X1263650Y739775D01*
X1260475Y742950D01*
X1257300Y742950D01*
X1222375Y708025D01*
X600075Y708025D02*
X584200Y723900D01*
X600075Y708025D02*
X942975Y708025D01*
X1517650Y628650D02*
X1527175Y619125D01*
X1730375Y619125D01*
X1739900Y609600D01*
X257175Y327025D02*
X241300Y342900D01*
X257175Y327025D02*
X498475Y327025D01*
X501650Y323850D01*
X571500Y323850D01*
X577850Y317500D01*
X666750Y317500D01*
X673100Y311150D01*
X841375Y311150D01*
X869950Y282575D01*
X892175Y282575D01*
X898525Y276225D01*
X936625Y276225D01*
X952500Y292100D01*
X714375Y695325D02*
X717550Y698500D01*
X927100Y698500D01*
X952500Y673100D01*
X1241425Y949325D02*
X1270000Y977900D01*
X1241425Y949325D02*
X1019175Y949325D01*
X1016000Y946150D01*
X946150Y946150D01*
X1489075Y657225D02*
X1517650Y628650D01*
X1489075Y657225D02*
X1355725Y657225D01*
X1320800Y692150D01*
X1092200Y692150D01*
X1057275Y657225D01*
X968375Y657225D01*
X952500Y673100D01*
D18*
X1517650Y628650D03*
X714375Y695325D03*
X946150Y946150D03*
D17*
X1181100Y609600D02*
X1168400Y596900D01*
X1181100Y609600D02*
X1187450Y609600D01*
X1190625Y612775D01*
X1495425Y612775D01*
X1511300Y596900D01*
X1270000Y1003300D02*
X1260475Y1012825D01*
X996950Y1012825D01*
X955675Y1054100D01*
X952500Y1054100D01*
X1714500Y584200D02*
X1730375Y568325D01*
X1746250Y568325D01*
X1749425Y565150D01*
X1749425Y542925D01*
X1660525Y542925D01*
X1644650Y527050D01*
X1454150Y527050D01*
X1438275Y511175D01*
X1206500Y511175D01*
X1193800Y523875D01*
X1127125Y523875D01*
X1120775Y530225D01*
X968375Y530225D01*
X952500Y546100D01*
X1123950Y555625D02*
X1123950Y530225D01*
X1120775Y530225D01*
D18*
X1270000Y1003300D03*
X1123950Y555625D03*
D17*
X1244600Y596900D02*
X1260475Y581025D01*
X1520825Y581025D01*
X1536700Y596900D01*
X1724025Y600075D02*
X1739900Y584200D01*
X1724025Y600075D02*
X1654175Y600075D01*
X1641475Y612775D01*
X1555750Y612775D01*
D18*
X1555750Y612775D03*
D17*
X600075Y815975D02*
X584200Y800100D01*
X600075Y815975D02*
X835025Y815975D01*
X850900Y800100D01*
X1587500Y596900D02*
X1616075Y568325D01*
X1724025Y568325D01*
X1733550Y558800D01*
X590550Y184150D02*
X581025Y193675D01*
X590550Y184150D02*
X933450Y184150D01*
X952500Y165100D01*
X1162050Y615950D02*
X1219200Y673100D01*
X1162050Y615950D02*
X1155700Y615950D01*
X1152525Y612775D01*
X1152525Y561975D01*
X1044575Y561975D01*
X1028700Y546100D01*
X1546225Y1069975D02*
X1562100Y1054100D01*
X1546225Y1069975D02*
X1044575Y1069975D01*
X1028700Y1054100D01*
X1720850Y546100D02*
X1733550Y558800D01*
X1720850Y546100D02*
X1657350Y546100D01*
X1641475Y530225D01*
X1235075Y530225D01*
X1231900Y527050D01*
X1162050Y527050D01*
X1152525Y536575D01*
X1152525Y561975D01*
X1733550Y558800D02*
X1739900Y558800D01*
D18*
X581025Y193675D03*
D17*
X1244600Y850900D02*
X1228725Y866775D01*
X942975Y866775D01*
X927100Y850900D01*
X558800Y800100D02*
X527050Y831850D01*
X457200Y831850D01*
X403225Y885825D01*
X282575Y885825D01*
X241300Y927100D01*
X927100Y596900D02*
X942975Y612775D01*
X1006475Y612775D01*
X1012825Y606425D01*
X1012825Y577850D01*
X552450Y577850D01*
X533400Y596900D01*
X1003300Y850900D02*
X1019175Y835025D01*
X1177925Y835025D01*
X1193800Y850900D01*
X600075Y581025D02*
X584200Y596900D01*
X600075Y581025D02*
X987425Y581025D01*
X1003300Y596900D01*
X609600Y800100D02*
X593725Y784225D01*
X581025Y784225D01*
X568325Y796925D01*
X568325Y819150D02*
X568325Y835025D01*
X568325Y819150D02*
X568325Y796925D01*
X568325Y835025D02*
X460375Y835025D01*
X406400Y889000D01*
X304800Y889000D01*
X266700Y927100D01*
X971550Y819150D02*
X1003300Y850900D01*
X971550Y819150D02*
X568325Y819150D01*
X1177925Y942975D02*
X1193800Y927100D01*
X1177925Y942975D02*
X1025525Y942975D01*
X1009650Y927100D01*
X1003300Y927100D01*
X327025Y892175D02*
X292100Y927100D01*
X647700Y892175D02*
X746125Y892175D01*
X647700Y892175D02*
X327025Y892175D01*
X746125Y892175D02*
X749300Y889000D01*
X955675Y889000D01*
X977900Y911225D01*
X987425Y911225D01*
X1003300Y927100D01*
X647700Y892175D02*
X647700Y876300D01*
D18*
X647700Y876300D03*
D17*
X746125Y657225D02*
X685800Y596900D01*
X819150Y657225D02*
X911225Y657225D01*
X819150Y657225D02*
X746125Y657225D01*
X911225Y657225D02*
X927100Y673100D01*
X819150Y657225D02*
X819150Y692150D01*
X1225550Y946150D02*
X1244600Y927100D01*
X1225550Y946150D02*
X1022350Y946150D01*
X1019175Y942975D01*
X949325Y942975D01*
X933450Y927100D01*
X927100Y927100D01*
X333375Y911225D02*
X317500Y927100D01*
X333375Y911225D02*
X473075Y911225D01*
X504825Y942975D01*
X911225Y942975D01*
X927100Y927100D01*
D18*
X819150Y692150D03*
D17*
X927100Y546100D02*
X962025Y511175D01*
X1200150Y511175D01*
X1241425Y469900D01*
X1244600Y469900D01*
X927100Y1054100D02*
X911225Y1069975D01*
X371475Y1069975D01*
X342900Y1041400D01*
X911225Y993775D02*
X927100Y977900D01*
X911225Y993775D02*
X492125Y993775D01*
X460375Y1025525D01*
X384175Y1025525D01*
X368300Y1041400D01*
X927100Y488950D02*
X927100Y469900D01*
X927100Y488950D02*
X1111250Y488950D01*
X1114425Y485775D01*
X1177925Y485775D01*
X1193800Y469900D01*
X384175Y149225D02*
X368300Y165100D01*
X384175Y149225D02*
X619125Y149225D01*
X663575Y104775D01*
X723900Y104775D02*
X987425Y104775D01*
X723900Y104775D02*
X663575Y104775D01*
X987425Y104775D02*
X1003300Y88900D01*
X723900Y104775D02*
X723900Y142875D01*
D18*
X723900Y142875D03*
D17*
X342900Y165100D02*
X327025Y149225D01*
X314325Y149225D01*
X301625Y161925D01*
X301625Y184150D01*
X254000Y184150D01*
X231775Y206375D01*
X231775Y276225D01*
X371475Y276225D01*
X384175Y288925D01*
X384175Y317500D01*
X549275Y317500D02*
X565150Y317500D01*
X549275Y317500D02*
X384175Y317500D01*
X565150Y317500D02*
X574675Y307975D01*
X619125Y307975D01*
X635000Y292100D01*
X549275Y317500D02*
X549275Y257175D01*
X587375Y257175D01*
X609600Y234950D01*
X863600Y234950D01*
X898525Y200025D01*
X1006475Y200025D01*
X1019175Y212725D01*
X1019175Y231775D01*
X1031875Y231775D01*
X1038225Y225425D01*
X1038225Y180975D01*
X1019175Y180975D01*
X1003300Y165100D01*
X393700Y927100D02*
X447675Y981075D01*
X542925Y981075D01*
X549275Y987425D01*
X873125Y987425D01*
X898525Y962025D01*
X987425Y962025D01*
X1003300Y977900D01*
X333375Y180975D02*
X317500Y165100D01*
X619125Y180975D02*
X911225Y180975D01*
X619125Y180975D02*
X333375Y180975D01*
X911225Y180975D02*
X927100Y165100D01*
X619125Y257175D02*
X584200Y292100D01*
X619125Y180975D02*
X619125Y177800D01*
X1003300Y1054100D02*
X987425Y1069975D01*
X949325Y1069975D01*
X936625Y1057275D01*
X936625Y1038225D01*
X895350Y1038225D01*
X869950Y1063625D01*
X441325Y1063625D01*
X419100Y1041400D01*
X974725Y574675D02*
X1003300Y546100D01*
X974725Y574675D02*
X536575Y574675D01*
X523875Y587375D01*
X523875Y657225D01*
X568325Y657225D01*
X581025Y669925D01*
X1228725Y530225D02*
X1244600Y546100D01*
X1228725Y530225D02*
X1165225Y530225D01*
X1158875Y536575D01*
X1158875Y558800D01*
X1146175Y571500D02*
X1139825Y565150D01*
X1022350Y565150D01*
X1003300Y546100D01*
X558800Y688975D02*
X558800Y723900D01*
X558800Y688975D02*
X561975Y688975D01*
X581025Y669925D01*
X584200Y673100D01*
D18*
X619125Y257175D03*
X619125Y177800D03*
X1158875Y558800D03*
X1146175Y571500D03*
D17*
X1168400Y581025D02*
X1168400Y546100D01*
X1168400Y581025D02*
X1165225Y581025D01*
X1158875Y587375D01*
X1158875Y612775D01*
X1184275Y612775D01*
X1228725Y657225D01*
X1308100Y657225D01*
D18*
X1308100Y657225D03*
D17*
X1235075Y835025D02*
X1219200Y850900D01*
X1235075Y835025D02*
X1336675Y835025D01*
X1339850Y838200D01*
D18*
X1339850Y838200D03*
D17*
X1260475Y736600D02*
X1260475Y708025D01*
X1470025Y708025D01*
X1485900Y723900D01*
D18*
X1260475Y736600D03*
D17*
X1336675Y885825D02*
X1295400Y927100D01*
X1336675Y885825D02*
X1495425Y885825D01*
X1527175Y854075D01*
X1527175Y815975D01*
X1590675Y815975D01*
X1597025Y809625D01*
X1597025Y723900D01*
X1587500Y723900D01*
X1235075Y454025D02*
X1219200Y469900D01*
X1235075Y454025D02*
X1425575Y454025D01*
X1492250Y520700D01*
X1581150Y520700D01*
D18*
X1581150Y520700D03*
D17*
X1206500Y714375D02*
X1206500Y755650D01*
X1266825Y755650D01*
X1276350Y765175D01*
X1552575Y765175D01*
X1587500Y800100D01*
D18*
X1206500Y714375D03*
D17*
X1247775Y574675D02*
X1219200Y546100D01*
X1247775Y574675D02*
X1403350Y574675D01*
D18*
X1403350Y574675D03*
D17*
X381000Y615950D02*
X330200Y666750D01*
X381000Y615950D02*
X469900Y615950D01*
X517525Y568325D01*
X860425Y568325D01*
X920750Y508000D01*
X1174750Y508000D01*
X1206500Y476250D01*
X1206500Y342900D01*
X1193800Y342900D01*
D18*
X330200Y666750D03*
D17*
X962025Y835025D02*
X971550Y825500D01*
X962025Y835025D02*
X879475Y835025D01*
X876300Y838200D01*
X768350Y838200D01*
X739775Y866775D01*
X676275Y866775D01*
X660400Y850900D01*
D18*
X971550Y825500D03*
D17*
X882650Y825500D02*
X873125Y835025D01*
X625475Y835025D01*
X609600Y850900D01*
D18*
X882650Y825500D03*
D17*
X838200Y844550D02*
X812800Y869950D01*
X577850Y869950D01*
X558800Y850900D01*
D18*
X838200Y844550D03*
D17*
X352425Y358775D02*
X292100Y419100D01*
X352425Y358775D02*
X473075Y358775D01*
X504825Y327025D01*
X574675Y327025D01*
X577850Y323850D01*
X622300Y323850D01*
X625475Y320675D01*
X669925Y320675D01*
X676275Y314325D01*
X844550Y314325D01*
X850900Y307975D01*
X1012825Y307975D01*
X1028700Y292100D01*
X676275Y695325D02*
X682625Y701675D01*
X1000125Y701675D01*
X1006475Y695325D02*
X1028700Y673100D01*
X1006475Y695325D02*
X1000125Y701675D01*
X1647825Y676275D02*
X1692275Y631825D01*
X1647825Y676275D02*
X1647825Y695325D01*
X1006475Y695325D01*
X1219200Y952500D02*
X1244600Y977900D01*
X1219200Y952500D02*
X1016000Y952500D01*
D18*
X676275Y695325D03*
X1692275Y631825D03*
X1016000Y952500D03*
D17*
X1562100Y596900D02*
X1597025Y561975D01*
X1711325Y561975D01*
X1714500Y558800D01*
X1304925Y663575D02*
X1295400Y673100D01*
X1304925Y663575D02*
X1311275Y663575D01*
X1343025Y631825D01*
X1504950Y631825D01*
X1524000Y612775D01*
X1546225Y612775D01*
X1562100Y596900D01*
X650875Y784225D02*
X635000Y800100D01*
X650875Y784225D02*
X911225Y784225D01*
X927100Y800100D01*
X1279525Y688975D02*
X1295400Y673100D01*
X1279525Y688975D02*
X1165225Y688975D01*
X1044575Y568325D01*
X987425Y568325D01*
D18*
X987425Y568325D03*
D17*
X749300Y895350D02*
X736600Y908050D01*
X577850Y908050D01*
X558800Y927100D01*
D18*
X749300Y895350D03*
D17*
X806450Y911225D02*
X822325Y895350D01*
X806450Y911225D02*
X676275Y911225D01*
X660400Y927100D01*
D18*
X822325Y895350D03*
D17*
X139700Y596900D02*
X101600Y558800D01*
X139700Y596900D02*
X241300Y596900D01*
X127000Y609600D02*
X101600Y584200D01*
X127000Y609600D02*
X234950Y609600D01*
X238125Y612775D01*
X250825Y612775D01*
X266700Y596900D01*
X393700Y292100D02*
X434975Y250825D01*
X581025Y250825D01*
X593725Y263525D02*
X606425Y250825D01*
X1114425Y250825D01*
X1165225Y200025D01*
X1171575Y200025D01*
X1181100Y209550D01*
X1181100Y254000D01*
X1428750Y254000D01*
X1498600Y323850D01*
X1587500Y323850D01*
X1597025Y333375D01*
X1597025Y403225D01*
X1508125Y403225D01*
X1495425Y415925D01*
X1495425Y469900D01*
X1485900Y469900D01*
D18*
X581025Y250825D03*
X593725Y263525D03*
D17*
X104775Y612775D02*
X101600Y609600D01*
X104775Y612775D02*
X231775Y612775D01*
X234950Y615950D01*
X273050Y615950D01*
X292100Y596900D01*
X355600Y504825D02*
X333375Y482600D01*
X333375Y444500D01*
X527050Y444500D01*
X542925Y428625D01*
X542925Y377825D01*
X1108075Y377825D01*
X1165225Y434975D01*
X1196975Y434975D01*
X1203325Y428625D01*
X1203325Y358775D01*
X1184275Y358775D01*
X1168400Y342900D01*
D18*
X355600Y504825D03*
D17*
X377825Y612775D02*
X317500Y673100D01*
X377825Y612775D02*
X466725Y612775D01*
X514350Y565150D01*
X517525Y565150D01*
X520700Y561975D01*
X739775Y561975D01*
X850900Y450850D01*
X850900Y419100D01*
X320675Y612775D02*
X320675Y650875D01*
X320675Y612775D02*
X314325Y612775D01*
X301625Y600075D01*
X301625Y561975D01*
X238125Y561975D01*
X231775Y555625D01*
X231775Y441325D01*
X511175Y441325D01*
X533400Y419100D01*
D18*
X320675Y650875D03*
D17*
X282575Y688975D02*
X266700Y673100D01*
X282575Y688975D02*
X517525Y688975D01*
X533400Y673100D01*
X307975Y231775D02*
X292100Y215900D01*
X307975Y231775D02*
X695325Y231775D01*
X711200Y215900D01*
X282575Y200025D02*
X266700Y215900D01*
X282575Y200025D02*
X669925Y200025D01*
X685800Y215900D01*
X269875Y187325D02*
X241300Y215900D01*
X269875Y187325D02*
X577850Y187325D01*
D18*
X577850Y187325D03*
D17*
X609600Y165100D02*
X625475Y149225D01*
X1133475Y149225D01*
X1171575Y187325D01*
X1177925Y187325D01*
D18*
X1177925Y187325D03*
D17*
X317500Y292100D02*
X285750Y323850D01*
X241300Y323850D01*
X231775Y333375D01*
X231775Y434975D01*
X466725Y434975D01*
X542925Y358775D01*
X790575Y358775D01*
X793750Y355600D01*
X819150Y355600D01*
X831850Y368300D01*
X1123950Y368300D01*
X1136650Y381000D01*
D18*
X1136650Y381000D03*
D17*
X1193800Y800100D02*
X1209675Y815975D01*
X1254125Y815975D01*
X1270000Y800100D01*
X1244600Y215900D02*
X1260475Y200025D01*
X1495425Y200025D01*
X1511300Y215900D01*
X1571625Y231775D02*
X1587500Y215900D01*
X1571625Y231775D02*
X1530350Y231775D01*
X1514475Y215900D01*
X1511300Y215900D01*
X200025Y742950D02*
X196850Y739775D01*
X120650Y739775D01*
X101600Y720725D01*
X60325Y720725D01*
X50800Y711200D01*
D18*
X200025Y742950D03*
D17*
X301625Y863600D02*
X298450Y866775D01*
X177800Y866775D01*
X174625Y863600D01*
X127000Y863600D01*
X117475Y873125D01*
X44450Y873125D01*
X41275Y869950D01*
X41275Y736600D01*
X50800Y736600D01*
D18*
X301625Y863600D03*
D17*
X342900Y850900D02*
X307975Y815975D01*
X146050Y815975D01*
X136525Y806450D01*
D18*
X136525Y806450D03*
D17*
X336550Y882650D02*
X368300Y850900D01*
X336550Y882650D02*
X171450Y882650D01*
X168275Y885825D01*
X114300Y885825D01*
X107950Y879475D01*
X28575Y879475D01*
X25400Y876300D01*
X25400Y812800D01*
D18*
X25400Y812800D03*
D17*
X352425Y809625D02*
X393700Y850900D01*
X352425Y809625D02*
X352425Y708025D01*
X212725Y708025D01*
X206375Y714375D01*
X206375Y762000D01*
X142875Y762000D01*
X101600Y803275D01*
X60325Y803275D01*
X50800Y812800D01*
X215900Y765175D02*
X215900Y723900D01*
X215900Y765175D02*
X161925Y765175D01*
X111125Y815975D01*
X111125Y828675D01*
X60325Y828675D01*
X50800Y838200D01*
X241300Y784225D02*
X241300Y723900D01*
X241300Y784225D02*
X149225Y784225D01*
X114300Y819150D01*
X114300Y854075D01*
X60325Y854075D01*
X50800Y863600D01*
X161925Y533400D02*
X111125Y482600D01*
X111125Y314325D01*
X85725Y314325D01*
X76200Y304800D01*
D18*
X161925Y533400D03*
D17*
X1536700Y469900D02*
X1590675Y523875D01*
X1746250Y523875D01*
X1752600Y530225D01*
X1752600Y625475D01*
X1749425Y625475D02*
X1612900Y625475D01*
X1749425Y625475D02*
X1752600Y625475D01*
X1612900Y625475D02*
X1565275Y673100D01*
X1562100Y673100D01*
X1539875Y873125D02*
X1485900Y927100D01*
X1539875Y873125D02*
X1597025Y873125D01*
X1603375Y866775D01*
X1641475Y866775D01*
X1749425Y758825D01*
X1749425Y625475D01*
X1206500Y1016000D02*
X1168400Y1054100D01*
X1206500Y1016000D02*
X1314450Y1016000D01*
X1333500Y996950D01*
D18*
X1333500Y996950D03*
D17*
X1254125Y1019175D02*
X1219200Y1054100D01*
X1254125Y1019175D02*
X1384300Y1019175D01*
X1406525Y996950D01*
D18*
X1406525Y996950D03*
D17*
X1260475Y1038225D02*
X1244600Y1054100D01*
X1260475Y1038225D02*
X1565275Y1038225D01*
X1577975Y1050925D01*
X1577975Y1069975D01*
X1590675Y1069975D01*
X1603375Y1057275D01*
X1603375Y993775D01*
X1616075Y993775D01*
X1622425Y987425D01*
X1622425Y942975D01*
X1609725Y942975D01*
X1603375Y936625D01*
X1603375Y873125D01*
D18*
X1603375Y873125D03*
D17*
X485775Y765175D02*
X428625Y708025D01*
X485775Y765175D02*
X803275Y765175D01*
X819150Y781050D01*
X1028700Y781050D01*
X1044575Y796925D01*
X1044575Y831850D01*
X1390650Y831850D01*
X1409700Y850900D01*
D18*
X428625Y708025D03*
D17*
X1168400Y977900D02*
X1184275Y993775D01*
X1323975Y993775D01*
X1355725Y962025D01*
X1597025Y962025D01*
X1612900Y977900D01*
X565150Y311150D02*
X565150Y304800D01*
X574675Y295275D01*
X574675Y263525D01*
X587375Y263525D01*
X612775Y238125D01*
X866775Y238125D01*
X873125Y231775D01*
X936625Y231775D01*
X952500Y215900D01*
D18*
X565150Y311150D03*
D17*
X698500Y219075D02*
X698500Y196850D01*
X1009650Y196850D01*
X1028700Y215900D01*
D18*
X698500Y219075D03*
D17*
X676275Y295275D02*
X663575Y307975D01*
X676275Y295275D02*
X676275Y276225D01*
X885825Y276225D01*
X892175Y269875D01*
X1031875Y269875D01*
X1054100Y292100D01*
D18*
X663575Y307975D03*
D17*
X749300Y301625D02*
X771525Y279400D01*
X889000Y279400D01*
X895350Y273050D01*
X958850Y273050D01*
X977900Y292100D01*
D18*
X749300Y301625D03*
D17*
X1016000Y457200D02*
X1054100Y419100D01*
X1016000Y457200D02*
X1016000Y476250D01*
D18*
X1016000Y476250D03*
D17*
X1003300Y419100D02*
X952500Y469900D01*
X952500Y454025D02*
X952500Y419100D01*
X952500Y454025D02*
X949325Y454025D01*
X942975Y460375D01*
X942975Y485775D01*
X1012825Y485775D01*
X1028700Y469900D01*
X901700Y454025D02*
X901700Y419100D01*
X901700Y454025D02*
X904875Y454025D01*
X917575Y466725D01*
X917575Y501650D01*
X1025525Y501650D01*
D18*
X1025525Y501650D03*
D17*
X552450Y984250D02*
X533400Y965200D01*
X552450Y984250D02*
X822325Y984250D01*
X847725Y958850D01*
D18*
X847725Y958850D03*
D17*
X603250Y946150D02*
X584200Y965200D01*
X603250Y946150D02*
X930275Y946150D01*
X936625Y939800D01*
D18*
X936625Y939800D03*
D17*
X650875Y981075D02*
X635000Y965200D01*
X650875Y981075D02*
X812800Y981075D01*
X841375Y952500D01*
X939800Y952500D01*
X946150Y958850D01*
X1025525Y958850D01*
D18*
X1025525Y958850D03*
D17*
X701675Y949325D02*
X685800Y965200D01*
X701675Y949325D02*
X942975Y949325D01*
X946150Y952500D01*
X955675Y952500D01*
D18*
X955675Y952500D03*
D17*
X714375Y1012825D02*
X685800Y1041400D01*
X714375Y1012825D02*
X917575Y1012825D01*
X952500Y977900D01*
X650875Y1057275D02*
X635000Y1041400D01*
X650875Y1057275D02*
X863600Y1057275D01*
X904875Y1016000D01*
X987425Y1016000D01*
X1025525Y977900D01*
X1028700Y977900D01*
X587375Y1073150D02*
X584200Y1076325D01*
X587375Y1073150D02*
X1003300Y1073150D01*
X1019175Y1057275D01*
X1019175Y1038225D01*
X1038225Y1038225D01*
X1054100Y1054100D01*
D18*
X584200Y1076325D03*
D17*
X371475Y320675D02*
X342900Y292100D01*
X371475Y320675D02*
X568325Y320675D01*
X574675Y314325D01*
X663575Y314325D01*
X669925Y307975D01*
X831850Y307975D01*
X835025Y304800D01*
X863600Y333375D02*
X863600Y361950D01*
X1123950Y361950D01*
X1127125Y365125D02*
X1165225Y403225D01*
X1127125Y365125D02*
X1123950Y361950D01*
X1165225Y403225D02*
X1177925Y403225D01*
X1193800Y419100D01*
X1571625Y327025D02*
X1587500Y342900D01*
X1571625Y327025D02*
X1165225Y327025D01*
X1127125Y365125D01*
D18*
X835025Y304800D03*
X863600Y333375D03*
D17*
X1320800Y419100D02*
X1381125Y358775D01*
X1520825Y358775D01*
X1536700Y342900D01*
X1511300Y149225D02*
X1511300Y88900D01*
X1511300Y149225D02*
X1514475Y149225D01*
X1520825Y155575D01*
X1520825Y200025D01*
X1616075Y200025D01*
X1628775Y212725D01*
X1628775Y419100D01*
X1612900Y419100D01*
X1320800Y292100D02*
X1285875Y257175D01*
X704850Y257175D01*
X692150Y269875D01*
X431800Y698500D02*
X425450Y704850D01*
X209550Y704850D01*
X190500Y723900D01*
D18*
X692150Y269875D03*
X431800Y698500D03*
D17*
X1184275Y225425D02*
X1206500Y247650D01*
X1184275Y225425D02*
X1184275Y73025D01*
X460375Y73025D01*
X396875Y136525D01*
X314325Y136525D01*
X292100Y158750D01*
X292100Y165100D01*
D18*
X1206500Y247650D03*
D17*
X1536700Y419100D02*
X1571625Y454025D01*
X1597025Y454025D01*
X1612900Y469900D01*
X1536700Y165100D02*
X1536700Y104775D01*
X1533525Y104775D01*
X1524000Y95250D01*
X1524000Y44450D01*
X120650Y44450D01*
X101600Y63500D01*
X104775Y911225D02*
X101600Y914400D01*
X104775Y911225D02*
X219075Y911225D01*
X231775Y923925D01*
X231775Y1085850D01*
X1625600Y1085850D01*
X1755775Y955675D01*
X1755775Y485775D01*
X1558925Y485775D01*
X1546225Y473075D01*
X1546225Y434975D01*
X1527175Y434975D01*
X1511300Y419100D01*
X1511300Y165100D02*
X1470025Y123825D01*
X1374775Y123825D01*
X1317625Y66675D01*
X269875Y66675D01*
X111125Y225425D01*
X111125Y269875D01*
X44450Y269875D01*
X31750Y282575D01*
X31750Y876300D01*
X152400Y876300D01*
X161925Y866775D01*
X171450Y866775D01*
X174625Y869950D01*
X301625Y869950D01*
X307975Y863600D01*
X307975Y835025D01*
X149225Y835025D01*
X120650Y863600D01*
X101600Y863600D01*
X107950Y692150D02*
X101600Y685800D01*
X107950Y692150D02*
X476250Y692150D01*
X508000Y723900D01*
X1168400Y254000D02*
X1168400Y215900D01*
X1168400Y254000D02*
X679450Y254000D01*
X644525Y288925D01*
X644525Y307975D01*
X631825Y307975D01*
X104775Y657225D02*
X101600Y660400D01*
X104775Y657225D02*
X327025Y657225D01*
X384175Y600075D01*
X384175Y561975D01*
X514350Y561975D01*
X530225Y546100D01*
X533400Y546100D01*
D18*
X631825Y307975D03*
D17*
X1193800Y292100D02*
X1209675Y307975D01*
X1279525Y307975D01*
X1295400Y292100D01*
X101600Y711200D02*
X85725Y695325D01*
X85725Y542925D01*
X161925Y542925D01*
X228600Y476250D01*
X228600Y438150D01*
X469900Y438150D01*
X546100Y361950D01*
X793750Y361950D01*
X796925Y358775D01*
X815975Y358775D01*
X831850Y374650D01*
X1120775Y374650D01*
D18*
X1120775Y374650D03*
D17*
X1549400Y38100D02*
X1558925Y47625D01*
X1743075Y47625D01*
X1752600Y38100D01*
X1209675Y231775D02*
X1193800Y215900D01*
X1209675Y231775D02*
X1524000Y231775D01*
X1568450Y276225D01*
X1597025Y276225D01*
X1612900Y292100D01*
X1254125Y200025D02*
X1254125Y69850D01*
X457200Y69850D01*
X393700Y133350D01*
X263525Y133350D01*
X101600Y295275D01*
X44450Y295275D01*
X34925Y304800D01*
X34925Y727075D01*
X92075Y727075D01*
X101600Y736600D01*
D18*
X1254125Y200025D03*
D17*
X1546225Y180975D02*
X1562100Y165100D01*
X1546225Y180975D02*
X1533525Y180975D01*
X1524000Y171450D01*
X1524000Y101600D01*
X1520825Y98425D01*
X1520825Y63500D01*
X257175Y63500D01*
X101600Y219075D01*
X44450Y219075D01*
X19050Y244475D01*
X19050Y930275D01*
X174625Y930275D01*
X187325Y942975D01*
X200025Y942975D01*
X215900Y927100D01*
M02*
