G04 EAGLE Gerber RS-274X export*
G75*
%MOMM*%
%FSLAX34Y34*%
%LPD*%
%INTop Copper*%
%IPPOS*%
%AMOC8*
5,1,8,0,0,1.08239X$1,22.5*%
G01*
%ADD10P,1.649562X8X202.500000*%
%ADD11P,1.319650X8X202.500000*%
%ADD12C,1.219200*%
%ADD13C,0.254000*%
%ADD14C,0.558800*%


D10*
X50800Y177800D03*
X50800Y203200D03*
X50800Y228600D03*
X50800Y254000D03*
X50800Y279400D03*
X50800Y304800D03*
X50800Y330200D03*
X50800Y355600D03*
X50800Y381000D03*
X50800Y406400D03*
X50800Y431800D03*
X50800Y457200D03*
X50800Y482600D03*
X50800Y508000D03*
X50800Y533400D03*
X50800Y558800D03*
X76200Y177800D03*
X76200Y203200D03*
X76200Y228600D03*
X76200Y254000D03*
X76200Y279400D03*
X76200Y304800D03*
X76200Y330200D03*
X76200Y355600D03*
X76200Y381000D03*
X76200Y406400D03*
X76200Y431800D03*
X76200Y457200D03*
X76200Y482600D03*
X76200Y508000D03*
X76200Y533400D03*
X76200Y558800D03*
X101600Y177800D03*
X101600Y203200D03*
X101600Y228600D03*
X101600Y254000D03*
X101600Y279400D03*
X101600Y304800D03*
X101600Y330200D03*
X101600Y355600D03*
X101600Y381000D03*
X101600Y406400D03*
X101600Y431800D03*
X101600Y457200D03*
X101600Y482600D03*
X101600Y508000D03*
X101600Y533400D03*
X101600Y558800D03*
X50800Y584200D03*
X50800Y609600D03*
X50800Y635000D03*
X50800Y660400D03*
X50800Y685800D03*
X50800Y711200D03*
X50800Y736600D03*
X50800Y762000D03*
X50800Y787400D03*
X50800Y812800D03*
X50800Y838200D03*
X50800Y863600D03*
X50800Y889000D03*
X50800Y914400D03*
X50800Y939800D03*
X50800Y965200D03*
X76200Y584200D03*
X76200Y609600D03*
X76200Y635000D03*
X76200Y660400D03*
X76200Y685800D03*
X76200Y711200D03*
X76200Y736600D03*
X76200Y762000D03*
X76200Y787400D03*
X76200Y812800D03*
X76200Y838200D03*
X76200Y863600D03*
X76200Y889000D03*
X76200Y914400D03*
X76200Y939800D03*
X76200Y965200D03*
X101600Y584200D03*
X101600Y609600D03*
X101600Y635000D03*
X101600Y660400D03*
X101600Y685800D03*
X101600Y711200D03*
X101600Y736600D03*
X101600Y762000D03*
X101600Y787400D03*
X101600Y812800D03*
X101600Y838200D03*
X101600Y863600D03*
X101600Y889000D03*
X101600Y914400D03*
X101600Y939800D03*
X101600Y965200D03*
D11*
X1752600Y38100D03*
X1727200Y38100D03*
X1651000Y38100D03*
X1549400Y38100D03*
D12*
X927100Y895604D02*
X927100Y907796D01*
X952500Y907796D02*
X952500Y895604D01*
X977900Y895604D02*
X977900Y907796D01*
X1003300Y907796D02*
X1003300Y895604D01*
X1028700Y895604D02*
X1028700Y907796D01*
X1054100Y907796D02*
X1054100Y895604D01*
X1079500Y895604D02*
X1079500Y907796D01*
X1104900Y907796D02*
X1104900Y895604D01*
X1130300Y895604D02*
X1130300Y907796D01*
X1155700Y907796D02*
X1155700Y895604D01*
X1181100Y895604D02*
X1181100Y907796D01*
X1206500Y907796D02*
X1206500Y895604D01*
X1231900Y895604D02*
X1231900Y907796D01*
X1257300Y907796D02*
X1257300Y895604D01*
X1257300Y1048004D02*
X1257300Y1060196D01*
X1231900Y1060196D02*
X1231900Y1048004D01*
X1206500Y1048004D02*
X1206500Y1060196D01*
X1181100Y1060196D02*
X1181100Y1048004D01*
X1155700Y1048004D02*
X1155700Y1060196D01*
X1130300Y1060196D02*
X1130300Y1048004D01*
X1104900Y1048004D02*
X1104900Y1060196D01*
X1079500Y1060196D02*
X1079500Y1048004D01*
X1054100Y1048004D02*
X1054100Y1060196D01*
X1028700Y1060196D02*
X1028700Y1048004D01*
X1003300Y1048004D02*
X1003300Y1060196D01*
X977900Y1060196D02*
X977900Y1048004D01*
X952500Y1048004D02*
X952500Y1060196D01*
X927100Y1060196D02*
X927100Y1048004D01*
X927100Y679196D02*
X927100Y667004D01*
X952500Y667004D02*
X952500Y679196D01*
X977900Y679196D02*
X977900Y667004D01*
X1003300Y667004D02*
X1003300Y679196D01*
X1028700Y679196D02*
X1028700Y667004D01*
X1054100Y667004D02*
X1054100Y679196D01*
X1079500Y679196D02*
X1079500Y667004D01*
X1104900Y667004D02*
X1104900Y679196D01*
X1130300Y679196D02*
X1130300Y667004D01*
X1155700Y667004D02*
X1155700Y679196D01*
X1181100Y679196D02*
X1181100Y667004D01*
X1206500Y667004D02*
X1206500Y679196D01*
X1231900Y679196D02*
X1231900Y667004D01*
X1257300Y667004D02*
X1257300Y679196D01*
X1257300Y819404D02*
X1257300Y831596D01*
X1231900Y831596D02*
X1231900Y819404D01*
X1206500Y819404D02*
X1206500Y831596D01*
X1181100Y831596D02*
X1181100Y819404D01*
X1155700Y819404D02*
X1155700Y831596D01*
X1130300Y831596D02*
X1130300Y819404D01*
X1104900Y819404D02*
X1104900Y831596D01*
X1079500Y831596D02*
X1079500Y819404D01*
X1054100Y819404D02*
X1054100Y831596D01*
X1028700Y831596D02*
X1028700Y819404D01*
X1003300Y819404D02*
X1003300Y831596D01*
X977900Y831596D02*
X977900Y819404D01*
X952500Y819404D02*
X952500Y831596D01*
X927100Y831596D02*
X927100Y819404D01*
X977900Y209296D02*
X977900Y197104D01*
X1003300Y197104D02*
X1003300Y209296D01*
X1130300Y209296D02*
X1130300Y197104D01*
X1155700Y197104D02*
X1155700Y209296D01*
X1028700Y209296D02*
X1028700Y197104D01*
X1054100Y197104D02*
X1054100Y209296D01*
X1104900Y209296D02*
X1104900Y197104D01*
X1079500Y197104D02*
X1079500Y209296D01*
X1181100Y209296D02*
X1181100Y197104D01*
X1206500Y197104D02*
X1206500Y209296D01*
X1231900Y209296D02*
X1231900Y197104D01*
X1257300Y197104D02*
X1257300Y209296D01*
X1257300Y349504D02*
X1257300Y361696D01*
X1231900Y361696D02*
X1231900Y349504D01*
X1206500Y349504D02*
X1206500Y361696D01*
X1181100Y361696D02*
X1181100Y349504D01*
X1155700Y349504D02*
X1155700Y361696D01*
X1130300Y361696D02*
X1130300Y349504D01*
X1104900Y349504D02*
X1104900Y361696D01*
X1079500Y361696D02*
X1079500Y349504D01*
X1054100Y349504D02*
X1054100Y361696D01*
X1028700Y361696D02*
X1028700Y349504D01*
X1003300Y349504D02*
X1003300Y361696D01*
X977900Y361696D02*
X977900Y349504D01*
X1181100Y82296D02*
X1181100Y70104D01*
X1155700Y70104D02*
X1155700Y82296D01*
X1130300Y82296D02*
X1130300Y70104D01*
X1104900Y70104D02*
X1104900Y82296D01*
X1079500Y82296D02*
X1079500Y70104D01*
X1054100Y70104D02*
X1054100Y82296D01*
X1028700Y82296D02*
X1028700Y70104D01*
X1003300Y70104D02*
X1003300Y82296D01*
X977900Y82296D02*
X977900Y70104D01*
X977900Y527304D02*
X977900Y539496D01*
X1003300Y539496D02*
X1003300Y527304D01*
X1028700Y527304D02*
X1028700Y539496D01*
X1054100Y539496D02*
X1054100Y527304D01*
X1079500Y527304D02*
X1079500Y539496D01*
X1104900Y539496D02*
X1104900Y527304D01*
X1130300Y527304D02*
X1130300Y539496D01*
X1155700Y539496D02*
X1155700Y527304D01*
X1181100Y527304D02*
X1181100Y539496D01*
X254000Y806704D02*
X254000Y818896D01*
X279400Y818896D02*
X279400Y806704D01*
X406400Y806704D02*
X406400Y818896D01*
X406400Y882904D02*
X406400Y895096D01*
X304800Y818896D02*
X304800Y806704D01*
X330200Y806704D02*
X330200Y818896D01*
X381000Y818896D02*
X381000Y806704D01*
X355600Y806704D02*
X355600Y818896D01*
X381000Y882904D02*
X381000Y895096D01*
X355600Y895096D02*
X355600Y882904D01*
X330200Y882904D02*
X330200Y895096D01*
X304800Y895096D02*
X304800Y882904D01*
X279400Y882904D02*
X279400Y895096D01*
X254000Y895096D02*
X254000Y882904D01*
X571500Y971804D02*
X571500Y983996D01*
X596900Y983996D02*
X596900Y971804D01*
X723900Y971804D02*
X723900Y983996D01*
X749300Y983996D02*
X749300Y971804D01*
X622300Y971804D02*
X622300Y983996D01*
X647700Y983996D02*
X647700Y971804D01*
X698500Y971804D02*
X698500Y983996D01*
X673100Y983996D02*
X673100Y971804D01*
X749300Y1048004D02*
X749300Y1060196D01*
X723900Y1060196D02*
X723900Y1048004D01*
X698500Y1048004D02*
X698500Y1060196D01*
X673100Y1060196D02*
X673100Y1048004D01*
X647700Y1048004D02*
X647700Y1060196D01*
X622300Y1060196D02*
X622300Y1048004D01*
X596900Y1048004D02*
X596900Y1060196D01*
X571500Y1060196D02*
X571500Y1048004D01*
X520700Y348996D02*
X520700Y336804D01*
X546100Y336804D02*
X546100Y348996D01*
X673100Y348996D02*
X673100Y336804D01*
X698500Y336804D02*
X698500Y348996D01*
X571500Y348996D02*
X571500Y336804D01*
X596900Y336804D02*
X596900Y348996D01*
X647700Y348996D02*
X647700Y336804D01*
X622300Y336804D02*
X622300Y348996D01*
X723900Y348996D02*
X723900Y336804D01*
X749300Y336804D02*
X749300Y348996D01*
X749300Y413004D02*
X749300Y425196D01*
X723900Y425196D02*
X723900Y413004D01*
X698500Y413004D02*
X698500Y425196D01*
X673100Y425196D02*
X673100Y413004D01*
X647700Y413004D02*
X647700Y425196D01*
X622300Y425196D02*
X622300Y413004D01*
X596900Y413004D02*
X596900Y425196D01*
X571500Y425196D02*
X571500Y413004D01*
X546100Y413004D02*
X546100Y425196D01*
X520700Y425196D02*
X520700Y413004D01*
X520700Y183896D02*
X520700Y171704D01*
X546100Y171704D02*
X546100Y183896D01*
X673100Y183896D02*
X673100Y171704D01*
X698500Y171704D02*
X698500Y183896D01*
X571500Y183896D02*
X571500Y171704D01*
X596900Y171704D02*
X596900Y183896D01*
X647700Y183896D02*
X647700Y171704D01*
X622300Y171704D02*
X622300Y183896D01*
X723900Y183896D02*
X723900Y171704D01*
X749300Y171704D02*
X749300Y183896D01*
X749300Y247904D02*
X749300Y260096D01*
X723900Y260096D02*
X723900Y247904D01*
X698500Y247904D02*
X698500Y260096D01*
X673100Y260096D02*
X673100Y247904D01*
X647700Y247904D02*
X647700Y260096D01*
X622300Y260096D02*
X622300Y247904D01*
X596900Y247904D02*
X596900Y260096D01*
X571500Y260096D02*
X571500Y247904D01*
X546100Y247904D02*
X546100Y260096D01*
X520700Y260096D02*
X520700Y247904D01*
X596900Y832104D02*
X596900Y844296D01*
X622300Y844296D02*
X622300Y832104D01*
X749300Y832104D02*
X749300Y844296D01*
X749300Y908304D02*
X749300Y920496D01*
X647700Y844296D02*
X647700Y832104D01*
X673100Y832104D02*
X673100Y844296D01*
X723900Y844296D02*
X723900Y832104D01*
X698500Y832104D02*
X698500Y844296D01*
X723900Y908304D02*
X723900Y920496D01*
X698500Y920496D02*
X698500Y908304D01*
X673100Y908304D02*
X673100Y920496D01*
X647700Y920496D02*
X647700Y908304D01*
X622300Y908304D02*
X622300Y920496D01*
X596900Y920496D02*
X596900Y908304D01*
X520700Y602996D02*
X520700Y590804D01*
X546100Y590804D02*
X546100Y602996D01*
X673100Y602996D02*
X673100Y590804D01*
X698500Y590804D02*
X698500Y602996D01*
X571500Y602996D02*
X571500Y590804D01*
X596900Y590804D02*
X596900Y602996D01*
X647700Y602996D02*
X647700Y590804D01*
X622300Y590804D02*
X622300Y602996D01*
X723900Y602996D02*
X723900Y590804D01*
X749300Y590804D02*
X749300Y602996D01*
X749300Y667004D02*
X749300Y679196D01*
X723900Y679196D02*
X723900Y667004D01*
X698500Y667004D02*
X698500Y679196D01*
X673100Y679196D02*
X673100Y667004D01*
X647700Y667004D02*
X647700Y679196D01*
X622300Y679196D02*
X622300Y667004D01*
X596900Y667004D02*
X596900Y679196D01*
X571500Y679196D02*
X571500Y667004D01*
X546100Y667004D02*
X546100Y679196D01*
X520700Y679196D02*
X520700Y667004D01*
X546100Y514096D02*
X546100Y501904D01*
X571500Y501904D02*
X571500Y514096D01*
X596900Y514096D02*
X596900Y501904D01*
X622300Y501904D02*
X622300Y514096D01*
X647700Y514096D02*
X647700Y501904D01*
X673100Y501904D02*
X673100Y514096D01*
X698500Y514096D02*
X698500Y501904D01*
X723900Y501904D02*
X723900Y514096D01*
X749300Y514096D02*
X749300Y501904D01*
X546100Y768604D02*
X546100Y780796D01*
X571500Y780796D02*
X571500Y768604D01*
X596900Y768604D02*
X596900Y780796D01*
X622300Y780796D02*
X622300Y768604D01*
X647700Y768604D02*
X647700Y780796D01*
X673100Y780796D02*
X673100Y768604D01*
X698500Y768604D02*
X698500Y780796D01*
X723900Y780796D02*
X723900Y768604D01*
X749300Y768604D02*
X749300Y780796D01*
X254000Y959104D02*
X254000Y971296D01*
X279400Y971296D02*
X279400Y959104D01*
X406400Y959104D02*
X406400Y971296D01*
X406400Y1035304D02*
X406400Y1047496D01*
X304800Y971296D02*
X304800Y959104D01*
X330200Y959104D02*
X330200Y971296D01*
X381000Y971296D02*
X381000Y959104D01*
X355600Y959104D02*
X355600Y971296D01*
X381000Y1035304D02*
X381000Y1047496D01*
X355600Y1047496D02*
X355600Y1035304D01*
X330200Y1035304D02*
X330200Y1047496D01*
X304800Y1047496D02*
X304800Y1035304D01*
X279400Y1035304D02*
X279400Y1047496D01*
X254000Y1047496D02*
X254000Y1035304D01*
X228600Y679196D02*
X228600Y667004D01*
X254000Y667004D02*
X254000Y679196D01*
X381000Y679196D02*
X381000Y667004D01*
X406400Y667004D02*
X406400Y679196D01*
X279400Y679196D02*
X279400Y667004D01*
X304800Y667004D02*
X304800Y679196D01*
X355600Y679196D02*
X355600Y667004D01*
X330200Y667004D02*
X330200Y679196D01*
X406400Y743204D02*
X406400Y755396D01*
X381000Y755396D02*
X381000Y743204D01*
X355600Y743204D02*
X355600Y755396D01*
X330200Y755396D02*
X330200Y743204D01*
X304800Y743204D02*
X304800Y755396D01*
X279400Y755396D02*
X279400Y743204D01*
X254000Y743204D02*
X254000Y755396D01*
X228600Y755396D02*
X228600Y743204D01*
X254000Y526796D02*
X254000Y514604D01*
X279400Y514604D02*
X279400Y526796D01*
X406400Y526796D02*
X406400Y514604D01*
X406400Y590804D02*
X406400Y602996D01*
X304800Y526796D02*
X304800Y514604D01*
X330200Y514604D02*
X330200Y526796D01*
X381000Y526796D02*
X381000Y514604D01*
X355600Y514604D02*
X355600Y526796D01*
X381000Y590804D02*
X381000Y602996D01*
X355600Y602996D02*
X355600Y590804D01*
X330200Y590804D02*
X330200Y602996D01*
X304800Y602996D02*
X304800Y590804D01*
X279400Y590804D02*
X279400Y602996D01*
X254000Y602996D02*
X254000Y590804D01*
D13*
X76200Y965200D02*
X50800Y965200D01*
X76200Y965200D02*
X101600Y965200D01*
X381000Y990600D02*
X406400Y965200D01*
X381000Y990600D02*
X381000Y1041400D01*
X355600Y1041400D01*
X266700Y762000D02*
X254000Y749300D01*
X266700Y762000D02*
X266700Y876300D01*
X279400Y889000D01*
X419100Y685800D02*
X406400Y673100D01*
X419100Y685800D02*
X419100Y800100D01*
X406400Y812800D01*
X355600Y596900D02*
X330200Y596900D01*
X279400Y596900D02*
X279400Y520700D01*
X279400Y596900D02*
X304800Y596900D01*
X406400Y673100D02*
X419100Y660400D01*
X419100Y533400D01*
X406400Y520700D01*
X266700Y736600D02*
X254000Y749300D01*
X266700Y736600D02*
X266700Y609600D01*
X279400Y596900D01*
X419100Y952500D02*
X406400Y965200D01*
X419100Y952500D02*
X419100Y800100D01*
X546100Y368300D02*
X520700Y342900D01*
X546100Y368300D02*
X546100Y419100D01*
X101600Y177800D02*
X76200Y177800D01*
X520700Y177800D02*
X546100Y203200D01*
X546100Y254000D01*
X546100Y317500D02*
X520700Y342900D01*
X546100Y317500D02*
X546100Y254000D01*
X647700Y977900D02*
X673100Y977900D01*
X736600Y850900D02*
X749300Y838200D01*
X736600Y850900D02*
X736600Y965200D01*
X749300Y977900D01*
X1250950Y679450D02*
X1257300Y673100D01*
X1250950Y679450D02*
X1250950Y806450D01*
X1244600Y812800D01*
X1244600Y838200D01*
X1257300Y850900D01*
X1257300Y901700D01*
X762000Y190500D02*
X749300Y177800D01*
X762000Y190500D02*
X762000Y330200D01*
X749300Y342900D01*
X762000Y584200D02*
X749300Y596900D01*
X762000Y584200D02*
X762000Y330200D01*
X1250950Y666750D02*
X1257300Y673100D01*
X1250950Y666750D02*
X1250950Y374650D01*
X1244600Y368300D01*
X1244600Y215900D01*
X1257300Y203200D01*
X762000Y825500D02*
X749300Y838200D01*
X762000Y825500D02*
X762000Y584200D01*
X927100Y825500D02*
X933450Y831850D01*
X933450Y882650D01*
X939800Y889000D01*
X939800Y1041400D01*
X927100Y1054100D01*
X596900Y914400D02*
X596900Y838200D01*
X584200Y1041400D02*
X571500Y1054100D01*
X584200Y1041400D02*
X584200Y927100D01*
X596900Y914400D01*
X546100Y698500D02*
X520700Y673100D01*
X546100Y698500D02*
X546100Y774700D01*
X381000Y698500D02*
X355600Y673100D01*
X381000Y698500D02*
X381000Y749300D01*
X254000Y596900D02*
X254000Y520700D01*
X76200Y939800D02*
X50800Y939800D01*
X76200Y939800D02*
X101600Y939800D01*
X228600Y863600D02*
X241300Y876300D01*
X254000Y889000D01*
X228600Y863600D02*
X228600Y749300D01*
X241300Y1028700D02*
X254000Y1041400D01*
X241300Y939800D02*
X241300Y876300D01*
X241300Y939800D02*
X241300Y1028700D01*
X304800Y698500D02*
X279400Y673100D01*
X304800Y698500D02*
X304800Y749300D01*
X241300Y939800D02*
X101600Y939800D01*
X241300Y609600D02*
X254000Y596900D01*
X241300Y609600D02*
X241300Y736600D01*
X228600Y749300D01*
X977900Y533400D02*
X977900Y355600D01*
X101600Y203200D02*
X76200Y203200D01*
X508000Y266700D02*
X520700Y254000D01*
X508000Y266700D02*
X508000Y406400D01*
X520700Y419100D01*
X520700Y482600D02*
X533400Y495300D01*
X546100Y508000D01*
X520700Y482600D02*
X520700Y419100D01*
X990600Y177800D02*
X996950Y171450D01*
X990600Y177800D02*
X990600Y222250D01*
X977900Y234950D01*
X977900Y355600D01*
X520700Y622300D02*
X520700Y673100D01*
X520700Y622300D02*
X533400Y609600D01*
X533400Y495300D01*
D14*
X996950Y171450D03*
D13*
X571500Y508000D02*
X546100Y533400D01*
X546100Y596900D01*
X546100Y609600D02*
X527050Y628650D01*
X546100Y609600D02*
X546100Y596900D01*
D14*
X527050Y628650D03*
D13*
X571500Y533400D02*
X596900Y508000D01*
X571500Y533400D02*
X571500Y596900D01*
X63500Y647700D02*
X50800Y660400D01*
X63500Y647700D02*
X127000Y647700D01*
X127000Y565150D01*
D14*
X127000Y565150D03*
D13*
X622300Y533400D02*
X647700Y508000D01*
X622300Y533400D02*
X622300Y596900D01*
X609600Y698500D02*
X603250Y704850D01*
X609600Y698500D02*
X609600Y609600D01*
X622300Y596900D01*
D14*
X603250Y704850D03*
D13*
X647700Y533400D02*
X673100Y508000D01*
X647700Y533400D02*
X647700Y596900D01*
X692150Y514350D02*
X698500Y508000D01*
X692150Y514350D02*
X692150Y577850D01*
X673100Y596900D01*
X698500Y533400D02*
X723900Y508000D01*
X698500Y533400D02*
X698500Y596900D01*
X63500Y774700D02*
X50800Y787400D01*
X63500Y774700D02*
X133350Y774700D01*
X133350Y628650D01*
D14*
X133350Y628650D03*
D13*
X615950Y514350D02*
X622300Y508000D01*
X615950Y514350D02*
X615950Y577850D01*
X596900Y596900D01*
X584200Y692150D02*
X577850Y698500D01*
X584200Y692150D02*
X584200Y609600D01*
X596900Y596900D01*
D14*
X577850Y698500D03*
D13*
X723900Y533400D02*
X749300Y508000D01*
X723900Y533400D02*
X723900Y596900D01*
X63500Y800100D02*
X50800Y812800D01*
X63500Y800100D02*
X139700Y800100D01*
X139700Y565150D01*
D14*
X139700Y565150D03*
D13*
X158750Y317500D02*
X139700Y298450D01*
X139700Y171450D01*
X133350Y165100D01*
X63500Y165100D01*
X63500Y215900D01*
X50800Y228600D01*
D14*
X158750Y317500D03*
D13*
X590550Y336550D02*
X596900Y342900D01*
X590550Y336550D02*
X590550Y298450D01*
X558800Y266700D01*
X558800Y241300D01*
D14*
X558800Y241300D03*
D13*
X120650Y304800D02*
X120650Y368300D01*
X120650Y304800D02*
X107950Y292100D01*
X50800Y292100D01*
X50800Y279400D01*
D14*
X120650Y368300D03*
D13*
X114300Y361950D02*
X107950Y368300D01*
X63500Y368300D01*
X63500Y317500D01*
X50800Y304800D01*
D14*
X114300Y361950D03*
D13*
X698500Y419100D02*
X711200Y406400D01*
X711200Y311150D01*
D14*
X711200Y311150D03*
D13*
X127000Y400050D02*
X127000Y171450D01*
X127000Y400050D02*
X107950Y419100D01*
X50800Y419100D01*
X50800Y431800D01*
D14*
X127000Y171450D03*
D13*
X692150Y171450D02*
X698500Y177800D01*
X692150Y171450D02*
X692150Y158750D01*
X673100Y139700D01*
X44450Y139700D01*
X44450Y165100D01*
X38100Y171450D01*
X38100Y495300D01*
X50800Y508000D01*
X736600Y241300D02*
X749300Y254000D01*
X736600Y241300D02*
X736600Y165100D01*
X673100Y101600D01*
X6350Y101600D01*
X6350Y488950D01*
X50800Y533400D01*
X133350Y546100D02*
X133350Y285750D01*
X133350Y546100D02*
X107950Y571500D01*
X50800Y571500D01*
X50800Y584200D01*
D14*
X133350Y285750D03*
D13*
X596900Y254000D02*
X609600Y266700D01*
X609600Y552450D01*
X584200Y577850D01*
D14*
X584200Y577850D03*
D13*
X381000Y889000D02*
X355600Y914400D01*
X355600Y965200D01*
X431800Y685800D02*
X520700Y596900D01*
X431800Y685800D02*
X431800Y889000D01*
X355600Y863600D02*
X355600Y812800D01*
X355600Y863600D02*
X342900Y876300D01*
X342900Y952500D01*
X330200Y965200D01*
D14*
X431800Y889000D03*
D13*
X349250Y539750D02*
X330200Y520700D01*
X349250Y539750D02*
X368300Y539750D01*
X368300Y508000D01*
X355600Y495300D01*
X152400Y495300D01*
X152400Y863600D01*
X101600Y914400D01*
X1143000Y685800D02*
X1155700Y673100D01*
X1143000Y685800D02*
X1143000Y889000D01*
X1155700Y901700D01*
X1155700Y203200D02*
X1155700Y76200D01*
X584200Y406400D02*
X571500Y419100D01*
X584200Y406400D02*
X584200Y304800D01*
X1143000Y660400D02*
X1155700Y673100D01*
X1143000Y660400D02*
X1143000Y215900D01*
X1155700Y203200D01*
D14*
X584200Y304800D03*
D13*
X1117600Y685800D02*
X1130300Y673100D01*
X1117600Y685800D02*
X1117600Y876300D01*
X1130300Y889000D01*
X1130300Y901700D01*
X1130300Y203200D02*
X1130300Y76200D01*
X660400Y381000D02*
X622300Y419100D01*
X660400Y381000D02*
X660400Y292100D01*
X1117600Y660400D02*
X1130300Y673100D01*
X1117600Y660400D02*
X1117600Y215900D01*
X1130300Y203200D01*
D14*
X660400Y292100D03*
D13*
X1098550Y679450D02*
X1104900Y673100D01*
X1098550Y679450D02*
X1098550Y806450D01*
X1092200Y812800D01*
X1092200Y876300D01*
X1104900Y889000D01*
X1104900Y901700D01*
X1104900Y203200D02*
X1104900Y76200D01*
X965200Y165100D02*
X768350Y361950D01*
X965200Y165100D02*
X965200Y63500D01*
X971550Y57150D01*
X1104900Y57150D01*
X1104900Y76200D01*
X1098550Y666750D02*
X1104900Y673100D01*
X1098550Y666750D02*
X1098550Y552450D01*
X1092200Y546100D01*
X1092200Y215900D01*
X1104900Y203200D01*
D14*
X768350Y361950D03*
D13*
X1079500Y673100D02*
X1073150Y679450D01*
X1073150Y806450D01*
X1066800Y812800D01*
X1066800Y876300D01*
X1079500Y889000D01*
X1079500Y901700D01*
X1079500Y203200D02*
X1079500Y76200D01*
X1079500Y311150D02*
X1066800Y323850D01*
X1060450Y330200D01*
X1079500Y311150D02*
X1079500Y203200D01*
X1073150Y666750D02*
X1079500Y673100D01*
X1073150Y666750D02*
X1073150Y552450D01*
X1066800Y546100D01*
X1066800Y323850D01*
D14*
X1060450Y330200D03*
D13*
X1054100Y673100D02*
X1047750Y679450D01*
X1047750Y806450D01*
X1041400Y812800D01*
X1041400Y876300D01*
X1054100Y889000D01*
X1054100Y901700D01*
X1054100Y203200D02*
X1054100Y76200D01*
X1047750Y666750D02*
X1054100Y673100D01*
X1047750Y666750D02*
X1047750Y552450D01*
X1041400Y546100D01*
X1041400Y215900D01*
X1054100Y203200D01*
X1028700Y673100D02*
X1022350Y679450D01*
X1022350Y806450D01*
X1016000Y812800D01*
X1016000Y876300D01*
X1028700Y889000D01*
X1028700Y901700D01*
X1028700Y203200D02*
X1028700Y76200D01*
X673100Y342900D02*
X666750Y336550D01*
X666750Y273050D01*
X660400Y266700D01*
X660400Y165100D01*
X1022350Y666750D02*
X1028700Y673100D01*
X1022350Y666750D02*
X1022350Y552450D01*
X1016000Y546100D01*
X1016000Y215900D01*
X1028700Y203200D01*
D14*
X660400Y165100D03*
D13*
X1003300Y673100D02*
X990600Y685800D01*
X990600Y876300D01*
X1003300Y889000D01*
X1003300Y901700D01*
X1003300Y203200D02*
X1003300Y76200D01*
X635000Y330200D02*
X622300Y342900D01*
X635000Y330200D02*
X635000Y215900D01*
X990600Y660400D02*
X1003300Y673100D01*
X990600Y660400D02*
X990600Y234950D01*
X1003300Y222250D01*
X1003300Y203200D01*
D14*
X635000Y215900D03*
D13*
X977900Y673100D02*
X965200Y685800D01*
X965200Y844550D01*
X977900Y857250D01*
X977900Y901700D01*
X977900Y203200D02*
X977900Y76200D01*
X977900Y203200D02*
X965200Y215900D01*
X863600Y317500D01*
X965200Y660400D02*
X977900Y673100D01*
X965200Y660400D02*
X965200Y215900D01*
D14*
X863600Y317500D03*
D13*
X1003300Y825500D02*
X1009650Y831850D01*
X1009650Y882650D01*
X1016000Y889000D01*
X1016000Y1041400D01*
X1003300Y1054100D01*
X1003300Y260350D02*
X996950Y254000D01*
X1003300Y260350D02*
X1003300Y355600D01*
X1003300Y533400D01*
X1009650Y819150D02*
X1003300Y825500D01*
X1009650Y819150D02*
X1009650Y692150D01*
X1016000Y685800D01*
X1016000Y558800D01*
X1003300Y546100D01*
X1003300Y533400D01*
D14*
X996950Y254000D03*
D13*
X1028700Y825500D02*
X1035050Y831850D01*
X1035050Y882650D01*
X1041400Y889000D01*
X1041400Y1041400D01*
X1028700Y1054100D01*
X1028700Y266700D02*
X1022350Y260350D01*
X1028700Y266700D02*
X1028700Y355600D01*
X1028700Y533400D01*
X1035050Y819150D02*
X1028700Y825500D01*
X1035050Y819150D02*
X1035050Y692150D01*
X1041400Y685800D01*
X1041400Y558800D01*
X1028700Y546100D01*
X1028700Y533400D01*
D14*
X1022350Y260350D03*
D13*
X1104900Y825500D02*
X1111250Y831850D01*
X1111250Y882650D01*
X1117600Y889000D01*
X1117600Y1041400D01*
X1104900Y1054100D01*
X1104900Y273050D02*
X1098550Y266700D01*
X1104900Y273050D02*
X1104900Y355600D01*
X1066800Y793750D02*
X1054100Y806450D01*
X1066800Y793750D02*
X1066800Y558800D01*
X1054100Y546100D01*
X1054100Y533400D01*
D14*
X1098550Y266700D03*
X1054100Y806450D03*
D13*
X1054100Y825500D02*
X1060450Y831850D01*
X1060450Y882650D01*
X1066800Y889000D01*
X1066800Y1041400D01*
X1054100Y1054100D01*
X1054100Y279400D02*
X1047750Y273050D01*
X1054100Y279400D02*
X1054100Y355600D01*
X1073150Y527050D02*
X1079500Y533400D01*
X1073150Y527050D02*
X1073150Y374650D01*
X1092200Y558800D02*
X1092200Y800100D01*
X1092200Y558800D02*
X1079500Y546100D01*
X1079500Y533400D01*
D14*
X1047750Y273050D03*
X1073150Y374650D03*
X1092200Y800100D03*
D13*
X952500Y508000D02*
X958850Y501650D01*
X952500Y508000D02*
X952500Y673100D01*
X946150Y895350D02*
X952500Y901700D01*
X946150Y895350D02*
X946150Y844550D01*
X939800Y838200D01*
X939800Y685800D01*
X952500Y673100D01*
X577850Y971550D02*
X571500Y977900D01*
X577850Y971550D02*
X577850Y952500D01*
D14*
X958850Y501650D03*
X577850Y952500D03*
D13*
X977900Y825500D02*
X984250Y831850D01*
X984250Y882650D01*
X990600Y889000D01*
X990600Y1041400D01*
X977900Y1054100D01*
X393700Y685800D02*
X381000Y673100D01*
X393700Y685800D02*
X393700Y762000D01*
X368300Y787400D01*
X292100Y787400D01*
X292100Y1054100D01*
X317500Y1079500D01*
X609600Y1079500D01*
X609600Y1041400D01*
X596900Y1028700D01*
X596900Y977900D01*
X946150Y1085850D02*
X977900Y1054100D01*
X946150Y1085850D02*
X609600Y1085850D01*
X609600Y1079500D01*
X914400Y889000D02*
X927100Y901700D01*
X914400Y889000D02*
X914400Y685800D01*
X927100Y673100D01*
X1149350Y539750D02*
X1155700Y533400D01*
X1149350Y539750D02*
X1149350Y654050D01*
X628650Y984250D02*
X622300Y977900D01*
X628650Y984250D02*
X628650Y1035050D01*
X635000Y1041400D01*
X635000Y1066800D01*
X647700Y1079500D01*
X914400Y1079500D01*
X914400Y889000D01*
D14*
X1149350Y654050D03*
D13*
X317500Y533400D02*
X304800Y520700D01*
X317500Y533400D02*
X317500Y736600D01*
X330200Y749300D01*
X692150Y971550D02*
X698500Y977900D01*
X692150Y971550D02*
X692150Y933450D01*
X685800Y927100D01*
X685800Y876300D01*
X711200Y850900D01*
X711200Y552450D01*
D14*
X711200Y552450D03*
D13*
X571500Y673100D02*
X571500Y774700D01*
X1168400Y215900D02*
X1181100Y203200D01*
X1168400Y215900D02*
X1168400Y660400D01*
X1181100Y673100D01*
X1174750Y895350D02*
X1181100Y901700D01*
X1174750Y895350D02*
X1174750Y844550D01*
X1168400Y838200D01*
X1168400Y660400D01*
X596900Y673100D02*
X596900Y774700D01*
X1193800Y215900D02*
X1206500Y203200D01*
X1193800Y215900D02*
X1193800Y508000D01*
X1206500Y520700D01*
X1206500Y673100D01*
X1200150Y895350D02*
X1206500Y901700D01*
X1200150Y895350D02*
X1200150Y844550D01*
X1193800Y838200D01*
X1193800Y704850D01*
X1206500Y692150D01*
X1206500Y673100D01*
X622300Y673100D02*
X622300Y774700D01*
X1219200Y215900D02*
X1231900Y203200D01*
X1219200Y215900D02*
X1219200Y647700D01*
X1231900Y660400D01*
X1231900Y673100D01*
X1225550Y895350D02*
X1231900Y901700D01*
X1225550Y895350D02*
X1225550Y844550D01*
X1219200Y838200D01*
X1219200Y704850D01*
X1231900Y692150D01*
X1231900Y673100D01*
X647700Y673100D02*
X647700Y774700D01*
X1257300Y355600D02*
X1270000Y368300D01*
X1270000Y812800D01*
X1257300Y825500D01*
X1270000Y1041400D02*
X1257300Y1054100D01*
X1270000Y1041400D02*
X1270000Y812800D01*
X673100Y774700D02*
X673100Y673100D01*
X1231900Y355600D02*
X1238250Y361950D01*
X1238250Y635000D02*
X1238250Y654050D01*
X1238250Y635000D02*
X1238250Y361950D01*
X1238250Y654050D02*
X1244600Y660400D01*
X1244600Y793750D01*
X1231900Y806450D01*
X1231900Y825500D01*
X1244600Y1041400D02*
X1231900Y1054100D01*
X1244600Y1041400D02*
X1244600Y850900D01*
X1231900Y838200D01*
X1231900Y825500D01*
D14*
X1238250Y635000D03*
D13*
X698500Y673100D02*
X698500Y774700D01*
X1206500Y355600D02*
X1212850Y361950D01*
X1212850Y641350D02*
X1212850Y654050D01*
X1212850Y641350D02*
X1212850Y361950D01*
X1212850Y654050D02*
X1219200Y660400D01*
X1219200Y692150D01*
X1206500Y704850D01*
X1206500Y825500D01*
X1219200Y1041400D02*
X1206500Y1054100D01*
X1219200Y1041400D02*
X1219200Y850900D01*
X1206500Y838200D01*
X1206500Y825500D01*
D14*
X1212850Y641350D03*
D13*
X723900Y673100D02*
X723900Y774700D01*
X1181100Y355600D02*
X1187450Y361950D01*
X1187450Y514350D01*
X1193800Y520700D01*
X1193800Y647700D02*
X1193800Y692150D01*
X1193800Y647700D02*
X1193800Y520700D01*
X1193800Y692150D02*
X1181100Y704850D01*
X1181100Y825500D01*
X1193800Y1041400D02*
X1181100Y1054100D01*
X1193800Y1041400D02*
X1193800Y850900D01*
X1181100Y838200D01*
X1181100Y825500D01*
D14*
X1193800Y647700D03*
D13*
X749300Y673100D02*
X749300Y774700D01*
X1155700Y1054100D02*
X1168400Y1041400D01*
X1168400Y850900D01*
X1155700Y838200D01*
X1155700Y825500D01*
X1085850Y831850D02*
X1079500Y825500D01*
X1085850Y831850D02*
X1085850Y882650D01*
X1092200Y889000D01*
X1092200Y1041400D01*
X1079500Y1054100D01*
X349250Y831850D02*
X330200Y812800D01*
X349250Y831850D02*
X349250Y838200D01*
X952500Y1054100D02*
X965200Y1041400D01*
X965200Y857250D01*
X952500Y844550D01*
X952500Y825500D01*
D14*
X349250Y838200D03*
D13*
X323850Y793750D02*
X304800Y812800D01*
X323850Y793750D02*
X393700Y793750D01*
X393700Y876300D01*
X406400Y889000D01*
X768350Y679450D02*
X952500Y495300D01*
X768350Y679450D02*
X768350Y984250D01*
X755650Y996950D01*
X723900Y996950D01*
X723900Y977900D01*
D14*
X952500Y495300D03*
D13*
X673100Y914400D02*
X679450Y920750D01*
X679450Y958850D01*
X685800Y965200D01*
X685800Y1066800D01*
X692150Y1073150D01*
X723900Y1073150D01*
X723900Y1054100D01*
X717550Y844550D02*
X723900Y838200D01*
X717550Y844550D02*
X717550Y895350D01*
X711200Y901700D01*
X711200Y1041400D01*
X698500Y1054100D01*
X660400Y876300D02*
X698500Y838200D01*
X660400Y876300D02*
X660400Y971550D01*
D14*
X660400Y971550D03*
D13*
X635000Y876300D02*
X673100Y838200D01*
X635000Y876300D02*
X635000Y1028700D01*
X647700Y1041400D01*
X647700Y1054100D01*
X609600Y876300D02*
X647700Y838200D01*
X609600Y876300D02*
X609600Y1028700D01*
X622300Y1041400D01*
X622300Y1054100D01*
X622300Y838200D02*
X603250Y819150D01*
X565150Y819150D01*
X565150Y958850D01*
X558800Y965200D01*
X558800Y1066800D01*
X565150Y1073150D01*
X596900Y1073150D01*
X596900Y1054100D01*
X279400Y965200D02*
X254000Y965200D01*
X546100Y673100D02*
X558800Y685800D01*
X558800Y863600D01*
X393700Y1028700D01*
X393700Y1054100D01*
X387350Y1060450D01*
X317500Y1060450D01*
X317500Y977900D01*
X304800Y965200D01*
X704850Y196850D02*
X723900Y177800D01*
X704850Y196850D02*
X685800Y196850D01*
X685800Y165100D01*
X666750Y146050D01*
X165100Y146050D01*
X165100Y469900D01*
X146050Y488950D01*
X146050Y647700D01*
D14*
X146050Y647700D03*
D13*
X673100Y177800D02*
X679450Y184150D01*
X679450Y234950D01*
X685800Y241300D01*
X685800Y558800D01*
X660400Y584200D01*
X660400Y628650D01*
D14*
X660400Y628650D03*
D13*
X622300Y177800D02*
X596900Y152400D01*
X393700Y152400D01*
X393700Y609600D01*
X342900Y660400D01*
X342900Y736600D01*
X355600Y749300D01*
X571500Y177800D02*
X552450Y158750D01*
X425450Y158750D01*
X425450Y711200D01*
D14*
X425450Y711200D03*
D13*
X355600Y520700D02*
X336550Y501650D01*
X228600Y501650D01*
X228600Y673100D01*
M02*
