G04 EAGLE Gerber RS-274X export*
G75*
%MOMM*%
%FSLAX34Y34*%
%LPD*%
%INSilkscreen Top*%
%IPPOS*%
%AMOC8*
5,1,8,0,0,1.08239X$1,22.5*%
G01*
%ADD10C,0.203200*%
%ADD11C,0.152400*%
%ADD12C,0.254000*%
%ADD13C,0.050800*%
%ADD14C,0.076200*%
%ADD15C,0.127000*%
%ADD16R,0.863600X0.609600*%
%ADD17C,0.177800*%
%ADD18C,0.101600*%


D10*
X255016Y1129304D02*
X255016Y1125406D01*
X262812Y1117610D01*
X270608Y1125406D01*
X270608Y1129304D01*
X262812Y1117610D02*
X262812Y1105916D01*
X278404Y1105916D02*
X278404Y1121508D01*
X286200Y1129304D01*
X293996Y1121508D01*
X293996Y1105916D01*
X293996Y1117610D02*
X278404Y1117610D01*
X313486Y1129304D02*
X317384Y1125406D01*
X313486Y1129304D02*
X305690Y1129304D01*
X301792Y1125406D01*
X301792Y1109814D01*
X305690Y1105916D01*
X313486Y1105916D01*
X317384Y1109814D01*
X336874Y1129304D02*
X340772Y1125406D01*
X336874Y1129304D02*
X329078Y1129304D01*
X325180Y1125406D01*
X325180Y1109814D01*
X329078Y1105916D01*
X336874Y1105916D01*
X340772Y1109814D01*
X348568Y1121508D02*
X356364Y1129304D01*
X356364Y1105916D01*
X348568Y1105916D02*
X364160Y1105916D01*
X395344Y1105916D02*
X395344Y1129304D01*
X403140Y1121508D01*
X410936Y1129304D01*
X410936Y1105916D01*
X418732Y1129304D02*
X434324Y1129304D01*
X418732Y1129304D02*
X418732Y1105916D01*
X434324Y1105916D01*
X426528Y1117610D02*
X418732Y1117610D01*
X442120Y1105916D02*
X442120Y1129304D01*
X449916Y1121508D01*
X457712Y1129304D01*
X457712Y1105916D01*
X469406Y1129304D02*
X477202Y1129304D01*
X469406Y1129304D02*
X465508Y1125406D01*
X465508Y1109814D01*
X469406Y1105916D01*
X477202Y1105916D01*
X481100Y1109814D01*
X481100Y1125406D01*
X477202Y1129304D01*
X488896Y1129304D02*
X488896Y1105916D01*
X488896Y1129304D02*
X500590Y1129304D01*
X504488Y1125406D01*
X504488Y1117610D01*
X500590Y1113712D01*
X488896Y1113712D01*
X496692Y1113712D02*
X504488Y1105916D01*
X512284Y1125406D02*
X512284Y1129304D01*
X512284Y1125406D02*
X520080Y1117610D01*
X527876Y1125406D01*
X527876Y1129304D01*
X520080Y1117610D02*
X520080Y1105916D01*
X559060Y1105916D02*
X559060Y1129304D01*
X570754Y1129304D01*
X574652Y1125406D01*
X574652Y1121508D01*
X570754Y1117610D01*
X574652Y1113712D01*
X574652Y1109814D01*
X570754Y1105916D01*
X559060Y1105916D01*
X559060Y1117610D02*
X570754Y1117610D01*
X586346Y1129304D02*
X594142Y1129304D01*
X586346Y1129304D02*
X582448Y1125406D01*
X582448Y1109814D01*
X586346Y1105916D01*
X594142Y1105916D01*
X598040Y1109814D01*
X598040Y1125406D01*
X594142Y1129304D01*
X605836Y1121508D02*
X605836Y1105916D01*
X605836Y1121508D02*
X613632Y1129304D01*
X621428Y1121508D01*
X621428Y1105916D01*
X621428Y1117610D02*
X605836Y1117610D01*
X629224Y1105916D02*
X629224Y1129304D01*
X640917Y1129304D01*
X644815Y1125406D01*
X644815Y1117610D01*
X640917Y1113712D01*
X629224Y1113712D01*
X637019Y1113712D02*
X644815Y1105916D01*
X652611Y1105916D02*
X652611Y1129304D01*
X652611Y1105916D02*
X664305Y1105916D01*
X668203Y1109814D01*
X668203Y1125406D01*
X664305Y1129304D01*
X652611Y1129304D01*
X699387Y1129304D02*
X699387Y1113712D01*
X707183Y1105916D01*
X714979Y1113712D01*
X714979Y1129304D01*
X722775Y1121508D02*
X730571Y1129304D01*
X730571Y1105916D01*
X722775Y1105916D02*
X738367Y1105916D01*
X746163Y1105916D02*
X746163Y1109814D01*
X750061Y1109814D01*
X750061Y1105916D01*
X746163Y1105916D01*
X757857Y1121508D02*
X765653Y1129304D01*
X765653Y1105916D01*
X757857Y1105916D02*
X773449Y1105916D01*
X266710Y13716D02*
X258914Y13716D01*
X266710Y13716D02*
X270608Y17614D01*
X270608Y25410D01*
X266710Y29308D01*
X258914Y29308D01*
X255016Y25410D01*
X255016Y17614D01*
X258914Y13716D01*
X278404Y13716D02*
X278404Y29308D01*
X290098Y29308D01*
X293996Y25410D01*
X293996Y13716D01*
X305690Y13716D02*
X313486Y13716D01*
X305690Y13716D02*
X301792Y17614D01*
X301792Y25410D01*
X305690Y29308D01*
X313486Y29308D01*
X317384Y25410D01*
X317384Y21512D01*
X301792Y21512D01*
X325180Y29308D02*
X325180Y5920D01*
X325180Y29308D02*
X336874Y29308D01*
X340772Y25410D01*
X340772Y17614D01*
X336874Y13716D01*
X325180Y13716D01*
X352466Y29308D02*
X360262Y29308D01*
X364160Y25410D01*
X364160Y13716D01*
X352466Y13716D01*
X348568Y17614D01*
X352466Y21512D01*
X364160Y21512D01*
X379752Y5920D02*
X383650Y5920D01*
X387548Y9818D01*
X387548Y29308D01*
X375854Y29308D01*
X371956Y25410D01*
X371956Y17614D01*
X375854Y13716D01*
X387548Y13716D01*
X399242Y13716D02*
X407038Y13716D01*
X399242Y13716D02*
X395344Y17614D01*
X395344Y25410D01*
X399242Y29308D01*
X407038Y29308D01*
X410936Y25410D01*
X410936Y21512D01*
X395344Y21512D01*
X422630Y29308D02*
X434324Y29308D01*
X422630Y29308D02*
X418732Y25410D01*
X418732Y17614D01*
X422630Y13716D01*
X434324Y13716D01*
X446018Y13716D02*
X453814Y13716D01*
X457712Y17614D01*
X457712Y25410D01*
X453814Y29308D01*
X446018Y29308D01*
X442120Y25410D01*
X442120Y17614D01*
X446018Y13716D01*
X465508Y13716D02*
X465508Y29308D01*
X469406Y29308D01*
X473304Y25410D01*
X473304Y13716D01*
X473304Y25410D02*
X477202Y29308D01*
X481100Y25410D01*
X481100Y13716D01*
X488896Y5920D02*
X488896Y29308D01*
X500590Y29308D01*
X504488Y25410D01*
X504488Y17614D01*
X500590Y13716D01*
X488896Y13716D01*
X512284Y17614D02*
X512284Y29308D01*
X512284Y17614D02*
X516182Y13716D01*
X527876Y13716D01*
X527876Y29308D01*
X539570Y33206D02*
X539570Y17614D01*
X543468Y13716D01*
X543468Y29308D02*
X535672Y29308D01*
X555162Y13716D02*
X562958Y13716D01*
X555162Y13716D02*
X551264Y17614D01*
X551264Y25410D01*
X555162Y29308D01*
X562958Y29308D01*
X566856Y25410D01*
X566856Y21512D01*
X551264Y21512D01*
X574652Y13716D02*
X574652Y29308D01*
X574652Y21512D02*
X582448Y29308D01*
X586346Y29308D01*
X594142Y17614D02*
X594142Y13716D01*
X594142Y17614D02*
X598040Y17614D01*
X598040Y13716D01*
X594142Y13716D01*
X609733Y29308D02*
X621427Y29308D01*
X609733Y29308D02*
X605836Y25410D01*
X605836Y17614D01*
X609733Y13716D01*
X621427Y13716D01*
X633121Y13716D02*
X640917Y13716D01*
X644815Y17614D01*
X644815Y25410D01*
X640917Y29308D01*
X633121Y29308D01*
X629223Y25410D01*
X629223Y17614D01*
X633121Y13716D01*
X652611Y13716D02*
X652611Y29308D01*
X656509Y29308D01*
X660407Y25410D01*
X660407Y13716D01*
X660407Y25410D02*
X664305Y29308D01*
X668203Y25410D01*
X668203Y13716D01*
D11*
X13462Y79674D02*
X13462Y90520D01*
X16174Y93232D01*
X21597Y93232D01*
X24309Y90520D01*
X24309Y79674D01*
X21597Y76962D01*
X16174Y76962D01*
X13462Y79674D01*
X24309Y90520D01*
D12*
X-76200Y986790D02*
X-67310Y996950D01*
X-12700Y996950D01*
X-13970Y986790D02*
X-67310Y986790D01*
X-76200Y986790D02*
X-76200Y976630D01*
X-76200Y166370D01*
X-76200Y156210D01*
X-67310Y156210D02*
X-13970Y156210D01*
X-67310Y146050D02*
X-76200Y156210D01*
X-67310Y146050D02*
X-12700Y146050D01*
D13*
X-2200Y102900D02*
X-2200Y1041370D01*
D12*
X-12600Y1041370D02*
X-12600Y102900D01*
X-12700Y102000D02*
X50800Y101999D01*
X50800Y1041400D02*
X-1270Y1041400D01*
X-12700Y1041400D01*
X50800Y101999D02*
X50800Y101601D01*
X50800Y101999D02*
X50800Y152400D01*
X38100Y152400D01*
X12700Y152400D01*
X-1270Y139700D01*
X50800Y990600D02*
X50800Y1041400D01*
X50800Y990600D02*
X38100Y990600D01*
X12700Y990600D01*
X-1270Y1003300D01*
X38100Y990600D02*
X38100Y152400D01*
X-67310Y156210D02*
X-76200Y166370D01*
X-67310Y986790D02*
X-67310Y996950D01*
X-67310Y986790D02*
X-67310Y156210D01*
X-67310Y146050D01*
X-76200Y976630D02*
X-67310Y986790D01*
X-1270Y139700D02*
X-1270Y102870D01*
X-1270Y1003300D02*
X-1270Y1041400D01*
X12700Y1016064D02*
X12704Y1016376D01*
X12715Y1016687D01*
X12734Y1016998D01*
X12761Y1017309D01*
X12796Y1017619D01*
X12837Y1017927D01*
X12887Y1018235D01*
X12944Y1018542D01*
X13009Y1018847D01*
X13081Y1019150D01*
X13160Y1019451D01*
X13247Y1019751D01*
X13341Y1020048D01*
X13442Y1020343D01*
X13551Y1020635D01*
X13667Y1020924D01*
X13790Y1021211D01*
X13919Y1021494D01*
X14056Y1021774D01*
X14200Y1022051D01*
X14350Y1022324D01*
X14507Y1022593D01*
X14670Y1022858D01*
X14840Y1023120D01*
X15017Y1023377D01*
X15199Y1023629D01*
X15388Y1023877D01*
X15583Y1024121D01*
X15783Y1024359D01*
X15990Y1024593D01*
X16202Y1024821D01*
X16420Y1025044D01*
X16643Y1025262D01*
X16871Y1025474D01*
X17105Y1025681D01*
X17343Y1025881D01*
X17587Y1026076D01*
X17835Y1026265D01*
X18087Y1026447D01*
X18344Y1026624D01*
X18606Y1026794D01*
X18871Y1026957D01*
X19140Y1027114D01*
X19413Y1027264D01*
X19690Y1027408D01*
X19970Y1027545D01*
X20253Y1027674D01*
X20540Y1027797D01*
X20829Y1027913D01*
X21121Y1028022D01*
X21416Y1028123D01*
X21713Y1028217D01*
X22013Y1028304D01*
X22314Y1028383D01*
X22617Y1028455D01*
X22922Y1028520D01*
X23229Y1028577D01*
X23537Y1028627D01*
X23845Y1028668D01*
X24155Y1028703D01*
X24466Y1028730D01*
X24777Y1028749D01*
X25088Y1028760D01*
X25400Y1028764D01*
X25712Y1028760D01*
X26023Y1028749D01*
X26334Y1028730D01*
X26645Y1028703D01*
X26955Y1028668D01*
X27263Y1028627D01*
X27571Y1028577D01*
X27878Y1028520D01*
X28183Y1028455D01*
X28486Y1028383D01*
X28787Y1028304D01*
X29087Y1028217D01*
X29384Y1028123D01*
X29679Y1028022D01*
X29971Y1027913D01*
X30260Y1027797D01*
X30547Y1027674D01*
X30830Y1027545D01*
X31110Y1027408D01*
X31387Y1027264D01*
X31660Y1027114D01*
X31929Y1026957D01*
X32194Y1026794D01*
X32456Y1026624D01*
X32713Y1026447D01*
X32965Y1026265D01*
X33213Y1026076D01*
X33457Y1025881D01*
X33695Y1025681D01*
X33929Y1025474D01*
X34157Y1025262D01*
X34380Y1025044D01*
X34598Y1024821D01*
X34810Y1024593D01*
X35017Y1024359D01*
X35217Y1024121D01*
X35412Y1023877D01*
X35601Y1023629D01*
X35783Y1023377D01*
X35960Y1023120D01*
X36130Y1022858D01*
X36293Y1022593D01*
X36450Y1022324D01*
X36600Y1022051D01*
X36744Y1021774D01*
X36881Y1021494D01*
X37010Y1021211D01*
X37133Y1020924D01*
X37249Y1020635D01*
X37358Y1020343D01*
X37459Y1020048D01*
X37553Y1019751D01*
X37640Y1019451D01*
X37719Y1019150D01*
X37791Y1018847D01*
X37856Y1018542D01*
X37913Y1018235D01*
X37963Y1017927D01*
X38004Y1017619D01*
X38039Y1017309D01*
X38066Y1016998D01*
X38085Y1016687D01*
X38096Y1016376D01*
X38100Y1016064D01*
X38096Y1015752D01*
X38085Y1015441D01*
X38066Y1015130D01*
X38039Y1014819D01*
X38004Y1014509D01*
X37963Y1014201D01*
X37913Y1013893D01*
X37856Y1013586D01*
X37791Y1013281D01*
X37719Y1012978D01*
X37640Y1012677D01*
X37553Y1012377D01*
X37459Y1012080D01*
X37358Y1011785D01*
X37249Y1011493D01*
X37133Y1011204D01*
X37010Y1010917D01*
X36881Y1010634D01*
X36744Y1010354D01*
X36600Y1010077D01*
X36450Y1009804D01*
X36293Y1009535D01*
X36130Y1009270D01*
X35960Y1009008D01*
X35783Y1008751D01*
X35601Y1008499D01*
X35412Y1008251D01*
X35217Y1008007D01*
X35017Y1007769D01*
X34810Y1007535D01*
X34598Y1007307D01*
X34380Y1007084D01*
X34157Y1006866D01*
X33929Y1006654D01*
X33695Y1006447D01*
X33457Y1006247D01*
X33213Y1006052D01*
X32965Y1005863D01*
X32713Y1005681D01*
X32456Y1005504D01*
X32194Y1005334D01*
X31929Y1005171D01*
X31660Y1005014D01*
X31387Y1004864D01*
X31110Y1004720D01*
X30830Y1004583D01*
X30547Y1004454D01*
X30260Y1004331D01*
X29971Y1004215D01*
X29679Y1004106D01*
X29384Y1004005D01*
X29087Y1003911D01*
X28787Y1003824D01*
X28486Y1003745D01*
X28183Y1003673D01*
X27878Y1003608D01*
X27571Y1003551D01*
X27263Y1003501D01*
X26955Y1003460D01*
X26645Y1003425D01*
X26334Y1003398D01*
X26023Y1003379D01*
X25712Y1003368D01*
X25400Y1003364D01*
X25088Y1003368D01*
X24777Y1003379D01*
X24466Y1003398D01*
X24155Y1003425D01*
X23845Y1003460D01*
X23537Y1003501D01*
X23229Y1003551D01*
X22922Y1003608D01*
X22617Y1003673D01*
X22314Y1003745D01*
X22013Y1003824D01*
X21713Y1003911D01*
X21416Y1004005D01*
X21121Y1004106D01*
X20829Y1004215D01*
X20540Y1004331D01*
X20253Y1004454D01*
X19970Y1004583D01*
X19690Y1004720D01*
X19413Y1004864D01*
X19140Y1005014D01*
X18871Y1005171D01*
X18606Y1005334D01*
X18344Y1005504D01*
X18087Y1005681D01*
X17835Y1005863D01*
X17587Y1006052D01*
X17343Y1006247D01*
X17105Y1006447D01*
X16871Y1006654D01*
X16643Y1006866D01*
X16420Y1007084D01*
X16202Y1007307D01*
X15990Y1007535D01*
X15783Y1007769D01*
X15583Y1008007D01*
X15388Y1008251D01*
X15199Y1008499D01*
X15017Y1008751D01*
X14840Y1009008D01*
X14670Y1009270D01*
X14507Y1009535D01*
X14350Y1009804D01*
X14200Y1010077D01*
X14056Y1010354D01*
X13919Y1010634D01*
X13790Y1010917D01*
X13667Y1011204D01*
X13551Y1011493D01*
X13442Y1011785D01*
X13341Y1012080D01*
X13247Y1012377D01*
X13160Y1012677D01*
X13081Y1012978D01*
X13009Y1013281D01*
X12944Y1013586D01*
X12887Y1013893D01*
X12837Y1014201D01*
X12796Y1014509D01*
X12761Y1014819D01*
X12734Y1015130D01*
X12715Y1015441D01*
X12704Y1015752D01*
X12700Y1016064D01*
X12700Y126936D02*
X12704Y127248D01*
X12715Y127559D01*
X12734Y127870D01*
X12761Y128181D01*
X12796Y128491D01*
X12837Y128799D01*
X12887Y129107D01*
X12944Y129414D01*
X13009Y129719D01*
X13081Y130022D01*
X13160Y130323D01*
X13247Y130623D01*
X13341Y130920D01*
X13442Y131215D01*
X13551Y131507D01*
X13667Y131796D01*
X13790Y132083D01*
X13919Y132366D01*
X14056Y132646D01*
X14200Y132923D01*
X14350Y133196D01*
X14507Y133465D01*
X14670Y133730D01*
X14840Y133992D01*
X15017Y134249D01*
X15199Y134501D01*
X15388Y134749D01*
X15583Y134993D01*
X15783Y135231D01*
X15990Y135465D01*
X16202Y135693D01*
X16420Y135916D01*
X16643Y136134D01*
X16871Y136346D01*
X17105Y136553D01*
X17343Y136753D01*
X17587Y136948D01*
X17835Y137137D01*
X18087Y137319D01*
X18344Y137496D01*
X18606Y137666D01*
X18871Y137829D01*
X19140Y137986D01*
X19413Y138136D01*
X19690Y138280D01*
X19970Y138417D01*
X20253Y138546D01*
X20540Y138669D01*
X20829Y138785D01*
X21121Y138894D01*
X21416Y138995D01*
X21713Y139089D01*
X22013Y139176D01*
X22314Y139255D01*
X22617Y139327D01*
X22922Y139392D01*
X23229Y139449D01*
X23537Y139499D01*
X23845Y139540D01*
X24155Y139575D01*
X24466Y139602D01*
X24777Y139621D01*
X25088Y139632D01*
X25400Y139636D01*
X25712Y139632D01*
X26023Y139621D01*
X26334Y139602D01*
X26645Y139575D01*
X26955Y139540D01*
X27263Y139499D01*
X27571Y139449D01*
X27878Y139392D01*
X28183Y139327D01*
X28486Y139255D01*
X28787Y139176D01*
X29087Y139089D01*
X29384Y138995D01*
X29679Y138894D01*
X29971Y138785D01*
X30260Y138669D01*
X30547Y138546D01*
X30830Y138417D01*
X31110Y138280D01*
X31387Y138136D01*
X31660Y137986D01*
X31929Y137829D01*
X32194Y137666D01*
X32456Y137496D01*
X32713Y137319D01*
X32965Y137137D01*
X33213Y136948D01*
X33457Y136753D01*
X33695Y136553D01*
X33929Y136346D01*
X34157Y136134D01*
X34380Y135916D01*
X34598Y135693D01*
X34810Y135465D01*
X35017Y135231D01*
X35217Y134993D01*
X35412Y134749D01*
X35601Y134501D01*
X35783Y134249D01*
X35960Y133992D01*
X36130Y133730D01*
X36293Y133465D01*
X36450Y133196D01*
X36600Y132923D01*
X36744Y132646D01*
X36881Y132366D01*
X37010Y132083D01*
X37133Y131796D01*
X37249Y131507D01*
X37358Y131215D01*
X37459Y130920D01*
X37553Y130623D01*
X37640Y130323D01*
X37719Y130022D01*
X37791Y129719D01*
X37856Y129414D01*
X37913Y129107D01*
X37963Y128799D01*
X38004Y128491D01*
X38039Y128181D01*
X38066Y127870D01*
X38085Y127559D01*
X38096Y127248D01*
X38100Y126936D01*
X38096Y126624D01*
X38085Y126313D01*
X38066Y126002D01*
X38039Y125691D01*
X38004Y125381D01*
X37963Y125073D01*
X37913Y124765D01*
X37856Y124458D01*
X37791Y124153D01*
X37719Y123850D01*
X37640Y123549D01*
X37553Y123249D01*
X37459Y122952D01*
X37358Y122657D01*
X37249Y122365D01*
X37133Y122076D01*
X37010Y121789D01*
X36881Y121506D01*
X36744Y121226D01*
X36600Y120949D01*
X36450Y120676D01*
X36293Y120407D01*
X36130Y120142D01*
X35960Y119880D01*
X35783Y119623D01*
X35601Y119371D01*
X35412Y119123D01*
X35217Y118879D01*
X35017Y118641D01*
X34810Y118407D01*
X34598Y118179D01*
X34380Y117956D01*
X34157Y117738D01*
X33929Y117526D01*
X33695Y117319D01*
X33457Y117119D01*
X33213Y116924D01*
X32965Y116735D01*
X32713Y116553D01*
X32456Y116376D01*
X32194Y116206D01*
X31929Y116043D01*
X31660Y115886D01*
X31387Y115736D01*
X31110Y115592D01*
X30830Y115455D01*
X30547Y115326D01*
X30260Y115203D01*
X29971Y115087D01*
X29679Y114978D01*
X29384Y114877D01*
X29087Y114783D01*
X28787Y114696D01*
X28486Y114617D01*
X28183Y114545D01*
X27878Y114480D01*
X27571Y114423D01*
X27263Y114373D01*
X26955Y114332D01*
X26645Y114297D01*
X26334Y114270D01*
X26023Y114251D01*
X25712Y114240D01*
X25400Y114236D01*
X25088Y114240D01*
X24777Y114251D01*
X24466Y114270D01*
X24155Y114297D01*
X23845Y114332D01*
X23537Y114373D01*
X23229Y114423D01*
X22922Y114480D01*
X22617Y114545D01*
X22314Y114617D01*
X22013Y114696D01*
X21713Y114783D01*
X21416Y114877D01*
X21121Y114978D01*
X20829Y115087D01*
X20540Y115203D01*
X20253Y115326D01*
X19970Y115455D01*
X19690Y115592D01*
X19413Y115736D01*
X19140Y115886D01*
X18871Y116043D01*
X18606Y116206D01*
X18344Y116376D01*
X18087Y116553D01*
X17835Y116735D01*
X17587Y116924D01*
X17343Y117119D01*
X17105Y117319D01*
X16871Y117526D01*
X16643Y117738D01*
X16420Y117956D01*
X16202Y118179D01*
X15990Y118407D01*
X15783Y118641D01*
X15583Y118879D01*
X15388Y119123D01*
X15199Y119371D01*
X15017Y119623D01*
X14840Y119880D01*
X14670Y120142D01*
X14507Y120407D01*
X14350Y120676D01*
X14200Y120949D01*
X14056Y121226D01*
X13919Y121506D01*
X13790Y121789D01*
X13667Y122076D01*
X13551Y122365D01*
X13442Y122657D01*
X13341Y122952D01*
X13247Y123249D01*
X13160Y123549D01*
X13081Y123850D01*
X13009Y124153D01*
X12944Y124458D01*
X12887Y124765D01*
X12837Y125073D01*
X12796Y125381D01*
X12761Y125691D01*
X12734Y126002D01*
X12715Y126313D01*
X12704Y126624D01*
X12700Y126936D01*
D14*
X28232Y173237D02*
X25775Y175694D01*
X33147Y175694D01*
X33147Y173237D02*
X33147Y178152D01*
D15*
X46728Y160662D02*
X50541Y160662D01*
X52448Y158755D01*
X52448Y153035D01*
X46728Y153035D01*
X44821Y154942D01*
X46728Y156848D01*
X52448Y156848D01*
X70221Y153035D02*
X70221Y164475D01*
X70221Y153035D02*
X75941Y153035D01*
X77848Y154942D01*
X77848Y158755D01*
X75941Y160662D01*
X70221Y160662D01*
X97528Y160662D02*
X103248Y160662D01*
X97528Y160662D02*
X95621Y158755D01*
X95621Y154942D01*
X97528Y153035D01*
X103248Y153035D01*
D14*
X27003Y956963D02*
X25775Y958191D01*
X25775Y960649D01*
X27003Y961878D01*
X28232Y961878D01*
X29461Y960649D01*
X29461Y959420D01*
X29461Y960649D02*
X30690Y961878D01*
X31918Y961878D01*
X33147Y960649D01*
X33147Y958191D01*
X31918Y956963D01*
X33147Y964447D02*
X33147Y969362D01*
X33147Y964447D02*
X28232Y969362D01*
X27003Y969362D01*
X25775Y968133D01*
X25775Y965676D01*
X27003Y964447D01*
D15*
X-45085Y230493D02*
X-56525Y230493D01*
X-45085Y230493D02*
X-45085Y236213D01*
X-46992Y238120D01*
X-54618Y238120D01*
X-56525Y236213D01*
X-56525Y230493D01*
X-45085Y242187D02*
X-45085Y246000D01*
X-45085Y244094D02*
X-56525Y244094D01*
X-56525Y246000D02*
X-56525Y242187D01*
X-56525Y249983D02*
X-45085Y249983D01*
X-45085Y257610D02*
X-56525Y249983D01*
X-56525Y257610D02*
X-45085Y257610D01*
X-45085Y267397D02*
X-56525Y267397D01*
X-50805Y261677D01*
X-50805Y269303D01*
X-52712Y273371D02*
X-56525Y277184D01*
X-45085Y277184D01*
X-45085Y273371D02*
X-45085Y280997D01*
X-54618Y288878D02*
X-56525Y292691D01*
X-54618Y288878D02*
X-50805Y285065D01*
X-46992Y285065D01*
X-45085Y286972D01*
X-45085Y290785D01*
X-46992Y292691D01*
X-48898Y292691D01*
X-50805Y290785D01*
X-50805Y285065D01*
X-52712Y296759D02*
X-56525Y300572D01*
X-45085Y300572D01*
X-45085Y296759D02*
X-45085Y304385D01*
X-45085Y308453D02*
X-45085Y316079D01*
X-45085Y308453D02*
X-52712Y316079D01*
X-54618Y316079D01*
X-56525Y314173D01*
X-56525Y310359D01*
X-54618Y308453D01*
X-50805Y320147D02*
X-50805Y327773D01*
X-45085Y331841D02*
X-56525Y331841D01*
X-56525Y337561D01*
X-54618Y339467D01*
X-50805Y339467D01*
X-48898Y337561D01*
X-48898Y331841D01*
X-48898Y335654D02*
X-45085Y339467D01*
X6975Y891647D02*
X18415Y899274D01*
X18415Y891647D02*
X6975Y899274D01*
X10789Y903341D02*
X6975Y907154D01*
X18415Y907154D01*
X18415Y903341D02*
X18415Y910968D01*
D10*
X1714500Y57150D02*
X1714500Y19050D01*
D12*
X1714974Y18434D01*
X1715463Y17829D01*
X1715967Y17237D01*
X1716485Y16657D01*
X1717017Y16090D01*
X1717563Y15536D01*
X1718122Y14996D01*
X1718695Y14470D01*
X1719280Y13957D01*
X1719877Y13460D01*
X1720486Y12977D01*
X1721107Y12509D01*
X1721740Y12056D01*
X1722383Y11619D01*
X1723037Y11198D01*
X1723701Y10794D01*
X1724374Y10405D01*
X1725057Y10033D01*
X1725749Y9678D01*
X1726449Y9340D01*
X1727157Y9019D01*
X1727873Y8716D01*
X1728597Y8430D01*
X1729326Y8162D01*
X1730063Y7912D01*
X1730805Y7681D01*
X1731553Y7467D01*
X1732305Y7272D01*
X1733063Y7095D01*
X1733824Y6937D01*
X1734589Y6797D01*
X1735357Y6677D01*
X1736128Y6575D01*
X1736901Y6492D01*
X1737676Y6428D01*
X1738452Y6383D01*
X1739229Y6357D01*
X1740007Y6350D01*
X1740784Y6362D01*
X1741561Y6393D01*
X1742337Y6444D01*
X1743112Y6513D01*
X1743884Y6601D01*
X1744654Y6708D01*
X1745422Y6834D01*
X1746186Y6978D01*
X1746946Y7142D01*
X1747702Y7324D01*
X1748453Y7524D01*
X1749200Y7742D01*
X1749940Y7979D01*
X1750675Y8234D01*
X1751403Y8507D01*
X1752124Y8798D01*
X1752838Y9106D01*
X1753544Y9431D01*
X1754242Y9774D01*
X1754932Y10134D01*
X1755612Y10510D01*
X1756283Y10903D01*
X1756944Y11313D01*
X1757595Y11738D01*
X1758235Y12179D01*
X1758864Y12636D01*
X1759482Y13108D01*
X1760088Y13595D01*
X1760682Y14097D01*
X1761264Y14613D01*
X1761833Y15143D01*
X1762388Y15687D01*
X1762931Y16245D01*
X1763459Y16815D01*
X1763973Y17398D01*
X1764473Y17994D01*
X1764958Y18602D01*
X1765428Y19221D01*
X1765882Y19852D01*
X1766321Y20494D01*
X1766745Y21146D01*
X1767152Y21809D01*
X1767543Y22481D01*
X1767917Y23163D01*
X1768274Y23853D01*
X1768614Y24552D01*
X1768938Y25260D01*
X1769243Y25974D01*
X1769532Y26697D01*
X1769802Y27426D01*
X1770054Y28161D01*
X1770289Y28903D01*
X1770505Y29650D01*
X1770703Y30402D01*
X1770882Y31158D01*
X1771043Y31919D01*
X1771185Y32683D01*
X1771308Y33451D01*
X1771412Y34222D01*
X1771498Y34995D01*
X1771564Y35769D01*
X1771612Y36545D01*
X1771640Y37322D01*
X1771650Y38100D01*
X1771640Y38878D01*
X1771612Y39655D01*
X1771564Y40431D01*
X1771498Y41205D01*
X1771412Y41978D01*
X1771308Y42749D01*
X1771185Y43517D01*
X1771043Y44281D01*
X1770882Y45042D01*
X1770703Y45798D01*
X1770505Y46550D01*
X1770289Y47297D01*
X1770054Y48039D01*
X1769802Y48774D01*
X1769532Y49503D01*
X1769243Y50226D01*
X1768938Y50940D01*
X1768614Y51648D01*
X1768274Y52347D01*
X1767917Y53037D01*
X1767543Y53719D01*
X1767152Y54391D01*
X1766745Y55054D01*
X1766321Y55706D01*
X1765882Y56348D01*
X1765428Y56979D01*
X1764958Y57598D01*
X1764473Y58206D01*
X1763973Y58802D01*
X1763459Y59385D01*
X1762931Y59955D01*
X1762388Y60513D01*
X1761833Y61057D01*
X1761264Y61587D01*
X1760682Y62103D01*
X1760088Y62605D01*
X1759482Y63092D01*
X1758864Y63564D01*
X1758235Y64021D01*
X1757595Y64462D01*
X1756944Y64887D01*
X1756283Y65297D01*
X1755612Y65690D01*
X1754932Y66066D01*
X1754242Y66426D01*
X1753544Y66769D01*
X1752838Y67094D01*
X1752124Y67402D01*
X1751403Y67693D01*
X1750675Y67966D01*
X1749940Y68221D01*
X1749200Y68458D01*
X1748453Y68676D01*
X1747702Y68876D01*
X1746946Y69058D01*
X1746186Y69222D01*
X1745422Y69366D01*
X1744654Y69492D01*
X1743884Y69599D01*
X1743112Y69687D01*
X1742337Y69756D01*
X1741561Y69807D01*
X1740784Y69838D01*
X1740007Y69850D01*
X1739229Y69843D01*
X1738452Y69817D01*
X1737676Y69772D01*
X1736901Y69708D01*
X1736128Y69625D01*
X1735357Y69523D01*
X1734589Y69403D01*
X1733824Y69263D01*
X1733063Y69105D01*
X1732305Y68928D01*
X1731553Y68733D01*
X1730805Y68519D01*
X1730063Y68288D01*
X1729326Y68038D01*
X1728597Y67770D01*
X1727873Y67484D01*
X1727157Y67181D01*
X1726449Y66860D01*
X1725749Y66522D01*
X1725057Y66167D01*
X1724374Y65795D01*
X1723701Y65406D01*
X1723037Y65002D01*
X1722383Y64581D01*
X1721740Y64144D01*
X1721107Y63691D01*
X1720486Y63223D01*
X1719877Y62740D01*
X1719280Y62243D01*
X1718695Y61730D01*
X1718122Y61204D01*
X1717563Y60664D01*
X1717017Y60110D01*
X1716485Y59543D01*
X1715967Y58963D01*
X1715463Y58371D01*
X1714974Y57766D01*
X1714500Y57150D01*
D11*
X1714500Y38100D02*
X1714508Y38723D01*
X1714531Y39346D01*
X1714569Y39969D01*
X1714622Y40590D01*
X1714691Y41209D01*
X1714775Y41827D01*
X1714874Y42442D01*
X1714988Y43055D01*
X1715117Y43665D01*
X1715261Y44272D01*
X1715420Y44875D01*
X1715594Y45473D01*
X1715782Y46068D01*
X1715985Y46657D01*
X1716202Y47241D01*
X1716433Y47820D01*
X1716679Y48393D01*
X1716939Y48960D01*
X1717212Y49520D01*
X1717499Y50073D01*
X1717800Y50620D01*
X1718114Y51158D01*
X1718441Y51689D01*
X1718781Y52211D01*
X1719133Y52726D01*
X1719499Y53231D01*
X1719876Y53727D01*
X1720266Y54214D01*
X1720667Y54691D01*
X1721080Y55158D01*
X1721504Y55614D01*
X1721939Y56061D01*
X1722386Y56496D01*
X1722842Y56920D01*
X1723309Y57333D01*
X1723786Y57734D01*
X1724273Y58124D01*
X1724769Y58501D01*
X1725274Y58867D01*
X1725789Y59219D01*
X1726311Y59559D01*
X1726842Y59886D01*
X1727380Y60200D01*
X1727927Y60501D01*
X1728480Y60788D01*
X1729040Y61061D01*
X1729607Y61321D01*
X1730180Y61567D01*
X1730759Y61798D01*
X1731343Y62015D01*
X1731932Y62218D01*
X1732527Y62406D01*
X1733125Y62580D01*
X1733728Y62739D01*
X1734335Y62883D01*
X1734945Y63012D01*
X1735558Y63126D01*
X1736173Y63225D01*
X1736791Y63309D01*
X1737410Y63378D01*
X1738031Y63431D01*
X1738654Y63469D01*
X1739277Y63492D01*
X1739900Y63500D01*
X1740523Y63492D01*
X1741146Y63469D01*
X1741769Y63431D01*
X1742390Y63378D01*
X1743009Y63309D01*
X1743627Y63225D01*
X1744242Y63126D01*
X1744855Y63012D01*
X1745465Y62883D01*
X1746072Y62739D01*
X1746675Y62580D01*
X1747273Y62406D01*
X1747868Y62218D01*
X1748457Y62015D01*
X1749041Y61798D01*
X1749620Y61567D01*
X1750193Y61321D01*
X1750760Y61061D01*
X1751320Y60788D01*
X1751873Y60501D01*
X1752420Y60200D01*
X1752958Y59886D01*
X1753489Y59559D01*
X1754011Y59219D01*
X1754526Y58867D01*
X1755031Y58501D01*
X1755527Y58124D01*
X1756014Y57734D01*
X1756491Y57333D01*
X1756958Y56920D01*
X1757414Y56496D01*
X1757861Y56061D01*
X1758296Y55614D01*
X1758720Y55158D01*
X1759133Y54691D01*
X1759534Y54214D01*
X1759924Y53727D01*
X1760301Y53231D01*
X1760667Y52726D01*
X1761019Y52211D01*
X1761359Y51689D01*
X1761686Y51158D01*
X1762000Y50620D01*
X1762301Y50073D01*
X1762588Y49520D01*
X1762861Y48960D01*
X1763121Y48393D01*
X1763367Y47820D01*
X1763598Y47241D01*
X1763815Y46657D01*
X1764018Y46068D01*
X1764206Y45473D01*
X1764380Y44875D01*
X1764539Y44272D01*
X1764683Y43665D01*
X1764812Y43055D01*
X1764926Y42442D01*
X1765025Y41827D01*
X1765109Y41209D01*
X1765178Y40590D01*
X1765231Y39969D01*
X1765269Y39346D01*
X1765292Y38723D01*
X1765300Y38100D01*
X1765292Y37477D01*
X1765269Y36854D01*
X1765231Y36231D01*
X1765178Y35610D01*
X1765109Y34991D01*
X1765025Y34373D01*
X1764926Y33758D01*
X1764812Y33145D01*
X1764683Y32535D01*
X1764539Y31928D01*
X1764380Y31325D01*
X1764206Y30727D01*
X1764018Y30132D01*
X1763815Y29543D01*
X1763598Y28959D01*
X1763367Y28380D01*
X1763121Y27807D01*
X1762861Y27240D01*
X1762588Y26680D01*
X1762301Y26127D01*
X1762000Y25580D01*
X1761686Y25042D01*
X1761359Y24511D01*
X1761019Y23989D01*
X1760667Y23474D01*
X1760301Y22969D01*
X1759924Y22473D01*
X1759534Y21986D01*
X1759133Y21509D01*
X1758720Y21042D01*
X1758296Y20586D01*
X1757861Y20139D01*
X1757414Y19704D01*
X1756958Y19280D01*
X1756491Y18867D01*
X1756014Y18466D01*
X1755527Y18076D01*
X1755031Y17699D01*
X1754526Y17333D01*
X1754011Y16981D01*
X1753489Y16641D01*
X1752958Y16314D01*
X1752420Y16000D01*
X1751873Y15699D01*
X1751320Y15412D01*
X1750760Y15139D01*
X1750193Y14879D01*
X1749620Y14633D01*
X1749041Y14402D01*
X1748457Y14185D01*
X1747868Y13982D01*
X1747273Y13794D01*
X1746675Y13620D01*
X1746072Y13461D01*
X1745465Y13317D01*
X1744855Y13188D01*
X1744242Y13074D01*
X1743627Y12975D01*
X1743009Y12891D01*
X1742390Y12822D01*
X1741769Y12769D01*
X1741146Y12731D01*
X1740523Y12708D01*
X1739900Y12700D01*
X1739277Y12708D01*
X1738654Y12731D01*
X1738031Y12769D01*
X1737410Y12822D01*
X1736791Y12891D01*
X1736173Y12975D01*
X1735558Y13074D01*
X1734945Y13188D01*
X1734335Y13317D01*
X1733728Y13461D01*
X1733125Y13620D01*
X1732527Y13794D01*
X1731932Y13982D01*
X1731343Y14185D01*
X1730759Y14402D01*
X1730180Y14633D01*
X1729607Y14879D01*
X1729040Y15139D01*
X1728480Y15412D01*
X1727927Y15699D01*
X1727380Y16000D01*
X1726842Y16314D01*
X1726311Y16641D01*
X1725789Y16981D01*
X1725274Y17333D01*
X1724769Y17699D01*
X1724273Y18076D01*
X1723786Y18466D01*
X1723309Y18867D01*
X1722842Y19280D01*
X1722386Y19704D01*
X1721939Y20139D01*
X1721504Y20586D01*
X1721080Y21042D01*
X1720667Y21509D01*
X1720266Y21986D01*
X1719876Y22473D01*
X1719499Y22969D01*
X1719133Y23474D01*
X1718781Y23989D01*
X1718441Y24511D01*
X1718114Y25042D01*
X1717800Y25580D01*
X1717499Y26127D01*
X1717212Y26680D01*
X1716939Y27240D01*
X1716679Y27807D01*
X1716433Y28380D01*
X1716202Y28959D01*
X1715985Y29543D01*
X1715782Y30132D01*
X1715594Y30727D01*
X1715420Y31325D01*
X1715261Y31928D01*
X1715117Y32535D01*
X1714988Y33145D01*
X1714874Y33758D01*
X1714775Y34373D01*
X1714691Y34991D01*
X1714622Y35610D01*
X1714569Y36231D01*
X1714531Y36854D01*
X1714508Y37477D01*
X1714500Y38100D01*
D15*
X1673703Y32141D02*
X1673703Y20701D01*
X1673703Y32141D02*
X1679423Y32141D01*
X1681330Y30234D01*
X1681330Y26421D01*
X1679423Y24514D01*
X1673703Y24514D01*
X1685397Y20701D02*
X1685397Y32141D01*
X1689210Y24514D02*
X1685397Y20701D01*
X1689210Y24514D02*
X1693024Y20701D01*
X1693024Y32141D01*
X1697091Y32141D02*
X1697091Y20701D01*
X1697091Y32141D02*
X1702811Y32141D01*
X1704717Y30234D01*
X1704717Y26421D01*
X1702811Y24514D01*
X1697091Y24514D01*
X1700904Y24514D02*
X1704717Y20701D01*
D11*
X1631950Y29210D02*
X1631948Y29110D01*
X1631942Y29011D01*
X1631932Y28911D01*
X1631919Y28813D01*
X1631901Y28714D01*
X1631880Y28617D01*
X1631855Y28521D01*
X1631826Y28425D01*
X1631793Y28331D01*
X1631757Y28238D01*
X1631717Y28147D01*
X1631673Y28057D01*
X1631626Y27969D01*
X1631576Y27883D01*
X1631522Y27799D01*
X1631465Y27717D01*
X1631405Y27638D01*
X1631341Y27560D01*
X1631275Y27486D01*
X1631206Y27414D01*
X1631134Y27345D01*
X1631060Y27279D01*
X1630982Y27215D01*
X1630903Y27155D01*
X1630821Y27098D01*
X1630737Y27044D01*
X1630651Y26994D01*
X1630563Y26947D01*
X1630473Y26903D01*
X1630382Y26863D01*
X1630289Y26827D01*
X1630195Y26794D01*
X1630099Y26765D01*
X1630003Y26740D01*
X1629906Y26719D01*
X1629807Y26701D01*
X1629709Y26688D01*
X1629609Y26678D01*
X1629510Y26672D01*
X1629410Y26670D01*
X1631950Y46990D02*
X1631948Y47090D01*
X1631942Y47189D01*
X1631932Y47289D01*
X1631919Y47387D01*
X1631901Y47486D01*
X1631880Y47583D01*
X1631855Y47679D01*
X1631826Y47775D01*
X1631793Y47869D01*
X1631757Y47962D01*
X1631717Y48053D01*
X1631673Y48143D01*
X1631626Y48231D01*
X1631576Y48317D01*
X1631522Y48401D01*
X1631465Y48483D01*
X1631405Y48562D01*
X1631341Y48640D01*
X1631275Y48714D01*
X1631206Y48786D01*
X1631134Y48855D01*
X1631060Y48921D01*
X1630982Y48985D01*
X1630903Y49045D01*
X1630821Y49102D01*
X1630737Y49156D01*
X1630651Y49206D01*
X1630563Y49253D01*
X1630473Y49297D01*
X1630382Y49337D01*
X1630289Y49373D01*
X1630195Y49406D01*
X1630099Y49435D01*
X1630003Y49460D01*
X1629906Y49481D01*
X1629807Y49499D01*
X1629709Y49512D01*
X1629609Y49522D01*
X1629510Y49528D01*
X1629410Y49530D01*
X1570990Y49530D02*
X1570890Y49528D01*
X1570791Y49522D01*
X1570691Y49512D01*
X1570593Y49499D01*
X1570494Y49481D01*
X1570397Y49460D01*
X1570301Y49435D01*
X1570205Y49406D01*
X1570111Y49373D01*
X1570018Y49337D01*
X1569927Y49297D01*
X1569837Y49253D01*
X1569749Y49206D01*
X1569663Y49156D01*
X1569579Y49102D01*
X1569497Y49045D01*
X1569418Y48985D01*
X1569340Y48921D01*
X1569266Y48855D01*
X1569194Y48786D01*
X1569125Y48714D01*
X1569059Y48640D01*
X1568995Y48562D01*
X1568935Y48483D01*
X1568878Y48401D01*
X1568824Y48317D01*
X1568774Y48231D01*
X1568727Y48143D01*
X1568683Y48053D01*
X1568643Y47962D01*
X1568607Y47869D01*
X1568574Y47775D01*
X1568545Y47679D01*
X1568520Y47583D01*
X1568499Y47486D01*
X1568481Y47387D01*
X1568468Y47289D01*
X1568458Y47189D01*
X1568452Y47090D01*
X1568450Y46990D01*
X1568450Y29210D02*
X1568452Y29110D01*
X1568458Y29011D01*
X1568468Y28911D01*
X1568481Y28813D01*
X1568499Y28714D01*
X1568520Y28617D01*
X1568545Y28521D01*
X1568574Y28425D01*
X1568607Y28331D01*
X1568643Y28238D01*
X1568683Y28147D01*
X1568727Y28057D01*
X1568774Y27969D01*
X1568824Y27883D01*
X1568878Y27799D01*
X1568935Y27717D01*
X1568995Y27638D01*
X1569059Y27560D01*
X1569125Y27486D01*
X1569194Y27414D01*
X1569266Y27345D01*
X1569340Y27279D01*
X1569418Y27215D01*
X1569497Y27155D01*
X1569579Y27098D01*
X1569663Y27044D01*
X1569749Y26994D01*
X1569837Y26947D01*
X1569927Y26903D01*
X1570018Y26863D01*
X1570111Y26827D01*
X1570205Y26794D01*
X1570301Y26765D01*
X1570397Y26740D01*
X1570494Y26719D01*
X1570593Y26701D01*
X1570691Y26688D01*
X1570791Y26678D01*
X1570890Y26672D01*
X1570990Y26670D01*
X1631950Y29210D02*
X1631950Y46990D01*
X1629410Y26670D02*
X1625600Y26670D01*
X1624330Y27940D01*
X1625600Y49530D02*
X1629410Y49530D01*
X1625600Y49530D02*
X1624330Y48260D01*
X1576070Y27940D02*
X1574800Y26670D01*
X1576070Y27940D02*
X1624330Y27940D01*
X1576070Y48260D02*
X1574800Y49530D01*
X1576070Y48260D02*
X1624330Y48260D01*
X1574800Y26670D02*
X1570990Y26670D01*
X1570990Y49530D02*
X1574800Y49530D01*
X1568450Y46990D02*
X1568450Y29210D01*
D16*
X1564132Y38100D03*
X1636268Y38100D03*
D15*
X1607927Y22235D02*
X1607927Y10795D01*
X1607927Y22235D02*
X1613647Y22235D01*
X1615554Y20328D01*
X1615554Y16515D01*
X1613647Y14608D01*
X1607927Y14608D01*
X1611740Y14608D02*
X1615554Y10795D01*
X1619621Y10795D02*
X1627248Y10795D01*
X1619621Y10795D02*
X1627248Y18422D01*
X1627248Y20328D01*
X1625341Y22235D01*
X1621528Y22235D01*
X1619621Y20328D01*
D11*
X915670Y911860D02*
X915670Y965200D01*
X915979Y965204D01*
X916288Y965215D01*
X916597Y965234D01*
X916905Y965260D01*
X917213Y965294D01*
X917519Y965335D01*
X917825Y965384D01*
X918129Y965440D01*
X918431Y965504D01*
X918732Y965575D01*
X919032Y965653D01*
X919329Y965738D01*
X919624Y965831D01*
X919917Y965931D01*
X920207Y966038D01*
X920494Y966152D01*
X920779Y966273D01*
X921061Y966401D01*
X921339Y966535D01*
X921614Y966677D01*
X921886Y966825D01*
X922153Y966980D01*
X922417Y967141D01*
X922677Y967308D01*
X922933Y967482D01*
X923185Y967662D01*
X923432Y967848D01*
X923674Y968040D01*
X923912Y968238D01*
X924145Y968441D01*
X924373Y968651D01*
X924595Y968865D01*
X924813Y969085D01*
X925025Y969311D01*
X925231Y969541D01*
X925432Y969776D01*
X925627Y970016D01*
X925816Y970261D01*
X925999Y970510D01*
X926176Y970764D01*
X926346Y971022D01*
X926511Y971284D01*
X926669Y971550D01*
X926820Y971820D01*
X926965Y972093D01*
X927103Y972370D01*
X927234Y972650D01*
X927358Y972933D01*
X927476Y973219D01*
X927586Y973508D01*
X927690Y973799D01*
X927786Y974093D01*
X927875Y974389D01*
X927957Y974688D01*
X928032Y974988D01*
X928099Y975290D01*
X928159Y975593D01*
X928211Y975898D01*
X928256Y976204D01*
X928294Y976511D01*
X928324Y976819D01*
X928346Y977127D01*
X928362Y977436D01*
X928369Y977745D01*
X928369Y978055D01*
X928362Y978364D01*
X928346Y978673D01*
X928324Y978981D01*
X928294Y979289D01*
X928256Y979596D01*
X928211Y979902D01*
X928159Y980207D01*
X928099Y980510D01*
X928032Y980812D01*
X927957Y981112D01*
X927875Y981411D01*
X927786Y981707D01*
X927690Y982001D01*
X927586Y982292D01*
X927476Y982581D01*
X927358Y982867D01*
X927234Y983150D01*
X927103Y983430D01*
X926965Y983707D01*
X926820Y983980D01*
X926669Y984250D01*
X926511Y984516D01*
X926346Y984778D01*
X926176Y985036D01*
X925999Y985290D01*
X925816Y985539D01*
X925627Y985784D01*
X925432Y986024D01*
X925231Y986259D01*
X925025Y986489D01*
X924813Y986715D01*
X924595Y986935D01*
X924373Y987149D01*
X924145Y987359D01*
X923912Y987562D01*
X923674Y987760D01*
X923432Y987952D01*
X923185Y988138D01*
X922933Y988318D01*
X922677Y988492D01*
X922417Y988659D01*
X922153Y988820D01*
X921886Y988975D01*
X921614Y989123D01*
X921339Y989265D01*
X921061Y989399D01*
X920779Y989527D01*
X920494Y989648D01*
X920207Y989762D01*
X919917Y989869D01*
X919624Y989969D01*
X919329Y990062D01*
X919032Y990147D01*
X918732Y990225D01*
X918431Y990296D01*
X918129Y990360D01*
X917825Y990416D01*
X917519Y990465D01*
X917213Y990506D01*
X916905Y990540D01*
X916597Y990566D01*
X916288Y990585D01*
X915979Y990596D01*
X915670Y990600D01*
X1268730Y1043940D02*
X1268730Y911860D01*
X915670Y990600D02*
X915670Y1043940D01*
X1268730Y1043940D01*
X1268730Y911860D02*
X915670Y911860D01*
D17*
X913511Y915289D02*
X913511Y920628D01*
X913511Y917958D02*
X897495Y917958D01*
X897495Y915289D02*
X897495Y920628D01*
X897495Y934211D02*
X900165Y936881D01*
X897495Y934211D02*
X897495Y928873D01*
X900165Y926203D01*
X910842Y926203D01*
X913511Y928873D01*
X913511Y934211D01*
X910842Y936881D01*
X902834Y942575D02*
X897495Y947914D01*
X913511Y947914D01*
X913511Y953252D02*
X913511Y942575D01*
D11*
X915670Y736600D02*
X915670Y683260D01*
X915670Y736600D02*
X915979Y736604D01*
X916288Y736615D01*
X916597Y736634D01*
X916905Y736660D01*
X917213Y736694D01*
X917519Y736735D01*
X917825Y736784D01*
X918129Y736840D01*
X918431Y736904D01*
X918732Y736975D01*
X919032Y737053D01*
X919329Y737138D01*
X919624Y737231D01*
X919917Y737331D01*
X920207Y737438D01*
X920494Y737552D01*
X920779Y737673D01*
X921061Y737801D01*
X921339Y737935D01*
X921614Y738077D01*
X921886Y738225D01*
X922153Y738380D01*
X922417Y738541D01*
X922677Y738708D01*
X922933Y738882D01*
X923185Y739062D01*
X923432Y739248D01*
X923674Y739440D01*
X923912Y739638D01*
X924145Y739841D01*
X924373Y740051D01*
X924595Y740265D01*
X924813Y740485D01*
X925025Y740711D01*
X925231Y740941D01*
X925432Y741176D01*
X925627Y741416D01*
X925816Y741661D01*
X925999Y741910D01*
X926176Y742164D01*
X926346Y742422D01*
X926511Y742684D01*
X926669Y742950D01*
X926820Y743220D01*
X926965Y743493D01*
X927103Y743770D01*
X927234Y744050D01*
X927358Y744333D01*
X927476Y744619D01*
X927586Y744908D01*
X927690Y745199D01*
X927786Y745493D01*
X927875Y745789D01*
X927957Y746088D01*
X928032Y746388D01*
X928099Y746690D01*
X928159Y746993D01*
X928211Y747298D01*
X928256Y747604D01*
X928294Y747911D01*
X928324Y748219D01*
X928346Y748527D01*
X928362Y748836D01*
X928369Y749145D01*
X928369Y749455D01*
X928362Y749764D01*
X928346Y750073D01*
X928324Y750381D01*
X928294Y750689D01*
X928256Y750996D01*
X928211Y751302D01*
X928159Y751607D01*
X928099Y751910D01*
X928032Y752212D01*
X927957Y752512D01*
X927875Y752811D01*
X927786Y753107D01*
X927690Y753401D01*
X927586Y753692D01*
X927476Y753981D01*
X927358Y754267D01*
X927234Y754550D01*
X927103Y754830D01*
X926965Y755107D01*
X926820Y755380D01*
X926669Y755650D01*
X926511Y755916D01*
X926346Y756178D01*
X926176Y756436D01*
X925999Y756690D01*
X925816Y756939D01*
X925627Y757184D01*
X925432Y757424D01*
X925231Y757659D01*
X925025Y757889D01*
X924813Y758115D01*
X924595Y758335D01*
X924373Y758549D01*
X924145Y758759D01*
X923912Y758962D01*
X923674Y759160D01*
X923432Y759352D01*
X923185Y759538D01*
X922933Y759718D01*
X922677Y759892D01*
X922417Y760059D01*
X922153Y760220D01*
X921886Y760375D01*
X921614Y760523D01*
X921339Y760665D01*
X921061Y760799D01*
X920779Y760927D01*
X920494Y761048D01*
X920207Y761162D01*
X919917Y761269D01*
X919624Y761369D01*
X919329Y761462D01*
X919032Y761547D01*
X918732Y761625D01*
X918431Y761696D01*
X918129Y761760D01*
X917825Y761816D01*
X917519Y761865D01*
X917213Y761906D01*
X916905Y761940D01*
X916597Y761966D01*
X916288Y761985D01*
X915979Y761996D01*
X915670Y762000D01*
X1268730Y815340D02*
X1268730Y683260D01*
X915670Y762000D02*
X915670Y815340D01*
X1268730Y815340D01*
X1268730Y683260D02*
X915670Y683260D01*
D17*
X913511Y686689D02*
X913511Y692028D01*
X913511Y689358D02*
X897495Y689358D01*
X897495Y686689D02*
X897495Y692028D01*
X897495Y705611D02*
X900165Y708281D01*
X897495Y705611D02*
X897495Y700273D01*
X900165Y697603D01*
X910842Y697603D01*
X913511Y700273D01*
X913511Y705611D01*
X910842Y708281D01*
X913511Y713975D02*
X913511Y724652D01*
X913511Y713975D02*
X902834Y724652D01*
X900165Y724652D01*
X897495Y721983D01*
X897495Y716644D01*
X900165Y713975D01*
D11*
X965200Y346710D02*
X965200Y289560D01*
X965200Y269240D02*
X965200Y212090D01*
X965200Y269240D02*
X965447Y269243D01*
X965695Y269252D01*
X965942Y269267D01*
X966188Y269288D01*
X966434Y269315D01*
X966679Y269348D01*
X966924Y269387D01*
X967167Y269432D01*
X967409Y269483D01*
X967650Y269540D01*
X967889Y269602D01*
X968127Y269671D01*
X968363Y269745D01*
X968597Y269825D01*
X968829Y269910D01*
X969059Y270002D01*
X969287Y270098D01*
X969512Y270201D01*
X969735Y270308D01*
X969955Y270422D01*
X970172Y270540D01*
X970387Y270664D01*
X970598Y270793D01*
X970806Y270927D01*
X971011Y271066D01*
X971212Y271210D01*
X971410Y271358D01*
X971604Y271512D01*
X971794Y271670D01*
X971980Y271833D01*
X972162Y272000D01*
X972340Y272172D01*
X972514Y272348D01*
X972684Y272528D01*
X972849Y272713D01*
X973009Y272901D01*
X973165Y273093D01*
X973317Y273289D01*
X973463Y273488D01*
X973605Y273691D01*
X973741Y273898D01*
X973873Y274107D01*
X973999Y274320D01*
X974120Y274536D01*
X974236Y274754D01*
X974346Y274976D01*
X974451Y275200D01*
X974551Y275426D01*
X974645Y275655D01*
X974733Y275886D01*
X974816Y276120D01*
X974893Y276355D01*
X974964Y276592D01*
X975030Y276830D01*
X975089Y277070D01*
X975143Y277312D01*
X975191Y277555D01*
X975233Y277798D01*
X975269Y278043D01*
X975299Y278289D01*
X975323Y278535D01*
X975341Y278782D01*
X975353Y279029D01*
X975359Y279276D01*
X975359Y279524D01*
X975353Y279771D01*
X975341Y280018D01*
X975323Y280265D01*
X975299Y280511D01*
X975269Y280757D01*
X975233Y281002D01*
X975191Y281245D01*
X975143Y281488D01*
X975089Y281730D01*
X975030Y281970D01*
X974964Y282208D01*
X974893Y282445D01*
X974816Y282680D01*
X974733Y282914D01*
X974645Y283145D01*
X974551Y283374D01*
X974451Y283600D01*
X974346Y283824D01*
X974236Y284046D01*
X974120Y284264D01*
X973999Y284480D01*
X973873Y284693D01*
X973741Y284902D01*
X973605Y285109D01*
X973463Y285312D01*
X973317Y285511D01*
X973165Y285707D01*
X973009Y285899D01*
X972849Y286087D01*
X972684Y286272D01*
X972514Y286452D01*
X972340Y286628D01*
X972162Y286800D01*
X971980Y286967D01*
X971794Y287130D01*
X971604Y287288D01*
X971410Y287442D01*
X971212Y287590D01*
X971011Y287734D01*
X970806Y287873D01*
X970598Y288007D01*
X970387Y288136D01*
X970172Y288260D01*
X969955Y288378D01*
X969735Y288492D01*
X969512Y288599D01*
X969287Y288702D01*
X969059Y288798D01*
X968829Y288890D01*
X968597Y288975D01*
X968363Y289055D01*
X968127Y289129D01*
X967889Y289198D01*
X967650Y289260D01*
X967409Y289317D01*
X967167Y289368D01*
X966924Y289413D01*
X966679Y289452D01*
X966434Y289485D01*
X966188Y289512D01*
X965942Y289533D01*
X965695Y289548D01*
X965447Y289557D01*
X965200Y289560D01*
X965200Y212090D02*
X1270000Y212090D01*
X1270000Y346710D01*
X965200Y346710D01*
D17*
X961771Y218318D02*
X961771Y212979D01*
X961771Y215648D02*
X945755Y215648D01*
X945755Y212979D02*
X945755Y218318D01*
X945755Y231901D02*
X948425Y234571D01*
X945755Y231901D02*
X945755Y226563D01*
X948425Y223893D01*
X959102Y223893D01*
X961771Y226563D01*
X961771Y231901D01*
X959102Y234571D01*
X948425Y240265D02*
X945755Y242934D01*
X945755Y248273D01*
X948425Y250942D01*
X951094Y250942D01*
X953763Y248273D01*
X953763Y245604D01*
X953763Y248273D02*
X956432Y250942D01*
X959102Y250942D01*
X961771Y248273D01*
X961771Y242934D01*
X959102Y240265D01*
D11*
X965200Y88900D02*
X965200Y63500D01*
X1193800Y63500D02*
X1193800Y88900D01*
X1187450Y82550D01*
X1187450Y69850D02*
X1193800Y63500D01*
X1174750Y69850D02*
X1168400Y63500D01*
X965200Y63500D01*
X1168400Y88900D02*
X1174750Y82550D01*
X1168400Y88900D02*
X1193800Y88900D01*
X1168400Y88900D02*
X1168400Y63500D01*
X1193800Y63500D01*
X1168400Y88900D02*
X965200Y88900D01*
D15*
X1133953Y56525D02*
X1133953Y45085D01*
X1133953Y56525D02*
X1139673Y56525D01*
X1141580Y54618D01*
X1141580Y50805D01*
X1139673Y48898D01*
X1133953Y48898D01*
X1137766Y48898D02*
X1141580Y45085D01*
X1145647Y45085D02*
X1145647Y56525D01*
X1153274Y45085D01*
X1153274Y56525D01*
X1157341Y52712D02*
X1161154Y56525D01*
X1161154Y45085D01*
X1157341Y45085D02*
X1164967Y45085D01*
D11*
X1193800Y520700D02*
X1193800Y546100D01*
X965200Y546100D02*
X965200Y520700D01*
X971550Y527050D01*
X971550Y539750D02*
X965200Y546100D01*
X984250Y539750D02*
X990600Y546100D01*
X1193800Y546100D01*
X990600Y520700D02*
X984250Y527050D01*
X990600Y520700D02*
X965200Y520700D01*
X990600Y520700D02*
X990600Y546100D01*
X965200Y546100D01*
X990600Y520700D02*
X1193800Y520700D01*
D15*
X991235Y553085D02*
X991235Y564525D01*
X996955Y564525D01*
X998862Y562618D01*
X998862Y558805D01*
X996955Y556898D01*
X991235Y556898D01*
X995048Y556898D02*
X998862Y553085D01*
X1002929Y553085D02*
X1002929Y564525D01*
X1010555Y553085D01*
X1010555Y564525D01*
X1014623Y553085D02*
X1022249Y553085D01*
X1014623Y553085D02*
X1022249Y560712D01*
X1022249Y562618D01*
X1020343Y564525D01*
X1016530Y564525D01*
X1014623Y562618D01*
D11*
X419100Y880110D02*
X241300Y880110D01*
X241300Y821690D02*
X419100Y821690D01*
X419100Y880110D01*
X241300Y880110D02*
X241300Y861060D01*
X241300Y840740D02*
X241300Y821690D01*
X241300Y840740D02*
X241547Y840743D01*
X241795Y840752D01*
X242042Y840767D01*
X242288Y840788D01*
X242534Y840815D01*
X242779Y840848D01*
X243024Y840887D01*
X243267Y840932D01*
X243509Y840983D01*
X243750Y841040D01*
X243989Y841102D01*
X244227Y841171D01*
X244463Y841245D01*
X244697Y841325D01*
X244929Y841410D01*
X245159Y841502D01*
X245387Y841598D01*
X245612Y841701D01*
X245835Y841808D01*
X246055Y841922D01*
X246272Y842040D01*
X246487Y842164D01*
X246698Y842293D01*
X246906Y842427D01*
X247111Y842566D01*
X247312Y842710D01*
X247510Y842858D01*
X247704Y843012D01*
X247894Y843170D01*
X248080Y843333D01*
X248262Y843500D01*
X248440Y843672D01*
X248614Y843848D01*
X248784Y844028D01*
X248949Y844213D01*
X249109Y844401D01*
X249265Y844593D01*
X249417Y844789D01*
X249563Y844988D01*
X249705Y845191D01*
X249841Y845398D01*
X249973Y845607D01*
X250099Y845820D01*
X250220Y846036D01*
X250336Y846254D01*
X250446Y846476D01*
X250551Y846700D01*
X250651Y846926D01*
X250745Y847155D01*
X250833Y847386D01*
X250916Y847620D01*
X250993Y847855D01*
X251064Y848092D01*
X251130Y848330D01*
X251189Y848570D01*
X251243Y848812D01*
X251291Y849055D01*
X251333Y849298D01*
X251369Y849543D01*
X251399Y849789D01*
X251423Y850035D01*
X251441Y850282D01*
X251453Y850529D01*
X251459Y850776D01*
X251459Y851024D01*
X251453Y851271D01*
X251441Y851518D01*
X251423Y851765D01*
X251399Y852011D01*
X251369Y852257D01*
X251333Y852502D01*
X251291Y852745D01*
X251243Y852988D01*
X251189Y853230D01*
X251130Y853470D01*
X251064Y853708D01*
X250993Y853945D01*
X250916Y854180D01*
X250833Y854414D01*
X250745Y854645D01*
X250651Y854874D01*
X250551Y855100D01*
X250446Y855324D01*
X250336Y855546D01*
X250220Y855764D01*
X250099Y855980D01*
X249973Y856193D01*
X249841Y856402D01*
X249705Y856609D01*
X249563Y856812D01*
X249417Y857011D01*
X249265Y857207D01*
X249109Y857399D01*
X248949Y857587D01*
X248784Y857772D01*
X248614Y857952D01*
X248440Y858128D01*
X248262Y858300D01*
X248080Y858467D01*
X247894Y858630D01*
X247704Y858788D01*
X247510Y858942D01*
X247312Y859090D01*
X247111Y859234D01*
X246906Y859373D01*
X246698Y859507D01*
X246487Y859636D01*
X246272Y859760D01*
X246055Y859878D01*
X245835Y859992D01*
X245612Y860099D01*
X245387Y860202D01*
X245159Y860298D01*
X244929Y860390D01*
X244697Y860475D01*
X244463Y860555D01*
X244227Y860629D01*
X243989Y860698D01*
X243750Y860760D01*
X243509Y860817D01*
X243267Y860868D01*
X243024Y860913D01*
X242779Y860952D01*
X242534Y860985D01*
X242288Y861012D01*
X242042Y861033D01*
X241795Y861048D01*
X241547Y861057D01*
X241300Y861060D01*
D15*
X236855Y824868D02*
X236855Y821055D01*
X236855Y822962D02*
X225415Y822962D01*
X225415Y824868D02*
X225415Y821055D01*
X225415Y834571D02*
X227322Y836477D01*
X225415Y834571D02*
X225415Y830758D01*
X227322Y828851D01*
X234948Y828851D01*
X236855Y830758D01*
X236855Y834571D01*
X234948Y836477D01*
X227322Y844358D02*
X225415Y848171D01*
X227322Y844358D02*
X231135Y840545D01*
X234948Y840545D01*
X236855Y842452D01*
X236855Y846265D01*
X234948Y848171D01*
X233042Y848171D01*
X231135Y846265D01*
X231135Y840545D01*
D11*
X558800Y1045210D02*
X762000Y1045210D01*
X762000Y986790D02*
X558800Y986790D01*
X762000Y986790D02*
X762000Y1045210D01*
X558800Y1045210D02*
X558800Y1026160D01*
X558800Y1005840D02*
X558800Y986790D01*
X558800Y1005840D02*
X559047Y1005843D01*
X559295Y1005852D01*
X559542Y1005867D01*
X559788Y1005888D01*
X560034Y1005915D01*
X560279Y1005948D01*
X560524Y1005987D01*
X560767Y1006032D01*
X561009Y1006083D01*
X561250Y1006140D01*
X561489Y1006202D01*
X561727Y1006271D01*
X561963Y1006345D01*
X562197Y1006425D01*
X562429Y1006510D01*
X562659Y1006602D01*
X562887Y1006698D01*
X563112Y1006801D01*
X563335Y1006908D01*
X563555Y1007022D01*
X563772Y1007140D01*
X563987Y1007264D01*
X564198Y1007393D01*
X564406Y1007527D01*
X564611Y1007666D01*
X564812Y1007810D01*
X565010Y1007958D01*
X565204Y1008112D01*
X565394Y1008270D01*
X565580Y1008433D01*
X565762Y1008600D01*
X565940Y1008772D01*
X566114Y1008948D01*
X566284Y1009128D01*
X566449Y1009313D01*
X566609Y1009501D01*
X566765Y1009693D01*
X566917Y1009889D01*
X567063Y1010088D01*
X567205Y1010291D01*
X567341Y1010498D01*
X567473Y1010707D01*
X567599Y1010920D01*
X567720Y1011136D01*
X567836Y1011354D01*
X567946Y1011576D01*
X568051Y1011800D01*
X568151Y1012026D01*
X568245Y1012255D01*
X568333Y1012486D01*
X568416Y1012720D01*
X568493Y1012955D01*
X568564Y1013192D01*
X568630Y1013430D01*
X568689Y1013670D01*
X568743Y1013912D01*
X568791Y1014155D01*
X568833Y1014398D01*
X568869Y1014643D01*
X568899Y1014889D01*
X568923Y1015135D01*
X568941Y1015382D01*
X568953Y1015629D01*
X568959Y1015876D01*
X568959Y1016124D01*
X568953Y1016371D01*
X568941Y1016618D01*
X568923Y1016865D01*
X568899Y1017111D01*
X568869Y1017357D01*
X568833Y1017602D01*
X568791Y1017845D01*
X568743Y1018088D01*
X568689Y1018330D01*
X568630Y1018570D01*
X568564Y1018808D01*
X568493Y1019045D01*
X568416Y1019280D01*
X568333Y1019514D01*
X568245Y1019745D01*
X568151Y1019974D01*
X568051Y1020200D01*
X567946Y1020424D01*
X567836Y1020646D01*
X567720Y1020864D01*
X567599Y1021080D01*
X567473Y1021293D01*
X567341Y1021502D01*
X567205Y1021709D01*
X567063Y1021912D01*
X566917Y1022111D01*
X566765Y1022307D01*
X566609Y1022499D01*
X566449Y1022687D01*
X566284Y1022872D01*
X566114Y1023052D01*
X565940Y1023228D01*
X565762Y1023400D01*
X565580Y1023567D01*
X565394Y1023730D01*
X565204Y1023888D01*
X565010Y1024042D01*
X564812Y1024190D01*
X564611Y1024334D01*
X564406Y1024473D01*
X564198Y1024607D01*
X563987Y1024736D01*
X563772Y1024860D01*
X563555Y1024978D01*
X563335Y1025092D01*
X563112Y1025199D01*
X562887Y1025302D01*
X562659Y1025398D01*
X562429Y1025490D01*
X562197Y1025575D01*
X561963Y1025655D01*
X561727Y1025729D01*
X561489Y1025798D01*
X561250Y1025860D01*
X561009Y1025917D01*
X560767Y1025968D01*
X560524Y1026013D01*
X560279Y1026052D01*
X560034Y1026085D01*
X559788Y1026112D01*
X559542Y1026133D01*
X559295Y1026148D01*
X559047Y1026157D01*
X558800Y1026160D01*
D15*
X554355Y991238D02*
X554355Y987425D01*
X554355Y989332D02*
X542915Y989332D01*
X542915Y991238D02*
X542915Y987425D01*
X542915Y1000941D02*
X544822Y1002847D01*
X542915Y1000941D02*
X542915Y997128D01*
X544822Y995221D01*
X552448Y995221D01*
X554355Y997128D01*
X554355Y1000941D01*
X552448Y1002847D01*
X542915Y1006915D02*
X542915Y1014541D01*
X544822Y1014541D01*
X552448Y1006915D01*
X554355Y1006915D01*
D11*
X508000Y410210D02*
X762000Y410210D01*
X762000Y351790D02*
X508000Y351790D01*
X762000Y351790D02*
X762000Y410210D01*
X508000Y410210D02*
X508000Y391160D01*
X508000Y370840D02*
X508000Y351790D01*
X508000Y370840D02*
X508247Y370843D01*
X508495Y370852D01*
X508742Y370867D01*
X508988Y370888D01*
X509234Y370915D01*
X509479Y370948D01*
X509724Y370987D01*
X509967Y371032D01*
X510209Y371083D01*
X510450Y371140D01*
X510689Y371202D01*
X510927Y371271D01*
X511163Y371345D01*
X511397Y371425D01*
X511629Y371510D01*
X511859Y371602D01*
X512087Y371698D01*
X512312Y371801D01*
X512535Y371908D01*
X512755Y372022D01*
X512972Y372140D01*
X513187Y372264D01*
X513398Y372393D01*
X513606Y372527D01*
X513811Y372666D01*
X514012Y372810D01*
X514210Y372958D01*
X514404Y373112D01*
X514594Y373270D01*
X514780Y373433D01*
X514962Y373600D01*
X515140Y373772D01*
X515314Y373948D01*
X515484Y374128D01*
X515649Y374313D01*
X515809Y374501D01*
X515965Y374693D01*
X516117Y374889D01*
X516263Y375088D01*
X516405Y375291D01*
X516541Y375498D01*
X516673Y375707D01*
X516799Y375920D01*
X516920Y376136D01*
X517036Y376354D01*
X517146Y376576D01*
X517251Y376800D01*
X517351Y377026D01*
X517445Y377255D01*
X517533Y377486D01*
X517616Y377720D01*
X517693Y377955D01*
X517764Y378192D01*
X517830Y378430D01*
X517889Y378670D01*
X517943Y378912D01*
X517991Y379155D01*
X518033Y379398D01*
X518069Y379643D01*
X518099Y379889D01*
X518123Y380135D01*
X518141Y380382D01*
X518153Y380629D01*
X518159Y380876D01*
X518159Y381124D01*
X518153Y381371D01*
X518141Y381618D01*
X518123Y381865D01*
X518099Y382111D01*
X518069Y382357D01*
X518033Y382602D01*
X517991Y382845D01*
X517943Y383088D01*
X517889Y383330D01*
X517830Y383570D01*
X517764Y383808D01*
X517693Y384045D01*
X517616Y384280D01*
X517533Y384514D01*
X517445Y384745D01*
X517351Y384974D01*
X517251Y385200D01*
X517146Y385424D01*
X517036Y385646D01*
X516920Y385864D01*
X516799Y386080D01*
X516673Y386293D01*
X516541Y386502D01*
X516405Y386709D01*
X516263Y386912D01*
X516117Y387111D01*
X515965Y387307D01*
X515809Y387499D01*
X515649Y387687D01*
X515484Y387872D01*
X515314Y388052D01*
X515140Y388228D01*
X514962Y388400D01*
X514780Y388567D01*
X514594Y388730D01*
X514404Y388888D01*
X514210Y389042D01*
X514012Y389190D01*
X513811Y389334D01*
X513606Y389473D01*
X513398Y389607D01*
X513187Y389736D01*
X512972Y389860D01*
X512755Y389978D01*
X512535Y390092D01*
X512312Y390199D01*
X512087Y390302D01*
X511859Y390398D01*
X511629Y390490D01*
X511397Y390575D01*
X511163Y390655D01*
X510927Y390729D01*
X510689Y390798D01*
X510450Y390860D01*
X510209Y390917D01*
X509967Y390968D01*
X509724Y391013D01*
X509479Y391052D01*
X509234Y391085D01*
X508988Y391112D01*
X508742Y391133D01*
X508495Y391148D01*
X508247Y391157D01*
X508000Y391160D01*
D18*
X503682Y354926D02*
X503682Y351028D01*
X503682Y352977D02*
X491988Y352977D01*
X491988Y351028D02*
X491988Y354926D01*
X491988Y364671D02*
X493937Y366620D01*
X491988Y364671D02*
X491988Y360773D01*
X493937Y358824D01*
X501733Y358824D01*
X503682Y360773D01*
X503682Y364671D01*
X501733Y366620D01*
X493937Y370518D02*
X491988Y372467D01*
X491988Y376365D01*
X493937Y378314D01*
X495886Y378314D01*
X497835Y376365D01*
X499784Y378314D01*
X501733Y378314D01*
X503682Y376365D01*
X503682Y372467D01*
X501733Y370518D01*
X499784Y370518D01*
X497835Y372467D01*
X495886Y370518D01*
X493937Y370518D01*
X497835Y372467D02*
X497835Y376365D01*
D11*
X508000Y245110D02*
X762000Y245110D01*
X762000Y186690D02*
X508000Y186690D01*
X762000Y186690D02*
X762000Y245110D01*
X508000Y245110D02*
X508000Y226060D01*
X508000Y205740D02*
X508000Y186690D01*
X508000Y205740D02*
X508247Y205743D01*
X508495Y205752D01*
X508742Y205767D01*
X508988Y205788D01*
X509234Y205815D01*
X509479Y205848D01*
X509724Y205887D01*
X509967Y205932D01*
X510209Y205983D01*
X510450Y206040D01*
X510689Y206102D01*
X510927Y206171D01*
X511163Y206245D01*
X511397Y206325D01*
X511629Y206410D01*
X511859Y206502D01*
X512087Y206598D01*
X512312Y206701D01*
X512535Y206808D01*
X512755Y206922D01*
X512972Y207040D01*
X513187Y207164D01*
X513398Y207293D01*
X513606Y207427D01*
X513811Y207566D01*
X514012Y207710D01*
X514210Y207858D01*
X514404Y208012D01*
X514594Y208170D01*
X514780Y208333D01*
X514962Y208500D01*
X515140Y208672D01*
X515314Y208848D01*
X515484Y209028D01*
X515649Y209213D01*
X515809Y209401D01*
X515965Y209593D01*
X516117Y209789D01*
X516263Y209988D01*
X516405Y210191D01*
X516541Y210398D01*
X516673Y210607D01*
X516799Y210820D01*
X516920Y211036D01*
X517036Y211254D01*
X517146Y211476D01*
X517251Y211700D01*
X517351Y211926D01*
X517445Y212155D01*
X517533Y212386D01*
X517616Y212620D01*
X517693Y212855D01*
X517764Y213092D01*
X517830Y213330D01*
X517889Y213570D01*
X517943Y213812D01*
X517991Y214055D01*
X518033Y214298D01*
X518069Y214543D01*
X518099Y214789D01*
X518123Y215035D01*
X518141Y215282D01*
X518153Y215529D01*
X518159Y215776D01*
X518159Y216024D01*
X518153Y216271D01*
X518141Y216518D01*
X518123Y216765D01*
X518099Y217011D01*
X518069Y217257D01*
X518033Y217502D01*
X517991Y217745D01*
X517943Y217988D01*
X517889Y218230D01*
X517830Y218470D01*
X517764Y218708D01*
X517693Y218945D01*
X517616Y219180D01*
X517533Y219414D01*
X517445Y219645D01*
X517351Y219874D01*
X517251Y220100D01*
X517146Y220324D01*
X517036Y220546D01*
X516920Y220764D01*
X516799Y220980D01*
X516673Y221193D01*
X516541Y221402D01*
X516405Y221609D01*
X516263Y221812D01*
X516117Y222011D01*
X515965Y222207D01*
X515809Y222399D01*
X515649Y222587D01*
X515484Y222772D01*
X515314Y222952D01*
X515140Y223128D01*
X514962Y223300D01*
X514780Y223467D01*
X514594Y223630D01*
X514404Y223788D01*
X514210Y223942D01*
X514012Y224090D01*
X513811Y224234D01*
X513606Y224373D01*
X513398Y224507D01*
X513187Y224636D01*
X512972Y224760D01*
X512755Y224878D01*
X512535Y224992D01*
X512312Y225099D01*
X512087Y225202D01*
X511859Y225298D01*
X511629Y225390D01*
X511397Y225475D01*
X511163Y225555D01*
X510927Y225629D01*
X510689Y225698D01*
X510450Y225760D01*
X510209Y225817D01*
X509967Y225868D01*
X509724Y225913D01*
X509479Y225952D01*
X509234Y225985D01*
X508988Y226012D01*
X508742Y226033D01*
X508495Y226048D01*
X508247Y226057D01*
X508000Y226060D01*
D18*
X503682Y189826D02*
X503682Y185928D01*
X503682Y187877D02*
X491988Y187877D01*
X491988Y185928D02*
X491988Y189826D01*
X491988Y199571D02*
X493937Y201520D01*
X491988Y199571D02*
X491988Y195673D01*
X493937Y193724D01*
X501733Y193724D01*
X503682Y195673D01*
X503682Y199571D01*
X501733Y201520D01*
X501733Y205418D02*
X503682Y207367D01*
X503682Y211265D01*
X501733Y213214D01*
X493937Y213214D01*
X491988Y211265D01*
X491988Y207367D01*
X493937Y205418D01*
X495886Y205418D01*
X497835Y207367D01*
X497835Y213214D01*
D11*
X584200Y905510D02*
X762000Y905510D01*
X762000Y847090D02*
X584200Y847090D01*
X762000Y847090D02*
X762000Y905510D01*
X584200Y905510D02*
X584200Y886460D01*
X584200Y866140D02*
X584200Y847090D01*
X584200Y866140D02*
X584447Y866143D01*
X584695Y866152D01*
X584942Y866167D01*
X585188Y866188D01*
X585434Y866215D01*
X585679Y866248D01*
X585924Y866287D01*
X586167Y866332D01*
X586409Y866383D01*
X586650Y866440D01*
X586889Y866502D01*
X587127Y866571D01*
X587363Y866645D01*
X587597Y866725D01*
X587829Y866810D01*
X588059Y866902D01*
X588287Y866998D01*
X588512Y867101D01*
X588735Y867208D01*
X588955Y867322D01*
X589172Y867440D01*
X589387Y867564D01*
X589598Y867693D01*
X589806Y867827D01*
X590011Y867966D01*
X590212Y868110D01*
X590410Y868258D01*
X590604Y868412D01*
X590794Y868570D01*
X590980Y868733D01*
X591162Y868900D01*
X591340Y869072D01*
X591514Y869248D01*
X591684Y869428D01*
X591849Y869613D01*
X592009Y869801D01*
X592165Y869993D01*
X592317Y870189D01*
X592463Y870388D01*
X592605Y870591D01*
X592741Y870798D01*
X592873Y871007D01*
X592999Y871220D01*
X593120Y871436D01*
X593236Y871654D01*
X593346Y871876D01*
X593451Y872100D01*
X593551Y872326D01*
X593645Y872555D01*
X593733Y872786D01*
X593816Y873020D01*
X593893Y873255D01*
X593964Y873492D01*
X594030Y873730D01*
X594089Y873970D01*
X594143Y874212D01*
X594191Y874455D01*
X594233Y874698D01*
X594269Y874943D01*
X594299Y875189D01*
X594323Y875435D01*
X594341Y875682D01*
X594353Y875929D01*
X594359Y876176D01*
X594359Y876424D01*
X594353Y876671D01*
X594341Y876918D01*
X594323Y877165D01*
X594299Y877411D01*
X594269Y877657D01*
X594233Y877902D01*
X594191Y878145D01*
X594143Y878388D01*
X594089Y878630D01*
X594030Y878870D01*
X593964Y879108D01*
X593893Y879345D01*
X593816Y879580D01*
X593733Y879814D01*
X593645Y880045D01*
X593551Y880274D01*
X593451Y880500D01*
X593346Y880724D01*
X593236Y880946D01*
X593120Y881164D01*
X592999Y881380D01*
X592873Y881593D01*
X592741Y881802D01*
X592605Y882009D01*
X592463Y882212D01*
X592317Y882411D01*
X592165Y882607D01*
X592009Y882799D01*
X591849Y882987D01*
X591684Y883172D01*
X591514Y883352D01*
X591340Y883528D01*
X591162Y883700D01*
X590980Y883867D01*
X590794Y884030D01*
X590604Y884188D01*
X590410Y884342D01*
X590212Y884490D01*
X590011Y884634D01*
X589806Y884773D01*
X589598Y884907D01*
X589387Y885036D01*
X589172Y885160D01*
X588955Y885278D01*
X588735Y885392D01*
X588512Y885499D01*
X588287Y885602D01*
X588059Y885698D01*
X587829Y885790D01*
X587597Y885875D01*
X587363Y885955D01*
X587127Y886029D01*
X586889Y886098D01*
X586650Y886160D01*
X586409Y886217D01*
X586167Y886268D01*
X585924Y886313D01*
X585679Y886352D01*
X585434Y886385D01*
X585188Y886412D01*
X584942Y886433D01*
X584695Y886448D01*
X584447Y886457D01*
X584200Y886460D01*
D15*
X579755Y850268D02*
X579755Y846455D01*
X579755Y848362D02*
X568315Y848362D01*
X568315Y850268D02*
X568315Y846455D01*
X568315Y859971D02*
X570222Y861877D01*
X568315Y859971D02*
X568315Y856158D01*
X570222Y854251D01*
X577848Y854251D01*
X579755Y856158D01*
X579755Y859971D01*
X577848Y861877D01*
X579755Y871665D02*
X568315Y871665D01*
X574035Y865945D01*
X574035Y873571D01*
D11*
X508000Y664210D02*
X762000Y664210D01*
X762000Y605790D02*
X508000Y605790D01*
X762000Y605790D02*
X762000Y664210D01*
X508000Y664210D02*
X508000Y645160D01*
X508000Y624840D02*
X508000Y605790D01*
X508000Y624840D02*
X508247Y624843D01*
X508495Y624852D01*
X508742Y624867D01*
X508988Y624888D01*
X509234Y624915D01*
X509479Y624948D01*
X509724Y624987D01*
X509967Y625032D01*
X510209Y625083D01*
X510450Y625140D01*
X510689Y625202D01*
X510927Y625271D01*
X511163Y625345D01*
X511397Y625425D01*
X511629Y625510D01*
X511859Y625602D01*
X512087Y625698D01*
X512312Y625801D01*
X512535Y625908D01*
X512755Y626022D01*
X512972Y626140D01*
X513187Y626264D01*
X513398Y626393D01*
X513606Y626527D01*
X513811Y626666D01*
X514012Y626810D01*
X514210Y626958D01*
X514404Y627112D01*
X514594Y627270D01*
X514780Y627433D01*
X514962Y627600D01*
X515140Y627772D01*
X515314Y627948D01*
X515484Y628128D01*
X515649Y628313D01*
X515809Y628501D01*
X515965Y628693D01*
X516117Y628889D01*
X516263Y629088D01*
X516405Y629291D01*
X516541Y629498D01*
X516673Y629707D01*
X516799Y629920D01*
X516920Y630136D01*
X517036Y630354D01*
X517146Y630576D01*
X517251Y630800D01*
X517351Y631026D01*
X517445Y631255D01*
X517533Y631486D01*
X517616Y631720D01*
X517693Y631955D01*
X517764Y632192D01*
X517830Y632430D01*
X517889Y632670D01*
X517943Y632912D01*
X517991Y633155D01*
X518033Y633398D01*
X518069Y633643D01*
X518099Y633889D01*
X518123Y634135D01*
X518141Y634382D01*
X518153Y634629D01*
X518159Y634876D01*
X518159Y635124D01*
X518153Y635371D01*
X518141Y635618D01*
X518123Y635865D01*
X518099Y636111D01*
X518069Y636357D01*
X518033Y636602D01*
X517991Y636845D01*
X517943Y637088D01*
X517889Y637330D01*
X517830Y637570D01*
X517764Y637808D01*
X517693Y638045D01*
X517616Y638280D01*
X517533Y638514D01*
X517445Y638745D01*
X517351Y638974D01*
X517251Y639200D01*
X517146Y639424D01*
X517036Y639646D01*
X516920Y639864D01*
X516799Y640080D01*
X516673Y640293D01*
X516541Y640502D01*
X516405Y640709D01*
X516263Y640912D01*
X516117Y641111D01*
X515965Y641307D01*
X515809Y641499D01*
X515649Y641687D01*
X515484Y641872D01*
X515314Y642052D01*
X515140Y642228D01*
X514962Y642400D01*
X514780Y642567D01*
X514594Y642730D01*
X514404Y642888D01*
X514210Y643042D01*
X514012Y643190D01*
X513811Y643334D01*
X513606Y643473D01*
X513398Y643607D01*
X513187Y643736D01*
X512972Y643860D01*
X512755Y643978D01*
X512535Y644092D01*
X512312Y644199D01*
X512087Y644302D01*
X511859Y644398D01*
X511629Y644490D01*
X511397Y644575D01*
X511163Y644655D01*
X510927Y644729D01*
X510689Y644798D01*
X510450Y644860D01*
X510209Y644917D01*
X509967Y644968D01*
X509724Y645013D01*
X509479Y645052D01*
X509234Y645085D01*
X508988Y645112D01*
X508742Y645133D01*
X508495Y645148D01*
X508247Y645157D01*
X508000Y645160D01*
D18*
X503682Y608926D02*
X503682Y605028D01*
X503682Y606977D02*
X491988Y606977D01*
X491988Y605028D02*
X491988Y608926D01*
X491988Y618671D02*
X493937Y620620D01*
X491988Y618671D02*
X491988Y614773D01*
X493937Y612824D01*
X501733Y612824D01*
X503682Y614773D01*
X503682Y618671D01*
X501733Y620620D01*
X491988Y624518D02*
X491988Y632314D01*
X491988Y624518D02*
X497835Y624518D01*
X495886Y628416D01*
X495886Y630365D01*
X497835Y632314D01*
X501733Y632314D01*
X503682Y630365D01*
X503682Y626467D01*
X501733Y624518D01*
D11*
X762000Y520700D02*
X762000Y495300D01*
X533400Y495300D02*
X533400Y520700D01*
X539750Y501650D02*
X533400Y495300D01*
X539750Y514350D02*
X533400Y520700D01*
X552450Y514350D02*
X558800Y520700D01*
X762000Y520700D01*
X558800Y495300D02*
X552450Y501650D01*
X558800Y495300D02*
X533400Y495300D01*
X558800Y495300D02*
X558800Y520700D01*
X533400Y520700D01*
X558800Y495300D02*
X762000Y495300D01*
D15*
X559435Y527685D02*
X559435Y539125D01*
X565155Y539125D01*
X567062Y537218D01*
X567062Y533405D01*
X565155Y531498D01*
X559435Y531498D01*
X563248Y531498D02*
X567062Y527685D01*
X571129Y527685D02*
X571129Y539125D01*
X578755Y527685D01*
X578755Y539125D01*
X582823Y537218D02*
X584730Y539125D01*
X588543Y539125D01*
X590449Y537218D01*
X590449Y535312D01*
X588543Y533405D01*
X586636Y533405D01*
X588543Y533405D02*
X590449Y531498D01*
X590449Y529592D01*
X588543Y527685D01*
X584730Y527685D01*
X582823Y529592D01*
D11*
X762000Y762000D02*
X762000Y787400D01*
X533400Y787400D02*
X533400Y762000D01*
X539750Y768350D01*
X539750Y781050D02*
X533400Y787400D01*
X552450Y781050D02*
X558800Y787400D01*
X762000Y787400D01*
X558800Y762000D02*
X552450Y768350D01*
X558800Y762000D02*
X533400Y762000D01*
X558800Y762000D02*
X558800Y787400D01*
X533400Y787400D01*
X558800Y762000D02*
X762000Y762000D01*
D15*
X559435Y794385D02*
X559435Y805825D01*
X565155Y805825D01*
X567062Y803918D01*
X567062Y800105D01*
X565155Y798198D01*
X559435Y798198D01*
X563248Y798198D02*
X567062Y794385D01*
X571129Y794385D02*
X571129Y805825D01*
X578755Y794385D01*
X578755Y805825D01*
X588543Y805825D02*
X588543Y794385D01*
X582823Y800105D02*
X588543Y805825D01*
X590449Y800105D02*
X582823Y800105D01*
D11*
X419100Y1032510D02*
X241300Y1032510D01*
X241300Y974090D02*
X419100Y974090D01*
X419100Y1032510D01*
X241300Y1032510D02*
X241300Y1013460D01*
X241300Y993140D02*
X241300Y974090D01*
X241300Y993140D02*
X241547Y993143D01*
X241795Y993152D01*
X242042Y993167D01*
X242288Y993188D01*
X242534Y993215D01*
X242779Y993248D01*
X243024Y993287D01*
X243267Y993332D01*
X243509Y993383D01*
X243750Y993440D01*
X243989Y993502D01*
X244227Y993571D01*
X244463Y993645D01*
X244697Y993725D01*
X244929Y993810D01*
X245159Y993902D01*
X245387Y993998D01*
X245612Y994101D01*
X245835Y994208D01*
X246055Y994322D01*
X246272Y994440D01*
X246487Y994564D01*
X246698Y994693D01*
X246906Y994827D01*
X247111Y994966D01*
X247312Y995110D01*
X247510Y995258D01*
X247704Y995412D01*
X247894Y995570D01*
X248080Y995733D01*
X248262Y995900D01*
X248440Y996072D01*
X248614Y996248D01*
X248784Y996428D01*
X248949Y996613D01*
X249109Y996801D01*
X249265Y996993D01*
X249417Y997189D01*
X249563Y997388D01*
X249705Y997591D01*
X249841Y997798D01*
X249973Y998007D01*
X250099Y998220D01*
X250220Y998436D01*
X250336Y998654D01*
X250446Y998876D01*
X250551Y999100D01*
X250651Y999326D01*
X250745Y999555D01*
X250833Y999786D01*
X250916Y1000020D01*
X250993Y1000255D01*
X251064Y1000492D01*
X251130Y1000730D01*
X251189Y1000970D01*
X251243Y1001212D01*
X251291Y1001455D01*
X251333Y1001698D01*
X251369Y1001943D01*
X251399Y1002189D01*
X251423Y1002435D01*
X251441Y1002682D01*
X251453Y1002929D01*
X251459Y1003176D01*
X251459Y1003424D01*
X251453Y1003671D01*
X251441Y1003918D01*
X251423Y1004165D01*
X251399Y1004411D01*
X251369Y1004657D01*
X251333Y1004902D01*
X251291Y1005145D01*
X251243Y1005388D01*
X251189Y1005630D01*
X251130Y1005870D01*
X251064Y1006108D01*
X250993Y1006345D01*
X250916Y1006580D01*
X250833Y1006814D01*
X250745Y1007045D01*
X250651Y1007274D01*
X250551Y1007500D01*
X250446Y1007724D01*
X250336Y1007946D01*
X250220Y1008164D01*
X250099Y1008380D01*
X249973Y1008593D01*
X249841Y1008802D01*
X249705Y1009009D01*
X249563Y1009212D01*
X249417Y1009411D01*
X249265Y1009607D01*
X249109Y1009799D01*
X248949Y1009987D01*
X248784Y1010172D01*
X248614Y1010352D01*
X248440Y1010528D01*
X248262Y1010700D01*
X248080Y1010867D01*
X247894Y1011030D01*
X247704Y1011188D01*
X247510Y1011342D01*
X247312Y1011490D01*
X247111Y1011634D01*
X246906Y1011773D01*
X246698Y1011907D01*
X246487Y1012036D01*
X246272Y1012160D01*
X246055Y1012278D01*
X245835Y1012392D01*
X245612Y1012499D01*
X245387Y1012602D01*
X245159Y1012698D01*
X244929Y1012790D01*
X244697Y1012875D01*
X244463Y1012955D01*
X244227Y1013029D01*
X243989Y1013098D01*
X243750Y1013160D01*
X243509Y1013217D01*
X243267Y1013268D01*
X243024Y1013313D01*
X242779Y1013352D01*
X242534Y1013385D01*
X242288Y1013412D01*
X242042Y1013433D01*
X241795Y1013448D01*
X241547Y1013457D01*
X241300Y1013460D01*
D15*
X236855Y977268D02*
X236855Y973455D01*
X236855Y975362D02*
X225415Y975362D01*
X225415Y977268D02*
X225415Y973455D01*
X225415Y986971D02*
X227322Y988877D01*
X225415Y986971D02*
X225415Y983158D01*
X227322Y981251D01*
X234948Y981251D01*
X236855Y983158D01*
X236855Y986971D01*
X234948Y988877D01*
X229229Y992945D02*
X225415Y996758D01*
X236855Y996758D01*
X236855Y992945D02*
X236855Y1000571D01*
X234948Y1004639D02*
X227322Y1004639D01*
X225415Y1006546D01*
X225415Y1010359D01*
X227322Y1012265D01*
X234948Y1012265D01*
X236855Y1010359D01*
X236855Y1006546D01*
X234948Y1004639D01*
X227322Y1012265D01*
D11*
X215900Y740410D02*
X419100Y740410D01*
X419100Y681990D02*
X215900Y681990D01*
X419100Y681990D02*
X419100Y740410D01*
X215900Y740410D02*
X215900Y721360D01*
X215900Y701040D02*
X215900Y681990D01*
X215900Y701040D02*
X216147Y701043D01*
X216395Y701052D01*
X216642Y701067D01*
X216888Y701088D01*
X217134Y701115D01*
X217379Y701148D01*
X217624Y701187D01*
X217867Y701232D01*
X218109Y701283D01*
X218350Y701340D01*
X218589Y701402D01*
X218827Y701471D01*
X219063Y701545D01*
X219297Y701625D01*
X219529Y701710D01*
X219759Y701802D01*
X219987Y701898D01*
X220212Y702001D01*
X220435Y702108D01*
X220655Y702222D01*
X220872Y702340D01*
X221087Y702464D01*
X221298Y702593D01*
X221506Y702727D01*
X221711Y702866D01*
X221912Y703010D01*
X222110Y703158D01*
X222304Y703312D01*
X222494Y703470D01*
X222680Y703633D01*
X222862Y703800D01*
X223040Y703972D01*
X223214Y704148D01*
X223384Y704328D01*
X223549Y704513D01*
X223709Y704701D01*
X223865Y704893D01*
X224017Y705089D01*
X224163Y705288D01*
X224305Y705491D01*
X224441Y705698D01*
X224573Y705907D01*
X224699Y706120D01*
X224820Y706336D01*
X224936Y706554D01*
X225046Y706776D01*
X225151Y707000D01*
X225251Y707226D01*
X225345Y707455D01*
X225433Y707686D01*
X225516Y707920D01*
X225593Y708155D01*
X225664Y708392D01*
X225730Y708630D01*
X225789Y708870D01*
X225843Y709112D01*
X225891Y709355D01*
X225933Y709598D01*
X225969Y709843D01*
X225999Y710089D01*
X226023Y710335D01*
X226041Y710582D01*
X226053Y710829D01*
X226059Y711076D01*
X226059Y711324D01*
X226053Y711571D01*
X226041Y711818D01*
X226023Y712065D01*
X225999Y712311D01*
X225969Y712557D01*
X225933Y712802D01*
X225891Y713045D01*
X225843Y713288D01*
X225789Y713530D01*
X225730Y713770D01*
X225664Y714008D01*
X225593Y714245D01*
X225516Y714480D01*
X225433Y714714D01*
X225345Y714945D01*
X225251Y715174D01*
X225151Y715400D01*
X225046Y715624D01*
X224936Y715846D01*
X224820Y716064D01*
X224699Y716280D01*
X224573Y716493D01*
X224441Y716702D01*
X224305Y716909D01*
X224163Y717112D01*
X224017Y717311D01*
X223865Y717507D01*
X223709Y717699D01*
X223549Y717887D01*
X223384Y718072D01*
X223214Y718252D01*
X223040Y718428D01*
X222862Y718600D01*
X222680Y718767D01*
X222494Y718930D01*
X222304Y719088D01*
X222110Y719242D01*
X221912Y719390D01*
X221711Y719534D01*
X221506Y719673D01*
X221298Y719807D01*
X221087Y719936D01*
X220872Y720060D01*
X220655Y720178D01*
X220435Y720292D01*
X220212Y720399D01*
X219987Y720502D01*
X219759Y720598D01*
X219529Y720690D01*
X219297Y720775D01*
X219063Y720855D01*
X218827Y720929D01*
X218589Y720998D01*
X218350Y721060D01*
X218109Y721117D01*
X217867Y721168D01*
X217624Y721213D01*
X217379Y721252D01*
X217134Y721285D01*
X216888Y721312D01*
X216642Y721333D01*
X216395Y721348D01*
X216147Y721357D01*
X215900Y721360D01*
D15*
X211455Y686438D02*
X211455Y682625D01*
X211455Y684532D02*
X200015Y684532D01*
X200015Y686438D02*
X200015Y682625D01*
X200015Y696141D02*
X201922Y698047D01*
X200015Y696141D02*
X200015Y692328D01*
X201922Y690421D01*
X209548Y690421D01*
X211455Y692328D01*
X211455Y696141D01*
X209548Y698047D01*
X203829Y702115D02*
X200015Y705928D01*
X211455Y705928D01*
X211455Y702115D02*
X211455Y709741D01*
X203829Y713809D02*
X200015Y717622D01*
X211455Y717622D01*
X211455Y713809D02*
X211455Y721435D01*
D11*
X241300Y588010D02*
X419100Y588010D01*
X419100Y529590D02*
X241300Y529590D01*
X419100Y529590D02*
X419100Y588010D01*
X241300Y588010D02*
X241300Y568960D01*
X241300Y548640D02*
X241300Y529590D01*
X241300Y548640D02*
X241547Y548643D01*
X241795Y548652D01*
X242042Y548667D01*
X242288Y548688D01*
X242534Y548715D01*
X242779Y548748D01*
X243024Y548787D01*
X243267Y548832D01*
X243509Y548883D01*
X243750Y548940D01*
X243989Y549002D01*
X244227Y549071D01*
X244463Y549145D01*
X244697Y549225D01*
X244929Y549310D01*
X245159Y549402D01*
X245387Y549498D01*
X245612Y549601D01*
X245835Y549708D01*
X246055Y549822D01*
X246272Y549940D01*
X246487Y550064D01*
X246698Y550193D01*
X246906Y550327D01*
X247111Y550466D01*
X247312Y550610D01*
X247510Y550758D01*
X247704Y550912D01*
X247894Y551070D01*
X248080Y551233D01*
X248262Y551400D01*
X248440Y551572D01*
X248614Y551748D01*
X248784Y551928D01*
X248949Y552113D01*
X249109Y552301D01*
X249265Y552493D01*
X249417Y552689D01*
X249563Y552888D01*
X249705Y553091D01*
X249841Y553298D01*
X249973Y553507D01*
X250099Y553720D01*
X250220Y553936D01*
X250336Y554154D01*
X250446Y554376D01*
X250551Y554600D01*
X250651Y554826D01*
X250745Y555055D01*
X250833Y555286D01*
X250916Y555520D01*
X250993Y555755D01*
X251064Y555992D01*
X251130Y556230D01*
X251189Y556470D01*
X251243Y556712D01*
X251291Y556955D01*
X251333Y557198D01*
X251369Y557443D01*
X251399Y557689D01*
X251423Y557935D01*
X251441Y558182D01*
X251453Y558429D01*
X251459Y558676D01*
X251459Y558924D01*
X251453Y559171D01*
X251441Y559418D01*
X251423Y559665D01*
X251399Y559911D01*
X251369Y560157D01*
X251333Y560402D01*
X251291Y560645D01*
X251243Y560888D01*
X251189Y561130D01*
X251130Y561370D01*
X251064Y561608D01*
X250993Y561845D01*
X250916Y562080D01*
X250833Y562314D01*
X250745Y562545D01*
X250651Y562774D01*
X250551Y563000D01*
X250446Y563224D01*
X250336Y563446D01*
X250220Y563664D01*
X250099Y563880D01*
X249973Y564093D01*
X249841Y564302D01*
X249705Y564509D01*
X249563Y564712D01*
X249417Y564911D01*
X249265Y565107D01*
X249109Y565299D01*
X248949Y565487D01*
X248784Y565672D01*
X248614Y565852D01*
X248440Y566028D01*
X248262Y566200D01*
X248080Y566367D01*
X247894Y566530D01*
X247704Y566688D01*
X247510Y566842D01*
X247312Y566990D01*
X247111Y567134D01*
X246906Y567273D01*
X246698Y567407D01*
X246487Y567536D01*
X246272Y567660D01*
X246055Y567778D01*
X245835Y567892D01*
X245612Y567999D01*
X245387Y568102D01*
X245159Y568198D01*
X244929Y568290D01*
X244697Y568375D01*
X244463Y568455D01*
X244227Y568529D01*
X243989Y568598D01*
X243750Y568660D01*
X243509Y568717D01*
X243267Y568768D01*
X243024Y568813D01*
X242779Y568852D01*
X242534Y568885D01*
X242288Y568912D01*
X242042Y568933D01*
X241795Y568948D01*
X241547Y568957D01*
X241300Y568960D01*
D15*
X236855Y532768D02*
X236855Y528955D01*
X236855Y530862D02*
X225415Y530862D01*
X225415Y532768D02*
X225415Y528955D01*
X225415Y542471D02*
X227322Y544377D01*
X225415Y542471D02*
X225415Y538658D01*
X227322Y536751D01*
X234948Y536751D01*
X236855Y538658D01*
X236855Y542471D01*
X234948Y544377D01*
X229229Y548445D02*
X225415Y552258D01*
X236855Y552258D01*
X236855Y548445D02*
X236855Y556071D01*
X236855Y560139D02*
X236855Y567765D01*
X236855Y560139D02*
X229229Y567765D01*
X227322Y567765D01*
X225415Y565859D01*
X225415Y562046D01*
X227322Y560139D01*
M02*
