G04 EAGLE Gerber RS-274X export*
G75*
%MOMM*%
%FSLAX34Y34*%
%LPD*%
%INSoldermask Top*%
%IPPOS*%
%AMOC8*
5,1,8,0,0,1.08239X$1,22.5*%
G01*
%ADD10P,1.787026X8X202.500000*%
%ADD11C,2.921000*%
%ADD12P,1.457113X8X202.500000*%
%ADD13C,1.346200*%
%ADD14C,0.685800*%


D10*
X50800Y177800D03*
X50800Y203200D03*
X50800Y228600D03*
X50800Y254000D03*
X50800Y279400D03*
X50800Y304800D03*
X50800Y330200D03*
X50800Y355600D03*
X50800Y381000D03*
X50800Y406400D03*
X50800Y431800D03*
X50800Y457200D03*
X50800Y482600D03*
X50800Y508000D03*
X50800Y533400D03*
X50800Y558800D03*
X76200Y177800D03*
X76200Y203200D03*
X76200Y228600D03*
X76200Y254000D03*
X76200Y279400D03*
X76200Y304800D03*
X76200Y330200D03*
X76200Y355600D03*
X76200Y381000D03*
X76200Y406400D03*
X76200Y431800D03*
X76200Y457200D03*
X76200Y482600D03*
X76200Y508000D03*
X76200Y533400D03*
X76200Y558800D03*
X101600Y177800D03*
X101600Y203200D03*
X101600Y228600D03*
X101600Y254000D03*
X101600Y279400D03*
X101600Y304800D03*
X101600Y330200D03*
X101600Y355600D03*
X101600Y381000D03*
X101600Y406400D03*
X101600Y431800D03*
X101600Y457200D03*
X101600Y482600D03*
X101600Y508000D03*
X101600Y533400D03*
X101600Y558800D03*
X50800Y584200D03*
X50800Y609600D03*
X50800Y635000D03*
X50800Y660400D03*
X50800Y685800D03*
X50800Y711200D03*
X50800Y736600D03*
X50800Y762000D03*
X50800Y787400D03*
X50800Y812800D03*
X50800Y838200D03*
X50800Y863600D03*
X50800Y889000D03*
X50800Y914400D03*
X50800Y939800D03*
X50800Y965200D03*
X76200Y584200D03*
X76200Y609600D03*
X76200Y635000D03*
X76200Y660400D03*
X76200Y685800D03*
X76200Y711200D03*
X76200Y736600D03*
X76200Y762000D03*
X76200Y787400D03*
X76200Y812800D03*
X76200Y838200D03*
X76200Y863600D03*
X76200Y889000D03*
X76200Y914400D03*
X76200Y939800D03*
X76200Y965200D03*
X101600Y584200D03*
X101600Y609600D03*
X101600Y635000D03*
X101600Y660400D03*
X101600Y685800D03*
X101600Y711200D03*
X101600Y736600D03*
X101600Y762000D03*
X101600Y787400D03*
X101600Y812800D03*
X101600Y838200D03*
X101600Y863600D03*
X101600Y889000D03*
X101600Y914400D03*
X101600Y939800D03*
X101600Y965200D03*
D11*
X25400Y1016064D03*
X25400Y126936D03*
D12*
X1752600Y38100D03*
X1727200Y38100D03*
X1651000Y38100D03*
X1549400Y38100D03*
D13*
X927100Y895604D02*
X927100Y907796D01*
X952500Y907796D02*
X952500Y895604D01*
X977900Y895604D02*
X977900Y907796D01*
X1003300Y907796D02*
X1003300Y895604D01*
X1028700Y895604D02*
X1028700Y907796D01*
X1054100Y907796D02*
X1054100Y895604D01*
X1079500Y895604D02*
X1079500Y907796D01*
X1104900Y907796D02*
X1104900Y895604D01*
X1130300Y895604D02*
X1130300Y907796D01*
X1155700Y907796D02*
X1155700Y895604D01*
X1181100Y895604D02*
X1181100Y907796D01*
X1206500Y907796D02*
X1206500Y895604D01*
X1231900Y895604D02*
X1231900Y907796D01*
X1257300Y907796D02*
X1257300Y895604D01*
X1257300Y1048004D02*
X1257300Y1060196D01*
X1231900Y1060196D02*
X1231900Y1048004D01*
X1206500Y1048004D02*
X1206500Y1060196D01*
X1181100Y1060196D02*
X1181100Y1048004D01*
X1155700Y1048004D02*
X1155700Y1060196D01*
X1130300Y1060196D02*
X1130300Y1048004D01*
X1104900Y1048004D02*
X1104900Y1060196D01*
X1079500Y1060196D02*
X1079500Y1048004D01*
X1054100Y1048004D02*
X1054100Y1060196D01*
X1028700Y1060196D02*
X1028700Y1048004D01*
X1003300Y1048004D02*
X1003300Y1060196D01*
X977900Y1060196D02*
X977900Y1048004D01*
X952500Y1048004D02*
X952500Y1060196D01*
X927100Y1060196D02*
X927100Y1048004D01*
X927100Y679196D02*
X927100Y667004D01*
X952500Y667004D02*
X952500Y679196D01*
X977900Y679196D02*
X977900Y667004D01*
X1003300Y667004D02*
X1003300Y679196D01*
X1028700Y679196D02*
X1028700Y667004D01*
X1054100Y667004D02*
X1054100Y679196D01*
X1079500Y679196D02*
X1079500Y667004D01*
X1104900Y667004D02*
X1104900Y679196D01*
X1130300Y679196D02*
X1130300Y667004D01*
X1155700Y667004D02*
X1155700Y679196D01*
X1181100Y679196D02*
X1181100Y667004D01*
X1206500Y667004D02*
X1206500Y679196D01*
X1231900Y679196D02*
X1231900Y667004D01*
X1257300Y667004D02*
X1257300Y679196D01*
X1257300Y819404D02*
X1257300Y831596D01*
X1231900Y831596D02*
X1231900Y819404D01*
X1206500Y819404D02*
X1206500Y831596D01*
X1181100Y831596D02*
X1181100Y819404D01*
X1155700Y819404D02*
X1155700Y831596D01*
X1130300Y831596D02*
X1130300Y819404D01*
X1104900Y819404D02*
X1104900Y831596D01*
X1079500Y831596D02*
X1079500Y819404D01*
X1054100Y819404D02*
X1054100Y831596D01*
X1028700Y831596D02*
X1028700Y819404D01*
X1003300Y819404D02*
X1003300Y831596D01*
X977900Y831596D02*
X977900Y819404D01*
X952500Y819404D02*
X952500Y831596D01*
X927100Y831596D02*
X927100Y819404D01*
X977900Y209296D02*
X977900Y197104D01*
X1003300Y197104D02*
X1003300Y209296D01*
X1130300Y209296D02*
X1130300Y197104D01*
X1155700Y197104D02*
X1155700Y209296D01*
X1028700Y209296D02*
X1028700Y197104D01*
X1054100Y197104D02*
X1054100Y209296D01*
X1104900Y209296D02*
X1104900Y197104D01*
X1079500Y197104D02*
X1079500Y209296D01*
X1181100Y209296D02*
X1181100Y197104D01*
X1206500Y197104D02*
X1206500Y209296D01*
X1231900Y209296D02*
X1231900Y197104D01*
X1257300Y197104D02*
X1257300Y209296D01*
X1257300Y349504D02*
X1257300Y361696D01*
X1231900Y361696D02*
X1231900Y349504D01*
X1206500Y349504D02*
X1206500Y361696D01*
X1181100Y361696D02*
X1181100Y349504D01*
X1155700Y349504D02*
X1155700Y361696D01*
X1130300Y361696D02*
X1130300Y349504D01*
X1104900Y349504D02*
X1104900Y361696D01*
X1079500Y361696D02*
X1079500Y349504D01*
X1054100Y349504D02*
X1054100Y361696D01*
X1028700Y361696D02*
X1028700Y349504D01*
X1003300Y349504D02*
X1003300Y361696D01*
X977900Y361696D02*
X977900Y349504D01*
X1181100Y82296D02*
X1181100Y70104D01*
X1155700Y70104D02*
X1155700Y82296D01*
X1130300Y82296D02*
X1130300Y70104D01*
X1104900Y70104D02*
X1104900Y82296D01*
X1079500Y82296D02*
X1079500Y70104D01*
X1054100Y70104D02*
X1054100Y82296D01*
X1028700Y82296D02*
X1028700Y70104D01*
X1003300Y70104D02*
X1003300Y82296D01*
X977900Y82296D02*
X977900Y70104D01*
X977900Y527304D02*
X977900Y539496D01*
X1003300Y539496D02*
X1003300Y527304D01*
X1028700Y527304D02*
X1028700Y539496D01*
X1054100Y539496D02*
X1054100Y527304D01*
X1079500Y527304D02*
X1079500Y539496D01*
X1104900Y539496D02*
X1104900Y527304D01*
X1130300Y527304D02*
X1130300Y539496D01*
X1155700Y539496D02*
X1155700Y527304D01*
X1181100Y527304D02*
X1181100Y539496D01*
X254000Y806704D02*
X254000Y818896D01*
X279400Y818896D02*
X279400Y806704D01*
X406400Y806704D02*
X406400Y818896D01*
X406400Y882904D02*
X406400Y895096D01*
X304800Y818896D02*
X304800Y806704D01*
X330200Y806704D02*
X330200Y818896D01*
X381000Y818896D02*
X381000Y806704D01*
X355600Y806704D02*
X355600Y818896D01*
X381000Y882904D02*
X381000Y895096D01*
X355600Y895096D02*
X355600Y882904D01*
X330200Y882904D02*
X330200Y895096D01*
X304800Y895096D02*
X304800Y882904D01*
X279400Y882904D02*
X279400Y895096D01*
X254000Y895096D02*
X254000Y882904D01*
X571500Y971804D02*
X571500Y983996D01*
X596900Y983996D02*
X596900Y971804D01*
X723900Y971804D02*
X723900Y983996D01*
X749300Y983996D02*
X749300Y971804D01*
X622300Y971804D02*
X622300Y983996D01*
X647700Y983996D02*
X647700Y971804D01*
X698500Y971804D02*
X698500Y983996D01*
X673100Y983996D02*
X673100Y971804D01*
X749300Y1048004D02*
X749300Y1060196D01*
X723900Y1060196D02*
X723900Y1048004D01*
X698500Y1048004D02*
X698500Y1060196D01*
X673100Y1060196D02*
X673100Y1048004D01*
X647700Y1048004D02*
X647700Y1060196D01*
X622300Y1060196D02*
X622300Y1048004D01*
X596900Y1048004D02*
X596900Y1060196D01*
X571500Y1060196D02*
X571500Y1048004D01*
X520700Y348996D02*
X520700Y336804D01*
X546100Y336804D02*
X546100Y348996D01*
X673100Y348996D02*
X673100Y336804D01*
X698500Y336804D02*
X698500Y348996D01*
X571500Y348996D02*
X571500Y336804D01*
X596900Y336804D02*
X596900Y348996D01*
X647700Y348996D02*
X647700Y336804D01*
X622300Y336804D02*
X622300Y348996D01*
X723900Y348996D02*
X723900Y336804D01*
X749300Y336804D02*
X749300Y348996D01*
X749300Y413004D02*
X749300Y425196D01*
X723900Y425196D02*
X723900Y413004D01*
X698500Y413004D02*
X698500Y425196D01*
X673100Y425196D02*
X673100Y413004D01*
X647700Y413004D02*
X647700Y425196D01*
X622300Y425196D02*
X622300Y413004D01*
X596900Y413004D02*
X596900Y425196D01*
X571500Y425196D02*
X571500Y413004D01*
X546100Y413004D02*
X546100Y425196D01*
X520700Y425196D02*
X520700Y413004D01*
X520700Y183896D02*
X520700Y171704D01*
X546100Y171704D02*
X546100Y183896D01*
X673100Y183896D02*
X673100Y171704D01*
X698500Y171704D02*
X698500Y183896D01*
X571500Y183896D02*
X571500Y171704D01*
X596900Y171704D02*
X596900Y183896D01*
X647700Y183896D02*
X647700Y171704D01*
X622300Y171704D02*
X622300Y183896D01*
X723900Y183896D02*
X723900Y171704D01*
X749300Y171704D02*
X749300Y183896D01*
X749300Y247904D02*
X749300Y260096D01*
X723900Y260096D02*
X723900Y247904D01*
X698500Y247904D02*
X698500Y260096D01*
X673100Y260096D02*
X673100Y247904D01*
X647700Y247904D02*
X647700Y260096D01*
X622300Y260096D02*
X622300Y247904D01*
X596900Y247904D02*
X596900Y260096D01*
X571500Y260096D02*
X571500Y247904D01*
X546100Y247904D02*
X546100Y260096D01*
X520700Y260096D02*
X520700Y247904D01*
X596900Y832104D02*
X596900Y844296D01*
X622300Y844296D02*
X622300Y832104D01*
X749300Y832104D02*
X749300Y844296D01*
X749300Y908304D02*
X749300Y920496D01*
X647700Y844296D02*
X647700Y832104D01*
X673100Y832104D02*
X673100Y844296D01*
X723900Y844296D02*
X723900Y832104D01*
X698500Y832104D02*
X698500Y844296D01*
X723900Y908304D02*
X723900Y920496D01*
X698500Y920496D02*
X698500Y908304D01*
X673100Y908304D02*
X673100Y920496D01*
X647700Y920496D02*
X647700Y908304D01*
X622300Y908304D02*
X622300Y920496D01*
X596900Y920496D02*
X596900Y908304D01*
X520700Y602996D02*
X520700Y590804D01*
X546100Y590804D02*
X546100Y602996D01*
X673100Y602996D02*
X673100Y590804D01*
X698500Y590804D02*
X698500Y602996D01*
X571500Y602996D02*
X571500Y590804D01*
X596900Y590804D02*
X596900Y602996D01*
X647700Y602996D02*
X647700Y590804D01*
X622300Y590804D02*
X622300Y602996D01*
X723900Y602996D02*
X723900Y590804D01*
X749300Y590804D02*
X749300Y602996D01*
X749300Y667004D02*
X749300Y679196D01*
X723900Y679196D02*
X723900Y667004D01*
X698500Y667004D02*
X698500Y679196D01*
X673100Y679196D02*
X673100Y667004D01*
X647700Y667004D02*
X647700Y679196D01*
X622300Y679196D02*
X622300Y667004D01*
X596900Y667004D02*
X596900Y679196D01*
X571500Y679196D02*
X571500Y667004D01*
X546100Y667004D02*
X546100Y679196D01*
X520700Y679196D02*
X520700Y667004D01*
X546100Y514096D02*
X546100Y501904D01*
X571500Y501904D02*
X571500Y514096D01*
X596900Y514096D02*
X596900Y501904D01*
X622300Y501904D02*
X622300Y514096D01*
X647700Y514096D02*
X647700Y501904D01*
X673100Y501904D02*
X673100Y514096D01*
X698500Y514096D02*
X698500Y501904D01*
X723900Y501904D02*
X723900Y514096D01*
X749300Y514096D02*
X749300Y501904D01*
X546100Y768604D02*
X546100Y780796D01*
X571500Y780796D02*
X571500Y768604D01*
X596900Y768604D02*
X596900Y780796D01*
X622300Y780796D02*
X622300Y768604D01*
X647700Y768604D02*
X647700Y780796D01*
X673100Y780796D02*
X673100Y768604D01*
X698500Y768604D02*
X698500Y780796D01*
X723900Y780796D02*
X723900Y768604D01*
X749300Y768604D02*
X749300Y780796D01*
X254000Y959104D02*
X254000Y971296D01*
X279400Y971296D02*
X279400Y959104D01*
X406400Y959104D02*
X406400Y971296D01*
X406400Y1035304D02*
X406400Y1047496D01*
X304800Y971296D02*
X304800Y959104D01*
X330200Y959104D02*
X330200Y971296D01*
X381000Y971296D02*
X381000Y959104D01*
X355600Y959104D02*
X355600Y971296D01*
X381000Y1035304D02*
X381000Y1047496D01*
X355600Y1047496D02*
X355600Y1035304D01*
X330200Y1035304D02*
X330200Y1047496D01*
X304800Y1047496D02*
X304800Y1035304D01*
X279400Y1035304D02*
X279400Y1047496D01*
X254000Y1047496D02*
X254000Y1035304D01*
X228600Y679196D02*
X228600Y667004D01*
X254000Y667004D02*
X254000Y679196D01*
X381000Y679196D02*
X381000Y667004D01*
X406400Y667004D02*
X406400Y679196D01*
X279400Y679196D02*
X279400Y667004D01*
X304800Y667004D02*
X304800Y679196D01*
X355600Y679196D02*
X355600Y667004D01*
X330200Y667004D02*
X330200Y679196D01*
X406400Y743204D02*
X406400Y755396D01*
X381000Y755396D02*
X381000Y743204D01*
X355600Y743204D02*
X355600Y755396D01*
X330200Y755396D02*
X330200Y743204D01*
X304800Y743204D02*
X304800Y755396D01*
X279400Y755396D02*
X279400Y743204D01*
X254000Y743204D02*
X254000Y755396D01*
X228600Y755396D02*
X228600Y743204D01*
X254000Y526796D02*
X254000Y514604D01*
X279400Y514604D02*
X279400Y526796D01*
X406400Y526796D02*
X406400Y514604D01*
X406400Y590804D02*
X406400Y602996D01*
X304800Y526796D02*
X304800Y514604D01*
X330200Y514604D02*
X330200Y526796D01*
X381000Y526796D02*
X381000Y514604D01*
X355600Y514604D02*
X355600Y526796D01*
X381000Y590804D02*
X381000Y602996D01*
X355600Y602996D02*
X355600Y590804D01*
X330200Y590804D02*
X330200Y602996D01*
X304800Y602996D02*
X304800Y590804D01*
X279400Y590804D02*
X279400Y602996D01*
X254000Y602996D02*
X254000Y590804D01*
D14*
X996950Y171450D03*
X527050Y628650D03*
X127000Y565150D03*
X603250Y704850D03*
X133350Y628650D03*
X577850Y698500D03*
X139700Y565150D03*
X158750Y317500D03*
X558800Y241300D03*
X120650Y368300D03*
X114300Y361950D03*
X711200Y311150D03*
X127000Y171450D03*
X133350Y285750D03*
X584200Y577850D03*
X431800Y889000D03*
X584200Y304800D03*
X660400Y292100D03*
X768350Y361950D03*
X1060450Y330200D03*
X660400Y165100D03*
X635000Y215900D03*
X863600Y317500D03*
X996950Y254000D03*
X1022350Y260350D03*
X1098550Y266700D03*
X1054100Y806450D03*
X1047750Y273050D03*
X1073150Y374650D03*
X1092200Y800100D03*
X958850Y501650D03*
X577850Y952500D03*
X1149350Y654050D03*
X711200Y552450D03*
X1238250Y635000D03*
X1212850Y641350D03*
X1193800Y647700D03*
X349250Y838200D03*
X952500Y495300D03*
X660400Y971550D03*
X146050Y647700D03*
X660400Y628650D03*
X425450Y711200D03*
M02*
