M48
;GenerationSoftware,Autodesk,EAGLE,9.6.2*%
;CreationDate,2020-06-19T00:56:17Z*%
FMAT,2
ICI,OFF
METRIC,TZ,000.000
T4C0.254
T3C0.813
T2C1.016
T1C2.794
%
G90
M71
T1
X2540Y12694
X2540Y101606
T2
X10160Y91440
X10160Y88900
X10160Y86360
X10160Y83820
X10160Y81280
X10160Y78740
X10160Y76200
X10160Y73660
X10160Y71120
X10160Y68580
X10160Y66040
X10160Y63500
X10160Y60960
X10160Y58420
X7620Y96520
X7620Y93980
X7620Y91440
X7620Y88900
X7620Y86360
X7620Y83820
X7620Y81280
X7620Y78740
X7620Y76200
X7620Y73660
X7620Y71120
X7620Y68580
X7620Y66040
X7620Y63500
X7620Y60960
X7620Y58420
X10160Y93980
X10160Y96520
X5080Y17780
X5080Y20320
X5080Y22860
X5080Y25400
X5080Y27940
X5080Y30480
X5080Y33020
X5080Y35560
X5080Y38100
X5080Y40640
X5080Y43180
X5080Y45720
X5080Y48260
X5080Y50800
X5080Y53340
X5080Y55880
X7620Y17780
X7620Y20320
X7620Y22860
X7620Y25400
X7620Y27940
X7620Y30480
X7620Y33020
X7620Y35560
X7620Y38100
X7620Y40640
X7620Y43180
X7620Y45720
X7620Y48260
X7620Y50800
X7620Y53340
X7620Y55880
X10160Y17780
X10160Y20320
X10160Y22860
X10160Y25400
X10160Y27940
X10160Y30480
X10160Y33020
X10160Y35560
X10160Y38100
X10160Y40640
X10160Y43180
X10160Y45720
X10160Y48260
X10160Y50800
X10160Y53340
X10160Y55880
X5080Y58420
X5080Y60960
X5080Y63500
X5080Y66040
X5080Y68580
X5080Y71120
X5080Y73660
X5080Y76200
X5080Y78740
X5080Y81280
X5080Y83820
X5080Y86360
X5080Y88900
X5080Y91440
X5080Y93980
X5080Y96520
T3
X25400Y104140
X27940Y83820
X27940Y104140
X30480Y104140
X33020Y104140
X35560Y104140
X38100Y104140
X35560Y96520
X38100Y96520
X33020Y96520
X30480Y96520
X40640Y104140
X40640Y96520
X27940Y96520
X25400Y96520
X53340Y74930
X50800Y74930
X48260Y74930
X45720Y74930
X43180Y74930
X40640Y74930
X38100Y74930
X35560Y74930
X33020Y74930
X53340Y49530
X50800Y49530
X48260Y49530
X45720Y49530
X43180Y49530
X40640Y49530
X38100Y49530
X105410Y82550
X175260Y3810
X172720Y3810
X165100Y3810
X154940Y3810
X92710Y90170
X95250Y90170
X97790Y90170
X100330Y90170
X102870Y90170
X105410Y90170
X107950Y90170
X110490Y90170
X113030Y90170
X115570Y90170
X118110Y90170
X120650Y90170
X123190Y90170
X125730Y90170
X125730Y105410
X123190Y105410
X120650Y105410
X118110Y105410
X115570Y105410
X113030Y105410
X110490Y105410
X107950Y105410
X105410Y105410
X102870Y105410
X100330Y105410
X97790Y105410
X95250Y105410
X92710Y105410
X92710Y67310
X95250Y67310
X97790Y67310
X100330Y67310
X102870Y67310
X105410Y67310
X107950Y67310
X110490Y67310
X113030Y67310
X115570Y67310
X118110Y67310
X120650Y67310
X123190Y67310
X125730Y67310
X125730Y82550
X123190Y82550
X120650Y82550
X118110Y82550
X115570Y82550
X113030Y82550
X110490Y82550
X107950Y82550
X35560Y49530
X102870Y82550
X100330Y82550
X97790Y82550
X95250Y82550
X92710Y82550
X97790Y20320
X100330Y20320
X113030Y20320
X115570Y20320
X102870Y20320
X105410Y20320
X110490Y20320
X107950Y20320
X118110Y20320
X120650Y20320
X123190Y20320
X125730Y20320
X125730Y35560
X123190Y35560
X120650Y35560
X118110Y35560
X115570Y35560
X113030Y35560
X110490Y35560
X107950Y35560
X105410Y35560
X102870Y35560
X100330Y35560
X97790Y35560
X118110Y7620
X115570Y7620
X113030Y7620
X110490Y7620
X107950Y7620
X105410Y7620
X102870Y7620
X100330Y7620
X97790Y7620
X97790Y59690
X100330Y59690
X102870Y59690
X105410Y59690
X107950Y59690
X110490Y59690
X113030Y59690
X115570Y59690
X118110Y59690
X25400Y83820
X33020Y49530
X40640Y83820
X40640Y91440
X30480Y83820
X33020Y83820
X38100Y83820
X35560Y83820
X38100Y91440
X35560Y91440
X33020Y91440
X30480Y91440
X27940Y91440
X25400Y91440
X46990Y96520
X49530Y96520
X62230Y96520
X64770Y96520
X52070Y96520
X54610Y96520
X59690Y96520
X57150Y96520
X64770Y104140
X62230Y104140
X59690Y104140
X57150Y104140
X54610Y104140
X52070Y104140
X49530Y104140
X46990Y104140
X30480Y34290
X33020Y34290
X45720Y34290
X48260Y34290
X35560Y34290
X38100Y34290
X43180Y34290
X40640Y34290
X50800Y34290
X53340Y34290
X53340Y41910
X50800Y41910
X48260Y41910
X45720Y41910
X43180Y41910
X40640Y41910
X38100Y41910
X35560Y41910
X33020Y41910
X30480Y41910
X30480Y17780
X33020Y17780
X45720Y17780
X48260Y17780
X35560Y17780
X38100Y17780
X43180Y17780
X40640Y17780
X50800Y17780
X53340Y17780
X53340Y25400
X50800Y25400
X48260Y25400
X45720Y25400
X43180Y25400
X40640Y25400
X38100Y25400
X35560Y25400
X33020Y25400
X30480Y25400
X49530Y83820
X52070Y83820
X64770Y83820
X64770Y91440
X54610Y83820
X57150Y83820
X62230Y83820
X59690Y83820
X62230Y91440
X59690Y91440
X57150Y91440
X54610Y91440
X52070Y91440
X49530Y91440
X30480Y58420
X33020Y58420
X45720Y58420
X48260Y58420
X35560Y58420
X38100Y58420
X43180Y58420
X40640Y58420
X50800Y58420
X53340Y58420
X53340Y66040
X50800Y66040
X48260Y66040
X45720Y66040
X43180Y66040
X40640Y66040
X38100Y66040
X35560Y66040
X33020Y66040
X30480Y66040
T4
X60007Y98742
X92392Y55880
X47942Y92392
X32702Y61912
X36195Y69850
X41275Y72390
X43815Y73025
X28257Y64135
X18733Y29845
X37148Y28575
X38100Y29210
X47942Y36830
X36513Y44767
X35560Y15557
X54292Y43815
X47307Y52070
X46672Y52705
X29845Y30162
X109220Y31115
X107632Y31750
X106997Y63817
X103505Y30480
X101600Y29845
X98425Y29210
X100965Y26670
X102552Y29845
X105727Y40323
X106045Y27305
X93662Y23177
X95250Y61277
X93027Y61912
X94615Y60642
M30