G04 EAGLE Gerber RS-274X export*
G75*
%MOMM*%
%FSLAX34Y34*%
%LPD*%
%INBottom Copper*%
%IPPOS*%
%AMOC8*
5,1,8,0,0,1.08239X$1,22.5*%
G01*
%ADD10C,1.219200*%
%ADD11P,1.319650X8X112.500000*%
%ADD12P,1.649562X8X292.500000*%
%ADD13P,1.649562X8X202.500000*%
%ADD14P,1.319650X8X202.500000*%
%ADD15P,1.319650X8X22.500000*%
%ADD16C,1.524000*%
%ADD17C,0.127000*%
%ADD18C,0.457200*%


D10*
X1168400Y717804D02*
X1168400Y729996D01*
X1193800Y729996D02*
X1193800Y717804D01*
X1320800Y717804D02*
X1320800Y729996D01*
X1320800Y794004D02*
X1320800Y806196D01*
X1219200Y729996D02*
X1219200Y717804D01*
X1244600Y717804D02*
X1244600Y729996D01*
X1295400Y729996D02*
X1295400Y717804D01*
X1270000Y717804D02*
X1270000Y729996D01*
X1295400Y794004D02*
X1295400Y806196D01*
X1270000Y806196D02*
X1270000Y794004D01*
X1244600Y794004D02*
X1244600Y806196D01*
X1219200Y806196D02*
X1219200Y794004D01*
X1193800Y794004D02*
X1193800Y806196D01*
X1168400Y806196D02*
X1168400Y794004D01*
X1168400Y602996D02*
X1168400Y590804D01*
X1193800Y590804D02*
X1193800Y602996D01*
X1320800Y602996D02*
X1320800Y590804D01*
X1320800Y667004D02*
X1320800Y679196D01*
X1219200Y602996D02*
X1219200Y590804D01*
X1244600Y590804D02*
X1244600Y602996D01*
X1295400Y602996D02*
X1295400Y590804D01*
X1270000Y590804D02*
X1270000Y602996D01*
X1295400Y667004D02*
X1295400Y679196D01*
X1270000Y679196D02*
X1270000Y667004D01*
X1244600Y667004D02*
X1244600Y679196D01*
X1219200Y679196D02*
X1219200Y667004D01*
X1193800Y667004D02*
X1193800Y679196D01*
X1168400Y679196D02*
X1168400Y667004D01*
X1409700Y717804D02*
X1409700Y729996D01*
X1435100Y729996D02*
X1435100Y717804D01*
X1562100Y717804D02*
X1562100Y729996D01*
X1587500Y729996D02*
X1587500Y717804D01*
X1460500Y717804D02*
X1460500Y729996D01*
X1485900Y729996D02*
X1485900Y717804D01*
X1536700Y717804D02*
X1536700Y729996D01*
X1511300Y729996D02*
X1511300Y717804D01*
X1612900Y717804D02*
X1612900Y729996D01*
X1638300Y729996D02*
X1638300Y717804D01*
X1638300Y794004D02*
X1638300Y806196D01*
X1612900Y806196D02*
X1612900Y794004D01*
X1587500Y794004D02*
X1587500Y806196D01*
X1562100Y806196D02*
X1562100Y794004D01*
X1536700Y794004D02*
X1536700Y806196D01*
X1511300Y806196D02*
X1511300Y794004D01*
X1485900Y794004D02*
X1485900Y806196D01*
X1460500Y806196D02*
X1460500Y794004D01*
X1435100Y794004D02*
X1435100Y806196D01*
X1409700Y806196D02*
X1409700Y794004D01*
X241300Y602996D02*
X241300Y590804D01*
X266700Y590804D02*
X266700Y602996D01*
X393700Y602996D02*
X393700Y590804D01*
X419100Y590804D02*
X419100Y602996D01*
X292100Y602996D02*
X292100Y590804D01*
X317500Y590804D02*
X317500Y602996D01*
X368300Y602996D02*
X368300Y590804D01*
X342900Y590804D02*
X342900Y602996D01*
X419100Y667004D02*
X419100Y679196D01*
X393700Y679196D02*
X393700Y667004D01*
X368300Y667004D02*
X368300Y679196D01*
X342900Y679196D02*
X342900Y667004D01*
X317500Y667004D02*
X317500Y679196D01*
X292100Y679196D02*
X292100Y667004D01*
X266700Y667004D02*
X266700Y679196D01*
X241300Y679196D02*
X241300Y667004D01*
X266700Y94996D02*
X266700Y82804D01*
X292100Y82804D02*
X292100Y94996D01*
X419100Y94996D02*
X419100Y82804D01*
X419100Y159004D02*
X419100Y171196D01*
X317500Y94996D02*
X317500Y82804D01*
X342900Y82804D02*
X342900Y94996D01*
X393700Y94996D02*
X393700Y82804D01*
X368300Y82804D02*
X368300Y94996D01*
X393700Y159004D02*
X393700Y171196D01*
X368300Y171196D02*
X368300Y159004D01*
X342900Y159004D02*
X342900Y171196D01*
X317500Y171196D02*
X317500Y159004D01*
X292100Y159004D02*
X292100Y171196D01*
X266700Y171196D02*
X266700Y159004D01*
X190500Y463804D02*
X190500Y475996D01*
X215900Y475996D02*
X215900Y463804D01*
X342900Y463804D02*
X342900Y475996D01*
X368300Y475996D02*
X368300Y463804D01*
X241300Y463804D02*
X241300Y475996D01*
X266700Y475996D02*
X266700Y463804D01*
X317500Y463804D02*
X317500Y475996D01*
X292100Y475996D02*
X292100Y463804D01*
X393700Y463804D02*
X393700Y475996D01*
X419100Y475996D02*
X419100Y463804D01*
X419100Y540004D02*
X419100Y552196D01*
X393700Y552196D02*
X393700Y540004D01*
X368300Y540004D02*
X368300Y552196D01*
X342900Y552196D02*
X342900Y540004D01*
X317500Y540004D02*
X317500Y552196D01*
X292100Y552196D02*
X292100Y540004D01*
X266700Y540004D02*
X266700Y552196D01*
X241300Y552196D02*
X241300Y540004D01*
X215900Y540004D02*
X215900Y552196D01*
X190500Y552196D02*
X190500Y540004D01*
X508000Y475996D02*
X508000Y463804D01*
X533400Y463804D02*
X533400Y475996D01*
X660400Y475996D02*
X660400Y463804D01*
X685800Y463804D02*
X685800Y475996D01*
X558800Y475996D02*
X558800Y463804D01*
X584200Y463804D02*
X584200Y475996D01*
X635000Y475996D02*
X635000Y463804D01*
X609600Y463804D02*
X609600Y475996D01*
X711200Y475996D02*
X711200Y463804D01*
X736600Y463804D02*
X736600Y475996D01*
X736600Y540004D02*
X736600Y552196D01*
X711200Y552196D02*
X711200Y540004D01*
X685800Y540004D02*
X685800Y552196D01*
X660400Y552196D02*
X660400Y540004D01*
X635000Y540004D02*
X635000Y552196D01*
X609600Y552196D02*
X609600Y540004D01*
X584200Y540004D02*
X584200Y552196D01*
X558800Y552196D02*
X558800Y540004D01*
X533400Y540004D02*
X533400Y552196D01*
X508000Y552196D02*
X508000Y540004D01*
X508000Y844804D02*
X508000Y856996D01*
X533400Y856996D02*
X533400Y844804D01*
X660400Y844804D02*
X660400Y856996D01*
X685800Y856996D02*
X685800Y844804D01*
X558800Y844804D02*
X558800Y856996D01*
X584200Y856996D02*
X584200Y844804D01*
X635000Y844804D02*
X635000Y856996D01*
X609600Y856996D02*
X609600Y844804D01*
X711200Y844804D02*
X711200Y856996D01*
X736600Y856996D02*
X736600Y844804D01*
X736600Y921004D02*
X736600Y933196D01*
X711200Y933196D02*
X711200Y921004D01*
X685800Y921004D02*
X685800Y933196D01*
X660400Y933196D02*
X660400Y921004D01*
X635000Y921004D02*
X635000Y933196D01*
X609600Y933196D02*
X609600Y921004D01*
X584200Y921004D02*
X584200Y933196D01*
X558800Y933196D02*
X558800Y921004D01*
X533400Y921004D02*
X533400Y933196D01*
X508000Y933196D02*
X508000Y921004D01*
X825500Y729996D02*
X825500Y717804D01*
X850900Y717804D02*
X850900Y729996D01*
X977900Y729996D02*
X977900Y717804D01*
X1003300Y717804D02*
X1003300Y729996D01*
X876300Y729996D02*
X876300Y717804D01*
X901700Y717804D02*
X901700Y729996D01*
X952500Y729996D02*
X952500Y717804D01*
X927100Y717804D02*
X927100Y729996D01*
X1028700Y729996D02*
X1028700Y717804D01*
X1054100Y717804D02*
X1054100Y729996D01*
X1054100Y794004D02*
X1054100Y806196D01*
X1028700Y806196D02*
X1028700Y794004D01*
X1003300Y794004D02*
X1003300Y806196D01*
X977900Y806196D02*
X977900Y794004D01*
X952500Y794004D02*
X952500Y806196D01*
X927100Y806196D02*
X927100Y794004D01*
X901700Y794004D02*
X901700Y806196D01*
X876300Y806196D02*
X876300Y794004D01*
X850900Y794004D02*
X850900Y806196D01*
X825500Y806196D02*
X825500Y794004D01*
X508000Y602996D02*
X508000Y590804D01*
X533400Y590804D02*
X533400Y602996D01*
X660400Y602996D02*
X660400Y590804D01*
X685800Y590804D02*
X685800Y602996D01*
X558800Y602996D02*
X558800Y590804D01*
X584200Y590804D02*
X584200Y602996D01*
X635000Y602996D02*
X635000Y590804D01*
X609600Y590804D02*
X609600Y602996D01*
X711200Y602996D02*
X711200Y590804D01*
X736600Y590804D02*
X736600Y602996D01*
X736600Y667004D02*
X736600Y679196D01*
X711200Y679196D02*
X711200Y667004D01*
X685800Y667004D02*
X685800Y679196D01*
X660400Y679196D02*
X660400Y667004D01*
X635000Y667004D02*
X635000Y679196D01*
X609600Y679196D02*
X609600Y667004D01*
X584200Y667004D02*
X584200Y679196D01*
X558800Y679196D02*
X558800Y667004D01*
X533400Y667004D02*
X533400Y679196D01*
X508000Y679196D02*
X508000Y667004D01*
X508000Y717804D02*
X508000Y729996D01*
X533400Y729996D02*
X533400Y717804D01*
X660400Y717804D02*
X660400Y729996D01*
X685800Y729996D02*
X685800Y717804D01*
X558800Y717804D02*
X558800Y729996D01*
X584200Y729996D02*
X584200Y717804D01*
X635000Y717804D02*
X635000Y729996D01*
X609600Y729996D02*
X609600Y717804D01*
X711200Y717804D02*
X711200Y729996D01*
X736600Y729996D02*
X736600Y717804D01*
X736600Y794004D02*
X736600Y806196D01*
X711200Y806196D02*
X711200Y794004D01*
X685800Y794004D02*
X685800Y806196D01*
X660400Y806196D02*
X660400Y794004D01*
X635000Y794004D02*
X635000Y806196D01*
X609600Y806196D02*
X609600Y794004D01*
X584200Y794004D02*
X584200Y806196D01*
X558800Y806196D02*
X558800Y794004D01*
X533400Y794004D02*
X533400Y806196D01*
X508000Y806196D02*
X508000Y794004D01*
X241300Y348996D02*
X241300Y336804D01*
X266700Y336804D02*
X266700Y348996D01*
X393700Y348996D02*
X393700Y336804D01*
X419100Y336804D02*
X419100Y348996D01*
X292100Y348996D02*
X292100Y336804D01*
X317500Y336804D02*
X317500Y348996D01*
X368300Y348996D02*
X368300Y336804D01*
X342900Y336804D02*
X342900Y348996D01*
X419100Y413004D02*
X419100Y425196D01*
X393700Y425196D02*
X393700Y413004D01*
X368300Y413004D02*
X368300Y425196D01*
X342900Y425196D02*
X342900Y413004D01*
X317500Y413004D02*
X317500Y425196D01*
X292100Y425196D02*
X292100Y413004D01*
X266700Y413004D02*
X266700Y425196D01*
X241300Y425196D02*
X241300Y413004D01*
X558800Y221996D02*
X558800Y209804D01*
X584200Y209804D02*
X584200Y221996D01*
X711200Y221996D02*
X711200Y209804D01*
X736600Y209804D02*
X736600Y221996D01*
X609600Y221996D02*
X609600Y209804D01*
X635000Y209804D02*
X635000Y221996D01*
X685800Y221996D02*
X685800Y209804D01*
X660400Y209804D02*
X660400Y221996D01*
X736600Y286004D02*
X736600Y298196D01*
X711200Y298196D02*
X711200Y286004D01*
X685800Y286004D02*
X685800Y298196D01*
X660400Y298196D02*
X660400Y286004D01*
X635000Y286004D02*
X635000Y298196D01*
X609600Y298196D02*
X609600Y286004D01*
X584200Y286004D02*
X584200Y298196D01*
X558800Y298196D02*
X558800Y286004D01*
X1168400Y221996D02*
X1168400Y209804D01*
X1193800Y209804D02*
X1193800Y221996D01*
X1320800Y221996D02*
X1320800Y209804D01*
X1320800Y286004D02*
X1320800Y298196D01*
X1219200Y221996D02*
X1219200Y209804D01*
X1244600Y209804D02*
X1244600Y221996D01*
X1295400Y221996D02*
X1295400Y209804D01*
X1270000Y209804D02*
X1270000Y221996D01*
X1295400Y286004D02*
X1295400Y298196D01*
X1270000Y298196D02*
X1270000Y286004D01*
X1244600Y286004D02*
X1244600Y298196D01*
X1219200Y298196D02*
X1219200Y286004D01*
X1193800Y286004D02*
X1193800Y298196D01*
X1168400Y298196D02*
X1168400Y286004D01*
X1485900Y94996D02*
X1485900Y82804D01*
X1511300Y82804D02*
X1511300Y94996D01*
X1638300Y94996D02*
X1638300Y82804D01*
X1638300Y159004D02*
X1638300Y171196D01*
X1536700Y94996D02*
X1536700Y82804D01*
X1562100Y82804D02*
X1562100Y94996D01*
X1612900Y94996D02*
X1612900Y82804D01*
X1587500Y82804D02*
X1587500Y94996D01*
X1612900Y159004D02*
X1612900Y171196D01*
X1587500Y171196D02*
X1587500Y159004D01*
X1562100Y159004D02*
X1562100Y171196D01*
X1536700Y171196D02*
X1536700Y159004D01*
X1511300Y159004D02*
X1511300Y171196D01*
X1485900Y171196D02*
X1485900Y159004D01*
X241300Y209804D02*
X241300Y221996D01*
X266700Y221996D02*
X266700Y209804D01*
X393700Y209804D02*
X393700Y221996D01*
X419100Y221996D02*
X419100Y209804D01*
X292100Y209804D02*
X292100Y221996D01*
X317500Y221996D02*
X317500Y209804D01*
X368300Y209804D02*
X368300Y221996D01*
X342900Y221996D02*
X342900Y209804D01*
X419100Y286004D02*
X419100Y298196D01*
X393700Y298196D02*
X393700Y286004D01*
X368300Y286004D02*
X368300Y298196D01*
X342900Y298196D02*
X342900Y286004D01*
X317500Y286004D02*
X317500Y298196D01*
X292100Y298196D02*
X292100Y286004D01*
X266700Y286004D02*
X266700Y298196D01*
X241300Y298196D02*
X241300Y286004D01*
X584200Y94996D02*
X584200Y82804D01*
X609600Y82804D02*
X609600Y94996D01*
X736600Y94996D02*
X736600Y82804D01*
X736600Y159004D02*
X736600Y171196D01*
X635000Y94996D02*
X635000Y82804D01*
X660400Y82804D02*
X660400Y94996D01*
X711200Y94996D02*
X711200Y82804D01*
X685800Y82804D02*
X685800Y94996D01*
X711200Y159004D02*
X711200Y171196D01*
X685800Y171196D02*
X685800Y159004D01*
X660400Y159004D02*
X660400Y171196D01*
X635000Y171196D02*
X635000Y159004D01*
X609600Y159004D02*
X609600Y171196D01*
X584200Y171196D02*
X584200Y159004D01*
X215900Y971804D02*
X215900Y983996D01*
X241300Y983996D02*
X241300Y971804D01*
X266700Y971804D02*
X266700Y983996D01*
X292100Y983996D02*
X292100Y971804D01*
X317500Y971804D02*
X317500Y983996D01*
X342900Y983996D02*
X342900Y971804D01*
X368300Y971804D02*
X368300Y983996D01*
X393700Y983996D02*
X393700Y971804D01*
X419100Y971804D02*
X419100Y983996D01*
X215900Y1035304D02*
X215900Y1047496D01*
X241300Y1047496D02*
X241300Y1035304D01*
X266700Y1035304D02*
X266700Y1047496D01*
X292100Y1047496D02*
X292100Y1035304D01*
X317500Y1035304D02*
X317500Y1047496D01*
X342900Y1047496D02*
X342900Y1035304D01*
X368300Y1035304D02*
X368300Y1047496D01*
X393700Y1047496D02*
X393700Y1035304D01*
X419100Y1035304D02*
X419100Y1047496D01*
X190500Y856996D02*
X190500Y844804D01*
X215900Y844804D02*
X215900Y856996D01*
X342900Y856996D02*
X342900Y844804D01*
X368300Y844804D02*
X368300Y856996D01*
X241300Y856996D02*
X241300Y844804D01*
X266700Y844804D02*
X266700Y856996D01*
X317500Y856996D02*
X317500Y844804D01*
X292100Y844804D02*
X292100Y856996D01*
X393700Y856996D02*
X393700Y844804D01*
X419100Y844804D02*
X419100Y856996D01*
X419100Y921004D02*
X419100Y933196D01*
X393700Y933196D02*
X393700Y921004D01*
X368300Y921004D02*
X368300Y933196D01*
X342900Y933196D02*
X342900Y921004D01*
X317500Y921004D02*
X317500Y933196D01*
X292100Y933196D02*
X292100Y921004D01*
X266700Y921004D02*
X266700Y933196D01*
X241300Y933196D02*
X241300Y921004D01*
X215900Y921004D02*
X215900Y933196D01*
X190500Y933196D02*
X190500Y921004D01*
X190500Y729996D02*
X190500Y717804D01*
X215900Y717804D02*
X215900Y729996D01*
X342900Y729996D02*
X342900Y717804D01*
X368300Y717804D02*
X368300Y729996D01*
X241300Y729996D02*
X241300Y717804D01*
X266700Y717804D02*
X266700Y729996D01*
X317500Y729996D02*
X317500Y717804D01*
X292100Y717804D02*
X292100Y729996D01*
X393700Y729996D02*
X393700Y717804D01*
X419100Y717804D02*
X419100Y729996D01*
X419100Y794004D02*
X419100Y806196D01*
X393700Y806196D02*
X393700Y794004D01*
X368300Y794004D02*
X368300Y806196D01*
X342900Y806196D02*
X342900Y794004D01*
X317500Y794004D02*
X317500Y806196D01*
X292100Y806196D02*
X292100Y794004D01*
X266700Y794004D02*
X266700Y806196D01*
X241300Y806196D02*
X241300Y794004D01*
X215900Y794004D02*
X215900Y806196D01*
X190500Y806196D02*
X190500Y794004D01*
X1143000Y844804D02*
X1143000Y856996D01*
X1168400Y856996D02*
X1168400Y844804D01*
X1295400Y844804D02*
X1295400Y856996D01*
X1320800Y856996D02*
X1320800Y844804D01*
X1193800Y844804D02*
X1193800Y856996D01*
X1219200Y856996D02*
X1219200Y844804D01*
X1270000Y844804D02*
X1270000Y856996D01*
X1244600Y856996D02*
X1244600Y844804D01*
X1320800Y921004D02*
X1320800Y933196D01*
X1295400Y933196D02*
X1295400Y921004D01*
X1270000Y921004D02*
X1270000Y933196D01*
X1244600Y933196D02*
X1244600Y921004D01*
X1219200Y921004D02*
X1219200Y933196D01*
X1193800Y933196D02*
X1193800Y921004D01*
X1168400Y921004D02*
X1168400Y933196D01*
X1143000Y933196D02*
X1143000Y921004D01*
X1143000Y475996D02*
X1143000Y463804D01*
X1168400Y463804D02*
X1168400Y475996D01*
X1295400Y475996D02*
X1295400Y463804D01*
X1320800Y463804D02*
X1320800Y475996D01*
X1193800Y475996D02*
X1193800Y463804D01*
X1219200Y463804D02*
X1219200Y475996D01*
X1270000Y475996D02*
X1270000Y463804D01*
X1244600Y463804D02*
X1244600Y475996D01*
X1320800Y540004D02*
X1320800Y552196D01*
X1295400Y552196D02*
X1295400Y540004D01*
X1270000Y540004D02*
X1270000Y552196D01*
X1244600Y552196D02*
X1244600Y540004D01*
X1219200Y540004D02*
X1219200Y552196D01*
X1193800Y552196D02*
X1193800Y540004D01*
X1168400Y540004D02*
X1168400Y552196D01*
X1143000Y552196D02*
X1143000Y540004D01*
X1143000Y971804D02*
X1143000Y983996D01*
X1168400Y983996D02*
X1168400Y971804D01*
X1295400Y971804D02*
X1295400Y983996D01*
X1320800Y983996D02*
X1320800Y971804D01*
X1193800Y971804D02*
X1193800Y983996D01*
X1219200Y983996D02*
X1219200Y971804D01*
X1270000Y971804D02*
X1270000Y983996D01*
X1244600Y983996D02*
X1244600Y971804D01*
X1320800Y1048004D02*
X1320800Y1060196D01*
X1295400Y1060196D02*
X1295400Y1048004D01*
X1270000Y1048004D02*
X1270000Y1060196D01*
X1244600Y1060196D02*
X1244600Y1048004D01*
X1219200Y1048004D02*
X1219200Y1060196D01*
X1193800Y1060196D02*
X1193800Y1048004D01*
X1168400Y1048004D02*
X1168400Y1060196D01*
X1143000Y1060196D02*
X1143000Y1048004D01*
X1460500Y602996D02*
X1460500Y590804D01*
X1485900Y590804D02*
X1485900Y602996D01*
X1612900Y602996D02*
X1612900Y590804D01*
X1638300Y590804D02*
X1638300Y602996D01*
X1511300Y602996D02*
X1511300Y590804D01*
X1536700Y590804D02*
X1536700Y602996D01*
X1587500Y602996D02*
X1587500Y590804D01*
X1562100Y590804D02*
X1562100Y602996D01*
X1638300Y667004D02*
X1638300Y679196D01*
X1612900Y679196D02*
X1612900Y667004D01*
X1587500Y667004D02*
X1587500Y679196D01*
X1562100Y679196D02*
X1562100Y667004D01*
X1536700Y667004D02*
X1536700Y679196D01*
X1511300Y679196D02*
X1511300Y667004D01*
X1485900Y667004D02*
X1485900Y679196D01*
X1460500Y679196D02*
X1460500Y667004D01*
X1409700Y844804D02*
X1409700Y856996D01*
X1435100Y856996D02*
X1435100Y844804D01*
X1562100Y844804D02*
X1562100Y856996D01*
X1587500Y856996D02*
X1587500Y844804D01*
X1460500Y844804D02*
X1460500Y856996D01*
X1485900Y856996D02*
X1485900Y844804D01*
X1536700Y844804D02*
X1536700Y856996D01*
X1511300Y856996D02*
X1511300Y844804D01*
X1612900Y844804D02*
X1612900Y856996D01*
X1638300Y856996D02*
X1638300Y844804D01*
X1638300Y921004D02*
X1638300Y933196D01*
X1612900Y933196D02*
X1612900Y921004D01*
X1587500Y921004D02*
X1587500Y933196D01*
X1562100Y933196D02*
X1562100Y921004D01*
X1536700Y921004D02*
X1536700Y933196D01*
X1511300Y933196D02*
X1511300Y921004D01*
X1485900Y921004D02*
X1485900Y933196D01*
X1460500Y933196D02*
X1460500Y921004D01*
X1435100Y921004D02*
X1435100Y933196D01*
X1409700Y933196D02*
X1409700Y921004D01*
X1460500Y971804D02*
X1460500Y983996D01*
X1485900Y983996D02*
X1485900Y971804D01*
X1612900Y971804D02*
X1612900Y983996D01*
X1638300Y983996D02*
X1638300Y971804D01*
X1511300Y971804D02*
X1511300Y983996D01*
X1536700Y983996D02*
X1536700Y971804D01*
X1587500Y971804D02*
X1587500Y983996D01*
X1562100Y983996D02*
X1562100Y971804D01*
X1638300Y1048004D02*
X1638300Y1060196D01*
X1612900Y1060196D02*
X1612900Y1048004D01*
X1587500Y1048004D02*
X1587500Y1060196D01*
X1562100Y1060196D02*
X1562100Y1048004D01*
X1536700Y1048004D02*
X1536700Y1060196D01*
X1511300Y1060196D02*
X1511300Y1048004D01*
X1485900Y1048004D02*
X1485900Y1060196D01*
X1460500Y1060196D02*
X1460500Y1048004D01*
D11*
X876300Y495300D03*
X876300Y520700D03*
X1143000Y114300D03*
X1143000Y139700D03*
X215900Y622300D03*
X215900Y647700D03*
X1384300Y876300D03*
X1384300Y901700D03*
X1117600Y495300D03*
X1117600Y520700D03*
X1143000Y368300D03*
X1143000Y393700D03*
X241300Y114300D03*
X241300Y139700D03*
X482600Y495300D03*
X482600Y520700D03*
X215900Y241300D03*
X215900Y266700D03*
X1117600Y876300D03*
X1117600Y901700D03*
X800100Y749300D03*
X800100Y774700D03*
X1460500Y368300D03*
X1460500Y393700D03*
X1435100Y1003300D03*
X1435100Y1028700D03*
X1117600Y1003300D03*
X1117600Y1028700D03*
X1460500Y241300D03*
X1460500Y266700D03*
X482600Y368300D03*
X482600Y393700D03*
X215900Y368300D03*
X215900Y393700D03*
X482600Y876300D03*
X482600Y901700D03*
X876300Y1003300D03*
X876300Y1028700D03*
X1143000Y241300D03*
X1143000Y266700D03*
X876300Y876300D03*
X876300Y901700D03*
X1460500Y114300D03*
X1460500Y139700D03*
X533400Y241300D03*
X533400Y266700D03*
X165100Y749300D03*
X165100Y774700D03*
X165100Y876300D03*
X165100Y901700D03*
X1384300Y749300D03*
X1384300Y774700D03*
X1435100Y622300D03*
X1435100Y647700D03*
X1143000Y749300D03*
X1143000Y774700D03*
X1143000Y622300D03*
X1143000Y647700D03*
X1435100Y495300D03*
X1435100Y520700D03*
X876300Y241300D03*
X876300Y266700D03*
X876300Y114300D03*
X876300Y139700D03*
X558800Y114300D03*
X558800Y139700D03*
X482600Y990600D03*
X482600Y1016000D03*
X876300Y622300D03*
X876300Y647700D03*
X165100Y495300D03*
X165100Y520700D03*
X800100Y368300D03*
X800100Y393700D03*
D10*
X901700Y221996D02*
X901700Y209804D01*
X927100Y209804D02*
X927100Y221996D01*
X1054100Y221996D02*
X1054100Y209804D01*
X1054100Y286004D02*
X1054100Y298196D01*
X952500Y221996D02*
X952500Y209804D01*
X977900Y209804D02*
X977900Y221996D01*
X1028700Y221996D02*
X1028700Y209804D01*
X1003300Y209804D02*
X1003300Y221996D01*
X1028700Y286004D02*
X1028700Y298196D01*
X1003300Y298196D02*
X1003300Y286004D01*
X977900Y286004D02*
X977900Y298196D01*
X952500Y298196D02*
X952500Y286004D01*
X927100Y286004D02*
X927100Y298196D01*
X901700Y298196D02*
X901700Y286004D01*
X901700Y94996D02*
X901700Y82804D01*
X927100Y82804D02*
X927100Y94996D01*
X1054100Y94996D02*
X1054100Y82804D01*
X1054100Y159004D02*
X1054100Y171196D01*
X952500Y94996D02*
X952500Y82804D01*
X977900Y82804D02*
X977900Y94996D01*
X1028700Y94996D02*
X1028700Y82804D01*
X1003300Y82804D02*
X1003300Y94996D01*
X1028700Y159004D02*
X1028700Y171196D01*
X1003300Y171196D02*
X1003300Y159004D01*
X977900Y159004D02*
X977900Y171196D01*
X952500Y171196D02*
X952500Y159004D01*
X927100Y159004D02*
X927100Y171196D01*
X901700Y171196D02*
X901700Y159004D01*
X901700Y844804D02*
X901700Y856996D01*
X927100Y856996D02*
X927100Y844804D01*
X1054100Y844804D02*
X1054100Y856996D01*
X1054100Y921004D02*
X1054100Y933196D01*
X952500Y856996D02*
X952500Y844804D01*
X977900Y844804D02*
X977900Y856996D01*
X1028700Y856996D02*
X1028700Y844804D01*
X1003300Y844804D02*
X1003300Y856996D01*
X1028700Y921004D02*
X1028700Y933196D01*
X1003300Y933196D02*
X1003300Y921004D01*
X977900Y921004D02*
X977900Y933196D01*
X952500Y933196D02*
X952500Y921004D01*
X927100Y921004D02*
X927100Y933196D01*
X901700Y933196D02*
X901700Y921004D01*
X508000Y348996D02*
X508000Y336804D01*
X533400Y336804D02*
X533400Y348996D01*
X660400Y348996D02*
X660400Y336804D01*
X685800Y336804D02*
X685800Y348996D01*
X558800Y348996D02*
X558800Y336804D01*
X584200Y336804D02*
X584200Y348996D01*
X635000Y348996D02*
X635000Y336804D01*
X609600Y336804D02*
X609600Y348996D01*
X711200Y348996D02*
X711200Y336804D01*
X736600Y336804D02*
X736600Y348996D01*
X736600Y413004D02*
X736600Y425196D01*
X711200Y425196D02*
X711200Y413004D01*
X685800Y413004D02*
X685800Y425196D01*
X660400Y425196D02*
X660400Y413004D01*
X635000Y413004D02*
X635000Y425196D01*
X609600Y425196D02*
X609600Y413004D01*
X584200Y413004D02*
X584200Y425196D01*
X558800Y425196D02*
X558800Y413004D01*
X533400Y413004D02*
X533400Y425196D01*
X508000Y425196D02*
X508000Y413004D01*
X825500Y348996D02*
X825500Y336804D01*
X850900Y336804D02*
X850900Y348996D01*
X977900Y348996D02*
X977900Y336804D01*
X1003300Y336804D02*
X1003300Y348996D01*
X876300Y348996D02*
X876300Y336804D01*
X901700Y336804D02*
X901700Y348996D01*
X952500Y348996D02*
X952500Y336804D01*
X927100Y336804D02*
X927100Y348996D01*
X1028700Y348996D02*
X1028700Y336804D01*
X1054100Y336804D02*
X1054100Y348996D01*
X1054100Y413004D02*
X1054100Y425196D01*
X1028700Y425196D02*
X1028700Y413004D01*
X1003300Y413004D02*
X1003300Y425196D01*
X977900Y425196D02*
X977900Y413004D01*
X952500Y413004D02*
X952500Y425196D01*
X927100Y425196D02*
X927100Y413004D01*
X901700Y413004D02*
X901700Y425196D01*
X876300Y425196D02*
X876300Y413004D01*
X850900Y413004D02*
X850900Y425196D01*
X825500Y425196D02*
X825500Y413004D01*
X508000Y959104D02*
X508000Y971296D01*
X533400Y971296D02*
X533400Y959104D01*
X660400Y959104D02*
X660400Y971296D01*
X685800Y971296D02*
X685800Y959104D01*
X558800Y959104D02*
X558800Y971296D01*
X584200Y971296D02*
X584200Y959104D01*
X635000Y959104D02*
X635000Y971296D01*
X609600Y971296D02*
X609600Y959104D01*
X711200Y959104D02*
X711200Y971296D01*
X736600Y971296D02*
X736600Y959104D01*
X736600Y1035304D02*
X736600Y1047496D01*
X711200Y1047496D02*
X711200Y1035304D01*
X685800Y1035304D02*
X685800Y1047496D01*
X660400Y1047496D02*
X660400Y1035304D01*
X635000Y1035304D02*
X635000Y1047496D01*
X609600Y1047496D02*
X609600Y1035304D01*
X584200Y1035304D02*
X584200Y1047496D01*
X558800Y1047496D02*
X558800Y1035304D01*
X533400Y1035304D02*
X533400Y1047496D01*
X508000Y1047496D02*
X508000Y1035304D01*
X901700Y602996D02*
X901700Y590804D01*
X927100Y590804D02*
X927100Y602996D01*
X1054100Y602996D02*
X1054100Y590804D01*
X1054100Y667004D02*
X1054100Y679196D01*
X952500Y602996D02*
X952500Y590804D01*
X977900Y590804D02*
X977900Y602996D01*
X1028700Y602996D02*
X1028700Y590804D01*
X1003300Y590804D02*
X1003300Y602996D01*
X1028700Y667004D02*
X1028700Y679196D01*
X1003300Y679196D02*
X1003300Y667004D01*
X977900Y667004D02*
X977900Y679196D01*
X952500Y679196D02*
X952500Y667004D01*
X927100Y667004D02*
X927100Y679196D01*
X901700Y679196D02*
X901700Y667004D01*
X901700Y475996D02*
X901700Y463804D01*
X927100Y463804D02*
X927100Y475996D01*
X1054100Y475996D02*
X1054100Y463804D01*
X1054100Y540004D02*
X1054100Y552196D01*
X952500Y475996D02*
X952500Y463804D01*
X977900Y463804D02*
X977900Y475996D01*
X1028700Y475996D02*
X1028700Y463804D01*
X1003300Y463804D02*
X1003300Y475996D01*
X1028700Y540004D02*
X1028700Y552196D01*
X1003300Y552196D02*
X1003300Y540004D01*
X977900Y540004D02*
X977900Y552196D01*
X952500Y552196D02*
X952500Y540004D01*
X927100Y540004D02*
X927100Y552196D01*
X901700Y552196D02*
X901700Y540004D01*
X901700Y971804D02*
X901700Y983996D01*
X927100Y983996D02*
X927100Y971804D01*
X1054100Y971804D02*
X1054100Y983996D01*
X1054100Y1048004D02*
X1054100Y1060196D01*
X952500Y983996D02*
X952500Y971804D01*
X977900Y971804D02*
X977900Y983996D01*
X1028700Y983996D02*
X1028700Y971804D01*
X1003300Y971804D02*
X1003300Y983996D01*
X1028700Y1048004D02*
X1028700Y1060196D01*
X1003300Y1060196D02*
X1003300Y1048004D01*
X977900Y1048004D02*
X977900Y1060196D01*
X952500Y1060196D02*
X952500Y1048004D01*
X927100Y1048004D02*
X927100Y1060196D01*
X901700Y1060196D02*
X901700Y1048004D01*
X1485900Y221996D02*
X1485900Y209804D01*
X1511300Y209804D02*
X1511300Y221996D01*
X1638300Y221996D02*
X1638300Y209804D01*
X1638300Y286004D02*
X1638300Y298196D01*
X1536700Y221996D02*
X1536700Y209804D01*
X1562100Y209804D02*
X1562100Y221996D01*
X1612900Y221996D02*
X1612900Y209804D01*
X1587500Y209804D02*
X1587500Y221996D01*
X1612900Y286004D02*
X1612900Y298196D01*
X1587500Y298196D02*
X1587500Y286004D01*
X1562100Y286004D02*
X1562100Y298196D01*
X1536700Y298196D02*
X1536700Y286004D01*
X1511300Y286004D02*
X1511300Y298196D01*
X1485900Y298196D02*
X1485900Y286004D01*
X1485900Y336804D02*
X1485900Y348996D01*
X1511300Y348996D02*
X1511300Y336804D01*
X1638300Y336804D02*
X1638300Y348996D01*
X1638300Y413004D02*
X1638300Y425196D01*
X1536700Y348996D02*
X1536700Y336804D01*
X1562100Y336804D02*
X1562100Y348996D01*
X1612900Y348996D02*
X1612900Y336804D01*
X1587500Y336804D02*
X1587500Y348996D01*
X1612900Y413004D02*
X1612900Y425196D01*
X1587500Y425196D02*
X1587500Y413004D01*
X1562100Y413004D02*
X1562100Y425196D01*
X1536700Y425196D02*
X1536700Y413004D01*
X1511300Y413004D02*
X1511300Y425196D01*
X1485900Y425196D02*
X1485900Y413004D01*
X1168400Y348996D02*
X1168400Y336804D01*
X1193800Y336804D02*
X1193800Y348996D01*
X1320800Y348996D02*
X1320800Y336804D01*
X1320800Y413004D02*
X1320800Y425196D01*
X1219200Y348996D02*
X1219200Y336804D01*
X1244600Y336804D02*
X1244600Y348996D01*
X1295400Y348996D02*
X1295400Y336804D01*
X1270000Y336804D02*
X1270000Y348996D01*
X1295400Y413004D02*
X1295400Y425196D01*
X1270000Y425196D02*
X1270000Y413004D01*
X1244600Y413004D02*
X1244600Y425196D01*
X1219200Y425196D02*
X1219200Y413004D01*
X1193800Y413004D02*
X1193800Y425196D01*
X1168400Y425196D02*
X1168400Y413004D01*
X1168400Y94996D02*
X1168400Y82804D01*
X1193800Y82804D02*
X1193800Y94996D01*
X1320800Y94996D02*
X1320800Y82804D01*
X1320800Y159004D02*
X1320800Y171196D01*
X1219200Y94996D02*
X1219200Y82804D01*
X1244600Y82804D02*
X1244600Y94996D01*
X1295400Y94996D02*
X1295400Y82804D01*
X1270000Y82804D02*
X1270000Y94996D01*
X1295400Y159004D02*
X1295400Y171196D01*
X1270000Y171196D02*
X1270000Y159004D01*
X1244600Y159004D02*
X1244600Y171196D01*
X1219200Y171196D02*
X1219200Y159004D01*
X1193800Y159004D02*
X1193800Y171196D01*
X1168400Y171196D02*
X1168400Y159004D01*
X1460500Y463804D02*
X1460500Y475996D01*
X1485900Y475996D02*
X1485900Y463804D01*
X1612900Y463804D02*
X1612900Y475996D01*
X1638300Y475996D02*
X1638300Y463804D01*
X1511300Y463804D02*
X1511300Y475996D01*
X1536700Y475996D02*
X1536700Y463804D01*
X1587500Y463804D02*
X1587500Y475996D01*
X1562100Y475996D02*
X1562100Y463804D01*
X1638300Y540004D02*
X1638300Y552196D01*
X1612900Y552196D02*
X1612900Y540004D01*
X1587500Y540004D02*
X1587500Y552196D01*
X1562100Y552196D02*
X1562100Y540004D01*
X1536700Y540004D02*
X1536700Y552196D01*
X1511300Y552196D02*
X1511300Y540004D01*
X1485900Y540004D02*
X1485900Y552196D01*
X1460500Y552196D02*
X1460500Y540004D01*
D11*
X482600Y749300D03*
X482600Y774700D03*
X482600Y622300D03*
X482600Y647700D03*
D12*
X1714500Y635000D03*
X1714500Y609600D03*
X1714500Y584200D03*
X1714500Y558800D03*
X1714500Y533400D03*
X1739900Y635000D03*
X1739900Y609600D03*
X1739900Y584200D03*
X1739900Y558800D03*
X1739900Y533400D03*
D13*
X50800Y177800D03*
X50800Y203200D03*
X50800Y228600D03*
X50800Y254000D03*
X50800Y279400D03*
X50800Y304800D03*
X50800Y330200D03*
X50800Y355600D03*
X50800Y381000D03*
X50800Y406400D03*
X50800Y431800D03*
X50800Y457200D03*
X50800Y482600D03*
X50800Y508000D03*
X50800Y533400D03*
X50800Y558800D03*
X76200Y177800D03*
X76200Y203200D03*
X76200Y228600D03*
X76200Y254000D03*
X76200Y279400D03*
X76200Y304800D03*
X76200Y330200D03*
X76200Y355600D03*
X76200Y381000D03*
X76200Y406400D03*
X76200Y431800D03*
X76200Y457200D03*
X76200Y482600D03*
X76200Y508000D03*
X76200Y533400D03*
X76200Y558800D03*
X101600Y177800D03*
X101600Y203200D03*
X101600Y228600D03*
X101600Y254000D03*
X101600Y279400D03*
X101600Y304800D03*
X101600Y330200D03*
X101600Y355600D03*
X101600Y381000D03*
X101600Y406400D03*
X101600Y431800D03*
X101600Y457200D03*
X101600Y482600D03*
X101600Y508000D03*
X101600Y533400D03*
X101600Y558800D03*
X50800Y584200D03*
X50800Y609600D03*
X50800Y635000D03*
X50800Y660400D03*
X50800Y685800D03*
X50800Y711200D03*
X50800Y736600D03*
X50800Y762000D03*
X50800Y787400D03*
X50800Y812800D03*
X50800Y838200D03*
X50800Y863600D03*
X50800Y889000D03*
X50800Y914400D03*
X50800Y939800D03*
X50800Y965200D03*
X76200Y584200D03*
X76200Y609600D03*
X76200Y635000D03*
X76200Y660400D03*
X76200Y685800D03*
X76200Y711200D03*
X76200Y736600D03*
X76200Y762000D03*
X76200Y787400D03*
X76200Y812800D03*
X76200Y838200D03*
X76200Y863600D03*
X76200Y889000D03*
X76200Y914400D03*
X76200Y939800D03*
X76200Y965200D03*
X101600Y584200D03*
X101600Y609600D03*
X101600Y635000D03*
X101600Y660400D03*
X101600Y685800D03*
X101600Y711200D03*
X101600Y736600D03*
X101600Y762000D03*
X101600Y787400D03*
X101600Y812800D03*
X101600Y838200D03*
X101600Y863600D03*
X101600Y889000D03*
X101600Y914400D03*
X101600Y939800D03*
X101600Y965200D03*
D14*
X1752600Y38100D03*
X1727200Y38100D03*
D15*
X1549400Y38100D03*
X1651000Y38100D03*
D16*
X101600Y55880D02*
X101600Y71120D01*
X127000Y71120D02*
X127000Y55880D01*
X152400Y55880D02*
X152400Y71120D01*
D17*
X241300Y546100D02*
X257175Y561975D01*
X508000Y561975D01*
X539750Y654050D02*
X558800Y673100D01*
X860425Y434975D02*
X876300Y419100D01*
X860425Y434975D02*
X574675Y434975D01*
X558800Y419100D01*
X1371600Y1016000D02*
X1374775Y1019175D01*
X1371600Y1016000D02*
X1155700Y1016000D01*
X1123950Y1047750D01*
D18*
X508000Y561975D03*
X539750Y654050D03*
X1374775Y1019175D03*
X1123950Y1047750D03*
D17*
X584200Y469900D02*
X596900Y457200D01*
X307975Y473075D02*
X295275Y485775D01*
X307975Y473075D02*
X307975Y460375D01*
X314325Y454025D01*
X568325Y454025D01*
X584200Y469900D01*
X908050Y438150D02*
X927100Y419100D01*
X908050Y438150D02*
X558800Y438150D01*
X549275Y428625D01*
X549275Y403225D01*
X593725Y403225D01*
X609600Y419100D01*
X609600Y673100D02*
X590550Y692150D01*
X1485900Y952500D02*
X1511300Y927100D01*
X1485900Y952500D02*
X1330325Y952500D01*
D18*
X596900Y457200D03*
X295275Y485775D03*
X590550Y692150D03*
X1330325Y952500D03*
D17*
X657225Y447675D02*
X635000Y469900D01*
X339725Y501650D02*
X339725Y517525D01*
X339725Y501650D02*
X476250Y501650D01*
X479425Y504825D01*
X615950Y504825D01*
X641350Y654050D02*
X660400Y673100D01*
X962025Y403225D02*
X977900Y419100D01*
X962025Y403225D02*
X809625Y403225D01*
X806450Y406400D01*
X742950Y406400D01*
X739775Y403225D01*
X676275Y403225D01*
X660400Y419100D01*
X1238250Y1079500D02*
X1231900Y1085850D01*
X714375Y1085850D01*
D18*
X657225Y447675D03*
X339725Y517525D03*
X615950Y504825D03*
X641350Y654050D03*
X1238250Y1079500D03*
X714375Y1085850D03*
D17*
X393700Y546100D02*
X409575Y530225D01*
X508000Y530225D01*
X514350Y523875D01*
X615950Y523875D01*
X622300Y530225D01*
X663575Y530225D01*
X673100Y539750D01*
X685800Y469900D02*
X708025Y447675D01*
X1009650Y400050D02*
X1028700Y419100D01*
X1009650Y400050D02*
X806450Y400050D01*
X803275Y403225D01*
X746125Y403225D01*
X739775Y396875D01*
X714375Y396875D01*
X711200Y673100D02*
X695325Y688975D01*
X688975Y688975D01*
X1558925Y746125D02*
X1612900Y800100D01*
X1558925Y746125D02*
X1438275Y746125D01*
X1419225Y504825D02*
X1403350Y488950D01*
X1219200Y488950D01*
X1203325Y473075D01*
X1203325Y434975D01*
X1044575Y434975D01*
X1028700Y419100D01*
D18*
X673100Y539750D03*
X708025Y447675D03*
X714375Y396875D03*
X688975Y688975D03*
X1438275Y746125D03*
X1419225Y504825D03*
D17*
X612775Y508000D02*
X396875Y508000D01*
X612775Y508000D02*
X628650Y523875D01*
X682625Y523875D01*
X695325Y536575D02*
X701675Y542925D01*
X695325Y536575D02*
X682625Y523875D01*
X701675Y542925D02*
X701675Y561975D01*
X720725Y561975D01*
X736600Y546100D01*
X720725Y511175D02*
X695325Y536575D01*
X727075Y581025D02*
X711200Y596900D01*
X727075Y581025D02*
X733425Y581025D01*
X1022350Y241300D02*
X1016000Y234950D01*
X882650Y234950D01*
X879475Y231775D01*
X873125Y231775D01*
X860425Y244475D01*
X739775Y244475D01*
X1603375Y660400D02*
X1603375Y685800D01*
X1603375Y660400D02*
X1593850Y660400D01*
X1590675Y657225D01*
X1019175Y657225D01*
D18*
X396875Y508000D03*
X720725Y511175D03*
X733425Y581025D03*
X1022350Y241300D03*
X739775Y244475D03*
X1603375Y685800D03*
X1019175Y657225D03*
D17*
X352425Y514350D02*
X346075Y508000D01*
X352425Y514350D02*
X476250Y514350D01*
X479425Y511175D01*
X609600Y511175D01*
X625475Y527050D01*
X666750Y527050D01*
X669925Y530225D02*
X685800Y546100D01*
X669925Y530225D02*
X666750Y527050D01*
X676275Y581025D02*
X660400Y596900D01*
X676275Y581025D02*
X682625Y581025D01*
X660400Y342900D02*
X676275Y327025D01*
X962025Y327025D01*
X977900Y342900D01*
X1546225Y323850D02*
X1546225Y406400D01*
X1546225Y323850D02*
X996950Y323850D01*
X977900Y342900D01*
D18*
X346075Y508000D03*
X682625Y581025D03*
X650875Y688975D03*
X1546225Y406400D03*
X669925Y530225D03*
D17*
X635000Y939800D02*
X609600Y965200D01*
X635000Y939800D02*
X635000Y927100D01*
X292100Y469900D02*
X311150Y450850D01*
X609600Y450850D01*
X628650Y577850D02*
X609600Y596900D01*
X917575Y323850D02*
X920750Y320675D01*
X917575Y323850D02*
X628650Y323850D01*
X609600Y342900D01*
X1495425Y866775D02*
X1511300Y850900D01*
X1495425Y866775D02*
X1431925Y866775D01*
X1352550Y946150D01*
X1031875Y946150D01*
X1012825Y965200D01*
X1012825Y996950D01*
X882650Y996950D01*
X879475Y993775D01*
X654050Y993775D01*
D18*
X609600Y450850D03*
X628650Y577850D03*
X920750Y320675D03*
X654050Y993775D03*
D17*
X584200Y939800D02*
X558800Y965200D01*
X584200Y939800D02*
X584200Y927100D01*
X263525Y492125D02*
X241300Y469900D01*
X263525Y492125D02*
X473075Y492125D01*
X479425Y485775D01*
X485775Y485775D01*
X498475Y498475D01*
X577850Y498475D01*
X577850Y577850D02*
X558800Y596900D01*
X860425Y358775D02*
X876300Y342900D01*
X860425Y358775D02*
X768350Y358775D01*
X762000Y365125D01*
X536575Y365125D01*
X523875Y352425D01*
X523875Y327025D01*
X542925Y327025D01*
X558800Y342900D01*
X1444625Y835025D02*
X1460500Y850900D01*
X1444625Y835025D02*
X1431925Y835025D01*
X1422400Y844550D01*
X1422400Y869950D01*
X1419225Y869950D01*
X1403350Y885825D01*
X1365250Y885825D01*
X1362075Y882650D01*
X1123950Y882650D01*
X1120775Y885825D01*
X898525Y885825D01*
X892175Y892175D01*
X612775Y892175D01*
D18*
X577850Y498475D03*
X577850Y577850D03*
X612775Y892175D03*
D17*
X434975Y434975D02*
X419100Y419100D01*
X434975Y434975D02*
X504825Y434975D01*
X1152525Y739775D02*
X1168400Y723900D01*
X1152525Y739775D02*
X866775Y739775D01*
X850900Y723900D01*
X549275Y739775D02*
X533400Y723900D01*
X549275Y739775D02*
X790575Y739775D01*
X793750Y736600D01*
X819150Y736600D01*
X822325Y739775D01*
X866775Y739775D01*
X1587500Y1012825D02*
X1587500Y1054100D01*
X1587500Y1012825D02*
X1184275Y1012825D01*
X1158875Y987425D01*
X1158875Y962025D01*
X1177925Y962025D01*
X1193800Y977900D01*
D18*
X504825Y434975D03*
D17*
X390525Y441325D02*
X368300Y419100D01*
X390525Y441325D02*
X971550Y441325D01*
X600075Y708025D02*
X584200Y723900D01*
X600075Y708025D02*
X911225Y708025D01*
X927100Y723900D01*
X1228725Y708025D02*
X1244600Y723900D01*
X968375Y708025D02*
X911225Y708025D01*
X968375Y708025D02*
X1228725Y708025D01*
X1670050Y704850D02*
X1739900Y635000D01*
X1670050Y704850D02*
X1339850Y704850D01*
X1336675Y708025D01*
X1228725Y708025D01*
D18*
X971550Y441325D03*
X968375Y708025D03*
D17*
X1622425Y619125D02*
X1730375Y619125D01*
X1622425Y619125D02*
X1492250Y619125D01*
X1730375Y619125D02*
X1739900Y609600D01*
X273050Y311150D02*
X241300Y342900D01*
X273050Y311150D02*
X317500Y311150D01*
X333375Y295275D01*
X333375Y257175D01*
X981075Y257175D01*
X984250Y254000D01*
X1000125Y254000D01*
X1006475Y260350D01*
X1006475Y266700D01*
X958850Y266700D01*
X695325Y695325D02*
X688975Y701675D01*
X695325Y695325D02*
X942975Y695325D01*
X949325Y701675D02*
X1025525Y701675D01*
X949325Y701675D02*
X942975Y695325D01*
X1203325Y815975D02*
X1219200Y800100D01*
X1203325Y815975D02*
X1101725Y815975D01*
X1031875Y746125D01*
X1622425Y682625D02*
X1622425Y619125D01*
X1622425Y682625D02*
X1612900Y692150D01*
X1035050Y692150D01*
X1025525Y701675D01*
D18*
X1492250Y619125D03*
X958850Y266700D03*
X688975Y701675D03*
X942975Y695325D03*
X1025525Y701675D03*
X1031875Y746125D03*
D17*
X1006475Y777875D02*
X1028700Y800100D01*
X1006475Y777875D02*
X962025Y777875D01*
X1168400Y596900D02*
X1184275Y612775D01*
X1304925Y612775D02*
X1495425Y612775D01*
X1304925Y612775D02*
X1184275Y612775D01*
X1495425Y612775D02*
X1511300Y596900D01*
X1304925Y612775D02*
X1304925Y631825D01*
X1714500Y584200D02*
X1724025Y574675D01*
X1746250Y574675D01*
X1749425Y577850D01*
X1749425Y596900D01*
X1663700Y596900D01*
X1644650Y615950D01*
X1530350Y615950D01*
X1511300Y596900D01*
X965200Y612775D02*
X962025Y609600D01*
X965200Y612775D02*
X1184275Y612775D01*
X733425Y765175D02*
X730250Y768350D01*
X733425Y765175D02*
X803275Y765175D01*
X819150Y781050D01*
X958850Y781050D01*
X962025Y777875D01*
D18*
X962025Y777875D03*
X1304925Y631825D03*
X962025Y609600D03*
X730250Y768350D03*
D17*
X1244600Y596900D02*
X1260475Y581025D01*
X1520825Y581025D01*
X1536700Y596900D01*
X1730375Y593725D02*
X1739900Y584200D01*
X1730375Y593725D02*
X1660525Y593725D01*
X1641475Y612775D01*
X1552575Y612775D01*
X1536700Y596900D01*
X962025Y485775D02*
X917575Y485775D01*
X901700Y469900D01*
X952500Y800100D02*
X936625Y815975D01*
X914400Y815975D01*
X911225Y812800D01*
X695325Y495300D02*
X698500Y492125D01*
X866775Y492125D01*
X889000Y469900D01*
X901700Y469900D01*
X1114425Y504825D02*
X1241425Y504825D01*
X1114425Y504825D02*
X1098550Y488950D01*
X965200Y488950D01*
X962025Y485775D01*
D18*
X962025Y485775D03*
X911225Y812800D03*
X695325Y495300D03*
X1241425Y504825D03*
D17*
X1606550Y577850D02*
X1616075Y568325D01*
X1606550Y577850D02*
X1587500Y596900D01*
X1616075Y568325D02*
X1730375Y568325D01*
X1739900Y558800D01*
X1241425Y577850D02*
X1235075Y584200D01*
X1241425Y577850D02*
X1606550Y577850D01*
X600075Y815975D02*
X584200Y800100D01*
X600075Y815975D02*
X835025Y815975D01*
X850900Y800100D01*
X568325Y238125D02*
X571500Y234950D01*
X857250Y234950D01*
X895350Y196850D01*
X949325Y196850D01*
X879475Y771525D02*
X876300Y774700D01*
X879475Y771525D02*
X1025525Y771525D01*
X1231900Y581025D02*
X1235075Y584200D01*
X1231900Y581025D02*
X1057275Y581025D01*
D18*
X1235075Y584200D03*
X568325Y238125D03*
X949325Y196850D03*
X876300Y774700D03*
X1025525Y771525D03*
X1057275Y581025D03*
D17*
X1244600Y850900D02*
X1228725Y866775D01*
X942975Y866775D01*
X927100Y850900D01*
X311150Y107950D02*
X292100Y88900D01*
X311150Y107950D02*
X365125Y107950D01*
X511175Y574675D02*
X533400Y596900D01*
X492125Y574675D02*
X400050Y574675D01*
X492125Y574675D02*
X511175Y574675D01*
X527050Y768350D02*
X558800Y800100D01*
X527050Y768350D02*
X492125Y768350D01*
X492125Y593725D02*
X492125Y574675D01*
X892175Y885825D02*
X927100Y850900D01*
X892175Y885825D02*
X517525Y885825D01*
D18*
X365125Y107950D03*
X400050Y574675D03*
X492125Y768350D03*
X492125Y593725D03*
X517525Y885825D03*
D17*
X1003300Y850900D02*
X1022350Y831850D01*
X1174750Y831850D01*
X1193800Y850900D01*
X327025Y403225D02*
X317500Y403225D01*
X327025Y403225D02*
X342900Y419100D01*
X282575Y774700D02*
X273050Y784225D01*
X336550Y774700D02*
X444500Y774700D01*
X336550Y774700D02*
X282575Y774700D01*
X444500Y774700D02*
X457200Y762000D01*
X571500Y762000D01*
X609600Y800100D01*
X336550Y774700D02*
X336550Y765175D01*
X990600Y768350D02*
X993775Y765175D01*
X990600Y768350D02*
X812800Y768350D01*
X806450Y762000D01*
X647700Y762000D01*
X609600Y800100D01*
D18*
X317500Y403225D03*
X273050Y784225D03*
X336550Y765175D03*
X993775Y765175D03*
D17*
X279400Y434975D02*
X257175Y457200D01*
X279400Y434975D02*
X301625Y434975D01*
X317500Y419100D01*
X635000Y596900D02*
X650875Y581025D01*
X657225Y581025D01*
X1003300Y927100D02*
X1019175Y942975D01*
X1177925Y942975D01*
X1193800Y927100D01*
X663575Y574675D02*
X657225Y581025D01*
X663575Y574675D02*
X739775Y574675D01*
X746125Y581025D01*
X892175Y581025D01*
X895350Y577850D01*
X962025Y577850D01*
X965200Y581025D01*
X996950Y581025D01*
X279400Y873125D02*
X276225Y876300D01*
X279400Y873125D02*
X466725Y873125D01*
X514350Y825500D01*
X654050Y825500D01*
D18*
X257175Y457200D03*
X657225Y581025D03*
X996950Y581025D03*
X276225Y876300D03*
X654050Y825500D03*
D17*
X333375Y396875D02*
X288925Y396875D01*
X266700Y419100D01*
X688975Y641350D02*
X857250Y641350D01*
X873125Y657225D01*
X911225Y657225D01*
X927100Y673100D01*
X1225550Y892175D02*
X1238250Y904875D01*
X1225550Y892175D02*
X946150Y892175D01*
X476250Y654050D02*
X327025Y654050D01*
X476250Y654050D02*
X479425Y657225D01*
X504825Y657225D01*
X520700Y641350D01*
X688975Y641350D01*
D18*
X333375Y396875D03*
X688975Y641350D03*
X1238250Y904875D03*
X946150Y892175D03*
X327025Y654050D03*
D17*
X393700Y107950D02*
X409575Y92075D01*
X409575Y73025D01*
X720725Y73025D02*
X911225Y73025D01*
X720725Y73025D02*
X409575Y73025D01*
X911225Y73025D02*
X927100Y88900D01*
X736600Y673100D02*
X720725Y688975D01*
X714375Y688975D01*
X911225Y530225D02*
X927100Y546100D01*
X911225Y530225D02*
X889000Y530225D01*
X885825Y533400D01*
X742950Y533400D01*
X739775Y530225D01*
X711200Y530225D01*
X1231900Y565150D02*
X1235075Y568325D01*
X1231900Y565150D02*
X946150Y565150D01*
X927100Y546100D01*
X381000Y1079500D02*
X342900Y1041400D01*
X381000Y1079500D02*
X720725Y1079500D01*
D18*
X393700Y107950D03*
X714375Y688975D03*
X711200Y530225D03*
X1235075Y568325D03*
X720725Y1079500D03*
X720725Y73025D03*
D17*
X685800Y673100D02*
X669925Y688975D01*
X663575Y688975D01*
X942975Y454025D02*
X949325Y447675D01*
X942975Y454025D02*
X927100Y469900D01*
X987425Y447675D02*
X1171575Y447675D01*
X987425Y447675D02*
X949325Y447675D01*
X1171575Y447675D02*
X1193800Y469900D01*
X987425Y447675D02*
X987425Y444500D01*
X863600Y488950D02*
X650875Y488950D01*
X863600Y488950D02*
X898525Y454025D01*
X942975Y454025D01*
X882650Y1073150D02*
X885825Y1076325D01*
X882650Y1073150D02*
X400050Y1073150D01*
X368300Y1041400D01*
X650875Y488950D02*
X647700Y485775D01*
X492125Y485775D01*
X488950Y482600D01*
X425450Y482600D01*
X422275Y485775D01*
X377825Y485775D01*
D18*
X663575Y688975D03*
X987425Y444500D03*
X650875Y488950D03*
X885825Y1076325D03*
X377825Y485775D03*
D17*
X612775Y695325D02*
X635000Y673100D01*
X987425Y993775D02*
X1003300Y977900D01*
X987425Y993775D02*
X885825Y993775D01*
X879475Y987425D01*
X596900Y987425D02*
X498475Y987425D01*
X596900Y987425D02*
X879475Y987425D01*
X498475Y987425D02*
X463550Y1022350D01*
X412750Y1022350D01*
X393700Y1041400D01*
X596900Y987425D02*
X596900Y917575D01*
X1019175Y485775D02*
X1003300Y469900D01*
X1041400Y485775D02*
X1139825Y485775D01*
X1041400Y485775D02*
X1019175Y485775D01*
X358775Y149225D02*
X342900Y165100D01*
X358775Y149225D02*
X596900Y149225D01*
X600075Y146050D01*
X869950Y146050D01*
X873125Y149225D01*
X892175Y149225D01*
X895350Y146050D01*
X984250Y146050D01*
X1000125Y161925D01*
X631825Y184150D02*
X625475Y190500D01*
X631825Y184150D02*
X977900Y184150D01*
X1000125Y161925D01*
X1003300Y165100D01*
X1041400Y457200D02*
X1041400Y485775D01*
D18*
X612775Y695325D03*
X596900Y917575D03*
X1139825Y485775D03*
X625475Y190500D03*
X1041400Y457200D03*
D17*
X584200Y673100D02*
X584200Y708025D01*
X574675Y708025D01*
X558800Y723900D01*
X968375Y1019175D02*
X1003300Y1054100D01*
X968375Y1019175D02*
X663575Y1019175D01*
X644525Y1038225D01*
X644525Y1057275D01*
X606425Y1057275D01*
X593725Y1044575D01*
X593725Y1025525D01*
X552450Y1025525D02*
X434975Y1025525D01*
X552450Y1025525D02*
X593725Y1025525D01*
X434975Y1025525D02*
X419100Y1041400D01*
X552450Y1025525D02*
X552450Y993775D01*
X1003300Y546100D02*
X1019175Y561975D01*
X1108075Y561975D01*
X1146175Y523875D01*
X1241425Y523875D01*
X333375Y180975D02*
X317500Y165100D01*
X593725Y180975D02*
X911225Y180975D01*
X593725Y180975D02*
X333375Y180975D01*
X911225Y180975D02*
X927100Y165100D01*
X593725Y180975D02*
X593725Y190500D01*
X987425Y561975D02*
X1003300Y546100D01*
X987425Y561975D02*
X949325Y561975D01*
X936625Y549275D01*
X936625Y527050D01*
X885825Y527050D01*
X609600Y647700D02*
X584200Y673100D01*
X609600Y647700D02*
X822325Y647700D01*
D18*
X552450Y993775D03*
X1241425Y523875D03*
X593725Y190500D03*
X885825Y527050D03*
X822325Y647700D03*
D17*
X1203325Y873125D02*
X1206500Y869950D01*
X1250950Y869950D01*
X1270000Y850900D01*
D18*
X1203325Y873125D03*
D17*
X1270000Y469900D02*
X1254125Y454025D01*
X1247775Y454025D01*
D18*
X1247775Y454025D03*
D17*
X1168400Y546100D02*
X1184275Y561975D01*
X1289050Y561975D01*
D18*
X1289050Y561975D03*
D17*
X1235075Y835025D02*
X1219200Y850900D01*
X1235075Y835025D02*
X1273175Y835025D01*
X1285875Y847725D01*
X1285875Y866775D01*
X1416050Y866775D01*
D18*
X1416050Y866775D03*
D17*
X1187450Y762000D02*
X1146175Y803275D01*
X1187450Y762000D02*
X1482725Y762000D01*
D18*
X1146175Y803275D03*
X1482725Y762000D03*
D17*
X1222375Y742950D02*
X1209675Y755650D01*
X1222375Y742950D02*
X1371600Y742950D01*
X1406525Y708025D01*
X1520825Y708025D01*
X1536700Y723900D01*
D18*
X1209675Y755650D03*
D17*
X1311275Y752475D02*
X1317625Y746125D01*
X1374775Y746125D01*
X1381125Y739775D01*
X1571625Y739775D01*
X1587500Y723900D01*
D18*
X1311275Y752475D03*
D17*
X1235075Y485775D02*
X1219200Y469900D01*
X1235075Y485775D02*
X1495425Y485775D01*
X1539875Y530225D01*
X1625600Y530225D01*
D18*
X1625600Y530225D03*
D17*
X1244600Y758825D02*
X1235075Y749300D01*
X1244600Y758825D02*
X1479550Y758825D01*
X1482725Y755650D01*
X1543050Y755650D01*
X1587500Y800100D01*
D18*
X1235075Y749300D03*
D17*
X1219200Y546100D02*
X1235075Y530225D01*
X1422400Y530225D01*
X1460500Y568325D01*
X1504950Y568325D01*
D18*
X1504950Y568325D03*
D17*
X1317625Y568325D02*
X1295400Y546100D01*
X1317625Y568325D02*
X1454150Y568325D01*
D18*
X1454150Y568325D03*
D17*
X327025Y638175D02*
X292100Y673100D01*
X327025Y638175D02*
X685800Y638175D01*
X692150Y631825D01*
X923925Y631825D01*
X933450Y393700D02*
X936625Y390525D01*
X1133475Y390525D01*
X1165225Y358775D01*
X1177925Y358775D01*
X1193800Y342900D01*
D18*
X923925Y631825D03*
X933450Y393700D03*
D17*
X727075Y828675D02*
X727075Y850900D01*
X711200Y850900D01*
D18*
X727075Y828675D03*
D17*
X676275Y485775D02*
X660400Y469900D01*
X676275Y485775D02*
X742950Y485775D01*
X746125Y482600D01*
X755650Y835025D02*
X777875Y835025D01*
X784225Y828675D01*
X784225Y822325D01*
X688975Y822325D01*
X660400Y850900D01*
X968375Y831850D02*
X974725Y825500D01*
X968375Y831850D02*
X850900Y831850D01*
X838200Y844550D01*
D18*
X746125Y482600D03*
X755650Y835025D03*
X974725Y825500D03*
X838200Y844550D03*
D17*
X898525Y762000D02*
X895350Y758825D01*
X638175Y758825D01*
X631825Y765175D01*
X612775Y765175D01*
D18*
X898525Y762000D03*
X612775Y765175D03*
D17*
X812800Y863600D02*
X850900Y825500D01*
X812800Y863600D02*
X742950Y863600D01*
X739775Y866775D01*
X574675Y866775D01*
X558800Y850900D01*
D18*
X850900Y825500D03*
D17*
X1714500Y609600D02*
X1720850Y603250D01*
X1730375Y603250D01*
X1733550Y600075D01*
X1746250Y600075D01*
X1749425Y603250D01*
X1749425Y914400D01*
X1670050Y914400D01*
X1625600Y958850D01*
X1263650Y958850D01*
X1244600Y977900D01*
X314325Y755650D02*
X304800Y746125D01*
X314325Y755650D02*
X476250Y755650D01*
X479425Y758825D01*
X631825Y758825D01*
X638175Y752475D01*
X784225Y752475D01*
X796925Y739775D01*
X815975Y739775D01*
X822325Y746125D01*
X949325Y746125D01*
X1219200Y952500D02*
X1244600Y977900D01*
X1219200Y952500D02*
X1031875Y952500D01*
D18*
X304800Y746125D03*
X631825Y758825D03*
X949325Y746125D03*
X1031875Y952500D03*
D17*
X609600Y292100D02*
X628650Y273050D01*
X869950Y273050D01*
X873125Y276225D01*
X892175Y276225D01*
X908050Y260350D01*
X984250Y260350D02*
X1000125Y260350D01*
X984250Y260350D02*
X908050Y260350D01*
X650875Y784225D02*
X635000Y800100D01*
X650875Y784225D02*
X911225Y784225D01*
X927100Y800100D01*
X1565275Y565150D02*
X1568450Y561975D01*
X1711325Y561975D01*
X1714500Y558800D01*
X1295400Y673100D02*
X1279525Y688975D01*
X987425Y688975D01*
X1549400Y688975D02*
X1552575Y685800D01*
X1549400Y688975D02*
X1279525Y688975D01*
X942975Y784225D02*
X927100Y800100D01*
X942975Y784225D02*
X974725Y784225D01*
D18*
X1000125Y260350D03*
X1565275Y565150D03*
X987425Y688975D03*
X1552575Y685800D03*
X974725Y784225D03*
X984250Y260350D03*
D17*
X860425Y565150D02*
X866775Y571500D01*
X860425Y565150D02*
X577850Y565150D01*
X558800Y546100D01*
D18*
X866775Y571500D03*
D17*
X841375Y949325D02*
X809625Y981075D01*
X606425Y981075D01*
X600075Y974725D01*
X600075Y927100D01*
X609600Y927100D01*
D18*
X841375Y949325D03*
D17*
X977900Y695325D02*
X971550Y688975D01*
X771525Y688975D01*
X739775Y657225D01*
X669925Y657225D01*
D18*
X977900Y695325D03*
X669925Y657225D03*
D17*
X342900Y342900D02*
X358775Y327025D01*
X371475Y327025D01*
X384175Y339725D01*
X384175Y352425D01*
X393700Y361950D01*
X476250Y361950D01*
X479425Y358775D01*
X498475Y358775D01*
X511175Y371475D01*
X625475Y371475D01*
X628650Y374650D01*
D18*
X628650Y374650D03*
D17*
X403225Y377825D02*
X368300Y342900D01*
X403225Y377825D02*
X590550Y377825D01*
D18*
X590550Y377825D03*
D17*
X409575Y358775D02*
X393700Y342900D01*
X409575Y358775D02*
X463550Y358775D01*
X476250Y346075D01*
D18*
X476250Y346075D03*
D17*
X352425Y307975D02*
X336550Y323850D01*
X266700Y323850D01*
X101600Y558800D02*
X101600Y574675D01*
X95250Y574675D01*
X92075Y577850D01*
X92075Y596900D01*
X241300Y596900D01*
X1511300Y546100D02*
X1536700Y571500D01*
X1606550Y571500D01*
X1343025Y695325D02*
X1336675Y701675D01*
X1343025Y695325D02*
X1616075Y695325D01*
X1638300Y673100D01*
X368300Y323850D02*
X352425Y307975D01*
X368300Y323850D02*
X441325Y323850D01*
X457200Y339725D01*
X485775Y339725D01*
X514350Y368300D01*
X765175Y368300D01*
X790575Y498475D02*
X796925Y504825D01*
X1108075Y504825D01*
X1114425Y511175D01*
X1476375Y511175D01*
X1511300Y546100D01*
D18*
X352425Y307975D03*
X266700Y323850D03*
X1606550Y571500D03*
X1336675Y701675D03*
X765175Y368300D03*
X790575Y498475D03*
D17*
X390525Y520700D02*
X381000Y530225D01*
X155575Y530225D01*
X123825Y561975D02*
X101600Y584200D01*
X123825Y561975D02*
X155575Y530225D01*
X231775Y561975D02*
X266700Y596900D01*
X231775Y561975D02*
X123825Y561975D01*
X1485900Y469900D02*
X1530350Y514350D01*
X1603375Y514350D01*
X1311275Y1038225D02*
X1295400Y1054100D01*
X1311275Y1038225D02*
X1501775Y1038225D01*
X1520825Y1019175D01*
X1568450Y1019175D01*
X282575Y612775D02*
X276225Y619125D01*
X282575Y612775D02*
X371475Y612775D01*
X384175Y600075D01*
X384175Y584200D01*
X387350Y584200D01*
X390525Y581025D01*
X473075Y581025D01*
X504825Y612775D01*
X958850Y612775D01*
X962025Y615950D01*
X1123950Y615950D01*
X1146175Y638175D01*
X1587500Y638175D01*
X1612900Y663575D01*
X1612900Y673100D01*
D18*
X390525Y520700D03*
X1603375Y514350D03*
X1568450Y1019175D03*
X276225Y619125D03*
D17*
X381000Y581025D02*
X390525Y571500D01*
X381000Y581025D02*
X307975Y581025D01*
X292100Y596900D01*
X1473200Y1092200D02*
X1511300Y1054100D01*
X1473200Y1092200D02*
X349250Y1092200D01*
X301625Y1044575D01*
X301625Y962025D01*
X104775Y612775D02*
X101600Y609600D01*
X104775Y612775D02*
X276225Y612775D01*
X292100Y596900D01*
D18*
X390525Y571500D03*
X301625Y962025D03*
D17*
X409575Y612775D02*
X393700Y596900D01*
X409575Y612775D02*
X498475Y612775D01*
X504825Y619125D01*
X822325Y619125D01*
X866775Y377825D02*
X1120775Y377825D01*
X1155700Y342900D01*
X1168400Y342900D01*
D18*
X822325Y619125D03*
X866775Y377825D03*
D17*
X333375Y708025D02*
X323850Y698500D01*
X333375Y708025D02*
X473075Y708025D01*
X511175Y746125D01*
X762000Y746125D01*
D18*
X323850Y698500D03*
X762000Y746125D03*
D17*
X358775Y422275D02*
X336550Y444500D01*
X358775Y422275D02*
X358775Y403225D01*
X517525Y403225D01*
X533400Y419100D01*
D18*
X336550Y444500D03*
D17*
X384175Y657225D02*
X368300Y673100D01*
X384175Y657225D02*
X422275Y657225D01*
X438150Y673100D01*
X447675Y917575D02*
X495300Y965200D01*
X508000Y965200D01*
D18*
X438150Y673100D03*
X447675Y917575D03*
D17*
X406400Y568325D02*
X403225Y565150D01*
X241300Y565150D01*
X222250Y546100D01*
X215900Y546100D01*
D18*
X406400Y568325D03*
D17*
X1362075Y434975D02*
X1406525Y479425D01*
X1362075Y434975D02*
X1241425Y434975D01*
X1228725Y422275D01*
X1228725Y342900D01*
X1219200Y342900D01*
D18*
X1406525Y479425D03*
D17*
X530225Y669925D02*
X514350Y654050D01*
X282575Y688975D02*
X266700Y673100D01*
X282575Y688975D02*
X511175Y688975D01*
X530225Y669925D01*
X533400Y673100D01*
D18*
X514350Y654050D03*
D17*
X307975Y231775D02*
X292100Y215900D01*
X307975Y231775D02*
X523875Y231775D01*
X527050Y228600D01*
X552450Y228600D01*
X555625Y231775D01*
X695325Y231775D01*
X711200Y215900D01*
X282575Y200025D02*
X266700Y215900D01*
X282575Y200025D02*
X669925Y200025D01*
X685800Y215900D01*
X260350Y234950D02*
X241300Y215900D01*
X260350Y234950D02*
X527050Y234950D01*
X530225Y231775D01*
X549275Y231775D01*
X561975Y244475D01*
X574675Y244475D01*
X581025Y238125D01*
X657225Y238125D01*
X660400Y241300D01*
D18*
X660400Y241300D03*
D17*
X593725Y104775D02*
X609600Y88900D01*
X593725Y104775D02*
X403225Y104775D01*
X393700Y114300D01*
X298450Y114300D01*
D18*
X298450Y114300D03*
D17*
X454025Y771525D02*
X447675Y777875D01*
X288925Y777875D01*
X266700Y800100D01*
D18*
X454025Y771525D03*
D17*
X450850Y781050D02*
X463550Y768350D01*
X450850Y781050D02*
X311150Y781050D01*
X292100Y800100D01*
D18*
X463550Y768350D03*
D17*
X654050Y120650D02*
X685800Y88900D01*
X654050Y120650D02*
X606425Y120650D01*
D18*
X606425Y120650D03*
D17*
X695325Y317500D02*
X692150Y320675D01*
X444500Y320675D01*
D18*
X695325Y317500D03*
X444500Y320675D03*
D17*
X371475Y314325D02*
X679450Y314325D01*
D18*
X679450Y314325D03*
X371475Y314325D03*
D17*
X469900Y768350D02*
X454025Y784225D01*
X409575Y784225D01*
X393700Y800100D01*
D18*
X469900Y768350D03*
D17*
X657225Y254000D02*
X650875Y247650D01*
X657225Y254000D02*
X977900Y254000D01*
X981075Y250825D01*
X1216025Y250825D01*
X1241425Y276225D01*
X1260475Y276225D01*
D18*
X650875Y247650D03*
X1260475Y276225D03*
D17*
X307975Y190500D02*
X307975Y130175D01*
X1012825Y130175D01*
X1044575Y161925D01*
X1044575Y187325D01*
X1289050Y187325D01*
D18*
X307975Y190500D03*
X1289050Y187325D03*
D17*
X1228725Y257175D02*
X1203325Y231775D01*
X1228725Y257175D02*
X1552575Y257175D01*
X1587500Y292100D01*
D18*
X1203325Y231775D03*
D17*
X1209675Y784225D02*
X1193800Y800100D01*
X1209675Y784225D02*
X1254125Y784225D01*
X1270000Y800100D01*
X1260475Y231775D02*
X1244600Y215900D01*
X1260475Y231775D02*
X1495425Y231775D01*
X1511300Y215900D01*
X1571625Y231775D02*
X1587500Y215900D01*
X1571625Y231775D02*
X1495425Y231775D01*
X241300Y850900D02*
X225425Y835025D01*
X146050Y835025D01*
D18*
X146050Y835025D03*
D17*
X238125Y822325D02*
X266700Y850900D01*
X238125Y822325D02*
X127000Y822325D01*
X101600Y796925D01*
X44450Y796925D01*
X34925Y787400D01*
X34925Y685800D01*
X50800Y685800D01*
X260350Y819150D02*
X292100Y850900D01*
X260350Y819150D02*
X149225Y819150D01*
X104775Y774700D01*
X41275Y774700D01*
X38100Y771525D01*
X38100Y711200D01*
X50800Y711200D01*
X282575Y815975D02*
X317500Y850900D01*
X282575Y815975D02*
X152400Y815975D01*
X107950Y771525D01*
X44450Y771525D01*
X41275Y768350D01*
X41275Y736600D01*
X50800Y736600D01*
X342900Y758825D02*
X352425Y768350D01*
X342900Y758825D02*
X114300Y758825D01*
X107950Y752475D01*
X60325Y752475D01*
X50800Y762000D01*
D18*
X352425Y768350D03*
D17*
X368300Y850900D02*
X352425Y866775D01*
X174625Y866775D01*
X149225Y841375D01*
X146050Y841375D01*
D18*
X146050Y841375D03*
D17*
X374650Y869950D02*
X393700Y850900D01*
X374650Y869950D02*
X171450Y869950D01*
X149225Y847725D01*
X44450Y847725D01*
X41275Y844550D01*
X41275Y812800D01*
X50800Y812800D01*
X60325Y828675D02*
X200025Y828675D01*
X60325Y828675D02*
X50800Y838200D01*
D18*
X200025Y828675D03*
D17*
X238125Y876300D02*
X228600Y885825D01*
X114300Y885825D01*
X101600Y873125D01*
X60325Y873125D01*
X50800Y863600D01*
D18*
X238125Y876300D03*
D17*
X244475Y876300D02*
X228600Y892175D01*
X114300Y892175D01*
X107950Y898525D01*
X60325Y898525D01*
X50800Y889000D01*
D18*
X244475Y876300D03*
D17*
X292100Y723900D02*
X276225Y708025D01*
X174625Y708025D01*
D18*
X174625Y708025D03*
D17*
X307975Y304800D02*
X307975Y250825D01*
X120650Y250825D01*
X107950Y238125D01*
X85725Y238125D01*
X76200Y228600D01*
D18*
X307975Y304800D03*
D17*
X314325Y695325D02*
X342900Y723900D01*
X314325Y695325D02*
X69850Y695325D01*
X60325Y685800D01*
X60325Y254000D01*
X76200Y254000D01*
X339725Y358775D02*
X358775Y377825D01*
X339725Y358775D02*
X171450Y358775D01*
X101600Y288925D01*
X85725Y288925D01*
X76200Y279400D01*
D18*
X358775Y377825D03*
D17*
X393700Y723900D02*
X377825Y739775D01*
X146050Y739775D01*
X107950Y701675D01*
X69850Y701675D01*
D18*
X69850Y701675D03*
D17*
X1492250Y873125D02*
X1527175Y908050D01*
X1619250Y908050D01*
X1638300Y927100D01*
D18*
X1492250Y873125D03*
D17*
X1524000Y911225D02*
X1571625Y911225D01*
X1587500Y927100D01*
D18*
X1524000Y911225D03*
D17*
X1200150Y1022350D02*
X1168400Y1054100D01*
X1200150Y1022350D02*
X1365250Y1022350D01*
D18*
X1365250Y1022350D03*
D17*
X1216025Y1031875D02*
X1193800Y1054100D01*
X1216025Y1031875D02*
X1374775Y1031875D01*
D18*
X1374775Y1031875D03*
D17*
X1514475Y866775D02*
X1571625Y866775D01*
X1587500Y850900D01*
D18*
X1514475Y866775D03*
D17*
X419100Y822325D02*
X409575Y812800D01*
X419100Y822325D02*
X650875Y822325D01*
X654050Y819150D01*
X1254125Y819150D02*
X1317625Y819150D01*
X1254125Y819150D02*
X654050Y819150D01*
X1317625Y819150D02*
X1327150Y828675D01*
X1387475Y828675D01*
X1409700Y850900D01*
X1254125Y822325D02*
X1254125Y819150D01*
D18*
X409575Y812800D03*
X1254125Y822325D03*
D17*
X1168400Y977900D02*
X1184275Y993775D01*
X1597025Y993775D01*
X1612900Y977900D01*
X1250950Y450850D02*
X1219200Y419100D01*
X1250950Y450850D02*
X1336675Y450850D01*
X101600Y635000D02*
X85725Y619125D01*
X85725Y415925D01*
X225425Y415925D01*
X257175Y384175D01*
X790575Y384175D01*
X796925Y377825D01*
X860425Y377825D01*
X866775Y371475D01*
X1047750Y371475D01*
X1050925Y374650D01*
X1117600Y374650D01*
X1165225Y327025D01*
X1196975Y327025D01*
X1209675Y339725D01*
X1209675Y419100D01*
X1219200Y419100D01*
D18*
X1336675Y450850D03*
D17*
X552450Y361950D02*
X533400Y342900D01*
X552450Y361950D02*
X758825Y361950D01*
X768350Y352425D01*
X777875Y352425D01*
D18*
X777875Y352425D03*
D17*
X600075Y358775D02*
X584200Y342900D01*
X600075Y358775D02*
X739775Y358775D01*
X749300Y349250D01*
X860425Y238125D02*
X869950Y228600D01*
X895350Y228600D01*
X898525Y231775D01*
X1012825Y231775D01*
X1028700Y215900D01*
D18*
X749300Y349250D03*
X860425Y238125D03*
D17*
X654050Y276225D02*
X650875Y279400D01*
X654050Y276225D02*
X866775Y276225D01*
X869950Y279400D01*
X895350Y279400D01*
X898525Y276225D01*
X1038225Y276225D01*
X1054100Y292100D01*
D18*
X650875Y279400D03*
D17*
X717550Y307975D02*
X962025Y307975D01*
X977900Y292100D01*
D18*
X717550Y307975D03*
D17*
X714375Y117475D02*
X727075Y104775D01*
X1012825Y104775D01*
X1028700Y88900D01*
D18*
X714375Y117475D03*
D17*
X666750Y387350D02*
X635000Y419100D01*
X666750Y387350D02*
X793750Y387350D01*
X796925Y384175D01*
X1047750Y384175D01*
D18*
X1047750Y384175D03*
D17*
X603250Y149225D02*
X600075Y152400D01*
X603250Y149225D02*
X866775Y149225D01*
X869950Y152400D01*
X895350Y152400D01*
X898525Y149225D01*
X962025Y149225D01*
X977900Y165100D01*
D18*
X600075Y152400D03*
D17*
X815975Y584200D02*
X812800Y587375D01*
X815975Y584200D02*
X895350Y584200D01*
X898525Y581025D01*
X936625Y581025D01*
X952500Y596900D01*
D18*
X812800Y587375D03*
D17*
X923925Y365125D02*
X901700Y342900D01*
X923925Y365125D02*
X949325Y365125D01*
X965200Y574675D02*
X1006475Y574675D01*
X1028700Y596900D01*
D18*
X949325Y365125D03*
X965200Y574675D03*
D17*
X977900Y368300D02*
X952500Y342900D01*
X977900Y368300D02*
X1050925Y368300D01*
D18*
X1050925Y368300D03*
D17*
X1022350Y361950D02*
X1003300Y342900D01*
X1022350Y361950D02*
X1073150Y361950D01*
X1073150Y622300D02*
X1044575Y650875D01*
X1000125Y650875D01*
X977900Y673100D01*
D18*
X1073150Y361950D03*
X1073150Y622300D03*
D17*
X1038225Y530225D02*
X993775Y530225D01*
X977900Y546100D01*
D18*
X1038225Y530225D03*
D17*
X968375Y454025D02*
X952500Y469900D01*
X968375Y454025D02*
X996950Y454025D01*
D18*
X996950Y454025D03*
D17*
X968375Y434975D02*
X952500Y419100D01*
X968375Y434975D02*
X1025525Y434975D01*
D18*
X1025525Y434975D03*
D17*
X917575Y523875D02*
X908050Y514350D01*
X917575Y523875D02*
X1041400Y523875D01*
X1054100Y536575D01*
X1054100Y546100D01*
D18*
X908050Y514350D03*
D17*
X527050Y876300D02*
X523875Y879475D01*
X527050Y876300D02*
X863600Y876300D01*
X873125Y866775D01*
X904875Y866775D01*
X917575Y854075D01*
X917575Y835025D01*
X936625Y835025D01*
X952500Y850900D01*
D18*
X523875Y879475D03*
D17*
X1060450Y835025D02*
X1063625Y838200D01*
X1060450Y835025D02*
X1044575Y835025D01*
X1028700Y850900D01*
D18*
X1063625Y838200D03*
D17*
X708025Y942975D02*
X685800Y965200D01*
X708025Y942975D02*
X962025Y942975D01*
X977900Y927100D01*
X739775Y1038225D02*
X736600Y1041400D01*
X739775Y1038225D02*
X962025Y1038225D01*
X977900Y1054100D01*
X663575Y1012825D02*
X635000Y1041400D01*
X663575Y1012825D02*
X1003300Y1012825D01*
X1028700Y987425D01*
X1028700Y977900D01*
X612775Y1069975D02*
X584200Y1041400D01*
X612775Y1069975D02*
X1038225Y1069975D01*
X1054100Y1054100D01*
X1536700Y215900D02*
X1520825Y200025D01*
X1498600Y200025D01*
X1495425Y203200D01*
X1362075Y835025D02*
X1311275Y835025D01*
X1295400Y850900D01*
D18*
X1495425Y203200D03*
X1362075Y835025D03*
D17*
X1546225Y149225D02*
X1485900Y88900D01*
X1546225Y149225D02*
X1590675Y149225D01*
X1603375Y161925D01*
X1603375Y215900D01*
X1612900Y215900D01*
X1527175Y962025D02*
X1511300Y977900D01*
X1527175Y962025D02*
X1708150Y962025D01*
X1752600Y917575D01*
X1752600Y542925D01*
X1724025Y542925D01*
X1714500Y533400D01*
X358775Y307975D02*
X342900Y292100D01*
X358775Y307975D02*
X692150Y307975D01*
X698500Y314325D01*
X1114425Y314325D01*
X1558925Y314325D02*
X1587500Y342900D01*
X1558925Y314325D02*
X1114425Y314325D01*
D18*
X1114425Y314325D03*
D17*
X1244600Y419100D02*
X1285875Y377825D01*
X1336675Y377825D01*
D18*
X1336675Y377825D03*
D17*
X1238250Y107950D02*
X1219200Y88900D01*
D18*
X1238250Y107950D03*
D17*
X1358900Y381000D02*
X1320800Y419100D01*
X1358900Y381000D02*
X1498600Y381000D01*
X1536700Y342900D01*
X1536700Y419100D02*
X1571625Y454025D01*
X1597025Y454025D01*
X1612900Y469900D01*
X1536700Y165100D02*
X1406525Y34925D01*
X130175Y34925D01*
X101600Y63500D01*
X104775Y911225D02*
X101600Y914400D01*
X104775Y911225D02*
X1254125Y911225D01*
X1276350Y889000D01*
X1362075Y889000D01*
D18*
X1362075Y889000D03*
D17*
X1511300Y165100D02*
X1470025Y123825D01*
X1136650Y123825D01*
X1073150Y60325D01*
X234950Y60325D01*
X101600Y193675D01*
X44450Y193675D01*
X28575Y209550D01*
X28575Y854075D01*
X92075Y854075D01*
X101600Y863600D01*
X1295400Y215900D02*
X1314450Y196850D01*
X1587500Y196850D01*
X1600200Y209550D01*
X1600200Y276225D01*
X1616075Y276225D01*
X1622425Y282575D01*
X1622425Y403225D01*
X1577975Y403225D01*
X1562100Y419100D01*
X533400Y800100D02*
X514350Y781050D01*
X107950Y692150D02*
X101600Y685800D01*
X107950Y692150D02*
X476250Y692150D01*
X508000Y723900D01*
D18*
X514350Y781050D03*
D17*
X530225Y546100D02*
X514350Y530225D01*
X530225Y546100D02*
X533400Y546100D01*
X1104900Y508000D02*
X1108075Y511175D01*
X1104900Y508000D02*
X723900Y508000D01*
X717550Y501650D01*
X619125Y501650D01*
X609600Y492125D01*
X517525Y492125D01*
X130175Y631825D02*
X101600Y660400D01*
X130175Y631825D02*
X527050Y631825D01*
D18*
X514350Y530225D03*
X1108075Y511175D03*
X517525Y492125D03*
X527050Y631825D03*
D17*
X1193800Y292100D02*
X1209675Y307975D01*
X1279525Y307975D01*
X1295400Y292100D01*
X101600Y212725D02*
X92075Y222250D01*
X101600Y212725D02*
X123825Y212725D01*
X269875Y66675D01*
X409575Y66675D01*
D18*
X92075Y222250D03*
X409575Y66675D03*
D17*
X1549400Y38100D02*
X1558925Y47625D01*
X1743075Y47625D01*
X1752600Y38100D01*
X1231900Y254000D02*
X1193800Y215900D01*
X1231900Y254000D02*
X1571625Y254000D01*
X1609725Y292100D01*
X1612900Y292100D01*
X584200Y241300D02*
X574675Y250825D01*
X584200Y241300D02*
X654050Y241300D01*
X663575Y250825D01*
X974725Y250825D01*
X977900Y247650D01*
X1123950Y247650D01*
X1139825Y231775D01*
X1177925Y231775D01*
X1193800Y215900D01*
D18*
X574675Y250825D03*
D17*
X1177925Y765175D02*
X1203325Y739775D01*
X1279525Y739775D01*
X1295400Y723900D01*
D18*
X1177925Y765175D03*
D17*
X1196975Y498475D02*
X1168400Y469900D01*
X1196975Y498475D02*
X1285875Y498475D01*
D18*
X1285875Y498475D03*
D17*
X1270000Y215900D02*
X1244600Y190500D01*
X631825Y190500D01*
X625475Y196850D01*
X174625Y196850D01*
D18*
X174625Y196850D03*
D17*
X1546225Y180975D02*
X1562100Y165100D01*
X1546225Y180975D02*
X1089025Y180975D01*
X1035050Y127000D01*
X279400Y127000D01*
D18*
X279400Y127000D03*
D17*
X257175Y257175D02*
X292100Y292100D01*
X257175Y257175D02*
X120650Y257175D01*
X107950Y244475D01*
X44450Y244475D01*
X31750Y257175D01*
X31750Y803275D01*
X92075Y803275D01*
X101600Y812800D01*
X400050Y44450D02*
X403225Y41275D01*
X400050Y44450D02*
X146050Y44450D01*
X127000Y63500D01*
D18*
X403225Y41275D03*
M02*
