M48
;GenerationSoftware,Autodesk,EAGLE,9.6.2*%
;CreationDate,2020-07-25T20:39:43Z*%
FMAT,2
ICI,OFF
METRIC,TZ,000.000
T10C0.254
T9C0.800
T8C0.813
T7C0.914
T6C1.000
T5C1.016
T4C1.118
T3C1.143
T2C1.200
T1C3.200
%
G90
M71
T1
X2540Y2540
X2540Y149860
X111760Y149860
X111760Y2540
T2
X20630Y147360
X27630Y147360
T3
X40080Y150840
X40080Y146340
X33580Y146340
X33580Y150840
T4
X13970Y146050
X8890Y146050
T5
X58420Y85090
X26670Y82550
X58420Y82550
X55880Y85090
X55880Y82550
X11430Y85090
X3810Y82550
X6350Y82550
X8890Y82550
X11430Y82550
X7620Y99060
X7620Y96520
X7620Y93980
X95250Y148590
X92710Y148590
X13970Y82550
X16510Y82550
X3810Y85090
X6350Y85090
X8890Y85090
X13970Y85090
X16510Y85090
X19050Y82550
X19050Y85090
X21590Y82550
X110490Y85090
X107950Y85090
X105410Y85090
X102870Y85090
X100330Y85090
X97790Y85090
X110490Y82550
X107950Y82550
X105410Y82550
X102870Y82550
X100330Y82550
X97790Y82550
X95250Y85090
X95250Y82550
X92710Y85090
X90170Y85090
X87630Y85090
X85090Y85090
X82550Y85090
X80010Y85090
X92710Y82550
X90170Y82550
X87630Y82550
X85090Y82550
X82550Y82550
X80010Y82550
X77470Y85090
X77470Y82550
X74930Y85090
X72390Y85090
X69850Y85090
X67310Y85090
X64770Y85090
X62230Y85090
X74930Y82550
X72390Y82550
X69850Y82550
X67310Y82550
X64770Y82550
X62230Y82550
X90170Y148590
X87630Y148590
X85090Y148590
X24130Y82550
X52070Y85090
X49530Y85090
X46990Y85090
X44450Y85090
X41910Y85090
X39370Y85090
X52070Y82550
X49530Y82550
X46990Y82550
X44450Y82550
X41910Y82550
X39370Y82550
X36830Y85090
X36830Y82550
X34290Y85090
X31750Y85090
X29210Y85090
X26670Y85090
X24130Y85090
X21590Y85090
X34290Y82550
X31750Y82550
X29210Y82550
T6
X82550Y148590
T7
X110490Y55880
X107950Y55880
X110490Y58420
X107950Y58420
X110490Y60960
X107950Y60960
X110490Y63500
X107950Y63500
X110490Y66040
X107950Y66040
X93980Y142240
X96520Y142240
X82550Y142240
X85090Y142240
T8
X53340Y124460
X53340Y127000
X60960Y127000
X60960Y124460
X60960Y121920
X60960Y119380
X60960Y116840
X60960Y114300
X60960Y111760
X60960Y109220
X60960Y106680
X60960Y104140
X60960Y101600
X60960Y99060
X60960Y96520
X60960Y93980
X66040Y93980
X66040Y96520
X66040Y99060
X66040Y101600
X66040Y104140
X66040Y106680
X66040Y109220
X66040Y111760
X66040Y114300
X66040Y116840
X66040Y119380
X66040Y121920
X66040Y124460
X66040Y127000
X73660Y127000
X73660Y124460
X73660Y121920
X73660Y119380
X73660Y116840
X73660Y114300
X73660Y111760
X73660Y109220
X73660Y106680
X73660Y104140
X73660Y101600
X73660Y99060
X73660Y96520
X73660Y93980
X91440Y93980
X91440Y96520
X91440Y99060
X91440Y101600
X91440Y104140
X91440Y106680
X91440Y109220
X91440Y111760
X91440Y114300
X91440Y116840
X102870Y44450
X102870Y46990
X102870Y49530
X102870Y52070
X102870Y54610
X102870Y57150
X102870Y59690
X102870Y62230
X102870Y64770
X102870Y67310
X102870Y69850
X102870Y72390
X102870Y74930
X102870Y77470
X87630Y77470
X87630Y74930
X87630Y72390
X87630Y69850
X87630Y67310
X87630Y64770
X87630Y62230
X87630Y59690
X87630Y57150
X87630Y54610
X87630Y52070
X87630Y49530
X87630Y46990
X87630Y44450
X102870Y5080
X102870Y7620
X102870Y10160
X102870Y12700
X102870Y15240
X102870Y17780
X102870Y20320
X102870Y22860
X102870Y25400
X102870Y27940
X102870Y30480
X102870Y33020
X102870Y35560
X102870Y38100
X87630Y38100
X87630Y35560
X87630Y33020
X87630Y30480
X87630Y27940
X87630Y25400
X87630Y22860
X87630Y20320
X87630Y17780
X87630Y15240
X87630Y12700
X87630Y10160
X87630Y7620
X87630Y5080
X77470Y44450
X77470Y46990
X77470Y49530
X77470Y52070
X77470Y54610
X77470Y57150
X77470Y59690
X77470Y62230
X77470Y64770
X77470Y67310
X77470Y69850
X77470Y72390
X77470Y74930
X77470Y77470
X62230Y77470
X62230Y74930
X62230Y72390
X62230Y69850
X62230Y67310
X62230Y64770
X62230Y62230
X62230Y59690
X62230Y57150
X62230Y54610
X62230Y52070
X62230Y49530
X62230Y46990
X62230Y44450
X77470Y5080
X77470Y7620
X77470Y10160
X77470Y12700
X77470Y15240
X77470Y17780
X77470Y20320
X77470Y22860
X77470Y25400
X77470Y27940
X77470Y30480
X77470Y33020
X77470Y35560
X77470Y38100
X62230Y38100
X62230Y35560
X62230Y33020
X62230Y30480
X62230Y27940
X62230Y25400
X62230Y22860
X62230Y20320
X62230Y17780
X62230Y15240
X62230Y12700
X62230Y10160
X62230Y7620
X62230Y5080
X52070Y44450
X52070Y46990
X52070Y49530
X52070Y52070
X52070Y54610
X52070Y57150
X52070Y59690
X52070Y62230
X52070Y64770
X52070Y67310
X52070Y69850
X52070Y72390
X52070Y74930
X52070Y77470
X36830Y77470
X36830Y74930
X36830Y72390
X36830Y69850
X36830Y67310
X36830Y64770
X36830Y62230
X36830Y59690
X36830Y57150
X36830Y54610
X36830Y52070
X36830Y49530
X36830Y46990
X36830Y44450
X52070Y5080
X52070Y7620
X52070Y10160
X52070Y12700
X52070Y15240
X52070Y17780
X52070Y20320
X52070Y22860
X52070Y25400
X52070Y27940
X52070Y30480
X52070Y33020
X52070Y35560
X52070Y38100
X36830Y38100
X36830Y35560
X36830Y33020
X36830Y30480
X36830Y27940
X36830Y25400
X36830Y22860
X36830Y20320
X36830Y17780
X36830Y15240
X36830Y12700
X36830Y10160
X36830Y7620
X36830Y5080
X26670Y5080
X26670Y7620
X26670Y10160
X26670Y12700
X26670Y15240
X26670Y17780
X26670Y20320
X26670Y22860
X26670Y25400
X26670Y27940
X26670Y30480
X26670Y33020
X26670Y35560
X26670Y38100
X11430Y38100
X11430Y35560
X11430Y33020
X11430Y30480
X11430Y27940
X11430Y25400
X11430Y22860
X11430Y20320
X11430Y17780
X11430Y15240
X11430Y12700
X11430Y10160
X11430Y7620
X11430Y5080
X53340Y121920
X53340Y119380
X53340Y116840
X53340Y114300
X53340Y111760
X53340Y109220
X53340Y106680
X53340Y104140
X53340Y101600
X91440Y119380
X53340Y99060
X53340Y96520
X53340Y93980
X111760Y93980
X111760Y96520
X111760Y99060
X91440Y121920
X111760Y101600
X111760Y104140
X111760Y106680
X111760Y109220
X111760Y111760
X111760Y114300
X111760Y116840
X111760Y119380
X111760Y121920
X111760Y124460
X111760Y127000
X104140Y127000
X104140Y124460
X104140Y121920
X104140Y119380
X104140Y116840
X104140Y114300
X104140Y111760
X104140Y109220
X104140Y106680
X104140Y104140
X104140Y101600
X104140Y99060
X3810Y119380
X6350Y119380
X8890Y119380
X11430Y119380
X13970Y119380
X16510Y119380
X19050Y119380
X21590Y119380
X24130Y119380
X26670Y119380
X29210Y119380
X31750Y119380
X34290Y119380
X36830Y119380
X36830Y127000
X34290Y127000
X31750Y127000
X29210Y127000
X26670Y127000
X24130Y127000
X21590Y127000
X19050Y127000
X16510Y127000
X13970Y127000
X11430Y127000
X8890Y127000
X6350Y127000
X3810Y127000
X41910Y120777
X41910Y125603
X48260Y128270
X48260Y125730
X48260Y118110
X48260Y120650
X104140Y96520
X104140Y93980
X7620Y13970
X7620Y24130
X106680Y91440
X109220Y91440
X85090Y134620
X82550Y134620
X3810Y113030
X13970Y113030
X17780Y113030
X20320Y113030
X17780Y105410
X20320Y105410
X3810Y105410
X13970Y105410
X3810Y109220
X13970Y109220
X12700Y92710
X15240Y92710
X17780Y92710
X20320Y92710
X20320Y100330
X17780Y100330
X15240Y100330
X12700Y100330
X50800Y149860
X50800Y147320
X60960Y149860
X60960Y147320
X71120Y149860
X71120Y147320
X71120Y142240
X71120Y132080
X60960Y142240
X60960Y132080
X50800Y142240
X50800Y132080
X96520Y2540
X93980Y2540
X96520Y41910
X93980Y41910
X45720Y41910
X43180Y41910
X71120Y41910
X68580Y41910
X45720Y2540
X43180Y2540
X8890Y140970
X11430Y140970
X13970Y140970
X91440Y124460
X91440Y127000
X93980Y91440
X96520Y91440
X81280Y91440
X20320Y2540
X17780Y2540
X71120Y2540
X68580Y2540
X20320Y41910
X17780Y41910
X83820Y91440
X68580Y91440
X71120Y91440
X55880Y91440
X99060Y127000
X99060Y124460
X99060Y114300
X99060Y111760
X99060Y121920
X99060Y119380
X99060Y116840
X58420Y91440
X34290Y105410
X44450Y105410
X105410Y149860
X105410Y147320
X105410Y142240
X105410Y132080
X26670Y44450
X26670Y46990
X26670Y49530
X26670Y52070
X26670Y54610
X26670Y57150
X26670Y59690
X26670Y62230
X26670Y64770
X26670Y67310
X26670Y69850
X26670Y72390
X26670Y74930
X26670Y77470
X11430Y77470
X11430Y74930
X11430Y72390
X11430Y69850
X11430Y67310
X11430Y64770
X11430Y62230
X11430Y59690
X11430Y57150
X11430Y54610
X11430Y52070
X11430Y49530
X11430Y46990
X11430Y44450
X86360Y93980
X86360Y96520
X86360Y99060
X86360Y101600
X86360Y104140
X86360Y106680
X86360Y109220
X86360Y111760
X86360Y114300
X86360Y116840
X86360Y119380
X86360Y121920
X86360Y124460
X86360Y127000
X78740Y127000
X78740Y124460
X78740Y121920
X78740Y119380
X78740Y116840
X78740Y114300
X78740Y111760
X78740Y109220
X78740Y106680
X78740Y104140
X78740Y101600
X78740Y99060
X78740Y96520
X78740Y93980
X99060Y93980
X99060Y96520
X99060Y99060
X99060Y101600
X99060Y104140
X99060Y106680
X99060Y109220
T9
X21630Y149860
X26630Y149860
T10
X38735Y126365
X20955Y121285
X31750Y134620
X27940Y121920
X28575Y111125
X47625Y42545
X45085Y79375
X67945Y80010
X71120Y37465
X88265Y126365
X67310Y128270
X49530Y43180
X69850Y100330
X55880Y113030
X59055Y43180
X73660Y105410
X83820Y85725
X89535Y78740
X93345Y81280
X74930Y90170
X80645Y94615
X67310Y107950
X97155Y75565
X97155Y81280
X101600Y85725
X71120Y73025
X71120Y110490
X95250Y108585
X70485Y72390
X78105Y86360
X87630Y91440
X81915Y86360
X63500Y36830
X45085Y127000
X88900Y127635
X54610Y84455
X66040Y129540
X89535Y126365
X53975Y83185
X73025Y92075
X53975Y67945
X37465Y110490
X40640Y88900
X40005Y89535
X33020Y72390
X33655Y115570
X76200Y113665
X31750Y75565
X29845Y101600
X29845Y79375
X46355Y80645
X50800Y86995
X50800Y97790
X67945Y93980
X22860Y73660
X23495Y90805
X20955Y73025
X43180Y87630
X62865Y86995
X10795Y86360
X10795Y93345
X50800Y100330
X55245Y102235
X24130Y31750
X13970Y104140
X59055Y111125
X15240Y80645
X15240Y34290
X20955Y106680
X23495Y104140
X8890Y43180
X53340Y89535
X64135Y92075
X57785Y80010
X55880Y36830
X50165Y116205
X64135Y116205
X49530Y86995
X34925Y31115
X47625Y86995
X49530Y107950
X22225Y80010
X16510Y34925
X57150Y79375
X56515Y103505
X35560Y80010
X23495Y78740
X18415Y35560
X36195Y91440
X57785Y95885
X33020Y40640
X36195Y100965
X31115Y36195
X29210Y33655
X69215Y102870
X69215Y78105
X102870Y87630
X79375Y86360
X85090Y80010
X85090Y76200
X66675Y76200
X80010Y88265
X82550Y99060
X64135Y73660
X89535Y80010
X88900Y99060
X109855Y67310
X93345Y93980
X81280Y69850
X95250Y95250
X104775Y80645
X92075Y88900
X76835Y95885
X100330Y38100
X76200Y80645
X90805Y79375
X93980Y88265
X76835Y92710
X105410Y78105
X29845Y125095
X26035Y90170
X59690Y88900
X22860Y85725
X26035Y92075
X24130Y69850
X19050Y71755
X50165Y98425
X16510Y74930
X10795Y102235
X29845Y106680
X26035Y99060
X16510Y73660
X10160Y102870
X33655Y58420
X45720Y47625
X45720Y117475
X113030Y67945
X83185Y86995
X107950Y93345
X97155Y87630
X91440Y62230
X90805Y86360
X90170Y59055
X89535Y81280
X88900Y100330
X80645Y53975
X95885Y55880
X95885Y81280
X92710Y102870
X100330Y102870
X81280Y52070
X96520Y55245
X94615Y83820
X95885Y93345
X81915Y48895
X99060Y51435
X98425Y90170
X112395Y54610
X89535Y56515
X99695Y57150
X100965Y88265
X105410Y95250
X89535Y69215
X111760Y76200
X107315Y97155
X107315Y46990
X69850Y80010
X74295Y36195
X38735Y123825
M30