G04 EAGLE Gerber RS-274X export*
G75*
%MOMM*%
%FSLAX34Y34*%
%LPD*%
%INSoldermask Top*%
%IPPOS*%
%AMOC8*
5,1,8,0,0,1.08239X$1,22.5*%
G01*
%ADD10C,3.327000*%
%ADD11C,1.346200*%
%ADD12P,1.787026X8X22.500000*%
%ADD13C,1.346200*%
%ADD14P,1.677055X8X292.500000*%
%ADD15P,1.677055X8X112.500000*%
%ADD16R,1.627000X1.627000*%
%ADD17C,1.905000*%
%ADD18P,1.677055X8X202.500000*%
%ADD19P,1.457113X8X22.500000*%
%ADD20P,1.677055X8X22.500000*%
%ADD21P,1.457113X8X292.500000*%
%ADD22C,1.651000*%
%ADD23C,1.498600*%
%ADD24C,0.889000*%
%ADD25C,1.270000*%
%ADD26R,2.032000X2.032000*%
%ADD27C,2.032000*%
%ADD28P,1.457113X8X112.500000*%
%ADD29P,1.622070X8X112.500000*%
%ADD30C,0.584200*%


D10*
X1117600Y25400D03*
X1117600Y1498600D03*
X25400Y1498600D03*
X25400Y25400D03*
D11*
X1022604Y444500D02*
X1034796Y444500D01*
X1034796Y469900D02*
X1022604Y469900D01*
X1022604Y495300D02*
X1034796Y495300D01*
X1034796Y520700D02*
X1022604Y520700D01*
X1022604Y546100D02*
X1034796Y546100D01*
X1034796Y571500D02*
X1022604Y571500D01*
X1022604Y596900D02*
X1034796Y596900D01*
X1034796Y622300D02*
X1022604Y622300D01*
X1022604Y647700D02*
X1034796Y647700D01*
X1034796Y673100D02*
X1022604Y673100D01*
X1022604Y698500D02*
X1034796Y698500D01*
X1034796Y723900D02*
X1022604Y723900D01*
X1022604Y749300D02*
X1034796Y749300D01*
X1034796Y774700D02*
X1022604Y774700D01*
X882396Y774700D02*
X870204Y774700D01*
X870204Y749300D02*
X882396Y749300D01*
X882396Y723900D02*
X870204Y723900D01*
X870204Y698500D02*
X882396Y698500D01*
X882396Y673100D02*
X870204Y673100D01*
X870204Y647700D02*
X882396Y647700D01*
X882396Y622300D02*
X870204Y622300D01*
X870204Y596900D02*
X882396Y596900D01*
X882396Y571500D02*
X870204Y571500D01*
X870204Y546100D02*
X882396Y546100D01*
X882396Y520700D02*
X870204Y520700D01*
X870204Y495300D02*
X882396Y495300D01*
X882396Y469900D02*
X870204Y469900D01*
X870204Y444500D02*
X882396Y444500D01*
X1022604Y50800D02*
X1034796Y50800D01*
X1034796Y76200D02*
X1022604Y76200D01*
X1022604Y101600D02*
X1034796Y101600D01*
X1034796Y127000D02*
X1022604Y127000D01*
X1022604Y152400D02*
X1034796Y152400D01*
X1034796Y177800D02*
X1022604Y177800D01*
X1022604Y203200D02*
X1034796Y203200D01*
X1034796Y228600D02*
X1022604Y228600D01*
X1022604Y254000D02*
X1034796Y254000D01*
X1034796Y279400D02*
X1022604Y279400D01*
X1022604Y304800D02*
X1034796Y304800D01*
X1034796Y330200D02*
X1022604Y330200D01*
X1022604Y355600D02*
X1034796Y355600D01*
X1034796Y381000D02*
X1022604Y381000D01*
X882396Y381000D02*
X870204Y381000D01*
X870204Y355600D02*
X882396Y355600D01*
X882396Y330200D02*
X870204Y330200D01*
X870204Y304800D02*
X882396Y304800D01*
X882396Y279400D02*
X870204Y279400D01*
X870204Y254000D02*
X882396Y254000D01*
X882396Y228600D02*
X870204Y228600D01*
X870204Y203200D02*
X882396Y203200D01*
X882396Y177800D02*
X870204Y177800D01*
X870204Y152400D02*
X882396Y152400D01*
X882396Y127000D02*
X870204Y127000D01*
X870204Y101600D02*
X882396Y101600D01*
X882396Y76200D02*
X870204Y76200D01*
X870204Y50800D02*
X882396Y50800D01*
X780796Y444500D02*
X768604Y444500D01*
X768604Y469900D02*
X780796Y469900D01*
X780796Y495300D02*
X768604Y495300D01*
X768604Y520700D02*
X780796Y520700D01*
X780796Y546100D02*
X768604Y546100D01*
X768604Y571500D02*
X780796Y571500D01*
X780796Y596900D02*
X768604Y596900D01*
X768604Y622300D02*
X780796Y622300D01*
X780796Y647700D02*
X768604Y647700D01*
X768604Y673100D02*
X780796Y673100D01*
X780796Y698500D02*
X768604Y698500D01*
X768604Y723900D02*
X780796Y723900D01*
X780796Y749300D02*
X768604Y749300D01*
X768604Y774700D02*
X780796Y774700D01*
X628396Y774700D02*
X616204Y774700D01*
X616204Y749300D02*
X628396Y749300D01*
X628396Y723900D02*
X616204Y723900D01*
X616204Y698500D02*
X628396Y698500D01*
X628396Y673100D02*
X616204Y673100D01*
X616204Y647700D02*
X628396Y647700D01*
X628396Y622300D02*
X616204Y622300D01*
X616204Y596900D02*
X628396Y596900D01*
X628396Y571500D02*
X616204Y571500D01*
X616204Y546100D02*
X628396Y546100D01*
X628396Y520700D02*
X616204Y520700D01*
X616204Y495300D02*
X628396Y495300D01*
X628396Y469900D02*
X616204Y469900D01*
X616204Y444500D02*
X628396Y444500D01*
X768604Y50800D02*
X780796Y50800D01*
X780796Y76200D02*
X768604Y76200D01*
X768604Y101600D02*
X780796Y101600D01*
X780796Y127000D02*
X768604Y127000D01*
X768604Y152400D02*
X780796Y152400D01*
X780796Y177800D02*
X768604Y177800D01*
X768604Y203200D02*
X780796Y203200D01*
X780796Y228600D02*
X768604Y228600D01*
X768604Y254000D02*
X780796Y254000D01*
X780796Y279400D02*
X768604Y279400D01*
X768604Y304800D02*
X780796Y304800D01*
X780796Y330200D02*
X768604Y330200D01*
X768604Y355600D02*
X780796Y355600D01*
X780796Y381000D02*
X768604Y381000D01*
X628396Y381000D02*
X616204Y381000D01*
X616204Y355600D02*
X628396Y355600D01*
X628396Y330200D02*
X616204Y330200D01*
X616204Y304800D02*
X628396Y304800D01*
X628396Y279400D02*
X616204Y279400D01*
X616204Y254000D02*
X628396Y254000D01*
X628396Y228600D02*
X616204Y228600D01*
X616204Y203200D02*
X628396Y203200D01*
X628396Y177800D02*
X616204Y177800D01*
X616204Y152400D02*
X628396Y152400D01*
X628396Y127000D02*
X616204Y127000D01*
X616204Y101600D02*
X628396Y101600D01*
X628396Y76200D02*
X616204Y76200D01*
X616204Y50800D02*
X628396Y50800D01*
X526796Y444500D02*
X514604Y444500D01*
X514604Y469900D02*
X526796Y469900D01*
X526796Y495300D02*
X514604Y495300D01*
X514604Y520700D02*
X526796Y520700D01*
X526796Y546100D02*
X514604Y546100D01*
X514604Y571500D02*
X526796Y571500D01*
X526796Y596900D02*
X514604Y596900D01*
X514604Y622300D02*
X526796Y622300D01*
X526796Y647700D02*
X514604Y647700D01*
X514604Y673100D02*
X526796Y673100D01*
X526796Y698500D02*
X514604Y698500D01*
X514604Y723900D02*
X526796Y723900D01*
X526796Y749300D02*
X514604Y749300D01*
X514604Y774700D02*
X526796Y774700D01*
X374396Y774700D02*
X362204Y774700D01*
X362204Y749300D02*
X374396Y749300D01*
X374396Y723900D02*
X362204Y723900D01*
X362204Y698500D02*
X374396Y698500D01*
X374396Y673100D02*
X362204Y673100D01*
X362204Y647700D02*
X374396Y647700D01*
X374396Y622300D02*
X362204Y622300D01*
X362204Y596900D02*
X374396Y596900D01*
X374396Y571500D02*
X362204Y571500D01*
X362204Y546100D02*
X374396Y546100D01*
X374396Y520700D02*
X362204Y520700D01*
X362204Y495300D02*
X374396Y495300D01*
X374396Y469900D02*
X362204Y469900D01*
X362204Y444500D02*
X374396Y444500D01*
X514604Y50800D02*
X526796Y50800D01*
X526796Y76200D02*
X514604Y76200D01*
X514604Y101600D02*
X526796Y101600D01*
X526796Y127000D02*
X514604Y127000D01*
X514604Y152400D02*
X526796Y152400D01*
X526796Y177800D02*
X514604Y177800D01*
X514604Y203200D02*
X526796Y203200D01*
X526796Y228600D02*
X514604Y228600D01*
X514604Y254000D02*
X526796Y254000D01*
X526796Y279400D02*
X514604Y279400D01*
X514604Y304800D02*
X526796Y304800D01*
X526796Y330200D02*
X514604Y330200D01*
X514604Y355600D02*
X526796Y355600D01*
X526796Y381000D02*
X514604Y381000D01*
X374396Y381000D02*
X362204Y381000D01*
X362204Y355600D02*
X374396Y355600D01*
X374396Y330200D02*
X362204Y330200D01*
X362204Y304800D02*
X374396Y304800D01*
X374396Y279400D02*
X362204Y279400D01*
X362204Y254000D02*
X374396Y254000D01*
X374396Y228600D02*
X362204Y228600D01*
X362204Y203200D02*
X374396Y203200D01*
X374396Y177800D02*
X362204Y177800D01*
X362204Y152400D02*
X374396Y152400D01*
X374396Y127000D02*
X362204Y127000D01*
X362204Y101600D02*
X374396Y101600D01*
X374396Y76200D02*
X362204Y76200D01*
X362204Y50800D02*
X374396Y50800D01*
X272796Y50800D02*
X260604Y50800D01*
X260604Y76200D02*
X272796Y76200D01*
X272796Y101600D02*
X260604Y101600D01*
X260604Y127000D02*
X272796Y127000D01*
X272796Y152400D02*
X260604Y152400D01*
X260604Y177800D02*
X272796Y177800D01*
X272796Y203200D02*
X260604Y203200D01*
X260604Y228600D02*
X272796Y228600D01*
X272796Y254000D02*
X260604Y254000D01*
X260604Y279400D02*
X272796Y279400D01*
X272796Y304800D02*
X260604Y304800D01*
X260604Y330200D02*
X272796Y330200D01*
X272796Y355600D02*
X260604Y355600D01*
X260604Y381000D02*
X272796Y381000D01*
X120396Y381000D02*
X108204Y381000D01*
X108204Y355600D02*
X120396Y355600D01*
X120396Y330200D02*
X108204Y330200D01*
X108204Y304800D02*
X120396Y304800D01*
X120396Y279400D02*
X108204Y279400D01*
X108204Y254000D02*
X120396Y254000D01*
X120396Y228600D02*
X108204Y228600D01*
X108204Y203200D02*
X120396Y203200D01*
X120396Y177800D02*
X108204Y177800D01*
X108204Y152400D02*
X120396Y152400D01*
X120396Y127000D02*
X108204Y127000D01*
X108204Y101600D02*
X120396Y101600D01*
X120396Y76200D02*
X108204Y76200D01*
X108204Y50800D02*
X120396Y50800D01*
D12*
X38100Y825500D03*
X63500Y825500D03*
X88900Y825500D03*
X114300Y825500D03*
X139700Y825500D03*
X165100Y825500D03*
X38100Y850900D03*
X63500Y850900D03*
X88900Y850900D03*
X114300Y850900D03*
X139700Y850900D03*
X165100Y850900D03*
X190500Y825500D03*
X190500Y850900D03*
X215900Y825500D03*
X241300Y825500D03*
X266700Y825500D03*
X292100Y825500D03*
X317500Y825500D03*
X342900Y825500D03*
X215900Y850900D03*
X241300Y850900D03*
X266700Y850900D03*
X292100Y850900D03*
X317500Y850900D03*
X342900Y850900D03*
X368300Y825500D03*
X368300Y850900D03*
X393700Y825500D03*
X419100Y825500D03*
X444500Y825500D03*
X469900Y825500D03*
X495300Y825500D03*
X520700Y825500D03*
X393700Y850900D03*
X419100Y850900D03*
X444500Y850900D03*
X469900Y850900D03*
X495300Y850900D03*
X520700Y850900D03*
D11*
X38100Y1187704D02*
X38100Y1199896D01*
X63500Y1199896D02*
X63500Y1187704D01*
X88900Y1187704D02*
X88900Y1199896D01*
X114300Y1199896D02*
X114300Y1187704D01*
X139700Y1187704D02*
X139700Y1199896D01*
X165100Y1199896D02*
X165100Y1187704D01*
X190500Y1187704D02*
X190500Y1199896D01*
X215900Y1199896D02*
X215900Y1187704D01*
X241300Y1187704D02*
X241300Y1199896D01*
X266700Y1199896D02*
X266700Y1187704D01*
X292100Y1187704D02*
X292100Y1199896D01*
X317500Y1199896D02*
X317500Y1187704D01*
X342900Y1187704D02*
X342900Y1199896D01*
X368300Y1199896D02*
X368300Y1187704D01*
X368300Y1263904D02*
X368300Y1276096D01*
X342900Y1276096D02*
X342900Y1263904D01*
X317500Y1263904D02*
X317500Y1276096D01*
X292100Y1276096D02*
X292100Y1263904D01*
X266700Y1263904D02*
X266700Y1276096D01*
X241300Y1276096D02*
X241300Y1263904D01*
X215900Y1263904D02*
X215900Y1276096D01*
X190500Y1276096D02*
X190500Y1263904D01*
X165100Y1263904D02*
X165100Y1276096D01*
X139700Y1276096D02*
X139700Y1263904D01*
X114300Y1263904D02*
X114300Y1276096D01*
X88900Y1276096D02*
X88900Y1263904D01*
X63500Y1263904D02*
X63500Y1276096D01*
X38100Y1276096D02*
X38100Y1263904D01*
D13*
X419100Y1207770D03*
X419100Y1256030D03*
D14*
X482600Y1282700D03*
X482600Y1257300D03*
D15*
X482600Y1181100D03*
X482600Y1206500D03*
D16*
X825500Y1485900D03*
D17*
X850900Y1485900D03*
X876300Y1485900D03*
X901700Y1485900D03*
X927100Y1485900D03*
X952500Y1485900D03*
D18*
X850900Y1346200D03*
X825500Y1346200D03*
D19*
X38100Y1130300D03*
X139700Y1130300D03*
D20*
X177800Y1130300D03*
X203200Y1130300D03*
X177800Y1054100D03*
X203200Y1054100D03*
D19*
X38100Y1054100D03*
X139700Y1054100D03*
X38100Y1092200D03*
X139700Y1092200D03*
D11*
X127000Y933196D02*
X127000Y921004D01*
X152400Y921004D02*
X152400Y933196D01*
X177800Y933196D02*
X177800Y921004D01*
X203200Y921004D02*
X203200Y933196D01*
X203200Y997204D02*
X203200Y1009396D01*
X177800Y1009396D02*
X177800Y997204D01*
X152400Y997204D02*
X152400Y1009396D01*
X127000Y1009396D02*
X127000Y997204D01*
D21*
X508000Y1498600D03*
X508000Y1473200D03*
X609600Y1498600D03*
X609600Y1473200D03*
X711200Y1498600D03*
X711200Y1473200D03*
X711200Y1422400D03*
X711200Y1320800D03*
X609600Y1422400D03*
X609600Y1320800D03*
X508000Y1422400D03*
X508000Y1320800D03*
D18*
X965200Y25400D03*
X939800Y25400D03*
X965200Y419100D03*
X939800Y419100D03*
X457200Y419100D03*
X431800Y419100D03*
X711200Y419100D03*
X685800Y419100D03*
X457200Y25400D03*
X431800Y25400D03*
D11*
X88900Y1403604D02*
X88900Y1415796D01*
X114300Y1415796D02*
X114300Y1403604D01*
X139700Y1403604D02*
X139700Y1415796D01*
D17*
X88900Y1460500D03*
X139700Y1460500D03*
D22*
X83820Y939800D02*
X68580Y939800D01*
X68580Y965200D02*
X83820Y965200D01*
X83820Y990600D02*
X68580Y990600D01*
D18*
X203200Y25400D03*
X177800Y25400D03*
X711200Y25400D03*
X685800Y25400D03*
X203200Y419100D03*
X177800Y419100D03*
D23*
X939800Y1415542D02*
X939800Y1429258D01*
X965200Y1429258D02*
X965200Y1415542D01*
X825500Y1415542D02*
X825500Y1429258D01*
X850900Y1429258D02*
X850900Y1415542D01*
D24*
X216300Y1498600D03*
X266300Y1498600D03*
D25*
X276300Y1473600D03*
X206300Y1473600D03*
D26*
X335800Y1508400D03*
D27*
X335800Y1463400D03*
X400800Y1463400D03*
X400800Y1508400D03*
D19*
X342900Y1054100D03*
X444500Y1054100D03*
D21*
X1054100Y1498600D03*
X1054100Y1473200D03*
X1054100Y1422400D03*
X1054100Y1320800D03*
D11*
X272796Y444500D02*
X260604Y444500D01*
X260604Y469900D02*
X272796Y469900D01*
X272796Y495300D02*
X260604Y495300D01*
X260604Y520700D02*
X272796Y520700D01*
X272796Y546100D02*
X260604Y546100D01*
X260604Y571500D02*
X272796Y571500D01*
X272796Y596900D02*
X260604Y596900D01*
X260604Y622300D02*
X272796Y622300D01*
X272796Y647700D02*
X260604Y647700D01*
X260604Y673100D02*
X272796Y673100D01*
X272796Y698500D02*
X260604Y698500D01*
X260604Y723900D02*
X272796Y723900D01*
X272796Y749300D02*
X260604Y749300D01*
X260604Y774700D02*
X272796Y774700D01*
X120396Y774700D02*
X108204Y774700D01*
X108204Y749300D02*
X120396Y749300D01*
X120396Y723900D02*
X108204Y723900D01*
X108204Y698500D02*
X120396Y698500D01*
X120396Y673100D02*
X108204Y673100D01*
X108204Y647700D02*
X120396Y647700D01*
X120396Y622300D02*
X108204Y622300D01*
X108204Y596900D02*
X120396Y596900D01*
X120396Y571500D02*
X108204Y571500D01*
X108204Y546100D02*
X120396Y546100D01*
X120396Y520700D02*
X108204Y520700D01*
X108204Y495300D02*
X120396Y495300D01*
X120396Y469900D02*
X108204Y469900D01*
X108204Y444500D02*
X120396Y444500D01*
X857504Y939800D02*
X869696Y939800D01*
X869696Y965200D02*
X857504Y965200D01*
X857504Y990600D02*
X869696Y990600D01*
X869696Y1016000D02*
X857504Y1016000D01*
X857504Y1041400D02*
X869696Y1041400D01*
X869696Y1066800D02*
X857504Y1066800D01*
X857504Y1092200D02*
X869696Y1092200D01*
X869696Y1117600D02*
X857504Y1117600D01*
X857504Y1143000D02*
X869696Y1143000D01*
X869696Y1168400D02*
X857504Y1168400D01*
X857504Y1193800D02*
X869696Y1193800D01*
X869696Y1219200D02*
X857504Y1219200D01*
X857504Y1244600D02*
X869696Y1244600D01*
X869696Y1270000D02*
X857504Y1270000D01*
X793496Y1270000D02*
X781304Y1270000D01*
X781304Y1244600D02*
X793496Y1244600D01*
X793496Y1219200D02*
X781304Y1219200D01*
X781304Y1193800D02*
X793496Y1193800D01*
X793496Y1168400D02*
X781304Y1168400D01*
X781304Y1143000D02*
X793496Y1143000D01*
X793496Y1117600D02*
X781304Y1117600D01*
X781304Y1092200D02*
X793496Y1092200D01*
X793496Y1066800D02*
X781304Y1066800D01*
X781304Y1041400D02*
X793496Y1041400D01*
X793496Y1016000D02*
X781304Y1016000D01*
X781304Y990600D02*
X793496Y990600D01*
X793496Y965200D02*
X781304Y965200D01*
X781304Y939800D02*
X793496Y939800D01*
X984504Y939800D02*
X996696Y939800D01*
X996696Y965200D02*
X984504Y965200D01*
X984504Y990600D02*
X996696Y990600D01*
X996696Y1016000D02*
X984504Y1016000D01*
X984504Y1041400D02*
X996696Y1041400D01*
X996696Y1066800D02*
X984504Y1066800D01*
X984504Y1092200D02*
X996696Y1092200D01*
X996696Y1117600D02*
X984504Y1117600D01*
X984504Y1143000D02*
X996696Y1143000D01*
X996696Y1168400D02*
X984504Y1168400D01*
X984504Y1193800D02*
X996696Y1193800D01*
X996696Y1219200D02*
X984504Y1219200D01*
X984504Y1244600D02*
X996696Y1244600D01*
X996696Y1270000D02*
X984504Y1270000D01*
X920496Y1270000D02*
X908304Y1270000D01*
X908304Y1244600D02*
X920496Y1244600D01*
X920496Y1219200D02*
X908304Y1219200D01*
X908304Y1193800D02*
X920496Y1193800D01*
X920496Y1168400D02*
X908304Y1168400D01*
X908304Y1143000D02*
X920496Y1143000D01*
X920496Y1117600D02*
X908304Y1117600D01*
X908304Y1092200D02*
X920496Y1092200D01*
X920496Y1066800D02*
X908304Y1066800D01*
X908304Y1041400D02*
X920496Y1041400D01*
X920496Y1016000D02*
X908304Y1016000D01*
X908304Y990600D02*
X920496Y990600D01*
X920496Y965200D02*
X908304Y965200D01*
X908304Y939800D02*
X920496Y939800D01*
X742696Y939800D02*
X730504Y939800D01*
X730504Y965200D02*
X742696Y965200D01*
X742696Y990600D02*
X730504Y990600D01*
X730504Y1016000D02*
X742696Y1016000D01*
X742696Y1041400D02*
X730504Y1041400D01*
X730504Y1066800D02*
X742696Y1066800D01*
X742696Y1092200D02*
X730504Y1092200D01*
X730504Y1117600D02*
X742696Y1117600D01*
X742696Y1143000D02*
X730504Y1143000D01*
X730504Y1168400D02*
X742696Y1168400D01*
X742696Y1193800D02*
X730504Y1193800D01*
X730504Y1219200D02*
X742696Y1219200D01*
X742696Y1244600D02*
X730504Y1244600D01*
X730504Y1270000D02*
X742696Y1270000D01*
X666496Y1270000D02*
X654304Y1270000D01*
X654304Y1244600D02*
X666496Y1244600D01*
X666496Y1219200D02*
X654304Y1219200D01*
X654304Y1193800D02*
X666496Y1193800D01*
X666496Y1168400D02*
X654304Y1168400D01*
X654304Y1143000D02*
X666496Y1143000D01*
X666496Y1117600D02*
X654304Y1117600D01*
X654304Y1092200D02*
X666496Y1092200D01*
X666496Y1066800D02*
X654304Y1066800D01*
X654304Y1041400D02*
X666496Y1041400D01*
X666496Y1016000D02*
X654304Y1016000D01*
X654304Y990600D02*
X666496Y990600D01*
X666496Y965200D02*
X654304Y965200D01*
X654304Y939800D02*
X666496Y939800D01*
X615696Y939800D02*
X603504Y939800D01*
X603504Y965200D02*
X615696Y965200D01*
X615696Y990600D02*
X603504Y990600D01*
X603504Y1016000D02*
X615696Y1016000D01*
X615696Y1041400D02*
X603504Y1041400D01*
X603504Y1066800D02*
X615696Y1066800D01*
X615696Y1092200D02*
X603504Y1092200D01*
X603504Y1117600D02*
X615696Y1117600D01*
X615696Y1143000D02*
X603504Y1143000D01*
X603504Y1168400D02*
X615696Y1168400D01*
X615696Y1193800D02*
X603504Y1193800D01*
X603504Y1219200D02*
X615696Y1219200D01*
X615696Y1244600D02*
X603504Y1244600D01*
X603504Y1270000D02*
X615696Y1270000D01*
X539496Y1270000D02*
X527304Y1270000D01*
X527304Y1244600D02*
X539496Y1244600D01*
X539496Y1219200D02*
X527304Y1219200D01*
X527304Y1193800D02*
X539496Y1193800D01*
X539496Y1168400D02*
X527304Y1168400D01*
X527304Y1143000D02*
X539496Y1143000D01*
X539496Y1117600D02*
X527304Y1117600D01*
X527304Y1092200D02*
X539496Y1092200D01*
X539496Y1066800D02*
X527304Y1066800D01*
X527304Y1041400D02*
X539496Y1041400D01*
X539496Y1016000D02*
X527304Y1016000D01*
X527304Y990600D02*
X539496Y990600D01*
X539496Y965200D02*
X527304Y965200D01*
X527304Y939800D02*
X539496Y939800D01*
X1111504Y939800D02*
X1123696Y939800D01*
X1123696Y965200D02*
X1111504Y965200D01*
X1111504Y990600D02*
X1123696Y990600D01*
X1123696Y1016000D02*
X1111504Y1016000D01*
X1111504Y1041400D02*
X1123696Y1041400D01*
X1123696Y1066800D02*
X1111504Y1066800D01*
X1111504Y1092200D02*
X1123696Y1092200D01*
X1123696Y1117600D02*
X1111504Y1117600D01*
X1111504Y1143000D02*
X1123696Y1143000D01*
X1123696Y1168400D02*
X1111504Y1168400D01*
X1111504Y1193800D02*
X1123696Y1193800D01*
X1123696Y1219200D02*
X1111504Y1219200D01*
X1111504Y1244600D02*
X1123696Y1244600D01*
X1123696Y1270000D02*
X1111504Y1270000D01*
X1047496Y1270000D02*
X1035304Y1270000D01*
X1035304Y1244600D02*
X1047496Y1244600D01*
X1047496Y1219200D02*
X1035304Y1219200D01*
X1035304Y1193800D02*
X1047496Y1193800D01*
X1047496Y1168400D02*
X1035304Y1168400D01*
X1035304Y1143000D02*
X1047496Y1143000D01*
X1047496Y1117600D02*
X1035304Y1117600D01*
X1035304Y1092200D02*
X1047496Y1092200D01*
X1047496Y1066800D02*
X1035304Y1066800D01*
X1035304Y1041400D02*
X1047496Y1041400D01*
X1047496Y1016000D02*
X1035304Y1016000D01*
X1035304Y990600D02*
X1047496Y990600D01*
X1047496Y965200D02*
X1035304Y965200D01*
X1035304Y939800D02*
X1047496Y939800D01*
D28*
X76200Y139700D03*
X76200Y241300D03*
D12*
X622300Y825500D03*
X647700Y825500D03*
X673100Y825500D03*
X698500Y825500D03*
X723900Y825500D03*
X749300Y825500D03*
X622300Y850900D03*
X647700Y850900D03*
X673100Y850900D03*
X698500Y850900D03*
X723900Y850900D03*
X749300Y850900D03*
X774700Y825500D03*
X774700Y850900D03*
X800100Y825500D03*
X825500Y825500D03*
X850900Y825500D03*
X876300Y825500D03*
X901700Y825500D03*
X927100Y825500D03*
X800100Y850900D03*
X825500Y850900D03*
X850900Y850900D03*
X876300Y850900D03*
X901700Y850900D03*
X927100Y850900D03*
X952500Y825500D03*
X952500Y850900D03*
X977900Y825500D03*
X1003300Y825500D03*
X1028700Y825500D03*
X1054100Y825500D03*
X1079500Y825500D03*
X1104900Y825500D03*
X977900Y850900D03*
X1003300Y850900D03*
X1028700Y850900D03*
X1054100Y850900D03*
X1079500Y850900D03*
X1104900Y850900D03*
D29*
X1104900Y558800D03*
X1079500Y558800D03*
X1104900Y584200D03*
X1079500Y584200D03*
X1104900Y609600D03*
X1079500Y609600D03*
X1104900Y635000D03*
X1079500Y635000D03*
X1104900Y660400D03*
X1079500Y660400D03*
D20*
X1066800Y914400D03*
X1092200Y914400D03*
X939800Y914400D03*
X965200Y914400D03*
X812800Y914400D03*
X838200Y914400D03*
X685800Y914400D03*
X711200Y914400D03*
X558800Y914400D03*
X584200Y914400D03*
D12*
X558800Y825500D03*
X558800Y850900D03*
X584200Y825500D03*
X584200Y850900D03*
D30*
X387350Y1238250D03*
X387350Y1263650D03*
X209550Y1212850D03*
X317500Y1346200D03*
X279400Y1219200D03*
X285750Y1111250D03*
X476250Y425450D03*
X450850Y793750D03*
X882650Y1263650D03*
X673100Y1282700D03*
X495300Y431800D03*
X698500Y1003300D03*
X711200Y374650D03*
X679450Y800100D03*
X742950Y361950D03*
X698500Y800100D03*
X1073150Y469900D03*
X1073150Y971550D03*
X1117600Y762000D03*
X895350Y692150D03*
X1054100Y952500D03*
X1009650Y882650D03*
X996950Y571500D03*
X895350Y565150D03*
X1123950Y546100D03*
X984250Y901700D03*
X990600Y514350D03*
X819150Y488950D03*
X958850Y933450D03*
X946150Y838200D03*
X965200Y552450D03*
X812800Y520700D03*
X1003300Y1028700D03*
X927100Y1028700D03*
X958850Y812800D03*
X958850Y558800D03*
X806450Y539750D03*
X889000Y1003300D03*
X895350Y812800D03*
X901700Y590550D03*
X908050Y863600D03*
X914400Y622300D03*
X971550Y876300D03*
X1079500Y933450D03*
X831850Y869950D03*
X1130300Y679450D03*
X457200Y1174750D03*
X457200Y476250D03*
X336550Y584200D03*
X101600Y1028700D03*
X165100Y736600D03*
X260350Y990600D03*
X298450Y1066800D03*
X107950Y1022350D03*
X165100Y749300D03*
X501650Y984250D03*
X190500Y717550D03*
X241300Y698500D03*
X260350Y920750D03*
X228600Y857250D03*
X596900Y889000D03*
X260350Y901700D03*
X298450Y1250950D03*
X1054100Y781050D03*
X768350Y927100D03*
X939800Y882650D03*
X908050Y793750D03*
X762000Y806450D03*
X1003300Y381000D03*
X768350Y958850D03*
X920750Y889000D03*
X1047750Y806450D03*
X952500Y952500D03*
X812800Y698500D03*
X933450Y939800D03*
X1098550Y673100D03*
X889000Y990600D03*
X895350Y800100D03*
X641350Y736600D03*
X825500Y990600D03*
X800100Y882650D03*
X666750Y762000D03*
X850900Y762000D03*
X850900Y800100D03*
X793750Y863600D03*
X1028700Y876300D03*
X692150Y781050D03*
X692150Y1028700D03*
X292100Y336550D03*
X311150Y361950D03*
X361950Y1009650D03*
X330200Y406400D03*
X577850Y958850D03*
X361950Y914400D03*
X184150Y355600D03*
X234950Y787400D03*
X355600Y800100D03*
X565150Y1035050D03*
X571500Y793750D03*
X165100Y349250D03*
X222250Y800100D03*
X495300Y1079500D03*
X476250Y869950D03*
X349250Y311150D03*
X495300Y869950D03*
X641350Y1162050D03*
X501650Y1162050D03*
X558800Y368300D03*
X577850Y800100D03*
X641350Y920750D03*
X533400Y895350D03*
X88900Y431800D03*
X234950Y1041400D03*
X209550Y1066800D03*
X152400Y342900D03*
X152400Y806450D03*
X590550Y1111250D03*
X139700Y1041400D03*
X241300Y317500D03*
X552450Y1022350D03*
X508000Y1003300D03*
X107950Y933450D03*
X107950Y863600D03*
X628650Y869950D03*
X431800Y876300D03*
X209550Y730250D03*
X234950Y908050D03*
X228600Y736600D03*
X679450Y939800D03*
X508000Y977900D03*
X508000Y869950D03*
X463550Y806450D03*
X298450Y793750D03*
X298450Y1016000D03*
X317500Y755650D03*
X762000Y1136650D03*
X336550Y1155700D03*
X330200Y723900D03*
X400050Y895350D03*
X406400Y889000D03*
X374650Y1104900D03*
X539750Y679450D03*
X730250Y920750D03*
X539750Y831850D03*
X895350Y1263650D03*
X660400Y1295400D03*
X546100Y844550D03*
X889000Y1276350D03*
X450850Y1270000D03*
X635000Y368300D03*
X819150Y863600D03*
X876300Y914400D03*
X781050Y863600D03*
X704850Y723900D03*
X952500Y1085850D03*
X711200Y1104900D03*
X711200Y730250D03*
X1016000Y857250D03*
X971550Y812800D03*
X971550Y755650D03*
X673100Y1079500D03*
X806450Y946150D03*
X749300Y901700D03*
X933450Y812800D03*
X895350Y787400D03*
X838200Y857250D03*
X736600Y1054100D03*
X590550Y431800D03*
X558800Y1130300D03*
M02*
