M48
;GenerationSoftware,Autodesk,EAGLE,9.6.2*%
;CreationDate,2020-07-25T20:53:15Z*%
FMAT,2
ICI,OFF
METRIC,TZ,000.000
T9C0.254
T8C0.700
T7C0.800
T6C0.813
T5C1.016
T4C1.118
T3C1.200
T2C2.794
T1C3.200
%
G90
M71
T1
X15240Y111760
X162560Y111760
X162560Y2540
X15240Y2540
T2
X2540Y101606
X2540Y12694
T3
X172760Y20010
X172760Y13010
X172760Y36520
X172760Y29520
T4
X171450Y73660
X171450Y78740
X171450Y88900
X171450Y93980
X171450Y104140
X171450Y109220
T5
X8890Y106680
X6350Y106680
X3810Y106680
X173990Y52070
X173990Y54610
X173990Y57150
X173990Y46990
X173990Y44450
X173990Y41910
X146050Y2540
X148590Y2540
X151130Y2540
X153670Y2540
X156210Y2540
X162560Y50800
X162560Y53340
X6350Y111760
X97790Y55880
X95250Y55880
X97790Y58420
X95250Y58420
X97790Y3810
X97790Y6350
X97790Y8890
X97790Y11430
X97790Y13970
X97790Y16510
X95250Y3810
X95250Y6350
X95250Y8890
X95250Y11430
X95250Y13970
X95250Y16510
X97790Y19050
X95250Y19050
X97790Y21590
X97790Y24130
X97790Y26670
X97790Y29210
X97790Y31750
X97790Y34290
X95250Y21590
X95250Y24130
X95250Y26670
X95250Y29210
X95250Y31750
X95250Y34290
X97790Y36830
X95250Y36830
X97790Y39370
X97790Y41910
X97790Y44450
X97790Y46990
X97790Y49530
X97790Y52070
X95250Y39370
X95250Y41910
X95250Y44450
X95250Y46990
X95250Y49530
X95250Y52070
X97790Y62230
X97790Y64770
X97790Y67310
X97790Y69850
X97790Y72390
X97790Y74930
X95250Y62230
X95250Y64770
X95250Y67310
X95250Y69850
X95250Y72390
X95250Y74930
X97790Y77470
X95250Y77470
X97790Y80010
X97790Y82550
X97790Y85090
X97790Y87630
X97790Y90170
X97790Y92710
X95250Y80010
X95250Y82550
X95250Y85090
X95250Y87630
X95250Y90170
X95250Y92710
X97790Y95250
X95250Y95250
X97790Y97790
X97790Y100330
X97790Y102870
X97790Y105410
X97790Y107950
X97790Y110490
X95250Y97790
X95250Y100330
X95250Y102870
X95250Y105410
X95250Y107950
X95250Y110490
X3810Y111760
X5080Y17780
X5080Y20320
X5080Y22860
X10160Y96520
X10160Y93980
X10160Y91440
X10160Y88900
X10160Y86360
X10160Y83820
X10160Y81280
X10160Y78740
X10160Y76200
X10160Y73660
X10160Y71120
X10160Y68580
X10160Y66040
X10160Y63500
X10160Y60960
X10160Y58420
X7620Y96520
X7620Y93980
X7620Y91440
X7620Y88900
X7620Y86360
X7620Y83820
X7620Y81280
X7620Y78740
X7620Y76200
X7620Y73660
X7620Y71120
X7620Y68580
X7620Y66040
X7620Y63500
X7620Y60960
X7620Y58420
X5080Y96520
X5080Y93980
X5080Y91440
X5080Y88900
X5080Y86360
X5080Y83820
X5080Y81280
X5080Y78740
X5080Y76200
X5080Y73660
X5080Y71120
X5080Y68580
X5080Y66040
X5080Y63500
X5080Y60960
X5080Y58420
X10160Y55880
X10160Y53340
X10160Y50800
X10160Y48260
X10160Y45720
X10160Y43180
X10160Y40640
X10160Y38100
X10160Y35560
X10160Y33020
X10160Y30480
X10160Y27940
X10160Y25400
X10160Y22860
X10160Y20320
X10160Y17780
X7620Y55880
X7620Y53340
X7620Y50800
X7620Y48260
X7620Y45720
X7620Y43180
X7620Y40640
X7620Y38100
X7620Y35560
X7620Y33020
X7620Y30480
X7620Y27940
X7620Y25400
X7620Y22860
X7620Y20320
X7620Y17780
X5080Y55880
X5080Y53340
X5080Y50800
X5080Y48260
X5080Y45720
X5080Y43180
X5080Y40640
X5080Y38100
X5080Y35560
X5080Y33020
X5080Y30480
X5080Y27940
X5080Y25400
T6
X175260Y5080
X172720Y5080
X163830Y6350
X166370Y57150
X166370Y67310
X172720Y64770
X175260Y64770
X163830Y30480
X163830Y20320
X162560Y88900
X162560Y92710
X163830Y16510
X153670Y82550
X160020Y44450
X160020Y34290
X152400Y92710
X128270Y95250
X153670Y80010
X153670Y67310
X62230Y27940
X64770Y27940
X67310Y27940
X69850Y27940
X72390Y27940
X74930Y27940
X72390Y20320
X74930Y20320
X69850Y20320
X67310Y20320
X77470Y27940
X77470Y20320
X64770Y20320
X62230Y20320
X163830Y34290
X163830Y44450
X153670Y64770
X153670Y77470
X153670Y74930
X153670Y69850
X153670Y72390
X138430Y16510
X140970Y16510
X143510Y16510
X146050Y16510
X148590Y16510
X151130Y16510
X148590Y8890
X151130Y8890
X146050Y8890
X143510Y8890
X153670Y16510
X153670Y8890
X140970Y8890
X138430Y8890
X153670Y62230
X153670Y59690
X166370Y73660
X166370Y76200
X166370Y78740
X44450Y15240
X46990Y15240
X49530Y15240
X52070Y15240
X54610Y15240
X57150Y15240
X59690Y15240
X62230Y15240
X64770Y15240
X67310Y15240
X67310Y7620
X64770Y7620
X54610Y7620
X57150Y7620
X52070Y7620
X49530Y7620
X62230Y7620
X59690Y7620
X46990Y7620
X44450Y7620
X21590Y53340
X24130Y53340
X26670Y53340
X29210Y53340
X31750Y53340
X34290Y53340
X36830Y53340
X39370Y53340
X41910Y53340
X44450Y53340
X44450Y45720
X41910Y45720
X31750Y45720
X34290Y45720
X29210Y45720
X26670Y45720
X39370Y45720
X36830Y45720
X24130Y45720
X21590Y45720
X21590Y68580
X24130Y68580
X26670Y68580
X29210Y68580
X31750Y68580
X34290Y68580
X36830Y68580
X39370Y68580
X41910Y68580
X44450Y68580
X44450Y60960
X41910Y60960
X31750Y60960
X34290Y60960
X29210Y60960
X26670Y60960
X39370Y60960
X36830Y60960
X24130Y60960
X21590Y60960
X21590Y81280
X24130Y81280
X26670Y81280
X29210Y81280
X31750Y81280
X34290Y81280
X36830Y81280
X39370Y81280
X41910Y81280
X44450Y81280
X44450Y73660
X41910Y73660
X31750Y73660
X34290Y73660
X29210Y73660
X26670Y73660
X39370Y73660
X36830Y73660
X24130Y73660
X21590Y73660
X21590Y93980
X24130Y93980
X26670Y93980
X29210Y93980
X31750Y93980
X34290Y93980
X36830Y93980
X39370Y93980
X41910Y93980
X44450Y93980
X44450Y86360
X41910Y86360
X31750Y86360
X34290Y86360
X29210Y86360
X26670Y86360
X39370Y86360
X36830Y86360
X24130Y86360
X71120Y53340
X21590Y86360
X130810Y69850
X133350Y69850
X135890Y69850
X138430Y69850
X140970Y69850
X143510Y69850
X140970Y62230
X143510Y62230
X138430Y62230
X135890Y62230
X146050Y69850
X146050Y62230
X133350Y62230
X130810Y62230
X106680Y41910
X109220Y41910
X111760Y41910
X114300Y41910
X116840Y41910
X119380Y41910
X116840Y34290
X119380Y34290
X114300Y34290
X111760Y34290
X121920Y41910
X121920Y34290
X109220Y34290
X106680Y34290
X50800Y93980
X53340Y93980
X55880Y93980
X58420Y93980
X60960Y93980
X63500Y93980
X66040Y93980
X68580Y93980
X71120Y93980
X73660Y93980
X73660Y86360
X71120Y86360
X60960Y86360
X63500Y86360
X58420Y86360
X55880Y86360
X68580Y86360
X66040Y86360
X53340Y86360
X50800Y86360
X50800Y106680
X53340Y106680
X55880Y106680
X58420Y106680
X60960Y106680
X63500Y106680
X66040Y106680
X68580Y106680
X71120Y106680
X73660Y106680
X73660Y99060
X71120Y99060
X60960Y99060
X63500Y99060
X58420Y99060
X55880Y99060
X68580Y99060
X66040Y99060
X53340Y99060
X50800Y99060
X106680Y54610
X109220Y54610
X111760Y54610
X114300Y54610
X116840Y54610
X119380Y54610
X116840Y46990
X119380Y46990
X114300Y46990
X111760Y46990
X121920Y54610
X121920Y46990
X109220Y46990
X106680Y46990
X73660Y15240
X76200Y15240
X78740Y15240
X81280Y15240
X83820Y15240
X86360Y15240
X83820Y7620
X86360Y7620
X81280Y7620
X78740Y7620
X88900Y15240
X88900Y7620
X76200Y7620
X73660Y7620
X161290Y59690
X161290Y62230
X166370Y88900
X166370Y91440
X166370Y93980
X152400Y96520
X162560Y96520
X162560Y100330
X152400Y100330
X161290Y64770
X161290Y67310
X166370Y104140
X166370Y106680
X166370Y109220
X162560Y104140
X152400Y104140
X162560Y107950
X152400Y107950
X138430Y29210
X140970Y29210
X143510Y29210
X146050Y29210
X148590Y29210
X151130Y29210
X148590Y21590
X151130Y21590
X146050Y21590
X143510Y21590
X153670Y29210
X153670Y21590
X140970Y21590
X138430Y21590
X19050Y27940
X21590Y27940
X24130Y27940
X26670Y27940
X29210Y27940
X31750Y27940
X29210Y20320
X31750Y20320
X26670Y20320
X24130Y20320
X34290Y27940
X34290Y20320
X21590Y20320
X19050Y20320
X161290Y69850
X161290Y72390
X161290Y74930
X161290Y77470
X161290Y80010
X161290Y82550
X81280Y109220
X81280Y106680
X81280Y93980
X81280Y91440
X81280Y104140
X81280Y101600
X81280Y96520
X81280Y99060
X81280Y88900
X81280Y86360
X88900Y86360
X88900Y88900
X88900Y91440
X88900Y93980
X88900Y96520
X88900Y99060
X88900Y101600
X88900Y104140
X88900Y106680
X88900Y109220
X81280Y77470
X81280Y74930
X81280Y62230
X81280Y59690
X81280Y72390
X81280Y69850
X81280Y64770
X81280Y67310
X81280Y57150
X81280Y54610
X88900Y54610
X88900Y57150
X88900Y59690
X88900Y62230
X88900Y64770
X88900Y67310
X88900Y69850
X88900Y72390
X88900Y74930
X88900Y77470
X50800Y60960
X53340Y60960
X66040Y60960
X68580Y60960
X55880Y60960
X58420Y60960
X63500Y60960
X60960Y60960
X71120Y60960
X73660Y60960
X73660Y68580
X71120Y68580
X68580Y68580
X66040Y68580
X63500Y68580
X60960Y68580
X58420Y68580
X55880Y68580
X53340Y68580
X50800Y68580
X21590Y33020
X24130Y33020
X36830Y33020
X39370Y33020
X26670Y33020
X29210Y33020
X34290Y33020
X31750Y33020
X41910Y33020
X44450Y33020
X44450Y40640
X41910Y40640
X39370Y40640
X36830Y40640
X34290Y40640
X31750Y40640
X29210Y40640
X26670Y40640
X24130Y40640
X21590Y40640
X21590Y99060
X24130Y99060
X36830Y99060
X39370Y99060
X26670Y99060
X29210Y99060
X34290Y99060
X31750Y99060
X41910Y99060
X44450Y99060
X44450Y106680
X41910Y106680
X39370Y106680
X36830Y106680
X34290Y106680
X31750Y106680
X29210Y106680
X26670Y106680
X24130Y106680
X21590Y106680
X81280Y44450
X81280Y41910
X81280Y29210
X81280Y26670
X81280Y39370
X81280Y36830
X81280Y31750
X81280Y34290
X81280Y24130
X81280Y21590
X88900Y21590
X88900Y24130
X88900Y26670
X88900Y29210
X88900Y31750
X88900Y34290
X88900Y36830
X88900Y39370
X88900Y41910
X88900Y44450
X106680Y21590
X109220Y21590
X121920Y21590
X124460Y21590
X111760Y21590
X114300Y21590
X119380Y21590
X116840Y21590
X127000Y21590
X129540Y21590
X129540Y29210
X127000Y29210
X124460Y29210
X121920Y29210
X119380Y29210
X116840Y29210
X114300Y29210
X111760Y29210
X109220Y29210
X106680Y29210
X106680Y8890
X109220Y8890
X121920Y8890
X124460Y8890
X111760Y8890
X114300Y8890
X119380Y8890
X116840Y8890
X127000Y8890
X129540Y8890
X129540Y16510
X127000Y16510
X124460Y16510
X121920Y16510
X119380Y16510
X116840Y16510
X114300Y16510
X111760Y16510
X109220Y16510
X106680Y16510
X129540Y101600
X132080Y101600
X144780Y101600
X147320Y101600
X134620Y101600
X137160Y101600
X142240Y101600
X139700Y101600
X147320Y109220
X144780Y109220
X142240Y109220
X139700Y109220
X137160Y109220
X134620Y109220
X132080Y109220
X129540Y109220
X128270Y74930
X130810Y74930
X143510Y74930
X146050Y74930
X133350Y74930
X135890Y74930
X140970Y74930
X138430Y74930
X146050Y82550
X143510Y82550
X140970Y82550
X138430Y82550
X135890Y82550
X133350Y82550
X130810Y82550
X128270Y82550
X132080Y46990
X134620Y46990
X147320Y46990
X149860Y46990
X137160Y46990
X139700Y46990
X144780Y46990
X142240Y46990
X152400Y46990
X154940Y46990
X154940Y54610
X152400Y54610
X149860Y54610
X147320Y54610
X144780Y54610
X142240Y54610
X139700Y54610
X137160Y54610
X134620Y54610
X132080Y54610
X50800Y45720
X53340Y45720
X66040Y45720
X68580Y45720
X55880Y45720
X58420Y45720
X63500Y45720
X60960Y45720
X71120Y45720
X73660Y45720
X73660Y53340
X152400Y88900
X68580Y53340
X66040Y53340
X63500Y53340
X60960Y53340
X58420Y53340
X55880Y53340
X53340Y53340
X50800Y53340
X19050Y7620
X21590Y7620
X34290Y7620
X36830Y7620
X24130Y7620
X26670Y7620
X31750Y7620
X29210Y7620
X36830Y15240
X34290Y15240
X31750Y15240
X29210Y15240
X26670Y15240
X24130Y15240
X21590Y15240
X19050Y15240
X106680Y62230
X109220Y62230
X121920Y62230
X124460Y62230
X111760Y62230
X114300Y62230
X119380Y62230
X116840Y62230
X124460Y69850
X121920Y69850
X119380Y69850
X116840Y69850
X114300Y69850
X111760Y69850
X109220Y69850
X106680Y69850
X50800Y33020
X53340Y33020
X66040Y33020
X68580Y33020
X55880Y33020
X58420Y33020
X63500Y33020
X60960Y33020
X71120Y33020
X73660Y33020
X73660Y40640
X71120Y40640
X68580Y40640
X66040Y40640
X63500Y40640
X60960Y40640
X58420Y40640
X55880Y40640
X53340Y40640
X50800Y40640
X106680Y87630
X109220Y87630
X121920Y87630
X121920Y95250
X111760Y87630
X114300Y87630
X119380Y87630
X116840Y87630
X119380Y95250
X116840Y95250
X114300Y95250
X111760Y95250
X109220Y95250
X106680Y95250
X40640Y20320
X43180Y20320
X55880Y20320
X55880Y27940
X45720Y20320
X48260Y20320
X53340Y20320
X50800Y20320
X53340Y27940
X50800Y27940
X48260Y27940
X45720Y27940
X43180Y27940
X40640Y27940
X50800Y73660
X53340Y73660
X66040Y73660
X66040Y81280
X55880Y73660
X58420Y73660
X63500Y73660
X60960Y73660
X63500Y81280
X60960Y81280
X58420Y81280
X55880Y81280
X53340Y81280
X50800Y81280
X106680Y101600
X121920Y101600
X121920Y109220
X106680Y109220
X132080Y34290
X134620Y34290
X147320Y34290
X149860Y34290
X137160Y34290
X139700Y34290
X144780Y34290
X142240Y34290
X152400Y34290
X154940Y34290
X154940Y41910
X152400Y41910
X149860Y41910
X147320Y41910
X144780Y41910
X142240Y41910
X139700Y41910
X137160Y41910
X134620Y41910
X132080Y41910
X106680Y74930
X109220Y74930
X121920Y74930
X121920Y82550
X111760Y74930
X114300Y74930
X119380Y74930
X116840Y74930
X119380Y82550
X116840Y82550
X114300Y82550
X111760Y82550
X109220Y82550
X106680Y82550
X128270Y87630
X130810Y87630
X143510Y87630
X143510Y95250
X133350Y87630
X135890Y87630
X140970Y87630
X138430Y87630
X140970Y95250
X138430Y95250
X135890Y95250
X133350Y95250
X130810Y95250
T7
X175260Y30520
X175260Y35520
X175260Y14010
X175260Y19010
T8
X129540Y49530
X104140Y49530
X59690Y25400
X59690Y22860
X135890Y11430
X135890Y13970
X127000Y104140
X127000Y106680
X125730Y77470
X125730Y80010
X125730Y90170
X125730Y92710
X104140Y90170
X104140Y92710
X135890Y24130
X135890Y26670
X16510Y10160
X16510Y12700
X16510Y22860
X16510Y25400
X19050Y35560
X19050Y38100
X104140Y52070
X129540Y36830
X129540Y39370
X19050Y48260
X19050Y50800
X19050Y63500
X19050Y66040
X19050Y76200
X19050Y78740
X19050Y88900
X19050Y91440
X48260Y101600
X48260Y104140
X19050Y101600
X19050Y104140
X48260Y88900
X48260Y91440
X48260Y76200
X48260Y78740
X48260Y63500
X48260Y66040
X48260Y48260
X48260Y50800
X71120Y12700
X71120Y10160
X86360Y80010
X83820Y80010
X38100Y22860
X38100Y25400
X83820Y111760
X86360Y111760
X48260Y35560
X48260Y38100
X86360Y46990
X83820Y46990
X104140Y77470
X104140Y80010
X104140Y64770
X104140Y67310
X129540Y52070
X128270Y64770
X128270Y67310
X41910Y10160
X41910Y12700
X104140Y36830
X104140Y39370
X104140Y24130
X104140Y26670
X104140Y11430
X104140Y13970
T9
X118745Y26035
X109537Y26035
X108585Y43498
X46355Y46037
X53657Y37783
X48577Y32702
X83185Y32385
X14605Y54292
X14287Y98107
X15875Y46037
X17463Y97472
X83185Y37783
X113665Y39688
X120967Y51117
X84455Y86043
X85090Y32067
X91440Y49212
X50165Y90805
X45402Y37465
X32385Y36513
X49530Y90805
X46990Y63817
X30480Y63817
X91757Y82868
X56515Y78740
X92392Y94932
X60325Y92075
X66993Y107950
X90170Y70803
X76835Y107315
X75565Y61912
X66358Y63817
X79375Y85090
X79058Y69850
X96837Y30162
X48895Y25082
X46037Y37465
X101600Y22225
X104775Y19050
X91757Y77153
X91440Y75565
X75565Y74613
X76518Y36830
X96837Y80963
X77470Y79693
X76518Y36195
X39688Y36513
X90487Y104775
X29210Y66358
X76200Y94615
X75565Y62547
X13652Y56515
X65087Y63817
X65405Y57150
X38418Y59372
X39688Y47307
X92392Y44132
X93662Y40958
X6985Y49847
X46990Y48895
X50482Y63817
X93662Y29527
X75565Y35560
X76200Y98107
X11747Y87313
X30797Y87630
X31115Y83503
X52705Y82868
X18415Y83820
X20003Y77470
X62865Y75248
X38418Y79058
X29845Y110490
X81598Y110807
X86360Y75248
X47307Y65087
X50482Y65723
X17463Y7302
X101600Y72073
X101600Y101282
X31750Y101600
X102235Y75883
X84138Y76835
X45720Y65723
X44767Y38100
X157798Y73978
X149543Y50800
X88265Y50482
X85408Y11747
X17780Y12700
X158433Y70168
X155893Y14605
X105727Y12700
X100647Y12382
X20003Y13017
X14287Y34925
X63817Y89535
X63817Y16510
X13970Y18415
X12065Y32385
X38100Y31750
X33338Y30480
X27622Y23812
X23177Y23495
X64770Y90170
X64770Y70168
X49530Y72708
X70168Y77788
X70485Y59372
X8573Y72708
X132715Y72708
X42545Y62547
X7302Y62230
X75248Y25400
X138748Y4445
X77153Y3175
X44132Y26670
X119380Y98425
X78105Y98742
X77153Y60960
X75565Y59372
X150813Y26035
X107315Y26352
X100965Y70803
X67945Y73025
X106045Y59055
X100330Y59055
X100330Y75565
X53657Y76518
X77788Y53340
X77788Y6350
X129222Y63817
X142558Y66675
X93027Y18733
X93980Y19685
X123507Y20003
X123507Y27305
X22542Y6032
X113665Y4445
X114300Y30797
X66358Y90170
X91122Y90170
X141605Y44450
X93345Y37148
X103187Y34925
X116205Y51117
X107632Y51752
X105410Y99377
X129857Y89852
X118745Y13970
X16828Y44132
X86043Y26352
X12700Y29527
X39688Y101282
X19685Y100330
X15240Y56197
X22225Y105092
X14287Y63817
X11747Y63817
X22860Y63817
X79058Y46037
X24447Y48577
X79693Y36195
X44767Y42228
X79693Y29210
X17780Y27305
X48895Y23812
X42863Y66993
X12065Y68898
X94297Y63817
X107315Y64770
X94615Y66358
X86043Y64452
X103187Y58420
X46355Y57467
X45085Y108585
X119380Y13017
X89217Y13652
X69850Y102235
X112395Y11430
X125095Y11430
X38735Y42863
X101600Y47942
X84773Y46037
X80963Y13652
X115570Y23495
X142875Y23812
X115252Y7620
X104457Y5080
X90487Y36195
X59055Y38100
X58102Y64452
X56197Y65087
X84455Y96202
X81915Y80645
X58737Y78740
X64452Y24130
X25082Y25400
X143510Y5715
X93980Y5398
X111442Y72073
X100965Y66993
X100647Y50482
X73978Y49847
X126682Y48895
X103505Y42863
X51435Y37783
X50165Y23177
X118745Y44132
X82868Y43815
X84455Y104775
X83185Y99377
X83185Y102870
X49847Y102235
X49530Y69533
X84455Y102870
X65405Y78105
X24130Y78740
X123507Y81598
X122872Y32385
X101282Y32067
X100647Y44132
X112395Y35878
X106045Y57467
X35878Y16510
X75565Y13652
X83820Y39688
X90170Y40958
X139700Y17463
X69533Y50165
X22860Y49530
X157163Y53657
X87630Y48577
X85725Y50482
X46990Y101917
X111125Y23177
X110490Y56832
X96202Y56832
X108267Y57467
X105092Y17463
X69533Y18098
X23812Y75248
X35243Y92392
X45402Y90805
X66675Y109855
X149860Y97472
X39688Y112712
X145733Y110490
X37148Y105092
X149543Y96837
X24765Y88582
X46990Y88265
X48895Y87313
X124777Y86678
X127000Y81915
X82550Y71438
X87313Y97790
X42863Y97155
X46990Y85408
X40640Y92392
X37465Y65723
X143510Y44450
X106362Y44132
X101600Y10795
X14605Y8890
X102552Y40323
X79693Y35560
X79693Y30797
X25717Y30797
X139383Y44450
X122872Y44450
X116522Y36513
X102870Y48577
X105727Y45720
X125730Y45402
X90805Y34925
X144145Y97155
X141288Y19368
X156845Y30480
X158115Y31750
X32702Y51117
X65087Y52070
X65405Y55562
X103822Y56197
X105092Y71438
X120015Y73343
X127317Y76518
X124460Y49212
X109537Y49212
X131445Y93027
X115570Y92075
X135255Y80010
X117475Y77153
X120332Y85090
X114935Y71438
X141923Y68263
X83185Y98425
X93980Y4763
X4445Y16828
X79058Y55880
X18415Y85725
X22225Y56197
X50800Y55880
X131445Y24447
X106680Y24130
X134938Y3175
X25717Y3175
X138113Y10478
X105410Y11112
X101282Y9843
X38735Y7937
X113982Y1905
X38735Y1905
X117475Y4128
X101282Y3810
X100330Y4445
X151765Y57467
X108267Y63500
X125095Y35243
X125095Y32702
X96202Y34925
X96837Y78105
X50800Y38418
X3810Y109537
X100965Y106997
X100965Y85408
X2857Y86678
X108267Y84773
X73660Y71120
X43498Y70803
X100647Y22542
X100647Y31750
X86995Y68263
X93027Y42228
X93027Y41593
X82868Y38418
X93345Y55880
X73660Y56515
X43815Y111442
X31115Y111125
X111760Y27622
X93027Y77153
X91440Y60325
X92710Y60960
X92710Y63182
X91122Y92392
X83820Y100330
X43180Y42228
X19050Y42863
X16510Y82868
X56515Y30480
X74930Y30480
X74930Y53975
X31115Y57467
X8890Y57467
X47942Y73343
X50482Y75883
X116205Y73343
X116205Y71755
X37148Y51752
X45085Y1270
X134938Y1905
X41275Y47942
X73025Y1905
X134303Y1905
X17463Y82868
X17780Y44767
X32385Y59055
X13017Y58102
X13017Y41593
X26670Y43498
X93027Y85725
X91440Y78740
X51117Y76518
X56515Y84138
X50800Y30480
X35243Y30480
X60325Y66358
X33338Y64452
X145098Y79375
X111125Y84138
X78740Y84138
X75565Y17145
X93980Y27940
X33973Y23177
X55245Y17463
X58420Y17780
X31750Y17780
X51117Y4763
X66675Y13335
X31115Y12065
X113347Y55880
X66040Y58737
X116205Y60642
X61595Y50482
X91440Y52387
X93662Y60325
X70168Y46990
X71438Y59372
X100012Y31432
X139383Y56197
X149543Y73978
X133985Y60642
X134303Y45402
X118110Y81598
X99377Y21590
X113982Y23812
X88265Y52070
X44450Y112077
X33973Y111442
X50482Y50482
X77153Y51435
X77153Y32702
X94615Y111442
X37465Y112077
X6985Y94932
X39053Y103822
X74930Y69533
X73978Y77153
X52070Y77788
X51117Y97472
X115570Y72073
X115570Y74295
X24447Y50165
X51752Y51117
X22542Y31750
X36195Y50800
X36195Y59055
X59690Y59690
X9208Y51435
X31432Y51117
X34608Y58737
X61277Y59372
X7937Y36830
X35243Y37465
X42228Y56832
X69850Y57785
X40323Y35243
X4763Y80010
X70485Y82868
X45402Y79058
X44132Y47942
X13970Y58420
X13652Y87947
X61277Y58737
X33338Y57785
X32702Y85090
X23495Y72073
X27622Y96837
X55245Y96837
X49847Y56515
X25400Y82868
X26987Y56832
X58420Y57150
X59372Y96202
X54610Y55562
X4128Y92075
X29210Y55562
X63182Y55562
X56832Y96520
X56832Y56515
X67945Y56515
X37465Y56197
X69215Y54927
X62230Y54610
X67945Y71755
X64770Y42228
X39688Y42863
X38735Y83503
X65405Y83503
X35560Y70168
X37465Y43180
X57467Y71120
X57785Y83503
X29527Y83820
X30162Y43498
X27622Y84138
X55880Y84138
X25717Y47942
X4128Y54292
X100647Y97472
X84138Y64452
X82868Y62865
X86678Y64452
X85725Y63182
X98425Y81598
X72708Y82233
X72390Y100647
X93345Y30162
X102552Y34290
X105727Y12065
X150178Y13970
X127952Y22860
X130175Y40958
X99377Y36195
X136525Y39370
X105410Y30162
X107315Y37148
X100012Y34925
X100330Y55562
X106362Y26352
X136525Y31750
X132398Y10160
X136525Y29210
X100012Y16192
X104140Y6350
X150495Y6350
X106362Y38735
X102552Y27305
X103822Y34925
X126682Y37465
X130175Y45085
X99695Y59055
X101917Y39053
X103822Y45085
X40323Y65723
M30