G04 EAGLE Gerber RS-274X export*
G75*
%MOMM*%
%FSLAX34Y34*%
%LPD*%
%INTop Copper*%
%IPPOS*%
%AMOC8*
5,1,8,0,0,1.08239X$1,22.5*%
G01*
%ADD10P,1.649562X8X202.500000*%
%ADD11P,1.319650X8X202.500000*%
%ADD12C,1.219200*%
%ADD13P,1.814519X8X22.500000*%
%ADD14C,2.705100*%
%ADD15P,1.649562X8X22.500000*%
%ADD16C,1.050000*%
%ADD17R,1.050000X1.050000*%
%ADD18C,1.524000*%
%ADD19C,1.200000*%
%ADD20C,1.778000*%
%ADD21P,1.704548X8X22.500000*%
%ADD22C,1.574800*%
%ADD23P,1.539592X8X112.500000*%
%ADD24R,1.879600X1.879600*%
%ADD25C,1.879600*%
%ADD26C,5.080000*%
%ADD27C,0.152400*%
%ADD28C,0.508000*%


D10*
X50800Y177800D03*
X50800Y203200D03*
X50800Y228600D03*
X50800Y254000D03*
X50800Y279400D03*
X50800Y304800D03*
X50800Y330200D03*
X50800Y355600D03*
X50800Y381000D03*
X50800Y406400D03*
X50800Y431800D03*
X50800Y457200D03*
X50800Y482600D03*
X50800Y508000D03*
X50800Y533400D03*
X50800Y558800D03*
X76200Y177800D03*
X76200Y203200D03*
X76200Y228600D03*
X76200Y254000D03*
X76200Y279400D03*
X76200Y304800D03*
X76200Y330200D03*
X76200Y355600D03*
X76200Y381000D03*
X76200Y406400D03*
X76200Y431800D03*
X76200Y457200D03*
X76200Y482600D03*
X76200Y508000D03*
X76200Y533400D03*
X76200Y558800D03*
X101600Y177800D03*
X101600Y203200D03*
X101600Y228600D03*
X101600Y254000D03*
X101600Y279400D03*
X101600Y304800D03*
X101600Y330200D03*
X101600Y355600D03*
X101600Y381000D03*
X101600Y406400D03*
X101600Y431800D03*
X101600Y457200D03*
X101600Y482600D03*
X101600Y508000D03*
X101600Y533400D03*
X101600Y558800D03*
X50800Y584200D03*
X50800Y609600D03*
X50800Y635000D03*
X50800Y660400D03*
X50800Y685800D03*
X50800Y711200D03*
X50800Y736600D03*
X50800Y762000D03*
X50800Y787400D03*
X50800Y812800D03*
X50800Y838200D03*
X50800Y863600D03*
X50800Y889000D03*
X50800Y914400D03*
X50800Y939800D03*
X50800Y965200D03*
X76200Y584200D03*
X76200Y609600D03*
X76200Y635000D03*
X76200Y660400D03*
X76200Y685800D03*
X76200Y711200D03*
X76200Y736600D03*
X76200Y762000D03*
X76200Y787400D03*
X76200Y812800D03*
X76200Y838200D03*
X76200Y863600D03*
X76200Y889000D03*
X76200Y914400D03*
X76200Y939800D03*
X76200Y965200D03*
X101600Y584200D03*
X101600Y609600D03*
X101600Y635000D03*
X101600Y660400D03*
X101600Y685800D03*
X101600Y711200D03*
X101600Y736600D03*
X101600Y762000D03*
X101600Y787400D03*
X101600Y812800D03*
X101600Y838200D03*
X101600Y863600D03*
X101600Y889000D03*
X101600Y914400D03*
X101600Y939800D03*
X101600Y965200D03*
D11*
X1752600Y38100D03*
X1727200Y38100D03*
X1651000Y38100D03*
X1549400Y38100D03*
D12*
X330200Y730504D02*
X330200Y742696D01*
X355600Y742696D02*
X355600Y730504D01*
X482600Y730504D02*
X482600Y742696D01*
X508000Y742696D02*
X508000Y730504D01*
X381000Y730504D02*
X381000Y742696D01*
X406400Y742696D02*
X406400Y730504D01*
X457200Y730504D02*
X457200Y742696D01*
X431800Y742696D02*
X431800Y730504D01*
X533400Y730504D02*
X533400Y742696D01*
X558800Y742696D02*
X558800Y730504D01*
X584200Y730504D02*
X584200Y742696D01*
X609600Y742696D02*
X609600Y730504D01*
X635000Y730504D02*
X635000Y742696D01*
X660400Y742696D02*
X660400Y730504D01*
X685800Y730504D02*
X685800Y742696D01*
X711200Y742696D02*
X711200Y730504D01*
X736600Y730504D02*
X736600Y742696D01*
X762000Y742696D02*
X762000Y730504D01*
X787400Y730504D02*
X787400Y742696D01*
X812800Y742696D02*
X812800Y730504D01*
X812800Y882904D02*
X812800Y895096D01*
X787400Y895096D02*
X787400Y882904D01*
X762000Y882904D02*
X762000Y895096D01*
X736600Y895096D02*
X736600Y882904D01*
X711200Y882904D02*
X711200Y895096D01*
X685800Y895096D02*
X685800Y882904D01*
X660400Y882904D02*
X660400Y895096D01*
X635000Y895096D02*
X635000Y882904D01*
X609600Y882904D02*
X609600Y895096D01*
X584200Y895096D02*
X584200Y882904D01*
X558800Y882904D02*
X558800Y895096D01*
X533400Y895096D02*
X533400Y882904D01*
X508000Y882904D02*
X508000Y895096D01*
X482600Y895096D02*
X482600Y882904D01*
X457200Y882904D02*
X457200Y895096D01*
X431800Y895096D02*
X431800Y882904D01*
X406400Y882904D02*
X406400Y895096D01*
X381000Y895096D02*
X381000Y882904D01*
X355600Y882904D02*
X355600Y895096D01*
X330200Y895096D02*
X330200Y882904D01*
X635000Y590296D02*
X635000Y578104D01*
X660400Y578104D02*
X660400Y590296D01*
X787400Y590296D02*
X787400Y578104D01*
X812800Y578104D02*
X812800Y590296D01*
X685800Y590296D02*
X685800Y578104D01*
X711200Y578104D02*
X711200Y590296D01*
X762000Y590296D02*
X762000Y578104D01*
X736600Y578104D02*
X736600Y590296D01*
X812800Y654304D02*
X812800Y666496D01*
X787400Y666496D02*
X787400Y654304D01*
X762000Y654304D02*
X762000Y666496D01*
X736600Y666496D02*
X736600Y654304D01*
X711200Y654304D02*
X711200Y666496D01*
X685800Y666496D02*
X685800Y654304D01*
X660400Y654304D02*
X660400Y666496D01*
X635000Y666496D02*
X635000Y654304D01*
D13*
X1676400Y177800D03*
X1701800Y177800D03*
D14*
X1075690Y342075D02*
X1075690Y369126D01*
X1028700Y369126D02*
X1028700Y342075D01*
X981710Y342075D02*
X981710Y369126D01*
X1075690Y443675D02*
X1075690Y470726D01*
X1028700Y470726D02*
X1028700Y443675D01*
X981710Y443675D02*
X981710Y470726D01*
X1075690Y545275D02*
X1075690Y572326D01*
X1028700Y572326D02*
X1028700Y545275D01*
X981710Y545275D02*
X981710Y572326D01*
X1075690Y646875D02*
X1075690Y673926D01*
X1028700Y673926D02*
X1028700Y646875D01*
X981710Y646875D02*
X981710Y673926D01*
X1075690Y748475D02*
X1075690Y775526D01*
X1028700Y775526D02*
X1028700Y748475D01*
X981710Y748475D02*
X981710Y775526D01*
X1075690Y850075D02*
X1075690Y877126D01*
X1028700Y877126D02*
X1028700Y850075D01*
X981710Y850075D02*
X981710Y877126D01*
X1075690Y951675D02*
X1075690Y978726D01*
X1028700Y978726D02*
X1028700Y951675D01*
X981710Y951675D02*
X981710Y978726D01*
X1075690Y1053275D02*
X1075690Y1080326D01*
X1028700Y1080326D02*
X1028700Y1053275D01*
X981710Y1053275D02*
X981710Y1080326D01*
D12*
X228600Y958596D02*
X228600Y946404D01*
X254000Y946404D02*
X254000Y958596D01*
X381000Y958596D02*
X381000Y946404D01*
X406400Y946404D02*
X406400Y958596D01*
X279400Y958596D02*
X279400Y946404D01*
X304800Y946404D02*
X304800Y958596D01*
X355600Y958596D02*
X355600Y946404D01*
X330200Y946404D02*
X330200Y958596D01*
X431800Y958596D02*
X431800Y946404D01*
X457200Y946404D02*
X457200Y958596D01*
X457200Y1022604D02*
X457200Y1034796D01*
X431800Y1034796D02*
X431800Y1022604D01*
X406400Y1022604D02*
X406400Y1034796D01*
X381000Y1034796D02*
X381000Y1022604D01*
X355600Y1022604D02*
X355600Y1034796D01*
X330200Y1034796D02*
X330200Y1022604D01*
X304800Y1022604D02*
X304800Y1034796D01*
X279400Y1034796D02*
X279400Y1022604D01*
X254000Y1022604D02*
X254000Y1034796D01*
X228600Y1034796D02*
X228600Y1022604D01*
D11*
X1638300Y177800D03*
X1536700Y177800D03*
D13*
X1676400Y546100D03*
X1701800Y546100D03*
X1676400Y622300D03*
X1701800Y622300D03*
X1676400Y698500D03*
X1701800Y698500D03*
X1676400Y774700D03*
X1701800Y774700D03*
X1676400Y863600D03*
X1701800Y863600D03*
X1676400Y939800D03*
X1701800Y939800D03*
X1676400Y1016000D03*
X1701800Y1016000D03*
X1676400Y1092200D03*
X1701800Y1092200D03*
D11*
X1638300Y546100D03*
X1536700Y546100D03*
X1638300Y622300D03*
X1536700Y622300D03*
X1638300Y698500D03*
X1536700Y698500D03*
X1638300Y774700D03*
X1536700Y774700D03*
X1638300Y863600D03*
X1536700Y863600D03*
X1638300Y939800D03*
X1536700Y939800D03*
X1638300Y1016000D03*
X1536700Y1016000D03*
X1638300Y1092200D03*
X1536700Y1092200D03*
D12*
X330200Y590296D02*
X330200Y578104D01*
X355600Y578104D02*
X355600Y590296D01*
X482600Y590296D02*
X482600Y578104D01*
X508000Y578104D02*
X508000Y590296D01*
X381000Y590296D02*
X381000Y578104D01*
X406400Y578104D02*
X406400Y590296D01*
X457200Y590296D02*
X457200Y578104D01*
X431800Y578104D02*
X431800Y590296D01*
X533400Y590296D02*
X533400Y578104D01*
X558800Y578104D02*
X558800Y590296D01*
X558800Y654304D02*
X558800Y666496D01*
X533400Y666496D02*
X533400Y654304D01*
X508000Y654304D02*
X508000Y666496D01*
X482600Y666496D02*
X482600Y654304D01*
X457200Y654304D02*
X457200Y666496D01*
X431800Y666496D02*
X431800Y654304D01*
X406400Y654304D02*
X406400Y666496D01*
X381000Y666496D02*
X381000Y654304D01*
X355600Y654304D02*
X355600Y666496D01*
X330200Y666496D02*
X330200Y654304D01*
X406400Y450596D02*
X406400Y438404D01*
X431800Y438404D02*
X431800Y450596D01*
X558800Y450596D02*
X558800Y438404D01*
X584200Y438404D02*
X584200Y450596D01*
X457200Y450596D02*
X457200Y438404D01*
X482600Y438404D02*
X482600Y450596D01*
X533400Y450596D02*
X533400Y438404D01*
X508000Y438404D02*
X508000Y450596D01*
X584200Y514604D02*
X584200Y526796D01*
X558800Y526796D02*
X558800Y514604D01*
X533400Y514604D02*
X533400Y526796D01*
X508000Y526796D02*
X508000Y514604D01*
X482600Y514604D02*
X482600Y526796D01*
X457200Y526796D02*
X457200Y514604D01*
X431800Y514604D02*
X431800Y526796D01*
X406400Y526796D02*
X406400Y514604D01*
D15*
X152400Y101600D03*
X152400Y127000D03*
X177800Y101600D03*
X177800Y127000D03*
X203200Y101600D03*
X203200Y127000D03*
D16*
X177800Y850900D03*
X254000Y850900D03*
X254000Y774700D03*
D17*
X177800Y774700D03*
D14*
X1075690Y184976D02*
X1075690Y157925D01*
X1028700Y157925D02*
X1028700Y184976D01*
X981710Y184976D02*
X981710Y157925D01*
D18*
X1021080Y50800D02*
X1036320Y50800D01*
X1036320Y76200D02*
X1021080Y76200D01*
D19*
X1471600Y1024900D02*
X1483600Y1024900D01*
X1483600Y999500D02*
X1471600Y999500D01*
X1471600Y974100D02*
X1483600Y974100D01*
X1483600Y948700D02*
X1471600Y948700D01*
X1471600Y923300D02*
X1483600Y923300D01*
X1483600Y897900D02*
X1471600Y897900D01*
X1471600Y872500D02*
X1483600Y872500D01*
X1483600Y847100D02*
X1471600Y847100D01*
X1471600Y821700D02*
X1483600Y821700D01*
X1483600Y796300D02*
X1471600Y796300D01*
X1471600Y770900D02*
X1483600Y770900D01*
X1483600Y745500D02*
X1471600Y745500D01*
X1471600Y720100D02*
X1483600Y720100D01*
X1483600Y694700D02*
X1471600Y694700D01*
X1471600Y669300D02*
X1483600Y669300D01*
X1483600Y643900D02*
X1471600Y643900D01*
D12*
X584200Y946404D02*
X584200Y958596D01*
X609600Y958596D02*
X609600Y946404D01*
X736600Y946404D02*
X736600Y958596D01*
X762000Y958596D02*
X762000Y946404D01*
X635000Y946404D02*
X635000Y958596D01*
X660400Y958596D02*
X660400Y946404D01*
X711200Y946404D02*
X711200Y958596D01*
X685800Y958596D02*
X685800Y946404D01*
X787400Y946404D02*
X787400Y958596D01*
X812800Y958596D02*
X812800Y946404D01*
X812800Y1022604D02*
X812800Y1034796D01*
X787400Y1034796D02*
X787400Y1022604D01*
X762000Y1022604D02*
X762000Y1034796D01*
X736600Y1034796D02*
X736600Y1022604D01*
X711200Y1022604D02*
X711200Y1034796D01*
X685800Y1034796D02*
X685800Y1022604D01*
X660400Y1022604D02*
X660400Y1034796D01*
X635000Y1034796D02*
X635000Y1022604D01*
X609600Y1022604D02*
X609600Y1034796D01*
X584200Y1034796D02*
X584200Y1022604D01*
X660400Y310896D02*
X660400Y298704D01*
X685800Y298704D02*
X685800Y310896D01*
X812800Y310896D02*
X812800Y298704D01*
X812800Y374904D02*
X812800Y387096D01*
X711200Y310896D02*
X711200Y298704D01*
X736600Y298704D02*
X736600Y310896D01*
X787400Y310896D02*
X787400Y298704D01*
X762000Y298704D02*
X762000Y310896D01*
X787400Y374904D02*
X787400Y387096D01*
X762000Y387096D02*
X762000Y374904D01*
X736600Y374904D02*
X736600Y387096D01*
X711200Y387096D02*
X711200Y374904D01*
X685800Y374904D02*
X685800Y387096D01*
X660400Y387096D02*
X660400Y374904D01*
D10*
X215900Y63500D03*
X215900Y38100D03*
X190500Y63500D03*
X190500Y38100D03*
X165100Y63500D03*
X165100Y38100D03*
X139700Y63500D03*
X139700Y38100D03*
X114300Y63500D03*
X114300Y38100D03*
X88900Y63500D03*
X88900Y38100D03*
X63500Y63500D03*
X63500Y38100D03*
X38100Y63500D03*
X38100Y38100D03*
D20*
X708025Y203200D03*
X708025Y228600D03*
X708025Y177800D03*
D10*
X863600Y63500D03*
X863600Y38100D03*
X838200Y63500D03*
X838200Y38100D03*
X812800Y63500D03*
X812800Y38100D03*
X787400Y63500D03*
X787400Y38100D03*
X762000Y63500D03*
X762000Y38100D03*
X736600Y63500D03*
X736600Y38100D03*
X711200Y63500D03*
X711200Y38100D03*
X685800Y63500D03*
X685800Y38100D03*
D12*
X444500Y298704D02*
X444500Y310896D01*
X469900Y310896D02*
X469900Y298704D01*
X596900Y298704D02*
X596900Y310896D01*
X596900Y374904D02*
X596900Y387096D01*
X495300Y310896D02*
X495300Y298704D01*
X520700Y298704D02*
X520700Y310896D01*
X571500Y310896D02*
X571500Y298704D01*
X546100Y298704D02*
X546100Y310896D01*
X571500Y374904D02*
X571500Y387096D01*
X546100Y387096D02*
X546100Y374904D01*
X520700Y374904D02*
X520700Y387096D01*
X495300Y387096D02*
X495300Y374904D01*
X469900Y374904D02*
X469900Y387096D01*
X444500Y387096D02*
X444500Y374904D01*
D21*
X876300Y673100D03*
D22*
X850900Y673100D03*
D21*
X876300Y609600D03*
D22*
X850900Y609600D03*
D21*
X876300Y546100D03*
D22*
X850900Y546100D03*
D21*
X876300Y736600D03*
D22*
X850900Y736600D03*
D23*
X1524000Y406400D03*
X1524000Y431800D03*
X1524000Y292100D03*
X1524000Y317500D03*
X850900Y800100D03*
X850900Y825500D03*
X609600Y609600D03*
X609600Y635000D03*
X381000Y469900D03*
X381000Y495300D03*
X635000Y469900D03*
X635000Y495300D03*
X635000Y330200D03*
X635000Y355600D03*
X419100Y330200D03*
X419100Y355600D03*
X304800Y609600D03*
X304800Y635000D03*
X558800Y977900D03*
X558800Y1003300D03*
X203200Y977900D03*
X203200Y1003300D03*
D18*
X266700Y121920D02*
X266700Y106680D01*
X292100Y106680D02*
X292100Y121920D01*
D12*
X660400Y438404D02*
X660400Y450596D01*
X685800Y450596D02*
X685800Y438404D01*
X812800Y438404D02*
X812800Y450596D01*
X812800Y514604D02*
X812800Y526796D01*
X711200Y450596D02*
X711200Y438404D01*
X736600Y438404D02*
X736600Y450596D01*
X787400Y450596D02*
X787400Y438404D01*
X762000Y438404D02*
X762000Y450596D01*
X787400Y514604D02*
X787400Y526796D01*
X762000Y526796D02*
X762000Y514604D01*
X736600Y514604D02*
X736600Y526796D01*
X711200Y526796D02*
X711200Y514604D01*
X685800Y514604D02*
X685800Y526796D01*
X660400Y526796D02*
X660400Y514604D01*
X406400Y94996D02*
X406400Y82804D01*
X431800Y82804D02*
X431800Y94996D01*
X457200Y94996D02*
X457200Y82804D01*
X482600Y82804D02*
X482600Y94996D01*
X508000Y94996D02*
X508000Y82804D01*
X533400Y82804D02*
X533400Y94996D01*
X558800Y94996D02*
X558800Y82804D01*
X368300Y159004D02*
X368300Y171196D01*
X393700Y171196D02*
X393700Y159004D01*
X520700Y159004D02*
X520700Y171196D01*
X546100Y171196D02*
X546100Y159004D01*
X419100Y159004D02*
X419100Y171196D01*
X444500Y171196D02*
X444500Y159004D01*
X495300Y159004D02*
X495300Y171196D01*
X469900Y171196D02*
X469900Y159004D01*
X571500Y159004D02*
X571500Y171196D01*
X596900Y171196D02*
X596900Y159004D01*
X596900Y235204D02*
X596900Y247396D01*
X571500Y247396D02*
X571500Y235204D01*
X546100Y235204D02*
X546100Y247396D01*
X520700Y247396D02*
X520700Y235204D01*
X495300Y235204D02*
X495300Y247396D01*
X469900Y247396D02*
X469900Y235204D01*
X444500Y235204D02*
X444500Y247396D01*
X419100Y247396D02*
X419100Y235204D01*
X393700Y235204D02*
X393700Y247396D01*
X368300Y247396D02*
X368300Y235204D01*
X1727200Y336804D02*
X1727200Y348996D01*
X1701800Y348996D02*
X1701800Y336804D01*
X1676400Y336804D02*
X1676400Y348996D01*
X1651000Y348996D02*
X1651000Y336804D01*
X1625600Y336804D02*
X1625600Y348996D01*
X1574800Y348996D02*
X1574800Y336804D01*
X1574800Y272796D02*
X1574800Y260604D01*
X1625600Y260604D02*
X1625600Y272796D01*
X1676400Y272796D02*
X1676400Y260604D01*
X1701800Y260604D02*
X1701800Y272796D01*
X1727200Y272796D02*
X1727200Y260604D01*
X1727200Y451104D02*
X1727200Y463296D01*
X1701800Y463296D02*
X1701800Y451104D01*
X1676400Y451104D02*
X1676400Y463296D01*
X1651000Y463296D02*
X1651000Y451104D01*
X1625600Y451104D02*
X1625600Y463296D01*
X1574800Y463296D02*
X1574800Y451104D01*
X1574800Y387096D02*
X1574800Y374904D01*
X1625600Y374904D02*
X1625600Y387096D01*
X1676400Y387096D02*
X1676400Y374904D01*
X1701800Y374904D02*
X1701800Y387096D01*
X1727200Y387096D02*
X1727200Y374904D01*
X190500Y438404D02*
X190500Y450596D01*
X215900Y450596D02*
X215900Y438404D01*
X342900Y438404D02*
X342900Y450596D01*
X342900Y514604D02*
X342900Y526796D01*
X241300Y450596D02*
X241300Y438404D01*
X266700Y438404D02*
X266700Y450596D01*
X317500Y450596D02*
X317500Y438404D01*
X292100Y438404D02*
X292100Y450596D01*
X317500Y514604D02*
X317500Y526796D01*
X292100Y526796D02*
X292100Y514604D01*
X266700Y514604D02*
X266700Y526796D01*
X241300Y526796D02*
X241300Y514604D01*
X215900Y514604D02*
X215900Y526796D01*
X190500Y526796D02*
X190500Y514604D01*
D24*
X1376200Y115800D03*
D25*
X1348500Y115800D03*
X1320800Y115800D03*
X1293100Y115800D03*
X1265400Y115800D03*
X1362300Y87400D03*
X1334600Y87400D03*
X1307000Y87400D03*
X1279300Y87400D03*
D26*
X1445800Y101600D03*
X1195800Y101600D03*
D15*
X1295400Y190500D03*
X1295400Y215900D03*
X1320800Y190500D03*
X1320800Y215900D03*
X1346200Y190500D03*
X1346200Y215900D03*
D23*
X342900Y190500D03*
X342900Y215900D03*
X165100Y469900D03*
X165100Y495300D03*
D27*
X787400Y330200D02*
X812800Y304800D01*
X787400Y330200D02*
X787400Y381000D01*
X787400Y419100D02*
X812800Y444500D01*
X787400Y419100D02*
X787400Y381000D01*
X609600Y177800D02*
X596900Y165100D01*
X609600Y177800D02*
X609600Y292100D01*
X596900Y304800D01*
X527050Y958850D02*
X546100Y977900D01*
X546100Y990600D01*
X558800Y1003300D01*
X546100Y571500D02*
X520700Y546100D01*
X546100Y571500D02*
X558800Y584200D01*
X520700Y546100D02*
X520700Y457200D01*
X508000Y444500D01*
X546100Y939800D02*
X527050Y958850D01*
X546100Y939800D02*
X546100Y571500D01*
X76200Y965200D02*
X50800Y965200D01*
X88900Y965200D02*
X101600Y965200D01*
X88900Y965200D02*
X76200Y965200D01*
X88900Y965200D02*
X88900Y831850D01*
X95250Y825500D01*
X165100Y825500D01*
X165100Y495300D01*
X660400Y660400D02*
X660400Y736600D01*
X304800Y723900D02*
X254000Y774700D01*
X304800Y723900D02*
X304800Y635000D01*
X101600Y177800D02*
X76200Y177800D01*
X266700Y520700D02*
X292100Y520700D01*
X317500Y520700D01*
X292100Y266700D02*
X342900Y215900D01*
X292100Y266700D02*
X292100Y444500D01*
X292100Y520700D01*
X292100Y622300D02*
X304800Y635000D01*
X292100Y622300D02*
X292100Y520700D01*
X635000Y495300D02*
X641350Y501650D01*
X641350Y565150D01*
X647700Y571500D01*
X647700Y635000D01*
X660400Y647700D01*
X660400Y660400D01*
X1701800Y63500D02*
X1727200Y38100D01*
X1701800Y165100D02*
X1701800Y177800D01*
X1701800Y165100D02*
X1701800Y63500D01*
X1625600Y457200D02*
X1574800Y457200D01*
X1574800Y342900D02*
X1574800Y266700D01*
X1574800Y342900D02*
X1574800Y381000D01*
X1574800Y342900D02*
X1625600Y342900D01*
X1574800Y381000D02*
X1574800Y457200D01*
X1574800Y165100D02*
X1701800Y165100D01*
X1574800Y165100D02*
X1574800Y266700D01*
X1701800Y546100D02*
X1701800Y622300D01*
X1701800Y698500D02*
X1701800Y774700D01*
X1701800Y698500D02*
X1701800Y622300D01*
X1701800Y863600D02*
X1701800Y939800D01*
X1701800Y1016000D02*
X1701800Y1092200D01*
X1701800Y1016000D02*
X1701800Y939800D01*
X1701800Y863600D02*
X1701800Y774700D01*
X1701800Y533400D02*
X1625600Y457200D01*
X1701800Y533400D02*
X1701800Y546100D01*
X850900Y857250D02*
X838200Y869950D01*
X850900Y857250D02*
X850900Y825500D01*
X825500Y939800D02*
X812800Y952500D01*
X825500Y939800D02*
X825500Y749300D01*
X812800Y736600D01*
X838200Y812800D02*
X850900Y825500D01*
X838200Y812800D02*
X838200Y749300D01*
X850900Y736600D01*
X1219200Y120650D02*
X1263650Y120650D01*
X1219200Y120650D02*
X1168400Y171450D01*
X1079500Y171450D01*
X1263650Y120650D02*
X1265400Y115800D01*
X1079500Y965200D02*
X1079500Y1066800D01*
X1075690Y1066800D01*
X1079500Y863600D02*
X1079500Y762000D01*
X1079500Y457200D02*
X1079500Y355600D01*
X1079500Y558800D02*
X1079500Y660400D01*
X1079500Y558800D02*
X1079500Y457200D01*
X1075690Y457200D01*
X1075690Y558800D02*
X1079500Y558800D01*
X1079500Y660400D02*
X1079500Y762000D01*
X1075690Y762000D01*
X1075690Y660400D02*
X1079500Y660400D01*
X1079500Y863600D02*
X1079500Y965200D01*
X1075690Y965200D01*
X1075690Y863600D02*
X1079500Y863600D01*
X1079500Y355600D02*
X1079500Y171450D01*
X1075690Y171450D01*
X1075690Y355600D02*
X1079500Y355600D01*
D28*
X527050Y958850D03*
X838200Y869950D03*
D27*
X355600Y889000D02*
X330200Y889000D01*
X381000Y889000D02*
X406400Y889000D01*
X76200Y939800D02*
X50800Y939800D01*
X177800Y850900D02*
X203200Y876300D01*
X203200Y939800D02*
X203200Y977900D01*
X203200Y939800D02*
X203200Y876300D01*
X203200Y533400D02*
X190500Y520700D01*
X203200Y533400D02*
X203200Y876300D01*
X203200Y939800D02*
X101600Y939800D01*
X406400Y520700D02*
X444500Y482600D01*
X444500Y463550D02*
X444500Y381000D01*
X444500Y463550D02*
X444500Y482600D01*
X101600Y203200D02*
X76200Y203200D01*
X393700Y355600D02*
X406400Y342900D01*
X419100Y330200D01*
X393700Y355600D02*
X393700Y457200D01*
X387350Y463550D02*
X381000Y469900D01*
X387350Y463550D02*
X393700Y457200D01*
X406400Y342900D02*
X406400Y215900D01*
X406400Y88900D01*
X387350Y463550D02*
X444500Y463550D01*
X1727200Y342900D02*
X1727200Y266700D01*
X1727200Y342900D02*
X1727200Y381000D01*
X1727200Y457200D01*
X1524000Y63500D02*
X1549400Y38100D01*
X1524000Y63500D02*
X1524000Y292100D01*
X1511300Y393700D02*
X1524000Y406400D01*
X1511300Y393700D02*
X1511300Y304800D01*
X1524000Y292100D01*
X660400Y520700D02*
X647700Y508000D01*
X647700Y482600D01*
X635000Y469900D01*
X622300Y342900D02*
X635000Y330200D01*
X622300Y342900D02*
X622300Y457200D01*
X635000Y469900D01*
X635000Y215900D02*
X641350Y209550D01*
X635000Y215900D02*
X635000Y330200D01*
X317500Y647700D02*
X330200Y660400D01*
X317500Y647700D02*
X317500Y622300D01*
X304800Y609600D01*
X622300Y647700D02*
X635000Y660400D01*
X622300Y647700D02*
X622300Y622300D01*
X615950Y615950D02*
X609600Y609600D01*
X615950Y615950D02*
X622300Y622300D01*
X615950Y488950D02*
X635000Y469900D01*
X615950Y488950D02*
X615950Y615950D01*
X984250Y355600D02*
X984250Y171450D01*
X981710Y171450D01*
X984250Y660400D02*
X984250Y762000D01*
X984250Y558800D02*
X984250Y457200D01*
X984250Y558800D02*
X984250Y660400D01*
X981710Y660400D01*
X981710Y558800D02*
X984250Y558800D01*
X984250Y457200D02*
X984250Y355600D01*
X981710Y355600D01*
X981710Y457200D02*
X984250Y457200D01*
X762000Y736600D02*
X768350Y742950D01*
X768350Y793750D01*
X571500Y1016000D02*
X584200Y1028700D01*
X571500Y1016000D02*
X571500Y990600D01*
X558800Y977900D01*
X984250Y965200D02*
X984250Y863600D01*
X984250Y965200D02*
X984250Y1066800D01*
X981710Y1066800D01*
X981710Y965200D02*
X984250Y965200D01*
X984250Y863600D02*
X984250Y762000D01*
X981710Y762000D01*
X981710Y863600D02*
X984250Y863600D01*
X203200Y508000D02*
X190500Y520700D01*
X203200Y508000D02*
X203200Y127000D01*
D28*
X406400Y215900D03*
X641350Y209550D03*
X768350Y793750D03*
D27*
X1016000Y920750D02*
X1041400Y895350D01*
X635000Y920750D02*
X635000Y952500D01*
X419100Y165100D02*
X419100Y76200D01*
X412750Y69850D01*
X381000Y69850D01*
X381000Y438150D01*
X355600Y463550D01*
X355600Y558800D01*
X342900Y571500D01*
X342900Y723900D01*
X330200Y736600D01*
X292100Y1016000D02*
X279400Y1028700D01*
X292100Y927100D02*
X292100Y825500D01*
X292100Y927100D02*
X292100Y1016000D01*
X292100Y825500D02*
X330200Y787400D01*
X330200Y736600D01*
X361950Y565150D02*
X355600Y558800D01*
D28*
X1041400Y895350D03*
X1016000Y920750D03*
X635000Y920750D03*
X361950Y565150D03*
X292100Y927100D03*
D27*
X431800Y177800D02*
X444500Y165100D01*
X431800Y177800D02*
X431800Y266700D01*
X44450Y342900D02*
X38100Y349250D01*
X38100Y647700D01*
X50800Y660400D01*
X393700Y596900D02*
X406400Y584200D01*
X393700Y679450D02*
X393700Y704850D01*
X393700Y679450D02*
X393700Y596900D01*
X393700Y704850D02*
X381000Y717550D01*
X1123950Y901700D02*
X1136650Y889000D01*
X1123950Y901700D02*
X1123950Y920750D01*
X666750Y927100D02*
X660400Y933450D01*
X660400Y952500D01*
X336550Y1035050D02*
X330200Y1028700D01*
X336550Y1035050D02*
X336550Y1047750D01*
X361950Y1073150D01*
X514350Y1073150D01*
X514350Y920750D01*
X336550Y755650D02*
X355600Y736600D01*
X336550Y755650D02*
X336550Y844550D01*
X311150Y869950D01*
X311150Y895350D01*
X361950Y679450D02*
X393700Y679450D01*
D28*
X431800Y266700D03*
X44450Y342900D03*
X381000Y717550D03*
X1136650Y889000D03*
X1123950Y920750D03*
X666750Y927100D03*
X514350Y920750D03*
X311150Y895350D03*
X361950Y679450D03*
D27*
X774700Y806450D02*
X793750Y787400D01*
X774700Y806450D02*
X774700Y939800D01*
X762000Y952500D01*
X412750Y730250D02*
X406400Y736600D01*
X412750Y711200D02*
X412750Y679450D01*
X412750Y711200D02*
X412750Y730250D01*
X412750Y679450D02*
X419100Y673100D01*
X419100Y603250D01*
X431800Y1028700D02*
X469900Y1066800D01*
X495300Y1066800D01*
X495300Y787400D02*
X495300Y596900D01*
X495300Y787400D02*
X495300Y1066800D01*
X495300Y596900D02*
X508000Y584200D01*
X552450Y171450D02*
X546100Y165100D01*
X552450Y171450D02*
X552450Y196850D01*
X584200Y228600D01*
X584200Y342900D01*
X609600Y368300D01*
X609600Y596900D01*
D28*
X793750Y787400D03*
X419100Y603250D03*
X609600Y596900D03*
X412750Y711200D03*
X495300Y787400D03*
D27*
X1111250Y774700D02*
X1111250Y1073150D01*
X1073150Y1111250D01*
X762000Y1111250D01*
X762000Y1047750D02*
X762000Y1028700D01*
X762000Y1047750D02*
X762000Y1111250D01*
X438150Y742950D02*
X431800Y736600D01*
X438150Y742950D02*
X438150Y869950D01*
X444500Y876300D01*
X444500Y939800D01*
X431800Y952500D01*
X501650Y666750D02*
X508000Y660400D01*
X501650Y666750D02*
X501650Y698500D01*
X438150Y704850D02*
X431800Y711200D01*
X431800Y736600D01*
X558800Y254000D02*
X546100Y241300D01*
X558800Y254000D02*
X558800Y419100D01*
X571500Y431800D01*
X571500Y533400D01*
X590550Y552450D01*
X590550Y584200D01*
X577850Y596900D01*
X577850Y704850D01*
X647700Y1047750D02*
X762000Y1047750D01*
X647700Y1047750D02*
X647700Y1016000D01*
X596900Y965200D01*
X596900Y939800D01*
D28*
X1111250Y774700D03*
X501650Y698500D03*
X438150Y704850D03*
X577850Y704850D03*
X596900Y939800D03*
D27*
X469900Y723900D02*
X482600Y711200D01*
X469900Y723900D02*
X457200Y736600D01*
X482600Y711200D02*
X482600Y660400D01*
X381000Y952500D02*
X400050Y971550D01*
X469900Y971550D01*
X469900Y723900D01*
X933450Y768350D02*
X958850Y742950D01*
X977900Y723900D01*
X933450Y768350D02*
X933450Y1016000D01*
X958850Y336550D02*
X863600Y241300D01*
X958850Y336550D02*
X958850Y742950D01*
X488950Y990600D02*
X469900Y971550D01*
X488950Y990600D02*
X488950Y1060450D01*
D28*
X977900Y723900D03*
X933450Y1016000D03*
X863600Y241300D03*
X488950Y1060450D03*
D27*
X31750Y304800D02*
X44450Y292100D01*
X31750Y304800D02*
X31750Y768350D01*
X50800Y787400D01*
X400050Y666750D02*
X406400Y660400D01*
X400050Y666750D02*
X400050Y717550D01*
X393700Y723900D01*
X393700Y762000D02*
X393700Y850900D01*
X393700Y762000D02*
X393700Y723900D01*
X393700Y850900D02*
X368300Y876300D01*
X368300Y914400D01*
X330200Y952500D01*
X393700Y762000D02*
X412750Y762000D01*
D28*
X44450Y292100D03*
X412750Y762000D03*
D27*
X939800Y863600D02*
X971550Y831850D01*
X939800Y863600D02*
X939800Y939800D01*
X381000Y736600D02*
X342900Y774700D01*
X342900Y850900D01*
X317500Y876300D01*
X317500Y990600D01*
X342900Y1016000D01*
X342900Y1041400D01*
X349250Y1047750D01*
X381000Y1047750D01*
X381000Y1028700D01*
X469900Y596900D02*
X482600Y584200D01*
X469900Y596900D02*
X469900Y711200D01*
X514350Y171450D02*
X520700Y165100D01*
X514350Y171450D02*
X514350Y190500D01*
X501650Y196850D02*
X482600Y215900D01*
X482600Y406400D01*
X469900Y419100D01*
X469900Y596900D01*
X349250Y698500D02*
X381000Y730250D01*
X381000Y736600D01*
X425450Y984250D02*
X381000Y1028700D01*
D28*
X971550Y831850D03*
X939800Y939800D03*
X469900Y711200D03*
X514350Y190500D03*
X501650Y196850D03*
X349250Y698500D03*
X425450Y984250D03*
D27*
X508000Y717550D02*
X514350Y711200D01*
X508000Y717550D02*
X508000Y736600D01*
X514350Y692150D02*
X508000Y685800D01*
X514350Y692150D02*
X514350Y711200D01*
X387350Y444500D02*
X387350Y273050D01*
X387350Y444500D02*
X368300Y463550D01*
X368300Y647700D01*
X381000Y660400D01*
X615950Y1009650D02*
X635000Y1028700D01*
X615950Y1009650D02*
X596900Y1009650D01*
X596900Y1041400D01*
X590550Y1047750D01*
X520700Y1047750D01*
X520700Y781050D01*
X508000Y768350D01*
X508000Y736600D01*
D28*
X514350Y711200D03*
X508000Y685800D03*
X387350Y273050D03*
D27*
X704850Y450850D02*
X711200Y444500D01*
X704850Y450850D02*
X704850Y501650D01*
X698500Y508000D01*
X698500Y692150D01*
X127000Y704850D02*
X107950Y723900D01*
X88900Y723900D01*
X88900Y800100D01*
X76200Y812800D01*
D28*
X698500Y692150D03*
X127000Y704850D03*
D27*
X400050Y438150D02*
X406400Y444500D01*
X400050Y438150D02*
X400050Y400050D01*
X120650Y374650D02*
X114300Y368300D01*
X114300Y342900D01*
X101600Y330200D01*
D28*
X400050Y400050D03*
X120650Y374650D03*
D27*
X431800Y304800D02*
X431800Y444500D01*
D28*
X431800Y304800D03*
D27*
X450850Y438150D02*
X457200Y444500D01*
X450850Y438150D02*
X450850Y419100D01*
D28*
X450850Y419100D03*
D27*
X152400Y387350D02*
X146050Y393700D01*
X152400Y387350D02*
X152400Y127000D01*
D28*
X146050Y393700D03*
D27*
X711200Y488950D02*
X711200Y520700D01*
D28*
X711200Y488950D03*
D27*
X869950Y463550D02*
X901700Y495300D01*
X901700Y812800D01*
D28*
X869950Y463550D03*
X901700Y812800D03*
D27*
X1536700Y527050D02*
X1536700Y177800D01*
X1536700Y527050D02*
X1504950Y558800D01*
X1504950Y768350D01*
D28*
X1504950Y768350D03*
D27*
X133350Y781050D02*
X101600Y812800D01*
X133350Y781050D02*
X133350Y552450D01*
X127000Y546100D01*
X127000Y196850D01*
D28*
X127000Y196850D03*
D27*
X400050Y476250D02*
X393700Y482600D01*
X393700Y552450D01*
D28*
X400050Y476250D03*
X393700Y552450D03*
D27*
X787400Y1079500D02*
X927100Y939800D01*
X927100Y387350D01*
D28*
X787400Y1079500D03*
X927100Y387350D03*
D27*
X304800Y952500D02*
X298450Y958850D01*
X298450Y1009650D01*
X1028700Y1104900D02*
X1054100Y1079500D01*
X1054100Y482600D01*
X1028700Y457200D01*
D28*
X298450Y1009650D03*
X1028700Y1104900D03*
D27*
X368300Y965200D02*
X355600Y952500D01*
X368300Y965200D02*
X368300Y1041400D01*
X1022350Y1009650D02*
X1047750Y984250D01*
X1047750Y577850D01*
X1028700Y558800D01*
D28*
X368300Y1041400D03*
X1022350Y1009650D03*
D27*
X419100Y939800D02*
X406400Y952500D01*
X419100Y939800D02*
X419100Y876300D01*
X990600Y908050D02*
X1003300Y895350D01*
X1003300Y685800D01*
X1028700Y660400D01*
D28*
X419100Y876300D03*
X990600Y908050D03*
D27*
X1003300Y990600D02*
X990600Y1003300D01*
X1003300Y990600D02*
X1003300Y908050D01*
X1009650Y901700D01*
X1009650Y781050D01*
X1028700Y762000D01*
D28*
X990600Y1003300D03*
D27*
X939800Y1073150D02*
X965200Y1098550D01*
X1003300Y1098550D01*
X1003300Y1003300D01*
X1009650Y996950D01*
X1009650Y914400D01*
X1028700Y895350D01*
X1028700Y863600D01*
D28*
X939800Y1073150D03*
D27*
X1009650Y1016000D02*
X1016000Y1009650D01*
X1016000Y977900D01*
X1028700Y965200D01*
D28*
X1009650Y1016000D03*
D27*
X1638300Y177800D02*
X1676400Y177800D01*
X1676400Y546100D02*
X1638300Y546100D01*
X1638300Y622300D02*
X1676400Y622300D01*
X1676400Y939800D02*
X1638300Y939800D01*
X1638300Y1092200D02*
X1676400Y1092200D01*
X1676400Y698500D02*
X1638300Y698500D01*
X1638300Y774700D02*
X1676400Y774700D01*
X1676400Y863600D02*
X1638300Y863600D01*
X1638300Y1016000D02*
X1676400Y1016000D01*
X209550Y965200D02*
X209550Y692150D01*
X209550Y965200D02*
X215900Y971550D01*
X215900Y1041400D01*
X298450Y1123950D01*
X1536700Y1123950D01*
X1536700Y1092200D01*
D28*
X209550Y692150D03*
D27*
X425450Y666750D02*
X431800Y660400D01*
X425450Y666750D02*
X425450Y717550D01*
X419100Y723900D01*
X419100Y850900D01*
D28*
X419100Y850900D03*
D27*
X869950Y685800D02*
X895350Y711200D01*
X895350Y869950D01*
D28*
X869950Y685800D03*
X895350Y869950D03*
D27*
X533400Y584200D02*
X527050Y590550D01*
X527050Y641350D01*
X520700Y647700D01*
X520700Y768350D01*
D28*
X520700Y768350D03*
D27*
X457200Y584200D02*
X463550Y577850D01*
X463550Y552450D01*
X577850Y552450D02*
X584200Y558800D01*
X584200Y571500D01*
D28*
X463550Y552450D03*
X577850Y552450D03*
X584200Y571500D03*
D27*
X438150Y577850D02*
X431800Y584200D01*
X438150Y577850D02*
X438150Y552450D01*
X831850Y552450D02*
X838200Y546100D01*
X838200Y527050D01*
D28*
X438150Y552450D03*
X831850Y552450D03*
X838200Y527050D03*
D27*
X361950Y590550D02*
X355600Y584200D01*
X361950Y590550D02*
X361950Y622300D01*
X654050Y622300D02*
X673100Y603250D01*
X673100Y508000D01*
D28*
X361950Y622300D03*
X654050Y622300D03*
X673100Y508000D03*
D27*
X482600Y444500D02*
X482600Y419100D01*
X222250Y412750D02*
X215900Y406400D01*
X215900Y120650D01*
X209550Y114300D01*
X177800Y114300D01*
X177800Y101600D01*
D28*
X482600Y419100D03*
X222250Y412750D03*
D27*
X533400Y444500D02*
X533400Y368300D01*
X196850Y368300D02*
X177800Y349250D01*
X177800Y127000D01*
D28*
X533400Y368300D03*
X196850Y368300D03*
D27*
X406400Y546100D02*
X431800Y520700D01*
X69850Y546100D02*
X63500Y539750D01*
X63500Y107950D01*
X25400Y69850D01*
X25400Y50800D01*
X38100Y38100D01*
D28*
X406400Y546100D03*
X69850Y546100D03*
D27*
X533400Y520700D02*
X546100Y508000D01*
X546100Y431800D01*
X247650Y425450D02*
X222250Y400050D01*
X222250Y101600D01*
X196850Y76200D01*
X177800Y76200D01*
X177800Y57150D01*
X171450Y50800D01*
X139700Y50800D01*
X139700Y38100D01*
D28*
X546100Y431800D03*
X247650Y425450D03*
D27*
X793750Y539750D02*
X800100Y533400D01*
X800100Y482600D01*
X825500Y457200D01*
X825500Y95250D01*
X800100Y69850D01*
X800100Y50800D01*
X812800Y38100D01*
D28*
X793750Y539750D03*
D27*
X831850Y495300D02*
X844550Y482600D01*
X844550Y76200D01*
X850900Y69850D01*
X850900Y50800D01*
X838200Y38100D01*
X209550Y19050D02*
X190500Y38100D01*
X209550Y19050D02*
X209550Y12700D01*
D28*
X831850Y495300D03*
X209550Y12700D03*
D27*
X552450Y438150D02*
X558800Y444500D01*
X552450Y438150D02*
X552450Y412750D01*
X850900Y412750D02*
X857250Y406400D01*
X857250Y88900D01*
X876300Y69850D01*
X876300Y50800D01*
X863600Y38100D01*
X222250Y31750D02*
X215900Y38100D01*
X222250Y31750D02*
X222250Y12700D01*
D28*
X552450Y412750D03*
X850900Y412750D03*
X222250Y12700D03*
D27*
X571500Y304800D02*
X577850Y311150D01*
X577850Y361950D01*
X584200Y368300D01*
X584200Y400050D01*
X603250Y419100D01*
X603250Y596900D01*
X596900Y603250D01*
X596900Y615950D01*
X215900Y622300D02*
X215900Y939800D01*
X228600Y952500D01*
X228600Y1003300D02*
X254000Y1028700D01*
X228600Y1003300D02*
X228600Y952500D01*
D28*
X596900Y615950D03*
X215900Y622300D03*
D27*
X482600Y520700D02*
X488950Y514350D01*
X488950Y482600D01*
X711200Y469900D02*
X723900Y457200D01*
X723900Y50800D01*
X736600Y38100D01*
X120650Y6350D02*
X88900Y38100D01*
X120650Y6350D02*
X774700Y6350D01*
X774700Y44450D01*
X768350Y50800D01*
X723900Y50800D01*
D28*
X488950Y482600D03*
X711200Y469900D03*
D27*
X133350Y539750D02*
X133350Y76200D01*
X127000Y69850D01*
X127000Y50800D01*
X114300Y38100D01*
X749300Y25400D02*
X762000Y38100D01*
X749300Y25400D02*
X228600Y25400D01*
X228600Y44450D01*
X222250Y50800D01*
X184150Y50800D01*
X177800Y44450D01*
X177800Y31750D01*
X171450Y25400D01*
X114300Y25400D01*
X114300Y38100D01*
D28*
X133350Y539750D03*
D27*
X1028700Y171450D02*
X1028700Y76200D01*
X596900Y88900D02*
X558800Y88900D01*
X596900Y88900D02*
X647700Y139700D01*
X647700Y273050D02*
X647700Y406400D01*
X647700Y273050D02*
X647700Y139700D01*
X647700Y406400D02*
X685800Y444500D01*
X527050Y273050D02*
X495300Y304800D01*
X800100Y876300D02*
X787400Y889000D01*
X800100Y876300D02*
X800100Y698500D01*
X825500Y673100D01*
X825500Y469900D01*
D28*
X527050Y273050D03*
X647700Y273050D03*
X825500Y469900D03*
D27*
X527050Y374650D02*
X520700Y381000D01*
X527050Y374650D02*
X527050Y323850D01*
X533400Y317500D01*
X533400Y285750D02*
X533400Y88900D01*
X533400Y285750D02*
X533400Y317500D01*
X736600Y444500D02*
X742950Y438150D01*
X742950Y400050D01*
X749300Y393700D01*
X749300Y317500D01*
X762000Y304800D01*
X793750Y730250D02*
X787400Y736600D01*
X793750Y730250D02*
X793750Y679450D01*
X800100Y673100D01*
X800100Y622300D01*
X774700Y596900D01*
X774700Y558800D01*
X749300Y533400D01*
X749300Y469900D01*
X736600Y457200D01*
X736600Y444500D01*
D28*
X533400Y285750D03*
D27*
X730250Y120650D02*
X774700Y165100D01*
X774700Y431800D01*
X787400Y444500D01*
X787400Y520700D01*
X450850Y882650D02*
X457200Y889000D01*
X450850Y882650D02*
X450850Y755650D01*
X444500Y749300D01*
X444500Y571500D01*
X781050Y565150D02*
X787400Y558800D01*
X787400Y520700D01*
D28*
X730250Y120650D03*
X444500Y571500D03*
X781050Y565150D03*
D27*
X330200Y584200D02*
X330200Y247650D01*
X368300Y209550D01*
X368300Y165100D01*
X571500Y939800D02*
X584200Y952500D01*
X571500Y939800D02*
X571500Y558800D01*
D28*
X571500Y558800D03*
D27*
X165100Y63500D02*
X139700Y63500D01*
X63500Y63500D02*
X38100Y63500D01*
X63500Y63500D02*
X88900Y63500D01*
X114300Y63500D01*
X190500Y63500D02*
X215900Y63500D01*
X673100Y368300D02*
X685800Y381000D01*
X673100Y368300D02*
X673100Y152400D01*
X577850Y57150D01*
X215900Y57150D01*
X215900Y63500D01*
X863600Y381000D02*
X863600Y704850D01*
X831850Y736600D01*
X831850Y1009650D01*
X812800Y1028700D01*
D28*
X863600Y381000D03*
D27*
X476250Y336550D02*
X469900Y342900D01*
X469900Y381000D01*
X628650Y933450D02*
X609600Y952500D01*
X628650Y933450D02*
X628650Y914400D01*
X882650Y914400D02*
X908050Y889000D01*
X908050Y304800D01*
X863600Y260350D01*
X552450Y266700D02*
X546100Y273050D01*
X546100Y304800D01*
D28*
X476250Y336550D03*
X628650Y914400D03*
X882650Y914400D03*
X863600Y260350D03*
X552450Y266700D03*
D27*
X539750Y374650D02*
X546100Y381000D01*
X539750Y374650D02*
X539750Y349250D01*
X184150Y368300D02*
X177800Y374650D01*
X177800Y755650D01*
X196850Y774700D01*
X196850Y838200D01*
X673100Y857250D02*
X673100Y939800D01*
X685800Y952500D01*
D28*
X539750Y349250D03*
X184150Y368300D03*
X196850Y838200D03*
X673100Y857250D03*
D27*
X711200Y965200D02*
X742950Y996950D01*
X711200Y965200D02*
X711200Y952500D01*
D28*
X742950Y996950D03*
D27*
X641350Y742950D02*
X635000Y736600D01*
X641350Y742950D02*
X641350Y869950D01*
X647700Y876300D01*
X647700Y977900D01*
X685800Y1016000D01*
X685800Y1028700D01*
X698500Y901700D02*
X685800Y889000D01*
X698500Y901700D02*
X698500Y1016000D01*
X711200Y1028700D01*
X660400Y889000D02*
X666750Y882650D01*
X666750Y850900D01*
X749300Y850900D01*
X749300Y990600D01*
X787400Y1028700D01*
X641350Y895350D02*
X635000Y889000D01*
X641350Y895350D02*
X641350Y933450D01*
D28*
X641350Y933450D03*
D27*
X1117600Y958850D02*
X1130300Y971550D01*
X1117600Y958850D02*
X1117600Y209550D01*
D28*
X1130300Y971550D03*
X1117600Y209550D03*
D27*
X711200Y63500D02*
X685800Y63500D01*
X736600Y63500D02*
X762000Y63500D01*
X787400Y63500D01*
X742950Y514350D02*
X736600Y520700D01*
X742950Y514350D02*
X742950Y488950D01*
X831850Y482600D02*
X838200Y476250D01*
X838200Y63500D01*
X812800Y63500D01*
D28*
X742950Y488950D03*
X831850Y482600D03*
D27*
X457200Y292100D02*
X457200Y88900D01*
X457200Y292100D02*
X469900Y304800D01*
X571500Y400050D02*
X565150Y406400D01*
X571500Y400050D02*
X571500Y381000D01*
X755650Y514350D02*
X762000Y520700D01*
X755650Y514350D02*
X755650Y463550D01*
X749300Y457200D01*
X749300Y419100D01*
X590550Y717550D02*
X609600Y736600D01*
X590550Y717550D02*
X590550Y596900D01*
X596900Y590550D01*
X596900Y425450D01*
X571500Y400050D01*
X508000Y317500D02*
X520700Y304800D01*
X508000Y317500D02*
X508000Y406400D01*
D28*
X565150Y406400D03*
X749300Y419100D03*
X508000Y406400D03*
D27*
X654050Y361950D02*
X660400Y355600D01*
X660400Y304800D01*
D28*
X654050Y361950D03*
D27*
X323850Y781050D02*
X254000Y850900D01*
X323850Y781050D02*
X323850Y774700D01*
D28*
X323850Y774700D03*
D27*
X584200Y736600D02*
X603250Y755650D01*
X622300Y755650D01*
X622300Y723900D01*
X628650Y717550D01*
X647700Y717550D01*
X647700Y749300D01*
X654050Y755650D01*
X749300Y755650D01*
X749300Y673100D01*
X762000Y660400D01*
X565150Y730250D02*
X558800Y736600D01*
X565150Y730250D02*
X565150Y698500D01*
X704850Y698500D02*
X736600Y666750D01*
X736600Y660400D01*
D28*
X565150Y698500D03*
X704850Y698500D03*
D27*
X711200Y660400D02*
X742950Y628650D01*
X1085850Y628650D02*
X1111250Y603250D01*
X1111250Y203200D01*
X1123950Y190500D01*
X1295400Y190500D01*
D28*
X742950Y628650D03*
X1085850Y628650D03*
D27*
X584200Y889000D02*
X577850Y882650D01*
X577850Y838200D01*
X273050Y819150D02*
X228600Y774700D01*
X228600Y482600D01*
X254000Y457200D01*
X254000Y127000D01*
X266700Y114300D01*
D28*
X577850Y838200D03*
X273050Y819150D03*
D27*
X869950Y584200D02*
X876300Y590550D01*
X876300Y609600D01*
D28*
X869950Y584200D03*
D27*
X742950Y615950D02*
X711200Y584200D01*
D28*
X742950Y615950D03*
D27*
X692150Y590550D02*
X685800Y584200D01*
X692150Y590550D02*
X692150Y628650D01*
D28*
X692150Y628650D03*
D27*
X641350Y590550D02*
X635000Y584200D01*
X641350Y590550D02*
X641350Y641350D01*
X647700Y647700D01*
X647700Y704850D01*
X819150Y704850D02*
X850900Y673100D01*
D28*
X647700Y704850D03*
X819150Y704850D03*
D27*
X666750Y577850D02*
X660400Y584200D01*
X666750Y577850D02*
X666750Y546100D01*
D28*
X666750Y546100D03*
D27*
X762000Y584200D02*
X768350Y590550D01*
X768350Y641350D01*
X774700Y647700D01*
X774700Y749300D01*
D28*
X774700Y749300D03*
D27*
X685800Y520700D02*
X692150Y514350D01*
X692150Y463550D01*
X698500Y457200D01*
X698500Y241300D01*
X679450Y222250D01*
X679450Y196850D01*
X361950Y184150D02*
X292100Y114300D01*
D28*
X679450Y196850D03*
X361950Y184150D03*
D27*
X736600Y304800D02*
X736600Y381000D01*
X495300Y381000D02*
X495300Y546100D01*
X520700Y571500D01*
X520700Y628650D01*
X552450Y628650D02*
X558800Y635000D01*
X558800Y660400D01*
D28*
X520700Y628650D03*
X552450Y628650D03*
D27*
X1651000Y241300D02*
X1663700Y254000D01*
X1663700Y368300D01*
X1676400Y381000D01*
D28*
X1651000Y241300D03*
D27*
X476250Y234950D02*
X469900Y241300D01*
X476250Y234950D02*
X476250Y184150D01*
X482600Y177800D01*
X482600Y133350D01*
D28*
X482600Y133350D03*
D27*
X508000Y228600D02*
X495300Y241300D01*
X508000Y228600D02*
X508000Y133350D01*
X1663700Y228600D02*
X1689100Y254000D01*
X1689100Y444500D01*
X1701800Y457200D01*
D28*
X508000Y133350D03*
X1663700Y228600D03*
D27*
X1638300Y304800D02*
X1581150Y247650D01*
X1638300Y304800D02*
X1638300Y419100D01*
X1676400Y457200D01*
D28*
X1581150Y247650D03*
D27*
X590550Y146050D02*
X571500Y165100D01*
X590550Y146050D02*
X628650Y146050D01*
X628650Y260350D01*
D28*
X628650Y260350D03*
D27*
X908050Y146050D02*
X1028700Y25400D01*
X1739900Y25400D01*
X1739900Y228600D01*
X1701800Y266700D01*
D28*
X908050Y146050D03*
D27*
X469900Y165100D02*
X469900Y215900D01*
D28*
X469900Y215900D03*
D27*
X279400Y482600D02*
X241300Y520700D01*
X279400Y482600D02*
X279400Y101600D01*
X317500Y63500D01*
X546100Y63500D01*
X546100Y139700D01*
X558800Y152400D01*
X558800Y190500D01*
X596900Y228600D01*
X596900Y241300D01*
X222250Y527050D02*
X215900Y520700D01*
X222250Y527050D02*
X222250Y895350D01*
X266700Y939800D01*
X266700Y1041400D01*
X304800Y1079500D01*
X609600Y1079500D01*
X609600Y1028700D01*
X1320800Y215900D02*
X1333500Y203200D01*
X1333500Y133350D01*
X1346200Y120650D01*
X1348500Y115800D01*
X1320800Y115800D02*
X1320800Y190500D01*
X1136650Y609600D02*
X1123950Y622300D01*
X1136650Y609600D02*
X1136650Y304800D01*
X1225550Y215900D01*
X1295400Y215900D01*
D28*
X1123950Y622300D03*
M02*
