G04 EAGLE Gerber RS-274X export*
G75*
%MOMM*%
%FSLAX34Y34*%
%LPD*%
%INSoldermask Bottom*%
%IPPOS*%
%AMOC8*
5,1,8,0,0,1.08239X$1,22.5*%
G01*
%ADD10P,1.787026X8X202.500000*%
%ADD11C,2.921000*%
%ADD12P,1.457113X8X202.500000*%
%ADD13C,1.346200*%
%ADD14P,1.951982X8X22.500000*%
%ADD15C,2.832100*%
%ADD16P,1.787026X8X22.500000*%
%ADD17C,1.177000*%
%ADD18R,1.177000X1.177000*%
%ADD19C,1.651000*%
%ADD20C,1.327000*%
%ADD21C,2.927000*%
%ADD22C,1.905000*%
%ADD23P,1.842011X8X22.500000*%
%ADD24C,1.701800*%
%ADD25P,1.677055X8X112.500000*%
%ADD26R,2.006600X2.006600*%
%ADD27C,2.006600*%
%ADD28C,5.207000*%
%ADD29C,0.635000*%


D10*
X50800Y177800D03*
X50800Y203200D03*
X50800Y228600D03*
X50800Y254000D03*
X50800Y279400D03*
X50800Y304800D03*
X50800Y330200D03*
X50800Y355600D03*
X50800Y381000D03*
X50800Y406400D03*
X50800Y431800D03*
X50800Y457200D03*
X50800Y482600D03*
X50800Y508000D03*
X50800Y533400D03*
X50800Y558800D03*
X76200Y177800D03*
X76200Y203200D03*
X76200Y228600D03*
X76200Y254000D03*
X76200Y279400D03*
X76200Y304800D03*
X76200Y330200D03*
X76200Y355600D03*
X76200Y381000D03*
X76200Y406400D03*
X76200Y431800D03*
X76200Y457200D03*
X76200Y482600D03*
X76200Y508000D03*
X76200Y533400D03*
X76200Y558800D03*
X101600Y177800D03*
X101600Y203200D03*
X101600Y228600D03*
X101600Y254000D03*
X101600Y279400D03*
X101600Y304800D03*
X101600Y330200D03*
X101600Y355600D03*
X101600Y381000D03*
X101600Y406400D03*
X101600Y431800D03*
X101600Y457200D03*
X101600Y482600D03*
X101600Y508000D03*
X101600Y533400D03*
X101600Y558800D03*
X50800Y584200D03*
X50800Y609600D03*
X50800Y635000D03*
X50800Y660400D03*
X50800Y685800D03*
X50800Y711200D03*
X50800Y736600D03*
X50800Y762000D03*
X50800Y787400D03*
X50800Y812800D03*
X50800Y838200D03*
X50800Y863600D03*
X50800Y889000D03*
X50800Y914400D03*
X50800Y939800D03*
X50800Y965200D03*
X76200Y584200D03*
X76200Y609600D03*
X76200Y635000D03*
X76200Y660400D03*
X76200Y685800D03*
X76200Y711200D03*
X76200Y736600D03*
X76200Y762000D03*
X76200Y787400D03*
X76200Y812800D03*
X76200Y838200D03*
X76200Y863600D03*
X76200Y889000D03*
X76200Y914400D03*
X76200Y939800D03*
X76200Y965200D03*
X101600Y584200D03*
X101600Y609600D03*
X101600Y635000D03*
X101600Y660400D03*
X101600Y685800D03*
X101600Y711200D03*
X101600Y736600D03*
X101600Y762000D03*
X101600Y787400D03*
X101600Y812800D03*
X101600Y838200D03*
X101600Y863600D03*
X101600Y889000D03*
X101600Y914400D03*
X101600Y939800D03*
X101600Y965200D03*
D11*
X25400Y1016064D03*
X25400Y126936D03*
D12*
X1752600Y38100D03*
X1727200Y38100D03*
X1651000Y38100D03*
X1549400Y38100D03*
D13*
X330200Y730504D02*
X330200Y742696D01*
X355600Y742696D02*
X355600Y730504D01*
X482600Y730504D02*
X482600Y742696D01*
X508000Y742696D02*
X508000Y730504D01*
X381000Y730504D02*
X381000Y742696D01*
X406400Y742696D02*
X406400Y730504D01*
X457200Y730504D02*
X457200Y742696D01*
X431800Y742696D02*
X431800Y730504D01*
X533400Y730504D02*
X533400Y742696D01*
X558800Y742696D02*
X558800Y730504D01*
X584200Y730504D02*
X584200Y742696D01*
X609600Y742696D02*
X609600Y730504D01*
X635000Y730504D02*
X635000Y742696D01*
X660400Y742696D02*
X660400Y730504D01*
X685800Y730504D02*
X685800Y742696D01*
X711200Y742696D02*
X711200Y730504D01*
X736600Y730504D02*
X736600Y742696D01*
X762000Y742696D02*
X762000Y730504D01*
X787400Y730504D02*
X787400Y742696D01*
X812800Y742696D02*
X812800Y730504D01*
X812800Y882904D02*
X812800Y895096D01*
X787400Y895096D02*
X787400Y882904D01*
X762000Y882904D02*
X762000Y895096D01*
X736600Y895096D02*
X736600Y882904D01*
X711200Y882904D02*
X711200Y895096D01*
X685800Y895096D02*
X685800Y882904D01*
X660400Y882904D02*
X660400Y895096D01*
X635000Y895096D02*
X635000Y882904D01*
X609600Y882904D02*
X609600Y895096D01*
X584200Y895096D02*
X584200Y882904D01*
X558800Y882904D02*
X558800Y895096D01*
X533400Y895096D02*
X533400Y882904D01*
X508000Y882904D02*
X508000Y895096D01*
X482600Y895096D02*
X482600Y882904D01*
X457200Y882904D02*
X457200Y895096D01*
X431800Y895096D02*
X431800Y882904D01*
X406400Y882904D02*
X406400Y895096D01*
X381000Y895096D02*
X381000Y882904D01*
X355600Y882904D02*
X355600Y895096D01*
X330200Y895096D02*
X330200Y882904D01*
X635000Y590296D02*
X635000Y578104D01*
X660400Y578104D02*
X660400Y590296D01*
X787400Y590296D02*
X787400Y578104D01*
X812800Y578104D02*
X812800Y590296D01*
X685800Y590296D02*
X685800Y578104D01*
X711200Y578104D02*
X711200Y590296D01*
X762000Y590296D02*
X762000Y578104D01*
X736600Y578104D02*
X736600Y590296D01*
X812800Y654304D02*
X812800Y666496D01*
X787400Y666496D02*
X787400Y654304D01*
X762000Y654304D02*
X762000Y666496D01*
X736600Y666496D02*
X736600Y654304D01*
X711200Y654304D02*
X711200Y666496D01*
X685800Y666496D02*
X685800Y654304D01*
X660400Y654304D02*
X660400Y666496D01*
X635000Y666496D02*
X635000Y654304D01*
D14*
X1676400Y177800D03*
X1701800Y177800D03*
D15*
X1075690Y342075D02*
X1075690Y369126D01*
X1028700Y369126D02*
X1028700Y342075D01*
X981710Y342075D02*
X981710Y369126D01*
X1075690Y443675D02*
X1075690Y470726D01*
X1028700Y470726D02*
X1028700Y443675D01*
X981710Y443675D02*
X981710Y470726D01*
X1075690Y545275D02*
X1075690Y572326D01*
X1028700Y572326D02*
X1028700Y545275D01*
X981710Y545275D02*
X981710Y572326D01*
X1075690Y646875D02*
X1075690Y673926D01*
X1028700Y673926D02*
X1028700Y646875D01*
X981710Y646875D02*
X981710Y673926D01*
X1075690Y748475D02*
X1075690Y775526D01*
X1028700Y775526D02*
X1028700Y748475D01*
X981710Y748475D02*
X981710Y775526D01*
X1075690Y850075D02*
X1075690Y877126D01*
X1028700Y877126D02*
X1028700Y850075D01*
X981710Y850075D02*
X981710Y877126D01*
X1075690Y951675D02*
X1075690Y978726D01*
X1028700Y978726D02*
X1028700Y951675D01*
X981710Y951675D02*
X981710Y978726D01*
X1075690Y1053275D02*
X1075690Y1080326D01*
X1028700Y1080326D02*
X1028700Y1053275D01*
X981710Y1053275D02*
X981710Y1080326D01*
D13*
X228600Y958596D02*
X228600Y946404D01*
X254000Y946404D02*
X254000Y958596D01*
X381000Y958596D02*
X381000Y946404D01*
X406400Y946404D02*
X406400Y958596D01*
X279400Y958596D02*
X279400Y946404D01*
X304800Y946404D02*
X304800Y958596D01*
X355600Y958596D02*
X355600Y946404D01*
X330200Y946404D02*
X330200Y958596D01*
X431800Y958596D02*
X431800Y946404D01*
X457200Y946404D02*
X457200Y958596D01*
X457200Y1022604D02*
X457200Y1034796D01*
X431800Y1034796D02*
X431800Y1022604D01*
X406400Y1022604D02*
X406400Y1034796D01*
X381000Y1034796D02*
X381000Y1022604D01*
X355600Y1022604D02*
X355600Y1034796D01*
X330200Y1034796D02*
X330200Y1022604D01*
X304800Y1022604D02*
X304800Y1034796D01*
X279400Y1034796D02*
X279400Y1022604D01*
X254000Y1022604D02*
X254000Y1034796D01*
X228600Y1034796D02*
X228600Y1022604D01*
D12*
X1638300Y177800D03*
X1536700Y177800D03*
D14*
X1676400Y546100D03*
X1701800Y546100D03*
X1676400Y622300D03*
X1701800Y622300D03*
X1676400Y698500D03*
X1701800Y698500D03*
X1676400Y774700D03*
X1701800Y774700D03*
X1676400Y863600D03*
X1701800Y863600D03*
X1676400Y939800D03*
X1701800Y939800D03*
X1676400Y1016000D03*
X1701800Y1016000D03*
X1676400Y1092200D03*
X1701800Y1092200D03*
D12*
X1638300Y546100D03*
X1536700Y546100D03*
X1638300Y622300D03*
X1536700Y622300D03*
X1638300Y698500D03*
X1536700Y698500D03*
X1638300Y774700D03*
X1536700Y774700D03*
X1638300Y863600D03*
X1536700Y863600D03*
X1638300Y939800D03*
X1536700Y939800D03*
X1638300Y1016000D03*
X1536700Y1016000D03*
X1638300Y1092200D03*
X1536700Y1092200D03*
D13*
X330200Y590296D02*
X330200Y578104D01*
X355600Y578104D02*
X355600Y590296D01*
X482600Y590296D02*
X482600Y578104D01*
X508000Y578104D02*
X508000Y590296D01*
X381000Y590296D02*
X381000Y578104D01*
X406400Y578104D02*
X406400Y590296D01*
X457200Y590296D02*
X457200Y578104D01*
X431800Y578104D02*
X431800Y590296D01*
X533400Y590296D02*
X533400Y578104D01*
X558800Y578104D02*
X558800Y590296D01*
X558800Y654304D02*
X558800Y666496D01*
X533400Y666496D02*
X533400Y654304D01*
X508000Y654304D02*
X508000Y666496D01*
X482600Y666496D02*
X482600Y654304D01*
X457200Y654304D02*
X457200Y666496D01*
X431800Y666496D02*
X431800Y654304D01*
X406400Y654304D02*
X406400Y666496D01*
X381000Y666496D02*
X381000Y654304D01*
X355600Y654304D02*
X355600Y666496D01*
X330200Y666496D02*
X330200Y654304D01*
X406400Y450596D02*
X406400Y438404D01*
X431800Y438404D02*
X431800Y450596D01*
X558800Y450596D02*
X558800Y438404D01*
X584200Y438404D02*
X584200Y450596D01*
X457200Y450596D02*
X457200Y438404D01*
X482600Y438404D02*
X482600Y450596D01*
X533400Y450596D02*
X533400Y438404D01*
X508000Y438404D02*
X508000Y450596D01*
X584200Y514604D02*
X584200Y526796D01*
X558800Y526796D02*
X558800Y514604D01*
X533400Y514604D02*
X533400Y526796D01*
X508000Y526796D02*
X508000Y514604D01*
X482600Y514604D02*
X482600Y526796D01*
X457200Y526796D02*
X457200Y514604D01*
X431800Y514604D02*
X431800Y526796D01*
X406400Y526796D02*
X406400Y514604D01*
D16*
X152400Y101600D03*
X152400Y127000D03*
X177800Y101600D03*
X177800Y127000D03*
X203200Y101600D03*
X203200Y127000D03*
D17*
X177800Y850900D03*
X254000Y850900D03*
X254000Y774700D03*
D18*
X177800Y774700D03*
D15*
X1075690Y184976D02*
X1075690Y157925D01*
X1028700Y157925D02*
X1028700Y184976D01*
X981710Y184976D02*
X981710Y157925D01*
D19*
X1021080Y50800D02*
X1036320Y50800D01*
X1036320Y76200D02*
X1021080Y76200D01*
D20*
X1471600Y1024900D02*
X1483600Y1024900D01*
X1483600Y999500D02*
X1471600Y999500D01*
X1471600Y974100D02*
X1483600Y974100D01*
X1483600Y948700D02*
X1471600Y948700D01*
X1471600Y923300D02*
X1483600Y923300D01*
X1483600Y897900D02*
X1471600Y897900D01*
X1471600Y872500D02*
X1483600Y872500D01*
X1483600Y847100D02*
X1471600Y847100D01*
X1471600Y821700D02*
X1483600Y821700D01*
X1483600Y796300D02*
X1471600Y796300D01*
X1471600Y770900D02*
X1483600Y770900D01*
X1483600Y745500D02*
X1471600Y745500D01*
X1471600Y720100D02*
X1483600Y720100D01*
X1483600Y694700D02*
X1471600Y694700D01*
X1471600Y669300D02*
X1483600Y669300D01*
X1483600Y643900D02*
X1471600Y643900D01*
D21*
X1168400Y1079500D03*
X1477600Y1079500D03*
X1477600Y330300D03*
X1168400Y330300D03*
D13*
X584200Y946404D02*
X584200Y958596D01*
X609600Y958596D02*
X609600Y946404D01*
X736600Y946404D02*
X736600Y958596D01*
X762000Y958596D02*
X762000Y946404D01*
X635000Y946404D02*
X635000Y958596D01*
X660400Y958596D02*
X660400Y946404D01*
X711200Y946404D02*
X711200Y958596D01*
X685800Y958596D02*
X685800Y946404D01*
X787400Y946404D02*
X787400Y958596D01*
X812800Y958596D02*
X812800Y946404D01*
X812800Y1022604D02*
X812800Y1034796D01*
X787400Y1034796D02*
X787400Y1022604D01*
X762000Y1022604D02*
X762000Y1034796D01*
X736600Y1034796D02*
X736600Y1022604D01*
X711200Y1022604D02*
X711200Y1034796D01*
X685800Y1034796D02*
X685800Y1022604D01*
X660400Y1022604D02*
X660400Y1034796D01*
X635000Y1034796D02*
X635000Y1022604D01*
X609600Y1022604D02*
X609600Y1034796D01*
X584200Y1034796D02*
X584200Y1022604D01*
X660400Y310896D02*
X660400Y298704D01*
X685800Y298704D02*
X685800Y310896D01*
X812800Y310896D02*
X812800Y298704D01*
X812800Y374904D02*
X812800Y387096D01*
X711200Y310896D02*
X711200Y298704D01*
X736600Y298704D02*
X736600Y310896D01*
X787400Y310896D02*
X787400Y298704D01*
X762000Y298704D02*
X762000Y310896D01*
X787400Y374904D02*
X787400Y387096D01*
X762000Y387096D02*
X762000Y374904D01*
X736600Y374904D02*
X736600Y387096D01*
X711200Y387096D02*
X711200Y374904D01*
X685800Y374904D02*
X685800Y387096D01*
X660400Y387096D02*
X660400Y374904D01*
D10*
X215900Y63500D03*
X215900Y38100D03*
X190500Y63500D03*
X190500Y38100D03*
X165100Y63500D03*
X165100Y38100D03*
X139700Y63500D03*
X139700Y38100D03*
X114300Y63500D03*
X114300Y38100D03*
X88900Y63500D03*
X88900Y38100D03*
X63500Y63500D03*
X63500Y38100D03*
X38100Y63500D03*
X38100Y38100D03*
D22*
X708025Y203200D03*
X708025Y228600D03*
X708025Y177800D03*
D10*
X863600Y63500D03*
X863600Y38100D03*
X838200Y63500D03*
X838200Y38100D03*
X812800Y63500D03*
X812800Y38100D03*
X787400Y63500D03*
X787400Y38100D03*
X762000Y63500D03*
X762000Y38100D03*
X736600Y63500D03*
X736600Y38100D03*
X711200Y63500D03*
X711200Y38100D03*
X685800Y63500D03*
X685800Y38100D03*
D13*
X444500Y298704D02*
X444500Y310896D01*
X469900Y310896D02*
X469900Y298704D01*
X596900Y298704D02*
X596900Y310896D01*
X596900Y374904D02*
X596900Y387096D01*
X495300Y310896D02*
X495300Y298704D01*
X520700Y298704D02*
X520700Y310896D01*
X571500Y310896D02*
X571500Y298704D01*
X546100Y298704D02*
X546100Y310896D01*
X571500Y374904D02*
X571500Y387096D01*
X546100Y387096D02*
X546100Y374904D01*
X520700Y374904D02*
X520700Y387096D01*
X495300Y387096D02*
X495300Y374904D01*
X469900Y374904D02*
X469900Y387096D01*
X444500Y387096D02*
X444500Y374904D01*
D23*
X876300Y673100D03*
D24*
X850900Y673100D03*
D23*
X876300Y609600D03*
D24*
X850900Y609600D03*
D23*
X876300Y546100D03*
D24*
X850900Y546100D03*
D23*
X876300Y736600D03*
D24*
X850900Y736600D03*
D25*
X1524000Y406400D03*
X1524000Y431800D03*
X1524000Y292100D03*
X1524000Y317500D03*
X850900Y800100D03*
X850900Y825500D03*
X609600Y609600D03*
X609600Y635000D03*
X381000Y469900D03*
X381000Y495300D03*
X635000Y469900D03*
X635000Y495300D03*
X635000Y330200D03*
X635000Y355600D03*
X419100Y330200D03*
X419100Y355600D03*
X304800Y609600D03*
X304800Y635000D03*
X558800Y977900D03*
X558800Y1003300D03*
X203200Y977900D03*
X203200Y1003300D03*
D19*
X266700Y121920D02*
X266700Y106680D01*
X292100Y106680D02*
X292100Y121920D01*
D13*
X660400Y438404D02*
X660400Y450596D01*
X685800Y450596D02*
X685800Y438404D01*
X812800Y438404D02*
X812800Y450596D01*
X812800Y514604D02*
X812800Y526796D01*
X711200Y450596D02*
X711200Y438404D01*
X736600Y438404D02*
X736600Y450596D01*
X787400Y450596D02*
X787400Y438404D01*
X762000Y438404D02*
X762000Y450596D01*
X787400Y514604D02*
X787400Y526796D01*
X762000Y526796D02*
X762000Y514604D01*
X736600Y514604D02*
X736600Y526796D01*
X711200Y526796D02*
X711200Y514604D01*
X685800Y514604D02*
X685800Y526796D01*
X660400Y526796D02*
X660400Y514604D01*
X406400Y94996D02*
X406400Y82804D01*
X431800Y82804D02*
X431800Y94996D01*
X457200Y94996D02*
X457200Y82804D01*
X482600Y82804D02*
X482600Y94996D01*
X508000Y94996D02*
X508000Y82804D01*
X533400Y82804D02*
X533400Y94996D01*
X558800Y94996D02*
X558800Y82804D01*
X368300Y159004D02*
X368300Y171196D01*
X393700Y171196D02*
X393700Y159004D01*
X520700Y159004D02*
X520700Y171196D01*
X546100Y171196D02*
X546100Y159004D01*
X419100Y159004D02*
X419100Y171196D01*
X444500Y171196D02*
X444500Y159004D01*
X495300Y159004D02*
X495300Y171196D01*
X469900Y171196D02*
X469900Y159004D01*
X571500Y159004D02*
X571500Y171196D01*
X596900Y171196D02*
X596900Y159004D01*
X596900Y235204D02*
X596900Y247396D01*
X571500Y247396D02*
X571500Y235204D01*
X546100Y235204D02*
X546100Y247396D01*
X520700Y247396D02*
X520700Y235204D01*
X495300Y235204D02*
X495300Y247396D01*
X469900Y247396D02*
X469900Y235204D01*
X444500Y235204D02*
X444500Y247396D01*
X419100Y247396D02*
X419100Y235204D01*
X393700Y235204D02*
X393700Y247396D01*
X368300Y247396D02*
X368300Y235204D01*
X1727200Y336804D02*
X1727200Y348996D01*
X1701800Y348996D02*
X1701800Y336804D01*
X1676400Y336804D02*
X1676400Y348996D01*
X1651000Y348996D02*
X1651000Y336804D01*
X1625600Y336804D02*
X1625600Y348996D01*
X1574800Y348996D02*
X1574800Y336804D01*
X1574800Y272796D02*
X1574800Y260604D01*
X1625600Y260604D02*
X1625600Y272796D01*
X1676400Y272796D02*
X1676400Y260604D01*
X1701800Y260604D02*
X1701800Y272796D01*
X1727200Y272796D02*
X1727200Y260604D01*
X1727200Y451104D02*
X1727200Y463296D01*
X1701800Y463296D02*
X1701800Y451104D01*
X1676400Y451104D02*
X1676400Y463296D01*
X1651000Y463296D02*
X1651000Y451104D01*
X1625600Y451104D02*
X1625600Y463296D01*
X1574800Y463296D02*
X1574800Y451104D01*
X1574800Y387096D02*
X1574800Y374904D01*
X1625600Y374904D02*
X1625600Y387096D01*
X1676400Y387096D02*
X1676400Y374904D01*
X1701800Y374904D02*
X1701800Y387096D01*
X1727200Y387096D02*
X1727200Y374904D01*
X190500Y438404D02*
X190500Y450596D01*
X215900Y450596D02*
X215900Y438404D01*
X342900Y438404D02*
X342900Y450596D01*
X342900Y514604D02*
X342900Y526796D01*
X241300Y450596D02*
X241300Y438404D01*
X266700Y438404D02*
X266700Y450596D01*
X317500Y450596D02*
X317500Y438404D01*
X292100Y438404D02*
X292100Y450596D01*
X317500Y514604D02*
X317500Y526796D01*
X292100Y526796D02*
X292100Y514604D01*
X266700Y514604D02*
X266700Y526796D01*
X241300Y526796D02*
X241300Y514604D01*
X215900Y514604D02*
X215900Y526796D01*
X190500Y526796D02*
X190500Y514604D01*
D26*
X1376200Y115800D03*
D27*
X1348500Y115800D03*
X1320800Y115800D03*
X1293100Y115800D03*
X1265400Y115800D03*
X1362300Y87400D03*
X1334600Y87400D03*
X1307000Y87400D03*
X1279300Y87400D03*
D28*
X1445800Y101600D03*
X1195800Y101600D03*
D16*
X1295400Y190500D03*
X1295400Y215900D03*
X1320800Y190500D03*
X1320800Y215900D03*
X1346200Y190500D03*
X1346200Y215900D03*
D25*
X342900Y190500D03*
X342900Y215900D03*
X165100Y469900D03*
X165100Y495300D03*
D29*
X527050Y958850D03*
X838200Y869950D03*
X406400Y215900D03*
X641350Y209550D03*
X768350Y793750D03*
X1041400Y895350D03*
X1016000Y920750D03*
X635000Y920750D03*
X361950Y565150D03*
X292100Y927100D03*
X431800Y266700D03*
X44450Y342900D03*
X381000Y717550D03*
X1136650Y889000D03*
X1123950Y920750D03*
X666750Y927100D03*
X514350Y920750D03*
X311150Y895350D03*
X361950Y679450D03*
X793750Y787400D03*
X419100Y603250D03*
X609600Y596900D03*
X412750Y711200D03*
X495300Y787400D03*
X1111250Y774700D03*
X501650Y698500D03*
X438150Y704850D03*
X577850Y704850D03*
X596900Y939800D03*
X977900Y723900D03*
X933450Y1016000D03*
X863600Y241300D03*
X488950Y1060450D03*
X44450Y292100D03*
X412750Y762000D03*
X971550Y831850D03*
X939800Y939800D03*
X469900Y711200D03*
X514350Y190500D03*
X501650Y196850D03*
X349250Y698500D03*
X425450Y984250D03*
X514350Y711200D03*
X508000Y685800D03*
X387350Y273050D03*
X698500Y692150D03*
X127000Y704850D03*
X400050Y400050D03*
X120650Y374650D03*
X431800Y304800D03*
X450850Y419100D03*
X146050Y393700D03*
X711200Y488950D03*
X869950Y463550D03*
X901700Y812800D03*
X1504950Y768350D03*
X127000Y196850D03*
X400050Y476250D03*
X393700Y552450D03*
X787400Y1079500D03*
X927100Y387350D03*
X298450Y1009650D03*
X1028700Y1104900D03*
X368300Y1041400D03*
X1022350Y1009650D03*
X419100Y876300D03*
X990600Y908050D03*
X990600Y1003300D03*
X939800Y1073150D03*
X1009650Y1016000D03*
X209550Y692150D03*
X419100Y850900D03*
X869950Y685800D03*
X895350Y869950D03*
X520700Y768350D03*
X463550Y552450D03*
X577850Y552450D03*
X584200Y571500D03*
X438150Y552450D03*
X831850Y552450D03*
X838200Y527050D03*
X361950Y622300D03*
X654050Y622300D03*
X673100Y508000D03*
X482600Y419100D03*
X222250Y412750D03*
X533400Y368300D03*
X196850Y368300D03*
X406400Y546100D03*
X69850Y546100D03*
X546100Y431800D03*
X247650Y425450D03*
X793750Y539750D03*
X831850Y495300D03*
X209550Y12700D03*
X552450Y412750D03*
X850900Y412750D03*
X222250Y12700D03*
X596900Y615950D03*
X215900Y622300D03*
X488950Y482600D03*
X711200Y469900D03*
X133350Y539750D03*
X527050Y273050D03*
X647700Y273050D03*
X825500Y469900D03*
X533400Y285750D03*
X730250Y120650D03*
X444500Y571500D03*
X781050Y565150D03*
X571500Y558800D03*
X863600Y381000D03*
X476250Y336550D03*
X628650Y914400D03*
X882650Y914400D03*
X863600Y260350D03*
X552450Y266700D03*
X539750Y349250D03*
X184150Y368300D03*
X196850Y838200D03*
X673100Y857250D03*
X742950Y996950D03*
X641350Y933450D03*
X1130300Y971550D03*
X1117600Y209550D03*
X742950Y488950D03*
X831850Y482600D03*
X565150Y406400D03*
X749300Y419100D03*
X508000Y406400D03*
X654050Y361950D03*
X323850Y774700D03*
X565150Y698500D03*
X704850Y698500D03*
X742950Y628650D03*
X1085850Y628650D03*
X577850Y838200D03*
X273050Y819150D03*
X869950Y584200D03*
X742950Y615950D03*
X692150Y628650D03*
X647700Y704850D03*
X819150Y704850D03*
X666750Y546100D03*
X774700Y749300D03*
X679450Y196850D03*
X361950Y184150D03*
X520700Y628650D03*
X552450Y628650D03*
X1651000Y241300D03*
X482600Y133350D03*
X508000Y133350D03*
X1663700Y228600D03*
X1581150Y247650D03*
X628650Y260350D03*
X908050Y146050D03*
X469900Y215900D03*
X1123950Y622300D03*
M02*
