M48
;GenerationSoftware,Autodesk,EAGLE,9.6.2*%
;CreationDate,2020-09-01T19:16:52Z*%
FMAT,2
ICI,OFF
METRIC,TZ,000.000
T4C0.254
T3C0.813
T2C1.016
T1C2.794
%
G90
M71
T1
X2540Y12694
X2540Y101606
T2
X5080Y109220
X10160Y96520
X10160Y93980
X10160Y91440
X10160Y88900
X10160Y86360
X10160Y83820
X10160Y81280
X10160Y78740
X10160Y76200
X10160Y73660
X10160Y71120
X10160Y68580
X10160Y66040
X10160Y63500
X10160Y60960
X10160Y58420
X7620Y96520
X7620Y93980
X7620Y91440
X7620Y88900
X7620Y86360
X7620Y83820
X7620Y81280
X7620Y78740
X7620Y76200
X7620Y73660
X7620Y71120
X7620Y68580
X7620Y66040
X7620Y63500
X7620Y60960
X7620Y58420
X5080Y96520
X5080Y93980
X5080Y91440
X5080Y88900
X5080Y86360
X5080Y83820
X5080Y81280
X5080Y78740
X5080Y76200
X5080Y73660
X5080Y71120
X5080Y68580
X5080Y66040
X5080Y63500
X5080Y60960
X5080Y58420
X10160Y55880
X10160Y53340
X10160Y50800
X10160Y48260
X10160Y45720
X10160Y43180
X10160Y40640
X10160Y38100
X10160Y35560
X10160Y33020
X10160Y30480
X10160Y27940
X10160Y25400
X10160Y22860
X10160Y20320
X10160Y17780
X7620Y55880
X7620Y53340
X7620Y50800
X7620Y48260
X7620Y45720
X7620Y43180
X7620Y40640
X7620Y38100
X7620Y35560
X7620Y33020
X7620Y30480
X7620Y109220
X10160Y109220
X5080Y17780
X5080Y20320
X5080Y22860
X5080Y25400
X5080Y27940
X5080Y30480
X5080Y33020
X5080Y35560
X5080Y38100
X5080Y40640
X5080Y43180
X5080Y45720
X5080Y48260
X5080Y50800
X5080Y53340
X5080Y55880
X7620Y17780
X7620Y20320
X7620Y22860
X7620Y25400
X7620Y27940
T3
X140970Y55880
X52070Y67310
X143510Y55880
X146050Y55880
X148590Y55880
X151130Y55880
X153670Y55880
X156210Y55880
X158750Y55880
X161290Y55880
X163830Y55880
X163830Y48260
X161290Y48260
X151130Y48260
X153670Y48260
X148590Y48260
X146050Y48260
X158750Y48260
X156210Y48260
X143510Y48260
X140970Y48260
X140970Y87630
X143510Y87630
X146050Y87630
X148590Y87630
X151130Y87630
X153670Y87630
X156210Y87630
X158750Y87630
X161290Y87630
X163830Y87630
X163830Y80010
X161290Y80010
X151130Y80010
X153670Y80010
X148590Y80010
X146050Y80010
X158750Y80010
X156210Y80010
X143510Y80010
X140970Y80010
X140970Y71120
X143510Y71120
X146050Y71120
X148590Y71120
X151130Y71120
X153670Y71120
X156210Y71120
X158750Y71120
X161290Y71120
X163830Y71120
X163830Y63500
X161290Y63500
X151130Y63500
X153670Y63500
X148590Y63500
X146050Y63500
X158750Y63500
X156210Y63500
X143510Y63500
X140970Y63500
X140970Y100330
X143510Y100330
X146050Y100330
X148590Y100330
X151130Y100330
X153670Y100330
X156210Y100330
X158750Y100330
X161290Y100330
X163830Y100330
X163830Y92710
X161290Y92710
X151130Y92710
X153670Y92710
X175260Y3810
X172720Y3810
X165100Y3810
X154940Y3810
X92710Y90170
X95250Y90170
X97790Y90170
X100330Y90170
X102870Y90170
X105410Y90170
X107950Y90170
X110490Y90170
X113030Y90170
X115570Y90170
X118110Y90170
X120650Y90170
X123190Y90170
X125730Y90170
X125730Y105410
X123190Y105410
X120650Y105410
X118110Y105410
X115570Y105410
X113030Y105410
X110490Y105410
X107950Y105410
X105410Y105410
X102870Y105410
X100330Y105410
X97790Y105410
X95250Y105410
X92710Y105410
X92710Y67310
X95250Y67310
X97790Y67310
X100330Y67310
X102870Y67310
X105410Y67310
X107950Y67310
X110490Y67310
X113030Y67310
X115570Y67310
X118110Y67310
X120650Y67310
X123190Y67310
X125730Y67310
X125730Y82550
X123190Y82550
X120650Y82550
X118110Y82550
X115570Y82550
X113030Y82550
X110490Y82550
X107950Y82550
X105410Y82550
X102870Y82550
X100330Y82550
X97790Y82550
X95250Y82550
X92710Y82550
X97790Y16510
X100330Y16510
X102870Y16510
X105410Y16510
X107950Y16510
X110490Y16510
X113030Y16510
X115570Y16510
X118110Y16510
X97790Y46990
X100330Y46990
X102870Y46990
X105410Y46990
X107950Y46990
X110490Y46990
X113030Y46990
X115570Y46990
X118110Y46990
X25400Y83820
X27940Y83820
X40640Y83820
X40640Y91440
X30480Y83820
X33020Y83820
X38100Y83820
X35560Y83820
X38100Y91440
X35560Y91440
X33020Y91440
X30480Y91440
X27940Y91440
X25400Y91440
X57150Y97790
X59690Y97790
X72390Y97790
X74930Y97790
X62230Y97790
X64770Y97790
X69850Y97790
X67310Y97790
X74930Y105410
X72390Y105410
X69850Y105410
X67310Y105410
X64770Y105410
X62230Y105410
X59690Y105410
X57150Y105410
X52070Y34290
X54610Y34290
X67310Y34290
X69850Y34290
X57150Y34290
X59690Y34290
X64770Y34290
X62230Y34290
X72390Y34290
X74930Y34290
X74930Y41910
X72390Y41910
X69850Y41910
X67310Y41910
X64770Y41910
X62230Y41910
X59690Y41910
X57150Y41910
X54610Y41910
X52070Y41910
X52070Y17780
X54610Y17780
X148590Y92710
X69850Y17780
X57150Y17780
X59690Y17780
X64770Y17780
X62230Y17780
X72390Y17780
X74930Y17780
X74930Y25400
X72390Y25400
X69850Y25400
X67310Y25400
X64770Y25400
X62230Y25400
X59690Y25400
X57150Y25400
X54610Y25400
X52070Y25400
X59690Y83820
X62230Y83820
X74930Y83820
X74930Y91440
X64770Y83820
X67310Y83820
X72390Y83820
X69850Y83820
X72390Y91440
X69850Y91440
X67310Y91440
X64770Y91440
X62230Y91440
X59690Y91440
X52070Y59690
X54610Y59690
X67310Y59690
X69850Y59690
X57150Y59690
X59690Y59690
X64770Y59690
X62230Y59690
X72390Y59690
X74930Y59690
X74930Y67310
X72390Y67310
X69850Y67310
X67310Y67310
X64770Y67310
X62230Y67310
X59690Y67310
X57150Y67310
X54610Y67310
X146050Y92710
X54610Y50800
X57150Y50800
X59690Y50800
X62230Y50800
X64770Y50800
X67310Y50800
X69850Y50800
X72390Y50800
X74930Y50800
X54610Y77470
X57150Y77470
X59690Y77470
X62230Y77470
X64770Y77470
X67310Y77470
X69850Y77470
X72390Y77470
X74930Y77470
X22860Y67310
X25400Y67310
X38100Y67310
X40640Y67310
X27940Y67310
X30480Y67310
X35560Y67310
X33020Y67310
X40640Y74930
X38100Y74930
X35560Y74930
X33020Y74930
X30480Y74930
X27940Y74930
X25400Y74930
X22860Y74930
X25400Y52070
X27940Y52070
X40640Y52070
X40640Y59690
X30480Y52070
X33020Y52070
X38100Y52070
X35560Y52070
X38100Y59690
X35560Y59690
X33020Y59690
X30480Y59690
X27940Y59690
X25400Y59690
X25400Y97790
X27940Y97790
X40640Y97790
X40640Y105410
X30480Y97790
X33020Y97790
X38100Y97790
X35560Y97790
X38100Y105410
X35560Y105410
X33020Y105410
X30480Y105410
X27940Y105410
X25400Y105410
X92710Y24130
X95250Y24130
X97790Y24130
X100330Y24130
X102870Y24130
X105410Y24130
X107950Y24130
X110490Y24130
X113030Y24130
X115570Y24130
X118110Y24130
X120650Y24130
X123190Y24130
X125730Y24130
X125730Y39370
X123190Y39370
X120650Y39370
X118110Y39370
X115570Y39370
X113030Y39370
X110490Y39370
X107950Y39370
X105410Y39370
X102870Y39370
X100330Y39370
X97790Y39370
X95250Y39370
X92710Y39370
X87630Y96520
X87630Y99060
X87630Y73660
X87630Y76200
X87630Y30480
X87630Y33020
X46990Y20320
X46990Y22860
X46990Y36830
X46990Y39370
X46990Y62230
X46990Y64770
X54610Y86360
X54610Y88900
X52070Y100330
X52070Y102870
X20320Y100330
X20320Y102870
X20320Y86360
X20320Y88900
X17780Y68580
X17780Y71120
X19050Y54610
X19050Y57150
X20320Y36830
X20320Y39370
X25400Y34290
X27940Y34290
X40640Y34290
X40640Y41910
X30480Y34290
X33020Y34290
X38100Y34290
X35560Y34290
X38100Y41910
X35560Y41910
X33020Y41910
X30480Y41910
X27940Y41910
X25400Y41910
X171450Y78740
X171450Y81280
X171450Y83820
X171450Y86360
X171450Y88900
X171450Y91440
X171450Y93980
X171450Y96520
X171450Y99060
X171450Y48260
X171450Y50800
X171450Y53340
X171450Y55880
X171450Y58420
X171450Y60960
X171450Y63500
X171450Y66040
X171450Y68580
X135890Y95250
X135890Y97790
X135890Y81280
X135890Y83820
X135890Y66040
X135890Y68580
X135890Y50800
X135890Y53340
X158750Y92710
X156210Y92710
X67310Y17780
X25400Y17780
X27940Y17780
X40640Y17780
X40640Y25400
X30480Y17780
X33020Y17780
X38100Y17780
X35560Y17780
X38100Y25400
X35560Y25400
X33020Y25400
X30480Y25400
X27940Y25400
X25400Y25400
X20320Y20320
X20320Y22860
X140970Y92710
X143510Y92710
T4
X141288Y53975
X21273Y61595
X40323Y79375
X39053Y68898
X159703Y68263
X20638Y59372
X155258Y61912
X67945Y71120
X6985Y14287
X152083Y68898
X58737Y31750
X60642Y44132
X154623Y67628
X64452Y80010
X11430Y79375
X125412Y77470
X48895Y28575
X11430Y31115
X15875Y30480
X70168Y46672
X65087Y46672
X16510Y47625
X60007Y46672
X12065Y46990
X58737Y44132
X39688Y47942
X21590Y19368
X6032Y19050
X77470Y47307
X63182Y37783
X14605Y43498
X21590Y29845
X58102Y55880
X28892Y56832
X48577Y60325
X35243Y81598
X14605Y87630
X33020Y45720
X56832Y44767
X21590Y40323
X28892Y44450
X78740Y43498
X95567Y32385
X73343Y23177
X108585Y20320
X73978Y21907
X76835Y35243
X107315Y19685
X102552Y35878
X100330Y36513
X97472Y27305
X109537Y28575
X105727Y43498
X103505Y27940
X104457Y48577
X30797Y71120
X51752Y72390
X96202Y45402
X56197Y88582
X57785Y69215
X96837Y49212
X96837Y63182
X94615Y49847
X62547Y94297
X32385Y46355
X34608Y95567
X117792Y63817
X117157Y65087
X112712Y78105
X33338Y78740
X78105Y70485
X51117Y73343
X25717Y54610
X28892Y38418
X42228Y86043
X55562Y39688
X31432Y77788
X69215Y71438
M30