G04 EAGLE Gerber RS-274X export*
G75*
%MOMM*%
%FSLAX34Y34*%
%LPD*%
%IN*%
%IPPOS*%
%AMOC8*
5,1,8,0,0,1.08239X$1,22.5*%
G01*
%ADD10C,0.254000*%


D10*
X-1524000Y-631262D02*
X-631262Y-1524000D01*
X631262Y-1524000D01*
X1524000Y-631262D01*
X1524000Y631262D01*
X631262Y1524000D01*
X-631262Y1524000D01*
X-1524000Y631262D01*
X-1524000Y-631262D01*
X3250Y-213D02*
X3194Y-635D01*
X3084Y-1047D01*
X2921Y-1441D01*
X2708Y-1809D01*
X2449Y-2147D01*
X2147Y-2449D01*
X1809Y-2708D01*
X1441Y-2921D01*
X1047Y-3084D01*
X635Y-3194D01*
X213Y-3250D01*
X-213Y-3250D01*
X-635Y-3194D01*
X-1047Y-3084D01*
X-1441Y-2921D01*
X-1809Y-2708D01*
X-2147Y-2449D01*
X-2449Y-2147D01*
X-2708Y-1809D01*
X-2921Y-1441D01*
X-3084Y-1047D01*
X-3194Y-635D01*
X-3250Y-213D01*
X-3250Y213D01*
X-3194Y635D01*
X-3084Y1047D01*
X-2921Y1441D01*
X-2708Y1809D01*
X-2449Y2147D01*
X-2147Y2449D01*
X-1809Y2708D01*
X-1441Y2921D01*
X-1047Y3084D01*
X-635Y3194D01*
X-213Y3250D01*
X213Y3250D01*
X635Y3194D01*
X1047Y3084D01*
X1441Y2921D01*
X1809Y2708D01*
X2147Y2449D01*
X2449Y2147D01*
X2708Y1809D01*
X2921Y1441D01*
X3084Y1047D01*
X3194Y635D01*
X3250Y213D01*
X3250Y-213D01*
X-593600Y1447276D02*
X-593669Y1446231D01*
X-593805Y1445192D01*
X-594010Y1444165D01*
X-594281Y1443153D01*
X-594617Y1442161D01*
X-595018Y1441193D01*
X-595482Y1440254D01*
X-596006Y1439346D01*
X-596588Y1438475D01*
X-597225Y1437644D01*
X-597916Y1436857D01*
X-598657Y1436116D01*
X-599444Y1435425D01*
X-600275Y1434788D01*
X-601146Y1434206D01*
X-602054Y1433682D01*
X-602993Y1433218D01*
X-603961Y1432817D01*
X-604953Y1432481D01*
X-605965Y1432210D01*
X-606992Y1432005D01*
X-608031Y1431869D01*
X-609076Y1431800D01*
X-610124Y1431800D01*
X-611169Y1431869D01*
X-612208Y1432005D01*
X-613235Y1432210D01*
X-614247Y1432481D01*
X-615239Y1432817D01*
X-616207Y1433218D01*
X-617146Y1433682D01*
X-618054Y1434206D01*
X-618925Y1434788D01*
X-619756Y1435425D01*
X-620543Y1436116D01*
X-621284Y1436857D01*
X-621975Y1437644D01*
X-622613Y1438475D01*
X-623195Y1439346D01*
X-623718Y1440254D01*
X-624182Y1441193D01*
X-624583Y1442161D01*
X-624919Y1443153D01*
X-625190Y1444165D01*
X-625395Y1445192D01*
X-625532Y1446231D01*
X-625600Y1447276D01*
X-625600Y1448324D01*
X-625532Y1449369D01*
X-625395Y1450408D01*
X-625190Y1451435D01*
X-624919Y1452447D01*
X-624583Y1453439D01*
X-624182Y1454407D01*
X-623718Y1455346D01*
X-623195Y1456254D01*
X-622613Y1457125D01*
X-621975Y1457956D01*
X-621284Y1458743D01*
X-620543Y1459484D01*
X-619756Y1460175D01*
X-618925Y1460813D01*
X-618054Y1461395D01*
X-617146Y1461918D01*
X-616207Y1462382D01*
X-615239Y1462783D01*
X-614247Y1463119D01*
X-613235Y1463390D01*
X-612208Y1463595D01*
X-611169Y1463732D01*
X-610124Y1463800D01*
X-609076Y1463800D01*
X-608031Y1463732D01*
X-606992Y1463595D01*
X-605965Y1463390D01*
X-604953Y1463119D01*
X-603961Y1462783D01*
X-602993Y1462382D01*
X-602054Y1461918D01*
X-601146Y1461395D01*
X-600275Y1460813D01*
X-599444Y1460175D01*
X-598657Y1459484D01*
X-597916Y1458743D01*
X-597225Y1457956D01*
X-596588Y1457125D01*
X-596006Y1456254D01*
X-595482Y1455346D01*
X-595018Y1454407D01*
X-594617Y1453439D01*
X-594281Y1452447D01*
X-594010Y1451435D01*
X-593805Y1450408D01*
X-593669Y1449369D01*
X-593600Y1448324D01*
X-593600Y1447276D01*
X625600Y1447276D02*
X625532Y1446231D01*
X625395Y1445192D01*
X625190Y1444165D01*
X624919Y1443153D01*
X624583Y1442161D01*
X624182Y1441193D01*
X623718Y1440254D01*
X623195Y1439346D01*
X622613Y1438475D01*
X621975Y1437644D01*
X621284Y1436857D01*
X620543Y1436116D01*
X619756Y1435425D01*
X618925Y1434788D01*
X618054Y1434206D01*
X617146Y1433682D01*
X616207Y1433218D01*
X615239Y1432817D01*
X614247Y1432481D01*
X613235Y1432210D01*
X612208Y1432005D01*
X611169Y1431869D01*
X610124Y1431800D01*
X609076Y1431800D01*
X608031Y1431869D01*
X606992Y1432005D01*
X605965Y1432210D01*
X604953Y1432481D01*
X603961Y1432817D01*
X602993Y1433218D01*
X602054Y1433682D01*
X601146Y1434206D01*
X600275Y1434788D01*
X599444Y1435425D01*
X598657Y1436116D01*
X597916Y1436857D01*
X597225Y1437644D01*
X596588Y1438475D01*
X596006Y1439346D01*
X595482Y1440254D01*
X595018Y1441193D01*
X594617Y1442161D01*
X594281Y1443153D01*
X594010Y1444165D01*
X593805Y1445192D01*
X593669Y1446231D01*
X593600Y1447276D01*
X593600Y1448324D01*
X593669Y1449369D01*
X593805Y1450408D01*
X594010Y1451435D01*
X594281Y1452447D01*
X594617Y1453439D01*
X595018Y1454407D01*
X595482Y1455346D01*
X596006Y1456254D01*
X596588Y1457125D01*
X597225Y1457956D01*
X597916Y1458743D01*
X598657Y1459484D01*
X599444Y1460175D01*
X600275Y1460813D01*
X601146Y1461395D01*
X602054Y1461918D01*
X602993Y1462382D01*
X603961Y1462783D01*
X604953Y1463119D01*
X605965Y1463390D01*
X606992Y1463595D01*
X608031Y1463732D01*
X609076Y1463800D01*
X610124Y1463800D01*
X611169Y1463732D01*
X612208Y1463595D01*
X613235Y1463390D01*
X614247Y1463119D01*
X615239Y1462783D01*
X616207Y1462382D01*
X617146Y1461918D01*
X618054Y1461395D01*
X618925Y1460813D01*
X619756Y1460175D01*
X620543Y1459484D01*
X621284Y1458743D01*
X621975Y1457956D01*
X622613Y1457125D01*
X623195Y1456254D01*
X623718Y1455346D01*
X624182Y1454407D01*
X624583Y1453439D01*
X624919Y1452447D01*
X625190Y1451435D01*
X625395Y1450408D01*
X625532Y1449369D01*
X625600Y1448324D01*
X625600Y1447276D01*
X1463800Y609076D02*
X1463732Y608031D01*
X1463595Y606992D01*
X1463390Y605965D01*
X1463119Y604953D01*
X1462783Y603961D01*
X1462382Y602993D01*
X1461918Y602054D01*
X1461395Y601146D01*
X1460813Y600275D01*
X1460175Y599444D01*
X1459484Y598657D01*
X1458743Y597916D01*
X1457956Y597225D01*
X1457125Y596588D01*
X1456254Y596006D01*
X1455346Y595482D01*
X1454407Y595018D01*
X1453439Y594617D01*
X1452447Y594281D01*
X1451435Y594010D01*
X1450408Y593805D01*
X1449369Y593669D01*
X1448324Y593600D01*
X1447276Y593600D01*
X1446231Y593669D01*
X1445192Y593805D01*
X1444165Y594010D01*
X1443153Y594281D01*
X1442161Y594617D01*
X1441193Y595018D01*
X1440254Y595482D01*
X1439346Y596006D01*
X1438475Y596588D01*
X1437644Y597225D01*
X1436857Y597916D01*
X1436116Y598657D01*
X1435425Y599444D01*
X1434788Y600275D01*
X1434206Y601146D01*
X1433682Y602054D01*
X1433218Y602993D01*
X1432817Y603961D01*
X1432481Y604953D01*
X1432210Y605965D01*
X1432005Y606992D01*
X1431869Y608031D01*
X1431800Y609076D01*
X1431800Y610124D01*
X1431869Y611169D01*
X1432005Y612208D01*
X1432210Y613235D01*
X1432481Y614247D01*
X1432817Y615239D01*
X1433218Y616207D01*
X1433682Y617146D01*
X1434206Y618054D01*
X1434788Y618925D01*
X1435425Y619756D01*
X1436116Y620543D01*
X1436857Y621284D01*
X1437644Y621975D01*
X1438475Y622613D01*
X1439346Y623195D01*
X1440254Y623718D01*
X1441193Y624182D01*
X1442161Y624583D01*
X1443153Y624919D01*
X1444165Y625190D01*
X1445192Y625395D01*
X1446231Y625532D01*
X1447276Y625600D01*
X1448324Y625600D01*
X1449369Y625532D01*
X1450408Y625395D01*
X1451435Y625190D01*
X1452447Y624919D01*
X1453439Y624583D01*
X1454407Y624182D01*
X1455346Y623718D01*
X1456254Y623195D01*
X1457125Y622613D01*
X1457956Y621975D01*
X1458743Y621284D01*
X1459484Y620543D01*
X1460175Y619756D01*
X1460813Y618925D01*
X1461395Y618054D01*
X1461918Y617146D01*
X1462382Y616207D01*
X1462783Y615239D01*
X1463119Y614247D01*
X1463390Y613235D01*
X1463595Y612208D01*
X1463732Y611169D01*
X1463800Y610124D01*
X1463800Y609076D01*
X1463800Y-610124D02*
X1463732Y-611169D01*
X1463595Y-612208D01*
X1463390Y-613235D01*
X1463119Y-614247D01*
X1462783Y-615239D01*
X1462382Y-616207D01*
X1461918Y-617146D01*
X1461395Y-618054D01*
X1460813Y-618925D01*
X1460175Y-619756D01*
X1459484Y-620543D01*
X1458743Y-621284D01*
X1457956Y-621975D01*
X1457125Y-622613D01*
X1456254Y-623195D01*
X1455346Y-623718D01*
X1454407Y-624182D01*
X1453439Y-624583D01*
X1452447Y-624919D01*
X1451435Y-625190D01*
X1450408Y-625395D01*
X1449369Y-625532D01*
X1448324Y-625600D01*
X1447276Y-625600D01*
X1446231Y-625532D01*
X1445192Y-625395D01*
X1444165Y-625190D01*
X1443153Y-624919D01*
X1442161Y-624583D01*
X1441193Y-624182D01*
X1440254Y-623718D01*
X1439346Y-623195D01*
X1438475Y-622613D01*
X1437644Y-621975D01*
X1436857Y-621284D01*
X1436116Y-620543D01*
X1435425Y-619756D01*
X1434788Y-618925D01*
X1434206Y-618054D01*
X1433682Y-617146D01*
X1433218Y-616207D01*
X1432817Y-615239D01*
X1432481Y-614247D01*
X1432210Y-613235D01*
X1432005Y-612208D01*
X1431869Y-611169D01*
X1431800Y-610124D01*
X1431800Y-609076D01*
X1431869Y-608031D01*
X1432005Y-606992D01*
X1432210Y-605965D01*
X1432481Y-604953D01*
X1432817Y-603961D01*
X1433218Y-602993D01*
X1433682Y-602054D01*
X1434206Y-601146D01*
X1434788Y-600275D01*
X1435425Y-599444D01*
X1436116Y-598657D01*
X1436857Y-597916D01*
X1437644Y-597225D01*
X1438475Y-596588D01*
X1439346Y-596006D01*
X1440254Y-595482D01*
X1441193Y-595018D01*
X1442161Y-594617D01*
X1443153Y-594281D01*
X1444165Y-594010D01*
X1445192Y-593805D01*
X1446231Y-593669D01*
X1447276Y-593600D01*
X1448324Y-593600D01*
X1449369Y-593669D01*
X1450408Y-593805D01*
X1451435Y-594010D01*
X1452447Y-594281D01*
X1453439Y-594617D01*
X1454407Y-595018D01*
X1455346Y-595482D01*
X1456254Y-596006D01*
X1457125Y-596588D01*
X1457956Y-597225D01*
X1458743Y-597916D01*
X1459484Y-598657D01*
X1460175Y-599444D01*
X1460813Y-600275D01*
X1461395Y-601146D01*
X1461918Y-602054D01*
X1462382Y-602993D01*
X1462783Y-603961D01*
X1463119Y-604953D01*
X1463390Y-605965D01*
X1463595Y-606992D01*
X1463732Y-608031D01*
X1463800Y-609076D01*
X1463800Y-610124D01*
X-1431800Y609076D02*
X-1431869Y608031D01*
X-1432005Y606992D01*
X-1432210Y605965D01*
X-1432481Y604953D01*
X-1432817Y603961D01*
X-1433218Y602993D01*
X-1433682Y602054D01*
X-1434206Y601146D01*
X-1434788Y600275D01*
X-1435425Y599444D01*
X-1436116Y598657D01*
X-1436857Y597916D01*
X-1437644Y597225D01*
X-1438475Y596588D01*
X-1439346Y596006D01*
X-1440254Y595482D01*
X-1441193Y595018D01*
X-1442161Y594617D01*
X-1443153Y594281D01*
X-1444165Y594010D01*
X-1445192Y593805D01*
X-1446231Y593669D01*
X-1447276Y593600D01*
X-1448324Y593600D01*
X-1449369Y593669D01*
X-1450408Y593805D01*
X-1451435Y594010D01*
X-1452447Y594281D01*
X-1453439Y594617D01*
X-1454407Y595018D01*
X-1455346Y595482D01*
X-1456254Y596006D01*
X-1457125Y596588D01*
X-1457956Y597225D01*
X-1458743Y597916D01*
X-1459484Y598657D01*
X-1460175Y599444D01*
X-1460813Y600275D01*
X-1461395Y601146D01*
X-1461918Y602054D01*
X-1462382Y602993D01*
X-1462783Y603961D01*
X-1463119Y604953D01*
X-1463390Y605965D01*
X-1463595Y606992D01*
X-1463732Y608031D01*
X-1463800Y609076D01*
X-1463800Y610124D01*
X-1463732Y611169D01*
X-1463595Y612208D01*
X-1463390Y613235D01*
X-1463119Y614247D01*
X-1462783Y615239D01*
X-1462382Y616207D01*
X-1461918Y617146D01*
X-1461395Y618054D01*
X-1460813Y618925D01*
X-1460175Y619756D01*
X-1459484Y620543D01*
X-1458743Y621284D01*
X-1457956Y621975D01*
X-1457125Y622613D01*
X-1456254Y623195D01*
X-1455346Y623718D01*
X-1454407Y624182D01*
X-1453439Y624583D01*
X-1452447Y624919D01*
X-1451435Y625190D01*
X-1450408Y625395D01*
X-1449369Y625532D01*
X-1448324Y625600D01*
X-1447276Y625600D01*
X-1446231Y625532D01*
X-1445192Y625395D01*
X-1444165Y625190D01*
X-1443153Y624919D01*
X-1442161Y624583D01*
X-1441193Y624182D01*
X-1440254Y623718D01*
X-1439346Y623195D01*
X-1438475Y622613D01*
X-1437644Y621975D01*
X-1436857Y621284D01*
X-1436116Y620543D01*
X-1435425Y619756D01*
X-1434788Y618925D01*
X-1434206Y618054D01*
X-1433682Y617146D01*
X-1433218Y616207D01*
X-1432817Y615239D01*
X-1432481Y614247D01*
X-1432210Y613235D01*
X-1432005Y612208D01*
X-1431869Y611169D01*
X-1431800Y610124D01*
X-1431800Y609076D01*
X-1444500Y-610124D02*
X-1444569Y-611169D01*
X-1444705Y-612208D01*
X-1444910Y-613235D01*
X-1445181Y-614247D01*
X-1445517Y-615239D01*
X-1445918Y-616207D01*
X-1446382Y-617146D01*
X-1446906Y-618054D01*
X-1447488Y-618925D01*
X-1448125Y-619756D01*
X-1448816Y-620543D01*
X-1449557Y-621284D01*
X-1450344Y-621975D01*
X-1451175Y-622613D01*
X-1452046Y-623195D01*
X-1452954Y-623718D01*
X-1453893Y-624182D01*
X-1454861Y-624583D01*
X-1455853Y-624919D01*
X-1456865Y-625190D01*
X-1457892Y-625395D01*
X-1458931Y-625532D01*
X-1459976Y-625600D01*
X-1461024Y-625600D01*
X-1462069Y-625532D01*
X-1463108Y-625395D01*
X-1464135Y-625190D01*
X-1465147Y-624919D01*
X-1466139Y-624583D01*
X-1467107Y-624182D01*
X-1468046Y-623718D01*
X-1468954Y-623195D01*
X-1469825Y-622613D01*
X-1470656Y-621975D01*
X-1471443Y-621284D01*
X-1472184Y-620543D01*
X-1472875Y-619756D01*
X-1473513Y-618925D01*
X-1474095Y-618054D01*
X-1474618Y-617146D01*
X-1475082Y-616207D01*
X-1475483Y-615239D01*
X-1475819Y-614247D01*
X-1476090Y-613235D01*
X-1476295Y-612208D01*
X-1476432Y-611169D01*
X-1476500Y-610124D01*
X-1476500Y-609076D01*
X-1476432Y-608031D01*
X-1476295Y-606992D01*
X-1476090Y-605965D01*
X-1475819Y-604953D01*
X-1475483Y-603961D01*
X-1475082Y-602993D01*
X-1474618Y-602054D01*
X-1474095Y-601146D01*
X-1473513Y-600275D01*
X-1472875Y-599444D01*
X-1472184Y-598657D01*
X-1471443Y-597916D01*
X-1470656Y-597225D01*
X-1469825Y-596588D01*
X-1468954Y-596006D01*
X-1468046Y-595482D01*
X-1467107Y-595018D01*
X-1466139Y-594617D01*
X-1465147Y-594281D01*
X-1464135Y-594010D01*
X-1463108Y-593805D01*
X-1462069Y-593669D01*
X-1461024Y-593600D01*
X-1459976Y-593600D01*
X-1458931Y-593669D01*
X-1457892Y-593805D01*
X-1456865Y-594010D01*
X-1455853Y-594281D01*
X-1454861Y-594617D01*
X-1453893Y-595018D01*
X-1452954Y-595482D01*
X-1452046Y-596006D01*
X-1451175Y-596588D01*
X-1450344Y-597225D01*
X-1449557Y-597916D01*
X-1448816Y-598657D01*
X-1448125Y-599444D01*
X-1447488Y-600275D01*
X-1446906Y-601146D01*
X-1446382Y-602054D01*
X-1445918Y-602993D01*
X-1445517Y-603961D01*
X-1445181Y-604953D01*
X-1444910Y-605965D01*
X-1444705Y-606992D01*
X-1444569Y-608031D01*
X-1444500Y-609076D01*
X-1444500Y-610124D01*
X625600Y-1448324D02*
X625532Y-1449369D01*
X625395Y-1450408D01*
X625190Y-1451435D01*
X624919Y-1452447D01*
X624583Y-1453439D01*
X624182Y-1454407D01*
X623718Y-1455346D01*
X623195Y-1456254D01*
X622613Y-1457125D01*
X621975Y-1457956D01*
X621284Y-1458743D01*
X620543Y-1459484D01*
X619756Y-1460175D01*
X618925Y-1460813D01*
X618054Y-1461395D01*
X617146Y-1461918D01*
X616207Y-1462382D01*
X615239Y-1462783D01*
X614247Y-1463119D01*
X613235Y-1463390D01*
X612208Y-1463595D01*
X611169Y-1463732D01*
X610124Y-1463800D01*
X609076Y-1463800D01*
X608031Y-1463732D01*
X606992Y-1463595D01*
X605965Y-1463390D01*
X604953Y-1463119D01*
X603961Y-1462783D01*
X602993Y-1462382D01*
X602054Y-1461918D01*
X601146Y-1461395D01*
X600275Y-1460813D01*
X599444Y-1460175D01*
X598657Y-1459484D01*
X597916Y-1458743D01*
X597225Y-1457956D01*
X596588Y-1457125D01*
X596006Y-1456254D01*
X595482Y-1455346D01*
X595018Y-1454407D01*
X594617Y-1453439D01*
X594281Y-1452447D01*
X594010Y-1451435D01*
X593805Y-1450408D01*
X593669Y-1449369D01*
X593600Y-1448324D01*
X593600Y-1447276D01*
X593669Y-1446231D01*
X593805Y-1445192D01*
X594010Y-1444165D01*
X594281Y-1443153D01*
X594617Y-1442161D01*
X595018Y-1441193D01*
X595482Y-1440254D01*
X596006Y-1439346D01*
X596588Y-1438475D01*
X597225Y-1437644D01*
X597916Y-1436857D01*
X598657Y-1436116D01*
X599444Y-1435425D01*
X600275Y-1434788D01*
X601146Y-1434206D01*
X602054Y-1433682D01*
X602993Y-1433218D01*
X603961Y-1432817D01*
X604953Y-1432481D01*
X605965Y-1432210D01*
X606992Y-1432005D01*
X608031Y-1431869D01*
X609076Y-1431800D01*
X610124Y-1431800D01*
X611169Y-1431869D01*
X612208Y-1432005D01*
X613235Y-1432210D01*
X614247Y-1432481D01*
X615239Y-1432817D01*
X616207Y-1433218D01*
X617146Y-1433682D01*
X618054Y-1434206D01*
X618925Y-1434788D01*
X619756Y-1435425D01*
X620543Y-1436116D01*
X621284Y-1436857D01*
X621975Y-1437644D01*
X622613Y-1438475D01*
X623195Y-1439346D01*
X623718Y-1440254D01*
X624182Y-1441193D01*
X624583Y-1442161D01*
X624919Y-1443153D01*
X625190Y-1444165D01*
X625395Y-1445192D01*
X625532Y-1446231D01*
X625600Y-1447276D01*
X625600Y-1448324D01*
X-593600Y-1435624D02*
X-593669Y-1436669D01*
X-593805Y-1437708D01*
X-594010Y-1438735D01*
X-594281Y-1439747D01*
X-594617Y-1440739D01*
X-595018Y-1441707D01*
X-595482Y-1442646D01*
X-596006Y-1443554D01*
X-596588Y-1444425D01*
X-597225Y-1445256D01*
X-597916Y-1446043D01*
X-598657Y-1446784D01*
X-599444Y-1447475D01*
X-600275Y-1448113D01*
X-601146Y-1448695D01*
X-602054Y-1449218D01*
X-602993Y-1449682D01*
X-603961Y-1450083D01*
X-604953Y-1450419D01*
X-605965Y-1450690D01*
X-606992Y-1450895D01*
X-608031Y-1451032D01*
X-609076Y-1451100D01*
X-610124Y-1451100D01*
X-611169Y-1451032D01*
X-612208Y-1450895D01*
X-613235Y-1450690D01*
X-614247Y-1450419D01*
X-615239Y-1450083D01*
X-616207Y-1449682D01*
X-617146Y-1449218D01*
X-618054Y-1448695D01*
X-618925Y-1448113D01*
X-619756Y-1447475D01*
X-620543Y-1446784D01*
X-621284Y-1446043D01*
X-621975Y-1445256D01*
X-622613Y-1444425D01*
X-623195Y-1443554D01*
X-623718Y-1442646D01*
X-624182Y-1441707D01*
X-624583Y-1440739D01*
X-624919Y-1439747D01*
X-625190Y-1438735D01*
X-625395Y-1437708D01*
X-625532Y-1436669D01*
X-625600Y-1435624D01*
X-625600Y-1434576D01*
X-625532Y-1433531D01*
X-625395Y-1432492D01*
X-625190Y-1431465D01*
X-624919Y-1430453D01*
X-624583Y-1429461D01*
X-624182Y-1428493D01*
X-623718Y-1427554D01*
X-623195Y-1426646D01*
X-622613Y-1425775D01*
X-621975Y-1424944D01*
X-621284Y-1424157D01*
X-620543Y-1423416D01*
X-619756Y-1422725D01*
X-618925Y-1422088D01*
X-618054Y-1421506D01*
X-617146Y-1420982D01*
X-616207Y-1420518D01*
X-615239Y-1420117D01*
X-614247Y-1419781D01*
X-613235Y-1419510D01*
X-612208Y-1419305D01*
X-611169Y-1419169D01*
X-610124Y-1419100D01*
X-609076Y-1419100D01*
X-608031Y-1419169D01*
X-606992Y-1419305D01*
X-605965Y-1419510D01*
X-604953Y-1419781D01*
X-603961Y-1420117D01*
X-602993Y-1420518D01*
X-602054Y-1420982D01*
X-601146Y-1421506D01*
X-600275Y-1422088D01*
X-599444Y-1422725D01*
X-598657Y-1423416D01*
X-597916Y-1424157D01*
X-597225Y-1424944D01*
X-596588Y-1425775D01*
X-596006Y-1426646D01*
X-595482Y-1427554D01*
X-595018Y-1428493D01*
X-594617Y-1429461D01*
X-594281Y-1430453D01*
X-594010Y-1431465D01*
X-593805Y-1432492D01*
X-593669Y-1433531D01*
X-593600Y-1434576D01*
X-593600Y-1435624D01*
X-1458722Y-449589D02*
X-1458651Y-448594D01*
X-1458509Y-447606D01*
X-1458297Y-446631D01*
X-1458015Y-445673D01*
X-1457667Y-444739D01*
X-1457252Y-443831D01*
X-1456774Y-442955D01*
X-1456234Y-442116D01*
X-1455636Y-441317D01*
X-1454983Y-440563D01*
X-1454277Y-439857D01*
X-1453523Y-439203D01*
X-1452724Y-438605D01*
X-1451885Y-438066D01*
X-1451009Y-437588D01*
X-1450101Y-437173D01*
X-1449166Y-436824D01*
X-1448209Y-436543D01*
X-1447234Y-436331D01*
X-1446246Y-436189D01*
X-1445251Y-436118D01*
X-1444253Y-436118D01*
X-1443258Y-436189D01*
X-1442270Y-436331D01*
X-1441295Y-436543D01*
X-1440337Y-436824D01*
X-1439402Y-437173D01*
X-1438495Y-437588D01*
X-1437619Y-438066D01*
X-1436779Y-438605D01*
X-1435981Y-439203D01*
X-1435226Y-439857D01*
X-1434521Y-440563D01*
X-1433867Y-441317D01*
X-1433269Y-442116D01*
X-1432730Y-442955D01*
X-1432252Y-443831D01*
X-1431837Y-444739D01*
X-1431488Y-445673D01*
X-1431207Y-446631D01*
X-1430995Y-447606D01*
X-1430853Y-448594D01*
X-1430782Y-449589D01*
X-1430782Y-450587D01*
X-1430853Y-451582D01*
X-1430995Y-452570D01*
X-1431207Y-453545D01*
X-1431488Y-454503D01*
X-1431837Y-455438D01*
X-1432252Y-456345D01*
X-1432730Y-457221D01*
X-1433269Y-458061D01*
X-1433867Y-458859D01*
X-1434521Y-459613D01*
X-1435226Y-460319D01*
X-1435981Y-460973D01*
X-1436779Y-461571D01*
X-1437619Y-462110D01*
X-1438495Y-462588D01*
X-1439402Y-463003D01*
X-1440337Y-463352D01*
X-1441295Y-463633D01*
X-1442270Y-463845D01*
X-1443258Y-463987D01*
X-1444253Y-464058D01*
X-1445251Y-464058D01*
X-1446246Y-463987D01*
X-1447234Y-463845D01*
X-1448209Y-463633D01*
X-1449166Y-463352D01*
X-1450101Y-463003D01*
X-1451009Y-462588D01*
X-1451885Y-462110D01*
X-1452724Y-461571D01*
X-1453523Y-460973D01*
X-1454277Y-460319D01*
X-1454983Y-459613D01*
X-1455636Y-458859D01*
X-1456234Y-458061D01*
X-1456774Y-457221D01*
X-1457252Y-456345D01*
X-1457667Y-455438D01*
X-1458015Y-454503D01*
X-1458297Y-453545D01*
X-1458509Y-452570D01*
X-1458651Y-451582D01*
X-1458722Y-450587D01*
X-1458722Y-449589D01*
X-1458722Y450587D02*
X-1458651Y451582D01*
X-1458509Y452570D01*
X-1458297Y453545D01*
X-1458015Y454503D01*
X-1457667Y455438D01*
X-1457252Y456345D01*
X-1456774Y457221D01*
X-1456234Y458061D01*
X-1455636Y458859D01*
X-1454983Y459613D01*
X-1454277Y460319D01*
X-1453523Y460973D01*
X-1452724Y461571D01*
X-1451885Y462110D01*
X-1451009Y462588D01*
X-1450101Y463003D01*
X-1449166Y463352D01*
X-1448209Y463633D01*
X-1447234Y463845D01*
X-1446246Y463987D01*
X-1445251Y464058D01*
X-1444253Y464058D01*
X-1443258Y463987D01*
X-1442270Y463845D01*
X-1441295Y463633D01*
X-1440337Y463352D01*
X-1439402Y463003D01*
X-1438495Y462588D01*
X-1437619Y462110D01*
X-1436779Y461571D01*
X-1435981Y460973D01*
X-1435226Y460319D01*
X-1434521Y459613D01*
X-1433867Y458859D01*
X-1433269Y458061D01*
X-1432730Y457221D01*
X-1432252Y456345D01*
X-1431837Y455438D01*
X-1431488Y454503D01*
X-1431207Y453545D01*
X-1430995Y452570D01*
X-1430853Y451582D01*
X-1430782Y450587D01*
X-1430782Y449589D01*
X-1430853Y448594D01*
X-1430995Y447606D01*
X-1431207Y446631D01*
X-1431488Y445673D01*
X-1431837Y444739D01*
X-1432252Y443831D01*
X-1432730Y442955D01*
X-1433269Y442116D01*
X-1433867Y441317D01*
X-1434521Y440563D01*
X-1435226Y439857D01*
X-1435981Y439203D01*
X-1436779Y438605D01*
X-1437619Y438066D01*
X-1438495Y437588D01*
X-1439402Y437173D01*
X-1440337Y436824D01*
X-1441295Y436543D01*
X-1442270Y436331D01*
X-1443258Y436189D01*
X-1444253Y436118D01*
X-1445251Y436118D01*
X-1446246Y436189D01*
X-1447234Y436331D01*
X-1448209Y436543D01*
X-1449166Y436824D01*
X-1450101Y437173D01*
X-1451009Y437588D01*
X-1451885Y438066D01*
X-1452724Y438605D01*
X-1453523Y439203D01*
X-1454277Y439857D01*
X-1454983Y440563D01*
X-1455636Y441317D01*
X-1456234Y442116D01*
X-1456774Y442955D01*
X-1457252Y443831D01*
X-1457667Y444739D01*
X-1458015Y445673D01*
X-1458297Y446631D01*
X-1458509Y447606D01*
X-1458651Y448594D01*
X-1458722Y449589D01*
X-1458722Y450587D01*
X449589Y-1458722D02*
X448594Y-1458651D01*
X447606Y-1458509D01*
X446631Y-1458297D01*
X445673Y-1458015D01*
X444739Y-1457667D01*
X443831Y-1457252D01*
X442955Y-1456774D01*
X442116Y-1456234D01*
X441317Y-1455636D01*
X440563Y-1454983D01*
X439857Y-1454277D01*
X439203Y-1453523D01*
X438605Y-1452724D01*
X438066Y-1451885D01*
X437588Y-1451009D01*
X437173Y-1450101D01*
X436824Y-1449166D01*
X436543Y-1448209D01*
X436331Y-1447234D01*
X436189Y-1446246D01*
X436118Y-1445251D01*
X436118Y-1444253D01*
X436189Y-1443258D01*
X436331Y-1442270D01*
X436543Y-1441295D01*
X436824Y-1440337D01*
X437173Y-1439402D01*
X437588Y-1438495D01*
X438066Y-1437619D01*
X438605Y-1436779D01*
X439203Y-1435981D01*
X439857Y-1435226D01*
X440563Y-1434521D01*
X441317Y-1433867D01*
X442116Y-1433269D01*
X442955Y-1432730D01*
X443831Y-1432252D01*
X444739Y-1431837D01*
X445673Y-1431488D01*
X446631Y-1431207D01*
X447606Y-1430995D01*
X448594Y-1430853D01*
X449589Y-1430782D01*
X450587Y-1430782D01*
X451582Y-1430853D01*
X452570Y-1430995D01*
X453545Y-1431207D01*
X454503Y-1431488D01*
X455438Y-1431837D01*
X456345Y-1432252D01*
X457221Y-1432730D01*
X458061Y-1433269D01*
X458859Y-1433867D01*
X459613Y-1434521D01*
X460319Y-1435226D01*
X460973Y-1435981D01*
X461571Y-1436779D01*
X462110Y-1437619D01*
X462588Y-1438495D01*
X463003Y-1439402D01*
X463352Y-1440337D01*
X463633Y-1441295D01*
X463845Y-1442270D01*
X463987Y-1443258D01*
X464058Y-1444253D01*
X464058Y-1445251D01*
X463987Y-1446246D01*
X463845Y-1447234D01*
X463633Y-1448209D01*
X463352Y-1449166D01*
X463003Y-1450101D01*
X462588Y-1451009D01*
X462110Y-1451885D01*
X461571Y-1452724D01*
X460973Y-1453523D01*
X460319Y-1454277D01*
X459613Y-1454983D01*
X458859Y-1455636D01*
X458061Y-1456234D01*
X457221Y-1456774D01*
X456345Y-1457252D01*
X455438Y-1457667D01*
X454503Y-1458015D01*
X453545Y-1458297D01*
X452570Y-1458509D01*
X451582Y-1458651D01*
X450587Y-1458722D01*
X449589Y-1458722D01*
X-450587Y-1458722D02*
X-451582Y-1458651D01*
X-452570Y-1458509D01*
X-453545Y-1458297D01*
X-454503Y-1458015D01*
X-455438Y-1457667D01*
X-456345Y-1457252D01*
X-457221Y-1456774D01*
X-458061Y-1456234D01*
X-458859Y-1455636D01*
X-459613Y-1454983D01*
X-460319Y-1454277D01*
X-460973Y-1453523D01*
X-461571Y-1452724D01*
X-462110Y-1451885D01*
X-462588Y-1451009D01*
X-463003Y-1450101D01*
X-463352Y-1449166D01*
X-463633Y-1448209D01*
X-463845Y-1447234D01*
X-463987Y-1446246D01*
X-464058Y-1445251D01*
X-464058Y-1444253D01*
X-463987Y-1443258D01*
X-463845Y-1442270D01*
X-463633Y-1441295D01*
X-463352Y-1440337D01*
X-463003Y-1439402D01*
X-462588Y-1438495D01*
X-462110Y-1437619D01*
X-461571Y-1436779D01*
X-460973Y-1435981D01*
X-460319Y-1435226D01*
X-459613Y-1434521D01*
X-458859Y-1433867D01*
X-458061Y-1433269D01*
X-457221Y-1432730D01*
X-456345Y-1432252D01*
X-455438Y-1431837D01*
X-454503Y-1431488D01*
X-453545Y-1431207D01*
X-452570Y-1430995D01*
X-451582Y-1430853D01*
X-450587Y-1430782D01*
X-449589Y-1430782D01*
X-448594Y-1430853D01*
X-447606Y-1430995D01*
X-446631Y-1431207D01*
X-445673Y-1431488D01*
X-444739Y-1431837D01*
X-443831Y-1432252D01*
X-442955Y-1432730D01*
X-442116Y-1433269D01*
X-441317Y-1433867D01*
X-440563Y-1434521D01*
X-439857Y-1435226D01*
X-439203Y-1435981D01*
X-438605Y-1436779D01*
X-438066Y-1437619D01*
X-437588Y-1438495D01*
X-437173Y-1439402D01*
X-436824Y-1440337D01*
X-436543Y-1441295D01*
X-436331Y-1442270D01*
X-436189Y-1443258D01*
X-436118Y-1444253D01*
X-436118Y-1445251D01*
X-436189Y-1446246D01*
X-436331Y-1447234D01*
X-436543Y-1448209D01*
X-436824Y-1449166D01*
X-437173Y-1450101D01*
X-437588Y-1451009D01*
X-438066Y-1451885D01*
X-438605Y-1452724D01*
X-439203Y-1453523D01*
X-439857Y-1454277D01*
X-440563Y-1454983D01*
X-441317Y-1455636D01*
X-442116Y-1456234D01*
X-442955Y-1456774D01*
X-443831Y-1457252D01*
X-444739Y-1457667D01*
X-445673Y-1458015D01*
X-446631Y-1458297D01*
X-447606Y-1458509D01*
X-448594Y-1458651D01*
X-449589Y-1458722D01*
X-450587Y-1458722D01*
X-449589Y1458722D02*
X-448594Y1458651D01*
X-447606Y1458509D01*
X-446631Y1458297D01*
X-445673Y1458015D01*
X-444739Y1457667D01*
X-443831Y1457252D01*
X-442955Y1456774D01*
X-442116Y1456234D01*
X-441317Y1455636D01*
X-440563Y1454983D01*
X-439857Y1454277D01*
X-439203Y1453523D01*
X-438605Y1452724D01*
X-438066Y1451885D01*
X-437588Y1451009D01*
X-437173Y1450101D01*
X-436824Y1449166D01*
X-436543Y1448209D01*
X-436331Y1447234D01*
X-436189Y1446246D01*
X-436118Y1445251D01*
X-436118Y1444253D01*
X-436189Y1443258D01*
X-436331Y1442270D01*
X-436543Y1441295D01*
X-436824Y1440337D01*
X-437173Y1439402D01*
X-437588Y1438495D01*
X-438066Y1437619D01*
X-438605Y1436779D01*
X-439203Y1435981D01*
X-439857Y1435226D01*
X-440563Y1434521D01*
X-441317Y1433867D01*
X-442116Y1433269D01*
X-442955Y1432730D01*
X-443831Y1432252D01*
X-444739Y1431837D01*
X-445673Y1431488D01*
X-446631Y1431207D01*
X-447606Y1430995D01*
X-448594Y1430853D01*
X-449589Y1430782D01*
X-450587Y1430782D01*
X-451582Y1430853D01*
X-452570Y1430995D01*
X-453545Y1431207D01*
X-454503Y1431488D01*
X-455438Y1431837D01*
X-456345Y1432252D01*
X-457221Y1432730D01*
X-458061Y1433269D01*
X-458859Y1433867D01*
X-459613Y1434521D01*
X-460319Y1435226D01*
X-460973Y1435981D01*
X-461571Y1436779D01*
X-462110Y1437619D01*
X-462588Y1438495D01*
X-463003Y1439402D01*
X-463352Y1440337D01*
X-463633Y1441295D01*
X-463845Y1442270D01*
X-463987Y1443258D01*
X-464058Y1444253D01*
X-464058Y1445251D01*
X-463987Y1446246D01*
X-463845Y1447234D01*
X-463633Y1448209D01*
X-463352Y1449166D01*
X-463003Y1450101D01*
X-462588Y1451009D01*
X-462110Y1451885D01*
X-461571Y1452724D01*
X-460973Y1453523D01*
X-460319Y1454277D01*
X-459613Y1454983D01*
X-458859Y1455636D01*
X-458061Y1456234D01*
X-457221Y1456774D01*
X-456345Y1457252D01*
X-455438Y1457667D01*
X-454503Y1458015D01*
X-453545Y1458297D01*
X-452570Y1458509D01*
X-451582Y1458651D01*
X-450587Y1458722D01*
X-449589Y1458722D01*
X450587Y1458722D02*
X451582Y1458651D01*
X452570Y1458509D01*
X453545Y1458297D01*
X454503Y1458015D01*
X455438Y1457667D01*
X456345Y1457252D01*
X457221Y1456774D01*
X458061Y1456234D01*
X458859Y1455636D01*
X459613Y1454983D01*
X460319Y1454277D01*
X460973Y1453523D01*
X461571Y1452724D01*
X462110Y1451885D01*
X462588Y1451009D01*
X463003Y1450101D01*
X463352Y1449166D01*
X463633Y1448209D01*
X463845Y1447234D01*
X463987Y1446246D01*
X464058Y1445251D01*
X464058Y1444253D01*
X463987Y1443258D01*
X463845Y1442270D01*
X463633Y1441295D01*
X463352Y1440337D01*
X463003Y1439402D01*
X462588Y1438495D01*
X462110Y1437619D01*
X461571Y1436779D01*
X460973Y1435981D01*
X460319Y1435226D01*
X459613Y1434521D01*
X458859Y1433867D01*
X458061Y1433269D01*
X457221Y1432730D01*
X456345Y1432252D01*
X455438Y1431837D01*
X454503Y1431488D01*
X453545Y1431207D01*
X452570Y1430995D01*
X451582Y1430853D01*
X450587Y1430782D01*
X449589Y1430782D01*
X448594Y1430853D01*
X447606Y1430995D01*
X446631Y1431207D01*
X445673Y1431488D01*
X444739Y1431837D01*
X443831Y1432252D01*
X442955Y1432730D01*
X442116Y1433269D01*
X441317Y1433867D01*
X440563Y1434521D01*
X439857Y1435226D01*
X439203Y1435981D01*
X438605Y1436779D01*
X438066Y1437619D01*
X437588Y1438495D01*
X437173Y1439402D01*
X436824Y1440337D01*
X436543Y1441295D01*
X436331Y1442270D01*
X436189Y1443258D01*
X436118Y1444253D01*
X436118Y1445251D01*
X436189Y1446246D01*
X436331Y1447234D01*
X436543Y1448209D01*
X436824Y1449166D01*
X437173Y1450101D01*
X437588Y1451009D01*
X438066Y1451885D01*
X438605Y1452724D01*
X439203Y1453523D01*
X439857Y1454277D01*
X440563Y1454983D01*
X441317Y1455636D01*
X442116Y1456234D01*
X442955Y1456774D01*
X443831Y1457252D01*
X444739Y1457667D01*
X445673Y1458015D01*
X446631Y1458297D01*
X447606Y1458509D01*
X448594Y1458651D01*
X449589Y1458722D01*
X450587Y1458722D01*
X710993Y1350312D02*
X711646Y1349558D01*
X712245Y1348759D01*
X712784Y1347919D01*
X713262Y1347044D01*
X713677Y1346136D01*
X714025Y1345201D01*
X714307Y1344244D01*
X714519Y1343268D01*
X714661Y1342281D01*
X714732Y1341285D01*
X714732Y1340288D01*
X714661Y1339292D01*
X714519Y1338304D01*
X714307Y1337329D01*
X714025Y1336372D01*
X713677Y1335437D01*
X713262Y1334529D01*
X712784Y1333653D01*
X712245Y1332814D01*
X711646Y1332015D01*
X710993Y1331261D01*
X710287Y1330555D01*
X709533Y1329902D01*
X708734Y1329304D01*
X707895Y1328764D01*
X707019Y1328286D01*
X706111Y1327872D01*
X705176Y1327523D01*
X704219Y1327242D01*
X703244Y1327030D01*
X702256Y1326888D01*
X701261Y1326816D01*
X700263Y1326816D01*
X699268Y1326888D01*
X698280Y1327030D01*
X697305Y1327242D01*
X696347Y1327523D01*
X695412Y1327872D01*
X694505Y1328286D01*
X693629Y1328764D01*
X692789Y1329304D01*
X691991Y1329902D01*
X691236Y1330555D01*
X690531Y1331261D01*
X689877Y1332015D01*
X689279Y1332814D01*
X688740Y1333653D01*
X688262Y1334529D01*
X687847Y1335437D01*
X687498Y1336372D01*
X687217Y1337329D01*
X687005Y1338304D01*
X686863Y1339292D01*
X686792Y1340288D01*
X686792Y1341285D01*
X686863Y1342281D01*
X687005Y1343268D01*
X687217Y1344244D01*
X687498Y1345201D01*
X687847Y1346136D01*
X688262Y1347044D01*
X688740Y1347919D01*
X689279Y1348759D01*
X689877Y1349558D01*
X690531Y1350312D01*
X691236Y1351018D01*
X691991Y1351671D01*
X692789Y1352269D01*
X693629Y1352809D01*
X694505Y1353287D01*
X695412Y1353701D01*
X696347Y1354050D01*
X697305Y1354331D01*
X698280Y1354543D01*
X699268Y1354685D01*
X700263Y1354756D01*
X701261Y1354756D01*
X702256Y1354685D01*
X703244Y1354543D01*
X704219Y1354331D01*
X705176Y1354050D01*
X706111Y1353701D01*
X707019Y1353287D01*
X707895Y1352809D01*
X708734Y1352269D01*
X709533Y1351671D01*
X710287Y1351018D01*
X710993Y1350312D01*
X1347514Y713791D02*
X1348167Y713037D01*
X1348765Y712238D01*
X1349305Y711399D01*
X1349783Y710523D01*
X1350197Y709615D01*
X1350546Y708680D01*
X1350827Y707723D01*
X1351039Y706748D01*
X1351181Y705760D01*
X1351252Y704765D01*
X1351252Y703767D01*
X1351181Y702772D01*
X1351039Y701784D01*
X1350827Y700809D01*
X1350546Y699851D01*
X1350197Y698916D01*
X1349783Y698009D01*
X1349305Y697133D01*
X1348765Y696293D01*
X1348167Y695495D01*
X1347514Y694740D01*
X1346808Y694035D01*
X1346054Y693381D01*
X1345255Y692783D01*
X1344416Y692244D01*
X1343540Y691766D01*
X1342632Y691351D01*
X1341697Y691002D01*
X1340740Y690721D01*
X1339764Y690509D01*
X1338777Y690367D01*
X1337781Y690296D01*
X1336784Y690296D01*
X1335788Y690367D01*
X1334800Y690509D01*
X1333825Y690721D01*
X1332868Y691002D01*
X1331933Y691351D01*
X1331025Y691766D01*
X1330149Y692244D01*
X1329310Y692783D01*
X1328511Y693381D01*
X1327757Y694035D01*
X1327051Y694740D01*
X1326398Y695495D01*
X1325800Y696293D01*
X1325260Y697133D01*
X1324782Y698009D01*
X1324368Y698916D01*
X1324019Y699851D01*
X1323738Y700809D01*
X1323526Y701784D01*
X1323384Y702772D01*
X1323312Y703767D01*
X1323312Y704765D01*
X1323384Y705760D01*
X1323526Y706748D01*
X1323738Y707723D01*
X1324019Y708680D01*
X1324368Y709615D01*
X1324782Y710523D01*
X1325260Y711399D01*
X1325800Y712238D01*
X1326398Y713037D01*
X1327051Y713791D01*
X1327757Y714497D01*
X1328511Y715150D01*
X1329310Y715748D01*
X1330149Y716288D01*
X1331025Y716766D01*
X1331933Y717181D01*
X1332868Y717529D01*
X1333825Y717811D01*
X1334800Y718023D01*
X1335788Y718165D01*
X1336784Y718236D01*
X1337781Y718236D01*
X1338777Y718165D01*
X1339764Y718023D01*
X1340740Y717811D01*
X1341697Y717529D01*
X1342632Y717181D01*
X1343540Y716766D01*
X1344416Y716288D01*
X1345255Y715748D01*
X1346054Y715150D01*
X1346808Y714497D01*
X1347514Y713791D01*
X-1349973Y710173D02*
X-1349218Y710827D01*
X-1348420Y711425D01*
X-1347580Y711964D01*
X-1346704Y712443D01*
X-1345797Y712857D01*
X-1344862Y713206D01*
X-1343904Y713487D01*
X-1342929Y713699D01*
X-1341941Y713841D01*
X-1340946Y713912D01*
X-1339948Y713912D01*
X-1338953Y713841D01*
X-1337965Y713699D01*
X-1336990Y713487D01*
X-1336033Y713206D01*
X-1335098Y712857D01*
X-1334190Y712443D01*
X-1333314Y711964D01*
X-1332475Y711425D01*
X-1331676Y710827D01*
X-1330922Y710173D01*
X-1330216Y709468D01*
X-1329562Y708714D01*
X-1328964Y707915D01*
X-1328425Y707075D01*
X-1327947Y706200D01*
X-1327532Y705292D01*
X-1327184Y704357D01*
X-1326902Y703399D01*
X-1326690Y702424D01*
X-1326548Y701437D01*
X-1326477Y700441D01*
X-1326477Y699443D01*
X-1326548Y698448D01*
X-1326690Y697460D01*
X-1326902Y696485D01*
X-1327184Y695528D01*
X-1327532Y694593D01*
X-1327947Y693685D01*
X-1328425Y692809D01*
X-1328964Y691970D01*
X-1329562Y691171D01*
X-1330216Y690417D01*
X-1330922Y689711D01*
X-1331676Y689058D01*
X-1332475Y688460D01*
X-1333314Y687920D01*
X-1334190Y687442D01*
X-1335098Y687028D01*
X-1336033Y686679D01*
X-1336990Y686398D01*
X-1337965Y686186D01*
X-1338953Y686044D01*
X-1339948Y685972D01*
X-1340946Y685972D01*
X-1341941Y686044D01*
X-1342929Y686186D01*
X-1343904Y686398D01*
X-1344862Y686679D01*
X-1345797Y687028D01*
X-1346704Y687442D01*
X-1347580Y687920D01*
X-1348420Y688460D01*
X-1349218Y689058D01*
X-1349973Y689711D01*
X-1350678Y690417D01*
X-1351332Y691171D01*
X-1351930Y691970D01*
X-1352469Y692809D01*
X-1352947Y693685D01*
X-1353362Y694593D01*
X-1353711Y695528D01*
X-1353992Y696485D01*
X-1354204Y697460D01*
X-1354346Y698448D01*
X-1354417Y699443D01*
X-1354417Y700441D01*
X-1354346Y701437D01*
X-1354204Y702424D01*
X-1353992Y703399D01*
X-1353711Y704357D01*
X-1353362Y705292D01*
X-1352947Y706200D01*
X-1352469Y707075D01*
X-1351930Y707915D01*
X-1351332Y708714D01*
X-1350678Y709468D01*
X-1349973Y710173D01*
X-713452Y1346694D02*
X-712698Y1347347D01*
X-711899Y1347945D01*
X-711060Y1348485D01*
X-710184Y1348963D01*
X-709276Y1349378D01*
X-708341Y1349726D01*
X-707384Y1350008D01*
X-706408Y1350220D01*
X-705421Y1350362D01*
X-704425Y1350433D01*
X-703428Y1350433D01*
X-702432Y1350362D01*
X-701445Y1350220D01*
X-700469Y1350008D01*
X-699512Y1349726D01*
X-698577Y1349378D01*
X-697669Y1348963D01*
X-696793Y1348485D01*
X-695954Y1347945D01*
X-695155Y1347347D01*
X-694401Y1346694D01*
X-693695Y1345988D01*
X-693042Y1345234D01*
X-692444Y1344435D01*
X-691904Y1343596D01*
X-691426Y1342720D01*
X-691012Y1341812D01*
X-690663Y1340877D01*
X-690382Y1339920D01*
X-690170Y1338945D01*
X-690028Y1337957D01*
X-689956Y1336962D01*
X-689956Y1335964D01*
X-690028Y1334969D01*
X-690170Y1333981D01*
X-690382Y1333006D01*
X-690663Y1332048D01*
X-691012Y1331113D01*
X-691426Y1330206D01*
X-691904Y1329330D01*
X-692444Y1328490D01*
X-693042Y1327692D01*
X-693695Y1326937D01*
X-694401Y1326232D01*
X-695155Y1325578D01*
X-695954Y1324980D01*
X-696793Y1324441D01*
X-697669Y1323963D01*
X-698577Y1323548D01*
X-699512Y1323199D01*
X-700469Y1322918D01*
X-701445Y1322706D01*
X-702432Y1322564D01*
X-703428Y1322493D01*
X-704425Y1322493D01*
X-705421Y1322564D01*
X-706408Y1322706D01*
X-707384Y1322918D01*
X-708341Y1323199D01*
X-709276Y1323548D01*
X-710184Y1323963D01*
X-711060Y1324441D01*
X-711899Y1324980D01*
X-712698Y1325578D01*
X-713452Y1326232D01*
X-714158Y1326937D01*
X-714811Y1327692D01*
X-715409Y1328490D01*
X-715949Y1329330D01*
X-716427Y1330206D01*
X-716841Y1331113D01*
X-717190Y1332048D01*
X-717471Y1333006D01*
X-717683Y1333981D01*
X-717825Y1334969D01*
X-717896Y1335964D01*
X-717896Y1336962D01*
X-717825Y1337957D01*
X-717683Y1338945D01*
X-717471Y1339920D01*
X-717190Y1340877D01*
X-716841Y1341812D01*
X-716427Y1342720D01*
X-715949Y1343596D01*
X-715409Y1344435D01*
X-714811Y1345234D01*
X-714158Y1345988D01*
X-713452Y1346694D01*
X1344448Y-710438D02*
X1343693Y-711091D01*
X1342895Y-711689D01*
X1342055Y-712229D01*
X1341179Y-712707D01*
X1340272Y-713122D01*
X1339337Y-713470D01*
X1338379Y-713751D01*
X1337404Y-713964D01*
X1336416Y-714106D01*
X1335421Y-714177D01*
X1334423Y-714177D01*
X1333428Y-714106D01*
X1332440Y-713964D01*
X1331465Y-713751D01*
X1330508Y-713470D01*
X1329573Y-713122D01*
X1328665Y-712707D01*
X1327789Y-712229D01*
X1326950Y-711689D01*
X1326151Y-711091D01*
X1325397Y-710438D01*
X1324691Y-709732D01*
X1324038Y-708978D01*
X1323440Y-708179D01*
X1322900Y-707340D01*
X1322422Y-706464D01*
X1322007Y-705556D01*
X1321659Y-704621D01*
X1321377Y-703664D01*
X1321165Y-702689D01*
X1321023Y-701701D01*
X1320952Y-700706D01*
X1320952Y-699708D01*
X1321023Y-698712D01*
X1321165Y-697725D01*
X1321377Y-696750D01*
X1321659Y-695792D01*
X1322007Y-694857D01*
X1322422Y-693950D01*
X1322900Y-693074D01*
X1323440Y-692234D01*
X1324038Y-691435D01*
X1324691Y-690681D01*
X1325397Y-689976D01*
X1326151Y-689322D01*
X1326950Y-688724D01*
X1327789Y-688185D01*
X1328665Y-687706D01*
X1329573Y-687292D01*
X1330508Y-686943D01*
X1331465Y-686662D01*
X1332440Y-686450D01*
X1333428Y-686308D01*
X1334423Y-686237D01*
X1335421Y-686237D01*
X1336416Y-686308D01*
X1337404Y-686450D01*
X1338379Y-686662D01*
X1339337Y-686943D01*
X1340272Y-687292D01*
X1341179Y-687706D01*
X1342055Y-688185D01*
X1342895Y-688724D01*
X1343693Y-689322D01*
X1344448Y-689976D01*
X1345153Y-690681D01*
X1345807Y-691435D01*
X1346405Y-692234D01*
X1346944Y-693074D01*
X1347422Y-693950D01*
X1347837Y-694857D01*
X1348186Y-695792D01*
X1348467Y-696750D01*
X1348679Y-697725D01*
X1348821Y-698712D01*
X1348892Y-699708D01*
X1348892Y-700706D01*
X1348821Y-701701D01*
X1348679Y-702689D01*
X1348467Y-703664D01*
X1348186Y-704621D01*
X1347837Y-705556D01*
X1347422Y-706464D01*
X1346944Y-707340D01*
X1346405Y-708179D01*
X1345807Y-708978D01*
X1345153Y-709732D01*
X1344448Y-710438D01*
X707927Y-1346958D02*
X707173Y-1347612D01*
X706374Y-1348210D01*
X705535Y-1348749D01*
X704659Y-1349228D01*
X703751Y-1349642D01*
X702816Y-1349991D01*
X701859Y-1350272D01*
X700884Y-1350484D01*
X699896Y-1350626D01*
X698901Y-1350697D01*
X697903Y-1350697D01*
X696907Y-1350626D01*
X695920Y-1350484D01*
X694945Y-1350272D01*
X693987Y-1349991D01*
X693052Y-1349642D01*
X692144Y-1349228D01*
X691269Y-1348749D01*
X690429Y-1348210D01*
X689630Y-1347612D01*
X688876Y-1346958D01*
X688171Y-1346253D01*
X687517Y-1345499D01*
X686919Y-1344700D01*
X686380Y-1343860D01*
X685901Y-1342985D01*
X685487Y-1342077D01*
X685138Y-1341142D01*
X684857Y-1340184D01*
X684645Y-1339209D01*
X684503Y-1338222D01*
X684432Y-1337226D01*
X684432Y-1336228D01*
X684503Y-1335233D01*
X684645Y-1334245D01*
X684857Y-1333270D01*
X685138Y-1332313D01*
X685487Y-1331378D01*
X685901Y-1330470D01*
X686380Y-1329594D01*
X686919Y-1328755D01*
X687517Y-1327956D01*
X688171Y-1327202D01*
X688876Y-1326496D01*
X689630Y-1325843D01*
X690429Y-1325245D01*
X691269Y-1324705D01*
X692144Y-1324227D01*
X693052Y-1323812D01*
X693987Y-1323464D01*
X694945Y-1323183D01*
X695920Y-1322970D01*
X696907Y-1322828D01*
X697903Y-1322757D01*
X698901Y-1322757D01*
X699896Y-1322828D01*
X700884Y-1322970D01*
X701859Y-1323183D01*
X702816Y-1323464D01*
X703751Y-1323812D01*
X704659Y-1324227D01*
X705535Y-1324705D01*
X706374Y-1325245D01*
X707173Y-1325843D01*
X707927Y-1326496D01*
X708633Y-1327202D01*
X709286Y-1327956D01*
X709884Y-1328755D01*
X710424Y-1329594D01*
X710902Y-1330470D01*
X711316Y-1331378D01*
X711665Y-1332313D01*
X711946Y-1333270D01*
X712158Y-1334245D01*
X712300Y-1335233D01*
X712372Y-1336228D01*
X712372Y-1337226D01*
X712300Y-1338222D01*
X712158Y-1339209D01*
X711946Y-1340184D01*
X711665Y-1341142D01*
X711316Y-1342077D01*
X710902Y-1342985D01*
X710424Y-1343860D01*
X709884Y-1344700D01*
X709286Y-1345499D01*
X708633Y-1346253D01*
X707927Y-1346958D01*
X-716337Y-1351249D02*
X-716990Y-1350495D01*
X-717588Y-1349696D01*
X-718127Y-1348856D01*
X-718606Y-1347981D01*
X-719020Y-1347073D01*
X-719369Y-1346138D01*
X-719650Y-1345180D01*
X-719862Y-1344205D01*
X-720004Y-1343218D01*
X-720075Y-1342222D01*
X-720075Y-1341224D01*
X-720004Y-1340229D01*
X-719862Y-1339241D01*
X-719650Y-1338266D01*
X-719369Y-1337309D01*
X-719020Y-1336374D01*
X-718606Y-1335466D01*
X-718127Y-1334590D01*
X-717588Y-1333751D01*
X-716990Y-1332952D01*
X-716337Y-1332198D01*
X-715631Y-1331492D01*
X-714877Y-1330839D01*
X-714078Y-1330241D01*
X-713238Y-1329701D01*
X-712363Y-1329223D01*
X-711455Y-1328809D01*
X-710520Y-1328460D01*
X-709562Y-1328179D01*
X-708587Y-1327967D01*
X-707600Y-1327825D01*
X-706604Y-1327753D01*
X-705606Y-1327753D01*
X-704611Y-1327825D01*
X-703623Y-1327967D01*
X-702648Y-1328179D01*
X-701691Y-1328460D01*
X-700756Y-1328809D01*
X-699848Y-1329223D01*
X-698972Y-1329701D01*
X-698133Y-1330241D01*
X-697334Y-1330839D01*
X-696580Y-1331492D01*
X-695874Y-1332198D01*
X-695221Y-1332952D01*
X-694623Y-1333751D01*
X-694083Y-1334590D01*
X-693605Y-1335466D01*
X-693191Y-1336374D01*
X-692842Y-1337309D01*
X-692561Y-1338266D01*
X-692349Y-1339241D01*
X-692207Y-1340229D01*
X-692135Y-1341224D01*
X-692135Y-1342222D01*
X-692207Y-1343218D01*
X-692349Y-1344205D01*
X-692561Y-1345180D01*
X-692842Y-1346138D01*
X-693191Y-1347073D01*
X-693605Y-1347981D01*
X-694083Y-1348856D01*
X-694623Y-1349696D01*
X-695221Y-1350495D01*
X-695874Y-1351249D01*
X-696580Y-1351955D01*
X-697334Y-1352608D01*
X-698133Y-1353206D01*
X-698972Y-1353745D01*
X-699848Y-1354224D01*
X-700756Y-1354638D01*
X-701691Y-1354987D01*
X-702648Y-1355268D01*
X-703623Y-1355480D01*
X-704611Y-1355622D01*
X-705606Y-1355693D01*
X-706604Y-1355693D01*
X-707600Y-1355622D01*
X-708587Y-1355480D01*
X-709562Y-1355268D01*
X-710520Y-1354987D01*
X-711455Y-1354638D01*
X-712363Y-1354224D01*
X-713238Y-1353745D01*
X-714078Y-1353206D01*
X-714877Y-1352608D01*
X-715631Y-1351955D01*
X-716337Y-1351249D01*
X-1352857Y-714728D02*
X-1353511Y-713974D01*
X-1354109Y-713175D01*
X-1354648Y-712336D01*
X-1355126Y-711460D01*
X-1355541Y-710552D01*
X-1355890Y-709617D01*
X-1356171Y-708660D01*
X-1356383Y-707685D01*
X-1356525Y-706697D01*
X-1356596Y-705702D01*
X-1356596Y-704704D01*
X-1356525Y-703709D01*
X-1356383Y-702721D01*
X-1356171Y-701746D01*
X-1355890Y-700788D01*
X-1355541Y-699853D01*
X-1355126Y-698946D01*
X-1354648Y-698070D01*
X-1354109Y-697230D01*
X-1353511Y-696432D01*
X-1352857Y-695677D01*
X-1352151Y-694972D01*
X-1351397Y-694318D01*
X-1350598Y-693720D01*
X-1349759Y-693181D01*
X-1348883Y-692703D01*
X-1347975Y-692288D01*
X-1347041Y-691939D01*
X-1346083Y-691658D01*
X-1345108Y-691446D01*
X-1344120Y-691304D01*
X-1343125Y-691233D01*
X-1342127Y-691233D01*
X-1341132Y-691304D01*
X-1340144Y-691446D01*
X-1339169Y-691658D01*
X-1338211Y-691939D01*
X-1337277Y-692288D01*
X-1336369Y-692703D01*
X-1335493Y-693181D01*
X-1334653Y-693720D01*
X-1333855Y-694318D01*
X-1333101Y-694972D01*
X-1332395Y-695677D01*
X-1331741Y-696432D01*
X-1331143Y-697230D01*
X-1330604Y-698070D01*
X-1330126Y-698946D01*
X-1329711Y-699853D01*
X-1329362Y-700788D01*
X-1329081Y-701746D01*
X-1328869Y-702721D01*
X-1328727Y-703709D01*
X-1328656Y-704704D01*
X-1328656Y-705702D01*
X-1328727Y-706697D01*
X-1328869Y-707685D01*
X-1329081Y-708660D01*
X-1329362Y-709617D01*
X-1329711Y-710552D01*
X-1330126Y-711460D01*
X-1330604Y-712336D01*
X-1331143Y-713175D01*
X-1331741Y-713974D01*
X-1332395Y-714728D01*
X-1333101Y-715434D01*
X-1333855Y-716087D01*
X-1334653Y-716685D01*
X-1335493Y-717225D01*
X-1336369Y-717703D01*
X-1337277Y-718118D01*
X-1338211Y-718466D01*
X-1339169Y-718748D01*
X-1340144Y-718960D01*
X-1341132Y-719102D01*
X-1342127Y-719173D01*
X-1343125Y-719173D01*
X-1344120Y-719102D01*
X-1345108Y-718960D01*
X-1346083Y-718748D01*
X-1347041Y-718466D01*
X-1347975Y-718118D01*
X-1348883Y-717703D01*
X-1349759Y-717225D01*
X-1350598Y-716685D01*
X-1351397Y-716087D01*
X-1352151Y-715434D01*
X-1352857Y-714728D01*
X1458722Y449589D02*
X1458651Y448594D01*
X1458509Y447606D01*
X1458297Y446631D01*
X1458015Y445673D01*
X1457667Y444739D01*
X1457252Y443831D01*
X1456774Y442955D01*
X1456234Y442116D01*
X1455636Y441317D01*
X1454983Y440563D01*
X1454277Y439857D01*
X1453523Y439203D01*
X1452724Y438605D01*
X1451885Y438066D01*
X1451009Y437588D01*
X1450101Y437173D01*
X1449166Y436824D01*
X1448209Y436543D01*
X1447234Y436331D01*
X1446246Y436189D01*
X1445251Y436118D01*
X1444253Y436118D01*
X1443258Y436189D01*
X1442270Y436331D01*
X1441295Y436543D01*
X1440337Y436824D01*
X1439402Y437173D01*
X1438495Y437588D01*
X1437619Y438066D01*
X1436779Y438605D01*
X1435981Y439203D01*
X1435226Y439857D01*
X1434521Y440563D01*
X1433867Y441317D01*
X1433269Y442116D01*
X1432730Y442955D01*
X1432252Y443831D01*
X1431837Y444739D01*
X1431488Y445673D01*
X1431207Y446631D01*
X1430995Y447606D01*
X1430853Y448594D01*
X1430782Y449589D01*
X1430782Y450587D01*
X1430853Y451582D01*
X1430995Y452570D01*
X1431207Y453545D01*
X1431488Y454503D01*
X1431837Y455438D01*
X1432252Y456345D01*
X1432730Y457221D01*
X1433269Y458061D01*
X1433867Y458859D01*
X1434521Y459613D01*
X1435226Y460319D01*
X1435981Y460973D01*
X1436779Y461571D01*
X1437619Y462110D01*
X1438495Y462588D01*
X1439402Y463003D01*
X1440337Y463352D01*
X1441295Y463633D01*
X1442270Y463845D01*
X1443258Y463987D01*
X1444253Y464058D01*
X1445251Y464058D01*
X1446246Y463987D01*
X1447234Y463845D01*
X1448209Y463633D01*
X1449166Y463352D01*
X1450101Y463003D01*
X1451009Y462588D01*
X1451885Y462110D01*
X1452724Y461571D01*
X1453523Y460973D01*
X1454277Y460319D01*
X1454983Y459613D01*
X1455636Y458859D01*
X1456234Y458061D01*
X1456774Y457221D01*
X1457252Y456345D01*
X1457667Y455438D01*
X1458015Y454503D01*
X1458297Y453545D01*
X1458509Y452570D01*
X1458651Y451582D01*
X1458722Y450587D01*
X1458722Y449589D01*
X1458722Y-450587D02*
X1458651Y-451582D01*
X1458509Y-452570D01*
X1458297Y-453545D01*
X1458015Y-454503D01*
X1457667Y-455438D01*
X1457252Y-456345D01*
X1456774Y-457221D01*
X1456234Y-458061D01*
X1455636Y-458859D01*
X1454983Y-459613D01*
X1454277Y-460319D01*
X1453523Y-460973D01*
X1452724Y-461571D01*
X1451885Y-462110D01*
X1451009Y-462588D01*
X1450101Y-463003D01*
X1449166Y-463352D01*
X1448209Y-463633D01*
X1447234Y-463845D01*
X1446246Y-463987D01*
X1445251Y-464058D01*
X1444253Y-464058D01*
X1443258Y-463987D01*
X1442270Y-463845D01*
X1441295Y-463633D01*
X1440337Y-463352D01*
X1439402Y-463003D01*
X1438495Y-462588D01*
X1437619Y-462110D01*
X1436779Y-461571D01*
X1435981Y-460973D01*
X1435226Y-460319D01*
X1434521Y-459613D01*
X1433867Y-458859D01*
X1433269Y-458061D01*
X1432730Y-457221D01*
X1432252Y-456345D01*
X1431837Y-455438D01*
X1431488Y-454503D01*
X1431207Y-453545D01*
X1430995Y-452570D01*
X1430853Y-451582D01*
X1430782Y-450587D01*
X1430782Y-449589D01*
X1430853Y-448594D01*
X1430995Y-447606D01*
X1431207Y-446631D01*
X1431488Y-445673D01*
X1431837Y-444739D01*
X1432252Y-443831D01*
X1432730Y-442955D01*
X1433269Y-442116D01*
X1433867Y-441317D01*
X1434521Y-440563D01*
X1435226Y-439857D01*
X1435981Y-439203D01*
X1436779Y-438605D01*
X1437619Y-438066D01*
X1438495Y-437588D01*
X1439402Y-437173D01*
X1440337Y-436824D01*
X1441295Y-436543D01*
X1442270Y-436331D01*
X1443258Y-436189D01*
X1444253Y-436118D01*
X1445251Y-436118D01*
X1446246Y-436189D01*
X1447234Y-436331D01*
X1448209Y-436543D01*
X1449166Y-436824D01*
X1450101Y-437173D01*
X1451009Y-437588D01*
X1451885Y-438066D01*
X1452724Y-438605D01*
X1453523Y-439203D01*
X1454277Y-439857D01*
X1454983Y-440563D01*
X1455636Y-441317D01*
X1456234Y-442116D01*
X1456774Y-442955D01*
X1457252Y-443831D01*
X1457667Y-444739D01*
X1458015Y-445673D01*
X1458297Y-446631D01*
X1458509Y-447606D01*
X1458651Y-448594D01*
X1458722Y-449589D01*
X1458722Y-450587D01*
M02*
