M48
;GenerationSoftware,Autodesk,EAGLE,9.6.2*%
;CreationDate,2020-06-19T16:31:50Z*%
FMAT,2
ICI,OFF
METRIC,TZ,000.000
T4C0.254
T3C0.813
T2C1.016
T1C2.794
%
G90
M71
T1
X2540Y12694
X2540Y101606
T2
X10160Y91440
X10160Y88900
X10160Y86360
X10160Y83820
X10160Y81280
X10160Y78740
X10160Y76200
X10160Y73660
X10160Y71120
X10160Y68580
X10160Y66040
X10160Y63500
X10160Y60960
X10160Y58420
X7620Y96520
X7620Y93980
X7620Y91440
X7620Y88900
X7620Y86360
X7620Y83820
X7620Y81280
X7620Y78740
X7620Y76200
X7620Y73660
X7620Y71120
X7620Y68580
X7620Y66040
X7620Y63500
X7620Y60960
X7620Y58420
X5080Y96520
X5080Y93980
X5080Y91440
X5080Y88900
X5080Y86360
X5080Y83820
X5080Y81280
X5080Y78740
X5080Y76200
X5080Y73660
X5080Y71120
X10160Y93980
X10160Y96520
X5080Y17780
X5080Y20320
X5080Y22860
X5080Y25400
X5080Y27940
X5080Y30480
X5080Y33020
X5080Y35560
X5080Y38100
X5080Y40640
X5080Y43180
X5080Y45720
X5080Y48260
X5080Y50800
X5080Y53340
X5080Y55880
X7620Y17780
X7620Y20320
X7620Y22860
X7620Y25400
X7620Y27940
X7620Y30480
X7620Y33020
X7620Y35560
X7620Y38100
X7620Y40640
X7620Y43180
X7620Y45720
X7620Y48260
X7620Y50800
X7620Y53340
X7620Y55880
X10160Y17780
X10160Y20320
X10160Y22860
X10160Y25400
X10160Y27940
X10160Y30480
X10160Y33020
X10160Y35560
X10160Y38100
X10160Y40640
X10160Y43180
X10160Y45720
X10160Y48260
X10160Y50800
X10160Y53340
X10160Y55880
X5080Y58420
X5080Y60960
X5080Y63500
X5080Y66040
X5080Y68580
T3
X25400Y59690
X30480Y88900
X27940Y59690
X30480Y59690
X33020Y59690
X35560Y59690
X38100Y59690
X35560Y52070
X38100Y52070
X33020Y52070
X30480Y52070
X40640Y59690
X40640Y52070
X27940Y52070
X25400Y52070
X22860Y74930
X25400Y74930
X27940Y74930
X30480Y74930
X33020Y74930
X35560Y74930
X38100Y74930
X40640Y74930
X33020Y67310
X35560Y67310
X30480Y67310
X27940Y67310
X40640Y67310
X38100Y67310
X25400Y67310
X22860Y67310
X25400Y104140
X27940Y104140
X30480Y104140
X33020Y104140
X35560Y104140
X38100Y104140
X35560Y96520
X38100Y96520
X33020Y96520
X30480Y96520
X40640Y104140
X115570Y20320
X175260Y3810
X172720Y3810
X165100Y3810
X154940Y3810
X92710Y90170
X95250Y90170
X97790Y90170
X100330Y90170
X102870Y90170
X105410Y90170
X107950Y90170
X110490Y90170
X113030Y90170
X115570Y90170
X118110Y90170
X120650Y90170
X123190Y90170
X125730Y90170
X125730Y105410
X123190Y105410
X120650Y105410
X118110Y105410
X115570Y105410
X113030Y105410
X110490Y105410
X107950Y105410
X105410Y105410
X102870Y105410
X100330Y105410
X97790Y105410
X95250Y105410
X92710Y105410
X92710Y67310
X95250Y67310
X97790Y67310
X100330Y67310
X102870Y67310
X105410Y67310
X107950Y67310
X110490Y67310
X113030Y67310
X115570Y67310
X118110Y67310
X120650Y67310
X123190Y67310
X125730Y67310
X125730Y82550
X123190Y82550
X120650Y82550
X118110Y82550
X115570Y82550
X113030Y82550
X110490Y82550
X107950Y82550
X105410Y82550
X102870Y82550
X100330Y82550
X97790Y82550
X95250Y82550
X92710Y82550
X97790Y20320
X100330Y20320
X113030Y20320
X40640Y96520
X102870Y20320
X105410Y20320
X110490Y20320
X107950Y20320
X118110Y20320
X120650Y20320
X123190Y20320
X125730Y20320
X125730Y35560
X123190Y35560
X120650Y35560
X118110Y35560
X115570Y35560
X113030Y35560
X110490Y35560
X107950Y35560
X105410Y35560
X102870Y35560
X100330Y35560
X97790Y35560
X118110Y7620
X115570Y7620
X113030Y7620
X110490Y7620
X107950Y7620
X105410Y7620
X102870Y7620
X100330Y7620
X97790Y7620
X97790Y53340
X100330Y53340
X102870Y53340
X105410Y53340
X107950Y53340
X110490Y53340
X113030Y53340
X115570Y53340
X118110Y53340
X25400Y81280
X27940Y81280
X40640Y81280
X40640Y88900
X30480Y81280
X33020Y81280
X38100Y81280
X35560Y81280
X38100Y88900
X35560Y88900
X33020Y88900
X27940Y96520
X27940Y88900
X25400Y88900
X57150Y97790
X59690Y97790
X72390Y97790
X74930Y97790
X62230Y97790
X64770Y97790
X69850Y97790
X67310Y97790
X74930Y105410
X72390Y105410
X69850Y105410
X67310Y105410
X64770Y105410
X62230Y105410
X59690Y105410
X57150Y105410
X52070Y34290
X54610Y34290
X67310Y34290
X69850Y34290
X57150Y34290
X59690Y34290
X64770Y34290
X62230Y34290
X72390Y34290
X74930Y34290
X74930Y41910
X72390Y41910
X69850Y41910
X67310Y41910
X64770Y41910
X62230Y41910
X59690Y41910
X57150Y41910
X54610Y41910
X52070Y41910
X52070Y17780
X54610Y17780
X67310Y17780
X69850Y17780
X57150Y17780
X59690Y17780
X64770Y17780
X62230Y17780
X72390Y17780
X74930Y17780
X74930Y25400
X72390Y25400
X69850Y25400
X67310Y25400
X64770Y25400
X62230Y25400
X59690Y25400
X57150Y25400
X54610Y25400
X52070Y25400
X59690Y83820
X62230Y83820
X74930Y83820
X74930Y91440
X64770Y83820
X67310Y83820
X72390Y83820
X69850Y83820
X72390Y91440
X69850Y91440
X67310Y91440
X64770Y91440
X62230Y91440
X59690Y91440
X52070Y59690
X54610Y59690
X67310Y59690
X69850Y59690
X57150Y59690
X59690Y59690
X64770Y59690
X62230Y59690
X72390Y59690
X74930Y59690
X74930Y67310
X72390Y67310
X69850Y67310
X67310Y67310
X64770Y67310
X62230Y67310
X59690Y67310
X57150Y67310
X54610Y67310
X52070Y67310
X54610Y50800
X57150Y50800
X59690Y50800
X62230Y50800
X64770Y50800
X67310Y50800
X69850Y50800
X72390Y50800
X74930Y50800
X54610Y77470
X57150Y77470
X59690Y77470
X62230Y77470
X64770Y77470
X67310Y77470
X69850Y77470
X72390Y77470
X74930Y77470
X25400Y96520
T4
X66040Y62865
X42545Y71120
X52705Y62865
X12700Y56515
X60325Y70485
X13335Y62865
X57785Y69850
X13970Y56515
X15875Y31750
X55880Y24130
X12065Y36830
X11430Y36195
X71120Y31115
X12700Y17145
X13335Y28575
X58420Y57785
X43180Y88900
X58420Y30480
X66040Y29210
X76835Y36195
X106045Y33020
X66040Y16510
X63500Y21590
X86360Y31750
X99695Y25400
X102235Y26035
X109855Y26670
X105410Y80645
X104775Y27305
X107315Y37465
X109220Y80010
X95885Y50165
X57785Y95250
X114935Y65405
X71120Y55245
X123825Y63500
X121285Y64135
X119380Y64770
X34925Y83820
X95250Y49530
X66040Y97155
X14605Y64770
X99695Y17145
M30