G04 EAGLE Gerber RS-274X export*
G75*
%MOMM*%
%FSLAX34Y34*%
%LPD*%
%INSoldermask Bottom*%
%IPPOS*%
%AMOC8*
5,1,8,0,0,1.08239X$1,22.5*%
G01*
%ADD10P,1.787026X8X202.500000*%
%ADD11C,2.921000*%
%ADD12P,1.457113X8X202.500000*%
%ADD13C,1.346200*%
%ADD14P,1.951982X8X112.500000*%
%ADD15C,1.651000*%
%ADD16C,0.584200*%


D10*
X50800Y177800D03*
X50800Y203200D03*
X50800Y228600D03*
X50800Y254000D03*
X50800Y279400D03*
X50800Y304800D03*
X50800Y330200D03*
X50800Y355600D03*
X50800Y381000D03*
X50800Y406400D03*
X50800Y431800D03*
X50800Y457200D03*
X50800Y482600D03*
X50800Y508000D03*
X50800Y533400D03*
X50800Y558800D03*
X76200Y177800D03*
X76200Y203200D03*
X76200Y228600D03*
X76200Y254000D03*
X76200Y279400D03*
X76200Y304800D03*
X76200Y330200D03*
X76200Y355600D03*
X76200Y381000D03*
X76200Y406400D03*
X76200Y431800D03*
X76200Y457200D03*
X76200Y482600D03*
X76200Y508000D03*
X76200Y533400D03*
X76200Y558800D03*
X101600Y177800D03*
X101600Y203200D03*
X101600Y228600D03*
X101600Y254000D03*
X101600Y279400D03*
X101600Y304800D03*
X101600Y330200D03*
X101600Y355600D03*
X101600Y381000D03*
X101600Y406400D03*
X101600Y431800D03*
X101600Y457200D03*
X101600Y482600D03*
X101600Y508000D03*
X101600Y533400D03*
X101600Y558800D03*
X50800Y584200D03*
X50800Y609600D03*
X50800Y635000D03*
X50800Y660400D03*
X50800Y685800D03*
X50800Y711200D03*
X50800Y736600D03*
X50800Y762000D03*
X50800Y787400D03*
X50800Y812800D03*
X50800Y838200D03*
X50800Y863600D03*
X50800Y889000D03*
X50800Y914400D03*
X50800Y939800D03*
X50800Y965200D03*
X76200Y584200D03*
X76200Y609600D03*
X76200Y635000D03*
X76200Y660400D03*
X76200Y685800D03*
X76200Y711200D03*
X76200Y736600D03*
X76200Y762000D03*
X76200Y787400D03*
X76200Y812800D03*
X76200Y838200D03*
X76200Y863600D03*
X76200Y889000D03*
X76200Y914400D03*
X76200Y939800D03*
X76200Y965200D03*
X101600Y584200D03*
X101600Y609600D03*
X101600Y635000D03*
X101600Y660400D03*
X101600Y685800D03*
X101600Y711200D03*
X101600Y736600D03*
X101600Y762000D03*
X101600Y787400D03*
X101600Y812800D03*
X101600Y838200D03*
X101600Y863600D03*
X101600Y889000D03*
X101600Y914400D03*
X101600Y939800D03*
X101600Y965200D03*
D11*
X25400Y1016064D03*
X25400Y126936D03*
D12*
X1752600Y38100D03*
X1727200Y38100D03*
X1651000Y38100D03*
X1549400Y38100D03*
D13*
X927100Y895604D02*
X927100Y907796D01*
X952500Y907796D02*
X952500Y895604D01*
X977900Y895604D02*
X977900Y907796D01*
X1003300Y907796D02*
X1003300Y895604D01*
X1028700Y895604D02*
X1028700Y907796D01*
X1054100Y907796D02*
X1054100Y895604D01*
X1079500Y895604D02*
X1079500Y907796D01*
X1104900Y907796D02*
X1104900Y895604D01*
X1130300Y895604D02*
X1130300Y907796D01*
X1155700Y907796D02*
X1155700Y895604D01*
X1181100Y895604D02*
X1181100Y907796D01*
X1206500Y907796D02*
X1206500Y895604D01*
X1231900Y895604D02*
X1231900Y907796D01*
X1257300Y907796D02*
X1257300Y895604D01*
X1257300Y1048004D02*
X1257300Y1060196D01*
X1231900Y1060196D02*
X1231900Y1048004D01*
X1206500Y1048004D02*
X1206500Y1060196D01*
X1181100Y1060196D02*
X1181100Y1048004D01*
X1155700Y1048004D02*
X1155700Y1060196D01*
X1130300Y1060196D02*
X1130300Y1048004D01*
X1104900Y1048004D02*
X1104900Y1060196D01*
X1079500Y1060196D02*
X1079500Y1048004D01*
X1054100Y1048004D02*
X1054100Y1060196D01*
X1028700Y1060196D02*
X1028700Y1048004D01*
X1003300Y1048004D02*
X1003300Y1060196D01*
X977900Y1060196D02*
X977900Y1048004D01*
X952500Y1048004D02*
X952500Y1060196D01*
X927100Y1060196D02*
X927100Y1048004D01*
X927100Y679196D02*
X927100Y667004D01*
X952500Y667004D02*
X952500Y679196D01*
X977900Y679196D02*
X977900Y667004D01*
X1003300Y667004D02*
X1003300Y679196D01*
X1028700Y679196D02*
X1028700Y667004D01*
X1054100Y667004D02*
X1054100Y679196D01*
X1079500Y679196D02*
X1079500Y667004D01*
X1104900Y667004D02*
X1104900Y679196D01*
X1130300Y679196D02*
X1130300Y667004D01*
X1155700Y667004D02*
X1155700Y679196D01*
X1181100Y679196D02*
X1181100Y667004D01*
X1206500Y667004D02*
X1206500Y679196D01*
X1231900Y679196D02*
X1231900Y667004D01*
X1257300Y667004D02*
X1257300Y679196D01*
X1257300Y819404D02*
X1257300Y831596D01*
X1231900Y831596D02*
X1231900Y819404D01*
X1206500Y819404D02*
X1206500Y831596D01*
X1181100Y831596D02*
X1181100Y819404D01*
X1155700Y819404D02*
X1155700Y831596D01*
X1130300Y831596D02*
X1130300Y819404D01*
X1104900Y819404D02*
X1104900Y831596D01*
X1079500Y831596D02*
X1079500Y819404D01*
X1054100Y819404D02*
X1054100Y831596D01*
X1028700Y831596D02*
X1028700Y819404D01*
X1003300Y819404D02*
X1003300Y831596D01*
X977900Y831596D02*
X977900Y819404D01*
X952500Y819404D02*
X952500Y831596D01*
X927100Y831596D02*
X927100Y819404D01*
X977900Y171196D02*
X977900Y159004D01*
X1003300Y159004D02*
X1003300Y171196D01*
X1028700Y171196D02*
X1028700Y159004D01*
X1054100Y159004D02*
X1054100Y171196D01*
X1079500Y171196D02*
X1079500Y159004D01*
X1104900Y159004D02*
X1104900Y171196D01*
X1130300Y171196D02*
X1130300Y159004D01*
X1155700Y159004D02*
X1155700Y171196D01*
X1181100Y171196D02*
X1181100Y159004D01*
X977900Y463804D02*
X977900Y475996D01*
X1003300Y475996D02*
X1003300Y463804D01*
X1028700Y463804D02*
X1028700Y475996D01*
X1054100Y475996D02*
X1054100Y463804D01*
X1079500Y463804D02*
X1079500Y475996D01*
X1104900Y475996D02*
X1104900Y463804D01*
X1130300Y463804D02*
X1130300Y475996D01*
X1155700Y475996D02*
X1155700Y463804D01*
X1181100Y463804D02*
X1181100Y475996D01*
X254000Y832104D02*
X254000Y844296D01*
X279400Y844296D02*
X279400Y832104D01*
X406400Y832104D02*
X406400Y844296D01*
X406400Y908304D02*
X406400Y920496D01*
X304800Y844296D02*
X304800Y832104D01*
X330200Y832104D02*
X330200Y844296D01*
X381000Y844296D02*
X381000Y832104D01*
X355600Y832104D02*
X355600Y844296D01*
X381000Y908304D02*
X381000Y920496D01*
X355600Y920496D02*
X355600Y908304D01*
X330200Y908304D02*
X330200Y920496D01*
X304800Y920496D02*
X304800Y908304D01*
X279400Y908304D02*
X279400Y920496D01*
X254000Y920496D02*
X254000Y908304D01*
X571500Y971804D02*
X571500Y983996D01*
X596900Y983996D02*
X596900Y971804D01*
X723900Y971804D02*
X723900Y983996D01*
X749300Y983996D02*
X749300Y971804D01*
X622300Y971804D02*
X622300Y983996D01*
X647700Y983996D02*
X647700Y971804D01*
X698500Y971804D02*
X698500Y983996D01*
X673100Y983996D02*
X673100Y971804D01*
X749300Y1048004D02*
X749300Y1060196D01*
X723900Y1060196D02*
X723900Y1048004D01*
X698500Y1048004D02*
X698500Y1060196D01*
X673100Y1060196D02*
X673100Y1048004D01*
X647700Y1048004D02*
X647700Y1060196D01*
X622300Y1060196D02*
X622300Y1048004D01*
X596900Y1048004D02*
X596900Y1060196D01*
X571500Y1060196D02*
X571500Y1048004D01*
X520700Y348996D02*
X520700Y336804D01*
X546100Y336804D02*
X546100Y348996D01*
X673100Y348996D02*
X673100Y336804D01*
X698500Y336804D02*
X698500Y348996D01*
X571500Y348996D02*
X571500Y336804D01*
X596900Y336804D02*
X596900Y348996D01*
X647700Y348996D02*
X647700Y336804D01*
X622300Y336804D02*
X622300Y348996D01*
X723900Y348996D02*
X723900Y336804D01*
X749300Y336804D02*
X749300Y348996D01*
X749300Y413004D02*
X749300Y425196D01*
X723900Y425196D02*
X723900Y413004D01*
X698500Y413004D02*
X698500Y425196D01*
X673100Y425196D02*
X673100Y413004D01*
X647700Y413004D02*
X647700Y425196D01*
X622300Y425196D02*
X622300Y413004D01*
X596900Y413004D02*
X596900Y425196D01*
X571500Y425196D02*
X571500Y413004D01*
X546100Y413004D02*
X546100Y425196D01*
X520700Y425196D02*
X520700Y413004D01*
X520700Y183896D02*
X520700Y171704D01*
X546100Y171704D02*
X546100Y183896D01*
X673100Y183896D02*
X673100Y171704D01*
X698500Y171704D02*
X698500Y183896D01*
X571500Y183896D02*
X571500Y171704D01*
X596900Y171704D02*
X596900Y183896D01*
X647700Y183896D02*
X647700Y171704D01*
X622300Y171704D02*
X622300Y183896D01*
X723900Y183896D02*
X723900Y171704D01*
X749300Y171704D02*
X749300Y183896D01*
X749300Y247904D02*
X749300Y260096D01*
X723900Y260096D02*
X723900Y247904D01*
X698500Y247904D02*
X698500Y260096D01*
X673100Y260096D02*
X673100Y247904D01*
X647700Y247904D02*
X647700Y260096D01*
X622300Y260096D02*
X622300Y247904D01*
X596900Y247904D02*
X596900Y260096D01*
X571500Y260096D02*
X571500Y247904D01*
X546100Y247904D02*
X546100Y260096D01*
X520700Y260096D02*
X520700Y247904D01*
X596900Y832104D02*
X596900Y844296D01*
X622300Y844296D02*
X622300Y832104D01*
X749300Y832104D02*
X749300Y844296D01*
X749300Y908304D02*
X749300Y920496D01*
X647700Y844296D02*
X647700Y832104D01*
X673100Y832104D02*
X673100Y844296D01*
X723900Y844296D02*
X723900Y832104D01*
X698500Y832104D02*
X698500Y844296D01*
X723900Y908304D02*
X723900Y920496D01*
X698500Y920496D02*
X698500Y908304D01*
X673100Y908304D02*
X673100Y920496D01*
X647700Y920496D02*
X647700Y908304D01*
X622300Y908304D02*
X622300Y920496D01*
X596900Y920496D02*
X596900Y908304D01*
X520700Y602996D02*
X520700Y590804D01*
X546100Y590804D02*
X546100Y602996D01*
X673100Y602996D02*
X673100Y590804D01*
X698500Y590804D02*
X698500Y602996D01*
X571500Y602996D02*
X571500Y590804D01*
X596900Y590804D02*
X596900Y602996D01*
X647700Y602996D02*
X647700Y590804D01*
X622300Y590804D02*
X622300Y602996D01*
X723900Y602996D02*
X723900Y590804D01*
X749300Y590804D02*
X749300Y602996D01*
X749300Y667004D02*
X749300Y679196D01*
X723900Y679196D02*
X723900Y667004D01*
X698500Y667004D02*
X698500Y679196D01*
X673100Y679196D02*
X673100Y667004D01*
X647700Y667004D02*
X647700Y679196D01*
X622300Y679196D02*
X622300Y667004D01*
X596900Y667004D02*
X596900Y679196D01*
X571500Y679196D02*
X571500Y667004D01*
X546100Y667004D02*
X546100Y679196D01*
X520700Y679196D02*
X520700Y667004D01*
X546100Y514096D02*
X546100Y501904D01*
X571500Y501904D02*
X571500Y514096D01*
X596900Y514096D02*
X596900Y501904D01*
X622300Y501904D02*
X622300Y514096D01*
X647700Y514096D02*
X647700Y501904D01*
X673100Y501904D02*
X673100Y514096D01*
X698500Y514096D02*
X698500Y501904D01*
X723900Y501904D02*
X723900Y514096D01*
X749300Y514096D02*
X749300Y501904D01*
X546100Y768604D02*
X546100Y780796D01*
X571500Y780796D02*
X571500Y768604D01*
X596900Y768604D02*
X596900Y780796D01*
X622300Y780796D02*
X622300Y768604D01*
X647700Y768604D02*
X647700Y780796D01*
X673100Y780796D02*
X673100Y768604D01*
X698500Y768604D02*
X698500Y780796D01*
X723900Y780796D02*
X723900Y768604D01*
X749300Y768604D02*
X749300Y780796D01*
X228600Y679196D02*
X228600Y667004D01*
X254000Y667004D02*
X254000Y679196D01*
X381000Y679196D02*
X381000Y667004D01*
X406400Y667004D02*
X406400Y679196D01*
X279400Y679196D02*
X279400Y667004D01*
X304800Y667004D02*
X304800Y679196D01*
X355600Y679196D02*
X355600Y667004D01*
X330200Y667004D02*
X330200Y679196D01*
X406400Y743204D02*
X406400Y755396D01*
X381000Y755396D02*
X381000Y743204D01*
X355600Y743204D02*
X355600Y755396D01*
X330200Y755396D02*
X330200Y743204D01*
X304800Y743204D02*
X304800Y755396D01*
X279400Y755396D02*
X279400Y743204D01*
X254000Y743204D02*
X254000Y755396D01*
X228600Y755396D02*
X228600Y743204D01*
X254000Y526796D02*
X254000Y514604D01*
X279400Y514604D02*
X279400Y526796D01*
X406400Y526796D02*
X406400Y514604D01*
X406400Y590804D02*
X406400Y602996D01*
X304800Y526796D02*
X304800Y514604D01*
X330200Y514604D02*
X330200Y526796D01*
X381000Y526796D02*
X381000Y514604D01*
X355600Y514604D02*
X355600Y526796D01*
X381000Y590804D02*
X381000Y602996D01*
X355600Y602996D02*
X355600Y590804D01*
X330200Y590804D02*
X330200Y602996D01*
X304800Y602996D02*
X304800Y590804D01*
X279400Y590804D02*
X279400Y602996D01*
X254000Y602996D02*
X254000Y590804D01*
X254000Y971804D02*
X254000Y983996D01*
X279400Y983996D02*
X279400Y971804D01*
X406400Y971804D02*
X406400Y983996D01*
X406400Y1048004D02*
X406400Y1060196D01*
X304800Y983996D02*
X304800Y971804D01*
X330200Y971804D02*
X330200Y983996D01*
X381000Y983996D02*
X381000Y971804D01*
X355600Y971804D02*
X355600Y983996D01*
X381000Y1048004D02*
X381000Y1060196D01*
X355600Y1060196D02*
X355600Y1048004D01*
X330200Y1048004D02*
X330200Y1060196D01*
X304800Y1060196D02*
X304800Y1048004D01*
X279400Y1048004D02*
X279400Y1060196D01*
X254000Y1060196D02*
X254000Y1048004D01*
X927100Y247396D02*
X927100Y235204D01*
X952500Y235204D02*
X952500Y247396D01*
X977900Y247396D02*
X977900Y235204D01*
X1003300Y235204D02*
X1003300Y247396D01*
X1028700Y247396D02*
X1028700Y235204D01*
X1054100Y235204D02*
X1054100Y247396D01*
X1079500Y247396D02*
X1079500Y235204D01*
X1104900Y235204D02*
X1104900Y247396D01*
X1130300Y247396D02*
X1130300Y235204D01*
X1155700Y235204D02*
X1155700Y247396D01*
X1181100Y247396D02*
X1181100Y235204D01*
X1206500Y235204D02*
X1206500Y247396D01*
X1231900Y247396D02*
X1231900Y235204D01*
X1257300Y235204D02*
X1257300Y247396D01*
X1257300Y387604D02*
X1257300Y399796D01*
X1231900Y399796D02*
X1231900Y387604D01*
X1206500Y387604D02*
X1206500Y399796D01*
X1181100Y399796D02*
X1181100Y387604D01*
X1155700Y387604D02*
X1155700Y399796D01*
X1130300Y399796D02*
X1130300Y387604D01*
X1104900Y387604D02*
X1104900Y399796D01*
X1079500Y399796D02*
X1079500Y387604D01*
X1054100Y387604D02*
X1054100Y399796D01*
X1028700Y399796D02*
X1028700Y387604D01*
X1003300Y387604D02*
X1003300Y399796D01*
X977900Y399796D02*
X977900Y387604D01*
X952500Y387604D02*
X952500Y399796D01*
X927100Y399796D02*
X927100Y387604D01*
D14*
X876300Y965200D03*
X876300Y990600D03*
X876300Y736600D03*
X876300Y762000D03*
X876300Y304800D03*
X876300Y330200D03*
X469900Y203200D03*
X469900Y228600D03*
X469900Y368300D03*
X469900Y393700D03*
X469900Y622300D03*
X469900Y647700D03*
X546100Y863600D03*
X546100Y889000D03*
X520700Y1003300D03*
X520700Y1028700D03*
X203200Y1003300D03*
X203200Y1028700D03*
X203200Y863600D03*
X203200Y889000D03*
X177800Y685800D03*
X177800Y711200D03*
X190500Y546100D03*
X190500Y571500D03*
X203200Y368300D03*
X203200Y393700D03*
D13*
X254000Y348996D02*
X254000Y336804D01*
X279400Y336804D02*
X279400Y348996D01*
X406400Y348996D02*
X406400Y336804D01*
X406400Y413004D02*
X406400Y425196D01*
X304800Y348996D02*
X304800Y336804D01*
X330200Y336804D02*
X330200Y348996D01*
X381000Y348996D02*
X381000Y336804D01*
X355600Y336804D02*
X355600Y348996D01*
X381000Y413004D02*
X381000Y425196D01*
X355600Y425196D02*
X355600Y413004D01*
X330200Y413004D02*
X330200Y425196D01*
X304800Y425196D02*
X304800Y413004D01*
X279400Y413004D02*
X279400Y425196D01*
X254000Y425196D02*
X254000Y413004D01*
X1708404Y787400D02*
X1720596Y787400D01*
X1720596Y812800D02*
X1708404Y812800D01*
X1708404Y838200D02*
X1720596Y838200D01*
X1720596Y863600D02*
X1708404Y863600D01*
X1708404Y889000D02*
X1720596Y889000D01*
X1720596Y914400D02*
X1708404Y914400D01*
X1708404Y939800D02*
X1720596Y939800D01*
X1720596Y965200D02*
X1708404Y965200D01*
X1708404Y990600D02*
X1720596Y990600D01*
X1720596Y482600D02*
X1708404Y482600D01*
X1708404Y508000D02*
X1720596Y508000D01*
X1720596Y533400D02*
X1708404Y533400D01*
X1708404Y558800D02*
X1720596Y558800D01*
X1720596Y584200D02*
X1708404Y584200D01*
X1708404Y609600D02*
X1720596Y609600D01*
X1720596Y635000D02*
X1708404Y635000D01*
X1708404Y660400D02*
X1720596Y660400D01*
X1720596Y685800D02*
X1708404Y685800D01*
D14*
X1358900Y952500D03*
X1358900Y977900D03*
X1358900Y812800D03*
X1358900Y838200D03*
X1358900Y660400D03*
X1358900Y685800D03*
X1358900Y508000D03*
X1358900Y533400D03*
D15*
X50800Y1084580D02*
X50800Y1099820D01*
X76200Y1099820D02*
X76200Y1084580D01*
X101600Y1084580D02*
X101600Y1099820D01*
D13*
X254000Y183896D02*
X254000Y171704D01*
X279400Y171704D02*
X279400Y183896D01*
X406400Y183896D02*
X406400Y171704D01*
X406400Y247904D02*
X406400Y260096D01*
X304800Y183896D02*
X304800Y171704D01*
X330200Y171704D02*
X330200Y183896D01*
X381000Y183896D02*
X381000Y171704D01*
X355600Y171704D02*
X355600Y183896D01*
X381000Y247904D02*
X381000Y260096D01*
X355600Y260096D02*
X355600Y247904D01*
X330200Y247904D02*
X330200Y260096D01*
X304800Y260096D02*
X304800Y247904D01*
X279400Y247904D02*
X279400Y260096D01*
X254000Y260096D02*
X254000Y247904D01*
D14*
X203200Y203200D03*
X203200Y228600D03*
D13*
X1409700Y921004D02*
X1409700Y933196D01*
X1435100Y933196D02*
X1435100Y921004D01*
X1562100Y921004D02*
X1562100Y933196D01*
X1587500Y933196D02*
X1587500Y921004D01*
X1460500Y921004D02*
X1460500Y933196D01*
X1485900Y933196D02*
X1485900Y921004D01*
X1536700Y921004D02*
X1536700Y933196D01*
X1511300Y933196D02*
X1511300Y921004D01*
X1612900Y921004D02*
X1612900Y933196D01*
X1638300Y933196D02*
X1638300Y921004D01*
X1638300Y997204D02*
X1638300Y1009396D01*
X1612900Y1009396D02*
X1612900Y997204D01*
X1587500Y997204D02*
X1587500Y1009396D01*
X1562100Y1009396D02*
X1562100Y997204D01*
X1536700Y997204D02*
X1536700Y1009396D01*
X1511300Y1009396D02*
X1511300Y997204D01*
X1485900Y997204D02*
X1485900Y1009396D01*
X1460500Y1009396D02*
X1460500Y997204D01*
X1435100Y997204D02*
X1435100Y1009396D01*
X1409700Y1009396D02*
X1409700Y997204D01*
X1409700Y641096D02*
X1409700Y628904D01*
X1435100Y628904D02*
X1435100Y641096D01*
X1562100Y641096D02*
X1562100Y628904D01*
X1587500Y628904D02*
X1587500Y641096D01*
X1460500Y641096D02*
X1460500Y628904D01*
X1485900Y628904D02*
X1485900Y641096D01*
X1536700Y641096D02*
X1536700Y628904D01*
X1511300Y628904D02*
X1511300Y641096D01*
X1612900Y641096D02*
X1612900Y628904D01*
X1638300Y628904D02*
X1638300Y641096D01*
X1638300Y705104D02*
X1638300Y717296D01*
X1612900Y717296D02*
X1612900Y705104D01*
X1587500Y705104D02*
X1587500Y717296D01*
X1562100Y717296D02*
X1562100Y705104D01*
X1536700Y705104D02*
X1536700Y717296D01*
X1511300Y717296D02*
X1511300Y705104D01*
X1485900Y705104D02*
X1485900Y717296D01*
X1460500Y717296D02*
X1460500Y705104D01*
X1435100Y705104D02*
X1435100Y717296D01*
X1409700Y717296D02*
X1409700Y705104D01*
X1409700Y794004D02*
X1409700Y806196D01*
X1435100Y806196D02*
X1435100Y794004D01*
X1562100Y794004D02*
X1562100Y806196D01*
X1587500Y806196D02*
X1587500Y794004D01*
X1460500Y794004D02*
X1460500Y806196D01*
X1485900Y806196D02*
X1485900Y794004D01*
X1536700Y794004D02*
X1536700Y806196D01*
X1511300Y806196D02*
X1511300Y794004D01*
X1612900Y794004D02*
X1612900Y806196D01*
X1638300Y806196D02*
X1638300Y794004D01*
X1638300Y870204D02*
X1638300Y882396D01*
X1612900Y882396D02*
X1612900Y870204D01*
X1587500Y870204D02*
X1587500Y882396D01*
X1562100Y882396D02*
X1562100Y870204D01*
X1536700Y870204D02*
X1536700Y882396D01*
X1511300Y882396D02*
X1511300Y870204D01*
X1485900Y870204D02*
X1485900Y882396D01*
X1460500Y882396D02*
X1460500Y870204D01*
X1435100Y870204D02*
X1435100Y882396D01*
X1409700Y882396D02*
X1409700Y870204D01*
X1409700Y488696D02*
X1409700Y476504D01*
X1435100Y476504D02*
X1435100Y488696D01*
X1562100Y488696D02*
X1562100Y476504D01*
X1587500Y476504D02*
X1587500Y488696D01*
X1460500Y488696D02*
X1460500Y476504D01*
X1485900Y476504D02*
X1485900Y488696D01*
X1536700Y488696D02*
X1536700Y476504D01*
X1511300Y476504D02*
X1511300Y488696D01*
X1612900Y488696D02*
X1612900Y476504D01*
X1638300Y476504D02*
X1638300Y488696D01*
X1638300Y552704D02*
X1638300Y564896D01*
X1612900Y564896D02*
X1612900Y552704D01*
X1587500Y552704D02*
X1587500Y564896D01*
X1562100Y564896D02*
X1562100Y552704D01*
X1536700Y552704D02*
X1536700Y564896D01*
X1511300Y564896D02*
X1511300Y552704D01*
X1485900Y552704D02*
X1485900Y564896D01*
X1460500Y564896D02*
X1460500Y552704D01*
X1435100Y552704D02*
X1435100Y564896D01*
X1409700Y564896D02*
X1409700Y552704D01*
D16*
X692150Y714375D03*
X1412875Y539750D03*
X212725Y615950D03*
X1597025Y682625D03*
X206375Y593725D03*
X1552575Y619125D03*
X679450Y711200D03*
X69850Y142875D03*
X1520825Y688975D03*
X587375Y317500D03*
X606425Y441325D03*
X1546225Y676275D03*
X644525Y800100D03*
X114300Y793750D03*
X1254125Y774700D03*
X488950Y285750D03*
X114300Y311150D03*
X158750Y304800D03*
X701675Y466725D03*
X650875Y466725D03*
X165100Y476250D03*
X600075Y466725D03*
X120650Y469900D03*
X587375Y441325D03*
X396875Y479425D03*
X215900Y193675D03*
X60325Y190500D03*
X774700Y473075D03*
X631825Y377825D03*
X146050Y434975D03*
X215900Y298450D03*
X581025Y558800D03*
X288925Y568325D03*
X485775Y603250D03*
X352425Y815975D03*
X146050Y876300D03*
X330200Y457200D03*
X568325Y447675D03*
X215900Y403225D03*
X288925Y444500D03*
X787400Y434975D03*
X955675Y323850D03*
X733425Y231775D03*
X1085850Y203200D03*
X739775Y219075D03*
X768350Y352425D03*
X1073150Y196850D03*
X1025525Y358775D03*
X1003300Y365125D03*
X974725Y273050D03*
X1095375Y285750D03*
X1057275Y434975D03*
X1035050Y279400D03*
X1044575Y485775D03*
X307975Y711200D03*
X517525Y723900D03*
X962025Y454025D03*
X561975Y885825D03*
X577850Y692150D03*
X968375Y492125D03*
X968375Y631825D03*
X946150Y498475D03*
X625475Y942975D03*
X323850Y463550D03*
X346075Y955675D03*
X1177925Y638175D03*
X1171575Y650875D03*
X1127125Y781050D03*
X333375Y787400D03*
X781050Y704850D03*
X511175Y733425D03*
X257175Y546100D03*
X288925Y384175D03*
X422275Y860425D03*
X555625Y396875D03*
X314325Y777875D03*
X403225Y793750D03*
X390525Y688975D03*
M02*
