<?xml version="1.0" standalone="no"?>
<!DOCTYPE svg PUBLIC "-//W3C//DTD SVG 1.1//EN" "http://www.w3.org/Graphics/SVG/1.1/DTD/svg11.dtd">
<svg width="56.5125mm" height="178.75000000000003mm"
 viewBox="0 0 56.5125 178.75000000000003"
 xmlns="http://www.w3.org/2000/svg" version="1.1"
 xmlns:xlink="http://www.w3.org/1999/xlink">
<desc>Output from Flights of Ideas SVG Sketchup Plugin</desc>

  <path id="face0-cut"
 style="fill:none;stroke:#0000FF;stroke-width:1;stroke-miterlimit:4;stroke-dasharray:none;stroke-linejoin:round;stroke-linecap:round"
        d="M 32.05100284086075,146.55164301773243 M 31.773434949843672,145.80593869930382 M 31.312322475737172,145.15748349586252 M 30.699089471627214,144.65046855790013 M 29.975526753328435,144.31944611555699 M 29.19094392434897,144.18697480123834 M 28.398809007899345,144.2620823160958 M 27.653104689470744,144.53965020711289 M 27.004649486029436,145.00076268121938 M 26.497634548067047,145.61399568532934 M 26.166612105723914,146.33755840362812 M 26.034140791405274,147.1221412326076 M 26.109248306262742,147.91427614905723 M 26.386816197279817,148.6599804674858 M 26.847928671386317,149.30843567092714 M 27.46116167549627,149.8154506088895 M 28.18472439379505,150.14647305123265 M 28.969307222774514,150.2789443655513 M 29.761442139224144,150.20383685069382 M 30.50714645765274,149.92626895967675 M 31.155601661094053,149.46515648557025 M 31.66261659905644,148.8519234814603 M 31.99363904139957,148.1283607631615 M 32.12611035571821,147.34377793418204 "
  />
  <path id="face1-cut"
 style="fill:none;stroke:#0000FF;stroke-width:1;stroke-miterlimit:4;stroke-dasharray:none;stroke-linejoin:round;stroke-linecap:round"
        d="M 31.632647106403642,137.46877404616623 M 31.976816552865163,136.75137160905783 M 32.12358129609534,135.96933645972547 M 32.06293956138323,135.17596300122193 M 31.799023982734273,134.42531832363267 M 31.349819970692273,133.76855762123634 M 30.74594003633317,133.25043805055293 M 30.028537599224748,132.9062686040914 M 29.246502449892375,132.75950386086123 M 28.453128991388855,132.82014559557334 M 27.702484313799577,133.08406117422228 M 27.04572361140326,133.5332651862643 M 26.527604040719844,134.13714512062342 M 26.183434594258323,134.85454755773182 M 26.036669851028158,135.63658270706418 M 26.097311585740258,136.42995616556772 M 26.36122716438922,137.18060084315698 M 26.810431176431216,137.8373615455533 M 27.414311110790322,138.35548111623672 M 28.13171354789874,138.69965056269822 M 28.913748697231114,138.84641530592842 M 29.70712215573463,138.7857735712163 M 30.457766833323912,138.52185799256733 M 31.114527535720228,138.07265398052536 "
  />
  <path id="face2-cut"
 style="fill:none;stroke:#0000FF;stroke-width:1;stroke-miterlimit:4;stroke-dasharray:none;stroke-linejoin:round;stroke-linecap:round"
        d="M 26.79980644283035,126.39544534651415 M 27.40096426695124,126.91672083523865 M 28.116554159172374,127.26464319841422 M 28.89780985090709,127.41550210195933 M 29.691490057849748,127.35901676090353 M 30.44350678551576,127.0990365578933 M 31.102611336681083,126.65327871412622 M 31.623886825405577,126.05212089000533 M 31.971809188581148,125.3365309977842 M 32.12266809212626,124.55527530604947 M 32.06618275107046,123.76159509910681 M 31.806202548060234,123.00957837144081 M 31.360444704293148,122.35047382027548 M 30.75928688017225,121.82919833155098 M 30.04369698795112,121.48127596837541 M 29.262441296216398,121.3304170648303 M 28.46876108927374,121.3869024058861 M 27.71674436160773,121.64688260889633 M 27.057639810442407,122.09264045266342 M 26.53636432171791,122.69379827678432 M 26.18844195854234,123.40938816900544 M 26.037583054997228,124.19064386074017 M 26.094068396053036,124.98432406768282 M 26.35404859906326,125.73634079534882 "
  />
  <path id="face3-cut"
 style="fill:none;stroke:#0000FF;stroke-width:1;stroke-miterlimit:4;stroke-dasharray:none;stroke-linejoin:round;stroke-linecap:round"
        d="M 31.76734535892937,114.38141494423462 M 32.04808020807846,113.6368971075645 M 32.12655385366217,112.8450885754082 M 31.997418446417818,112.05994979070668 M 31.66947435094274,111.33498666413419 M 31.16507041539032,110.71960423470844 M 30.51858093440155,110.25573979802721 M 29.77406309773142,109.97500494887811 M 28.982254565575115,109.89653130329438 M 28.197115780873602,110.02566671053876 M 27.472152654301112,110.35361080601382 M 26.856770224875348,110.85801474156625 M 26.39290578819412,111.50450422255501 M 26.11217093904503,112.24902205922514 M 26.033697293461316,113.04083059138145 M 26.16283270070568,113.82596937608297 M 26.490776796180754,114.55093250265546 M 26.995180731733175,115.16631493208122 M 27.641670212721944,115.63017936876244 M 28.386188049392075,115.91091421791154 M 29.17799658154838,115.98938786349525 M 29.963135366249887,115.86025245625089 M 30.688098492822373,115.53230836077582 M 31.30348092224814,115.0279044252234 "
  />
  <path id="face4-cut"
 style="fill:none;stroke:#0000FF;stroke-width:1;stroke-miterlimit:4;stroke-dasharray:none;stroke-linejoin:round;stroke-linecap:round"
        d="M 31.719771004296717,103.0369595833948 M 32.02426749209082,102.30184003286732 M 32.12812557356174,101.51295958339483 M 32.024267492090814,100.72407913392234 M 31.719771004296707,99.98895958339483 M 31.23538704261834,99.35769811433823 M 30.60412557356175,98.87331415265986 M 29.86900602303423,98.56881766486575 M 29.08012557356175,98.46495958339483 M 28.291245124089265,98.56881766486575 M 27.556125573561744,98.87331415265986 M 26.924864104505154,99.35769811433822 M 26.44048014282678,99.98895958339483 M 26.135983655032664,100.72407913392234 M 26.032125573561753,101.51295958339483 M 26.135983655032675,102.3018400328673 M 26.440480142826782,103.03695958339483 M 26.92486410450515,103.66822105245143 M 27.556125573561747,104.15260501412979 M 28.291245124089265,104.4571015019239 M 29.080125573561748,104.56095958339482 M 29.869006023034228,104.45710150192392 M 30.60412557356175,104.15260501412979 M 31.235387042618342,103.66822105245143 "
  />
  <path id="face5-cut"
 style="fill:none;stroke:#0000FF;stroke-width:1;stroke-miterlimit:4;stroke-dasharray:none;stroke-linejoin:round;stroke-linecap:round"
        d="M 32.11467370872056,89.79691480472519 M 31.937240151957127,89.02126269354322 M 31.565098958281144,88.31796347086761 M 31.02361093504922,87.73494581646673 M 30.349677596193345,87.31194142000578 M 29.589226385029026,87.07777733205575 M 28.7940807948921,87.04841144823601 M 28.018428683710162,87.22584500499943 M 27.315129461034523,87.59798619867543 M 26.73211180663365,88.13947422190736 M 26.309107410172693,88.81340756076324 M 26.074943322222683,89.57385877192755 M 26.045577438402937,90.36900436206449 M 26.223010995166355,91.14465647324641 M 26.595152188842345,91.84795569592205 M 27.13664021207427,92.43097335032292 M 27.810573550930155,92.85397774678387 M 28.57102476209446,93.0881418347339 M 29.366170352231393,93.11750771855364 M 30.141822463413344,92.94007416179022 M 30.84512168608897,92.56793296811423 M 31.42813934048985,92.02644494488231 M 31.851143736950796,91.35251160602641 M 32.08530782490081,90.5920603948621 "
  />
  <path id="face6-cut"
 style="fill:none;stroke:#0000FF;stroke-width:1;stroke-miterlimit:4;stroke-dasharray:none;stroke-linejoin:round;stroke-linecap:round"
        d="M 28.829149348025265,70.26060915736076 M 29.62390271762145,70.2220611851413 M 30.381598573484183,69.97912939501255 M 31.050601195188044,69.54836918700802 M 31.585319159642992,68.95913615743832 M 31.94931232123464,68.25158556351501 M 32.11777514752768,67.47393580893132 M 32.07922717530822,66.67918243933511 M 31.83629538517948,65.92148658347236 M 31.405535177174944,65.25248396176852 M 30.816302147605246,64.71776599731358 M 30.108751553681934,64.35377283572191 M 29.331101799098242,64.18531000942889 M 28.536348429502052,64.22385798164834 M 27.778652573639313,64.4667897717771 M 27.10964995193546,64.89754997978162 M 26.57493198748051,65.48678300935133 M 26.210938825888856,66.19433360327461 M 26.042475999595805,66.97198335785832 M 26.08102397181527,67.76673672745453 M 26.323955761944028,68.52443258331726 M 26.754715969948546,69.1934352050211 M 27.343948999518254,69.72815316947604 M 28.051499593441562,70.09214633106772 "
  />
  <path id="face7-cut"
 style="fill:none;stroke:#0000FF;stroke-width:1;stroke-miterlimit:4;stroke-dasharray:none;stroke-linejoin:round;stroke-linecap:round"
        d="M 31.719771004296728,80.17695958339482 M 32.02426749209083,79.4418400328673 M 32.128125573561746,78.65295958339482 M 32.02426749209083,77.86407913392233 M 31.719771004296714,77.12895958339482 M 31.23538704261835,76.49769811433822 M 30.604125573561745,76.01331415265985 M 29.86900602303424,75.70881766486575 M 29.08012557356175,75.60495958339482 M 28.29124512408927,75.70881766486575 M 27.55612557356174,76.01331415265985 M 26.92486410450515,76.49769811433822 M 26.44048014282677,77.1289595833948 M 26.13598365503266,77.86407913392233 M 26.032125573561743,78.65295958339482 M 26.13598365503266,79.4418400328673 M 26.44048014282678,80.17695958339482 M 26.924864104505147,80.80822105245142 M 27.556125573561747,81.29260501412979 M 28.291245124089258,81.5971015019239 M 29.080125573561745,81.70095958339482 M 29.869006023034235,81.59710150192389 M 30.604125573561745,81.29260501412979 M 31.235387042618353,80.80822105245142 "
  />
  <path id="face8-cut"
 style="fill:none;stroke:#0000FF;stroke-width:1;stroke-miterlimit:4;stroke-dasharray:none;stroke-linejoin:round;stroke-linecap:round"
        d="M 28.291245124089276,58.737101501923874 M 29.08012557356175,58.84095958339482 M 29.86900602303423,58.73710150192389 M 30.60412557356175,58.43260501412978 M 31.235387042618342,57.9482210524514 M 31.71977100429672,57.31695958339482 M 32.02426749209084,56.58184003286729 M 32.12812557356176,55.792959583394804 M 32.02426749209083,55.00407913392233 M 31.71977100429673,54.26895958339482 M 31.235387042618342,53.63769811433822 M 30.604125573561745,53.153314152659846 M 29.869006023034242,52.848817664865734 M 29.080125573561745,52.74495958339482 M 28.291245124089258,52.84881766486572 M 27.55612557356175,53.153314152659846 M 26.92486410450515,53.63769811433822 M 26.44048014282678,54.26895958339482 M 26.135983655032657,55.00407913392233 M 26.032125573561743,55.792959583394804 M 26.13598365503266,56.58184003286729 M 26.440480142826786,57.31695958339482 M 26.924864104505154,57.9482210524514 M 27.556125573561744,58.43260501412978 "
  />
  <path id="face9-cut"
 style="fill:none;stroke:#0000FF;stroke-width:1;stroke-miterlimit:4;stroke-dasharray:none;stroke-linejoin:round;stroke-linecap:round"
        d="M 29.080125573561745,33.694959583394805 M 28.291245124089265,33.79881766486572 M 27.556125573561758,34.10331415265986 M 26.924864104505147,34.58769811433821 M 26.44048014282678,35.21895958339485 M 26.135983655032682,35.954079133922335 M 26.032125573561753,36.742959583394835 M 26.13598365503266,37.531840032867294 M 26.440480142826793,38.26695958339481 M 26.92486410450516,38.89822105245142 M 27.556125573561747,39.38260501412975 M 28.29124512408926,39.687101501923905 M 29.08012557356174,39.79095958339482 M 29.869006023034235,39.68710150192388 M 30.604125573561756,39.38260501412978 M 31.235387042618356,38.89822105245142 M 31.719771004296717,38.26695958339481 M 32.02426749209083,37.531840032867294 M 32.12812557356176,36.74295958339482 M 32.02426749209083,35.954079133922335 M 31.719771004296707,35.218959583394806 M 31.23538704261835,34.58769811433821 M 30.60412557356174,34.10331415265988 M 29.86900602303422,33.79881766486572 "
  />
  <path id="face10-cut"
 style="fill:none;stroke:#0000FF;stroke-width:1;stroke-miterlimit:4;stroke-dasharray:none;stroke-linejoin:round;stroke-linecap:round"
        d="M 10.00000000000001,10.0 L 10.0,168.75000000000003 L 46.5125,168.75 L 46.5125,10.000000000000028 L 10.00000000000001,10.0 M 31.773434949843672,145.80593869930382 M 32.05100284086075,146.55164301773243 M 32.12611035571821,147.34377793418204 M 31.99363904139957,148.1283607631615 M 31.66261659905644,148.8519234814603 M 31.155601661094053,149.46515648557025 M 30.50714645765274,149.92626895967675 M 29.761442139224144,150.20383685069382 M 28.969307222774514,150.2789443655513 M 28.18472439379505,150.14647305123265 M 27.46116167549627,149.8154506088895 M 26.847928671386317,149.30843567092714 M 26.386816197279817,148.6599804674858 M 26.109248306262742,147.91427614905723 M 26.034140791405274,147.1221412326076 M 26.166612105723914,146.33755840362812 M 26.497634548067047,145.61399568532934 M 27.004649486029436,145.00076268121938 M 27.653104689470744,144.53965020711289 M 28.398809007899345,144.2620823160958 M 29.19094392434897,144.18697480123834 M 29.975526753328435,144.31944611555699 M 30.699089471627214,144.65046855790013 M 31.312322475737172,145.15748349586252 M 31.976816552865163,136.75137160905783 M 31.632647106403642,137.46877404616623 M 31.114527535720228,138.07265398052536 M 30.457766833323912,138.52185799256733 M 29.70712215573463,138.7857735712163 M 28.913748697231114,138.84641530592842 M 28.13171354789874,138.69965056269822 M 27.414311110790322,138.35548111623672 M 26.810431176431216,137.8373615455533 M 26.36122716438922,137.18060084315698 M 26.097311585740258,136.42995616556772 M 26.036669851028158,135.63658270706418 M 26.183434594258323,134.85454755773182 M 26.527604040719844,134.13714512062342 M 27.04572361140326,133.5332651862643 M 27.702484313799577,133.08406117422228 M 28.453128991388855,132.82014559557334 M 29.246502449892375,132.75950386086123 M 30.028537599224748,132.9062686040914 M 30.74594003633317,133.25043805055293 M 31.349819970692273,133.76855762123634 M 31.799023982734273,134.42531832363267 M 32.06293956138323,135.17596300122193 M 32.12358129609534,135.96933645972547 M 27.40096426695124,126.91672083523865 M 26.79980644283035,126.39544534651415 M 26.35404859906326,125.73634079534882 M 26.094068396053036,124.98432406768282 M 26.037583054997228,124.19064386074017 M 26.18844195854234,123.40938816900544 M 26.53636432171791,122.69379827678432 M 27.057639810442407,122.09264045266342 M 27.71674436160773,121.64688260889633 M 28.46876108927374,121.3869024058861 M 29.262441296216398,121.3304170648303 M 30.04369698795112,121.48127596837541 M 30.75928688017225,121.82919833155098 M 31.360444704293148,122.35047382027548 M 31.806202548060234,123.00957837144081 M 32.06618275107046,123.76159509910681 M 32.12266809212626,124.55527530604947 M 31.971809188581148,125.3365309977842 M 31.623886825405577,126.05212089000533 M 31.102611336681083,126.65327871412622 M 30.44350678551576,127.0990365578933 M 29.691490057849748,127.35901676090353 M 28.89780985090709,127.41550210195933 M 28.116554159172374,127.26464319841422 M 32.04808020807846,113.6368971075645 M 31.76734535892937,114.38141494423462 M 31.30348092224814,115.0279044252234 M 30.688098492822373,115.53230836077582 M 29.963135366249887,115.86025245625089 M 29.17799658154838,115.98938786349525 M 28.386188049392075,115.91091421791154 M 27.641670212721944,115.63017936876244 M 26.995180731733175,115.16631493208122 M 26.490776796180754,114.55093250265546 M 26.16283270070568,113.82596937608297 M 26.033697293461316,113.04083059138145 M 26.11217093904503,112.24902205922514 M 26.39290578819412,111.50450422255501 M 26.856770224875348,110.85801474156625 M 27.472152654301112,110.35361080601382 M 28.197115780873602,110.02566671053876 M 28.982254565575115,109.89653130329438 M 29.77406309773142,109.97500494887811 M 30.51858093440155,110.25573979802721 M 31.16507041539032,110.71960423470844 M 31.66947435094274,111.33498666413419 M 31.997418446417818,112.05994979070668 M 32.12655385366217,112.8450885754082 M 32.02426749209082,102.30184003286732 M 31.719771004296717,103.0369595833948 M 31.235387042618342,103.66822105245143 M 30.60412557356175,104.15260501412979 M 29.869006023034228,104.45710150192392 M 29.080125573561748,104.56095958339482 M 28.291245124089265,104.4571015019239 M 27.556125573561747,104.15260501412979 M 26.92486410450515,103.66822105245143 M 26.440480142826782,103.03695958339483 M 26.135983655032675,102.3018400328673 M 26.032125573561753,101.51295958339483 M 26.135983655032664,100.72407913392234 M 26.44048014282678,99.98895958339483 M 26.924864104505154,99.35769811433822 M 27.556125573561744,98.87331415265986 M 28.291245124089265,98.56881766486575 M 29.08012557356175,98.46495958339483 M 29.86900602303423,98.56881766486575 M 30.60412557356175,98.87331415265986 M 31.23538704261834,99.35769811433823 M 31.719771004296707,99.98895958339483 M 32.024267492090814,100.72407913392234 M 32.12812557356174,101.51295958339483 M 31.937240151957127,89.02126269354322 M 32.11467370872056,89.79691480472519 M 32.08530782490081,90.5920603948621 M 31.851143736950796,91.35251160602641 M 31.42813934048985,92.02644494488231 M 30.84512168608897,92.56793296811423 M 30.141822463413344,92.94007416179022 M 29.366170352231393,93.11750771855364 M 28.57102476209446,93.0881418347339 M 27.810573550930155,92.85397774678387 M 27.13664021207427,92.43097335032292 M 26.595152188842345,91.84795569592205 M 26.223010995166355,91.14465647324641 M 26.045577438402937,90.36900436206449 M 26.074943322222683,89.57385877192755 M 26.309107410172693,88.81340756076324 M 26.73211180663365,88.13947422190736 M 27.315129461034523,87.59798619867543 M 28.018428683710162,87.22584500499943 M 28.7940807948921,87.04841144823601 M 29.589226385029026,87.07777733205575 M 30.349677596193345,87.31194142000578 M 31.02361093504922,87.73494581646673 M 31.565098958281144,88.31796347086761 M 29.62390271762145,70.2220611851413 M 28.829149348025265,70.26060915736076 M 28.051499593441562,70.09214633106772 M 27.343948999518254,69.72815316947604 M 26.754715969948546,69.1934352050211 M 26.323955761944028,68.52443258331726 M 26.08102397181527,67.76673672745453 M 26.042475999595805,66.97198335785832 M 26.210938825888856,66.19433360327461 M 26.57493198748051,65.48678300935133 M 27.10964995193546,64.89754997978162 M 27.778652573639313,64.4667897717771 M 28.536348429502052,64.22385798164834 M 29.331101799098242,64.18531000942889 M 30.108751553681934,64.35377283572191 M 30.816302147605246,64.71776599731358 M 31.405535177174944,65.25248396176852 M 31.83629538517948,65.92148658347236 M 32.07922717530822,66.67918243933511 M 32.11777514752768,67.47393580893132 M 31.94931232123464,68.25158556351501 M 31.585319159642992,68.95913615743832 M 31.050601195188044,69.54836918700802 M 30.381598573484183,69.97912939501255 M 32.02426749209083,79.4418400328673 M 31.719771004296728,80.17695958339482 M 31.235387042618353,80.80822105245142 M 30.604125573561745,81.29260501412979 M 29.869006023034235,81.59710150192389 M 29.080125573561745,81.70095958339482 M 28.291245124089258,81.5971015019239 M 27.556125573561747,81.29260501412979 M 26.924864104505147,80.80822105245142 M 26.44048014282678,80.17695958339482 M 26.13598365503266,79.4418400328673 M 26.032125573561743,78.65295958339482 M 26.13598365503266,77.86407913392233 M 26.44048014282677,77.1289595833948 M 26.92486410450515,76.49769811433822 M 27.55612557356174,76.01331415265985 M 28.29124512408927,75.70881766486575 M 29.08012557356175,75.60495958339482 M 29.86900602303424,75.70881766486575 M 30.604125573561745,76.01331415265985 M 31.23538704261835,76.49769811433822 M 31.719771004296714,77.12895958339482 M 32.02426749209083,77.86407913392233 M 32.128125573561746,78.65295958339482 M 29.08012557356175,58.84095958339482 M 28.291245124089276,58.737101501923874 M 27.556125573561744,58.43260501412978 M 26.924864104505154,57.9482210524514 M 26.440480142826786,57.31695958339482 M 26.13598365503266,56.58184003286729 M 26.032125573561743,55.792959583394804 M 26.135983655032657,55.00407913392233 M 26.44048014282678,54.26895958339482 M 26.92486410450515,53.63769811433822 M 27.55612557356175,53.153314152659846 M 28.291245124089258,52.84881766486572 M 29.080125573561745,52.74495958339482 M 29.869006023034242,52.848817664865734 M 30.604125573561745,53.153314152659846 M 31.235387042618342,53.63769811433822 M 31.71977100429673,54.26895958339482 M 32.02426749209083,55.00407913392233 M 32.12812557356176,55.792959583394804 M 32.02426749209084,56.58184003286729 M 31.71977100429672,57.31695958339482 M 31.235387042618342,57.9482210524514 M 30.60412557356175,58.43260501412978 M 29.86900602303423,58.73710150192389 M 28.291245124089265,33.79881766486572 M 29.080125573561745,33.694959583394805 M 29.86900602303422,33.79881766486572 M 30.60412557356174,34.10331415265988 M 31.23538704261835,34.58769811433821 M 31.719771004296707,35.218959583394806 M 32.02426749209083,35.954079133922335 M 32.12812557356176,36.74295958339482 M 32.02426749209083,37.531840032867294 M 31.719771004296717,38.26695958339481 M 31.235387042618356,38.89822105245142 M 30.604125573561756,39.38260501412978 M 29.869006023034235,39.68710150192388 M 29.08012557356174,39.79095958339482 M 28.29124512408926,39.687101501923905 M 27.556125573561747,39.38260501412975 M 26.92486410450516,38.89822105245142 M 26.440480142826793,38.26695958339481 M 26.13598365503266,37.531840032867294 M 26.032125573561753,36.742959583394835 M 26.135983655032682,35.954079133922335 M 26.44048014282678,35.21895958339485 M 26.924864104505147,34.58769811433821 M 27.556125573561758,34.10331415265986 "
  />
  <path id="face0-interior"
 style="fill:none;stroke:#FF0000;stroke-width:1;stroke-miterlimit:4;stroke-dasharray:none;stroke-linejoin:round;stroke-linecap:round"
        d="M 32.05100284086075,146.55164301773243 L 31.773434949843672,145.80593869930382 L 31.312322475737172,145.15748349586252 L 30.699089471627214,144.65046855790013 L 29.975526753328435,144.31944611555699 L 29.19094392434897,144.18697480123834 L 28.398809007899345,144.2620823160958 L 27.653104689470744,144.53965020711289 L 27.004649486029436,145.00076268121938 L 26.497634548067047,145.61399568532934 L 26.166612105723914,146.33755840362812 L 26.034140791405274,147.1221412326076 L 26.109248306262742,147.91427614905723 L 26.386816197279817,148.6599804674858 L 26.847928671386317,149.30843567092714 L 27.46116167549627,149.8154506088895 L 28.18472439379505,150.14647305123265 L 28.969307222774514,150.2789443655513 L 29.761442139224144,150.20383685069382 L 30.50714645765274,149.92626895967675 L 31.155601661094053,149.46515648557025 L 31.66261659905644,148.8519234814603 L 31.99363904139957,148.1283607631615 L 32.12611035571821,147.34377793418204 L 32.05100284086075,146.55164301773243 "
  />
  <path id="face1-interior"
 style="fill:none;stroke:#FF0000;stroke-width:1;stroke-miterlimit:4;stroke-dasharray:none;stroke-linejoin:round;stroke-linecap:round"
        d="M 31.632647106403642,137.46877404616623 L 31.976816552865163,136.75137160905783 L 32.12358129609534,135.96933645972547 L 32.06293956138323,135.17596300122193 L 31.799023982734273,134.42531832363267 L 31.349819970692273,133.76855762123634 L 30.74594003633317,133.25043805055293 L 30.028537599224748,132.9062686040914 L 29.246502449892375,132.75950386086123 L 28.453128991388855,132.82014559557334 L 27.702484313799577,133.08406117422228 L 27.04572361140326,133.5332651862643 L 26.527604040719844,134.13714512062342 L 26.183434594258323,134.85454755773182 L 26.036669851028158,135.63658270706418 L 26.097311585740258,136.42995616556772 L 26.36122716438922,137.18060084315698 L 26.810431176431216,137.8373615455533 L 27.414311110790322,138.35548111623672 L 28.13171354789874,138.69965056269822 L 28.913748697231114,138.84641530592842 L 29.70712215573463,138.7857735712163 L 30.457766833323912,138.52185799256733 L 31.114527535720228,138.07265398052536 L 31.632647106403642,137.46877404616623 "
  />
  <path id="face2-interior"
 style="fill:none;stroke:#FF0000;stroke-width:1;stroke-miterlimit:4;stroke-dasharray:none;stroke-linejoin:round;stroke-linecap:round"
        d="M 26.79980644283035,126.39544534651415 L 27.40096426695124,126.91672083523865 L 28.116554159172374,127.26464319841422 L 28.89780985090709,127.41550210195933 L 29.691490057849748,127.35901676090353 L 30.44350678551576,127.0990365578933 L 31.102611336681083,126.65327871412622 L 31.623886825405577,126.05212089000533 L 31.971809188581148,125.3365309977842 L 32.12266809212626,124.55527530604947 L 32.06618275107046,123.76159509910681 L 31.806202548060234,123.00957837144081 L 31.360444704293148,122.35047382027548 L 30.75928688017225,121.82919833155098 L 30.04369698795112,121.48127596837541 L 29.262441296216398,121.3304170648303 L 28.46876108927374,121.3869024058861 L 27.71674436160773,121.64688260889633 L 27.057639810442407,122.09264045266342 L 26.53636432171791,122.69379827678432 L 26.18844195854234,123.40938816900544 L 26.037583054997228,124.19064386074017 L 26.094068396053036,124.98432406768282 L 26.35404859906326,125.73634079534882 L 26.79980644283035,126.39544534651415 "
  />
  <path id="face3-interior"
 style="fill:none;stroke:#FF0000;stroke-width:1;stroke-miterlimit:4;stroke-dasharray:none;stroke-linejoin:round;stroke-linecap:round"
        d="M 31.76734535892937,114.38141494423462 L 32.04808020807846,113.6368971075645 L 32.12655385366217,112.8450885754082 L 31.997418446417818,112.05994979070668 L 31.66947435094274,111.33498666413419 L 31.16507041539032,110.71960423470844 L 30.51858093440155,110.25573979802721 L 29.77406309773142,109.97500494887811 L 28.982254565575115,109.89653130329438 L 28.197115780873602,110.02566671053876 L 27.472152654301112,110.35361080601382 L 26.856770224875348,110.85801474156625 L 26.39290578819412,111.50450422255501 L 26.11217093904503,112.24902205922514 L 26.033697293461316,113.04083059138145 L 26.16283270070568,113.82596937608297 L 26.490776796180754,114.55093250265546 L 26.995180731733175,115.16631493208122 L 27.641670212721944,115.63017936876244 L 28.386188049392075,115.91091421791154 L 29.17799658154838,115.98938786349525 L 29.963135366249887,115.86025245625089 L 30.688098492822373,115.53230836077582 L 31.30348092224814,115.0279044252234 L 31.76734535892937,114.38141494423462 "
  />
  <path id="face4-interior"
 style="fill:none;stroke:#FF0000;stroke-width:1;stroke-miterlimit:4;stroke-dasharray:none;stroke-linejoin:round;stroke-linecap:round"
        d="M 31.719771004296717,103.0369595833948 L 32.02426749209082,102.30184003286732 L 32.12812557356174,101.51295958339483 L 32.024267492090814,100.72407913392234 L 31.719771004296707,99.98895958339483 L 31.23538704261834,99.35769811433823 L 30.60412557356175,98.87331415265986 L 29.86900602303423,98.56881766486575 L 29.08012557356175,98.46495958339483 L 28.291245124089265,98.56881766486575 L 27.556125573561744,98.87331415265986 L 26.924864104505154,99.35769811433822 L 26.44048014282678,99.98895958339483 L 26.135983655032664,100.72407913392234 L 26.032125573561753,101.51295958339483 L 26.135983655032675,102.3018400328673 L 26.440480142826782,103.03695958339483 L 26.92486410450515,103.66822105245143 L 27.556125573561747,104.15260501412979 L 28.291245124089265,104.4571015019239 L 29.080125573561748,104.56095958339482 L 29.869006023034228,104.45710150192392 L 30.60412557356175,104.15260501412979 L 31.235387042618342,103.66822105245143 L 31.719771004296717,103.0369595833948 "
  />
  <path id="face5-interior"
 style="fill:none;stroke:#FF0000;stroke-width:1;stroke-miterlimit:4;stroke-dasharray:none;stroke-linejoin:round;stroke-linecap:round"
        d="M 32.11467370872056,89.79691480472519 L 31.937240151957127,89.02126269354322 L 31.565098958281144,88.31796347086761 L 31.02361093504922,87.73494581646673 L 30.349677596193345,87.31194142000578 L 29.589226385029026,87.07777733205575 L 28.7940807948921,87.04841144823601 L 28.018428683710162,87.22584500499943 L 27.315129461034523,87.59798619867543 L 26.73211180663365,88.13947422190736 L 26.309107410172693,88.81340756076324 L 26.074943322222683,89.57385877192755 L 26.045577438402937,90.36900436206449 L 26.223010995166355,91.14465647324641 L 26.595152188842345,91.84795569592205 L 27.13664021207427,92.43097335032292 L 27.810573550930155,92.85397774678387 L 28.57102476209446,93.0881418347339 L 29.366170352231393,93.11750771855364 L 30.141822463413344,92.94007416179022 L 30.84512168608897,92.56793296811423 L 31.42813934048985,92.02644494488231 L 31.851143736950796,91.35251160602641 L 32.08530782490081,90.5920603948621 L 32.11467370872056,89.79691480472519 "
  />
  <path id="face6-interior"
 style="fill:none;stroke:#FF0000;stroke-width:1;stroke-miterlimit:4;stroke-dasharray:none;stroke-linejoin:round;stroke-linecap:round"
        d="M 28.829149348025265,70.26060915736076 L 29.62390271762145,70.2220611851413 L 30.381598573484183,69.97912939501255 L 31.050601195188044,69.54836918700802 L 31.585319159642992,68.95913615743832 L 31.94931232123464,68.25158556351501 L 32.11777514752768,67.47393580893132 L 32.07922717530822,66.67918243933511 L 31.83629538517948,65.92148658347236 L 31.405535177174944,65.25248396176852 L 30.816302147605246,64.71776599731358 L 30.108751553681934,64.35377283572191 L 29.331101799098242,64.18531000942889 L 28.536348429502052,64.22385798164834 L 27.778652573639313,64.4667897717771 L 27.10964995193546,64.89754997978162 L 26.57493198748051,65.48678300935133 L 26.210938825888856,66.19433360327461 L 26.042475999595805,66.97198335785832 L 26.08102397181527,67.76673672745453 L 26.323955761944028,68.52443258331726 L 26.754715969948546,69.1934352050211 L 27.343948999518254,69.72815316947604 L 28.051499593441562,70.09214633106772 L 28.829149348025265,70.26060915736076 "
  />
  <path id="face7-interior"
 style="fill:none;stroke:#FF0000;stroke-width:1;stroke-miterlimit:4;stroke-dasharray:none;stroke-linejoin:round;stroke-linecap:round"
        d="M 31.719771004296728,80.17695958339482 L 32.02426749209083,79.4418400328673 L 32.128125573561746,78.65295958339482 L 32.02426749209083,77.86407913392233 L 31.719771004296714,77.12895958339482 L 31.23538704261835,76.49769811433822 L 30.604125573561745,76.01331415265985 L 29.86900602303424,75.70881766486575 L 29.08012557356175,75.60495958339482 L 28.29124512408927,75.70881766486575 L 27.55612557356174,76.01331415265985 L 26.92486410450515,76.49769811433822 L 26.44048014282677,77.1289595833948 L 26.13598365503266,77.86407913392233 L 26.032125573561743,78.65295958339482 L 26.13598365503266,79.4418400328673 L 26.44048014282678,80.17695958339482 L 26.924864104505147,80.80822105245142 L 27.556125573561747,81.29260501412979 L 28.291245124089258,81.5971015019239 L 29.080125573561745,81.70095958339482 L 29.869006023034235,81.59710150192389 L 30.604125573561745,81.29260501412979 L 31.235387042618353,80.80822105245142 L 31.719771004296728,80.17695958339482 "
  />
  <path id="face8-interior"
 style="fill:none;stroke:#FF0000;stroke-width:1;stroke-miterlimit:4;stroke-dasharray:none;stroke-linejoin:round;stroke-linecap:round"
        d="M 28.291245124089276,58.737101501923874 L 29.08012557356175,58.84095958339482 L 29.86900602303423,58.73710150192389 L 30.60412557356175,58.43260501412978 L 31.235387042618342,57.9482210524514 L 31.71977100429672,57.31695958339482 L 32.02426749209084,56.58184003286729 L 32.12812557356176,55.792959583394804 L 32.02426749209083,55.00407913392233 L 31.71977100429673,54.26895958339482 L 31.235387042618342,53.63769811433822 L 30.604125573561745,53.153314152659846 L 29.869006023034242,52.848817664865734 L 29.080125573561745,52.74495958339482 L 28.291245124089258,52.84881766486572 L 27.55612557356175,53.153314152659846 L 26.92486410450515,53.63769811433822 L 26.44048014282678,54.26895958339482 L 26.135983655032657,55.00407913392233 L 26.032125573561743,55.792959583394804 L 26.13598365503266,56.58184003286729 L 26.440480142826786,57.31695958339482 L 26.924864104505154,57.9482210524514 L 27.556125573561744,58.43260501412978 L 28.291245124089276,58.737101501923874 "
  />
  <path id="face9-interior"
 style="fill:none;stroke:#FF0000;stroke-width:1;stroke-miterlimit:4;stroke-dasharray:none;stroke-linejoin:round;stroke-linecap:round"
        d="M 29.080125573561745,33.694959583394805 L 28.291245124089265,33.79881766486572 L 27.556125573561758,34.10331415265986 L 26.924864104505147,34.58769811433821 L 26.44048014282678,35.21895958339485 L 26.135983655032682,35.954079133922335 L 26.032125573561753,36.742959583394835 L 26.13598365503266,37.531840032867294 L 26.440480142826793,38.26695958339481 L 26.92486410450516,38.89822105245142 L 27.556125573561747,39.38260501412975 L 28.29124512408926,39.687101501923905 L 29.08012557356174,39.79095958339482 L 29.869006023034235,39.68710150192388 L 30.604125573561756,39.38260501412978 L 31.235387042618356,38.89822105245142 L 31.719771004296717,38.26695958339481 L 32.02426749209083,37.531840032867294 L 32.12812557356176,36.74295958339482 L 32.02426749209083,35.954079133922335 L 31.719771004296707,35.218959583394806 L 31.23538704261835,34.58769811433821 L 30.60412557356174,34.10331415265988 L 29.86900602303422,33.79881766486572 L 29.080125573561745,33.694959583394805 "
  />
  <path id="face10-interior"
 style="fill:none;stroke:#FF0000;stroke-width:1;stroke-miterlimit:4;stroke-dasharray:none;stroke-linejoin:round;stroke-linecap:round"
        d="M 10.00000000000001,10.0 M 10.0,168.75000000000003 M 46.5125,168.75 M 46.5125,10.000000000000028 M 31.773434949843672,145.80593869930382 M 32.05100284086075,146.55164301773243 M 32.12611035571821,147.34377793418204 M 31.99363904139957,148.1283607631615 M 31.66261659905644,148.8519234814603 M 31.155601661094053,149.46515648557025 M 30.50714645765274,149.92626895967675 M 29.761442139224144,150.20383685069382 M 28.969307222774514,150.2789443655513 M 28.18472439379505,150.14647305123265 M 27.46116167549627,149.8154506088895 M 26.847928671386317,149.30843567092714 M 26.386816197279817,148.6599804674858 M 26.109248306262742,147.91427614905723 M 26.034140791405274,147.1221412326076 M 26.166612105723914,146.33755840362812 M 26.497634548067047,145.61399568532934 M 27.004649486029436,145.00076268121938 M 27.653104689470744,144.53965020711289 M 28.398809007899345,144.2620823160958 M 29.19094392434897,144.18697480123834 M 29.975526753328435,144.31944611555699 M 30.699089471627214,144.65046855790013 M 31.312322475737172,145.15748349586252 M 31.976816552865163,136.75137160905783 M 31.632647106403642,137.46877404616623 M 31.114527535720228,138.07265398052536 M 30.457766833323912,138.52185799256733 M 29.70712215573463,138.7857735712163 M 28.913748697231114,138.84641530592842 M 28.13171354789874,138.69965056269822 M 27.414311110790322,138.35548111623672 M 26.810431176431216,137.8373615455533 M 26.36122716438922,137.18060084315698 M 26.097311585740258,136.42995616556772 M 26.036669851028158,135.63658270706418 M 26.183434594258323,134.85454755773182 M 26.527604040719844,134.13714512062342 M 27.04572361140326,133.5332651862643 M 27.702484313799577,133.08406117422228 M 28.453128991388855,132.82014559557334 M 29.246502449892375,132.75950386086123 M 30.028537599224748,132.9062686040914 M 30.74594003633317,133.25043805055293 M 31.349819970692273,133.76855762123634 M 31.799023982734273,134.42531832363267 M 32.06293956138323,135.17596300122193 M 32.12358129609534,135.96933645972547 M 27.40096426695124,126.91672083523865 M 26.79980644283035,126.39544534651415 M 26.35404859906326,125.73634079534882 M 26.094068396053036,124.98432406768282 M 26.037583054997228,124.19064386074017 M 26.18844195854234,123.40938816900544 M 26.53636432171791,122.69379827678432 M 27.057639810442407,122.09264045266342 M 27.71674436160773,121.64688260889633 M 28.46876108927374,121.3869024058861 M 29.262441296216398,121.3304170648303 M 30.04369698795112,121.48127596837541 M 30.75928688017225,121.82919833155098 M 31.360444704293148,122.35047382027548 M 31.806202548060234,123.00957837144081 M 32.06618275107046,123.76159509910681 M 32.12266809212626,124.55527530604947 M 31.971809188581148,125.3365309977842 M 31.623886825405577,126.05212089000533 M 31.102611336681083,126.65327871412622 M 30.44350678551576,127.0990365578933 M 29.691490057849748,127.35901676090353 M 28.89780985090709,127.41550210195933 M 28.116554159172374,127.26464319841422 M 32.04808020807846,113.6368971075645 M 31.76734535892937,114.38141494423462 M 31.30348092224814,115.0279044252234 M 30.688098492822373,115.53230836077582 M 29.963135366249887,115.86025245625089 M 29.17799658154838,115.98938786349525 M 28.386188049392075,115.91091421791154 M 27.641670212721944,115.63017936876244 M 26.995180731733175,115.16631493208122 M 26.490776796180754,114.55093250265546 M 26.16283270070568,113.82596937608297 M 26.033697293461316,113.04083059138145 M 26.11217093904503,112.24902205922514 M 26.39290578819412,111.50450422255501 M 26.856770224875348,110.85801474156625 M 27.472152654301112,110.35361080601382 M 28.197115780873602,110.02566671053876 M 28.982254565575115,109.89653130329438 M 29.77406309773142,109.97500494887811 M 30.51858093440155,110.25573979802721 M 31.16507041539032,110.71960423470844 M 31.66947435094274,111.33498666413419 M 31.997418446417818,112.05994979070668 M 32.12655385366217,112.8450885754082 M 32.02426749209082,102.30184003286732 M 31.719771004296717,103.0369595833948 M 31.235387042618342,103.66822105245143 M 30.60412557356175,104.15260501412979 M 29.869006023034228,104.45710150192392 M 29.080125573561748,104.56095958339482 M 28.291245124089265,104.4571015019239 M 27.556125573561747,104.15260501412979 M 26.92486410450515,103.66822105245143 M 26.440480142826782,103.03695958339483 M 26.135983655032675,102.3018400328673 M 26.032125573561753,101.51295958339483 M 26.135983655032664,100.72407913392234 M 26.44048014282678,99.98895958339483 M 26.924864104505154,99.35769811433822 M 27.556125573561744,98.87331415265986 M 28.291245124089265,98.56881766486575 M 29.08012557356175,98.46495958339483 M 29.86900602303423,98.56881766486575 M 30.60412557356175,98.87331415265986 M 31.23538704261834,99.35769811433823 M 31.719771004296707,99.98895958339483 M 32.024267492090814,100.72407913392234 M 32.12812557356174,101.51295958339483 M 31.937240151957127,89.02126269354322 M 32.11467370872056,89.79691480472519 M 32.08530782490081,90.5920603948621 M 31.851143736950796,91.35251160602641 M 31.42813934048985,92.02644494488231 M 30.84512168608897,92.56793296811423 M 30.141822463413344,92.94007416179022 M 29.366170352231393,93.11750771855364 M 28.57102476209446,93.0881418347339 M 27.810573550930155,92.85397774678387 M 27.13664021207427,92.43097335032292 M 26.595152188842345,91.84795569592205 M 26.223010995166355,91.14465647324641 M 26.045577438402937,90.36900436206449 M 26.074943322222683,89.57385877192755 M 26.309107410172693,88.81340756076324 M 26.73211180663365,88.13947422190736 M 27.315129461034523,87.59798619867543 M 28.018428683710162,87.22584500499943 M 28.7940807948921,87.04841144823601 M 29.589226385029026,87.07777733205575 M 30.349677596193345,87.31194142000578 M 31.02361093504922,87.73494581646673 M 31.565098958281144,88.31796347086761 M 29.62390271762145,70.2220611851413 M 28.829149348025265,70.26060915736076 M 28.051499593441562,70.09214633106772 M 27.343948999518254,69.72815316947604 M 26.754715969948546,69.1934352050211 M 26.323955761944028,68.52443258331726 M 26.08102397181527,67.76673672745453 M 26.042475999595805,66.97198335785832 M 26.210938825888856,66.19433360327461 M 26.57493198748051,65.48678300935133 M 27.10964995193546,64.89754997978162 M 27.778652573639313,64.4667897717771 M 28.536348429502052,64.22385798164834 M 29.331101799098242,64.18531000942889 M 30.108751553681934,64.35377283572191 M 30.816302147605246,64.71776599731358 M 31.405535177174944,65.25248396176852 M 31.83629538517948,65.92148658347236 M 32.07922717530822,66.67918243933511 M 32.11777514752768,67.47393580893132 M 31.94931232123464,68.25158556351501 M 31.585319159642992,68.95913615743832 M 31.050601195188044,69.54836918700802 M 30.381598573484183,69.97912939501255 M 32.02426749209083,79.4418400328673 M 31.719771004296728,80.17695958339482 M 31.235387042618353,80.80822105245142 M 30.604125573561745,81.29260501412979 M 29.869006023034235,81.59710150192389 M 29.080125573561745,81.70095958339482 M 28.291245124089258,81.5971015019239 M 27.556125573561747,81.29260501412979 M 26.924864104505147,80.80822105245142 M 26.44048014282678,80.17695958339482 M 26.13598365503266,79.4418400328673 M 26.032125573561743,78.65295958339482 M 26.13598365503266,77.86407913392233 M 26.44048014282677,77.1289595833948 M 26.92486410450515,76.49769811433822 M 27.55612557356174,76.01331415265985 M 28.29124512408927,75.70881766486575 M 29.08012557356175,75.60495958339482 M 29.86900602303424,75.70881766486575 M 30.604125573561745,76.01331415265985 M 31.23538704261835,76.49769811433822 M 31.719771004296714,77.12895958339482 M 32.02426749209083,77.86407913392233 M 32.128125573561746,78.65295958339482 M 29.08012557356175,58.84095958339482 M 28.291245124089276,58.737101501923874 M 27.556125573561744,58.43260501412978 M 26.924864104505154,57.9482210524514 M 26.440480142826786,57.31695958339482 M 26.13598365503266,56.58184003286729 M 26.032125573561743,55.792959583394804 M 26.135983655032657,55.00407913392233 M 26.44048014282678,54.26895958339482 M 26.92486410450515,53.63769811433822 M 27.55612557356175,53.153314152659846 M 28.291245124089258,52.84881766486572 M 29.080125573561745,52.74495958339482 M 29.869006023034242,52.848817664865734 M 30.604125573561745,53.153314152659846 M 31.235387042618342,53.63769811433822 M 31.71977100429673,54.26895958339482 M 32.02426749209083,55.00407913392233 M 32.12812557356176,55.792959583394804 M 32.02426749209084,56.58184003286729 M 31.71977100429672,57.31695958339482 M 31.235387042618342,57.9482210524514 M 30.60412557356175,58.43260501412978 M 29.86900602303423,58.73710150192389 M 28.291245124089265,33.79881766486572 M 29.080125573561745,33.694959583394805 M 29.86900602303422,33.79881766486572 M 30.60412557356174,34.10331415265988 M 31.23538704261835,34.58769811433821 M 31.719771004296707,35.218959583394806 M 32.02426749209083,35.954079133922335 M 32.12812557356176,36.74295958339482 M 32.02426749209083,37.531840032867294 M 31.719771004296717,38.26695958339481 M 31.235387042618356,38.89822105245142 M 30.604125573561756,39.38260501412978 M 29.869006023034235,39.68710150192388 M 29.08012557356174,39.79095958339482 M 28.29124512408926,39.687101501923905 M 27.556125573561747,39.38260501412975 M 26.92486410450516,38.89822105245142 M 26.440480142826793,38.26695958339481 M 26.13598365503266,37.531840032867294 M 26.032125573561753,36.742959583394835 M 26.135983655032682,35.954079133922335 M 26.44048014282678,35.21895958339485 M 26.924864104505147,34.58769811433821 M 27.556125573561758,34.10331415265986 "
  />
  <path id="face0-interior"
 style="fill:none;stroke:#00FF00;stroke-width:1;stroke-miterlimit:4;stroke-dasharray:none;stroke-linejoin:round;stroke-linecap:round"
        d="M 32.05100284086075,146.55164301773243 M 31.773434949843672,145.80593869930382 M 31.312322475737172,145.15748349586252 M 30.699089471627214,144.65046855790013 M 29.975526753328435,144.31944611555699 M 29.19094392434897,144.18697480123834 M 28.398809007899345,144.2620823160958 M 27.653104689470744,144.53965020711289 M 27.004649486029436,145.00076268121938 M 26.497634548067047,145.61399568532934 M 26.166612105723914,146.33755840362812 M 26.034140791405274,147.1221412326076 M 26.109248306262742,147.91427614905723 M 26.386816197279817,148.6599804674858 M 26.847928671386317,149.30843567092714 M 27.46116167549627,149.8154506088895 M 28.18472439379505,150.14647305123265 M 28.969307222774514,150.2789443655513 M 29.761442139224144,150.20383685069382 M 30.50714645765274,149.92626895967675 M 31.155601661094053,149.46515648557025 M 31.66261659905644,148.8519234814603 M 31.99363904139957,148.1283607631615 M 32.12611035571821,147.34377793418204 "
  />
  <path id="face1-interior"
 style="fill:none;stroke:#00FF00;stroke-width:1;stroke-miterlimit:4;stroke-dasharray:none;stroke-linejoin:round;stroke-linecap:round"
        d="M 31.632647106403642,137.46877404616623 M 31.976816552865163,136.75137160905783 M 32.12358129609534,135.96933645972547 M 32.06293956138323,135.17596300122193 M 31.799023982734273,134.42531832363267 M 31.349819970692273,133.76855762123634 M 30.74594003633317,133.25043805055293 M 30.028537599224748,132.9062686040914 M 29.246502449892375,132.75950386086123 M 28.453128991388855,132.82014559557334 M 27.702484313799577,133.08406117422228 M 27.04572361140326,133.5332651862643 M 26.527604040719844,134.13714512062342 M 26.183434594258323,134.85454755773182 M 26.036669851028158,135.63658270706418 M 26.097311585740258,136.42995616556772 M 26.36122716438922,137.18060084315698 M 26.810431176431216,137.8373615455533 M 27.414311110790322,138.35548111623672 M 28.13171354789874,138.69965056269822 M 28.913748697231114,138.84641530592842 M 29.70712215573463,138.7857735712163 M 30.457766833323912,138.52185799256733 M 31.114527535720228,138.07265398052536 "
  />
  <path id="face2-interior"
 style="fill:none;stroke:#00FF00;stroke-width:1;stroke-miterlimit:4;stroke-dasharray:none;stroke-linejoin:round;stroke-linecap:round"
        d="M 26.79980644283035,126.39544534651415 M 27.40096426695124,126.91672083523865 M 28.116554159172374,127.26464319841422 M 28.89780985090709,127.41550210195933 M 29.691490057849748,127.35901676090353 M 30.44350678551576,127.0990365578933 M 31.102611336681083,126.65327871412622 M 31.623886825405577,126.05212089000533 M 31.971809188581148,125.3365309977842 M 32.12266809212626,124.55527530604947 M 32.06618275107046,123.76159509910681 M 31.806202548060234,123.00957837144081 M 31.360444704293148,122.35047382027548 M 30.75928688017225,121.82919833155098 M 30.04369698795112,121.48127596837541 M 29.262441296216398,121.3304170648303 M 28.46876108927374,121.3869024058861 M 27.71674436160773,121.64688260889633 M 27.057639810442407,122.09264045266342 M 26.53636432171791,122.69379827678432 M 26.18844195854234,123.40938816900544 M 26.037583054997228,124.19064386074017 M 26.094068396053036,124.98432406768282 M 26.35404859906326,125.73634079534882 "
  />
  <path id="face3-interior"
 style="fill:none;stroke:#00FF00;stroke-width:1;stroke-miterlimit:4;stroke-dasharray:none;stroke-linejoin:round;stroke-linecap:round"
        d="M 31.76734535892937,114.38141494423462 M 32.04808020807846,113.6368971075645 M 32.12655385366217,112.8450885754082 M 31.997418446417818,112.05994979070668 M 31.66947435094274,111.33498666413419 M 31.16507041539032,110.71960423470844 M 30.51858093440155,110.25573979802721 M 29.77406309773142,109.97500494887811 M 28.982254565575115,109.89653130329438 M 28.197115780873602,110.02566671053876 M 27.472152654301112,110.35361080601382 M 26.856770224875348,110.85801474156625 M 26.39290578819412,111.50450422255501 M 26.11217093904503,112.24902205922514 M 26.033697293461316,113.04083059138145 M 26.16283270070568,113.82596937608297 M 26.490776796180754,114.55093250265546 M 26.995180731733175,115.16631493208122 M 27.641670212721944,115.63017936876244 M 28.386188049392075,115.91091421791154 M 29.17799658154838,115.98938786349525 M 29.963135366249887,115.86025245625089 M 30.688098492822373,115.53230836077582 M 31.30348092224814,115.0279044252234 "
  />
  <path id="face4-interior"
 style="fill:none;stroke:#00FF00;stroke-width:1;stroke-miterlimit:4;stroke-dasharray:none;stroke-linejoin:round;stroke-linecap:round"
        d="M 31.719771004296717,103.0369595833948 M 32.02426749209082,102.30184003286732 M 32.12812557356174,101.51295958339483 M 32.024267492090814,100.72407913392234 M 31.719771004296707,99.98895958339483 M 31.23538704261834,99.35769811433823 M 30.60412557356175,98.87331415265986 M 29.86900602303423,98.56881766486575 M 29.08012557356175,98.46495958339483 M 28.291245124089265,98.56881766486575 M 27.556125573561744,98.87331415265986 M 26.924864104505154,99.35769811433822 M 26.44048014282678,99.98895958339483 M 26.135983655032664,100.72407913392234 M 26.032125573561753,101.51295958339483 M 26.135983655032675,102.3018400328673 M 26.440480142826782,103.03695958339483 M 26.92486410450515,103.66822105245143 M 27.556125573561747,104.15260501412979 M 28.291245124089265,104.4571015019239 M 29.080125573561748,104.56095958339482 M 29.869006023034228,104.45710150192392 M 30.60412557356175,104.15260501412979 M 31.235387042618342,103.66822105245143 "
  />
  <path id="face5-interior"
 style="fill:none;stroke:#00FF00;stroke-width:1;stroke-miterlimit:4;stroke-dasharray:none;stroke-linejoin:round;stroke-linecap:round"
        d="M 32.11467370872056,89.79691480472519 M 31.937240151957127,89.02126269354322 M 31.565098958281144,88.31796347086761 M 31.02361093504922,87.73494581646673 M 30.349677596193345,87.31194142000578 M 29.589226385029026,87.07777733205575 M 28.7940807948921,87.04841144823601 M 28.018428683710162,87.22584500499943 M 27.315129461034523,87.59798619867543 M 26.73211180663365,88.13947422190736 M 26.309107410172693,88.81340756076324 M 26.074943322222683,89.57385877192755 M 26.045577438402937,90.36900436206449 M 26.223010995166355,91.14465647324641 M 26.595152188842345,91.84795569592205 M 27.13664021207427,92.43097335032292 M 27.810573550930155,92.85397774678387 M 28.57102476209446,93.0881418347339 M 29.366170352231393,93.11750771855364 M 30.141822463413344,92.94007416179022 M 30.84512168608897,92.56793296811423 M 31.42813934048985,92.02644494488231 M 31.851143736950796,91.35251160602641 M 32.08530782490081,90.5920603948621 "
  />
  <path id="face6-interior"
 style="fill:none;stroke:#00FF00;stroke-width:1;stroke-miterlimit:4;stroke-dasharray:none;stroke-linejoin:round;stroke-linecap:round"
        d="M 28.829149348025265,70.26060915736076 M 29.62390271762145,70.2220611851413 M 30.381598573484183,69.97912939501255 M 31.050601195188044,69.54836918700802 M 31.585319159642992,68.95913615743832 M 31.94931232123464,68.25158556351501 M 32.11777514752768,67.47393580893132 M 32.07922717530822,66.67918243933511 M 31.83629538517948,65.92148658347236 M 31.405535177174944,65.25248396176852 M 30.816302147605246,64.71776599731358 M 30.108751553681934,64.35377283572191 M 29.331101799098242,64.18531000942889 M 28.536348429502052,64.22385798164834 M 27.778652573639313,64.4667897717771 M 27.10964995193546,64.89754997978162 M 26.57493198748051,65.48678300935133 M 26.210938825888856,66.19433360327461 M 26.042475999595805,66.97198335785832 M 26.08102397181527,67.76673672745453 M 26.323955761944028,68.52443258331726 M 26.754715969948546,69.1934352050211 M 27.343948999518254,69.72815316947604 M 28.051499593441562,70.09214633106772 "
  />
  <path id="face7-interior"
 style="fill:none;stroke:#00FF00;stroke-width:1;stroke-miterlimit:4;stroke-dasharray:none;stroke-linejoin:round;stroke-linecap:round"
        d="M 31.719771004296728,80.17695958339482 M 32.02426749209083,79.4418400328673 M 32.128125573561746,78.65295958339482 M 32.02426749209083,77.86407913392233 M 31.719771004296714,77.12895958339482 M 31.23538704261835,76.49769811433822 M 30.604125573561745,76.01331415265985 M 29.86900602303424,75.70881766486575 M 29.08012557356175,75.60495958339482 M 28.29124512408927,75.70881766486575 M 27.55612557356174,76.01331415265985 M 26.92486410450515,76.49769811433822 M 26.44048014282677,77.1289595833948 M 26.13598365503266,77.86407913392233 M 26.032125573561743,78.65295958339482 M 26.13598365503266,79.4418400328673 M 26.44048014282678,80.17695958339482 M 26.924864104505147,80.80822105245142 M 27.556125573561747,81.29260501412979 M 28.291245124089258,81.5971015019239 M 29.080125573561745,81.70095958339482 M 29.869006023034235,81.59710150192389 M 30.604125573561745,81.29260501412979 M 31.235387042618353,80.80822105245142 "
  />
  <path id="face8-interior"
 style="fill:none;stroke:#00FF00;stroke-width:1;stroke-miterlimit:4;stroke-dasharray:none;stroke-linejoin:round;stroke-linecap:round"
        d="M 28.291245124089276,58.737101501923874 M 29.08012557356175,58.84095958339482 M 29.86900602303423,58.73710150192389 M 30.60412557356175,58.43260501412978 M 31.235387042618342,57.9482210524514 M 31.71977100429672,57.31695958339482 M 32.02426749209084,56.58184003286729 M 32.12812557356176,55.792959583394804 M 32.02426749209083,55.00407913392233 M 31.71977100429673,54.26895958339482 M 31.235387042618342,53.63769811433822 M 30.604125573561745,53.153314152659846 M 29.869006023034242,52.848817664865734 M 29.080125573561745,52.74495958339482 M 28.291245124089258,52.84881766486572 M 27.55612557356175,53.153314152659846 M 26.92486410450515,53.63769811433822 M 26.44048014282678,54.26895958339482 M 26.135983655032657,55.00407913392233 M 26.032125573561743,55.792959583394804 M 26.13598365503266,56.58184003286729 M 26.440480142826786,57.31695958339482 M 26.924864104505154,57.9482210524514 M 27.556125573561744,58.43260501412978 "
  />
  <path id="face9-interior"
 style="fill:none;stroke:#00FF00;stroke-width:1;stroke-miterlimit:4;stroke-dasharray:none;stroke-linejoin:round;stroke-linecap:round"
        d="M 29.080125573561745,33.694959583394805 M 28.291245124089265,33.79881766486572 M 27.556125573561758,34.10331415265986 M 26.924864104505147,34.58769811433821 M 26.44048014282678,35.21895958339485 M 26.135983655032682,35.954079133922335 M 26.032125573561753,36.742959583394835 M 26.13598365503266,37.531840032867294 M 26.440480142826793,38.26695958339481 M 26.92486410450516,38.89822105245142 M 27.556125573561747,39.38260501412975 M 28.29124512408926,39.687101501923905 M 29.08012557356174,39.79095958339482 M 29.869006023034235,39.68710150192388 M 30.604125573561756,39.38260501412978 M 31.235387042618356,38.89822105245142 M 31.719771004296717,38.26695958339481 M 32.02426749209083,37.531840032867294 M 32.12812557356176,36.74295958339482 M 32.02426749209083,35.954079133922335 M 31.719771004296707,35.218959583394806 M 31.23538704261835,34.58769811433821 M 30.60412557356174,34.10331415265988 M 29.86900602303422,33.79881766486572 "
  />
  <path id="face10-interior"
 style="fill:none;stroke:#00FF00;stroke-width:1;stroke-miterlimit:4;stroke-dasharray:none;stroke-linejoin:round;stroke-linecap:round"
        d="M 10.00000000000001,10.0 M 10.0,168.75000000000003 M 46.5125,168.75 M 46.5125,10.000000000000028 M 31.773434949843672,145.80593869930382 M 32.05100284086075,146.55164301773243 M 32.12611035571821,147.34377793418204 M 31.99363904139957,148.1283607631615 M 31.66261659905644,148.8519234814603 M 31.155601661094053,149.46515648557025 M 30.50714645765274,149.92626895967675 M 29.761442139224144,150.20383685069382 M 28.969307222774514,150.2789443655513 M 28.18472439379505,150.14647305123265 M 27.46116167549627,149.8154506088895 M 26.847928671386317,149.30843567092714 M 26.386816197279817,148.6599804674858 M 26.109248306262742,147.91427614905723 M 26.034140791405274,147.1221412326076 M 26.166612105723914,146.33755840362812 M 26.497634548067047,145.61399568532934 M 27.004649486029436,145.00076268121938 M 27.653104689470744,144.53965020711289 M 28.398809007899345,144.2620823160958 M 29.19094392434897,144.18697480123834 M 29.975526753328435,144.31944611555699 M 30.699089471627214,144.65046855790013 M 31.312322475737172,145.15748349586252 M 31.976816552865163,136.75137160905783 M 31.632647106403642,137.46877404616623 M 31.114527535720228,138.07265398052536 M 30.457766833323912,138.52185799256733 M 29.70712215573463,138.7857735712163 M 28.913748697231114,138.84641530592842 M 28.13171354789874,138.69965056269822 M 27.414311110790322,138.35548111623672 M 26.810431176431216,137.8373615455533 M 26.36122716438922,137.18060084315698 M 26.097311585740258,136.42995616556772 M 26.036669851028158,135.63658270706418 M 26.183434594258323,134.85454755773182 M 26.527604040719844,134.13714512062342 M 27.04572361140326,133.5332651862643 M 27.702484313799577,133.08406117422228 M 28.453128991388855,132.82014559557334 M 29.246502449892375,132.75950386086123 M 30.028537599224748,132.9062686040914 M 30.74594003633317,133.25043805055293 M 31.349819970692273,133.76855762123634 M 31.799023982734273,134.42531832363267 M 32.06293956138323,135.17596300122193 M 32.12358129609534,135.96933645972547 M 27.40096426695124,126.91672083523865 M 26.79980644283035,126.39544534651415 M 26.35404859906326,125.73634079534882 M 26.094068396053036,124.98432406768282 M 26.037583054997228,124.19064386074017 M 26.18844195854234,123.40938816900544 M 26.53636432171791,122.69379827678432 M 27.057639810442407,122.09264045266342 M 27.71674436160773,121.64688260889633 M 28.46876108927374,121.3869024058861 M 29.262441296216398,121.3304170648303 M 30.04369698795112,121.48127596837541 M 30.75928688017225,121.82919833155098 M 31.360444704293148,122.35047382027548 M 31.806202548060234,123.00957837144081 M 32.06618275107046,123.76159509910681 M 32.12266809212626,124.55527530604947 M 31.971809188581148,125.3365309977842 M 31.623886825405577,126.05212089000533 M 31.102611336681083,126.65327871412622 M 30.44350678551576,127.0990365578933 M 29.691490057849748,127.35901676090353 M 28.89780985090709,127.41550210195933 M 28.116554159172374,127.26464319841422 M 32.04808020807846,113.6368971075645 M 31.76734535892937,114.38141494423462 M 31.30348092224814,115.0279044252234 M 30.688098492822373,115.53230836077582 M 29.963135366249887,115.86025245625089 M 29.17799658154838,115.98938786349525 M 28.386188049392075,115.91091421791154 M 27.641670212721944,115.63017936876244 M 26.995180731733175,115.16631493208122 M 26.490776796180754,114.55093250265546 M 26.16283270070568,113.82596937608297 M 26.033697293461316,113.04083059138145 M 26.11217093904503,112.24902205922514 M 26.39290578819412,111.50450422255501 M 26.856770224875348,110.85801474156625 M 27.472152654301112,110.35361080601382 M 28.197115780873602,110.02566671053876 M 28.982254565575115,109.89653130329438 M 29.77406309773142,109.97500494887811 M 30.51858093440155,110.25573979802721 M 31.16507041539032,110.71960423470844 M 31.66947435094274,111.33498666413419 M 31.997418446417818,112.05994979070668 M 32.12655385366217,112.8450885754082 M 32.02426749209082,102.30184003286732 M 31.719771004296717,103.0369595833948 M 31.235387042618342,103.66822105245143 M 30.60412557356175,104.15260501412979 M 29.869006023034228,104.45710150192392 M 29.080125573561748,104.56095958339482 M 28.291245124089265,104.4571015019239 M 27.556125573561747,104.15260501412979 M 26.92486410450515,103.66822105245143 M 26.440480142826782,103.03695958339483 M 26.135983655032675,102.3018400328673 M 26.032125573561753,101.51295958339483 M 26.135983655032664,100.72407913392234 M 26.44048014282678,99.98895958339483 M 26.924864104505154,99.35769811433822 M 27.556125573561744,98.87331415265986 M 28.291245124089265,98.56881766486575 M 29.08012557356175,98.46495958339483 M 29.86900602303423,98.56881766486575 M 30.60412557356175,98.87331415265986 M 31.23538704261834,99.35769811433823 M 31.719771004296707,99.98895958339483 M 32.024267492090814,100.72407913392234 M 32.12812557356174,101.51295958339483 M 31.937240151957127,89.02126269354322 M 32.11467370872056,89.79691480472519 M 32.08530782490081,90.5920603948621 M 31.851143736950796,91.35251160602641 M 31.42813934048985,92.02644494488231 M 30.84512168608897,92.56793296811423 M 30.141822463413344,92.94007416179022 M 29.366170352231393,93.11750771855364 M 28.57102476209446,93.0881418347339 M 27.810573550930155,92.85397774678387 M 27.13664021207427,92.43097335032292 M 26.595152188842345,91.84795569592205 M 26.223010995166355,91.14465647324641 M 26.045577438402937,90.36900436206449 M 26.074943322222683,89.57385877192755 M 26.309107410172693,88.81340756076324 M 26.73211180663365,88.13947422190736 M 27.315129461034523,87.59798619867543 M 28.018428683710162,87.22584500499943 M 28.7940807948921,87.04841144823601 M 29.589226385029026,87.07777733205575 M 30.349677596193345,87.31194142000578 M 31.02361093504922,87.73494581646673 M 31.565098958281144,88.31796347086761 M 29.62390271762145,70.2220611851413 M 28.829149348025265,70.26060915736076 M 28.051499593441562,70.09214633106772 M 27.343948999518254,69.72815316947604 M 26.754715969948546,69.1934352050211 M 26.323955761944028,68.52443258331726 M 26.08102397181527,67.76673672745453 M 26.042475999595805,66.97198335785832 M 26.210938825888856,66.19433360327461 M 26.57493198748051,65.48678300935133 M 27.10964995193546,64.89754997978162 M 27.778652573639313,64.4667897717771 M 28.536348429502052,64.22385798164834 M 29.331101799098242,64.18531000942889 M 30.108751553681934,64.35377283572191 M 30.816302147605246,64.71776599731358 M 31.405535177174944,65.25248396176852 M 31.83629538517948,65.92148658347236 M 32.07922717530822,66.67918243933511 M 32.11777514752768,67.47393580893132 M 31.94931232123464,68.25158556351501 M 31.585319159642992,68.95913615743832 M 31.050601195188044,69.54836918700802 M 30.381598573484183,69.97912939501255 M 32.02426749209083,79.4418400328673 M 31.719771004296728,80.17695958339482 M 31.235387042618353,80.80822105245142 M 30.604125573561745,81.29260501412979 M 29.869006023034235,81.59710150192389 M 29.080125573561745,81.70095958339482 M 28.291245124089258,81.5971015019239 M 27.556125573561747,81.29260501412979 M 26.924864104505147,80.80822105245142 M 26.44048014282678,80.17695958339482 M 26.13598365503266,79.4418400328673 M 26.032125573561743,78.65295958339482 M 26.13598365503266,77.86407913392233 M 26.44048014282677,77.1289595833948 M 26.92486410450515,76.49769811433822 M 27.55612557356174,76.01331415265985 M 28.29124512408927,75.70881766486575 M 29.08012557356175,75.60495958339482 M 29.86900602303424,75.70881766486575 M 30.604125573561745,76.01331415265985 M 31.23538704261835,76.49769811433822 M 31.719771004296714,77.12895958339482 M 32.02426749209083,77.86407913392233 M 32.128125573561746,78.65295958339482 M 29.08012557356175,58.84095958339482 M 28.291245124089276,58.737101501923874 M 27.556125573561744,58.43260501412978 M 26.924864104505154,57.9482210524514 M 26.440480142826786,57.31695958339482 M 26.13598365503266,56.58184003286729 M 26.032125573561743,55.792959583394804 M 26.135983655032657,55.00407913392233 M 26.44048014282678,54.26895958339482 M 26.92486410450515,53.63769811433822 M 27.55612557356175,53.153314152659846 M 28.291245124089258,52.84881766486572 M 29.080125573561745,52.74495958339482 M 29.869006023034242,52.848817664865734 M 30.604125573561745,53.153314152659846 M 31.235387042618342,53.63769811433822 M 31.71977100429673,54.26895958339482 M 32.02426749209083,55.00407913392233 M 32.12812557356176,55.792959583394804 M 32.02426749209084,56.58184003286729 M 31.71977100429672,57.31695958339482 M 31.235387042618342,57.9482210524514 M 30.60412557356175,58.43260501412978 M 29.86900602303423,58.73710150192389 M 28.291245124089265,33.79881766486572 M 29.080125573561745,33.694959583394805 M 29.86900602303422,33.79881766486572 M 30.60412557356174,34.10331415265988 M 31.23538704261835,34.58769811433821 M 31.719771004296707,35.218959583394806 M 32.02426749209083,35.954079133922335 M 32.12812557356176,36.74295958339482 M 32.02426749209083,37.531840032867294 M 31.719771004296717,38.26695958339481 M 31.235387042618356,38.89822105245142 M 30.604125573561756,39.38260501412978 M 29.869006023034235,39.68710150192388 M 29.08012557356174,39.79095958339482 M 28.29124512408926,39.687101501923905 M 27.556125573561747,39.38260501412975 M 26.92486410450516,38.89822105245142 M 26.440480142826793,38.26695958339481 M 26.13598365503266,37.531840032867294 M 26.032125573561753,36.742959583394835 M 26.135983655032682,35.954079133922335 M 26.44048014282678,35.21895958339485 M 26.924864104505147,34.58769811433821 M 27.556125573561758,34.10331415265986 "
  />
</svg>
