G04 EAGLE Gerber RS-274X export*
G75*
%MOMM*%
%FSLAX34Y34*%
%LPD*%
%INTop Copper*%
%IPPOS*%
%AMOC8*
5,1,8,0,0,1.08239X$1,22.5*%
G01*
%ADD10P,1.649562X8X202.500000*%
%ADD11P,1.319650X8X202.500000*%
%ADD12C,1.219200*%
%ADD13C,0.254000*%
%ADD14C,0.558800*%


D10*
X50800Y177800D03*
X50800Y203200D03*
X50800Y228600D03*
X50800Y254000D03*
X50800Y279400D03*
X50800Y304800D03*
X50800Y330200D03*
X50800Y355600D03*
X50800Y381000D03*
X50800Y406400D03*
X50800Y431800D03*
X50800Y457200D03*
X50800Y482600D03*
X50800Y508000D03*
X50800Y533400D03*
X50800Y558800D03*
X76200Y177800D03*
X76200Y203200D03*
X76200Y228600D03*
X76200Y254000D03*
X76200Y279400D03*
X76200Y304800D03*
X76200Y330200D03*
X76200Y355600D03*
X76200Y381000D03*
X76200Y406400D03*
X76200Y431800D03*
X76200Y457200D03*
X76200Y482600D03*
X76200Y508000D03*
X76200Y533400D03*
X76200Y558800D03*
X101600Y177800D03*
X101600Y203200D03*
X101600Y228600D03*
X101600Y254000D03*
X101600Y279400D03*
X101600Y304800D03*
X101600Y330200D03*
X101600Y355600D03*
X101600Y381000D03*
X101600Y406400D03*
X101600Y431800D03*
X101600Y457200D03*
X101600Y482600D03*
X101600Y508000D03*
X101600Y533400D03*
X101600Y558800D03*
X50800Y584200D03*
X50800Y609600D03*
X50800Y635000D03*
X50800Y660400D03*
X50800Y685800D03*
X50800Y711200D03*
X50800Y736600D03*
X50800Y762000D03*
X50800Y787400D03*
X50800Y812800D03*
X50800Y838200D03*
X50800Y863600D03*
X50800Y889000D03*
X50800Y914400D03*
X50800Y939800D03*
X50800Y965200D03*
X76200Y584200D03*
X76200Y609600D03*
X76200Y635000D03*
X76200Y660400D03*
X76200Y685800D03*
X76200Y711200D03*
X76200Y736600D03*
X76200Y762000D03*
X76200Y787400D03*
X76200Y812800D03*
X76200Y838200D03*
X76200Y863600D03*
X76200Y889000D03*
X76200Y914400D03*
X76200Y939800D03*
X76200Y965200D03*
X101600Y584200D03*
X101600Y609600D03*
X101600Y635000D03*
X101600Y660400D03*
X101600Y685800D03*
X101600Y711200D03*
X101600Y736600D03*
X101600Y762000D03*
X101600Y787400D03*
X101600Y812800D03*
X101600Y838200D03*
X101600Y863600D03*
X101600Y889000D03*
X101600Y914400D03*
X101600Y939800D03*
X101600Y965200D03*
D11*
X1752600Y38100D03*
X1727200Y38100D03*
X1651000Y38100D03*
X1549400Y38100D03*
D12*
X927100Y895604D02*
X927100Y907796D01*
X952500Y907796D02*
X952500Y895604D01*
X977900Y895604D02*
X977900Y907796D01*
X1003300Y907796D02*
X1003300Y895604D01*
X1028700Y895604D02*
X1028700Y907796D01*
X1054100Y907796D02*
X1054100Y895604D01*
X1079500Y895604D02*
X1079500Y907796D01*
X1104900Y907796D02*
X1104900Y895604D01*
X1130300Y895604D02*
X1130300Y907796D01*
X1155700Y907796D02*
X1155700Y895604D01*
X1181100Y895604D02*
X1181100Y907796D01*
X1206500Y907796D02*
X1206500Y895604D01*
X1231900Y895604D02*
X1231900Y907796D01*
X1257300Y907796D02*
X1257300Y895604D01*
X1257300Y1048004D02*
X1257300Y1060196D01*
X1231900Y1060196D02*
X1231900Y1048004D01*
X1206500Y1048004D02*
X1206500Y1060196D01*
X1181100Y1060196D02*
X1181100Y1048004D01*
X1155700Y1048004D02*
X1155700Y1060196D01*
X1130300Y1060196D02*
X1130300Y1048004D01*
X1104900Y1048004D02*
X1104900Y1060196D01*
X1079500Y1060196D02*
X1079500Y1048004D01*
X1054100Y1048004D02*
X1054100Y1060196D01*
X1028700Y1060196D02*
X1028700Y1048004D01*
X1003300Y1048004D02*
X1003300Y1060196D01*
X977900Y1060196D02*
X977900Y1048004D01*
X952500Y1048004D02*
X952500Y1060196D01*
X927100Y1060196D02*
X927100Y1048004D01*
X927100Y679196D02*
X927100Y667004D01*
X952500Y667004D02*
X952500Y679196D01*
X977900Y679196D02*
X977900Y667004D01*
X1003300Y667004D02*
X1003300Y679196D01*
X1028700Y679196D02*
X1028700Y667004D01*
X1054100Y667004D02*
X1054100Y679196D01*
X1079500Y679196D02*
X1079500Y667004D01*
X1104900Y667004D02*
X1104900Y679196D01*
X1130300Y679196D02*
X1130300Y667004D01*
X1155700Y667004D02*
X1155700Y679196D01*
X1181100Y679196D02*
X1181100Y667004D01*
X1206500Y667004D02*
X1206500Y679196D01*
X1231900Y679196D02*
X1231900Y667004D01*
X1257300Y667004D02*
X1257300Y679196D01*
X1257300Y819404D02*
X1257300Y831596D01*
X1231900Y831596D02*
X1231900Y819404D01*
X1206500Y819404D02*
X1206500Y831596D01*
X1181100Y831596D02*
X1181100Y819404D01*
X1155700Y819404D02*
X1155700Y831596D01*
X1130300Y831596D02*
X1130300Y819404D01*
X1104900Y819404D02*
X1104900Y831596D01*
X1079500Y831596D02*
X1079500Y819404D01*
X1054100Y819404D02*
X1054100Y831596D01*
X1028700Y831596D02*
X1028700Y819404D01*
X1003300Y819404D02*
X1003300Y831596D01*
X977900Y831596D02*
X977900Y819404D01*
X952500Y819404D02*
X952500Y831596D01*
X927100Y831596D02*
X927100Y819404D01*
X977900Y209296D02*
X977900Y197104D01*
X1003300Y197104D02*
X1003300Y209296D01*
X1130300Y209296D02*
X1130300Y197104D01*
X1155700Y197104D02*
X1155700Y209296D01*
X1028700Y209296D02*
X1028700Y197104D01*
X1054100Y197104D02*
X1054100Y209296D01*
X1104900Y209296D02*
X1104900Y197104D01*
X1079500Y197104D02*
X1079500Y209296D01*
X1181100Y209296D02*
X1181100Y197104D01*
X1206500Y197104D02*
X1206500Y209296D01*
X1231900Y209296D02*
X1231900Y197104D01*
X1257300Y197104D02*
X1257300Y209296D01*
X1257300Y349504D02*
X1257300Y361696D01*
X1231900Y361696D02*
X1231900Y349504D01*
X1206500Y349504D02*
X1206500Y361696D01*
X1181100Y361696D02*
X1181100Y349504D01*
X1155700Y349504D02*
X1155700Y361696D01*
X1130300Y361696D02*
X1130300Y349504D01*
X1104900Y349504D02*
X1104900Y361696D01*
X1079500Y361696D02*
X1079500Y349504D01*
X1054100Y349504D02*
X1054100Y361696D01*
X1028700Y361696D02*
X1028700Y349504D01*
X1003300Y349504D02*
X1003300Y361696D01*
X977900Y361696D02*
X977900Y349504D01*
X1181100Y82296D02*
X1181100Y70104D01*
X1155700Y70104D02*
X1155700Y82296D01*
X1130300Y82296D02*
X1130300Y70104D01*
X1104900Y70104D02*
X1104900Y82296D01*
X1079500Y82296D02*
X1079500Y70104D01*
X1054100Y70104D02*
X1054100Y82296D01*
X1028700Y82296D02*
X1028700Y70104D01*
X1003300Y70104D02*
X1003300Y82296D01*
X977900Y82296D02*
X977900Y70104D01*
X977900Y590804D02*
X977900Y602996D01*
X1003300Y602996D02*
X1003300Y590804D01*
X1028700Y590804D02*
X1028700Y602996D01*
X1054100Y602996D02*
X1054100Y590804D01*
X1079500Y590804D02*
X1079500Y602996D01*
X1104900Y602996D02*
X1104900Y590804D01*
X1130300Y590804D02*
X1130300Y602996D01*
X1155700Y602996D02*
X1155700Y590804D01*
X1181100Y590804D02*
X1181100Y602996D01*
X254000Y832104D02*
X254000Y844296D01*
X279400Y844296D02*
X279400Y832104D01*
X406400Y832104D02*
X406400Y844296D01*
X406400Y908304D02*
X406400Y920496D01*
X304800Y844296D02*
X304800Y832104D01*
X330200Y832104D02*
X330200Y844296D01*
X381000Y844296D02*
X381000Y832104D01*
X355600Y832104D02*
X355600Y844296D01*
X381000Y908304D02*
X381000Y920496D01*
X355600Y920496D02*
X355600Y908304D01*
X330200Y908304D02*
X330200Y920496D01*
X304800Y920496D02*
X304800Y908304D01*
X279400Y908304D02*
X279400Y920496D01*
X254000Y920496D02*
X254000Y908304D01*
X469900Y959104D02*
X469900Y971296D01*
X495300Y971296D02*
X495300Y959104D01*
X622300Y959104D02*
X622300Y971296D01*
X647700Y971296D02*
X647700Y959104D01*
X520700Y959104D02*
X520700Y971296D01*
X546100Y971296D02*
X546100Y959104D01*
X596900Y959104D02*
X596900Y971296D01*
X571500Y971296D02*
X571500Y959104D01*
X647700Y1035304D02*
X647700Y1047496D01*
X622300Y1047496D02*
X622300Y1035304D01*
X596900Y1035304D02*
X596900Y1047496D01*
X571500Y1047496D02*
X571500Y1035304D01*
X546100Y1035304D02*
X546100Y1047496D01*
X520700Y1047496D02*
X520700Y1035304D01*
X495300Y1035304D02*
X495300Y1047496D01*
X469900Y1047496D02*
X469900Y1035304D01*
X304800Y348996D02*
X304800Y336804D01*
X330200Y336804D02*
X330200Y348996D01*
X457200Y348996D02*
X457200Y336804D01*
X482600Y336804D02*
X482600Y348996D01*
X355600Y348996D02*
X355600Y336804D01*
X381000Y336804D02*
X381000Y348996D01*
X431800Y348996D02*
X431800Y336804D01*
X406400Y336804D02*
X406400Y348996D01*
X508000Y348996D02*
X508000Y336804D01*
X533400Y336804D02*
X533400Y348996D01*
X533400Y413004D02*
X533400Y425196D01*
X508000Y425196D02*
X508000Y413004D01*
X482600Y413004D02*
X482600Y425196D01*
X457200Y425196D02*
X457200Y413004D01*
X431800Y413004D02*
X431800Y425196D01*
X406400Y425196D02*
X406400Y413004D01*
X381000Y413004D02*
X381000Y425196D01*
X355600Y425196D02*
X355600Y413004D01*
X330200Y413004D02*
X330200Y425196D01*
X304800Y425196D02*
X304800Y413004D01*
X304800Y183896D02*
X304800Y171704D01*
X330200Y171704D02*
X330200Y183896D01*
X457200Y183896D02*
X457200Y171704D01*
X482600Y171704D02*
X482600Y183896D01*
X355600Y183896D02*
X355600Y171704D01*
X381000Y171704D02*
X381000Y183896D01*
X431800Y183896D02*
X431800Y171704D01*
X406400Y171704D02*
X406400Y183896D01*
X508000Y183896D02*
X508000Y171704D01*
X533400Y171704D02*
X533400Y183896D01*
X533400Y247904D02*
X533400Y260096D01*
X508000Y260096D02*
X508000Y247904D01*
X482600Y247904D02*
X482600Y260096D01*
X457200Y260096D02*
X457200Y247904D01*
X431800Y247904D02*
X431800Y260096D01*
X406400Y260096D02*
X406400Y247904D01*
X381000Y247904D02*
X381000Y260096D01*
X355600Y260096D02*
X355600Y247904D01*
X330200Y247904D02*
X330200Y260096D01*
X304800Y260096D02*
X304800Y247904D01*
X495300Y832104D02*
X495300Y844296D01*
X520700Y844296D02*
X520700Y832104D01*
X647700Y832104D02*
X647700Y844296D01*
X647700Y908304D02*
X647700Y920496D01*
X546100Y844296D02*
X546100Y832104D01*
X571500Y832104D02*
X571500Y844296D01*
X622300Y844296D02*
X622300Y832104D01*
X596900Y832104D02*
X596900Y844296D01*
X622300Y908304D02*
X622300Y920496D01*
X596900Y920496D02*
X596900Y908304D01*
X571500Y908304D02*
X571500Y920496D01*
X546100Y920496D02*
X546100Y908304D01*
X520700Y908304D02*
X520700Y920496D01*
X495300Y920496D02*
X495300Y908304D01*
X304800Y590296D02*
X304800Y578104D01*
X330200Y578104D02*
X330200Y590296D01*
X457200Y590296D02*
X457200Y578104D01*
X482600Y578104D02*
X482600Y590296D01*
X355600Y590296D02*
X355600Y578104D01*
X381000Y578104D02*
X381000Y590296D01*
X431800Y590296D02*
X431800Y578104D01*
X406400Y578104D02*
X406400Y590296D01*
X508000Y590296D02*
X508000Y578104D01*
X533400Y578104D02*
X533400Y590296D01*
X533400Y654304D02*
X533400Y666496D01*
X508000Y666496D02*
X508000Y654304D01*
X482600Y654304D02*
X482600Y666496D01*
X457200Y666496D02*
X457200Y654304D01*
X431800Y654304D02*
X431800Y666496D01*
X406400Y666496D02*
X406400Y654304D01*
X381000Y654304D02*
X381000Y666496D01*
X355600Y666496D02*
X355600Y654304D01*
X330200Y654304D02*
X330200Y666496D01*
X304800Y666496D02*
X304800Y654304D01*
X330200Y501396D02*
X330200Y489204D01*
X355600Y489204D02*
X355600Y501396D01*
X381000Y501396D02*
X381000Y489204D01*
X406400Y489204D02*
X406400Y501396D01*
X431800Y501396D02*
X431800Y489204D01*
X457200Y489204D02*
X457200Y501396D01*
X482600Y501396D02*
X482600Y489204D01*
X508000Y489204D02*
X508000Y501396D01*
X533400Y501396D02*
X533400Y489204D01*
X330200Y743204D02*
X330200Y755396D01*
X355600Y755396D02*
X355600Y743204D01*
X381000Y743204D02*
X381000Y755396D01*
X406400Y755396D02*
X406400Y743204D01*
X431800Y743204D02*
X431800Y755396D01*
X457200Y755396D02*
X457200Y743204D01*
X482600Y743204D02*
X482600Y755396D01*
X508000Y755396D02*
X508000Y743204D01*
X533400Y743204D02*
X533400Y755396D01*
X254000Y959104D02*
X254000Y971296D01*
X279400Y971296D02*
X279400Y959104D01*
X406400Y959104D02*
X406400Y971296D01*
X406400Y1035304D02*
X406400Y1047496D01*
X304800Y971296D02*
X304800Y959104D01*
X330200Y959104D02*
X330200Y971296D01*
X381000Y971296D02*
X381000Y959104D01*
X355600Y959104D02*
X355600Y971296D01*
X381000Y1035304D02*
X381000Y1047496D01*
X355600Y1047496D02*
X355600Y1035304D01*
X330200Y1035304D02*
X330200Y1047496D01*
X304800Y1047496D02*
X304800Y1035304D01*
X279400Y1035304D02*
X279400Y1047496D01*
X254000Y1047496D02*
X254000Y1035304D01*
D13*
X1562100Y203200D02*
X1727200Y38100D01*
X1562100Y203200D02*
X1257300Y203200D01*
X76200Y965200D02*
X50800Y965200D01*
X76200Y965200D02*
X101600Y965200D01*
X279400Y1041400D02*
X304800Y1041400D01*
X136525Y930275D02*
X101600Y965200D01*
X136525Y930275D02*
X263525Y930275D01*
X279400Y914400D01*
X546100Y965200D02*
X571500Y965200D01*
X587375Y981075D01*
X631825Y981075D01*
X647700Y965200D01*
X381000Y1041400D02*
X355600Y1041400D01*
X530225Y981075D02*
X546100Y965200D01*
X530225Y981075D02*
X422275Y981075D01*
X406400Y965200D01*
X320675Y1025525D02*
X304800Y1041400D01*
X320675Y1025525D02*
X339725Y1025525D01*
X355600Y1041400D01*
X76200Y177800D02*
X50800Y177800D01*
X76200Y177800D02*
X101600Y177800D01*
X304800Y200025D02*
X304800Y238125D01*
X304800Y200025D02*
X304800Y177800D01*
X304800Y238125D02*
X314325Y238125D01*
X330200Y254000D01*
X304800Y177800D02*
X101600Y177800D01*
X511175Y200025D02*
X533400Y177800D01*
X511175Y200025D02*
X304800Y200025D01*
X1193800Y965200D02*
X1257300Y901700D01*
X1193800Y965200D02*
X647700Y965200D01*
X76200Y939800D02*
X50800Y939800D01*
X76200Y939800D02*
X101600Y939800D01*
X454025Y1057275D02*
X469900Y1041400D01*
X454025Y1057275D02*
X269875Y1057275D01*
X254000Y1041400D01*
X76200Y203200D02*
X50800Y203200D01*
X254000Y203200D02*
X304800Y254000D01*
X254000Y203200D02*
X101600Y203200D01*
X76200Y203200D01*
X254000Y854075D02*
X254000Y914400D01*
X254000Y854075D02*
X247650Y854075D01*
X244475Y850900D01*
X244475Y749300D01*
X330200Y749300D01*
X1181100Y76200D02*
X1219200Y38100D01*
X1549400Y38100D01*
X511175Y822325D02*
X495300Y838200D01*
X511175Y822325D02*
X923925Y822325D01*
X927100Y825500D01*
X968375Y606425D02*
X977900Y596900D01*
X968375Y606425D02*
X946150Y606425D01*
X488950Y914400D02*
X479425Y923925D01*
X488950Y914400D02*
X495300Y914400D01*
D14*
X946150Y606425D03*
X479425Y923925D03*
D13*
X63500Y622300D02*
X50800Y635000D01*
X63500Y622300D02*
X292100Y622300D01*
X330200Y584200D01*
X63500Y647700D02*
X50800Y660400D01*
X63500Y647700D02*
X285750Y647700D01*
X314325Y619125D01*
X327025Y619125D01*
D14*
X327025Y619125D03*
D13*
X63500Y698500D02*
X50800Y711200D01*
X63500Y698500D02*
X361950Y698500D01*
D14*
X361950Y698500D03*
D13*
X63500Y723900D02*
X50800Y736600D01*
X63500Y723900D02*
X412750Y723900D01*
D14*
X412750Y723900D03*
D13*
X63500Y749300D02*
X50800Y762000D01*
X63500Y749300D02*
X234950Y749300D01*
X254000Y730250D01*
X438150Y730250D01*
D14*
X438150Y730250D03*
D13*
X311150Y612775D02*
X282575Y641350D01*
X311150Y612775D02*
X454025Y612775D01*
X482600Y584200D01*
D14*
X282575Y641350D03*
D13*
X50800Y685800D02*
X38100Y673100D01*
X38100Y495300D01*
X307975Y495300D01*
X323850Y479425D01*
X390525Y479425D01*
X406400Y495300D01*
X533400Y495300D02*
X533400Y568325D01*
X523875Y568325D01*
X508000Y584200D01*
X50800Y812800D02*
X38100Y800100D01*
X38100Y698500D01*
X53975Y698500D01*
X63500Y688975D01*
X63500Y673100D01*
X269875Y673100D01*
X314325Y628650D01*
X463550Y628650D01*
X508000Y584200D01*
X330200Y342900D02*
X285750Y298450D01*
X187325Y298450D01*
D14*
X187325Y298450D03*
D13*
X355600Y269875D02*
X371475Y285750D01*
X355600Y269875D02*
X107950Y269875D01*
X104775Y266700D01*
X63500Y266700D01*
X50800Y254000D01*
D14*
X371475Y285750D03*
D13*
X381000Y292100D02*
X63500Y292100D01*
X50800Y279400D01*
D14*
X381000Y292100D03*
D13*
X466725Y358775D02*
X482600Y342900D01*
X466725Y358775D02*
X146050Y358775D01*
X104775Y317500D01*
X63500Y317500D01*
X50800Y304800D01*
X511175Y441325D02*
X533400Y419100D01*
X511175Y441325D02*
X127000Y441325D01*
X104775Y419100D01*
X47625Y419100D01*
X38100Y409575D01*
X38100Y330200D01*
X50800Y330200D01*
X476250Y365125D02*
X479425Y368300D01*
X476250Y365125D02*
X127000Y365125D01*
X104775Y342900D01*
X63500Y342900D01*
X50800Y355600D01*
D14*
X479425Y368300D03*
D13*
X431800Y419100D02*
X415925Y434975D01*
X400050Y434975D01*
X390525Y425450D01*
X390525Y371475D01*
X107950Y371475D01*
X104775Y368300D01*
X63500Y368300D01*
X50800Y381000D01*
X355600Y393700D02*
X381000Y419100D01*
X355600Y393700D02*
X63500Y393700D01*
X50800Y406400D01*
X365125Y161925D02*
X381000Y177800D01*
X365125Y161925D02*
X50800Y161925D01*
X31750Y180975D01*
X31750Y457200D01*
X50800Y457200D01*
X342900Y469900D02*
X365125Y447675D01*
X342900Y469900D02*
X63500Y469900D01*
X50800Y482600D01*
D14*
X365125Y447675D03*
D13*
X482600Y177800D02*
X460375Y155575D01*
X355600Y155575D01*
D14*
X355600Y155575D03*
D13*
X542925Y438150D02*
X492125Y488950D01*
X492125Y514350D01*
X111125Y514350D01*
X104775Y520700D01*
X63500Y520700D01*
X50800Y533400D01*
D14*
X542925Y438150D03*
D13*
X473075Y520700D02*
X130175Y520700D01*
X104775Y546100D01*
X63500Y546100D01*
X50800Y558800D01*
D14*
X473075Y520700D03*
D13*
X466725Y527050D02*
X425450Y568325D01*
X107950Y568325D01*
X104775Y571500D01*
X63500Y571500D01*
X50800Y584200D01*
D14*
X466725Y527050D03*
D13*
X381000Y285750D02*
X381000Y254000D01*
X381000Y285750D02*
X387350Y285750D01*
X393700Y292100D01*
X393700Y301625D01*
X298450Y301625D01*
D14*
X298450Y301625D03*
D13*
X76200Y762000D02*
X63500Y774700D01*
X63500Y927100D01*
X47625Y927100D01*
X38100Y936625D01*
X38100Y977900D01*
X219075Y977900D01*
X247650Y949325D01*
X339725Y949325D01*
X355600Y965200D01*
X1651000Y38100D02*
X1660525Y28575D01*
X1743075Y28575D01*
X1752600Y38100D01*
X1155700Y76200D02*
X1155700Y203200D01*
X1130300Y203200D02*
X1130300Y76200D01*
X450850Y374650D02*
X406400Y419100D01*
X450850Y374650D02*
X936625Y374650D01*
X1000125Y311150D01*
X1092200Y311150D01*
D14*
X1092200Y311150D03*
D13*
X495300Y381000D02*
X457200Y419100D01*
X495300Y381000D02*
X1050925Y381000D01*
X1069975Y361950D01*
X1069975Y317500D01*
X1076325Y317500D01*
X1104900Y203200D02*
X1104900Y76200D01*
D14*
X1076325Y317500D03*
D13*
X1079500Y203200D02*
X1079500Y76200D01*
X523875Y403225D02*
X508000Y419100D01*
X523875Y403225D02*
X704850Y403225D01*
X939800Y638175D01*
X1069975Y638175D01*
D14*
X1069975Y638175D03*
D13*
X1054100Y203200D02*
X1054100Y76200D01*
X546100Y304800D02*
X508000Y342900D01*
X546100Y304800D02*
X1035050Y304800D01*
D14*
X1035050Y304800D03*
D13*
X1028700Y203200D02*
X1028700Y76200D01*
X501650Y298450D02*
X457200Y342900D01*
X501650Y298450D02*
X1016000Y298450D01*
D14*
X1016000Y298450D03*
D13*
X1003300Y203200D02*
X1003300Y76200D01*
X457200Y292100D02*
X406400Y342900D01*
X457200Y292100D02*
X984250Y292100D01*
D14*
X984250Y292100D03*
D13*
X977900Y203200D02*
X977900Y76200D01*
X371475Y238125D02*
X355600Y254000D01*
X371475Y238125D02*
X981075Y238125D01*
X1009650Y266700D01*
D14*
X1009650Y266700D03*
D13*
X438150Y285750D02*
X406400Y254000D01*
X438150Y285750D02*
X1012825Y285750D01*
X1025525Y298450D01*
D14*
X1025525Y298450D03*
D13*
X482600Y279400D02*
X457200Y254000D01*
X482600Y279400D02*
X1076325Y279400D01*
X1104900Y307975D01*
X1104900Y355600D01*
X1057275Y403225D01*
D14*
X1057275Y403225D03*
D13*
X527050Y273050D02*
X508000Y254000D01*
X527050Y273050D02*
X1060450Y273050D01*
X1092200Y584200D02*
X1079500Y596900D01*
X1092200Y584200D02*
X1095375Y584200D01*
X1139825Y539750D01*
X1139825Y273050D01*
X1060450Y273050D01*
D14*
X1060450Y273050D03*
D13*
X523875Y161925D02*
X508000Y177800D01*
X523875Y161925D02*
X866775Y161925D01*
X936625Y231775D01*
X1104900Y596900D02*
X1089025Y612775D01*
X952500Y612775D01*
X498475Y936625D02*
X469900Y965200D01*
X498475Y936625D02*
X917575Y936625D01*
X952500Y901700D01*
D14*
X936625Y231775D03*
X952500Y612775D03*
D13*
X542925Y942975D02*
X520700Y965200D01*
X542925Y942975D02*
X933450Y942975D01*
X962025Y914400D01*
X962025Y885825D01*
X942975Y885825D01*
X927100Y901700D01*
X1133475Y619125D02*
X1155700Y596900D01*
X1133475Y619125D02*
X930275Y619125D01*
D14*
X930275Y619125D03*
D13*
X600075Y987425D02*
X638175Y1025525D01*
X1101725Y1025525D01*
X1130300Y1054100D01*
X371475Y193675D02*
X355600Y177800D01*
X371475Y193675D02*
X488950Y193675D01*
X498475Y184150D01*
X498475Y155575D01*
X908050Y155575D01*
X1019175Y266700D01*
X1146175Y266700D01*
X1171575Y292100D01*
X1171575Y596900D01*
X1181100Y596900D01*
X1270000Y914400D02*
X1130300Y1054100D01*
X1270000Y914400D02*
X1270000Y596900D01*
X1181100Y596900D01*
D14*
X600075Y987425D03*
D13*
X390525Y695325D02*
X355600Y660400D01*
X390525Y695325D02*
X1206500Y695325D01*
X1216025Y685800D01*
X1216025Y657225D01*
X1196975Y657225D01*
X1181100Y673100D01*
X409575Y688975D02*
X381000Y660400D01*
X409575Y688975D02*
X1190625Y688975D01*
X1206500Y673100D01*
X422275Y644525D02*
X406400Y660400D01*
X422275Y644525D02*
X1212850Y644525D01*
X1231900Y663575D01*
X1231900Y673100D01*
X466725Y714375D02*
X431800Y749300D01*
X466725Y714375D02*
X1146175Y714375D01*
X1257300Y825500D01*
X485775Y720725D02*
X457200Y749300D01*
X485775Y720725D02*
X1127125Y720725D01*
X1231900Y825500D01*
X504825Y727075D02*
X482600Y749300D01*
X504825Y727075D02*
X1108075Y727075D01*
X1206500Y825500D01*
X523875Y733425D02*
X508000Y749300D01*
X523875Y733425D02*
X539750Y733425D01*
X568325Y762000D01*
X568325Y803275D01*
X908050Y803275D01*
X914400Y796925D01*
X1152525Y796925D01*
X1181100Y825500D01*
X533400Y809625D02*
X533400Y749300D01*
X533400Y809625D02*
X911225Y809625D01*
X917575Y803275D01*
X1133475Y803275D01*
X1155700Y825500D01*
X301625Y815975D02*
X279400Y838200D01*
X301625Y815975D02*
X914400Y815975D01*
X920750Y809625D01*
X1063625Y809625D01*
X1079500Y825500D01*
X346075Y822325D02*
X330200Y838200D01*
X346075Y822325D02*
X457200Y822325D01*
X488950Y854075D01*
X923925Y854075D01*
X952500Y825500D01*
X269875Y854075D02*
X254000Y838200D01*
X269875Y854075D02*
X365125Y854075D01*
X381000Y838200D01*
X409575Y860425D02*
X355600Y914400D01*
X409575Y860425D02*
X1095375Y860425D01*
X1130300Y825500D01*
X927100Y558800D02*
X1130300Y355600D01*
X927100Y558800D02*
X923925Y558800D01*
D14*
X923925Y558800D03*
D13*
X346075Y930275D02*
X330200Y914400D01*
X346075Y930275D02*
X631825Y930275D01*
X647700Y914400D01*
X279400Y965200D02*
X254000Y965200D01*
X365125Y981075D02*
X381000Y965200D01*
X365125Y981075D02*
X295275Y981075D01*
X279400Y965200D01*
M02*
