G04 EAGLE Gerber RS-274X export*
G75*
%MOMM*%
%FSLAX34Y34*%
%LPD*%
%INSilkscreen Top*%
%IPPOS*%
%AMOC8*
5,1,8,0,0,1.08239X$1,22.5*%
G01*
%ADD10C,0.203200*%
%ADD11C,0.152400*%
%ADD12C,0.254000*%
%ADD13C,0.050800*%
%ADD14C,0.076200*%
%ADD15C,0.127000*%
%ADD16R,0.863600X0.609600*%
%ADD17C,0.177800*%
%ADD18C,0.101600*%


D10*
X255016Y1129304D02*
X255016Y1125406D01*
X262812Y1117610D01*
X270608Y1125406D01*
X270608Y1129304D01*
X262812Y1117610D02*
X262812Y1105916D01*
X278404Y1105916D02*
X278404Y1121508D01*
X286200Y1129304D01*
X293996Y1121508D01*
X293996Y1105916D01*
X293996Y1117610D02*
X278404Y1117610D01*
X313486Y1129304D02*
X317384Y1125406D01*
X313486Y1129304D02*
X305690Y1129304D01*
X301792Y1125406D01*
X301792Y1109814D01*
X305690Y1105916D01*
X313486Y1105916D01*
X317384Y1109814D01*
X336874Y1129304D02*
X340772Y1125406D01*
X336874Y1129304D02*
X329078Y1129304D01*
X325180Y1125406D01*
X325180Y1109814D01*
X329078Y1105916D01*
X336874Y1105916D01*
X340772Y1109814D01*
X348568Y1121508D02*
X356364Y1129304D01*
X356364Y1105916D01*
X348568Y1105916D02*
X364160Y1105916D01*
X395344Y1105916D02*
X395344Y1129304D01*
X403140Y1121508D01*
X410936Y1129304D01*
X410936Y1105916D01*
X418732Y1129304D02*
X434324Y1129304D01*
X418732Y1129304D02*
X418732Y1105916D01*
X434324Y1105916D01*
X426528Y1117610D02*
X418732Y1117610D01*
X442120Y1105916D02*
X442120Y1129304D01*
X449916Y1121508D01*
X457712Y1129304D01*
X457712Y1105916D01*
X469406Y1129304D02*
X477202Y1129304D01*
X469406Y1129304D02*
X465508Y1125406D01*
X465508Y1109814D01*
X469406Y1105916D01*
X477202Y1105916D01*
X481100Y1109814D01*
X481100Y1125406D01*
X477202Y1129304D01*
X488896Y1129304D02*
X488896Y1105916D01*
X488896Y1129304D02*
X500590Y1129304D01*
X504488Y1125406D01*
X504488Y1117610D01*
X500590Y1113712D01*
X488896Y1113712D01*
X496692Y1113712D02*
X504488Y1105916D01*
X512284Y1125406D02*
X512284Y1129304D01*
X512284Y1125406D02*
X520080Y1117610D01*
X527876Y1125406D01*
X527876Y1129304D01*
X520080Y1117610D02*
X520080Y1105916D01*
X559060Y1105916D02*
X559060Y1129304D01*
X570754Y1129304D01*
X574652Y1125406D01*
X574652Y1121508D01*
X570754Y1117610D01*
X574652Y1113712D01*
X574652Y1109814D01*
X570754Y1105916D01*
X559060Y1105916D01*
X559060Y1117610D02*
X570754Y1117610D01*
X586346Y1129304D02*
X594142Y1129304D01*
X586346Y1129304D02*
X582448Y1125406D01*
X582448Y1109814D01*
X586346Y1105916D01*
X594142Y1105916D01*
X598040Y1109814D01*
X598040Y1125406D01*
X594142Y1129304D01*
X605836Y1121508D02*
X605836Y1105916D01*
X605836Y1121508D02*
X613632Y1129304D01*
X621428Y1121508D01*
X621428Y1105916D01*
X621428Y1117610D02*
X605836Y1117610D01*
X629224Y1105916D02*
X629224Y1129304D01*
X640917Y1129304D01*
X644815Y1125406D01*
X644815Y1117610D01*
X640917Y1113712D01*
X629224Y1113712D01*
X637019Y1113712D02*
X644815Y1105916D01*
X652611Y1105916D02*
X652611Y1129304D01*
X652611Y1105916D02*
X664305Y1105916D01*
X668203Y1109814D01*
X668203Y1125406D01*
X664305Y1129304D01*
X652611Y1129304D01*
X699387Y1129304D02*
X699387Y1113712D01*
X707183Y1105916D01*
X714979Y1113712D01*
X714979Y1129304D01*
X722775Y1121508D02*
X730571Y1129304D01*
X730571Y1105916D01*
X722775Y1105916D02*
X738367Y1105916D01*
X746163Y1105916D02*
X746163Y1109814D01*
X750061Y1109814D01*
X750061Y1105916D01*
X746163Y1105916D01*
X757857Y1109814D02*
X757857Y1125406D01*
X761755Y1129304D01*
X769551Y1129304D01*
X773449Y1125406D01*
X773449Y1109814D01*
X769551Y1105916D01*
X761755Y1105916D01*
X757857Y1109814D01*
X773449Y1125406D01*
X266710Y13716D02*
X258914Y13716D01*
X266710Y13716D02*
X270608Y17614D01*
X270608Y25410D01*
X266710Y29308D01*
X258914Y29308D01*
X255016Y25410D01*
X255016Y17614D01*
X258914Y13716D01*
X278404Y13716D02*
X278404Y29308D01*
X290098Y29308D01*
X293996Y25410D01*
X293996Y13716D01*
X305690Y13716D02*
X313486Y13716D01*
X305690Y13716D02*
X301792Y17614D01*
X301792Y25410D01*
X305690Y29308D01*
X313486Y29308D01*
X317384Y25410D01*
X317384Y21512D01*
X301792Y21512D01*
X325180Y29308D02*
X325180Y5920D01*
X325180Y29308D02*
X336874Y29308D01*
X340772Y25410D01*
X340772Y17614D01*
X336874Y13716D01*
X325180Y13716D01*
X352466Y29308D02*
X360262Y29308D01*
X364160Y25410D01*
X364160Y13716D01*
X352466Y13716D01*
X348568Y17614D01*
X352466Y21512D01*
X364160Y21512D01*
X379752Y5920D02*
X383650Y5920D01*
X387548Y9818D01*
X387548Y29308D01*
X375854Y29308D01*
X371956Y25410D01*
X371956Y17614D01*
X375854Y13716D01*
X387548Y13716D01*
X399242Y13716D02*
X407038Y13716D01*
X399242Y13716D02*
X395344Y17614D01*
X395344Y25410D01*
X399242Y29308D01*
X407038Y29308D01*
X410936Y25410D01*
X410936Y21512D01*
X395344Y21512D01*
X422630Y29308D02*
X434324Y29308D01*
X422630Y29308D02*
X418732Y25410D01*
X418732Y17614D01*
X422630Y13716D01*
X434324Y13716D01*
X446018Y13716D02*
X453814Y13716D01*
X457712Y17614D01*
X457712Y25410D01*
X453814Y29308D01*
X446018Y29308D01*
X442120Y25410D01*
X442120Y17614D01*
X446018Y13716D01*
X465508Y13716D02*
X465508Y29308D01*
X469406Y29308D01*
X473304Y25410D01*
X473304Y13716D01*
X473304Y25410D02*
X477202Y29308D01*
X481100Y25410D01*
X481100Y13716D01*
X488896Y5920D02*
X488896Y29308D01*
X500590Y29308D01*
X504488Y25410D01*
X504488Y17614D01*
X500590Y13716D01*
X488896Y13716D01*
X512284Y17614D02*
X512284Y29308D01*
X512284Y17614D02*
X516182Y13716D01*
X527876Y13716D01*
X527876Y29308D01*
X539570Y33206D02*
X539570Y17614D01*
X543468Y13716D01*
X543468Y29308D02*
X535672Y29308D01*
X555162Y13716D02*
X562958Y13716D01*
X555162Y13716D02*
X551264Y17614D01*
X551264Y25410D01*
X555162Y29308D01*
X562958Y29308D01*
X566856Y25410D01*
X566856Y21512D01*
X551264Y21512D01*
X574652Y13716D02*
X574652Y29308D01*
X574652Y21512D02*
X582448Y29308D01*
X586346Y29308D01*
X594142Y17614D02*
X594142Y13716D01*
X594142Y17614D02*
X598040Y17614D01*
X598040Y13716D01*
X594142Y13716D01*
X609733Y29308D02*
X621427Y29308D01*
X609733Y29308D02*
X605836Y25410D01*
X605836Y17614D01*
X609733Y13716D01*
X621427Y13716D01*
X633121Y13716D02*
X640917Y13716D01*
X644815Y17614D01*
X644815Y25410D01*
X640917Y29308D01*
X633121Y29308D01*
X629223Y25410D01*
X629223Y17614D01*
X633121Y13716D01*
X652611Y13716D02*
X652611Y29308D01*
X656509Y29308D01*
X660407Y25410D01*
X660407Y13716D01*
X660407Y25410D02*
X664305Y29308D01*
X668203Y25410D01*
X668203Y13716D01*
D11*
X13462Y79674D02*
X13462Y90520D01*
X16174Y93232D01*
X21597Y93232D01*
X24309Y90520D01*
X24309Y79674D01*
X21597Y76962D01*
X16174Y76962D01*
X13462Y79674D01*
X24309Y90520D01*
D12*
X-76200Y986790D02*
X-67310Y996950D01*
X-12700Y996950D01*
X-13970Y986790D02*
X-67310Y986790D01*
X-76200Y986790D02*
X-76200Y976630D01*
X-76200Y166370D01*
X-76200Y156210D01*
X-67310Y156210D02*
X-13970Y156210D01*
X-67310Y146050D02*
X-76200Y156210D01*
X-67310Y146050D02*
X-12700Y146050D01*
D13*
X-2200Y102900D02*
X-2200Y1041370D01*
D12*
X-12600Y1041370D02*
X-12600Y102900D01*
X-12700Y102000D02*
X50800Y101999D01*
X50800Y1041400D02*
X-1270Y1041400D01*
X-12700Y1041400D01*
X50800Y101999D02*
X50800Y101601D01*
X50800Y101999D02*
X50800Y152400D01*
X38100Y152400D01*
X12700Y152400D01*
X-1270Y139700D01*
X50800Y990600D02*
X50800Y1041400D01*
X50800Y990600D02*
X38100Y990600D01*
X12700Y990600D01*
X-1270Y1003300D01*
X38100Y990600D02*
X38100Y152400D01*
X-67310Y156210D02*
X-76200Y166370D01*
X-67310Y986790D02*
X-67310Y996950D01*
X-67310Y986790D02*
X-67310Y156210D01*
X-67310Y146050D01*
X-76200Y976630D02*
X-67310Y986790D01*
X-1270Y139700D02*
X-1270Y102870D01*
X-1270Y1003300D02*
X-1270Y1041400D01*
X12700Y1016064D02*
X12704Y1016376D01*
X12715Y1016687D01*
X12734Y1016998D01*
X12761Y1017309D01*
X12796Y1017619D01*
X12837Y1017927D01*
X12887Y1018235D01*
X12944Y1018542D01*
X13009Y1018847D01*
X13081Y1019150D01*
X13160Y1019451D01*
X13247Y1019751D01*
X13341Y1020048D01*
X13442Y1020343D01*
X13551Y1020635D01*
X13667Y1020924D01*
X13790Y1021211D01*
X13919Y1021494D01*
X14056Y1021774D01*
X14200Y1022051D01*
X14350Y1022324D01*
X14507Y1022593D01*
X14670Y1022858D01*
X14840Y1023120D01*
X15017Y1023377D01*
X15199Y1023629D01*
X15388Y1023877D01*
X15583Y1024121D01*
X15783Y1024359D01*
X15990Y1024593D01*
X16202Y1024821D01*
X16420Y1025044D01*
X16643Y1025262D01*
X16871Y1025474D01*
X17105Y1025681D01*
X17343Y1025881D01*
X17587Y1026076D01*
X17835Y1026265D01*
X18087Y1026447D01*
X18344Y1026624D01*
X18606Y1026794D01*
X18871Y1026957D01*
X19140Y1027114D01*
X19413Y1027264D01*
X19690Y1027408D01*
X19970Y1027545D01*
X20253Y1027674D01*
X20540Y1027797D01*
X20829Y1027913D01*
X21121Y1028022D01*
X21416Y1028123D01*
X21713Y1028217D01*
X22013Y1028304D01*
X22314Y1028383D01*
X22617Y1028455D01*
X22922Y1028520D01*
X23229Y1028577D01*
X23537Y1028627D01*
X23845Y1028668D01*
X24155Y1028703D01*
X24466Y1028730D01*
X24777Y1028749D01*
X25088Y1028760D01*
X25400Y1028764D01*
X25712Y1028760D01*
X26023Y1028749D01*
X26334Y1028730D01*
X26645Y1028703D01*
X26955Y1028668D01*
X27263Y1028627D01*
X27571Y1028577D01*
X27878Y1028520D01*
X28183Y1028455D01*
X28486Y1028383D01*
X28787Y1028304D01*
X29087Y1028217D01*
X29384Y1028123D01*
X29679Y1028022D01*
X29971Y1027913D01*
X30260Y1027797D01*
X30547Y1027674D01*
X30830Y1027545D01*
X31110Y1027408D01*
X31387Y1027264D01*
X31660Y1027114D01*
X31929Y1026957D01*
X32194Y1026794D01*
X32456Y1026624D01*
X32713Y1026447D01*
X32965Y1026265D01*
X33213Y1026076D01*
X33457Y1025881D01*
X33695Y1025681D01*
X33929Y1025474D01*
X34157Y1025262D01*
X34380Y1025044D01*
X34598Y1024821D01*
X34810Y1024593D01*
X35017Y1024359D01*
X35217Y1024121D01*
X35412Y1023877D01*
X35601Y1023629D01*
X35783Y1023377D01*
X35960Y1023120D01*
X36130Y1022858D01*
X36293Y1022593D01*
X36450Y1022324D01*
X36600Y1022051D01*
X36744Y1021774D01*
X36881Y1021494D01*
X37010Y1021211D01*
X37133Y1020924D01*
X37249Y1020635D01*
X37358Y1020343D01*
X37459Y1020048D01*
X37553Y1019751D01*
X37640Y1019451D01*
X37719Y1019150D01*
X37791Y1018847D01*
X37856Y1018542D01*
X37913Y1018235D01*
X37963Y1017927D01*
X38004Y1017619D01*
X38039Y1017309D01*
X38066Y1016998D01*
X38085Y1016687D01*
X38096Y1016376D01*
X38100Y1016064D01*
X38096Y1015752D01*
X38085Y1015441D01*
X38066Y1015130D01*
X38039Y1014819D01*
X38004Y1014509D01*
X37963Y1014201D01*
X37913Y1013893D01*
X37856Y1013586D01*
X37791Y1013281D01*
X37719Y1012978D01*
X37640Y1012677D01*
X37553Y1012377D01*
X37459Y1012080D01*
X37358Y1011785D01*
X37249Y1011493D01*
X37133Y1011204D01*
X37010Y1010917D01*
X36881Y1010634D01*
X36744Y1010354D01*
X36600Y1010077D01*
X36450Y1009804D01*
X36293Y1009535D01*
X36130Y1009270D01*
X35960Y1009008D01*
X35783Y1008751D01*
X35601Y1008499D01*
X35412Y1008251D01*
X35217Y1008007D01*
X35017Y1007769D01*
X34810Y1007535D01*
X34598Y1007307D01*
X34380Y1007084D01*
X34157Y1006866D01*
X33929Y1006654D01*
X33695Y1006447D01*
X33457Y1006247D01*
X33213Y1006052D01*
X32965Y1005863D01*
X32713Y1005681D01*
X32456Y1005504D01*
X32194Y1005334D01*
X31929Y1005171D01*
X31660Y1005014D01*
X31387Y1004864D01*
X31110Y1004720D01*
X30830Y1004583D01*
X30547Y1004454D01*
X30260Y1004331D01*
X29971Y1004215D01*
X29679Y1004106D01*
X29384Y1004005D01*
X29087Y1003911D01*
X28787Y1003824D01*
X28486Y1003745D01*
X28183Y1003673D01*
X27878Y1003608D01*
X27571Y1003551D01*
X27263Y1003501D01*
X26955Y1003460D01*
X26645Y1003425D01*
X26334Y1003398D01*
X26023Y1003379D01*
X25712Y1003368D01*
X25400Y1003364D01*
X25088Y1003368D01*
X24777Y1003379D01*
X24466Y1003398D01*
X24155Y1003425D01*
X23845Y1003460D01*
X23537Y1003501D01*
X23229Y1003551D01*
X22922Y1003608D01*
X22617Y1003673D01*
X22314Y1003745D01*
X22013Y1003824D01*
X21713Y1003911D01*
X21416Y1004005D01*
X21121Y1004106D01*
X20829Y1004215D01*
X20540Y1004331D01*
X20253Y1004454D01*
X19970Y1004583D01*
X19690Y1004720D01*
X19413Y1004864D01*
X19140Y1005014D01*
X18871Y1005171D01*
X18606Y1005334D01*
X18344Y1005504D01*
X18087Y1005681D01*
X17835Y1005863D01*
X17587Y1006052D01*
X17343Y1006247D01*
X17105Y1006447D01*
X16871Y1006654D01*
X16643Y1006866D01*
X16420Y1007084D01*
X16202Y1007307D01*
X15990Y1007535D01*
X15783Y1007769D01*
X15583Y1008007D01*
X15388Y1008251D01*
X15199Y1008499D01*
X15017Y1008751D01*
X14840Y1009008D01*
X14670Y1009270D01*
X14507Y1009535D01*
X14350Y1009804D01*
X14200Y1010077D01*
X14056Y1010354D01*
X13919Y1010634D01*
X13790Y1010917D01*
X13667Y1011204D01*
X13551Y1011493D01*
X13442Y1011785D01*
X13341Y1012080D01*
X13247Y1012377D01*
X13160Y1012677D01*
X13081Y1012978D01*
X13009Y1013281D01*
X12944Y1013586D01*
X12887Y1013893D01*
X12837Y1014201D01*
X12796Y1014509D01*
X12761Y1014819D01*
X12734Y1015130D01*
X12715Y1015441D01*
X12704Y1015752D01*
X12700Y1016064D01*
X12700Y126936D02*
X12704Y127248D01*
X12715Y127559D01*
X12734Y127870D01*
X12761Y128181D01*
X12796Y128491D01*
X12837Y128799D01*
X12887Y129107D01*
X12944Y129414D01*
X13009Y129719D01*
X13081Y130022D01*
X13160Y130323D01*
X13247Y130623D01*
X13341Y130920D01*
X13442Y131215D01*
X13551Y131507D01*
X13667Y131796D01*
X13790Y132083D01*
X13919Y132366D01*
X14056Y132646D01*
X14200Y132923D01*
X14350Y133196D01*
X14507Y133465D01*
X14670Y133730D01*
X14840Y133992D01*
X15017Y134249D01*
X15199Y134501D01*
X15388Y134749D01*
X15583Y134993D01*
X15783Y135231D01*
X15990Y135465D01*
X16202Y135693D01*
X16420Y135916D01*
X16643Y136134D01*
X16871Y136346D01*
X17105Y136553D01*
X17343Y136753D01*
X17587Y136948D01*
X17835Y137137D01*
X18087Y137319D01*
X18344Y137496D01*
X18606Y137666D01*
X18871Y137829D01*
X19140Y137986D01*
X19413Y138136D01*
X19690Y138280D01*
X19970Y138417D01*
X20253Y138546D01*
X20540Y138669D01*
X20829Y138785D01*
X21121Y138894D01*
X21416Y138995D01*
X21713Y139089D01*
X22013Y139176D01*
X22314Y139255D01*
X22617Y139327D01*
X22922Y139392D01*
X23229Y139449D01*
X23537Y139499D01*
X23845Y139540D01*
X24155Y139575D01*
X24466Y139602D01*
X24777Y139621D01*
X25088Y139632D01*
X25400Y139636D01*
X25712Y139632D01*
X26023Y139621D01*
X26334Y139602D01*
X26645Y139575D01*
X26955Y139540D01*
X27263Y139499D01*
X27571Y139449D01*
X27878Y139392D01*
X28183Y139327D01*
X28486Y139255D01*
X28787Y139176D01*
X29087Y139089D01*
X29384Y138995D01*
X29679Y138894D01*
X29971Y138785D01*
X30260Y138669D01*
X30547Y138546D01*
X30830Y138417D01*
X31110Y138280D01*
X31387Y138136D01*
X31660Y137986D01*
X31929Y137829D01*
X32194Y137666D01*
X32456Y137496D01*
X32713Y137319D01*
X32965Y137137D01*
X33213Y136948D01*
X33457Y136753D01*
X33695Y136553D01*
X33929Y136346D01*
X34157Y136134D01*
X34380Y135916D01*
X34598Y135693D01*
X34810Y135465D01*
X35017Y135231D01*
X35217Y134993D01*
X35412Y134749D01*
X35601Y134501D01*
X35783Y134249D01*
X35960Y133992D01*
X36130Y133730D01*
X36293Y133465D01*
X36450Y133196D01*
X36600Y132923D01*
X36744Y132646D01*
X36881Y132366D01*
X37010Y132083D01*
X37133Y131796D01*
X37249Y131507D01*
X37358Y131215D01*
X37459Y130920D01*
X37553Y130623D01*
X37640Y130323D01*
X37719Y130022D01*
X37791Y129719D01*
X37856Y129414D01*
X37913Y129107D01*
X37963Y128799D01*
X38004Y128491D01*
X38039Y128181D01*
X38066Y127870D01*
X38085Y127559D01*
X38096Y127248D01*
X38100Y126936D01*
X38096Y126624D01*
X38085Y126313D01*
X38066Y126002D01*
X38039Y125691D01*
X38004Y125381D01*
X37963Y125073D01*
X37913Y124765D01*
X37856Y124458D01*
X37791Y124153D01*
X37719Y123850D01*
X37640Y123549D01*
X37553Y123249D01*
X37459Y122952D01*
X37358Y122657D01*
X37249Y122365D01*
X37133Y122076D01*
X37010Y121789D01*
X36881Y121506D01*
X36744Y121226D01*
X36600Y120949D01*
X36450Y120676D01*
X36293Y120407D01*
X36130Y120142D01*
X35960Y119880D01*
X35783Y119623D01*
X35601Y119371D01*
X35412Y119123D01*
X35217Y118879D01*
X35017Y118641D01*
X34810Y118407D01*
X34598Y118179D01*
X34380Y117956D01*
X34157Y117738D01*
X33929Y117526D01*
X33695Y117319D01*
X33457Y117119D01*
X33213Y116924D01*
X32965Y116735D01*
X32713Y116553D01*
X32456Y116376D01*
X32194Y116206D01*
X31929Y116043D01*
X31660Y115886D01*
X31387Y115736D01*
X31110Y115592D01*
X30830Y115455D01*
X30547Y115326D01*
X30260Y115203D01*
X29971Y115087D01*
X29679Y114978D01*
X29384Y114877D01*
X29087Y114783D01*
X28787Y114696D01*
X28486Y114617D01*
X28183Y114545D01*
X27878Y114480D01*
X27571Y114423D01*
X27263Y114373D01*
X26955Y114332D01*
X26645Y114297D01*
X26334Y114270D01*
X26023Y114251D01*
X25712Y114240D01*
X25400Y114236D01*
X25088Y114240D01*
X24777Y114251D01*
X24466Y114270D01*
X24155Y114297D01*
X23845Y114332D01*
X23537Y114373D01*
X23229Y114423D01*
X22922Y114480D01*
X22617Y114545D01*
X22314Y114617D01*
X22013Y114696D01*
X21713Y114783D01*
X21416Y114877D01*
X21121Y114978D01*
X20829Y115087D01*
X20540Y115203D01*
X20253Y115326D01*
X19970Y115455D01*
X19690Y115592D01*
X19413Y115736D01*
X19140Y115886D01*
X18871Y116043D01*
X18606Y116206D01*
X18344Y116376D01*
X18087Y116553D01*
X17835Y116735D01*
X17587Y116924D01*
X17343Y117119D01*
X17105Y117319D01*
X16871Y117526D01*
X16643Y117738D01*
X16420Y117956D01*
X16202Y118179D01*
X15990Y118407D01*
X15783Y118641D01*
X15583Y118879D01*
X15388Y119123D01*
X15199Y119371D01*
X15017Y119623D01*
X14840Y119880D01*
X14670Y120142D01*
X14507Y120407D01*
X14350Y120676D01*
X14200Y120949D01*
X14056Y121226D01*
X13919Y121506D01*
X13790Y121789D01*
X13667Y122076D01*
X13551Y122365D01*
X13442Y122657D01*
X13341Y122952D01*
X13247Y123249D01*
X13160Y123549D01*
X13081Y123850D01*
X13009Y124153D01*
X12944Y124458D01*
X12887Y124765D01*
X12837Y125073D01*
X12796Y125381D01*
X12761Y125691D01*
X12734Y126002D01*
X12715Y126313D01*
X12704Y126624D01*
X12700Y126936D01*
D14*
X28232Y173237D02*
X25775Y175694D01*
X33147Y175694D01*
X33147Y173237D02*
X33147Y178152D01*
D15*
X46728Y160662D02*
X50541Y160662D01*
X52448Y158755D01*
X52448Y153035D01*
X46728Y153035D01*
X44821Y154942D01*
X46728Y156848D01*
X52448Y156848D01*
X70221Y153035D02*
X70221Y164475D01*
X70221Y153035D02*
X75941Y153035D01*
X77848Y154942D01*
X77848Y158755D01*
X75941Y160662D01*
X70221Y160662D01*
X97528Y160662D02*
X103248Y160662D01*
X97528Y160662D02*
X95621Y158755D01*
X95621Y154942D01*
X97528Y153035D01*
X103248Y153035D01*
D14*
X27003Y956963D02*
X25775Y958191D01*
X25775Y960649D01*
X27003Y961878D01*
X28232Y961878D01*
X29461Y960649D01*
X29461Y959420D01*
X29461Y960649D02*
X30690Y961878D01*
X31918Y961878D01*
X33147Y960649D01*
X33147Y958191D01*
X31918Y956963D01*
X33147Y964447D02*
X33147Y969362D01*
X33147Y964447D02*
X28232Y969362D01*
X27003Y969362D01*
X25775Y968133D01*
X25775Y965676D01*
X27003Y964447D01*
D15*
X-45085Y230493D02*
X-56525Y230493D01*
X-45085Y230493D02*
X-45085Y236213D01*
X-46992Y238120D01*
X-54618Y238120D01*
X-56525Y236213D01*
X-56525Y230493D01*
X-45085Y242187D02*
X-45085Y246000D01*
X-45085Y244094D02*
X-56525Y244094D01*
X-56525Y246000D02*
X-56525Y242187D01*
X-56525Y249983D02*
X-45085Y249983D01*
X-45085Y257610D02*
X-56525Y249983D01*
X-56525Y257610D02*
X-45085Y257610D01*
X-45085Y267397D02*
X-56525Y267397D01*
X-50805Y261677D01*
X-50805Y269303D01*
X-52712Y273371D02*
X-56525Y277184D01*
X-45085Y277184D01*
X-45085Y273371D02*
X-45085Y280997D01*
X-54618Y288878D02*
X-56525Y292691D01*
X-54618Y288878D02*
X-50805Y285065D01*
X-46992Y285065D01*
X-45085Y286972D01*
X-45085Y290785D01*
X-46992Y292691D01*
X-48898Y292691D01*
X-50805Y290785D01*
X-50805Y285065D01*
X-52712Y296759D02*
X-56525Y300572D01*
X-45085Y300572D01*
X-45085Y296759D02*
X-45085Y304385D01*
X-45085Y308453D02*
X-45085Y316079D01*
X-45085Y308453D02*
X-52712Y316079D01*
X-54618Y316079D01*
X-56525Y314173D01*
X-56525Y310359D01*
X-54618Y308453D01*
X-50805Y320147D02*
X-50805Y327773D01*
X-45085Y331841D02*
X-56525Y331841D01*
X-56525Y337561D01*
X-54618Y339467D01*
X-50805Y339467D01*
X-48898Y337561D01*
X-48898Y331841D01*
X-48898Y335654D02*
X-45085Y339467D01*
X6975Y891647D02*
X18415Y899274D01*
X18415Y891647D02*
X6975Y899274D01*
X10789Y903341D02*
X6975Y907154D01*
X18415Y907154D01*
X18415Y903341D02*
X18415Y910968D01*
D10*
X1714500Y57150D02*
X1714500Y19050D01*
D12*
X1714974Y18434D01*
X1715463Y17829D01*
X1715967Y17237D01*
X1716485Y16657D01*
X1717017Y16090D01*
X1717563Y15536D01*
X1718122Y14996D01*
X1718695Y14470D01*
X1719280Y13957D01*
X1719877Y13460D01*
X1720486Y12977D01*
X1721107Y12509D01*
X1721740Y12056D01*
X1722383Y11619D01*
X1723037Y11198D01*
X1723701Y10794D01*
X1724374Y10405D01*
X1725057Y10033D01*
X1725749Y9678D01*
X1726449Y9340D01*
X1727157Y9019D01*
X1727873Y8716D01*
X1728597Y8430D01*
X1729326Y8162D01*
X1730063Y7912D01*
X1730805Y7681D01*
X1731553Y7467D01*
X1732305Y7272D01*
X1733063Y7095D01*
X1733824Y6937D01*
X1734589Y6797D01*
X1735357Y6677D01*
X1736128Y6575D01*
X1736901Y6492D01*
X1737676Y6428D01*
X1738452Y6383D01*
X1739229Y6357D01*
X1740007Y6350D01*
X1740784Y6362D01*
X1741561Y6393D01*
X1742337Y6444D01*
X1743112Y6513D01*
X1743884Y6601D01*
X1744654Y6708D01*
X1745422Y6834D01*
X1746186Y6978D01*
X1746946Y7142D01*
X1747702Y7324D01*
X1748453Y7524D01*
X1749200Y7742D01*
X1749940Y7979D01*
X1750675Y8234D01*
X1751403Y8507D01*
X1752124Y8798D01*
X1752838Y9106D01*
X1753544Y9431D01*
X1754242Y9774D01*
X1754932Y10134D01*
X1755612Y10510D01*
X1756283Y10903D01*
X1756944Y11313D01*
X1757595Y11738D01*
X1758235Y12179D01*
X1758864Y12636D01*
X1759482Y13108D01*
X1760088Y13595D01*
X1760682Y14097D01*
X1761264Y14613D01*
X1761833Y15143D01*
X1762388Y15687D01*
X1762931Y16245D01*
X1763459Y16815D01*
X1763973Y17398D01*
X1764473Y17994D01*
X1764958Y18602D01*
X1765428Y19221D01*
X1765882Y19852D01*
X1766321Y20494D01*
X1766745Y21146D01*
X1767152Y21809D01*
X1767543Y22481D01*
X1767917Y23163D01*
X1768274Y23853D01*
X1768614Y24552D01*
X1768938Y25260D01*
X1769243Y25974D01*
X1769532Y26697D01*
X1769802Y27426D01*
X1770054Y28161D01*
X1770289Y28903D01*
X1770505Y29650D01*
X1770703Y30402D01*
X1770882Y31158D01*
X1771043Y31919D01*
X1771185Y32683D01*
X1771308Y33451D01*
X1771412Y34222D01*
X1771498Y34995D01*
X1771564Y35769D01*
X1771612Y36545D01*
X1771640Y37322D01*
X1771650Y38100D01*
X1771640Y38878D01*
X1771612Y39655D01*
X1771564Y40431D01*
X1771498Y41205D01*
X1771412Y41978D01*
X1771308Y42749D01*
X1771185Y43517D01*
X1771043Y44281D01*
X1770882Y45042D01*
X1770703Y45798D01*
X1770505Y46550D01*
X1770289Y47297D01*
X1770054Y48039D01*
X1769802Y48774D01*
X1769532Y49503D01*
X1769243Y50226D01*
X1768938Y50940D01*
X1768614Y51648D01*
X1768274Y52347D01*
X1767917Y53037D01*
X1767543Y53719D01*
X1767152Y54391D01*
X1766745Y55054D01*
X1766321Y55706D01*
X1765882Y56348D01*
X1765428Y56979D01*
X1764958Y57598D01*
X1764473Y58206D01*
X1763973Y58802D01*
X1763459Y59385D01*
X1762931Y59955D01*
X1762388Y60513D01*
X1761833Y61057D01*
X1761264Y61587D01*
X1760682Y62103D01*
X1760088Y62605D01*
X1759482Y63092D01*
X1758864Y63564D01*
X1758235Y64021D01*
X1757595Y64462D01*
X1756944Y64887D01*
X1756283Y65297D01*
X1755612Y65690D01*
X1754932Y66066D01*
X1754242Y66426D01*
X1753544Y66769D01*
X1752838Y67094D01*
X1752124Y67402D01*
X1751403Y67693D01*
X1750675Y67966D01*
X1749940Y68221D01*
X1749200Y68458D01*
X1748453Y68676D01*
X1747702Y68876D01*
X1746946Y69058D01*
X1746186Y69222D01*
X1745422Y69366D01*
X1744654Y69492D01*
X1743884Y69599D01*
X1743112Y69687D01*
X1742337Y69756D01*
X1741561Y69807D01*
X1740784Y69838D01*
X1740007Y69850D01*
X1739229Y69843D01*
X1738452Y69817D01*
X1737676Y69772D01*
X1736901Y69708D01*
X1736128Y69625D01*
X1735357Y69523D01*
X1734589Y69403D01*
X1733824Y69263D01*
X1733063Y69105D01*
X1732305Y68928D01*
X1731553Y68733D01*
X1730805Y68519D01*
X1730063Y68288D01*
X1729326Y68038D01*
X1728597Y67770D01*
X1727873Y67484D01*
X1727157Y67181D01*
X1726449Y66860D01*
X1725749Y66522D01*
X1725057Y66167D01*
X1724374Y65795D01*
X1723701Y65406D01*
X1723037Y65002D01*
X1722383Y64581D01*
X1721740Y64144D01*
X1721107Y63691D01*
X1720486Y63223D01*
X1719877Y62740D01*
X1719280Y62243D01*
X1718695Y61730D01*
X1718122Y61204D01*
X1717563Y60664D01*
X1717017Y60110D01*
X1716485Y59543D01*
X1715967Y58963D01*
X1715463Y58371D01*
X1714974Y57766D01*
X1714500Y57150D01*
D11*
X1714500Y38100D02*
X1714508Y38723D01*
X1714531Y39346D01*
X1714569Y39969D01*
X1714622Y40590D01*
X1714691Y41209D01*
X1714775Y41827D01*
X1714874Y42442D01*
X1714988Y43055D01*
X1715117Y43665D01*
X1715261Y44272D01*
X1715420Y44875D01*
X1715594Y45473D01*
X1715782Y46068D01*
X1715985Y46657D01*
X1716202Y47241D01*
X1716433Y47820D01*
X1716679Y48393D01*
X1716939Y48960D01*
X1717212Y49520D01*
X1717499Y50073D01*
X1717800Y50620D01*
X1718114Y51158D01*
X1718441Y51689D01*
X1718781Y52211D01*
X1719133Y52726D01*
X1719499Y53231D01*
X1719876Y53727D01*
X1720266Y54214D01*
X1720667Y54691D01*
X1721080Y55158D01*
X1721504Y55614D01*
X1721939Y56061D01*
X1722386Y56496D01*
X1722842Y56920D01*
X1723309Y57333D01*
X1723786Y57734D01*
X1724273Y58124D01*
X1724769Y58501D01*
X1725274Y58867D01*
X1725789Y59219D01*
X1726311Y59559D01*
X1726842Y59886D01*
X1727380Y60200D01*
X1727927Y60501D01*
X1728480Y60788D01*
X1729040Y61061D01*
X1729607Y61321D01*
X1730180Y61567D01*
X1730759Y61798D01*
X1731343Y62015D01*
X1731932Y62218D01*
X1732527Y62406D01*
X1733125Y62580D01*
X1733728Y62739D01*
X1734335Y62883D01*
X1734945Y63012D01*
X1735558Y63126D01*
X1736173Y63225D01*
X1736791Y63309D01*
X1737410Y63378D01*
X1738031Y63431D01*
X1738654Y63469D01*
X1739277Y63492D01*
X1739900Y63500D01*
X1740523Y63492D01*
X1741146Y63469D01*
X1741769Y63431D01*
X1742390Y63378D01*
X1743009Y63309D01*
X1743627Y63225D01*
X1744242Y63126D01*
X1744855Y63012D01*
X1745465Y62883D01*
X1746072Y62739D01*
X1746675Y62580D01*
X1747273Y62406D01*
X1747868Y62218D01*
X1748457Y62015D01*
X1749041Y61798D01*
X1749620Y61567D01*
X1750193Y61321D01*
X1750760Y61061D01*
X1751320Y60788D01*
X1751873Y60501D01*
X1752420Y60200D01*
X1752958Y59886D01*
X1753489Y59559D01*
X1754011Y59219D01*
X1754526Y58867D01*
X1755031Y58501D01*
X1755527Y58124D01*
X1756014Y57734D01*
X1756491Y57333D01*
X1756958Y56920D01*
X1757414Y56496D01*
X1757861Y56061D01*
X1758296Y55614D01*
X1758720Y55158D01*
X1759133Y54691D01*
X1759534Y54214D01*
X1759924Y53727D01*
X1760301Y53231D01*
X1760667Y52726D01*
X1761019Y52211D01*
X1761359Y51689D01*
X1761686Y51158D01*
X1762000Y50620D01*
X1762301Y50073D01*
X1762588Y49520D01*
X1762861Y48960D01*
X1763121Y48393D01*
X1763367Y47820D01*
X1763598Y47241D01*
X1763815Y46657D01*
X1764018Y46068D01*
X1764206Y45473D01*
X1764380Y44875D01*
X1764539Y44272D01*
X1764683Y43665D01*
X1764812Y43055D01*
X1764926Y42442D01*
X1765025Y41827D01*
X1765109Y41209D01*
X1765178Y40590D01*
X1765231Y39969D01*
X1765269Y39346D01*
X1765292Y38723D01*
X1765300Y38100D01*
X1765292Y37477D01*
X1765269Y36854D01*
X1765231Y36231D01*
X1765178Y35610D01*
X1765109Y34991D01*
X1765025Y34373D01*
X1764926Y33758D01*
X1764812Y33145D01*
X1764683Y32535D01*
X1764539Y31928D01*
X1764380Y31325D01*
X1764206Y30727D01*
X1764018Y30132D01*
X1763815Y29543D01*
X1763598Y28959D01*
X1763367Y28380D01*
X1763121Y27807D01*
X1762861Y27240D01*
X1762588Y26680D01*
X1762301Y26127D01*
X1762000Y25580D01*
X1761686Y25042D01*
X1761359Y24511D01*
X1761019Y23989D01*
X1760667Y23474D01*
X1760301Y22969D01*
X1759924Y22473D01*
X1759534Y21986D01*
X1759133Y21509D01*
X1758720Y21042D01*
X1758296Y20586D01*
X1757861Y20139D01*
X1757414Y19704D01*
X1756958Y19280D01*
X1756491Y18867D01*
X1756014Y18466D01*
X1755527Y18076D01*
X1755031Y17699D01*
X1754526Y17333D01*
X1754011Y16981D01*
X1753489Y16641D01*
X1752958Y16314D01*
X1752420Y16000D01*
X1751873Y15699D01*
X1751320Y15412D01*
X1750760Y15139D01*
X1750193Y14879D01*
X1749620Y14633D01*
X1749041Y14402D01*
X1748457Y14185D01*
X1747868Y13982D01*
X1747273Y13794D01*
X1746675Y13620D01*
X1746072Y13461D01*
X1745465Y13317D01*
X1744855Y13188D01*
X1744242Y13074D01*
X1743627Y12975D01*
X1743009Y12891D01*
X1742390Y12822D01*
X1741769Y12769D01*
X1741146Y12731D01*
X1740523Y12708D01*
X1739900Y12700D01*
X1739277Y12708D01*
X1738654Y12731D01*
X1738031Y12769D01*
X1737410Y12822D01*
X1736791Y12891D01*
X1736173Y12975D01*
X1735558Y13074D01*
X1734945Y13188D01*
X1734335Y13317D01*
X1733728Y13461D01*
X1733125Y13620D01*
X1732527Y13794D01*
X1731932Y13982D01*
X1731343Y14185D01*
X1730759Y14402D01*
X1730180Y14633D01*
X1729607Y14879D01*
X1729040Y15139D01*
X1728480Y15412D01*
X1727927Y15699D01*
X1727380Y16000D01*
X1726842Y16314D01*
X1726311Y16641D01*
X1725789Y16981D01*
X1725274Y17333D01*
X1724769Y17699D01*
X1724273Y18076D01*
X1723786Y18466D01*
X1723309Y18867D01*
X1722842Y19280D01*
X1722386Y19704D01*
X1721939Y20139D01*
X1721504Y20586D01*
X1721080Y21042D01*
X1720667Y21509D01*
X1720266Y21986D01*
X1719876Y22473D01*
X1719499Y22969D01*
X1719133Y23474D01*
X1718781Y23989D01*
X1718441Y24511D01*
X1718114Y25042D01*
X1717800Y25580D01*
X1717499Y26127D01*
X1717212Y26680D01*
X1716939Y27240D01*
X1716679Y27807D01*
X1716433Y28380D01*
X1716202Y28959D01*
X1715985Y29543D01*
X1715782Y30132D01*
X1715594Y30727D01*
X1715420Y31325D01*
X1715261Y31928D01*
X1715117Y32535D01*
X1714988Y33145D01*
X1714874Y33758D01*
X1714775Y34373D01*
X1714691Y34991D01*
X1714622Y35610D01*
X1714569Y36231D01*
X1714531Y36854D01*
X1714508Y37477D01*
X1714500Y38100D01*
D15*
X1673703Y32141D02*
X1673703Y20701D01*
X1673703Y32141D02*
X1679423Y32141D01*
X1681330Y30234D01*
X1681330Y26421D01*
X1679423Y24514D01*
X1673703Y24514D01*
X1685397Y20701D02*
X1685397Y32141D01*
X1689210Y24514D02*
X1685397Y20701D01*
X1689210Y24514D02*
X1693024Y20701D01*
X1693024Y32141D01*
X1697091Y32141D02*
X1697091Y20701D01*
X1697091Y32141D02*
X1702811Y32141D01*
X1704717Y30234D01*
X1704717Y26421D01*
X1702811Y24514D01*
X1697091Y24514D01*
X1700904Y24514D02*
X1704717Y20701D01*
D11*
X1631950Y29210D02*
X1631948Y29110D01*
X1631942Y29011D01*
X1631932Y28911D01*
X1631919Y28813D01*
X1631901Y28714D01*
X1631880Y28617D01*
X1631855Y28521D01*
X1631826Y28425D01*
X1631793Y28331D01*
X1631757Y28238D01*
X1631717Y28147D01*
X1631673Y28057D01*
X1631626Y27969D01*
X1631576Y27883D01*
X1631522Y27799D01*
X1631465Y27717D01*
X1631405Y27638D01*
X1631341Y27560D01*
X1631275Y27486D01*
X1631206Y27414D01*
X1631134Y27345D01*
X1631060Y27279D01*
X1630982Y27215D01*
X1630903Y27155D01*
X1630821Y27098D01*
X1630737Y27044D01*
X1630651Y26994D01*
X1630563Y26947D01*
X1630473Y26903D01*
X1630382Y26863D01*
X1630289Y26827D01*
X1630195Y26794D01*
X1630099Y26765D01*
X1630003Y26740D01*
X1629906Y26719D01*
X1629807Y26701D01*
X1629709Y26688D01*
X1629609Y26678D01*
X1629510Y26672D01*
X1629410Y26670D01*
X1631950Y46990D02*
X1631948Y47090D01*
X1631942Y47189D01*
X1631932Y47289D01*
X1631919Y47387D01*
X1631901Y47486D01*
X1631880Y47583D01*
X1631855Y47679D01*
X1631826Y47775D01*
X1631793Y47869D01*
X1631757Y47962D01*
X1631717Y48053D01*
X1631673Y48143D01*
X1631626Y48231D01*
X1631576Y48317D01*
X1631522Y48401D01*
X1631465Y48483D01*
X1631405Y48562D01*
X1631341Y48640D01*
X1631275Y48714D01*
X1631206Y48786D01*
X1631134Y48855D01*
X1631060Y48921D01*
X1630982Y48985D01*
X1630903Y49045D01*
X1630821Y49102D01*
X1630737Y49156D01*
X1630651Y49206D01*
X1630563Y49253D01*
X1630473Y49297D01*
X1630382Y49337D01*
X1630289Y49373D01*
X1630195Y49406D01*
X1630099Y49435D01*
X1630003Y49460D01*
X1629906Y49481D01*
X1629807Y49499D01*
X1629709Y49512D01*
X1629609Y49522D01*
X1629510Y49528D01*
X1629410Y49530D01*
X1570990Y49530D02*
X1570890Y49528D01*
X1570791Y49522D01*
X1570691Y49512D01*
X1570593Y49499D01*
X1570494Y49481D01*
X1570397Y49460D01*
X1570301Y49435D01*
X1570205Y49406D01*
X1570111Y49373D01*
X1570018Y49337D01*
X1569927Y49297D01*
X1569837Y49253D01*
X1569749Y49206D01*
X1569663Y49156D01*
X1569579Y49102D01*
X1569497Y49045D01*
X1569418Y48985D01*
X1569340Y48921D01*
X1569266Y48855D01*
X1569194Y48786D01*
X1569125Y48714D01*
X1569059Y48640D01*
X1568995Y48562D01*
X1568935Y48483D01*
X1568878Y48401D01*
X1568824Y48317D01*
X1568774Y48231D01*
X1568727Y48143D01*
X1568683Y48053D01*
X1568643Y47962D01*
X1568607Y47869D01*
X1568574Y47775D01*
X1568545Y47679D01*
X1568520Y47583D01*
X1568499Y47486D01*
X1568481Y47387D01*
X1568468Y47289D01*
X1568458Y47189D01*
X1568452Y47090D01*
X1568450Y46990D01*
X1568450Y29210D02*
X1568452Y29110D01*
X1568458Y29011D01*
X1568468Y28911D01*
X1568481Y28813D01*
X1568499Y28714D01*
X1568520Y28617D01*
X1568545Y28521D01*
X1568574Y28425D01*
X1568607Y28331D01*
X1568643Y28238D01*
X1568683Y28147D01*
X1568727Y28057D01*
X1568774Y27969D01*
X1568824Y27883D01*
X1568878Y27799D01*
X1568935Y27717D01*
X1568995Y27638D01*
X1569059Y27560D01*
X1569125Y27486D01*
X1569194Y27414D01*
X1569266Y27345D01*
X1569340Y27279D01*
X1569418Y27215D01*
X1569497Y27155D01*
X1569579Y27098D01*
X1569663Y27044D01*
X1569749Y26994D01*
X1569837Y26947D01*
X1569927Y26903D01*
X1570018Y26863D01*
X1570111Y26827D01*
X1570205Y26794D01*
X1570301Y26765D01*
X1570397Y26740D01*
X1570494Y26719D01*
X1570593Y26701D01*
X1570691Y26688D01*
X1570791Y26678D01*
X1570890Y26672D01*
X1570990Y26670D01*
X1631950Y29210D02*
X1631950Y46990D01*
X1629410Y26670D02*
X1625600Y26670D01*
X1624330Y27940D01*
X1625600Y49530D02*
X1629410Y49530D01*
X1625600Y49530D02*
X1624330Y48260D01*
X1576070Y27940D02*
X1574800Y26670D01*
X1576070Y27940D02*
X1624330Y27940D01*
X1576070Y48260D02*
X1574800Y49530D01*
X1576070Y48260D02*
X1624330Y48260D01*
X1574800Y26670D02*
X1570990Y26670D01*
X1570990Y49530D02*
X1574800Y49530D01*
X1568450Y46990D02*
X1568450Y29210D01*
D16*
X1564132Y38100D03*
X1636268Y38100D03*
D15*
X1607927Y22235D02*
X1607927Y10795D01*
X1607927Y22235D02*
X1613647Y22235D01*
X1615554Y20328D01*
X1615554Y16515D01*
X1613647Y14608D01*
X1607927Y14608D01*
X1611740Y14608D02*
X1615554Y10795D01*
X1619621Y10795D02*
X1627248Y10795D01*
X1619621Y10795D02*
X1627248Y18422D01*
X1627248Y20328D01*
X1625341Y22235D01*
X1621528Y22235D01*
X1619621Y20328D01*
D11*
X915670Y911860D02*
X915670Y965200D01*
X915979Y965204D01*
X916288Y965215D01*
X916597Y965234D01*
X916905Y965260D01*
X917213Y965294D01*
X917519Y965335D01*
X917825Y965384D01*
X918129Y965440D01*
X918431Y965504D01*
X918732Y965575D01*
X919032Y965653D01*
X919329Y965738D01*
X919624Y965831D01*
X919917Y965931D01*
X920207Y966038D01*
X920494Y966152D01*
X920779Y966273D01*
X921061Y966401D01*
X921339Y966535D01*
X921614Y966677D01*
X921886Y966825D01*
X922153Y966980D01*
X922417Y967141D01*
X922677Y967308D01*
X922933Y967482D01*
X923185Y967662D01*
X923432Y967848D01*
X923674Y968040D01*
X923912Y968238D01*
X924145Y968441D01*
X924373Y968651D01*
X924595Y968865D01*
X924813Y969085D01*
X925025Y969311D01*
X925231Y969541D01*
X925432Y969776D01*
X925627Y970016D01*
X925816Y970261D01*
X925999Y970510D01*
X926176Y970764D01*
X926346Y971022D01*
X926511Y971284D01*
X926669Y971550D01*
X926820Y971820D01*
X926965Y972093D01*
X927103Y972370D01*
X927234Y972650D01*
X927358Y972933D01*
X927476Y973219D01*
X927586Y973508D01*
X927690Y973799D01*
X927786Y974093D01*
X927875Y974389D01*
X927957Y974688D01*
X928032Y974988D01*
X928099Y975290D01*
X928159Y975593D01*
X928211Y975898D01*
X928256Y976204D01*
X928294Y976511D01*
X928324Y976819D01*
X928346Y977127D01*
X928362Y977436D01*
X928369Y977745D01*
X928369Y978055D01*
X928362Y978364D01*
X928346Y978673D01*
X928324Y978981D01*
X928294Y979289D01*
X928256Y979596D01*
X928211Y979902D01*
X928159Y980207D01*
X928099Y980510D01*
X928032Y980812D01*
X927957Y981112D01*
X927875Y981411D01*
X927786Y981707D01*
X927690Y982001D01*
X927586Y982292D01*
X927476Y982581D01*
X927358Y982867D01*
X927234Y983150D01*
X927103Y983430D01*
X926965Y983707D01*
X926820Y983980D01*
X926669Y984250D01*
X926511Y984516D01*
X926346Y984778D01*
X926176Y985036D01*
X925999Y985290D01*
X925816Y985539D01*
X925627Y985784D01*
X925432Y986024D01*
X925231Y986259D01*
X925025Y986489D01*
X924813Y986715D01*
X924595Y986935D01*
X924373Y987149D01*
X924145Y987359D01*
X923912Y987562D01*
X923674Y987760D01*
X923432Y987952D01*
X923185Y988138D01*
X922933Y988318D01*
X922677Y988492D01*
X922417Y988659D01*
X922153Y988820D01*
X921886Y988975D01*
X921614Y989123D01*
X921339Y989265D01*
X921061Y989399D01*
X920779Y989527D01*
X920494Y989648D01*
X920207Y989762D01*
X919917Y989869D01*
X919624Y989969D01*
X919329Y990062D01*
X919032Y990147D01*
X918732Y990225D01*
X918431Y990296D01*
X918129Y990360D01*
X917825Y990416D01*
X917519Y990465D01*
X917213Y990506D01*
X916905Y990540D01*
X916597Y990566D01*
X916288Y990585D01*
X915979Y990596D01*
X915670Y990600D01*
X1268730Y1043940D02*
X1268730Y911860D01*
X915670Y990600D02*
X915670Y1043940D01*
X1268730Y1043940D01*
X1268730Y911860D02*
X915670Y911860D01*
D17*
X913511Y915289D02*
X913511Y920628D01*
X913511Y917958D02*
X897495Y917958D01*
X897495Y915289D02*
X897495Y920628D01*
X897495Y934211D02*
X900165Y936881D01*
X897495Y934211D02*
X897495Y928873D01*
X900165Y926203D01*
X910842Y926203D01*
X913511Y928873D01*
X913511Y934211D01*
X910842Y936881D01*
X902834Y942575D02*
X897495Y947914D01*
X913511Y947914D01*
X913511Y953252D02*
X913511Y942575D01*
D11*
X915670Y736600D02*
X915670Y683260D01*
X915670Y736600D02*
X915979Y736604D01*
X916288Y736615D01*
X916597Y736634D01*
X916905Y736660D01*
X917213Y736694D01*
X917519Y736735D01*
X917825Y736784D01*
X918129Y736840D01*
X918431Y736904D01*
X918732Y736975D01*
X919032Y737053D01*
X919329Y737138D01*
X919624Y737231D01*
X919917Y737331D01*
X920207Y737438D01*
X920494Y737552D01*
X920779Y737673D01*
X921061Y737801D01*
X921339Y737935D01*
X921614Y738077D01*
X921886Y738225D01*
X922153Y738380D01*
X922417Y738541D01*
X922677Y738708D01*
X922933Y738882D01*
X923185Y739062D01*
X923432Y739248D01*
X923674Y739440D01*
X923912Y739638D01*
X924145Y739841D01*
X924373Y740051D01*
X924595Y740265D01*
X924813Y740485D01*
X925025Y740711D01*
X925231Y740941D01*
X925432Y741176D01*
X925627Y741416D01*
X925816Y741661D01*
X925999Y741910D01*
X926176Y742164D01*
X926346Y742422D01*
X926511Y742684D01*
X926669Y742950D01*
X926820Y743220D01*
X926965Y743493D01*
X927103Y743770D01*
X927234Y744050D01*
X927358Y744333D01*
X927476Y744619D01*
X927586Y744908D01*
X927690Y745199D01*
X927786Y745493D01*
X927875Y745789D01*
X927957Y746088D01*
X928032Y746388D01*
X928099Y746690D01*
X928159Y746993D01*
X928211Y747298D01*
X928256Y747604D01*
X928294Y747911D01*
X928324Y748219D01*
X928346Y748527D01*
X928362Y748836D01*
X928369Y749145D01*
X928369Y749455D01*
X928362Y749764D01*
X928346Y750073D01*
X928324Y750381D01*
X928294Y750689D01*
X928256Y750996D01*
X928211Y751302D01*
X928159Y751607D01*
X928099Y751910D01*
X928032Y752212D01*
X927957Y752512D01*
X927875Y752811D01*
X927786Y753107D01*
X927690Y753401D01*
X927586Y753692D01*
X927476Y753981D01*
X927358Y754267D01*
X927234Y754550D01*
X927103Y754830D01*
X926965Y755107D01*
X926820Y755380D01*
X926669Y755650D01*
X926511Y755916D01*
X926346Y756178D01*
X926176Y756436D01*
X925999Y756690D01*
X925816Y756939D01*
X925627Y757184D01*
X925432Y757424D01*
X925231Y757659D01*
X925025Y757889D01*
X924813Y758115D01*
X924595Y758335D01*
X924373Y758549D01*
X924145Y758759D01*
X923912Y758962D01*
X923674Y759160D01*
X923432Y759352D01*
X923185Y759538D01*
X922933Y759718D01*
X922677Y759892D01*
X922417Y760059D01*
X922153Y760220D01*
X921886Y760375D01*
X921614Y760523D01*
X921339Y760665D01*
X921061Y760799D01*
X920779Y760927D01*
X920494Y761048D01*
X920207Y761162D01*
X919917Y761269D01*
X919624Y761369D01*
X919329Y761462D01*
X919032Y761547D01*
X918732Y761625D01*
X918431Y761696D01*
X918129Y761760D01*
X917825Y761816D01*
X917519Y761865D01*
X917213Y761906D01*
X916905Y761940D01*
X916597Y761966D01*
X916288Y761985D01*
X915979Y761996D01*
X915670Y762000D01*
X1268730Y815340D02*
X1268730Y683260D01*
X915670Y762000D02*
X915670Y815340D01*
X1268730Y815340D01*
X1268730Y683260D02*
X915670Y683260D01*
D17*
X913511Y686689D02*
X913511Y692028D01*
X913511Y689358D02*
X897495Y689358D01*
X897495Y686689D02*
X897495Y692028D01*
X897495Y705611D02*
X900165Y708281D01*
X897495Y705611D02*
X897495Y700273D01*
X900165Y697603D01*
X910842Y697603D01*
X913511Y700273D01*
X913511Y705611D01*
X910842Y708281D01*
X913511Y713975D02*
X913511Y724652D01*
X913511Y713975D02*
X902834Y724652D01*
X900165Y724652D01*
X897495Y721983D01*
X897495Y716644D01*
X900165Y713975D01*
D11*
X965200Y346710D02*
X965200Y289560D01*
X965200Y269240D02*
X965200Y212090D01*
X965200Y269240D02*
X965447Y269243D01*
X965695Y269252D01*
X965942Y269267D01*
X966188Y269288D01*
X966434Y269315D01*
X966679Y269348D01*
X966924Y269387D01*
X967167Y269432D01*
X967409Y269483D01*
X967650Y269540D01*
X967889Y269602D01*
X968127Y269671D01*
X968363Y269745D01*
X968597Y269825D01*
X968829Y269910D01*
X969059Y270002D01*
X969287Y270098D01*
X969512Y270201D01*
X969735Y270308D01*
X969955Y270422D01*
X970172Y270540D01*
X970387Y270664D01*
X970598Y270793D01*
X970806Y270927D01*
X971011Y271066D01*
X971212Y271210D01*
X971410Y271358D01*
X971604Y271512D01*
X971794Y271670D01*
X971980Y271833D01*
X972162Y272000D01*
X972340Y272172D01*
X972514Y272348D01*
X972684Y272528D01*
X972849Y272713D01*
X973009Y272901D01*
X973165Y273093D01*
X973317Y273289D01*
X973463Y273488D01*
X973605Y273691D01*
X973741Y273898D01*
X973873Y274107D01*
X973999Y274320D01*
X974120Y274536D01*
X974236Y274754D01*
X974346Y274976D01*
X974451Y275200D01*
X974551Y275426D01*
X974645Y275655D01*
X974733Y275886D01*
X974816Y276120D01*
X974893Y276355D01*
X974964Y276592D01*
X975030Y276830D01*
X975089Y277070D01*
X975143Y277312D01*
X975191Y277555D01*
X975233Y277798D01*
X975269Y278043D01*
X975299Y278289D01*
X975323Y278535D01*
X975341Y278782D01*
X975353Y279029D01*
X975359Y279276D01*
X975359Y279524D01*
X975353Y279771D01*
X975341Y280018D01*
X975323Y280265D01*
X975299Y280511D01*
X975269Y280757D01*
X975233Y281002D01*
X975191Y281245D01*
X975143Y281488D01*
X975089Y281730D01*
X975030Y281970D01*
X974964Y282208D01*
X974893Y282445D01*
X974816Y282680D01*
X974733Y282914D01*
X974645Y283145D01*
X974551Y283374D01*
X974451Y283600D01*
X974346Y283824D01*
X974236Y284046D01*
X974120Y284264D01*
X973999Y284480D01*
X973873Y284693D01*
X973741Y284902D01*
X973605Y285109D01*
X973463Y285312D01*
X973317Y285511D01*
X973165Y285707D01*
X973009Y285899D01*
X972849Y286087D01*
X972684Y286272D01*
X972514Y286452D01*
X972340Y286628D01*
X972162Y286800D01*
X971980Y286967D01*
X971794Y287130D01*
X971604Y287288D01*
X971410Y287442D01*
X971212Y287590D01*
X971011Y287734D01*
X970806Y287873D01*
X970598Y288007D01*
X970387Y288136D01*
X970172Y288260D01*
X969955Y288378D01*
X969735Y288492D01*
X969512Y288599D01*
X969287Y288702D01*
X969059Y288798D01*
X968829Y288890D01*
X968597Y288975D01*
X968363Y289055D01*
X968127Y289129D01*
X967889Y289198D01*
X967650Y289260D01*
X967409Y289317D01*
X967167Y289368D01*
X966924Y289413D01*
X966679Y289452D01*
X966434Y289485D01*
X966188Y289512D01*
X965942Y289533D01*
X965695Y289548D01*
X965447Y289557D01*
X965200Y289560D01*
X965200Y212090D02*
X1270000Y212090D01*
X1270000Y346710D01*
X965200Y346710D01*
D17*
X961771Y218318D02*
X961771Y212979D01*
X961771Y215648D02*
X945755Y215648D01*
X945755Y212979D02*
X945755Y218318D01*
X945755Y231901D02*
X948425Y234571D01*
X945755Y231901D02*
X945755Y226563D01*
X948425Y223893D01*
X959102Y223893D01*
X961771Y226563D01*
X961771Y231901D01*
X959102Y234571D01*
X948425Y240265D02*
X945755Y242934D01*
X945755Y248273D01*
X948425Y250942D01*
X951094Y250942D01*
X953763Y248273D01*
X953763Y245604D01*
X953763Y248273D02*
X956432Y250942D01*
X959102Y250942D01*
X961771Y248273D01*
X961771Y242934D01*
X959102Y240265D01*
D11*
X965200Y88900D02*
X965200Y63500D01*
X1193800Y63500D02*
X1193800Y88900D01*
X1187450Y82550D01*
X1187450Y69850D02*
X1193800Y63500D01*
X1174750Y69850D02*
X1168400Y63500D01*
X965200Y63500D01*
X1168400Y88900D02*
X1174750Y82550D01*
X1168400Y88900D02*
X1193800Y88900D01*
X1168400Y88900D02*
X1168400Y63500D01*
X1193800Y63500D01*
X1168400Y88900D02*
X965200Y88900D01*
D15*
X1133953Y56525D02*
X1133953Y45085D01*
X1133953Y56525D02*
X1139673Y56525D01*
X1141580Y54618D01*
X1141580Y50805D01*
X1139673Y48898D01*
X1133953Y48898D01*
X1137766Y48898D02*
X1141580Y45085D01*
X1145647Y45085D02*
X1145647Y56525D01*
X1153274Y45085D01*
X1153274Y56525D01*
X1157341Y52712D02*
X1161154Y56525D01*
X1161154Y45085D01*
X1157341Y45085D02*
X1164967Y45085D01*
D11*
X1193800Y584200D02*
X1193800Y609600D01*
X965200Y609600D02*
X965200Y584200D01*
X971550Y590550D01*
X971550Y603250D02*
X965200Y609600D01*
X984250Y603250D02*
X990600Y609600D01*
X1193800Y609600D01*
X990600Y584200D02*
X984250Y590550D01*
X990600Y584200D02*
X965200Y584200D01*
X990600Y584200D02*
X990600Y609600D01*
X965200Y609600D01*
X990600Y584200D02*
X1193800Y584200D01*
D15*
X991235Y616585D02*
X991235Y628025D01*
X996955Y628025D01*
X998862Y626118D01*
X998862Y622305D01*
X996955Y620398D01*
X991235Y620398D01*
X995048Y620398D02*
X998862Y616585D01*
X1002929Y616585D02*
X1002929Y628025D01*
X1010555Y616585D01*
X1010555Y628025D01*
X1014623Y616585D02*
X1022249Y616585D01*
X1014623Y616585D02*
X1022249Y624212D01*
X1022249Y626118D01*
X1020343Y628025D01*
X1016530Y628025D01*
X1014623Y626118D01*
D11*
X419100Y905510D02*
X241300Y905510D01*
X241300Y847090D02*
X419100Y847090D01*
X419100Y905510D01*
X241300Y905510D02*
X241300Y886460D01*
X241300Y866140D02*
X241300Y847090D01*
X241300Y866140D02*
X241547Y866143D01*
X241795Y866152D01*
X242042Y866167D01*
X242288Y866188D01*
X242534Y866215D01*
X242779Y866248D01*
X243024Y866287D01*
X243267Y866332D01*
X243509Y866383D01*
X243750Y866440D01*
X243989Y866502D01*
X244227Y866571D01*
X244463Y866645D01*
X244697Y866725D01*
X244929Y866810D01*
X245159Y866902D01*
X245387Y866998D01*
X245612Y867101D01*
X245835Y867208D01*
X246055Y867322D01*
X246272Y867440D01*
X246487Y867564D01*
X246698Y867693D01*
X246906Y867827D01*
X247111Y867966D01*
X247312Y868110D01*
X247510Y868258D01*
X247704Y868412D01*
X247894Y868570D01*
X248080Y868733D01*
X248262Y868900D01*
X248440Y869072D01*
X248614Y869248D01*
X248784Y869428D01*
X248949Y869613D01*
X249109Y869801D01*
X249265Y869993D01*
X249417Y870189D01*
X249563Y870388D01*
X249705Y870591D01*
X249841Y870798D01*
X249973Y871007D01*
X250099Y871220D01*
X250220Y871436D01*
X250336Y871654D01*
X250446Y871876D01*
X250551Y872100D01*
X250651Y872326D01*
X250745Y872555D01*
X250833Y872786D01*
X250916Y873020D01*
X250993Y873255D01*
X251064Y873492D01*
X251130Y873730D01*
X251189Y873970D01*
X251243Y874212D01*
X251291Y874455D01*
X251333Y874698D01*
X251369Y874943D01*
X251399Y875189D01*
X251423Y875435D01*
X251441Y875682D01*
X251453Y875929D01*
X251459Y876176D01*
X251459Y876424D01*
X251453Y876671D01*
X251441Y876918D01*
X251423Y877165D01*
X251399Y877411D01*
X251369Y877657D01*
X251333Y877902D01*
X251291Y878145D01*
X251243Y878388D01*
X251189Y878630D01*
X251130Y878870D01*
X251064Y879108D01*
X250993Y879345D01*
X250916Y879580D01*
X250833Y879814D01*
X250745Y880045D01*
X250651Y880274D01*
X250551Y880500D01*
X250446Y880724D01*
X250336Y880946D01*
X250220Y881164D01*
X250099Y881380D01*
X249973Y881593D01*
X249841Y881802D01*
X249705Y882009D01*
X249563Y882212D01*
X249417Y882411D01*
X249265Y882607D01*
X249109Y882799D01*
X248949Y882987D01*
X248784Y883172D01*
X248614Y883352D01*
X248440Y883528D01*
X248262Y883700D01*
X248080Y883867D01*
X247894Y884030D01*
X247704Y884188D01*
X247510Y884342D01*
X247312Y884490D01*
X247111Y884634D01*
X246906Y884773D01*
X246698Y884907D01*
X246487Y885036D01*
X246272Y885160D01*
X246055Y885278D01*
X245835Y885392D01*
X245612Y885499D01*
X245387Y885602D01*
X245159Y885698D01*
X244929Y885790D01*
X244697Y885875D01*
X244463Y885955D01*
X244227Y886029D01*
X243989Y886098D01*
X243750Y886160D01*
X243509Y886217D01*
X243267Y886268D01*
X243024Y886313D01*
X242779Y886352D01*
X242534Y886385D01*
X242288Y886412D01*
X242042Y886433D01*
X241795Y886448D01*
X241547Y886457D01*
X241300Y886460D01*
D15*
X236855Y850268D02*
X236855Y846455D01*
X236855Y848362D02*
X225415Y848362D01*
X225415Y850268D02*
X225415Y846455D01*
X225415Y859971D02*
X227322Y861877D01*
X225415Y859971D02*
X225415Y856158D01*
X227322Y854251D01*
X234948Y854251D01*
X236855Y856158D01*
X236855Y859971D01*
X234948Y861877D01*
X227322Y869758D02*
X225415Y873571D01*
X227322Y869758D02*
X231135Y865945D01*
X234948Y865945D01*
X236855Y867852D01*
X236855Y871665D01*
X234948Y873571D01*
X233042Y873571D01*
X231135Y871665D01*
X231135Y865945D01*
D11*
X457200Y1032510D02*
X660400Y1032510D01*
X660400Y974090D02*
X457200Y974090D01*
X660400Y974090D02*
X660400Y1032510D01*
X457200Y1032510D02*
X457200Y1013460D01*
X457200Y993140D02*
X457200Y974090D01*
X457200Y993140D02*
X457447Y993143D01*
X457695Y993152D01*
X457942Y993167D01*
X458188Y993188D01*
X458434Y993215D01*
X458679Y993248D01*
X458924Y993287D01*
X459167Y993332D01*
X459409Y993383D01*
X459650Y993440D01*
X459889Y993502D01*
X460127Y993571D01*
X460363Y993645D01*
X460597Y993725D01*
X460829Y993810D01*
X461059Y993902D01*
X461287Y993998D01*
X461512Y994101D01*
X461735Y994208D01*
X461955Y994322D01*
X462172Y994440D01*
X462387Y994564D01*
X462598Y994693D01*
X462806Y994827D01*
X463011Y994966D01*
X463212Y995110D01*
X463410Y995258D01*
X463604Y995412D01*
X463794Y995570D01*
X463980Y995733D01*
X464162Y995900D01*
X464340Y996072D01*
X464514Y996248D01*
X464684Y996428D01*
X464849Y996613D01*
X465009Y996801D01*
X465165Y996993D01*
X465317Y997189D01*
X465463Y997388D01*
X465605Y997591D01*
X465741Y997798D01*
X465873Y998007D01*
X465999Y998220D01*
X466120Y998436D01*
X466236Y998654D01*
X466346Y998876D01*
X466451Y999100D01*
X466551Y999326D01*
X466645Y999555D01*
X466733Y999786D01*
X466816Y1000020D01*
X466893Y1000255D01*
X466964Y1000492D01*
X467030Y1000730D01*
X467089Y1000970D01*
X467143Y1001212D01*
X467191Y1001455D01*
X467233Y1001698D01*
X467269Y1001943D01*
X467299Y1002189D01*
X467323Y1002435D01*
X467341Y1002682D01*
X467353Y1002929D01*
X467359Y1003176D01*
X467359Y1003424D01*
X467353Y1003671D01*
X467341Y1003918D01*
X467323Y1004165D01*
X467299Y1004411D01*
X467269Y1004657D01*
X467233Y1004902D01*
X467191Y1005145D01*
X467143Y1005388D01*
X467089Y1005630D01*
X467030Y1005870D01*
X466964Y1006108D01*
X466893Y1006345D01*
X466816Y1006580D01*
X466733Y1006814D01*
X466645Y1007045D01*
X466551Y1007274D01*
X466451Y1007500D01*
X466346Y1007724D01*
X466236Y1007946D01*
X466120Y1008164D01*
X465999Y1008380D01*
X465873Y1008593D01*
X465741Y1008802D01*
X465605Y1009009D01*
X465463Y1009212D01*
X465317Y1009411D01*
X465165Y1009607D01*
X465009Y1009799D01*
X464849Y1009987D01*
X464684Y1010172D01*
X464514Y1010352D01*
X464340Y1010528D01*
X464162Y1010700D01*
X463980Y1010867D01*
X463794Y1011030D01*
X463604Y1011188D01*
X463410Y1011342D01*
X463212Y1011490D01*
X463011Y1011634D01*
X462806Y1011773D01*
X462598Y1011907D01*
X462387Y1012036D01*
X462172Y1012160D01*
X461955Y1012278D01*
X461735Y1012392D01*
X461512Y1012499D01*
X461287Y1012602D01*
X461059Y1012698D01*
X460829Y1012790D01*
X460597Y1012875D01*
X460363Y1012955D01*
X460127Y1013029D01*
X459889Y1013098D01*
X459650Y1013160D01*
X459409Y1013217D01*
X459167Y1013268D01*
X458924Y1013313D01*
X458679Y1013352D01*
X458434Y1013385D01*
X458188Y1013412D01*
X457942Y1013433D01*
X457695Y1013448D01*
X457447Y1013457D01*
X457200Y1013460D01*
D15*
X452755Y978538D02*
X452755Y974725D01*
X452755Y976632D02*
X441315Y976632D01*
X441315Y978538D02*
X441315Y974725D01*
X441315Y988241D02*
X443222Y990147D01*
X441315Y988241D02*
X441315Y984428D01*
X443222Y982521D01*
X450848Y982521D01*
X452755Y984428D01*
X452755Y988241D01*
X450848Y990147D01*
X441315Y994215D02*
X441315Y1001841D01*
X443222Y1001841D01*
X450848Y994215D01*
X452755Y994215D01*
D11*
X546100Y410210D02*
X292100Y410210D01*
X292100Y351790D02*
X546100Y351790D01*
X546100Y410210D01*
X292100Y410210D02*
X292100Y391160D01*
X292100Y370840D02*
X292100Y351790D01*
X292100Y370840D02*
X292347Y370843D01*
X292595Y370852D01*
X292842Y370867D01*
X293088Y370888D01*
X293334Y370915D01*
X293579Y370948D01*
X293824Y370987D01*
X294067Y371032D01*
X294309Y371083D01*
X294550Y371140D01*
X294789Y371202D01*
X295027Y371271D01*
X295263Y371345D01*
X295497Y371425D01*
X295729Y371510D01*
X295959Y371602D01*
X296187Y371698D01*
X296412Y371801D01*
X296635Y371908D01*
X296855Y372022D01*
X297072Y372140D01*
X297287Y372264D01*
X297498Y372393D01*
X297706Y372527D01*
X297911Y372666D01*
X298112Y372810D01*
X298310Y372958D01*
X298504Y373112D01*
X298694Y373270D01*
X298880Y373433D01*
X299062Y373600D01*
X299240Y373772D01*
X299414Y373948D01*
X299584Y374128D01*
X299749Y374313D01*
X299909Y374501D01*
X300065Y374693D01*
X300217Y374889D01*
X300363Y375088D01*
X300505Y375291D01*
X300641Y375498D01*
X300773Y375707D01*
X300899Y375920D01*
X301020Y376136D01*
X301136Y376354D01*
X301246Y376576D01*
X301351Y376800D01*
X301451Y377026D01*
X301545Y377255D01*
X301633Y377486D01*
X301716Y377720D01*
X301793Y377955D01*
X301864Y378192D01*
X301930Y378430D01*
X301989Y378670D01*
X302043Y378912D01*
X302091Y379155D01*
X302133Y379398D01*
X302169Y379643D01*
X302199Y379889D01*
X302223Y380135D01*
X302241Y380382D01*
X302253Y380629D01*
X302259Y380876D01*
X302259Y381124D01*
X302253Y381371D01*
X302241Y381618D01*
X302223Y381865D01*
X302199Y382111D01*
X302169Y382357D01*
X302133Y382602D01*
X302091Y382845D01*
X302043Y383088D01*
X301989Y383330D01*
X301930Y383570D01*
X301864Y383808D01*
X301793Y384045D01*
X301716Y384280D01*
X301633Y384514D01*
X301545Y384745D01*
X301451Y384974D01*
X301351Y385200D01*
X301246Y385424D01*
X301136Y385646D01*
X301020Y385864D01*
X300899Y386080D01*
X300773Y386293D01*
X300641Y386502D01*
X300505Y386709D01*
X300363Y386912D01*
X300217Y387111D01*
X300065Y387307D01*
X299909Y387499D01*
X299749Y387687D01*
X299584Y387872D01*
X299414Y388052D01*
X299240Y388228D01*
X299062Y388400D01*
X298880Y388567D01*
X298694Y388730D01*
X298504Y388888D01*
X298310Y389042D01*
X298112Y389190D01*
X297911Y389334D01*
X297706Y389473D01*
X297498Y389607D01*
X297287Y389736D01*
X297072Y389860D01*
X296855Y389978D01*
X296635Y390092D01*
X296412Y390199D01*
X296187Y390302D01*
X295959Y390398D01*
X295729Y390490D01*
X295497Y390575D01*
X295263Y390655D01*
X295027Y390729D01*
X294789Y390798D01*
X294550Y390860D01*
X294309Y390917D01*
X294067Y390968D01*
X293824Y391013D01*
X293579Y391052D01*
X293334Y391085D01*
X293088Y391112D01*
X292842Y391133D01*
X292595Y391148D01*
X292347Y391157D01*
X292100Y391160D01*
D18*
X287782Y354926D02*
X287782Y351028D01*
X287782Y352977D02*
X276088Y352977D01*
X276088Y351028D02*
X276088Y354926D01*
X276088Y364671D02*
X278037Y366620D01*
X276088Y364671D02*
X276088Y360773D01*
X278037Y358824D01*
X285833Y358824D01*
X287782Y360773D01*
X287782Y364671D01*
X285833Y366620D01*
X278037Y370518D02*
X276088Y372467D01*
X276088Y376365D01*
X278037Y378314D01*
X279986Y378314D01*
X281935Y376365D01*
X283884Y378314D01*
X285833Y378314D01*
X287782Y376365D01*
X287782Y372467D01*
X285833Y370518D01*
X283884Y370518D01*
X281935Y372467D01*
X279986Y370518D01*
X278037Y370518D01*
X281935Y372467D02*
X281935Y376365D01*
D11*
X292100Y245110D02*
X546100Y245110D01*
X546100Y186690D02*
X292100Y186690D01*
X546100Y186690D02*
X546100Y245110D01*
X292100Y245110D02*
X292100Y226060D01*
X292100Y205740D02*
X292100Y186690D01*
X292100Y205740D02*
X292347Y205743D01*
X292595Y205752D01*
X292842Y205767D01*
X293088Y205788D01*
X293334Y205815D01*
X293579Y205848D01*
X293824Y205887D01*
X294067Y205932D01*
X294309Y205983D01*
X294550Y206040D01*
X294789Y206102D01*
X295027Y206171D01*
X295263Y206245D01*
X295497Y206325D01*
X295729Y206410D01*
X295959Y206502D01*
X296187Y206598D01*
X296412Y206701D01*
X296635Y206808D01*
X296855Y206922D01*
X297072Y207040D01*
X297287Y207164D01*
X297498Y207293D01*
X297706Y207427D01*
X297911Y207566D01*
X298112Y207710D01*
X298310Y207858D01*
X298504Y208012D01*
X298694Y208170D01*
X298880Y208333D01*
X299062Y208500D01*
X299240Y208672D01*
X299414Y208848D01*
X299584Y209028D01*
X299749Y209213D01*
X299909Y209401D01*
X300065Y209593D01*
X300217Y209789D01*
X300363Y209988D01*
X300505Y210191D01*
X300641Y210398D01*
X300773Y210607D01*
X300899Y210820D01*
X301020Y211036D01*
X301136Y211254D01*
X301246Y211476D01*
X301351Y211700D01*
X301451Y211926D01*
X301545Y212155D01*
X301633Y212386D01*
X301716Y212620D01*
X301793Y212855D01*
X301864Y213092D01*
X301930Y213330D01*
X301989Y213570D01*
X302043Y213812D01*
X302091Y214055D01*
X302133Y214298D01*
X302169Y214543D01*
X302199Y214789D01*
X302223Y215035D01*
X302241Y215282D01*
X302253Y215529D01*
X302259Y215776D01*
X302259Y216024D01*
X302253Y216271D01*
X302241Y216518D01*
X302223Y216765D01*
X302199Y217011D01*
X302169Y217257D01*
X302133Y217502D01*
X302091Y217745D01*
X302043Y217988D01*
X301989Y218230D01*
X301930Y218470D01*
X301864Y218708D01*
X301793Y218945D01*
X301716Y219180D01*
X301633Y219414D01*
X301545Y219645D01*
X301451Y219874D01*
X301351Y220100D01*
X301246Y220324D01*
X301136Y220546D01*
X301020Y220764D01*
X300899Y220980D01*
X300773Y221193D01*
X300641Y221402D01*
X300505Y221609D01*
X300363Y221812D01*
X300217Y222011D01*
X300065Y222207D01*
X299909Y222399D01*
X299749Y222587D01*
X299584Y222772D01*
X299414Y222952D01*
X299240Y223128D01*
X299062Y223300D01*
X298880Y223467D01*
X298694Y223630D01*
X298504Y223788D01*
X298310Y223942D01*
X298112Y224090D01*
X297911Y224234D01*
X297706Y224373D01*
X297498Y224507D01*
X297287Y224636D01*
X297072Y224760D01*
X296855Y224878D01*
X296635Y224992D01*
X296412Y225099D01*
X296187Y225202D01*
X295959Y225298D01*
X295729Y225390D01*
X295497Y225475D01*
X295263Y225555D01*
X295027Y225629D01*
X294789Y225698D01*
X294550Y225760D01*
X294309Y225817D01*
X294067Y225868D01*
X293824Y225913D01*
X293579Y225952D01*
X293334Y225985D01*
X293088Y226012D01*
X292842Y226033D01*
X292595Y226048D01*
X292347Y226057D01*
X292100Y226060D01*
D18*
X287782Y189826D02*
X287782Y185928D01*
X287782Y187877D02*
X276088Y187877D01*
X276088Y185928D02*
X276088Y189826D01*
X276088Y199571D02*
X278037Y201520D01*
X276088Y199571D02*
X276088Y195673D01*
X278037Y193724D01*
X285833Y193724D01*
X287782Y195673D01*
X287782Y199571D01*
X285833Y201520D01*
X285833Y205418D02*
X287782Y207367D01*
X287782Y211265D01*
X285833Y213214D01*
X278037Y213214D01*
X276088Y211265D01*
X276088Y207367D01*
X278037Y205418D01*
X279986Y205418D01*
X281935Y207367D01*
X281935Y213214D01*
D11*
X482600Y905510D02*
X660400Y905510D01*
X660400Y847090D02*
X482600Y847090D01*
X660400Y847090D02*
X660400Y905510D01*
X482600Y905510D02*
X482600Y886460D01*
X482600Y866140D02*
X482600Y847090D01*
X482600Y866140D02*
X482847Y866143D01*
X483095Y866152D01*
X483342Y866167D01*
X483588Y866188D01*
X483834Y866215D01*
X484079Y866248D01*
X484324Y866287D01*
X484567Y866332D01*
X484809Y866383D01*
X485050Y866440D01*
X485289Y866502D01*
X485527Y866571D01*
X485763Y866645D01*
X485997Y866725D01*
X486229Y866810D01*
X486459Y866902D01*
X486687Y866998D01*
X486912Y867101D01*
X487135Y867208D01*
X487355Y867322D01*
X487572Y867440D01*
X487787Y867564D01*
X487998Y867693D01*
X488206Y867827D01*
X488411Y867966D01*
X488612Y868110D01*
X488810Y868258D01*
X489004Y868412D01*
X489194Y868570D01*
X489380Y868733D01*
X489562Y868900D01*
X489740Y869072D01*
X489914Y869248D01*
X490084Y869428D01*
X490249Y869613D01*
X490409Y869801D01*
X490565Y869993D01*
X490717Y870189D01*
X490863Y870388D01*
X491005Y870591D01*
X491141Y870798D01*
X491273Y871007D01*
X491399Y871220D01*
X491520Y871436D01*
X491636Y871654D01*
X491746Y871876D01*
X491851Y872100D01*
X491951Y872326D01*
X492045Y872555D01*
X492133Y872786D01*
X492216Y873020D01*
X492293Y873255D01*
X492364Y873492D01*
X492430Y873730D01*
X492489Y873970D01*
X492543Y874212D01*
X492591Y874455D01*
X492633Y874698D01*
X492669Y874943D01*
X492699Y875189D01*
X492723Y875435D01*
X492741Y875682D01*
X492753Y875929D01*
X492759Y876176D01*
X492759Y876424D01*
X492753Y876671D01*
X492741Y876918D01*
X492723Y877165D01*
X492699Y877411D01*
X492669Y877657D01*
X492633Y877902D01*
X492591Y878145D01*
X492543Y878388D01*
X492489Y878630D01*
X492430Y878870D01*
X492364Y879108D01*
X492293Y879345D01*
X492216Y879580D01*
X492133Y879814D01*
X492045Y880045D01*
X491951Y880274D01*
X491851Y880500D01*
X491746Y880724D01*
X491636Y880946D01*
X491520Y881164D01*
X491399Y881380D01*
X491273Y881593D01*
X491141Y881802D01*
X491005Y882009D01*
X490863Y882212D01*
X490717Y882411D01*
X490565Y882607D01*
X490409Y882799D01*
X490249Y882987D01*
X490084Y883172D01*
X489914Y883352D01*
X489740Y883528D01*
X489562Y883700D01*
X489380Y883867D01*
X489194Y884030D01*
X489004Y884188D01*
X488810Y884342D01*
X488612Y884490D01*
X488411Y884634D01*
X488206Y884773D01*
X487998Y884907D01*
X487787Y885036D01*
X487572Y885160D01*
X487355Y885278D01*
X487135Y885392D01*
X486912Y885499D01*
X486687Y885602D01*
X486459Y885698D01*
X486229Y885790D01*
X485997Y885875D01*
X485763Y885955D01*
X485527Y886029D01*
X485289Y886098D01*
X485050Y886160D01*
X484809Y886217D01*
X484567Y886268D01*
X484324Y886313D01*
X484079Y886352D01*
X483834Y886385D01*
X483588Y886412D01*
X483342Y886433D01*
X483095Y886448D01*
X482847Y886457D01*
X482600Y886460D01*
D15*
X478155Y850268D02*
X478155Y846455D01*
X478155Y848362D02*
X466715Y848362D01*
X466715Y850268D02*
X466715Y846455D01*
X466715Y859971D02*
X468622Y861877D01*
X466715Y859971D02*
X466715Y856158D01*
X468622Y854251D01*
X476248Y854251D01*
X478155Y856158D01*
X478155Y859971D01*
X476248Y861877D01*
X478155Y871665D02*
X466715Y871665D01*
X472435Y865945D01*
X472435Y873571D01*
D11*
X546100Y651510D02*
X292100Y651510D01*
X292100Y593090D02*
X546100Y593090D01*
X546100Y651510D01*
X292100Y651510D02*
X292100Y632460D01*
X292100Y612140D02*
X292100Y593090D01*
X292100Y612140D02*
X292347Y612143D01*
X292595Y612152D01*
X292842Y612167D01*
X293088Y612188D01*
X293334Y612215D01*
X293579Y612248D01*
X293824Y612287D01*
X294067Y612332D01*
X294309Y612383D01*
X294550Y612440D01*
X294789Y612502D01*
X295027Y612571D01*
X295263Y612645D01*
X295497Y612725D01*
X295729Y612810D01*
X295959Y612902D01*
X296187Y612998D01*
X296412Y613101D01*
X296635Y613208D01*
X296855Y613322D01*
X297072Y613440D01*
X297287Y613564D01*
X297498Y613693D01*
X297706Y613827D01*
X297911Y613966D01*
X298112Y614110D01*
X298310Y614258D01*
X298504Y614412D01*
X298694Y614570D01*
X298880Y614733D01*
X299062Y614900D01*
X299240Y615072D01*
X299414Y615248D01*
X299584Y615428D01*
X299749Y615613D01*
X299909Y615801D01*
X300065Y615993D01*
X300217Y616189D01*
X300363Y616388D01*
X300505Y616591D01*
X300641Y616798D01*
X300773Y617007D01*
X300899Y617220D01*
X301020Y617436D01*
X301136Y617654D01*
X301246Y617876D01*
X301351Y618100D01*
X301451Y618326D01*
X301545Y618555D01*
X301633Y618786D01*
X301716Y619020D01*
X301793Y619255D01*
X301864Y619492D01*
X301930Y619730D01*
X301989Y619970D01*
X302043Y620212D01*
X302091Y620455D01*
X302133Y620698D01*
X302169Y620943D01*
X302199Y621189D01*
X302223Y621435D01*
X302241Y621682D01*
X302253Y621929D01*
X302259Y622176D01*
X302259Y622424D01*
X302253Y622671D01*
X302241Y622918D01*
X302223Y623165D01*
X302199Y623411D01*
X302169Y623657D01*
X302133Y623902D01*
X302091Y624145D01*
X302043Y624388D01*
X301989Y624630D01*
X301930Y624870D01*
X301864Y625108D01*
X301793Y625345D01*
X301716Y625580D01*
X301633Y625814D01*
X301545Y626045D01*
X301451Y626274D01*
X301351Y626500D01*
X301246Y626724D01*
X301136Y626946D01*
X301020Y627164D01*
X300899Y627380D01*
X300773Y627593D01*
X300641Y627802D01*
X300505Y628009D01*
X300363Y628212D01*
X300217Y628411D01*
X300065Y628607D01*
X299909Y628799D01*
X299749Y628987D01*
X299584Y629172D01*
X299414Y629352D01*
X299240Y629528D01*
X299062Y629700D01*
X298880Y629867D01*
X298694Y630030D01*
X298504Y630188D01*
X298310Y630342D01*
X298112Y630490D01*
X297911Y630634D01*
X297706Y630773D01*
X297498Y630907D01*
X297287Y631036D01*
X297072Y631160D01*
X296855Y631278D01*
X296635Y631392D01*
X296412Y631499D01*
X296187Y631602D01*
X295959Y631698D01*
X295729Y631790D01*
X295497Y631875D01*
X295263Y631955D01*
X295027Y632029D01*
X294789Y632098D01*
X294550Y632160D01*
X294309Y632217D01*
X294067Y632268D01*
X293824Y632313D01*
X293579Y632352D01*
X293334Y632385D01*
X293088Y632412D01*
X292842Y632433D01*
X292595Y632448D01*
X292347Y632457D01*
X292100Y632460D01*
D18*
X287782Y596226D02*
X287782Y592328D01*
X287782Y594277D02*
X276088Y594277D01*
X276088Y592328D02*
X276088Y596226D01*
X276088Y605971D02*
X278037Y607920D01*
X276088Y605971D02*
X276088Y602073D01*
X278037Y600124D01*
X285833Y600124D01*
X287782Y602073D01*
X287782Y605971D01*
X285833Y607920D01*
X276088Y611818D02*
X276088Y619614D01*
X276088Y611818D02*
X281935Y611818D01*
X279986Y615716D01*
X279986Y617665D01*
X281935Y619614D01*
X285833Y619614D01*
X287782Y617665D01*
X287782Y613767D01*
X285833Y611818D01*
D11*
X546100Y508000D02*
X546100Y482600D01*
X317500Y482600D02*
X317500Y508000D01*
X323850Y488950D02*
X317500Y482600D01*
X323850Y501650D02*
X317500Y508000D01*
X336550Y501650D02*
X342900Y508000D01*
X546100Y508000D01*
X342900Y482600D02*
X336550Y488950D01*
X342900Y482600D02*
X317500Y482600D01*
X342900Y482600D02*
X342900Y508000D01*
X317500Y508000D01*
X342900Y482600D02*
X546100Y482600D01*
D15*
X343535Y514985D02*
X343535Y526425D01*
X349255Y526425D01*
X351162Y524518D01*
X351162Y520705D01*
X349255Y518798D01*
X343535Y518798D01*
X347348Y518798D02*
X351162Y514985D01*
X355229Y514985D02*
X355229Y526425D01*
X362855Y514985D01*
X362855Y526425D01*
X366923Y524518D02*
X368830Y526425D01*
X372643Y526425D01*
X374549Y524518D01*
X374549Y522612D01*
X372643Y520705D01*
X370736Y520705D01*
X372643Y520705D02*
X374549Y518798D01*
X374549Y516892D01*
X372643Y514985D01*
X368830Y514985D01*
X366923Y516892D01*
D11*
X546100Y736600D02*
X546100Y762000D01*
X317500Y762000D02*
X317500Y736600D01*
X323850Y742950D01*
X323850Y755650D02*
X317500Y762000D01*
X336550Y755650D02*
X342900Y762000D01*
X546100Y762000D01*
X342900Y736600D02*
X336550Y742950D01*
X342900Y736600D02*
X317500Y736600D01*
X342900Y736600D02*
X342900Y762000D01*
X317500Y762000D01*
X342900Y736600D02*
X546100Y736600D01*
D15*
X343535Y768985D02*
X343535Y780425D01*
X349255Y780425D01*
X351162Y778518D01*
X351162Y774705D01*
X349255Y772798D01*
X343535Y772798D01*
X347348Y772798D02*
X351162Y768985D01*
X355229Y768985D02*
X355229Y780425D01*
X362855Y768985D01*
X362855Y780425D01*
X372643Y780425D02*
X372643Y768985D01*
X366923Y774705D02*
X372643Y780425D01*
X374549Y774705D02*
X366923Y774705D01*
D11*
X419100Y1032510D02*
X241300Y1032510D01*
X241300Y974090D02*
X419100Y974090D01*
X419100Y1032510D01*
X241300Y1032510D02*
X241300Y1013460D01*
X241300Y993140D02*
X241300Y974090D01*
X241300Y993140D02*
X241547Y993143D01*
X241795Y993152D01*
X242042Y993167D01*
X242288Y993188D01*
X242534Y993215D01*
X242779Y993248D01*
X243024Y993287D01*
X243267Y993332D01*
X243509Y993383D01*
X243750Y993440D01*
X243989Y993502D01*
X244227Y993571D01*
X244463Y993645D01*
X244697Y993725D01*
X244929Y993810D01*
X245159Y993902D01*
X245387Y993998D01*
X245612Y994101D01*
X245835Y994208D01*
X246055Y994322D01*
X246272Y994440D01*
X246487Y994564D01*
X246698Y994693D01*
X246906Y994827D01*
X247111Y994966D01*
X247312Y995110D01*
X247510Y995258D01*
X247704Y995412D01*
X247894Y995570D01*
X248080Y995733D01*
X248262Y995900D01*
X248440Y996072D01*
X248614Y996248D01*
X248784Y996428D01*
X248949Y996613D01*
X249109Y996801D01*
X249265Y996993D01*
X249417Y997189D01*
X249563Y997388D01*
X249705Y997591D01*
X249841Y997798D01*
X249973Y998007D01*
X250099Y998220D01*
X250220Y998436D01*
X250336Y998654D01*
X250446Y998876D01*
X250551Y999100D01*
X250651Y999326D01*
X250745Y999555D01*
X250833Y999786D01*
X250916Y1000020D01*
X250993Y1000255D01*
X251064Y1000492D01*
X251130Y1000730D01*
X251189Y1000970D01*
X251243Y1001212D01*
X251291Y1001455D01*
X251333Y1001698D01*
X251369Y1001943D01*
X251399Y1002189D01*
X251423Y1002435D01*
X251441Y1002682D01*
X251453Y1002929D01*
X251459Y1003176D01*
X251459Y1003424D01*
X251453Y1003671D01*
X251441Y1003918D01*
X251423Y1004165D01*
X251399Y1004411D01*
X251369Y1004657D01*
X251333Y1004902D01*
X251291Y1005145D01*
X251243Y1005388D01*
X251189Y1005630D01*
X251130Y1005870D01*
X251064Y1006108D01*
X250993Y1006345D01*
X250916Y1006580D01*
X250833Y1006814D01*
X250745Y1007045D01*
X250651Y1007274D01*
X250551Y1007500D01*
X250446Y1007724D01*
X250336Y1007946D01*
X250220Y1008164D01*
X250099Y1008380D01*
X249973Y1008593D01*
X249841Y1008802D01*
X249705Y1009009D01*
X249563Y1009212D01*
X249417Y1009411D01*
X249265Y1009607D01*
X249109Y1009799D01*
X248949Y1009987D01*
X248784Y1010172D01*
X248614Y1010352D01*
X248440Y1010528D01*
X248262Y1010700D01*
X248080Y1010867D01*
X247894Y1011030D01*
X247704Y1011188D01*
X247510Y1011342D01*
X247312Y1011490D01*
X247111Y1011634D01*
X246906Y1011773D01*
X246698Y1011907D01*
X246487Y1012036D01*
X246272Y1012160D01*
X246055Y1012278D01*
X245835Y1012392D01*
X245612Y1012499D01*
X245387Y1012602D01*
X245159Y1012698D01*
X244929Y1012790D01*
X244697Y1012875D01*
X244463Y1012955D01*
X244227Y1013029D01*
X243989Y1013098D01*
X243750Y1013160D01*
X243509Y1013217D01*
X243267Y1013268D01*
X243024Y1013313D01*
X242779Y1013352D01*
X242534Y1013385D01*
X242288Y1013412D01*
X242042Y1013433D01*
X241795Y1013448D01*
X241547Y1013457D01*
X241300Y1013460D01*
D15*
X236855Y977268D02*
X236855Y973455D01*
X236855Y975362D02*
X225415Y975362D01*
X225415Y977268D02*
X225415Y973455D01*
X225415Y986971D02*
X227322Y988877D01*
X225415Y986971D02*
X225415Y983158D01*
X227322Y981251D01*
X234948Y981251D01*
X236855Y983158D01*
X236855Y986971D01*
X234948Y988877D01*
X229229Y992945D02*
X225415Y996758D01*
X236855Y996758D01*
X236855Y992945D02*
X236855Y1000571D01*
X234948Y1004639D02*
X227322Y1004639D01*
X225415Y1006546D01*
X225415Y1010359D01*
X227322Y1012265D01*
X234948Y1012265D01*
X236855Y1010359D01*
X236855Y1006546D01*
X234948Y1004639D01*
X227322Y1012265D01*
M02*
