G04 EAGLE Gerber RS-274X export*
G75*
%MOMM*%
%FSLAX34Y34*%
%LPD*%
%INSoldermask Top*%
%IPPOS*%
%AMOC8*
5,1,8,0,0,1.08239X$1,22.5*%
G01*
%ADD10P,1.787026X8X202.500000*%
%ADD11C,2.921000*%
%ADD12P,1.457113X8X202.500000*%
%ADD13C,1.346200*%
%ADD14C,0.685800*%


D10*
X50800Y177800D03*
X50800Y203200D03*
X50800Y228600D03*
X50800Y254000D03*
X50800Y279400D03*
X50800Y304800D03*
X50800Y330200D03*
X50800Y355600D03*
X50800Y381000D03*
X50800Y406400D03*
X50800Y431800D03*
X50800Y457200D03*
X50800Y482600D03*
X50800Y508000D03*
X50800Y533400D03*
X50800Y558800D03*
X76200Y177800D03*
X76200Y203200D03*
X76200Y228600D03*
X76200Y254000D03*
X76200Y279400D03*
X76200Y304800D03*
X76200Y330200D03*
X76200Y355600D03*
X76200Y381000D03*
X76200Y406400D03*
X76200Y431800D03*
X76200Y457200D03*
X76200Y482600D03*
X76200Y508000D03*
X76200Y533400D03*
X76200Y558800D03*
X101600Y177800D03*
X101600Y203200D03*
X101600Y228600D03*
X101600Y254000D03*
X101600Y279400D03*
X101600Y304800D03*
X101600Y330200D03*
X101600Y355600D03*
X101600Y381000D03*
X101600Y406400D03*
X101600Y431800D03*
X101600Y457200D03*
X101600Y482600D03*
X101600Y508000D03*
X101600Y533400D03*
X101600Y558800D03*
X50800Y584200D03*
X50800Y609600D03*
X50800Y635000D03*
X50800Y660400D03*
X50800Y685800D03*
X50800Y711200D03*
X50800Y736600D03*
X50800Y762000D03*
X50800Y787400D03*
X50800Y812800D03*
X50800Y838200D03*
X50800Y863600D03*
X50800Y889000D03*
X50800Y914400D03*
X50800Y939800D03*
X50800Y965200D03*
X76200Y584200D03*
X76200Y609600D03*
X76200Y635000D03*
X76200Y660400D03*
X76200Y685800D03*
X76200Y711200D03*
X76200Y736600D03*
X76200Y762000D03*
X76200Y787400D03*
X76200Y812800D03*
X76200Y838200D03*
X76200Y863600D03*
X76200Y889000D03*
X76200Y914400D03*
X76200Y939800D03*
X76200Y965200D03*
X101600Y584200D03*
X101600Y609600D03*
X101600Y635000D03*
X101600Y660400D03*
X101600Y685800D03*
X101600Y711200D03*
X101600Y736600D03*
X101600Y762000D03*
X101600Y787400D03*
X101600Y812800D03*
X101600Y838200D03*
X101600Y863600D03*
X101600Y889000D03*
X101600Y914400D03*
X101600Y939800D03*
X101600Y965200D03*
D11*
X25400Y1016064D03*
X25400Y126936D03*
D12*
X1752600Y38100D03*
X1727200Y38100D03*
X1651000Y38100D03*
X1549400Y38100D03*
D13*
X927100Y895604D02*
X927100Y907796D01*
X952500Y907796D02*
X952500Y895604D01*
X977900Y895604D02*
X977900Y907796D01*
X1003300Y907796D02*
X1003300Y895604D01*
X1028700Y895604D02*
X1028700Y907796D01*
X1054100Y907796D02*
X1054100Y895604D01*
X1079500Y895604D02*
X1079500Y907796D01*
X1104900Y907796D02*
X1104900Y895604D01*
X1130300Y895604D02*
X1130300Y907796D01*
X1155700Y907796D02*
X1155700Y895604D01*
X1181100Y895604D02*
X1181100Y907796D01*
X1206500Y907796D02*
X1206500Y895604D01*
X1231900Y895604D02*
X1231900Y907796D01*
X1257300Y907796D02*
X1257300Y895604D01*
X1257300Y1048004D02*
X1257300Y1060196D01*
X1231900Y1060196D02*
X1231900Y1048004D01*
X1206500Y1048004D02*
X1206500Y1060196D01*
X1181100Y1060196D02*
X1181100Y1048004D01*
X1155700Y1048004D02*
X1155700Y1060196D01*
X1130300Y1060196D02*
X1130300Y1048004D01*
X1104900Y1048004D02*
X1104900Y1060196D01*
X1079500Y1060196D02*
X1079500Y1048004D01*
X1054100Y1048004D02*
X1054100Y1060196D01*
X1028700Y1060196D02*
X1028700Y1048004D01*
X1003300Y1048004D02*
X1003300Y1060196D01*
X977900Y1060196D02*
X977900Y1048004D01*
X952500Y1048004D02*
X952500Y1060196D01*
X927100Y1060196D02*
X927100Y1048004D01*
X927100Y679196D02*
X927100Y667004D01*
X952500Y667004D02*
X952500Y679196D01*
X977900Y679196D02*
X977900Y667004D01*
X1003300Y667004D02*
X1003300Y679196D01*
X1028700Y679196D02*
X1028700Y667004D01*
X1054100Y667004D02*
X1054100Y679196D01*
X1079500Y679196D02*
X1079500Y667004D01*
X1104900Y667004D02*
X1104900Y679196D01*
X1130300Y679196D02*
X1130300Y667004D01*
X1155700Y667004D02*
X1155700Y679196D01*
X1181100Y679196D02*
X1181100Y667004D01*
X1206500Y667004D02*
X1206500Y679196D01*
X1231900Y679196D02*
X1231900Y667004D01*
X1257300Y667004D02*
X1257300Y679196D01*
X1257300Y819404D02*
X1257300Y831596D01*
X1231900Y831596D02*
X1231900Y819404D01*
X1206500Y819404D02*
X1206500Y831596D01*
X1181100Y831596D02*
X1181100Y819404D01*
X1155700Y819404D02*
X1155700Y831596D01*
X1130300Y831596D02*
X1130300Y819404D01*
X1104900Y819404D02*
X1104900Y831596D01*
X1079500Y831596D02*
X1079500Y819404D01*
X1054100Y819404D02*
X1054100Y831596D01*
X1028700Y831596D02*
X1028700Y819404D01*
X1003300Y819404D02*
X1003300Y831596D01*
X977900Y831596D02*
X977900Y819404D01*
X952500Y819404D02*
X952500Y831596D01*
X927100Y831596D02*
X927100Y819404D01*
X977900Y209296D02*
X977900Y197104D01*
X1003300Y197104D02*
X1003300Y209296D01*
X1130300Y209296D02*
X1130300Y197104D01*
X1155700Y197104D02*
X1155700Y209296D01*
X1028700Y209296D02*
X1028700Y197104D01*
X1054100Y197104D02*
X1054100Y209296D01*
X1104900Y209296D02*
X1104900Y197104D01*
X1079500Y197104D02*
X1079500Y209296D01*
X1181100Y209296D02*
X1181100Y197104D01*
X1206500Y197104D02*
X1206500Y209296D01*
X1231900Y209296D02*
X1231900Y197104D01*
X1257300Y197104D02*
X1257300Y209296D01*
X1257300Y349504D02*
X1257300Y361696D01*
X1231900Y361696D02*
X1231900Y349504D01*
X1206500Y349504D02*
X1206500Y361696D01*
X1181100Y361696D02*
X1181100Y349504D01*
X1155700Y349504D02*
X1155700Y361696D01*
X1130300Y361696D02*
X1130300Y349504D01*
X1104900Y349504D02*
X1104900Y361696D01*
X1079500Y361696D02*
X1079500Y349504D01*
X1054100Y349504D02*
X1054100Y361696D01*
X1028700Y361696D02*
X1028700Y349504D01*
X1003300Y349504D02*
X1003300Y361696D01*
X977900Y361696D02*
X977900Y349504D01*
X1181100Y82296D02*
X1181100Y70104D01*
X1155700Y70104D02*
X1155700Y82296D01*
X1130300Y82296D02*
X1130300Y70104D01*
X1104900Y70104D02*
X1104900Y82296D01*
X1079500Y82296D02*
X1079500Y70104D01*
X1054100Y70104D02*
X1054100Y82296D01*
X1028700Y82296D02*
X1028700Y70104D01*
X1003300Y70104D02*
X1003300Y82296D01*
X977900Y82296D02*
X977900Y70104D01*
X977900Y590804D02*
X977900Y602996D01*
X1003300Y602996D02*
X1003300Y590804D01*
X1028700Y590804D02*
X1028700Y602996D01*
X1054100Y602996D02*
X1054100Y590804D01*
X1079500Y590804D02*
X1079500Y602996D01*
X1104900Y602996D02*
X1104900Y590804D01*
X1130300Y590804D02*
X1130300Y602996D01*
X1155700Y602996D02*
X1155700Y590804D01*
X1181100Y590804D02*
X1181100Y602996D01*
X254000Y832104D02*
X254000Y844296D01*
X279400Y844296D02*
X279400Y832104D01*
X406400Y832104D02*
X406400Y844296D01*
X406400Y908304D02*
X406400Y920496D01*
X304800Y844296D02*
X304800Y832104D01*
X330200Y832104D02*
X330200Y844296D01*
X381000Y844296D02*
X381000Y832104D01*
X355600Y832104D02*
X355600Y844296D01*
X381000Y908304D02*
X381000Y920496D01*
X355600Y920496D02*
X355600Y908304D01*
X330200Y908304D02*
X330200Y920496D01*
X304800Y920496D02*
X304800Y908304D01*
X279400Y908304D02*
X279400Y920496D01*
X254000Y920496D02*
X254000Y908304D01*
X469900Y959104D02*
X469900Y971296D01*
X495300Y971296D02*
X495300Y959104D01*
X622300Y959104D02*
X622300Y971296D01*
X647700Y971296D02*
X647700Y959104D01*
X520700Y959104D02*
X520700Y971296D01*
X546100Y971296D02*
X546100Y959104D01*
X596900Y959104D02*
X596900Y971296D01*
X571500Y971296D02*
X571500Y959104D01*
X647700Y1035304D02*
X647700Y1047496D01*
X622300Y1047496D02*
X622300Y1035304D01*
X596900Y1035304D02*
X596900Y1047496D01*
X571500Y1047496D02*
X571500Y1035304D01*
X546100Y1035304D02*
X546100Y1047496D01*
X520700Y1047496D02*
X520700Y1035304D01*
X495300Y1035304D02*
X495300Y1047496D01*
X469900Y1047496D02*
X469900Y1035304D01*
X304800Y348996D02*
X304800Y336804D01*
X330200Y336804D02*
X330200Y348996D01*
X457200Y348996D02*
X457200Y336804D01*
X482600Y336804D02*
X482600Y348996D01*
X355600Y348996D02*
X355600Y336804D01*
X381000Y336804D02*
X381000Y348996D01*
X431800Y348996D02*
X431800Y336804D01*
X406400Y336804D02*
X406400Y348996D01*
X508000Y348996D02*
X508000Y336804D01*
X533400Y336804D02*
X533400Y348996D01*
X533400Y413004D02*
X533400Y425196D01*
X508000Y425196D02*
X508000Y413004D01*
X482600Y413004D02*
X482600Y425196D01*
X457200Y425196D02*
X457200Y413004D01*
X431800Y413004D02*
X431800Y425196D01*
X406400Y425196D02*
X406400Y413004D01*
X381000Y413004D02*
X381000Y425196D01*
X355600Y425196D02*
X355600Y413004D01*
X330200Y413004D02*
X330200Y425196D01*
X304800Y425196D02*
X304800Y413004D01*
X304800Y183896D02*
X304800Y171704D01*
X330200Y171704D02*
X330200Y183896D01*
X457200Y183896D02*
X457200Y171704D01*
X482600Y171704D02*
X482600Y183896D01*
X355600Y183896D02*
X355600Y171704D01*
X381000Y171704D02*
X381000Y183896D01*
X431800Y183896D02*
X431800Y171704D01*
X406400Y171704D02*
X406400Y183896D01*
X508000Y183896D02*
X508000Y171704D01*
X533400Y171704D02*
X533400Y183896D01*
X533400Y247904D02*
X533400Y260096D01*
X508000Y260096D02*
X508000Y247904D01*
X482600Y247904D02*
X482600Y260096D01*
X457200Y260096D02*
X457200Y247904D01*
X431800Y247904D02*
X431800Y260096D01*
X406400Y260096D02*
X406400Y247904D01*
X381000Y247904D02*
X381000Y260096D01*
X355600Y260096D02*
X355600Y247904D01*
X330200Y247904D02*
X330200Y260096D01*
X304800Y260096D02*
X304800Y247904D01*
X495300Y832104D02*
X495300Y844296D01*
X520700Y844296D02*
X520700Y832104D01*
X647700Y832104D02*
X647700Y844296D01*
X647700Y908304D02*
X647700Y920496D01*
X546100Y844296D02*
X546100Y832104D01*
X571500Y832104D02*
X571500Y844296D01*
X622300Y844296D02*
X622300Y832104D01*
X596900Y832104D02*
X596900Y844296D01*
X622300Y908304D02*
X622300Y920496D01*
X596900Y920496D02*
X596900Y908304D01*
X571500Y908304D02*
X571500Y920496D01*
X546100Y920496D02*
X546100Y908304D01*
X520700Y908304D02*
X520700Y920496D01*
X495300Y920496D02*
X495300Y908304D01*
X304800Y590296D02*
X304800Y578104D01*
X330200Y578104D02*
X330200Y590296D01*
X457200Y590296D02*
X457200Y578104D01*
X482600Y578104D02*
X482600Y590296D01*
X355600Y590296D02*
X355600Y578104D01*
X381000Y578104D02*
X381000Y590296D01*
X431800Y590296D02*
X431800Y578104D01*
X406400Y578104D02*
X406400Y590296D01*
X508000Y590296D02*
X508000Y578104D01*
X533400Y578104D02*
X533400Y590296D01*
X533400Y654304D02*
X533400Y666496D01*
X508000Y666496D02*
X508000Y654304D01*
X482600Y654304D02*
X482600Y666496D01*
X457200Y666496D02*
X457200Y654304D01*
X431800Y654304D02*
X431800Y666496D01*
X406400Y666496D02*
X406400Y654304D01*
X381000Y654304D02*
X381000Y666496D01*
X355600Y666496D02*
X355600Y654304D01*
X330200Y654304D02*
X330200Y666496D01*
X304800Y666496D02*
X304800Y654304D01*
X330200Y501396D02*
X330200Y489204D01*
X355600Y489204D02*
X355600Y501396D01*
X381000Y501396D02*
X381000Y489204D01*
X406400Y489204D02*
X406400Y501396D01*
X431800Y501396D02*
X431800Y489204D01*
X457200Y489204D02*
X457200Y501396D01*
X482600Y501396D02*
X482600Y489204D01*
X508000Y489204D02*
X508000Y501396D01*
X533400Y501396D02*
X533400Y489204D01*
X330200Y743204D02*
X330200Y755396D01*
X355600Y755396D02*
X355600Y743204D01*
X381000Y743204D02*
X381000Y755396D01*
X406400Y755396D02*
X406400Y743204D01*
X431800Y743204D02*
X431800Y755396D01*
X457200Y755396D02*
X457200Y743204D01*
X482600Y743204D02*
X482600Y755396D01*
X508000Y755396D02*
X508000Y743204D01*
X533400Y743204D02*
X533400Y755396D01*
X254000Y959104D02*
X254000Y971296D01*
X279400Y971296D02*
X279400Y959104D01*
X406400Y959104D02*
X406400Y971296D01*
X406400Y1035304D02*
X406400Y1047496D01*
X304800Y971296D02*
X304800Y959104D01*
X330200Y959104D02*
X330200Y971296D01*
X381000Y971296D02*
X381000Y959104D01*
X355600Y959104D02*
X355600Y971296D01*
X381000Y1035304D02*
X381000Y1047496D01*
X355600Y1047496D02*
X355600Y1035304D01*
X330200Y1035304D02*
X330200Y1047496D01*
X304800Y1047496D02*
X304800Y1035304D01*
X279400Y1035304D02*
X279400Y1047496D01*
X254000Y1047496D02*
X254000Y1035304D01*
D14*
X946150Y606425D03*
X479425Y923925D03*
X327025Y619125D03*
X361950Y698500D03*
X412750Y723900D03*
X438150Y730250D03*
X282575Y641350D03*
X187325Y298450D03*
X371475Y285750D03*
X381000Y292100D03*
X479425Y368300D03*
X365125Y447675D03*
X355600Y155575D03*
X542925Y438150D03*
X473075Y520700D03*
X466725Y527050D03*
X298450Y301625D03*
X1092200Y311150D03*
X1076325Y317500D03*
X1069975Y638175D03*
X1035050Y304800D03*
X1016000Y298450D03*
X984250Y292100D03*
X1009650Y266700D03*
X1025525Y298450D03*
X1057275Y403225D03*
X1060450Y273050D03*
X936625Y231775D03*
X952500Y612775D03*
X930275Y619125D03*
X600075Y987425D03*
X923925Y558800D03*
M02*
