G75*
%MOIN*%
%OFA0B0*%
%FSLAX25Y25*%
%IPPOS*%
%LPD*%
%AMOC8*
5,1,8,0,0,1.08239X$1,22.5*
%
%ADD10C,0.04800*%
%ADD11OC8,0.04800*%
%ADD12OC8,0.06000*%
%ADD13C,0.00500*%
%ADD14C,0.01800*%
D10*
X0143167Y0059400D02*
X0143167Y0064200D01*
X0153167Y0064200D02*
X0153167Y0059400D01*
X0163167Y0059400D02*
X0163167Y0064200D01*
X0173167Y0064200D02*
X0173167Y0059400D01*
X0183167Y0059400D02*
X0183167Y0064200D01*
X0193167Y0064200D02*
X0193167Y0059400D01*
X0203167Y0059400D02*
X0203167Y0064200D01*
X0213167Y0064200D02*
X0213167Y0059400D01*
X0223167Y0059400D02*
X0223167Y0064200D01*
X0233167Y0064200D02*
X0233167Y0059400D01*
X0263167Y0059400D02*
X0263167Y0064200D01*
X0273167Y0064200D02*
X0273167Y0059400D01*
X0283167Y0059400D02*
X0283167Y0064200D01*
X0293167Y0064200D02*
X0293167Y0059400D01*
X0303167Y0059400D02*
X0303167Y0064200D01*
X0313167Y0064200D02*
X0313167Y0059400D01*
X0323167Y0059400D02*
X0323167Y0064200D01*
X0333167Y0064200D02*
X0333167Y0059400D01*
X0343167Y0059400D02*
X0343167Y0064200D01*
X0353167Y0064200D02*
X0353167Y0059400D01*
X0363167Y0044200D02*
X0363167Y0039400D01*
X0373167Y0039400D02*
X0373167Y0044200D01*
X0383167Y0044200D02*
X0383167Y0039400D01*
X0393167Y0039400D02*
X0393167Y0044200D01*
X0403167Y0044200D02*
X0403167Y0039400D01*
X0413167Y0039400D02*
X0413167Y0044200D01*
X0423167Y0044200D02*
X0423167Y0039400D01*
X0453167Y0039400D02*
X0453167Y0044200D01*
X0463167Y0044200D02*
X0463167Y0039400D01*
X0473167Y0039400D02*
X0473167Y0044200D01*
X0483167Y0044200D02*
X0483167Y0039400D01*
X0493167Y0039400D02*
X0493167Y0044200D01*
X0503167Y0044200D02*
X0503167Y0039400D01*
X0513167Y0039400D02*
X0513167Y0044200D01*
X0513167Y0059400D02*
X0513167Y0064200D01*
X0503167Y0064200D02*
X0503167Y0059400D01*
X0523167Y0059400D02*
X0523167Y0064200D01*
X0533167Y0064200D02*
X0533167Y0059400D01*
X0543167Y0059400D02*
X0543167Y0064200D01*
X0553167Y0064200D02*
X0553167Y0059400D01*
X0563167Y0059400D02*
X0563167Y0064200D01*
X0573167Y0064200D02*
X0573167Y0059400D01*
X0583167Y0059400D02*
X0583167Y0064200D01*
X0593167Y0064200D02*
X0593167Y0059400D01*
X0593167Y0044200D02*
X0593167Y0039400D01*
X0603167Y0039400D02*
X0603167Y0044200D01*
X0583167Y0044200D02*
X0583167Y0039400D01*
X0573167Y0039400D02*
X0573167Y0044200D01*
X0563167Y0044200D02*
X0563167Y0039400D01*
X0553167Y0039400D02*
X0553167Y0044200D01*
X0543167Y0044200D02*
X0543167Y0039400D01*
X0543167Y0014200D02*
X0543167Y0009400D01*
X0553167Y0009400D02*
X0553167Y0014200D01*
X0563167Y0014200D02*
X0563167Y0009400D01*
X0573167Y0009400D02*
X0573167Y0014200D01*
X0583167Y0014200D02*
X0583167Y0009400D01*
X0593167Y0009400D02*
X0593167Y0014200D01*
X0603167Y0014200D02*
X0603167Y0009400D01*
X0633167Y0009400D02*
X0633167Y0014200D01*
X0643167Y0014200D02*
X0643167Y0009400D01*
X0653167Y0009400D02*
X0653167Y0014200D01*
X0663167Y0014200D02*
X0663167Y0009400D01*
X0673167Y0009400D02*
X0673167Y0014200D01*
X0683167Y0014200D02*
X0683167Y0009400D01*
X0693167Y0009400D02*
X0693167Y0014200D01*
X0693167Y0039400D02*
X0693167Y0044200D01*
X0683167Y0044200D02*
X0683167Y0039400D01*
X0673167Y0039400D02*
X0673167Y0044200D01*
X0663167Y0044200D02*
X0663167Y0039400D01*
X0653167Y0039400D02*
X0653167Y0044200D01*
X0643167Y0044200D02*
X0643167Y0039400D01*
X0633167Y0039400D02*
X0633167Y0044200D01*
X0633167Y0059400D02*
X0633167Y0064200D01*
X0623167Y0064200D02*
X0623167Y0059400D01*
X0643167Y0059400D02*
X0643167Y0064200D01*
X0653167Y0064200D02*
X0653167Y0059400D01*
X0663167Y0059400D02*
X0663167Y0064200D01*
X0673167Y0064200D02*
X0673167Y0059400D01*
X0683167Y0059400D02*
X0683167Y0064200D01*
X0693167Y0064200D02*
X0693167Y0059400D01*
X0703167Y0059400D02*
X0703167Y0064200D01*
X0713167Y0064200D02*
X0713167Y0059400D01*
X0713167Y0089400D02*
X0713167Y0094200D01*
X0703167Y0094200D02*
X0703167Y0089400D01*
X0693167Y0089400D02*
X0693167Y0094200D01*
X0683167Y0094200D02*
X0683167Y0089400D01*
X0673167Y0089400D02*
X0673167Y0094200D01*
X0663167Y0094200D02*
X0663167Y0089400D01*
X0653167Y0089400D02*
X0653167Y0094200D01*
X0643167Y0094200D02*
X0643167Y0089400D01*
X0633167Y0089400D02*
X0633167Y0094200D01*
X0623167Y0094200D02*
X0623167Y0089400D01*
X0593167Y0089400D02*
X0593167Y0094200D01*
X0583167Y0094200D02*
X0583167Y0089400D01*
X0573167Y0089400D02*
X0573167Y0094200D01*
X0563167Y0094200D02*
X0563167Y0089400D01*
X0553167Y0089400D02*
X0553167Y0094200D01*
X0543167Y0094200D02*
X0543167Y0089400D01*
X0533167Y0089400D02*
X0533167Y0094200D01*
X0523167Y0094200D02*
X0523167Y0089400D01*
X0513167Y0089400D02*
X0513167Y0094200D01*
X0503167Y0094200D02*
X0503167Y0089400D01*
X0473167Y0089400D02*
X0473167Y0094200D01*
X0463167Y0094200D02*
X0463167Y0089400D01*
X0453167Y0089400D02*
X0453167Y0094200D01*
X0443167Y0094200D02*
X0443167Y0089400D01*
X0433167Y0089400D02*
X0433167Y0094200D01*
X0423167Y0094200D02*
X0423167Y0089400D01*
X0413167Y0089400D02*
X0413167Y0094200D01*
X0403167Y0094200D02*
X0403167Y0089400D01*
X0393167Y0089400D02*
X0393167Y0094200D01*
X0383167Y0094200D02*
X0383167Y0089400D01*
X0353167Y0089400D02*
X0353167Y0094200D01*
X0343167Y0094200D02*
X0343167Y0089400D01*
X0333167Y0089400D02*
X0333167Y0094200D01*
X0323167Y0094200D02*
X0323167Y0089400D01*
X0313167Y0089400D02*
X0313167Y0094200D01*
X0303167Y0094200D02*
X0303167Y0089400D01*
X0293167Y0089400D02*
X0293167Y0094200D01*
X0283167Y0094200D02*
X0283167Y0089400D01*
X0273167Y0089400D02*
X0273167Y0094200D01*
X0263167Y0094200D02*
X0263167Y0089400D01*
X0233167Y0089400D02*
X0233167Y0094200D01*
X0223167Y0094200D02*
X0223167Y0089400D01*
X0213167Y0089400D02*
X0213167Y0094200D01*
X0203167Y0094200D02*
X0203167Y0089400D01*
X0193167Y0089400D02*
X0193167Y0094200D01*
X0183167Y0094200D02*
X0183167Y0089400D01*
X0173167Y0089400D02*
X0173167Y0094200D01*
X0163167Y0094200D02*
X0163167Y0089400D01*
X0153167Y0089400D02*
X0153167Y0094200D01*
X0143167Y0094200D02*
X0143167Y0089400D01*
X0143167Y0109400D02*
X0143167Y0114200D01*
X0153167Y0114200D02*
X0153167Y0109400D01*
X0163167Y0109400D02*
X0163167Y0114200D01*
X0173167Y0114200D02*
X0173167Y0109400D01*
X0183167Y0109400D02*
X0183167Y0114200D01*
X0213167Y0114200D02*
X0213167Y0109400D01*
X0223167Y0109400D02*
X0223167Y0114200D01*
X0233167Y0114200D02*
X0233167Y0109400D01*
X0243167Y0109400D02*
X0243167Y0114200D01*
X0253167Y0114200D02*
X0253167Y0109400D01*
X0263167Y0109400D02*
X0263167Y0114200D01*
X0273167Y0114200D02*
X0273167Y0109400D01*
X0283167Y0109400D02*
X0283167Y0114200D01*
X0293167Y0114200D02*
X0293167Y0109400D01*
X0303167Y0109400D02*
X0303167Y0114200D01*
X0333167Y0114200D02*
X0333167Y0109400D01*
X0343167Y0109400D02*
X0343167Y0114200D01*
X0353167Y0114200D02*
X0353167Y0109400D01*
X0363167Y0109400D02*
X0363167Y0114200D01*
X0373167Y0114200D02*
X0373167Y0109400D01*
X0383167Y0109400D02*
X0383167Y0114200D01*
X0393167Y0114200D02*
X0393167Y0109400D01*
X0423167Y0109400D02*
X0423167Y0114200D01*
X0433167Y0114200D02*
X0433167Y0109400D01*
X0443167Y0109400D02*
X0443167Y0114200D01*
X0453167Y0114200D02*
X0453167Y0109400D01*
X0463167Y0109400D02*
X0463167Y0114200D01*
X0473167Y0114200D02*
X0473167Y0109400D01*
X0483167Y0109400D02*
X0483167Y0114200D01*
X0493167Y0114200D02*
X0493167Y0109400D01*
X0523167Y0109400D02*
X0523167Y0114200D01*
X0533167Y0114200D02*
X0533167Y0109400D01*
X0543167Y0109400D02*
X0543167Y0114200D01*
X0553167Y0114200D02*
X0553167Y0109400D01*
X0563167Y0109400D02*
X0563167Y0114200D01*
X0573167Y0114200D02*
X0573167Y0109400D01*
X0583167Y0109400D02*
X0583167Y0114200D01*
X0593167Y0114200D02*
X0593167Y0109400D01*
X0623167Y0109400D02*
X0623167Y0114200D01*
X0633167Y0114200D02*
X0633167Y0109400D01*
X0643167Y0109400D02*
X0643167Y0114200D01*
X0653167Y0114200D02*
X0653167Y0109400D01*
X0663167Y0109400D02*
X0663167Y0114200D01*
X0673167Y0114200D02*
X0673167Y0109400D01*
X0683167Y0109400D02*
X0683167Y0114200D01*
X0693167Y0114200D02*
X0693167Y0109400D01*
X0703167Y0109400D02*
X0703167Y0114200D01*
X0713167Y0114200D02*
X0713167Y0109400D01*
X0713167Y0139400D02*
X0713167Y0144200D01*
X0703167Y0144200D02*
X0703167Y0139400D01*
X0693167Y0139400D02*
X0693167Y0144200D01*
X0683167Y0144200D02*
X0683167Y0139400D01*
X0673167Y0139400D02*
X0673167Y0144200D01*
X0663167Y0144200D02*
X0663167Y0139400D01*
X0653167Y0139400D02*
X0653167Y0144200D01*
X0643167Y0144200D02*
X0643167Y0139400D01*
X0633167Y0139400D02*
X0633167Y0144200D01*
X0623167Y0144200D02*
X0623167Y0139400D01*
X0593167Y0139400D02*
X0593167Y0144200D01*
X0583167Y0144200D02*
X0583167Y0139400D01*
X0573167Y0139400D02*
X0573167Y0144200D01*
X0563167Y0144200D02*
X0563167Y0139400D01*
X0553167Y0139400D02*
X0553167Y0144200D01*
X0543167Y0144200D02*
X0543167Y0139400D01*
X0533167Y0139400D02*
X0533167Y0144200D01*
X0523167Y0144200D02*
X0523167Y0139400D01*
X0493167Y0139400D02*
X0493167Y0144200D01*
X0483167Y0144200D02*
X0483167Y0139400D01*
X0473167Y0139400D02*
X0473167Y0144200D01*
X0463167Y0144200D02*
X0463167Y0139400D01*
X0453167Y0139400D02*
X0453167Y0144200D01*
X0443167Y0144200D02*
X0443167Y0139400D01*
X0433167Y0139400D02*
X0433167Y0144200D01*
X0423167Y0144200D02*
X0423167Y0139400D01*
X0393167Y0139400D02*
X0393167Y0144200D01*
X0383167Y0144200D02*
X0383167Y0139400D01*
X0373167Y0139400D02*
X0373167Y0144200D01*
X0363167Y0144200D02*
X0363167Y0139400D01*
X0353167Y0139400D02*
X0353167Y0144200D01*
X0343167Y0144200D02*
X0343167Y0139400D01*
X0333167Y0139400D02*
X0333167Y0144200D01*
X0323167Y0159400D02*
X0323167Y0164200D01*
X0313167Y0164200D02*
X0313167Y0159400D01*
X0303167Y0159400D02*
X0303167Y0164200D01*
X0293167Y0164200D02*
X0293167Y0159400D01*
X0283167Y0159400D02*
X0283167Y0164200D01*
X0273167Y0164200D02*
X0273167Y0159400D01*
X0263167Y0159400D02*
X0263167Y0164200D01*
X0233167Y0164200D02*
X0233167Y0159400D01*
X0223167Y0159400D02*
X0223167Y0164200D01*
X0213167Y0164200D02*
X0213167Y0159400D01*
X0203167Y0159400D02*
X0203167Y0164200D01*
X0193167Y0164200D02*
X0193167Y0159400D01*
X0183167Y0159400D02*
X0183167Y0164200D01*
X0173167Y0164200D02*
X0173167Y0159400D01*
X0163167Y0159400D02*
X0163167Y0164200D01*
X0153167Y0164200D02*
X0153167Y0159400D01*
X0143167Y0159400D02*
X0143167Y0164200D01*
X0143167Y0144200D02*
X0143167Y0139400D01*
X0153167Y0139400D02*
X0153167Y0144200D01*
X0163167Y0144200D02*
X0163167Y0139400D01*
X0173167Y0139400D02*
X0173167Y0144200D01*
X0183167Y0144200D02*
X0183167Y0139400D01*
X0213167Y0139400D02*
X0213167Y0144200D01*
X0223167Y0144200D02*
X0223167Y0139400D01*
X0233167Y0139400D02*
X0233167Y0144200D01*
X0243167Y0144200D02*
X0243167Y0139400D01*
X0253167Y0139400D02*
X0253167Y0144200D01*
X0263167Y0144200D02*
X0263167Y0139400D01*
X0273167Y0139400D02*
X0273167Y0144200D01*
X0283167Y0144200D02*
X0283167Y0139400D01*
X0293167Y0139400D02*
X0293167Y0144200D01*
X0303167Y0144200D02*
X0303167Y0139400D01*
X0353167Y0159400D02*
X0353167Y0164200D01*
X0363167Y0164200D02*
X0363167Y0159400D01*
X0373167Y0159400D02*
X0373167Y0164200D01*
X0383167Y0164200D02*
X0383167Y0159400D01*
X0393167Y0159400D02*
X0393167Y0164200D01*
X0403167Y0164200D02*
X0403167Y0159400D01*
X0413167Y0159400D02*
X0413167Y0164200D01*
X0443167Y0164200D02*
X0443167Y0159400D01*
X0453167Y0159400D02*
X0453167Y0164200D01*
X0463167Y0164200D02*
X0463167Y0159400D01*
X0473167Y0159400D02*
X0473167Y0164200D01*
X0483167Y0164200D02*
X0483167Y0159400D01*
X0493167Y0159400D02*
X0493167Y0164200D01*
X0503167Y0164200D02*
X0503167Y0159400D01*
X0533167Y0159400D02*
X0533167Y0164200D01*
X0543167Y0164200D02*
X0543167Y0159400D01*
X0553167Y0159400D02*
X0553167Y0164200D01*
X0563167Y0164200D02*
X0563167Y0159400D01*
X0573167Y0159400D02*
X0573167Y0164200D01*
X0583167Y0164200D02*
X0583167Y0159400D01*
X0593167Y0159400D02*
X0593167Y0164200D01*
X0623167Y0164200D02*
X0623167Y0159400D01*
X0633167Y0159400D02*
X0633167Y0164200D01*
X0643167Y0164200D02*
X0643167Y0159400D01*
X0653167Y0159400D02*
X0653167Y0164200D01*
X0663167Y0164200D02*
X0663167Y0159400D01*
X0673167Y0159400D02*
X0673167Y0164200D01*
X0683167Y0164200D02*
X0683167Y0159400D01*
X0683167Y0189400D02*
X0683167Y0194200D01*
X0673167Y0194200D02*
X0673167Y0189400D01*
X0663167Y0189400D02*
X0663167Y0194200D01*
X0653167Y0194200D02*
X0653167Y0189400D01*
X0643167Y0189400D02*
X0643167Y0194200D01*
X0633167Y0194200D02*
X0633167Y0189400D01*
X0623167Y0189400D02*
X0623167Y0194200D01*
X0623167Y0209400D02*
X0623167Y0214200D01*
X0633167Y0214200D02*
X0633167Y0209400D01*
X0643167Y0209400D02*
X0643167Y0214200D01*
X0653167Y0214200D02*
X0653167Y0209400D01*
X0663167Y0209400D02*
X0663167Y0214200D01*
X0673167Y0214200D02*
X0673167Y0209400D01*
X0683167Y0209400D02*
X0683167Y0214200D01*
X0683167Y0239400D02*
X0683167Y0244200D01*
X0673167Y0244200D02*
X0673167Y0239400D01*
X0663167Y0239400D02*
X0663167Y0244200D01*
X0653167Y0244200D02*
X0653167Y0239400D01*
X0643167Y0239400D02*
X0643167Y0244200D01*
X0633167Y0244200D02*
X0633167Y0239400D01*
X0623167Y0239400D02*
X0623167Y0244200D01*
X0613167Y0244200D02*
X0613167Y0239400D01*
X0583167Y0239400D02*
X0583167Y0244200D01*
X0573167Y0244200D02*
X0573167Y0239400D01*
X0563167Y0239400D02*
X0563167Y0244200D01*
X0553167Y0244200D02*
X0553167Y0239400D01*
X0543167Y0239400D02*
X0543167Y0244200D01*
X0533167Y0244200D02*
X0533167Y0239400D01*
X0523167Y0239400D02*
X0523167Y0244200D01*
X0513167Y0244200D02*
X0513167Y0239400D01*
X0483167Y0239400D02*
X0483167Y0244200D01*
X0473167Y0244200D02*
X0473167Y0239400D01*
X0463167Y0239400D02*
X0463167Y0244200D01*
X0453167Y0244200D02*
X0453167Y0239400D01*
X0443167Y0239400D02*
X0443167Y0244200D01*
X0433167Y0244200D02*
X0433167Y0239400D01*
X0423167Y0239400D02*
X0423167Y0244200D01*
X0413167Y0244200D02*
X0413167Y0239400D01*
X0383167Y0239400D02*
X0383167Y0244200D01*
X0373167Y0244200D02*
X0373167Y0239400D01*
X0363167Y0239400D02*
X0363167Y0244200D01*
X0353167Y0244200D02*
X0353167Y0239400D01*
X0343167Y0239400D02*
X0343167Y0244200D01*
X0333167Y0244200D02*
X0333167Y0239400D01*
X0323167Y0239400D02*
X0323167Y0244200D01*
X0323167Y0259400D02*
X0323167Y0264200D01*
X0333167Y0264200D02*
X0333167Y0259400D01*
X0343167Y0259400D02*
X0343167Y0264200D01*
X0353167Y0264200D02*
X0353167Y0259400D01*
X0363167Y0259400D02*
X0363167Y0264200D01*
X0373167Y0264200D02*
X0373167Y0259400D01*
X0383167Y0259400D02*
X0383167Y0264200D01*
X0413167Y0264200D02*
X0413167Y0259400D01*
X0423167Y0259400D02*
X0423167Y0264200D01*
X0433167Y0264200D02*
X0433167Y0259400D01*
X0443167Y0259400D02*
X0443167Y0264200D01*
X0453167Y0264200D02*
X0453167Y0259400D01*
X0463167Y0259400D02*
X0463167Y0264200D01*
X0473167Y0264200D02*
X0473167Y0259400D01*
X0483167Y0259400D02*
X0483167Y0264200D01*
X0513167Y0264200D02*
X0513167Y0259400D01*
X0523167Y0259400D02*
X0523167Y0264200D01*
X0533167Y0264200D02*
X0533167Y0259400D01*
X0543167Y0259400D02*
X0543167Y0264200D01*
X0553167Y0264200D02*
X0553167Y0259400D01*
X0563167Y0259400D02*
X0563167Y0264200D01*
X0573167Y0264200D02*
X0573167Y0259400D01*
X0583167Y0259400D02*
X0583167Y0264200D01*
X0613167Y0264200D02*
X0613167Y0259400D01*
X0623167Y0259400D02*
X0623167Y0264200D01*
X0633167Y0264200D02*
X0633167Y0259400D01*
X0643167Y0259400D02*
X0643167Y0264200D01*
X0653167Y0264200D02*
X0653167Y0259400D01*
X0663167Y0259400D02*
X0663167Y0264200D01*
X0673167Y0264200D02*
X0673167Y0259400D01*
X0683167Y0259400D02*
X0683167Y0264200D01*
X0683167Y0289400D02*
X0683167Y0294200D01*
X0673167Y0294200D02*
X0673167Y0289400D01*
X0663167Y0289400D02*
X0663167Y0294200D01*
X0653167Y0294200D02*
X0653167Y0289400D01*
X0643167Y0289400D02*
X0643167Y0294200D01*
X0633167Y0294200D02*
X0633167Y0289400D01*
X0623167Y0289400D02*
X0623167Y0294200D01*
X0613167Y0294200D02*
X0613167Y0289400D01*
X0583167Y0289400D02*
X0583167Y0294200D01*
X0573167Y0294200D02*
X0573167Y0289400D01*
X0563167Y0289400D02*
X0563167Y0294200D01*
X0553167Y0294200D02*
X0553167Y0289400D01*
X0543167Y0289400D02*
X0543167Y0294200D01*
X0533167Y0294200D02*
X0533167Y0289400D01*
X0523167Y0289400D02*
X0523167Y0294200D01*
X0513167Y0294200D02*
X0513167Y0289400D01*
X0483167Y0289400D02*
X0483167Y0294200D01*
X0473167Y0294200D02*
X0473167Y0289400D01*
X0463167Y0289400D02*
X0463167Y0294200D01*
X0453167Y0294200D02*
X0453167Y0289400D01*
X0443167Y0289400D02*
X0443167Y0294200D01*
X0433167Y0294200D02*
X0433167Y0289400D01*
X0423167Y0289400D02*
X0423167Y0294200D01*
X0413167Y0294200D02*
X0413167Y0289400D01*
X0383167Y0289400D02*
X0383167Y0294200D01*
X0373167Y0294200D02*
X0373167Y0289400D01*
X0363167Y0289400D02*
X0363167Y0294200D01*
X0353167Y0294200D02*
X0353167Y0289400D01*
X0343167Y0289400D02*
X0343167Y0294200D01*
X0333167Y0294200D02*
X0333167Y0289400D01*
X0323167Y0289400D02*
X0323167Y0294200D01*
X0313167Y0294200D02*
X0313167Y0289400D01*
X0283167Y0289400D02*
X0283167Y0294200D01*
X0273167Y0294200D02*
X0273167Y0289400D01*
X0263167Y0289400D02*
X0263167Y0294200D01*
X0253167Y0294200D02*
X0253167Y0289400D01*
X0243167Y0289400D02*
X0243167Y0294200D01*
X0233167Y0294200D02*
X0233167Y0289400D01*
X0223167Y0289400D02*
X0223167Y0294200D01*
X0213167Y0294200D02*
X0213167Y0289400D01*
X0203167Y0289400D02*
X0203167Y0294200D01*
X0193167Y0294200D02*
X0193167Y0289400D01*
X0193167Y0264200D02*
X0193167Y0259400D01*
X0203167Y0259400D02*
X0203167Y0264200D01*
X0213167Y0264200D02*
X0213167Y0259400D01*
X0223167Y0259400D02*
X0223167Y0264200D01*
X0233167Y0264200D02*
X0233167Y0259400D01*
X0243167Y0259400D02*
X0243167Y0264200D01*
X0253167Y0264200D02*
X0253167Y0259400D01*
X0263167Y0259400D02*
X0263167Y0264200D01*
X0273167Y0264200D02*
X0273167Y0259400D01*
X0283167Y0259400D02*
X0283167Y0264200D01*
X0313167Y0264200D02*
X0313167Y0259400D01*
X0293167Y0244200D02*
X0293167Y0239400D01*
X0283167Y0239400D02*
X0283167Y0244200D01*
X0273167Y0244200D02*
X0273167Y0239400D01*
X0263167Y0239400D02*
X0263167Y0244200D01*
X0253167Y0244200D02*
X0253167Y0239400D01*
X0243167Y0239400D02*
X0243167Y0244200D01*
X0233167Y0244200D02*
X0233167Y0239400D01*
X0223167Y0239400D02*
X0223167Y0244200D01*
X0193167Y0244200D02*
X0193167Y0239400D01*
X0183167Y0239400D02*
X0183167Y0244200D01*
X0173167Y0244200D02*
X0173167Y0239400D01*
X0163167Y0239400D02*
X0163167Y0244200D01*
X0153167Y0244200D02*
X0153167Y0239400D01*
X0143167Y0239400D02*
X0143167Y0244200D01*
X0133167Y0244200D02*
X0133167Y0239400D01*
X0133167Y0214200D02*
X0133167Y0209400D01*
X0143167Y0209400D02*
X0143167Y0214200D01*
X0153167Y0214200D02*
X0153167Y0209400D01*
X0163167Y0209400D02*
X0163167Y0214200D01*
X0173167Y0214200D02*
X0173167Y0209400D01*
X0183167Y0209400D02*
X0183167Y0214200D01*
X0193167Y0214200D02*
X0193167Y0209400D01*
X0193167Y0194200D02*
X0193167Y0189400D01*
X0183167Y0189400D02*
X0183167Y0194200D01*
X0173167Y0194200D02*
X0173167Y0189400D01*
X0163167Y0189400D02*
X0163167Y0194200D01*
X0153167Y0194200D02*
X0153167Y0189400D01*
X0143167Y0189400D02*
X0143167Y0194200D01*
X0203167Y0194200D02*
X0203167Y0189400D01*
X0213167Y0189400D02*
X0213167Y0194200D01*
X0223167Y0194200D02*
X0223167Y0189400D01*
X0233167Y0189400D02*
X0233167Y0194200D01*
X0233167Y0209400D02*
X0233167Y0214200D01*
X0243167Y0214200D02*
X0243167Y0209400D01*
X0253167Y0209400D02*
X0253167Y0214200D01*
X0263167Y0214200D02*
X0263167Y0209400D01*
X0273167Y0209400D02*
X0273167Y0214200D01*
X0283167Y0214200D02*
X0283167Y0209400D01*
X0293167Y0209400D02*
X0293167Y0214200D01*
X0323167Y0214200D02*
X0323167Y0209400D01*
X0333167Y0209400D02*
X0333167Y0214200D01*
X0343167Y0214200D02*
X0343167Y0209400D01*
X0353167Y0209400D02*
X0353167Y0214200D01*
X0363167Y0214200D02*
X0363167Y0209400D01*
X0373167Y0209400D02*
X0373167Y0214200D01*
X0383167Y0214200D02*
X0383167Y0209400D01*
X0383167Y0194200D02*
X0383167Y0189400D01*
X0393167Y0189400D02*
X0393167Y0194200D01*
X0403167Y0194200D02*
X0403167Y0189400D01*
X0413167Y0189400D02*
X0413167Y0194200D01*
X0413167Y0209400D02*
X0413167Y0214200D01*
X0423167Y0214200D02*
X0423167Y0209400D01*
X0433167Y0209400D02*
X0433167Y0214200D01*
X0443167Y0214200D02*
X0443167Y0209400D01*
X0453167Y0209400D02*
X0453167Y0214200D01*
X0463167Y0214200D02*
X0463167Y0209400D01*
X0473167Y0209400D02*
X0473167Y0214200D01*
X0483167Y0214200D02*
X0483167Y0209400D01*
X0483167Y0194200D02*
X0483167Y0189400D01*
X0473167Y0189400D02*
X0473167Y0194200D01*
X0463167Y0194200D02*
X0463167Y0189400D01*
X0453167Y0189400D02*
X0453167Y0194200D01*
X0443167Y0194200D02*
X0443167Y0189400D01*
X0493167Y0189400D02*
X0493167Y0194200D01*
X0503167Y0194200D02*
X0503167Y0189400D01*
X0533167Y0189400D02*
X0533167Y0194200D01*
X0543167Y0194200D02*
X0543167Y0189400D01*
X0553167Y0189400D02*
X0553167Y0194200D01*
X0563167Y0194200D02*
X0563167Y0189400D01*
X0573167Y0189400D02*
X0573167Y0194200D01*
X0583167Y0194200D02*
X0583167Y0189400D01*
X0593167Y0189400D02*
X0593167Y0194200D01*
X0583167Y0209400D02*
X0583167Y0214200D01*
X0573167Y0214200D02*
X0573167Y0209400D01*
X0563167Y0209400D02*
X0563167Y0214200D01*
X0553167Y0214200D02*
X0553167Y0209400D01*
X0543167Y0209400D02*
X0543167Y0214200D01*
X0533167Y0214200D02*
X0533167Y0209400D01*
X0523167Y0209400D02*
X0523167Y0214200D01*
X0513167Y0214200D02*
X0513167Y0209400D01*
X0613167Y0209400D02*
X0613167Y0214200D01*
X0613167Y0309400D02*
X0613167Y0314200D01*
X0603167Y0314200D02*
X0603167Y0309400D01*
X0593167Y0309400D02*
X0593167Y0314200D01*
X0583167Y0314200D02*
X0583167Y0309400D01*
X0573167Y0309400D02*
X0573167Y0314200D01*
X0563167Y0314200D02*
X0563167Y0309400D01*
X0553167Y0309400D02*
X0553167Y0314200D01*
X0543167Y0314200D02*
X0543167Y0309400D01*
X0513167Y0309400D02*
X0513167Y0314200D01*
X0503167Y0314200D02*
X0503167Y0309400D01*
X0493167Y0309400D02*
X0493167Y0314200D01*
X0483167Y0314200D02*
X0483167Y0309400D01*
X0473167Y0309400D02*
X0473167Y0314200D01*
X0463167Y0314200D02*
X0463167Y0309400D01*
X0453167Y0309400D02*
X0453167Y0314200D01*
X0423167Y0314200D02*
X0423167Y0309400D01*
X0413167Y0309400D02*
X0413167Y0314200D01*
X0403167Y0314200D02*
X0403167Y0309400D01*
X0393167Y0309400D02*
X0393167Y0314200D01*
X0383167Y0314200D02*
X0383167Y0309400D01*
X0373167Y0309400D02*
X0373167Y0314200D01*
X0363167Y0314200D02*
X0363167Y0309400D01*
X0353167Y0309400D02*
X0353167Y0314200D01*
X0343167Y0314200D02*
X0343167Y0309400D01*
X0333167Y0309400D02*
X0333167Y0314200D01*
X0303167Y0314200D02*
X0303167Y0309400D01*
X0293167Y0309400D02*
X0293167Y0314200D01*
X0283167Y0314200D02*
X0283167Y0309400D01*
X0273167Y0309400D02*
X0273167Y0314200D01*
X0263167Y0314200D02*
X0263167Y0309400D01*
X0253167Y0309400D02*
X0253167Y0314200D01*
X0243167Y0314200D02*
X0243167Y0309400D01*
X0233167Y0309400D02*
X0233167Y0314200D01*
X0223167Y0314200D02*
X0223167Y0309400D01*
X0213167Y0309400D02*
X0213167Y0314200D01*
X0213167Y0339400D02*
X0213167Y0344200D01*
X0223167Y0344200D02*
X0223167Y0339400D01*
X0233167Y0339400D02*
X0233167Y0344200D01*
X0243167Y0344200D02*
X0243167Y0339400D01*
X0253167Y0339400D02*
X0253167Y0344200D01*
X0263167Y0344200D02*
X0263167Y0339400D01*
X0273167Y0339400D02*
X0273167Y0344200D01*
X0283167Y0344200D02*
X0283167Y0339400D01*
X0293167Y0339400D02*
X0293167Y0344200D01*
X0303167Y0344200D02*
X0303167Y0339400D01*
X0333167Y0339400D02*
X0333167Y0344200D01*
X0343167Y0344200D02*
X0343167Y0339400D01*
X0353167Y0339400D02*
X0353167Y0344200D01*
X0363167Y0344200D02*
X0363167Y0339400D01*
X0373167Y0339400D02*
X0373167Y0344200D01*
X0383167Y0344200D02*
X0383167Y0339400D01*
X0393167Y0339400D02*
X0393167Y0344200D01*
X0403167Y0344200D02*
X0403167Y0339400D01*
X0413167Y0339400D02*
X0413167Y0344200D01*
X0423167Y0344200D02*
X0423167Y0339400D01*
X0453167Y0339400D02*
X0453167Y0344200D01*
X0463167Y0344200D02*
X0463167Y0339400D01*
X0473167Y0339400D02*
X0473167Y0344200D01*
X0483167Y0344200D02*
X0483167Y0339400D01*
X0493167Y0339400D02*
X0493167Y0344200D01*
X0503167Y0344200D02*
X0503167Y0339400D01*
X0513167Y0339400D02*
X0513167Y0344200D01*
X0513167Y0359400D02*
X0513167Y0364200D01*
X0503167Y0364200D02*
X0503167Y0359400D01*
X0493167Y0359400D02*
X0493167Y0364200D01*
X0483167Y0364200D02*
X0483167Y0359400D01*
X0473167Y0359400D02*
X0473167Y0364200D01*
X0463167Y0364200D02*
X0463167Y0359400D01*
X0453167Y0359400D02*
X0453167Y0364200D01*
X0443167Y0364200D02*
X0443167Y0359400D01*
X0413167Y0359400D02*
X0413167Y0364200D01*
X0403167Y0364200D02*
X0403167Y0359400D01*
X0393167Y0359400D02*
X0393167Y0364200D01*
X0383167Y0364200D02*
X0383167Y0359400D01*
X0373167Y0359400D02*
X0373167Y0364200D01*
X0363167Y0364200D02*
X0363167Y0359400D01*
X0353167Y0359400D02*
X0353167Y0364200D01*
X0343167Y0364200D02*
X0343167Y0359400D01*
X0333167Y0359400D02*
X0333167Y0364200D01*
X0323167Y0364200D02*
X0323167Y0359400D01*
X0293167Y0359400D02*
X0293167Y0364200D01*
X0283167Y0364200D02*
X0283167Y0359400D01*
X0273167Y0359400D02*
X0273167Y0364200D01*
X0263167Y0364200D02*
X0263167Y0359400D01*
X0253167Y0359400D02*
X0253167Y0364200D01*
X0243167Y0364200D02*
X0243167Y0359400D01*
X0233167Y0359400D02*
X0233167Y0364200D01*
X0223167Y0364200D02*
X0223167Y0359400D01*
X0213167Y0359400D02*
X0213167Y0364200D01*
X0203167Y0364200D02*
X0203167Y0359400D01*
X0203167Y0389400D02*
X0203167Y0394200D01*
X0213167Y0394200D02*
X0213167Y0389400D01*
X0223167Y0389400D02*
X0223167Y0394200D01*
X0233167Y0394200D02*
X0233167Y0389400D01*
X0243167Y0389400D02*
X0243167Y0394200D01*
X0253167Y0394200D02*
X0253167Y0389400D01*
X0263167Y0389400D02*
X0263167Y0394200D01*
X0273167Y0394200D02*
X0273167Y0389400D01*
X0283167Y0389400D02*
X0283167Y0394200D01*
X0293167Y0394200D02*
X0293167Y0389400D01*
X0323167Y0389400D02*
X0323167Y0394200D01*
X0333167Y0394200D02*
X0333167Y0389400D01*
X0343167Y0389400D02*
X0343167Y0394200D01*
X0353167Y0394200D02*
X0353167Y0389400D01*
X0363167Y0389400D02*
X0363167Y0394200D01*
X0373167Y0394200D02*
X0373167Y0389400D01*
X0383167Y0389400D02*
X0383167Y0394200D01*
X0393167Y0394200D02*
X0393167Y0389400D01*
X0403167Y0389400D02*
X0403167Y0394200D01*
X0413167Y0394200D02*
X0413167Y0389400D01*
X0443167Y0389400D02*
X0443167Y0394200D01*
X0453167Y0394200D02*
X0453167Y0389400D01*
X0463167Y0389400D02*
X0463167Y0394200D01*
X0473167Y0394200D02*
X0473167Y0389400D01*
X0483167Y0389400D02*
X0483167Y0394200D01*
X0493167Y0394200D02*
X0493167Y0389400D01*
X0503167Y0389400D02*
X0503167Y0394200D01*
X0513167Y0394200D02*
X0513167Y0389400D01*
X0523167Y0389400D02*
X0523167Y0394200D01*
X0533167Y0394200D02*
X0533167Y0389400D01*
X0563167Y0389400D02*
X0563167Y0394200D01*
X0573167Y0394200D02*
X0573167Y0389400D01*
X0583167Y0389400D02*
X0583167Y0394200D01*
X0593167Y0394200D02*
X0593167Y0389400D01*
X0603167Y0389400D02*
X0603167Y0394200D01*
X0613167Y0394200D02*
X0613167Y0389400D01*
X0623167Y0389400D02*
X0623167Y0394200D01*
X0623167Y0409400D02*
X0623167Y0414200D01*
X0633167Y0414200D02*
X0633167Y0409400D01*
X0643167Y0409400D02*
X0643167Y0414200D01*
X0653167Y0414200D02*
X0653167Y0409400D01*
X0663167Y0409400D02*
X0663167Y0414200D01*
X0673167Y0414200D02*
X0673167Y0409400D01*
X0683167Y0409400D02*
X0683167Y0414200D01*
X0693167Y0414200D02*
X0693167Y0409400D01*
X0693167Y0394200D02*
X0693167Y0389400D01*
X0703167Y0389400D02*
X0703167Y0394200D01*
X0713167Y0394200D02*
X0713167Y0389400D01*
X0683167Y0389400D02*
X0683167Y0394200D01*
X0673167Y0394200D02*
X0673167Y0389400D01*
X0663167Y0389400D02*
X0663167Y0394200D01*
X0653167Y0394200D02*
X0653167Y0389400D01*
X0653167Y0364200D02*
X0653167Y0359400D01*
X0663167Y0359400D02*
X0663167Y0364200D01*
X0673167Y0364200D02*
X0673167Y0359400D01*
X0683167Y0359400D02*
X0683167Y0364200D01*
X0693167Y0364200D02*
X0693167Y0359400D01*
X0703167Y0359400D02*
X0703167Y0364200D01*
X0713167Y0364200D02*
X0713167Y0359400D01*
X0713167Y0344200D02*
X0713167Y0339400D01*
X0703167Y0339400D02*
X0703167Y0344200D01*
X0693167Y0344200D02*
X0693167Y0339400D01*
X0683167Y0339400D02*
X0683167Y0344200D01*
X0673167Y0344200D02*
X0673167Y0339400D01*
X0663167Y0339400D02*
X0663167Y0344200D01*
X0653167Y0344200D02*
X0653167Y0339400D01*
X0643167Y0339400D02*
X0643167Y0344200D01*
X0623167Y0359400D02*
X0623167Y0364200D01*
X0613167Y0364200D02*
X0613167Y0359400D01*
X0603167Y0359400D02*
X0603167Y0364200D01*
X0593167Y0364200D02*
X0593167Y0359400D01*
X0583167Y0359400D02*
X0583167Y0364200D01*
X0573167Y0364200D02*
X0573167Y0359400D01*
X0563167Y0359400D02*
X0563167Y0364200D01*
X0533167Y0364200D02*
X0533167Y0359400D01*
X0523167Y0359400D02*
X0523167Y0364200D01*
X0543167Y0344200D02*
X0543167Y0339400D01*
X0553167Y0339400D02*
X0553167Y0344200D01*
X0563167Y0344200D02*
X0563167Y0339400D01*
X0573167Y0339400D02*
X0573167Y0344200D01*
X0583167Y0344200D02*
X0583167Y0339400D01*
X0593167Y0339400D02*
X0593167Y0344200D01*
X0603167Y0344200D02*
X0603167Y0339400D01*
X0613167Y0339400D02*
X0613167Y0344200D01*
X0643167Y0314200D02*
X0643167Y0309400D01*
X0653167Y0309400D02*
X0653167Y0314200D01*
X0663167Y0314200D02*
X0663167Y0309400D01*
X0673167Y0309400D02*
X0673167Y0314200D01*
X0683167Y0314200D02*
X0683167Y0309400D01*
X0693167Y0309400D02*
X0693167Y0314200D01*
X0703167Y0314200D02*
X0703167Y0309400D01*
X0713167Y0309400D02*
X0713167Y0314200D01*
X0593167Y0409400D02*
X0593167Y0414200D01*
X0583167Y0414200D02*
X0583167Y0409400D01*
X0573167Y0409400D02*
X0573167Y0414200D01*
X0563167Y0414200D02*
X0563167Y0409400D01*
X0553167Y0409400D02*
X0553167Y0414200D01*
X0543167Y0414200D02*
X0543167Y0409400D01*
X0533167Y0409400D02*
X0533167Y0414200D01*
X0523167Y0414200D02*
X0523167Y0409400D01*
X0513167Y0409400D02*
X0513167Y0414200D01*
X0503167Y0414200D02*
X0503167Y0409400D01*
X0473167Y0409400D02*
X0473167Y0414200D01*
X0463167Y0414200D02*
X0463167Y0409400D01*
X0453167Y0409400D02*
X0453167Y0414200D01*
X0443167Y0414200D02*
X0443167Y0409400D01*
X0433167Y0409400D02*
X0433167Y0414200D01*
X0423167Y0414200D02*
X0423167Y0409400D01*
X0413167Y0409400D02*
X0413167Y0414200D01*
X0403167Y0414200D02*
X0403167Y0409400D01*
X0403167Y0439400D02*
X0403167Y0444200D01*
X0413167Y0444200D02*
X0413167Y0439400D01*
X0423167Y0439400D02*
X0423167Y0444200D01*
X0433167Y0444200D02*
X0433167Y0439400D01*
X0443167Y0439400D02*
X0443167Y0444200D01*
X0453167Y0444200D02*
X0453167Y0439400D01*
X0463167Y0439400D02*
X0463167Y0444200D01*
X0473167Y0444200D02*
X0473167Y0439400D01*
X0503167Y0439400D02*
X0503167Y0444200D01*
X0513167Y0444200D02*
X0513167Y0439400D01*
X0523167Y0439400D02*
X0523167Y0444200D01*
X0533167Y0444200D02*
X0533167Y0439400D01*
X0543167Y0439400D02*
X0543167Y0444200D01*
X0553167Y0444200D02*
X0553167Y0439400D01*
X0563167Y0439400D02*
X0563167Y0444200D01*
X0573167Y0444200D02*
X0573167Y0439400D01*
X0583167Y0439400D02*
X0583167Y0444200D01*
X0593167Y0444200D02*
X0593167Y0439400D01*
X0623167Y0439400D02*
X0623167Y0444200D01*
X0633167Y0444200D02*
X0633167Y0439400D01*
X0643167Y0439400D02*
X0643167Y0444200D01*
X0653167Y0444200D02*
X0653167Y0439400D01*
X0663167Y0439400D02*
X0663167Y0444200D01*
X0673167Y0444200D02*
X0673167Y0439400D01*
X0683167Y0439400D02*
X0683167Y0444200D01*
X0693167Y0444200D02*
X0693167Y0439400D01*
X0373167Y0194200D02*
X0373167Y0189400D01*
X0363167Y0189400D02*
X0363167Y0194200D01*
X0353167Y0194200D02*
X0353167Y0189400D01*
X0323167Y0189400D02*
X0323167Y0194200D01*
X0313167Y0194200D02*
X0313167Y0189400D01*
X0303167Y0189400D02*
X0303167Y0194200D01*
X0293167Y0194200D02*
X0293167Y0189400D01*
X0283167Y0189400D02*
X0283167Y0194200D01*
X0273167Y0194200D02*
X0273167Y0189400D01*
X0263167Y0189400D02*
X0263167Y0194200D01*
X0223167Y0209400D02*
X0223167Y0214200D01*
X0133167Y0144200D02*
X0133167Y0139400D01*
X0123167Y0139400D02*
X0123167Y0144200D01*
X0123167Y0114200D02*
X0123167Y0109400D01*
X0133167Y0109400D02*
X0133167Y0114200D01*
X0273167Y0044200D02*
X0273167Y0039400D01*
X0283167Y0039400D02*
X0283167Y0044200D01*
X0293167Y0044200D02*
X0293167Y0039400D01*
X0303167Y0039400D02*
X0303167Y0044200D01*
X0313167Y0044200D02*
X0313167Y0039400D01*
X0323167Y0039400D02*
X0323167Y0044200D01*
X0333167Y0044200D02*
X0333167Y0039400D01*
X0333167Y0014200D02*
X0333167Y0009400D01*
X0323167Y0009400D02*
X0323167Y0014200D01*
X0313167Y0014200D02*
X0313167Y0009400D01*
X0303167Y0009400D02*
X0303167Y0014200D01*
X0293167Y0014200D02*
X0293167Y0009400D01*
X0283167Y0009400D02*
X0283167Y0014200D01*
X0273167Y0014200D02*
X0273167Y0009400D01*
X0363167Y0009400D02*
X0363167Y0014200D01*
X0373167Y0014200D02*
X0373167Y0009400D01*
X0383167Y0009400D02*
X0383167Y0014200D01*
X0393167Y0014200D02*
X0393167Y0009400D01*
X0403167Y0009400D02*
X0403167Y0014200D01*
X0413167Y0014200D02*
X0413167Y0009400D01*
X0423167Y0009400D02*
X0423167Y0014200D01*
X0453167Y0014200D02*
X0453167Y0009400D01*
X0463167Y0009400D02*
X0463167Y0014200D01*
X0473167Y0014200D02*
X0473167Y0009400D01*
X0483167Y0009400D02*
X0483167Y0014200D01*
X0493167Y0014200D02*
X0493167Y0009400D01*
X0503167Y0009400D02*
X0503167Y0014200D01*
X0513167Y0014200D02*
X0513167Y0009400D01*
X0473167Y0059400D02*
X0473167Y0064200D01*
X0463167Y0064200D02*
X0463167Y0059400D01*
X0453167Y0059400D02*
X0453167Y0064200D01*
X0443167Y0064200D02*
X0443167Y0059400D01*
X0433167Y0059400D02*
X0433167Y0064200D01*
X0423167Y0064200D02*
X0423167Y0059400D01*
X0413167Y0059400D02*
X0413167Y0064200D01*
X0403167Y0064200D02*
X0403167Y0059400D01*
X0393167Y0059400D02*
X0393167Y0064200D01*
X0383167Y0064200D02*
X0383167Y0059400D01*
X0263167Y0409400D02*
X0263167Y0414200D01*
X0253167Y0414200D02*
X0253167Y0409400D01*
X0243167Y0409400D02*
X0243167Y0414200D01*
X0233167Y0414200D02*
X0233167Y0409400D01*
X0223167Y0409400D02*
X0223167Y0414200D01*
X0213167Y0414200D02*
X0213167Y0409400D01*
X0203167Y0409400D02*
X0203167Y0414200D01*
X0193167Y0414200D02*
X0193167Y0409400D01*
X0183167Y0409400D02*
X0183167Y0414200D01*
X0168167Y0414200D02*
X0168167Y0409400D01*
X0158167Y0409400D02*
X0158167Y0414200D01*
X0148167Y0414200D02*
X0148167Y0409400D01*
X0138167Y0409400D02*
X0138167Y0414200D01*
X0128167Y0414200D02*
X0128167Y0409400D01*
X0118167Y0409400D02*
X0118167Y0414200D01*
X0108167Y0414200D02*
X0108167Y0409400D01*
X0098167Y0409400D02*
X0098167Y0414200D01*
X0088167Y0414200D02*
X0088167Y0409400D01*
D11*
X0193167Y0381800D03*
X0193167Y0371800D03*
X0203167Y0331800D03*
X0203167Y0321800D03*
X0183167Y0281800D03*
X0183167Y0271800D03*
X0213167Y0231800D03*
X0213167Y0221800D03*
X0253167Y0181800D03*
X0253167Y0171800D03*
X0203167Y0131800D03*
X0203167Y0121800D03*
X0253167Y0081800D03*
X0253167Y0071800D03*
X0263167Y0031800D03*
X0263167Y0021800D03*
X0353167Y0021800D03*
X0353167Y0031800D03*
X0373167Y0071800D03*
X0373167Y0081800D03*
X0413167Y0121800D03*
X0413167Y0131800D03*
X0433167Y0171800D03*
X0433167Y0181800D03*
X0403167Y0221800D03*
X0403167Y0231800D03*
X0403167Y0271800D03*
X0403167Y0281800D03*
X0443167Y0321800D03*
X0443167Y0331800D03*
X0433167Y0371800D03*
X0433167Y0381800D03*
X0393167Y0421800D03*
X0393167Y0431800D03*
X0313167Y0381800D03*
X0313167Y0371800D03*
X0323167Y0331800D03*
X0323167Y0321800D03*
X0303167Y0281800D03*
X0303167Y0271800D03*
X0313167Y0231800D03*
X0313167Y0221800D03*
X0343167Y0181800D03*
X0343167Y0171800D03*
X0323167Y0131800D03*
X0323167Y0121800D03*
X0443167Y0031800D03*
X0443167Y0021800D03*
X0493167Y0071800D03*
X0493167Y0081800D03*
X0513167Y0121800D03*
X0513167Y0131800D03*
X0523167Y0171800D03*
X0523167Y0181800D03*
X0503167Y0221800D03*
X0503167Y0231800D03*
X0503167Y0271800D03*
X0503167Y0281800D03*
X0533167Y0321800D03*
X0533167Y0331800D03*
X0553167Y0371800D03*
X0553167Y0381800D03*
X0613167Y0421800D03*
X0613167Y0431800D03*
X0643167Y0381800D03*
X0643167Y0371800D03*
X0633167Y0331800D03*
X0633167Y0321800D03*
X0603167Y0281800D03*
X0603167Y0271800D03*
X0603167Y0231800D03*
X0603167Y0221800D03*
X0613167Y0181800D03*
X0613167Y0171800D03*
X0613167Y0131800D03*
X0613167Y0121800D03*
X0613167Y0081800D03*
X0613167Y0071800D03*
X0623167Y0031800D03*
X0623167Y0021800D03*
X0533167Y0021800D03*
X0533167Y0031800D03*
X0723167Y0016800D03*
X0733167Y0016800D03*
X0728167Y0036800D03*
X0728167Y0076800D03*
X0493167Y0421800D03*
X0493167Y0431800D03*
X0123167Y0231800D03*
X0123167Y0221800D03*
X0133167Y0181800D03*
X0133167Y0171800D03*
X0113167Y0131800D03*
X0113167Y0121800D03*
X0133167Y0081800D03*
X0133167Y0071800D03*
D12*
X0063167Y0071800D03*
X0073167Y0071800D03*
X0083167Y0071800D03*
X0083167Y0081800D03*
X0083167Y0091800D03*
X0083167Y0101800D03*
X0083167Y0111800D03*
X0083167Y0121800D03*
X0073167Y0121800D03*
X0063167Y0121800D03*
X0063167Y0111800D03*
X0073167Y0111800D03*
X0073167Y0101800D03*
X0063167Y0101800D03*
X0063167Y0091800D03*
X0073167Y0091800D03*
X0073167Y0081800D03*
X0063167Y0081800D03*
X0063167Y0131800D03*
X0073167Y0131800D03*
X0083167Y0131800D03*
X0083167Y0141800D03*
X0083167Y0151800D03*
X0083167Y0161800D03*
X0083167Y0171800D03*
X0073167Y0171800D03*
X0063167Y0171800D03*
X0063167Y0161800D03*
X0073167Y0161800D03*
X0073167Y0151800D03*
X0063167Y0151800D03*
X0063167Y0141800D03*
X0073167Y0141800D03*
X0073167Y0181800D03*
X0063167Y0181800D03*
X0063167Y0191800D03*
X0073167Y0191800D03*
X0083167Y0191800D03*
X0083167Y0181800D03*
X0083167Y0201800D03*
X0083167Y0211800D03*
X0083167Y0221800D03*
X0073167Y0221800D03*
X0063167Y0221800D03*
X0063167Y0211800D03*
X0073167Y0211800D03*
X0073167Y0201800D03*
X0063167Y0201800D03*
X0063167Y0231800D03*
X0073167Y0231800D03*
X0083167Y0231800D03*
X0083167Y0241800D03*
X0083167Y0251800D03*
X0083167Y0261800D03*
X0083167Y0271800D03*
X0073167Y0271800D03*
X0063167Y0271800D03*
X0063167Y0261800D03*
X0073167Y0261800D03*
X0073167Y0251800D03*
X0063167Y0251800D03*
X0063167Y0241800D03*
X0073167Y0241800D03*
X0073167Y0281800D03*
X0063167Y0281800D03*
X0063167Y0291800D03*
X0073167Y0291800D03*
X0083167Y0291800D03*
X0083167Y0281800D03*
X0083167Y0301800D03*
X0083167Y0311800D03*
X0083167Y0321800D03*
X0073167Y0321800D03*
X0063167Y0321800D03*
X0063167Y0311800D03*
X0073167Y0311800D03*
X0073167Y0301800D03*
X0063167Y0301800D03*
X0063167Y0331800D03*
X0073167Y0331800D03*
X0083167Y0331800D03*
X0083167Y0341800D03*
X0083167Y0351800D03*
X0083167Y0361800D03*
X0083167Y0371800D03*
X0073167Y0371800D03*
X0063167Y0371800D03*
X0063167Y0361800D03*
X0073167Y0361800D03*
X0073167Y0351800D03*
X0063167Y0351800D03*
X0063167Y0341800D03*
X0073167Y0341800D03*
X0073167Y0381800D03*
X0063167Y0381800D03*
X0083167Y0381800D03*
X0713167Y0251800D03*
X0723167Y0251800D03*
X0723167Y0241800D03*
X0723167Y0231800D03*
X0713167Y0231800D03*
X0713167Y0241800D03*
X0713167Y0221800D03*
X0723167Y0221800D03*
X0723167Y0211800D03*
X0713167Y0211800D03*
D13*
X0699417Y0225550D01*
X0699417Y0355550D01*
X0693167Y0361800D01*
X0699417Y0358050D02*
X0703167Y0354300D01*
X0703167Y0341800D01*
X0693167Y0341800D02*
X0693167Y0335550D01*
X0686917Y0335550D01*
X0686917Y0388050D01*
X0683167Y0391800D01*
X0683167Y0401800D02*
X0673167Y0391800D01*
X0683167Y0401800D02*
X0683167Y0411800D01*
X0699417Y0418050D02*
X0699417Y0358050D01*
X0686917Y0335550D02*
X0681917Y0335550D01*
X0666917Y0320550D01*
X0666917Y0295550D01*
X0663167Y0291800D01*
X0653167Y0291800D02*
X0649417Y0295550D01*
X0649417Y0408050D01*
X0653167Y0411800D01*
X0658167Y0406800D02*
X0663167Y0411800D01*
X0658167Y0406800D02*
X0658167Y0346800D01*
X0653167Y0341800D01*
X0629417Y0339300D02*
X0629417Y0273050D01*
X0636917Y0265550D01*
X0636917Y0095550D01*
X0633167Y0091800D01*
X0633167Y0071800D01*
X0623167Y0061800D01*
X0629417Y0065550D02*
X0631917Y0068050D01*
X0638167Y0068050D01*
X0638167Y0059300D01*
X0641917Y0055550D01*
X0648167Y0055550D01*
X0648167Y0086800D01*
X0653167Y0091800D01*
X0656917Y0088050D02*
X0656917Y0174300D01*
X0650667Y0174300D01*
X0653167Y0176800D02*
X0653167Y0191800D01*
X0643167Y0191800D02*
X0639417Y0195550D01*
X0639417Y0268050D01*
X0656917Y0268050D01*
X0663167Y0261800D01*
X0656917Y0258050D02*
X0653167Y0261800D01*
X0656917Y0258050D02*
X0656917Y0228050D01*
X0655667Y0226800D01*
X0656917Y0225550D02*
X0661917Y0230550D01*
X0661917Y0240550D01*
X0663167Y0241800D01*
X0668167Y0246800D01*
X0668167Y0255550D01*
X0685667Y0255550D01*
X0696917Y0250550D02*
X0696917Y0308050D01*
X0693167Y0311800D01*
X0703167Y0311800D02*
X0709417Y0305550D01*
X0709417Y0253050D01*
X0708167Y0253050D01*
X0709417Y0253050D02*
X0709417Y0235550D01*
X0713167Y0231800D01*
X0716917Y0238050D02*
X0713167Y0241800D01*
X0716917Y0238050D02*
X0716917Y0209300D01*
X0691917Y0184300D01*
X0691917Y0303050D01*
X0683167Y0311800D01*
X0673167Y0311800D02*
X0673167Y0324300D01*
X0675667Y0326800D01*
X0659417Y0318050D02*
X0653167Y0311800D01*
X0659417Y0318050D02*
X0659417Y0399300D01*
X0660667Y0400550D01*
X0636917Y0390550D02*
X0609417Y0418050D01*
X0609417Y0433050D01*
X0594417Y0448050D01*
X0553167Y0448050D01*
X0553167Y0441800D01*
X0549417Y0438050D02*
X0566917Y0420550D01*
X0598167Y0420550D01*
X0598167Y0415550D01*
X0606917Y0414300D02*
X0585667Y0435550D01*
X0573167Y0435550D01*
X0573167Y0441800D01*
X0593167Y0441800D02*
X0608167Y0426800D01*
X0608167Y0358050D01*
X0623167Y0343050D01*
X0623167Y0291800D01*
X0620667Y0303050D02*
X0616917Y0306800D01*
X0616917Y0346800D01*
X0606917Y0356800D01*
X0606917Y0414300D01*
X0599417Y0395550D02*
X0583167Y0411800D01*
X0575667Y0419300D01*
X0558167Y0419300D01*
X0558167Y0406800D01*
X0559417Y0408050D02*
X0559417Y0415550D01*
X0561917Y0418050D01*
X0569417Y0418050D01*
X0569417Y0365550D01*
X0573167Y0361800D01*
X0586917Y0348050D01*
X0603167Y0348050D01*
X0603167Y0341800D01*
X0606917Y0346800D02*
X0606917Y0161800D01*
X0599417Y0154300D01*
X0599417Y0065550D01*
X0596917Y0053050D02*
X0596917Y0195550D01*
X0593167Y0199300D01*
X0593167Y0239300D01*
X0578167Y0254300D01*
X0578167Y0344300D01*
X0568167Y0354300D01*
X0568167Y0406800D01*
X0563167Y0411800D01*
X0559417Y0408050D02*
X0560667Y0406800D01*
X0560667Y0404300D01*
X0558167Y0404300D01*
X0555667Y0406800D01*
X0556917Y0408050D01*
X0556917Y0415550D01*
X0555667Y0416800D01*
X0555667Y0429300D01*
X0513167Y0429300D01*
X0513167Y0421800D01*
X0503167Y0411800D01*
X0499417Y0408050D02*
X0509417Y0398050D01*
X0516917Y0398050D01*
X0516917Y0286800D01*
X0533167Y0291800D02*
X0533167Y0301800D01*
X0530667Y0304300D01*
X0540667Y0304300D02*
X0543167Y0306800D01*
X0543167Y0311800D01*
X0549417Y0320550D02*
X0549417Y0225550D01*
X0539417Y0215550D01*
X0539417Y0156800D01*
X0543167Y0161800D02*
X0543167Y0191800D01*
X0545667Y0186800D02*
X0549417Y0190550D01*
X0549417Y0204300D01*
X0550667Y0205550D01*
X0550667Y0206800D01*
X0549417Y0208050D01*
X0549417Y0223050D01*
X0553167Y0226800D01*
X0553167Y0241800D01*
X0563167Y0241800D02*
X0564417Y0243050D01*
X0564417Y0253050D01*
X0563167Y0261800D02*
X0558167Y0266800D01*
X0558167Y0314300D01*
X0551917Y0320550D01*
X0549417Y0320550D02*
X0556917Y0328050D01*
X0556917Y0355550D01*
X0563167Y0361800D01*
X0566917Y0353050D02*
X0566917Y0373050D01*
X0554417Y0385550D01*
X0554417Y0410550D01*
X0553167Y0411800D01*
X0543167Y0411800D02*
X0543167Y0401800D01*
X0540667Y0404300D02*
X0540667Y0366800D01*
X0540667Y0364300D02*
X0545667Y0364300D01*
X0540667Y0364300D02*
X0538167Y0366800D01*
X0538167Y0386800D01*
X0533167Y0391800D01*
X0529417Y0395550D01*
X0529417Y0416800D01*
X0525667Y0420550D01*
X0523167Y0419300D02*
X0523167Y0411800D01*
X0519417Y0408050D01*
X0519417Y0388050D01*
X0526917Y0380550D01*
X0526917Y0224300D01*
X0519417Y0216800D01*
X0519417Y0074300D01*
X0524417Y0074300D01*
X0519417Y0074300D02*
X0519417Y0065550D01*
X0523167Y0061800D01*
X0513167Y0061800D02*
X0509417Y0058050D01*
X0509417Y0040550D01*
X0499417Y0030550D01*
X0499417Y0010550D01*
X0498167Y0009300D01*
X0483167Y0011800D02*
X0496917Y0025550D01*
X0496917Y0026800D01*
X0488167Y0035550D01*
X0488167Y0203050D01*
X0480667Y0203050D01*
X0476917Y0201800D02*
X0471917Y0201800D01*
X0476917Y0201800D02*
X0476917Y0173050D01*
X0478167Y0171800D01*
X0478167Y0029300D01*
X0470667Y0029300D01*
X0453167Y0011800D01*
X0451917Y0005550D02*
X0436917Y0020550D01*
X0436917Y0080550D01*
X0429417Y0088050D01*
X0429417Y0108050D01*
X0433167Y0111800D01*
X0428167Y0116800D01*
X0428167Y0231800D01*
X0426917Y0233050D01*
X0426917Y0250550D01*
X0428167Y0251800D02*
X0428167Y0350550D01*
X0423167Y0355550D01*
X0423167Y0366800D01*
X0439417Y0383050D01*
X0439417Y0395550D01*
X0423167Y0411800D01*
X0433167Y0421800D01*
X0433167Y0441800D01*
X0443167Y0441800D02*
X0443167Y0411800D01*
X0446917Y0408050D01*
X0446917Y0355550D01*
X0449417Y0355550D01*
X0449417Y0320550D01*
X0453167Y0311800D02*
X0446917Y0305550D01*
X0446917Y0253050D01*
X0438167Y0244300D01*
X0438167Y0226800D01*
X0436917Y0225550D02*
X0433167Y0229300D01*
X0433167Y0241800D01*
X0443167Y0241800D02*
X0443167Y0235550D01*
X0445667Y0233050D01*
X0449417Y0238050D02*
X0453167Y0241800D01*
X0449417Y0238050D02*
X0449417Y0195550D01*
X0453167Y0191800D01*
X0456917Y0196800D02*
X0453167Y0200550D01*
X0453167Y0211800D01*
X0459417Y0223050D02*
X0459417Y0195550D01*
X0459417Y0135550D01*
X0440667Y0135550D01*
X0440667Y0129300D02*
X0449417Y0120550D01*
X0449417Y0095550D01*
X0453167Y0091800D01*
X0443167Y0091800D02*
X0443167Y0099300D01*
X0446917Y0103050D01*
X0433167Y0101800D02*
X0433167Y0091800D01*
X0438167Y0086800D02*
X0438167Y0081800D01*
X0438167Y0086800D02*
X0443167Y0091800D01*
X0433167Y0101800D02*
X0431917Y0103050D01*
X0423167Y0111800D02*
X0426917Y0115550D01*
X0426917Y0173050D01*
X0425667Y0174300D01*
X0420667Y0183050D02*
X0425667Y0188050D01*
X0413167Y0191800D02*
X0408167Y0186800D01*
X0408167Y0183050D01*
X0406917Y0186800D02*
X0398167Y0178050D01*
X0398167Y0096800D01*
X0393167Y0091800D01*
X0386917Y0085550D01*
X0386917Y0065550D01*
X0383167Y0061800D01*
X0388167Y0059300D02*
X0384417Y0055550D01*
X0360667Y0055550D01*
X0360667Y0061800D01*
X0354417Y0068050D01*
X0326917Y0068050D01*
X0326917Y0045550D01*
X0323167Y0041800D01*
X0319417Y0038050D01*
X0319417Y0033050D01*
X0316917Y0030550D01*
X0276917Y0030550D01*
X0276917Y0080550D01*
X0266917Y0090550D01*
X0266917Y0108050D01*
X0263167Y0111800D01*
X0259417Y0115550D02*
X0261917Y0118050D01*
X0268167Y0118050D01*
X0268167Y0168050D01*
X0284417Y0168050D01*
X0286917Y0168050D02*
X0286917Y0153050D01*
X0278167Y0144300D01*
X0278167Y0116800D01*
X0273167Y0111800D01*
X0268167Y0118050D02*
X0268167Y0096800D01*
X0273167Y0091800D01*
X0278167Y0094300D02*
X0278167Y0039300D01*
X0281917Y0035550D01*
X0313167Y0035550D01*
X0313167Y0036800D01*
X0316917Y0033050D01*
X0313167Y0036800D02*
X0313167Y0041800D01*
X0303167Y0041800D02*
X0319417Y0058050D01*
X0319417Y0070550D01*
X0318167Y0075550D02*
X0303167Y0075550D01*
X0303167Y0091800D01*
X0308167Y0088050D02*
X0318167Y0078050D01*
X0318167Y0080550D02*
X0323167Y0085550D01*
X0323167Y0091800D01*
X0309417Y0105550D01*
X0309417Y0228050D01*
X0296917Y0240550D01*
X0296917Y0370550D01*
X0296917Y0373050D02*
X0299417Y0370550D01*
X0299417Y0293050D01*
X0306917Y0285550D01*
X0306917Y0278050D01*
X0323167Y0261800D01*
X0324417Y0270550D02*
X0306917Y0288050D01*
X0306917Y0338050D01*
X0303167Y0341800D01*
X0306917Y0343050D02*
X0306917Y0350550D01*
X0306917Y0343050D02*
X0328167Y0321800D01*
X0328167Y0109300D01*
X0333167Y0111800D02*
X0329417Y0115550D01*
X0329417Y0198050D01*
X0333167Y0198050D01*
X0329417Y0198050D02*
X0329417Y0350550D01*
X0323167Y0356800D01*
X0323167Y0361800D01*
X0325667Y0364300D01*
X0309417Y0380550D01*
X0281917Y0380550D01*
X0279417Y0378050D02*
X0279417Y0405550D01*
X0265667Y0419300D01*
X0161917Y0419300D01*
X0161917Y0408050D01*
X0156917Y0403050D01*
X0156917Y0294300D01*
X0156917Y0195550D01*
X0153167Y0191800D01*
X0163167Y0191800D02*
X0163167Y0181800D01*
X0166917Y0178050D01*
X0166917Y0138050D01*
X0159417Y0130550D01*
X0159417Y0068050D01*
X0153167Y0061800D01*
X0153167Y0071800D02*
X0143167Y0061800D01*
X0153167Y0071800D02*
X0153167Y0091800D01*
X0138167Y0096800D02*
X0138167Y0206800D01*
X0133167Y0211800D01*
X0138167Y0216800D02*
X0143167Y0211800D01*
X0146917Y0208050D02*
X0146917Y0260550D01*
X0145667Y0261800D01*
X0145667Y0401800D01*
X0139417Y0403050D02*
X0139417Y0224300D01*
X0144417Y0219300D01*
X0149417Y0218050D02*
X0150667Y0219300D01*
X0149417Y0218050D02*
X0149417Y0165550D01*
X0153167Y0161800D01*
X0148167Y0166800D02*
X0148167Y0261800D01*
X0163167Y0250550D02*
X0166917Y0246800D01*
X0163167Y0250550D02*
X0163167Y0403050D01*
X0165667Y0405550D01*
X0165667Y0409300D01*
X0168167Y0411800D01*
X0164417Y0408050D02*
X0161917Y0405550D01*
X0161917Y0296800D01*
X0158167Y0293050D01*
X0158167Y0146800D01*
X0163167Y0141800D01*
X0143167Y0141800D02*
X0139417Y0145550D01*
X0139417Y0200550D01*
X0146917Y0208050D01*
X0138167Y0216800D02*
X0138167Y0411800D01*
X0139417Y0403050D02*
X0148167Y0411800D01*
X0129417Y0410550D02*
X0129417Y0174300D01*
X0143167Y0161800D02*
X0148167Y0166800D01*
X0160667Y0164300D02*
X0163167Y0161800D01*
X0160667Y0164300D02*
X0160667Y0184300D01*
X0168167Y0179300D02*
X0168167Y0206800D01*
X0163167Y0211800D01*
X0173167Y0191800D02*
X0170667Y0189300D01*
X0170667Y0166800D01*
X0169417Y0165550D01*
X0169417Y0065550D01*
X0173167Y0061800D01*
X0173167Y0004300D01*
X0283167Y0004300D01*
X0363167Y0004300D01*
X0366917Y0008050D01*
X0366917Y0018050D01*
X0374417Y0018050D01*
X0376917Y0015550D01*
X0376917Y0004300D01*
X0413167Y0004300D01*
X0416917Y0008050D01*
X0416917Y0048050D01*
X0411917Y0048050D01*
X0409417Y0045550D01*
X0409417Y0099300D01*
X0408167Y0100550D01*
X0409417Y0101800D02*
X0413167Y0098050D01*
X0413167Y0091800D01*
X0403167Y0091800D02*
X0400667Y0094300D01*
X0400667Y0100550D01*
X0409417Y0101800D02*
X0409417Y0171800D01*
X0401917Y0179300D01*
X0399417Y0181800D02*
X0396917Y0179300D01*
X0396917Y0133050D01*
X0376917Y0113050D01*
X0376917Y0105550D01*
X0350667Y0079300D01*
X0343167Y0079300D01*
X0343167Y0091800D01*
X0346917Y0098050D02*
X0336917Y0098050D01*
X0336917Y0088050D01*
X0323167Y0074300D01*
X0296917Y0074300D01*
X0296917Y0108050D01*
X0293167Y0111800D01*
X0288167Y0106800D02*
X0283167Y0111800D01*
X0288167Y0106800D02*
X0288167Y0046800D01*
X0293167Y0041800D01*
X0286917Y0045550D02*
X0283167Y0041800D01*
X0286917Y0045550D02*
X0286917Y0095550D01*
X0279417Y0103050D01*
X0279417Y0128050D01*
X0293167Y0141800D01*
X0296917Y0145550D01*
X0296917Y0176800D01*
X0285667Y0176800D01*
X0288167Y0171800D02*
X0280667Y0179300D01*
X0289417Y0188050D01*
X0289417Y0196800D01*
X0278167Y0199300D02*
X0286917Y0208050D01*
X0286917Y0213050D01*
X0295667Y0221800D01*
X0295667Y0226800D01*
X0289417Y0233050D01*
X0289417Y0256800D01*
X0290667Y0258050D01*
X0293167Y0258050D02*
X0293167Y0241800D01*
X0296917Y0238050D01*
X0296917Y0206800D01*
X0300667Y0206800D01*
X0296917Y0206800D02*
X0296917Y0176800D01*
X0288167Y0171800D02*
X0288167Y0146800D01*
X0283167Y0141800D01*
X0274417Y0143050D02*
X0274417Y0150550D01*
X0276917Y0155550D02*
X0276917Y0121800D01*
X0275667Y0120550D01*
X0259417Y0115550D02*
X0259417Y0065550D01*
X0263167Y0061800D01*
X0260667Y0050550D02*
X0269417Y0041800D01*
X0269417Y0015550D01*
X0273167Y0011800D01*
X0276917Y0005550D02*
X0238167Y0005550D01*
X0238167Y0120550D01*
X0233167Y0125550D01*
X0233167Y0141800D01*
X0236917Y0145550D01*
X0236917Y0201800D01*
X0236917Y0238050D01*
X0236917Y0338050D01*
X0236917Y0365550D01*
X0226917Y0375550D01*
X0243167Y0361800D02*
X0246917Y0365550D01*
X0246917Y0401800D01*
X0249417Y0405550D02*
X0243167Y0411800D01*
X0243167Y0418050D01*
X0166917Y0418050D01*
X0164417Y0415550D01*
X0164417Y0408050D01*
X0168167Y0405550D02*
X0164417Y0401800D01*
X0164417Y0251800D01*
X0173167Y0243050D01*
X0173167Y0241800D01*
X0183167Y0241800D02*
X0183167Y0249300D01*
X0185667Y0251800D01*
X0176917Y0255550D02*
X0166917Y0265550D01*
X0178167Y0270550D02*
X0178167Y0166800D01*
X0183167Y0161800D01*
X0176917Y0165550D02*
X0176917Y0255550D01*
X0193167Y0241800D02*
X0189417Y0238050D01*
X0189417Y0178050D01*
X0193167Y0174300D01*
X0193167Y0176800D02*
X0193167Y0191800D01*
X0186917Y0188050D02*
X0183167Y0191800D01*
X0186917Y0188050D02*
X0186917Y0090550D01*
X0190667Y0086800D01*
X0190667Y0064300D01*
X0193167Y0061800D01*
X0204417Y0050550D01*
X0199417Y0048050D02*
X0236917Y0048050D01*
X0236917Y0108050D01*
X0233167Y0111800D01*
X0229417Y0115550D01*
X0229417Y0188050D01*
X0229417Y0246800D01*
X0229417Y0308050D01*
X0233167Y0311800D01*
X0228167Y0306800D02*
X0223167Y0311800D01*
X0228167Y0306800D02*
X0228167Y0264300D01*
X0226917Y0263050D01*
X0226917Y0233050D01*
X0226917Y0229300D02*
X0219417Y0229300D01*
X0219417Y0149300D01*
X0220667Y0148050D01*
X0223167Y0141800D02*
X0223167Y0135550D01*
X0218167Y0130550D01*
X0218167Y0116800D01*
X0213167Y0111800D01*
X0208167Y0105550D02*
X0208167Y0279300D01*
X0216917Y0288050D01*
X0216917Y0298050D01*
X0218167Y0298050D01*
X0216917Y0298050D02*
X0216917Y0403050D01*
X0213167Y0406800D01*
X0213167Y0411800D01*
X0216917Y0405550D02*
X0219417Y0403050D01*
X0219417Y0320550D01*
X0234417Y0320550D01*
X0243167Y0311800D02*
X0243167Y0301800D01*
X0246917Y0298050D01*
X0246917Y0288050D01*
X0239417Y0280550D01*
X0239417Y0223050D01*
X0241917Y0220550D01*
X0239417Y0220550D02*
X0238167Y0221800D01*
X0238167Y0286800D01*
X0238167Y0396800D01*
X0223167Y0411800D01*
X0233167Y0411800D02*
X0239417Y0405550D01*
X0239417Y0353050D01*
X0246917Y0345550D01*
X0246917Y0303050D01*
X0245667Y0301800D01*
X0240667Y0301800D02*
X0239417Y0303050D01*
X0239417Y0338050D01*
X0243167Y0341800D01*
X0248167Y0336800D02*
X0253167Y0341800D01*
X0248167Y0336800D02*
X0248167Y0333050D01*
X0249417Y0333050D01*
X0248167Y0333050D02*
X0248167Y0264300D01*
X0249417Y0263050D01*
X0249417Y0218050D01*
X0250667Y0218050D01*
X0249417Y0218050D02*
X0249417Y0170550D01*
X0250667Y0169300D01*
X0250667Y0144300D01*
X0253167Y0141800D01*
X0258167Y0146800D02*
X0258167Y0205550D01*
X0259417Y0205550D01*
X0258167Y0205550D02*
X0258167Y0251800D01*
X0259417Y0253050D01*
X0258167Y0254300D02*
X0256917Y0253050D01*
X0256917Y0235550D01*
X0255667Y0235550D01*
X0256917Y0235550D02*
X0256917Y0115550D01*
X0253167Y0111800D01*
X0245667Y0109300D02*
X0245667Y0055550D01*
X0266917Y0034300D01*
X0280667Y0051800D02*
X0283167Y0054300D01*
X0283167Y0061800D01*
X0316917Y0053050D02*
X0323167Y0059300D01*
X0323167Y0061800D01*
X0339417Y0055550D02*
X0358167Y0055550D01*
X0358167Y0058050D01*
X0379417Y0048050D02*
X0393167Y0061800D01*
X0396917Y0065550D02*
X0396917Y0058050D01*
X0389417Y0050550D01*
X0389417Y0005550D01*
X0404417Y0005550D01*
X0409417Y0010550D01*
X0409417Y0028050D01*
X0409417Y0038050D01*
X0413167Y0041800D01*
X0409417Y0045550D02*
X0406917Y0043050D01*
X0406917Y0015550D01*
X0403167Y0011800D01*
X0428167Y0026800D02*
X0450667Y0004300D01*
X0516917Y0004300D01*
X0516917Y0080550D01*
X0523167Y0084300D02*
X0523167Y0091800D01*
X0521917Y0093050D01*
X0521917Y0101800D01*
X0526917Y0103050D02*
X0526917Y0033050D01*
X0525667Y0031800D01*
X0536917Y0024300D02*
X0539417Y0024300D01*
X0539417Y0005550D01*
X0546917Y0005550D01*
X0553167Y0011800D01*
X0549417Y0010550D02*
X0549417Y0088050D01*
X0553167Y0091800D01*
X0563167Y0091800D02*
X0565667Y0094300D01*
X0565667Y0101800D01*
X0563167Y0111800D02*
X0559417Y0115550D01*
X0559417Y0155550D01*
X0553167Y0161800D01*
X0549417Y0165550D02*
X0549417Y0153050D01*
X0558167Y0144300D01*
X0558167Y0045550D01*
X0563167Y0041800D02*
X0563167Y0034300D01*
X0560667Y0031800D01*
X0560667Y0029300D02*
X0568167Y0029300D01*
X0568167Y0224300D01*
X0573167Y0229300D01*
X0573167Y0241800D01*
X0576917Y0235550D02*
X0576917Y0188050D01*
X0575667Y0186800D01*
X0575667Y0179300D01*
X0576917Y0178050D01*
X0576917Y0135550D01*
X0579417Y0133050D01*
X0579417Y0015550D01*
X0583167Y0011800D01*
X0578167Y0005550D02*
X0578167Y0106800D01*
X0573167Y0111800D01*
X0581917Y0113050D02*
X0583167Y0111800D01*
X0581917Y0113050D02*
X0581917Y0133050D01*
X0579417Y0135550D01*
X0579417Y0178050D01*
X0578167Y0179300D01*
X0581917Y0169300D02*
X0593167Y0180550D01*
X0593167Y0191800D01*
X0589417Y0198050D02*
X0589417Y0235550D01*
X0596917Y0234300D02*
X0596917Y0328050D01*
X0583167Y0341800D01*
X0579417Y0346800D02*
X0579417Y0295550D01*
X0583167Y0291800D01*
X0599417Y0308050D02*
X0603167Y0311800D01*
X0599417Y0308050D02*
X0599417Y0233050D01*
X0595667Y0229300D01*
X0618167Y0236800D02*
X0618167Y0170550D01*
X0601917Y0154300D01*
X0609417Y0151800D02*
X0609417Y0131800D01*
X0601917Y0124300D01*
X0609417Y0125550D02*
X0619417Y0125550D01*
X0619417Y0073050D01*
X0598167Y0051800D01*
X0598167Y0046800D01*
X0593167Y0041800D01*
X0599417Y0049300D02*
X0620667Y0070550D01*
X0629417Y0065550D02*
X0629417Y0041800D01*
X0603167Y0041800D01*
X0599417Y0049300D02*
X0599417Y0018050D01*
X0593167Y0011800D01*
X0578167Y0005550D02*
X0636917Y0005550D01*
X0643167Y0011800D01*
X0653167Y0011800D02*
X0636917Y0028050D01*
X0636917Y0058050D01*
X0633167Y0061800D01*
X0639417Y0065550D02*
X0639417Y0076800D01*
X0639417Y0108050D01*
X0643167Y0111800D01*
X0646917Y0108050D02*
X0646917Y0138050D01*
X0643167Y0141800D01*
X0633167Y0141800D02*
X0633167Y0121800D01*
X0623167Y0111800D01*
X0619417Y0125550D02*
X0619417Y0150550D01*
X0629417Y0160550D01*
X0629417Y0180550D01*
X0645667Y0168050D02*
X0646917Y0169300D01*
X0646917Y0229300D01*
X0650667Y0229300D01*
X0646917Y0229300D02*
X0646917Y0258050D01*
X0643167Y0261800D01*
X0633167Y0261800D02*
X0626917Y0255550D01*
X0626917Y0165550D01*
X0623167Y0161800D01*
X0633167Y0161800D02*
X0633167Y0191800D01*
X0609417Y0195550D02*
X0609417Y0338050D01*
X0613167Y0341800D01*
X0606917Y0346800D02*
X0599417Y0354300D01*
X0599417Y0395550D01*
X0610667Y0378050D02*
X0613167Y0375550D01*
X0613167Y0361800D01*
X0620667Y0348050D02*
X0629417Y0339300D01*
X0626917Y0320550D02*
X0626917Y0265550D01*
X0623167Y0261800D01*
X0616917Y0255550D01*
X0616917Y0215550D01*
X0613167Y0211800D01*
X0589417Y0198050D02*
X0583167Y0191800D01*
X0573167Y0191800D02*
X0573167Y0161800D01*
X0574417Y0154300D02*
X0573167Y0153050D01*
X0573167Y0141800D01*
X0569417Y0138050D01*
X0569417Y0053050D01*
X0570667Y0051800D01*
X0575667Y0050550D02*
X0575667Y0044300D01*
X0573167Y0041800D01*
X0558167Y0036800D02*
X0558167Y0031800D01*
X0560667Y0029300D01*
X0570667Y0026800D02*
X0573167Y0024300D01*
X0573167Y0011800D01*
X0570667Y0019300D02*
X0563167Y0011800D01*
X0570667Y0019300D02*
X0570667Y0021800D01*
X0549417Y0010550D02*
X0548167Y0009300D01*
X0539417Y0024300D02*
X0539417Y0150550D01*
X0546917Y0158050D01*
X0546917Y0169300D01*
X0545667Y0170550D01*
X0545667Y0186800D01*
X0550667Y0189300D02*
X0550667Y0166800D01*
X0549417Y0165550D01*
X0548167Y0170550D02*
X0548167Y0156800D01*
X0545667Y0154300D01*
X0545667Y0144300D01*
X0543167Y0141800D01*
X0536917Y0138050D02*
X0536917Y0133050D01*
X0536917Y0138050D02*
X0533167Y0141800D01*
X0531917Y0143050D01*
X0531917Y0151800D01*
X0529417Y0158050D02*
X0529417Y0215550D01*
X0546917Y0233050D01*
X0546917Y0265550D01*
X0538167Y0274300D01*
X0538167Y0346800D01*
X0530667Y0354300D01*
X0523167Y0361800D02*
X0523167Y0326800D01*
X0519417Y0328050D02*
X0519417Y0265550D01*
X0523167Y0261800D01*
X0528167Y0259300D02*
X0535667Y0251800D01*
X0528167Y0244300D01*
X0528167Y0104300D01*
X0526917Y0103050D01*
X0528167Y0101800D02*
X0528167Y0005550D01*
X0479417Y0018050D02*
X0479417Y0071800D01*
X0480667Y0073050D01*
X0483167Y0078050D02*
X0483167Y0041800D01*
X0489417Y0045550D02*
X0493167Y0041800D01*
X0489417Y0045550D02*
X0489417Y0128050D01*
X0490667Y0129300D01*
X0485667Y0126800D02*
X0485667Y0114300D01*
X0483167Y0111800D01*
X0473167Y0111800D02*
X0468167Y0106800D01*
X0468167Y0054300D01*
X0466917Y0054300D01*
X0468167Y0054300D02*
X0468167Y0046800D01*
X0463167Y0041800D01*
X0469417Y0045550D02*
X0473167Y0041800D01*
X0475667Y0039300D01*
X0475667Y0031800D01*
X0459417Y0025550D02*
X0459417Y0105550D01*
X0453167Y0111800D01*
X0463167Y0111800D02*
X0473167Y0121800D01*
X0476917Y0124300D02*
X0476917Y0095550D01*
X0473167Y0091800D01*
X0479417Y0085550D02*
X0480667Y0084300D01*
X0479417Y0085550D02*
X0479417Y0173050D01*
X0478167Y0174300D01*
X0478167Y0306800D01*
X0473167Y0311800D01*
X0469417Y0306800D02*
X0469417Y0258050D01*
X0473167Y0254300D01*
X0473167Y0241800D01*
X0469417Y0245550D02*
X0470667Y0246800D01*
X0470667Y0250550D01*
X0468167Y0246800D02*
X0468167Y0146800D01*
X0473167Y0141800D01*
X0466917Y0145550D02*
X0466917Y0173050D01*
X0465667Y0174300D01*
X0471917Y0176800D02*
X0473167Y0178050D01*
X0473167Y0191800D01*
X0463167Y0191800D02*
X0459417Y0195550D01*
X0476917Y0201800D02*
X0476917Y0249300D01*
X0475667Y0250550D01*
X0479417Y0245550D02*
X0479417Y0298050D01*
X0485667Y0298050D01*
X0485667Y0300550D02*
X0483167Y0303050D01*
X0483167Y0311800D01*
X0489417Y0319300D02*
X0489417Y0254300D01*
X0493167Y0250550D01*
X0493167Y0226800D01*
X0510667Y0209300D01*
X0499417Y0198050D01*
X0499417Y0120550D01*
X0491917Y0120550D01*
X0499417Y0120550D02*
X0499417Y0045550D01*
X0503167Y0041800D01*
X0503167Y0061800D02*
X0513167Y0071800D01*
X0513167Y0091800D01*
X0516917Y0095550D01*
X0516917Y0216800D01*
X0524417Y0224300D01*
X0523167Y0211800D02*
X0525667Y0209300D01*
X0525667Y0203050D01*
X0513167Y0211800D02*
X0510667Y0209300D01*
X0488167Y0203050D02*
X0488167Y0253050D01*
X0488167Y0364300D01*
X0485667Y0366800D01*
X0485667Y0389300D01*
X0483167Y0391800D01*
X0493167Y0391800D02*
X0495667Y0389300D01*
X0495667Y0369300D01*
X0498167Y0366800D01*
X0498167Y0265550D01*
X0496917Y0264300D01*
X0479417Y0245550D02*
X0483167Y0241800D01*
X0469417Y0245550D02*
X0469417Y0165550D01*
X0473167Y0161800D01*
X0464417Y0160550D02*
X0464417Y0150550D01*
X0466917Y0145550D02*
X0463167Y0141800D01*
X0456917Y0155550D02*
X0456917Y0174300D01*
X0454417Y0171800D02*
X0453167Y0170550D01*
X0453167Y0161800D01*
X0453167Y0160550D01*
X0440667Y0148050D01*
X0438167Y0148050D02*
X0448167Y0158050D01*
X0448167Y0299300D01*
X0458167Y0309300D01*
X0458167Y0370550D01*
X0459417Y0369300D02*
X0460667Y0370550D01*
X0460667Y0386800D01*
X0456917Y0390550D01*
X0456917Y0445550D01*
X0454417Y0448050D01*
X0416917Y0448050D01*
X0416917Y0415550D01*
X0413167Y0411800D01*
X0411917Y0405550D02*
X0413167Y0404300D01*
X0413167Y0391800D01*
X0416917Y0388050D02*
X0414417Y0385550D01*
X0406917Y0385550D01*
X0406917Y0430550D01*
X0394417Y0443050D01*
X0360667Y0443050D01*
X0360667Y0410550D01*
X0359417Y0409300D01*
X0359417Y0365550D01*
X0363167Y0361800D01*
X0358167Y0356800D02*
X0358167Y0135550D01*
X0338167Y0115550D01*
X0338167Y0104300D01*
X0326917Y0093050D01*
X0326917Y0084300D01*
X0318167Y0075550D01*
X0308167Y0088050D02*
X0308167Y0114300D01*
X0304417Y0118050D01*
X0304417Y0140550D01*
X0303167Y0141800D01*
X0306917Y0131800D02*
X0306917Y0219300D01*
X0305667Y0220550D01*
X0303167Y0220550D02*
X0306917Y0224300D01*
X0303167Y0220550D02*
X0303167Y0191800D01*
X0298167Y0186800D01*
X0298167Y0124300D01*
X0316917Y0105550D02*
X0316917Y0188050D01*
X0313167Y0191800D01*
X0334417Y0201800D02*
X0334417Y0210550D01*
X0333167Y0211800D01*
X0333167Y0230550D01*
X0335667Y0233050D01*
X0349417Y0229300D02*
X0356917Y0221800D01*
X0356917Y0155550D01*
X0343167Y0141800D01*
X0336917Y0135550D01*
X0336917Y0108050D01*
X0334417Y0105550D01*
X0316917Y0105550D01*
X0346917Y0098050D02*
X0359417Y0110550D01*
X0359417Y0215550D01*
X0371917Y0228050D01*
X0371917Y0240550D01*
X0373167Y0241800D01*
X0369417Y0236800D02*
X0369417Y0288050D01*
X0373167Y0291800D01*
X0379417Y0288050D02*
X0379417Y0246800D01*
X0366917Y0250550D02*
X0363167Y0246800D01*
X0363167Y0241800D01*
X0356917Y0254300D02*
X0349417Y0246800D01*
X0349417Y0229300D01*
X0349417Y0226800D02*
X0349417Y0215550D01*
X0349417Y0155550D01*
X0351917Y0153050D01*
X0363167Y0161800D02*
X0366917Y0158050D01*
X0366917Y0115550D01*
X0363167Y0111800D01*
X0366917Y0113050D02*
X0366917Y0098050D01*
X0350667Y0081800D01*
X0388167Y0068050D02*
X0388167Y0059300D01*
X0394417Y0068050D02*
X0396917Y0065550D01*
X0394417Y0068050D02*
X0388167Y0068050D01*
X0403167Y0061800D02*
X0406917Y0065550D01*
X0406917Y0071800D01*
X0403167Y0061800D02*
X0393167Y0051800D01*
X0401917Y0050550D02*
X0393167Y0041800D01*
X0393167Y0031800D02*
X0403167Y0041800D01*
X0423167Y0041800D02*
X0428167Y0036800D01*
X0428167Y0026800D01*
X0430667Y0034300D02*
X0433167Y0036800D01*
X0433167Y0061800D01*
X0439417Y0058050D02*
X0439417Y0053050D01*
X0439417Y0058050D02*
X0443167Y0061800D01*
X0453167Y0061800D02*
X0441917Y0073050D01*
X0423167Y0061800D02*
X0418167Y0066800D01*
X0418167Y0214300D01*
X0420667Y0216800D01*
X0420667Y0221800D01*
X0419417Y0223050D01*
X0419417Y0250550D01*
X0426917Y0258050D01*
X0426917Y0299300D01*
X0419417Y0306800D01*
X0419417Y0383050D01*
X0416917Y0385550D01*
X0416917Y0388050D02*
X0416917Y0399300D01*
X0431917Y0399300D01*
X0453167Y0391800D02*
X0455667Y0389300D01*
X0455667Y0366800D01*
X0456917Y0365550D01*
X0456917Y0358050D01*
X0454417Y0355550D01*
X0449417Y0355550D01*
X0453167Y0361800D02*
X0449417Y0365550D01*
X0449417Y0438050D01*
X0453167Y0441800D01*
X0459417Y0433050D02*
X0479417Y0413050D01*
X0479417Y0298050D01*
X0463167Y0291800D02*
X0461917Y0290550D01*
X0461917Y0281800D01*
X0454417Y0279300D02*
X0454417Y0290550D01*
X0453167Y0291800D01*
X0456917Y0299300D02*
X0455667Y0300550D01*
X0455667Y0304300D01*
X0459417Y0308050D01*
X0459417Y0369300D01*
X0466917Y0365550D02*
X0466917Y0386800D01*
X0469417Y0379300D02*
X0469417Y0348050D01*
X0463167Y0341800D01*
X0473167Y0341800D02*
X0476917Y0345550D01*
X0476917Y0371800D01*
X0486917Y0375550D02*
X0486917Y0408050D01*
X0463167Y0431800D01*
X0473167Y0441800D02*
X0499417Y0441800D01*
X0499417Y0408050D01*
X0498167Y0401800D02*
X0498167Y0389300D01*
X0500667Y0386800D01*
X0500667Y0364300D01*
X0503167Y0361800D01*
X0506917Y0365550D02*
X0505667Y0366800D01*
X0505667Y0389300D01*
X0503167Y0391800D01*
X0508167Y0386800D02*
X0508167Y0374300D01*
X0511917Y0373050D02*
X0511917Y0363050D01*
X0513167Y0361800D01*
X0506917Y0365550D02*
X0506917Y0323050D01*
X0496917Y0315550D02*
X0496917Y0365550D01*
X0486917Y0375550D01*
X0496917Y0388050D02*
X0499417Y0385550D01*
X0499417Y0345550D01*
X0503167Y0341800D01*
X0509417Y0338050D02*
X0513167Y0341800D01*
X0509417Y0338050D02*
X0509417Y0304300D01*
X0501917Y0296800D01*
X0499417Y0308050D02*
X0503167Y0311800D01*
X0499417Y0308050D02*
X0499417Y0236800D01*
X0495667Y0233050D01*
X0490667Y0233050D02*
X0489417Y0231800D01*
X0489417Y0165550D01*
X0493167Y0161800D01*
X0464417Y0160550D02*
X0463167Y0161800D01*
X0456917Y0155550D02*
X0443167Y0141800D01*
X0438167Y0148050D02*
X0438167Y0118050D01*
X0453167Y0124300D02*
X0476917Y0124300D01*
X0433167Y0141800D02*
X0429417Y0145550D01*
X0429417Y0233050D01*
X0436917Y0225550D02*
X0436917Y0155550D01*
X0443167Y0155550D01*
X0443167Y0161800D02*
X0439417Y0165550D01*
X0439417Y0223050D01*
X0418167Y0221800D02*
X0406917Y0221800D01*
X0406917Y0186800D01*
X0398167Y0188050D02*
X0386917Y0176800D01*
X0386917Y0133050D01*
X0366917Y0113050D01*
X0356917Y0115550D02*
X0353167Y0111800D01*
X0356917Y0115550D02*
X0356917Y0131800D01*
X0369417Y0124300D02*
X0369417Y0173050D01*
X0361917Y0180550D01*
X0361917Y0185550D02*
X0379417Y0168050D01*
X0379417Y0145550D01*
X0383167Y0141800D01*
X0389417Y0145550D02*
X0389417Y0176800D01*
X0399417Y0181800D02*
X0399417Y0355550D01*
X0393167Y0361800D01*
X0393167Y0364300D01*
X0383167Y0374300D01*
X0396917Y0388050D01*
X0396917Y0429300D01*
X0398167Y0430550D01*
X0394417Y0440550D02*
X0376917Y0423050D01*
X0376917Y0383050D01*
X0370667Y0376800D01*
X0370667Y0364300D01*
X0373167Y0361800D01*
X0379417Y0358050D02*
X0383167Y0361800D01*
X0379417Y0358050D02*
X0379417Y0328050D01*
X0376917Y0323050D02*
X0369417Y0323050D01*
X0376917Y0323050D02*
X0376917Y0305550D01*
X0386917Y0295550D01*
X0386917Y0274300D01*
X0395667Y0265550D01*
X0406917Y0263050D02*
X0406917Y0308050D01*
X0403167Y0311800D01*
X0413167Y0311800D02*
X0415667Y0309300D01*
X0415667Y0296800D01*
X0416917Y0295550D01*
X0416917Y0280550D01*
X0409417Y0273050D01*
X0409417Y0226800D01*
X0423167Y0241800D02*
X0423167Y0251800D01*
X0424417Y0253050D01*
X0428167Y0251800D02*
X0443167Y0251800D01*
X0453167Y0261800D02*
X0453167Y0268050D01*
X0450667Y0270550D01*
X0459417Y0265550D02*
X0463167Y0261800D01*
X0466917Y0258050D02*
X0466917Y0318050D01*
X0489417Y0319300D02*
X0490667Y0320550D01*
X0494417Y0321800D02*
X0489417Y0326800D01*
X0489417Y0358050D01*
X0493167Y0361800D01*
X0486917Y0358050D02*
X0486917Y0334300D01*
X0485667Y0333050D01*
X0496917Y0315550D02*
X0493167Y0311800D01*
X0459417Y0299300D02*
X0459417Y0265550D01*
X0466917Y0258050D02*
X0465667Y0256800D01*
X0465667Y0244300D01*
X0463167Y0241800D01*
X0463167Y0226800D01*
X0460667Y0224300D01*
X0459417Y0223050D02*
X0456917Y0225550D01*
X0456917Y0299300D01*
X0458167Y0300550D02*
X0459417Y0299300D01*
X0444417Y0290550D02*
X0444417Y0279300D01*
X0438167Y0279300D02*
X0438167Y0330550D01*
X0430667Y0338050D01*
X0418167Y0345550D02*
X0416917Y0346800D01*
X0418167Y0345550D02*
X0418167Y0305550D01*
X0423167Y0300550D01*
X0423167Y0291800D01*
X0433167Y0291800D02*
X0435667Y0294300D01*
X0435667Y0301800D01*
X0443167Y0291800D02*
X0444417Y0290550D01*
X0409417Y0286800D02*
X0409417Y0338050D01*
X0413167Y0341800D01*
X0406917Y0338050D02*
X0406917Y0326800D01*
X0398167Y0326800D02*
X0398167Y0188050D01*
X0373167Y0171800D02*
X0373167Y0161800D01*
X0389417Y0145550D02*
X0393167Y0141800D01*
X0431917Y0150550D02*
X0436917Y0155550D01*
X0346917Y0178050D02*
X0346917Y0300550D01*
X0348167Y0301800D01*
X0348167Y0353050D01*
X0349417Y0351800D02*
X0350667Y0353050D01*
X0353167Y0353050D01*
X0350667Y0353050D02*
X0350667Y0356800D01*
X0348167Y0359300D01*
X0348167Y0411800D01*
X0339417Y0415550D02*
X0346917Y0423050D01*
X0344417Y0425550D01*
X0076917Y0425550D01*
X0076917Y0335550D01*
X0073167Y0331800D01*
X0063167Y0331800D02*
X0059417Y0328050D01*
X0059417Y0166800D01*
X0060667Y0165550D01*
X0073167Y0165550D02*
X0073167Y0161800D01*
X0073167Y0165550D02*
X0083167Y0165550D01*
X0114417Y0196800D01*
X0114417Y0420550D01*
X0339417Y0420550D01*
X0339417Y0415550D02*
X0339417Y0354300D01*
X0345667Y0348050D01*
X0349417Y0351800D02*
X0349417Y0315550D01*
X0353167Y0311800D01*
X0345667Y0314300D02*
X0345667Y0320550D01*
X0345667Y0314300D02*
X0343167Y0311800D01*
X0333167Y0311800D02*
X0333167Y0331800D01*
X0343167Y0341800D01*
X0329417Y0353050D02*
X0333167Y0356800D01*
X0333167Y0361800D01*
X0336917Y0365550D01*
X0336917Y0415550D01*
X0344417Y0423050D01*
X0354417Y0423050D02*
X0354417Y0393050D01*
X0353167Y0391800D01*
X0363167Y0391800D02*
X0363167Y0374300D01*
X0365667Y0371800D01*
X0373167Y0376800D02*
X0383167Y0386800D01*
X0383167Y0391800D01*
X0393167Y0391800D02*
X0393167Y0404300D01*
X0379417Y0404300D01*
X0399417Y0406800D02*
X0403167Y0403050D01*
X0403167Y0391800D01*
X0403167Y0376800D01*
X0415667Y0376800D01*
X0425667Y0355550D02*
X0444417Y0374300D01*
X0444417Y0380550D01*
X0463167Y0361800D02*
X0466917Y0365550D01*
X0483167Y0361800D02*
X0486917Y0358050D01*
X0496917Y0388050D02*
X0496917Y0400550D01*
X0488167Y0409300D01*
X0488167Y0426800D01*
X0480667Y0434300D01*
X0478167Y0434300D01*
X0478167Y0423050D01*
X0463167Y0411800D02*
X0475667Y0399300D01*
X0508167Y0386800D02*
X0513167Y0391800D01*
X0523167Y0391800D02*
X0528167Y0386800D01*
X0528167Y0259300D01*
X0535667Y0251800D02*
X0539417Y0248050D01*
X0543167Y0261800D02*
X0543167Y0264300D01*
X0530667Y0276800D01*
X0560667Y0298050D02*
X0560667Y0309300D01*
X0563167Y0311800D01*
X0543167Y0331800D02*
X0553167Y0341800D01*
X0563167Y0341800D02*
X0566917Y0338050D01*
X0566917Y0228050D01*
X0558167Y0219300D01*
X0558167Y0174300D01*
X0564417Y0174300D02*
X0564417Y0163050D01*
X0563167Y0161800D01*
X0548167Y0151800D02*
X0548167Y0116800D01*
X0543167Y0111800D01*
X0533167Y0111800D02*
X0530667Y0109300D01*
X0530667Y0101800D01*
X0529417Y0103050D02*
X0528167Y0101800D01*
X0529417Y0103050D02*
X0529417Y0158050D01*
X0533167Y0161800D01*
X0553167Y0141800D02*
X0555667Y0139300D01*
X0555667Y0131800D01*
X0563167Y0141800D02*
X0566917Y0145550D01*
X0566917Y0188050D01*
X0563167Y0191800D01*
X0555667Y0194300D02*
X0555667Y0205550D01*
X0548167Y0205550D02*
X0548167Y0206800D01*
X0543167Y0211800D01*
X0563167Y0211800D02*
X0563167Y0221800D01*
X0570667Y0220550D02*
X0573167Y0218050D01*
X0573167Y0211800D01*
X0568167Y0226800D02*
X0568167Y0336800D01*
X0573167Y0341800D01*
X0583167Y0361800D02*
X0593167Y0361800D01*
X0636917Y0390550D02*
X0636917Y0298050D01*
X0643167Y0291800D01*
X0668167Y0306800D02*
X0668167Y0255550D01*
X0683167Y0241800D02*
X0688167Y0246800D01*
X0688167Y0301800D01*
X0678167Y0301800D01*
X0668167Y0306800D02*
X0673167Y0311800D01*
X0653167Y0241800D02*
X0653167Y0219300D01*
X0648167Y0214300D01*
X0648167Y0100550D01*
X0645667Y0106800D02*
X0646917Y0108050D01*
X0645667Y0106800D02*
X0645667Y0094300D01*
X0643167Y0091800D01*
X0641917Y0090550D01*
X0641917Y0083050D01*
X0649417Y0080550D02*
X0656917Y0088050D01*
X0663167Y0091800D02*
X0658167Y0096800D01*
X0658167Y0136800D01*
X0663167Y0141800D01*
X0679417Y0138050D02*
X0679417Y0095550D01*
X0683167Y0091800D01*
X0673167Y0091800D02*
X0673167Y0076800D01*
X0670667Y0074300D01*
X0666917Y0065550D02*
X0666917Y0108050D01*
X0663167Y0111800D01*
X0683167Y0111800D02*
X0686917Y0108050D01*
X0686917Y0065550D01*
X0683167Y0061800D01*
X0689417Y0058050D02*
X0693167Y0061800D01*
X0689417Y0058050D02*
X0689417Y0004300D01*
X0669417Y0004300D01*
X0668167Y0005550D01*
X0668167Y0014300D01*
X0665667Y0016800D01*
X0665667Y0039300D01*
X0663167Y0041800D01*
X0666917Y0038050D02*
X0666917Y0048050D01*
X0653167Y0061800D01*
X0643167Y0061800D02*
X0639417Y0065550D01*
X0649417Y0080550D02*
X0649417Y0025550D01*
X0663167Y0011800D01*
X0669417Y0008050D02*
X0669417Y0035550D01*
X0666917Y0038050D01*
X0668167Y0039300D02*
X0668167Y0095550D01*
X0669417Y0096800D01*
X0699417Y0095550D02*
X0703167Y0091800D01*
X0699417Y0095550D02*
X0699417Y0138050D01*
X0703167Y0141800D01*
X0683167Y0141800D02*
X0679417Y0138050D01*
X0678167Y0128050D02*
X0660667Y0128050D01*
X0678167Y0128050D02*
X0678167Y0046800D01*
X0673167Y0041800D01*
X0668167Y0039300D02*
X0670667Y0036800D01*
X0670667Y0014300D01*
X0673167Y0011800D01*
X0669417Y0008050D02*
X0670667Y0006800D01*
X0670667Y0005550D01*
X0676917Y0005550D01*
X0683167Y0011800D01*
X0728167Y0021800D02*
X0728167Y0036800D01*
X0728167Y0021800D02*
X0733167Y0016800D01*
X0688167Y0046800D02*
X0688167Y0180550D01*
X0691917Y0184300D01*
X0683167Y0185550D02*
X0683167Y0191800D01*
X0683167Y0185550D02*
X0669417Y0171800D01*
X0656917Y0174300D02*
X0656917Y0225550D01*
X0664417Y0235550D02*
X0666917Y0233050D01*
X0666917Y0160550D01*
X0678167Y0149300D01*
X0678167Y0128050D01*
X0703167Y0111800D02*
X0706917Y0108050D01*
X0706917Y0065550D01*
X0703167Y0061800D01*
X0688167Y0046800D02*
X0683167Y0041800D01*
X0675667Y0048050D02*
X0673167Y0050550D01*
X0673167Y0061800D01*
X0666917Y0065550D02*
X0663167Y0061800D01*
X0593167Y0091800D02*
X0581917Y0080550D01*
X0573167Y0078050D02*
X0571917Y0076800D01*
X0573167Y0078050D02*
X0573167Y0091800D01*
X0589417Y0103050D02*
X0589417Y0113050D01*
X0583167Y0119300D01*
X0583167Y0141800D01*
X0593167Y0141800D02*
X0593167Y0134300D01*
X0585667Y0126800D01*
X0633167Y0141800D02*
X0633167Y0148050D01*
X0630667Y0150550D01*
X0663167Y0161800D02*
X0663167Y0191800D01*
X0618167Y0236800D02*
X0623167Y0241800D01*
X0555667Y0194300D02*
X0553167Y0191800D01*
X0550667Y0189300D01*
X0433167Y0261800D02*
X0429417Y0265550D01*
X0429417Y0319300D01*
X0430667Y0320550D01*
X0406917Y0338050D02*
X0403167Y0341800D01*
X0393167Y0341800D02*
X0388167Y0336800D01*
X0388167Y0298050D01*
X0385667Y0300550D02*
X0385667Y0309300D01*
X0383167Y0311800D01*
X0393167Y0311800D02*
X0394417Y0310550D01*
X0394417Y0281800D01*
X0395667Y0281800D01*
X0394417Y0281800D02*
X0394417Y0274300D01*
X0395667Y0273050D01*
X0379417Y0288050D02*
X0383167Y0291800D01*
X0376917Y0285550D02*
X0373167Y0281800D01*
X0373167Y0261800D01*
X0366917Y0265550D02*
X0363167Y0261800D01*
X0366917Y0265550D02*
X0366917Y0296800D01*
X0360667Y0303050D01*
X0365667Y0300550D02*
X0376917Y0300550D01*
X0376917Y0285550D01*
X0363167Y0291800D02*
X0359417Y0288050D01*
X0359417Y0276800D01*
X0364417Y0276800D01*
X0359417Y0276800D02*
X0359417Y0256800D01*
X0360667Y0255550D01*
X0356917Y0254300D02*
X0356917Y0325550D01*
X0351917Y0330550D01*
X0360667Y0325550D02*
X0360667Y0324300D01*
X0373167Y0311800D01*
X0376917Y0323050D02*
X0376917Y0338050D01*
X0373167Y0341800D01*
X0383167Y0341800D02*
X0385667Y0339300D01*
X0385667Y0333050D01*
X0395667Y0329300D02*
X0398167Y0326800D01*
X0358167Y0356800D02*
X0353167Y0361800D01*
X0356917Y0365550D01*
X0356917Y0421800D01*
X0358167Y0423050D01*
X0333167Y0391800D02*
X0333167Y0371800D01*
X0325667Y0364300D01*
X0326917Y0350550D02*
X0299417Y0378050D01*
X0279417Y0378050D01*
X0276917Y0380550D02*
X0268167Y0389300D01*
X0268167Y0406800D01*
X0263167Y0411800D01*
X0259417Y0418050D02*
X0259417Y0404300D01*
X0256917Y0401800D01*
X0254417Y0401800D02*
X0259417Y0396800D01*
X0259417Y0325550D01*
X0264417Y0325550D01*
X0259417Y0325550D02*
X0259417Y0323050D01*
X0269417Y0313050D01*
X0269417Y0304300D01*
X0273167Y0300550D01*
X0273167Y0291800D01*
X0273167Y0283050D01*
X0265667Y0276800D02*
X0263167Y0279300D01*
X0263167Y0291800D01*
X0259417Y0295550D01*
X0259417Y0320550D01*
X0256917Y0323050D01*
X0256917Y0380550D01*
X0249417Y0388050D01*
X0249417Y0405550D01*
X0254417Y0401800D02*
X0254417Y0410550D01*
X0253167Y0411800D01*
X0259417Y0404300D02*
X0259417Y0403050D01*
X0266917Y0395550D01*
X0266917Y0360550D01*
X0273167Y0354300D01*
X0273167Y0341800D01*
X0276917Y0338050D02*
X0276917Y0380550D01*
X0274417Y0378050D02*
X0274417Y0363050D01*
X0273167Y0361800D01*
X0269417Y0355550D02*
X0269417Y0338050D01*
X0275667Y0331800D01*
X0276917Y0328050D02*
X0276917Y0303050D01*
X0279417Y0308050D02*
X0283167Y0311800D01*
X0279417Y0308050D02*
X0279417Y0215550D01*
X0283167Y0211800D01*
X0273167Y0211800D02*
X0270667Y0214300D01*
X0270667Y0236800D01*
X0268167Y0239300D01*
X0268167Y0300550D01*
X0263167Y0305550D01*
X0263167Y0311800D01*
X0258167Y0306800D02*
X0258167Y0254300D01*
X0255667Y0255550D02*
X0255667Y0244300D01*
X0253167Y0241800D01*
X0248167Y0244300D02*
X0241917Y0250550D01*
X0248167Y0244300D02*
X0248167Y0196800D01*
X0243167Y0191800D01*
X0243167Y0141800D01*
X0246917Y0138050D01*
X0246917Y0131800D01*
X0239417Y0126800D02*
X0236917Y0124300D01*
X0239417Y0126800D02*
X0239417Y0220550D01*
X0253167Y0211800D02*
X0254417Y0213050D01*
X0254417Y0231800D01*
X0246917Y0238050D02*
X0246917Y0198050D01*
X0244417Y0195550D01*
X0233167Y0191800D02*
X0229417Y0188050D01*
X0226917Y0185550D02*
X0228167Y0184300D01*
X0228167Y0108050D01*
X0234417Y0101800D01*
X0234417Y0093050D01*
X0233167Y0091800D01*
X0249417Y0101800D02*
X0249417Y0165550D01*
X0245667Y0169300D01*
X0226917Y0183050D02*
X0223167Y0186800D01*
X0223167Y0191800D01*
X0213167Y0191800D02*
X0209417Y0188050D01*
X0209417Y0118050D01*
X0215667Y0118050D01*
X0209417Y0118050D02*
X0209417Y0095550D01*
X0213167Y0091800D01*
X0203167Y0091800D02*
X0214417Y0080550D01*
X0219417Y0078050D02*
X0206917Y0078050D01*
X0193167Y0091800D01*
X0189417Y0100550D02*
X0188167Y0101800D01*
X0188167Y0339300D01*
X0196917Y0348050D01*
X0203167Y0361800D02*
X0214417Y0350550D01*
X0203167Y0361800D02*
X0203167Y0381800D01*
X0213167Y0391800D01*
X0199417Y0405550D02*
X0199417Y0305550D01*
X0213167Y0291800D01*
X0206917Y0285550D01*
X0206917Y0119300D01*
X0195667Y0108050D01*
X0190667Y0105550D02*
X0208167Y0105550D01*
X0219417Y0105550D02*
X0224417Y0105550D01*
X0226917Y0108050D02*
X0226917Y0050550D01*
X0224417Y0050550D02*
X0213167Y0061800D01*
X0199417Y0048050D02*
X0189417Y0058050D01*
X0189417Y0075550D01*
X0173167Y0091800D01*
X0163167Y0111800D02*
X0165667Y0114300D01*
X0165667Y0120550D01*
X0150667Y0120550D02*
X0150667Y0119300D01*
X0143167Y0111800D01*
X0211917Y0126800D02*
X0218167Y0133050D01*
X0218167Y0283050D01*
X0223167Y0288050D01*
X0223167Y0291800D01*
X0223167Y0295550D01*
X0219417Y0299300D01*
X0219417Y0320550D01*
X0221917Y0300550D02*
X0226917Y0295550D01*
X0226917Y0265550D01*
X0223167Y0261800D01*
X0219417Y0268050D02*
X0224417Y0273050D01*
X0219417Y0268050D02*
X0219417Y0229300D01*
X0233167Y0241800D02*
X0236917Y0238050D01*
X0243167Y0241800D02*
X0246917Y0238050D01*
X0263167Y0241800D02*
X0266917Y0245550D01*
X0266917Y0266800D01*
X0265667Y0268050D01*
X0261917Y0268050D02*
X0259417Y0265550D01*
X0259417Y0258050D01*
X0261917Y0255550D01*
X0261917Y0253050D01*
X0259417Y0250550D01*
X0259417Y0215550D01*
X0263167Y0211800D01*
X0269417Y0218050D02*
X0269417Y0181800D01*
X0278167Y0176800D02*
X0286917Y0168050D01*
X0278167Y0176800D02*
X0278167Y0199300D01*
X0278167Y0294300D01*
X0274417Y0298050D01*
X0274417Y0310550D01*
X0273167Y0311800D01*
X0269417Y0301800D02*
X0269417Y0265550D01*
X0273167Y0261800D01*
X0275667Y0250550D02*
X0275667Y0244300D01*
X0273167Y0241800D01*
X0283167Y0241800D02*
X0283167Y0236800D01*
X0293167Y0226800D01*
X0283167Y0241800D02*
X0288167Y0246800D01*
X0288167Y0329300D01*
X0278167Y0339300D01*
X0278167Y0404300D01*
X0264417Y0418050D01*
X0259417Y0418050D01*
X0253167Y0400550D02*
X0253167Y0391800D01*
X0263167Y0391800D02*
X0264417Y0390550D01*
X0264417Y0378050D01*
X0254417Y0370550D02*
X0254417Y0363050D01*
X0253167Y0361800D01*
X0263167Y0361800D02*
X0269417Y0355550D01*
X0283167Y0361800D02*
X0284417Y0363050D01*
X0284417Y0371800D01*
X0286917Y0373050D02*
X0286917Y0345550D01*
X0283167Y0341800D01*
X0289417Y0338050D02*
X0289417Y0261800D01*
X0293167Y0258050D01*
X0299417Y0250550D02*
X0325667Y0224300D01*
X0325667Y0221800D01*
X0349417Y0215550D02*
X0353167Y0211800D01*
X0338167Y0183050D02*
X0338167Y0286800D01*
X0334417Y0290550D01*
X0333167Y0291800D01*
X0334417Y0290550D02*
X0345667Y0301800D01*
X0343167Y0291800D02*
X0344417Y0290550D01*
X0344417Y0276800D01*
X0354417Y0276800D02*
X0354417Y0290550D01*
X0353167Y0291800D01*
X0299417Y0279300D02*
X0299417Y0250550D01*
X0333167Y0241800D02*
X0335667Y0244300D01*
X0335667Y0251800D01*
X0286917Y0295550D02*
X0283167Y0291800D01*
X0286917Y0295550D02*
X0286917Y0328050D01*
X0276917Y0338050D01*
X0289417Y0338050D02*
X0293167Y0341800D01*
X0276917Y0328050D02*
X0263167Y0341800D01*
X0250667Y0329300D02*
X0249417Y0328050D01*
X0249417Y0265550D01*
X0253167Y0261800D01*
X0251917Y0279300D02*
X0253167Y0280550D01*
X0253167Y0291800D01*
X0253167Y0300550D01*
X0251917Y0301800D01*
X0258167Y0306800D02*
X0253167Y0311800D01*
X0243167Y0291800D02*
X0238167Y0286800D01*
X0216917Y0284300D02*
X0216917Y0155550D01*
X0211917Y0150550D01*
X0203167Y0161800D02*
X0198167Y0166800D01*
X0198167Y0301800D01*
X0196917Y0295550D02*
X0190667Y0301800D01*
X0196917Y0295550D02*
X0196917Y0165550D01*
X0193167Y0161800D01*
X0176917Y0165550D02*
X0173167Y0161800D01*
X0213167Y0191800D02*
X0213167Y0201800D01*
X0210667Y0204300D01*
X0221917Y0203050D02*
X0221917Y0210550D01*
X0223167Y0211800D01*
X0226917Y0183050D02*
X0226917Y0136800D01*
X0219417Y0129300D01*
X0219417Y0105550D01*
X0219417Y0078050D01*
X0226917Y0108050D02*
X0223167Y0111800D01*
X0243167Y0111800D02*
X0245667Y0109300D01*
X0269417Y0103050D02*
X0278167Y0094300D01*
X0283167Y0091800D02*
X0274417Y0100550D01*
X0269417Y0103050D02*
X0269417Y0138050D01*
X0273167Y0141800D01*
X0274417Y0143050D01*
X0263167Y0141800D02*
X0258167Y0146800D01*
X0276917Y0155550D02*
X0283167Y0161800D01*
X0319417Y0145550D02*
X0324417Y0150550D01*
X0334417Y0171800D02*
X0340667Y0178050D01*
X0346917Y0178050D01*
X0269417Y0218050D02*
X0261917Y0225550D01*
X0203167Y0261800D02*
X0200667Y0264300D01*
X0200667Y0273050D01*
X0113167Y0285550D02*
X0113167Y0255550D01*
X0111917Y0254300D01*
X0110667Y0268050D02*
X0086917Y0291800D01*
X0086917Y0298050D01*
X0083167Y0301800D01*
X0094417Y0306800D02*
X0094417Y0356800D01*
X0085667Y0365550D01*
X0079417Y0365550D01*
X0079417Y0355550D01*
X0083167Y0351800D01*
X0086917Y0358050D02*
X0083167Y0361800D01*
X0086917Y0358050D02*
X0086917Y0320550D01*
X0091917Y0315550D01*
X0086917Y0318050D02*
X0086917Y0311800D01*
X0113167Y0285550D01*
X0111917Y0289300D02*
X0094417Y0306800D01*
X0086917Y0318050D02*
X0083167Y0321800D01*
X0073167Y0341800D02*
X0069417Y0345550D01*
X0069417Y0354300D01*
X0111917Y0343050D02*
X0111917Y0408050D01*
X0108167Y0411800D01*
X0128167Y0411800D02*
X0129417Y0410550D01*
X0074417Y0420550D02*
X0066917Y0413050D01*
X0066917Y0158050D01*
X0073167Y0151800D01*
X0286917Y0018050D02*
X0286917Y0008050D01*
X0283167Y0004300D01*
X0276917Y0005550D02*
X0283167Y0011800D01*
X0286917Y0018050D02*
X0306917Y0018050D01*
X0313167Y0011800D01*
X0323167Y0011800D02*
X0329417Y0018050D01*
X0329417Y0045550D01*
X0339417Y0055550D01*
X0333167Y0041800D02*
X0356917Y0041800D01*
X0356917Y0034300D01*
X0359417Y0020550D02*
X0379417Y0040550D01*
X0379417Y0048050D01*
X0359417Y0020550D02*
X0359417Y0005550D01*
X0299417Y0005550D01*
X0293167Y0011800D01*
X0366917Y0005550D02*
X0373167Y0011800D01*
X0451917Y0005550D02*
X0456917Y0005550D01*
X0463167Y0011800D01*
X0473167Y0021800D01*
X0479417Y0018050D02*
X0473167Y0011800D01*
X0469417Y0045550D02*
X0469417Y0075550D01*
X0470667Y0076800D01*
X0523167Y0084300D02*
X0524417Y0083050D01*
X0529417Y0088050D02*
X0533167Y0091800D01*
X0529417Y0088050D02*
X0529417Y0048050D01*
X0531917Y0045550D01*
X0551917Y0043050D02*
X0551917Y0053050D01*
X0560667Y0053050D02*
X0560667Y0059300D01*
X0563167Y0061800D01*
X0553167Y0061800D02*
X0553167Y0079300D01*
X0551917Y0080550D01*
X0551917Y0043050D02*
X0553167Y0041800D01*
X0558167Y0036800D01*
X0236917Y0338050D02*
X0233167Y0341800D01*
X0286917Y0373050D02*
X0296917Y0373050D01*
X0296917Y0386800D02*
X0316917Y0386800D01*
X0316917Y0384300D01*
X0303167Y0401800D02*
X0293167Y0391800D01*
X0283167Y0391800D02*
X0298167Y0406800D01*
X0275667Y0401800D02*
X0275667Y0394300D01*
X0273167Y0391800D01*
X0343167Y0379300D02*
X0343167Y0361800D01*
X0343167Y0379300D02*
X0345667Y0381800D01*
X0378167Y0379300D02*
X0383167Y0374300D01*
X0513167Y0429300D02*
X0513167Y0441800D01*
X0515667Y0434300D02*
X0515667Y0433050D01*
X0515667Y0434300D02*
X0523167Y0441800D01*
X0533167Y0441800D02*
X0539417Y0448050D01*
X0549417Y0448050D01*
X0549417Y0438050D01*
X0543167Y0441800D02*
X0534417Y0433050D01*
X0523167Y0419300D02*
X0515667Y0426800D01*
X0533167Y0411800D02*
X0540667Y0404300D01*
X0633167Y0411800D02*
X0639417Y0418050D01*
X0699417Y0418050D01*
X0199417Y0405550D02*
X0193167Y0411800D01*
D14*
X0168167Y0405550D03*
X0145667Y0401800D03*
X0216917Y0405550D03*
X0246917Y0401800D03*
X0253167Y0400550D03*
X0256917Y0401800D03*
X0275667Y0401800D03*
X0298167Y0406800D03*
X0303167Y0401800D03*
X0296917Y0386800D03*
X0281917Y0380550D03*
X0274417Y0378050D03*
X0264417Y0378050D03*
X0254417Y0370550D03*
X0226917Y0375550D03*
X0214417Y0350550D03*
X0196917Y0348050D03*
X0234417Y0320550D03*
X0250667Y0329300D03*
X0249417Y0333050D03*
X0264417Y0325550D03*
X0275667Y0331800D03*
X0306917Y0350550D03*
X0326917Y0350550D03*
X0329417Y0353050D03*
X0345667Y0348050D03*
X0348167Y0353050D03*
X0353167Y0353050D03*
X0365667Y0371800D03*
X0373167Y0376800D03*
X0378167Y0379300D03*
X0345667Y0381800D03*
X0316917Y0384300D03*
X0296917Y0370550D03*
X0284417Y0371800D03*
X0348167Y0411800D03*
X0359417Y0409300D03*
X0379417Y0404300D03*
X0399417Y0406800D03*
X0411917Y0405550D03*
X0431917Y0399300D03*
X0439417Y0383050D03*
X0444417Y0380550D03*
X0458167Y0370550D03*
X0469417Y0379300D03*
X0466917Y0386800D03*
X0475667Y0399300D03*
X0498167Y0401800D03*
X0525667Y0420550D03*
X0515667Y0426800D03*
X0515667Y0433050D03*
X0534417Y0433050D03*
X0558167Y0406800D03*
X0543167Y0401800D03*
X0511917Y0373050D03*
X0508167Y0374300D03*
X0530667Y0354300D03*
X0540667Y0366800D03*
X0545667Y0364300D03*
X0566917Y0353050D03*
X0579417Y0346800D03*
X0543167Y0331800D03*
X0523167Y0326800D03*
X0519417Y0328050D03*
X0506917Y0323050D03*
X0494417Y0321800D03*
X0490667Y0320550D03*
X0485667Y0333050D03*
X0466917Y0318050D03*
X0449417Y0320550D03*
X0430667Y0320550D03*
X0406917Y0326800D03*
X0395667Y0329300D03*
X0385667Y0333050D03*
X0379417Y0328050D03*
X0369417Y0323050D03*
X0360667Y0325550D03*
X0351917Y0330550D03*
X0345667Y0320550D03*
X0345667Y0301800D03*
X0360667Y0303050D03*
X0365667Y0300550D03*
X0385667Y0300550D03*
X0388167Y0298050D03*
X0409417Y0286800D03*
X0395667Y0281800D03*
X0395667Y0273050D03*
X0395667Y0265550D03*
X0406917Y0263050D03*
X0424417Y0253050D03*
X0426917Y0250550D03*
X0443167Y0251800D03*
X0468167Y0246800D03*
X0470667Y0250550D03*
X0475667Y0250550D03*
X0488167Y0253050D03*
X0496917Y0264300D03*
X0461917Y0281800D03*
X0454417Y0279300D03*
X0444417Y0279300D03*
X0441917Y0279300D03*
X0438167Y0279300D03*
X0450667Y0270550D03*
X0416917Y0280550D03*
X0435667Y0301800D03*
X0440667Y0301800D03*
X0458167Y0300550D03*
X0469417Y0306800D03*
X0485667Y0300550D03*
X0485667Y0298050D03*
X0501917Y0296800D03*
X0516917Y0286800D03*
X0530667Y0276800D03*
X0560667Y0298050D03*
X0540667Y0304300D03*
X0530667Y0304300D03*
X0551917Y0320550D03*
X0620667Y0303050D03*
X0626917Y0320550D03*
X0620667Y0348050D03*
X0610667Y0378050D03*
X0660667Y0400550D03*
X0598167Y0415550D03*
X0478167Y0423050D03*
X0463167Y0431800D03*
X0459417Y0433050D03*
X0398167Y0430550D03*
X0394417Y0440550D03*
X0358167Y0423050D03*
X0354417Y0423050D03*
X0344417Y0423050D03*
X0339417Y0420550D03*
X0416917Y0385550D03*
X0415667Y0376800D03*
X0425667Y0355550D03*
X0416917Y0346800D03*
X0430667Y0338050D03*
X0476917Y0371800D03*
X0364417Y0276800D03*
X0354417Y0276800D03*
X0344417Y0276800D03*
X0324417Y0270550D03*
X0299417Y0279300D03*
X0273167Y0283050D03*
X0265667Y0276800D03*
X0265667Y0268050D03*
X0261917Y0268050D03*
X0251917Y0279300D03*
X0224417Y0273050D03*
X0216917Y0284300D03*
X0218167Y0298050D03*
X0221917Y0300550D03*
X0240667Y0301800D03*
X0245667Y0301800D03*
X0251917Y0301800D03*
X0269417Y0301800D03*
X0276917Y0303050D03*
X0290667Y0258050D03*
X0275667Y0250550D03*
X0259417Y0253050D03*
X0255667Y0255550D03*
X0241917Y0250550D03*
X0229417Y0246800D03*
X0226917Y0233050D03*
X0226917Y0229300D03*
X0241917Y0220550D03*
X0250667Y0218050D03*
X0261917Y0225550D03*
X0254417Y0231800D03*
X0255667Y0235550D03*
X0293167Y0226800D03*
X0306917Y0224300D03*
X0305667Y0220550D03*
X0325667Y0221800D03*
X0335667Y0233050D03*
X0349417Y0226800D03*
X0369417Y0236800D03*
X0379417Y0246800D03*
X0366917Y0250550D03*
X0360667Y0255550D03*
X0335667Y0251800D03*
X0409417Y0226800D03*
X0418167Y0221800D03*
X0438167Y0226800D03*
X0439417Y0223050D03*
X0445667Y0233050D03*
X0429417Y0233050D03*
X0460667Y0224300D03*
X0490667Y0233050D03*
X0495667Y0233050D03*
X0524417Y0224300D03*
X0548167Y0205550D03*
X0555667Y0205550D03*
X0563167Y0221800D03*
X0570667Y0220550D03*
X0568167Y0226800D03*
X0576917Y0235550D03*
X0589417Y0235550D03*
X0596917Y0234300D03*
X0595667Y0229300D03*
X0564417Y0253050D03*
X0539417Y0248050D03*
X0525667Y0203050D03*
X0558167Y0174300D03*
X0564417Y0174300D03*
X0578167Y0179300D03*
X0581917Y0169300D03*
X0574417Y0154300D03*
X0601917Y0154300D03*
X0609417Y0151800D03*
X0630667Y0150550D03*
X0645667Y0168050D03*
X0650667Y0174300D03*
X0653167Y0176800D03*
X0669417Y0171800D03*
X0629417Y0180550D03*
X0609417Y0195550D03*
X0650667Y0229300D03*
X0655667Y0226800D03*
X0664417Y0235550D03*
X0696917Y0250550D03*
X0685667Y0255550D03*
X0708167Y0253050D03*
X0678167Y0301800D03*
X0675667Y0326800D03*
X0480667Y0203050D03*
X0471917Y0201800D03*
X0456917Y0196800D03*
X0425667Y0188050D03*
X0420667Y0183050D03*
X0425667Y0174300D03*
X0408167Y0183050D03*
X0401917Y0179300D03*
X0389417Y0176800D03*
X0373167Y0171800D03*
X0361917Y0180550D03*
X0361917Y0185550D03*
X0338167Y0183050D03*
X0334417Y0171800D03*
X0324417Y0150550D03*
X0319417Y0145550D03*
X0306917Y0131800D03*
X0298167Y0124300D03*
X0275667Y0120550D03*
X0274417Y0100550D03*
X0249417Y0101800D03*
X0234417Y0101800D03*
X0224417Y0105550D03*
X0215667Y0118050D03*
X0211917Y0126800D03*
X0236917Y0124300D03*
X0246917Y0131800D03*
X0220667Y0148050D03*
X0211917Y0150550D03*
X0245667Y0169300D03*
X0226917Y0185550D03*
X0244417Y0195550D03*
X0236917Y0201800D03*
X0221917Y0203050D03*
X0210667Y0204300D03*
X0259417Y0205550D03*
X0289417Y0196800D03*
X0300667Y0206800D03*
X0333167Y0198050D03*
X0334417Y0201800D03*
X0285667Y0176800D03*
X0280667Y0179300D03*
X0269417Y0181800D03*
X0284417Y0168050D03*
X0274417Y0150550D03*
X0328167Y0109300D03*
X0356917Y0131800D03*
X0369417Y0124300D03*
X0400667Y0100550D03*
X0408167Y0100550D03*
X0431917Y0103050D03*
X0446917Y0103050D03*
X0438167Y0118050D03*
X0440667Y0129300D03*
X0440667Y0135550D03*
X0453167Y0124300D03*
X0473167Y0121800D03*
X0485667Y0126800D03*
X0490667Y0129300D03*
X0491917Y0120550D03*
X0521917Y0101800D03*
X0530667Y0101800D03*
X0524417Y0083050D03*
X0516917Y0080550D03*
X0524417Y0074300D03*
X0551917Y0080550D03*
X0571917Y0076800D03*
X0581917Y0080550D03*
X0599417Y0065550D03*
X0596917Y0053050D03*
X0575667Y0050550D03*
X0570667Y0051800D03*
X0563167Y0051800D03*
X0560667Y0053050D03*
X0558167Y0045550D03*
X0551917Y0053050D03*
X0531917Y0045550D03*
X0525667Y0031800D03*
X0536917Y0024300D03*
X0548167Y0009300D03*
X0528167Y0005550D03*
X0498167Y0009300D03*
X0496917Y0026800D03*
X0475667Y0031800D03*
X0459417Y0025550D03*
X0473167Y0021800D03*
X0430667Y0034300D03*
X0409417Y0028050D03*
X0393167Y0031800D03*
X0393167Y0051800D03*
X0401917Y0050550D03*
X0406917Y0071800D03*
X0438167Y0081800D03*
X0441917Y0073050D03*
X0470667Y0076800D03*
X0480667Y0073050D03*
X0483167Y0078050D03*
X0480667Y0084300D03*
X0466917Y0054300D03*
X0439417Y0053050D03*
X0358167Y0058050D03*
X0356917Y0034300D03*
X0316917Y0033050D03*
X0316917Y0053050D03*
X0319417Y0070550D03*
X0318167Y0078050D03*
X0318167Y0080550D03*
X0350667Y0081800D03*
X0280667Y0051800D03*
X0260667Y0050550D03*
X0266917Y0034300D03*
X0226917Y0050550D03*
X0224417Y0050550D03*
X0204417Y0050550D03*
X0214417Y0080550D03*
X0189417Y0100550D03*
X0190667Y0105550D03*
X0195667Y0108050D03*
X0165667Y0120550D03*
X0150667Y0120550D03*
X0138167Y0096800D03*
X0060667Y0165550D03*
X0129417Y0174300D03*
X0160667Y0184300D03*
X0168167Y0179300D03*
X0193167Y0176800D03*
X0193167Y0174300D03*
X0150667Y0219300D03*
X0144417Y0219300D03*
X0166917Y0246800D03*
X0185667Y0251800D03*
X0166917Y0265550D03*
X0178167Y0270550D03*
X0200667Y0273050D03*
X0156917Y0294300D03*
X0190667Y0301800D03*
X0198167Y0301800D03*
X0148167Y0261800D03*
X0111917Y0254300D03*
X0110667Y0268050D03*
X0111917Y0289300D03*
X0091917Y0315550D03*
X0111917Y0343050D03*
X0069417Y0354300D03*
X0074417Y0420550D03*
X0456917Y0174300D03*
X0454417Y0171800D03*
X0465667Y0174300D03*
X0471917Y0176800D03*
X0443167Y0155550D03*
X0440667Y0148050D03*
X0431917Y0150550D03*
X0464417Y0150550D03*
X0531917Y0151800D03*
X0539417Y0156800D03*
X0548167Y0151800D03*
X0548167Y0170550D03*
X0536917Y0133050D03*
X0555667Y0131800D03*
X0585667Y0126800D03*
X0601917Y0124300D03*
X0609417Y0125550D03*
X0589417Y0103050D03*
X0565667Y0101800D03*
X0620667Y0070550D03*
X0639417Y0076800D03*
X0641917Y0083050D03*
X0669417Y0096800D03*
X0648167Y0100550D03*
X0660667Y0128050D03*
X0670667Y0074300D03*
X0675667Y0048050D03*
X0570667Y0026800D03*
X0570667Y0021800D03*
X0560667Y0031800D03*
X0366917Y0005550D03*
X0351917Y0153050D03*
M02*
