G75*
%MOIN*%
%OFA0B0*%
%FSLAX25Y25*%
%IPPOS*%
%LPD*%
%AMOC8*
5,1,8,0,0,1.08239X$1,22.5*
%
%ADD10C,0.05300*%
%ADD11OC8,0.05300*%
%ADD12OC8,0.06500*%
%ADD13C,0.11500*%
%ADD14C,0.02300*%
D10*
X0143167Y0059400D02*
X0143167Y0064200D01*
X0153167Y0064200D02*
X0153167Y0059400D01*
X0163167Y0059400D02*
X0163167Y0064200D01*
X0173167Y0064200D02*
X0173167Y0059400D01*
X0183167Y0059400D02*
X0183167Y0064200D01*
X0193167Y0064200D02*
X0193167Y0059400D01*
X0203167Y0059400D02*
X0203167Y0064200D01*
X0213167Y0064200D02*
X0213167Y0059400D01*
X0223167Y0059400D02*
X0223167Y0064200D01*
X0233167Y0064200D02*
X0233167Y0059400D01*
X0263167Y0059400D02*
X0263167Y0064200D01*
X0273167Y0064200D02*
X0273167Y0059400D01*
X0283167Y0059400D02*
X0283167Y0064200D01*
X0293167Y0064200D02*
X0293167Y0059400D01*
X0303167Y0059400D02*
X0303167Y0064200D01*
X0313167Y0064200D02*
X0313167Y0059400D01*
X0323167Y0059400D02*
X0323167Y0064200D01*
X0333167Y0064200D02*
X0333167Y0059400D01*
X0343167Y0059400D02*
X0343167Y0064200D01*
X0353167Y0064200D02*
X0353167Y0059400D01*
X0363167Y0044200D02*
X0363167Y0039400D01*
X0373167Y0039400D02*
X0373167Y0044200D01*
X0383167Y0044200D02*
X0383167Y0039400D01*
X0393167Y0039400D02*
X0393167Y0044200D01*
X0403167Y0044200D02*
X0403167Y0039400D01*
X0413167Y0039400D02*
X0413167Y0044200D01*
X0423167Y0044200D02*
X0423167Y0039400D01*
X0453167Y0039400D02*
X0453167Y0044200D01*
X0463167Y0044200D02*
X0463167Y0039400D01*
X0473167Y0039400D02*
X0473167Y0044200D01*
X0483167Y0044200D02*
X0483167Y0039400D01*
X0493167Y0039400D02*
X0493167Y0044200D01*
X0503167Y0044200D02*
X0503167Y0039400D01*
X0513167Y0039400D02*
X0513167Y0044200D01*
X0513167Y0059400D02*
X0513167Y0064200D01*
X0503167Y0064200D02*
X0503167Y0059400D01*
X0523167Y0059400D02*
X0523167Y0064200D01*
X0533167Y0064200D02*
X0533167Y0059400D01*
X0543167Y0059400D02*
X0543167Y0064200D01*
X0553167Y0064200D02*
X0553167Y0059400D01*
X0563167Y0059400D02*
X0563167Y0064200D01*
X0573167Y0064200D02*
X0573167Y0059400D01*
X0583167Y0059400D02*
X0583167Y0064200D01*
X0593167Y0064200D02*
X0593167Y0059400D01*
X0593167Y0044200D02*
X0593167Y0039400D01*
X0603167Y0039400D02*
X0603167Y0044200D01*
X0583167Y0044200D02*
X0583167Y0039400D01*
X0573167Y0039400D02*
X0573167Y0044200D01*
X0563167Y0044200D02*
X0563167Y0039400D01*
X0553167Y0039400D02*
X0553167Y0044200D01*
X0543167Y0044200D02*
X0543167Y0039400D01*
X0543167Y0014200D02*
X0543167Y0009400D01*
X0553167Y0009400D02*
X0553167Y0014200D01*
X0563167Y0014200D02*
X0563167Y0009400D01*
X0573167Y0009400D02*
X0573167Y0014200D01*
X0583167Y0014200D02*
X0583167Y0009400D01*
X0593167Y0009400D02*
X0593167Y0014200D01*
X0603167Y0014200D02*
X0603167Y0009400D01*
X0633167Y0009400D02*
X0633167Y0014200D01*
X0643167Y0014200D02*
X0643167Y0009400D01*
X0653167Y0009400D02*
X0653167Y0014200D01*
X0663167Y0014200D02*
X0663167Y0009400D01*
X0673167Y0009400D02*
X0673167Y0014200D01*
X0683167Y0014200D02*
X0683167Y0009400D01*
X0693167Y0009400D02*
X0693167Y0014200D01*
X0693167Y0039400D02*
X0693167Y0044200D01*
X0683167Y0044200D02*
X0683167Y0039400D01*
X0673167Y0039400D02*
X0673167Y0044200D01*
X0663167Y0044200D02*
X0663167Y0039400D01*
X0653167Y0039400D02*
X0653167Y0044200D01*
X0643167Y0044200D02*
X0643167Y0039400D01*
X0633167Y0039400D02*
X0633167Y0044200D01*
X0633167Y0059400D02*
X0633167Y0064200D01*
X0623167Y0064200D02*
X0623167Y0059400D01*
X0643167Y0059400D02*
X0643167Y0064200D01*
X0653167Y0064200D02*
X0653167Y0059400D01*
X0663167Y0059400D02*
X0663167Y0064200D01*
X0673167Y0064200D02*
X0673167Y0059400D01*
X0683167Y0059400D02*
X0683167Y0064200D01*
X0693167Y0064200D02*
X0693167Y0059400D01*
X0703167Y0059400D02*
X0703167Y0064200D01*
X0713167Y0064200D02*
X0713167Y0059400D01*
X0713167Y0089400D02*
X0713167Y0094200D01*
X0703167Y0094200D02*
X0703167Y0089400D01*
X0693167Y0089400D02*
X0693167Y0094200D01*
X0683167Y0094200D02*
X0683167Y0089400D01*
X0673167Y0089400D02*
X0673167Y0094200D01*
X0663167Y0094200D02*
X0663167Y0089400D01*
X0653167Y0089400D02*
X0653167Y0094200D01*
X0643167Y0094200D02*
X0643167Y0089400D01*
X0633167Y0089400D02*
X0633167Y0094200D01*
X0623167Y0094200D02*
X0623167Y0089400D01*
X0593167Y0089400D02*
X0593167Y0094200D01*
X0583167Y0094200D02*
X0583167Y0089400D01*
X0573167Y0089400D02*
X0573167Y0094200D01*
X0563167Y0094200D02*
X0563167Y0089400D01*
X0553167Y0089400D02*
X0553167Y0094200D01*
X0543167Y0094200D02*
X0543167Y0089400D01*
X0533167Y0089400D02*
X0533167Y0094200D01*
X0523167Y0094200D02*
X0523167Y0089400D01*
X0513167Y0089400D02*
X0513167Y0094200D01*
X0503167Y0094200D02*
X0503167Y0089400D01*
X0473167Y0089400D02*
X0473167Y0094200D01*
X0463167Y0094200D02*
X0463167Y0089400D01*
X0453167Y0089400D02*
X0453167Y0094200D01*
X0443167Y0094200D02*
X0443167Y0089400D01*
X0433167Y0089400D02*
X0433167Y0094200D01*
X0423167Y0094200D02*
X0423167Y0089400D01*
X0413167Y0089400D02*
X0413167Y0094200D01*
X0403167Y0094200D02*
X0403167Y0089400D01*
X0393167Y0089400D02*
X0393167Y0094200D01*
X0383167Y0094200D02*
X0383167Y0089400D01*
X0353167Y0089400D02*
X0353167Y0094200D01*
X0343167Y0094200D02*
X0343167Y0089400D01*
X0333167Y0089400D02*
X0333167Y0094200D01*
X0323167Y0094200D02*
X0323167Y0089400D01*
X0313167Y0089400D02*
X0313167Y0094200D01*
X0303167Y0094200D02*
X0303167Y0089400D01*
X0293167Y0089400D02*
X0293167Y0094200D01*
X0283167Y0094200D02*
X0283167Y0089400D01*
X0273167Y0089400D02*
X0273167Y0094200D01*
X0263167Y0094200D02*
X0263167Y0089400D01*
X0233167Y0089400D02*
X0233167Y0094200D01*
X0223167Y0094200D02*
X0223167Y0089400D01*
X0213167Y0089400D02*
X0213167Y0094200D01*
X0203167Y0094200D02*
X0203167Y0089400D01*
X0193167Y0089400D02*
X0193167Y0094200D01*
X0183167Y0094200D02*
X0183167Y0089400D01*
X0173167Y0089400D02*
X0173167Y0094200D01*
X0163167Y0094200D02*
X0163167Y0089400D01*
X0153167Y0089400D02*
X0153167Y0094200D01*
X0143167Y0094200D02*
X0143167Y0089400D01*
X0143167Y0109400D02*
X0143167Y0114200D01*
X0153167Y0114200D02*
X0153167Y0109400D01*
X0163167Y0109400D02*
X0163167Y0114200D01*
X0173167Y0114200D02*
X0173167Y0109400D01*
X0183167Y0109400D02*
X0183167Y0114200D01*
X0213167Y0114200D02*
X0213167Y0109400D01*
X0223167Y0109400D02*
X0223167Y0114200D01*
X0233167Y0114200D02*
X0233167Y0109400D01*
X0243167Y0109400D02*
X0243167Y0114200D01*
X0253167Y0114200D02*
X0253167Y0109400D01*
X0263167Y0109400D02*
X0263167Y0114200D01*
X0273167Y0114200D02*
X0273167Y0109400D01*
X0283167Y0109400D02*
X0283167Y0114200D01*
X0293167Y0114200D02*
X0293167Y0109400D01*
X0303167Y0109400D02*
X0303167Y0114200D01*
X0333167Y0114200D02*
X0333167Y0109400D01*
X0343167Y0109400D02*
X0343167Y0114200D01*
X0353167Y0114200D02*
X0353167Y0109400D01*
X0363167Y0109400D02*
X0363167Y0114200D01*
X0373167Y0114200D02*
X0373167Y0109400D01*
X0383167Y0109400D02*
X0383167Y0114200D01*
X0393167Y0114200D02*
X0393167Y0109400D01*
X0423167Y0109400D02*
X0423167Y0114200D01*
X0433167Y0114200D02*
X0433167Y0109400D01*
X0443167Y0109400D02*
X0443167Y0114200D01*
X0453167Y0114200D02*
X0453167Y0109400D01*
X0463167Y0109400D02*
X0463167Y0114200D01*
X0473167Y0114200D02*
X0473167Y0109400D01*
X0483167Y0109400D02*
X0483167Y0114200D01*
X0493167Y0114200D02*
X0493167Y0109400D01*
X0523167Y0109400D02*
X0523167Y0114200D01*
X0533167Y0114200D02*
X0533167Y0109400D01*
X0543167Y0109400D02*
X0543167Y0114200D01*
X0553167Y0114200D02*
X0553167Y0109400D01*
X0563167Y0109400D02*
X0563167Y0114200D01*
X0573167Y0114200D02*
X0573167Y0109400D01*
X0583167Y0109400D02*
X0583167Y0114200D01*
X0593167Y0114200D02*
X0593167Y0109400D01*
X0623167Y0109400D02*
X0623167Y0114200D01*
X0633167Y0114200D02*
X0633167Y0109400D01*
X0643167Y0109400D02*
X0643167Y0114200D01*
X0653167Y0114200D02*
X0653167Y0109400D01*
X0663167Y0109400D02*
X0663167Y0114200D01*
X0673167Y0114200D02*
X0673167Y0109400D01*
X0683167Y0109400D02*
X0683167Y0114200D01*
X0693167Y0114200D02*
X0693167Y0109400D01*
X0703167Y0109400D02*
X0703167Y0114200D01*
X0713167Y0114200D02*
X0713167Y0109400D01*
X0713167Y0139400D02*
X0713167Y0144200D01*
X0703167Y0144200D02*
X0703167Y0139400D01*
X0693167Y0139400D02*
X0693167Y0144200D01*
X0683167Y0144200D02*
X0683167Y0139400D01*
X0673167Y0139400D02*
X0673167Y0144200D01*
X0663167Y0144200D02*
X0663167Y0139400D01*
X0653167Y0139400D02*
X0653167Y0144200D01*
X0643167Y0144200D02*
X0643167Y0139400D01*
X0633167Y0139400D02*
X0633167Y0144200D01*
X0623167Y0144200D02*
X0623167Y0139400D01*
X0593167Y0139400D02*
X0593167Y0144200D01*
X0583167Y0144200D02*
X0583167Y0139400D01*
X0573167Y0139400D02*
X0573167Y0144200D01*
X0563167Y0144200D02*
X0563167Y0139400D01*
X0553167Y0139400D02*
X0553167Y0144200D01*
X0543167Y0144200D02*
X0543167Y0139400D01*
X0533167Y0139400D02*
X0533167Y0144200D01*
X0523167Y0144200D02*
X0523167Y0139400D01*
X0493167Y0139400D02*
X0493167Y0144200D01*
X0483167Y0144200D02*
X0483167Y0139400D01*
X0473167Y0139400D02*
X0473167Y0144200D01*
X0463167Y0144200D02*
X0463167Y0139400D01*
X0453167Y0139400D02*
X0453167Y0144200D01*
X0443167Y0144200D02*
X0443167Y0139400D01*
X0433167Y0139400D02*
X0433167Y0144200D01*
X0423167Y0144200D02*
X0423167Y0139400D01*
X0393167Y0139400D02*
X0393167Y0144200D01*
X0383167Y0144200D02*
X0383167Y0139400D01*
X0373167Y0139400D02*
X0373167Y0144200D01*
X0363167Y0144200D02*
X0363167Y0139400D01*
X0353167Y0139400D02*
X0353167Y0144200D01*
X0343167Y0144200D02*
X0343167Y0139400D01*
X0333167Y0139400D02*
X0333167Y0144200D01*
X0323167Y0159400D02*
X0323167Y0164200D01*
X0313167Y0164200D02*
X0313167Y0159400D01*
X0303167Y0159400D02*
X0303167Y0164200D01*
X0293167Y0164200D02*
X0293167Y0159400D01*
X0283167Y0159400D02*
X0283167Y0164200D01*
X0273167Y0164200D02*
X0273167Y0159400D01*
X0263167Y0159400D02*
X0263167Y0164200D01*
X0233167Y0164200D02*
X0233167Y0159400D01*
X0223167Y0159400D02*
X0223167Y0164200D01*
X0213167Y0164200D02*
X0213167Y0159400D01*
X0203167Y0159400D02*
X0203167Y0164200D01*
X0193167Y0164200D02*
X0193167Y0159400D01*
X0183167Y0159400D02*
X0183167Y0164200D01*
X0173167Y0164200D02*
X0173167Y0159400D01*
X0163167Y0159400D02*
X0163167Y0164200D01*
X0153167Y0164200D02*
X0153167Y0159400D01*
X0143167Y0159400D02*
X0143167Y0164200D01*
X0143167Y0144200D02*
X0143167Y0139400D01*
X0153167Y0139400D02*
X0153167Y0144200D01*
X0163167Y0144200D02*
X0163167Y0139400D01*
X0173167Y0139400D02*
X0173167Y0144200D01*
X0183167Y0144200D02*
X0183167Y0139400D01*
X0213167Y0139400D02*
X0213167Y0144200D01*
X0223167Y0144200D02*
X0223167Y0139400D01*
X0233167Y0139400D02*
X0233167Y0144200D01*
X0243167Y0144200D02*
X0243167Y0139400D01*
X0253167Y0139400D02*
X0253167Y0144200D01*
X0263167Y0144200D02*
X0263167Y0139400D01*
X0273167Y0139400D02*
X0273167Y0144200D01*
X0283167Y0144200D02*
X0283167Y0139400D01*
X0293167Y0139400D02*
X0293167Y0144200D01*
X0303167Y0144200D02*
X0303167Y0139400D01*
X0353167Y0159400D02*
X0353167Y0164200D01*
X0363167Y0164200D02*
X0363167Y0159400D01*
X0373167Y0159400D02*
X0373167Y0164200D01*
X0383167Y0164200D02*
X0383167Y0159400D01*
X0393167Y0159400D02*
X0393167Y0164200D01*
X0403167Y0164200D02*
X0403167Y0159400D01*
X0413167Y0159400D02*
X0413167Y0164200D01*
X0443167Y0164200D02*
X0443167Y0159400D01*
X0453167Y0159400D02*
X0453167Y0164200D01*
X0463167Y0164200D02*
X0463167Y0159400D01*
X0473167Y0159400D02*
X0473167Y0164200D01*
X0483167Y0164200D02*
X0483167Y0159400D01*
X0493167Y0159400D02*
X0493167Y0164200D01*
X0503167Y0164200D02*
X0503167Y0159400D01*
X0533167Y0159400D02*
X0533167Y0164200D01*
X0543167Y0164200D02*
X0543167Y0159400D01*
X0553167Y0159400D02*
X0553167Y0164200D01*
X0563167Y0164200D02*
X0563167Y0159400D01*
X0573167Y0159400D02*
X0573167Y0164200D01*
X0583167Y0164200D02*
X0583167Y0159400D01*
X0593167Y0159400D02*
X0593167Y0164200D01*
X0623167Y0164200D02*
X0623167Y0159400D01*
X0633167Y0159400D02*
X0633167Y0164200D01*
X0643167Y0164200D02*
X0643167Y0159400D01*
X0653167Y0159400D02*
X0653167Y0164200D01*
X0663167Y0164200D02*
X0663167Y0159400D01*
X0673167Y0159400D02*
X0673167Y0164200D01*
X0683167Y0164200D02*
X0683167Y0159400D01*
X0683167Y0189400D02*
X0683167Y0194200D01*
X0673167Y0194200D02*
X0673167Y0189400D01*
X0663167Y0189400D02*
X0663167Y0194200D01*
X0653167Y0194200D02*
X0653167Y0189400D01*
X0643167Y0189400D02*
X0643167Y0194200D01*
X0633167Y0194200D02*
X0633167Y0189400D01*
X0623167Y0189400D02*
X0623167Y0194200D01*
X0623167Y0209400D02*
X0623167Y0214200D01*
X0633167Y0214200D02*
X0633167Y0209400D01*
X0643167Y0209400D02*
X0643167Y0214200D01*
X0653167Y0214200D02*
X0653167Y0209400D01*
X0663167Y0209400D02*
X0663167Y0214200D01*
X0673167Y0214200D02*
X0673167Y0209400D01*
X0683167Y0209400D02*
X0683167Y0214200D01*
X0683167Y0239400D02*
X0683167Y0244200D01*
X0673167Y0244200D02*
X0673167Y0239400D01*
X0663167Y0239400D02*
X0663167Y0244200D01*
X0653167Y0244200D02*
X0653167Y0239400D01*
X0643167Y0239400D02*
X0643167Y0244200D01*
X0633167Y0244200D02*
X0633167Y0239400D01*
X0623167Y0239400D02*
X0623167Y0244200D01*
X0613167Y0244200D02*
X0613167Y0239400D01*
X0583167Y0239400D02*
X0583167Y0244200D01*
X0573167Y0244200D02*
X0573167Y0239400D01*
X0563167Y0239400D02*
X0563167Y0244200D01*
X0553167Y0244200D02*
X0553167Y0239400D01*
X0543167Y0239400D02*
X0543167Y0244200D01*
X0533167Y0244200D02*
X0533167Y0239400D01*
X0523167Y0239400D02*
X0523167Y0244200D01*
X0513167Y0244200D02*
X0513167Y0239400D01*
X0483167Y0239400D02*
X0483167Y0244200D01*
X0473167Y0244200D02*
X0473167Y0239400D01*
X0463167Y0239400D02*
X0463167Y0244200D01*
X0453167Y0244200D02*
X0453167Y0239400D01*
X0443167Y0239400D02*
X0443167Y0244200D01*
X0433167Y0244200D02*
X0433167Y0239400D01*
X0423167Y0239400D02*
X0423167Y0244200D01*
X0413167Y0244200D02*
X0413167Y0239400D01*
X0383167Y0239400D02*
X0383167Y0244200D01*
X0373167Y0244200D02*
X0373167Y0239400D01*
X0363167Y0239400D02*
X0363167Y0244200D01*
X0353167Y0244200D02*
X0353167Y0239400D01*
X0343167Y0239400D02*
X0343167Y0244200D01*
X0333167Y0244200D02*
X0333167Y0239400D01*
X0323167Y0239400D02*
X0323167Y0244200D01*
X0323167Y0259400D02*
X0323167Y0264200D01*
X0333167Y0264200D02*
X0333167Y0259400D01*
X0343167Y0259400D02*
X0343167Y0264200D01*
X0353167Y0264200D02*
X0353167Y0259400D01*
X0363167Y0259400D02*
X0363167Y0264200D01*
X0373167Y0264200D02*
X0373167Y0259400D01*
X0383167Y0259400D02*
X0383167Y0264200D01*
X0413167Y0264200D02*
X0413167Y0259400D01*
X0423167Y0259400D02*
X0423167Y0264200D01*
X0433167Y0264200D02*
X0433167Y0259400D01*
X0443167Y0259400D02*
X0443167Y0264200D01*
X0453167Y0264200D02*
X0453167Y0259400D01*
X0463167Y0259400D02*
X0463167Y0264200D01*
X0473167Y0264200D02*
X0473167Y0259400D01*
X0483167Y0259400D02*
X0483167Y0264200D01*
X0513167Y0264200D02*
X0513167Y0259400D01*
X0523167Y0259400D02*
X0523167Y0264200D01*
X0533167Y0264200D02*
X0533167Y0259400D01*
X0543167Y0259400D02*
X0543167Y0264200D01*
X0553167Y0264200D02*
X0553167Y0259400D01*
X0563167Y0259400D02*
X0563167Y0264200D01*
X0573167Y0264200D02*
X0573167Y0259400D01*
X0583167Y0259400D02*
X0583167Y0264200D01*
X0613167Y0264200D02*
X0613167Y0259400D01*
X0623167Y0259400D02*
X0623167Y0264200D01*
X0633167Y0264200D02*
X0633167Y0259400D01*
X0643167Y0259400D02*
X0643167Y0264200D01*
X0653167Y0264200D02*
X0653167Y0259400D01*
X0663167Y0259400D02*
X0663167Y0264200D01*
X0673167Y0264200D02*
X0673167Y0259400D01*
X0683167Y0259400D02*
X0683167Y0264200D01*
X0683167Y0289400D02*
X0683167Y0294200D01*
X0673167Y0294200D02*
X0673167Y0289400D01*
X0663167Y0289400D02*
X0663167Y0294200D01*
X0653167Y0294200D02*
X0653167Y0289400D01*
X0643167Y0289400D02*
X0643167Y0294200D01*
X0633167Y0294200D02*
X0633167Y0289400D01*
X0623167Y0289400D02*
X0623167Y0294200D01*
X0613167Y0294200D02*
X0613167Y0289400D01*
X0583167Y0289400D02*
X0583167Y0294200D01*
X0573167Y0294200D02*
X0573167Y0289400D01*
X0563167Y0289400D02*
X0563167Y0294200D01*
X0553167Y0294200D02*
X0553167Y0289400D01*
X0543167Y0289400D02*
X0543167Y0294200D01*
X0533167Y0294200D02*
X0533167Y0289400D01*
X0523167Y0289400D02*
X0523167Y0294200D01*
X0513167Y0294200D02*
X0513167Y0289400D01*
X0483167Y0289400D02*
X0483167Y0294200D01*
X0473167Y0294200D02*
X0473167Y0289400D01*
X0463167Y0289400D02*
X0463167Y0294200D01*
X0453167Y0294200D02*
X0453167Y0289400D01*
X0443167Y0289400D02*
X0443167Y0294200D01*
X0433167Y0294200D02*
X0433167Y0289400D01*
X0423167Y0289400D02*
X0423167Y0294200D01*
X0413167Y0294200D02*
X0413167Y0289400D01*
X0383167Y0289400D02*
X0383167Y0294200D01*
X0373167Y0294200D02*
X0373167Y0289400D01*
X0363167Y0289400D02*
X0363167Y0294200D01*
X0353167Y0294200D02*
X0353167Y0289400D01*
X0343167Y0289400D02*
X0343167Y0294200D01*
X0333167Y0294200D02*
X0333167Y0289400D01*
X0323167Y0289400D02*
X0323167Y0294200D01*
X0313167Y0294200D02*
X0313167Y0289400D01*
X0283167Y0289400D02*
X0283167Y0294200D01*
X0273167Y0294200D02*
X0273167Y0289400D01*
X0263167Y0289400D02*
X0263167Y0294200D01*
X0253167Y0294200D02*
X0253167Y0289400D01*
X0243167Y0289400D02*
X0243167Y0294200D01*
X0233167Y0294200D02*
X0233167Y0289400D01*
X0223167Y0289400D02*
X0223167Y0294200D01*
X0213167Y0294200D02*
X0213167Y0289400D01*
X0203167Y0289400D02*
X0203167Y0294200D01*
X0193167Y0294200D02*
X0193167Y0289400D01*
X0193167Y0264200D02*
X0193167Y0259400D01*
X0203167Y0259400D02*
X0203167Y0264200D01*
X0213167Y0264200D02*
X0213167Y0259400D01*
X0223167Y0259400D02*
X0223167Y0264200D01*
X0233167Y0264200D02*
X0233167Y0259400D01*
X0243167Y0259400D02*
X0243167Y0264200D01*
X0253167Y0264200D02*
X0253167Y0259400D01*
X0263167Y0259400D02*
X0263167Y0264200D01*
X0273167Y0264200D02*
X0273167Y0259400D01*
X0283167Y0259400D02*
X0283167Y0264200D01*
X0313167Y0264200D02*
X0313167Y0259400D01*
X0293167Y0244200D02*
X0293167Y0239400D01*
X0283167Y0239400D02*
X0283167Y0244200D01*
X0273167Y0244200D02*
X0273167Y0239400D01*
X0263167Y0239400D02*
X0263167Y0244200D01*
X0253167Y0244200D02*
X0253167Y0239400D01*
X0243167Y0239400D02*
X0243167Y0244200D01*
X0233167Y0244200D02*
X0233167Y0239400D01*
X0223167Y0239400D02*
X0223167Y0244200D01*
X0193167Y0244200D02*
X0193167Y0239400D01*
X0183167Y0239400D02*
X0183167Y0244200D01*
X0173167Y0244200D02*
X0173167Y0239400D01*
X0163167Y0239400D02*
X0163167Y0244200D01*
X0153167Y0244200D02*
X0153167Y0239400D01*
X0143167Y0239400D02*
X0143167Y0244200D01*
X0133167Y0244200D02*
X0133167Y0239400D01*
X0133167Y0214200D02*
X0133167Y0209400D01*
X0143167Y0209400D02*
X0143167Y0214200D01*
X0153167Y0214200D02*
X0153167Y0209400D01*
X0163167Y0209400D02*
X0163167Y0214200D01*
X0173167Y0214200D02*
X0173167Y0209400D01*
X0183167Y0209400D02*
X0183167Y0214200D01*
X0193167Y0214200D02*
X0193167Y0209400D01*
X0193167Y0194200D02*
X0193167Y0189400D01*
X0183167Y0189400D02*
X0183167Y0194200D01*
X0173167Y0194200D02*
X0173167Y0189400D01*
X0163167Y0189400D02*
X0163167Y0194200D01*
X0153167Y0194200D02*
X0153167Y0189400D01*
X0143167Y0189400D02*
X0143167Y0194200D01*
X0203167Y0194200D02*
X0203167Y0189400D01*
X0213167Y0189400D02*
X0213167Y0194200D01*
X0223167Y0194200D02*
X0223167Y0189400D01*
X0233167Y0189400D02*
X0233167Y0194200D01*
X0233167Y0209400D02*
X0233167Y0214200D01*
X0243167Y0214200D02*
X0243167Y0209400D01*
X0253167Y0209400D02*
X0253167Y0214200D01*
X0263167Y0214200D02*
X0263167Y0209400D01*
X0273167Y0209400D02*
X0273167Y0214200D01*
X0283167Y0214200D02*
X0283167Y0209400D01*
X0293167Y0209400D02*
X0293167Y0214200D01*
X0323167Y0214200D02*
X0323167Y0209400D01*
X0333167Y0209400D02*
X0333167Y0214200D01*
X0343167Y0214200D02*
X0343167Y0209400D01*
X0353167Y0209400D02*
X0353167Y0214200D01*
X0363167Y0214200D02*
X0363167Y0209400D01*
X0373167Y0209400D02*
X0373167Y0214200D01*
X0383167Y0214200D02*
X0383167Y0209400D01*
X0383167Y0194200D02*
X0383167Y0189400D01*
X0393167Y0189400D02*
X0393167Y0194200D01*
X0403167Y0194200D02*
X0403167Y0189400D01*
X0413167Y0189400D02*
X0413167Y0194200D01*
X0413167Y0209400D02*
X0413167Y0214200D01*
X0423167Y0214200D02*
X0423167Y0209400D01*
X0433167Y0209400D02*
X0433167Y0214200D01*
X0443167Y0214200D02*
X0443167Y0209400D01*
X0453167Y0209400D02*
X0453167Y0214200D01*
X0463167Y0214200D02*
X0463167Y0209400D01*
X0473167Y0209400D02*
X0473167Y0214200D01*
X0483167Y0214200D02*
X0483167Y0209400D01*
X0483167Y0194200D02*
X0483167Y0189400D01*
X0473167Y0189400D02*
X0473167Y0194200D01*
X0463167Y0194200D02*
X0463167Y0189400D01*
X0453167Y0189400D02*
X0453167Y0194200D01*
X0443167Y0194200D02*
X0443167Y0189400D01*
X0493167Y0189400D02*
X0493167Y0194200D01*
X0503167Y0194200D02*
X0503167Y0189400D01*
X0533167Y0189400D02*
X0533167Y0194200D01*
X0543167Y0194200D02*
X0543167Y0189400D01*
X0553167Y0189400D02*
X0553167Y0194200D01*
X0563167Y0194200D02*
X0563167Y0189400D01*
X0573167Y0189400D02*
X0573167Y0194200D01*
X0583167Y0194200D02*
X0583167Y0189400D01*
X0593167Y0189400D02*
X0593167Y0194200D01*
X0583167Y0209400D02*
X0583167Y0214200D01*
X0573167Y0214200D02*
X0573167Y0209400D01*
X0563167Y0209400D02*
X0563167Y0214200D01*
X0553167Y0214200D02*
X0553167Y0209400D01*
X0543167Y0209400D02*
X0543167Y0214200D01*
X0533167Y0214200D02*
X0533167Y0209400D01*
X0523167Y0209400D02*
X0523167Y0214200D01*
X0513167Y0214200D02*
X0513167Y0209400D01*
X0613167Y0209400D02*
X0613167Y0214200D01*
X0613167Y0309400D02*
X0613167Y0314200D01*
X0603167Y0314200D02*
X0603167Y0309400D01*
X0593167Y0309400D02*
X0593167Y0314200D01*
X0583167Y0314200D02*
X0583167Y0309400D01*
X0573167Y0309400D02*
X0573167Y0314200D01*
X0563167Y0314200D02*
X0563167Y0309400D01*
X0553167Y0309400D02*
X0553167Y0314200D01*
X0543167Y0314200D02*
X0543167Y0309400D01*
X0513167Y0309400D02*
X0513167Y0314200D01*
X0503167Y0314200D02*
X0503167Y0309400D01*
X0493167Y0309400D02*
X0493167Y0314200D01*
X0483167Y0314200D02*
X0483167Y0309400D01*
X0473167Y0309400D02*
X0473167Y0314200D01*
X0463167Y0314200D02*
X0463167Y0309400D01*
X0453167Y0309400D02*
X0453167Y0314200D01*
X0423167Y0314200D02*
X0423167Y0309400D01*
X0413167Y0309400D02*
X0413167Y0314200D01*
X0403167Y0314200D02*
X0403167Y0309400D01*
X0393167Y0309400D02*
X0393167Y0314200D01*
X0383167Y0314200D02*
X0383167Y0309400D01*
X0373167Y0309400D02*
X0373167Y0314200D01*
X0363167Y0314200D02*
X0363167Y0309400D01*
X0353167Y0309400D02*
X0353167Y0314200D01*
X0343167Y0314200D02*
X0343167Y0309400D01*
X0333167Y0309400D02*
X0333167Y0314200D01*
X0303167Y0314200D02*
X0303167Y0309400D01*
X0293167Y0309400D02*
X0293167Y0314200D01*
X0283167Y0314200D02*
X0283167Y0309400D01*
X0273167Y0309400D02*
X0273167Y0314200D01*
X0263167Y0314200D02*
X0263167Y0309400D01*
X0253167Y0309400D02*
X0253167Y0314200D01*
X0243167Y0314200D02*
X0243167Y0309400D01*
X0233167Y0309400D02*
X0233167Y0314200D01*
X0223167Y0314200D02*
X0223167Y0309400D01*
X0213167Y0309400D02*
X0213167Y0314200D01*
X0213167Y0339400D02*
X0213167Y0344200D01*
X0223167Y0344200D02*
X0223167Y0339400D01*
X0233167Y0339400D02*
X0233167Y0344200D01*
X0243167Y0344200D02*
X0243167Y0339400D01*
X0253167Y0339400D02*
X0253167Y0344200D01*
X0263167Y0344200D02*
X0263167Y0339400D01*
X0273167Y0339400D02*
X0273167Y0344200D01*
X0283167Y0344200D02*
X0283167Y0339400D01*
X0293167Y0339400D02*
X0293167Y0344200D01*
X0303167Y0344200D02*
X0303167Y0339400D01*
X0333167Y0339400D02*
X0333167Y0344200D01*
X0343167Y0344200D02*
X0343167Y0339400D01*
X0353167Y0339400D02*
X0353167Y0344200D01*
X0363167Y0344200D02*
X0363167Y0339400D01*
X0373167Y0339400D02*
X0373167Y0344200D01*
X0383167Y0344200D02*
X0383167Y0339400D01*
X0393167Y0339400D02*
X0393167Y0344200D01*
X0403167Y0344200D02*
X0403167Y0339400D01*
X0413167Y0339400D02*
X0413167Y0344200D01*
X0423167Y0344200D02*
X0423167Y0339400D01*
X0453167Y0339400D02*
X0453167Y0344200D01*
X0463167Y0344200D02*
X0463167Y0339400D01*
X0473167Y0339400D02*
X0473167Y0344200D01*
X0483167Y0344200D02*
X0483167Y0339400D01*
X0493167Y0339400D02*
X0493167Y0344200D01*
X0503167Y0344200D02*
X0503167Y0339400D01*
X0513167Y0339400D02*
X0513167Y0344200D01*
X0513167Y0359400D02*
X0513167Y0364200D01*
X0503167Y0364200D02*
X0503167Y0359400D01*
X0493167Y0359400D02*
X0493167Y0364200D01*
X0483167Y0364200D02*
X0483167Y0359400D01*
X0473167Y0359400D02*
X0473167Y0364200D01*
X0463167Y0364200D02*
X0463167Y0359400D01*
X0453167Y0359400D02*
X0453167Y0364200D01*
X0443167Y0364200D02*
X0443167Y0359400D01*
X0413167Y0359400D02*
X0413167Y0364200D01*
X0403167Y0364200D02*
X0403167Y0359400D01*
X0393167Y0359400D02*
X0393167Y0364200D01*
X0383167Y0364200D02*
X0383167Y0359400D01*
X0373167Y0359400D02*
X0373167Y0364200D01*
X0363167Y0364200D02*
X0363167Y0359400D01*
X0353167Y0359400D02*
X0353167Y0364200D01*
X0343167Y0364200D02*
X0343167Y0359400D01*
X0333167Y0359400D02*
X0333167Y0364200D01*
X0323167Y0364200D02*
X0323167Y0359400D01*
X0293167Y0359400D02*
X0293167Y0364200D01*
X0283167Y0364200D02*
X0283167Y0359400D01*
X0273167Y0359400D02*
X0273167Y0364200D01*
X0263167Y0364200D02*
X0263167Y0359400D01*
X0253167Y0359400D02*
X0253167Y0364200D01*
X0243167Y0364200D02*
X0243167Y0359400D01*
X0233167Y0359400D02*
X0233167Y0364200D01*
X0223167Y0364200D02*
X0223167Y0359400D01*
X0213167Y0359400D02*
X0213167Y0364200D01*
X0203167Y0364200D02*
X0203167Y0359400D01*
X0203167Y0389400D02*
X0203167Y0394200D01*
X0213167Y0394200D02*
X0213167Y0389400D01*
X0223167Y0389400D02*
X0223167Y0394200D01*
X0233167Y0394200D02*
X0233167Y0389400D01*
X0243167Y0389400D02*
X0243167Y0394200D01*
X0253167Y0394200D02*
X0253167Y0389400D01*
X0263167Y0389400D02*
X0263167Y0394200D01*
X0273167Y0394200D02*
X0273167Y0389400D01*
X0283167Y0389400D02*
X0283167Y0394200D01*
X0293167Y0394200D02*
X0293167Y0389400D01*
X0323167Y0389400D02*
X0323167Y0394200D01*
X0333167Y0394200D02*
X0333167Y0389400D01*
X0343167Y0389400D02*
X0343167Y0394200D01*
X0353167Y0394200D02*
X0353167Y0389400D01*
X0363167Y0389400D02*
X0363167Y0394200D01*
X0373167Y0394200D02*
X0373167Y0389400D01*
X0383167Y0389400D02*
X0383167Y0394200D01*
X0393167Y0394200D02*
X0393167Y0389400D01*
X0403167Y0389400D02*
X0403167Y0394200D01*
X0413167Y0394200D02*
X0413167Y0389400D01*
X0443167Y0389400D02*
X0443167Y0394200D01*
X0453167Y0394200D02*
X0453167Y0389400D01*
X0463167Y0389400D02*
X0463167Y0394200D01*
X0473167Y0394200D02*
X0473167Y0389400D01*
X0483167Y0389400D02*
X0483167Y0394200D01*
X0493167Y0394200D02*
X0493167Y0389400D01*
X0503167Y0389400D02*
X0503167Y0394200D01*
X0513167Y0394200D02*
X0513167Y0389400D01*
X0523167Y0389400D02*
X0523167Y0394200D01*
X0533167Y0394200D02*
X0533167Y0389400D01*
X0563167Y0389400D02*
X0563167Y0394200D01*
X0573167Y0394200D02*
X0573167Y0389400D01*
X0583167Y0389400D02*
X0583167Y0394200D01*
X0593167Y0394200D02*
X0593167Y0389400D01*
X0603167Y0389400D02*
X0603167Y0394200D01*
X0613167Y0394200D02*
X0613167Y0389400D01*
X0623167Y0389400D02*
X0623167Y0394200D01*
X0623167Y0409400D02*
X0623167Y0414200D01*
X0633167Y0414200D02*
X0633167Y0409400D01*
X0643167Y0409400D02*
X0643167Y0414200D01*
X0653167Y0414200D02*
X0653167Y0409400D01*
X0663167Y0409400D02*
X0663167Y0414200D01*
X0673167Y0414200D02*
X0673167Y0409400D01*
X0683167Y0409400D02*
X0683167Y0414200D01*
X0693167Y0414200D02*
X0693167Y0409400D01*
X0693167Y0394200D02*
X0693167Y0389400D01*
X0703167Y0389400D02*
X0703167Y0394200D01*
X0713167Y0394200D02*
X0713167Y0389400D01*
X0683167Y0389400D02*
X0683167Y0394200D01*
X0673167Y0394200D02*
X0673167Y0389400D01*
X0663167Y0389400D02*
X0663167Y0394200D01*
X0653167Y0394200D02*
X0653167Y0389400D01*
X0653167Y0364200D02*
X0653167Y0359400D01*
X0663167Y0359400D02*
X0663167Y0364200D01*
X0673167Y0364200D02*
X0673167Y0359400D01*
X0683167Y0359400D02*
X0683167Y0364200D01*
X0693167Y0364200D02*
X0693167Y0359400D01*
X0703167Y0359400D02*
X0703167Y0364200D01*
X0713167Y0364200D02*
X0713167Y0359400D01*
X0713167Y0344200D02*
X0713167Y0339400D01*
X0703167Y0339400D02*
X0703167Y0344200D01*
X0693167Y0344200D02*
X0693167Y0339400D01*
X0683167Y0339400D02*
X0683167Y0344200D01*
X0673167Y0344200D02*
X0673167Y0339400D01*
X0663167Y0339400D02*
X0663167Y0344200D01*
X0653167Y0344200D02*
X0653167Y0339400D01*
X0643167Y0339400D02*
X0643167Y0344200D01*
X0623167Y0359400D02*
X0623167Y0364200D01*
X0613167Y0364200D02*
X0613167Y0359400D01*
X0603167Y0359400D02*
X0603167Y0364200D01*
X0593167Y0364200D02*
X0593167Y0359400D01*
X0583167Y0359400D02*
X0583167Y0364200D01*
X0573167Y0364200D02*
X0573167Y0359400D01*
X0563167Y0359400D02*
X0563167Y0364200D01*
X0533167Y0364200D02*
X0533167Y0359400D01*
X0523167Y0359400D02*
X0523167Y0364200D01*
X0543167Y0344200D02*
X0543167Y0339400D01*
X0553167Y0339400D02*
X0553167Y0344200D01*
X0563167Y0344200D02*
X0563167Y0339400D01*
X0573167Y0339400D02*
X0573167Y0344200D01*
X0583167Y0344200D02*
X0583167Y0339400D01*
X0593167Y0339400D02*
X0593167Y0344200D01*
X0603167Y0344200D02*
X0603167Y0339400D01*
X0613167Y0339400D02*
X0613167Y0344200D01*
X0643167Y0314200D02*
X0643167Y0309400D01*
X0653167Y0309400D02*
X0653167Y0314200D01*
X0663167Y0314200D02*
X0663167Y0309400D01*
X0673167Y0309400D02*
X0673167Y0314200D01*
X0683167Y0314200D02*
X0683167Y0309400D01*
X0693167Y0309400D02*
X0693167Y0314200D01*
X0703167Y0314200D02*
X0703167Y0309400D01*
X0713167Y0309400D02*
X0713167Y0314200D01*
X0593167Y0409400D02*
X0593167Y0414200D01*
X0583167Y0414200D02*
X0583167Y0409400D01*
X0573167Y0409400D02*
X0573167Y0414200D01*
X0563167Y0414200D02*
X0563167Y0409400D01*
X0553167Y0409400D02*
X0553167Y0414200D01*
X0543167Y0414200D02*
X0543167Y0409400D01*
X0533167Y0409400D02*
X0533167Y0414200D01*
X0523167Y0414200D02*
X0523167Y0409400D01*
X0513167Y0409400D02*
X0513167Y0414200D01*
X0503167Y0414200D02*
X0503167Y0409400D01*
X0473167Y0409400D02*
X0473167Y0414200D01*
X0463167Y0414200D02*
X0463167Y0409400D01*
X0453167Y0409400D02*
X0453167Y0414200D01*
X0443167Y0414200D02*
X0443167Y0409400D01*
X0433167Y0409400D02*
X0433167Y0414200D01*
X0423167Y0414200D02*
X0423167Y0409400D01*
X0413167Y0409400D02*
X0413167Y0414200D01*
X0403167Y0414200D02*
X0403167Y0409400D01*
X0403167Y0439400D02*
X0403167Y0444200D01*
X0413167Y0444200D02*
X0413167Y0439400D01*
X0423167Y0439400D02*
X0423167Y0444200D01*
X0433167Y0444200D02*
X0433167Y0439400D01*
X0443167Y0439400D02*
X0443167Y0444200D01*
X0453167Y0444200D02*
X0453167Y0439400D01*
X0463167Y0439400D02*
X0463167Y0444200D01*
X0473167Y0444200D02*
X0473167Y0439400D01*
X0503167Y0439400D02*
X0503167Y0444200D01*
X0513167Y0444200D02*
X0513167Y0439400D01*
X0523167Y0439400D02*
X0523167Y0444200D01*
X0533167Y0444200D02*
X0533167Y0439400D01*
X0543167Y0439400D02*
X0543167Y0444200D01*
X0553167Y0444200D02*
X0553167Y0439400D01*
X0563167Y0439400D02*
X0563167Y0444200D01*
X0573167Y0444200D02*
X0573167Y0439400D01*
X0583167Y0439400D02*
X0583167Y0444200D01*
X0593167Y0444200D02*
X0593167Y0439400D01*
X0623167Y0439400D02*
X0623167Y0444200D01*
X0633167Y0444200D02*
X0633167Y0439400D01*
X0643167Y0439400D02*
X0643167Y0444200D01*
X0653167Y0444200D02*
X0653167Y0439400D01*
X0663167Y0439400D02*
X0663167Y0444200D01*
X0673167Y0444200D02*
X0673167Y0439400D01*
X0683167Y0439400D02*
X0683167Y0444200D01*
X0693167Y0444200D02*
X0693167Y0439400D01*
X0373167Y0194200D02*
X0373167Y0189400D01*
X0363167Y0189400D02*
X0363167Y0194200D01*
X0353167Y0194200D02*
X0353167Y0189400D01*
X0323167Y0189400D02*
X0323167Y0194200D01*
X0313167Y0194200D02*
X0313167Y0189400D01*
X0303167Y0189400D02*
X0303167Y0194200D01*
X0293167Y0194200D02*
X0293167Y0189400D01*
X0283167Y0189400D02*
X0283167Y0194200D01*
X0273167Y0194200D02*
X0273167Y0189400D01*
X0263167Y0189400D02*
X0263167Y0194200D01*
X0223167Y0209400D02*
X0223167Y0214200D01*
X0133167Y0144200D02*
X0133167Y0139400D01*
X0123167Y0139400D02*
X0123167Y0144200D01*
X0123167Y0114200D02*
X0123167Y0109400D01*
X0133167Y0109400D02*
X0133167Y0114200D01*
X0273167Y0044200D02*
X0273167Y0039400D01*
X0283167Y0039400D02*
X0283167Y0044200D01*
X0293167Y0044200D02*
X0293167Y0039400D01*
X0303167Y0039400D02*
X0303167Y0044200D01*
X0313167Y0044200D02*
X0313167Y0039400D01*
X0323167Y0039400D02*
X0323167Y0044200D01*
X0333167Y0044200D02*
X0333167Y0039400D01*
X0333167Y0014200D02*
X0333167Y0009400D01*
X0323167Y0009400D02*
X0323167Y0014200D01*
X0313167Y0014200D02*
X0313167Y0009400D01*
X0303167Y0009400D02*
X0303167Y0014200D01*
X0293167Y0014200D02*
X0293167Y0009400D01*
X0283167Y0009400D02*
X0283167Y0014200D01*
X0273167Y0014200D02*
X0273167Y0009400D01*
X0363167Y0009400D02*
X0363167Y0014200D01*
X0373167Y0014200D02*
X0373167Y0009400D01*
X0383167Y0009400D02*
X0383167Y0014200D01*
X0393167Y0014200D02*
X0393167Y0009400D01*
X0403167Y0009400D02*
X0403167Y0014200D01*
X0413167Y0014200D02*
X0413167Y0009400D01*
X0423167Y0009400D02*
X0423167Y0014200D01*
X0453167Y0014200D02*
X0453167Y0009400D01*
X0463167Y0009400D02*
X0463167Y0014200D01*
X0473167Y0014200D02*
X0473167Y0009400D01*
X0483167Y0009400D02*
X0483167Y0014200D01*
X0493167Y0014200D02*
X0493167Y0009400D01*
X0503167Y0009400D02*
X0503167Y0014200D01*
X0513167Y0014200D02*
X0513167Y0009400D01*
X0473167Y0059400D02*
X0473167Y0064200D01*
X0463167Y0064200D02*
X0463167Y0059400D01*
X0453167Y0059400D02*
X0453167Y0064200D01*
X0443167Y0064200D02*
X0443167Y0059400D01*
X0433167Y0059400D02*
X0433167Y0064200D01*
X0423167Y0064200D02*
X0423167Y0059400D01*
X0413167Y0059400D02*
X0413167Y0064200D01*
X0403167Y0064200D02*
X0403167Y0059400D01*
X0393167Y0059400D02*
X0393167Y0064200D01*
X0383167Y0064200D02*
X0383167Y0059400D01*
X0263167Y0409400D02*
X0263167Y0414200D01*
X0253167Y0414200D02*
X0253167Y0409400D01*
X0243167Y0409400D02*
X0243167Y0414200D01*
X0233167Y0414200D02*
X0233167Y0409400D01*
X0223167Y0409400D02*
X0223167Y0414200D01*
X0213167Y0414200D02*
X0213167Y0409400D01*
X0203167Y0409400D02*
X0203167Y0414200D01*
X0193167Y0414200D02*
X0193167Y0409400D01*
X0183167Y0409400D02*
X0183167Y0414200D01*
X0168167Y0414200D02*
X0168167Y0409400D01*
X0158167Y0409400D02*
X0158167Y0414200D01*
X0148167Y0414200D02*
X0148167Y0409400D01*
X0138167Y0409400D02*
X0138167Y0414200D01*
X0128167Y0414200D02*
X0128167Y0409400D01*
X0118167Y0409400D02*
X0118167Y0414200D01*
X0108167Y0414200D02*
X0108167Y0409400D01*
X0098167Y0409400D02*
X0098167Y0414200D01*
X0088167Y0414200D02*
X0088167Y0409400D01*
D11*
X0193167Y0381800D03*
X0193167Y0371800D03*
X0203167Y0331800D03*
X0203167Y0321800D03*
X0183167Y0281800D03*
X0183167Y0271800D03*
X0213167Y0231800D03*
X0213167Y0221800D03*
X0253167Y0181800D03*
X0253167Y0171800D03*
X0203167Y0131800D03*
X0203167Y0121800D03*
X0253167Y0081800D03*
X0253167Y0071800D03*
X0263167Y0031800D03*
X0263167Y0021800D03*
X0353167Y0021800D03*
X0353167Y0031800D03*
X0373167Y0071800D03*
X0373167Y0081800D03*
X0413167Y0121800D03*
X0413167Y0131800D03*
X0433167Y0171800D03*
X0433167Y0181800D03*
X0403167Y0221800D03*
X0403167Y0231800D03*
X0403167Y0271800D03*
X0403167Y0281800D03*
X0443167Y0321800D03*
X0443167Y0331800D03*
X0433167Y0371800D03*
X0433167Y0381800D03*
X0393167Y0421800D03*
X0393167Y0431800D03*
X0313167Y0381800D03*
X0313167Y0371800D03*
X0323167Y0331800D03*
X0323167Y0321800D03*
X0303167Y0281800D03*
X0303167Y0271800D03*
X0313167Y0231800D03*
X0313167Y0221800D03*
X0343167Y0181800D03*
X0343167Y0171800D03*
X0323167Y0131800D03*
X0323167Y0121800D03*
X0443167Y0031800D03*
X0443167Y0021800D03*
X0493167Y0071800D03*
X0493167Y0081800D03*
X0513167Y0121800D03*
X0513167Y0131800D03*
X0523167Y0171800D03*
X0523167Y0181800D03*
X0503167Y0221800D03*
X0503167Y0231800D03*
X0503167Y0271800D03*
X0503167Y0281800D03*
X0533167Y0321800D03*
X0533167Y0331800D03*
X0553167Y0371800D03*
X0553167Y0381800D03*
X0613167Y0421800D03*
X0613167Y0431800D03*
X0643167Y0381800D03*
X0643167Y0371800D03*
X0633167Y0331800D03*
X0633167Y0321800D03*
X0603167Y0281800D03*
X0603167Y0271800D03*
X0603167Y0231800D03*
X0603167Y0221800D03*
X0613167Y0181800D03*
X0613167Y0171800D03*
X0613167Y0131800D03*
X0613167Y0121800D03*
X0613167Y0081800D03*
X0613167Y0071800D03*
X0623167Y0031800D03*
X0623167Y0021800D03*
X0533167Y0021800D03*
X0533167Y0031800D03*
X0723167Y0016800D03*
X0733167Y0016800D03*
X0728167Y0036800D03*
X0728167Y0076800D03*
X0493167Y0421800D03*
X0493167Y0431800D03*
X0123167Y0231800D03*
X0123167Y0221800D03*
X0133167Y0181800D03*
X0133167Y0171800D03*
X0113167Y0131800D03*
X0113167Y0121800D03*
X0133167Y0081800D03*
X0133167Y0071800D03*
D12*
X0083167Y0071800D03*
X0073167Y0071800D03*
X0063167Y0071800D03*
X0063167Y0081800D03*
X0073167Y0081800D03*
X0083167Y0081800D03*
X0083167Y0091800D03*
X0083167Y0101800D03*
X0083167Y0111800D03*
X0083167Y0121800D03*
X0073167Y0121800D03*
X0063167Y0121800D03*
X0063167Y0111800D03*
X0073167Y0111800D03*
X0073167Y0101800D03*
X0063167Y0101800D03*
X0063167Y0091800D03*
X0073167Y0091800D03*
X0073167Y0131800D03*
X0063167Y0131800D03*
X0063167Y0141800D03*
X0073167Y0141800D03*
X0083167Y0141800D03*
X0083167Y0131800D03*
X0083167Y0151800D03*
X0083167Y0161800D03*
X0083167Y0171800D03*
X0073167Y0171800D03*
X0063167Y0171800D03*
X0063167Y0161800D03*
X0073167Y0161800D03*
X0073167Y0151800D03*
X0063167Y0151800D03*
X0063167Y0181800D03*
X0073167Y0181800D03*
X0083167Y0181800D03*
X0083167Y0191800D03*
X0083167Y0201800D03*
X0083167Y0211800D03*
X0083167Y0221800D03*
X0073167Y0221800D03*
X0063167Y0221800D03*
X0063167Y0211800D03*
X0073167Y0211800D03*
X0073167Y0201800D03*
X0063167Y0201800D03*
X0063167Y0191800D03*
X0073167Y0191800D03*
X0073167Y0231800D03*
X0063167Y0231800D03*
X0063167Y0241800D03*
X0073167Y0241800D03*
X0083167Y0241800D03*
X0083167Y0231800D03*
X0083167Y0251800D03*
X0083167Y0261800D03*
X0083167Y0271800D03*
X0073167Y0271800D03*
X0063167Y0271800D03*
X0063167Y0261800D03*
X0073167Y0261800D03*
X0073167Y0251800D03*
X0063167Y0251800D03*
X0063167Y0281800D03*
X0073167Y0281800D03*
X0083167Y0281800D03*
X0083167Y0291800D03*
X0083167Y0301800D03*
X0083167Y0311800D03*
X0083167Y0321800D03*
X0073167Y0321800D03*
X0063167Y0321800D03*
X0063167Y0311800D03*
X0073167Y0311800D03*
X0073167Y0301800D03*
X0063167Y0301800D03*
X0063167Y0291800D03*
X0073167Y0291800D03*
X0073167Y0331800D03*
X0063167Y0331800D03*
X0063167Y0341800D03*
X0073167Y0341800D03*
X0083167Y0341800D03*
X0083167Y0331800D03*
X0083167Y0351800D03*
X0083167Y0361800D03*
X0083167Y0371800D03*
X0073167Y0371800D03*
X0063167Y0371800D03*
X0063167Y0361800D03*
X0073167Y0361800D03*
X0073167Y0351800D03*
X0063167Y0351800D03*
X0063167Y0381800D03*
X0073167Y0381800D03*
X0083167Y0381800D03*
X0713167Y0251800D03*
X0723167Y0251800D03*
X0723167Y0241800D03*
X0723167Y0231800D03*
X0713167Y0231800D03*
X0713167Y0241800D03*
X0713167Y0221800D03*
X0723167Y0221800D03*
X0723167Y0211800D03*
X0713167Y0211800D03*
D13*
X0053167Y0051775D03*
X0053167Y0401825D03*
D14*
X0074417Y0420550D03*
X0145667Y0401800D03*
X0168167Y0405550D03*
X0216917Y0405550D03*
X0246917Y0401800D03*
X0253167Y0400550D03*
X0256917Y0401800D03*
X0275667Y0401800D03*
X0298167Y0406800D03*
X0303167Y0401800D03*
X0296917Y0386800D03*
X0281917Y0380550D03*
X0274417Y0378050D03*
X0264417Y0378050D03*
X0254417Y0370550D03*
X0226917Y0375550D03*
X0214417Y0350550D03*
X0196917Y0348050D03*
X0234417Y0320550D03*
X0250667Y0329300D03*
X0249417Y0333050D03*
X0264417Y0325550D03*
X0275667Y0331800D03*
X0306917Y0350550D03*
X0326917Y0350550D03*
X0329417Y0353050D03*
X0345667Y0348050D03*
X0348167Y0353050D03*
X0353167Y0353050D03*
X0365667Y0371800D03*
X0373167Y0376800D03*
X0378167Y0379300D03*
X0345667Y0381800D03*
X0316917Y0384300D03*
X0296917Y0370550D03*
X0284417Y0371800D03*
X0348167Y0411800D03*
X0359417Y0409300D03*
X0379417Y0404300D03*
X0399417Y0406800D03*
X0411917Y0405550D03*
X0431917Y0399300D03*
X0439417Y0383050D03*
X0444417Y0380550D03*
X0458167Y0370550D03*
X0469417Y0379300D03*
X0466917Y0386800D03*
X0475667Y0399300D03*
X0498167Y0401800D03*
X0525667Y0420550D03*
X0515667Y0426800D03*
X0515667Y0433050D03*
X0534417Y0433050D03*
X0558167Y0406800D03*
X0543167Y0401800D03*
X0511917Y0373050D03*
X0508167Y0374300D03*
X0530667Y0354300D03*
X0540667Y0366800D03*
X0545667Y0364300D03*
X0566917Y0353050D03*
X0579417Y0346800D03*
X0543167Y0331800D03*
X0523167Y0326800D03*
X0519417Y0328050D03*
X0506917Y0323050D03*
X0494417Y0321800D03*
X0490667Y0320550D03*
X0485667Y0333050D03*
X0466917Y0318050D03*
X0449417Y0320550D03*
X0430667Y0320550D03*
X0406917Y0326800D03*
X0395667Y0329300D03*
X0385667Y0333050D03*
X0379417Y0328050D03*
X0369417Y0323050D03*
X0360667Y0325550D03*
X0351917Y0330550D03*
X0345667Y0320550D03*
X0345667Y0301800D03*
X0360667Y0303050D03*
X0365667Y0300550D03*
X0385667Y0300550D03*
X0388167Y0298050D03*
X0409417Y0286800D03*
X0395667Y0281800D03*
X0395667Y0273050D03*
X0395667Y0265550D03*
X0406917Y0263050D03*
X0424417Y0253050D03*
X0426917Y0250550D03*
X0443167Y0251800D03*
X0468167Y0246800D03*
X0470667Y0250550D03*
X0475667Y0250550D03*
X0488167Y0253050D03*
X0496917Y0264300D03*
X0461917Y0281800D03*
X0454417Y0279300D03*
X0444417Y0279300D03*
X0441917Y0279300D03*
X0438167Y0279300D03*
X0450667Y0270550D03*
X0416917Y0280550D03*
X0435667Y0301800D03*
X0440667Y0301800D03*
X0458167Y0300550D03*
X0469417Y0306800D03*
X0485667Y0300550D03*
X0485667Y0298050D03*
X0501917Y0296800D03*
X0516917Y0286800D03*
X0530667Y0276800D03*
X0560667Y0298050D03*
X0540667Y0304300D03*
X0530667Y0304300D03*
X0551917Y0320550D03*
X0620667Y0303050D03*
X0626917Y0320550D03*
X0620667Y0348050D03*
X0610667Y0378050D03*
X0660667Y0400550D03*
X0598167Y0415550D03*
X0478167Y0423050D03*
X0463167Y0431800D03*
X0459417Y0433050D03*
X0398167Y0430550D03*
X0394417Y0440550D03*
X0358167Y0423050D03*
X0354417Y0423050D03*
X0344417Y0423050D03*
X0339417Y0420550D03*
X0416917Y0385550D03*
X0415667Y0376800D03*
X0425667Y0355550D03*
X0416917Y0346800D03*
X0430667Y0338050D03*
X0476917Y0371800D03*
X0364417Y0276800D03*
X0354417Y0276800D03*
X0344417Y0276800D03*
X0324417Y0270550D03*
X0299417Y0279300D03*
X0273167Y0283050D03*
X0265667Y0276800D03*
X0265667Y0268050D03*
X0261917Y0268050D03*
X0251917Y0279300D03*
X0224417Y0273050D03*
X0216917Y0284300D03*
X0218167Y0298050D03*
X0221917Y0300550D03*
X0240667Y0301800D03*
X0245667Y0301800D03*
X0251917Y0301800D03*
X0269417Y0301800D03*
X0276917Y0303050D03*
X0290667Y0258050D03*
X0275667Y0250550D03*
X0259417Y0253050D03*
X0255667Y0255550D03*
X0241917Y0250550D03*
X0229417Y0246800D03*
X0226917Y0233050D03*
X0226917Y0229300D03*
X0241917Y0220550D03*
X0250667Y0218050D03*
X0261917Y0225550D03*
X0254417Y0231800D03*
X0255667Y0235550D03*
X0293167Y0226800D03*
X0306917Y0224300D03*
X0305667Y0220550D03*
X0325667Y0221800D03*
X0335667Y0233050D03*
X0349417Y0226800D03*
X0369417Y0236800D03*
X0379417Y0246800D03*
X0366917Y0250550D03*
X0360667Y0255550D03*
X0335667Y0251800D03*
X0409417Y0226800D03*
X0418167Y0221800D03*
X0438167Y0226800D03*
X0439417Y0223050D03*
X0445667Y0233050D03*
X0429417Y0233050D03*
X0460667Y0224300D03*
X0490667Y0233050D03*
X0495667Y0233050D03*
X0524417Y0224300D03*
X0548167Y0205550D03*
X0555667Y0205550D03*
X0563167Y0221800D03*
X0570667Y0220550D03*
X0568167Y0226800D03*
X0576917Y0235550D03*
X0589417Y0235550D03*
X0596917Y0234300D03*
X0595667Y0229300D03*
X0564417Y0253050D03*
X0539417Y0248050D03*
X0525667Y0203050D03*
X0558167Y0174300D03*
X0564417Y0174300D03*
X0578167Y0179300D03*
X0581917Y0169300D03*
X0574417Y0154300D03*
X0601917Y0154300D03*
X0609417Y0151800D03*
X0630667Y0150550D03*
X0645667Y0168050D03*
X0650667Y0174300D03*
X0653167Y0176800D03*
X0669417Y0171800D03*
X0629417Y0180550D03*
X0609417Y0195550D03*
X0650667Y0229300D03*
X0655667Y0226800D03*
X0664417Y0235550D03*
X0696917Y0250550D03*
X0685667Y0255550D03*
X0708167Y0253050D03*
X0678167Y0301800D03*
X0675667Y0326800D03*
X0480667Y0203050D03*
X0471917Y0201800D03*
X0456917Y0196800D03*
X0425667Y0188050D03*
X0420667Y0183050D03*
X0425667Y0174300D03*
X0408167Y0183050D03*
X0401917Y0179300D03*
X0389417Y0176800D03*
X0373167Y0171800D03*
X0361917Y0180550D03*
X0361917Y0185550D03*
X0338167Y0183050D03*
X0334417Y0171800D03*
X0324417Y0150550D03*
X0319417Y0145550D03*
X0306917Y0131800D03*
X0298167Y0124300D03*
X0275667Y0120550D03*
X0274417Y0100550D03*
X0249417Y0101800D03*
X0234417Y0101800D03*
X0224417Y0105550D03*
X0215667Y0118050D03*
X0211917Y0126800D03*
X0236917Y0124300D03*
X0246917Y0131800D03*
X0220667Y0148050D03*
X0211917Y0150550D03*
X0245667Y0169300D03*
X0226917Y0185550D03*
X0244417Y0195550D03*
X0236917Y0201800D03*
X0221917Y0203050D03*
X0210667Y0204300D03*
X0259417Y0205550D03*
X0289417Y0196800D03*
X0300667Y0206800D03*
X0333167Y0198050D03*
X0334417Y0201800D03*
X0285667Y0176800D03*
X0280667Y0179300D03*
X0269417Y0181800D03*
X0284417Y0168050D03*
X0274417Y0150550D03*
X0328167Y0109300D03*
X0356917Y0131800D03*
X0369417Y0124300D03*
X0400667Y0100550D03*
X0408167Y0100550D03*
X0431917Y0103050D03*
X0446917Y0103050D03*
X0438167Y0118050D03*
X0440667Y0129300D03*
X0440667Y0135550D03*
X0453167Y0124300D03*
X0473167Y0121800D03*
X0485667Y0126800D03*
X0490667Y0129300D03*
X0491917Y0120550D03*
X0521917Y0101800D03*
X0530667Y0101800D03*
X0524417Y0083050D03*
X0516917Y0080550D03*
X0524417Y0074300D03*
X0551917Y0080550D03*
X0571917Y0076800D03*
X0581917Y0080550D03*
X0599417Y0065550D03*
X0596917Y0053050D03*
X0575667Y0050550D03*
X0570667Y0051800D03*
X0563167Y0051800D03*
X0560667Y0053050D03*
X0558167Y0045550D03*
X0551917Y0053050D03*
X0531917Y0045550D03*
X0525667Y0031800D03*
X0536917Y0024300D03*
X0548167Y0009300D03*
X0528167Y0005550D03*
X0498167Y0009300D03*
X0496917Y0026800D03*
X0475667Y0031800D03*
X0459417Y0025550D03*
X0473167Y0021800D03*
X0430667Y0034300D03*
X0409417Y0028050D03*
X0393167Y0031800D03*
X0393167Y0051800D03*
X0401917Y0050550D03*
X0406917Y0071800D03*
X0438167Y0081800D03*
X0441917Y0073050D03*
X0470667Y0076800D03*
X0480667Y0073050D03*
X0483167Y0078050D03*
X0480667Y0084300D03*
X0466917Y0054300D03*
X0439417Y0053050D03*
X0358167Y0058050D03*
X0356917Y0034300D03*
X0316917Y0033050D03*
X0316917Y0053050D03*
X0319417Y0070550D03*
X0318167Y0078050D03*
X0318167Y0080550D03*
X0350667Y0081800D03*
X0280667Y0051800D03*
X0260667Y0050550D03*
X0266917Y0034300D03*
X0226917Y0050550D03*
X0224417Y0050550D03*
X0204417Y0050550D03*
X0214417Y0080550D03*
X0189417Y0100550D03*
X0190667Y0105550D03*
X0195667Y0108050D03*
X0165667Y0120550D03*
X0150667Y0120550D03*
X0138167Y0096800D03*
X0060667Y0165550D03*
X0129417Y0174300D03*
X0160667Y0184300D03*
X0168167Y0179300D03*
X0193167Y0176800D03*
X0193167Y0174300D03*
X0150667Y0219300D03*
X0144417Y0219300D03*
X0166917Y0246800D03*
X0185667Y0251800D03*
X0166917Y0265550D03*
X0178167Y0270550D03*
X0200667Y0273050D03*
X0156917Y0294300D03*
X0190667Y0301800D03*
X0198167Y0301800D03*
X0148167Y0261800D03*
X0111917Y0254300D03*
X0110667Y0268050D03*
X0111917Y0289300D03*
X0091917Y0315550D03*
X0111917Y0343050D03*
X0069417Y0354300D03*
X0351917Y0153050D03*
X0431917Y0150550D03*
X0440667Y0148050D03*
X0443167Y0155550D03*
X0454417Y0171800D03*
X0456917Y0174300D03*
X0465667Y0174300D03*
X0471917Y0176800D03*
X0464417Y0150550D03*
X0531917Y0151800D03*
X0539417Y0156800D03*
X0548167Y0151800D03*
X0548167Y0170550D03*
X0536917Y0133050D03*
X0555667Y0131800D03*
X0585667Y0126800D03*
X0601917Y0124300D03*
X0609417Y0125550D03*
X0589417Y0103050D03*
X0565667Y0101800D03*
X0620667Y0070550D03*
X0639417Y0076800D03*
X0641917Y0083050D03*
X0669417Y0096800D03*
X0648167Y0100550D03*
X0660667Y0128050D03*
X0670667Y0074300D03*
X0675667Y0048050D03*
X0570667Y0026800D03*
X0570667Y0021800D03*
X0560667Y0031800D03*
X0366917Y0005550D03*
M02*
