G04 EAGLE Gerber RS-274X export*
G75*
%MOMM*%
%FSLAX34Y34*%
%LPD*%
%INBottom Copper*%
%IPPOS*%
%AMOC8*
5,1,8,0,0,1.08239X$1,22.5*%
G01*
%ADD10P,1.649562X8X202.500000*%
%ADD11P,1.319650X8X202.500000*%
%ADD12C,1.219200*%
%ADD13P,1.814519X8X112.500000*%
%ADD14C,1.524000*%
%ADD15C,0.152400*%
%ADD16C,0.457200*%


D10*
X50800Y177800D03*
X50800Y203200D03*
X50800Y228600D03*
X50800Y254000D03*
X50800Y279400D03*
X50800Y304800D03*
X50800Y330200D03*
X50800Y355600D03*
X50800Y381000D03*
X50800Y406400D03*
X50800Y431800D03*
X50800Y457200D03*
X50800Y482600D03*
X50800Y508000D03*
X50800Y533400D03*
X50800Y558800D03*
X76200Y177800D03*
X76200Y203200D03*
X76200Y228600D03*
X76200Y254000D03*
X76200Y279400D03*
X76200Y304800D03*
X76200Y330200D03*
X76200Y355600D03*
X76200Y381000D03*
X76200Y406400D03*
X76200Y431800D03*
X76200Y457200D03*
X76200Y482600D03*
X76200Y508000D03*
X76200Y533400D03*
X76200Y558800D03*
X101600Y177800D03*
X101600Y203200D03*
X101600Y228600D03*
X101600Y254000D03*
X101600Y279400D03*
X101600Y304800D03*
X101600Y330200D03*
X101600Y355600D03*
X101600Y381000D03*
X101600Y406400D03*
X101600Y431800D03*
X101600Y457200D03*
X101600Y482600D03*
X101600Y508000D03*
X101600Y533400D03*
X101600Y558800D03*
X50800Y584200D03*
X50800Y609600D03*
X50800Y635000D03*
X50800Y660400D03*
X50800Y685800D03*
X50800Y711200D03*
X50800Y736600D03*
X50800Y762000D03*
X50800Y787400D03*
X50800Y812800D03*
X50800Y838200D03*
X50800Y863600D03*
X50800Y889000D03*
X50800Y914400D03*
X50800Y939800D03*
X50800Y965200D03*
X76200Y584200D03*
X76200Y609600D03*
X76200Y635000D03*
X76200Y660400D03*
X76200Y685800D03*
X76200Y711200D03*
X76200Y736600D03*
X76200Y762000D03*
X76200Y787400D03*
X76200Y812800D03*
X76200Y838200D03*
X76200Y863600D03*
X76200Y889000D03*
X76200Y914400D03*
X76200Y939800D03*
X76200Y965200D03*
X101600Y584200D03*
X101600Y609600D03*
X101600Y635000D03*
X101600Y660400D03*
X101600Y685800D03*
X101600Y711200D03*
X101600Y736600D03*
X101600Y762000D03*
X101600Y787400D03*
X101600Y812800D03*
X101600Y838200D03*
X101600Y863600D03*
X101600Y889000D03*
X101600Y914400D03*
X101600Y939800D03*
X101600Y965200D03*
D11*
X1752600Y38100D03*
X1727200Y38100D03*
X1651000Y38100D03*
X1549400Y38100D03*
D12*
X927100Y895604D02*
X927100Y907796D01*
X952500Y907796D02*
X952500Y895604D01*
X977900Y895604D02*
X977900Y907796D01*
X1003300Y907796D02*
X1003300Y895604D01*
X1028700Y895604D02*
X1028700Y907796D01*
X1054100Y907796D02*
X1054100Y895604D01*
X1079500Y895604D02*
X1079500Y907796D01*
X1104900Y907796D02*
X1104900Y895604D01*
X1130300Y895604D02*
X1130300Y907796D01*
X1155700Y907796D02*
X1155700Y895604D01*
X1181100Y895604D02*
X1181100Y907796D01*
X1206500Y907796D02*
X1206500Y895604D01*
X1231900Y895604D02*
X1231900Y907796D01*
X1257300Y907796D02*
X1257300Y895604D01*
X1257300Y1048004D02*
X1257300Y1060196D01*
X1231900Y1060196D02*
X1231900Y1048004D01*
X1206500Y1048004D02*
X1206500Y1060196D01*
X1181100Y1060196D02*
X1181100Y1048004D01*
X1155700Y1048004D02*
X1155700Y1060196D01*
X1130300Y1060196D02*
X1130300Y1048004D01*
X1104900Y1048004D02*
X1104900Y1060196D01*
X1079500Y1060196D02*
X1079500Y1048004D01*
X1054100Y1048004D02*
X1054100Y1060196D01*
X1028700Y1060196D02*
X1028700Y1048004D01*
X1003300Y1048004D02*
X1003300Y1060196D01*
X977900Y1060196D02*
X977900Y1048004D01*
X952500Y1048004D02*
X952500Y1060196D01*
X927100Y1060196D02*
X927100Y1048004D01*
X927100Y679196D02*
X927100Y667004D01*
X952500Y667004D02*
X952500Y679196D01*
X977900Y679196D02*
X977900Y667004D01*
X1003300Y667004D02*
X1003300Y679196D01*
X1028700Y679196D02*
X1028700Y667004D01*
X1054100Y667004D02*
X1054100Y679196D01*
X1079500Y679196D02*
X1079500Y667004D01*
X1104900Y667004D02*
X1104900Y679196D01*
X1130300Y679196D02*
X1130300Y667004D01*
X1155700Y667004D02*
X1155700Y679196D01*
X1181100Y679196D02*
X1181100Y667004D01*
X1206500Y667004D02*
X1206500Y679196D01*
X1231900Y679196D02*
X1231900Y667004D01*
X1257300Y667004D02*
X1257300Y679196D01*
X1257300Y819404D02*
X1257300Y831596D01*
X1231900Y831596D02*
X1231900Y819404D01*
X1206500Y819404D02*
X1206500Y831596D01*
X1181100Y831596D02*
X1181100Y819404D01*
X1155700Y819404D02*
X1155700Y831596D01*
X1130300Y831596D02*
X1130300Y819404D01*
X1104900Y819404D02*
X1104900Y831596D01*
X1079500Y831596D02*
X1079500Y819404D01*
X1054100Y819404D02*
X1054100Y831596D01*
X1028700Y831596D02*
X1028700Y819404D01*
X1003300Y819404D02*
X1003300Y831596D01*
X977900Y831596D02*
X977900Y819404D01*
X952500Y819404D02*
X952500Y831596D01*
X927100Y831596D02*
X927100Y819404D01*
X977900Y171196D02*
X977900Y159004D01*
X1003300Y159004D02*
X1003300Y171196D01*
X1028700Y171196D02*
X1028700Y159004D01*
X1054100Y159004D02*
X1054100Y171196D01*
X1079500Y171196D02*
X1079500Y159004D01*
X1104900Y159004D02*
X1104900Y171196D01*
X1130300Y171196D02*
X1130300Y159004D01*
X1155700Y159004D02*
X1155700Y171196D01*
X1181100Y171196D02*
X1181100Y159004D01*
X977900Y463804D02*
X977900Y475996D01*
X1003300Y475996D02*
X1003300Y463804D01*
X1028700Y463804D02*
X1028700Y475996D01*
X1054100Y475996D02*
X1054100Y463804D01*
X1079500Y463804D02*
X1079500Y475996D01*
X1104900Y475996D02*
X1104900Y463804D01*
X1130300Y463804D02*
X1130300Y475996D01*
X1155700Y475996D02*
X1155700Y463804D01*
X1181100Y463804D02*
X1181100Y475996D01*
X254000Y832104D02*
X254000Y844296D01*
X279400Y844296D02*
X279400Y832104D01*
X406400Y832104D02*
X406400Y844296D01*
X406400Y908304D02*
X406400Y920496D01*
X304800Y844296D02*
X304800Y832104D01*
X330200Y832104D02*
X330200Y844296D01*
X381000Y844296D02*
X381000Y832104D01*
X355600Y832104D02*
X355600Y844296D01*
X381000Y908304D02*
X381000Y920496D01*
X355600Y920496D02*
X355600Y908304D01*
X330200Y908304D02*
X330200Y920496D01*
X304800Y920496D02*
X304800Y908304D01*
X279400Y908304D02*
X279400Y920496D01*
X254000Y920496D02*
X254000Y908304D01*
X571500Y971804D02*
X571500Y983996D01*
X596900Y983996D02*
X596900Y971804D01*
X723900Y971804D02*
X723900Y983996D01*
X749300Y983996D02*
X749300Y971804D01*
X622300Y971804D02*
X622300Y983996D01*
X647700Y983996D02*
X647700Y971804D01*
X698500Y971804D02*
X698500Y983996D01*
X673100Y983996D02*
X673100Y971804D01*
X749300Y1048004D02*
X749300Y1060196D01*
X723900Y1060196D02*
X723900Y1048004D01*
X698500Y1048004D02*
X698500Y1060196D01*
X673100Y1060196D02*
X673100Y1048004D01*
X647700Y1048004D02*
X647700Y1060196D01*
X622300Y1060196D02*
X622300Y1048004D01*
X596900Y1048004D02*
X596900Y1060196D01*
X571500Y1060196D02*
X571500Y1048004D01*
X520700Y348996D02*
X520700Y336804D01*
X546100Y336804D02*
X546100Y348996D01*
X673100Y348996D02*
X673100Y336804D01*
X698500Y336804D02*
X698500Y348996D01*
X571500Y348996D02*
X571500Y336804D01*
X596900Y336804D02*
X596900Y348996D01*
X647700Y348996D02*
X647700Y336804D01*
X622300Y336804D02*
X622300Y348996D01*
X723900Y348996D02*
X723900Y336804D01*
X749300Y336804D02*
X749300Y348996D01*
X749300Y413004D02*
X749300Y425196D01*
X723900Y425196D02*
X723900Y413004D01*
X698500Y413004D02*
X698500Y425196D01*
X673100Y425196D02*
X673100Y413004D01*
X647700Y413004D02*
X647700Y425196D01*
X622300Y425196D02*
X622300Y413004D01*
X596900Y413004D02*
X596900Y425196D01*
X571500Y425196D02*
X571500Y413004D01*
X546100Y413004D02*
X546100Y425196D01*
X520700Y425196D02*
X520700Y413004D01*
X520700Y183896D02*
X520700Y171704D01*
X546100Y171704D02*
X546100Y183896D01*
X673100Y183896D02*
X673100Y171704D01*
X698500Y171704D02*
X698500Y183896D01*
X571500Y183896D02*
X571500Y171704D01*
X596900Y171704D02*
X596900Y183896D01*
X647700Y183896D02*
X647700Y171704D01*
X622300Y171704D02*
X622300Y183896D01*
X723900Y183896D02*
X723900Y171704D01*
X749300Y171704D02*
X749300Y183896D01*
X749300Y247904D02*
X749300Y260096D01*
X723900Y260096D02*
X723900Y247904D01*
X698500Y247904D02*
X698500Y260096D01*
X673100Y260096D02*
X673100Y247904D01*
X647700Y247904D02*
X647700Y260096D01*
X622300Y260096D02*
X622300Y247904D01*
X596900Y247904D02*
X596900Y260096D01*
X571500Y260096D02*
X571500Y247904D01*
X546100Y247904D02*
X546100Y260096D01*
X520700Y260096D02*
X520700Y247904D01*
X596900Y832104D02*
X596900Y844296D01*
X622300Y844296D02*
X622300Y832104D01*
X749300Y832104D02*
X749300Y844296D01*
X749300Y908304D02*
X749300Y920496D01*
X647700Y844296D02*
X647700Y832104D01*
X673100Y832104D02*
X673100Y844296D01*
X723900Y844296D02*
X723900Y832104D01*
X698500Y832104D02*
X698500Y844296D01*
X723900Y908304D02*
X723900Y920496D01*
X698500Y920496D02*
X698500Y908304D01*
X673100Y908304D02*
X673100Y920496D01*
X647700Y920496D02*
X647700Y908304D01*
X622300Y908304D02*
X622300Y920496D01*
X596900Y920496D02*
X596900Y908304D01*
X520700Y602996D02*
X520700Y590804D01*
X546100Y590804D02*
X546100Y602996D01*
X673100Y602996D02*
X673100Y590804D01*
X698500Y590804D02*
X698500Y602996D01*
X571500Y602996D02*
X571500Y590804D01*
X596900Y590804D02*
X596900Y602996D01*
X647700Y602996D02*
X647700Y590804D01*
X622300Y590804D02*
X622300Y602996D01*
X723900Y602996D02*
X723900Y590804D01*
X749300Y590804D02*
X749300Y602996D01*
X749300Y667004D02*
X749300Y679196D01*
X723900Y679196D02*
X723900Y667004D01*
X698500Y667004D02*
X698500Y679196D01*
X673100Y679196D02*
X673100Y667004D01*
X647700Y667004D02*
X647700Y679196D01*
X622300Y679196D02*
X622300Y667004D01*
X596900Y667004D02*
X596900Y679196D01*
X571500Y679196D02*
X571500Y667004D01*
X546100Y667004D02*
X546100Y679196D01*
X520700Y679196D02*
X520700Y667004D01*
X546100Y514096D02*
X546100Y501904D01*
X571500Y501904D02*
X571500Y514096D01*
X596900Y514096D02*
X596900Y501904D01*
X622300Y501904D02*
X622300Y514096D01*
X647700Y514096D02*
X647700Y501904D01*
X673100Y501904D02*
X673100Y514096D01*
X698500Y514096D02*
X698500Y501904D01*
X723900Y501904D02*
X723900Y514096D01*
X749300Y514096D02*
X749300Y501904D01*
X546100Y768604D02*
X546100Y780796D01*
X571500Y780796D02*
X571500Y768604D01*
X596900Y768604D02*
X596900Y780796D01*
X622300Y780796D02*
X622300Y768604D01*
X647700Y768604D02*
X647700Y780796D01*
X673100Y780796D02*
X673100Y768604D01*
X698500Y768604D02*
X698500Y780796D01*
X723900Y780796D02*
X723900Y768604D01*
X749300Y768604D02*
X749300Y780796D01*
X228600Y679196D02*
X228600Y667004D01*
X254000Y667004D02*
X254000Y679196D01*
X381000Y679196D02*
X381000Y667004D01*
X406400Y667004D02*
X406400Y679196D01*
X279400Y679196D02*
X279400Y667004D01*
X304800Y667004D02*
X304800Y679196D01*
X355600Y679196D02*
X355600Y667004D01*
X330200Y667004D02*
X330200Y679196D01*
X406400Y743204D02*
X406400Y755396D01*
X381000Y755396D02*
X381000Y743204D01*
X355600Y743204D02*
X355600Y755396D01*
X330200Y755396D02*
X330200Y743204D01*
X304800Y743204D02*
X304800Y755396D01*
X279400Y755396D02*
X279400Y743204D01*
X254000Y743204D02*
X254000Y755396D01*
X228600Y755396D02*
X228600Y743204D01*
X254000Y526796D02*
X254000Y514604D01*
X279400Y514604D02*
X279400Y526796D01*
X406400Y526796D02*
X406400Y514604D01*
X406400Y590804D02*
X406400Y602996D01*
X304800Y526796D02*
X304800Y514604D01*
X330200Y514604D02*
X330200Y526796D01*
X381000Y526796D02*
X381000Y514604D01*
X355600Y514604D02*
X355600Y526796D01*
X381000Y590804D02*
X381000Y602996D01*
X355600Y602996D02*
X355600Y590804D01*
X330200Y590804D02*
X330200Y602996D01*
X304800Y602996D02*
X304800Y590804D01*
X279400Y590804D02*
X279400Y602996D01*
X254000Y602996D02*
X254000Y590804D01*
X254000Y971804D02*
X254000Y983996D01*
X279400Y983996D02*
X279400Y971804D01*
X406400Y971804D02*
X406400Y983996D01*
X406400Y1048004D02*
X406400Y1060196D01*
X304800Y983996D02*
X304800Y971804D01*
X330200Y971804D02*
X330200Y983996D01*
X381000Y983996D02*
X381000Y971804D01*
X355600Y971804D02*
X355600Y983996D01*
X381000Y1048004D02*
X381000Y1060196D01*
X355600Y1060196D02*
X355600Y1048004D01*
X330200Y1048004D02*
X330200Y1060196D01*
X304800Y1060196D02*
X304800Y1048004D01*
X279400Y1048004D02*
X279400Y1060196D01*
X254000Y1060196D02*
X254000Y1048004D01*
X927100Y247396D02*
X927100Y235204D01*
X952500Y235204D02*
X952500Y247396D01*
X977900Y247396D02*
X977900Y235204D01*
X1003300Y235204D02*
X1003300Y247396D01*
X1028700Y247396D02*
X1028700Y235204D01*
X1054100Y235204D02*
X1054100Y247396D01*
X1079500Y247396D02*
X1079500Y235204D01*
X1104900Y235204D02*
X1104900Y247396D01*
X1130300Y247396D02*
X1130300Y235204D01*
X1155700Y235204D02*
X1155700Y247396D01*
X1181100Y247396D02*
X1181100Y235204D01*
X1206500Y235204D02*
X1206500Y247396D01*
X1231900Y247396D02*
X1231900Y235204D01*
X1257300Y235204D02*
X1257300Y247396D01*
X1257300Y387604D02*
X1257300Y399796D01*
X1231900Y399796D02*
X1231900Y387604D01*
X1206500Y387604D02*
X1206500Y399796D01*
X1181100Y399796D02*
X1181100Y387604D01*
X1155700Y387604D02*
X1155700Y399796D01*
X1130300Y399796D02*
X1130300Y387604D01*
X1104900Y387604D02*
X1104900Y399796D01*
X1079500Y399796D02*
X1079500Y387604D01*
X1054100Y387604D02*
X1054100Y399796D01*
X1028700Y399796D02*
X1028700Y387604D01*
X1003300Y387604D02*
X1003300Y399796D01*
X977900Y399796D02*
X977900Y387604D01*
X952500Y387604D02*
X952500Y399796D01*
X927100Y399796D02*
X927100Y387604D01*
D13*
X876300Y965200D03*
X876300Y990600D03*
X876300Y736600D03*
X876300Y762000D03*
X876300Y304800D03*
X876300Y330200D03*
X469900Y203200D03*
X469900Y228600D03*
X469900Y368300D03*
X469900Y393700D03*
X469900Y622300D03*
X469900Y647700D03*
X546100Y863600D03*
X546100Y889000D03*
X520700Y1003300D03*
X520700Y1028700D03*
X203200Y1003300D03*
X203200Y1028700D03*
X203200Y863600D03*
X203200Y889000D03*
X177800Y685800D03*
X177800Y711200D03*
X190500Y546100D03*
X190500Y571500D03*
X203200Y368300D03*
X203200Y393700D03*
D12*
X254000Y348996D02*
X254000Y336804D01*
X279400Y336804D02*
X279400Y348996D01*
X406400Y348996D02*
X406400Y336804D01*
X406400Y413004D02*
X406400Y425196D01*
X304800Y348996D02*
X304800Y336804D01*
X330200Y336804D02*
X330200Y348996D01*
X381000Y348996D02*
X381000Y336804D01*
X355600Y336804D02*
X355600Y348996D01*
X381000Y413004D02*
X381000Y425196D01*
X355600Y425196D02*
X355600Y413004D01*
X330200Y413004D02*
X330200Y425196D01*
X304800Y425196D02*
X304800Y413004D01*
X279400Y413004D02*
X279400Y425196D01*
X254000Y425196D02*
X254000Y413004D01*
X1708404Y787400D02*
X1720596Y787400D01*
X1720596Y812800D02*
X1708404Y812800D01*
X1708404Y838200D02*
X1720596Y838200D01*
X1720596Y863600D02*
X1708404Y863600D01*
X1708404Y889000D02*
X1720596Y889000D01*
X1720596Y914400D02*
X1708404Y914400D01*
X1708404Y939800D02*
X1720596Y939800D01*
X1720596Y965200D02*
X1708404Y965200D01*
X1708404Y990600D02*
X1720596Y990600D01*
X1720596Y482600D02*
X1708404Y482600D01*
X1708404Y508000D02*
X1720596Y508000D01*
X1720596Y533400D02*
X1708404Y533400D01*
X1708404Y558800D02*
X1720596Y558800D01*
X1720596Y584200D02*
X1708404Y584200D01*
X1708404Y609600D02*
X1720596Y609600D01*
X1720596Y635000D02*
X1708404Y635000D01*
X1708404Y660400D02*
X1720596Y660400D01*
X1720596Y685800D02*
X1708404Y685800D01*
D13*
X1358900Y952500D03*
X1358900Y977900D03*
X1358900Y812800D03*
X1358900Y838200D03*
X1358900Y660400D03*
X1358900Y685800D03*
X1358900Y508000D03*
X1358900Y533400D03*
D14*
X50800Y1084580D02*
X50800Y1099820D01*
X76200Y1099820D02*
X76200Y1084580D01*
X101600Y1084580D02*
X101600Y1099820D01*
D12*
X254000Y183896D02*
X254000Y171704D01*
X279400Y171704D02*
X279400Y183896D01*
X406400Y183896D02*
X406400Y171704D01*
X406400Y247904D02*
X406400Y260096D01*
X304800Y183896D02*
X304800Y171704D01*
X330200Y171704D02*
X330200Y183896D01*
X381000Y183896D02*
X381000Y171704D01*
X355600Y171704D02*
X355600Y183896D01*
X381000Y247904D02*
X381000Y260096D01*
X355600Y260096D02*
X355600Y247904D01*
X330200Y247904D02*
X330200Y260096D01*
X304800Y260096D02*
X304800Y247904D01*
X279400Y247904D02*
X279400Y260096D01*
X254000Y260096D02*
X254000Y247904D01*
D13*
X203200Y203200D03*
X203200Y228600D03*
D12*
X1409700Y921004D02*
X1409700Y933196D01*
X1435100Y933196D02*
X1435100Y921004D01*
X1562100Y921004D02*
X1562100Y933196D01*
X1587500Y933196D02*
X1587500Y921004D01*
X1460500Y921004D02*
X1460500Y933196D01*
X1485900Y933196D02*
X1485900Y921004D01*
X1536700Y921004D02*
X1536700Y933196D01*
X1511300Y933196D02*
X1511300Y921004D01*
X1612900Y921004D02*
X1612900Y933196D01*
X1638300Y933196D02*
X1638300Y921004D01*
X1638300Y997204D02*
X1638300Y1009396D01*
X1612900Y1009396D02*
X1612900Y997204D01*
X1587500Y997204D02*
X1587500Y1009396D01*
X1562100Y1009396D02*
X1562100Y997204D01*
X1536700Y997204D02*
X1536700Y1009396D01*
X1511300Y1009396D02*
X1511300Y997204D01*
X1485900Y997204D02*
X1485900Y1009396D01*
X1460500Y1009396D02*
X1460500Y997204D01*
X1435100Y997204D02*
X1435100Y1009396D01*
X1409700Y1009396D02*
X1409700Y997204D01*
X1409700Y641096D02*
X1409700Y628904D01*
X1435100Y628904D02*
X1435100Y641096D01*
X1562100Y641096D02*
X1562100Y628904D01*
X1587500Y628904D02*
X1587500Y641096D01*
X1460500Y641096D02*
X1460500Y628904D01*
X1485900Y628904D02*
X1485900Y641096D01*
X1536700Y641096D02*
X1536700Y628904D01*
X1511300Y628904D02*
X1511300Y641096D01*
X1612900Y641096D02*
X1612900Y628904D01*
X1638300Y628904D02*
X1638300Y641096D01*
X1638300Y705104D02*
X1638300Y717296D01*
X1612900Y717296D02*
X1612900Y705104D01*
X1587500Y705104D02*
X1587500Y717296D01*
X1562100Y717296D02*
X1562100Y705104D01*
X1536700Y705104D02*
X1536700Y717296D01*
X1511300Y717296D02*
X1511300Y705104D01*
X1485900Y705104D02*
X1485900Y717296D01*
X1460500Y717296D02*
X1460500Y705104D01*
X1435100Y705104D02*
X1435100Y717296D01*
X1409700Y717296D02*
X1409700Y705104D01*
X1409700Y794004D02*
X1409700Y806196D01*
X1435100Y806196D02*
X1435100Y794004D01*
X1562100Y794004D02*
X1562100Y806196D01*
X1587500Y806196D02*
X1587500Y794004D01*
X1460500Y794004D02*
X1460500Y806196D01*
X1485900Y806196D02*
X1485900Y794004D01*
X1536700Y794004D02*
X1536700Y806196D01*
X1511300Y806196D02*
X1511300Y794004D01*
X1612900Y794004D02*
X1612900Y806196D01*
X1638300Y806196D02*
X1638300Y794004D01*
X1638300Y870204D02*
X1638300Y882396D01*
X1612900Y882396D02*
X1612900Y870204D01*
X1587500Y870204D02*
X1587500Y882396D01*
X1562100Y882396D02*
X1562100Y870204D01*
X1536700Y870204D02*
X1536700Y882396D01*
X1511300Y882396D02*
X1511300Y870204D01*
X1485900Y870204D02*
X1485900Y882396D01*
X1460500Y882396D02*
X1460500Y870204D01*
X1435100Y870204D02*
X1435100Y882396D01*
X1409700Y882396D02*
X1409700Y870204D01*
X1409700Y488696D02*
X1409700Y476504D01*
X1435100Y476504D02*
X1435100Y488696D01*
X1562100Y488696D02*
X1562100Y476504D01*
X1587500Y476504D02*
X1587500Y488696D01*
X1460500Y488696D02*
X1460500Y476504D01*
X1485900Y476504D02*
X1485900Y488696D01*
X1536700Y488696D02*
X1536700Y476504D01*
X1511300Y476504D02*
X1511300Y488696D01*
X1612900Y488696D02*
X1612900Y476504D01*
X1638300Y476504D02*
X1638300Y488696D01*
X1638300Y552704D02*
X1638300Y564896D01*
X1612900Y564896D02*
X1612900Y552704D01*
X1587500Y552704D02*
X1587500Y564896D01*
X1562100Y564896D02*
X1562100Y552704D01*
X1536700Y552704D02*
X1536700Y564896D01*
X1511300Y564896D02*
X1511300Y552704D01*
X1485900Y552704D02*
X1485900Y564896D01*
X1460500Y564896D02*
X1460500Y552704D01*
X1435100Y552704D02*
X1435100Y564896D01*
X1409700Y564896D02*
X1409700Y552704D01*
D15*
X1425575Y917575D02*
X1435100Y927100D01*
X1425575Y917575D02*
X1425575Y809625D01*
X1435100Y800100D01*
X571500Y508000D02*
X568325Y511175D01*
X568325Y574675D01*
X546100Y596900D01*
X682625Y723900D02*
X692150Y714375D01*
X682625Y723900D02*
X682625Y787400D01*
X679450Y790575D01*
X657225Y790575D01*
X657225Y660400D01*
X609600Y612775D01*
X546100Y612775D01*
X546100Y596900D01*
D16*
X692150Y714375D03*
D15*
X1476375Y917575D02*
X1485900Y927100D01*
X1476375Y917575D02*
X1476375Y809625D01*
X1485900Y800100D01*
X596900Y508000D02*
X587375Y517525D01*
X587375Y581025D01*
X571500Y596900D01*
X1425575Y739775D02*
X1485900Y800100D01*
X1425575Y739775D02*
X1425575Y552450D01*
X1412875Y539750D01*
D16*
X1412875Y539750D03*
D15*
X1587500Y800100D02*
X1597025Y809625D01*
X1597025Y917575D01*
X1587500Y927100D01*
X647700Y508000D02*
X622300Y533400D01*
X622300Y596900D01*
X63500Y698500D02*
X50800Y711200D01*
X63500Y698500D02*
X136525Y698500D01*
X136525Y692150D01*
X212725Y615950D01*
X1587500Y800100D02*
X1597025Y790575D01*
X1597025Y682625D01*
D16*
X212725Y615950D03*
X1597025Y682625D03*
D15*
X1577975Y993775D02*
X1587500Y1003300D01*
X1577975Y993775D02*
X1577975Y885825D01*
X1587500Y876300D01*
X673100Y508000D02*
X647700Y533400D01*
X647700Y596900D01*
X1647825Y1006475D02*
X1714500Y939800D01*
X1647825Y1006475D02*
X1647825Y1016000D01*
X1644650Y1019175D01*
X1571625Y1019175D02*
X1562100Y1019175D01*
X1571625Y1019175D02*
X1644650Y1019175D01*
X1562100Y1019175D02*
X1562100Y1003300D01*
X1571625Y885825D02*
X1562100Y876300D01*
X1571625Y885825D02*
X1571625Y1019175D01*
X698500Y508000D02*
X673100Y533400D01*
X673100Y596900D01*
X50800Y762000D02*
X38100Y749300D01*
X38100Y631825D01*
X47625Y622300D01*
X177800Y622300D01*
X206375Y593725D01*
X1552575Y866775D02*
X1562100Y876300D01*
X1552575Y866775D02*
X1552575Y619125D01*
D16*
X206375Y593725D03*
X1552575Y619125D03*
D15*
X1714500Y965200D02*
X1654175Y1025525D01*
X1520825Y1025525D02*
X1511300Y1025525D01*
X1520825Y1025525D02*
X1654175Y1025525D01*
X1511300Y1025525D02*
X1511300Y1003300D01*
X1520825Y885825D02*
X1511300Y876300D01*
X1520825Y885825D02*
X1520825Y1025525D01*
X723900Y508000D02*
X698500Y533400D01*
X698500Y596900D01*
X688975Y701675D02*
X679450Y711200D01*
X688975Y701675D02*
X688975Y606425D01*
X698500Y596900D01*
D16*
X679450Y711200D03*
D15*
X50800Y863600D02*
X25400Y838200D01*
X25400Y187325D01*
X69850Y142875D01*
X1485900Y635000D02*
X1495425Y625475D01*
X1495425Y492125D01*
X1485900Y482600D01*
D16*
X69850Y142875D03*
D15*
X50800Y889000D02*
X38100Y901700D01*
X38100Y981075D01*
X63500Y1006475D01*
X63500Y1108075D01*
X73025Y1117600D01*
X1495425Y1117600D01*
X1495425Y749300D01*
X1527175Y717550D01*
X1527175Y644525D01*
X1536700Y635000D01*
X1546225Y492125D02*
X1536700Y482600D01*
X1546225Y492125D02*
X1546225Y625475D01*
X1536700Y635000D01*
X1622425Y492125D02*
X1612900Y482600D01*
X1622425Y492125D02*
X1714500Y584200D01*
X1622425Y625475D02*
X1612900Y635000D01*
X1622425Y625475D02*
X1622425Y492125D01*
X88900Y215900D02*
X76200Y228600D01*
X88900Y215900D02*
X88900Y174625D01*
X168275Y95250D01*
X1577975Y95250D01*
X1577975Y549275D01*
X1587500Y558800D01*
X1577975Y701675D02*
X1587500Y711200D01*
X1577975Y701675D02*
X1577975Y549275D01*
X88900Y241300D02*
X76200Y254000D01*
X88900Y241300D02*
X184150Y241300D01*
X184150Y174625D01*
X231775Y127000D01*
X1527175Y127000D01*
X1527175Y549275D01*
X1536700Y558800D01*
X1571625Y701675D02*
X1562100Y711200D01*
X1571625Y701675D02*
X1571625Y568325D01*
X1562100Y558800D01*
X1517650Y692150D02*
X1511300Y698500D01*
X1517650Y692150D02*
X1520825Y688975D01*
X1511300Y698500D02*
X1511300Y711200D01*
X88900Y266700D02*
X76200Y279400D01*
X88900Y266700D02*
X190500Y266700D01*
X190500Y177800D01*
X234950Y133350D01*
X1476375Y133350D01*
X1476375Y549275D01*
X1485900Y558800D01*
X1476375Y650875D02*
X1517650Y692150D01*
X1476375Y650875D02*
X1476375Y549275D01*
D16*
X1520825Y688975D03*
D15*
X606425Y317500D02*
X587375Y317500D01*
X606425Y317500D02*
X606425Y441325D01*
X1435100Y711200D02*
X1444625Y701675D01*
X1444625Y568325D01*
X1435100Y558800D01*
D16*
X587375Y317500D03*
X606425Y441325D03*
D15*
X1536700Y800100D02*
X1546225Y809625D01*
X1546225Y917575D01*
X1536700Y927100D01*
X622300Y508000D02*
X596900Y533400D01*
X596900Y596900D01*
X1536700Y800100D02*
X1546225Y790575D01*
X1546225Y676275D01*
D16*
X1546225Y676275D03*
D15*
X1435100Y876300D02*
X1444625Y885825D01*
X1444625Y993775D01*
X1435100Y1003300D01*
X749300Y508000D02*
X723900Y533400D01*
X723900Y596900D01*
X714375Y800100D02*
X644525Y800100D01*
X714375Y793750D02*
X714375Y606425D01*
X714375Y793750D02*
X714375Y800100D01*
X714375Y606425D02*
X723900Y596900D01*
X1368425Y1069975D02*
X1435100Y1003300D01*
X1368425Y1069975D02*
X739775Y1069975D01*
X739775Y819150D01*
X714375Y793750D01*
D16*
X644525Y800100D03*
D15*
X63500Y825500D02*
X50800Y838200D01*
X63500Y825500D02*
X114300Y825500D01*
X114300Y793750D01*
X1254125Y774700D02*
X1266825Y762000D01*
X1266825Y625475D01*
X1257300Y615950D01*
X1257300Y590550D01*
X1381125Y466725D01*
X1435100Y466725D01*
X1435100Y482600D01*
X1450975Y625475D02*
X1460500Y635000D01*
X1450975Y625475D02*
X1450975Y492125D01*
X1460500Y482600D01*
D16*
X114300Y793750D03*
X1254125Y774700D03*
D15*
X546100Y342900D02*
X488950Y285750D01*
D16*
X488950Y285750D03*
D15*
X114300Y301625D02*
X114300Y311150D01*
X114300Y301625D02*
X104775Y292100D01*
X50800Y292100D01*
X50800Y279400D01*
D16*
X114300Y311150D03*
D15*
X133350Y330200D02*
X158750Y304800D01*
X133350Y330200D02*
X114300Y330200D01*
X114300Y327025D01*
X104775Y317500D01*
X50800Y317500D01*
X50800Y304800D01*
D16*
X158750Y304800D03*
D15*
X701675Y466725D02*
X749300Y419100D01*
D16*
X701675Y466725D03*
D15*
X698500Y419100D02*
X650875Y466725D01*
X165100Y476250D02*
X152400Y463550D01*
X152400Y415925D01*
X104775Y368300D01*
X50800Y368300D01*
X50800Y355600D01*
D16*
X650875Y466725D03*
X165100Y476250D03*
D15*
X600075Y466725D02*
X647700Y419100D01*
X120650Y469900D02*
X63500Y469900D01*
X63500Y393700D01*
X50800Y381000D01*
D16*
X600075Y466725D03*
X120650Y469900D03*
D15*
X587375Y428625D02*
X596900Y419100D01*
X587375Y428625D02*
X587375Y441325D01*
D16*
X587375Y441325D03*
D15*
X396875Y327025D02*
X546100Y177800D01*
X396875Y327025D02*
X396875Y479425D01*
D16*
X396875Y479425D03*
D15*
X215900Y257175D02*
X215900Y193675D01*
X215900Y257175D02*
X130175Y342900D01*
X38100Y342900D01*
X38100Y444500D01*
X50800Y457200D01*
D16*
X215900Y193675D03*
D15*
X60325Y190500D02*
X31750Y190500D01*
X31750Y463550D01*
X50800Y482600D01*
D16*
X60325Y190500D03*
D15*
X749300Y254000D02*
X774700Y279400D01*
X774700Y473075D01*
D16*
X774700Y473075D03*
D15*
X631825Y320675D02*
X698500Y254000D01*
X631825Y320675D02*
X631825Y377825D01*
X146050Y434975D02*
X127000Y454025D01*
X127000Y523875D01*
X104775Y546100D01*
X50800Y546100D01*
X50800Y558800D01*
D16*
X631825Y377825D03*
X146050Y434975D03*
D15*
X171450Y342900D02*
X215900Y298450D01*
X171450Y342900D02*
X171450Y504825D01*
X104775Y571500D01*
X50800Y571500D01*
X50800Y584200D01*
D16*
X215900Y298450D03*
D15*
X581025Y269875D02*
X596900Y254000D01*
X581025Y269875D02*
X581025Y558800D01*
X327025Y974725D02*
X330200Y977900D01*
X327025Y974725D02*
X327025Y958850D01*
X288925Y920750D01*
X288925Y568325D01*
D16*
X581025Y558800D03*
X288925Y568325D03*
D15*
X381000Y914400D02*
X371475Y923925D01*
X371475Y1060450D01*
X355600Y1076325D01*
X111125Y1076325D01*
X111125Y1016000D01*
X63500Y968375D01*
X63500Y885825D01*
X73025Y876300D01*
X79375Y876300D01*
X88900Y866775D01*
X88900Y860425D01*
X98425Y850900D01*
X120650Y850900D01*
X120650Y790575D01*
X104775Y774700D01*
X76200Y774700D01*
X76200Y762000D01*
X422275Y603250D02*
X485775Y603250D01*
X422275Y603250D02*
X422275Y711200D01*
X390525Y742950D01*
X390525Y803275D01*
X365125Y828675D02*
X355600Y838200D01*
X365125Y828675D02*
X390525Y803275D01*
X365125Y828675D02*
X352425Y815975D01*
D16*
X485775Y603250D03*
X352425Y815975D03*
D15*
X1409700Y635000D02*
X1419225Y644525D01*
X1419225Y917575D01*
X1409700Y927100D01*
X1400175Y492125D02*
X1409700Y482600D01*
X1400175Y492125D02*
X1400175Y790575D01*
X1409700Y800100D01*
X88900Y876300D02*
X76200Y889000D01*
X88900Y876300D02*
X146050Y876300D01*
D16*
X146050Y876300D03*
D15*
X546100Y673100D02*
X561975Y657225D01*
X638175Y657225D01*
X638175Y806450D01*
X657225Y825500D01*
X657225Y968375D01*
X647700Y977900D01*
X320675Y244475D02*
X254000Y177800D01*
X320675Y244475D02*
X320675Y409575D01*
X330200Y419100D01*
X330200Y457200D01*
X536575Y631825D02*
X561975Y657225D01*
X536575Y631825D02*
X536575Y539750D01*
X561975Y514350D01*
X561975Y473075D01*
X568325Y466725D01*
X568325Y447675D01*
D16*
X330200Y457200D03*
X568325Y447675D03*
D15*
X295275Y193675D02*
X279400Y177800D01*
X295275Y193675D02*
X314325Y193675D01*
X314325Y165100D01*
X304800Y155575D01*
X222250Y155575D01*
X222250Y622300D01*
X127000Y717550D01*
X127000Y854075D01*
X117475Y863600D01*
X101600Y863600D01*
X177800Y441325D02*
X215900Y403225D01*
X177800Y441325D02*
X177800Y523875D01*
X104775Y596900D01*
X31750Y596900D01*
X31750Y835025D01*
X47625Y850900D01*
X76200Y850900D01*
X76200Y863600D01*
D16*
X215900Y403225D03*
D15*
X269875Y463550D02*
X288925Y444500D01*
X269875Y463550D02*
X269875Y984250D01*
X260350Y993775D01*
X212725Y993775D01*
X120650Y901700D01*
X76200Y901700D01*
X76200Y914400D01*
D16*
X288925Y444500D03*
D15*
X1155700Y241300D02*
X1165225Y250825D01*
X1165225Y663575D01*
X1155700Y673100D01*
X1165225Y892175D02*
X1155700Y901700D01*
X1165225Y892175D02*
X1165225Y663575D01*
X863600Y358775D02*
X787400Y434975D01*
X863600Y358775D02*
X863600Y282575D01*
X889000Y257175D02*
X965200Y180975D01*
X889000Y257175D02*
X863600Y282575D01*
X965200Y180975D02*
X1003300Y180975D01*
X1003300Y165100D01*
X889000Y257175D02*
X955675Y323850D01*
D16*
X787400Y434975D03*
X955675Y323850D03*
D15*
X1130300Y673100D02*
X1120775Y682625D01*
X1120775Y892175D01*
X1130300Y901700D01*
X1028700Y165100D02*
X1031875Y161925D01*
X1031875Y146050D01*
X1035050Y142875D01*
X1139825Y142875D01*
X1139825Y231775D01*
X1130300Y241300D01*
X688975Y352425D02*
X622300Y419100D01*
X688975Y352425D02*
X688975Y311150D01*
X733425Y266700D01*
X733425Y231775D01*
X1139825Y663575D02*
X1130300Y673100D01*
X1139825Y663575D02*
X1139825Y231775D01*
D16*
X733425Y231775D03*
D15*
X1104900Y673100D02*
X1114425Y682625D01*
X1114425Y892175D01*
X1104900Y901700D01*
X1104900Y222250D02*
X1085850Y203200D01*
X1104900Y222250D02*
X1104900Y241300D01*
X739775Y352425D02*
X673100Y419100D01*
X739775Y352425D02*
X739775Y219075D01*
X1114425Y663575D02*
X1104900Y673100D01*
X1114425Y663575D02*
X1114425Y250825D01*
X1104900Y241300D01*
D16*
X1085850Y203200D03*
X739775Y219075D03*
D15*
X1079500Y673100D02*
X1089025Y682625D01*
X1089025Y892175D01*
X1079500Y901700D01*
X1079500Y241300D02*
X1079500Y165100D01*
X768350Y374650D02*
X723900Y419100D01*
X768350Y374650D02*
X768350Y352425D01*
X1089025Y663575D02*
X1079500Y673100D01*
X1089025Y663575D02*
X1089025Y250825D01*
X1079500Y241300D01*
D16*
X768350Y352425D03*
D15*
X1054100Y673100D02*
X1063625Y682625D01*
X1063625Y892175D01*
X1054100Y901700D01*
X1054100Y215900D02*
X1063625Y206375D01*
X1073150Y196850D01*
X1054100Y215900D02*
X1054100Y241300D01*
X1063625Y663575D02*
X1054100Y673100D01*
X1063625Y663575D02*
X1063625Y206375D01*
D16*
X1073150Y196850D03*
D15*
X1028700Y673100D02*
X1038225Y682625D01*
X1038225Y892175D01*
X1028700Y901700D01*
X1025525Y358775D02*
X1028700Y355600D01*
X1028700Y241300D01*
X1114425Y149225D02*
X1130300Y165100D01*
X1114425Y149225D02*
X1038225Y149225D01*
X1038225Y231775D01*
X1028700Y241300D01*
X1038225Y663575D02*
X1028700Y673100D01*
X1038225Y663575D02*
X1038225Y371475D01*
X1025525Y358775D01*
D16*
X1025525Y358775D03*
D15*
X1003300Y673100D02*
X1012825Y682625D01*
X1012825Y892175D01*
X1003300Y901700D01*
X1003300Y365125D02*
X1003300Y241300D01*
X1012825Y663575D02*
X1003300Y673100D01*
X1012825Y663575D02*
X1012825Y374650D01*
X1003300Y365125D01*
D16*
X1003300Y365125D03*
D15*
X977900Y673100D02*
X987425Y682625D01*
X987425Y892175D01*
X977900Y901700D01*
X977900Y673100D02*
X974725Y669925D01*
X974725Y488950D01*
X968375Y482600D01*
X968375Y250825D01*
X977900Y241300D01*
X1003300Y825500D02*
X993775Y835025D01*
X993775Y1044575D01*
X1003300Y1054100D01*
X996950Y295275D02*
X974725Y273050D01*
X996950Y295275D02*
X996950Y387350D01*
X1003300Y393700D01*
X1003300Y469900D01*
X993775Y815975D02*
X1003300Y825500D01*
X993775Y815975D02*
X993775Y479425D01*
X1003300Y469900D01*
D16*
X974725Y273050D03*
D15*
X1028700Y825500D02*
X1019175Y835025D01*
X1019175Y1044575D01*
X1028700Y1054100D01*
X622300Y254000D02*
X688975Y187325D01*
X688975Y165100D01*
X714375Y139700D01*
X1019175Y139700D01*
X1019175Y384175D01*
X1028700Y393700D01*
X1028700Y469900D01*
X1019175Y815975D02*
X1028700Y825500D01*
X1019175Y815975D02*
X1019175Y479425D01*
X1028700Y469900D01*
X1104900Y825500D02*
X1095375Y835025D01*
X1095375Y1044575D01*
X1104900Y1054100D01*
X1104900Y295275D02*
X1095375Y285750D01*
X1104900Y295275D02*
X1104900Y393700D01*
X1057275Y466725D02*
X1054100Y469900D01*
X1057275Y466725D02*
X1057275Y434975D01*
X1095375Y815975D02*
X1104900Y825500D01*
X1095375Y815975D02*
X1095375Y403225D01*
X1104900Y393700D01*
D16*
X1095375Y285750D03*
X1057275Y434975D03*
D15*
X1054100Y825500D02*
X1044575Y835025D01*
X1044575Y1044575D01*
X1054100Y1054100D01*
X1054100Y298450D02*
X1035050Y279400D01*
X1054100Y298450D02*
X1054100Y393700D01*
X1044575Y403225D02*
X1044575Y485775D01*
X1044575Y403225D02*
X1054100Y393700D01*
X1044575Y815975D02*
X1054100Y825500D01*
X1044575Y815975D02*
X1044575Y485775D01*
D16*
X1035050Y279400D03*
X1044575Y485775D03*
D15*
X307975Y676275D02*
X304800Y673100D01*
X307975Y676275D02*
X307975Y711200D01*
X517525Y723900D02*
X561975Y768350D01*
X561975Y885825D02*
X561975Y968375D01*
X561975Y885825D02*
X561975Y768350D01*
X561975Y968375D02*
X571500Y977900D01*
X962025Y250825D02*
X952500Y241300D01*
X962025Y454025D02*
X962025Y663575D01*
X962025Y454025D02*
X962025Y250825D01*
X962025Y663575D02*
X952500Y673100D01*
X962025Y892175D02*
X952500Y901700D01*
X962025Y892175D02*
X962025Y663575D01*
D16*
X307975Y711200D03*
X517525Y723900D03*
X962025Y454025D03*
X561975Y885825D03*
D15*
X587375Y701675D02*
X577850Y692150D01*
X587375Y701675D02*
X587375Y968375D01*
X596900Y977900D01*
X968375Y835025D02*
X977900Y825500D01*
X968375Y835025D02*
X968375Y1044575D01*
X977900Y1054100D01*
X968375Y835025D02*
X968375Y631825D01*
X968375Y492125D01*
D16*
X577850Y692150D03*
X968375Y492125D03*
X968375Y631825D03*
D15*
X406400Y749300D02*
X396875Y758825D01*
X396875Y1066800D01*
X400050Y1069975D01*
X612775Y1069975D01*
X612775Y987425D01*
X622300Y977900D01*
X917575Y682625D02*
X927100Y673100D01*
X917575Y682625D02*
X917575Y892175D01*
X927100Y901700D01*
X927100Y517525D02*
X946150Y498475D01*
X927100Y517525D02*
X927100Y673100D01*
X625475Y974725D02*
X622300Y977900D01*
X625475Y974725D02*
X625475Y942975D01*
D16*
X946150Y498475D03*
X625475Y942975D03*
D15*
X314325Y352425D02*
X304800Y342900D01*
X314325Y463550D02*
X314325Y520700D01*
X314325Y463550D02*
X314325Y352425D01*
X314325Y520700D02*
X320675Y527050D01*
X320675Y739775D01*
X330200Y749300D01*
X323850Y463550D02*
X314325Y463550D01*
X339725Y949325D02*
X346075Y955675D01*
X339725Y949325D02*
X339725Y758825D01*
X330200Y749300D01*
D16*
X323850Y463550D03*
X346075Y955675D03*
D15*
X571500Y774700D02*
X571500Y673100D01*
X1181100Y241300D02*
X1190625Y250825D01*
X1190625Y638175D02*
X1190625Y663575D01*
X1190625Y638175D02*
X1190625Y250825D01*
X1190625Y663575D02*
X1181100Y673100D01*
X1190625Y892175D02*
X1181100Y901700D01*
X1190625Y892175D02*
X1190625Y663575D01*
X1190625Y638175D02*
X1177925Y638175D01*
D16*
X1177925Y638175D03*
D15*
X596900Y673100D02*
X596900Y774700D01*
X1206500Y241300D02*
X1216025Y250825D01*
X1216025Y663575D01*
X1206500Y673100D01*
X1216025Y892175D02*
X1206500Y901700D01*
X1216025Y892175D02*
X1216025Y663575D01*
X622300Y673100D02*
X622300Y774700D01*
X1231900Y241300D02*
X1241425Y250825D01*
X1241425Y663575D01*
X1231900Y673100D01*
X1241425Y892175D02*
X1231900Y901700D01*
X1241425Y892175D02*
X1241425Y663575D01*
X647700Y673100D02*
X647700Y774700D01*
X1247775Y403225D02*
X1257300Y393700D01*
X1247775Y403225D02*
X1247775Y815975D01*
X1257300Y825500D01*
X1247775Y1044575D02*
X1257300Y1054100D01*
X1247775Y1044575D02*
X1247775Y815975D01*
X673100Y774700D02*
X673100Y673100D01*
X1222375Y403225D02*
X1231900Y393700D01*
X1222375Y403225D02*
X1222375Y815975D01*
X1231900Y825500D01*
X1222375Y1044575D02*
X1231900Y1054100D01*
X1222375Y1044575D02*
X1222375Y815975D01*
X698500Y774700D02*
X698500Y673100D01*
X1196975Y403225D02*
X1206500Y393700D01*
X1196975Y403225D02*
X1196975Y815975D01*
X1206500Y825500D01*
X1196975Y1044575D02*
X1206500Y1054100D01*
X1196975Y1044575D02*
X1196975Y815975D01*
X723900Y774700D02*
X723900Y673100D01*
X1171575Y403225D02*
X1181100Y393700D01*
X1171575Y650875D02*
X1171575Y815975D01*
X1171575Y650875D02*
X1171575Y403225D01*
X1171575Y815975D02*
X1181100Y825500D01*
X1171575Y1044575D02*
X1181100Y1054100D01*
X1171575Y1044575D02*
X1171575Y815975D01*
D16*
X1171575Y650875D03*
D15*
X749300Y673100D02*
X749300Y774700D01*
X1146175Y403225D02*
X1155700Y393700D01*
X1146175Y781050D02*
X1146175Y815975D01*
X1146175Y781050D02*
X1146175Y403225D01*
X1146175Y815975D02*
X1155700Y825500D01*
X1146175Y1044575D02*
X1155700Y1054100D01*
X1146175Y1044575D02*
X1146175Y815975D01*
X1146175Y781050D02*
X1127125Y781050D01*
D16*
X1127125Y781050D03*
D15*
X1069975Y403225D02*
X1079500Y393700D01*
X1069975Y403225D02*
X1069975Y815975D01*
X1079500Y825500D01*
X1069975Y1044575D02*
X1079500Y1054100D01*
X1069975Y1044575D02*
X1069975Y815975D01*
X333375Y835025D02*
X330200Y838200D01*
X333375Y835025D02*
X333375Y787400D01*
X952500Y650875D02*
X952500Y393700D01*
X952500Y650875D02*
X942975Y660400D01*
X942975Y815975D01*
X952500Y825500D01*
X942975Y1044575D02*
X952500Y1054100D01*
X942975Y1044575D02*
X942975Y815975D01*
D16*
X333375Y787400D03*
D15*
X673100Y914400D02*
X676275Y911225D01*
X676275Y857250D01*
X688975Y844550D01*
X688975Y825500D01*
X692150Y822325D01*
X733425Y822325D01*
X733425Y1044575D01*
X723900Y1054100D01*
X708025Y854075D02*
X723900Y838200D01*
X708025Y854075D02*
X708025Y1044575D01*
X698500Y1054100D01*
X695325Y841375D02*
X698500Y838200D01*
X695325Y841375D02*
X695325Y895350D01*
X682625Y908050D01*
X682625Y1044575D01*
X673100Y1054100D01*
X663575Y847725D02*
X673100Y838200D01*
X663575Y847725D02*
X663575Y1031875D01*
X647700Y1047750D01*
X647700Y1054100D01*
X631825Y854075D02*
X647700Y838200D01*
X631825Y854075D02*
X631825Y1044575D01*
X622300Y1054100D01*
X606425Y854075D02*
X622300Y838200D01*
X606425Y854075D02*
X606425Y1044575D01*
X596900Y1054100D01*
X781050Y234950D02*
X723900Y177800D01*
X781050Y234950D02*
X781050Y704850D01*
D16*
X781050Y704850D03*
D15*
X673100Y177800D02*
X650875Y155575D01*
X339725Y155575D01*
X339725Y663575D01*
X330200Y673100D01*
X622300Y177800D02*
X606425Y161925D01*
X555625Y161925D01*
X555625Y361950D01*
X415925Y501650D01*
X415925Y688975D01*
X355600Y749300D01*
X561975Y187325D02*
X571500Y177800D01*
X561975Y187325D02*
X561975Y463550D01*
X511175Y514350D01*
X511175Y733425D01*
D16*
X511175Y733425D03*
D15*
X257175Y546100D02*
X228600Y574675D01*
X228600Y673100D01*
D16*
X257175Y546100D03*
D15*
X346075Y428625D02*
X355600Y419100D01*
X346075Y428625D02*
X346075Y946150D01*
X365125Y965200D01*
X365125Y1022350D01*
X339725Y1047750D01*
X339725Y1066800D01*
X336550Y1069975D01*
X288925Y1069975D01*
X288925Y987425D01*
X279400Y977900D01*
X263525Y409575D02*
X288925Y384175D01*
X263525Y409575D02*
X263525Y968375D01*
X254000Y977900D01*
D16*
X288925Y384175D03*
D15*
X504825Y777875D02*
X422275Y860425D01*
X504825Y777875D02*
X504825Y482600D01*
X555625Y431800D01*
X555625Y396875D01*
D16*
X422275Y860425D03*
X555625Y396875D03*
D15*
X279400Y914400D02*
X282575Y917575D01*
X282575Y933450D01*
X320675Y971550D01*
X320675Y1044575D01*
X330200Y1054100D01*
X314325Y530225D02*
X304800Y520700D01*
X314325Y530225D02*
X314325Y777875D01*
X403225Y793750D02*
X415925Y806450D01*
X415925Y1044575D01*
X406400Y1054100D01*
D16*
X314325Y777875D03*
X403225Y793750D03*
D15*
X295275Y358775D02*
X279400Y342900D01*
X295275Y358775D02*
X295275Y882650D01*
X320675Y908050D01*
X320675Y942975D01*
X355600Y977900D01*
X390525Y352425D02*
X381000Y342900D01*
X390525Y352425D02*
X390525Y688975D01*
X1638300Y1003300D02*
X1647825Y993775D01*
X1647825Y720725D01*
X1638300Y711200D01*
D16*
X390525Y688975D03*
D15*
X1628775Y866775D02*
X1638300Y876300D01*
X1628775Y866775D02*
X1628775Y568325D01*
X1638300Y558800D01*
X381000Y977900D02*
X381000Y1054100D01*
X669925Y981075D02*
X673100Y977900D01*
X669925Y981075D02*
X669925Y1035050D01*
X657225Y1047750D01*
X657225Y1066800D01*
X612775Y1111250D01*
X76200Y1111250D01*
X76200Y1092200D01*
X304800Y177800D02*
X288925Y161925D01*
X244475Y161925D01*
X244475Y333375D01*
X254000Y342900D01*
M02*
