M48
;GenerationSoftware,Autodesk,EAGLE,9.6.2*%
;CreationDate,2021-07-19T19:29:32Z*%
FMAT,2
ICI,OFF
METRIC,TZ,000.000
T4C0.254
T3C0.813
T2C1.016
T1C2.794
%
G90
M71
T1
X2540Y101606
X2540Y12694
T2
X10160Y93980
X10160Y91440
X10160Y88900
X10160Y86360
X10160Y83820
X10160Y81280
X10160Y78740
X10160Y76200
X10160Y73660
X10160Y71120
X10160Y68580
X10160Y66040
X10160Y63500
X10160Y60960
X10160Y58420
X7620Y96520
X7620Y93980
X7620Y91440
X7620Y88900
X7620Y86360
X7620Y83820
X7620Y81280
X7620Y78740
X7620Y76200
X7620Y73660
X7620Y71120
X7620Y68580
X7620Y66040
X7620Y63500
X7620Y60960
X7620Y58420
X5080Y96520
X5080Y93980
X5080Y91440
X5080Y88900
X5080Y86360
X5080Y83820
X5080Y81280
X5080Y78740
X5080Y76200
X5080Y73660
X5080Y71120
X5080Y68580
X5080Y66040
X5080Y63500
X5080Y60960
X5080Y58420
X175260Y111760
X10160Y53340
X10160Y50800
X10160Y48260
X10160Y45720
X10160Y43180
X10160Y40640
X10160Y38100
X10160Y35560
X10160Y33020
X10160Y30480
X10160Y27940
X10160Y25400
X10160Y22860
X10160Y20320
X10160Y17780
X7620Y55880
X7620Y53340
X7620Y50800
X7620Y48260
X7620Y45720
X7620Y43180
X7620Y40640
X7620Y38100
X7620Y35560
X7620Y33020
X7620Y30480
X7620Y27940
X7620Y25400
X7620Y22860
X7620Y20320
X7620Y17780
X5080Y55880
X5080Y53340
X5080Y50800
X5080Y48260
X5080Y45720
X5080Y43180
X5080Y40640
X5080Y38100
X5080Y35560
X5080Y33020
X5080Y30480
X5080Y27940
X5080Y25400
X5080Y22860
X5080Y20320
X5080Y17780
X10160Y96520
X10160Y55880
T3
X119380Y19050
X96520Y95250
X139700Y17780
X137160Y17780
X142240Y3810
X152400Y3810
X139700Y44450
X137160Y44450
X142240Y30480
X152400Y30480
X139700Y71120
X137160Y71120
X142240Y57150
X152400Y57150
X139700Y97790
X137160Y97790
X142240Y83820
X152400Y83820
X104140Y17780
X101600Y17780
X106680Y3810
X116840Y3810
X104140Y44450
X101600Y44450
X106680Y30480
X116840Y30480
X104140Y71120
X101600Y71120
X106680Y57150
X116840Y57150
X104140Y97790
X101600Y97790
X106680Y83820
X116840Y83820
X68580Y17780
X66040Y17780
X71120Y3810
X81280Y3810
X68580Y44450
X66040Y44450
X71120Y30480
X81280Y30480
X68580Y71120
X66040Y71120
X71120Y57150
X81280Y57150
X68580Y97790
X66040Y97790
X71120Y83820
X81280Y83820
X33020Y17780
X30480Y17780
X35560Y3810
X45720Y3810
X33020Y44450
X30480Y44450
X35560Y30480
X45720Y30480
X33020Y71120
X30480Y71120
X35560Y57150
X45720Y57150
X33020Y97790
X30480Y97790
X35560Y83820
X45720Y83820
X15240Y16510
X15240Y19050
X15240Y21590
X15240Y24130
X15240Y26670
X26670Y107950
X29210Y107950
X15240Y2540
X15240Y5080
X7620Y2540
X7620Y5080
X15240Y10160
X15240Y7620
X7620Y7620
X7620Y10160
X24130Y104140
X21590Y104140
X19050Y104140
X16510Y104140
X13970Y104140
X11430Y104140
X13970Y111760
X11430Y111760
X16510Y111760
X19050Y111760
X8890Y104140
X8890Y111760
X21590Y111760
X24130Y111760
X26670Y22860
X26670Y20320
X26670Y17780
X26670Y15240
X26670Y12700
X26670Y10160
X26670Y7620
X26670Y5080
X19050Y12700
X19050Y10160
X19050Y15240
X19050Y17780
X19050Y5080
X19050Y7620
X19050Y20320
X19050Y22860
X24130Y25400
X21590Y25400
X24130Y50800
X21590Y50800
X24130Y76200
X21590Y76200
X24130Y99060
X21590Y99060
X173990Y26670
X171450Y26670
X173990Y53340
X171450Y53340
X173990Y80010
X171450Y80010
X173990Y106680
X171450Y106680
X138430Y26670
X175260Y3810
X172720Y3810
X175260Y10160
X175260Y20320
X53340Y107950
X53340Y105410
X53340Y92710
X53340Y90170
X53340Y102870
X53340Y100330
X53340Y95250
X53340Y97790
X53340Y87630
X53340Y85090
X60960Y85090
X60960Y87630
X60960Y90170
X60960Y92710
X60960Y95250
X60960Y97790
X60960Y100330
X60960Y102870
X60960Y105410
X60960Y107950
X48260Y106680
X48260Y104140
X48260Y101600
X48260Y99060
X48260Y96520
X48260Y93980
X48260Y91440
X48260Y88900
X48260Y86360
X53340Y81280
X53340Y78740
X53340Y66040
X53340Y63500
X53340Y76200
X53340Y73660
X53340Y68580
X53340Y71120
X53340Y60960
X53340Y58420
X60960Y58420
X60960Y60960
X60960Y63500
X60960Y66040
X60960Y68580
X60960Y71120
X60960Y73660
X60960Y76200
X60960Y78740
X60960Y81280
X48260Y80010
X48260Y77470
X48260Y74930
X48260Y72390
X48260Y69850
X48260Y67310
X48260Y64770
X48260Y62230
X48260Y59690
X53340Y54610
X53340Y52070
X53340Y39370
X53340Y36830
X53340Y49530
X53340Y46990
X53340Y41910
X53340Y44450
X53340Y34290
X53340Y31750
X60960Y31750
X60960Y34290
X60960Y36830
X60960Y39370
X60960Y41910
X60960Y44450
X60960Y46990
X60960Y49530
X60960Y52070
X60960Y54610
X48260Y53340
X48260Y50800
X48260Y48260
X48260Y45720
X48260Y43180
X48260Y40640
X48260Y38100
X48260Y35560
X48260Y33020
X53340Y27940
X53340Y25400
X53340Y12700
X53340Y10160
X53340Y22860
X53340Y20320
X53340Y15240
X53340Y17780
X53340Y7620
X53340Y5080
X60960Y5080
X60960Y7620
X60960Y10160
X60960Y12700
X60960Y15240
X60960Y17780
X60960Y20320
X60960Y22860
X60960Y25400
X60960Y27940
X48260Y26670
X48260Y24130
X48260Y21590
X48260Y19050
X48260Y16510
X48260Y13970
X48260Y11430
X48260Y8890
X48260Y6350
X88900Y107950
X88900Y105410
X88900Y92710
X88900Y90170
X88900Y102870
X88900Y100330
X88900Y95250
X88900Y97790
X88900Y87630
X88900Y85090
X96520Y85090
X96520Y87630
X96520Y90170
X96520Y92710
X167640Y71120
X96520Y97790
X96520Y100330
X96520Y102870
X96520Y105410
X96520Y107950
X83820Y106680
X83820Y104140
X83820Y101600
X83820Y99060
X83820Y96520
X83820Y93980
X83820Y91440
X83820Y88900
X83820Y86360
X88900Y81280
X88900Y78740
X88900Y66040
X88900Y63500
X88900Y76200
X88900Y73660
X88900Y68580
X88900Y71120
X88900Y60960
X88900Y58420
X96520Y58420
X96520Y60960
X96520Y63500
X96520Y66040
X96520Y68580
X96520Y71120
X96520Y73660
X96520Y76200
X96520Y78740
X96520Y81280
X83820Y80010
X83820Y77470
X83820Y74930
X83820Y72390
X83820Y69850
X83820Y67310
X83820Y64770
X83820Y62230
X83820Y59690
X88900Y54610
X88900Y52070
X88900Y39370
X88900Y36830
X88900Y49530
X88900Y46990
X88900Y41910
X88900Y44450
X88900Y34290
X88900Y31750
X96520Y31750
X96520Y34290
X96520Y36830
X96520Y39370
X96520Y41910
X96520Y44450
X96520Y46990
X96520Y49530
X96520Y52070
X96520Y54610
X83820Y53340
X83820Y50800
X83820Y48260
X83820Y45720
X83820Y43180
X83820Y40640
X83820Y38100
X83820Y35560
X83820Y33020
X88900Y27940
X88900Y25400
X88900Y12700
X88900Y10160
X88900Y22860
X88900Y20320
X88900Y15240
X88900Y17780
X88900Y7620
X88900Y5080
X96520Y5080
X96520Y7620
X96520Y10160
X96520Y12700
X96520Y15240
X96520Y17780
X96520Y20320
X96520Y22860
X96520Y25400
X96520Y27940
X83820Y26670
X83820Y24130
X83820Y21590
X83820Y19050
X83820Y16510
X83820Y13970
X83820Y11430
X83820Y8890
X83820Y6350
X124460Y107950
X124460Y105410
X124460Y92710
X124460Y90170
X124460Y102870
X124460Y100330
X124460Y95250
X124460Y97790
X124460Y87630
X124460Y85090
X132080Y85090
X132080Y87630
X132080Y90170
X132080Y92710
X132080Y95250
X132080Y97790
X132080Y100330
X132080Y102870
X132080Y105410
X132080Y107950
X119380Y106680
X119380Y104140
X119380Y101600
X119380Y99060
X119380Y96520
X119380Y93980
X119380Y91440
X119380Y88900
X119380Y86360
X124460Y81280
X124460Y78740
X124460Y66040
X124460Y63500
X124460Y76200
X124460Y73660
X124460Y68580
X124460Y71120
X124460Y60960
X124460Y58420
X132080Y58420
X132080Y60960
X132080Y63500
X132080Y66040
X132080Y68580
X132080Y71120
X132080Y73660
X132080Y76200
X132080Y78740
X132080Y81280
X119380Y80010
X119380Y77470
X119380Y74930
X119380Y72390
X119380Y69850
X119380Y67310
X119380Y64770
X119380Y62230
X119380Y59690
X124460Y54610
X124460Y52070
X124460Y39370
X124460Y36830
X124460Y49530
X124460Y46990
X124460Y41910
X124460Y44450
X124460Y34290
X124460Y31750
X132080Y31750
X132080Y34290
X132080Y36830
X132080Y39370
X132080Y41910
X132080Y44450
X132080Y46990
X132080Y49530
X132080Y52070
X132080Y54610
X119380Y53340
X119380Y50800
X119380Y48260
X119380Y45720
X119380Y43180
X119380Y40640
X119380Y38100
X119380Y35560
X119380Y33020
X124460Y27940
X124460Y25400
X124460Y12700
X124460Y10160
X124460Y22860
X124460Y20320
X124460Y15240
X124460Y17780
X124460Y7620
X124460Y5080
X132080Y5080
X132080Y7620
X132080Y10160
X132080Y12700
X132080Y15240
X132080Y17780
X132080Y20320
X132080Y22860
X132080Y25400
X132080Y27940
X119380Y26670
X119380Y24130
X119380Y21590
X135890Y26670
X119380Y16510
X119380Y13970
X119380Y11430
X119380Y8890
X119380Y6350
X160020Y107950
X160020Y105410
X160020Y92710
X160020Y90170
X160020Y102870
X160020Y100330
X160020Y95250
X160020Y97790
X160020Y87630
X160020Y85090
X167640Y85090
X167640Y87630
X167640Y90170
X167640Y92710
X167640Y95250
X167640Y97790
X167640Y100330
X167640Y102870
X167640Y105410
X167640Y107950
X154940Y106680
X154940Y104140
X154940Y101600
X154940Y99060
X154940Y96520
X154940Y93980
X154940Y91440
X154940Y88900
X154940Y86360
X160020Y81280
X160020Y78740
X160020Y66040
X160020Y63500
X160020Y76200
X160020Y73660
X160020Y68580
X160020Y71120
X160020Y60960
X160020Y58420
X167640Y58420
X167640Y60960
X167640Y63500
X167640Y66040
X167640Y68580
X107950Y87630
X167640Y73660
X167640Y76200
X167640Y78740
X167640Y81280
X154940Y80010
X154940Y77470
X154940Y74930
X154940Y72390
X154940Y69850
X154940Y67310
X154940Y64770
X154940Y62230
X154940Y59690
X160020Y54610
X160020Y52070
X160020Y39370
X160020Y36830
X160020Y49530
X160020Y46990
X160020Y41910
X160020Y44450
X160020Y34290
X160020Y31750
X167640Y31750
X167640Y34290
X167640Y36830
X167640Y39370
X167640Y41910
X167640Y44450
X167640Y46990
X167640Y49530
X167640Y52070
X167640Y54610
X154940Y53340
X154940Y50800
X154940Y48260
X154940Y45720
X154940Y43180
X154940Y40640
X154940Y38100
X154940Y35560
X154940Y33020
X160020Y27940
X160020Y25400
X160020Y12700
X160020Y10160
X160020Y22860
X160020Y20320
X160020Y15240
X160020Y17780
X160020Y7620
X160020Y5080
X167640Y5080
X167640Y7620
X167640Y10160
X167640Y12700
X167640Y15240
X167640Y17780
X167640Y20320
X167640Y22860
X167640Y25400
X167640Y27940
X154940Y26670
X154940Y24130
X154940Y21590
X154940Y19050
X154940Y16510
X154940Y13970
X154940Y11430
X154940Y8890
X154940Y6350
X19050Y96520
X19050Y93980
X19050Y81280
X26670Y81280
X19050Y91440
X19050Y88900
X19050Y83820
X19050Y86360
X26670Y83820
X26670Y86360
X26670Y88900
X26670Y91440
X26670Y93980
X26670Y96520
X19050Y73660
X19050Y71120
X19050Y58420
X19050Y55880
X19050Y68580
X19050Y66040
X19050Y60960
X19050Y63500
X26670Y55880
X26670Y58420
X26670Y60960
X26670Y63500
X26670Y66040
X26670Y68580
X26670Y71120
X26670Y73660
X19050Y48260
X19050Y45720
X19050Y33020
X19050Y30480
X19050Y43180
X19050Y40640
X19050Y35560
X19050Y38100
X26670Y30480
X26670Y33020
X26670Y35560
X26670Y38100
X26670Y40640
X26670Y43180
X26670Y45720
X26670Y48260
X44450Y87630
X44450Y90170
X44450Y102870
X44450Y105410
X44450Y92710
X44450Y95250
X44450Y100330
X44450Y97790
X36830Y105410
X36830Y102870
X36830Y100330
X36830Y97790
X36830Y95250
X36830Y92710
X36830Y90170
X36830Y87630
X44450Y60960
X44450Y63500
X44450Y76200
X44450Y78740
X44450Y66040
X44450Y68580
X44450Y73660
X44450Y71120
X36830Y78740
X36830Y76200
X36830Y73660
X36830Y71120
X36830Y68580
X36830Y66040
X36830Y63500
X36830Y60960
X44450Y34290
X44450Y36830
X44450Y49530
X44450Y52070
X44450Y39370
X44450Y41910
X44450Y46990
X44450Y44450
X36830Y52070
X36830Y49530
X36830Y46990
X36830Y44450
X36830Y41910
X36830Y39370
X36830Y36830
X36830Y34290
X44450Y7620
X44450Y10160
X44450Y22860
X44450Y25400
X44450Y12700
X44450Y15240
X44450Y20320
X44450Y17780
X36830Y25400
X36830Y22860
X36830Y20320
X36830Y17780
X36830Y15240
X36830Y12700
X36830Y10160
X36830Y7620
X80010Y87630
X80010Y90170
X80010Y102870
X80010Y105410
X80010Y92710
X80010Y95250
X80010Y100330
X80010Y97790
X72390Y105410
X72390Y102870
X72390Y100330
X72390Y97790
X72390Y95250
X72390Y92710
X72390Y90170
X72390Y87630
X80010Y60960
X80010Y63500
X80010Y76200
X80010Y78740
X80010Y66040
X80010Y68580
X80010Y73660
X80010Y71120
X72390Y78740
X72390Y76200
X72390Y73660
X72390Y71120
X72390Y68580
X72390Y66040
X72390Y63500
X72390Y60960
X80010Y34290
X80010Y36830
X80010Y49530
X80010Y52070
X80010Y39370
X80010Y41910
X80010Y46990
X80010Y44450
X72390Y52070
X72390Y49530
X72390Y46990
X72390Y44450
X72390Y41910
X72390Y39370
X72390Y36830
X72390Y34290
X80010Y7620
X80010Y10160
X80010Y22860
X80010Y25400
X80010Y12700
X80010Y15240
X80010Y20320
X80010Y17780
X72390Y25400
X72390Y22860
X72390Y20320
X72390Y17780
X72390Y15240
X72390Y12700
X72390Y10160
X72390Y7620
X115570Y87630
X115570Y90170
X115570Y102870
X115570Y105410
X115570Y92710
X115570Y95250
X115570Y100330
X115570Y97790
X107950Y105410
X107950Y102870
X107950Y100330
X107950Y97790
X107950Y95250
X107950Y92710
X107950Y90170
X138430Y53340
X115570Y60960
X115570Y63500
X115570Y76200
X115570Y78740
X115570Y66040
X115570Y68580
X115570Y73660
X115570Y71120
X107950Y78740
X107950Y76200
X107950Y73660
X107950Y71120
X107950Y68580
X107950Y66040
X107950Y63500
X107950Y60960
X115570Y34290
X115570Y36830
X115570Y49530
X115570Y52070
X115570Y39370
X115570Y41910
X115570Y46990
X115570Y44450
X107950Y52070
X107950Y49530
X107950Y46990
X107950Y44450
X107950Y41910
X107950Y39370
X107950Y36830
X107950Y34290
X115570Y7620
X115570Y10160
X115570Y22860
X115570Y25400
X115570Y12700
X115570Y15240
X115570Y20320
X115570Y17780
X107950Y25400
X107950Y22860
X107950Y20320
X107950Y17780
X107950Y15240
X107950Y12700
X107950Y10160
X107950Y7620
X151130Y87630
X151130Y90170
X151130Y102870
X151130Y105410
X151130Y92710
X151130Y95250
X151130Y100330
X151130Y97790
X143510Y105410
X143510Y102870
X143510Y100330
X143510Y97790
X143510Y95250
X143510Y92710
X143510Y90170
X143510Y87630
X151130Y60960
X151130Y63500
X151130Y76200
X151130Y78740
X151130Y66040
X151130Y68580
X151130Y73660
X151130Y71120
X143510Y78740
X143510Y76200
X143510Y73660
X143510Y71120
X143510Y68580
X143510Y66040
X143510Y63500
X143510Y60960
X151130Y34290
X151130Y36830
X151130Y49530
X151130Y52070
X151130Y39370
X151130Y41910
X151130Y46990
X151130Y44450
X143510Y52070
X143510Y49530
X143510Y46990
X143510Y44450
X143510Y41910
X143510Y39370
X143510Y36830
X143510Y34290
X151130Y7620
X151130Y10160
X151130Y22860
X151130Y25400
X151130Y12700
X151130Y15240
X151130Y20320
X151130Y17780
X143510Y25400
X143510Y22860
X143510Y20320
X143510Y17780
X143510Y15240
X143510Y12700
X143510Y10160
X143510Y7620
X64770Y106680
X67310Y106680
X64770Y80010
X67310Y80010
X64770Y53340
X67310Y53340
X64770Y26670
X67310Y26670
X100330Y106680
X102870Y106680
X100330Y80010
X102870Y80010
X100330Y53340
X102870Y53340
X100330Y26670
X102870Y26670
X135890Y106680
X138430Y106680
X135890Y80010
X138430Y80010
X135890Y53340
T4
X29845Y27940
X55245Y26035
X148273Y66040
X126682Y47307
X91122Y76835
X55880Y102235
X56515Y41593
X162878Y72073
X127635Y42228
X131763Y16510
X127635Y70803
X162878Y45402
X56515Y70485
X6350Y58102
X91757Y60642
X91757Y87313
X91757Y35878
X11430Y61912
X98742Y16192
X165418Y66993
X165418Y91757
X165418Y40323
X57785Y90805
X129857Y90487
X46355Y77788
X55245Y91440
X63182Y61277
X99377Y62547
X135573Y18733
X129222Y99377
X101282Y22542
X101282Y41593
X57785Y40323
X91122Y65723
X122237Y66040
X162243Y66993
X162243Y40958
X134938Y40323
X157798Y63817
X92075Y15557
X134303Y25082
X134303Y51752
X57150Y24765
X57150Y28892
X62547Y89217
X63817Y52387
X134303Y55562
X16192Y47307
X16828Y46672
X16828Y68898
X11430Y26670
X14287Y43180
X15557Y68263
X15557Y47942
X14287Y63182
X13335Y64135
X3810Y34925
X23177Y36195
X14287Y79058
X12700Y79693
X22542Y84773
X22542Y60325
X12700Y87313
X15557Y77153
X31750Y55245
X42545Y91122
X59055Y94615
X49847Y95250
X46672Y66358
X50482Y66358
X41593Y64452
X41593Y73025
X57785Y66675
X49847Y68898
X55245Y32067
X42228Y23177
X59055Y23812
X91757Y94615
X85408Y95250
X93980Y65723
X85725Y68580
X93980Y46672
X93662Y37465
X86678Y41910
X77153Y22542
X93345Y13335
X120967Y95250
X128270Y66993
X121285Y66675
X128270Y40640
X120967Y41910
X130175Y14287
X156528Y95250
X156528Y41910
X148273Y22542
X28575Y93345
X55245Y79375
X33655Y80963
X58737Y54292
X32702Y55245
X31115Y57785
X14922Y63817
X14922Y42545
X38418Y60325
X43180Y107315
X29845Y90805
X31115Y40323
X28257Y37465
X25400Y16828
X139700Y30480
X137478Y29210
X112077Y79058
X104775Y33338
X46355Y109537
X38100Y35878
X130175Y27305
X129857Y54292
X125730Y79693
X102235Y60642
X51117Y55880
X49847Y54610
X22542Y32385
X22542Y54927
X69533Y54610
X65723Y56515
X65405Y60007
X67310Y88582
X25082Y79058
X54927Y62547
M30