G04 EAGLE Gerber RS-274X export*
G75*
%MOMM*%
%FSLAX34Y34*%
%LPD*%
%INSoldermask Bottom*%
%IPPOS*%
%AMOC8*
5,1,8,0,0,1.08239X$1,22.5*%
G01*
%ADD10P,1.787026X8X202.500000*%
%ADD11C,2.921000*%
%ADD12P,1.457113X8X202.500000*%
%ADD13C,1.346200*%
%ADD14C,0.685800*%


D10*
X50800Y177800D03*
X50800Y203200D03*
X50800Y228600D03*
X50800Y254000D03*
X50800Y279400D03*
X50800Y304800D03*
X50800Y330200D03*
X50800Y355600D03*
X50800Y381000D03*
X50800Y406400D03*
X50800Y431800D03*
X50800Y457200D03*
X50800Y482600D03*
X50800Y508000D03*
X50800Y533400D03*
X50800Y558800D03*
X76200Y177800D03*
X76200Y203200D03*
X76200Y228600D03*
X76200Y254000D03*
X76200Y279400D03*
X76200Y304800D03*
X76200Y330200D03*
X76200Y355600D03*
X76200Y381000D03*
X76200Y406400D03*
X76200Y431800D03*
X76200Y457200D03*
X76200Y482600D03*
X76200Y508000D03*
X76200Y533400D03*
X76200Y558800D03*
X101600Y177800D03*
X101600Y203200D03*
X101600Y228600D03*
X101600Y254000D03*
X101600Y279400D03*
X101600Y304800D03*
X101600Y330200D03*
X101600Y355600D03*
X101600Y381000D03*
X101600Y406400D03*
X101600Y431800D03*
X101600Y457200D03*
X101600Y482600D03*
X101600Y508000D03*
X101600Y533400D03*
X101600Y558800D03*
X50800Y584200D03*
X50800Y609600D03*
X50800Y635000D03*
X50800Y660400D03*
X50800Y685800D03*
X50800Y711200D03*
X50800Y736600D03*
X50800Y762000D03*
X50800Y787400D03*
X50800Y812800D03*
X50800Y838200D03*
X50800Y863600D03*
X50800Y889000D03*
X50800Y914400D03*
X50800Y939800D03*
X50800Y965200D03*
X76200Y584200D03*
X76200Y609600D03*
X76200Y635000D03*
X76200Y660400D03*
X76200Y685800D03*
X76200Y711200D03*
X76200Y736600D03*
X76200Y762000D03*
X76200Y787400D03*
X76200Y812800D03*
X76200Y838200D03*
X76200Y863600D03*
X76200Y889000D03*
X76200Y914400D03*
X76200Y939800D03*
X76200Y965200D03*
X101600Y584200D03*
X101600Y609600D03*
X101600Y635000D03*
X101600Y660400D03*
X101600Y685800D03*
X101600Y711200D03*
X101600Y736600D03*
X101600Y762000D03*
X101600Y787400D03*
X101600Y812800D03*
X101600Y838200D03*
X101600Y863600D03*
X101600Y889000D03*
X101600Y914400D03*
X101600Y939800D03*
X101600Y965200D03*
D11*
X25400Y1016064D03*
X25400Y126936D03*
D12*
X1752600Y38100D03*
X1727200Y38100D03*
X1651000Y38100D03*
X1549400Y38100D03*
D13*
X317500Y832104D02*
X317500Y844296D01*
X342900Y844296D02*
X342900Y832104D01*
X469900Y832104D02*
X469900Y844296D01*
X495300Y844296D02*
X495300Y832104D01*
X368300Y832104D02*
X368300Y844296D01*
X393700Y844296D02*
X393700Y832104D01*
X444500Y832104D02*
X444500Y844296D01*
X419100Y844296D02*
X419100Y832104D01*
X520700Y832104D02*
X520700Y844296D01*
X546100Y844296D02*
X546100Y832104D01*
X546100Y908304D02*
X546100Y920496D01*
X520700Y920496D02*
X520700Y908304D01*
X495300Y908304D02*
X495300Y920496D01*
X469900Y920496D02*
X469900Y908304D01*
X444500Y908304D02*
X444500Y920496D01*
X419100Y920496D02*
X419100Y908304D01*
X393700Y908304D02*
X393700Y920496D01*
X368300Y920496D02*
X368300Y908304D01*
X342900Y908304D02*
X342900Y920496D01*
X317500Y920496D02*
X317500Y908304D01*
X317500Y310896D02*
X317500Y298704D01*
X342900Y298704D02*
X342900Y310896D01*
X469900Y310896D02*
X469900Y298704D01*
X495300Y298704D02*
X495300Y310896D01*
X368300Y310896D02*
X368300Y298704D01*
X393700Y298704D02*
X393700Y310896D01*
X444500Y310896D02*
X444500Y298704D01*
X419100Y298704D02*
X419100Y310896D01*
X520700Y310896D02*
X520700Y298704D01*
X546100Y298704D02*
X546100Y310896D01*
X546100Y374904D02*
X546100Y387096D01*
X520700Y387096D02*
X520700Y374904D01*
X495300Y374904D02*
X495300Y387096D01*
X469900Y387096D02*
X469900Y374904D01*
X444500Y374904D02*
X444500Y387096D01*
X419100Y387096D02*
X419100Y374904D01*
X393700Y374904D02*
X393700Y387096D01*
X368300Y387096D02*
X368300Y374904D01*
X342900Y374904D02*
X342900Y387096D01*
X317500Y387096D02*
X317500Y374904D01*
X317500Y654304D02*
X317500Y666496D01*
X342900Y666496D02*
X342900Y654304D01*
X469900Y654304D02*
X469900Y666496D01*
X495300Y666496D02*
X495300Y654304D01*
X368300Y654304D02*
X368300Y666496D01*
X393700Y666496D02*
X393700Y654304D01*
X444500Y654304D02*
X444500Y666496D01*
X419100Y666496D02*
X419100Y654304D01*
X520700Y654304D02*
X520700Y666496D01*
X546100Y666496D02*
X546100Y654304D01*
X546100Y730504D02*
X546100Y742696D01*
X520700Y742696D02*
X520700Y730504D01*
X495300Y730504D02*
X495300Y742696D01*
X469900Y742696D02*
X469900Y730504D01*
X444500Y730504D02*
X444500Y742696D01*
X419100Y742696D02*
X419100Y730504D01*
X393700Y730504D02*
X393700Y742696D01*
X368300Y742696D02*
X368300Y730504D01*
X342900Y730504D02*
X342900Y742696D01*
X317500Y742696D02*
X317500Y730504D01*
X317500Y488696D02*
X317500Y476504D01*
X342900Y476504D02*
X342900Y488696D01*
X469900Y488696D02*
X469900Y476504D01*
X495300Y476504D02*
X495300Y488696D01*
X368300Y488696D02*
X368300Y476504D01*
X393700Y476504D02*
X393700Y488696D01*
X444500Y488696D02*
X444500Y476504D01*
X419100Y476504D02*
X419100Y488696D01*
X520700Y488696D02*
X520700Y476504D01*
X546100Y476504D02*
X546100Y488696D01*
X546100Y552704D02*
X546100Y564896D01*
X520700Y564896D02*
X520700Y552704D01*
X495300Y552704D02*
X495300Y564896D01*
X469900Y564896D02*
X469900Y552704D01*
X444500Y552704D02*
X444500Y564896D01*
X419100Y564896D02*
X419100Y552704D01*
X393700Y552704D02*
X393700Y564896D01*
X368300Y564896D02*
X368300Y552704D01*
X342900Y552704D02*
X342900Y564896D01*
X317500Y564896D02*
X317500Y552704D01*
X393700Y133096D02*
X393700Y120904D01*
X419100Y120904D02*
X419100Y133096D01*
X546100Y133096D02*
X546100Y120904D01*
X546100Y197104D02*
X546100Y209296D01*
X444500Y133096D02*
X444500Y120904D01*
X469900Y120904D02*
X469900Y133096D01*
X520700Y133096D02*
X520700Y120904D01*
X495300Y120904D02*
X495300Y133096D01*
X520700Y197104D02*
X520700Y209296D01*
X495300Y209296D02*
X495300Y197104D01*
X469900Y197104D02*
X469900Y209296D01*
X444500Y209296D02*
X444500Y197104D01*
X419100Y197104D02*
X419100Y209296D01*
X393700Y209296D02*
X393700Y197104D01*
X596900Y870204D02*
X596900Y882396D01*
X622300Y882396D02*
X622300Y870204D01*
X647700Y870204D02*
X647700Y882396D01*
X673100Y882396D02*
X673100Y870204D01*
X698500Y870204D02*
X698500Y882396D01*
X723900Y882396D02*
X723900Y870204D01*
X749300Y870204D02*
X749300Y882396D01*
X774700Y882396D02*
X774700Y870204D01*
X800100Y870204D02*
X800100Y882396D01*
X596900Y348996D02*
X596900Y336804D01*
X622300Y336804D02*
X622300Y348996D01*
X647700Y348996D02*
X647700Y336804D01*
X673100Y336804D02*
X673100Y348996D01*
X698500Y348996D02*
X698500Y336804D01*
X723900Y336804D02*
X723900Y348996D01*
X749300Y348996D02*
X749300Y336804D01*
X774700Y336804D02*
X774700Y348996D01*
X800100Y348996D02*
X800100Y336804D01*
X939800Y832104D02*
X939800Y844296D01*
X965200Y844296D02*
X965200Y832104D01*
X1092200Y832104D02*
X1092200Y844296D01*
X1117600Y844296D02*
X1117600Y832104D01*
X990600Y832104D02*
X990600Y844296D01*
X1016000Y844296D02*
X1016000Y832104D01*
X1066800Y832104D02*
X1066800Y844296D01*
X1041400Y844296D02*
X1041400Y832104D01*
X1143000Y832104D02*
X1143000Y844296D01*
X1168400Y844296D02*
X1168400Y832104D01*
X1168400Y908304D02*
X1168400Y920496D01*
X1143000Y920496D02*
X1143000Y908304D01*
X1117600Y908304D02*
X1117600Y920496D01*
X1092200Y920496D02*
X1092200Y908304D01*
X1066800Y908304D02*
X1066800Y920496D01*
X1041400Y920496D02*
X1041400Y908304D01*
X1016000Y908304D02*
X1016000Y920496D01*
X990600Y920496D02*
X990600Y908304D01*
X965200Y908304D02*
X965200Y920496D01*
X939800Y920496D02*
X939800Y908304D01*
X939800Y666496D02*
X939800Y654304D01*
X965200Y654304D02*
X965200Y666496D01*
X1092200Y666496D02*
X1092200Y654304D01*
X1117600Y654304D02*
X1117600Y666496D01*
X990600Y666496D02*
X990600Y654304D01*
X1016000Y654304D02*
X1016000Y666496D01*
X1066800Y666496D02*
X1066800Y654304D01*
X1041400Y654304D02*
X1041400Y666496D01*
X1143000Y666496D02*
X1143000Y654304D01*
X1168400Y654304D02*
X1168400Y666496D01*
X1168400Y730504D02*
X1168400Y742696D01*
X1143000Y742696D02*
X1143000Y730504D01*
X1117600Y730504D02*
X1117600Y742696D01*
X1092200Y742696D02*
X1092200Y730504D01*
X1066800Y730504D02*
X1066800Y742696D01*
X1041400Y742696D02*
X1041400Y730504D01*
X1016000Y730504D02*
X1016000Y742696D01*
X990600Y742696D02*
X990600Y730504D01*
X965200Y730504D02*
X965200Y742696D01*
X939800Y742696D02*
X939800Y730504D01*
X1231900Y870204D02*
X1231900Y882396D01*
X1257300Y882396D02*
X1257300Y870204D01*
X1282700Y870204D02*
X1282700Y882396D01*
X1308100Y882396D02*
X1308100Y870204D01*
X1333500Y870204D02*
X1333500Y882396D01*
X1358900Y882396D02*
X1358900Y870204D01*
X1384300Y870204D02*
X1384300Y882396D01*
X1409700Y882396D02*
X1409700Y870204D01*
X1435100Y870204D02*
X1435100Y882396D01*
X1231900Y348996D02*
X1231900Y336804D01*
X1257300Y336804D02*
X1257300Y348996D01*
X1282700Y348996D02*
X1282700Y336804D01*
X1308100Y336804D02*
X1308100Y348996D01*
X1333500Y348996D02*
X1333500Y336804D01*
X1358900Y336804D02*
X1358900Y348996D01*
X1384300Y348996D02*
X1384300Y336804D01*
X1409700Y336804D02*
X1409700Y348996D01*
X1435100Y348996D02*
X1435100Y336804D01*
X939800Y476504D02*
X939800Y488696D01*
X965200Y488696D02*
X965200Y476504D01*
X1092200Y476504D02*
X1092200Y488696D01*
X1117600Y488696D02*
X1117600Y476504D01*
X990600Y476504D02*
X990600Y488696D01*
X1016000Y488696D02*
X1016000Y476504D01*
X1066800Y476504D02*
X1066800Y488696D01*
X1041400Y488696D02*
X1041400Y476504D01*
X1143000Y476504D02*
X1143000Y488696D01*
X1168400Y488696D02*
X1168400Y476504D01*
X1168400Y552704D02*
X1168400Y564896D01*
X1143000Y564896D02*
X1143000Y552704D01*
X1117600Y552704D02*
X1117600Y564896D01*
X1092200Y564896D02*
X1092200Y552704D01*
X1066800Y552704D02*
X1066800Y564896D01*
X1041400Y564896D02*
X1041400Y552704D01*
X1016000Y552704D02*
X1016000Y564896D01*
X990600Y564896D02*
X990600Y552704D01*
X965200Y552704D02*
X965200Y564896D01*
X939800Y564896D02*
X939800Y552704D01*
X939800Y310896D02*
X939800Y298704D01*
X965200Y298704D02*
X965200Y310896D01*
X1092200Y310896D02*
X1092200Y298704D01*
X1117600Y298704D02*
X1117600Y310896D01*
X990600Y310896D02*
X990600Y298704D01*
X1016000Y298704D02*
X1016000Y310896D01*
X1066800Y310896D02*
X1066800Y298704D01*
X1041400Y298704D02*
X1041400Y310896D01*
X1143000Y310896D02*
X1143000Y298704D01*
X1168400Y298704D02*
X1168400Y310896D01*
X1168400Y374904D02*
X1168400Y387096D01*
X1143000Y387096D02*
X1143000Y374904D01*
X1117600Y374904D02*
X1117600Y387096D01*
X1092200Y387096D02*
X1092200Y374904D01*
X1066800Y374904D02*
X1066800Y387096D01*
X1041400Y387096D02*
X1041400Y374904D01*
X1016000Y374904D02*
X1016000Y387096D01*
X990600Y387096D02*
X990600Y374904D01*
X965200Y374904D02*
X965200Y387096D01*
X939800Y387096D02*
X939800Y374904D01*
D14*
X574675Y847725D03*
X549275Y339725D03*
X1165225Y342900D03*
X1193800Y838200D03*
X1146175Y815975D03*
X504825Y714375D03*
X504825Y809625D03*
X492125Y803275D03*
X1101725Y720725D03*
X174625Y746125D03*
X349250Y806450D03*
X1190625Y660400D03*
X476250Y781050D03*
X1158875Y358775D03*
X536575Y866775D03*
X533400Y587375D03*
X460375Y254000D03*
X460375Y266700D03*
X1111250Y288925D03*
X171450Y358775D03*
X479425Y698500D03*
X485775Y815975D03*
X377825Y800100D03*
X209550Y806450D03*
X295275Y514350D03*
X574675Y666750D03*
X581025Y701675D03*
X206375Y679450D03*
X568325Y431800D03*
X530225Y892175D03*
X165100Y793750D03*
X720725Y904875D03*
X447675Y514350D03*
X720725Y714375D03*
X193675Y704850D03*
X733425Y942975D03*
X206375Y723900D03*
X568325Y333375D03*
X333375Y444500D03*
X409575Y327025D03*
X434975Y358775D03*
X574675Y466725D03*
X574675Y552450D03*
X581025Y539750D03*
X187325Y546100D03*
X739775Y403225D03*
X320675Y596900D03*
X273050Y247650D03*
X200025Y473075D03*
X307975Y273050D03*
X368300Y111125D03*
X276225Y260350D03*
X552450Y187325D03*
X561975Y546100D03*
X561975Y727075D03*
X1162050Y266700D03*
X1162050Y276225D03*
M02*
