G04 EAGLE Gerber RS-274X export*
G75*
%MOMM*%
%FSLAX34Y34*%
%LPD*%
%INTop Copper*%
%IPPOS*%
%AMOC8*
5,1,8,0,0,1.08239X$1,22.5*%
G01*
%ADD10C,1.219200*%
%ADD11P,1.649562X8X22.500000*%
%ADD12C,1.219200*%
%ADD13P,1.539592X8X292.500000*%
%ADD14P,1.539592X8X112.500000*%
%ADD15R,1.500000X1.500000*%
%ADD16C,1.778000*%
%ADD17P,1.539592X8X202.500000*%
%ADD18P,1.319650X8X22.500000*%
%ADD19P,1.539592X8X22.500000*%
%ADD20P,1.319650X8X292.500000*%
%ADD21C,1.524000*%
%ADD22C,1.371600*%
%ADD23C,2.200000*%
%ADD24C,1.700000*%
%ADD25R,1.905000X1.905000*%
%ADD26C,1.905000*%
%ADD27P,1.319650X8X112.500000*%
%ADD28P,1.484606X8X112.500000*%
%ADD29C,0.127000*%
%ADD30C,0.457200*%


D10*
X1034796Y444500D02*
X1022604Y444500D01*
X1022604Y469900D02*
X1034796Y469900D01*
X1034796Y495300D02*
X1022604Y495300D01*
X1022604Y520700D02*
X1034796Y520700D01*
X1034796Y546100D02*
X1022604Y546100D01*
X1022604Y571500D02*
X1034796Y571500D01*
X1034796Y596900D02*
X1022604Y596900D01*
X1022604Y622300D02*
X1034796Y622300D01*
X1034796Y647700D02*
X1022604Y647700D01*
X1022604Y673100D02*
X1034796Y673100D01*
X1034796Y698500D02*
X1022604Y698500D01*
X1022604Y723900D02*
X1034796Y723900D01*
X1034796Y749300D02*
X1022604Y749300D01*
X1022604Y774700D02*
X1034796Y774700D01*
X882396Y774700D02*
X870204Y774700D01*
X870204Y749300D02*
X882396Y749300D01*
X882396Y723900D02*
X870204Y723900D01*
X870204Y698500D02*
X882396Y698500D01*
X882396Y673100D02*
X870204Y673100D01*
X870204Y647700D02*
X882396Y647700D01*
X882396Y622300D02*
X870204Y622300D01*
X870204Y596900D02*
X882396Y596900D01*
X882396Y571500D02*
X870204Y571500D01*
X870204Y546100D02*
X882396Y546100D01*
X882396Y520700D02*
X870204Y520700D01*
X870204Y495300D02*
X882396Y495300D01*
X882396Y469900D02*
X870204Y469900D01*
X870204Y444500D02*
X882396Y444500D01*
X1022604Y50800D02*
X1034796Y50800D01*
X1034796Y76200D02*
X1022604Y76200D01*
X1022604Y101600D02*
X1034796Y101600D01*
X1034796Y127000D02*
X1022604Y127000D01*
X1022604Y152400D02*
X1034796Y152400D01*
X1034796Y177800D02*
X1022604Y177800D01*
X1022604Y203200D02*
X1034796Y203200D01*
X1034796Y228600D02*
X1022604Y228600D01*
X1022604Y254000D02*
X1034796Y254000D01*
X1034796Y279400D02*
X1022604Y279400D01*
X1022604Y304800D02*
X1034796Y304800D01*
X1034796Y330200D02*
X1022604Y330200D01*
X1022604Y355600D02*
X1034796Y355600D01*
X1034796Y381000D02*
X1022604Y381000D01*
X882396Y381000D02*
X870204Y381000D01*
X870204Y355600D02*
X882396Y355600D01*
X882396Y330200D02*
X870204Y330200D01*
X870204Y304800D02*
X882396Y304800D01*
X882396Y279400D02*
X870204Y279400D01*
X870204Y254000D02*
X882396Y254000D01*
X882396Y228600D02*
X870204Y228600D01*
X870204Y203200D02*
X882396Y203200D01*
X882396Y177800D02*
X870204Y177800D01*
X870204Y152400D02*
X882396Y152400D01*
X882396Y127000D02*
X870204Y127000D01*
X870204Y101600D02*
X882396Y101600D01*
X882396Y76200D02*
X870204Y76200D01*
X870204Y50800D02*
X882396Y50800D01*
X780796Y444500D02*
X768604Y444500D01*
X768604Y469900D02*
X780796Y469900D01*
X780796Y495300D02*
X768604Y495300D01*
X768604Y520700D02*
X780796Y520700D01*
X780796Y546100D02*
X768604Y546100D01*
X768604Y571500D02*
X780796Y571500D01*
X780796Y596900D02*
X768604Y596900D01*
X768604Y622300D02*
X780796Y622300D01*
X780796Y647700D02*
X768604Y647700D01*
X768604Y673100D02*
X780796Y673100D01*
X780796Y698500D02*
X768604Y698500D01*
X768604Y723900D02*
X780796Y723900D01*
X780796Y749300D02*
X768604Y749300D01*
X768604Y774700D02*
X780796Y774700D01*
X628396Y774700D02*
X616204Y774700D01*
X616204Y749300D02*
X628396Y749300D01*
X628396Y723900D02*
X616204Y723900D01*
X616204Y698500D02*
X628396Y698500D01*
X628396Y673100D02*
X616204Y673100D01*
X616204Y647700D02*
X628396Y647700D01*
X628396Y622300D02*
X616204Y622300D01*
X616204Y596900D02*
X628396Y596900D01*
X628396Y571500D02*
X616204Y571500D01*
X616204Y546100D02*
X628396Y546100D01*
X628396Y520700D02*
X616204Y520700D01*
X616204Y495300D02*
X628396Y495300D01*
X628396Y469900D02*
X616204Y469900D01*
X616204Y444500D02*
X628396Y444500D01*
X768604Y50800D02*
X780796Y50800D01*
X780796Y76200D02*
X768604Y76200D01*
X768604Y101600D02*
X780796Y101600D01*
X780796Y127000D02*
X768604Y127000D01*
X768604Y152400D02*
X780796Y152400D01*
X780796Y177800D02*
X768604Y177800D01*
X768604Y203200D02*
X780796Y203200D01*
X780796Y228600D02*
X768604Y228600D01*
X768604Y254000D02*
X780796Y254000D01*
X780796Y279400D02*
X768604Y279400D01*
X768604Y304800D02*
X780796Y304800D01*
X780796Y330200D02*
X768604Y330200D01*
X768604Y355600D02*
X780796Y355600D01*
X780796Y381000D02*
X768604Y381000D01*
X628396Y381000D02*
X616204Y381000D01*
X616204Y355600D02*
X628396Y355600D01*
X628396Y330200D02*
X616204Y330200D01*
X616204Y304800D02*
X628396Y304800D01*
X628396Y279400D02*
X616204Y279400D01*
X616204Y254000D02*
X628396Y254000D01*
X628396Y228600D02*
X616204Y228600D01*
X616204Y203200D02*
X628396Y203200D01*
X628396Y177800D02*
X616204Y177800D01*
X616204Y152400D02*
X628396Y152400D01*
X628396Y127000D02*
X616204Y127000D01*
X616204Y101600D02*
X628396Y101600D01*
X628396Y76200D02*
X616204Y76200D01*
X616204Y50800D02*
X628396Y50800D01*
X526796Y444500D02*
X514604Y444500D01*
X514604Y469900D02*
X526796Y469900D01*
X526796Y495300D02*
X514604Y495300D01*
X514604Y520700D02*
X526796Y520700D01*
X526796Y546100D02*
X514604Y546100D01*
X514604Y571500D02*
X526796Y571500D01*
X526796Y596900D02*
X514604Y596900D01*
X514604Y622300D02*
X526796Y622300D01*
X526796Y647700D02*
X514604Y647700D01*
X514604Y673100D02*
X526796Y673100D01*
X526796Y698500D02*
X514604Y698500D01*
X514604Y723900D02*
X526796Y723900D01*
X526796Y749300D02*
X514604Y749300D01*
X514604Y774700D02*
X526796Y774700D01*
X374396Y774700D02*
X362204Y774700D01*
X362204Y749300D02*
X374396Y749300D01*
X374396Y723900D02*
X362204Y723900D01*
X362204Y698500D02*
X374396Y698500D01*
X374396Y673100D02*
X362204Y673100D01*
X362204Y647700D02*
X374396Y647700D01*
X374396Y622300D02*
X362204Y622300D01*
X362204Y596900D02*
X374396Y596900D01*
X374396Y571500D02*
X362204Y571500D01*
X362204Y546100D02*
X374396Y546100D01*
X374396Y520700D02*
X362204Y520700D01*
X362204Y495300D02*
X374396Y495300D01*
X374396Y469900D02*
X362204Y469900D01*
X362204Y444500D02*
X374396Y444500D01*
X514604Y50800D02*
X526796Y50800D01*
X526796Y76200D02*
X514604Y76200D01*
X514604Y101600D02*
X526796Y101600D01*
X526796Y127000D02*
X514604Y127000D01*
X514604Y152400D02*
X526796Y152400D01*
X526796Y177800D02*
X514604Y177800D01*
X514604Y203200D02*
X526796Y203200D01*
X526796Y228600D02*
X514604Y228600D01*
X514604Y254000D02*
X526796Y254000D01*
X526796Y279400D02*
X514604Y279400D01*
X514604Y304800D02*
X526796Y304800D01*
X526796Y330200D02*
X514604Y330200D01*
X514604Y355600D02*
X526796Y355600D01*
X526796Y381000D02*
X514604Y381000D01*
X374396Y381000D02*
X362204Y381000D01*
X362204Y355600D02*
X374396Y355600D01*
X374396Y330200D02*
X362204Y330200D01*
X362204Y304800D02*
X374396Y304800D01*
X374396Y279400D02*
X362204Y279400D01*
X362204Y254000D02*
X374396Y254000D01*
X374396Y228600D02*
X362204Y228600D01*
X362204Y203200D02*
X374396Y203200D01*
X374396Y177800D02*
X362204Y177800D01*
X362204Y152400D02*
X374396Y152400D01*
X374396Y127000D02*
X362204Y127000D01*
X362204Y101600D02*
X374396Y101600D01*
X374396Y76200D02*
X362204Y76200D01*
X362204Y50800D02*
X374396Y50800D01*
X272796Y50800D02*
X260604Y50800D01*
X260604Y76200D02*
X272796Y76200D01*
X272796Y101600D02*
X260604Y101600D01*
X260604Y127000D02*
X272796Y127000D01*
X272796Y152400D02*
X260604Y152400D01*
X260604Y177800D02*
X272796Y177800D01*
X272796Y203200D02*
X260604Y203200D01*
X260604Y228600D02*
X272796Y228600D01*
X272796Y254000D02*
X260604Y254000D01*
X260604Y279400D02*
X272796Y279400D01*
X272796Y304800D02*
X260604Y304800D01*
X260604Y330200D02*
X272796Y330200D01*
X272796Y355600D02*
X260604Y355600D01*
X260604Y381000D02*
X272796Y381000D01*
X120396Y381000D02*
X108204Y381000D01*
X108204Y355600D02*
X120396Y355600D01*
X120396Y330200D02*
X108204Y330200D01*
X108204Y304800D02*
X120396Y304800D01*
X120396Y279400D02*
X108204Y279400D01*
X108204Y254000D02*
X120396Y254000D01*
X120396Y228600D02*
X108204Y228600D01*
X108204Y203200D02*
X120396Y203200D01*
X120396Y177800D02*
X108204Y177800D01*
X108204Y152400D02*
X120396Y152400D01*
X120396Y127000D02*
X108204Y127000D01*
X108204Y101600D02*
X120396Y101600D01*
X120396Y76200D02*
X108204Y76200D01*
X108204Y50800D02*
X120396Y50800D01*
D11*
X38100Y825500D03*
X63500Y825500D03*
X88900Y825500D03*
X114300Y825500D03*
X139700Y825500D03*
X165100Y825500D03*
X38100Y850900D03*
X63500Y850900D03*
X88900Y850900D03*
X114300Y850900D03*
X139700Y850900D03*
X165100Y850900D03*
X190500Y825500D03*
X190500Y850900D03*
X215900Y825500D03*
X241300Y825500D03*
X266700Y825500D03*
X292100Y825500D03*
X317500Y825500D03*
X342900Y825500D03*
X215900Y850900D03*
X241300Y850900D03*
X266700Y850900D03*
X292100Y850900D03*
X317500Y850900D03*
X342900Y850900D03*
X368300Y825500D03*
X368300Y850900D03*
X393700Y825500D03*
X419100Y825500D03*
X444500Y825500D03*
X469900Y825500D03*
X495300Y825500D03*
X520700Y825500D03*
X393700Y850900D03*
X419100Y850900D03*
X444500Y850900D03*
X469900Y850900D03*
X495300Y850900D03*
X520700Y850900D03*
D10*
X38100Y1187704D02*
X38100Y1199896D01*
X63500Y1199896D02*
X63500Y1187704D01*
X88900Y1187704D02*
X88900Y1199896D01*
X114300Y1199896D02*
X114300Y1187704D01*
X139700Y1187704D02*
X139700Y1199896D01*
X165100Y1199896D02*
X165100Y1187704D01*
X190500Y1187704D02*
X190500Y1199896D01*
X215900Y1199896D02*
X215900Y1187704D01*
X241300Y1187704D02*
X241300Y1199896D01*
X266700Y1199896D02*
X266700Y1187704D01*
X292100Y1187704D02*
X292100Y1199896D01*
X317500Y1199896D02*
X317500Y1187704D01*
X342900Y1187704D02*
X342900Y1199896D01*
X368300Y1199896D02*
X368300Y1187704D01*
X368300Y1263904D02*
X368300Y1276096D01*
X342900Y1276096D02*
X342900Y1263904D01*
X317500Y1263904D02*
X317500Y1276096D01*
X292100Y1276096D02*
X292100Y1263904D01*
X266700Y1263904D02*
X266700Y1276096D01*
X241300Y1276096D02*
X241300Y1263904D01*
X215900Y1263904D02*
X215900Y1276096D01*
X190500Y1276096D02*
X190500Y1263904D01*
X165100Y1263904D02*
X165100Y1276096D01*
X139700Y1276096D02*
X139700Y1263904D01*
X114300Y1263904D02*
X114300Y1276096D01*
X88900Y1276096D02*
X88900Y1263904D01*
X63500Y1263904D02*
X63500Y1276096D01*
X38100Y1276096D02*
X38100Y1263904D01*
D12*
X419100Y1207770D03*
X419100Y1256030D03*
D13*
X482600Y1282700D03*
X482600Y1257300D03*
D14*
X482600Y1181100D03*
X482600Y1206500D03*
D15*
X825500Y1485900D03*
D16*
X850900Y1485900D03*
X876300Y1485900D03*
X901700Y1485900D03*
X927100Y1485900D03*
X952500Y1485900D03*
D17*
X850900Y1346200D03*
X825500Y1346200D03*
D18*
X38100Y1130300D03*
X139700Y1130300D03*
D19*
X177800Y1130300D03*
X203200Y1130300D03*
X177800Y1054100D03*
X203200Y1054100D03*
D18*
X38100Y1054100D03*
X139700Y1054100D03*
X38100Y1092200D03*
X139700Y1092200D03*
D10*
X127000Y933196D02*
X127000Y921004D01*
X152400Y921004D02*
X152400Y933196D01*
X177800Y933196D02*
X177800Y921004D01*
X203200Y921004D02*
X203200Y933196D01*
X203200Y997204D02*
X203200Y1009396D01*
X177800Y1009396D02*
X177800Y997204D01*
X152400Y997204D02*
X152400Y1009396D01*
X127000Y1009396D02*
X127000Y997204D01*
D20*
X508000Y1498600D03*
X508000Y1473200D03*
X609600Y1498600D03*
X609600Y1473200D03*
X711200Y1498600D03*
X711200Y1473200D03*
X711200Y1422400D03*
X711200Y1320800D03*
X609600Y1422400D03*
X609600Y1320800D03*
X508000Y1422400D03*
X508000Y1320800D03*
D17*
X965200Y25400D03*
X939800Y25400D03*
X965200Y419100D03*
X939800Y419100D03*
X457200Y419100D03*
X431800Y419100D03*
X711200Y419100D03*
X685800Y419100D03*
X457200Y25400D03*
X431800Y25400D03*
D10*
X88900Y1403604D02*
X88900Y1415796D01*
X114300Y1415796D02*
X114300Y1403604D01*
X139700Y1403604D02*
X139700Y1415796D01*
D16*
X88900Y1460500D03*
X139700Y1460500D03*
D21*
X83820Y939800D02*
X68580Y939800D01*
X68580Y965200D02*
X83820Y965200D01*
X83820Y990600D02*
X68580Y990600D01*
D17*
X203200Y25400D03*
X177800Y25400D03*
X711200Y25400D03*
X685800Y25400D03*
X203200Y419100D03*
X177800Y419100D03*
D22*
X939800Y1415542D02*
X939800Y1429258D01*
X965200Y1429258D02*
X965200Y1415542D01*
X825500Y1415542D02*
X825500Y1429258D01*
X850900Y1429258D02*
X850900Y1415542D01*
D23*
X276300Y1473600D03*
X206300Y1473600D03*
D24*
X266300Y1498600D03*
X216300Y1498600D03*
D25*
X335800Y1508400D03*
D26*
X335800Y1463400D03*
X400800Y1463400D03*
X400800Y1508400D03*
D18*
X342900Y1054100D03*
X444500Y1054100D03*
D20*
X1054100Y1498600D03*
X1054100Y1473200D03*
X1054100Y1422400D03*
X1054100Y1320800D03*
D10*
X272796Y444500D02*
X260604Y444500D01*
X260604Y469900D02*
X272796Y469900D01*
X272796Y495300D02*
X260604Y495300D01*
X260604Y520700D02*
X272796Y520700D01*
X272796Y546100D02*
X260604Y546100D01*
X260604Y571500D02*
X272796Y571500D01*
X272796Y596900D02*
X260604Y596900D01*
X260604Y622300D02*
X272796Y622300D01*
X272796Y647700D02*
X260604Y647700D01*
X260604Y673100D02*
X272796Y673100D01*
X272796Y698500D02*
X260604Y698500D01*
X260604Y723900D02*
X272796Y723900D01*
X272796Y749300D02*
X260604Y749300D01*
X260604Y774700D02*
X272796Y774700D01*
X120396Y774700D02*
X108204Y774700D01*
X108204Y749300D02*
X120396Y749300D01*
X120396Y723900D02*
X108204Y723900D01*
X108204Y698500D02*
X120396Y698500D01*
X120396Y673100D02*
X108204Y673100D01*
X108204Y647700D02*
X120396Y647700D01*
X120396Y622300D02*
X108204Y622300D01*
X108204Y596900D02*
X120396Y596900D01*
X120396Y571500D02*
X108204Y571500D01*
X108204Y546100D02*
X120396Y546100D01*
X120396Y520700D02*
X108204Y520700D01*
X108204Y495300D02*
X120396Y495300D01*
X120396Y469900D02*
X108204Y469900D01*
X108204Y444500D02*
X120396Y444500D01*
X857504Y939800D02*
X869696Y939800D01*
X869696Y965200D02*
X857504Y965200D01*
X857504Y990600D02*
X869696Y990600D01*
X869696Y1016000D02*
X857504Y1016000D01*
X857504Y1041400D02*
X869696Y1041400D01*
X869696Y1066800D02*
X857504Y1066800D01*
X857504Y1092200D02*
X869696Y1092200D01*
X869696Y1117600D02*
X857504Y1117600D01*
X857504Y1143000D02*
X869696Y1143000D01*
X869696Y1168400D02*
X857504Y1168400D01*
X857504Y1193800D02*
X869696Y1193800D01*
X869696Y1219200D02*
X857504Y1219200D01*
X857504Y1244600D02*
X869696Y1244600D01*
X869696Y1270000D02*
X857504Y1270000D01*
X793496Y1270000D02*
X781304Y1270000D01*
X781304Y1244600D02*
X793496Y1244600D01*
X793496Y1219200D02*
X781304Y1219200D01*
X781304Y1193800D02*
X793496Y1193800D01*
X793496Y1168400D02*
X781304Y1168400D01*
X781304Y1143000D02*
X793496Y1143000D01*
X793496Y1117600D02*
X781304Y1117600D01*
X781304Y1092200D02*
X793496Y1092200D01*
X793496Y1066800D02*
X781304Y1066800D01*
X781304Y1041400D02*
X793496Y1041400D01*
X793496Y1016000D02*
X781304Y1016000D01*
X781304Y990600D02*
X793496Y990600D01*
X793496Y965200D02*
X781304Y965200D01*
X781304Y939800D02*
X793496Y939800D01*
X984504Y939800D02*
X996696Y939800D01*
X996696Y965200D02*
X984504Y965200D01*
X984504Y990600D02*
X996696Y990600D01*
X996696Y1016000D02*
X984504Y1016000D01*
X984504Y1041400D02*
X996696Y1041400D01*
X996696Y1066800D02*
X984504Y1066800D01*
X984504Y1092200D02*
X996696Y1092200D01*
X996696Y1117600D02*
X984504Y1117600D01*
X984504Y1143000D02*
X996696Y1143000D01*
X996696Y1168400D02*
X984504Y1168400D01*
X984504Y1193800D02*
X996696Y1193800D01*
X996696Y1219200D02*
X984504Y1219200D01*
X984504Y1244600D02*
X996696Y1244600D01*
X996696Y1270000D02*
X984504Y1270000D01*
X920496Y1270000D02*
X908304Y1270000D01*
X908304Y1244600D02*
X920496Y1244600D01*
X920496Y1219200D02*
X908304Y1219200D01*
X908304Y1193800D02*
X920496Y1193800D01*
X920496Y1168400D02*
X908304Y1168400D01*
X908304Y1143000D02*
X920496Y1143000D01*
X920496Y1117600D02*
X908304Y1117600D01*
X908304Y1092200D02*
X920496Y1092200D01*
X920496Y1066800D02*
X908304Y1066800D01*
X908304Y1041400D02*
X920496Y1041400D01*
X920496Y1016000D02*
X908304Y1016000D01*
X908304Y990600D02*
X920496Y990600D01*
X920496Y965200D02*
X908304Y965200D01*
X908304Y939800D02*
X920496Y939800D01*
X742696Y939800D02*
X730504Y939800D01*
X730504Y965200D02*
X742696Y965200D01*
X742696Y990600D02*
X730504Y990600D01*
X730504Y1016000D02*
X742696Y1016000D01*
X742696Y1041400D02*
X730504Y1041400D01*
X730504Y1066800D02*
X742696Y1066800D01*
X742696Y1092200D02*
X730504Y1092200D01*
X730504Y1117600D02*
X742696Y1117600D01*
X742696Y1143000D02*
X730504Y1143000D01*
X730504Y1168400D02*
X742696Y1168400D01*
X742696Y1193800D02*
X730504Y1193800D01*
X730504Y1219200D02*
X742696Y1219200D01*
X742696Y1244600D02*
X730504Y1244600D01*
X730504Y1270000D02*
X742696Y1270000D01*
X666496Y1270000D02*
X654304Y1270000D01*
X654304Y1244600D02*
X666496Y1244600D01*
X666496Y1219200D02*
X654304Y1219200D01*
X654304Y1193800D02*
X666496Y1193800D01*
X666496Y1168400D02*
X654304Y1168400D01*
X654304Y1143000D02*
X666496Y1143000D01*
X666496Y1117600D02*
X654304Y1117600D01*
X654304Y1092200D02*
X666496Y1092200D01*
X666496Y1066800D02*
X654304Y1066800D01*
X654304Y1041400D02*
X666496Y1041400D01*
X666496Y1016000D02*
X654304Y1016000D01*
X654304Y990600D02*
X666496Y990600D01*
X666496Y965200D02*
X654304Y965200D01*
X654304Y939800D02*
X666496Y939800D01*
X615696Y939800D02*
X603504Y939800D01*
X603504Y965200D02*
X615696Y965200D01*
X615696Y990600D02*
X603504Y990600D01*
X603504Y1016000D02*
X615696Y1016000D01*
X615696Y1041400D02*
X603504Y1041400D01*
X603504Y1066800D02*
X615696Y1066800D01*
X615696Y1092200D02*
X603504Y1092200D01*
X603504Y1117600D02*
X615696Y1117600D01*
X615696Y1143000D02*
X603504Y1143000D01*
X603504Y1168400D02*
X615696Y1168400D01*
X615696Y1193800D02*
X603504Y1193800D01*
X603504Y1219200D02*
X615696Y1219200D01*
X615696Y1244600D02*
X603504Y1244600D01*
X603504Y1270000D02*
X615696Y1270000D01*
X539496Y1270000D02*
X527304Y1270000D01*
X527304Y1244600D02*
X539496Y1244600D01*
X539496Y1219200D02*
X527304Y1219200D01*
X527304Y1193800D02*
X539496Y1193800D01*
X539496Y1168400D02*
X527304Y1168400D01*
X527304Y1143000D02*
X539496Y1143000D01*
X539496Y1117600D02*
X527304Y1117600D01*
X527304Y1092200D02*
X539496Y1092200D01*
X539496Y1066800D02*
X527304Y1066800D01*
X527304Y1041400D02*
X539496Y1041400D01*
X539496Y1016000D02*
X527304Y1016000D01*
X527304Y990600D02*
X539496Y990600D01*
X539496Y965200D02*
X527304Y965200D01*
X527304Y939800D02*
X539496Y939800D01*
X1111504Y939800D02*
X1123696Y939800D01*
X1123696Y965200D02*
X1111504Y965200D01*
X1111504Y990600D02*
X1123696Y990600D01*
X1123696Y1016000D02*
X1111504Y1016000D01*
X1111504Y1041400D02*
X1123696Y1041400D01*
X1123696Y1066800D02*
X1111504Y1066800D01*
X1111504Y1092200D02*
X1123696Y1092200D01*
X1123696Y1117600D02*
X1111504Y1117600D01*
X1111504Y1143000D02*
X1123696Y1143000D01*
X1123696Y1168400D02*
X1111504Y1168400D01*
X1111504Y1193800D02*
X1123696Y1193800D01*
X1123696Y1219200D02*
X1111504Y1219200D01*
X1111504Y1244600D02*
X1123696Y1244600D01*
X1123696Y1270000D02*
X1111504Y1270000D01*
X1047496Y1270000D02*
X1035304Y1270000D01*
X1035304Y1244600D02*
X1047496Y1244600D01*
X1047496Y1219200D02*
X1035304Y1219200D01*
X1035304Y1193800D02*
X1047496Y1193800D01*
X1047496Y1168400D02*
X1035304Y1168400D01*
X1035304Y1143000D02*
X1047496Y1143000D01*
X1047496Y1117600D02*
X1035304Y1117600D01*
X1035304Y1092200D02*
X1047496Y1092200D01*
X1047496Y1066800D02*
X1035304Y1066800D01*
X1035304Y1041400D02*
X1047496Y1041400D01*
X1047496Y1016000D02*
X1035304Y1016000D01*
X1035304Y990600D02*
X1047496Y990600D01*
X1047496Y965200D02*
X1035304Y965200D01*
X1035304Y939800D02*
X1047496Y939800D01*
D27*
X76200Y139700D03*
X76200Y241300D03*
D11*
X622300Y825500D03*
X647700Y825500D03*
X673100Y825500D03*
X698500Y825500D03*
X723900Y825500D03*
X749300Y825500D03*
X622300Y850900D03*
X647700Y850900D03*
X673100Y850900D03*
X698500Y850900D03*
X723900Y850900D03*
X749300Y850900D03*
X774700Y825500D03*
X774700Y850900D03*
X800100Y825500D03*
X825500Y825500D03*
X850900Y825500D03*
X876300Y825500D03*
X901700Y825500D03*
X927100Y825500D03*
X800100Y850900D03*
X825500Y850900D03*
X850900Y850900D03*
X876300Y850900D03*
X901700Y850900D03*
X927100Y850900D03*
X952500Y825500D03*
X952500Y850900D03*
X977900Y825500D03*
X1003300Y825500D03*
X1028700Y825500D03*
X1054100Y825500D03*
X1079500Y825500D03*
X1104900Y825500D03*
X977900Y850900D03*
X1003300Y850900D03*
X1028700Y850900D03*
X1054100Y850900D03*
X1079500Y850900D03*
X1104900Y850900D03*
D28*
X1104900Y558800D03*
X1079500Y558800D03*
X1104900Y584200D03*
X1079500Y584200D03*
X1104900Y609600D03*
X1079500Y609600D03*
X1104900Y635000D03*
X1079500Y635000D03*
X1104900Y660400D03*
X1079500Y660400D03*
D19*
X1066800Y914400D03*
X1092200Y914400D03*
X939800Y914400D03*
X965200Y914400D03*
X812800Y914400D03*
X838200Y914400D03*
X685800Y914400D03*
X711200Y914400D03*
X558800Y914400D03*
X584200Y914400D03*
D11*
X558800Y825500D03*
X558800Y850900D03*
X584200Y825500D03*
X584200Y850900D03*
D29*
X927100Y1485900D02*
X952500Y1485900D01*
X190500Y1358900D02*
X152400Y1397000D01*
X139700Y1409700D01*
X190500Y1358900D02*
X190500Y1270000D01*
X152400Y1397000D02*
X222250Y1466850D01*
X222250Y1498600D01*
X216300Y1498600D01*
X1041400Y1460500D02*
X1054100Y1473200D01*
X1041400Y1460500D02*
X1041400Y1270000D01*
X107950Y1238250D02*
X63500Y1193800D01*
X107950Y1238250D02*
X387350Y1238250D01*
X387350Y1263650D02*
X533400Y1409700D01*
X787400Y1409700D01*
X850900Y1473200D01*
X863600Y1473200D01*
X876300Y1485900D01*
D30*
X387350Y1238250D03*
X387350Y1263650D03*
D29*
X107950Y1212850D02*
X88900Y1193800D01*
X107950Y1212850D02*
X209550Y1212850D01*
X317500Y1346200D02*
X406400Y1435100D01*
X800100Y1435100D01*
X850900Y1485900D01*
D30*
X209550Y1212850D03*
X317500Y1346200D03*
D29*
X101600Y1130300D02*
X38100Y1193800D01*
X101600Y1130300D02*
X139700Y1130300D01*
X533400Y1193800D02*
X546100Y1206500D01*
X647700Y1206500D01*
X660400Y1193800D01*
X774700Y1206500D02*
X787400Y1193800D01*
X774700Y1206500D02*
X647700Y1206500D01*
X901700Y1206500D02*
X914400Y1193800D01*
X901700Y1206500D02*
X774700Y1206500D01*
X1028700Y1206500D02*
X1041400Y1193800D01*
X1028700Y1206500D02*
X901700Y1206500D01*
X177800Y1168400D02*
X139700Y1130300D01*
X177800Y1168400D02*
X495300Y1168400D01*
X520700Y1193800D01*
X533400Y1193800D01*
X609600Y1219200D02*
X622300Y1231900D01*
X723900Y1231900D01*
X736600Y1219200D01*
X850900Y1231900D02*
X863600Y1219200D01*
X850900Y1231900D02*
X723900Y1231900D01*
X977900Y1231900D02*
X990600Y1219200D01*
X977900Y1231900D02*
X850900Y1231900D01*
X1104900Y1231900D02*
X1117600Y1219200D01*
X1104900Y1231900D02*
X977900Y1231900D01*
X285750Y1225550D02*
X279400Y1219200D01*
X285750Y1225550D02*
X514350Y1225550D01*
X520700Y1231900D01*
X622300Y1231900D01*
D30*
X279400Y1219200D03*
D29*
X38100Y1054100D02*
X12700Y1079500D01*
X12700Y1250950D01*
X44450Y1250950D01*
X63500Y1270000D01*
X203200Y1003300D02*
X177800Y977900D01*
X139700Y977900D01*
X114300Y952500D01*
X63500Y952500D01*
X38100Y977900D01*
X38100Y1054100D01*
X609600Y1244600D02*
X622300Y1257300D01*
X723900Y1257300D01*
X736600Y1244600D01*
X850900Y1257300D02*
X863600Y1244600D01*
X850900Y1257300D02*
X723900Y1257300D01*
X977900Y1257300D02*
X990600Y1244600D01*
X977900Y1257300D02*
X850900Y1257300D01*
X1104900Y1257300D02*
X1117600Y1244600D01*
X1104900Y1257300D02*
X977900Y1257300D01*
X88900Y1244600D02*
X63500Y1270000D01*
X88900Y1244600D02*
X508000Y1244600D01*
X520700Y1257300D01*
X622300Y1257300D01*
X260350Y704850D02*
X266700Y698500D01*
X260350Y704850D02*
X222250Y704850D01*
X139700Y787400D01*
X101600Y787400D01*
X63500Y825500D01*
X527050Y1111250D02*
X533400Y1117600D01*
X527050Y1111250D02*
X285750Y1111250D01*
D30*
X285750Y1111250D03*
D29*
X552450Y425450D02*
X622300Y355600D01*
X552450Y425450D02*
X476250Y425450D01*
X450850Y793750D02*
X431800Y812800D01*
X431800Y838200D01*
X450850Y838200D01*
X463550Y850900D01*
X469900Y850900D01*
X882650Y1263650D02*
X882650Y1282700D01*
X673100Y1282700D01*
D30*
X476250Y425450D03*
X450850Y793750D03*
X882650Y1263650D03*
X673100Y1282700D03*
D29*
X571500Y431800D02*
X622300Y381000D01*
X571500Y431800D02*
X495300Y431800D01*
X908050Y1009650D02*
X914400Y1016000D01*
X908050Y1009650D02*
X882650Y1009650D01*
X876300Y1003300D01*
X698500Y1003300D01*
D30*
X495300Y431800D03*
X698500Y1003300D03*
D29*
X755650Y374650D02*
X774700Y355600D01*
X755650Y374650D02*
X711200Y374650D01*
X679450Y800100D02*
X673100Y806450D01*
X622300Y806450D01*
X590550Y838200D01*
X533400Y838200D01*
X520700Y850900D01*
D30*
X711200Y374650D03*
X679450Y800100D03*
D29*
X742950Y361950D02*
X774700Y330200D01*
X698500Y800100D02*
X685800Y812800D01*
X635000Y812800D01*
X622300Y825500D01*
D30*
X742950Y361950D03*
X698500Y800100D03*
D29*
X273050Y476250D02*
X266700Y469900D01*
X273050Y476250D02*
X349250Y476250D01*
X355600Y482600D01*
X495300Y482600D01*
X508000Y469900D01*
X520700Y469900D01*
X774700Y469900D02*
X781050Y476250D01*
X857250Y476250D01*
X863600Y482600D01*
X1016000Y482600D01*
X1028700Y469900D01*
X527050Y476250D02*
X520700Y469900D01*
X527050Y476250D02*
X603250Y476250D01*
X609600Y482600D01*
X749300Y482600D01*
X762000Y469900D01*
X774700Y469900D01*
X273050Y82550D02*
X266700Y76200D01*
X273050Y82550D02*
X349250Y82550D01*
X355600Y88900D01*
X488950Y88900D01*
X501650Y76200D01*
X520700Y76200D01*
X774700Y76200D02*
X781050Y82550D01*
X857250Y82550D01*
X863600Y88900D01*
X1016000Y88900D01*
X1028700Y76200D01*
X527050Y82550D02*
X520700Y76200D01*
X527050Y82550D02*
X603250Y82550D01*
X609600Y88900D01*
X749300Y88900D01*
X762000Y76200D01*
X774700Y76200D01*
X1028700Y469900D02*
X1073150Y469900D01*
D30*
X1073150Y469900D03*
D29*
X127000Y165100D02*
X114300Y177800D01*
X127000Y165100D02*
X342900Y165100D01*
X355600Y177800D01*
X368300Y177800D01*
X622300Y177800D02*
X628650Y171450D01*
X755650Y171450D01*
X762000Y165100D01*
X850900Y165100D01*
X863600Y177800D01*
X876300Y177800D01*
X374650Y171450D02*
X368300Y177800D01*
X374650Y171450D02*
X501650Y171450D01*
X508000Y165100D01*
X596900Y165100D01*
X609600Y177800D01*
X622300Y177800D01*
X127000Y558800D02*
X114300Y571500D01*
X127000Y558800D02*
X342900Y558800D01*
X355600Y571500D01*
X368300Y571500D01*
X1073150Y971550D02*
X1117600Y1016000D01*
X628650Y565150D02*
X622300Y571500D01*
X628650Y565150D02*
X755650Y565150D01*
X762000Y558800D01*
X850900Y558800D01*
X863600Y571500D01*
X876300Y571500D01*
X1041400Y685800D02*
X1117600Y762000D01*
X1041400Y685800D02*
X901700Y685800D01*
X895350Y692150D01*
X374650Y565150D02*
X368300Y571500D01*
X374650Y565150D02*
X501650Y565150D01*
X508000Y558800D01*
X596900Y558800D01*
X609600Y571500D01*
X622300Y571500D01*
D30*
X1073150Y971550D03*
X1117600Y762000D03*
X895350Y692150D03*
D29*
X127000Y215900D02*
X114300Y228600D01*
X127000Y215900D02*
X342900Y215900D01*
X355600Y228600D01*
X368300Y228600D01*
X622300Y228600D02*
X628650Y222250D01*
X755650Y222250D01*
X762000Y215900D01*
X850900Y215900D01*
X863600Y228600D01*
X876300Y228600D01*
X374650Y222250D02*
X368300Y228600D01*
X374650Y222250D02*
X501650Y222250D01*
X508000Y215900D01*
X596900Y215900D01*
X609600Y228600D01*
X622300Y228600D01*
X127000Y609600D02*
X114300Y622300D01*
X127000Y609600D02*
X342900Y609600D01*
X355600Y622300D01*
X368300Y622300D01*
X1079500Y952500D02*
X1117600Y990600D01*
X1079500Y952500D02*
X1054100Y952500D01*
X628650Y615950D02*
X622300Y622300D01*
X628650Y615950D02*
X755650Y615950D01*
X762000Y609600D01*
X850900Y609600D01*
X863600Y622300D01*
X876300Y622300D01*
X374650Y615950D02*
X368300Y622300D01*
X374650Y615950D02*
X501650Y615950D01*
X508000Y609600D01*
X596900Y609600D01*
X609600Y622300D01*
X622300Y622300D01*
D30*
X1054100Y952500D03*
D29*
X127000Y139700D02*
X114300Y152400D01*
X127000Y139700D02*
X342900Y139700D01*
X355600Y152400D01*
X368300Y152400D01*
X622300Y152400D02*
X628650Y146050D01*
X755650Y146050D01*
X762000Y139700D01*
X850900Y139700D01*
X863600Y152400D01*
X876300Y152400D01*
X374650Y146050D02*
X368300Y152400D01*
X374650Y146050D02*
X501650Y146050D01*
X508000Y139700D01*
X596900Y139700D01*
X609600Y152400D01*
X622300Y152400D01*
X127000Y533400D02*
X114300Y546100D01*
X127000Y533400D02*
X342900Y533400D01*
X355600Y546100D01*
X368300Y546100D01*
X1092200Y939800D02*
X1117600Y965200D01*
X1092200Y939800D02*
X1066800Y939800D01*
X1009650Y882650D01*
X628650Y539750D02*
X622300Y546100D01*
X628650Y539750D02*
X755650Y539750D01*
X762000Y533400D01*
X850900Y533400D01*
X863600Y546100D01*
X876300Y546100D01*
X990600Y565150D02*
X996950Y571500D01*
X990600Y565150D02*
X895350Y565150D01*
X374650Y539750D02*
X368300Y546100D01*
X374650Y539750D02*
X501650Y539750D01*
X508000Y533400D01*
X596900Y533400D01*
X609600Y546100D01*
X622300Y546100D01*
D30*
X1009650Y882650D03*
X996950Y571500D03*
X895350Y565150D03*
D29*
X127000Y114300D02*
X114300Y127000D01*
X127000Y114300D02*
X342900Y114300D01*
X355600Y127000D01*
X368300Y127000D01*
X622300Y127000D02*
X628650Y120650D01*
X755650Y120650D01*
X762000Y114300D01*
X850900Y114300D01*
X863600Y127000D01*
X876300Y127000D01*
X374650Y120650D02*
X368300Y127000D01*
X374650Y120650D02*
X501650Y120650D01*
X508000Y114300D01*
X596900Y114300D01*
X609600Y127000D01*
X622300Y127000D01*
X1117600Y863600D02*
X1117600Y939800D01*
X1117600Y863600D02*
X990600Y863600D01*
X977900Y850900D01*
X127000Y508000D02*
X114300Y520700D01*
X127000Y508000D02*
X342900Y508000D01*
X355600Y520700D01*
X368300Y520700D01*
X615950Y514350D02*
X622300Y520700D01*
X615950Y514350D02*
X539750Y514350D01*
X533400Y508000D01*
X400050Y508000D01*
X387350Y520700D01*
X368300Y520700D01*
X869950Y514350D02*
X876300Y520700D01*
X869950Y514350D02*
X793750Y514350D01*
X787400Y508000D01*
X647700Y508000D01*
X635000Y520700D01*
X622300Y520700D01*
X1085850Y508000D02*
X1123950Y546100D01*
X1085850Y508000D02*
X1009650Y508000D01*
X996950Y520700D01*
X876300Y520700D01*
D30*
X1123950Y546100D03*
D29*
X273050Y107950D02*
X266700Y101600D01*
X273050Y107950D02*
X349250Y107950D01*
X355600Y114300D01*
X495300Y114300D01*
X508000Y101600D01*
X520700Y101600D01*
X774700Y101600D02*
X781050Y107950D01*
X857250Y107950D01*
X863600Y114300D01*
X1016000Y114300D01*
X1028700Y101600D01*
X527050Y107950D02*
X520700Y101600D01*
X527050Y107950D02*
X603250Y107950D01*
X609600Y114300D01*
X749300Y114300D01*
X762000Y101600D01*
X774700Y101600D01*
X1003300Y901700D02*
X1041400Y939800D01*
X1003300Y901700D02*
X984250Y901700D01*
X273050Y501650D02*
X266700Y495300D01*
X273050Y501650D02*
X349250Y501650D01*
X355600Y508000D01*
X387350Y508000D01*
X400050Y495300D01*
X520700Y495300D01*
X768350Y501650D02*
X774700Y495300D01*
X768350Y501650D02*
X641350Y501650D01*
X635000Y508000D01*
X546100Y508000D01*
X533400Y495300D01*
X520700Y495300D01*
X1022350Y501650D02*
X1028700Y495300D01*
X990600Y501650D02*
X895350Y501650D01*
X990600Y501650D02*
X1022350Y501650D01*
X895350Y501650D02*
X889000Y508000D01*
X819150Y508000D02*
X800100Y508000D01*
X819150Y508000D02*
X889000Y508000D01*
X800100Y508000D02*
X787400Y495300D01*
X774700Y495300D01*
X990600Y501650D02*
X990600Y514350D01*
X819150Y508000D02*
X819150Y488950D01*
D30*
X984250Y901700D03*
X990600Y514350D03*
X819150Y488950D03*
D29*
X273050Y133350D02*
X266700Y127000D01*
X273050Y133350D02*
X349250Y133350D01*
X355600Y139700D01*
X495300Y139700D01*
X508000Y127000D01*
X520700Y127000D01*
X774700Y127000D02*
X781050Y133350D01*
X857250Y133350D01*
X863600Y139700D01*
X1016000Y139700D01*
X1028700Y127000D01*
X527050Y133350D02*
X520700Y127000D01*
X527050Y133350D02*
X603250Y133350D01*
X609600Y139700D01*
X749300Y139700D01*
X762000Y127000D01*
X774700Y127000D01*
X273050Y527050D02*
X266700Y520700D01*
X273050Y527050D02*
X349250Y527050D01*
X355600Y533400D01*
X495300Y533400D01*
X508000Y520700D01*
X520700Y520700D01*
X1028700Y952500D02*
X1041400Y965200D01*
X1028700Y952500D02*
X977900Y952500D01*
X958850Y933450D01*
X781050Y527050D02*
X774700Y520700D01*
X812800Y527050D02*
X857250Y527050D01*
X812800Y527050D02*
X781050Y527050D01*
X857250Y527050D02*
X863600Y533400D01*
X965200Y533400D02*
X1016000Y533400D01*
X965200Y533400D02*
X863600Y533400D01*
X1016000Y533400D02*
X1028700Y520700D01*
X939800Y838200D02*
X927100Y850900D01*
X939800Y838200D02*
X946150Y838200D01*
X965200Y552450D02*
X965200Y533400D01*
X527050Y527050D02*
X520700Y520700D01*
X527050Y527050D02*
X603250Y527050D01*
X609600Y533400D01*
X749300Y533400D01*
X762000Y520700D01*
X774700Y520700D01*
X812800Y520700D02*
X812800Y527050D01*
D30*
X958850Y933450D03*
X946150Y838200D03*
X965200Y552450D03*
X812800Y520700D03*
D29*
X273050Y158750D02*
X266700Y152400D01*
X273050Y158750D02*
X349250Y158750D01*
X355600Y165100D01*
X495300Y165100D01*
X508000Y152400D01*
X520700Y152400D01*
X774700Y152400D02*
X781050Y158750D01*
X857250Y158750D01*
X863600Y165100D01*
X1016000Y165100D01*
X1028700Y152400D01*
X527050Y158750D02*
X520700Y152400D01*
X527050Y158750D02*
X603250Y158750D01*
X609600Y165100D01*
X749300Y165100D01*
X762000Y152400D01*
X774700Y152400D01*
X927100Y1028700D02*
X1003300Y1028700D01*
X273050Y552450D02*
X266700Y546100D01*
X273050Y552450D02*
X349250Y552450D01*
X355600Y558800D01*
X495300Y558800D01*
X508000Y546100D01*
X520700Y546100D01*
X774700Y546100D02*
X781050Y552450D01*
X806450Y552450D02*
X857250Y552450D01*
X806450Y552450D02*
X781050Y552450D01*
X857250Y552450D02*
X863600Y558800D01*
X958850Y558800D02*
X1016000Y558800D01*
X958850Y558800D02*
X863600Y558800D01*
X1016000Y558800D02*
X1028700Y546100D01*
X527050Y552450D02*
X520700Y546100D01*
X527050Y552450D02*
X603250Y552450D01*
X609600Y558800D01*
X749300Y558800D01*
X762000Y546100D01*
X774700Y546100D01*
X901700Y850900D02*
X908050Y857250D01*
X914400Y857250D01*
X920750Y863600D01*
X958850Y863600D01*
X965200Y857250D01*
X965200Y812800D01*
X958850Y812800D01*
X806450Y552450D02*
X806450Y539750D01*
D30*
X1003300Y1028700D03*
X927100Y1028700D03*
X958850Y812800D03*
X958850Y558800D03*
X806450Y539750D03*
D29*
X273050Y184150D02*
X266700Y177800D01*
X273050Y184150D02*
X349250Y184150D01*
X355600Y190500D01*
X488950Y190500D01*
X501650Y177800D01*
X520700Y177800D01*
X774700Y177800D02*
X781050Y184150D01*
X857250Y184150D01*
X863600Y190500D01*
X1016000Y190500D01*
X1028700Y177800D01*
X527050Y184150D02*
X520700Y177800D01*
X527050Y184150D02*
X603250Y184150D01*
X609600Y190500D01*
X749300Y190500D01*
X762000Y177800D01*
X774700Y177800D01*
X1028700Y1003300D02*
X1041400Y1016000D01*
X1028700Y1003300D02*
X889000Y1003300D01*
X273050Y577850D02*
X266700Y571500D01*
X273050Y577850D02*
X349250Y577850D01*
X355600Y584200D01*
X495300Y584200D01*
X508000Y571500D01*
X520700Y571500D01*
X774700Y571500D02*
X781050Y577850D01*
X857250Y577850D01*
X863600Y584200D01*
X901700Y584200D02*
X996950Y584200D01*
X901700Y584200D02*
X863600Y584200D01*
X996950Y584200D02*
X1009650Y571500D01*
X1028700Y571500D01*
X527050Y577850D02*
X520700Y571500D01*
X527050Y577850D02*
X603250Y577850D01*
X609600Y584200D01*
X749300Y584200D01*
X762000Y571500D01*
X774700Y571500D01*
X889000Y838200D02*
X876300Y850900D01*
X889000Y838200D02*
X889000Y812800D01*
X895350Y812800D01*
X901700Y590550D02*
X901700Y584200D01*
D30*
X889000Y1003300D03*
X895350Y812800D03*
X901700Y590550D03*
D29*
X273050Y209550D02*
X266700Y203200D01*
X273050Y209550D02*
X349250Y209550D01*
X355600Y215900D01*
X495300Y215900D01*
X508000Y203200D01*
X520700Y203200D01*
X774700Y203200D02*
X781050Y209550D01*
X857250Y209550D01*
X863600Y215900D01*
X1016000Y215900D01*
X1028700Y203200D01*
X527050Y209550D02*
X520700Y203200D01*
X527050Y209550D02*
X603250Y209550D01*
X609600Y215900D01*
X749300Y215900D01*
X762000Y203200D01*
X774700Y203200D01*
X863600Y863600D02*
X908050Y863600D01*
X863600Y863600D02*
X850900Y850900D01*
X273050Y603250D02*
X266700Y596900D01*
X273050Y603250D02*
X349250Y603250D01*
X355600Y609600D01*
X495300Y609600D01*
X508000Y596900D01*
X520700Y596900D01*
X774700Y596900D02*
X781050Y603250D01*
X857250Y603250D01*
X863600Y609600D01*
X914400Y609600D02*
X1016000Y609600D01*
X914400Y609600D02*
X863600Y609600D01*
X1016000Y609600D02*
X1028700Y596900D01*
X527050Y603250D02*
X520700Y596900D01*
X527050Y603250D02*
X603250Y603250D01*
X609600Y609600D01*
X749300Y609600D01*
X762000Y596900D01*
X774700Y596900D01*
X914400Y609600D02*
X914400Y622300D01*
D30*
X908050Y863600D03*
X914400Y622300D03*
D29*
X273050Y234950D02*
X266700Y228600D01*
X273050Y234950D02*
X349250Y234950D01*
X355600Y241300D01*
X495300Y241300D01*
X508000Y228600D01*
X520700Y228600D01*
X774700Y228600D02*
X781050Y234950D01*
X857250Y234950D01*
X863600Y241300D01*
X1016000Y241300D01*
X1028700Y228600D01*
X527050Y234950D02*
X520700Y228600D01*
X527050Y234950D02*
X603250Y234950D01*
X609600Y241300D01*
X749300Y241300D01*
X762000Y228600D01*
X774700Y228600D01*
X273050Y628650D02*
X266700Y622300D01*
X273050Y628650D02*
X349250Y628650D01*
X355600Y635000D01*
X488950Y635000D01*
X501650Y622300D01*
X520700Y622300D01*
X1022350Y628650D02*
X1028700Y622300D01*
X1022350Y628650D02*
X895350Y628650D01*
X889000Y635000D01*
X806450Y635000D01*
X793750Y622300D01*
X774700Y622300D01*
X825500Y876300D02*
X971550Y876300D01*
X825500Y876300D02*
X825500Y850900D01*
X527050Y628650D02*
X520700Y622300D01*
X527050Y628650D02*
X603250Y628650D01*
X609600Y635000D01*
X749300Y635000D01*
X762000Y622300D01*
X774700Y622300D01*
D30*
X971550Y876300D03*
D29*
X273050Y260350D02*
X266700Y254000D01*
X273050Y260350D02*
X349250Y260350D01*
X355600Y266700D01*
X508000Y266700D01*
X520700Y254000D01*
X762000Y266700D02*
X774700Y254000D01*
X762000Y266700D02*
X508000Y266700D01*
X1016000Y266700D02*
X1028700Y254000D01*
X1016000Y266700D02*
X762000Y266700D01*
X1079500Y869950D02*
X1079500Y933450D01*
X1079500Y869950D02*
X831850Y869950D01*
X279400Y660400D02*
X266700Y647700D01*
X279400Y660400D02*
X508000Y660400D01*
X520700Y647700D01*
X762000Y660400D02*
X774700Y647700D01*
X762000Y660400D02*
X508000Y660400D01*
X1022350Y654050D02*
X1028700Y647700D01*
X1022350Y654050D02*
X895350Y654050D01*
X889000Y660400D01*
X762000Y660400D01*
D30*
X1079500Y933450D03*
X831850Y869950D03*
D29*
X273050Y285750D02*
X266700Y279400D01*
X273050Y285750D02*
X349250Y285750D01*
X355600Y292100D01*
X508000Y292100D01*
X520700Y279400D01*
X762000Y292100D02*
X774700Y279400D01*
X762000Y292100D02*
X508000Y292100D01*
X1016000Y292100D02*
X1028700Y279400D01*
X996950Y292100D02*
X762000Y292100D01*
X996950Y292100D02*
X1016000Y292100D01*
X279400Y685800D02*
X266700Y673100D01*
X279400Y685800D02*
X508000Y685800D01*
X520700Y673100D01*
X762000Y685800D02*
X774700Y673100D01*
X762000Y685800D02*
X558800Y685800D01*
X546100Y673100D01*
X520700Y673100D01*
X1022350Y679450D02*
X1028700Y673100D01*
X1022350Y679450D02*
X895350Y679450D01*
X889000Y685800D01*
X762000Y685800D01*
X1022350Y679450D02*
X1130300Y679450D01*
X996950Y425450D02*
X996950Y292100D01*
X996950Y425450D02*
X1111250Y425450D01*
X1136650Y450850D01*
X1136650Y679450D01*
X1130300Y679450D01*
D30*
X1130300Y679450D03*
D29*
X127000Y63500D02*
X114300Y76200D01*
X127000Y63500D02*
X355600Y63500D01*
X368300Y76200D01*
X609600Y63500D02*
X622300Y76200D01*
X609600Y63500D02*
X355600Y63500D01*
X863600Y63500D02*
X876300Y76200D01*
X863600Y63500D02*
X609600Y63500D01*
X127000Y457200D02*
X114300Y469900D01*
X127000Y457200D02*
X355600Y457200D01*
X368300Y469900D01*
X615950Y463550D02*
X622300Y469900D01*
X615950Y463550D02*
X539750Y463550D01*
X533400Y457200D01*
X457200Y457200D02*
X355600Y457200D01*
X457200Y457200D02*
X533400Y457200D01*
X863600Y457200D02*
X876300Y469900D01*
X863600Y457200D02*
X755650Y457200D01*
X742950Y469900D01*
X622300Y469900D01*
X387350Y1174750D02*
X368300Y1193800D01*
X387350Y1174750D02*
X457200Y1174750D01*
X457200Y476250D02*
X457200Y457200D01*
X1066800Y596900D02*
X1079500Y609600D01*
X1066800Y596900D02*
X1066800Y571500D01*
X1111250Y571500D01*
X1130300Y552450D01*
X1130300Y457200D01*
X863600Y457200D01*
D30*
X457200Y1174750D03*
X457200Y476250D03*
D29*
X127000Y584200D02*
X114300Y596900D01*
X336550Y584200D02*
X342900Y584200D01*
X336550Y584200D02*
X127000Y584200D01*
X342900Y584200D02*
X355600Y596900D01*
X368300Y596900D01*
X622300Y596900D02*
X628650Y590550D01*
X755650Y590550D01*
X762000Y584200D01*
X850900Y584200D01*
X863600Y596900D01*
X876300Y596900D01*
X1073150Y565150D02*
X1079500Y558800D01*
X1073150Y565150D02*
X1060450Y565150D01*
X1041400Y584200D01*
X1009650Y584200D01*
X996950Y596900D01*
X876300Y596900D01*
X374650Y590550D02*
X368300Y596900D01*
X374650Y590550D02*
X501650Y590550D01*
X508000Y584200D01*
X596900Y584200D01*
X609600Y596900D01*
X622300Y596900D01*
X622300Y203200D02*
X628650Y196850D01*
X755650Y196850D01*
X762000Y190500D01*
X850900Y190500D01*
X863600Y203200D01*
X876300Y203200D01*
X127000Y190500D02*
X114300Y203200D01*
X127000Y190500D02*
X342900Y190500D01*
X355600Y203200D01*
X368300Y203200D01*
X615950Y196850D02*
X622300Y203200D01*
X615950Y196850D02*
X539750Y196850D01*
X533400Y190500D01*
X501650Y190500D01*
X488950Y203200D01*
X368300Y203200D01*
D30*
X336550Y584200D03*
D29*
X127000Y482600D02*
X114300Y495300D01*
X127000Y482600D02*
X342900Y482600D01*
X355600Y495300D01*
X368300Y495300D01*
X622300Y495300D02*
X628650Y488950D01*
X755650Y488950D01*
X762000Y482600D01*
X850900Y482600D01*
X863600Y495300D01*
X876300Y495300D01*
X374650Y488950D02*
X368300Y495300D01*
X374650Y488950D02*
X501650Y488950D01*
X508000Y482600D01*
X596900Y482600D01*
X609600Y495300D01*
X622300Y495300D01*
X622300Y101600D02*
X628650Y95250D01*
X755650Y95250D01*
X762000Y88900D01*
X850900Y88900D01*
X863600Y101600D01*
X876300Y101600D01*
X114300Y101600D02*
X76200Y139700D01*
X361950Y95250D02*
X368300Y101600D01*
X361950Y95250D02*
X285750Y95250D01*
X279400Y88900D01*
X127000Y88900D01*
X114300Y101600D01*
X615950Y95250D02*
X622300Y101600D01*
X615950Y95250D02*
X539750Y95250D01*
X533400Y88900D01*
X501650Y88900D01*
X488950Y101600D01*
X368300Y101600D01*
X127000Y241300D02*
X114300Y254000D01*
X127000Y241300D02*
X342900Y241300D01*
X355600Y254000D01*
X368300Y254000D01*
X622300Y254000D02*
X628650Y247650D01*
X755650Y247650D01*
X762000Y241300D01*
X850900Y241300D01*
X863600Y254000D01*
X876300Y254000D01*
X374650Y247650D02*
X368300Y254000D01*
X374650Y247650D02*
X501650Y247650D01*
X508000Y241300D01*
X596900Y241300D01*
X609600Y254000D01*
X622300Y254000D01*
X628650Y641350D02*
X622300Y647700D01*
X628650Y641350D02*
X755650Y641350D01*
X762000Y635000D01*
X793750Y635000D01*
X806450Y647700D01*
X876300Y647700D01*
X1079500Y584200D02*
X1092200Y596900D01*
X1092200Y622300D01*
X1054100Y622300D01*
X1041400Y635000D01*
X901700Y635000D01*
X889000Y647700D01*
X876300Y647700D01*
X127000Y635000D02*
X114300Y647700D01*
X127000Y635000D02*
X342900Y635000D01*
X355600Y647700D01*
X368300Y647700D01*
X615950Y641350D02*
X622300Y647700D01*
X615950Y641350D02*
X539750Y641350D01*
X533400Y635000D01*
X501650Y635000D01*
X488950Y647700D01*
X368300Y647700D01*
X266700Y723900D02*
X260350Y730250D01*
X222250Y730250D01*
X158750Y793750D01*
X120650Y793750D01*
X88900Y825500D01*
X527050Y1085850D02*
X533400Y1092200D01*
X527050Y1085850D02*
X254000Y1085850D01*
X196850Y1028700D01*
X101600Y1028700D01*
D30*
X101600Y1028700D03*
D29*
X127000Y736600D02*
X114300Y723900D01*
X127000Y736600D02*
X165100Y736600D01*
X260350Y990600D02*
X533400Y990600D01*
D30*
X165100Y736600D03*
X260350Y990600D03*
D29*
X260350Y755650D02*
X266700Y749300D01*
X260350Y755650D02*
X209550Y755650D01*
X165100Y800100D01*
X139700Y800100D01*
X114300Y825500D01*
X298450Y1066800D02*
X533400Y1066800D01*
D30*
X298450Y1066800D03*
D29*
X527050Y1035050D02*
X533400Y1041400D01*
X527050Y1035050D02*
X228600Y1035050D01*
X215900Y1022350D01*
X107950Y1022350D01*
D30*
X107950Y1022350D03*
D29*
X114300Y749300D02*
X165100Y749300D01*
X482600Y965200D02*
X501650Y984250D01*
X482600Y965200D02*
X215900Y965200D01*
X190500Y939800D01*
X190500Y863600D01*
X184150Y863600D01*
X177800Y857250D01*
X177800Y825500D01*
X165100Y825500D01*
D30*
X165100Y749300D03*
X501650Y984250D03*
D29*
X133350Y717550D02*
X114300Y698500D01*
X133350Y717550D02*
X190500Y717550D01*
X527050Y958850D02*
X533400Y965200D01*
X527050Y958850D02*
X260350Y958850D01*
X203200Y901700D01*
X203200Y825500D01*
X215900Y825500D01*
D30*
X190500Y717550D03*
D29*
X139700Y698500D02*
X114300Y673100D01*
X139700Y698500D02*
X241300Y698500D01*
X514350Y920750D02*
X533400Y939800D01*
X514350Y920750D02*
X260350Y920750D01*
X228600Y857250D02*
X228600Y825500D01*
X241300Y825500D01*
D30*
X241300Y698500D03*
X260350Y920750D03*
X228600Y857250D03*
D29*
X419100Y889000D02*
X596900Y889000D01*
X419100Y889000D02*
X406400Y901700D01*
X260350Y901700D01*
D30*
X596900Y889000D03*
X260350Y901700D03*
D29*
X298450Y1250950D02*
X419100Y1250950D01*
X419100Y1256030D01*
X419100Y1257300D02*
X482600Y1257300D01*
X419100Y1257300D02*
X419100Y1256030D01*
D30*
X298450Y1250950D03*
D29*
X285750Y1212850D02*
X266700Y1193800D01*
X285750Y1212850D02*
X419100Y1212850D01*
X419100Y1207770D01*
X419100Y1206500D02*
X482600Y1206500D01*
X419100Y1206500D02*
X419100Y1207770D01*
X850900Y1346200D02*
X850900Y1422400D01*
X266700Y1454150D02*
X266700Y1270000D01*
X266700Y1454150D02*
X304800Y1454150D01*
X342900Y1492250D01*
X501650Y1492250D01*
X508000Y1498600D01*
X317500Y1339850D02*
X317500Y1270000D01*
X317500Y1339850D02*
X311150Y1339850D01*
X311150Y1441450D01*
X533400Y1441450D01*
X552450Y1460500D01*
X673100Y1460500D01*
X711200Y1498600D01*
X165100Y1371600D02*
X165100Y1270000D01*
X165100Y1371600D02*
X152400Y1371600D01*
X114300Y1409700D01*
X152400Y1003300D02*
X114300Y965200D01*
X76200Y965200D01*
X901700Y1485900D02*
X965200Y1422400D01*
X292100Y1447800D02*
X292100Y1270000D01*
X292100Y1447800D02*
X431800Y1447800D01*
X469900Y1485900D01*
X596900Y1485900D01*
X609600Y1498600D01*
D30*
X1054100Y781050D03*
D29*
X800100Y895350D02*
X768350Y927100D01*
X800100Y895350D02*
X927100Y895350D01*
X939800Y882650D01*
D30*
X768350Y927100D03*
X939800Y882650D03*
D29*
X908050Y793750D02*
X889000Y793750D01*
X889000Y806450D01*
X939800Y806450D01*
X952500Y819150D01*
X952500Y825500D01*
X774700Y793750D02*
X762000Y806450D01*
X774700Y793750D02*
X889000Y793750D01*
D30*
X908050Y793750D03*
X762000Y806450D03*
D29*
X1003300Y381000D02*
X1028700Y355600D01*
X768350Y939800D02*
X768350Y958850D01*
X768350Y939800D02*
X762000Y939800D01*
X762000Y889000D01*
X920750Y889000D01*
D30*
X1003300Y381000D03*
X768350Y958850D03*
X920750Y889000D03*
D29*
X1041400Y812800D02*
X1047750Y806450D01*
X1041400Y812800D02*
X1016000Y812800D01*
X1003300Y825500D01*
X800100Y952500D02*
X787400Y965200D01*
X800100Y952500D02*
X952500Y952500D01*
D30*
X1047750Y806450D03*
X952500Y952500D03*
D29*
X812800Y698500D02*
X774700Y698500D01*
D30*
X812800Y698500D03*
X933450Y939800D03*
D29*
X1054100Y673100D02*
X1098550Y673100D01*
X1054100Y673100D02*
X1041400Y660400D01*
X901700Y660400D01*
X889000Y673100D01*
X876300Y673100D01*
D30*
X1098550Y673100D03*
D29*
X882650Y704850D02*
X876300Y698500D01*
X882650Y704850D02*
X1009650Y704850D01*
X1016000Y711200D01*
X1041400Y711200D01*
X1079500Y749300D01*
X1079500Y800100D02*
X1079500Y825500D01*
X1079500Y800100D02*
X1079500Y749300D01*
X1079500Y800100D02*
X895350Y800100D01*
D30*
X889000Y990600D03*
X895350Y800100D03*
D29*
X863600Y736600D02*
X876300Y723900D01*
X863600Y736600D02*
X641350Y736600D01*
X825500Y990600D02*
X863600Y990600D01*
X800100Y882650D02*
X793750Y876300D01*
X647700Y876300D01*
X622300Y850900D01*
D30*
X641350Y736600D03*
X825500Y990600D03*
X800100Y882650D03*
D29*
X869950Y755650D02*
X876300Y749300D01*
X869950Y755650D02*
X793750Y755650D01*
X787400Y762000D01*
X666750Y762000D01*
D30*
X666750Y762000D03*
D29*
X990600Y762000D02*
X1028700Y723900D01*
X990600Y762000D02*
X850900Y762000D01*
X850900Y800100D02*
X838200Y812800D01*
X793750Y812800D01*
X787400Y819150D01*
X787400Y838200D01*
X736600Y838200D01*
X723900Y850900D01*
X787400Y857250D02*
X793750Y863600D01*
X787400Y857250D02*
X787400Y838200D01*
D30*
X850900Y762000D03*
X850900Y800100D03*
X793750Y863600D03*
D29*
X800100Y927100D02*
X787400Y939800D01*
X800100Y927100D02*
X850900Y927100D01*
X876300Y901700D01*
X965200Y901700D01*
X990600Y876300D01*
X1028700Y876300D01*
D30*
X1028700Y876300D03*
D29*
X876300Y774700D02*
X863600Y787400D01*
X742950Y787400D01*
X736600Y781050D01*
X692150Y781050D01*
X850900Y1028700D02*
X863600Y1041400D01*
X850900Y1028700D02*
X692150Y1028700D01*
D30*
X692150Y781050D03*
X692150Y1028700D03*
D29*
X266700Y50800D02*
X279400Y38100D01*
X508000Y38100D01*
X520700Y50800D01*
X762000Y38100D02*
X774700Y50800D01*
X762000Y38100D02*
X508000Y38100D01*
X1016000Y38100D02*
X1028700Y50800D01*
X1016000Y38100D02*
X762000Y38100D01*
X273050Y438150D02*
X266700Y444500D01*
X273050Y438150D02*
X349250Y438150D01*
X355600Y431800D01*
X482600Y431800D01*
X495300Y444500D01*
X520700Y444500D01*
X774700Y444500D02*
X787400Y431800D01*
X1016000Y431800D01*
X1028700Y444500D01*
X527050Y450850D02*
X520700Y444500D01*
X527050Y450850D02*
X603250Y450850D01*
X609600Y457200D01*
X742950Y457200D01*
X755650Y444500D01*
X774700Y444500D01*
X273050Y336550D02*
X266700Y330200D01*
X273050Y336550D02*
X292100Y336550D01*
X558800Y965200D02*
X609600Y965200D01*
X558800Y965200D02*
X546100Y952500D01*
X266700Y952500D01*
X228600Y914400D01*
X228600Y863600D01*
X273050Y863600D01*
X279400Y857250D01*
X279400Y825500D01*
X292100Y825500D01*
D30*
X292100Y336550D03*
D29*
X273050Y361950D02*
X266700Y355600D01*
X273050Y361950D02*
X311150Y361950D01*
X609600Y990600D02*
X603250Y996950D01*
X552450Y996950D01*
X546100Y1003300D01*
X520700Y1003300D01*
X514350Y1009650D01*
X361950Y1009650D01*
D30*
X311150Y361950D03*
X361950Y1009650D03*
D29*
X139700Y406400D02*
X114300Y381000D01*
X139700Y406400D02*
X330200Y406400D01*
X533400Y914400D02*
X577850Y958850D01*
X533400Y914400D02*
X361950Y914400D01*
D30*
X330200Y406400D03*
X577850Y958850D03*
X361950Y914400D03*
D29*
X184150Y355600D02*
X114300Y355600D01*
X234950Y787400D02*
X247650Y800100D01*
X355600Y800100D01*
X603250Y1035050D02*
X609600Y1041400D01*
X603250Y1035050D02*
X565150Y1035050D01*
X571500Y793750D02*
X565150Y787400D01*
X368300Y787400D01*
X355600Y800100D01*
D30*
X184150Y355600D03*
X234950Y787400D03*
X355600Y800100D03*
X565150Y1035050D03*
X571500Y793750D03*
D29*
X133350Y349250D02*
X114300Y330200D01*
X133350Y349250D02*
X165100Y349250D01*
X222250Y800100D02*
X228600Y806450D01*
X381000Y806450D01*
X393700Y819150D01*
X393700Y825500D01*
X609600Y1066800D02*
X596900Y1079500D01*
X495300Y1079500D01*
X476250Y869950D02*
X469900Y863600D01*
X412750Y863600D01*
X406400Y857250D01*
X406400Y825500D01*
X393700Y825500D01*
D30*
X165100Y349250D03*
X222250Y800100D03*
X495300Y1079500D03*
X476250Y869950D03*
D29*
X114300Y304800D02*
X120650Y298450D01*
X247650Y298450D01*
X254000Y292100D01*
X330200Y292100D01*
X349250Y311150D01*
D30*
X349250Y311150D03*
D29*
X482600Y857250D02*
X495300Y869950D01*
X482600Y857250D02*
X482600Y838200D01*
X463550Y838200D01*
X450850Y825500D01*
X444500Y825500D01*
D30*
X495300Y869950D03*
D29*
X641350Y1162050D02*
X622300Y1181100D01*
X520700Y1181100D01*
X501650Y1162050D01*
D30*
X641350Y1162050D03*
X501650Y1162050D03*
D29*
X558800Y368300D02*
X520700Y330200D01*
X482600Y812800D02*
X495300Y825500D01*
X482600Y812800D02*
X457200Y812800D01*
X457200Y800100D01*
X577850Y800100D01*
D30*
X558800Y368300D03*
X577850Y800100D03*
D29*
X615950Y895350D02*
X641350Y920750D01*
X615950Y895350D02*
X533400Y895350D01*
D30*
X641350Y920750D03*
X533400Y895350D03*
D29*
X317500Y431800D02*
X368300Y381000D01*
X317500Y431800D02*
X88900Y431800D01*
X660400Y1041400D02*
X647700Y1054100D01*
X463550Y1054100D01*
X450850Y1041400D01*
X234950Y1041400D01*
D30*
X88900Y431800D03*
X234950Y1041400D03*
X209550Y1066800D03*
D29*
X355600Y342900D02*
X368300Y330200D01*
X355600Y342900D02*
X152400Y342900D01*
X152400Y806450D02*
X152400Y838200D01*
X127000Y838200D01*
X114300Y850900D01*
X577850Y1123950D02*
X590550Y1111250D01*
X577850Y1123950D02*
X552450Y1123950D01*
X546100Y1130300D01*
X234950Y1130300D01*
X146050Y1041400D01*
X139700Y1041400D01*
D30*
X152400Y342900D03*
X152400Y806450D03*
X590550Y1111250D03*
X139700Y1041400D03*
D29*
X355600Y317500D02*
X368300Y304800D01*
X355600Y317500D02*
X241300Y317500D01*
D30*
X241300Y317500D03*
D29*
X355600Y368300D02*
X368300Y355600D01*
X355600Y368300D02*
X101600Y368300D01*
X50800Y419100D01*
X50800Y838200D01*
X76200Y838200D01*
X88900Y850900D01*
X647700Y1003300D02*
X660400Y1016000D01*
X647700Y1003300D02*
X571500Y1003300D01*
X552450Y1022350D01*
X508000Y1003300D02*
X501650Y996950D01*
X222250Y996950D01*
X196850Y971550D01*
X146050Y971550D01*
X107950Y933450D01*
X107950Y863600D02*
X95250Y850900D01*
X88900Y850900D01*
D30*
X552450Y1022350D03*
X508000Y1003300D03*
X107950Y933450D03*
X107950Y863600D03*
D29*
X368300Y279400D02*
X361950Y273050D01*
X285750Y273050D01*
X279400Y266700D01*
X152400Y266700D01*
X127000Y292100D01*
X101600Y292100D01*
X25400Y368300D01*
X25400Y869950D01*
X146050Y869950D01*
X165100Y850900D01*
X622300Y876300D02*
X628650Y869950D01*
X622300Y876300D02*
X431800Y876300D01*
D30*
X628650Y869950D03*
X431800Y876300D03*
D29*
X508000Y711200D02*
X520700Y698500D01*
X508000Y711200D02*
X228600Y711200D01*
X209550Y730250D01*
X723900Y927100D02*
X736600Y939800D01*
X723900Y927100D02*
X615950Y927100D01*
X590550Y901700D01*
X419100Y901700D01*
X412750Y908050D01*
X234950Y908050D01*
D30*
X209550Y730250D03*
X234950Y908050D03*
D29*
X508000Y736600D02*
X520700Y723900D01*
X508000Y736600D02*
X228600Y736600D01*
X711200Y939800D02*
X736600Y965200D01*
X711200Y939800D02*
X679450Y939800D01*
D30*
X228600Y736600D03*
X679450Y939800D03*
D29*
X723900Y977900D02*
X736600Y990600D01*
X723900Y977900D02*
X508000Y977900D01*
X508000Y869950D02*
X508000Y806450D01*
X463550Y806450D01*
D30*
X508000Y977900D03*
X508000Y869950D03*
X463550Y806450D03*
D29*
X368300Y774700D02*
X349250Y793750D01*
X298450Y793750D01*
X730250Y1022350D02*
X736600Y1016000D01*
X730250Y1022350D02*
X679450Y1022350D01*
X673100Y1028700D01*
X463550Y1028700D01*
X450850Y1016000D01*
X298450Y1016000D01*
D30*
X298450Y793750D03*
X298450Y1016000D03*
D29*
X361950Y755650D02*
X368300Y749300D01*
X361950Y755650D02*
X317500Y755650D01*
X762000Y1136650D02*
X762000Y1155700D01*
X336550Y1155700D01*
D30*
X317500Y755650D03*
X762000Y1136650D03*
X336550Y1155700D03*
D29*
X330200Y723900D02*
X368300Y723900D01*
X374650Y869950D02*
X400050Y895350D01*
X374650Y869950D02*
X336550Y869950D01*
X317500Y850900D01*
D30*
X330200Y723900D03*
X400050Y895350D03*
D29*
X406400Y889000D02*
X381000Y863600D01*
X355600Y863600D01*
X342900Y850900D01*
D30*
X406400Y889000D03*
D29*
X730250Y1111250D02*
X736600Y1117600D01*
X730250Y1111250D02*
X679450Y1111250D01*
X673100Y1104900D01*
X374650Y1104900D01*
D30*
X374650Y1104900D03*
D29*
X539750Y762000D02*
X539750Y679450D01*
X539750Y762000D02*
X247650Y762000D01*
X215900Y793750D01*
X215900Y812800D01*
X374650Y812800D01*
X381000Y819150D01*
X381000Y850900D01*
X387350Y850900D01*
X730250Y882650D02*
X730250Y920750D01*
X730250Y882650D02*
X419100Y882650D01*
X387350Y850900D01*
X393700Y850900D01*
D30*
X539750Y679450D03*
X730250Y920750D03*
D29*
X895350Y1263650D02*
X895350Y1295400D01*
X660400Y1295400D01*
D30*
X539750Y831850D03*
X895350Y1263650D03*
X660400Y1295400D03*
D29*
X889000Y1289050D02*
X889000Y1276350D01*
X889000Y1289050D02*
X508000Y1289050D01*
X488950Y1270000D01*
X450850Y1270000D01*
D30*
X546100Y844550D03*
X889000Y1276350D03*
X450850Y1270000D03*
D29*
X711200Y368300D02*
X774700Y304800D01*
X711200Y368300D02*
X635000Y368300D01*
X819150Y863600D02*
X812800Y869950D01*
X673100Y869950D01*
X660400Y857250D01*
X660400Y825500D01*
X647700Y825500D01*
D30*
X635000Y368300D03*
X819150Y863600D03*
D29*
X977900Y927100D02*
X990600Y939800D01*
X977900Y927100D02*
X889000Y927100D01*
X876300Y914400D01*
X781050Y863600D02*
X692150Y863600D01*
X685800Y857250D01*
X685800Y825500D01*
X673100Y825500D01*
D30*
X876300Y914400D03*
X781050Y863600D03*
D29*
X647700Y723900D02*
X622300Y698500D01*
X647700Y723900D02*
X704850Y723900D01*
X952500Y1085850D02*
X933450Y1104900D01*
X711200Y1104900D01*
D30*
X704850Y723900D03*
X952500Y1085850D03*
X711200Y1104900D03*
D29*
X628650Y730250D02*
X622300Y723900D01*
X628650Y730250D02*
X711200Y730250D01*
X1016000Y838200D02*
X1016000Y857250D01*
X1016000Y838200D02*
X996950Y838200D01*
X990600Y831850D01*
X990600Y812800D01*
X971550Y812800D01*
X971550Y755650D02*
X927100Y711200D01*
X730250Y711200D01*
X711200Y730250D01*
D30*
X711200Y730250D03*
X1016000Y857250D03*
X971550Y812800D03*
X971550Y755650D03*
D29*
X635000Y787400D02*
X622300Y774700D01*
X635000Y787400D02*
X730250Y787400D01*
X768350Y825500D01*
X774700Y825500D01*
X990600Y1041400D02*
X1009650Y1060450D01*
X1009650Y1079500D01*
X673100Y1079500D01*
D30*
X673100Y1079500D03*
X806450Y946150D03*
D29*
X622300Y749300D02*
X603250Y768350D01*
X603250Y793750D01*
X717550Y793750D01*
X749300Y825500D01*
X990600Y1016000D02*
X996950Y1022350D01*
X1022350Y1022350D01*
X1028700Y1028700D01*
X1054100Y1028700D01*
X1060450Y1022350D01*
X1060450Y977900D01*
X774700Y977900D01*
X755650Y958850D01*
X755650Y901700D01*
X749300Y901700D01*
D30*
X749300Y901700D03*
D29*
X914400Y812800D02*
X933450Y812800D01*
X914400Y812800D02*
X901700Y825500D01*
D30*
X933450Y812800D03*
D29*
X990600Y787400D02*
X1028700Y749300D01*
X990600Y787400D02*
X895350Y787400D01*
X838200Y838200D02*
X838200Y857250D01*
X838200Y838200D02*
X863600Y838200D01*
X876300Y825500D01*
D30*
X895350Y787400D03*
X838200Y857250D03*
D29*
X977900Y1054100D02*
X990600Y1066800D01*
X977900Y1054100D02*
X736600Y1054100D01*
D30*
X736600Y1054100D03*
D29*
X749300Y431800D02*
X876300Y304800D01*
X749300Y431800D02*
X590550Y431800D01*
D30*
X590550Y431800D03*
D29*
X1028700Y698500D02*
X1035050Y704850D01*
X1047750Y704850D01*
X1136650Y793750D01*
X1136650Y1130300D01*
X876300Y1130300D01*
X863600Y1117600D01*
X876300Y1130300D02*
X558800Y1130300D01*
D30*
X558800Y1130300D03*
M02*
