M48
;GenerationSoftware,Autodesk,EAGLE,9.6.2*%
;CreationDate,2020-07-16T00:28:57Z*%
FMAT,2
ICI,OFF
METRIC,TZ,000.000
T11C0.254
T10C0.800
T9C0.813
T8C0.914
T7C1.000
T6C1.016
T5C1.118
T4C1.143
T3C1.200
T2C1.803
T1C2.794
%
G90
M71
T1
X137166Y20320
X48254Y20320
T2
X120650Y156591
X120650Y165989
X52070Y156591
X63500Y165989
X63500Y156591
X74930Y165989
X74930Y161290
X74930Y156591
X86360Y165989
X86360Y161290
X40640Y165989
X40640Y161290
X40640Y156591
X52070Y165989
X139700Y156591
X139700Y161290
X139700Y165989
X52070Y161290
X120650Y161290
X63500Y161290
X109220Y156591
X109220Y161290
X109220Y165989
X97790Y156591
X97790Y161290
X97790Y165989
X86360Y156591
T3
X46680Y190540
X39680Y190540
T4
X137085Y135600
X137085Y131100
X143585Y131100
X143585Y135600
T5
X52070Y189230
X67310Y189230
X57150Y189230
X62230Y189230
T6
X58420Y22860
X109220Y27940
X128905Y33020
X126365Y33020
X53340Y27940
X55880Y27940
X58420Y27940
X60960Y27940
X63500Y27940
X66040Y27940
X68580Y27940
X71120Y27940
X73660Y27940
X76200Y27940
X78740Y27940
X81280Y27940
X83820Y27940
X86360Y27940
X88900Y27940
X91440Y27940
X53340Y25400
X55880Y25400
X58420Y25400
X60960Y25400
X63500Y25400
X66040Y25400
X68580Y25400
X71120Y25400
X73660Y25400
X76200Y25400
X78740Y25400
X81280Y25400
X83820Y25400
X86360Y25400
X88900Y25400
X91440Y25400
X53340Y22860
X55880Y22860
X128270Y191770
X60960Y22860
X63500Y22860
X66040Y22860
X68580Y22860
X71120Y22860
X73660Y22860
X76200Y22860
X78740Y22860
X81280Y22860
X83820Y22860
X86360Y22860
X88900Y22860
X91440Y22860
X93980Y27940
X96520Y27940
X99060Y27940
X101600Y27940
X104140Y27940
X106680Y27940
X131445Y33020
X111760Y27940
X114300Y27940
X116840Y27940
X119380Y27940
X121920Y27940
X124460Y27940
X127000Y27940
X129540Y27940
X132080Y27940
X93980Y25400
X96520Y25400
X99060Y25400
X101600Y25400
X104140Y25400
X106680Y25400
X109220Y25400
X111760Y25400
X114300Y25400
X116840Y25400
X119380Y25400
X121920Y25400
X124460Y25400
X127000Y25400
X129540Y25400
X132080Y25400
X93980Y22860
X96520Y22860
X99060Y22860
X101600Y22860
X104140Y22860
X106680Y22860
X109220Y22860
X111760Y22860
X114300Y22860
X116840Y22860
X119380Y22860
X121920Y22860
X124460Y22860
X127000Y22860
X129540Y22860
X132080Y22860
X131445Y135890
X131445Y133350
X131445Y130810
X126365Y38100
X128905Y38100
X131445Y38100
X118110Y191770
X120650Y191770
X123190Y191770
X125730Y191770
T7
X130810Y191770
T8
X139065Y186055
X125730Y186055
X128270Y186055
X136525Y186055
T9
X109220Y149225
X107950Y64135
X107950Y61595
X107950Y78105
X107950Y75565
X46355Y78105
X46355Y75565
X46355Y62865
X46355Y65405
X46355Y51435
X46355Y48895
X46355Y38100
X46355Y35560
X76835Y38100
X76835Y35560
X76835Y51435
X76835Y48895
X76835Y64770
X76835Y62230
X76835Y78105
X76835Y75565
X107950Y50165
X107950Y47625
X111125Y52705
X113665Y52705
X116205Y52705
X118745Y52705
X121285Y52705
X123825Y52705
X126365Y52705
X128905Y52705
X131445Y52705
X133985Y52705
X133985Y45085
X131445Y45085
X121285Y45085
X123825Y45085
X118745Y45085
X116205Y45085
X128905Y45085
X126365Y45085
X113665Y45085
X111125Y45085
X111125Y66675
X113665Y66675
X116205Y66675
X118745Y66675
X121285Y66675
X123825Y66675
X126365Y66675
X128905Y66675
X131445Y66675
X133985Y66675
X133985Y59055
X131445Y59055
X121285Y59055
X123825Y59055
X118745Y59055
X116205Y59055
X128905Y59055
X126365Y59055
X113665Y59055
X111125Y59055
X111125Y80645
X113665Y80645
X116205Y80645
X118745Y80645
X121285Y80645
X123825Y80645
X126365Y80645
X128905Y80645
X131445Y80645
X133985Y80645
X133985Y73025
X131445Y73025
X121285Y73025
X123825Y73025
X118745Y73025
X116205Y73025
X128905Y73025
X126365Y73025
X113665Y73025
X111125Y73025
X80010Y40640
X82550Y40640
X85090Y40640
X87630Y40640
X90170Y40640
X92710Y40640
X95250Y40640
X97790Y40640
X100330Y40640
X102870Y40640
X102870Y33020
X100330Y33020
X90170Y33020
X92710Y33020
X87630Y33020
X85090Y33020
X97790Y33020
X95250Y33020
X82550Y33020
X80010Y33020
X80010Y53340
X82550Y53340
X85090Y53340
X87630Y53340
X90170Y53340
X92710Y53340
X95250Y53340
X97790Y53340
X100330Y53340
X102870Y53340
X102870Y45720
X100330Y45720
X90170Y45720
X92710Y45720
X87630Y45720
X85090Y45720
X97790Y45720
X95250Y45720
X82550Y45720
X80010Y45720
X80010Y67310
X82550Y67310
X85090Y67310
X87630Y67310
X90170Y67310
X92710Y67310
X95250Y67310
X97790Y67310
X100330Y67310
X102870Y67310
X102870Y59690
X100330Y59690
X90170Y59690
X92710Y59690
X87630Y59690
X85090Y59690
X97790Y59690
X89027Y135763
X89027Y130937
X50165Y129540
X52705Y129540
X55245Y129540
X57785Y129540
X60325Y129540
X62865Y129540
X65405Y129540
X67945Y129540
X70485Y129540
X73025Y129540
X75565Y129540
X78105Y129540
X80645Y129540
X83185Y129540
X83185Y137160
X80645Y137160
X78105Y137160
X75565Y137160
X73025Y137160
X70485Y137160
X67945Y137160
X65405Y137160
X62865Y137160
X60325Y137160
X57785Y137160
X55245Y137160
X52705Y137160
X50165Y137160
X97155Y131064
X94615Y131064
X97409Y135636
X94869Y135636
X119380Y186055
X116840Y186055
X43815Y134620
X43815Y137160
X43815Y129540
X43815Y132080
X137795Y87630
X137795Y90170
X137795Y92710
X137795Y95250
X137795Y97790
X137795Y100330
X137795Y102870
X137795Y105410
X137795Y107950
X137795Y110490
X137795Y113030
X137795Y115570
X137795Y118110
X137795Y120650
X130175Y120650
X130175Y118110
X130175Y115570
X130175Y113030
X130175Y110490
X130175Y107950
X130175Y105410
X130175Y102870
X130175Y100330
X130175Y97790
X130175Y95250
X130175Y92710
X130175Y90170
X130175Y87630
X88265Y87630
X88265Y90170
X88265Y92710
X88265Y95250
X88265Y97790
X88265Y100330
X88265Y102870
X88265Y105410
X88265Y107950
X88265Y110490
X88265Y113030
X88265Y115570
X88265Y118110
X88265Y120650
X80645Y120650
X80645Y118110
X80645Y115570
X80645Y113030
X80645Y110490
X80645Y107950
X80645Y105410
X80645Y102870
X80645Y100330
X80645Y97790
X80645Y95250
X80645Y92710
X80645Y90170
X80645Y87630
X55245Y87630
X55245Y90170
X55245Y92710
X55245Y95250
X55245Y97790
X55245Y100330
X55245Y102870
X55245Y105410
X55245Y107950
X55245Y110490
X55245Y113030
X55245Y115570
X55245Y118110
X55245Y120650
X47625Y120650
X47625Y118110
X47625Y115570
X47625Y113030
X47625Y110490
X47625Y107950
X47625Y105410
X47625Y102870
X47625Y100330
X47625Y97790
X47625Y95250
X47625Y92710
X47625Y90170
X47625Y87630
X116205Y129540
X118745Y129540
X121285Y129540
X123825Y129540
X123825Y137160
X121285Y137160
X118745Y137160
X116205Y137160
X95250Y59690
X82550Y59690
X80010Y59690
X80010Y80645
X82550Y80645
X85090Y80645
X130810Y145415
X140970Y145415
X111125Y135890
X100965Y135890
X93345Y110490
X93345Y120650
X60325Y110490
X60325Y120650
X126365Y110490
X126365Y120650
X111125Y130810
X100965Y130810
X104775Y87630
X104775Y90170
X104775Y92710
X104775Y95250
X104775Y97790
X104775Y100330
X104775Y102870
X104775Y105410
X104775Y107950
X104775Y110490
X104775Y113030
X104775Y115570
X104775Y118110
X104775Y120650
X97155Y120650
X97155Y118110
X97155Y115570
X97155Y113030
X97155Y110490
X97155Y107950
X97155Y105410
X97155Y102870
X97155Y100330
X97155Y97790
X97155Y95250
X97155Y92710
X97155Y90170
X97155Y87630
X109855Y110490
X109855Y120650
X71755Y87630
X71755Y90170
X71755Y92710
X71755Y95250
X71755Y97790
X71755Y100330
X71755Y102870
X71755Y105410
X71755Y107950
X71755Y110490
X71755Y113030
X71755Y115570
X71755Y118110
X71755Y120650
X64135Y120650
X64135Y118110
X64135Y115570
X64135Y113030
X64135Y110490
X64135Y107950
X64135Y105410
X64135Y102870
X64135Y100330
X64135Y97790
X64135Y95250
X64135Y92710
X64135Y90170
X64135Y87630
X43815Y110490
X43815Y120650
X76200Y193040
X76200Y190500
X99060Y193040
X99060Y190500
X83820Y193040
X83820Y190500
X106680Y193040
X106680Y190500
X91440Y193040
X91440Y190500
X86360Y184785
X96520Y184785
X78105Y182245
X88265Y182245
X71120Y185420
X81280Y185420
X94615Y182245
X104775Y182245
X101600Y185420
X111760Y185420
X50165Y124460
X52705Y124460
X66675Y124460
X69215Y124460
X99695Y124460
X102235Y124460
X116205Y124460
X118745Y124460
X132715Y124460
X135255Y124460
X52070Y184150
X54610Y184150
X57150Y184150
X87630Y80645
X90170Y80645
X62230Y184150
X64770Y184150
X67310Y184150
X92710Y80645
X95250Y80645
X97790Y80645
X100330Y80645
X102870Y80645
X146050Y44450
X146050Y46990
X146050Y49530
X146050Y52070
X146050Y54610
X146050Y57150
X146050Y59690
X146050Y62230
X146050Y64770
X146050Y20320
X146050Y22860
X146050Y25400
X146050Y27940
X146050Y30480
X146050Y33020
X146050Y35560
X146050Y38100
X146050Y40640
X39370Y44450
X39370Y46990
X39370Y49530
X39370Y52070
X39370Y54610
X39370Y57150
X39370Y59690
X39370Y62230
X39370Y64770
X39370Y20320
X39370Y22860
X39370Y25400
X39370Y27940
X39370Y30480
X39370Y33020
X39370Y35560
X39370Y38100
X39370Y40640
X102870Y73025
X100330Y73025
X90170Y73025
X92710Y73025
X87630Y73025
X85090Y73025
X97790Y73025
X95250Y73025
X82550Y73025
X80010Y73025
X49530Y40640
X52070Y40640
X54610Y40640
X57150Y40640
X59690Y40640
X62230Y40640
X64770Y40640
X67310Y40640
X69850Y40640
X72390Y40640
X72390Y33020
X69850Y33020
X59690Y33020
X62230Y33020
X57150Y33020
X54610Y33020
X67310Y33020
X64770Y33020
X52070Y33020
X49530Y33020
X49530Y53975
X52070Y53975
X54610Y53975
X57150Y53975
X59690Y53975
X62230Y53975
X64770Y53975
X67310Y53975
X69850Y53975
X72390Y53975
X72390Y46355
X69850Y46355
X59690Y46355
X62230Y46355
X57150Y46355
X54610Y46355
X67310Y46355
X64770Y46355
X52070Y46355
X49530Y46355
X49530Y67945
X52070Y67945
X54610Y67945
X57150Y67945
X59690Y67945
X62230Y67945
X64770Y67945
X67310Y67945
X69850Y67945
X72390Y67945
X72390Y60325
X69850Y60325
X59690Y60325
X62230Y60325
X57150Y60325
X54610Y60325
X67310Y60325
X64770Y60325
X52070Y60325
X49530Y60325
X49530Y80645
X52070Y80645
X54610Y80645
X57150Y80645
X59690Y80645
X62230Y80645
X64770Y80645
X67310Y80645
X69850Y80645
X72390Y80645
X72390Y73025
X69850Y73025
X59690Y73025
X62230Y73025
X57150Y73025
X54610Y73025
X67310Y73025
X64770Y73025
X52070Y73025
X49530Y73025
X43180Y145415
X53340Y145415
X77470Y149225
X80010Y149225
X97790Y144145
X97790Y146685
X146050Y193040
X146050Y190500
X146050Y184150
X146050Y173990
X121285Y87630
X121285Y90170
X121285Y92710
X121285Y95250
X121285Y97790
X121285Y100330
X121285Y102870
X121285Y105410
X121285Y107950
X121285Y110490
X121285Y113030
X121285Y115570
X121285Y118110
X121285Y120650
X113665Y120650
X113665Y118110
X113665Y115570
X113665Y113030
X113665Y110490
X113665Y107950
X113665Y105410
X113665Y102870
X113665Y100330
X113665Y97790
X113665Y95250
X113665Y92710
X113665Y90170
X113665Y87630
X76835Y110490
X76835Y120650
X60960Y144145
X60960Y146685
X85725Y124460
X83185Y124460
X104140Y149225
X106680Y149225
X111760Y149225
X114300Y149225
X116840Y149225
X119380Y149225
X121920Y149225
X124460Y149225
X127000Y149225
X127000Y141605
X124460Y141605
X114300Y141605
X116840Y141605
X111760Y141605
X109220Y141605
X121920Y141605
X119380Y141605
X106680Y141605
X104140Y141605
X67310Y149225
X69850Y149225
X72390Y149225
X74930Y149225
X40640Y175006
X40640Y177546
X46355Y155829
X46355Y165989
X52070Y175006
X52070Y177546
X57785Y155829
X57785Y165989
X63500Y175260
X63500Y177800
X69215Y155829
X69215Y165989
X74930Y175260
X74930Y177800
X80645Y155829
X80645Y165989
X86360Y175006
X86360Y177546
X92075Y155829
X92075Y165989
X97790Y175260
X97790Y177800
X103505Y155829
X103505Y165989
X109220Y175260
X109220Y177800
X114935Y155829
X114935Y165989
X120650Y175260
X120650Y177800
X126365Y155829
X126365Y165989
X139700Y175006
X139700Y177546
X133985Y156083
X133985Y166243
X67310Y141605
X69850Y141605
X82550Y141605
X85090Y141605
X72390Y141605
X74930Y141605
X80010Y141605
X77470Y141605
X87630Y141605
X90170Y141605
X90170Y149225
X87630Y149225
X85090Y149225
X82550Y149225
T10
X45680Y193040
X40680Y193040
T11
X115887Y24130
X90487Y21273
X90487Y50165
X91757Y57150
X106045Y56515
X101282Y61277
X98107Y57150
X96520Y50800
X93027Y76518
X106045Y76518
X106045Y65405
X93027Y27305
X102552Y30480
X90805Y75883
X134938Y75565
X85408Y74930
X112395Y55245
X86360Y55245
X43180Y34925
X75248Y35878
X95885Y70803
X136208Y64770
X94615Y42863
X77470Y42863
X44767Y27940
X52070Y20638
X122872Y28892
X44450Y28892
X50165Y23177
X128270Y28892
X116205Y41275
X84773Y21273
X113030Y40958
X112712Y28892
X79693Y20638
X73978Y82233
X89852Y21907
X76835Y21590
X115252Y29845
X74295Y20320
X73978Y78740
X117792Y31115
X51435Y18733
X62547Y19368
X135890Y78740
X45402Y29845
X52070Y21907
X119380Y107632
X66358Y31750
X111760Y78740
X107632Y53657
X90805Y138748
X58420Y50165
X60325Y24447
X61595Y52387
X69533Y55880
X55880Y55245
X67945Y56515
X95567Y23495
X89852Y24447
X86995Y48260
X67945Y49847
X61595Y61912
X122237Y54927
X78105Y55562
X75883Y59372
X59372Y63500
X115887Y39053
X80645Y39053
X80328Y61277
X118427Y37783
X85408Y37783
X84455Y63817
X76200Y140335
X91440Y36195
X113030Y35560
X94297Y31750
X112712Y32385
X100965Y42228
X109855Y42228
X106997Y59690
X98425Y65087
X99695Y64452
X98425Y63817
X110172Y57785
X120015Y33655
X95567Y28575
X123507Y39688
X93980Y37783
X88265Y62230
X92392Y23495
X123507Y61595
X83185Y61912
X74930Y44767
X60642Y29845
X72073Y29845
X62547Y27305
X70168Y24765
X63182Y29210
X53975Y51117
X51117Y34290
X113030Y62865
X81280Y62230
X83185Y37783
X125412Y35878
X106362Y44132
X108267Y37148
X123507Y37148
X93345Y48260
X120967Y47942
X115887Y46672
X92710Y48895
X114935Y48895
X113982Y31115
X129857Y40005
X96520Y39053
X113347Y41910
X110172Y31115
X101600Y42545
X113030Y50165
X88900Y49530
X106680Y32067
X107950Y36195
X66358Y34608
X67628Y37783
X72073Y37783
X75883Y38735
X81280Y31432
X67945Y174625
X59372Y144780
X72708Y146685
X70485Y104140
X75248Y145098
X68898Y152400
X67628Y143828
X118427Y147955
X83820Y98425
X87313Y139383
X94615Y143193
X73025Y104457
X57785Y91122
X75565Y145733
X69215Y88265
X73343Y146685
X51752Y139383
X83820Y93662
X48260Y153988
X56832Y153988
X82550Y170815
X133350Y120015
X78105Y84773
X89535Y63817
X91757Y34290
X47942Y37148
X94932Y38418
X47942Y34290
X78105Y52387
X50482Y90805
X47942Y42228
X101282Y108902
X45085Y106680
X44767Y42863
X109220Y97472
X112395Y44450
X102552Y97472
X103822Y57785
X69215Y57150
X87947Y69533
X66993Y69533
X79058Y173038
X89852Y61277
X66040Y57785
X103187Y88265
X56197Y82868
X99377Y87947
X98742Y94615
X56832Y93980
X97790Y83503
X114935Y83820
X101917Y89852
X102552Y55880
X118745Y55245
X119697Y90805
X118745Y51117
X132080Y91122
X101282Y97472
X101600Y66040
X125412Y63182
X111442Y99377
X116522Y46672
X95250Y103505
X73343Y57150
X85725Y101600
X95250Y100012
X76200Y97472
X78105Y56197
X97155Y55880
X70485Y78105
X96520Y78423
X72708Y85090
X93662Y83503
X76835Y89852
X76200Y50482
X87630Y48895
X75248Y86678
X77470Y47307
X53022Y81915
X58420Y89852
X65405Y48260
X62865Y48260
X51117Y90805
X116840Y102552
X123507Y70485
X127635Y97155
X128270Y91757
X127000Y89535
X118745Y89535
X117475Y87630
X109220Y92710
X109220Y69850
X95567Y69533
X109855Y95250
X107315Y69215
X100647Y98425
X106045Y59372
X89852Y101917
X104775Y65405
X86360Y70803
X75565Y101917
X75883Y70168
X86995Y91757
X62547Y90805
X67945Y94932
X65405Y91757
X57785Y88265
X88265Y75565
X54292Y69533
X80645Y84138
X82233Y84138
X125730Y93980
X108267Y84138
X107632Y96202
X81598Y70168
X126365Y76200
X84138Y78105
X122237Y74930
X118427Y104775
X115252Y104775
X83185Y107315
X98742Y100012
X98425Y84138
X99060Y87313
X96520Y86360
X134620Y78105
X87630Y77788
X91440Y85725
X132080Y85725
X60007Y97472
X65087Y86360
X126365Y92075
X67628Y88900
X66358Y97155
X110490Y100012
X106680Y73660
X102552Y101917
X98425Y75883
X53657Y106997
X127317Y42863
X57785Y43815
X86678Y35243
X52705Y36513
X64135Y42228
X49212Y48260
X44450Y78740
X110807Y89852
X51435Y23177
X64452Y20320
X57150Y143510
X115252Y154305
X119062Y154305
X109220Y151765
X126682Y154305
X116840Y161290
X70485Y164465
X78105Y164783
X59690Y151765
X74930Y19685
X73978Y79375
X120332Y30480
X72073Y20320
X61912Y18733
X94615Y91757
M30