G04 EAGLE Gerber RS-274X export*
G75*
%MOMM*%
%FSLAX34Y34*%
%LPD*%
%INBottom Copper*%
%IPPOS*%
%AMOC8*
5,1,8,0,0,1.08239X$1,22.5*%
G01*
%ADD10C,1.219200*%
%ADD11C,1.219200*%
%ADD12P,1.814519X8X22.500000*%
%ADD13P,1.814519X8X202.500000*%
%ADD14C,1.778000*%
%ADD15C,1.651000*%
%ADD16C,1.524000*%
%ADD17C,2.200000*%
%ADD18C,1.700000*%
%ADD19P,1.319650X8X202.500000*%
%ADD20P,1.319650X8X22.500000*%
%ADD21P,1.649562X8X292.500000*%
%ADD22P,1.649562X8X202.500000*%
%ADD23C,0.127000*%
%ADD24C,0.457200*%


D10*
X647700Y844804D02*
X647700Y856996D01*
X673100Y856996D02*
X673100Y844804D01*
X800100Y844804D02*
X800100Y856996D01*
X825500Y856996D02*
X825500Y844804D01*
X698500Y844804D02*
X698500Y856996D01*
X723900Y856996D02*
X723900Y844804D01*
X774700Y844804D02*
X774700Y856996D01*
X749300Y856996D02*
X749300Y844804D01*
X850900Y844804D02*
X850900Y856996D01*
X876300Y856996D02*
X876300Y844804D01*
X876300Y921004D02*
X876300Y933196D01*
X850900Y933196D02*
X850900Y921004D01*
X825500Y921004D02*
X825500Y933196D01*
X800100Y933196D02*
X800100Y921004D01*
X774700Y921004D02*
X774700Y933196D01*
X749300Y933196D02*
X749300Y921004D01*
X723900Y921004D02*
X723900Y933196D01*
X698500Y933196D02*
X698500Y921004D01*
X673100Y921004D02*
X673100Y933196D01*
X647700Y933196D02*
X647700Y921004D01*
X342900Y704596D02*
X342900Y692404D01*
X368300Y692404D02*
X368300Y704596D01*
X495300Y704596D02*
X495300Y692404D01*
X520700Y692404D02*
X520700Y704596D01*
X393700Y704596D02*
X393700Y692404D01*
X419100Y692404D02*
X419100Y704596D01*
X469900Y704596D02*
X469900Y692404D01*
X444500Y692404D02*
X444500Y704596D01*
X546100Y704596D02*
X546100Y692404D01*
X571500Y692404D02*
X571500Y704596D01*
X571500Y768604D02*
X571500Y780796D01*
X546100Y780796D02*
X546100Y768604D01*
X520700Y768604D02*
X520700Y780796D01*
X495300Y780796D02*
X495300Y768604D01*
X469900Y768604D02*
X469900Y780796D01*
X444500Y780796D02*
X444500Y768604D01*
X419100Y768604D02*
X419100Y780796D01*
X393700Y780796D02*
X393700Y768604D01*
X368300Y768604D02*
X368300Y780796D01*
X342900Y780796D02*
X342900Y768604D01*
X342900Y997204D02*
X342900Y1009396D01*
X368300Y1009396D02*
X368300Y997204D01*
X495300Y997204D02*
X495300Y1009396D01*
X520700Y1009396D02*
X520700Y997204D01*
X393700Y997204D02*
X393700Y1009396D01*
X419100Y1009396D02*
X419100Y997204D01*
X469900Y997204D02*
X469900Y1009396D01*
X444500Y1009396D02*
X444500Y997204D01*
X546100Y997204D02*
X546100Y1009396D01*
X571500Y1009396D02*
X571500Y997204D01*
X571500Y1073404D02*
X571500Y1085596D01*
X546100Y1085596D02*
X546100Y1073404D01*
X520700Y1073404D02*
X520700Y1085596D01*
X495300Y1085596D02*
X495300Y1073404D01*
X469900Y1073404D02*
X469900Y1085596D01*
X444500Y1085596D02*
X444500Y1073404D01*
X419100Y1073404D02*
X419100Y1085596D01*
X393700Y1085596D02*
X393700Y1073404D01*
X368300Y1073404D02*
X368300Y1085596D01*
X342900Y1085596D02*
X342900Y1073404D01*
X647700Y704596D02*
X647700Y692404D01*
X673100Y692404D02*
X673100Y704596D01*
X800100Y704596D02*
X800100Y692404D01*
X825500Y692404D02*
X825500Y704596D01*
X698500Y704596D02*
X698500Y692404D01*
X723900Y692404D02*
X723900Y704596D01*
X774700Y704596D02*
X774700Y692404D01*
X749300Y692404D02*
X749300Y704596D01*
X850900Y704596D02*
X850900Y692404D01*
X876300Y692404D02*
X876300Y704596D01*
X876300Y768604D02*
X876300Y780796D01*
X850900Y780796D02*
X850900Y768604D01*
X825500Y768604D02*
X825500Y780796D01*
X800100Y780796D02*
X800100Y768604D01*
X774700Y768604D02*
X774700Y780796D01*
X749300Y780796D02*
X749300Y768604D01*
X723900Y768604D02*
X723900Y780796D01*
X698500Y780796D02*
X698500Y768604D01*
X673100Y768604D02*
X673100Y780796D01*
X647700Y780796D02*
X647700Y768604D01*
X12700Y997204D02*
X12700Y1009396D01*
X38100Y1009396D02*
X38100Y997204D01*
X165100Y997204D02*
X165100Y1009396D01*
X190500Y1009396D02*
X190500Y997204D01*
X63500Y997204D02*
X63500Y1009396D01*
X88900Y1009396D02*
X88900Y997204D01*
X139700Y997204D02*
X139700Y1009396D01*
X114300Y1009396D02*
X114300Y997204D01*
X215900Y997204D02*
X215900Y1009396D01*
X241300Y1009396D02*
X241300Y997204D01*
X241300Y1073404D02*
X241300Y1085596D01*
X215900Y1085596D02*
X215900Y1073404D01*
X190500Y1073404D02*
X190500Y1085596D01*
X165100Y1085596D02*
X165100Y1073404D01*
X139700Y1073404D02*
X139700Y1085596D01*
X114300Y1085596D02*
X114300Y1073404D01*
X88900Y1073404D02*
X88900Y1085596D01*
X63500Y1085596D02*
X63500Y1073404D01*
X38100Y1073404D02*
X38100Y1085596D01*
X12700Y1085596D02*
X12700Y1073404D01*
X1066800Y94996D02*
X1066800Y82804D01*
X1092200Y82804D02*
X1092200Y94996D01*
X1219200Y94996D02*
X1219200Y82804D01*
X1244600Y82804D02*
X1244600Y94996D01*
X1117600Y94996D02*
X1117600Y82804D01*
X1143000Y82804D02*
X1143000Y94996D01*
X1193800Y94996D02*
X1193800Y82804D01*
X1168400Y82804D02*
X1168400Y94996D01*
X1270000Y94996D02*
X1270000Y82804D01*
X1295400Y82804D02*
X1295400Y94996D01*
X1295400Y159004D02*
X1295400Y171196D01*
X1270000Y171196D02*
X1270000Y159004D01*
X1244600Y159004D02*
X1244600Y171196D01*
X1219200Y171196D02*
X1219200Y159004D01*
X1193800Y159004D02*
X1193800Y171196D01*
X1168400Y171196D02*
X1168400Y159004D01*
X1143000Y159004D02*
X1143000Y171196D01*
X1117600Y171196D02*
X1117600Y159004D01*
X1092200Y159004D02*
X1092200Y171196D01*
X1066800Y171196D02*
X1066800Y159004D01*
X647700Y387604D02*
X647700Y399796D01*
X673100Y399796D02*
X673100Y387604D01*
X800100Y387604D02*
X800100Y399796D01*
X825500Y399796D02*
X825500Y387604D01*
X698500Y387604D02*
X698500Y399796D01*
X723900Y399796D02*
X723900Y387604D01*
X774700Y387604D02*
X774700Y399796D01*
X749300Y399796D02*
X749300Y387604D01*
X850900Y387604D02*
X850900Y399796D01*
X876300Y399796D02*
X876300Y387604D01*
X876300Y463804D02*
X876300Y475996D01*
X850900Y475996D02*
X850900Y463804D01*
X825500Y463804D02*
X825500Y475996D01*
X800100Y475996D02*
X800100Y463804D01*
X774700Y463804D02*
X774700Y475996D01*
X749300Y475996D02*
X749300Y463804D01*
X723900Y463804D02*
X723900Y475996D01*
X698500Y475996D02*
X698500Y463804D01*
X673100Y463804D02*
X673100Y475996D01*
X647700Y475996D02*
X647700Y463804D01*
X647700Y247396D02*
X647700Y235204D01*
X673100Y235204D02*
X673100Y247396D01*
X800100Y247396D02*
X800100Y235204D01*
X825500Y235204D02*
X825500Y247396D01*
X698500Y247396D02*
X698500Y235204D01*
X723900Y235204D02*
X723900Y247396D01*
X774700Y247396D02*
X774700Y235204D01*
X749300Y235204D02*
X749300Y247396D01*
X850900Y247396D02*
X850900Y235204D01*
X876300Y235204D02*
X876300Y247396D01*
X876300Y311404D02*
X876300Y323596D01*
X850900Y323596D02*
X850900Y311404D01*
X825500Y311404D02*
X825500Y323596D01*
X800100Y323596D02*
X800100Y311404D01*
X774700Y311404D02*
X774700Y323596D01*
X749300Y323596D02*
X749300Y311404D01*
X723900Y311404D02*
X723900Y323596D01*
X698500Y323596D02*
X698500Y311404D01*
X673100Y311404D02*
X673100Y323596D01*
X647700Y323596D02*
X647700Y311404D01*
X1320800Y247396D02*
X1320800Y235204D01*
X1346200Y235204D02*
X1346200Y247396D01*
X1473200Y247396D02*
X1473200Y235204D01*
X1498600Y235204D02*
X1498600Y247396D01*
X1371600Y247396D02*
X1371600Y235204D01*
X1397000Y235204D02*
X1397000Y247396D01*
X1447800Y247396D02*
X1447800Y235204D01*
X1422400Y235204D02*
X1422400Y247396D01*
X1498600Y311404D02*
X1498600Y323596D01*
X1473200Y323596D02*
X1473200Y311404D01*
X1447800Y311404D02*
X1447800Y323596D01*
X1422400Y323596D02*
X1422400Y311404D01*
X1397000Y311404D02*
X1397000Y323596D01*
X1371600Y323596D02*
X1371600Y311404D01*
X1346200Y311404D02*
X1346200Y323596D01*
X1320800Y323596D02*
X1320800Y311404D01*
X1320800Y692404D02*
X1320800Y704596D01*
X1346200Y704596D02*
X1346200Y692404D01*
X1473200Y692404D02*
X1473200Y704596D01*
X1498600Y704596D02*
X1498600Y692404D01*
X1371600Y692404D02*
X1371600Y704596D01*
X1397000Y704596D02*
X1397000Y692404D01*
X1447800Y692404D02*
X1447800Y704596D01*
X1422400Y704596D02*
X1422400Y692404D01*
X1498600Y768604D02*
X1498600Y780796D01*
X1473200Y780796D02*
X1473200Y768604D01*
X1447800Y768604D02*
X1447800Y780796D01*
X1422400Y780796D02*
X1422400Y768604D01*
X1397000Y768604D02*
X1397000Y780796D01*
X1371600Y780796D02*
X1371600Y768604D01*
X1346200Y768604D02*
X1346200Y780796D01*
X1320800Y780796D02*
X1320800Y768604D01*
X1371600Y94996D02*
X1371600Y82804D01*
X1397000Y82804D02*
X1397000Y94996D01*
X1524000Y94996D02*
X1524000Y82804D01*
X1549400Y82804D02*
X1549400Y94996D01*
X1422400Y94996D02*
X1422400Y82804D01*
X1447800Y82804D02*
X1447800Y94996D01*
X1498600Y94996D02*
X1498600Y82804D01*
X1473200Y82804D02*
X1473200Y94996D01*
X1574800Y94996D02*
X1574800Y82804D01*
X1600200Y82804D02*
X1600200Y94996D01*
X1600200Y159004D02*
X1600200Y171196D01*
X1574800Y171196D02*
X1574800Y159004D01*
X1549400Y159004D02*
X1549400Y171196D01*
X1524000Y171196D02*
X1524000Y159004D01*
X1498600Y159004D02*
X1498600Y171196D01*
X1473200Y171196D02*
X1473200Y159004D01*
X1447800Y159004D02*
X1447800Y171196D01*
X1422400Y171196D02*
X1422400Y159004D01*
X1397000Y159004D02*
X1397000Y171196D01*
X1371600Y171196D02*
X1371600Y159004D01*
X12700Y235204D02*
X12700Y247396D01*
X38100Y247396D02*
X38100Y235204D01*
X165100Y235204D02*
X165100Y247396D01*
X190500Y247396D02*
X190500Y235204D01*
X63500Y235204D02*
X63500Y247396D01*
X88900Y247396D02*
X88900Y235204D01*
X139700Y235204D02*
X139700Y247396D01*
X114300Y247396D02*
X114300Y235204D01*
X215900Y235204D02*
X215900Y247396D01*
X241300Y247396D02*
X241300Y235204D01*
X241300Y311404D02*
X241300Y323596D01*
X215900Y323596D02*
X215900Y311404D01*
X190500Y311404D02*
X190500Y323596D01*
X165100Y323596D02*
X165100Y311404D01*
X139700Y311404D02*
X139700Y323596D01*
X114300Y323596D02*
X114300Y311404D01*
X88900Y311404D02*
X88900Y323596D01*
X63500Y323596D02*
X63500Y311404D01*
X38100Y311404D02*
X38100Y323596D01*
X12700Y323596D02*
X12700Y311404D01*
X342900Y94996D02*
X342900Y82804D01*
X368300Y82804D02*
X368300Y94996D01*
X495300Y94996D02*
X495300Y82804D01*
X520700Y82804D02*
X520700Y94996D01*
X393700Y94996D02*
X393700Y82804D01*
X419100Y82804D02*
X419100Y94996D01*
X469900Y94996D02*
X469900Y82804D01*
X444500Y82804D02*
X444500Y94996D01*
X520700Y159004D02*
X520700Y171196D01*
X495300Y171196D02*
X495300Y159004D01*
X469900Y159004D02*
X469900Y171196D01*
X444500Y171196D02*
X444500Y159004D01*
X419100Y159004D02*
X419100Y171196D01*
X393700Y171196D02*
X393700Y159004D01*
X368300Y159004D02*
X368300Y171196D01*
X342900Y171196D02*
X342900Y159004D01*
X342900Y235204D02*
X342900Y247396D01*
X368300Y247396D02*
X368300Y235204D01*
X495300Y235204D02*
X495300Y247396D01*
X520700Y247396D02*
X520700Y235204D01*
X393700Y235204D02*
X393700Y247396D01*
X419100Y247396D02*
X419100Y235204D01*
X469900Y235204D02*
X469900Y247396D01*
X444500Y247396D02*
X444500Y235204D01*
X520700Y311404D02*
X520700Y323596D01*
X495300Y323596D02*
X495300Y311404D01*
X469900Y311404D02*
X469900Y323596D01*
X444500Y323596D02*
X444500Y311404D01*
X419100Y311404D02*
X419100Y323596D01*
X393700Y323596D02*
X393700Y311404D01*
X368300Y311404D02*
X368300Y323596D01*
X342900Y323596D02*
X342900Y311404D01*
X12700Y94996D02*
X12700Y82804D01*
X38100Y82804D02*
X38100Y94996D01*
X165100Y94996D02*
X165100Y82804D01*
X190500Y82804D02*
X190500Y94996D01*
X63500Y94996D02*
X63500Y82804D01*
X88900Y82804D02*
X88900Y94996D01*
X139700Y94996D02*
X139700Y82804D01*
X114300Y82804D02*
X114300Y94996D01*
X215900Y94996D02*
X215900Y82804D01*
X241300Y82804D02*
X241300Y94996D01*
X241300Y159004D02*
X241300Y171196D01*
X215900Y171196D02*
X215900Y159004D01*
X190500Y159004D02*
X190500Y171196D01*
X165100Y171196D02*
X165100Y159004D01*
X139700Y159004D02*
X139700Y171196D01*
X114300Y171196D02*
X114300Y159004D01*
X88900Y159004D02*
X88900Y171196D01*
X63500Y171196D02*
X63500Y159004D01*
X38100Y159004D02*
X38100Y171196D01*
X12700Y171196D02*
X12700Y159004D01*
X1556004Y520700D02*
X1568196Y520700D01*
X1568196Y495300D02*
X1556004Y495300D01*
X1556004Y368300D02*
X1568196Y368300D01*
X1632204Y368300D02*
X1644396Y368300D01*
X1568196Y469900D02*
X1556004Y469900D01*
X1556004Y444500D02*
X1568196Y444500D01*
X1568196Y393700D02*
X1556004Y393700D01*
X1556004Y419100D02*
X1568196Y419100D01*
X1632204Y393700D02*
X1644396Y393700D01*
X1644396Y419100D02*
X1632204Y419100D01*
X1632204Y444500D02*
X1644396Y444500D01*
X1644396Y469900D02*
X1632204Y469900D01*
X1632204Y495300D02*
X1644396Y495300D01*
X1644396Y520700D02*
X1632204Y520700D01*
X1066800Y247396D02*
X1066800Y235204D01*
X1092200Y235204D02*
X1092200Y247396D01*
X1219200Y247396D02*
X1219200Y235204D01*
X1219200Y311404D02*
X1219200Y323596D01*
X1117600Y247396D02*
X1117600Y235204D01*
X1143000Y235204D02*
X1143000Y247396D01*
X1193800Y247396D02*
X1193800Y235204D01*
X1168400Y235204D02*
X1168400Y247396D01*
X1193800Y311404D02*
X1193800Y323596D01*
X1168400Y323596D02*
X1168400Y311404D01*
X1143000Y311404D02*
X1143000Y323596D01*
X1117600Y323596D02*
X1117600Y311404D01*
X1092200Y311404D02*
X1092200Y323596D01*
X1066800Y323596D02*
X1066800Y311404D01*
X1066800Y387604D02*
X1066800Y399796D01*
X1092200Y399796D02*
X1092200Y387604D01*
X1219200Y387604D02*
X1219200Y399796D01*
X1219200Y463804D02*
X1219200Y475996D01*
X1117600Y399796D02*
X1117600Y387604D01*
X1143000Y387604D02*
X1143000Y399796D01*
X1193800Y399796D02*
X1193800Y387604D01*
X1168400Y387604D02*
X1168400Y399796D01*
X1193800Y463804D02*
X1193800Y475996D01*
X1168400Y475996D02*
X1168400Y463804D01*
X1143000Y463804D02*
X1143000Y475996D01*
X1117600Y475996D02*
X1117600Y463804D01*
X1092200Y463804D02*
X1092200Y475996D01*
X1066800Y475996D02*
X1066800Y463804D01*
D11*
X1714500Y1092200D03*
X1714500Y939800D03*
X1790700Y939800D03*
X1790700Y1092200D03*
D10*
X647700Y94996D02*
X647700Y82804D01*
X673100Y82804D02*
X673100Y94996D01*
X800100Y94996D02*
X800100Y82804D01*
X825500Y82804D02*
X825500Y94996D01*
X698500Y94996D02*
X698500Y82804D01*
X723900Y82804D02*
X723900Y94996D01*
X774700Y94996D02*
X774700Y82804D01*
X749300Y82804D02*
X749300Y94996D01*
X850900Y94996D02*
X850900Y82804D01*
X876300Y82804D02*
X876300Y94996D01*
X876300Y159004D02*
X876300Y171196D01*
X850900Y171196D02*
X850900Y159004D01*
X825500Y159004D02*
X825500Y171196D01*
X800100Y171196D02*
X800100Y159004D01*
X774700Y159004D02*
X774700Y171196D01*
X749300Y171196D02*
X749300Y159004D01*
X723900Y159004D02*
X723900Y171196D01*
X698500Y171196D02*
X698500Y159004D01*
X673100Y159004D02*
X673100Y171196D01*
X647700Y171196D02*
X647700Y159004D01*
X1066800Y844804D02*
X1066800Y856996D01*
X1092200Y856996D02*
X1092200Y844804D01*
X1219200Y844804D02*
X1219200Y856996D01*
X1219200Y921004D02*
X1219200Y933196D01*
X1117600Y856996D02*
X1117600Y844804D01*
X1143000Y844804D02*
X1143000Y856996D01*
X1193800Y856996D02*
X1193800Y844804D01*
X1168400Y844804D02*
X1168400Y856996D01*
X1193800Y921004D02*
X1193800Y933196D01*
X1168400Y933196D02*
X1168400Y921004D01*
X1143000Y921004D02*
X1143000Y933196D01*
X1117600Y933196D02*
X1117600Y921004D01*
X1092200Y921004D02*
X1092200Y933196D01*
X1066800Y933196D02*
X1066800Y921004D01*
X1556004Y1028700D02*
X1568196Y1028700D01*
X1568196Y1003300D02*
X1556004Y1003300D01*
X1556004Y876300D02*
X1568196Y876300D01*
X1632204Y876300D02*
X1644396Y876300D01*
X1568196Y977900D02*
X1556004Y977900D01*
X1556004Y952500D02*
X1568196Y952500D01*
X1568196Y901700D02*
X1556004Y901700D01*
X1556004Y927100D02*
X1568196Y927100D01*
X1632204Y901700D02*
X1644396Y901700D01*
X1644396Y927100D02*
X1632204Y927100D01*
X1632204Y952500D02*
X1644396Y952500D01*
X1644396Y977900D02*
X1632204Y977900D01*
X1632204Y1003300D02*
X1644396Y1003300D01*
X1644396Y1028700D02*
X1632204Y1028700D01*
D12*
X1701800Y647700D03*
X1803400Y647700D03*
D13*
X1803400Y596900D03*
X1701800Y596900D03*
D10*
X1066800Y552196D02*
X1066800Y540004D01*
X1092200Y540004D02*
X1092200Y552196D01*
X1219200Y552196D02*
X1219200Y540004D01*
X1219200Y616204D02*
X1219200Y628396D01*
X1117600Y552196D02*
X1117600Y540004D01*
X1143000Y540004D02*
X1143000Y552196D01*
X1193800Y552196D02*
X1193800Y540004D01*
X1168400Y540004D02*
X1168400Y552196D01*
X1193800Y616204D02*
X1193800Y628396D01*
X1168400Y628396D02*
X1168400Y616204D01*
X1143000Y616204D02*
X1143000Y628396D01*
X1117600Y628396D02*
X1117600Y616204D01*
X1092200Y616204D02*
X1092200Y628396D01*
X1066800Y628396D02*
X1066800Y616204D01*
X1320800Y412496D02*
X1320800Y400304D01*
X1346200Y400304D02*
X1346200Y412496D01*
X1473200Y412496D02*
X1473200Y400304D01*
X1473200Y476504D02*
X1473200Y488696D01*
X1371600Y412496D02*
X1371600Y400304D01*
X1397000Y400304D02*
X1397000Y412496D01*
X1447800Y412496D02*
X1447800Y400304D01*
X1422400Y400304D02*
X1422400Y412496D01*
X1447800Y476504D02*
X1447800Y488696D01*
X1422400Y488696D02*
X1422400Y476504D01*
X1397000Y476504D02*
X1397000Y488696D01*
X1371600Y488696D02*
X1371600Y476504D01*
X1346200Y476504D02*
X1346200Y488696D01*
X1320800Y488696D02*
X1320800Y476504D01*
D12*
X1701800Y850900D03*
X1803400Y850900D03*
X1701800Y800100D03*
X1803400Y800100D03*
D10*
X1860804Y1092200D02*
X1872996Y1092200D01*
X1872996Y1066800D02*
X1860804Y1066800D01*
X1860804Y1041400D02*
X1872996Y1041400D01*
D14*
X1917700Y1092200D03*
X1917700Y1041400D03*
D12*
X1701800Y749300D03*
X1803400Y749300D03*
D13*
X1803400Y698500D03*
X1701800Y698500D03*
D10*
X1860804Y939800D02*
X1872996Y939800D01*
X1872996Y914400D02*
X1860804Y914400D01*
X1860804Y889000D02*
X1872996Y889000D01*
D14*
X1917700Y939800D03*
X1917700Y889000D03*
D10*
X1568196Y774700D02*
X1556004Y774700D01*
X1556004Y749300D02*
X1568196Y749300D01*
X1568196Y622300D02*
X1556004Y622300D01*
X1632204Y622300D02*
X1644396Y622300D01*
X1568196Y723900D02*
X1556004Y723900D01*
X1556004Y698500D02*
X1568196Y698500D01*
X1568196Y647700D02*
X1556004Y647700D01*
X1556004Y673100D02*
X1568196Y673100D01*
X1632204Y647700D02*
X1644396Y647700D01*
X1644396Y673100D02*
X1632204Y673100D01*
X1632204Y698500D02*
X1644396Y698500D01*
X1644396Y723900D02*
X1632204Y723900D01*
X1632204Y749300D02*
X1644396Y749300D01*
X1644396Y774700D02*
X1632204Y774700D01*
X1320800Y997204D02*
X1320800Y1009396D01*
X1346200Y1009396D02*
X1346200Y997204D01*
X1473200Y997204D02*
X1473200Y1009396D01*
X1473200Y1073404D02*
X1473200Y1085596D01*
X1371600Y1009396D02*
X1371600Y997204D01*
X1397000Y997204D02*
X1397000Y1009396D01*
X1447800Y1009396D02*
X1447800Y997204D01*
X1422400Y997204D02*
X1422400Y1009396D01*
X1447800Y1073404D02*
X1447800Y1085596D01*
X1422400Y1085596D02*
X1422400Y1073404D01*
X1397000Y1073404D02*
X1397000Y1085596D01*
X1371600Y1085596D02*
X1371600Y1073404D01*
X1346200Y1073404D02*
X1346200Y1085596D01*
X1320800Y1085596D02*
X1320800Y1073404D01*
X647700Y1009396D02*
X647700Y997204D01*
X673100Y997204D02*
X673100Y1009396D01*
X800100Y1009396D02*
X800100Y997204D01*
X825500Y997204D02*
X825500Y1009396D01*
X698500Y1009396D02*
X698500Y997204D01*
X723900Y997204D02*
X723900Y1009396D01*
X774700Y1009396D02*
X774700Y997204D01*
X749300Y997204D02*
X749300Y1009396D01*
X850900Y1009396D02*
X850900Y997204D01*
X876300Y997204D02*
X876300Y1009396D01*
X876300Y1073404D02*
X876300Y1085596D01*
X850900Y1085596D02*
X850900Y1073404D01*
X825500Y1073404D02*
X825500Y1085596D01*
X800100Y1085596D02*
X800100Y1073404D01*
X774700Y1073404D02*
X774700Y1085596D01*
X749300Y1085596D02*
X749300Y1073404D01*
X723900Y1073404D02*
X723900Y1085596D01*
X698500Y1085596D02*
X698500Y1073404D01*
X673100Y1073404D02*
X673100Y1085596D01*
X647700Y1085596D02*
X647700Y1073404D01*
X342900Y856996D02*
X342900Y844804D01*
X368300Y844804D02*
X368300Y856996D01*
X495300Y856996D02*
X495300Y844804D01*
X520700Y844804D02*
X520700Y856996D01*
X393700Y856996D02*
X393700Y844804D01*
X419100Y844804D02*
X419100Y856996D01*
X469900Y856996D02*
X469900Y844804D01*
X444500Y844804D02*
X444500Y856996D01*
X546100Y856996D02*
X546100Y844804D01*
X571500Y844804D02*
X571500Y856996D01*
X571500Y921004D02*
X571500Y933196D01*
X546100Y933196D02*
X546100Y921004D01*
X520700Y921004D02*
X520700Y933196D01*
X495300Y933196D02*
X495300Y921004D01*
X469900Y921004D02*
X469900Y933196D01*
X444500Y933196D02*
X444500Y921004D01*
X419100Y921004D02*
X419100Y933196D01*
X393700Y933196D02*
X393700Y921004D01*
X368300Y921004D02*
X368300Y933196D01*
X342900Y933196D02*
X342900Y921004D01*
X1066800Y997204D02*
X1066800Y1009396D01*
X1092200Y1009396D02*
X1092200Y997204D01*
X1219200Y997204D02*
X1219200Y1009396D01*
X1219200Y1073404D02*
X1219200Y1085596D01*
X1117600Y1009396D02*
X1117600Y997204D01*
X1143000Y997204D02*
X1143000Y1009396D01*
X1193800Y1009396D02*
X1193800Y997204D01*
X1168400Y997204D02*
X1168400Y1009396D01*
X1193800Y1073404D02*
X1193800Y1085596D01*
X1168400Y1085596D02*
X1168400Y1073404D01*
X1143000Y1073404D02*
X1143000Y1085596D01*
X1117600Y1085596D02*
X1117600Y1073404D01*
X1092200Y1073404D02*
X1092200Y1085596D01*
X1066800Y1085596D02*
X1066800Y1073404D01*
X1320800Y552196D02*
X1320800Y540004D01*
X1346200Y540004D02*
X1346200Y552196D01*
X1473200Y552196D02*
X1473200Y540004D01*
X1473200Y616204D02*
X1473200Y628396D01*
X1371600Y552196D02*
X1371600Y540004D01*
X1397000Y540004D02*
X1397000Y552196D01*
X1447800Y552196D02*
X1447800Y540004D01*
X1422400Y540004D02*
X1422400Y552196D01*
X1447800Y616204D02*
X1447800Y628396D01*
X1422400Y628396D02*
X1422400Y616204D01*
X1397000Y616204D02*
X1397000Y628396D01*
X1371600Y628396D02*
X1371600Y616204D01*
X1346200Y616204D02*
X1346200Y628396D01*
X1320800Y628396D02*
X1320800Y616204D01*
X12700Y844804D02*
X12700Y856996D01*
X38100Y856996D02*
X38100Y844804D01*
X165100Y844804D02*
X165100Y856996D01*
X190500Y856996D02*
X190500Y844804D01*
X63500Y844804D02*
X63500Y856996D01*
X88900Y856996D02*
X88900Y844804D01*
X139700Y844804D02*
X139700Y856996D01*
X114300Y856996D02*
X114300Y844804D01*
X215900Y844804D02*
X215900Y856996D01*
X241300Y856996D02*
X241300Y844804D01*
X241300Y921004D02*
X241300Y933196D01*
X215900Y933196D02*
X215900Y921004D01*
X190500Y921004D02*
X190500Y933196D01*
X165100Y933196D02*
X165100Y921004D01*
X139700Y921004D02*
X139700Y933196D01*
X114300Y933196D02*
X114300Y921004D01*
X88900Y921004D02*
X88900Y933196D01*
X63500Y933196D02*
X63500Y921004D01*
X38100Y921004D02*
X38100Y933196D01*
X12700Y933196D02*
X12700Y921004D01*
X12700Y704596D02*
X12700Y692404D01*
X38100Y692404D02*
X38100Y704596D01*
X165100Y704596D02*
X165100Y692404D01*
X190500Y692404D02*
X190500Y704596D01*
X63500Y704596D02*
X63500Y692404D01*
X88900Y692404D02*
X88900Y704596D01*
X139700Y704596D02*
X139700Y692404D01*
X114300Y692404D02*
X114300Y704596D01*
X215900Y704596D02*
X215900Y692404D01*
X241300Y692404D02*
X241300Y704596D01*
X241300Y768604D02*
X241300Y780796D01*
X215900Y780796D02*
X215900Y768604D01*
X190500Y768604D02*
X190500Y780796D01*
X165100Y780796D02*
X165100Y768604D01*
X139700Y768604D02*
X139700Y780796D01*
X114300Y780796D02*
X114300Y768604D01*
X88900Y768604D02*
X88900Y780796D01*
X63500Y780796D02*
X63500Y768604D01*
X38100Y768604D02*
X38100Y780796D01*
X12700Y780796D02*
X12700Y768604D01*
X12700Y552196D02*
X12700Y540004D01*
X38100Y540004D02*
X38100Y552196D01*
X165100Y552196D02*
X165100Y540004D01*
X190500Y540004D02*
X190500Y552196D01*
X63500Y552196D02*
X63500Y540004D01*
X88900Y540004D02*
X88900Y552196D01*
X139700Y552196D02*
X139700Y540004D01*
X114300Y540004D02*
X114300Y552196D01*
X215900Y552196D02*
X215900Y540004D01*
X241300Y540004D02*
X241300Y552196D01*
X241300Y616204D02*
X241300Y628396D01*
X215900Y628396D02*
X215900Y616204D01*
X190500Y616204D02*
X190500Y628396D01*
X165100Y628396D02*
X165100Y616204D01*
X139700Y616204D02*
X139700Y628396D01*
X114300Y628396D02*
X114300Y616204D01*
X88900Y616204D02*
X88900Y628396D01*
X63500Y628396D02*
X63500Y616204D01*
X38100Y616204D02*
X38100Y628396D01*
X12700Y628396D02*
X12700Y616204D01*
D15*
X1041400Y139700D03*
X1041400Y114300D03*
X1041400Y292100D03*
X1041400Y266700D03*
X1041400Y444500D03*
X1041400Y419100D03*
X317500Y139700D03*
X317500Y114300D03*
X1295400Y749300D03*
X1295400Y723900D03*
X1295400Y457200D03*
X1295400Y431800D03*
X1041400Y749300D03*
X1041400Y723900D03*
X1041400Y901700D03*
X1041400Y876300D03*
X622300Y571500D03*
X622300Y596900D03*
X317500Y444500D03*
X317500Y419100D03*
X622300Y1054100D03*
X622300Y1028700D03*
X317500Y292100D03*
X317500Y266700D03*
X622300Y723900D03*
X622300Y749300D03*
X622300Y114300D03*
X622300Y139700D03*
X317500Y596900D03*
X317500Y571500D03*
X317500Y749300D03*
X317500Y723900D03*
X622300Y901700D03*
X622300Y876300D03*
X317500Y901700D03*
X317500Y876300D03*
X-12700Y1054100D03*
X-12700Y1028700D03*
X317500Y1054100D03*
X317500Y1028700D03*
X-12700Y901700D03*
X-12700Y876300D03*
X-12700Y749300D03*
X-12700Y723900D03*
X-12700Y596900D03*
X-12700Y571500D03*
X-12700Y444500D03*
X-12700Y419100D03*
D10*
X12700Y399796D02*
X12700Y387604D01*
X38100Y387604D02*
X38100Y399796D01*
X165100Y399796D02*
X165100Y387604D01*
X190500Y387604D02*
X190500Y399796D01*
X63500Y399796D02*
X63500Y387604D01*
X88900Y387604D02*
X88900Y399796D01*
X139700Y399796D02*
X139700Y387604D01*
X114300Y387604D02*
X114300Y399796D01*
X215900Y399796D02*
X215900Y387604D01*
X241300Y387604D02*
X241300Y399796D01*
X241300Y463804D02*
X241300Y475996D01*
X215900Y475996D02*
X215900Y463804D01*
X190500Y463804D02*
X190500Y475996D01*
X165100Y475996D02*
X165100Y463804D01*
X139700Y463804D02*
X139700Y475996D01*
X114300Y475996D02*
X114300Y463804D01*
X88900Y463804D02*
X88900Y475996D01*
X63500Y475996D02*
X63500Y463804D01*
X38100Y463804D02*
X38100Y475996D01*
X12700Y475996D02*
X12700Y463804D01*
X342900Y399796D02*
X342900Y387604D01*
X368300Y387604D02*
X368300Y399796D01*
X495300Y399796D02*
X495300Y387604D01*
X520700Y387604D02*
X520700Y399796D01*
X393700Y399796D02*
X393700Y387604D01*
X419100Y387604D02*
X419100Y399796D01*
X469900Y399796D02*
X469900Y387604D01*
X444500Y387604D02*
X444500Y399796D01*
X546100Y399796D02*
X546100Y387604D01*
X571500Y387604D02*
X571500Y399796D01*
X571500Y463804D02*
X571500Y475996D01*
X546100Y475996D02*
X546100Y463804D01*
X520700Y463804D02*
X520700Y475996D01*
X495300Y475996D02*
X495300Y463804D01*
X469900Y463804D02*
X469900Y475996D01*
X444500Y475996D02*
X444500Y463804D01*
X419100Y463804D02*
X419100Y475996D01*
X393700Y475996D02*
X393700Y463804D01*
X368300Y463804D02*
X368300Y475996D01*
X342900Y475996D02*
X342900Y463804D01*
D15*
X1295400Y596900D03*
X1295400Y571500D03*
X1041400Y596900D03*
X1041400Y571500D03*
X-12700Y292100D03*
X-12700Y266700D03*
X-12700Y139700D03*
X-12700Y114300D03*
X622300Y444500D03*
X622300Y419100D03*
X1295400Y292100D03*
X1295400Y266700D03*
X1587500Y1054100D03*
X1612900Y1054100D03*
X1295400Y1054100D03*
X1295400Y1028700D03*
X1295400Y901700D03*
X1295400Y876300D03*
X1041400Y1054100D03*
X1041400Y1028700D03*
D10*
X1860804Y787400D02*
X1872996Y787400D01*
X1872996Y762000D02*
X1860804Y762000D01*
X1860804Y736600D02*
X1872996Y736600D01*
D14*
X1917700Y787400D03*
X1917700Y736600D03*
D10*
X1066800Y704596D02*
X1066800Y692404D01*
X1092200Y692404D02*
X1092200Y704596D01*
X1219200Y704596D02*
X1219200Y692404D01*
X1219200Y768604D02*
X1219200Y780796D01*
X1117600Y704596D02*
X1117600Y692404D01*
X1143000Y692404D02*
X1143000Y704596D01*
X1193800Y704596D02*
X1193800Y692404D01*
X1168400Y692404D02*
X1168400Y704596D01*
X1193800Y768604D02*
X1193800Y780796D01*
X1168400Y780796D02*
X1168400Y768604D01*
X1143000Y768604D02*
X1143000Y780796D01*
X1117600Y780796D02*
X1117600Y768604D01*
X1092200Y768604D02*
X1092200Y780796D01*
X1066800Y780796D02*
X1066800Y768604D01*
D16*
X1795780Y165100D02*
X1811020Y165100D01*
X1811020Y190500D02*
X1795780Y190500D01*
X1795780Y215900D02*
X1811020Y215900D01*
X1811020Y241300D02*
X1795780Y241300D01*
X1795780Y266700D02*
X1811020Y266700D01*
D15*
X1346200Y139700D03*
X1346200Y114300D03*
D12*
X1701800Y546100D03*
X1803400Y546100D03*
D10*
X1320800Y844804D02*
X1320800Y856996D01*
X1346200Y856996D02*
X1346200Y844804D01*
X1473200Y844804D02*
X1473200Y856996D01*
X1473200Y921004D02*
X1473200Y933196D01*
X1371600Y856996D02*
X1371600Y844804D01*
X1397000Y844804D02*
X1397000Y856996D01*
X1447800Y856996D02*
X1447800Y844804D01*
X1422400Y844804D02*
X1422400Y856996D01*
X1447800Y921004D02*
X1447800Y933196D01*
X1422400Y933196D02*
X1422400Y921004D01*
X1397000Y921004D02*
X1397000Y933196D01*
X1371600Y933196D02*
X1371600Y921004D01*
X1346200Y921004D02*
X1346200Y933196D01*
X1320800Y933196D02*
X1320800Y921004D01*
D17*
X1930800Y269800D03*
X1930800Y339800D03*
D18*
X1955800Y279800D03*
X1955800Y329800D03*
D13*
X1803400Y444500D03*
X1701800Y444500D03*
D17*
X1930800Y130100D03*
X1930800Y200100D03*
D18*
X1955800Y140100D03*
X1955800Y190100D03*
D13*
X1803400Y495300D03*
X1701800Y495300D03*
D19*
X1955800Y647700D03*
X1930400Y647700D03*
D20*
X1701800Y393700D03*
X1803400Y393700D03*
D15*
X622300Y266700D03*
X622300Y292100D03*
D21*
X952500Y1104900D03*
X952500Y1079500D03*
X952500Y1054100D03*
X952500Y1028700D03*
X952500Y1003300D03*
X952500Y977900D03*
X977900Y1104900D03*
X977900Y1079500D03*
X977900Y1054100D03*
X977900Y1028700D03*
X977900Y1003300D03*
X977900Y977900D03*
X952500Y952500D03*
X977900Y952500D03*
X952500Y927100D03*
X952500Y901700D03*
X952500Y876300D03*
X952500Y850900D03*
X952500Y825500D03*
X952500Y800100D03*
X977900Y927100D03*
X977900Y901700D03*
X977900Y876300D03*
X977900Y850900D03*
X977900Y825500D03*
X977900Y800100D03*
X952500Y774700D03*
X977900Y774700D03*
X952500Y749300D03*
X952500Y723900D03*
X952500Y698500D03*
X952500Y673100D03*
X952500Y647700D03*
X952500Y622300D03*
X977900Y749300D03*
X977900Y723900D03*
X977900Y698500D03*
X977900Y673100D03*
X977900Y647700D03*
X977900Y622300D03*
X952500Y520700D03*
X952500Y495300D03*
X952500Y469900D03*
X952500Y444500D03*
X952500Y419100D03*
X952500Y393700D03*
X977900Y520700D03*
X977900Y495300D03*
X977900Y469900D03*
X977900Y444500D03*
X977900Y419100D03*
X977900Y393700D03*
X952500Y368300D03*
X977900Y368300D03*
X952500Y342900D03*
X952500Y317500D03*
X952500Y292100D03*
X952500Y266700D03*
X952500Y241300D03*
X952500Y215900D03*
X977900Y342900D03*
X977900Y317500D03*
X977900Y292100D03*
X977900Y266700D03*
X977900Y241300D03*
X977900Y215900D03*
X952500Y190500D03*
X977900Y190500D03*
X952500Y165100D03*
X952500Y139700D03*
X952500Y114300D03*
X952500Y88900D03*
X952500Y63500D03*
X952500Y38100D03*
X977900Y165100D03*
X977900Y139700D03*
X977900Y114300D03*
X977900Y88900D03*
X977900Y63500D03*
X977900Y38100D03*
X952500Y584200D03*
X977900Y584200D03*
X952500Y558800D03*
X977900Y558800D03*
D10*
X647700Y552196D02*
X647700Y540004D01*
X673100Y540004D02*
X673100Y552196D01*
X800100Y552196D02*
X800100Y540004D01*
X825500Y540004D02*
X825500Y552196D01*
X698500Y552196D02*
X698500Y540004D01*
X723900Y540004D02*
X723900Y552196D01*
X774700Y552196D02*
X774700Y540004D01*
X749300Y540004D02*
X749300Y552196D01*
X850900Y552196D02*
X850900Y540004D01*
X876300Y540004D02*
X876300Y552196D01*
X876300Y616204D02*
X876300Y628396D01*
X850900Y628396D02*
X850900Y616204D01*
X825500Y616204D02*
X825500Y628396D01*
X800100Y628396D02*
X800100Y616204D01*
X774700Y616204D02*
X774700Y628396D01*
X749300Y628396D02*
X749300Y616204D01*
X723900Y616204D02*
X723900Y628396D01*
X698500Y628396D02*
X698500Y616204D01*
X673100Y616204D02*
X673100Y628396D01*
X647700Y628396D02*
X647700Y616204D01*
D16*
X1935480Y520700D02*
X1950720Y520700D01*
X1950720Y546100D02*
X1935480Y546100D01*
X1935480Y571500D02*
X1950720Y571500D01*
X1747520Y203200D02*
X1732280Y203200D01*
X1732280Y228600D02*
X1747520Y228600D01*
D10*
X342900Y540004D02*
X342900Y552196D01*
X368300Y552196D02*
X368300Y540004D01*
X495300Y540004D02*
X495300Y552196D01*
X520700Y552196D02*
X520700Y540004D01*
X393700Y540004D02*
X393700Y552196D01*
X419100Y552196D02*
X419100Y540004D01*
X469900Y540004D02*
X469900Y552196D01*
X444500Y552196D02*
X444500Y540004D01*
X546100Y540004D02*
X546100Y552196D01*
X571500Y552196D02*
X571500Y540004D01*
X571500Y616204D02*
X571500Y628396D01*
X546100Y628396D02*
X546100Y616204D01*
X520700Y616204D02*
X520700Y628396D01*
X495300Y628396D02*
X495300Y616204D01*
X469900Y616204D02*
X469900Y628396D01*
X444500Y628396D02*
X444500Y616204D01*
X419100Y616204D02*
X419100Y628396D01*
X393700Y628396D02*
X393700Y616204D01*
X368300Y616204D02*
X368300Y628396D01*
X342900Y628396D02*
X342900Y616204D01*
D16*
X1308100Y33020D02*
X1308100Y17780D01*
X1333500Y17780D02*
X1333500Y33020D01*
D22*
X-152400Y177800D03*
X-152400Y203200D03*
X-152400Y228600D03*
X-152400Y254000D03*
X-152400Y279400D03*
X-152400Y304800D03*
X-152400Y330200D03*
X-152400Y355600D03*
X-152400Y381000D03*
X-152400Y406400D03*
X-152400Y431800D03*
X-152400Y457200D03*
X-152400Y482600D03*
X-152400Y508000D03*
X-152400Y533400D03*
X-152400Y558800D03*
X-127000Y177800D03*
X-127000Y203200D03*
X-127000Y228600D03*
X-127000Y254000D03*
X-127000Y279400D03*
X-127000Y304800D03*
X-127000Y330200D03*
X-127000Y355600D03*
X-127000Y381000D03*
X-127000Y406400D03*
X-127000Y431800D03*
X-127000Y457200D03*
X-127000Y482600D03*
X-127000Y508000D03*
X-127000Y533400D03*
X-127000Y558800D03*
X-101600Y177800D03*
X-101600Y203200D03*
X-101600Y228600D03*
X-101600Y254000D03*
X-101600Y279400D03*
X-101600Y304800D03*
X-101600Y330200D03*
X-101600Y355600D03*
X-101600Y381000D03*
X-101600Y406400D03*
X-101600Y431800D03*
X-101600Y457200D03*
X-101600Y482600D03*
X-101600Y508000D03*
X-101600Y533400D03*
X-101600Y558800D03*
X-152400Y584200D03*
X-152400Y609600D03*
X-152400Y635000D03*
X-152400Y660400D03*
X-152400Y685800D03*
X-152400Y711200D03*
X-152400Y736600D03*
X-152400Y762000D03*
X-152400Y787400D03*
X-152400Y812800D03*
X-152400Y838200D03*
X-152400Y863600D03*
X-152400Y889000D03*
X-152400Y914400D03*
X-152400Y939800D03*
X-152400Y965200D03*
X-127000Y584200D03*
X-127000Y609600D03*
X-127000Y635000D03*
X-127000Y660400D03*
X-127000Y685800D03*
X-127000Y711200D03*
X-127000Y736600D03*
X-127000Y762000D03*
X-127000Y787400D03*
X-127000Y812800D03*
X-127000Y838200D03*
X-127000Y863600D03*
X-127000Y889000D03*
X-127000Y914400D03*
X-127000Y939800D03*
X-127000Y965200D03*
X-101600Y584200D03*
X-101600Y609600D03*
X-101600Y635000D03*
X-101600Y660400D03*
X-101600Y685800D03*
X-101600Y711200D03*
X-101600Y736600D03*
X-101600Y762000D03*
X-101600Y787400D03*
X-101600Y812800D03*
X-101600Y838200D03*
X-101600Y863600D03*
X-101600Y889000D03*
X-101600Y914400D03*
X-101600Y939800D03*
X-101600Y965200D03*
D19*
X1955800Y63500D03*
X1930400Y63500D03*
D15*
X1587500Y800100D03*
X1612900Y800100D03*
X1587500Y546100D03*
X1612900Y546100D03*
D16*
X1935480Y393700D02*
X1950720Y393700D01*
X1950720Y419100D02*
X1935480Y419100D01*
X1935480Y444500D02*
X1950720Y444500D01*
X1950720Y469900D02*
X1935480Y469900D01*
D13*
X1803400Y342900D03*
X1701800Y342900D03*
D23*
X1473200Y165100D02*
X1450975Y187325D01*
X1352550Y187325D01*
X1266825Y339725D02*
X1257300Y349250D01*
X996950Y349250D01*
D24*
X1352550Y187325D03*
X1266825Y339725D03*
X996950Y349250D03*
D23*
X1489075Y279400D02*
X1536700Y231775D01*
X1489075Y279400D02*
X1263650Y279400D01*
X1247775Y295275D01*
X1057275Y295275D01*
X1035050Y317500D01*
X977900Y317500D01*
D24*
X1536700Y231775D03*
D23*
X1304925Y219075D02*
X1260475Y263525D01*
X1057275Y263525D01*
X1047750Y254000D01*
X990600Y254000D01*
X977900Y266700D01*
D24*
X1304925Y219075D03*
D23*
X711200Y206375D02*
X704850Y200025D01*
X711200Y206375D02*
X927100Y206375D01*
X949325Y228600D01*
X965200Y228600D01*
X977900Y215900D01*
D24*
X704850Y200025D03*
D23*
X800100Y165100D02*
X815975Y149225D01*
X946150Y149225D01*
X949325Y152400D01*
X965200Y152400D01*
X977900Y165100D01*
X889000Y127000D02*
X885825Y123825D01*
X889000Y127000D02*
X965200Y127000D01*
X977900Y114300D01*
D24*
X885825Y123825D03*
D23*
X765175Y73025D02*
X749300Y88900D01*
X765175Y73025D02*
X946150Y73025D01*
X949325Y76200D01*
X965200Y76200D01*
X977900Y63500D01*
X1520825Y355600D02*
X1524000Y352425D01*
X1520825Y355600D02*
X990600Y355600D01*
X977900Y342900D01*
D24*
X1524000Y352425D03*
D23*
X1584325Y225425D02*
X1311275Y225425D01*
X1260475Y276225D01*
X1050925Y276225D01*
X1047750Y279400D01*
X990600Y279400D01*
X977900Y292100D01*
D24*
X1584325Y225425D03*
D23*
X1463675Y180975D02*
X1438275Y206375D01*
X1111250Y206375D01*
X1092200Y225425D01*
X993775Y225425D01*
X977900Y241300D01*
D24*
X1463675Y180975D03*
D23*
X939800Y187325D02*
X749300Y187325D01*
X939800Y187325D02*
X942975Y184150D01*
D24*
X749300Y187325D03*
X942975Y184150D03*
D23*
X939800Y133350D02*
X882650Y133350D01*
D24*
X882650Y133350D03*
X939800Y133350D03*
D23*
X815975Y104775D02*
X800100Y88900D01*
X815975Y104775D02*
X946150Y104775D01*
X949325Y101600D01*
X965200Y101600D01*
X977900Y88900D01*
X911225Y384175D02*
X946150Y419100D01*
X952500Y419100D01*
D24*
X911225Y384175D03*
D23*
X266700Y1127125D02*
X273050Y1133475D01*
X1060450Y1133475D01*
X1101725Y1092200D01*
X1101725Y987425D01*
X1095375Y987425D01*
X1022350Y704850D02*
X1016000Y698500D01*
X977900Y698500D01*
D24*
X266700Y1127125D03*
X1095375Y987425D03*
X1022350Y704850D03*
D23*
X476250Y866775D02*
X460375Y882650D01*
X476250Y866775D02*
X606425Y866775D01*
X638175Y835025D01*
X701675Y835025D01*
X708025Y828675D01*
X771525Y828675D01*
X784225Y657225D02*
X790575Y650875D01*
X949325Y650875D01*
X952500Y647700D01*
D24*
X460375Y882650D03*
X771525Y828675D03*
X784225Y657225D03*
D23*
X606425Y1063625D02*
X441325Y1063625D01*
X606425Y1063625D02*
X644525Y1101725D01*
X796925Y1101725D01*
X911225Y679450D02*
X917575Y673100D01*
X952500Y673100D01*
D24*
X441325Y1063625D03*
X796925Y1101725D03*
X911225Y679450D03*
D23*
X1628775Y403225D02*
X1638300Y393700D01*
X1628775Y403225D02*
X1492250Y403225D01*
X1479550Y390525D01*
X1244600Y390525D01*
X1225550Y409575D01*
X1060450Y409575D01*
X1044575Y393700D01*
X977900Y393700D01*
X393700Y393700D02*
X368300Y393700D01*
X352425Y377825D01*
X79375Y377825D01*
X63500Y393700D01*
X673100Y1003300D02*
X698500Y1003300D01*
X69850Y822325D02*
X66675Y825500D01*
X69850Y822325D02*
X384175Y822325D01*
X-44450Y819150D02*
X-82550Y781050D01*
X-44450Y819150D02*
X60325Y819150D01*
X66675Y825500D01*
X657225Y987425D02*
X673100Y1003300D01*
X657225Y987425D02*
X631825Y987425D01*
X593725Y822325D02*
X384175Y822325D01*
X63500Y393700D02*
X31750Y361950D01*
X-76200Y361950D01*
D24*
X66675Y825500D03*
X384175Y822325D03*
X-82550Y781050D03*
X631825Y987425D03*
X593725Y822325D03*
X-76200Y361950D03*
D23*
X123825Y206375D02*
X361950Y206375D01*
X123825Y206375D02*
X88900Y241300D01*
X104775Y835025D02*
X88900Y850900D01*
X104775Y835025D02*
X403225Y835025D01*
X419100Y850900D01*
X-139700Y647700D02*
X-152400Y660400D01*
X-139700Y647700D02*
X3175Y647700D01*
X25400Y669925D01*
X79375Y669925D01*
X419100Y974725D02*
X714375Y974725D01*
D24*
X361950Y206375D03*
X79375Y669925D03*
X714375Y974725D03*
X419100Y974725D03*
D23*
X285750Y371475D02*
X174625Y371475D01*
X285750Y371475D02*
X447675Y371475D01*
X774700Y1003300D02*
X800100Y1003300D01*
X473075Y828675D02*
X304800Y828675D01*
X174625Y828675D01*
X473075Y828675D02*
X495300Y850900D01*
X-139700Y698500D02*
X-152400Y685800D01*
X-139700Y698500D02*
X-82550Y698500D01*
X-76200Y831850D02*
X101600Y831850D01*
X104775Y828675D01*
X174625Y828675D01*
X473075Y828675D02*
X673100Y828675D01*
D24*
X447675Y371475D03*
X174625Y371475D03*
X174625Y828675D03*
X-82550Y698500D03*
X-76200Y831850D03*
X673100Y828675D03*
X285750Y371475D03*
X304800Y828675D03*
D23*
X561975Y981075D02*
X803275Y981075D01*
X825500Y1003300D01*
X850900Y1003300D01*
X546100Y393700D02*
X520700Y393700D01*
X-139700Y723900D02*
X-152400Y711200D01*
X-139700Y723900D02*
X-57150Y723900D01*
X-12700Y768350D01*
X-3175Y768350D01*
X19050Y746125D01*
X180975Y746125D01*
X498475Y371475D02*
X473075Y346075D01*
X219075Y346075D01*
X193675Y815975D02*
X517525Y815975D01*
D24*
X561975Y981075D03*
X180975Y746125D03*
X498475Y371475D03*
X219075Y346075D03*
X517525Y815975D03*
X193675Y815975D03*
D23*
X200025Y479425D02*
X190500Y469900D01*
X200025Y479425D02*
X203200Y479425D01*
X209550Y485775D01*
X254000Y485775D02*
X504825Y485775D01*
X254000Y485775D02*
X231775Y485775D01*
X209550Y485775D01*
X504825Y485775D02*
X520700Y469900D01*
X231775Y482600D02*
X231775Y485775D01*
X520700Y469900D02*
X546100Y469900D01*
X517525Y962025D02*
X307975Y962025D01*
X-146050Y742950D02*
X-152400Y736600D01*
X-146050Y742950D02*
X-136525Y742950D01*
X-130175Y749300D01*
X-98425Y749300D01*
X-69850Y777875D01*
X-57150Y946150D02*
X-41275Y962025D01*
X307975Y962025D01*
X523875Y968375D02*
X809625Y968375D01*
X523875Y968375D02*
X517525Y962025D01*
D24*
X254000Y485775D03*
X231775Y482600D03*
X517525Y962025D03*
X307975Y962025D03*
X-69850Y777875D03*
X-57150Y946150D03*
X809625Y968375D03*
D23*
X174625Y333375D02*
X149225Y333375D01*
X174625Y333375D02*
X190500Y317500D01*
X174625Y498475D02*
X260350Y498475D01*
X441325Y498475D01*
X774700Y1079500D02*
X800100Y1079500D01*
X492125Y949325D02*
X266700Y949325D01*
X187325Y949325D01*
X-76200Y927100D02*
X-82550Y920750D01*
X-76200Y927100D02*
X-9525Y927100D01*
X12700Y949325D01*
X187325Y949325D01*
X492125Y949325D02*
X676275Y949325D01*
D24*
X149225Y333375D03*
X441325Y498475D03*
X174625Y498475D03*
X187325Y949325D03*
X492125Y949325D03*
X-82550Y920750D03*
X676275Y949325D03*
X260350Y498475D03*
X266700Y949325D03*
D23*
X279400Y504825D02*
X155575Y504825D01*
X279400Y504825D02*
X415925Y504825D01*
X155575Y504825D02*
X142875Y492125D01*
X133350Y492125D01*
X279400Y955675D02*
X415925Y955675D01*
X279400Y955675D02*
X92075Y955675D01*
X-139700Y800100D02*
X-152400Y787400D01*
X-139700Y800100D02*
X-69850Y800100D01*
X-63500Y933450D02*
X-41275Y955675D01*
X92075Y955675D01*
X523875Y962025D02*
X682625Y962025D01*
X523875Y962025D02*
X517525Y955675D01*
X415925Y955675D01*
D24*
X415925Y504825D03*
X133350Y492125D03*
X92075Y955675D03*
X415925Y955675D03*
X-69850Y800100D03*
X-63500Y933450D03*
X682625Y962025D03*
X279400Y504825D03*
X279400Y955675D03*
D23*
X63500Y469900D02*
X79375Y454025D01*
X98425Y454025D02*
X292100Y454025D01*
X98425Y454025D02*
X79375Y454025D01*
X292100Y454025D02*
X301625Y463550D01*
X327025Y463550D01*
X336550Y454025D01*
X352425Y454025D01*
X368300Y469900D01*
X393700Y469900D01*
X63500Y927100D02*
X79375Y942975D01*
X377825Y942975D01*
X393700Y927100D01*
X-139700Y825500D02*
X-152400Y812800D01*
X-139700Y825500D02*
X53975Y825500D01*
X377825Y942975D02*
X657225Y942975D01*
X63500Y469900D02*
X47625Y454025D01*
X31750Y454025D01*
X25400Y460375D01*
X25400Y463550D01*
D24*
X98425Y454025D03*
X53975Y825500D03*
X657225Y942975D03*
X25400Y463550D03*
D23*
X38100Y393700D02*
X12700Y368300D01*
X-155575Y368300D01*
X-187325Y400050D01*
X-187325Y838200D01*
X-152400Y838200D01*
X352425Y866775D02*
X368300Y850900D01*
X352425Y866775D02*
X333375Y866775D01*
X323850Y857250D01*
X257175Y857250D01*
X247650Y866775D01*
X3175Y866775D01*
X-12700Y850900D01*
X-139700Y850900D01*
X-152400Y838200D01*
X-95250Y346075D02*
X111125Y346075D01*
X-95250Y346075D02*
X-98425Y342900D01*
X-155575Y342900D01*
X-193675Y381000D01*
X-193675Y863600D01*
X-152400Y863600D01*
X406400Y889000D02*
X444500Y850900D01*
X406400Y889000D02*
X-85725Y889000D01*
X-98425Y876300D01*
X-130175Y876300D01*
X-142875Y863600D01*
X-152400Y863600D01*
D24*
X111125Y346075D03*
D23*
X149225Y895350D02*
X133350Y911225D01*
X-3175Y911225D01*
X-6350Y914400D01*
X-25400Y914400D01*
X-38100Y901700D01*
X-139700Y901700D01*
X-152400Y889000D01*
X434975Y790575D02*
X441325Y796925D01*
X434975Y790575D02*
X149225Y790575D01*
D24*
X149225Y895350D03*
X441325Y796925D03*
X149225Y790575D03*
D23*
X-152400Y914400D02*
X-180975Y885825D01*
X-180975Y828675D02*
X-180975Y571500D01*
X-31750Y571500D01*
X-19050Y558800D01*
X-3175Y558800D01*
X6350Y568325D01*
X292100Y568325D01*
D24*
X517525Y723900D03*
X-180975Y885825D03*
X-180975Y828675D03*
X292100Y568325D03*
X298450Y476250D03*
D23*
X212725Y425450D02*
X203200Y415925D01*
X3175Y415925D01*
X-12700Y400050D01*
X-63500Y400050D01*
X530225Y911225D02*
X546100Y927100D01*
X530225Y911225D02*
X333375Y911225D01*
X323850Y920750D01*
X292100Y920750D01*
X292100Y622300D02*
X263525Y593725D01*
X209550Y593725D01*
D24*
X212725Y425450D03*
X-63500Y400050D03*
X292100Y920750D03*
X292100Y622300D03*
X209550Y593725D03*
D23*
X133350Y504825D02*
X139700Y498475D01*
X133350Y504825D02*
X-63500Y504825D01*
X396875Y714375D02*
X409575Y727075D01*
X396875Y714375D02*
X361950Y714375D01*
X355600Y708025D01*
X358775Y523875D02*
X304800Y523875D01*
X298450Y517525D01*
X161925Y517525D01*
X142875Y498475D01*
X139700Y498475D01*
D24*
X139700Y498475D03*
X-63500Y504825D03*
X409575Y727075D03*
X355600Y708025D03*
X358775Y523875D03*
D23*
X104775Y288925D02*
X95250Y279400D01*
X-38100Y279400D01*
X-50800Y292100D01*
X-114300Y292100D01*
X-127000Y279400D01*
X428625Y517525D02*
X434975Y523875D01*
X428625Y517525D02*
X346075Y517525D01*
X269875Y288925D02*
X104775Y288925D01*
D24*
X104775Y288925D03*
X434975Y523875D03*
X346075Y517525D03*
X269875Y288925D03*
D23*
X-19050Y333375D02*
X-34925Y317500D01*
X-44450Y317500D02*
X-114300Y317500D01*
X-44450Y317500D02*
X-34925Y317500D01*
X-114300Y317500D02*
X-127000Y304800D01*
X349250Y873125D02*
X358775Y882650D01*
X349250Y873125D02*
X333375Y873125D01*
X323850Y863600D01*
X257175Y863600D01*
X247650Y873125D01*
X3175Y873125D01*
X-6350Y863600D01*
X-44450Y333375D02*
X-44450Y317500D01*
D24*
X-19050Y333375D03*
X358775Y882650D03*
X-6350Y863600D03*
X-44450Y333375D03*
D23*
X1101725Y676275D02*
X1111250Y666750D01*
X1358900Y666750D01*
X1387475Y638175D01*
X1406525Y638175D01*
X1422400Y622300D01*
X1397000Y1003300D02*
X1371600Y1003300D01*
X1397000Y1003300D02*
X1473200Y1079500D01*
D24*
X1101725Y676275D03*
D23*
X339725Y1050925D02*
X327025Y1063625D01*
X339725Y1050925D02*
X600075Y1050925D01*
X615950Y1066800D01*
X638175Y1066800D01*
X641350Y1063625D01*
X946150Y1063625D01*
X949325Y1066800D01*
X996950Y1066800D01*
X1006475Y676275D02*
X1003300Y673100D01*
X977900Y673100D01*
D24*
X327025Y1063625D03*
X996950Y1066800D03*
X1006475Y676275D03*
D23*
X161925Y1025525D02*
X101600Y1025525D01*
D24*
X161925Y1025525D03*
X101600Y1025525D03*
X-31750Y717550D03*
D23*
X165100Y1079500D02*
X193675Y1108075D01*
X384175Y1108075D01*
X384175Y1031875D02*
X600075Y1031875D01*
X615950Y1016000D01*
X631825Y1016000D01*
X641350Y1025525D01*
X904875Y1025525D01*
X927100Y1003300D01*
X936625Y1003300D01*
D24*
X384175Y1108075D03*
X384175Y1031875D03*
X936625Y1003300D03*
D23*
X1031875Y968375D02*
X1066800Y1003300D01*
X1031875Y968375D02*
X984250Y968375D01*
X981075Y965200D01*
X911225Y965200D01*
X904875Y971550D01*
X819150Y971550D01*
X815975Y974725D01*
X752475Y974725D01*
X682625Y904875D02*
X638175Y904875D01*
X628650Y914400D01*
X581025Y914400D01*
X571500Y904875D01*
X333375Y904875D01*
X323850Y914400D01*
X250825Y914400D01*
X231775Y895350D01*
X161925Y895350D01*
D24*
X752475Y974725D03*
X682625Y904875D03*
X161925Y895350D03*
D23*
X777875Y523875D02*
X949325Y523875D01*
X952500Y520700D01*
D24*
X590550Y568325D03*
X777875Y523875D03*
D23*
X752475Y139700D02*
X952500Y139700D01*
D24*
X752475Y139700D03*
D23*
X1511300Y879475D02*
X1533525Y901700D01*
X1562100Y901700D01*
X1203325Y968375D02*
X1168400Y1003300D01*
X1203325Y968375D02*
X1489075Y968375D01*
D24*
X1511300Y879475D03*
X1489075Y968375D03*
D23*
X1539875Y622300D02*
X1555750Y606425D01*
X1539875Y622300D02*
X1539875Y654050D01*
X1387475Y654050D01*
X1371600Y669925D01*
X1371600Y698500D01*
D24*
X1555750Y606425D03*
D23*
X1524000Y673100D02*
X1524000Y714375D01*
X1362075Y714375D01*
X1346200Y698500D01*
D24*
X1524000Y673100D03*
D23*
X1517650Y666750D02*
X1501775Y682625D01*
X1463675Y682625D01*
X1447800Y698500D01*
D24*
X1517650Y666750D03*
D23*
X377825Y200025D02*
X98425Y200025D01*
D24*
X377825Y200025D03*
X98425Y200025D03*
D23*
X428625Y225425D02*
X444500Y241300D01*
X428625Y225425D02*
X152400Y225425D01*
D24*
X152400Y225425D03*
D23*
X174625Y365125D02*
X396875Y365125D01*
D24*
X396875Y365125D03*
X174625Y365125D03*
D23*
X403225Y333375D02*
X419100Y317500D01*
X403225Y333375D02*
X231775Y333375D01*
X215900Y317500D01*
X419100Y88900D02*
X403225Y73025D01*
X231775Y73025D01*
X215900Y88900D01*
X422275Y66675D02*
X444500Y88900D01*
X422275Y66675D02*
X187325Y66675D01*
X165100Y88900D01*
X412750Y219075D02*
X419100Y212725D01*
X412750Y219075D02*
X136525Y219075D01*
X114300Y241300D01*
D24*
X419100Y212725D03*
D23*
X419100Y165100D02*
X403225Y149225D01*
X327025Y149225D01*
X323850Y152400D01*
X273050Y152400D01*
X263525Y142875D01*
X98425Y142875D01*
D24*
X98425Y142875D03*
D23*
X1066800Y241300D02*
X1082675Y257175D01*
X1152525Y257175D01*
X1168400Y241300D01*
X1168400Y622300D02*
X1168400Y647700D01*
X1120775Y647700D01*
D24*
X1120775Y647700D03*
D23*
X1117600Y241300D02*
X1143000Y241300D01*
X844550Y450850D02*
X825500Y469900D01*
X844550Y450850D02*
X847725Y450850D01*
X860425Y200025D02*
X866775Y193675D01*
X949325Y193675D01*
X952500Y190500D01*
D24*
X847725Y450850D03*
X860425Y200025D03*
D23*
X1092200Y241300D02*
X1120775Y212725D01*
X1409700Y212725D01*
X1558925Y466725D02*
X1562100Y469900D01*
X1558925Y466725D02*
X1476375Y466725D01*
D24*
X1409700Y212725D03*
X1476375Y466725D03*
D23*
X1308100Y511175D02*
X1241425Y511175D01*
X1308100Y511175D02*
X1314450Y517525D01*
X1558925Y517525D01*
X1562100Y520700D01*
X361950Y180975D02*
X50800Y180975D01*
X520700Y365125D02*
X530225Y355600D01*
X981075Y355600D01*
X990600Y365125D01*
X1216025Y365125D01*
D24*
X1241425Y511175D03*
X50800Y180975D03*
X361950Y180975D03*
X520700Y365125D03*
X1216025Y365125D03*
D23*
X1308100Y415925D02*
X1069975Y415925D01*
X1308100Y415925D02*
X1336675Y444500D01*
X1562100Y444500D01*
D24*
X1069975Y415925D03*
D23*
X-114300Y393700D02*
X-127000Y381000D01*
X-114300Y393700D02*
X-76200Y393700D01*
X-69850Y387350D01*
X-12700Y387350D01*
D24*
X-12700Y387350D03*
D23*
X-120650Y412750D02*
X-127000Y406400D01*
X-120650Y412750D02*
X-111125Y412750D01*
X-104775Y419100D01*
X-63500Y419100D01*
X-63500Y488950D02*
X-53975Y498475D01*
X92075Y498475D01*
D24*
X-63500Y419100D03*
X-63500Y488950D03*
X92075Y498475D03*
D23*
X-114300Y444500D02*
X-127000Y431800D01*
X-114300Y444500D02*
X-31750Y444500D01*
X-19050Y457200D01*
X-12700Y457200D01*
X15875Y593725D02*
X28575Y606425D01*
X149225Y606425D01*
X165100Y622300D01*
D24*
X-12700Y457200D03*
X15875Y593725D03*
D23*
X1054100Y711200D02*
X1066800Y698500D01*
X1054100Y711200D02*
X993775Y711200D01*
X914400Y511175D02*
X908050Y504825D01*
X676275Y504825D01*
X669925Y498475D01*
X473075Y498475D01*
X460375Y511175D01*
X225425Y511175D01*
X-114300Y469900D02*
X-127000Y482600D01*
X-114300Y469900D02*
X-9525Y469900D01*
X12700Y447675D01*
X219075Y447675D01*
D24*
X993775Y711200D03*
X914400Y511175D03*
X225425Y511175D03*
X219075Y447675D03*
D23*
X930275Y635000D02*
X1041400Y635000D01*
X930275Y635000D02*
X920750Y644525D01*
X657225Y644525D01*
X644525Y682625D02*
X434975Y682625D01*
X422275Y669925D01*
X342900Y669925D01*
X336550Y663575D01*
X168275Y663575D01*
X-114300Y495300D02*
X-127000Y508000D01*
X-114300Y495300D02*
X-79375Y495300D01*
X-57150Y517525D01*
X155575Y517525D01*
D24*
X1041400Y635000D03*
X657225Y644525D03*
X644525Y682625D03*
X168275Y663575D03*
X155575Y517525D03*
D23*
X1349375Y682625D02*
X1371600Y660400D01*
X1349375Y682625D02*
X984250Y682625D01*
X981075Y685800D01*
X885825Y685800D01*
X882650Y682625D01*
X650875Y682625D01*
X644525Y676275D01*
X447675Y676275D01*
X434975Y663575D01*
X342900Y663575D01*
X336550Y657225D01*
X117475Y657225D01*
X-114300Y520700D02*
X-127000Y533400D01*
X-114300Y520700D02*
X-60325Y520700D01*
X-57150Y523875D01*
X92075Y523875D01*
X114300Y546100D01*
D24*
X1371600Y660400D03*
X117475Y657225D03*
D23*
X1092200Y317500D02*
X1108075Y333375D01*
X1203325Y333375D01*
X1219200Y317500D01*
X1765300Y355600D02*
X1803400Y393700D01*
X1765300Y355600D02*
X1533525Y355600D01*
X1524000Y346075D01*
X1279525Y346075D01*
X1250950Y317500D01*
X1219200Y317500D01*
X-19050Y838200D02*
X-101600Y838200D01*
X-6350Y762000D02*
X15875Y739775D01*
X187325Y739775D01*
X193675Y733425D01*
X206375Y733425D01*
X346075Y60325D02*
X349250Y57150D01*
X942975Y57150D01*
X949325Y50800D01*
X1000125Y50800D01*
X1016000Y66675D01*
X1212850Y66675D01*
D24*
X-19050Y838200D03*
X-6350Y762000D03*
X206375Y733425D03*
X346075Y60325D03*
X1212850Y66675D03*
D23*
X933450Y984250D02*
X835025Y984250D01*
X933450Y984250D02*
X952500Y1003300D01*
D24*
X835025Y984250D03*
D23*
X828675Y977900D02*
X952500Y977900D01*
D24*
X828675Y977900D03*
D23*
X739775Y942975D02*
X723900Y927100D01*
X739775Y942975D02*
X895350Y942975D01*
X911225Y927100D01*
X952500Y927100D01*
X952500Y901700D02*
X723900Y901700D01*
D24*
X723900Y901700D03*
D23*
X425450Y730250D02*
X393700Y698500D01*
X425450Y730250D02*
X568325Y730250D01*
X571500Y733425D01*
X682625Y889000D02*
X939800Y889000D01*
X952500Y876300D01*
D24*
X571500Y733425D03*
X682625Y889000D03*
D23*
X501650Y809625D02*
X479425Y787400D01*
X501650Y809625D02*
X523875Y809625D01*
X530225Y815975D01*
X796925Y815975D01*
X806450Y825500D01*
X952500Y825500D01*
D24*
X479425Y787400D03*
D23*
X603250Y800100D02*
X606425Y803275D01*
X796925Y803275D01*
X803275Y809625D01*
X939800Y809625D01*
D24*
X603250Y800100D03*
X939800Y809625D03*
D23*
X539750Y793750D02*
X520700Y774700D01*
X539750Y793750D02*
X638175Y793750D01*
X641350Y796925D01*
X939800Y796925D01*
D24*
X939800Y796925D03*
D23*
X530225Y809625D02*
X495300Y774700D01*
X530225Y809625D02*
X796925Y809625D01*
X803275Y815975D01*
X939800Y815975D01*
D24*
X939800Y815975D03*
D23*
X708025Y295275D02*
X711200Y292100D01*
X952500Y292100D01*
D24*
X708025Y295275D03*
D23*
X79375Y1063625D02*
X63500Y1079500D01*
X79375Y1063625D02*
X285750Y1063625D01*
X304800Y1082675D01*
X311150Y1082675D01*
X561975Y517525D02*
X930275Y517525D01*
X939800Y508000D01*
D24*
X311150Y1082675D03*
X561975Y517525D03*
X939800Y508000D03*
D23*
X1076325Y447675D02*
X1082675Y441325D01*
X1076325Y447675D02*
X1057275Y447675D01*
X1041400Y463550D01*
X996950Y463550D01*
D24*
X1082675Y441325D03*
X996950Y463550D03*
D23*
X1003300Y457200D02*
X1022350Y438150D01*
X1003300Y457200D02*
X977900Y457200D01*
D24*
X1022350Y438150D03*
X977900Y457200D03*
D23*
X1069975Y187325D02*
X1292225Y187325D01*
X1028700Y292100D02*
X1016000Y304800D01*
X933450Y304800D01*
X920750Y317500D01*
X876300Y317500D01*
X1143000Y774700D02*
X1127125Y790575D01*
X984250Y790575D01*
X981075Y787400D01*
X889000Y787400D01*
X876300Y774700D01*
X263525Y1101725D02*
X241300Y1079500D01*
X263525Y1101725D02*
X549275Y1101725D01*
X571500Y1079500D01*
X860425Y790575D02*
X876300Y774700D01*
X860425Y790575D02*
X641350Y790575D01*
X625475Y774700D01*
X571500Y774700D01*
D24*
X1292225Y187325D03*
X1069975Y187325D03*
X1028700Y292100D03*
D23*
X1577975Y212725D02*
X1616075Y174625D01*
X1616075Y44450D01*
X1006475Y44450D01*
X981075Y19050D01*
X892175Y19050D01*
X-31750Y914400D02*
X-101600Y914400D01*
X-31750Y914400D02*
X-25400Y920750D01*
X0Y635000D02*
X0Y587375D01*
X238125Y587375D01*
X257175Y247650D02*
X263525Y241300D01*
X342900Y241300D01*
D24*
X1577975Y212725D03*
X892175Y19050D03*
X-25400Y920750D03*
X0Y635000D03*
X238125Y587375D03*
X257175Y247650D03*
D23*
X1590675Y142875D02*
X1590675Y50800D01*
X1006475Y50800D01*
X981075Y25400D01*
X358775Y25400D01*
X304800Y79375D02*
X279400Y104775D01*
X28575Y104775D01*
X12700Y88900D01*
D24*
X1590675Y142875D03*
X358775Y25400D03*
X304800Y79375D03*
D23*
X368300Y241300D02*
X384175Y257175D01*
X593725Y257175D01*
X638175Y212725D01*
D24*
X638175Y212725D03*
D23*
X530225Y101600D02*
X558800Y73025D01*
X708025Y73025D01*
X723900Y88900D01*
D24*
X530225Y101600D03*
D23*
X381000Y304800D02*
X368300Y317500D01*
X381000Y304800D02*
X384175Y304800D01*
D24*
X384175Y304800D03*
D23*
X536575Y187325D02*
X542925Y193675D01*
X819150Y193675D01*
D24*
X536575Y187325D03*
X819150Y193675D03*
D23*
X517525Y66675D02*
X495300Y88900D01*
X517525Y66675D02*
X688975Y66675D01*
D24*
X688975Y66675D03*
D23*
X511175Y149225D02*
X495300Y165100D01*
X511175Y149225D02*
X612775Y149225D01*
X615950Y152400D01*
X631825Y152400D01*
X641350Y142875D01*
X749300Y142875D01*
X771525Y165100D01*
X774700Y165100D01*
X384175Y180975D02*
X368300Y165100D01*
X384175Y180975D02*
X609600Y180975D01*
X641350Y149225D01*
X708025Y149225D01*
X723900Y165100D01*
X1066800Y88900D02*
X1082675Y104775D01*
X1336675Y104775D01*
X1352550Y88900D01*
X1371600Y88900D01*
X1606550Y149225D02*
X1609725Y152400D01*
X1606550Y149225D02*
X1412875Y149225D01*
X1397000Y165100D01*
X342900Y698500D02*
X298450Y698500D01*
X12700Y1003300D02*
X28575Y1019175D01*
X247650Y1019175D01*
X263525Y1003300D01*
X342900Y1003300D01*
X-82550Y882650D02*
X-101600Y863600D01*
X-82550Y882650D02*
X-38100Y882650D01*
X352425Y644525D02*
X609600Y644525D01*
X1381125Y180975D02*
X1397000Y165100D01*
X1381125Y180975D02*
X984250Y180975D01*
X981075Y177800D01*
X885825Y177800D01*
X882650Y180975D01*
X688975Y180975D01*
X673100Y165100D01*
D24*
X1609725Y152400D03*
X298450Y698500D03*
X-38100Y882650D03*
X352425Y644525D03*
X609600Y644525D03*
D23*
X1384300Y127000D02*
X1422400Y88900D01*
X1384300Y127000D02*
X1238250Y127000D01*
X1231900Y120650D01*
X1108075Y120650D01*
D24*
X1108075Y120650D03*
D23*
X1117600Y796925D02*
X1117600Y850900D01*
X1117600Y796925D02*
X1349375Y796925D01*
X1371600Y774700D01*
X1212850Y831850D02*
X1193800Y850900D01*
X1212850Y831850D02*
X1546225Y831850D01*
X1552575Y825500D01*
X1577975Y850900D01*
X1577975Y927100D01*
X1562100Y927100D01*
X1336675Y422275D02*
X1320800Y406400D01*
X1336675Y422275D02*
X1406525Y422275D01*
X1422400Y406400D01*
X1647825Y454025D02*
X1666875Y473075D01*
X1647825Y454025D02*
X1616075Y454025D01*
X1590675Y428625D01*
X1444625Y428625D01*
X1422400Y406400D01*
D24*
X1666875Y473075D03*
D23*
X1543050Y974725D02*
X1209675Y974725D01*
X1543050Y974725D02*
X1555750Y962025D01*
X1625600Y962025D01*
X1635125Y952500D01*
X1638300Y952500D01*
D24*
X1209675Y974725D03*
D23*
X1143000Y850900D02*
X1168400Y825500D01*
X1381125Y825500D01*
X1393825Y812800D01*
X1628775Y812800D01*
D24*
X1628775Y812800D03*
D23*
X1638300Y901700D02*
X1666875Y930275D01*
X1781175Y930275D01*
X1790700Y939800D01*
X1673225Y968375D02*
X1638300Y1003300D01*
X1673225Y968375D02*
X1816100Y968375D01*
X1860550Y923925D01*
X1879600Y923925D01*
X1905000Y898525D01*
X1905000Y546100D01*
X1943100Y546100D01*
X1393825Y819150D02*
X1387475Y825500D01*
X1393825Y819150D02*
X1835150Y819150D01*
X1866900Y787400D01*
D24*
X1387475Y825500D03*
D23*
X1447800Y1003300D02*
X1463675Y1019175D01*
X1574800Y1019175D01*
X1631950Y962025D01*
X1797050Y962025D01*
X1860550Y898525D01*
X1879600Y898525D01*
X1889125Y889000D01*
X1889125Y596900D01*
X1803400Y596900D01*
X1117600Y546100D02*
X1101725Y530225D01*
X984250Y530225D01*
X981075Y533400D01*
X908050Y533400D01*
X898525Y444500D02*
X809625Y444500D01*
X806450Y447675D01*
X676275Y447675D01*
X663575Y342900D02*
X654050Y333375D01*
X536575Y333375D01*
X520700Y317500D01*
D24*
X908050Y533400D03*
X898525Y444500D03*
X676275Y447675D03*
X663575Y342900D03*
D23*
X1346200Y482600D02*
X1362075Y498475D01*
X1431925Y498475D01*
X1447800Y482600D01*
X1473200Y482600D02*
X1476375Y485775D01*
X1673225Y485775D01*
X1701800Y514350D01*
X1720850Y514350D01*
D24*
X1720850Y514350D03*
D23*
X1393825Y460375D02*
X1371600Y482600D01*
X1393825Y460375D02*
X1606550Y460375D01*
X1625600Y479425D01*
X1673225Y479425D01*
X1714500Y812800D02*
X1835150Y812800D01*
X1714500Y812800D02*
X1701800Y800100D01*
D24*
X1673225Y479425D03*
X1835150Y812800D03*
D23*
X1377950Y600075D02*
X1336675Y558800D01*
X1377950Y600075D02*
X1562100Y600075D01*
X1622425Y660400D01*
X1622425Y688975D01*
X1657350Y688975D01*
X1704975Y736600D01*
X1790700Y736600D01*
X1803400Y749300D01*
X1851025Y796925D01*
D24*
X1336675Y558800D03*
X1851025Y796925D03*
D23*
X1533525Y581025D02*
X1489075Y536575D01*
X1533525Y581025D02*
X1666875Y581025D01*
X1784350Y698500D01*
X1803400Y698500D01*
X1866900Y796925D02*
X1866900Y889000D01*
X1866900Y796925D02*
X1879600Y796925D01*
X1882775Y793750D01*
X1882775Y698500D01*
X1803400Y698500D01*
D24*
X1489075Y536575D03*
D23*
X1660525Y593725D02*
X1660525Y685800D01*
X1660525Y593725D02*
X1416050Y593725D01*
D24*
X1660525Y685800D03*
X1416050Y593725D03*
D23*
X1108075Y203200D02*
X1117600Y193675D01*
X1108075Y203200D02*
X930275Y203200D01*
D24*
X1117600Y193675D03*
X930275Y203200D03*
D23*
X1127125Y149225D02*
X1143000Y165100D01*
X1127125Y149225D02*
X1050925Y149225D01*
X1047750Y152400D01*
X1009650Y152400D01*
D24*
X1009650Y152400D03*
D23*
X727075Y212725D02*
X698500Y241300D01*
X727075Y212725D02*
X917575Y212725D01*
D24*
X917575Y212725D03*
D23*
X768350Y63500D02*
X758825Y73025D01*
X768350Y63500D02*
X952500Y63500D01*
D24*
X758825Y73025D03*
D23*
X841375Y225425D02*
X825500Y241300D01*
X841375Y225425D02*
X936625Y225425D01*
X942975Y231775D01*
D24*
X942975Y231775D03*
D23*
X1158875Y530225D02*
X1143000Y546100D01*
X1158875Y530225D02*
X1428750Y530225D01*
X1444625Y546100D01*
X1447800Y546100D01*
X266700Y581025D02*
X47625Y581025D01*
X266700Y581025D02*
X295275Y609600D01*
X323850Y609600D01*
X339725Y593725D01*
X603250Y593725D01*
X638175Y717550D02*
X657225Y736600D01*
X755650Y736600D01*
D24*
X47625Y581025D03*
X603250Y593725D03*
X638175Y717550D03*
X755650Y736600D03*
D23*
X155575Y733425D02*
X98425Y733425D01*
X327025Y1038225D02*
X612775Y1038225D01*
X615950Y1041400D01*
X822325Y1041400D01*
D24*
X98425Y733425D03*
X155575Y733425D03*
X327025Y1038225D03*
X822325Y1041400D03*
D23*
X155575Y530225D02*
X139700Y546100D01*
X155575Y530225D02*
X295275Y530225D01*
X304800Y539750D01*
X330200Y571500D02*
X339725Y581025D01*
X549275Y581025D01*
X555625Y587375D01*
X612775Y587375D01*
X615950Y584200D01*
X692150Y584200D01*
X708025Y835025D02*
X708025Y869950D01*
X850900Y869950D01*
D24*
X304800Y539750D03*
X330200Y571500D03*
X692150Y584200D03*
X708025Y835025D03*
X850900Y869950D03*
D23*
X203200Y752475D02*
X200025Y749300D01*
X203200Y752475D02*
X301625Y752475D01*
X311150Y762000D01*
X327025Y762000D01*
X330200Y758825D01*
X587375Y758825D01*
X609600Y955675D02*
X676275Y955675D01*
X682625Y949325D01*
X682625Y927100D01*
X673100Y927100D01*
D24*
X200025Y749300D03*
X587375Y758825D03*
X609600Y955675D03*
D23*
X336550Y650875D02*
X142875Y650875D01*
X336550Y650875D02*
X342900Y657225D01*
X365125Y657225D01*
D24*
X142875Y650875D03*
X365125Y657225D03*
D23*
X657225Y561975D02*
X673100Y546100D01*
X657225Y561975D02*
X641350Y561975D01*
X631825Y552450D01*
X593725Y552450D01*
X571500Y574675D01*
X339725Y574675D01*
X323850Y558800D01*
X311150Y558800D01*
X292100Y577850D01*
D24*
X292100Y577850D03*
D23*
X336550Y682625D02*
X104775Y682625D01*
X88900Y698500D01*
D24*
X336550Y682625D03*
D23*
X469900Y523875D02*
X771525Y523875D01*
X469900Y523875D02*
X454025Y539750D01*
X454025Y561975D01*
X336550Y561975D01*
X330200Y555625D01*
X304800Y530225D02*
X298450Y523875D01*
X142875Y523875D01*
D24*
X771525Y523875D03*
X330200Y555625D03*
X304800Y530225D03*
X142875Y523875D03*
D23*
X809625Y530225D02*
X825500Y546100D01*
X809625Y530225D02*
X609600Y530225D01*
X571500Y568325D01*
X352425Y568325D01*
X317500Y688975D02*
X314325Y692150D01*
X269875Y692150D01*
X247650Y714375D01*
X209550Y714375D01*
X193675Y698500D01*
X190500Y698500D01*
D24*
X352425Y568325D03*
X317500Y688975D03*
D23*
X358775Y606425D02*
X365125Y600075D01*
X358775Y606425D02*
X333375Y606425D01*
X311150Y628650D01*
X269875Y628650D01*
X247650Y606425D01*
X234950Y606425D01*
X231775Y609600D01*
D24*
X365125Y600075D03*
X231775Y609600D03*
D23*
X330200Y765175D02*
X327025Y768350D01*
X257175Y768350D01*
X247650Y758825D01*
X206375Y758825D01*
X190500Y774700D01*
X165100Y901700D02*
X139700Y927100D01*
D24*
X330200Y765175D03*
X165100Y901700D03*
D23*
X123825Y790575D02*
X139700Y774700D01*
X460375Y787400D02*
X460375Y809625D01*
X123825Y809625D01*
D24*
X123825Y790575D03*
X460375Y787400D03*
X123825Y809625D03*
D23*
X790575Y133350D02*
X806450Y117475D01*
X949325Y117475D01*
X952500Y114300D01*
D24*
X790575Y133350D03*
D23*
X31750Y717550D02*
X12700Y698500D01*
X31750Y717550D02*
X34925Y717550D01*
X784225Y361950D02*
X793750Y371475D01*
X939800Y371475D01*
X949325Y381000D01*
X955675Y381000D01*
X965200Y390525D01*
X965200Y400050D01*
X968375Y400050D01*
X974725Y406400D01*
X1050925Y406400D01*
X1073150Y428625D01*
X1266825Y428625D01*
X206375Y717550D02*
X34925Y717550D01*
X206375Y717550D02*
X209550Y720725D01*
X301625Y720725D01*
X311150Y711200D01*
X536575Y311150D02*
X530225Y304800D01*
X536575Y311150D02*
X631825Y311150D01*
X657225Y285750D01*
X720725Y285750D01*
D24*
X34925Y717550D03*
X784225Y361950D03*
X1266825Y428625D03*
X311150Y711200D03*
X530225Y304800D03*
X720725Y285750D03*
D23*
X803275Y895350D02*
X936625Y895350D01*
D24*
X803275Y895350D03*
X936625Y895350D03*
D23*
X784225Y1047750D02*
X790575Y1054100D01*
X952500Y1054100D01*
D24*
X784225Y1047750D03*
D23*
X1193800Y1079500D02*
X1209675Y1095375D01*
X1517650Y1095375D01*
X1603375Y1009650D01*
D24*
X1603375Y1009650D03*
D23*
X1108075Y600075D02*
X1095375Y587375D01*
X1108075Y600075D02*
X1254125Y600075D01*
X1406525Y987425D02*
X1422400Y1003300D01*
X1406525Y987425D02*
X1336675Y987425D01*
X1320800Y1003300D01*
X1546225Y987425D02*
X1562100Y1003300D01*
X1546225Y987425D02*
X1406525Y987425D01*
D24*
X1095375Y587375D03*
X1254125Y600075D03*
D23*
X1158875Y885825D02*
X1133475Y911225D01*
X1108075Y911225D01*
X1092200Y927100D01*
D24*
X1158875Y885825D03*
D23*
X1181100Y889000D02*
X1143000Y927100D01*
X1181100Y889000D02*
X1384300Y889000D01*
X1422400Y850900D01*
X1158875Y288925D02*
X1120775Y288925D01*
D24*
X1158875Y288925D03*
X1120775Y288925D03*
D23*
X1127125Y803275D02*
X1143000Y819150D01*
X1308100Y819150D01*
D24*
X1127125Y803275D03*
X1308100Y819150D03*
D23*
X1266825Y422275D02*
X1171575Y422275D01*
X1266825Y422275D02*
X1289050Y444500D01*
X1330325Y444500D01*
X1339850Y454025D01*
X1609725Y454025D01*
X1625600Y469900D01*
X1638300Y469900D01*
D24*
X1171575Y422275D03*
D23*
X1127125Y269875D02*
X1260475Y269875D01*
X1311275Y219075D01*
X1698625Y219075D01*
X1727200Y190500D01*
X1803400Y190500D01*
D24*
X1127125Y269875D03*
D23*
X1133475Y301625D02*
X1117600Y317500D01*
X1133475Y301625D02*
X1152525Y301625D01*
X1168400Y317500D01*
X1282700Y688975D02*
X1203325Y768350D01*
X1203325Y790575D01*
X1162050Y790575D01*
X1152525Y781050D01*
X1152525Y758825D01*
X1108075Y758825D01*
X1092200Y774700D01*
D24*
X1282700Y688975D03*
D23*
X1127125Y968375D02*
X1127125Y1041400D01*
X1384300Y1041400D01*
X1422400Y1079500D01*
D24*
X1127125Y968375D03*
D23*
X1654175Y739775D02*
X1654175Y695325D01*
X1654175Y739775D02*
X1571625Y739775D01*
X1562100Y749300D01*
D24*
X1654175Y695325D03*
D23*
X1660525Y441325D02*
X1638300Y419100D01*
X1660525Y441325D02*
X1666875Y441325D01*
D24*
X1666875Y441325D03*
D23*
X28575Y409575D02*
X12700Y393700D01*
X28575Y409575D02*
X301625Y409575D01*
X317500Y393700D01*
X342900Y393700D01*
X850900Y317500D02*
X866775Y333375D01*
X873125Y333375D01*
X879475Y339725D01*
X879475Y349250D01*
X527050Y349250D01*
X498475Y377825D01*
X377825Y377825D01*
D24*
X377825Y377825D03*
D23*
X1092200Y469900D02*
X1139825Y517525D01*
X1247775Y517525D01*
D24*
X1247775Y517525D03*
D23*
X1355725Y384175D02*
X1676400Y384175D01*
X1787525Y495300D01*
X1803400Y495300D01*
D24*
X1355725Y384175D03*
D23*
X1447800Y927100D02*
X1463675Y942975D01*
X1574800Y942975D01*
X1631950Y885825D01*
X1724025Y885825D01*
X1784350Y825500D01*
D24*
X1784350Y825500D03*
D23*
X1739900Y431800D02*
X1701800Y393700D01*
X1739900Y431800D02*
X1955800Y431800D01*
X1968500Y444500D01*
X1968500Y647700D01*
X1955800Y647700D01*
X688975Y663575D02*
X600075Y663575D01*
X536575Y200025D02*
X523875Y187325D01*
X282575Y187325D01*
X276225Y193675D01*
X-25400Y193675D01*
X-98425Y266700D01*
X-130175Y266700D01*
X-139700Y276225D01*
X-139700Y330200D01*
X-127000Y330200D01*
D24*
X688975Y663575D03*
X600075Y663575D03*
X536575Y200025D03*
D23*
X-82550Y552450D02*
X-88900Y546100D01*
X-82550Y552450D02*
X-3175Y552450D01*
X6350Y561975D01*
X222250Y561975D01*
D24*
X-88900Y546100D03*
X222250Y561975D03*
D23*
X1320800Y660400D02*
X1336675Y644525D01*
X1320800Y660400D02*
X787400Y660400D01*
X777875Y669925D01*
X447675Y669925D01*
X434975Y657225D01*
X371475Y657225D01*
X365125Y650875D01*
X342900Y650875D01*
X336550Y644525D01*
X66675Y644525D01*
X-114300Y546100D02*
X-127000Y558800D01*
X-114300Y546100D02*
X-95250Y546100D01*
X-88900Y539750D01*
X-3175Y539750D01*
X6350Y530225D01*
X47625Y530225D01*
X63500Y546100D01*
D24*
X1336675Y644525D03*
X66675Y644525D03*
D23*
X422275Y981075D02*
X444500Y1003300D01*
X422275Y981075D02*
X44450Y981075D01*
D24*
X44450Y981075D03*
D23*
X368300Y742950D02*
X377825Y752475D01*
X368300Y742950D02*
X330200Y742950D01*
X323850Y736600D01*
X209550Y736600D01*
X203200Y742950D01*
X190500Y742950D01*
X180975Y752475D01*
X38100Y752475D01*
X22225Y768350D01*
X22225Y790575D01*
X-41275Y790575D01*
X-79375Y752475D01*
X-88900Y752475D01*
D24*
X377825Y752475D03*
X-88900Y752475D03*
D23*
X530225Y1019175D02*
X546100Y1003300D01*
X530225Y1019175D02*
X479425Y1019175D01*
X314325Y996950D02*
X304800Y987425D01*
X28575Y987425D01*
X15875Y974725D01*
X-76200Y974725D01*
X-98425Y952500D01*
X-155575Y952500D01*
X-187325Y920750D01*
X-187325Y876300D01*
X-149225Y876300D01*
X-142875Y869950D01*
D24*
X479425Y1019175D03*
X314325Y996950D03*
X-142875Y869950D03*
D23*
X327025Y1044575D02*
X536575Y1044575D01*
X327025Y1044575D02*
X323850Y1041400D01*
X19050Y1041400D01*
X-6350Y1016000D01*
X-79375Y1016000D01*
D24*
X536575Y1044575D03*
X-79375Y1016000D03*
D23*
X180975Y1114425D02*
X444500Y1114425D01*
X180975Y1114425D02*
X161925Y1095375D01*
X6350Y1095375D01*
X-22225Y1066800D01*
X-111125Y895350D02*
X-117475Y889000D01*
X-127000Y889000D01*
D24*
X444500Y1114425D03*
X-22225Y1066800D03*
X-111125Y895350D03*
D23*
X676275Y676275D02*
X847725Y676275D01*
D24*
X676275Y676275D03*
X847725Y676275D03*
D23*
X825500Y622300D02*
X809625Y606425D01*
X742950Y606425D01*
D24*
X742950Y606425D03*
D23*
X812800Y250825D02*
X812800Y225425D01*
X742950Y225425D01*
X733425Y234950D01*
X733425Y279400D01*
X523875Y279400D01*
X508000Y263525D01*
X333375Y263525D01*
X323850Y254000D01*
X250825Y254000D01*
X247650Y257175D01*
X57150Y257175D01*
X47625Y247650D01*
X47625Y225425D01*
X-34925Y225425D01*
X-82550Y273050D01*
D24*
X812800Y250825D03*
X-82550Y273050D03*
D23*
X758825Y409575D02*
X784225Y434975D01*
X758825Y409575D02*
X638175Y409575D01*
X622300Y393700D01*
X603250Y393700D01*
X542925Y304800D02*
X517525Y279400D01*
X285750Y279400D01*
X269875Y295275D01*
X3175Y295275D01*
X-6350Y304800D01*
X-82550Y304800D01*
D24*
X784225Y434975D03*
X603250Y393700D03*
X542925Y304800D03*
X-82550Y304800D03*
D23*
X746125Y415925D02*
X765175Y434975D01*
X746125Y415925D02*
X638175Y415925D01*
X628650Y406400D01*
X590550Y406400D01*
X565150Y431800D01*
X-38100Y431800D01*
X-69850Y400050D01*
X-69850Y393700D01*
X-12700Y393700D01*
X-6350Y387350D01*
X-6350Y381000D01*
X-101600Y381000D01*
D24*
X765175Y434975D03*
D23*
X657225Y342900D02*
X654050Y339725D01*
X-82550Y339725D01*
D24*
X657225Y342900D03*
X-82550Y339725D03*
D23*
X349250Y1025525D02*
X342900Y1031875D01*
X349250Y1025525D02*
X600075Y1025525D01*
X615950Y1009650D01*
X631825Y1009650D01*
X641350Y1019175D01*
X889000Y1019175D01*
X917575Y990600D01*
D24*
X342900Y1031875D03*
X917575Y990600D03*
D23*
X476250Y873125D02*
X473075Y876300D01*
X476250Y873125D02*
X606425Y873125D01*
X615950Y863600D01*
X631825Y863600D01*
X650875Y882650D01*
X930275Y882650D01*
X942975Y869950D01*
D24*
X473075Y876300D03*
X942975Y869950D03*
D23*
X3175Y482600D02*
X-101600Y482600D01*
X3175Y482600D02*
X6350Y485775D01*
X203200Y485775D01*
X209550Y492125D01*
X650875Y492125D01*
X657225Y485775D01*
X946150Y485775D01*
X949325Y482600D01*
X1031875Y482600D01*
X1060450Y454025D01*
X1257300Y454025D01*
X1314450Y511175D01*
X1606550Y511175D01*
X1625600Y530225D01*
X1651000Y530225D01*
X1790700Y228600D02*
X1803400Y215900D01*
X1790700Y228600D02*
X1739900Y228600D01*
D24*
X1651000Y530225D03*
D23*
X342900Y682625D02*
X336550Y676275D01*
X-15875Y676275D01*
X-19050Y673100D01*
X-114300Y673100D01*
X-127000Y685800D01*
D24*
X342900Y682625D03*
D23*
X346075Y796925D02*
X85725Y796925D01*
D24*
X346075Y796925D03*
X85725Y796925D03*
D23*
X454025Y1019175D02*
X469900Y1003300D01*
X454025Y1019175D02*
X327025Y1019175D01*
X323850Y1016000D01*
X257175Y1016000D01*
X241300Y1031875D01*
X15875Y1031875D01*
X-15875Y1000125D01*
X-139700Y1000125D01*
X-174625Y831850D02*
X-174625Y774700D01*
X-139700Y774700D01*
X-127000Y787400D01*
D24*
X-139700Y1000125D03*
X-174625Y831850D03*
D23*
X454025Y1095375D02*
X469900Y1079500D01*
X454025Y1095375D02*
X330200Y1095375D01*
X285750Y1050925D01*
X3175Y1050925D01*
X-6350Y1041400D01*
X-53975Y1041400D01*
D24*
X-53975Y1041400D03*
D23*
X276225Y968375D02*
X282575Y974725D01*
X276225Y968375D02*
X-57150Y968375D01*
X-98425Y927100D01*
X-114300Y927100D01*
X-127000Y914400D01*
D24*
X282575Y974725D03*
D23*
X708025Y565150D02*
X714375Y571500D01*
X708025Y565150D02*
X695325Y565150D01*
X682625Y38100D02*
X171450Y38100D01*
X161925Y47625D01*
X-12700Y47625D01*
X-120650Y155575D01*
D24*
X714375Y571500D03*
X695325Y565150D03*
X682625Y38100D03*
X-120650Y155575D03*
D23*
X1225550Y377825D02*
X1241425Y361950D01*
X1225550Y377825D02*
X984250Y377825D01*
X981075Y381000D01*
X965200Y381000D01*
X952500Y368300D01*
D24*
X1241425Y361950D03*
D23*
X479425Y587375D02*
X327025Y587375D01*
X323850Y584200D01*
X276225Y584200D01*
X266700Y574675D01*
X3175Y574675D01*
X-6350Y584200D01*
X-85725Y584200D01*
X-98425Y596900D01*
X-114300Y596900D01*
X-127000Y584200D01*
D24*
X479425Y587375D03*
D23*
X1422400Y927100D02*
X1450975Y955675D01*
X1079500Y1108075D02*
X1060450Y1127125D01*
X349250Y1127125D01*
X304800Y1076325D02*
X285750Y1057275D01*
X3175Y1057275D01*
X-6350Y1066800D01*
X-9525Y1066800D01*
X-174625Y768350D02*
X-174625Y596900D01*
X-139700Y596900D01*
X-127000Y609600D01*
D24*
X1450975Y955675D03*
X1079500Y1108075D03*
X349250Y1127125D03*
X304800Y1076325D03*
X-9525Y1066800D03*
X-174625Y768350D03*
D23*
X282575Y727075D02*
X285750Y730250D01*
X282575Y727075D02*
X76200Y727075D01*
X73025Y730250D01*
X12700Y730250D01*
X-6350Y711200D01*
X-82550Y711200D01*
D24*
X285750Y730250D03*
X-82550Y711200D03*
D23*
X1362075Y962025D02*
X1368425Y955675D01*
X1362075Y962025D02*
X1028700Y962025D01*
X981075Y914400D01*
X977900Y914400D01*
X942975Y908050D02*
X692150Y908050D01*
X676275Y892175D01*
X631825Y892175D01*
X628650Y889000D01*
X460375Y889000D01*
X454025Y882650D01*
X454025Y835025D01*
X409575Y835025D01*
D24*
X1368425Y955675D03*
X977900Y914400D03*
X942975Y908050D03*
X409575Y835025D03*
D23*
X111125Y669925D02*
X92075Y650875D01*
X111125Y669925D02*
X336550Y669925D01*
X349250Y682625D01*
X428625Y682625D01*
X444500Y698500D01*
D24*
X92075Y650875D03*
D23*
X765175Y949325D02*
X777875Y962025D01*
X908050Y962025D01*
D24*
X765175Y949325D03*
X908050Y962025D03*
D23*
X914400Y863600D02*
X892175Y841375D01*
X914400Y863600D02*
X965200Y863600D01*
X977900Y850900D01*
D24*
X892175Y841375D03*
D23*
X939800Y803275D02*
X803275Y803275D01*
X939800Y803275D02*
X949325Y812800D01*
X965200Y812800D01*
X977900Y825500D01*
D24*
X803275Y803275D03*
D23*
X730250Y749300D02*
X727075Y752475D01*
X730250Y749300D02*
X895350Y749300D01*
X898525Y746125D01*
X939800Y746125D01*
X949325Y736600D01*
X981075Y736600D01*
X990600Y746125D01*
X990600Y781050D01*
X987425Y781050D01*
D24*
X727075Y752475D03*
X987425Y781050D03*
D23*
X806450Y260350D02*
X809625Y257175D01*
X936625Y257175D01*
X952500Y241300D01*
D24*
X806450Y260350D03*
D23*
X714375Y758825D02*
X698500Y774700D01*
X714375Y758825D02*
X892175Y758825D01*
X895350Y762000D01*
X965200Y762000D01*
X977900Y774700D01*
X952500Y266700D02*
X800100Y266700D01*
D24*
X800100Y266700D03*
D23*
X822325Y949325D02*
X825500Y952500D01*
X952500Y952500D01*
D24*
X822325Y949325D03*
D23*
X793750Y822325D02*
X644525Y822325D01*
X793750Y822325D02*
X806450Y835025D01*
X923925Y835025D01*
X939800Y850900D01*
X952500Y850900D01*
D24*
X644525Y822325D03*
D23*
X438150Y714375D02*
X428625Y723900D01*
X438150Y714375D02*
X612775Y714375D01*
X615950Y711200D01*
X638175Y711200D01*
X644525Y717550D01*
X825500Y717550D01*
X831850Y723900D01*
X952500Y723900D01*
D24*
X428625Y723900D03*
D23*
X412750Y742950D02*
X403225Y752475D01*
X412750Y742950D02*
X609600Y742950D01*
X615950Y736600D01*
X650875Y736600D01*
X657225Y742950D01*
X806450Y742950D01*
X828675Y714375D02*
X936625Y714375D01*
X952500Y698500D01*
D24*
X403225Y752475D03*
X806450Y742950D03*
X828675Y714375D03*
D23*
X606425Y752475D02*
X504825Y752475D01*
X606425Y752475D02*
X615950Y762000D01*
X638175Y762000D01*
X647700Y752475D01*
X720725Y752475D01*
D24*
X504825Y752475D03*
X720725Y752475D03*
D23*
X615950Y1120775D02*
X504825Y1120775D01*
D24*
X504825Y1120775D03*
X615950Y1120775D03*
D23*
X438150Y1108075D02*
X796925Y1108075D01*
X908050Y1028700D02*
X920750Y1016000D01*
X965200Y1016000D01*
X977900Y1003300D01*
D24*
X438150Y1108075D03*
X796925Y1108075D03*
X908050Y1028700D03*
D23*
X415925Y1057275D02*
X393700Y1079500D01*
X415925Y1057275D02*
X593725Y1057275D01*
X635000Y1035050D02*
X942975Y1035050D01*
X949325Y1041400D01*
X981075Y1041400D01*
X990600Y1031875D01*
X990600Y977900D01*
X977900Y977900D01*
D24*
X593725Y1057275D03*
X635000Y1035050D03*
D23*
X244475Y1120775D02*
X238125Y1127125D01*
X244475Y1120775D02*
X488950Y1120775D01*
X495300Y1114425D01*
X533400Y1114425D01*
X815975Y606425D02*
X822325Y600075D01*
X930275Y600075D01*
D24*
X238125Y1127125D03*
X533400Y1114425D03*
X815975Y606425D03*
X930275Y600075D03*
D23*
X800100Y260350D02*
X800100Y241300D01*
X800100Y260350D02*
X793750Y266700D01*
X793750Y273050D01*
X866775Y273050D01*
D24*
X866775Y273050D03*
D23*
X771525Y377825D02*
X755650Y361950D01*
X771525Y377825D02*
X920750Y377825D01*
X949325Y406400D01*
X965200Y406400D01*
X977900Y419100D01*
D24*
X755650Y361950D03*
D23*
X1225550Y371475D02*
X1235075Y361950D01*
X1225550Y371475D02*
X996950Y371475D01*
D24*
X1235075Y361950D03*
X996950Y371475D03*
D23*
X73025Y723900D02*
X12700Y723900D01*
X-19050Y692150D01*
X-31750Y692150D01*
X-31750Y457200D02*
X-101600Y457200D01*
D24*
X73025Y723900D03*
X-31750Y692150D03*
X-31750Y457200D03*
D23*
X-50800Y533400D02*
X-101600Y533400D01*
D24*
X-38100Y863600D03*
X-50800Y533400D03*
D23*
X1254125Y73025D02*
X1270000Y88900D01*
X1254125Y73025D02*
X1060450Y73025D01*
X1016000Y117475D01*
D24*
X1016000Y117475D03*
D23*
X257175Y415925D02*
X250825Y422275D01*
X257175Y415925D02*
X301625Y415925D01*
X311150Y406400D01*
X333375Y406400D01*
X336550Y409575D01*
X552450Y409575D01*
X561975Y400050D01*
X561975Y361950D01*
X742950Y361950D01*
X774700Y393700D01*
D24*
X250825Y422275D03*
D23*
X831850Y412750D02*
X850900Y393700D01*
X831850Y412750D02*
X828675Y412750D01*
X828675Y606425D02*
X1031875Y606425D01*
X1035050Y609600D01*
X1057275Y609600D01*
X1060450Y606425D01*
X1285875Y606425D01*
X1289050Y609600D01*
X1311275Y609600D01*
X1314450Y606425D01*
X1431925Y606425D01*
X1447800Y622300D01*
D24*
X828675Y412750D03*
X828675Y606425D03*
D23*
X850900Y469900D02*
X869950Y450850D01*
X936625Y450850D01*
X939800Y342900D02*
X939800Y330200D01*
X1057275Y330200D01*
X1066800Y339725D01*
X1130300Y339725D01*
D24*
X936625Y450850D03*
X939800Y342900D03*
X1130300Y339725D03*
D23*
X908050Y539750D02*
X898525Y530225D01*
X908050Y539750D02*
X1060450Y539750D01*
X1066800Y546100D01*
D24*
X898525Y530225D03*
D23*
X933450Y492125D02*
X749300Y492125D01*
X933450Y492125D02*
X949325Y508000D01*
X1057275Y508000D01*
X1073150Y523875D02*
X1343025Y523875D01*
X1073150Y523875D02*
X1057275Y508000D01*
X1149350Y638175D02*
X1152525Y641350D01*
X1149350Y638175D02*
X1108075Y638175D01*
X1092200Y622300D01*
X1943100Y444500D02*
X1962150Y463550D01*
X1962150Y533400D01*
X1654175Y533400D01*
X1651000Y536575D01*
X1622425Y536575D01*
X1616075Y530225D01*
X1435100Y530225D01*
X1428750Y523875D01*
X1343025Y523875D01*
D24*
X749300Y492125D03*
X1057275Y508000D03*
X1343025Y523875D03*
X1152525Y641350D03*
D23*
X669925Y504825D02*
X663575Y511175D01*
X469900Y511175D01*
X450850Y530225D01*
X320675Y530225D01*
X288925Y561975D01*
X254000Y561975D01*
D24*
X669925Y504825D03*
X254000Y561975D03*
D23*
X749300Y241300D02*
X793750Y285750D01*
X812800Y285750D01*
D24*
X812800Y285750D03*
D23*
X657225Y911225D02*
X638175Y911225D01*
X622300Y927100D01*
X571500Y927100D01*
D24*
X657225Y911225D03*
D23*
X571500Y469900D02*
X584200Y457200D01*
X638175Y457200D01*
X657225Y438150D01*
X666750Y438150D01*
X682625Y422275D01*
X746125Y422275D01*
D24*
X746125Y422275D03*
D23*
X38100Y1003300D02*
X22225Y987425D01*
X-146050Y987425D01*
X-171450Y565150D02*
X-171450Y419100D01*
X-114300Y419100D01*
X-101600Y431800D01*
D24*
X-146050Y987425D03*
X-171450Y565150D03*
D23*
X660400Y431800D02*
X669925Y422275D01*
X660400Y431800D02*
X571500Y431800D01*
X555625Y447675D01*
X333375Y447675D01*
X323850Y457200D01*
X301625Y457200D01*
X285750Y441325D01*
X9525Y441325D01*
X-12700Y463550D01*
X-82550Y463550D01*
D24*
X669925Y422275D03*
X-82550Y463550D03*
D23*
X79375Y974725D02*
X212725Y974725D01*
X22225Y660400D02*
X3175Y641350D01*
X-31750Y641350D01*
X-82550Y590550D01*
D24*
X212725Y974725D03*
X79375Y974725D03*
X22225Y660400D03*
X-82550Y590550D03*
D23*
X98425Y758825D02*
X98425Y790575D01*
X98425Y758825D02*
X57150Y758825D01*
X47625Y768350D01*
X47625Y796925D01*
X-60325Y796925D01*
X-82550Y774700D01*
X-130175Y774700D01*
X-139700Y765175D01*
X-139700Y749300D01*
X-155575Y749300D01*
X-165100Y739775D01*
X-165100Y622300D01*
X-114300Y622300D01*
X-101600Y609600D01*
D24*
X98425Y790575D03*
D23*
X-69850Y666750D02*
X-76200Y660400D01*
X-101600Y660400D01*
D24*
X-69850Y666750D03*
D23*
X923925Y44450D02*
X930275Y38100D01*
X923925Y44450D02*
X209550Y44450D01*
X200025Y53975D01*
X19050Y53975D01*
X-3175Y76200D01*
X-19050Y679450D02*
X-25400Y685800D01*
X-101600Y685800D01*
D24*
X930275Y38100D03*
X-3175Y76200D03*
X-19050Y679450D03*
D23*
X342900Y50800D02*
X939800Y50800D01*
X342900Y50800D02*
X333375Y60325D01*
X19050Y60325D01*
X-38100Y117475D01*
X-25400Y698500D02*
X-31750Y704850D01*
X-95250Y704850D01*
X-101600Y711200D01*
D24*
X939800Y50800D03*
X-38100Y117475D03*
X-25400Y698500D03*
D23*
X1117600Y12700D02*
X1143000Y38100D01*
X1117600Y12700D02*
X892175Y12700D01*
X-57150Y736600D02*
X-101600Y736600D01*
D24*
X1143000Y38100D03*
X892175Y12700D03*
X-57150Y736600D03*
D23*
X1231900Y127000D02*
X1270000Y165100D01*
X1231900Y127000D02*
X1009650Y127000D01*
X933450Y111125D02*
X644525Y111125D01*
X628650Y127000D01*
X-63500Y127000D01*
D24*
X1009650Y127000D03*
X933450Y111125D03*
X-63500Y127000D03*
D23*
X638175Y206375D02*
X673100Y241300D01*
X638175Y206375D02*
X368300Y206375D01*
X361950Y212725D01*
X263525Y212725D01*
X273050Y841375D02*
X282575Y850900D01*
X342900Y850900D01*
X638175Y993775D02*
X647700Y1003300D01*
X638175Y993775D02*
X584200Y993775D01*
X577850Y987425D01*
X479425Y987425D01*
D24*
X263525Y212725D03*
X273050Y841375D03*
X479425Y987425D03*
D23*
X841375Y431800D02*
X815975Y406400D01*
X841375Y431800D02*
X923925Y431800D01*
X949325Y457200D01*
X965200Y457200D01*
X977900Y469900D01*
D24*
X815975Y406400D03*
D23*
X663575Y1092200D02*
X666750Y1095375D01*
X946150Y1095375D01*
X949325Y1092200D01*
X1057275Y1092200D01*
X1060450Y1095375D01*
X1076325Y1095375D01*
X1092200Y1079500D01*
D24*
X663575Y1092200D03*
D23*
X606425Y600075D02*
X485775Y600075D01*
X606425Y600075D02*
X615950Y609600D01*
X631825Y609600D01*
X650875Y590550D01*
X930275Y590550D01*
X949325Y571500D01*
X1022350Y571500D01*
X1035050Y558800D01*
X1057275Y558800D01*
X1060450Y561975D01*
X1152525Y561975D01*
X1168400Y546100D01*
D24*
X485775Y600075D03*
D23*
X1397000Y546100D02*
X1438275Y587375D01*
X1574800Y587375D01*
X1298575Y774700D02*
X1219200Y774700D01*
X1298575Y774700D02*
X1314450Y758825D01*
X1628775Y758825D01*
X1638300Y749300D01*
D24*
X1574800Y587375D03*
D23*
X1193800Y774700D02*
X1117600Y698500D01*
X1184275Y654050D02*
X1200150Y638175D01*
X1381125Y638175D01*
X1397000Y622300D01*
D24*
X1184275Y654050D03*
D23*
X1209675Y434975D02*
X1050925Y434975D01*
X1047750Y431800D01*
X990600Y431800D01*
X977900Y444500D01*
D24*
X1209675Y434975D03*
D23*
X673100Y622300D02*
X657225Y638175D01*
X53975Y638175D01*
X38100Y622300D01*
X1381125Y866775D02*
X1397000Y850900D01*
X1381125Y866775D02*
X1304925Y866775D01*
X1301750Y863600D01*
X1228725Y863600D01*
X1225550Y866775D01*
X1050925Y866775D01*
X1022350Y838200D01*
X933450Y838200D01*
X927100Y831850D01*
X920750Y638175D02*
X923925Y635000D01*
X920750Y638175D02*
X657225Y638175D01*
D24*
X927100Y831850D03*
X923925Y635000D03*
D23*
X1397000Y482600D02*
X1422400Y482600D01*
X1660525Y520700D02*
X1943100Y520700D01*
X1660525Y520700D02*
X1644650Y504825D01*
X1473200Y504825D01*
X1457325Y488950D01*
X1457325Y466725D01*
X1438275Y466725D01*
X1422400Y482600D01*
X914400Y498475D02*
X733425Y498475D01*
D24*
X733425Y498475D03*
X914400Y498475D03*
D23*
X720725Y339725D02*
X698500Y317500D01*
X720725Y339725D02*
X873125Y339725D01*
X892175Y530225D02*
X908050Y546100D01*
X965200Y546100D01*
X977900Y558800D01*
D24*
X873125Y339725D03*
X892175Y530225D03*
D23*
X739775Y492125D02*
X657225Y492125D01*
D24*
X739775Y492125D03*
X657225Y492125D03*
D23*
X355600Y415925D02*
X346075Y425450D01*
X355600Y415925D02*
X574675Y415925D01*
X622300Y368300D01*
X669925Y368300D01*
D24*
X346075Y425450D03*
X669925Y368300D03*
D23*
X501650Y650875D02*
X393700Y650875D01*
X501650Y650875D02*
X508000Y657225D01*
X688975Y657225D01*
X819150Y577850D02*
X850900Y546100D01*
X819150Y577850D02*
X701675Y577850D01*
X-95250Y222250D02*
X-101600Y228600D01*
X-95250Y222250D02*
X-60325Y222250D01*
X-25400Y187325D01*
X276225Y187325D01*
D24*
X393700Y650875D03*
X688975Y657225D03*
X701675Y577850D03*
X276225Y187325D03*
D23*
X460375Y606425D02*
X444500Y622300D01*
X460375Y606425D02*
X606425Y606425D01*
X615950Y615950D01*
X631825Y615950D01*
X641350Y606425D01*
X733425Y606425D01*
X749300Y622300D01*
X774700Y571500D02*
X800100Y546100D01*
X774700Y571500D02*
X752475Y571500D01*
X-101600Y254000D02*
X-114300Y241300D01*
X-114300Y215900D01*
X-63500Y215900D01*
X3175Y149225D01*
X263525Y149225D01*
X377825Y600075D02*
X384175Y606425D01*
X460375Y606425D01*
D24*
X752475Y571500D03*
X263525Y149225D03*
X377825Y600075D03*
D23*
X508000Y650875D02*
X781050Y650875D01*
X768350Y565150D02*
X749300Y546100D01*
X768350Y565150D02*
X771525Y565150D01*
X-44450Y279400D02*
X-101600Y279400D01*
X-44450Y279400D02*
X-19050Y254000D01*
X-6350Y254000D01*
X0Y260350D01*
X0Y269875D01*
X269875Y269875D01*
X339725Y438150D02*
X342900Y441325D01*
X450850Y441325D01*
D24*
X508000Y650875D03*
X781050Y650875D03*
X771525Y565150D03*
X269875Y269875D03*
X339725Y438150D03*
X450850Y441325D03*
D23*
X555625Y581025D02*
X593725Y581025D01*
X615950Y558800D01*
X631825Y558800D01*
X641350Y568325D01*
X676275Y568325D01*
X679450Y565150D02*
X698500Y546100D01*
X679450Y565150D02*
X676275Y568325D01*
X698500Y584200D02*
X847725Y584200D01*
X698500Y584200D02*
X679450Y565150D01*
X-95250Y311150D02*
X-101600Y304800D01*
X-95250Y311150D02*
X-3175Y311150D01*
X6350Y301625D01*
X301625Y301625D01*
X311150Y311150D01*
X327025Y311150D01*
X339725Y298450D01*
X530225Y298450D01*
D24*
X555625Y581025D03*
X847725Y584200D03*
X530225Y298450D03*
D23*
X688975Y292100D02*
X698500Y301625D01*
X930275Y301625D01*
D24*
X688975Y292100D03*
X930275Y301625D03*
D23*
X1158875Y949325D02*
X1152525Y955675D01*
X1158875Y949325D02*
X1374775Y949325D01*
X1397000Y927100D01*
D24*
X1152525Y955675D03*
D23*
X1222375Y574675D02*
X1193800Y546100D01*
X1222375Y574675D02*
X1254125Y574675D01*
D24*
X1254125Y574675D03*
D23*
X60325Y803275D02*
X50800Y812800D01*
X60325Y803275D02*
X88900Y774700D01*
X50800Y812800D02*
X47625Y812800D01*
X504825Y530225D02*
X520700Y546100D01*
X504825Y530225D02*
X476250Y530225D01*
X454025Y787400D02*
X454025Y803275D01*
X60325Y803275D01*
D24*
X47625Y812800D03*
X476250Y530225D03*
X454025Y787400D03*
D23*
X701675Y723900D02*
X825500Y723900D01*
X835025Y733425D01*
X895350Y733425D01*
X911225Y933450D02*
X917575Y939800D01*
X965200Y939800D01*
X977900Y952500D01*
D24*
X701675Y723900D03*
X895350Y733425D03*
X911225Y933450D03*
D23*
X825500Y730250D02*
X727075Y730250D01*
X825500Y730250D02*
X835025Y739775D01*
X908050Y739775D01*
X917575Y914400D02*
X965200Y914400D01*
X977900Y927100D01*
D24*
X727075Y730250D03*
X908050Y739775D03*
X917575Y914400D03*
D23*
X927100Y876300D02*
X809625Y876300D01*
X927100Y876300D02*
X930275Y873125D01*
D24*
X809625Y876300D03*
X930275Y873125D03*
D23*
X1260475Y581025D02*
X1260475Y536575D01*
X1260475Y581025D02*
X1050925Y581025D01*
X1047750Y584200D01*
X977900Y584200D01*
D24*
X1260475Y536575D03*
D23*
X1273175Y736600D02*
X1241425Y768350D01*
X1273175Y736600D02*
X1549400Y736600D01*
X1562100Y723900D01*
D24*
X1241425Y768350D03*
D23*
X1387475Y660400D02*
X1549400Y660400D01*
X1562100Y673100D01*
D24*
X1387475Y660400D03*
D23*
X1330325Y711200D02*
X1339850Y720725D01*
X1539875Y720725D01*
X1562100Y698500D01*
D24*
X1330325Y711200D03*
D23*
X1473200Y911225D02*
X1552575Y831850D01*
X1473200Y911225D02*
X1311275Y911225D01*
X1279525Y942975D01*
X1184275Y942975D01*
X1168400Y927100D01*
D24*
X1552575Y831850D03*
M02*
