M48
;GenerationSoftware,Autodesk,EAGLE,9.6.2*%
;CreationDate,2020-12-01T22:57:30Z*%
FMAT,2
ICI,OFF
METRIC,TZ,000.000
T9C0.254
T8C0.700
T7C0.800
T6C0.813
T5C1.016
T4C1.118
T3C1.200
T2C2.794
T1C3.200
%
G90
M71
T1
X162560Y111760
X15240Y111760
X15240Y2540
X162560Y2540
T2
X-17780Y101606
X-17780Y12694
T3
X193080Y20010
X193080Y13010
X193080Y33980
X193080Y26980
T4
X191770Y88900
X191770Y93980
X191770Y73660
X191770Y78740
X191770Y104140
X191770Y109220
T5
X-10160Y76200
X-10160Y73660
X-10160Y71120
X-10160Y68580
X-10160Y66040
X-10160Y63500
X-10160Y60960
X-10160Y58420
X-12700Y96520
X-12700Y93980
X-12700Y91440
X-12700Y88900
X-12700Y86360
X-12700Y83820
X-12700Y81280
X-12700Y78740
X-12700Y76200
X-12700Y73660
X-12700Y71120
X-12700Y68580
X-12700Y66040
X-12700Y63500
X-12700Y60960
X-12700Y58420
X-15240Y96520
X-15240Y93980
X-15240Y91440
X-15240Y88900
X-15240Y86360
X-15240Y83820
X-15240Y81280
X-15240Y78740
X-15240Y76200
X-15240Y73660
X-15240Y71120
X-15240Y68580
X-15240Y66040
X-15240Y63500
X-15240Y60960
X-15240Y58420
X-10160Y55880
X-10160Y53340
X-10160Y50800
X-10160Y48260
X-10160Y45720
X-10160Y43180
X-10160Y40640
X-10160Y38100
X-10160Y35560
X-10160Y33020
X-10160Y30480
X-10160Y27940
X-10160Y25400
X-10160Y22860
X-10160Y20320
X-10160Y17780
X-12700Y55880
X-12700Y53340
X-12700Y50800
X-12700Y48260
X-12700Y45720
X-12700Y43180
X-12700Y40640
X-12700Y38100
X-12700Y35560
X-12700Y33020
X-12700Y30480
X-12700Y27940
X-12700Y25400
X-12700Y22860
X-12700Y20320
X-12700Y17780
X-15240Y55880
X-15240Y53340
X-15240Y50800
X-15240Y48260
X-15240Y45720
X-15240Y43180
X-15240Y40640
X-15240Y38100
X-15240Y35560
X-15240Y33020
X-15240Y30480
X-15240Y27940
X-15240Y25400
X-15240Y22860
X-15240Y20320
X-15240Y17780
X133350Y2540
X130810Y2540
X-10160Y91440
X-10160Y93980
X-10160Y96520
X-10160Y78740
X-10160Y81280
X194310Y39370
X-10160Y83820
X-10160Y86360
X180340Y16510
X180340Y19050
X180340Y21590
X180340Y24130
X180340Y26670
X194310Y41910
X194310Y44450
X194310Y46990
X-10160Y88900
X95250Y110490
X95250Y107950
X95250Y105410
X173990Y22860
X173990Y20320
X194310Y57150
X194310Y54610
X194310Y52070
X95250Y102870
X95250Y100330
X95250Y97790
X97790Y110490
X97790Y107950
X97790Y105410
X97790Y102870
X97790Y100330
X97790Y97790
X95250Y95250
X97790Y95250
X95250Y92710
X95250Y90170
X95250Y87630
X95250Y85090
X95250Y82550
X95250Y80010
X97790Y92710
X97790Y90170
X97790Y87630
X97790Y55880
X95250Y55880
X97790Y58420
X95250Y58420
X97790Y3810
X97790Y6350
X97790Y8890
X97790Y11430
X97790Y13970
X97790Y16510
X95250Y3810
X95250Y6350
X95250Y8890
X95250Y11430
X95250Y13970
X95250Y16510
X97790Y19050
X95250Y19050
X97790Y21590
X97790Y24130
X97790Y26670
X97790Y29210
X97790Y31750
X97790Y34290
X95250Y21590
X95250Y24130
X95250Y26670
X95250Y29210
X95250Y31750
X95250Y34290
X97790Y36830
X95250Y36830
X97790Y39370
X97790Y41910
X97790Y44450
X97790Y46990
X97790Y49530
X97790Y52070
X95250Y39370
X95250Y41910
X95250Y44450
X95250Y46990
X95250Y49530
X95250Y52070
X97790Y62230
X97790Y64770
X97790Y67310
X97790Y69850
X97790Y72390
X97790Y74930
X95250Y62230
X95250Y64770
X95250Y67310
X95250Y69850
X95250Y72390
X95250Y74930
X97790Y77470
X95250Y77470
X97790Y80010
X97790Y82550
X97790Y85090
T6
X64770Y54610
X67310Y54610
X80010Y54610
X82550Y54610
X69850Y54610
X72390Y54610
X77470Y54610
X74930Y54610
X85090Y54610
X87630Y54610
X87630Y62230
X85090Y62230
X82550Y62230
X80010Y62230
X77470Y62230
X74930Y62230
X72390Y62230
X69850Y62230
X67310Y62230
X64770Y62230
X34290Y54610
X36830Y54610
X49530Y54610
X180340Y39370
X170180Y39370
X193040Y64770
X195580Y64770
X170180Y49530
X180340Y49530
X156210Y69850
X156210Y72390
X52070Y54610
X39370Y54610
X170180Y44450
X180340Y44450
X163830Y62230
X156210Y62230
X41910Y54610
X46990Y54610
X132080Y92710
X134620Y92710
X137160Y92710
X139700Y92710
X142240Y92710
X144780Y92710
X142240Y85090
X144780Y85090
X139700Y85090
X137160Y85090
X147320Y92710
X147320Y85090
X134620Y85090
X132080Y85090
X180340Y54610
X170180Y54610
X44450Y54610
X54610Y54610
X57150Y54610
X57150Y62230
X54610Y62230
X106680Y77470
X109220Y77470
X111760Y77470
X114300Y77470
X116840Y77470
X119380Y77470
X116840Y69850
X119380Y69850
X114300Y69850
X111760Y69850
X121920Y77470
X121920Y69850
X109220Y69850
X106680Y69850
X52070Y62230
X49530Y62230
X186690Y73660
X186690Y76200
X186690Y78740
X34290Y46990
X36830Y46990
X39370Y46990
X41910Y46990
X44450Y46990
X46990Y46990
X49530Y46990
X52070Y46990
X54610Y46990
X57150Y46990
X57150Y39370
X54610Y39370
X44450Y39370
X46990Y39370
X41910Y39370
X39370Y39370
X52070Y39370
X49530Y39370
X36830Y39370
X34290Y39370
X1270Y46990
X3810Y46990
X6350Y46990
X8890Y46990
X11430Y46990
X13970Y46990
X16510Y46990
X19050Y46990
X21590Y46990
X24130Y46990
X24130Y39370
X21590Y39370
X11430Y39370
X13970Y39370
X8890Y39370
X6350Y39370
X19050Y39370
X16510Y39370
X3810Y39370
X1270Y39370
X1270Y62230
X3810Y62230
X6350Y62230
X8890Y62230
X11430Y62230
X13970Y62230
X16510Y62230
X19050Y62230
X21590Y62230
X24130Y62230
X24130Y54610
X21590Y54610
X11430Y54610
X13970Y54610
X8890Y54610
X6350Y54610
X19050Y54610
X16510Y54610
X3810Y54610
X1270Y54610
X1270Y77470
X3810Y77470
X6350Y77470
X8890Y77470
X11430Y77470
X13970Y77470
X16510Y77470
X19050Y77470
X21590Y77470
X24130Y77470
X24130Y69850
X21590Y69850
X11430Y69850
X13970Y69850
X8890Y69850
X6350Y69850
X19050Y69850
X16510Y69850
X170180Y34290
X3810Y69850
X1270Y69850
X1270Y92710
X3810Y92710
X6350Y92710
X8890Y92710
X11430Y92710
X13970Y92710
X16510Y92710
X19050Y92710
X21590Y92710
X24130Y92710
X24130Y85090
X21590Y85090
X11430Y85090
X13970Y85090
X8890Y85090
X6350Y85090
X19050Y85090
X16510Y85090
X3810Y85090
X1270Y85090
X132080Y62230
X134620Y62230
X137160Y62230
X139700Y62230
X142240Y62230
X144780Y62230
X142240Y54610
X144780Y54610
X139700Y54610
X137160Y54610
X147320Y62230
X147320Y54610
X134620Y54610
X132080Y54610
X106680Y107950
X109220Y107950
X111760Y107950
X114300Y107950
X116840Y107950
X119380Y107950
X116840Y100330
X119380Y100330
X114300Y100330
X111760Y100330
X121920Y107950
X121920Y100330
X109220Y100330
X106680Y100330
X34290Y92710
X36830Y92710
X39370Y92710
X41910Y92710
X44450Y92710
X46990Y92710
X49530Y92710
X52070Y92710
X54610Y92710
X57150Y92710
X57150Y85090
X54610Y85090
X44450Y85090
X46990Y85090
X41910Y85090
X39370Y85090
X52070Y85090
X49530Y85090
X36830Y85090
X34290Y85090
X64770Y107950
X67310Y107950
X69850Y107950
X72390Y107950
X74930Y107950
X77470Y107950
X80010Y107950
X82550Y107950
X85090Y107950
X87630Y107950
X87630Y100330
X85090Y100330
X74930Y100330
X77470Y100330
X72390Y100330
X69850Y100330
X82550Y100330
X80010Y100330
X67310Y100330
X64770Y100330
X132080Y107950
X134620Y107950
X137160Y107950
X139700Y107950
X142240Y107950
X144780Y107950
X142240Y100330
X144780Y100330
X139700Y100330
X137160Y100330
X147320Y107950
X147320Y100330
X134620Y100330
X132080Y100330
X163830Y77470
X163830Y74930
X163830Y72390
X163830Y69850
X163830Y67310
X163830Y64770
X156210Y67310
X46990Y62230
X44450Y62230
X41910Y62230
X39370Y62230
X36830Y62230
X34290Y62230
X64770Y85090
X67310Y85090
X80010Y85090
X82550Y85090
X69850Y85090
X72390Y85090
X77470Y85090
X74930Y85090
X85090Y85090
X87630Y85090
X87630Y92710
X85090Y92710
X82550Y92710
X80010Y92710
X77470Y92710
X74930Y92710
X72390Y92710
X69850Y92710
X67310Y92710
X64770Y92710
X34290Y69850
X36830Y69850
X49530Y69850
X52070Y69850
X39370Y69850
X41910Y69850
X46990Y69850
X44450Y69850
X54610Y69850
X57150Y69850
X57150Y77470
X54610Y77470
X52070Y77470
X49530Y77470
X46990Y77470
X44450Y77470
X41910Y77470
X39370Y77470
X36830Y77470
X34290Y77470
X34290Y100330
X36830Y100330
X49530Y100330
X52070Y100330
X39370Y100330
X41910Y100330
X46990Y100330
X44450Y100330
X54610Y100330
X57150Y100330
X57150Y107950
X54610Y107950
X52070Y107950
X49530Y107950
X46990Y107950
X44450Y107950
X41910Y107950
X39370Y107950
X36830Y107950
X34290Y107950
X64770Y69850
X67310Y69850
X80010Y69850
X82550Y69850
X69850Y69850
X72390Y69850
X77470Y69850
X74930Y69850
X85090Y69850
X87630Y69850
X87630Y77470
X85090Y77470
X82550Y77470
X80010Y77470
X77470Y77470
X74930Y77470
X72390Y77470
X69850Y77470
X67310Y77470
X64770Y77470
X1270Y100330
X3810Y100330
X16510Y100330
X19050Y100330
X6350Y100330
X8890Y100330
X13970Y100330
X11430Y100330
X21590Y100330
X24130Y100330
X24130Y107950
X21590Y107950
X19050Y107950
X16510Y107950
X13970Y107950
X11430Y107950
X8890Y107950
X6350Y107950
X3810Y107950
X1270Y107950
X106680Y8890
X109220Y8890
X121920Y8890
X124460Y8890
X111760Y8890
X114300Y8890
X119380Y8890
X116840Y8890
X127000Y8890
X129540Y8890
X129540Y16510
X127000Y16510
X124460Y16510
X121920Y16510
X119380Y16510
X116840Y16510
X114300Y16510
X111760Y16510
X109220Y16510
X106680Y16510
X64770Y39370
X67310Y39370
X80010Y39370
X82550Y39370
X69850Y39370
X72390Y39370
X77470Y39370
X74930Y39370
X85090Y39370
X87630Y39370
X87630Y46990
X85090Y46990
X82550Y46990
X80010Y46990
X77470Y46990
X74930Y46990
X72390Y46990
X69850Y46990
X67310Y46990
X64770Y46990
X64770Y24130
X67310Y24130
X80010Y24130
X82550Y24130
X69850Y24130
X72390Y24130
X77470Y24130
X74930Y24130
X85090Y24130
X87630Y24130
X87630Y31750
X85090Y31750
X82550Y31750
X80010Y31750
X77470Y31750
X74930Y31750
X72390Y31750
X69850Y31750
X67310Y31750
X64770Y31750
X132080Y24130
X134620Y24130
X147320Y24130
X149860Y24130
X137160Y24130
X139700Y24130
X144780Y24130
X142240Y24130
X149860Y31750
X147320Y31750
X144780Y31750
X142240Y31750
X139700Y31750
X137160Y31750
X134620Y31750
X132080Y31750
X132080Y69850
X134620Y69850
X147320Y69850
X149860Y69850
X137160Y69850
X139700Y69850
X144780Y69850
X142240Y69850
X149860Y77470
X147320Y77470
X144780Y77470
X142240Y77470
X139700Y77470
X137160Y77470
X134620Y77470
X132080Y77470
X137160Y8890
X139700Y8890
X152400Y8890
X154940Y8890
X142240Y8890
X144780Y8890
X149860Y8890
X147320Y8890
X157480Y8890
X160020Y8890
X160020Y16510
X157480Y16510
X154940Y16510
X152400Y16510
X149860Y16510
X147320Y16510
X144780Y16510
X142240Y16510
X139700Y16510
X137160Y16510
X1270Y24130
X3810Y24130
X16510Y24130
X19050Y24130
X6350Y24130
X8890Y24130
X13970Y24130
X11430Y24130
X21590Y24130
X24130Y24130
X24130Y31750
X21590Y31750
X19050Y31750
X16510Y31750
X13970Y31750
X11430Y31750
X8890Y31750
X6350Y31750
X3810Y31750
X1270Y31750
X34290Y8890
X36830Y8890
X49530Y8890
X52070Y8890
X39370Y8890
X41910Y8890
X46990Y8890
X44450Y8890
X52070Y16510
X49530Y16510
X46990Y16510
X44450Y16510
X41910Y16510
X39370Y16510
X36830Y16510
X34290Y16510
X34290Y24130
X36830Y24130
X49530Y24130
X52070Y24130
X156210Y64770
X41910Y24130
X46990Y24130
X44450Y24130
X52070Y31750
X49530Y31750
X46990Y31750
X44450Y31750
X41910Y31750
X39370Y31750
X36830Y31750
X34290Y31750
X1270Y8890
X3810Y8890
X16510Y8890
X19050Y8890
X6350Y8890
X8890Y8890
X13970Y8890
X11430Y8890
X21590Y8890
X24130Y8890
X24130Y16510
X21590Y16510
X19050Y16510
X16510Y16510
X13970Y16510
X11430Y16510
X8890Y16510
X6350Y16510
X3810Y16510
X1270Y16510
X156210Y52070
X156210Y49530
X156210Y36830
X163830Y36830
X156210Y46990
X156210Y44450
X156210Y39370
X156210Y41910
X163830Y39370
X163830Y41910
X163830Y44450
X163830Y46990
X163830Y49530
X163830Y52070
X106680Y24130
X109220Y24130
X121920Y24130
X121920Y31750
X111760Y24130
X114300Y24130
X119380Y24130
X116840Y24130
X119380Y31750
X116840Y31750
X114300Y31750
X111760Y31750
X109220Y31750
X106680Y31750
X106680Y39370
X109220Y39370
X121920Y39370
X121920Y46990
X111760Y39370
X114300Y39370
X119380Y39370
X116840Y39370
X119380Y46990
X116840Y46990
X114300Y46990
X111760Y46990
X109220Y46990
X106680Y46990
X171450Y109220
X171450Y93980
X179070Y93980
X179070Y109220
X64770Y8890
X67310Y8890
X80010Y8890
X82550Y8890
X69850Y8890
X72390Y8890
X77470Y8890
X74930Y8890
X85090Y8890
X87630Y8890
X87630Y16510
X85090Y16510
X82550Y16510
X80010Y16510
X77470Y16510
X74930Y16510
X72390Y16510
X69850Y16510
X67310Y16510
X64770Y16510
X106680Y85090
X109220Y85090
X121920Y85090
X121920Y92710
X111760Y85090
X114300Y85090
X119380Y85090
X116840Y85090
X119380Y92710
X116840Y92710
X114300Y92710
X111760Y92710
X109220Y92710
X106680Y92710
X156210Y102870
X156210Y100330
X156210Y87630
X163830Y87630
X156210Y97790
X156210Y95250
X156210Y90170
X156210Y92710
X163830Y90170
X163830Y92710
X163830Y95250
X163830Y97790
X163830Y100330
X163830Y102870
X170180Y64770
X180340Y64770
X180340Y59690
X170180Y59690
X106680Y54610
X109220Y54610
X121920Y54610
X121920Y62230
X111760Y54610
X114300Y54610
X119380Y54610
X116840Y54610
X119380Y62230
X116840Y62230
X114300Y62230
X111760Y62230
X109220Y62230
X106680Y62230
X132080Y40640
X134620Y40640
X147320Y40640
X147320Y48260
X137160Y40640
X139700Y40640
X144780Y40640
X142240Y40640
X144780Y48260
X142240Y48260
X139700Y48260
X137160Y48260
X134620Y48260
X132080Y48260
X170180Y85090
X180340Y85090
X170180Y80010
X180340Y80010
X186690Y109220
X186690Y106680
X186690Y104140
X195580Y6350
X193040Y6350
X170180Y74930
X180340Y74930
X180340Y69850
X170180Y69850
X186690Y93980
X186690Y91440
X186690Y88900
X180340Y34290
X39370Y24130
X156210Y77470
X156210Y74930
T7
X195580Y27980
X195580Y32980
X195580Y14010
X195580Y19010
T8
X-1270Y102870
X161290Y54610
X158750Y54610
X161290Y80010
X158750Y80010
X62230Y29210
X62230Y26670
X134620Y11430
X134620Y13970
X104140Y102870
X104140Y105410
X129540Y87630
X129540Y90170
X129540Y102870
X129540Y105410
X161290Y105410
X158750Y105410
X129540Y26670
X129540Y29210
X62230Y41910
X62230Y44450
X-1270Y11430
X-1270Y13970
X-1270Y26670
X-1270Y29210
X104140Y57150
X104140Y59690
X129540Y57150
X129540Y59690
X-1270Y41910
X-1270Y44450
X-1270Y57150
X-1270Y59690
X-1270Y72390
X-1270Y74930
X-1270Y87630
X-1270Y90170
X31750Y102870
X31750Y105410
X-1270Y105410
X31750Y87630
X31750Y90170
X62230Y87630
X62230Y90170
X31750Y72390
X31750Y74930
X31750Y57150
X31750Y59690
X62230Y13970
X62230Y11430
X62230Y74930
X62230Y72390
X31750Y26670
X31750Y29210
X62230Y102870
X62230Y105410
X31750Y41910
X31750Y44450
X62230Y59690
X62230Y57150
X104140Y87630
X104140Y90170
X104140Y72390
X104140Y74930
X129540Y43180
X129540Y45720
X129540Y72390
X129540Y74930
X31750Y11430
X31750Y13970
X104140Y41910
X104140Y44450
X104140Y26670
X104140Y29210
X104140Y11430
X104140Y13970
T9
X-17145Y56515
X-14605Y98742
X74613Y42228
X65723Y91122
X81280Y28575
X25400Y56197
X66993Y50482
X115252Y64135
X134303Y52387
X105727Y50800
X74930Y49212
X89852Y53022
X113030Y33973
X93980Y34290
X93662Y45085
X82868Y60642
X82868Y41275
X25082Y42228
X101600Y11747
X-5080Y53340
X-3810Y86360
X-3175Y45720
X-3175Y69215
X7302Y72390
X99695Y37148
X123507Y36195
X75565Y36195
X86678Y27305
X93027Y60007
X81598Y60642
X53340Y111442
X23812Y112712
X63500Y103505
X59372Y105727
X90805Y102870
X79693Y110807
X61595Y112077
X50482Y112077
X72073Y75248
X50482Y75248
X82868Y71438
X80645Y74295
X40323Y75248
X42863Y72390
X64452Y82233
X82233Y94932
X80010Y26670
X80645Y26035
X98742Y78105
X72708Y75248
X80328Y80328
X89217Y84138
X90805Y96202
X76518Y94932
X9208Y65087
X40958Y83503
X94297Y90805
X97790Y91440
X136843Y95567
X-8255Y71120
X28575Y73025
X-17463Y76835
X-952Y106680
X30480Y107632
X34925Y112712
X107950Y110807
X145098Y95567
X47942Y58737
X124142Y36195
X-12065Y15557
X68263Y3810
X69533Y56515
X71438Y57150
X28257Y97472
X66993Y42228
X-8255Y46355
X21273Y97472
X7937Y97472
X2223Y66040
X-8255Y59055
X9843Y79058
X-6985Y66675
X93027Y3810
X-318Y7620
X-1905Y67945
X93980Y5080
X-3810Y11747
X-2540Y69850
X114300Y3810
X89217Y1270
X-5715Y73660
X100965Y12700
X93345Y11112
X-6350Y12700
X26352Y21273
X27305Y84138
X47942Y98742
X81598Y40640
X66358Y109220
X48577Y60007
X157480Y58737
X118427Y65405
X120967Y43498
X92710Y83185
X92392Y63500
X73343Y49847
X91440Y49847
X87313Y33973
X89217Y53022
X73978Y49212
X65723Y49212
X135255Y18733
X34608Y42545
X66993Y36830
X39370Y65087
X68898Y65723
X70168Y57785
X27622Y18733
X75248Y57150
X26352Y14922
X37783Y60007
X50800Y65087
X-5398Y104140
X-17463Y83185
X-13970Y100012
X8573Y79693
X34608Y79693
X34290Y68263
X165100Y53022
X94297Y86995
X47307Y87630
X91757Y99060
X34290Y103187
X-8255Y33973
X65723Y34290
X76518Y43498
X-8255Y30480
X54292Y30480
X60325Y39370
X78423Y43498
X-8255Y27305
X81280Y25082
X74295Y60642
X84773Y67628
X67628Y67628
X-11112Y89535
X-2223Y106680
X44450Y111442
X-7937Y101600
X53657Y104457
X-14287Y86995
X31432Y99695
X47942Y101917
X-8890Y75248
X37783Y75248
X4445Y98107
X6667Y64452
X133668Y64452
X22225Y56197
X-8890Y54610
X53657Y20003
X60007Y66358
X78105Y65087
X77153Y56515
X26987Y26987
X33973Y43815
X45085Y44132
X55562Y58102
X84773Y58420
X53022Y29845
X68898Y29210
X93027Y30162
X115252Y95567
X125412Y57467
X4763Y81280
X47625Y53022
X45402Y78740
X70168Y72390
X89535Y73343
X91122Y93345
X72708Y73025
X90805Y73978
X68898Y66358
X178435Y82550
X135573Y38418
X124777Y51752
X37783Y37783
X166688Y44132
X165418Y69533
X112712Y96837
X128270Y68898
X112712Y26987
X117157Y42228
X130810Y81915
X112712Y80328
X112077Y28892
X115887Y28892
X115887Y88582
X125412Y60007
X109537Y58737
X160338Y100965
X78423Y104775
X93662Y89535
X80328Y89535
X72073Y28575
X53022Y30480
X91757Y91440
X80963Y87630
X31115Y71120
X126682Y42863
X78423Y36195
X3492Y71755
X79058Y13335
X12382Y80963
X46037Y78740
X12382Y79058
X16510Y90170
X33020Y76518
X23177Y60960
X36513Y60007
X31750Y68898
X35243Y56832
X14287Y52387
X30480Y53022
X33020Y55562
X77153Y52387
X33655Y68263
X29210Y57785
X36513Y65723
X14287Y65087
X60960Y95567
X58737Y75883
X20003Y74930
X85090Y86995
X70803Y83503
X69215Y58420
X33020Y57150
X30480Y53975
X82233Y104140
X32702Y103822
X93027Y87313
X126047Y53657
X15557Y73343
X9843Y73343
X75565Y73660
X63817Y71755
X60325Y59372
X4763Y58102
X94297Y23177
X75883Y7302
X91757Y21273
X100965Y15240
X93027Y20320
X111760Y19368
X141605Y59372
X166053Y68580
X148908Y53657
X185102Y79693
X133668Y55880
X183515Y81280
X167323Y47942
X172085Y51435
X66358Y34290
X67628Y44767
X89852Y44450
X90805Y53340
X138748Y82550
X162878Y81280
X120967Y97472
X166688Y47307
X110807Y12065
X60960Y64452
X35243Y64452
X-3810Y88265
X29845Y69850
X160973Y15240
X68898Y6667
X81915Y19368
X53657Y18733
X38418Y30480
X53022Y10160
X63817Y21273
X30480Y7937
X35878Y2540
X159068Y14287
X25717Y24765
X23812Y58737
X0Y63500
X-2540Y92075
X89217Y1905
X157798Y21273
X102870Y29210
X106997Y18733
X129222Y18733
X97790Y45720
X102235Y43815
X99695Y46355
X108267Y44132
X93980Y50800
X56197Y51752
X31115Y108267
X70803Y29527
X93980Y81598
X93980Y79693
X93980Y80963
X60325Y80010
X47942Y78740
X68263Y88900
X57150Y73343
X72390Y90170
X82868Y97790
X83503Y98425
X121285Y6667
X34608Y6032
X20638Y73343
X-635Y76200
X-1905Y83820
X11747Y65723
X137160Y66040
X15557Y51752
X16828Y66358
X64452Y68263
X65723Y64452
X104140Y63500
X21907Y44767
X22542Y51117
X91440Y51117
X99377Y71120
X1587Y59372
X-1270Y45720
X9208Y49847
X-6350Y48895
X-6350Y41910
X-1270Y38735
X106997Y41593
X121602Y36513
X52070Y36513
X36195Y18098
X5080Y18098
X124142Y51117
X147638Y46672
X140970Y21273
X86043Y20003
X84773Y45085
X112077Y64770
X9843Y14287
X41910Y21273
X17463Y36513
X39688Y36513
X15240Y22542
X9843Y20003
X37783Y20003
X151765Y66675
X152400Y67310
X155575Y60642
X148908Y96837
X151130Y87947
X75248Y13970
X77788Y52387
X59055Y56832
X16192Y89535
X68263Y90487
X75248Y97472
X93662Y100330
X38418Y103187
X38418Y110807
X-3175Y71755
X10160Y102552
X16192Y102552
X100647Y67628
X99695Y106680
X32702Y106362
X110172Y67628
X-4445Y33338
X-635Y86360
X35878Y88265
X-1905Y33338
X26987Y28892
X34608Y51752
X43498Y52387
X10478Y28892
X35878Y52387
X35560Y70803
X40958Y72708
X-6350Y50482
X13970Y49847
X20955Y59372
X29210Y62230
X29210Y92075
X-6350Y40005
X21273Y42545
X29845Y47625
X29210Y56832
X-18098Y82868
X-18098Y88582
X51752Y72390
X14922Y79058
X44132Y79693
X14922Y89535
X11112Y34608
X2540Y46355
X65723Y94297
X5398Y82550
X9843Y45402
X27940Y95567
X27940Y50482
X68263Y96202
X-6350Y93345
X-6985Y80010
X41593Y95567
X9208Y95567
X13335Y49212
X41593Y50482
X26670Y94932
X26035Y49847
X67628Y94932
X-8255Y92075
X49212Y94932
X18733Y94932
X17463Y49847
X44132Y49847
X14922Y33338
X80963Y96837
X-5715Y94615
X-6985Y77788
X30797Y96202
X51752Y96202
X23177Y48260
X25400Y48577
X19368Y81598
X51752Y81598
X21907Y34608
X49847Y37148
X18098Y74613
X56197Y98107
X30480Y82868
X28575Y37148
X67310Y82868
X-7620Y83185
X-8255Y69850
X17463Y82868
X17463Y37148
X44767Y37148
X41910Y97472
X71438Y97472
X7937Y66993
X36195Y20638
X-7620Y36195
X59372Y82233
X63182Y98742
X-8255Y78105
X38418Y82233
X6667Y82550
X91122Y67945
X79693Y110172
X44132Y106362
X78423Y65723
X77153Y82868
X46037Y88265
X102235Y70485
X109537Y98742
X26670Y112712
X91122Y38418
X93980Y13335
X88265Y13335
X94297Y18415
X74930Y18733
X146368Y18098
X158433Y22542
X152400Y35243
X88582Y12382
X124142Y76835
X138748Y66040
X133033Y71120
X155258Y83185
X70485Y20003
X130492Y21907
X153670Y23177
X99695Y34925
X126682Y33973
X43815Y110807
M30