G04 EAGLE Gerber RS-274X export*
G75*
%MOMM*%
%FSLAX34Y34*%
%LPD*%
%INSoldermask Bottom*%
%IPPOS*%
%AMOC8*
5,1,8,0,0,1.08239X$1,22.5*%
G01*
%ADD10C,3.327000*%
%ADD11C,1.346200*%
%ADD12C,1.346200*%
%ADD13P,1.951982X8X22.500000*%
%ADD14P,1.951982X8X202.500000*%
%ADD15C,1.905000*%
%ADD16C,1.796050*%
%ADD17C,1.831619*%
%ADD18C,1.651000*%
%ADD19C,2.286000*%
%ADD20C,1.778000*%
%ADD21P,1.457113X8X202.500000*%
%ADD22P,1.457113X8X22.500000*%
%ADD23P,1.787026X8X292.500000*%
%ADD24P,1.787026X8X202.500000*%
%ADD25C,2.921000*%
%ADD26C,0.584200*%


D10*
X152400Y1117600D03*
X152400Y25400D03*
X1625600Y25400D03*
X1625600Y1117600D03*
D11*
X647700Y856996D02*
X647700Y844804D01*
X673100Y844804D02*
X673100Y856996D01*
X800100Y856996D02*
X800100Y844804D01*
X825500Y844804D02*
X825500Y856996D01*
X698500Y856996D02*
X698500Y844804D01*
X723900Y844804D02*
X723900Y856996D01*
X774700Y856996D02*
X774700Y844804D01*
X749300Y844804D02*
X749300Y856996D01*
X850900Y856996D02*
X850900Y844804D01*
X876300Y844804D02*
X876300Y856996D01*
X876300Y921004D02*
X876300Y933196D01*
X850900Y933196D02*
X850900Y921004D01*
X825500Y921004D02*
X825500Y933196D01*
X800100Y933196D02*
X800100Y921004D01*
X774700Y921004D02*
X774700Y933196D01*
X749300Y933196D02*
X749300Y921004D01*
X723900Y921004D02*
X723900Y933196D01*
X698500Y933196D02*
X698500Y921004D01*
X673100Y921004D02*
X673100Y933196D01*
X647700Y933196D02*
X647700Y921004D01*
X342900Y704596D02*
X342900Y692404D01*
X368300Y692404D02*
X368300Y704596D01*
X495300Y704596D02*
X495300Y692404D01*
X520700Y692404D02*
X520700Y704596D01*
X393700Y704596D02*
X393700Y692404D01*
X419100Y692404D02*
X419100Y704596D01*
X469900Y704596D02*
X469900Y692404D01*
X444500Y692404D02*
X444500Y704596D01*
X546100Y704596D02*
X546100Y692404D01*
X571500Y692404D02*
X571500Y704596D01*
X571500Y768604D02*
X571500Y780796D01*
X546100Y780796D02*
X546100Y768604D01*
X520700Y768604D02*
X520700Y780796D01*
X495300Y780796D02*
X495300Y768604D01*
X469900Y768604D02*
X469900Y780796D01*
X444500Y780796D02*
X444500Y768604D01*
X419100Y768604D02*
X419100Y780796D01*
X393700Y780796D02*
X393700Y768604D01*
X368300Y768604D02*
X368300Y780796D01*
X342900Y780796D02*
X342900Y768604D01*
X342900Y997204D02*
X342900Y1009396D01*
X368300Y1009396D02*
X368300Y997204D01*
X495300Y997204D02*
X495300Y1009396D01*
X520700Y1009396D02*
X520700Y997204D01*
X393700Y997204D02*
X393700Y1009396D01*
X419100Y1009396D02*
X419100Y997204D01*
X469900Y997204D02*
X469900Y1009396D01*
X444500Y1009396D02*
X444500Y997204D01*
X546100Y997204D02*
X546100Y1009396D01*
X571500Y1009396D02*
X571500Y997204D01*
X571500Y1073404D02*
X571500Y1085596D01*
X546100Y1085596D02*
X546100Y1073404D01*
X520700Y1073404D02*
X520700Y1085596D01*
X495300Y1085596D02*
X495300Y1073404D01*
X469900Y1073404D02*
X469900Y1085596D01*
X444500Y1085596D02*
X444500Y1073404D01*
X419100Y1073404D02*
X419100Y1085596D01*
X393700Y1085596D02*
X393700Y1073404D01*
X368300Y1073404D02*
X368300Y1085596D01*
X342900Y1085596D02*
X342900Y1073404D01*
X647700Y704596D02*
X647700Y692404D01*
X673100Y692404D02*
X673100Y704596D01*
X800100Y704596D02*
X800100Y692404D01*
X825500Y692404D02*
X825500Y704596D01*
X698500Y704596D02*
X698500Y692404D01*
X723900Y692404D02*
X723900Y704596D01*
X774700Y704596D02*
X774700Y692404D01*
X749300Y692404D02*
X749300Y704596D01*
X850900Y704596D02*
X850900Y692404D01*
X876300Y692404D02*
X876300Y704596D01*
X876300Y768604D02*
X876300Y780796D01*
X850900Y780796D02*
X850900Y768604D01*
X825500Y768604D02*
X825500Y780796D01*
X800100Y780796D02*
X800100Y768604D01*
X774700Y768604D02*
X774700Y780796D01*
X749300Y780796D02*
X749300Y768604D01*
X723900Y768604D02*
X723900Y780796D01*
X698500Y780796D02*
X698500Y768604D01*
X673100Y768604D02*
X673100Y780796D01*
X647700Y780796D02*
X647700Y768604D01*
X12700Y997204D02*
X12700Y1009396D01*
X38100Y1009396D02*
X38100Y997204D01*
X165100Y997204D02*
X165100Y1009396D01*
X190500Y1009396D02*
X190500Y997204D01*
X63500Y997204D02*
X63500Y1009396D01*
X88900Y1009396D02*
X88900Y997204D01*
X139700Y997204D02*
X139700Y1009396D01*
X114300Y1009396D02*
X114300Y997204D01*
X215900Y997204D02*
X215900Y1009396D01*
X241300Y1009396D02*
X241300Y997204D01*
X241300Y1073404D02*
X241300Y1085596D01*
X215900Y1085596D02*
X215900Y1073404D01*
X190500Y1073404D02*
X190500Y1085596D01*
X165100Y1085596D02*
X165100Y1073404D01*
X139700Y1073404D02*
X139700Y1085596D01*
X114300Y1085596D02*
X114300Y1073404D01*
X88900Y1073404D02*
X88900Y1085596D01*
X63500Y1085596D02*
X63500Y1073404D01*
X38100Y1073404D02*
X38100Y1085596D01*
X12700Y1085596D02*
X12700Y1073404D01*
X1066800Y94996D02*
X1066800Y82804D01*
X1092200Y82804D02*
X1092200Y94996D01*
X1219200Y94996D02*
X1219200Y82804D01*
X1244600Y82804D02*
X1244600Y94996D01*
X1117600Y94996D02*
X1117600Y82804D01*
X1143000Y82804D02*
X1143000Y94996D01*
X1193800Y94996D02*
X1193800Y82804D01*
X1168400Y82804D02*
X1168400Y94996D01*
X1270000Y94996D02*
X1270000Y82804D01*
X1295400Y82804D02*
X1295400Y94996D01*
X1295400Y159004D02*
X1295400Y171196D01*
X1270000Y171196D02*
X1270000Y159004D01*
X1244600Y159004D02*
X1244600Y171196D01*
X1219200Y171196D02*
X1219200Y159004D01*
X1193800Y159004D02*
X1193800Y171196D01*
X1168400Y171196D02*
X1168400Y159004D01*
X1143000Y159004D02*
X1143000Y171196D01*
X1117600Y171196D02*
X1117600Y159004D01*
X1092200Y159004D02*
X1092200Y171196D01*
X1066800Y171196D02*
X1066800Y159004D01*
X647700Y387604D02*
X647700Y399796D01*
X673100Y399796D02*
X673100Y387604D01*
X800100Y387604D02*
X800100Y399796D01*
X825500Y399796D02*
X825500Y387604D01*
X698500Y387604D02*
X698500Y399796D01*
X723900Y399796D02*
X723900Y387604D01*
X774700Y387604D02*
X774700Y399796D01*
X749300Y399796D02*
X749300Y387604D01*
X850900Y387604D02*
X850900Y399796D01*
X876300Y399796D02*
X876300Y387604D01*
X876300Y463804D02*
X876300Y475996D01*
X850900Y475996D02*
X850900Y463804D01*
X825500Y463804D02*
X825500Y475996D01*
X800100Y475996D02*
X800100Y463804D01*
X774700Y463804D02*
X774700Y475996D01*
X749300Y475996D02*
X749300Y463804D01*
X723900Y463804D02*
X723900Y475996D01*
X698500Y475996D02*
X698500Y463804D01*
X673100Y463804D02*
X673100Y475996D01*
X647700Y475996D02*
X647700Y463804D01*
X647700Y247396D02*
X647700Y235204D01*
X673100Y235204D02*
X673100Y247396D01*
X800100Y247396D02*
X800100Y235204D01*
X825500Y235204D02*
X825500Y247396D01*
X698500Y247396D02*
X698500Y235204D01*
X723900Y235204D02*
X723900Y247396D01*
X774700Y247396D02*
X774700Y235204D01*
X749300Y235204D02*
X749300Y247396D01*
X850900Y247396D02*
X850900Y235204D01*
X876300Y235204D02*
X876300Y247396D01*
X876300Y311404D02*
X876300Y323596D01*
X850900Y323596D02*
X850900Y311404D01*
X825500Y311404D02*
X825500Y323596D01*
X800100Y323596D02*
X800100Y311404D01*
X774700Y311404D02*
X774700Y323596D01*
X749300Y323596D02*
X749300Y311404D01*
X723900Y311404D02*
X723900Y323596D01*
X698500Y323596D02*
X698500Y311404D01*
X673100Y311404D02*
X673100Y323596D01*
X647700Y323596D02*
X647700Y311404D01*
X1320800Y247396D02*
X1320800Y235204D01*
X1346200Y235204D02*
X1346200Y247396D01*
X1473200Y247396D02*
X1473200Y235204D01*
X1498600Y235204D02*
X1498600Y247396D01*
X1371600Y247396D02*
X1371600Y235204D01*
X1397000Y235204D02*
X1397000Y247396D01*
X1447800Y247396D02*
X1447800Y235204D01*
X1422400Y235204D02*
X1422400Y247396D01*
X1498600Y311404D02*
X1498600Y323596D01*
X1473200Y323596D02*
X1473200Y311404D01*
X1447800Y311404D02*
X1447800Y323596D01*
X1422400Y323596D02*
X1422400Y311404D01*
X1397000Y311404D02*
X1397000Y323596D01*
X1371600Y323596D02*
X1371600Y311404D01*
X1346200Y311404D02*
X1346200Y323596D01*
X1320800Y323596D02*
X1320800Y311404D01*
X1320800Y692404D02*
X1320800Y704596D01*
X1346200Y704596D02*
X1346200Y692404D01*
X1473200Y692404D02*
X1473200Y704596D01*
X1498600Y704596D02*
X1498600Y692404D01*
X1371600Y692404D02*
X1371600Y704596D01*
X1397000Y704596D02*
X1397000Y692404D01*
X1447800Y692404D02*
X1447800Y704596D01*
X1422400Y704596D02*
X1422400Y692404D01*
X1498600Y768604D02*
X1498600Y780796D01*
X1473200Y780796D02*
X1473200Y768604D01*
X1447800Y768604D02*
X1447800Y780796D01*
X1422400Y780796D02*
X1422400Y768604D01*
X1397000Y768604D02*
X1397000Y780796D01*
X1371600Y780796D02*
X1371600Y768604D01*
X1346200Y768604D02*
X1346200Y780796D01*
X1320800Y780796D02*
X1320800Y768604D01*
X1371600Y94996D02*
X1371600Y82804D01*
X1397000Y82804D02*
X1397000Y94996D01*
X1524000Y94996D02*
X1524000Y82804D01*
X1549400Y82804D02*
X1549400Y94996D01*
X1422400Y94996D02*
X1422400Y82804D01*
X1447800Y82804D02*
X1447800Y94996D01*
X1498600Y94996D02*
X1498600Y82804D01*
X1473200Y82804D02*
X1473200Y94996D01*
X1574800Y94996D02*
X1574800Y82804D01*
X1600200Y82804D02*
X1600200Y94996D01*
X1600200Y159004D02*
X1600200Y171196D01*
X1574800Y171196D02*
X1574800Y159004D01*
X1549400Y159004D02*
X1549400Y171196D01*
X1524000Y171196D02*
X1524000Y159004D01*
X1498600Y159004D02*
X1498600Y171196D01*
X1473200Y171196D02*
X1473200Y159004D01*
X1447800Y159004D02*
X1447800Y171196D01*
X1422400Y171196D02*
X1422400Y159004D01*
X1397000Y159004D02*
X1397000Y171196D01*
X1371600Y171196D02*
X1371600Y159004D01*
X12700Y235204D02*
X12700Y247396D01*
X38100Y247396D02*
X38100Y235204D01*
X165100Y235204D02*
X165100Y247396D01*
X190500Y247396D02*
X190500Y235204D01*
X63500Y235204D02*
X63500Y247396D01*
X88900Y247396D02*
X88900Y235204D01*
X139700Y235204D02*
X139700Y247396D01*
X114300Y247396D02*
X114300Y235204D01*
X215900Y235204D02*
X215900Y247396D01*
X241300Y247396D02*
X241300Y235204D01*
X241300Y311404D02*
X241300Y323596D01*
X215900Y323596D02*
X215900Y311404D01*
X190500Y311404D02*
X190500Y323596D01*
X165100Y323596D02*
X165100Y311404D01*
X139700Y311404D02*
X139700Y323596D01*
X114300Y323596D02*
X114300Y311404D01*
X88900Y311404D02*
X88900Y323596D01*
X63500Y323596D02*
X63500Y311404D01*
X38100Y311404D02*
X38100Y323596D01*
X12700Y323596D02*
X12700Y311404D01*
X342900Y94996D02*
X342900Y82804D01*
X368300Y82804D02*
X368300Y94996D01*
X495300Y94996D02*
X495300Y82804D01*
X520700Y82804D02*
X520700Y94996D01*
X393700Y94996D02*
X393700Y82804D01*
X419100Y82804D02*
X419100Y94996D01*
X469900Y94996D02*
X469900Y82804D01*
X444500Y82804D02*
X444500Y94996D01*
X520700Y159004D02*
X520700Y171196D01*
X495300Y171196D02*
X495300Y159004D01*
X469900Y159004D02*
X469900Y171196D01*
X444500Y171196D02*
X444500Y159004D01*
X419100Y159004D02*
X419100Y171196D01*
X393700Y171196D02*
X393700Y159004D01*
X368300Y159004D02*
X368300Y171196D01*
X342900Y171196D02*
X342900Y159004D01*
X342900Y235204D02*
X342900Y247396D01*
X368300Y247396D02*
X368300Y235204D01*
X495300Y235204D02*
X495300Y247396D01*
X520700Y247396D02*
X520700Y235204D01*
X393700Y235204D02*
X393700Y247396D01*
X419100Y247396D02*
X419100Y235204D01*
X469900Y235204D02*
X469900Y247396D01*
X444500Y247396D02*
X444500Y235204D01*
X520700Y311404D02*
X520700Y323596D01*
X495300Y323596D02*
X495300Y311404D01*
X469900Y311404D02*
X469900Y323596D01*
X444500Y323596D02*
X444500Y311404D01*
X419100Y311404D02*
X419100Y323596D01*
X393700Y323596D02*
X393700Y311404D01*
X368300Y311404D02*
X368300Y323596D01*
X342900Y323596D02*
X342900Y311404D01*
X12700Y94996D02*
X12700Y82804D01*
X38100Y82804D02*
X38100Y94996D01*
X165100Y94996D02*
X165100Y82804D01*
X190500Y82804D02*
X190500Y94996D01*
X63500Y94996D02*
X63500Y82804D01*
X88900Y82804D02*
X88900Y94996D01*
X139700Y94996D02*
X139700Y82804D01*
X114300Y82804D02*
X114300Y94996D01*
X215900Y94996D02*
X215900Y82804D01*
X241300Y82804D02*
X241300Y94996D01*
X241300Y159004D02*
X241300Y171196D01*
X215900Y171196D02*
X215900Y159004D01*
X190500Y159004D02*
X190500Y171196D01*
X165100Y171196D02*
X165100Y159004D01*
X139700Y159004D02*
X139700Y171196D01*
X114300Y171196D02*
X114300Y159004D01*
X88900Y159004D02*
X88900Y171196D01*
X63500Y171196D02*
X63500Y159004D01*
X38100Y159004D02*
X38100Y171196D01*
X12700Y171196D02*
X12700Y159004D01*
X1556004Y520700D02*
X1568196Y520700D01*
X1568196Y495300D02*
X1556004Y495300D01*
X1556004Y368300D02*
X1568196Y368300D01*
X1632204Y368300D02*
X1644396Y368300D01*
X1568196Y469900D02*
X1556004Y469900D01*
X1556004Y444500D02*
X1568196Y444500D01*
X1568196Y393700D02*
X1556004Y393700D01*
X1556004Y419100D02*
X1568196Y419100D01*
X1632204Y393700D02*
X1644396Y393700D01*
X1644396Y419100D02*
X1632204Y419100D01*
X1632204Y444500D02*
X1644396Y444500D01*
X1644396Y469900D02*
X1632204Y469900D01*
X1632204Y495300D02*
X1644396Y495300D01*
X1644396Y520700D02*
X1632204Y520700D01*
X1066800Y247396D02*
X1066800Y235204D01*
X1092200Y235204D02*
X1092200Y247396D01*
X1219200Y247396D02*
X1219200Y235204D01*
X1219200Y311404D02*
X1219200Y323596D01*
X1117600Y247396D02*
X1117600Y235204D01*
X1143000Y235204D02*
X1143000Y247396D01*
X1193800Y247396D02*
X1193800Y235204D01*
X1168400Y235204D02*
X1168400Y247396D01*
X1193800Y311404D02*
X1193800Y323596D01*
X1168400Y323596D02*
X1168400Y311404D01*
X1143000Y311404D02*
X1143000Y323596D01*
X1117600Y323596D02*
X1117600Y311404D01*
X1092200Y311404D02*
X1092200Y323596D01*
X1066800Y323596D02*
X1066800Y311404D01*
X1066800Y387604D02*
X1066800Y399796D01*
X1092200Y399796D02*
X1092200Y387604D01*
X1219200Y387604D02*
X1219200Y399796D01*
X1219200Y463804D02*
X1219200Y475996D01*
X1117600Y399796D02*
X1117600Y387604D01*
X1143000Y387604D02*
X1143000Y399796D01*
X1193800Y399796D02*
X1193800Y387604D01*
X1168400Y387604D02*
X1168400Y399796D01*
X1193800Y463804D02*
X1193800Y475996D01*
X1168400Y475996D02*
X1168400Y463804D01*
X1143000Y463804D02*
X1143000Y475996D01*
X1117600Y475996D02*
X1117600Y463804D01*
X1092200Y463804D02*
X1092200Y475996D01*
X1066800Y475996D02*
X1066800Y463804D01*
D12*
X1714500Y1092200D03*
X1714500Y939800D03*
X1790700Y939800D03*
X1790700Y1092200D03*
D11*
X647700Y94996D02*
X647700Y82804D01*
X673100Y82804D02*
X673100Y94996D01*
X800100Y94996D02*
X800100Y82804D01*
X825500Y82804D02*
X825500Y94996D01*
X698500Y94996D02*
X698500Y82804D01*
X723900Y82804D02*
X723900Y94996D01*
X774700Y94996D02*
X774700Y82804D01*
X749300Y82804D02*
X749300Y94996D01*
X850900Y94996D02*
X850900Y82804D01*
X876300Y82804D02*
X876300Y94996D01*
X876300Y159004D02*
X876300Y171196D01*
X850900Y171196D02*
X850900Y159004D01*
X825500Y159004D02*
X825500Y171196D01*
X800100Y171196D02*
X800100Y159004D01*
X774700Y159004D02*
X774700Y171196D01*
X749300Y171196D02*
X749300Y159004D01*
X723900Y159004D02*
X723900Y171196D01*
X698500Y171196D02*
X698500Y159004D01*
X673100Y159004D02*
X673100Y171196D01*
X647700Y171196D02*
X647700Y159004D01*
X1066800Y844804D02*
X1066800Y856996D01*
X1092200Y856996D02*
X1092200Y844804D01*
X1219200Y844804D02*
X1219200Y856996D01*
X1219200Y921004D02*
X1219200Y933196D01*
X1117600Y856996D02*
X1117600Y844804D01*
X1143000Y844804D02*
X1143000Y856996D01*
X1193800Y856996D02*
X1193800Y844804D01*
X1168400Y844804D02*
X1168400Y856996D01*
X1193800Y921004D02*
X1193800Y933196D01*
X1168400Y933196D02*
X1168400Y921004D01*
X1143000Y921004D02*
X1143000Y933196D01*
X1117600Y933196D02*
X1117600Y921004D01*
X1092200Y921004D02*
X1092200Y933196D01*
X1066800Y933196D02*
X1066800Y921004D01*
X1556004Y1028700D02*
X1568196Y1028700D01*
X1568196Y1003300D02*
X1556004Y1003300D01*
X1556004Y876300D02*
X1568196Y876300D01*
X1632204Y876300D02*
X1644396Y876300D01*
X1568196Y977900D02*
X1556004Y977900D01*
X1556004Y952500D02*
X1568196Y952500D01*
X1568196Y901700D02*
X1556004Y901700D01*
X1556004Y927100D02*
X1568196Y927100D01*
X1632204Y901700D02*
X1644396Y901700D01*
X1644396Y927100D02*
X1632204Y927100D01*
X1632204Y952500D02*
X1644396Y952500D01*
X1644396Y977900D02*
X1632204Y977900D01*
X1632204Y1003300D02*
X1644396Y1003300D01*
X1644396Y1028700D02*
X1632204Y1028700D01*
D13*
X1701800Y647700D03*
X1803400Y647700D03*
D14*
X1803400Y596900D03*
X1701800Y596900D03*
D11*
X1066800Y552196D02*
X1066800Y540004D01*
X1092200Y540004D02*
X1092200Y552196D01*
X1219200Y552196D02*
X1219200Y540004D01*
X1219200Y616204D02*
X1219200Y628396D01*
X1117600Y552196D02*
X1117600Y540004D01*
X1143000Y540004D02*
X1143000Y552196D01*
X1193800Y552196D02*
X1193800Y540004D01*
X1168400Y540004D02*
X1168400Y552196D01*
X1193800Y616204D02*
X1193800Y628396D01*
X1168400Y628396D02*
X1168400Y616204D01*
X1143000Y616204D02*
X1143000Y628396D01*
X1117600Y628396D02*
X1117600Y616204D01*
X1092200Y616204D02*
X1092200Y628396D01*
X1066800Y628396D02*
X1066800Y616204D01*
X1320800Y412496D02*
X1320800Y400304D01*
X1346200Y400304D02*
X1346200Y412496D01*
X1473200Y412496D02*
X1473200Y400304D01*
X1473200Y476504D02*
X1473200Y488696D01*
X1371600Y412496D02*
X1371600Y400304D01*
X1397000Y400304D02*
X1397000Y412496D01*
X1447800Y412496D02*
X1447800Y400304D01*
X1422400Y400304D02*
X1422400Y412496D01*
X1447800Y476504D02*
X1447800Y488696D01*
X1422400Y488696D02*
X1422400Y476504D01*
X1397000Y476504D02*
X1397000Y488696D01*
X1371600Y488696D02*
X1371600Y476504D01*
X1346200Y476504D02*
X1346200Y488696D01*
X1320800Y488696D02*
X1320800Y476504D01*
D13*
X1701800Y850900D03*
X1803400Y850900D03*
X1701800Y800100D03*
X1803400Y800100D03*
D11*
X1860804Y1092200D02*
X1872996Y1092200D01*
X1872996Y1066800D02*
X1860804Y1066800D01*
X1860804Y1041400D02*
X1872996Y1041400D01*
D15*
X1917700Y1092200D03*
X1917700Y1041400D03*
D13*
X1701800Y749300D03*
X1803400Y749300D03*
D14*
X1803400Y698500D03*
X1701800Y698500D03*
D11*
X1860804Y939800D02*
X1872996Y939800D01*
X1872996Y914400D02*
X1860804Y914400D01*
X1860804Y889000D02*
X1872996Y889000D01*
D15*
X1917700Y939800D03*
X1917700Y889000D03*
D11*
X1568196Y774700D02*
X1556004Y774700D01*
X1556004Y749300D02*
X1568196Y749300D01*
X1568196Y622300D02*
X1556004Y622300D01*
X1632204Y622300D02*
X1644396Y622300D01*
X1568196Y723900D02*
X1556004Y723900D01*
X1556004Y698500D02*
X1568196Y698500D01*
X1568196Y647700D02*
X1556004Y647700D01*
X1556004Y673100D02*
X1568196Y673100D01*
X1632204Y647700D02*
X1644396Y647700D01*
X1644396Y673100D02*
X1632204Y673100D01*
X1632204Y698500D02*
X1644396Y698500D01*
X1644396Y723900D02*
X1632204Y723900D01*
X1632204Y749300D02*
X1644396Y749300D01*
X1644396Y774700D02*
X1632204Y774700D01*
X1320800Y997204D02*
X1320800Y1009396D01*
X1346200Y1009396D02*
X1346200Y997204D01*
X1473200Y997204D02*
X1473200Y1009396D01*
X1473200Y1073404D02*
X1473200Y1085596D01*
X1371600Y1009396D02*
X1371600Y997204D01*
X1397000Y997204D02*
X1397000Y1009396D01*
X1447800Y1009396D02*
X1447800Y997204D01*
X1422400Y997204D02*
X1422400Y1009396D01*
X1447800Y1073404D02*
X1447800Y1085596D01*
X1422400Y1085596D02*
X1422400Y1073404D01*
X1397000Y1073404D02*
X1397000Y1085596D01*
X1371600Y1085596D02*
X1371600Y1073404D01*
X1346200Y1073404D02*
X1346200Y1085596D01*
X1320800Y1085596D02*
X1320800Y1073404D01*
X647700Y1009396D02*
X647700Y997204D01*
X673100Y997204D02*
X673100Y1009396D01*
X800100Y1009396D02*
X800100Y997204D01*
X825500Y997204D02*
X825500Y1009396D01*
X698500Y1009396D02*
X698500Y997204D01*
X723900Y997204D02*
X723900Y1009396D01*
X774700Y1009396D02*
X774700Y997204D01*
X749300Y997204D02*
X749300Y1009396D01*
X850900Y1009396D02*
X850900Y997204D01*
X876300Y997204D02*
X876300Y1009396D01*
X876300Y1073404D02*
X876300Y1085596D01*
X850900Y1085596D02*
X850900Y1073404D01*
X825500Y1073404D02*
X825500Y1085596D01*
X800100Y1085596D02*
X800100Y1073404D01*
X774700Y1073404D02*
X774700Y1085596D01*
X749300Y1085596D02*
X749300Y1073404D01*
X723900Y1073404D02*
X723900Y1085596D01*
X698500Y1085596D02*
X698500Y1073404D01*
X673100Y1073404D02*
X673100Y1085596D01*
X647700Y1085596D02*
X647700Y1073404D01*
X342900Y856996D02*
X342900Y844804D01*
X368300Y844804D02*
X368300Y856996D01*
X495300Y856996D02*
X495300Y844804D01*
X520700Y844804D02*
X520700Y856996D01*
X393700Y856996D02*
X393700Y844804D01*
X419100Y844804D02*
X419100Y856996D01*
X469900Y856996D02*
X469900Y844804D01*
X444500Y844804D02*
X444500Y856996D01*
X546100Y856996D02*
X546100Y844804D01*
X571500Y844804D02*
X571500Y856996D01*
X571500Y921004D02*
X571500Y933196D01*
X546100Y933196D02*
X546100Y921004D01*
X520700Y921004D02*
X520700Y933196D01*
X495300Y933196D02*
X495300Y921004D01*
X469900Y921004D02*
X469900Y933196D01*
X444500Y933196D02*
X444500Y921004D01*
X419100Y921004D02*
X419100Y933196D01*
X393700Y933196D02*
X393700Y921004D01*
X368300Y921004D02*
X368300Y933196D01*
X342900Y933196D02*
X342900Y921004D01*
X1066800Y997204D02*
X1066800Y1009396D01*
X1092200Y1009396D02*
X1092200Y997204D01*
X1219200Y997204D02*
X1219200Y1009396D01*
X1219200Y1073404D02*
X1219200Y1085596D01*
X1117600Y1009396D02*
X1117600Y997204D01*
X1143000Y997204D02*
X1143000Y1009396D01*
X1193800Y1009396D02*
X1193800Y997204D01*
X1168400Y997204D02*
X1168400Y1009396D01*
X1193800Y1073404D02*
X1193800Y1085596D01*
X1168400Y1085596D02*
X1168400Y1073404D01*
X1143000Y1073404D02*
X1143000Y1085596D01*
X1117600Y1085596D02*
X1117600Y1073404D01*
X1092200Y1073404D02*
X1092200Y1085596D01*
X1066800Y1085596D02*
X1066800Y1073404D01*
X1320800Y552196D02*
X1320800Y540004D01*
X1346200Y540004D02*
X1346200Y552196D01*
X1473200Y552196D02*
X1473200Y540004D01*
X1473200Y616204D02*
X1473200Y628396D01*
X1371600Y552196D02*
X1371600Y540004D01*
X1397000Y540004D02*
X1397000Y552196D01*
X1447800Y552196D02*
X1447800Y540004D01*
X1422400Y540004D02*
X1422400Y552196D01*
X1447800Y616204D02*
X1447800Y628396D01*
X1422400Y628396D02*
X1422400Y616204D01*
X1397000Y616204D02*
X1397000Y628396D01*
X1371600Y628396D02*
X1371600Y616204D01*
X1346200Y616204D02*
X1346200Y628396D01*
X1320800Y628396D02*
X1320800Y616204D01*
X12700Y844804D02*
X12700Y856996D01*
X38100Y856996D02*
X38100Y844804D01*
X165100Y844804D02*
X165100Y856996D01*
X190500Y856996D02*
X190500Y844804D01*
X63500Y844804D02*
X63500Y856996D01*
X88900Y856996D02*
X88900Y844804D01*
X139700Y844804D02*
X139700Y856996D01*
X114300Y856996D02*
X114300Y844804D01*
X215900Y844804D02*
X215900Y856996D01*
X241300Y856996D02*
X241300Y844804D01*
X241300Y921004D02*
X241300Y933196D01*
X215900Y933196D02*
X215900Y921004D01*
X190500Y921004D02*
X190500Y933196D01*
X165100Y933196D02*
X165100Y921004D01*
X139700Y921004D02*
X139700Y933196D01*
X114300Y933196D02*
X114300Y921004D01*
X88900Y921004D02*
X88900Y933196D01*
X63500Y933196D02*
X63500Y921004D01*
X38100Y921004D02*
X38100Y933196D01*
X12700Y933196D02*
X12700Y921004D01*
X12700Y704596D02*
X12700Y692404D01*
X38100Y692404D02*
X38100Y704596D01*
X165100Y704596D02*
X165100Y692404D01*
X190500Y692404D02*
X190500Y704596D01*
X63500Y704596D02*
X63500Y692404D01*
X88900Y692404D02*
X88900Y704596D01*
X139700Y704596D02*
X139700Y692404D01*
X114300Y692404D02*
X114300Y704596D01*
X215900Y704596D02*
X215900Y692404D01*
X241300Y692404D02*
X241300Y704596D01*
X241300Y768604D02*
X241300Y780796D01*
X215900Y780796D02*
X215900Y768604D01*
X190500Y768604D02*
X190500Y780796D01*
X165100Y780796D02*
X165100Y768604D01*
X139700Y768604D02*
X139700Y780796D01*
X114300Y780796D02*
X114300Y768604D01*
X88900Y768604D02*
X88900Y780796D01*
X63500Y780796D02*
X63500Y768604D01*
X38100Y768604D02*
X38100Y780796D01*
X12700Y780796D02*
X12700Y768604D01*
X12700Y552196D02*
X12700Y540004D01*
X38100Y540004D02*
X38100Y552196D01*
X165100Y552196D02*
X165100Y540004D01*
X190500Y540004D02*
X190500Y552196D01*
X63500Y552196D02*
X63500Y540004D01*
X88900Y540004D02*
X88900Y552196D01*
X139700Y552196D02*
X139700Y540004D01*
X114300Y540004D02*
X114300Y552196D01*
X215900Y552196D02*
X215900Y540004D01*
X241300Y540004D02*
X241300Y552196D01*
X241300Y616204D02*
X241300Y628396D01*
X215900Y628396D02*
X215900Y616204D01*
X190500Y616204D02*
X190500Y628396D01*
X165100Y628396D02*
X165100Y616204D01*
X139700Y616204D02*
X139700Y628396D01*
X114300Y628396D02*
X114300Y616204D01*
X88900Y616204D02*
X88900Y628396D01*
X63500Y628396D02*
X63500Y616204D01*
X38100Y616204D02*
X38100Y628396D01*
X12700Y628396D02*
X12700Y616204D01*
D16*
X1041400Y139700D03*
D17*
X1041400Y114300D03*
D16*
X1041400Y292100D03*
D17*
X1041400Y266700D03*
D16*
X1041400Y444500D03*
D17*
X1041400Y419100D03*
D16*
X317500Y139700D03*
D17*
X317500Y114300D03*
D16*
X1295400Y749300D03*
D17*
X1295400Y723900D03*
D16*
X1295400Y457200D03*
D17*
X1295400Y431800D03*
D16*
X1041400Y749300D03*
D17*
X1041400Y723900D03*
D16*
X1041400Y901700D03*
D17*
X1041400Y876300D03*
D16*
X622300Y571500D03*
D17*
X622300Y596900D03*
D16*
X317500Y444500D03*
D17*
X317500Y419100D03*
D16*
X622300Y1054100D03*
D17*
X622300Y1028700D03*
D16*
X317500Y292100D03*
D17*
X317500Y266700D03*
D16*
X622300Y723900D03*
D17*
X622300Y749300D03*
D16*
X622300Y114300D03*
D17*
X622300Y139700D03*
D16*
X317500Y596900D03*
D17*
X317500Y571500D03*
D16*
X317500Y749300D03*
D17*
X317500Y723900D03*
D16*
X622300Y901700D03*
D17*
X622300Y876300D03*
D16*
X317500Y901700D03*
D17*
X317500Y876300D03*
D16*
X-12700Y1054100D03*
D17*
X-12700Y1028700D03*
D16*
X317500Y1054100D03*
D17*
X317500Y1028700D03*
D16*
X-12700Y901700D03*
D17*
X-12700Y876300D03*
D16*
X-12700Y749300D03*
D17*
X-12700Y723900D03*
D16*
X-12700Y596900D03*
D17*
X-12700Y571500D03*
D16*
X-12700Y444500D03*
D17*
X-12700Y419100D03*
D11*
X12700Y399796D02*
X12700Y387604D01*
X38100Y387604D02*
X38100Y399796D01*
X165100Y399796D02*
X165100Y387604D01*
X190500Y387604D02*
X190500Y399796D01*
X63500Y399796D02*
X63500Y387604D01*
X88900Y387604D02*
X88900Y399796D01*
X139700Y399796D02*
X139700Y387604D01*
X114300Y387604D02*
X114300Y399796D01*
X215900Y399796D02*
X215900Y387604D01*
X241300Y387604D02*
X241300Y399796D01*
X241300Y463804D02*
X241300Y475996D01*
X215900Y475996D02*
X215900Y463804D01*
X190500Y463804D02*
X190500Y475996D01*
X165100Y475996D02*
X165100Y463804D01*
X139700Y463804D02*
X139700Y475996D01*
X114300Y475996D02*
X114300Y463804D01*
X88900Y463804D02*
X88900Y475996D01*
X63500Y475996D02*
X63500Y463804D01*
X38100Y463804D02*
X38100Y475996D01*
X12700Y475996D02*
X12700Y463804D01*
X342900Y399796D02*
X342900Y387604D01*
X368300Y387604D02*
X368300Y399796D01*
X495300Y399796D02*
X495300Y387604D01*
X520700Y387604D02*
X520700Y399796D01*
X393700Y399796D02*
X393700Y387604D01*
X419100Y387604D02*
X419100Y399796D01*
X469900Y399796D02*
X469900Y387604D01*
X444500Y387604D02*
X444500Y399796D01*
X546100Y399796D02*
X546100Y387604D01*
X571500Y387604D02*
X571500Y399796D01*
X571500Y463804D02*
X571500Y475996D01*
X546100Y475996D02*
X546100Y463804D01*
X520700Y463804D02*
X520700Y475996D01*
X495300Y475996D02*
X495300Y463804D01*
X469900Y463804D02*
X469900Y475996D01*
X444500Y475996D02*
X444500Y463804D01*
X419100Y463804D02*
X419100Y475996D01*
X393700Y475996D02*
X393700Y463804D01*
X368300Y463804D02*
X368300Y475996D01*
X342900Y475996D02*
X342900Y463804D01*
D16*
X1295400Y596900D03*
D17*
X1295400Y571500D03*
D16*
X1041400Y596900D03*
D17*
X1041400Y571500D03*
D16*
X-12700Y292100D03*
D17*
X-12700Y266700D03*
D16*
X-12700Y139700D03*
D17*
X-12700Y114300D03*
D16*
X622300Y444500D03*
D17*
X622300Y419100D03*
D16*
X1295400Y292100D03*
D17*
X1295400Y266700D03*
D16*
X1587500Y1054100D03*
D17*
X1612900Y1054100D03*
D16*
X1295400Y1054100D03*
D17*
X1295400Y1028700D03*
D16*
X1295400Y901700D03*
D17*
X1295400Y876300D03*
D16*
X1041400Y1054100D03*
D17*
X1041400Y1028700D03*
D11*
X1860804Y787400D02*
X1872996Y787400D01*
X1872996Y762000D02*
X1860804Y762000D01*
X1860804Y736600D02*
X1872996Y736600D01*
D15*
X1917700Y787400D03*
X1917700Y736600D03*
D11*
X1066800Y704596D02*
X1066800Y692404D01*
X1092200Y692404D02*
X1092200Y704596D01*
X1219200Y704596D02*
X1219200Y692404D01*
X1219200Y768604D02*
X1219200Y780796D01*
X1117600Y704596D02*
X1117600Y692404D01*
X1143000Y692404D02*
X1143000Y704596D01*
X1193800Y704596D02*
X1193800Y692404D01*
X1168400Y692404D02*
X1168400Y704596D01*
X1193800Y768604D02*
X1193800Y780796D01*
X1168400Y780796D02*
X1168400Y768604D01*
X1143000Y768604D02*
X1143000Y780796D01*
X1117600Y780796D02*
X1117600Y768604D01*
X1092200Y768604D02*
X1092200Y780796D01*
X1066800Y780796D02*
X1066800Y768604D01*
D18*
X1795780Y165100D02*
X1811020Y165100D01*
X1811020Y190500D02*
X1795780Y190500D01*
X1795780Y215900D02*
X1811020Y215900D01*
X1811020Y241300D02*
X1795780Y241300D01*
X1795780Y266700D02*
X1811020Y266700D01*
D16*
X1346200Y139700D03*
D17*
X1346200Y114300D03*
D13*
X1701800Y546100D03*
X1803400Y546100D03*
D11*
X1320800Y844804D02*
X1320800Y856996D01*
X1346200Y856996D02*
X1346200Y844804D01*
X1473200Y844804D02*
X1473200Y856996D01*
X1473200Y921004D02*
X1473200Y933196D01*
X1371600Y856996D02*
X1371600Y844804D01*
X1397000Y844804D02*
X1397000Y856996D01*
X1447800Y856996D02*
X1447800Y844804D01*
X1422400Y844804D02*
X1422400Y856996D01*
X1447800Y921004D02*
X1447800Y933196D01*
X1422400Y933196D02*
X1422400Y921004D01*
X1397000Y921004D02*
X1397000Y933196D01*
X1371600Y933196D02*
X1371600Y921004D01*
X1346200Y921004D02*
X1346200Y933196D01*
X1320800Y933196D02*
X1320800Y921004D01*
D19*
X1930800Y269800D03*
D20*
X1955800Y329800D03*
X1955800Y279800D03*
D19*
X1930800Y339800D03*
D14*
X1803400Y444500D03*
X1701800Y444500D03*
D19*
X1930800Y130100D03*
D20*
X1955800Y190100D03*
X1955800Y140100D03*
D19*
X1930800Y200100D03*
D14*
X1803400Y495300D03*
X1701800Y495300D03*
D21*
X1955800Y647700D03*
X1930400Y647700D03*
D22*
X1701800Y393700D03*
X1803400Y393700D03*
D16*
X622300Y266700D03*
D17*
X622300Y292100D03*
D23*
X952500Y1104900D03*
X952500Y1079500D03*
X952500Y1054100D03*
X952500Y1028700D03*
X952500Y1003300D03*
X952500Y977900D03*
X977900Y1104900D03*
X977900Y1079500D03*
X977900Y1054100D03*
X977900Y1028700D03*
X977900Y1003300D03*
X977900Y977900D03*
X952500Y952500D03*
X977900Y952500D03*
X952500Y927100D03*
X952500Y901700D03*
X952500Y876300D03*
X952500Y850900D03*
X952500Y825500D03*
X952500Y800100D03*
X977900Y927100D03*
X977900Y901700D03*
X977900Y876300D03*
X977900Y850900D03*
X977900Y825500D03*
X977900Y800100D03*
X952500Y774700D03*
X977900Y774700D03*
X952500Y749300D03*
X952500Y723900D03*
X952500Y698500D03*
X952500Y673100D03*
X952500Y647700D03*
X952500Y622300D03*
X977900Y749300D03*
X977900Y723900D03*
X977900Y698500D03*
X977900Y673100D03*
X977900Y647700D03*
X977900Y622300D03*
X952500Y520700D03*
X952500Y495300D03*
X952500Y469900D03*
X952500Y444500D03*
X952500Y419100D03*
X952500Y393700D03*
X977900Y520700D03*
X977900Y495300D03*
X977900Y469900D03*
X977900Y444500D03*
X977900Y419100D03*
X977900Y393700D03*
X952500Y368300D03*
X977900Y368300D03*
X952500Y342900D03*
X952500Y317500D03*
X952500Y292100D03*
X952500Y266700D03*
X952500Y241300D03*
X952500Y215900D03*
X977900Y342900D03*
X977900Y317500D03*
X977900Y292100D03*
X977900Y266700D03*
X977900Y241300D03*
X977900Y215900D03*
X952500Y190500D03*
X977900Y190500D03*
X952500Y165100D03*
X952500Y139700D03*
X952500Y114300D03*
X952500Y88900D03*
X952500Y63500D03*
X952500Y38100D03*
X977900Y165100D03*
X977900Y139700D03*
X977900Y114300D03*
X977900Y88900D03*
X977900Y63500D03*
X977900Y38100D03*
X952500Y584200D03*
X977900Y584200D03*
X952500Y558800D03*
X977900Y558800D03*
D11*
X647700Y552196D02*
X647700Y540004D01*
X673100Y540004D02*
X673100Y552196D01*
X800100Y552196D02*
X800100Y540004D01*
X825500Y540004D02*
X825500Y552196D01*
X698500Y552196D02*
X698500Y540004D01*
X723900Y540004D02*
X723900Y552196D01*
X774700Y552196D02*
X774700Y540004D01*
X749300Y540004D02*
X749300Y552196D01*
X850900Y552196D02*
X850900Y540004D01*
X876300Y540004D02*
X876300Y552196D01*
X876300Y616204D02*
X876300Y628396D01*
X850900Y628396D02*
X850900Y616204D01*
X825500Y616204D02*
X825500Y628396D01*
X800100Y628396D02*
X800100Y616204D01*
X774700Y616204D02*
X774700Y628396D01*
X749300Y628396D02*
X749300Y616204D01*
X723900Y616204D02*
X723900Y628396D01*
X698500Y628396D02*
X698500Y616204D01*
X673100Y616204D02*
X673100Y628396D01*
X647700Y628396D02*
X647700Y616204D01*
D18*
X1935480Y520700D02*
X1950720Y520700D01*
X1950720Y546100D02*
X1935480Y546100D01*
X1935480Y571500D02*
X1950720Y571500D01*
X1747520Y203200D02*
X1732280Y203200D01*
X1732280Y228600D02*
X1747520Y228600D01*
D11*
X342900Y540004D02*
X342900Y552196D01*
X368300Y552196D02*
X368300Y540004D01*
X495300Y540004D02*
X495300Y552196D01*
X520700Y552196D02*
X520700Y540004D01*
X393700Y540004D02*
X393700Y552196D01*
X419100Y552196D02*
X419100Y540004D01*
X469900Y540004D02*
X469900Y552196D01*
X444500Y552196D02*
X444500Y540004D01*
X546100Y540004D02*
X546100Y552196D01*
X571500Y552196D02*
X571500Y540004D01*
X571500Y616204D02*
X571500Y628396D01*
X546100Y628396D02*
X546100Y616204D01*
X520700Y616204D02*
X520700Y628396D01*
X495300Y628396D02*
X495300Y616204D01*
X469900Y616204D02*
X469900Y628396D01*
X444500Y628396D02*
X444500Y616204D01*
X419100Y616204D02*
X419100Y628396D01*
X393700Y628396D02*
X393700Y616204D01*
X368300Y616204D02*
X368300Y628396D01*
X342900Y628396D02*
X342900Y616204D01*
D18*
X1308100Y33020D02*
X1308100Y17780D01*
X1333500Y17780D02*
X1333500Y33020D01*
D24*
X-152400Y177800D03*
X-152400Y203200D03*
X-152400Y228600D03*
X-152400Y254000D03*
X-152400Y279400D03*
X-152400Y304800D03*
X-152400Y330200D03*
X-152400Y355600D03*
X-152400Y381000D03*
X-152400Y406400D03*
X-152400Y431800D03*
X-152400Y457200D03*
X-152400Y482600D03*
X-152400Y508000D03*
X-152400Y533400D03*
X-152400Y558800D03*
X-127000Y177800D03*
X-127000Y203200D03*
X-127000Y228600D03*
X-127000Y254000D03*
X-127000Y279400D03*
X-127000Y304800D03*
X-127000Y330200D03*
X-127000Y355600D03*
X-127000Y381000D03*
X-127000Y406400D03*
X-127000Y431800D03*
X-127000Y457200D03*
X-127000Y482600D03*
X-127000Y508000D03*
X-127000Y533400D03*
X-127000Y558800D03*
X-101600Y177800D03*
X-101600Y203200D03*
X-101600Y228600D03*
X-101600Y254000D03*
X-101600Y279400D03*
X-101600Y304800D03*
X-101600Y330200D03*
X-101600Y355600D03*
X-101600Y381000D03*
X-101600Y406400D03*
X-101600Y431800D03*
X-101600Y457200D03*
X-101600Y482600D03*
X-101600Y508000D03*
X-101600Y533400D03*
X-101600Y558800D03*
X-152400Y584200D03*
X-152400Y609600D03*
X-152400Y635000D03*
X-152400Y660400D03*
X-152400Y685800D03*
X-152400Y711200D03*
X-152400Y736600D03*
X-152400Y762000D03*
X-152400Y787400D03*
X-152400Y812800D03*
X-152400Y838200D03*
X-152400Y863600D03*
X-152400Y889000D03*
X-152400Y914400D03*
X-152400Y939800D03*
X-152400Y965200D03*
X-127000Y584200D03*
X-127000Y609600D03*
X-127000Y635000D03*
X-127000Y660400D03*
X-127000Y685800D03*
X-127000Y711200D03*
X-127000Y736600D03*
X-127000Y762000D03*
X-127000Y787400D03*
X-127000Y812800D03*
X-127000Y838200D03*
X-127000Y863600D03*
X-127000Y889000D03*
X-127000Y914400D03*
X-127000Y939800D03*
X-127000Y965200D03*
X-101600Y584200D03*
X-101600Y609600D03*
X-101600Y635000D03*
X-101600Y660400D03*
X-101600Y685800D03*
X-101600Y711200D03*
X-101600Y736600D03*
X-101600Y762000D03*
X-101600Y787400D03*
X-101600Y812800D03*
X-101600Y838200D03*
X-101600Y863600D03*
X-101600Y889000D03*
X-101600Y914400D03*
X-101600Y939800D03*
X-101600Y965200D03*
D25*
X-177800Y1016064D03*
X-177800Y126936D03*
D21*
X1955800Y63500D03*
X1930400Y63500D03*
D16*
X1587500Y800100D03*
D17*
X1612900Y800100D03*
D16*
X1587500Y546100D03*
D17*
X1612900Y546100D03*
D18*
X1935480Y393700D02*
X1950720Y393700D01*
X1950720Y419100D02*
X1935480Y419100D01*
X1935480Y444500D02*
X1950720Y444500D01*
X1950720Y469900D02*
X1935480Y469900D01*
D14*
X1803400Y342900D03*
X1701800Y342900D03*
D26*
X1352550Y187325D03*
X1266825Y339725D03*
X996950Y349250D03*
X1536700Y231775D03*
X1304925Y219075D03*
X704850Y200025D03*
X885825Y123825D03*
X1524000Y352425D03*
X1584325Y225425D03*
X1463675Y180975D03*
X749300Y187325D03*
X942975Y184150D03*
X882650Y133350D03*
X939800Y133350D03*
X911225Y384175D03*
X266700Y1127125D03*
X1095375Y987425D03*
X1022350Y704850D03*
X460375Y882650D03*
X771525Y828675D03*
X784225Y657225D03*
X441325Y1063625D03*
X796925Y1101725D03*
X911225Y679450D03*
X66675Y825500D03*
X384175Y822325D03*
X-82550Y781050D03*
X631825Y987425D03*
X593725Y822325D03*
X-76200Y361950D03*
X361950Y206375D03*
X79375Y669925D03*
X714375Y974725D03*
X419100Y974725D03*
X447675Y371475D03*
X174625Y371475D03*
X174625Y828675D03*
X-82550Y698500D03*
X-76200Y831850D03*
X673100Y828675D03*
X285750Y371475D03*
X304800Y828675D03*
X561975Y981075D03*
X180975Y746125D03*
X498475Y371475D03*
X219075Y346075D03*
X517525Y815975D03*
X193675Y815975D03*
X254000Y485775D03*
X231775Y482600D03*
X517525Y962025D03*
X307975Y962025D03*
X-69850Y777875D03*
X-57150Y946150D03*
X809625Y968375D03*
X149225Y333375D03*
X441325Y498475D03*
X174625Y498475D03*
X187325Y949325D03*
X492125Y949325D03*
X-82550Y920750D03*
X676275Y949325D03*
X260350Y498475D03*
X266700Y949325D03*
X415925Y504825D03*
X133350Y492125D03*
X92075Y955675D03*
X415925Y955675D03*
X-69850Y800100D03*
X-63500Y933450D03*
X682625Y962025D03*
X279400Y504825D03*
X279400Y955675D03*
X98425Y454025D03*
X53975Y825500D03*
X657225Y942975D03*
X25400Y463550D03*
X111125Y346075D03*
X149225Y895350D03*
X441325Y796925D03*
X149225Y790575D03*
X517525Y723900D03*
X-180975Y885825D03*
X-180975Y828675D03*
X292100Y568325D03*
X298450Y476250D03*
X212725Y425450D03*
X-63500Y400050D03*
X292100Y920750D03*
X292100Y622300D03*
X209550Y593725D03*
X139700Y498475D03*
X-63500Y504825D03*
X409575Y727075D03*
X355600Y708025D03*
X358775Y523875D03*
X104775Y288925D03*
X434975Y523875D03*
X346075Y517525D03*
X269875Y288925D03*
X-19050Y333375D03*
X358775Y882650D03*
X-6350Y863600D03*
X-44450Y333375D03*
X1101725Y676275D03*
X327025Y1063625D03*
X996950Y1066800D03*
X1006475Y676275D03*
X161925Y1025525D03*
X101600Y1025525D03*
X-31750Y717550D03*
X384175Y1108075D03*
X384175Y1031875D03*
X936625Y1003300D03*
X752475Y974725D03*
X682625Y904875D03*
X161925Y895350D03*
X590550Y568325D03*
X777875Y523875D03*
X752475Y139700D03*
X1511300Y879475D03*
X1489075Y968375D03*
X1555750Y606425D03*
X1524000Y673100D03*
X1517650Y666750D03*
X377825Y200025D03*
X98425Y200025D03*
X152400Y225425D03*
X396875Y365125D03*
X174625Y365125D03*
X419100Y212725D03*
X98425Y142875D03*
X1120775Y647700D03*
X847725Y450850D03*
X860425Y200025D03*
X1409700Y212725D03*
X1476375Y466725D03*
X1241425Y511175D03*
X50800Y180975D03*
X361950Y180975D03*
X520700Y365125D03*
X1216025Y365125D03*
X1069975Y415925D03*
X-12700Y387350D03*
X-63500Y419100D03*
X-63500Y488950D03*
X92075Y498475D03*
X-12700Y457200D03*
X15875Y593725D03*
X993775Y711200D03*
X914400Y511175D03*
X225425Y511175D03*
X219075Y447675D03*
X1041400Y635000D03*
X657225Y644525D03*
X644525Y682625D03*
X168275Y663575D03*
X155575Y517525D03*
X1371600Y660400D03*
X117475Y657225D03*
X-19050Y838200D03*
X-6350Y762000D03*
X206375Y733425D03*
X346075Y60325D03*
X1212850Y66675D03*
X835025Y984250D03*
X828675Y977900D03*
X723900Y901700D03*
X571500Y733425D03*
X682625Y889000D03*
X479425Y787400D03*
X603250Y800100D03*
X939800Y809625D03*
X939800Y796925D03*
X939800Y815975D03*
X708025Y295275D03*
X311150Y1082675D03*
X561975Y517525D03*
X939800Y508000D03*
X1082675Y441325D03*
X996950Y463550D03*
X1022350Y438150D03*
X977900Y457200D03*
X1292225Y187325D03*
X1069975Y187325D03*
X1028700Y292100D03*
X1577975Y212725D03*
X892175Y19050D03*
X-25400Y920750D03*
X0Y635000D03*
X238125Y587375D03*
X257175Y247650D03*
X1590675Y142875D03*
X358775Y25400D03*
X304800Y79375D03*
X638175Y212725D03*
X530225Y101600D03*
X384175Y304800D03*
X536575Y187325D03*
X819150Y193675D03*
X688975Y66675D03*
X1609725Y152400D03*
X298450Y698500D03*
X-38100Y882650D03*
X352425Y644525D03*
X609600Y644525D03*
X1108075Y120650D03*
X1666875Y473075D03*
X1209675Y974725D03*
X1628775Y812800D03*
X1387475Y825500D03*
X908050Y533400D03*
X898525Y444500D03*
X676275Y447675D03*
X663575Y342900D03*
X1720850Y514350D03*
X1673225Y479425D03*
X1835150Y812800D03*
X1336675Y558800D03*
X1851025Y796925D03*
X1489075Y536575D03*
X1660525Y685800D03*
X1416050Y593725D03*
X1117600Y193675D03*
X930275Y203200D03*
X1009650Y152400D03*
X917575Y212725D03*
X758825Y73025D03*
X942975Y231775D03*
X47625Y581025D03*
X603250Y593725D03*
X638175Y717550D03*
X755650Y736600D03*
X98425Y733425D03*
X155575Y733425D03*
X327025Y1038225D03*
X822325Y1041400D03*
X304800Y539750D03*
X330200Y571500D03*
X692150Y584200D03*
X708025Y835025D03*
X850900Y869950D03*
X200025Y749300D03*
X587375Y758825D03*
X609600Y955675D03*
X142875Y650875D03*
X365125Y657225D03*
X292100Y577850D03*
X336550Y682625D03*
X771525Y523875D03*
X330200Y555625D03*
X304800Y530225D03*
X142875Y523875D03*
X352425Y568325D03*
X317500Y688975D03*
X365125Y600075D03*
X231775Y609600D03*
X330200Y765175D03*
X165100Y901700D03*
X123825Y790575D03*
X460375Y787400D03*
X123825Y809625D03*
X790575Y133350D03*
X34925Y717550D03*
X784225Y361950D03*
X1266825Y428625D03*
X311150Y711200D03*
X530225Y304800D03*
X720725Y285750D03*
X803275Y895350D03*
X936625Y895350D03*
X784225Y1047750D03*
X1603375Y1009650D03*
X1095375Y587375D03*
X1254125Y600075D03*
X1158875Y885825D03*
X1158875Y288925D03*
X1120775Y288925D03*
X1127125Y803275D03*
X1308100Y819150D03*
X1171575Y422275D03*
X1127125Y269875D03*
X1282700Y688975D03*
X1127125Y968375D03*
X1654175Y695325D03*
X1666875Y441325D03*
X377825Y377825D03*
X1247775Y517525D03*
X1355725Y384175D03*
X1784350Y825500D03*
X688975Y663575D03*
X600075Y663575D03*
X536575Y200025D03*
X-88900Y546100D03*
X222250Y561975D03*
X1336675Y644525D03*
X66675Y644525D03*
X44450Y981075D03*
X377825Y752475D03*
X-88900Y752475D03*
X479425Y1019175D03*
X314325Y996950D03*
X-142875Y869950D03*
X536575Y1044575D03*
X-79375Y1016000D03*
X444500Y1114425D03*
X-22225Y1066800D03*
X-111125Y895350D03*
X676275Y676275D03*
X847725Y676275D03*
X742950Y606425D03*
X812800Y250825D03*
X-82550Y273050D03*
X784225Y434975D03*
X603250Y393700D03*
X542925Y304800D03*
X-82550Y304800D03*
X765175Y434975D03*
X657225Y342900D03*
X-82550Y339725D03*
X342900Y1031875D03*
X917575Y990600D03*
X473075Y876300D03*
X942975Y869950D03*
X1651000Y530225D03*
X342900Y682625D03*
X346075Y796925D03*
X85725Y796925D03*
X-139700Y1000125D03*
X-174625Y831850D03*
X-53975Y1041400D03*
X282575Y974725D03*
X714375Y571500D03*
X695325Y565150D03*
X682625Y38100D03*
X-120650Y155575D03*
X1241425Y361950D03*
X479425Y587375D03*
X1450975Y955675D03*
X1079500Y1108075D03*
X349250Y1127125D03*
X304800Y1076325D03*
X-9525Y1066800D03*
X-174625Y768350D03*
X285750Y730250D03*
X-82550Y711200D03*
X1368425Y955675D03*
X977900Y914400D03*
X942975Y908050D03*
X409575Y835025D03*
X92075Y650875D03*
X765175Y949325D03*
X908050Y962025D03*
X892175Y841375D03*
X803275Y803275D03*
X727075Y752475D03*
X987425Y781050D03*
X806450Y260350D03*
X800100Y266700D03*
X822325Y949325D03*
X644525Y822325D03*
X428625Y723900D03*
X403225Y752475D03*
X806450Y742950D03*
X828675Y714375D03*
X504825Y752475D03*
X720725Y752475D03*
X504825Y1120775D03*
X615950Y1120775D03*
X438150Y1108075D03*
X796925Y1108075D03*
X908050Y1028700D03*
X593725Y1057275D03*
X635000Y1035050D03*
X238125Y1127125D03*
X533400Y1114425D03*
X815975Y606425D03*
X930275Y600075D03*
X866775Y273050D03*
X755650Y361950D03*
X1235075Y361950D03*
X996950Y371475D03*
X73025Y723900D03*
X-31750Y692150D03*
X-31750Y457200D03*
X-38100Y863600D03*
X-50800Y533400D03*
X1016000Y117475D03*
X250825Y422275D03*
X828675Y412750D03*
X828675Y606425D03*
X936625Y450850D03*
X939800Y342900D03*
X1130300Y339725D03*
X898525Y530225D03*
X749300Y492125D03*
X1057275Y508000D03*
X1343025Y523875D03*
X1152525Y641350D03*
X669925Y504825D03*
X254000Y561975D03*
X812800Y285750D03*
X657225Y911225D03*
X746125Y422275D03*
X-146050Y987425D03*
X-171450Y565150D03*
X669925Y422275D03*
X-82550Y463550D03*
X212725Y974725D03*
X79375Y974725D03*
X22225Y660400D03*
X-82550Y590550D03*
X98425Y790575D03*
X-69850Y666750D03*
X930275Y38100D03*
X-3175Y76200D03*
X-19050Y679450D03*
X939800Y50800D03*
X-38100Y117475D03*
X-25400Y698500D03*
X1143000Y38100D03*
X892175Y12700D03*
X-57150Y736600D03*
X1009650Y127000D03*
X933450Y111125D03*
X-63500Y127000D03*
X263525Y212725D03*
X273050Y841375D03*
X479425Y987425D03*
X815975Y406400D03*
X663575Y1092200D03*
X485775Y600075D03*
X1574800Y587375D03*
X1184275Y654050D03*
X1209675Y434975D03*
X927100Y831850D03*
X923925Y635000D03*
X733425Y498475D03*
X914400Y498475D03*
X873125Y339725D03*
X892175Y530225D03*
X739775Y492125D03*
X657225Y492125D03*
X346075Y425450D03*
X669925Y368300D03*
X393700Y650875D03*
X688975Y657225D03*
X701675Y577850D03*
X276225Y187325D03*
X752475Y571500D03*
X263525Y149225D03*
X377825Y600075D03*
X508000Y650875D03*
X781050Y650875D03*
X771525Y565150D03*
X269875Y269875D03*
X339725Y438150D03*
X450850Y441325D03*
X555625Y581025D03*
X847725Y584200D03*
X530225Y298450D03*
X688975Y292100D03*
X930275Y301625D03*
X1152525Y955675D03*
X1254125Y574675D03*
X47625Y812800D03*
X476250Y530225D03*
X454025Y787400D03*
X701675Y723900D03*
X895350Y733425D03*
X911225Y933450D03*
X727075Y730250D03*
X908050Y739775D03*
X917575Y914400D03*
X809625Y876300D03*
X930275Y873125D03*
X1260475Y536575D03*
X1241425Y768350D03*
X1387475Y660400D03*
X1330325Y711200D03*
X1552575Y831850D03*
M02*
