M48
;GenerationSoftware,Autodesk,EAGLE,9.6.2*%
;CreationDate,2021-08-03T19:57:29Z*%
FMAT,2
ICI,OFF
METRIC,TZ,000.000
T7C0.254
T6C0.650
T5C0.813
T4C0.914
T3C1.600
T2C2.794
T1C3.200
%
G90
M71
T1
X-60960Y144780
X60960Y144780
X144780Y60960
X144780Y-60960
X-144780Y60960
X-146050Y-60960
X60960Y-144780
X-60960Y-143510
T2
X-144475Y-45009
X-144475Y45009
X45009Y-144475
X-45009Y-144475
X-45009Y144475
X45009Y144475
X70076Y134079
X133728Y70427
X-134045Y69994
X-70393Y133646
X133492Y-70021
X69840Y-133673
X-70611Y-134172
X-134263Y-70520
X144475Y45009
X144475Y-45009
T3
X-138430Y-52070
X-134620Y-62230
T4
X144780Y16510
X144780Y19050
X144780Y21590
X144780Y24130
X144780Y26670
X144780Y29210
X144780Y31750
X144780Y34290
X144780Y36830
X144780Y39370
X147320Y-39370
X147320Y-36830
X147320Y-34290
X147320Y-31750
X147320Y-29210
X147320Y-26670
X147320Y-24130
X147320Y-21590
X147320Y-19050
X147320Y-16510
X147320Y-13970
X147320Y-11430
X147320Y-8890
X147320Y-6350
X147320Y-3810
X147320Y-1270
X147320Y1270
X147320Y3810
X147320Y6350
X147320Y8890
X147320Y11430
X147320Y13970
X147320Y16510
X147320Y19050
X147320Y21590
X147320Y24130
X147320Y26670
X147320Y29210
X147320Y31750
X147320Y34290
X147320Y36830
X147320Y39370
X142240Y-39370
X142240Y-36830
X142240Y-34290
X142240Y-31750
X142240Y-29210
X142240Y-26670
X142240Y-24130
X142240Y-21590
X142240Y-19050
X142240Y-16510
X142240Y-13970
X142240Y-11430
X142240Y-8890
X142240Y-6350
X142240Y-3810
X142240Y-1270
X142240Y1270
X142240Y3810
X142240Y6350
X142240Y8890
X142240Y11430
X142240Y13970
X142240Y16510
X142240Y19050
X142240Y21590
X142240Y24130
X142240Y26670
X142240Y29210
X142240Y31750
X142240Y34290
X142240Y36830
X142240Y39370
X128160Y76425
X144780Y-39370
X144780Y-36830
X144780Y-34290
X144780Y-31750
X144780Y-29210
X144780Y-26670
X144780Y-24130
X144780Y-21590
X144780Y-19050
X144780Y-16510
X144780Y-13970
X144780Y-11430
X144780Y-8890
X144780Y-6350
X144780Y-3810
X144780Y13970
X144780Y11430
X-130491Y-74723
X-128695Y-76519
X-126899Y-78315
X-125103Y-80111
X-123307Y-81907
X-121511Y-83703
X-119715Y-85499
X-117919Y-87295
X-116122Y-89091
X-114326Y-90888
X-112530Y-92684
X-110734Y-94480
X-108938Y-96276
X-107142Y-98072
X-105346Y-99868
X-103550Y-101664
X-101754Y-103460
X-99958Y-105256
X-98162Y-107052
X-96366Y-108848
X-94570Y-110644
X-92774Y-112440
X-90978Y-114236
X-89182Y-116032
X-87386Y-117828
X-85590Y-119624
X-83794Y-121420
X-81998Y-123216
X-80201Y-125012
X-78405Y-126809
X-76609Y-128605
X-74813Y-130401
X-132287Y-76519
X-130491Y-78315
X-128695Y-80111
X-126899Y-81907
X-125103Y-83703
X-123307Y-85499
X-121511Y-87295
X-119715Y-89091
X-117919Y-90888
X-116122Y-92684
X-114326Y-94480
X-112530Y-96276
X-110734Y-98072
X-108938Y-99868
X-107142Y-101664
X-105346Y-103460
X-103550Y-105256
X-101754Y-107052
X-99958Y-108848
X-98162Y-110644
X-96366Y-112440
X-94570Y-114236
X-92774Y-116032
X-90978Y-117828
X-89182Y-119624
X-87386Y-121420
X-85590Y-123216
X-83794Y-125012
X-81998Y-126809
X-80201Y-128605
X-78405Y-130401
X-76609Y-132197
X-128695Y-72927
X-126899Y-74723
X-125103Y-76519
X-123307Y-78315
X-121511Y-80111
X-119715Y-81907
X-117919Y-83703
X-116122Y-85499
X-114326Y-87295
X-112530Y-89091
X-110734Y-90888
X-108938Y-92684
X-107142Y-94480
X-105346Y-96276
X-103550Y-98072
X-101754Y-99868
X-99958Y-101664
X-98162Y-103460
X-96366Y-105256
X-94570Y-107052
X-92774Y-108848
X-90978Y-110644
X-89182Y-112440
X-87386Y-114236
X-85590Y-116032
X-83794Y-117828
X-81998Y-119624
X-80201Y-121420
X-78405Y-123216
X-76609Y-125012
X-74813Y-126809
X-73017Y-128605
X74043Y-129901
X75839Y-128105
X77635Y-126309
X79431Y-124513
X81227Y-122717
X83023Y-120921
X84819Y-119125
X86615Y-117329
X88411Y-115533
X90207Y-113737
X92003Y-111941
X93799Y-110144
X95596Y-108348
X97392Y-106552
X99188Y-104756
X100984Y-102960
X102780Y-101164
X104576Y-99368
X106372Y-97572
X108168Y-95776
X109964Y-93980
X111760Y-92184
X113556Y-90388
X115352Y-88592
X117148Y-86796
X118944Y-85000
X120740Y-83204
X122536Y-81408
X124332Y-79612
X126128Y-77816
X127924Y-76019
X129721Y-74223
X75839Y-131697
X77635Y-129901
X79431Y-128105
X81227Y-126309
X83023Y-124513
X84819Y-122717
X86615Y-120921
X88411Y-119125
X90207Y-117329
X92003Y-115533
X93799Y-113737
X95596Y-111941
X97392Y-110144
X99188Y-108348
X100984Y-106552
X102780Y-104756
X104576Y-102960
X106372Y-101164
X108168Y-99368
X109964Y-97572
X111760Y-95776
X113556Y-93980
X115352Y-92184
X117148Y-90388
X118944Y-88592
X120740Y-86796
X122536Y-85000
X124332Y-83204
X126128Y-81408
X127924Y-79612
X129721Y-77816
X131517Y-76019
X72247Y-128105
X74043Y-126309
X75839Y-124513
X77635Y-122717
X79431Y-120921
X81227Y-119125
X83023Y-117329
X84819Y-115533
X86615Y-113737
X88411Y-111941
X90207Y-110144
X92003Y-108348
X93799Y-106552
X95596Y-104756
X97392Y-102960
X99188Y-101164
X100984Y-99368
X102780Y-97572
X104576Y-95776
X106372Y-93980
X108168Y-92184
X109964Y-90388
X111760Y-88592
X113556Y-86796
X115352Y-85000
X117148Y-83204
X118944Y-81408
X120740Y-79612
X122536Y-77816
X124332Y-76019
X126128Y-74223
X127924Y-72427
X-74595Y129875
X-76391Y128079
X-78188Y126282
X-79984Y124486
X-81780Y122690
X-83576Y120894
X-85372Y119098
X-87168Y117302
X-88964Y115506
X-90760Y113710
X-92556Y111914
X-94352Y110118
X-96148Y108322
X-97944Y106526
X-99740Y104730
X-101536Y102934
X-103332Y101138
X-105128Y99342
X-106924Y97546
X-108720Y95750
X-110516Y93954
X-112312Y92158
X-114109Y90361
X-115905Y88565
X-117701Y86769
X-119497Y84973
X-121293Y83177
X-123089Y81381
X-124885Y79585
X-126681Y77789
X-128477Y75993
X-130273Y74197
X-76391Y131671
X-78188Y129875
X-79984Y128079
X-81780Y126282
X-83576Y124486
X-85372Y122690
X-87168Y120894
X-88964Y119098
X-90760Y117302
X-92556Y115506
X-94352Y113710
X-96148Y111914
X-97944Y110118
X-99740Y108322
X-101536Y106526
X-103332Y104730
X-105128Y102934
X-106924Y101138
X-108720Y99342
X-110516Y97546
X-112312Y95750
X-114109Y93954
X-115905Y92158
X-117701Y90361
X-119497Y88565
X-121293Y86769
X-123089Y84973
X-124885Y83177
X-126681Y81381
X-128477Y79585
X-130273Y77789
X-132069Y75993
X-72799Y128079
X-74595Y126282
X-76391Y124486
X-78188Y122690
X-79984Y120894
X-81780Y119098
X-83576Y117302
X-85372Y115506
X-87168Y113710
X-88964Y111914
X-90760Y110118
X-92556Y108322
X-94352Y106526
X-96148Y104730
X-97944Y102934
X-99740Y101138
X-101536Y99342
X-103332Y97546
X-105128Y95750
X-106924Y93954
X-108720Y92158
X-110516Y90361
X-112312Y88565
X-114109Y86769
X-115905Y84973
X-117701Y83177
X-119497Y81381
X-121293Y79585
X-123089Y77789
X-124885Y75993
X-126681Y74197
X-128477Y72401
X129957Y74629
X-3810Y147320
X126364Y78221
X124568Y80018
X122772Y81814
X120976Y83610
X119180Y85406
X117384Y87202
X115588Y88998
X113792Y90794
X111996Y92590
X110200Y94386
X108404Y96182
X106608Y97978
X104812Y99774
X103016Y101570
X101220Y103366
X99424Y105162
X97628Y106958
X95832Y108754
X94036Y110550
X92239Y112346
X90443Y114142
X88647Y115939
X86851Y117735
X85055Y119531
X83259Y121327
X81463Y123123
X79667Y124919
X77871Y126715
X76075Y128511
X74279Y130307
X131753Y76425
X129957Y78221
X128160Y80018
X126364Y81814
X124568Y83610
X122772Y85406
X120976Y87202
X119180Y88998
X117384Y90794
X115588Y92590
X113792Y94386
X111996Y96182
X110200Y97978
X108404Y99774
X106608Y101570
X104812Y103366
X103016Y105162
X101220Y106958
X99424Y108754
X97628Y110550
X95832Y112346
X94036Y114142
X92239Y115939
X90443Y117735
X88647Y119531
X86851Y121327
X85055Y123123
X83259Y124919
X81463Y126715
X79667Y128511
X77871Y130307
X76075Y132103
X128160Y72833
X126364Y74629
X124568Y76425
X122772Y78221
X120976Y80018
X119180Y81814
X117384Y83610
X115588Y85406
X113792Y87202
X111996Y88998
X110200Y90794
X108404Y92590
X106608Y94386
X104812Y96182
X103016Y97978
X101220Y99774
X99424Y101570
X97628Y103366
X95832Y105162
X94036Y106958
X92239Y108754
X90443Y110550
X88647Y112346
X86851Y114142
X85055Y115939
X83259Y117735
X81463Y119531
X79667Y121327
X77871Y123123
X76075Y124919
X74279Y126715
X72483Y128511
X39370Y144780
X36830Y144780
X34290Y144780
X31750Y144780
X29210Y144780
X26670Y144780
X24130Y144780
X21590Y144780
X19050Y144780
X16510Y144780
X13970Y144780
X11430Y144780
X8890Y144780
X6350Y144780
X3810Y144780
X1270Y144780
X-1270Y144780
X-3810Y144780
X-6350Y144780
X-8890Y144780
X-11430Y144780
X-13970Y144780
X-16510Y144780
X-19050Y144780
X-21590Y144780
X-24130Y144780
X-26670Y144780
X-29210Y144780
X-31750Y144780
X-34290Y144780
X-36830Y144780
X-39370Y144780
X39370Y147320
X36830Y147320
X34290Y147320
X31750Y147320
X29210Y147320
X26670Y147320
X24130Y147320
X21590Y147320
X19050Y147320
X16510Y147320
X13970Y147320
X11430Y147320
X8890Y147320
X6350Y147320
X3810Y147320
X1270Y147320
X144780Y-1270
X-1270Y147320
X-6350Y147320
X-8890Y147320
X-11430Y147320
X-13970Y147320
X-16510Y147320
X-19050Y147320
X-21590Y147320
X-24130Y147320
X-26670Y147320
X-29210Y147320
X-31750Y147320
X-34290Y147320
X-36830Y147320
X-39370Y147320
X39370Y142240
X36830Y142240
X34290Y142240
X31750Y142240
X29210Y142240
X26670Y142240
X24130Y142240
X21590Y142240
X19050Y142240
X16510Y142240
X13970Y142240
X11430Y142240
X8890Y142240
X6350Y142240
X3810Y142240
X1270Y142240
X-1270Y142240
X-3810Y142240
X-6350Y142240
X-8890Y142240
X-11430Y142240
X-13970Y142240
X-16510Y142240
X-19050Y142240
X-21590Y142240
X-24130Y142240
X-26670Y142240
X-29210Y142240
X-31750Y142240
X-34290Y142240
X-36830Y142240
X-39370Y142240
X-39370Y-144780
X-36830Y-144780
X-34290Y-144780
X-31750Y-144780
X-29210Y-144780
X-26670Y-144780
X-24130Y-144780
X-21590Y-144780
X-19050Y-144780
X-16510Y-144780
X-13970Y-144780
X-11430Y-144780
X-8890Y-144780
X-6350Y-144780
X-3810Y-144780
X-1270Y-144780
X1270Y-144780
X3810Y-144780
X6350Y-144780
X8890Y-144780
X11430Y-144780
X13970Y-144780
X16510Y-144780
X19050Y-144780
X21590Y-144780
X24130Y-144780
X26670Y-144780
X29210Y-144780
X31750Y-144780
X34290Y-144780
X36830Y-144780
X39370Y-144780
X-39370Y-147320
X-36830Y-147320
X-34290Y-147320
X-31750Y-147320
X-29210Y-147320
X-26670Y-147320
X-24130Y-147320
X-21590Y-147320
X-19050Y-147320
X-16510Y-147320
X-13970Y-147320
X-11430Y-147320
X-8890Y-147320
X-6350Y-147320
X-3810Y-147320
X-1270Y-147320
X1270Y-147320
X3810Y-147320
X6350Y-147320
X8890Y-147320
X11430Y-147320
X13970Y-147320
X16510Y-147320
X19050Y-147320
X21590Y-147320
X24130Y-147320
X26670Y-147320
X29210Y-147320
X31750Y-147320
X34290Y-147320
X36830Y-147320
X39370Y-147320
X-39370Y-142240
X-36830Y-142240
X-34290Y-142240
X-31750Y-142240
X-29210Y-142240
X-26670Y-142240
X-24130Y-142240
X-21590Y-142240
X-19050Y-142240
X-16510Y-142240
X-13970Y-142240
X-11430Y-142240
X-8890Y-142240
X-6350Y-142240
X-3810Y-142240
X-1270Y-142240
X1270Y-142240
X3810Y-142240
X6350Y-142240
X8890Y-142240
X11430Y-142240
X13970Y-142240
X16510Y-142240
X19050Y-142240
X21590Y-142240
X24130Y-142240
X26670Y-142240
X29210Y-142240
X31750Y-142240
X34290Y-142240
X36830Y-142240
X39370Y-142240
X-144780Y39370
X-144780Y36830
X-144780Y34290
X-144780Y31750
X-144780Y29210
X-144780Y26670
X-144780Y24130
X-144780Y21590
X-144780Y19050
X-144780Y16510
X-144780Y13970
X-144780Y11430
X-144780Y8890
X-144780Y6350
X-144780Y3810
X-144780Y1270
X-144780Y-1270
X-144780Y-3810
X-144780Y-6350
X-144780Y-8890
X-144780Y-11430
X-144780Y-13970
X-144780Y-16510
X-144780Y-19050
X-144780Y-21590
X-144780Y-24130
X-144780Y-26670
X-144780Y-29210
X-144780Y-31750
X-144780Y-34290
X-144780Y-36830
X-144780Y-39370
X-147320Y39370
X-147320Y36830
X-147320Y34290
X-147320Y31750
X-147320Y29210
X-147320Y26670
X-147320Y24130
X-147320Y21590
X-147320Y19050
X-147320Y16510
X-147320Y13970
X-147320Y11430
X-147320Y8890
X-147320Y6350
X-147320Y3810
X-147320Y1270
X-147320Y-1270
X-147320Y-3810
X-147320Y-6350
X-147320Y-8890
X-147320Y-11430
X-147320Y-13970
X-147320Y-16510
X-147320Y-19050
X-147320Y-21590
X-147320Y-24130
X-147320Y-26670
X-147320Y-29210
X-147320Y-31750
X-147320Y-34290
X-147320Y-36830
X-147320Y-39370
X-142240Y39370
X-142240Y36830
X-142240Y34290
X-142240Y31750
X-142240Y29210
X-142240Y26670
X-142240Y24130
X-142240Y21590
X-142240Y19050
X-142240Y16510
X-142240Y13970
X-142240Y11430
X-142240Y8890
X-142240Y6350
X-142240Y3810
X-142240Y1270
X-142240Y-1270
X-142240Y-3810
X-142240Y-6350
X-142240Y-8890
X-142240Y-11430
X-142240Y-13970
X-142240Y-16510
X-142240Y-19050
X-142240Y-21590
X-142240Y-24130
X-142240Y-26670
X-142240Y-29210
X-142240Y-31750
X-142240Y-34290
X-142240Y-36830
X-142240Y-39370
X144780Y8890
X144780Y6350
X144780Y3810
X144780Y1270
T5
X-122600Y68208
X-54610Y-146050
X-54610Y-148590
X-54610Y-140970
X-54610Y-130810
X-129386Y-37946
X-134466Y-37946
X-65078Y-118546
X-68670Y-122138
X38382Y-129168
X38382Y-134248
X117956Y-64924
X121548Y-68516
X129322Y38100
X134402Y38100
X64090Y119008
X-39062Y129540
X-39062Y134620
X-119008Y64616
X67682Y122600
T6
X0Y0
T7
X13970Y-59055
X137795Y7620
X93980Y6985
X93980Y-59055
X74295Y100330
X73660Y29845
X-42545Y134620
X-42545Y128905
X-24130Y131445
X-6350Y103505
X10160Y148590
X15875Y-134620
X34290Y-134620
X34290Y-93980
X100965Y-92710
X-78105Y-128270
X-55880Y-124460
X34290Y-126365
X-133985Y-20320
X-46355Y-20320
X-46355Y-124460
X-109855Y83185
X-100330Y76835
X-100330Y-20320
X38735Y114935
X38100Y-92710
X-60325Y-118110
X-59690Y27305
X-22860Y28575
X-22860Y122555
X12700Y-136525
X39370Y-112395
X-61595Y-110490
X123190Y-86360
X113665Y-50165
X45085Y-50165
X40005Y-74295
X-117475Y-22860
X-81915Y-23495
X-81915Y-15240
X-59690Y-13970
X139065Y6350
X136525Y-38735
X-120650Y90170
X-141605Y69215
X-143510Y41275
X-132715Y47625
X81915Y98425
X34290Y98425
X-131445Y-20955
X-120650Y-20955
X-120650Y49530
X-19050Y134620
X-19050Y83820
X-104140Y83820
X10160Y-128905
X10160Y-109220
X-90170Y-109220
X106045Y-88900
X107950Y-635
X135890Y-635
X104775Y105410
X107950Y106045
X8255Y-27305
X109220Y-27305
X-19050Y22860
X-107315Y106045
X68580Y105410
X-71120Y-139700
X-64770Y-125730
X51435Y-85725
X52705Y-144145
X-128270Y-60960
X-125095Y-71120
X-40005Y-64135
X64770Y-80645
X51435Y-80645
X136525Y3810
X51435Y3810
X55880Y105410
X55880Y79375
X52070Y79375
X-57150Y-138430
X-57150Y-123190
X-635Y-128270
X83820Y-101600
X-149225Y-11430
X-136525Y-55245
X-119380Y-53975
X-55880Y-90170
X-635Y-90805
X50165Y-102235
X-119380Y90170
X-128270Y32385
X-8890Y33655
X-8890Y132080
X77470Y92075
X31750Y92075
X31750Y33655
X111760Y-20955
X32385Y-20955
X50165Y-20955
X148590Y-60325
X-74930Y-107315
X-74930Y-8890
X-135890Y-12700
X7620Y-133985
X2540Y-111760
X-17145Y-111760
X-74930Y-76200
X147320Y-41275
X69850Y-99060
X2540Y-104140
X-76200Y135890
X-106045Y106045
X-133350Y-5715
X-132715Y0
X-74930Y1270
X-71755Y68580
X-1270Y-137795
X4445Y-93345
X98425Y112395
X51435Y129540
X-6350Y128905
X112395Y-100965
X118110Y-95250
X135890Y-67310
X135890Y-48895
X118110Y-48895
X118110Y-33655
X-4445Y-34925
X135255Y22860
X63500Y-34925
X-7620Y-143510
X18415Y-102870
X-93345Y-101600
X72390Y-97790
X-146050Y25400
X-121285Y60960
X-17145Y59690
X-17780Y139065
X-10160Y149225
X133350Y40640
X105410Y43180
X-17145Y43180
X66040Y102235
X66040Y41275
X62230Y-95250
X59690Y41275
X150495Y-62865
X149225Y-3810
X-147955Y-46990
X1270Y-137795
X635Y-66040
X-102870Y-66675
X-102870Y-78105
X-96520Y97790
X-31115Y72390
X-23495Y-66040
X89535Y89535
X85090Y51435
X-30480Y52070
X10795Y138430
X10795Y52070
X132715Y-4445
X123190Y-4445
X120650Y47625
X-107950Y-78105
X-130175Y-20320
X-3810Y-137795
X-3175Y-45085
X138430Y-45720
X-97155Y86360
X-65405Y85725
X-64770Y19050
X-6350Y149225
X-64770Y36195
X109855Y-103505
X-106680Y-50165
X-48260Y-43815
X106045Y107950
X-136525Y-1270
X-131445Y-7620
X-102870Y90170
X-123190Y33655
X24130Y-109220
X26035Y34925
X8890Y138430
X8255Y34925
X19050Y-107950
X91440Y-102235
X88900Y-61595
X88900Y-89535
X92075Y-89535
X-137795Y-67945
X-134620Y-41275
X-95885Y81915
X-97790Y-34925
X-93345Y-39370
X7620Y146050
X-15875Y84455
X-15875Y21590
X-97790Y21590
X88265Y93345
X86995Y53975
X125730Y-22860
X125730Y15240
X-62230Y148590
X-139700Y-55880
X-119380Y-55245
X-113030Y-74295
X-12700Y-148590
X-28575Y-130810
X-12700Y-130810
X-11430Y-28575
X74930Y-28575
X95250Y-114300
X74930Y-109855
X-118110Y-5080
X-12065Y-23495
X-61595Y106045
X-33655Y104775
X-33655Y-4445
X3175Y149860
X150495Y-2540
X-81915Y-86360
X48895Y-111125
X48895Y-95250
X147320Y-48895
X117475Y-57785
X58420Y-57150
X58420Y-95250
X60960Y120650
X67310Y115570
X67945Y81915
X86360Y-101600
X90170Y-23495
X111760Y-23495
X-89535Y99695
X-92075Y11430
X-135255Y11430
X-95885Y-86995
X-89535Y-38735
X-29845Y-131445
X-29845Y-93980
X-86995Y-50165
X16510Y139065
X17780Y102235
X93980Y76835
X17780Y78740
X74930Y-22860
X74930Y78105
X20320Y146050
X102870Y103505
X-97155Y-97790
X-47625Y-147320
X2540Y-148590
X-135890Y18415
X-110490Y17780
X-85725Y-86995
X83820Y93345
X81280Y-47625
X-83185Y-46355
X-71755Y-65405
X-118745Y-65405
X45085Y-113665
X45085Y-80645
X20320Y-80645
X120650Y-17145
X-135255Y12700
X-71755Y12700
X-49530Y130810
X-49530Y81280
X0Y83820
X-49530Y85725
X27940Y127635
X27940Y106045
X-111125Y-85725
X-83185Y-86360
X-83185Y-71755
X-136525Y5080
X-84455Y7620
X-94615Y100965
X-88265Y81915
X-56515Y77470
X-50800Y8255
X-64770Y-33655
X33020Y122555
X2540Y121920
X2540Y76200
X59690Y-118110
X-17145Y-117475
X136525Y-13335
X78740Y-10795
X93345Y75565
X39370Y76835
X40005Y34290
X-78105Y116205
X13335Y138430
X139065Y-6350
X96520Y635
X93980Y86995
X110490Y95885
X13970Y55880
X93345Y54610
X-135255Y22860
X-22225Y-123190
X-22860Y-96520
X66040Y-125095
X-12700Y-123190
X13970Y32385
X-132715Y29210
X31750Y114935
X139065Y-13335
X109220Y-12065
X109220Y83820
X105410Y84455
X-136525Y13970
X-104140Y13970
X-106680Y-74295
X-47625Y-129540
X-48260Y-12700
X-104140Y-12700
X-95885Y92075
X-106680Y16510
X40005Y-138430
X35560Y-123190
X40005Y-123190
X38100Y-106680
X-47625Y-106680
X86360Y-119380
X98425Y-113665
X107950Y-97790
X-20320Y-139065
X-36830Y-139065
X-36195Y-118110
X-45085Y-118110
X-45085Y-70485
X-92075Y-75565
X-109855Y-74295
X-132715Y7620
X-93345Y102870
X-77470Y106045
X-78105Y95885
X-78105Y6985
X13335Y135890
X-12700Y134620
X-12700Y94615
X105410Y58420
X-12700Y58420
X124460Y-14605
X121920Y58420
X128270Y74930
X130810Y-5080
X-134620Y-74295
X-131445Y-53975
X-116205Y-52070
X-116840Y-41275
X-69850Y-41275
X-70485Y107950
X-86995Y107950
X-146050Y30480
X-133985Y22860
X-124460Y28575
X-123825Y24130
X-69850Y23495
X-20320Y-137795
X-23495Y-107950
X-69850Y-107950
X60960Y-131445
X60960Y-118110
X8890Y-116840
X8890Y-107950
X33020Y134620
X27940Y99695
X-7620Y106045
X127000Y22225
X27940Y88265
X-137795Y20320
X-74930Y16510
X-81280Y102235
X-93345Y101600
X-17145Y-138430
X-27305Y16510
X68580Y-109855
X68580Y-76835
X-18415Y-76835
X-130175Y-1270
X-135255Y2540
X67310Y63500
X26670Y135255
X26670Y88265
X140335Y-43180
X67310Y-43180
X128270Y-19685
X124460Y67945
X110490Y67945
X-132080Y48895
X-129540Y46355
X-111125Y-38735
X-111125Y-71755
X-122555Y-71120
X-69850Y125095
X-45720Y125095
X-93345Y40005
X18415Y138430
X-38100Y121285
X-33655Y-136525
X-24765Y-59055
X-32385Y-59055
X19685Y59690
X64770Y148590
X71120Y82550
X113030Y82550
X-38735Y-130810
X-38735Y-57785
X-130175Y-59055
X68580Y-111125
X59690Y-111125
X59690Y-36195
X-38735Y-36195
X-146050Y5080
X-136525Y3810
X-94615Y4445
X-92075Y-57785
X-81915Y95885
X-93980Y95250
X137795Y-22860
X71120Y-36195
X-116840Y-78740
X-126365Y-51435
X-134620Y-3175
X-64770Y130175
X-62230Y3175
X-55880Y-100330
X-73025Y-81915
X-73025Y3175
X27940Y130810
X-7620Y130810
X-64135Y81280
X102870Y-109220
X56515Y-135890
X45085Y-135890
X45085Y-123190
X71755Y-123825
X72390Y-99060
X62230Y-97790
X69850Y-84455
X15240Y-84455
X15240Y-68580
X-71120Y-69215
X95250Y71120
X22860Y71120
X22860Y130810
X116205Y-56515
X90170Y-56515
X-62865Y-150495
X-62865Y-67945
X-111760Y-66675
X-132080Y16510
X-60960Y17780
X-62865Y120015
X58420Y148590
X66040Y115570
X71120Y-116205
X71120Y-37465
X-62230Y-37465
X64770Y81915
X129540Y-37465
X-28575Y-132080
X-31115Y-84455
X36195Y-132080
X111760Y-43815
X41910Y138430
X38735Y135255
X53340Y52705
X113030Y52705
X-79375Y113665
X-43180Y116205
X-43180Y53340
X-15875Y-84455
X-26035Y53340
X-41275Y-60325
X-128270Y-59690
X67310Y-118745
X66040Y-40005
X-40005Y-40005
X-142875Y56515
X-107315Y73025
X-107315Y55880
X-76200Y113030
X-67945Y112395
X-66675Y57785
X-106680Y58420
X61595Y104775
X81915Y93345
X80010Y-40005
X104775Y97790
X98425Y92710
X113030Y-40005
X73660Y-116205
X81280Y-34925
X132715Y-30480
X-136525Y29210
X-55880Y28575
X-60325Y107315
X-52070Y-139065
X-127000Y-61595
X-113030Y-61595
X-111760Y-31115
X-55880Y-31115
X45720Y127635
X46990Y79375
X91440Y-34925
X91440Y13970
X88265Y13970
X88265Y55245
X-132080Y66040
X-124460Y55880
X-137160Y36195
X-125730Y45720
X-97155Y48260
X-71120Y-125095
X-44450Y-129540
X27940Y-130175
X125095Y-63500
X27940Y-70485
X-118110Y-56515
X139065Y33020
X68580Y27305
X68580Y-70485
X74295Y118110
X69215Y103505
X-52070Y113665
X-127000Y76200
X-122555Y58420
X-122555Y62865
X-109855Y74295
X-101600Y76835
X-99695Y86360
X-85725Y89535
X55245Y-145415
X55245Y-66675
X109855Y-67310
X-135890Y-40005
X-128905Y-22860
X48895Y-29845
X48895Y-66675
X-76200Y-118110
X-80645Y-23495
X130810Y35560
X130810Y20320
X48895Y20320
X50800Y122555
X-53975Y120650
X102870Y106680
X132715Y78105
X50165Y-134620
X66040Y-123825
X64770Y-74295
X120015Y-72390
X-50800Y-136525
X-54610Y-74295
X-135890Y-41275
X-54610Y-36195
X-137795Y64135
X-131445Y64135
X-127000Y54610
X-116840Y-36195
X-40640Y117475
X137795Y39370
X55880Y43815
X52705Y-74930
X13970Y-31115
X-133350Y-23495
X16510Y-59055
X106045Y-59055
X-54610Y-125730
X15875Y-125730
X-74930Y134620
X5080Y123825
X5080Y97155
X-98425Y88900
X26670Y39370
X105410Y39370
X140970Y41910
X25400Y-73025
X12700Y123825
X65405Y123190
X85725Y125730
X63500Y-73025
X-77470Y-73025
X-78740Y-90805
X-97155Y-90805
X106680Y-82550
X64770Y-85725
X64770Y-144145
X-22860Y149225
X-148590Y62230
X-20320Y28575
X133350Y19050
X-20320Y126365
X57150Y127635
X-24765Y8890
X-20320Y135255
X-107950Y-38100
X-128905Y-40005
X-105410Y80010
X-107950Y-2540
X-50800Y-2540
X-50800Y-106680
X-63500Y-123190
X-74295Y-132715
X133985Y-40005
X135255Y33020
X148590Y41910
X101600Y-107950
X63500Y-148590
X57150Y-148590
X83820Y99060
X76200Y103505
X76200Y115570
X90170Y116205
X95250Y9525
X138430Y13335
X12700Y-41910
X95250Y-41910
X94615Y-88265
X-79375Y69850
X-50800Y98425
X-50165Y148590
X-107950Y-43815
X-101600Y73660
X-111125Y76200
X-66040Y-89535
X-109855Y-61595
X-132080Y-31115
X-66040Y-110490
X-65405Y-87630
X12700Y-86360
X15240Y-136525
X46355Y-31115
X-121920Y26035
X-66040Y118745
X-74930Y118745
X-136525Y38100
X-4445Y-78105
X45085Y-62865
X47625Y-138430
X-116840Y-69850
X-37465Y-78105
X-37465Y-130810
X-33655Y-130810
X119380Y74295
X35560Y74295
X34290Y137795
X123825Y-27940
X116840Y80010
X25400Y93345
X26670Y136525
X-109220Y10160
X-88265Y10160
X-86360Y92075
X-98425Y-89535
X-109855Y-71755
X-110490Y47625
X116840Y-28575
X128905Y-25400
X83820Y-29845
X80010Y-114935
X-39370Y48260
X114300Y48260
X-39370Y114935
X15240Y114935
X15875Y137160
X-39370Y4445
X-41910Y107315
X-83185Y110490
X-92075Y4445
X-118110Y7620
X-131445Y7620
X-91440Y-83185
X114300Y-23495
X120650Y-45085
X52705Y-43815
X53340Y44450
X127000Y83185
X-32385Y-57785
X-32385Y-43815
X73660Y-45085
X73660Y-111125
X-25400Y-137795
X-20955Y-58420
X-115570Y-59055
X-94615Y99695
X20320Y99695
X20320Y135255
X-89535Y104775
X-63500Y104775
X-60960Y28575
X-130175Y25400
X86360Y-22225
X-78105Y110490
X-84455Y-95885
X-85725Y0
X-105410Y20320
X-135255Y20320
X-32385Y-88900
X82550Y-89535
X82550Y-111125
X-32385Y-95885
X111125Y64135
X33020Y65405
X33020Y121285
X111760Y-24765
X121920Y-21590
X62230Y-19050
X63500Y66675
X63500Y-95250
X-13970Y-113030
X63500Y-109855
X-118110Y-1270
X-131445Y2540
X-13970Y-123190
X-11430Y-93345
X-22225Y-97790
X118110Y64135
X131445Y67310
X16510Y135255
X16510Y63500
X-67945Y64770
X-67945Y110490
X-88265Y107950
X105410Y86360
X21590Y-15240
X139065Y-15240
X-13970Y-139065
X7620Y-139065
X20320Y-136525
X34290Y-136525
X70485Y-120650
X19050Y92075
X19050Y135255
X-86995Y20320
X-85090Y91440
X-52070Y-106680
X-53340Y20320
X-130810Y21590
X-26670Y-121920
X-56515Y-120650
X-57150Y-106680
X62230Y37465
X60960Y-5715
X134620Y-5715
X135255Y-11430
X-69215Y41275
X-69215Y109220
X57150Y107315
X105410Y91440
X-11430Y-100330
X58420Y-98425
X58420Y-111125
X-29210Y37465
X-22225Y-93980
X-83185Y41275
X-80645Y-91440
X-88265Y-106680
X22860Y135255
X27940Y37465
X-118110Y41275
X-118110Y10160
X-135890Y10160
X9525Y-85725
X9525Y-42545
X-100330Y-42545
X139065Y-8890
X98425Y-8255
X99060Y-88900
X87630Y-87630
X87630Y-101600
X106680Y-6985
X-100330Y-94615
X5080Y90170
X6350Y127635
X-101600Y72390
X81280Y-32385
X82550Y85725
X-7620Y-50165
X-102870Y-46355
X-7620Y-33655
X109220Y-32385
X-7620Y-119380
X35560Y-119380
X-7620Y-104140
X80010Y62865
X-1270Y60960
X0Y-137795
X-16510Y-104140
X76200Y-103505
X77470Y-3175
X135890Y-3810
X1270Y139065
X0Y104775
X-90805Y103505
X-88900Y-100330
X-107950Y-104140
X-146050Y-15240
X-104140Y-108585
X143510Y-50165
X127635Y-67310
X127635Y-70485
X56515Y136525
X3810Y139065
X2540Y74930
X-97790Y77470
X135255Y2540
X77470Y2540
X77470Y85725
X82550Y87630
X11430Y-86360
X-41910Y-40640
X11430Y-41275
X12700Y-135255
X-41910Y-34925
X-81915Y-34925
X-81915Y-69215
X-121285Y-66675
X-139065Y-69215
X-104140Y88900
X-41910Y84455
X-41910Y-16510
X-134620Y-17780
X-134620Y-6350
X104775Y-635
X-2540Y68580
X-1270Y139065
X-81915Y69850
X99060Y-94615
X-87630Y69850
X-88265Y78105
X-97790Y74930
X-112395Y76835
X-110490Y99060
X-79375Y-105410
X-76200Y-11430
X-136525Y-11430
X5080Y-136525
X5080Y-105410
X-52070Y64770
X102870Y70485
X-57785Y86995
X-52070Y-7620
X-132080Y-6350
X-52705Y86995
X-81280Y87630
X102870Y8255
X139065Y9525
X103505Y-91440
X25400Y-109220
X-1905Y-78105
X106045Y-79375
X-86995Y16510
X-108585Y58420
X-108585Y80010
X-2540Y-133350
X-1905Y-48895
X-88265Y-47625
X-88265Y-15240
X-136525Y-15240
X11430Y-136525
X-38100Y-133350
X-11430Y139065
X-6350Y106045
X49530Y105410
X49530Y120015
X101600Y-83185
X-26035Y-80645
X-34925Y-88900
X-57150Y-100330
X-87630Y-100330
X91440Y96520
X-3810Y94615
X-5080Y135890
X100330Y5715
X91440Y-79375
X36830Y-79375
X36830Y-126365
X-36830Y113665
X-36830Y117475
X67310Y118110
X-66040Y-40005
X-66040Y46355
X-110490Y49530
X-110490Y72390
X-113030Y81915
X-85725Y-81915
X-85725Y-71755
X-125730Y-67945
X-127000Y-55245
X33020Y-97790
X-72390Y-90805
X103505Y-90170
X33020Y-93980
X33020Y-132715
X116205Y-71120
X120650Y5715
X111760Y-71120
X111125Y-82550
X-49530Y-67310
X17780Y-67945
X17780Y-139065
X-78740Y-13970
X-136525Y31750
X-139065Y-13970
X92710Y104140
X-29210Y109855
X-29210Y136525
X101600Y53975
X76200Y29210
X-115570Y26035
X76200Y75565
X76200Y-67945
X82550Y-67945
X85090Y93345
X81915Y109220
X106680Y-80645
X82550Y-80645
X78740Y-84455
X73660Y-121285
X67310Y-125095
X-115570Y58420
X-131445Y60325
X-135255Y66675
X-64135Y-55245
X-114935Y-55245
X-115570Y-27305
X-49530Y-83185
X-48895Y-27305
X-113030Y-27305
X133985Y78105
X109220Y104775
X98425Y113665
X87630Y-60325
X88265Y12700
X135255Y12700
X30480Y-60960
X110490Y-60960
X118745Y-86995
X6350Y-135890
X6350Y-83185
X-67310Y-83185
X-83185Y-111760
X-88265Y65405
X-45720Y111125
X-57150Y111760
X-113030Y64770
X-113030Y-31115
X7620Y-79375
X8890Y-80645
X99695Y-83820
X-29845Y-80645
X-40005Y-80645
X-21590Y112395
X64770Y114935
X-21590Y67310
X-21590Y133985
X-117475Y75565
X-38100Y66040
X-36195Y-15240
X-135890Y-16510
X-135890Y-21590
X-38100Y-134620
X0Y-135255
X2540Y-143510
X137160Y12065
X101600Y11430
X99695Y-87630
X113665Y-81280
X-93345Y-29845
X-83185Y-88900
X-77470Y-111760
X-27940Y132715
X-27940Y98425
X-111760Y64135
X-111760Y-29845
X86995Y100965
X63500Y-118110
X24765Y-120650
X23495Y-115570
X69850Y19050
X69850Y-54610
X57150Y19050
X137160Y17145
X-32385Y73660
X58420Y75565
X57785Y100965
X-32385Y-19050
X-32385Y113665
X-101600Y-19050
X-110490Y10160
X-116840Y10160
X-116840Y63500
X-139700Y-43815
X-95885Y-43815
X-94615Y-94615
X130175Y-53975
X55245Y-55245
X53975Y-132715
X38100Y-146050
X59690Y82550
X59690Y99695
X-63500Y31115
X137795Y33020
X-44450Y80010
X-44450Y125095
X-58420Y-53975
X-59690Y-133350
X-63500Y-53975
X-63500Y60960
X-120650Y62865
X-123190Y65405
X-113665Y-52705
X109220Y-70485
X30480Y-69215
X30480Y-133985
X-97155Y69215
X-81915Y62865
X-115570Y63500
X-115570Y71755
X69850Y-76835
X106680Y-76835
X-26670Y-113030
X-12700Y-110490
X19050Y-110490
X23495Y-133350
X-71120Y-113030
X-71120Y-74930
X-79375Y-74930
X-79375Y-40005
X-107950Y-42545
X99060Y61595
X98425Y93980
X131445Y42545
X-109220Y52070
X-34925Y52070
X-139065Y-23495
X-132080Y27940
X-134620Y51435
X-134620Y60960
X-131445Y-51435
X-116840Y-59055
X-73660Y-85725
X-80010Y-115570
X88900Y99060
X-34925Y95885
X-34925Y138430
X150495Y-1270
X107950Y-105410
X71120Y-139700
X-45085Y-52705
X-46990Y67310
X-38100Y67310
X-111760Y-51435
X-140970Y54610
X-135890Y-50165
X30480Y-64135
X88900Y-64135
X88900Y-88265
X-29845Y-52705
X-28575Y-117475
X-78740Y-118110
X31750Y-51435
X31750Y-133985
X56515Y118745
X-37465Y118745
X-41275Y135890
X-114300Y24765
X-114300Y-12700
X22860Y-121285
X-99060Y-79375
X-107950Y-51435
X-118110Y69850
X97790Y13970
X115570Y13970
X60960Y101600
X-48260Y100965
X-48260Y142875
X60960Y34925
X60325Y108585
X-137795Y50165
X121285Y-55245
X132080Y35560
X21590Y-75565
X21590Y-62230
X120650Y-65405
X-78740Y-76200
X-8890Y-75565
X-8890Y-96520
X42545Y-95885
X42545Y-127635
X40005Y-130175
X-138430Y-45720
X-102870Y-47625
X-97155Y-88265
X-81915Y-113665
X-29845Y58420
X-30480Y138430
X55880Y-1905
X54610Y108585
X-67945Y55245
X-109220Y55245
X104775Y-1905
X134620Y-1905
X139065Y22860
X26670Y-53975
X106045Y-52705
X-66675Y-71755
X-13335Y-71755
X-13335Y-92075
X26670Y-92075
X26670Y-133350
X-138430Y-24765
X-64770Y-26035
X-67310Y-23495
X-72390Y-107950
X-71755Y-121285
X83185Y110490
X-53975Y110490
X19685Y-83820
X23495Y-123190
X96520Y16510
X118110Y15875
X114935Y-74295
X25400Y-136525
X25400Y-123825
X-118110Y-26670
X-139065Y-27940
X20320Y-51435
X24130Y-121920
X68580Y-120015
X68580Y-130175
X54610Y41910
X-15240Y135890
X-13970Y125095
X57150Y126365
X-36195Y43815
X-39370Y126365
X-58420Y-51435
X-58420Y44450
X-127635Y48895
X-130810Y58420
X-86995Y-92710
X-86995Y-51435
X-137160Y-48895
X105410Y-106045
X64770Y24130
X137795Y24130
X64770Y-65405
X64770Y68580
X57150Y68580
X57150Y99695
X72390Y118110
X-97790Y50800
X-130175Y50165
X-77470Y-13970
X-77470Y-39370
X-107950Y-50165
X-106680Y-73025
X-111125Y-73660
X-130810Y-41275
X-130810Y-45720
X-146050Y-41275
X22860Y-65405
X110490Y-65405
X134620Y-74930
X-14605Y-92075
X22860Y-93980
X24765Y-111125
X38100Y-114935
X36830Y-130175
X-66040Y-120015
X78740Y29210
X-24765Y54610
X78740Y54610
X29210Y-81915
X83185Y-81915
X83185Y-86995
X29210Y-60325
X29210Y-139065
X-24765Y13335
X-29210Y138430
X-92710Y8890
X-128270Y43180
X-124460Y62230
X-85725Y-93980
X-90170Y-88900
X-92075Y-28575
X-135890Y-31115
X-40640Y45720
X-33655Y-38735
X119380Y-39370
X-32385Y-120650
X-54610Y-120650
X-95885Y-92075
X-115570Y-73660
X-115570Y-79375
X33020Y-137795
X-32385Y-137160
X117475Y71120
X121920Y-45085
X-5080Y148590
X-74930Y114300
X-75565Y31115
X-133985Y30480
X-76200Y-3810
X-118745Y-3810
X-120650Y-55245
X0Y69850
X-74295Y69850
X34290Y102235
X34290Y134620
X92710Y5715
X99060Y5715
X99060Y55245
X120650Y55245
X140335Y-47625
X92710Y-47625
X84455Y-88265
X82550Y-112395
X59055Y-112395
X59055Y-135255
X74930Y-134620
X-74295Y111125
X-73025Y19050
X-132080Y19050
X-122555Y-74930
X-49530Y-106680
X-49530Y-142875
X83820Y-26035
X85090Y46990
X137795Y-31750
X56515Y-26035
X57150Y-132080
X-2540Y113665
X-2540Y132080
X32385Y137795
X-54610Y-10160
X-59055Y113665
X-50800Y-10160
X-137160Y-7620
X-133350Y24765
X-50800Y-81915
X-41275Y-86360
X90805Y67310
X90170Y-8890
X97155Y-8890
X67945Y80645
X-52070Y78740
X45720Y80010
X45720Y122555
X-53340Y81280
X-53975Y123825
X-57150Y36830
X-137795Y34925
X-146050Y38100
X-120650Y-75565
X-116840Y-62865
X-57150Y-62865
X-58420Y-149860
X139700Y-41910
X97155Y-41910
X81280Y-111125
X33020Y-48895
X112395Y-48895
X30480Y50165
X120650Y50165
X35560Y-114300
X62230Y-114935
X60960Y-132715
X30480Y40640
X30480Y130175
X-43180Y43180
X-48895Y-146685
X-41910Y-146685
X-125095Y43180
X-97155Y43180
X-93345Y46990
X-93345Y93980
X-79375Y116205
X-122555Y-69850
X-136525Y33020
X42545Y-86360
X-79375Y50800
X129540Y-30480
X125730Y38100
X44450Y45085
X43180Y130175
X-72390Y116840
X-73025Y56515
X-123190Y57150
X-143510Y38100
X80010Y-86995
X78740Y-114935
X69215Y-116840
X-27305Y-123190
X-26035Y-81915
X-91440Y88265
X37465Y85725
X-34925Y-100330
X-34290Y-127000
X-94615Y38735
X-91440Y94615
X-76835Y117475
X-123190Y-65405
X-123190Y-635
X-128270Y39370
X-137795Y31750
X24130Y-127635
X-45085Y-127000
X130175Y-39370
X123190Y69215
X38735Y69850
X36830Y137795
X107950Y-53340
X120650Y-53340
X-17145Y-100330
X-22225Y-46355
X-129540Y-45720
X-136525Y-66675
X73660Y-134620
X52705Y-140970
X52705Y-99695
X1270Y46990
X101600Y46355
X129540Y66040
X1270Y55880
X1270Y113665
X40005Y114935
X-80010Y99695
X-79375Y53340
X-137795Y52705
X-137795Y60960
X-142875Y57785
X41275Y-66675
X42545Y36195
X39370Y132080
X133985Y34290
X-132080Y38100
X-49530Y38735
X-55245Y132080
X-137795Y62865
X-137795Y51435
X-128905Y25400
X-130175Y-27305
X-139065Y-34290
X46355Y-80645
X64135Y-67945
X126365Y-62230
X46355Y-95885
X-70485Y-123190
X48260Y121285
X43815Y32385
X136525Y33020
X-49530Y-26035
X-46990Y137160
X-60960Y-33020
X-73660Y-123190
X-96520Y-32385
X-96520Y36195
X-132715Y50165
X-132715Y62865
X43815Y-32385
X-135890Y-32385
X112395Y-51435
X43815Y-51435
X43815Y-133350
X72390Y33655
X-40640Y107315
X73025Y109220
X-86995Y64135
X-117475Y66675
X72390Y-93980
X72390Y-75565
X119380Y-75565
X-73660Y-90805
X41275Y-94615
X-135890Y-33655
X40640Y139700
M30