M48
;GenerationSoftware,Autodesk,EAGLE,9.6.2*%
;CreationDate,2020-09-01T03:08:36Z*%
FMAT,2
ICI,OFF
METRIC,TZ,000.000
T4C0.254
T3C0.813
T2C1.016
T1C2.794
%
G90
M71
T1
X2540Y101606
X2540Y12694
T2
X19050Y5080
X19050Y2540
X16510Y5080
X16510Y2540
X13970Y5080
X13970Y2540
X10160Y96520
X10160Y93980
X10160Y91440
X10160Y88900
X10160Y86360
X10160Y83820
X10160Y81280
X10160Y78740
X10160Y76200
X10160Y73660
X10160Y71120
X10160Y68580
X10160Y66040
X10160Y63500
X10160Y60960
X10160Y58420
X7620Y96520
X7620Y93980
X7620Y91440
X7620Y88900
X7620Y86360
X7620Y83820
X7620Y81280
X7620Y78740
X7620Y76200
X7620Y73660
X7620Y71120
X7620Y68580
X7620Y66040
X7620Y63500
X7620Y60960
X7620Y58420
X5080Y96520
X5080Y93980
X5080Y91440
X5080Y88900
X5080Y86360
X5080Y83820
X5080Y81280
X5080Y78740
X5080Y76200
X5080Y73660
X5080Y71120
X5080Y68580
X5080Y66040
X5080Y63500
X5080Y60960
X5080Y58420
X10160Y55880
X10160Y53340
X10160Y50800
X10160Y48260
X10160Y45720
X21590Y5080
X10160Y40640
X10160Y38100
X10160Y35560
X10160Y33020
X10160Y30480
X10160Y27940
X10160Y25400
X10160Y22860
X10160Y20320
X10160Y17780
X7620Y55880
X7620Y53340
X7620Y50800
X7620Y48260
X7620Y45720
X7620Y43180
X7620Y40640
X7620Y38100
X7620Y35560
X7620Y33020
X7620Y30480
X7620Y27940
X7620Y25400
X7620Y22860
X7620Y20320
X7620Y17780
X5080Y55880
X5080Y53340
X5080Y50800
X5080Y48260
X5080Y45720
X5080Y43180
X5080Y40640
X5080Y38100
X5080Y35560
X5080Y33020
X5080Y30480
X5080Y27940
X5080Y25400
X5080Y22860
X5080Y20320
X5080Y17780
X15240Y111760
X15240Y109220
X12700Y111760
X12700Y109220
X10160Y111760
X10160Y109220
X7620Y111760
X7620Y109220
X10160Y5080
X10160Y2540
X7620Y5080
X7620Y2540
X5080Y5080
X5080Y2540
X2540Y5080
X2540Y2540
X21590Y2540
X10160Y43180
T3
X76200Y7620
X109220Y15240
X76200Y5080
X39370Y41910
X39370Y39370
X39370Y54610
X39370Y52070
X31750Y68580
X31750Y66040
X31750Y78740
X31750Y76200
X31750Y92710
X31750Y90170
X39370Y105410
X39370Y102870
X22860Y39370
X20320Y39370
X22860Y67310
X20320Y67310
X22860Y95250
X20320Y95250
X152400Y22860
X154940Y22860
X157480Y22860
X160020Y22860
X162560Y22860
X165100Y22860
X167640Y22860
X170180Y22860
X172720Y22860
X175260Y22860
X175260Y15240
X172720Y15240
X162560Y15240
X165100Y15240
X160020Y15240
X157480Y15240
X170180Y15240
X167640Y15240
X154940Y15240
X152400Y15240
X152400Y73660
X154940Y73660
X157480Y73660
X160020Y73660
X162560Y73660
X165100Y73660
X167640Y73660
X170180Y73660
X172720Y73660
X175260Y73660
X175260Y66040
X172720Y66040
X162560Y66040
X165100Y66040
X160020Y66040
X157480Y66040
X170180Y66040
X167640Y66040
X154940Y66040
X152400Y66040
X152400Y10160
X154940Y10160
X157480Y10160
X160020Y10160
X162560Y10160
X165100Y10160
X162560Y2540
X165100Y2540
X160020Y2540
X157480Y2540
X167640Y10160
X167640Y2540
X154940Y2540
X152400Y2540
X152400Y35560
X154940Y35560
X157480Y35560
X160020Y35560
X162560Y35560
X165100Y35560
X167640Y35560
X170180Y35560
X172720Y35560
X175260Y35560
X175260Y27940
X172720Y27940
X162560Y27940
X165100Y27940
X160020Y27940
X157480Y27940
X170180Y27940
X167640Y27940
X154940Y27940
X152400Y27940
X152400Y86360
X154940Y86360
X157480Y86360
X160020Y86360
X162560Y86360
X165100Y86360
X167640Y86360
X170180Y86360
X172720Y86360
X175260Y86360
X175260Y78740
X172720Y78740
X162560Y78740
X165100Y78740
X160020Y78740
X157480Y78740
X170180Y78740
X167640Y78740
X154940Y78740
X152400Y78740
X157480Y48260
X160020Y48260
X162560Y48260
X165100Y48260
X167640Y48260
X170180Y48260
X172720Y48260
X175260Y48260
X167640Y40640
X170180Y40640
X165100Y40640
X162560Y40640
X175260Y40640
X172720Y40640
X160020Y40640
X157480Y40640
X157480Y60960
X160020Y60960
X162560Y60960
X165100Y60960
X167640Y60960
X170180Y60960
X172720Y60960
X175260Y60960
X167640Y53340
X170180Y53340
X165100Y53340
X162560Y53340
X175260Y53340
X172720Y53340
X160020Y53340
X157480Y53340
X157480Y99060
X160020Y99060
X162560Y99060
X165100Y99060
X167640Y99060
X170180Y99060
X172720Y99060
X175260Y99060
X167640Y91440
X170180Y91440
X165100Y91440
X162560Y91440
X175260Y91440
X172720Y91440
X160020Y91440
X157480Y91440
X157480Y111760
X160020Y111760
X162560Y111760
X165100Y111760
X167640Y111760
X170180Y111760
X172720Y111760
X175260Y111760
X167640Y104140
X170180Y104140
X165100Y104140
X162560Y104140
X175260Y104140
X172720Y104140
X160020Y104140
X157480Y104140
X125730Y48260
X128270Y48260
X130810Y48260
X133350Y48260
X135890Y48260
X138430Y48260
X140970Y48260
X143510Y48260
X146050Y48260
X148590Y48260
X148590Y40640
X146050Y40640
X135890Y40640
X138430Y40640
X133350Y40640
X130810Y40640
X143510Y40640
X140970Y40640
X128270Y40640
X125730Y40640
X125730Y60960
X128270Y60960
X130810Y60960
X133350Y60960
X135890Y60960
X138430Y60960
X140970Y60960
X143510Y60960
X146050Y60960
X148590Y60960
X148590Y53340
X146050Y53340
X135890Y53340
X138430Y53340
X133350Y53340
X130810Y53340
X143510Y53340
X140970Y53340
X128270Y53340
X125730Y53340
X43180Y57150
X45720Y57150
X48260Y57150
X50800Y57150
X53340Y57150
X55880Y57150
X53340Y49530
X55880Y49530
X50800Y49530
X48260Y49530
X58420Y57150
X58420Y49530
X45720Y49530
X43180Y49530
X128270Y10160
X130810Y10160
X133350Y10160
X135890Y10160
X138430Y10160
X140970Y10160
X138430Y2540
X140970Y2540
X135890Y2540
X133350Y2540
X143510Y10160
X143510Y2540
X130810Y2540
X128270Y2540
X125730Y99060
X128270Y99060
X130810Y99060
X133350Y99060
X135890Y99060
X138430Y99060
X140970Y99060
X143510Y99060
X146050Y99060
X148590Y99060
X148590Y91440
X146050Y91440
X135890Y91440
X138430Y91440
X133350Y91440
X130810Y91440
X143510Y91440
X140970Y91440
X128270Y91440
X125730Y91440
X125730Y111760
X128270Y111760
X130810Y111760
X133350Y111760
X135890Y111760
X138430Y111760
X140970Y111760
X143510Y111760
X146050Y111760
X116840Y2540
X148590Y111760
X148590Y104140
X146050Y104140
X135890Y104140
X138430Y104140
X133350Y104140
X130810Y104140
X143510Y104140
X140970Y104140
X128270Y104140
X125730Y104140
X125730Y35560
X128270Y35560
X130810Y35560
X133350Y35560
X135890Y35560
X138430Y35560
X140970Y35560
X143510Y35560
X135890Y27940
X138430Y27940
X133350Y27940
X130810Y27940
X143510Y27940
X140970Y27940
X128270Y27940
X125730Y27940
X125730Y73660
X128270Y73660
X130810Y73660
X133350Y73660
X135890Y73660
X138430Y73660
X140970Y73660
X143510Y73660
X135890Y66040
X138430Y66040
X133350Y66040
X130810Y66040
X143510Y66040
X140970Y66040
X128270Y66040
X125730Y66040
X125730Y86360
X128270Y86360
X130810Y86360
X133350Y86360
X135890Y86360
X138430Y86360
X140970Y86360
X143510Y86360
X135890Y78740
X138430Y78740
X133350Y78740
X130810Y78740
X143510Y78740
X140970Y78740
X128270Y78740
X125730Y78740
X125730Y22860
X128270Y22860
X130810Y22860
X133350Y22860
X135890Y22860
X138430Y22860
X140970Y22860
X143510Y22860
X135890Y15240
X138430Y15240
X133350Y15240
X130810Y15240
X143510Y15240
X140970Y15240
X128270Y15240
X125730Y15240
X93980Y22860
X96520Y22860
X99060Y22860
X101600Y22860
X104140Y22860
X106680Y22860
X109220Y22860
X111760Y22860
X114300Y22860
X116840Y22860
X116840Y15240
X114300Y15240
X104140Y15240
X106680Y15240
X101600Y15240
X99060Y15240
X111760Y15240
X96520Y15240
X93980Y15240
X93980Y35560
X96520Y35560
X99060Y35560
X101600Y35560
X104140Y35560
X106680Y35560
X109220Y35560
X111760Y35560
X114300Y35560
X116840Y35560
X116840Y27940
X114300Y27940
X104140Y27940
X106680Y27940
X101600Y27940
X99060Y27940
X111760Y27940
X109220Y27940
X96520Y27940
X93980Y27940
X104140Y10160
X106680Y10160
X109220Y10160
X111760Y10160
X114300Y10160
X116840Y10160
X114300Y2540
X111760Y2540
X109220Y2540
X119380Y10160
X119380Y2540
X106680Y2540
X104140Y2540
X93980Y73660
X96520Y73660
X99060Y73660
X101600Y73660
X104140Y73660
X106680Y73660
X109220Y73660
X111760Y73660
X114300Y73660
X116840Y73660
X116840Y66040
X114300Y66040
X104140Y66040
X106680Y66040
X101600Y66040
X99060Y66040
X111760Y66040
X109220Y66040
X96520Y66040
X93980Y66040
X100330Y5080
X100330Y7620
X90170Y17780
X90170Y20320
X63500Y55880
X63500Y58420
X63500Y68580
X63500Y71120
X63500Y106680
X63500Y109220
X63500Y93980
X63500Y96520
X63500Y81280
X63500Y83820
X95250Y55880
X95250Y58420
X124460Y5080
X124460Y7620
X63500Y17780
X63500Y20320
X39370Y13970
X39370Y16510
X90170Y30480
X90170Y33020
X39370Y26670
X39370Y29210
X63500Y43180
X63500Y45720
X95250Y93980
X95250Y96520
X90170Y81280
X90170Y83820
X63500Y30480
X63500Y33020
X121920Y43180
X121920Y45720
X121920Y55880
X121920Y58420
X148590Y5080
X148590Y7620
X121920Y68580
X121920Y71120
X121920Y81280
X121920Y83820
X121920Y106680
X121920Y109220
X121920Y93980
X121920Y96520
X153670Y106680
X153670Y109220
X153670Y93980
X153670Y96520
X153670Y43180
X153670Y45720
X148590Y17780
X148590Y20320
X148590Y81280
X148590Y83820
X153670Y55880
X153670Y58420
X121920Y30480
X121920Y33020
X148590Y30480
X148590Y33020
X148590Y68580
X148590Y71120
X95250Y106680
X95250Y109220
X90170Y68580
X90170Y71120
X95250Y43180
X95250Y45720
X121920Y17780
X121920Y20320
X17780Y35560
X17780Y33020
X17780Y20320
X17780Y17780
X17780Y30480
X17780Y27940
X17780Y22860
X17780Y25400
X25400Y17780
X25400Y20320
X25400Y22860
X25400Y25400
X25400Y27940
X25400Y30480
X25400Y33020
X25400Y35560
X35560Y74930
X38100Y74930
X50800Y74930
X53340Y74930
X40640Y74930
X43180Y74930
X48260Y74930
X45720Y74930
X55880Y74930
X58420Y74930
X58420Y82550
X55880Y82550
X53340Y82550
X50800Y82550
X48260Y82550
X45720Y82550
X43180Y82550
X40640Y82550
X38100Y82550
X35560Y82550
X17780Y63500
X17780Y60960
X17780Y48260
X17780Y45720
X17780Y58420
X17780Y55880
X17780Y50800
X17780Y53340
X25400Y45720
X25400Y48260
X25400Y50800
X25400Y53340
X25400Y55880
X25400Y58420
X25400Y60960
X25400Y63500
X35560Y62230
X38100Y62230
X50800Y62230
X53340Y62230
X40640Y62230
X43180Y62230
X48260Y62230
X45720Y62230
X55880Y62230
X58420Y62230
X58420Y69850
X55880Y69850
X53340Y69850
X50800Y69850
X48260Y69850
X45720Y69850
X43180Y69850
X40640Y69850
X38100Y69850
X35560Y69850
X67310Y15240
X69850Y15240
X82550Y15240
X85090Y15240
X72390Y15240
X74930Y15240
X80010Y15240
X77470Y15240
X85090Y22860
X82550Y22860
X80010Y22860
X77470Y22860
X74930Y22860
X72390Y22860
X69850Y22860
X67310Y22860
X35560Y87630
X38100Y87630
X50800Y87630
X53340Y87630
X40640Y87630
X43180Y87630
X48260Y87630
X45720Y87630
X55880Y87630
X58420Y87630
X58420Y95250
X55880Y95250
X53340Y95250
X50800Y95250
X48260Y95250
X45720Y95250
X43180Y95250
X40640Y95250
X38100Y95250
X35560Y95250
X67310Y27940
X69850Y27940
X82550Y27940
X85090Y27940
X72390Y27940
X74930Y27940
X80010Y27940
X77470Y27940
X85090Y35560
X82550Y35560
X80010Y35560
X77470Y35560
X74930Y35560
X72390Y35560
X69850Y35560
X67310Y35560
X67310Y66040
X69850Y66040
X82550Y66040
X85090Y66040
X72390Y66040
X74930Y66040
X80010Y66040
X77470Y66040
X85090Y73660
X82550Y73660
X80010Y73660
X77470Y73660
X74930Y73660
X72390Y73660
X69850Y73660
X67310Y73660
X67310Y78740
X69850Y78740
X82550Y78740
X85090Y78740
X72390Y78740
X74930Y78740
X80010Y78740
X77470Y78740
X85090Y86360
X82550Y86360
X80010Y86360
X77470Y86360
X74930Y86360
X72390Y86360
X69850Y86360
X67310Y86360
X67310Y91440
X69850Y91440
X82550Y91440
X85090Y91440
X72390Y91440
X74930Y91440
X80010Y91440
X77470Y91440
X87630Y91440
X90170Y91440
X90170Y99060
X87630Y99060
X85090Y99060
X82550Y99060
X80010Y99060
X77470Y99060
X74930Y99060
X72390Y99060
X69850Y99060
X67310Y99060
X93980Y86360
X69850Y104140
X82550Y104140
X85090Y104140
X72390Y104140
X74930Y104140
X80010Y104140
X77470Y104140
X87630Y104140
X90170Y104140
X90170Y111760
X87630Y111760
X85090Y111760
X82550Y111760
X80010Y111760
X77470Y111760
X74930Y111760
X72390Y111760
X69850Y111760
X67310Y111760
X96520Y86360
X99060Y86360
X101600Y86360
X104140Y86360
X106680Y86360
X109220Y86360
X111760Y86360
X114300Y86360
X116840Y86360
X116840Y78740
X114300Y78740
X104140Y78740
X106680Y78740
X101600Y78740
X99060Y78740
X111760Y78740
X69850Y6350
X67310Y6350
X64770Y6350
X62230Y6350
X59690Y6350
X57150Y6350
X54610Y6350
X52070Y6350
X49530Y6350
X45720Y6350
X43180Y6350
X40640Y6350
X38100Y6350
X35560Y6350
X33020Y6350
X30480Y6350
X27940Y6350
X25400Y6350
X109220Y78740
X96520Y78740
X93980Y78740
X99060Y48260
X101600Y48260
X104140Y48260
X106680Y48260
X109220Y48260
X111760Y48260
X114300Y48260
X116840Y48260
X109220Y40640
X111760Y40640
X106680Y40640
X104140Y40640
X116840Y40640
X114300Y40640
X101600Y40640
X99060Y40640
X99060Y60960
X101600Y60960
X104140Y60960
X106680Y60960
X109220Y60960
X111760Y60960
X114300Y60960
X116840Y60960
X109220Y53340
X111760Y53340
X106680Y53340
X104140Y53340
X116840Y53340
X114300Y53340
X101600Y53340
X99060Y53340
X99060Y99060
X101600Y99060
X104140Y99060
X106680Y99060
X109220Y99060
X111760Y99060
X114300Y99060
X116840Y99060
X109220Y91440
X111760Y91440
X106680Y91440
X104140Y91440
X116840Y91440
X114300Y91440
X101600Y91440
X99060Y91440
X99060Y111760
X101600Y111760
X104140Y111760
X106680Y111760
X109220Y111760
X111760Y111760
X114300Y111760
X116840Y111760
X109220Y104140
X111760Y104140
X106680Y104140
X104140Y104140
X116840Y104140
X114300Y104140
X101600Y104140
X99060Y104140
X67310Y48260
X69850Y48260
X72390Y48260
X74930Y48260
X77470Y48260
X80010Y48260
X82550Y48260
X85090Y48260
X87630Y48260
X90170Y48260
X90170Y40640
X87630Y40640
X77470Y40640
X80010Y40640
X74930Y40640
X72390Y40640
X85090Y40640
X82550Y40640
X69850Y40640
X67310Y40640
X67310Y60960
X69850Y60960
X72390Y60960
X74930Y60960
X77470Y60960
X80010Y60960
X82550Y60960
X85090Y60960
X87630Y60960
X173990Y3810
X171450Y3810
X26670Y12700
X16510Y12700
X43180Y24130
X45720Y24130
X58420Y24130
X58420Y31750
X48260Y24130
X50800Y24130
X55880Y24130
X53340Y24130
X55880Y31750
X53340Y31750
X50800Y31750
X48260Y31750
X45720Y31750
X43180Y31750
X80010Y2540
X82550Y2540
X95250Y2540
X95250Y10160
X85090Y2540
X87630Y2540
X92710Y2540
X90170Y2540
X92710Y10160
X90170Y10160
X87630Y10160
X85090Y10160
X82550Y10160
X80010Y10160
X43180Y100330
X45720Y100330
X58420Y100330
X58420Y107950
X48260Y100330
X50800Y100330
X55880Y100330
X53340Y100330
X55880Y107950
X53340Y107950
X50800Y107950
X48260Y107950
X45720Y107950
X43180Y107950
X43180Y11430
X45720Y11430
X58420Y11430
X58420Y19050
X48260Y11430
X50800Y11430
X55880Y11430
X53340Y11430
X55880Y19050
X53340Y19050
X50800Y19050
X48260Y19050
X45720Y19050
X43180Y19050
X17780Y91440
X17780Y88900
X17780Y76200
X17780Y73660
X17780Y86360
X17780Y83820
X17780Y78740
X17780Y81280
X25400Y73660
X25400Y76200
X25400Y78740
X25400Y81280
X25400Y83820
X25400Y86360
X25400Y88900
X25400Y91440
X90170Y60960
X90170Y53340
X87630Y53340
X77470Y53340
X80010Y53340
X74930Y53340
X72390Y53340
X67310Y104140
X43180Y36830
X45720Y36830
X58420Y36830
X58420Y44450
X48260Y36830
X50800Y36830
X55880Y36830
X53340Y36830
X55880Y44450
X53340Y44450
X50800Y44450
X48260Y44450
X45720Y44450
X43180Y44450
X67310Y53340
X69850Y53340
X82550Y53340
X85090Y53340
T4
X119062Y20638
X68898Y89852
X90487Y108267
X98107Y108267
X149860Y105727
X62865Y91757
X65723Y106045
X150178Y80328
X129222Y32702
X122555Y33973
X120332Y77788
X119062Y6667
X83503Y106362
X98107Y107632
X65723Y90487
X151448Y76518
X66675Y106362
X122237Y47942
X108267Y64452
X63182Y14287
X139065Y20003
X103822Y81598
X76518Y96837
X115252Y102870
X163513Y106362
X141923Y7937
X171133Y8573
X116840Y107632
X148908Y22860
X63182Y78423
X84773Y80963
X98425Y82233
X49212Y79693
X96837Y105727
X60007Y70485
X54292Y104140
X97472Y110807
X62547Y72708
X62547Y91122
X162243Y89535
X125412Y80963
X104457Y82868
X162243Y83503
X61912Y4763
X57467Y104775
X65087Y104775
X93662Y92392
X93662Y108902
X145098Y84773
X167323Y88582
X145098Y89217
X56832Y54927
X84138Y56197
X82233Y93662
X113347Y94297
X118745Y87947
X55880Y4763
X64452Y72708
X59372Y73660
X93662Y75248
X117792Y108902
X96837Y109220
X48260Y14287
X71438Y18733
X129857Y49847
X104457Y46037
X72390Y69215
X103187Y69533
X92392Y56197
X78423Y84773
X78423Y72390
X86678Y21273
X64452Y24447
X64452Y66675
X91757Y64452
X79058Y12382
X79375Y33338
X87313Y84138
X151130Y62547
X172403Y30797
X150495Y32702
X145733Y75248
X115887Y68263
X91757Y38418
X91757Y54927
X101282Y58737
X87947Y67628
X91757Y63817
X99377Y55562
X108267Y57467
X125095Y93662
X156528Y29527
X42545Y26352
X82233Y87947
X124142Y30797
X127000Y49212
X55245Y38418
X82233Y37783
X163513Y56197
X113982Y63817
X140018Y89217
X76518Y84773
X140018Y69215
X163513Y69533
X83503Y67628
X172720Y25082
X144463Y67310
X35243Y26035
X83185Y30797
X97472Y38418
X116522Y58737
X100012Y58102
X117157Y63817
X123507Y92392
X123507Y63817
X33020Y22225
X100012Y100330
X101282Y50482
X98107Y50482
X101917Y44132
X57467Y98107
X129222Y42545
X26987Y44767
X26987Y35243
X169863Y25717
X161608Y32067
X155258Y30162
X168593Y51435
X171133Y33973
X169228Y77153
X159703Y75248
X158433Y80963
X156528Y92710
X169863Y94615
X174308Y72390
X164148Y45402
X155258Y25717
X153035Y51117
X51117Y53022
X152718Y88582
X61912Y88582
X61912Y60007
X173673Y88265
X171768Y42228
X159068Y38418
X173038Y42863
X76518Y18098
X166688Y42863
X147638Y70168
X127317Y72390
X147003Y28892
X135573Y80963
X131128Y95567
X131763Y64770
X131763Y42228
X131128Y70803
X147638Y75248
X129222Y64770
X140653Y63500
X136208Y80963
X137478Y62865
X132398Y81598
X128587Y81598
X144463Y80963
X131763Y68580
X148273Y66993
X142558Y62230
X144145Y45720
X142558Y43498
X138113Y56832
X126682Y57467
X140018Y51752
X148590Y72708
X126682Y46037
X122872Y72708
X124142Y108902
X47942Y8255
X62547Y22225
X147003Y37783
X145733Y71438
X124142Y101282
X125412Y101282
X105092Y101282
X104775Y89217
X61277Y87947
X60642Y51117
X125412Y101917
X71120Y102552
X60642Y53022
X147320Y21273
X150495Y58102
X138430Y20638
X144463Y18733
X134303Y67945
X115887Y64452
X113347Y32067
X102552Y31432
X108585Y42863
X101282Y30162
X112712Y30162
X105092Y43498
X115887Y42863
X112712Y70803
X112077Y58737
X105727Y58737
X111442Y50482
X103187Y50482
X101917Y56197
X112712Y57467
X99695Y32067
X116522Y50482
X112395Y16828
X113982Y80645
X119062Y37783
X109537Y89217
X107632Y71438
X120332Y71120
X119062Y37148
X98107Y55562
X105092Y82233
X97155Y80963
X118427Y80963
X118427Y36513
X120332Y84138
X120967Y26352
X102552Y87947
X112395Y105727
X124142Y85408
X124142Y54292
X122237Y52387
X118427Y30797
X96837Y30162
X60007Y75883
X94297Y83503
X94932Y101282
X59372Y103505
X119062Y30797
X113665Y70803
X119697Y30797
X13335Y9525
X36513Y14605
X35243Y57467
X26987Y57785
X30162Y33020
X30162Y83185
X12700Y34608
X18733Y37148
X127317Y63182
X91122Y66993
X89217Y76518
X95567Y63182
X65087Y70485
X63817Y77788
X16192Y70803
X4445Y24130
X31750Y63500
X34608Y66993
X3175Y52387
X29527Y87313
X29527Y44767
X48260Y42228
X35243Y51752
X6350Y60007
X39053Y60007
X43498Y60007
X52387Y54927
X88582Y23177
X61912Y25082
X61277Y39688
X39053Y56832
X11430Y61595
X33338Y56197
X37148Y96837
X43815Y53657
X11747Y54292
X37148Y33020
X37148Y41593
X20320Y41593
X15240Y80963
X48577Y20955
X54927Y35560
X35878Y11747
X38418Y635
X33655Y16510
X87947Y30162
X68580Y30162
X28257Y89217
X28257Y58737
X42863Y54927
X28575Y24765
X21590Y86043
X16192Y63500
X39370Y31432
X131763Y13652
X72073Y49847
X16192Y49530
X15875Y57467
X20955Y40323
X12700Y48260
X160655Y17463
X108267Y39053
X106997Y18098
X109537Y19368
X141923Y19368
X82233Y44767
X46672Y46037
X46355Y51752
X12065Y51435
X140018Y13017
X87313Y50482
X63817Y51117
X63182Y53657
X11430Y52705
X145733Y18098
X95250Y19368
X84138Y19368
X42863Y1905
X20320Y3175
X16510Y16510
X2540Y37465
X145098Y26352
X109537Y6032
X166688Y6667
X100330Y31432
X29527Y34608
X28892Y42863
X12065Y42863
X98107Y44767
X82868Y44767
X167640Y46672
X80328Y43498
X12065Y41593
X131128Y42863
X153988Y39053
X72073Y45402
X40323Y46672
X38418Y43498
X66993Y43498
X11112Y41910
X154623Y56832
X84138Y54610
X87313Y25082
X98742Y25082
X91757Y4763
X12065Y4445
X1270Y38100
X91122Y51752
X91757Y25717
X103187Y25717
X114617Y42863
X114617Y56832
X97155Y32067
X40640Y37465
X38418Y38418
X11430Y38418
X167323Y62547
X141288Y57467
X115252Y25717
X144463Y25717
X93662Y47307
X93662Y46037
X12700Y46355
X171768Y44767
X145098Y46037
X157163Y32067
X158433Y68898
X87313Y55562
X33973Y55245
X15875Y33338
X89217Y36513
X146368Y65723
X98425Y83503
X145098Y82550
X48577Y55562
X47942Y52387
X33973Y50482
X32067Y26352
X109537Y33338
X95567Y33338
X94297Y57785
X82868Y58737
X145098Y63817
X49847Y59372
X49847Y33655
X38418Y33020
X37148Y15240
X6032Y15240
X160973Y62547
X160973Y72073
X112712Y55562
X93345Y5398
X12065Y6985
X3175Y20955
X131128Y58737
X153035Y59372
X93662Y60007
X95567Y37783
X37783Y18415
X48895Y16828
X49212Y67628
X37465Y66358
X57467Y63500
X51752Y28892
X51752Y71120
X8890Y25082
X42228Y22860
X46672Y71438
X13652Y28257
X28575Y21590
X33338Y70485
X45402Y77788
X30797Y85408
X13335Y74613
X37783Y80963
X11430Y93345
X48895Y72073
X11747Y72073
X12382Y70803
X44767Y72708
X41275Y71438
X28257Y37148
X22542Y85408
X145098Y12382
X143193Y25082
X67628Y26352
X60007Y17780
X113982Y13017
X108585Y13017
X44767Y14922
X40958Y20955
X20638Y46672
X13970Y53657
X14922Y60007
X28257Y53975
X20955Y6350
X21590Y10795
X22542Y50482
X22860Y9525
X22542Y53022
X23495Y14605
X22542Y53657
X24130Y15875
X45402Y21590
X27940Y23177
X19685Y20320
X32067Y60642
X32067Y30162
X55880Y27622
X47307Y58420
X23812Y55562
X15240Y49530
X14605Y44450
X138748Y12382
X133033Y12382
X44767Y14287
X40958Y20320
X14605Y39053
X14605Y30797
X13652Y28892
X13970Y48895
X13970Y31432
X82233Y25717
X56197Y52387
X63182Y52387
X63817Y37148
X146368Y30162
X21907Y58102
X21590Y20955
X18733Y952
X79058Y1270
X84455Y6032
X123190Y4763
X42863Y46037
X15240Y44132
X7302Y11112
X96202Y7620
X20320Y8890
X20320Y25082
X32702Y27622
X32067Y62547
X30797Y63817
X37148Y2540
X35243Y26987
X77153Y45402
X76518Y71755
X84138Y72390
X78423Y33655
X86678Y38418
X76518Y38418
X68263Y80328
X68263Y82868
X89852Y42863
X70803Y41910
X85090Y45402
X86995Y45402
X88265Y96202
X86678Y63817
X70485Y56832
X93027Y57150
X73343Y39053
X65723Y70485
X64452Y95567
X88900Y96202
X73978Y67310
X79693Y69850
X75883Y69850
X73978Y83503
X84773Y64452
X89217Y69850
X70803Y67628
X86043Y75248
X79693Y82868
X71438Y84138
X69215Y108267
X84773Y109537
X69215Y58737
X73343Y93662
X91122Y96837
X72073Y54927
X59372Y20955
X151765Y50482
X151765Y37148
X115252Y94932
X117792Y50482
X114617Y70803
X88582Y71438
X27622Y9525
X119697Y72073
X119697Y47307
X81598Y82233
X82868Y94297
X83503Y71120
X31432Y19685
X167640Y37783
X121602Y37783
X99377Y38418
X47307Y7620
X97472Y16828
X64452Y7937
X124777Y38418
X119697Y96202
X119697Y75248
X62230Y42228
X40958Y39688
M30