G04 EAGLE Gerber RS-274X export*
G75*
%MOMM*%
%FSLAX34Y34*%
%LPD*%
%INBottom Copper*%
%IPPOS*%
%AMOC8*
5,1,8,0,0,1.08239X$1,22.5*%
G01*
%ADD10P,1.319650X8X112.500000*%
%ADD11C,1.219200*%
%ADD12P,2.034460X8X22.500000*%
%ADD13P,1.649562X8X202.500000*%
%ADD14P,1.319650X8X202.500000*%
%ADD15P,1.319650X8X22.500000*%
%ADD16C,0.127000*%
%ADD17C,0.457200*%


D10*
X1003300Y50800D03*
X1003300Y76200D03*
X901700Y177800D03*
X901700Y203200D03*
X635000Y558800D03*
X635000Y584200D03*
X635000Y685800D03*
X635000Y711200D03*
X635000Y1066800D03*
X635000Y1092200D03*
X635000Y939800D03*
X635000Y965200D03*
X635000Y812800D03*
X635000Y838200D03*
X952500Y558800D03*
X952500Y584200D03*
X1244600Y50800D03*
X1244600Y76200D03*
X635000Y177800D03*
X635000Y203200D03*
X393700Y139700D03*
X393700Y165100D03*
X901700Y304800D03*
X901700Y330200D03*
X393700Y266700D03*
X393700Y292100D03*
X635000Y431800D03*
X635000Y457200D03*
X952500Y939800D03*
X952500Y965200D03*
X901700Y812800D03*
X901700Y838200D03*
X635000Y304800D03*
X635000Y330200D03*
X1219200Y431800D03*
X1219200Y457200D03*
X1219200Y558800D03*
X1219200Y584200D03*
X1485900Y50800D03*
X1485900Y76200D03*
X1219200Y685800D03*
X1219200Y711200D03*
X1219200Y812800D03*
X1219200Y838200D03*
X1219200Y1066800D03*
X1219200Y1092200D03*
X1219200Y939800D03*
X1219200Y965200D03*
X1536700Y1066800D03*
X1536700Y1092200D03*
X1536700Y939800D03*
X1536700Y965200D03*
X1536700Y431800D03*
X1536700Y457200D03*
X1485900Y177800D03*
X1485900Y203200D03*
X1485900Y812800D03*
X1485900Y838200D03*
X1536700Y558800D03*
X1536700Y584200D03*
X1219200Y304800D03*
X1219200Y330200D03*
X1485900Y304800D03*
X1485900Y330200D03*
X1485900Y685800D03*
X1485900Y711200D03*
X952500Y1066800D03*
X952500Y1092200D03*
X901700Y685800D03*
X901700Y711200D03*
X952500Y431800D03*
X952500Y457200D03*
X1219200Y177800D03*
X1219200Y203200D03*
D11*
X183896Y355600D02*
X171704Y355600D01*
X171704Y330200D02*
X183896Y330200D01*
X183896Y203200D02*
X171704Y203200D01*
X171704Y177800D02*
X183896Y177800D01*
X183896Y304800D02*
X171704Y304800D01*
X171704Y279400D02*
X183896Y279400D01*
X183896Y228600D02*
X171704Y228600D01*
X171704Y254000D02*
X183896Y254000D01*
X247904Y177800D02*
X260096Y177800D01*
X260096Y203200D02*
X247904Y203200D01*
X247904Y228600D02*
X260096Y228600D01*
X260096Y254000D02*
X247904Y254000D01*
X247904Y279400D02*
X260096Y279400D01*
X260096Y304800D02*
X247904Y304800D01*
X247904Y330200D02*
X260096Y330200D01*
X260096Y355600D02*
X247904Y355600D01*
X355600Y743204D02*
X355600Y755396D01*
X381000Y755396D02*
X381000Y743204D01*
X508000Y743204D02*
X508000Y755396D01*
X533400Y755396D02*
X533400Y743204D01*
X406400Y743204D02*
X406400Y755396D01*
X431800Y755396D02*
X431800Y743204D01*
X482600Y743204D02*
X482600Y755396D01*
X457200Y755396D02*
X457200Y743204D01*
X558800Y743204D02*
X558800Y755396D01*
X584200Y755396D02*
X584200Y743204D01*
X584200Y819404D02*
X584200Y831596D01*
X558800Y831596D02*
X558800Y819404D01*
X533400Y819404D02*
X533400Y831596D01*
X508000Y831596D02*
X508000Y819404D01*
X482600Y819404D02*
X482600Y831596D01*
X457200Y831596D02*
X457200Y819404D01*
X431800Y819404D02*
X431800Y831596D01*
X406400Y831596D02*
X406400Y819404D01*
X381000Y819404D02*
X381000Y831596D01*
X355600Y831596D02*
X355600Y819404D01*
X183896Y635000D02*
X171704Y635000D01*
X171704Y609600D02*
X183896Y609600D01*
X183896Y482600D02*
X171704Y482600D01*
X171704Y457200D02*
X183896Y457200D01*
X183896Y584200D02*
X171704Y584200D01*
X171704Y558800D02*
X183896Y558800D01*
X183896Y508000D02*
X171704Y508000D01*
X171704Y533400D02*
X183896Y533400D01*
X247904Y457200D02*
X260096Y457200D01*
X260096Y482600D02*
X247904Y482600D01*
X247904Y508000D02*
X260096Y508000D01*
X260096Y533400D02*
X247904Y533400D01*
X247904Y558800D02*
X260096Y558800D01*
X260096Y584200D02*
X247904Y584200D01*
X247904Y609600D02*
X260096Y609600D01*
X260096Y635000D02*
X247904Y635000D01*
X355600Y628396D02*
X355600Y616204D01*
X381000Y616204D02*
X381000Y628396D01*
X508000Y628396D02*
X508000Y616204D01*
X533400Y616204D02*
X533400Y628396D01*
X406400Y628396D02*
X406400Y616204D01*
X431800Y616204D02*
X431800Y628396D01*
X482600Y628396D02*
X482600Y616204D01*
X457200Y616204D02*
X457200Y628396D01*
X558800Y628396D02*
X558800Y616204D01*
X584200Y616204D02*
X584200Y628396D01*
X584200Y692404D02*
X584200Y704596D01*
X558800Y704596D02*
X558800Y692404D01*
X533400Y692404D02*
X533400Y704596D01*
X508000Y704596D02*
X508000Y692404D01*
X482600Y692404D02*
X482600Y704596D01*
X457200Y704596D02*
X457200Y692404D01*
X431800Y692404D02*
X431800Y704596D01*
X406400Y704596D02*
X406400Y692404D01*
X381000Y692404D02*
X381000Y704596D01*
X355600Y704596D02*
X355600Y692404D01*
X673100Y158496D02*
X673100Y146304D01*
X698500Y146304D02*
X698500Y158496D01*
X825500Y158496D02*
X825500Y146304D01*
X850900Y146304D02*
X850900Y158496D01*
X723900Y158496D02*
X723900Y146304D01*
X749300Y146304D02*
X749300Y158496D01*
X800100Y158496D02*
X800100Y146304D01*
X774700Y146304D02*
X774700Y158496D01*
X850900Y222504D02*
X850900Y234696D01*
X825500Y234696D02*
X825500Y222504D01*
X800100Y222504D02*
X800100Y234696D01*
X774700Y234696D02*
X774700Y222504D01*
X749300Y222504D02*
X749300Y234696D01*
X723900Y234696D02*
X723900Y222504D01*
X698500Y222504D02*
X698500Y234696D01*
X673100Y234696D02*
X673100Y222504D01*
X355600Y870204D02*
X355600Y882396D01*
X381000Y882396D02*
X381000Y870204D01*
X508000Y870204D02*
X508000Y882396D01*
X533400Y882396D02*
X533400Y870204D01*
X406400Y870204D02*
X406400Y882396D01*
X431800Y882396D02*
X431800Y870204D01*
X482600Y870204D02*
X482600Y882396D01*
X457200Y882396D02*
X457200Y870204D01*
X558800Y870204D02*
X558800Y882396D01*
X584200Y882396D02*
X584200Y870204D01*
X584200Y946404D02*
X584200Y958596D01*
X558800Y958596D02*
X558800Y946404D01*
X533400Y946404D02*
X533400Y958596D01*
X508000Y958596D02*
X508000Y946404D01*
X482600Y946404D02*
X482600Y958596D01*
X457200Y958596D02*
X457200Y946404D01*
X431800Y946404D02*
X431800Y958596D01*
X406400Y958596D02*
X406400Y946404D01*
X381000Y946404D02*
X381000Y958596D01*
X355600Y958596D02*
X355600Y946404D01*
X673100Y285496D02*
X673100Y273304D01*
X698500Y273304D02*
X698500Y285496D01*
X825500Y285496D02*
X825500Y273304D01*
X850900Y273304D02*
X850900Y285496D01*
X723900Y285496D02*
X723900Y273304D01*
X749300Y273304D02*
X749300Y285496D01*
X800100Y285496D02*
X800100Y273304D01*
X774700Y273304D02*
X774700Y285496D01*
X850900Y349504D02*
X850900Y361696D01*
X825500Y361696D02*
X825500Y349504D01*
X800100Y349504D02*
X800100Y361696D01*
X774700Y361696D02*
X774700Y349504D01*
X749300Y349504D02*
X749300Y361696D01*
X723900Y361696D02*
X723900Y349504D01*
X698500Y349504D02*
X698500Y361696D01*
X673100Y361696D02*
X673100Y349504D01*
X673100Y654304D02*
X673100Y666496D01*
X698500Y666496D02*
X698500Y654304D01*
X825500Y654304D02*
X825500Y666496D01*
X850900Y666496D02*
X850900Y654304D01*
X723900Y654304D02*
X723900Y666496D01*
X749300Y666496D02*
X749300Y654304D01*
X800100Y654304D02*
X800100Y666496D01*
X774700Y666496D02*
X774700Y654304D01*
X850900Y730504D02*
X850900Y742696D01*
X825500Y742696D02*
X825500Y730504D01*
X800100Y730504D02*
X800100Y742696D01*
X774700Y742696D02*
X774700Y730504D01*
X749300Y730504D02*
X749300Y742696D01*
X723900Y742696D02*
X723900Y730504D01*
X698500Y730504D02*
X698500Y742696D01*
X673100Y742696D02*
X673100Y730504D01*
X673100Y781304D02*
X673100Y793496D01*
X698500Y793496D02*
X698500Y781304D01*
X825500Y781304D02*
X825500Y793496D01*
X850900Y793496D02*
X850900Y781304D01*
X723900Y781304D02*
X723900Y793496D01*
X749300Y793496D02*
X749300Y781304D01*
X800100Y781304D02*
X800100Y793496D01*
X774700Y793496D02*
X774700Y781304D01*
X850900Y857504D02*
X850900Y869696D01*
X825500Y869696D02*
X825500Y857504D01*
X800100Y857504D02*
X800100Y869696D01*
X774700Y869696D02*
X774700Y857504D01*
X749300Y857504D02*
X749300Y869696D01*
X723900Y869696D02*
X723900Y857504D01*
X698500Y857504D02*
X698500Y869696D01*
X673100Y869696D02*
X673100Y857504D01*
X673100Y908304D02*
X673100Y920496D01*
X698500Y920496D02*
X698500Y908304D01*
X825500Y908304D02*
X825500Y920496D01*
X850900Y920496D02*
X850900Y908304D01*
X723900Y908304D02*
X723900Y920496D01*
X749300Y920496D02*
X749300Y908304D01*
X800100Y908304D02*
X800100Y920496D01*
X774700Y920496D02*
X774700Y908304D01*
X876300Y908304D02*
X876300Y920496D01*
X901700Y920496D02*
X901700Y908304D01*
X901700Y984504D02*
X901700Y996696D01*
X876300Y996696D02*
X876300Y984504D01*
X850900Y984504D02*
X850900Y996696D01*
X825500Y996696D02*
X825500Y984504D01*
X800100Y984504D02*
X800100Y996696D01*
X774700Y996696D02*
X774700Y984504D01*
X749300Y984504D02*
X749300Y996696D01*
X723900Y996696D02*
X723900Y984504D01*
X698500Y984504D02*
X698500Y996696D01*
X673100Y996696D02*
X673100Y984504D01*
X673100Y1035304D02*
X673100Y1047496D01*
X698500Y1047496D02*
X698500Y1035304D01*
X825500Y1035304D02*
X825500Y1047496D01*
X850900Y1047496D02*
X850900Y1035304D01*
X723900Y1035304D02*
X723900Y1047496D01*
X749300Y1047496D02*
X749300Y1035304D01*
X800100Y1035304D02*
X800100Y1047496D01*
X774700Y1047496D02*
X774700Y1035304D01*
X876300Y1035304D02*
X876300Y1047496D01*
X901700Y1047496D02*
X901700Y1035304D01*
X901700Y1111504D02*
X901700Y1123696D01*
X876300Y1123696D02*
X876300Y1111504D01*
X850900Y1111504D02*
X850900Y1123696D01*
X825500Y1123696D02*
X825500Y1111504D01*
X800100Y1111504D02*
X800100Y1123696D01*
X774700Y1123696D02*
X774700Y1111504D01*
X749300Y1111504D02*
X749300Y1123696D01*
X723900Y1123696D02*
X723900Y1111504D01*
X698500Y1111504D02*
X698500Y1123696D01*
X673100Y1123696D02*
X673100Y1111504D01*
D12*
X25400Y25400D03*
X25400Y50800D03*
X50800Y25400D03*
X50800Y50800D03*
X76200Y25400D03*
X76200Y50800D03*
X101600Y25400D03*
X101600Y50800D03*
X76200Y1092200D03*
X76200Y1117600D03*
X101600Y1092200D03*
X101600Y1117600D03*
X127000Y1092200D03*
X127000Y1117600D03*
X152400Y1092200D03*
X152400Y1117600D03*
D11*
X698500Y69596D02*
X698500Y57404D01*
X673100Y57404D02*
X673100Y69596D01*
X647700Y69596D02*
X647700Y57404D01*
X622300Y57404D02*
X622300Y69596D01*
X596900Y69596D02*
X596900Y57404D01*
X571500Y57404D02*
X571500Y69596D01*
X546100Y69596D02*
X546100Y57404D01*
X520700Y57404D02*
X520700Y69596D01*
X495300Y69596D02*
X495300Y57404D01*
X457200Y57404D02*
X457200Y69596D01*
X431800Y69596D02*
X431800Y57404D01*
X406400Y57404D02*
X406400Y69596D01*
X381000Y69596D02*
X381000Y57404D01*
X355600Y57404D02*
X355600Y69596D01*
X330200Y69596D02*
X330200Y57404D01*
X304800Y57404D02*
X304800Y69596D01*
X279400Y69596D02*
X279400Y57404D01*
X254000Y57404D02*
X254000Y69596D01*
D13*
X50800Y177800D03*
X50800Y203200D03*
X50800Y228600D03*
X50800Y254000D03*
X50800Y279400D03*
X50800Y304800D03*
X50800Y330200D03*
X50800Y355600D03*
X50800Y381000D03*
X50800Y406400D03*
X50800Y431800D03*
X50800Y457200D03*
X50800Y482600D03*
X50800Y508000D03*
X50800Y533400D03*
X50800Y558800D03*
X76200Y177800D03*
X76200Y203200D03*
X76200Y228600D03*
X76200Y254000D03*
X76200Y279400D03*
X76200Y304800D03*
X76200Y330200D03*
X76200Y355600D03*
X76200Y381000D03*
X76200Y406400D03*
X76200Y431800D03*
X76200Y457200D03*
X76200Y482600D03*
X76200Y508000D03*
X76200Y533400D03*
X76200Y558800D03*
X101600Y177800D03*
X101600Y203200D03*
X101600Y228600D03*
X101600Y254000D03*
X101600Y279400D03*
X101600Y304800D03*
X101600Y330200D03*
X101600Y355600D03*
X101600Y381000D03*
X101600Y406400D03*
X101600Y431800D03*
X101600Y457200D03*
X101600Y482600D03*
X101600Y508000D03*
X101600Y533400D03*
X101600Y558800D03*
X50800Y584200D03*
X50800Y609600D03*
X50800Y635000D03*
X50800Y660400D03*
X50800Y685800D03*
X50800Y711200D03*
X50800Y736600D03*
X50800Y762000D03*
X50800Y787400D03*
X50800Y812800D03*
X50800Y838200D03*
X50800Y863600D03*
X50800Y889000D03*
X50800Y914400D03*
X50800Y939800D03*
X50800Y965200D03*
X76200Y584200D03*
X76200Y609600D03*
X76200Y635000D03*
X76200Y660400D03*
X76200Y685800D03*
X76200Y711200D03*
X76200Y736600D03*
X76200Y762000D03*
X76200Y787400D03*
X76200Y812800D03*
X76200Y838200D03*
X76200Y863600D03*
X76200Y889000D03*
X76200Y914400D03*
X76200Y939800D03*
X76200Y965200D03*
X101600Y584200D03*
X101600Y609600D03*
X101600Y635000D03*
X101600Y660400D03*
X101600Y685800D03*
X101600Y711200D03*
X101600Y736600D03*
X101600Y762000D03*
X101600Y787400D03*
X101600Y812800D03*
X101600Y838200D03*
X101600Y863600D03*
X101600Y889000D03*
X101600Y914400D03*
X101600Y939800D03*
X101600Y965200D03*
D14*
X1739900Y38100D03*
X1714500Y38100D03*
X266700Y127000D03*
X165100Y127000D03*
D11*
X431800Y235204D02*
X431800Y247396D01*
X457200Y247396D02*
X457200Y235204D01*
X584200Y235204D02*
X584200Y247396D01*
X584200Y311404D02*
X584200Y323596D01*
X482600Y247396D02*
X482600Y235204D01*
X508000Y235204D02*
X508000Y247396D01*
X558800Y247396D02*
X558800Y235204D01*
X533400Y235204D02*
X533400Y247396D01*
X558800Y311404D02*
X558800Y323596D01*
X533400Y323596D02*
X533400Y311404D01*
X508000Y311404D02*
X508000Y323596D01*
X482600Y323596D02*
X482600Y311404D01*
X457200Y311404D02*
X457200Y323596D01*
X431800Y323596D02*
X431800Y311404D01*
X800100Y31496D02*
X800100Y19304D01*
X825500Y19304D02*
X825500Y31496D01*
X952500Y31496D02*
X952500Y19304D01*
X952500Y95504D02*
X952500Y107696D01*
X850900Y31496D02*
X850900Y19304D01*
X876300Y19304D02*
X876300Y31496D01*
X927100Y31496D02*
X927100Y19304D01*
X901700Y19304D02*
X901700Y31496D01*
X927100Y95504D02*
X927100Y107696D01*
X901700Y107696D02*
X901700Y95504D01*
X876300Y95504D02*
X876300Y107696D01*
X850900Y107696D02*
X850900Y95504D01*
X825500Y95504D02*
X825500Y107696D01*
X800100Y107696D02*
X800100Y95504D01*
X431800Y997204D02*
X431800Y1009396D01*
X457200Y1009396D02*
X457200Y997204D01*
X584200Y997204D02*
X584200Y1009396D01*
X584200Y1073404D02*
X584200Y1085596D01*
X482600Y1009396D02*
X482600Y997204D01*
X508000Y997204D02*
X508000Y1009396D01*
X558800Y1009396D02*
X558800Y997204D01*
X533400Y997204D02*
X533400Y1009396D01*
X558800Y1073404D02*
X558800Y1085596D01*
X533400Y1085596D02*
X533400Y1073404D01*
X508000Y1073404D02*
X508000Y1085596D01*
X482600Y1085596D02*
X482600Y1073404D01*
X457200Y1073404D02*
X457200Y1085596D01*
X431800Y1085596D02*
X431800Y1073404D01*
X431800Y120396D02*
X431800Y108204D01*
X457200Y108204D02*
X457200Y120396D01*
X584200Y120396D02*
X584200Y108204D01*
X584200Y184404D02*
X584200Y196596D01*
X482600Y120396D02*
X482600Y108204D01*
X508000Y108204D02*
X508000Y120396D01*
X558800Y120396D02*
X558800Y108204D01*
X533400Y108204D02*
X533400Y120396D01*
X558800Y184404D02*
X558800Y196596D01*
X533400Y196596D02*
X533400Y184404D01*
X508000Y184404D02*
X508000Y196596D01*
X482600Y196596D02*
X482600Y184404D01*
X457200Y184404D02*
X457200Y196596D01*
X431800Y196596D02*
X431800Y184404D01*
X183896Y914400D02*
X171704Y914400D01*
X171704Y889000D02*
X183896Y889000D01*
X183896Y762000D02*
X171704Y762000D01*
X171704Y736600D02*
X183896Y736600D01*
X183896Y863600D02*
X171704Y863600D01*
X171704Y838200D02*
X183896Y838200D01*
X183896Y787400D02*
X171704Y787400D01*
X171704Y812800D02*
X183896Y812800D01*
X247904Y736600D02*
X260096Y736600D01*
X260096Y762000D02*
X247904Y762000D01*
X247904Y787400D02*
X260096Y787400D01*
X260096Y812800D02*
X247904Y812800D01*
X247904Y838200D02*
X260096Y838200D01*
X260096Y863600D02*
X247904Y863600D01*
X247904Y889000D02*
X260096Y889000D01*
X260096Y914400D02*
X247904Y914400D01*
D12*
X139700Y25400D03*
X139700Y50800D03*
X165100Y25400D03*
X165100Y50800D03*
X190500Y25400D03*
X190500Y50800D03*
X215900Y25400D03*
X215900Y50800D03*
D11*
X431800Y362204D02*
X431800Y374396D01*
X457200Y374396D02*
X457200Y362204D01*
X584200Y362204D02*
X584200Y374396D01*
X584200Y438404D02*
X584200Y450596D01*
X482600Y374396D02*
X482600Y362204D01*
X508000Y362204D02*
X508000Y374396D01*
X558800Y374396D02*
X558800Y362204D01*
X533400Y362204D02*
X533400Y374396D01*
X558800Y438404D02*
X558800Y450596D01*
X533400Y450596D02*
X533400Y438404D01*
X508000Y438404D02*
X508000Y450596D01*
X482600Y450596D02*
X482600Y438404D01*
X457200Y438404D02*
X457200Y450596D01*
X431800Y450596D02*
X431800Y438404D01*
X673100Y527304D02*
X673100Y539496D01*
X698500Y539496D02*
X698500Y527304D01*
X825500Y527304D02*
X825500Y539496D01*
X850900Y539496D02*
X850900Y527304D01*
X723900Y527304D02*
X723900Y539496D01*
X749300Y539496D02*
X749300Y527304D01*
X800100Y527304D02*
X800100Y539496D01*
X774700Y539496D02*
X774700Y527304D01*
X876300Y527304D02*
X876300Y539496D01*
X901700Y539496D02*
X901700Y527304D01*
X901700Y603504D02*
X901700Y615696D01*
X876300Y615696D02*
X876300Y603504D01*
X850900Y603504D02*
X850900Y615696D01*
X825500Y615696D02*
X825500Y603504D01*
X800100Y603504D02*
X800100Y615696D01*
X774700Y615696D02*
X774700Y603504D01*
X749300Y603504D02*
X749300Y615696D01*
X723900Y615696D02*
X723900Y603504D01*
X698500Y603504D02*
X698500Y615696D01*
X673100Y615696D02*
X673100Y603504D01*
X673100Y412496D02*
X673100Y400304D01*
X698500Y400304D02*
X698500Y412496D01*
X825500Y412496D02*
X825500Y400304D01*
X850900Y400304D02*
X850900Y412496D01*
X723900Y412496D02*
X723900Y400304D01*
X749300Y400304D02*
X749300Y412496D01*
X800100Y412496D02*
X800100Y400304D01*
X774700Y400304D02*
X774700Y412496D01*
X876300Y412496D02*
X876300Y400304D01*
X901700Y400304D02*
X901700Y412496D01*
X901700Y476504D02*
X901700Y488696D01*
X876300Y488696D02*
X876300Y476504D01*
X850900Y476504D02*
X850900Y488696D01*
X825500Y488696D02*
X825500Y476504D01*
X800100Y476504D02*
X800100Y488696D01*
X774700Y488696D02*
X774700Y476504D01*
X749300Y476504D02*
X749300Y488696D01*
X723900Y488696D02*
X723900Y476504D01*
X698500Y476504D02*
X698500Y488696D01*
X673100Y488696D02*
X673100Y476504D01*
X990600Y1035304D02*
X990600Y1047496D01*
X1016000Y1047496D02*
X1016000Y1035304D01*
X1143000Y1035304D02*
X1143000Y1047496D01*
X1168400Y1047496D02*
X1168400Y1035304D01*
X1041400Y1035304D02*
X1041400Y1047496D01*
X1066800Y1047496D02*
X1066800Y1035304D01*
X1117600Y1035304D02*
X1117600Y1047496D01*
X1092200Y1047496D02*
X1092200Y1035304D01*
X1168400Y1111504D02*
X1168400Y1123696D01*
X1143000Y1123696D02*
X1143000Y1111504D01*
X1117600Y1111504D02*
X1117600Y1123696D01*
X1092200Y1123696D02*
X1092200Y1111504D01*
X1066800Y1111504D02*
X1066800Y1123696D01*
X1041400Y1123696D02*
X1041400Y1111504D01*
X1016000Y1111504D02*
X1016000Y1123696D01*
X990600Y1123696D02*
X990600Y1111504D01*
X990600Y920496D02*
X990600Y908304D01*
X1016000Y908304D02*
X1016000Y920496D01*
X1143000Y920496D02*
X1143000Y908304D01*
X1168400Y908304D02*
X1168400Y920496D01*
X1041400Y920496D02*
X1041400Y908304D01*
X1066800Y908304D02*
X1066800Y920496D01*
X1117600Y920496D02*
X1117600Y908304D01*
X1092200Y908304D02*
X1092200Y920496D01*
X1168400Y984504D02*
X1168400Y996696D01*
X1143000Y996696D02*
X1143000Y984504D01*
X1117600Y984504D02*
X1117600Y996696D01*
X1092200Y996696D02*
X1092200Y984504D01*
X1066800Y984504D02*
X1066800Y996696D01*
X1041400Y996696D02*
X1041400Y984504D01*
X1016000Y984504D02*
X1016000Y996696D01*
X990600Y996696D02*
X990600Y984504D01*
X990600Y539496D02*
X990600Y527304D01*
X1016000Y527304D02*
X1016000Y539496D01*
X1143000Y539496D02*
X1143000Y527304D01*
X1168400Y527304D02*
X1168400Y539496D01*
X1041400Y539496D02*
X1041400Y527304D01*
X1066800Y527304D02*
X1066800Y539496D01*
X1117600Y539496D02*
X1117600Y527304D01*
X1092200Y527304D02*
X1092200Y539496D01*
X1168400Y603504D02*
X1168400Y615696D01*
X1143000Y615696D02*
X1143000Y603504D01*
X1117600Y603504D02*
X1117600Y615696D01*
X1092200Y615696D02*
X1092200Y603504D01*
X1066800Y603504D02*
X1066800Y615696D01*
X1041400Y615696D02*
X1041400Y603504D01*
X1016000Y603504D02*
X1016000Y615696D01*
X990600Y615696D02*
X990600Y603504D01*
X990600Y412496D02*
X990600Y400304D01*
X1016000Y400304D02*
X1016000Y412496D01*
X1143000Y412496D02*
X1143000Y400304D01*
X1168400Y400304D02*
X1168400Y412496D01*
X1041400Y412496D02*
X1041400Y400304D01*
X1066800Y400304D02*
X1066800Y412496D01*
X1117600Y412496D02*
X1117600Y400304D01*
X1092200Y400304D02*
X1092200Y412496D01*
X1168400Y476504D02*
X1168400Y488696D01*
X1143000Y488696D02*
X1143000Y476504D01*
X1117600Y476504D02*
X1117600Y488696D01*
X1092200Y488696D02*
X1092200Y476504D01*
X1066800Y476504D02*
X1066800Y488696D01*
X1041400Y488696D02*
X1041400Y476504D01*
X1016000Y476504D02*
X1016000Y488696D01*
X990600Y488696D02*
X990600Y476504D01*
X939800Y781304D02*
X939800Y793496D01*
X965200Y793496D02*
X965200Y781304D01*
X1092200Y781304D02*
X1092200Y793496D01*
X1117600Y793496D02*
X1117600Y781304D01*
X990600Y781304D02*
X990600Y793496D01*
X1016000Y793496D02*
X1016000Y781304D01*
X1066800Y781304D02*
X1066800Y793496D01*
X1041400Y793496D02*
X1041400Y781304D01*
X1143000Y781304D02*
X1143000Y793496D01*
X1168400Y793496D02*
X1168400Y781304D01*
X1168400Y857504D02*
X1168400Y869696D01*
X1143000Y869696D02*
X1143000Y857504D01*
X1117600Y857504D02*
X1117600Y869696D01*
X1092200Y869696D02*
X1092200Y857504D01*
X1066800Y857504D02*
X1066800Y869696D01*
X1041400Y869696D02*
X1041400Y857504D01*
X1016000Y857504D02*
X1016000Y869696D01*
X990600Y869696D02*
X990600Y857504D01*
X965200Y857504D02*
X965200Y869696D01*
X939800Y869696D02*
X939800Y857504D01*
X939800Y666496D02*
X939800Y654304D01*
X965200Y654304D02*
X965200Y666496D01*
X1092200Y666496D02*
X1092200Y654304D01*
X1117600Y654304D02*
X1117600Y666496D01*
X990600Y666496D02*
X990600Y654304D01*
X1016000Y654304D02*
X1016000Y666496D01*
X1066800Y666496D02*
X1066800Y654304D01*
X1041400Y654304D02*
X1041400Y666496D01*
X1143000Y666496D02*
X1143000Y654304D01*
X1168400Y654304D02*
X1168400Y666496D01*
X1168400Y730504D02*
X1168400Y742696D01*
X1143000Y742696D02*
X1143000Y730504D01*
X1117600Y730504D02*
X1117600Y742696D01*
X1092200Y742696D02*
X1092200Y730504D01*
X1066800Y730504D02*
X1066800Y742696D01*
X1041400Y742696D02*
X1041400Y730504D01*
X1016000Y730504D02*
X1016000Y742696D01*
X990600Y742696D02*
X990600Y730504D01*
X965200Y730504D02*
X965200Y742696D01*
X939800Y742696D02*
X939800Y730504D01*
X1041400Y31496D02*
X1041400Y19304D01*
X1066800Y19304D02*
X1066800Y31496D01*
X1193800Y31496D02*
X1193800Y19304D01*
X1193800Y95504D02*
X1193800Y107696D01*
X1092200Y31496D02*
X1092200Y19304D01*
X1117600Y19304D02*
X1117600Y31496D01*
X1168400Y31496D02*
X1168400Y19304D01*
X1143000Y19304D02*
X1143000Y31496D01*
X1168400Y95504D02*
X1168400Y107696D01*
X1143000Y107696D02*
X1143000Y95504D01*
X1117600Y95504D02*
X1117600Y107696D01*
X1092200Y107696D02*
X1092200Y95504D01*
X1066800Y95504D02*
X1066800Y107696D01*
X1041400Y107696D02*
X1041400Y95504D01*
X939800Y273304D02*
X939800Y285496D01*
X965200Y285496D02*
X965200Y273304D01*
X1092200Y273304D02*
X1092200Y285496D01*
X1117600Y285496D02*
X1117600Y273304D01*
X990600Y273304D02*
X990600Y285496D01*
X1016000Y285496D02*
X1016000Y273304D01*
X1066800Y273304D02*
X1066800Y285496D01*
X1041400Y285496D02*
X1041400Y273304D01*
X1143000Y273304D02*
X1143000Y285496D01*
X1168400Y285496D02*
X1168400Y273304D01*
X1168400Y349504D02*
X1168400Y361696D01*
X1143000Y361696D02*
X1143000Y349504D01*
X1117600Y349504D02*
X1117600Y361696D01*
X1092200Y361696D02*
X1092200Y349504D01*
X1066800Y349504D02*
X1066800Y361696D01*
X1041400Y361696D02*
X1041400Y349504D01*
X1016000Y349504D02*
X1016000Y361696D01*
X990600Y361696D02*
X990600Y349504D01*
X965200Y349504D02*
X965200Y361696D01*
X939800Y361696D02*
X939800Y349504D01*
X939800Y158496D02*
X939800Y146304D01*
X965200Y146304D02*
X965200Y158496D01*
X1092200Y158496D02*
X1092200Y146304D01*
X1117600Y146304D02*
X1117600Y158496D01*
X990600Y158496D02*
X990600Y146304D01*
X1016000Y146304D02*
X1016000Y158496D01*
X1066800Y158496D02*
X1066800Y146304D01*
X1041400Y146304D02*
X1041400Y158496D01*
X1143000Y158496D02*
X1143000Y146304D01*
X1168400Y146304D02*
X1168400Y158496D01*
X1168400Y222504D02*
X1168400Y234696D01*
X1143000Y234696D02*
X1143000Y222504D01*
X1117600Y222504D02*
X1117600Y234696D01*
X1092200Y234696D02*
X1092200Y222504D01*
X1066800Y222504D02*
X1066800Y234696D01*
X1041400Y234696D02*
X1041400Y222504D01*
X1016000Y222504D02*
X1016000Y234696D01*
X990600Y234696D02*
X990600Y222504D01*
X965200Y222504D02*
X965200Y234696D01*
X939800Y234696D02*
X939800Y222504D01*
X1257300Y158496D02*
X1257300Y146304D01*
X1282700Y146304D02*
X1282700Y158496D01*
X1409700Y158496D02*
X1409700Y146304D01*
X1435100Y146304D02*
X1435100Y158496D01*
X1308100Y158496D02*
X1308100Y146304D01*
X1333500Y146304D02*
X1333500Y158496D01*
X1384300Y158496D02*
X1384300Y146304D01*
X1358900Y146304D02*
X1358900Y158496D01*
X1435100Y222504D02*
X1435100Y234696D01*
X1409700Y234696D02*
X1409700Y222504D01*
X1384300Y222504D02*
X1384300Y234696D01*
X1358900Y234696D02*
X1358900Y222504D01*
X1333500Y222504D02*
X1333500Y234696D01*
X1308100Y234696D02*
X1308100Y222504D01*
X1282700Y222504D02*
X1282700Y234696D01*
X1257300Y234696D02*
X1257300Y222504D01*
X1257300Y781304D02*
X1257300Y793496D01*
X1282700Y793496D02*
X1282700Y781304D01*
X1409700Y781304D02*
X1409700Y793496D01*
X1435100Y793496D02*
X1435100Y781304D01*
X1308100Y781304D02*
X1308100Y793496D01*
X1333500Y793496D02*
X1333500Y781304D01*
X1384300Y781304D02*
X1384300Y793496D01*
X1358900Y793496D02*
X1358900Y781304D01*
X1435100Y857504D02*
X1435100Y869696D01*
X1409700Y869696D02*
X1409700Y857504D01*
X1384300Y857504D02*
X1384300Y869696D01*
X1358900Y869696D02*
X1358900Y857504D01*
X1333500Y857504D02*
X1333500Y869696D01*
X1308100Y869696D02*
X1308100Y857504D01*
X1282700Y857504D02*
X1282700Y869696D01*
X1257300Y869696D02*
X1257300Y857504D01*
X1257300Y666496D02*
X1257300Y654304D01*
X1282700Y654304D02*
X1282700Y666496D01*
X1409700Y666496D02*
X1409700Y654304D01*
X1435100Y654304D02*
X1435100Y666496D01*
X1308100Y666496D02*
X1308100Y654304D01*
X1333500Y654304D02*
X1333500Y666496D01*
X1384300Y666496D02*
X1384300Y654304D01*
X1358900Y654304D02*
X1358900Y666496D01*
X1435100Y730504D02*
X1435100Y742696D01*
X1409700Y742696D02*
X1409700Y730504D01*
X1384300Y730504D02*
X1384300Y742696D01*
X1358900Y742696D02*
X1358900Y730504D01*
X1333500Y730504D02*
X1333500Y742696D01*
X1308100Y742696D02*
X1308100Y730504D01*
X1282700Y730504D02*
X1282700Y742696D01*
X1257300Y742696D02*
X1257300Y730504D01*
X1257300Y285496D02*
X1257300Y273304D01*
X1282700Y273304D02*
X1282700Y285496D01*
X1409700Y285496D02*
X1409700Y273304D01*
X1435100Y273304D02*
X1435100Y285496D01*
X1308100Y285496D02*
X1308100Y273304D01*
X1333500Y273304D02*
X1333500Y285496D01*
X1384300Y285496D02*
X1384300Y273304D01*
X1358900Y273304D02*
X1358900Y285496D01*
X1435100Y349504D02*
X1435100Y361696D01*
X1409700Y361696D02*
X1409700Y349504D01*
X1384300Y349504D02*
X1384300Y361696D01*
X1358900Y361696D02*
X1358900Y349504D01*
X1333500Y349504D02*
X1333500Y361696D01*
X1308100Y361696D02*
X1308100Y349504D01*
X1282700Y349504D02*
X1282700Y361696D01*
X1257300Y361696D02*
X1257300Y349504D01*
X1257300Y1035304D02*
X1257300Y1047496D01*
X1282700Y1047496D02*
X1282700Y1035304D01*
X1409700Y1035304D02*
X1409700Y1047496D01*
X1435100Y1047496D02*
X1435100Y1035304D01*
X1308100Y1035304D02*
X1308100Y1047496D01*
X1333500Y1047496D02*
X1333500Y1035304D01*
X1384300Y1035304D02*
X1384300Y1047496D01*
X1358900Y1047496D02*
X1358900Y1035304D01*
X1460500Y1035304D02*
X1460500Y1047496D01*
X1485900Y1047496D02*
X1485900Y1035304D01*
X1485900Y1111504D02*
X1485900Y1123696D01*
X1460500Y1123696D02*
X1460500Y1111504D01*
X1435100Y1111504D02*
X1435100Y1123696D01*
X1409700Y1123696D02*
X1409700Y1111504D01*
X1384300Y1111504D02*
X1384300Y1123696D01*
X1358900Y1123696D02*
X1358900Y1111504D01*
X1333500Y1111504D02*
X1333500Y1123696D01*
X1308100Y1123696D02*
X1308100Y1111504D01*
X1282700Y1111504D02*
X1282700Y1123696D01*
X1257300Y1123696D02*
X1257300Y1111504D01*
X1257300Y920496D02*
X1257300Y908304D01*
X1282700Y908304D02*
X1282700Y920496D01*
X1409700Y920496D02*
X1409700Y908304D01*
X1435100Y908304D02*
X1435100Y920496D01*
X1308100Y920496D02*
X1308100Y908304D01*
X1333500Y908304D02*
X1333500Y920496D01*
X1384300Y920496D02*
X1384300Y908304D01*
X1358900Y908304D02*
X1358900Y920496D01*
X1460500Y920496D02*
X1460500Y908304D01*
X1485900Y908304D02*
X1485900Y920496D01*
X1485900Y984504D02*
X1485900Y996696D01*
X1460500Y996696D02*
X1460500Y984504D01*
X1435100Y984504D02*
X1435100Y996696D01*
X1409700Y996696D02*
X1409700Y984504D01*
X1384300Y984504D02*
X1384300Y996696D01*
X1358900Y996696D02*
X1358900Y984504D01*
X1333500Y984504D02*
X1333500Y996696D01*
X1308100Y996696D02*
X1308100Y984504D01*
X1282700Y984504D02*
X1282700Y996696D01*
X1257300Y996696D02*
X1257300Y984504D01*
X1282700Y31496D02*
X1282700Y19304D01*
X1308100Y19304D02*
X1308100Y31496D01*
X1435100Y31496D02*
X1435100Y19304D01*
X1435100Y95504D02*
X1435100Y107696D01*
X1333500Y31496D02*
X1333500Y19304D01*
X1358900Y19304D02*
X1358900Y31496D01*
X1409700Y31496D02*
X1409700Y19304D01*
X1384300Y19304D02*
X1384300Y31496D01*
X1409700Y95504D02*
X1409700Y107696D01*
X1384300Y107696D02*
X1384300Y95504D01*
X1358900Y95504D02*
X1358900Y107696D01*
X1333500Y107696D02*
X1333500Y95504D01*
X1308100Y95504D02*
X1308100Y107696D01*
X1282700Y107696D02*
X1282700Y95504D01*
X431800Y489204D02*
X431800Y501396D01*
X457200Y501396D02*
X457200Y489204D01*
X584200Y489204D02*
X584200Y501396D01*
X584200Y565404D02*
X584200Y577596D01*
X482600Y501396D02*
X482600Y489204D01*
X508000Y489204D02*
X508000Y501396D01*
X558800Y501396D02*
X558800Y489204D01*
X533400Y489204D02*
X533400Y501396D01*
X558800Y565404D02*
X558800Y577596D01*
X533400Y577596D02*
X533400Y565404D01*
X508000Y565404D02*
X508000Y577596D01*
X482600Y577596D02*
X482600Y565404D01*
X457200Y565404D02*
X457200Y577596D01*
X431800Y577596D02*
X431800Y565404D01*
X1257300Y539496D02*
X1257300Y527304D01*
X1282700Y527304D02*
X1282700Y539496D01*
X1409700Y539496D02*
X1409700Y527304D01*
X1435100Y527304D02*
X1435100Y539496D01*
X1308100Y539496D02*
X1308100Y527304D01*
X1333500Y527304D02*
X1333500Y539496D01*
X1384300Y539496D02*
X1384300Y527304D01*
X1358900Y527304D02*
X1358900Y539496D01*
X1460500Y539496D02*
X1460500Y527304D01*
X1485900Y527304D02*
X1485900Y539496D01*
X1485900Y603504D02*
X1485900Y615696D01*
X1460500Y615696D02*
X1460500Y603504D01*
X1435100Y603504D02*
X1435100Y615696D01*
X1409700Y615696D02*
X1409700Y603504D01*
X1384300Y603504D02*
X1384300Y615696D01*
X1358900Y615696D02*
X1358900Y603504D01*
X1333500Y603504D02*
X1333500Y615696D01*
X1308100Y615696D02*
X1308100Y603504D01*
X1282700Y603504D02*
X1282700Y615696D01*
X1257300Y615696D02*
X1257300Y603504D01*
X1257300Y412496D02*
X1257300Y400304D01*
X1282700Y400304D02*
X1282700Y412496D01*
X1409700Y412496D02*
X1409700Y400304D01*
X1435100Y400304D02*
X1435100Y412496D01*
X1308100Y412496D02*
X1308100Y400304D01*
X1333500Y400304D02*
X1333500Y412496D01*
X1384300Y412496D02*
X1384300Y400304D01*
X1358900Y400304D02*
X1358900Y412496D01*
X1460500Y412496D02*
X1460500Y400304D01*
X1485900Y400304D02*
X1485900Y412496D01*
X1485900Y476504D02*
X1485900Y488696D01*
X1460500Y488696D02*
X1460500Y476504D01*
X1435100Y476504D02*
X1435100Y488696D01*
X1409700Y488696D02*
X1409700Y476504D01*
X1384300Y476504D02*
X1384300Y488696D01*
X1358900Y488696D02*
X1358900Y476504D01*
X1333500Y476504D02*
X1333500Y488696D01*
X1308100Y488696D02*
X1308100Y476504D01*
X1282700Y476504D02*
X1282700Y488696D01*
X1257300Y488696D02*
X1257300Y476504D01*
X1574800Y1035304D02*
X1574800Y1047496D01*
X1600200Y1047496D02*
X1600200Y1035304D01*
X1727200Y1035304D02*
X1727200Y1047496D01*
X1752600Y1047496D02*
X1752600Y1035304D01*
X1625600Y1035304D02*
X1625600Y1047496D01*
X1651000Y1047496D02*
X1651000Y1035304D01*
X1701800Y1035304D02*
X1701800Y1047496D01*
X1676400Y1047496D02*
X1676400Y1035304D01*
X1752600Y1111504D02*
X1752600Y1123696D01*
X1727200Y1123696D02*
X1727200Y1111504D01*
X1701800Y1111504D02*
X1701800Y1123696D01*
X1676400Y1123696D02*
X1676400Y1111504D01*
X1651000Y1111504D02*
X1651000Y1123696D01*
X1625600Y1123696D02*
X1625600Y1111504D01*
X1600200Y1111504D02*
X1600200Y1123696D01*
X1574800Y1123696D02*
X1574800Y1111504D01*
X1574800Y920496D02*
X1574800Y908304D01*
X1600200Y908304D02*
X1600200Y920496D01*
X1727200Y920496D02*
X1727200Y908304D01*
X1752600Y908304D02*
X1752600Y920496D01*
X1625600Y920496D02*
X1625600Y908304D01*
X1651000Y908304D02*
X1651000Y920496D01*
X1701800Y920496D02*
X1701800Y908304D01*
X1676400Y908304D02*
X1676400Y920496D01*
X1752600Y984504D02*
X1752600Y996696D01*
X1727200Y996696D02*
X1727200Y984504D01*
X1701800Y984504D02*
X1701800Y996696D01*
X1676400Y996696D02*
X1676400Y984504D01*
X1651000Y984504D02*
X1651000Y996696D01*
X1625600Y996696D02*
X1625600Y984504D01*
X1600200Y984504D02*
X1600200Y996696D01*
X1574800Y996696D02*
X1574800Y984504D01*
X1574800Y539496D02*
X1574800Y527304D01*
X1600200Y527304D02*
X1600200Y539496D01*
X1727200Y539496D02*
X1727200Y527304D01*
X1752600Y527304D02*
X1752600Y539496D01*
X1625600Y539496D02*
X1625600Y527304D01*
X1651000Y527304D02*
X1651000Y539496D01*
X1701800Y539496D02*
X1701800Y527304D01*
X1676400Y527304D02*
X1676400Y539496D01*
X1752600Y603504D02*
X1752600Y615696D01*
X1727200Y615696D02*
X1727200Y603504D01*
X1701800Y603504D02*
X1701800Y615696D01*
X1676400Y615696D02*
X1676400Y603504D01*
X1651000Y603504D02*
X1651000Y615696D01*
X1625600Y615696D02*
X1625600Y603504D01*
X1600200Y603504D02*
X1600200Y615696D01*
X1574800Y615696D02*
X1574800Y603504D01*
X1574800Y412496D02*
X1574800Y400304D01*
X1600200Y400304D02*
X1600200Y412496D01*
X1727200Y412496D02*
X1727200Y400304D01*
X1752600Y400304D02*
X1752600Y412496D01*
X1625600Y412496D02*
X1625600Y400304D01*
X1651000Y400304D02*
X1651000Y412496D01*
X1701800Y412496D02*
X1701800Y400304D01*
X1676400Y400304D02*
X1676400Y412496D01*
X1752600Y476504D02*
X1752600Y488696D01*
X1727200Y488696D02*
X1727200Y476504D01*
X1701800Y476504D02*
X1701800Y488696D01*
X1676400Y488696D02*
X1676400Y476504D01*
X1651000Y476504D02*
X1651000Y488696D01*
X1625600Y488696D02*
X1625600Y476504D01*
X1600200Y476504D02*
X1600200Y488696D01*
X1574800Y488696D02*
X1574800Y476504D01*
X1524000Y781304D02*
X1524000Y793496D01*
X1549400Y793496D02*
X1549400Y781304D01*
X1676400Y781304D02*
X1676400Y793496D01*
X1701800Y793496D02*
X1701800Y781304D01*
X1574800Y781304D02*
X1574800Y793496D01*
X1600200Y793496D02*
X1600200Y781304D01*
X1651000Y781304D02*
X1651000Y793496D01*
X1625600Y793496D02*
X1625600Y781304D01*
X1727200Y781304D02*
X1727200Y793496D01*
X1752600Y793496D02*
X1752600Y781304D01*
X1752600Y857504D02*
X1752600Y869696D01*
X1727200Y869696D02*
X1727200Y857504D01*
X1701800Y857504D02*
X1701800Y869696D01*
X1676400Y869696D02*
X1676400Y857504D01*
X1651000Y857504D02*
X1651000Y869696D01*
X1625600Y869696D02*
X1625600Y857504D01*
X1600200Y857504D02*
X1600200Y869696D01*
X1574800Y869696D02*
X1574800Y857504D01*
X1549400Y857504D02*
X1549400Y869696D01*
X1524000Y869696D02*
X1524000Y857504D01*
X1524000Y285496D02*
X1524000Y273304D01*
X1549400Y273304D02*
X1549400Y285496D01*
X1676400Y285496D02*
X1676400Y273304D01*
X1701800Y273304D02*
X1701800Y285496D01*
X1574800Y285496D02*
X1574800Y273304D01*
X1600200Y273304D02*
X1600200Y285496D01*
X1651000Y285496D02*
X1651000Y273304D01*
X1625600Y273304D02*
X1625600Y285496D01*
X1727200Y285496D02*
X1727200Y273304D01*
X1752600Y273304D02*
X1752600Y285496D01*
X1752600Y349504D02*
X1752600Y361696D01*
X1727200Y361696D02*
X1727200Y349504D01*
X1701800Y349504D02*
X1701800Y361696D01*
X1676400Y361696D02*
X1676400Y349504D01*
X1651000Y349504D02*
X1651000Y361696D01*
X1625600Y361696D02*
X1625600Y349504D01*
X1600200Y349504D02*
X1600200Y361696D01*
X1574800Y361696D02*
X1574800Y349504D01*
X1549400Y349504D02*
X1549400Y361696D01*
X1524000Y361696D02*
X1524000Y349504D01*
X1524000Y31496D02*
X1524000Y19304D01*
X1549400Y19304D02*
X1549400Y31496D01*
X1676400Y31496D02*
X1676400Y19304D01*
X1676400Y95504D02*
X1676400Y107696D01*
X1574800Y31496D02*
X1574800Y19304D01*
X1600200Y19304D02*
X1600200Y31496D01*
X1651000Y31496D02*
X1651000Y19304D01*
X1625600Y19304D02*
X1625600Y31496D01*
X1651000Y95504D02*
X1651000Y107696D01*
X1625600Y107696D02*
X1625600Y95504D01*
X1600200Y95504D02*
X1600200Y107696D01*
X1574800Y107696D02*
X1574800Y95504D01*
X1549400Y95504D02*
X1549400Y107696D01*
X1524000Y107696D02*
X1524000Y95504D01*
X1524000Y654304D02*
X1524000Y666496D01*
X1549400Y666496D02*
X1549400Y654304D01*
X1676400Y654304D02*
X1676400Y666496D01*
X1701800Y666496D02*
X1701800Y654304D01*
X1574800Y654304D02*
X1574800Y666496D01*
X1600200Y666496D02*
X1600200Y654304D01*
X1651000Y654304D02*
X1651000Y666496D01*
X1625600Y666496D02*
X1625600Y654304D01*
X1727200Y654304D02*
X1727200Y666496D01*
X1752600Y666496D02*
X1752600Y654304D01*
X1752600Y730504D02*
X1752600Y742696D01*
X1727200Y742696D02*
X1727200Y730504D01*
X1701800Y730504D02*
X1701800Y742696D01*
X1676400Y742696D02*
X1676400Y730504D01*
X1651000Y730504D02*
X1651000Y742696D01*
X1625600Y742696D02*
X1625600Y730504D01*
X1600200Y730504D02*
X1600200Y742696D01*
X1574800Y742696D02*
X1574800Y730504D01*
X1549400Y730504D02*
X1549400Y742696D01*
X1524000Y742696D02*
X1524000Y730504D01*
X1524000Y158496D02*
X1524000Y146304D01*
X1549400Y146304D02*
X1549400Y158496D01*
X1676400Y158496D02*
X1676400Y146304D01*
X1701800Y146304D02*
X1701800Y158496D01*
X1574800Y158496D02*
X1574800Y146304D01*
X1600200Y146304D02*
X1600200Y158496D01*
X1651000Y158496D02*
X1651000Y146304D01*
X1625600Y146304D02*
X1625600Y158496D01*
X1727200Y158496D02*
X1727200Y146304D01*
X1752600Y146304D02*
X1752600Y158496D01*
X1752600Y222504D02*
X1752600Y234696D01*
X1727200Y234696D02*
X1727200Y222504D01*
X1701800Y222504D02*
X1701800Y234696D01*
X1676400Y234696D02*
X1676400Y222504D01*
X1651000Y222504D02*
X1651000Y234696D01*
X1625600Y234696D02*
X1625600Y222504D01*
X1600200Y222504D02*
X1600200Y234696D01*
X1574800Y234696D02*
X1574800Y222504D01*
X1549400Y222504D02*
X1549400Y234696D01*
X1524000Y234696D02*
X1524000Y222504D01*
D15*
X203200Y952500D03*
X228600Y952500D03*
X203200Y673100D03*
X228600Y673100D03*
X203200Y393700D03*
X228600Y393700D03*
D10*
X393700Y1028700D03*
X393700Y1054100D03*
X317500Y901700D03*
X317500Y927100D03*
X317500Y762000D03*
X317500Y787400D03*
X317500Y660400D03*
X317500Y685800D03*
X393700Y520700D03*
X393700Y546100D03*
X393700Y393700D03*
X393700Y419100D03*
X762000Y50800D03*
X762000Y76200D03*
D16*
X765175Y180975D02*
X771525Y187325D01*
X933450Y187325D01*
X952500Y206375D01*
X1190625Y206375D01*
X1143000Y787400D02*
X1158875Y803275D01*
X1501775Y803275D02*
X1711325Y803275D01*
X1501775Y803275D02*
X1203325Y803275D01*
X1158875Y803275D01*
X1711325Y803275D02*
X1727200Y787400D01*
X460375Y898525D02*
X406400Y952500D01*
X663575Y898525D02*
X688975Y898525D01*
X663575Y898525D02*
X460375Y898525D01*
X904875Y1082675D02*
X981075Y1082675D01*
X1460500Y1041400D02*
X1476375Y1057275D01*
X1498600Y1057275D01*
X1565275Y1082675D02*
X981075Y1082675D01*
X1565275Y1082675D02*
X1600200Y1117600D01*
X663575Y917575D02*
X663575Y898525D01*
X663575Y917575D02*
X628650Y917575D01*
X657225Y1060450D02*
X673100Y1076325D01*
X841375Y1076325D01*
X847725Y1082675D01*
X904875Y1082675D01*
X1279525Y339725D02*
X1292225Y327025D01*
X1279525Y339725D02*
X1225550Y339725D01*
X1203325Y777875D02*
X1203325Y803275D01*
D17*
X765175Y180975D03*
X1190625Y206375D03*
X688975Y898525D03*
X904875Y1082675D03*
X981075Y1082675D03*
X1498600Y1057275D03*
X628650Y917575D03*
X657225Y1060450D03*
X1501775Y803275D03*
X1292225Y327025D03*
X1225550Y339725D03*
X1203325Y777875D03*
D16*
X663575Y79375D02*
X647700Y63500D01*
X663575Y79375D02*
X742950Y79375D01*
X755650Y66675D01*
X1190625Y66675D01*
X835025Y1063625D02*
X847725Y1076325D01*
X981075Y1076325D01*
X1409700Y1041400D02*
X1425575Y1025525D01*
X1558925Y1025525D01*
X1574800Y1041400D01*
X688975Y803275D02*
X673100Y787400D01*
X981075Y803275D02*
X1076325Y803275D01*
X981075Y803275D02*
X688975Y803275D01*
X1076325Y803275D02*
X1092200Y787400D01*
X1654175Y765175D02*
X1676400Y787400D01*
X1514475Y765175D02*
X990600Y765175D01*
X1514475Y765175D02*
X1654175Y765175D01*
X990600Y765175D02*
X981075Y774700D01*
X981075Y803275D01*
X479425Y904875D02*
X431800Y952500D01*
X479425Y904875D02*
X657225Y904875D01*
X666750Y1063625D02*
X835025Y1063625D01*
D17*
X1190625Y66675D03*
X835025Y1063625D03*
X981075Y1076325D03*
X657225Y904875D03*
X1514475Y765175D03*
X666750Y1063625D03*
X1222375Y479425D03*
X1082675Y644525D03*
D16*
X663575Y174625D02*
X631825Y142875D01*
X663575Y174625D02*
X889000Y174625D01*
X895350Y168275D01*
X920750Y168275D01*
X952500Y200025D01*
X1200150Y200025D01*
X1212850Y212725D01*
X1244600Y212725D01*
X1257300Y200025D01*
X1390650Y200025D01*
X841375Y847725D02*
X825500Y863600D01*
X841375Y847725D02*
X908050Y847725D01*
X939800Y815975D01*
X1038225Y815975D01*
X479425Y974725D02*
X457200Y952500D01*
X479425Y974725D02*
X660400Y974725D01*
X666750Y968375D01*
X765175Y968375D01*
X1343025Y1025525D02*
X1358900Y1041400D01*
X1152525Y1025525D02*
X790575Y1025525D01*
X1152525Y1025525D02*
X1343025Y1025525D01*
X790575Y1025525D02*
X774700Y1041400D01*
X1152525Y1028700D02*
X1152525Y1025525D01*
X1549400Y1063625D02*
X1635125Y1063625D01*
X1549400Y1063625D02*
X1543050Y1057275D01*
X1511300Y1057275D01*
X1504950Y1063625D01*
X1381125Y1063625D01*
X1358900Y1041400D01*
X1419225Y79375D02*
X1431925Y66675D01*
X1660525Y66675D01*
X1679575Y85725D01*
X1711325Y85725D01*
D17*
X631825Y142875D03*
X1390650Y200025D03*
X1038225Y815975D03*
X765175Y968375D03*
X1152525Y1028700D03*
X1635125Y1063625D03*
X1419225Y79375D03*
X1711325Y85725D03*
D16*
X739775Y1057275D02*
X723900Y1041400D01*
X968375Y1057275D02*
X1050925Y1057275D01*
X968375Y1057275D02*
X739775Y1057275D01*
X1050925Y1057275D02*
X1057275Y1063625D01*
X1168400Y1063625D02*
X1206500Y1063625D01*
X1168400Y1063625D02*
X1057275Y1063625D01*
X1206500Y1063625D02*
X1212850Y1057275D01*
X1292225Y1057275D01*
X1308100Y1041400D01*
X1168400Y1063625D02*
X1168400Y1076325D01*
X1711325Y1076325D02*
X1752600Y1117600D01*
X1711325Y1076325D02*
X1343025Y1076325D01*
X1308100Y1041400D01*
X1435100Y228600D02*
X1489075Y228600D01*
X657225Y809625D02*
X631825Y784225D01*
X657225Y809625D02*
X847725Y809625D01*
X977900Y828675D02*
X984250Y822325D01*
X977900Y828675D02*
X933450Y828675D01*
X898525Y863600D01*
X850900Y863600D01*
X504825Y784225D02*
X492125Y796925D01*
X504825Y784225D02*
X631825Y784225D01*
X1558925Y771525D02*
X1574800Y787400D01*
X1558925Y771525D02*
X1006475Y771525D01*
X990600Y787400D01*
D17*
X1168400Y1076325D03*
X1489075Y228600D03*
X631825Y784225D03*
X847725Y809625D03*
X984250Y822325D03*
X492125Y796925D03*
X968375Y1057275D03*
D16*
X615950Y720725D02*
X600075Y704850D01*
X625475Y720725D02*
X682625Y720725D01*
X625475Y720725D02*
X615950Y720725D01*
X682625Y720725D02*
X698500Y736600D01*
X1266825Y847725D02*
X1282700Y863600D01*
X1266825Y847725D02*
X1006475Y847725D01*
X990600Y863600D01*
X1558925Y847725D02*
X1574800Y863600D01*
X1558925Y847725D02*
X1457325Y847725D01*
X1450975Y841375D01*
X1304925Y841375D01*
X1282700Y863600D01*
X574675Y1073150D02*
X542925Y1041400D01*
X574675Y1073150D02*
X574675Y1133475D01*
X708025Y1133475D01*
X723900Y1117600D01*
X1292225Y1133475D02*
X1308100Y1117600D01*
X974725Y1133475D02*
X708025Y1133475D01*
X974725Y1133475D02*
X1292225Y1133475D01*
X974725Y1133475D02*
X974725Y1108075D01*
X625475Y727075D02*
X625475Y720725D01*
X625475Y911225D02*
X612775Y923925D01*
X536575Y923925D01*
X508000Y952500D01*
D17*
X600075Y704850D03*
X542925Y1041400D03*
X974725Y1108075D03*
X625475Y727075D03*
X625475Y911225D03*
D16*
X1574800Y914400D02*
X1593850Y895350D01*
X1622425Y895350D01*
X1254125Y809625D02*
X1241425Y822325D01*
X1057275Y822325D01*
X1050925Y828675D01*
X1044575Y828675D01*
X1609725Y822325D02*
X1622425Y835025D01*
X1609725Y822325D02*
X1454150Y822325D01*
X1450975Y819150D01*
X1365250Y819150D01*
X1362075Y822325D01*
X1241425Y822325D01*
X546100Y63500D02*
X555625Y53975D01*
X558800Y53975D01*
X565150Y47625D01*
X619125Y47625D01*
X574675Y1047750D02*
X628650Y1101725D01*
X650875Y1101725D02*
X758825Y1101725D01*
X650875Y1101725D02*
X628650Y1101725D01*
X758825Y1101725D02*
X774700Y1117600D01*
X1343025Y1101725D02*
X1358900Y1117600D01*
X936625Y1101725D02*
X758825Y1101725D01*
X936625Y1101725D02*
X1343025Y1101725D01*
X650875Y1101725D02*
X650875Y1047750D01*
X981075Y923925D02*
X990600Y914400D01*
X981075Y923925D02*
X936625Y923925D01*
X936625Y1089025D02*
X936625Y1101725D01*
D17*
X1622425Y895350D03*
X1254125Y809625D03*
X1044575Y828675D03*
X1622425Y835025D03*
X619125Y47625D03*
X574675Y1047750D03*
X650875Y1047750D03*
X936625Y923925D03*
X936625Y1089025D03*
D16*
X1409700Y863600D02*
X1425575Y847725D01*
X1450975Y847725D01*
X1670050Y889000D02*
X1673225Y885825D01*
X1670050Y889000D02*
X1530350Y889000D01*
X1527175Y892175D01*
X1450975Y892175D01*
X660400Y549275D02*
X568325Y549275D01*
X660400Y549275D02*
X673100Y561975D01*
X841375Y561975D01*
X581025Y930275D02*
X558800Y952500D01*
X581025Y930275D02*
X733425Y930275D01*
X739775Y936625D01*
X822325Y936625D01*
X1127125Y949325D02*
X1133475Y942975D01*
X1127125Y949325D02*
X904875Y949325D01*
X892175Y936625D01*
X822325Y936625D01*
X1450975Y942975D02*
X1450975Y892175D01*
X1450975Y942975D02*
X1238250Y942975D01*
X1225550Y930275D01*
X1206500Y930275D01*
X1193800Y942975D01*
X1133475Y942975D01*
D17*
X1450975Y847725D03*
X1673225Y885825D03*
X1450975Y892175D03*
X568325Y549275D03*
X841375Y561975D03*
X822325Y936625D03*
X1133475Y942975D03*
D16*
X1158875Y879475D02*
X1143000Y863600D01*
X1187450Y879475D02*
X1419225Y879475D01*
X1187450Y879475D02*
X1158875Y879475D01*
X1419225Y879475D02*
X1435100Y863600D01*
X1460500Y1117600D02*
X1476375Y1133475D01*
X1758950Y1133475D01*
X1762125Y1130300D01*
X1762125Y1057275D01*
X1720850Y1057275D01*
X1717675Y1054100D01*
X1717675Y1006475D01*
X1736725Y1006475D01*
X1752600Y990600D01*
X1450975Y879475D02*
X1435100Y863600D01*
X1450975Y879475D02*
X1711325Y879475D01*
X1727200Y863600D01*
X511175Y47625D02*
X495300Y63500D01*
X511175Y47625D02*
X558800Y47625D01*
X644525Y736600D02*
X644525Y752475D01*
X644525Y736600D02*
X644525Y727075D01*
X644525Y752475D02*
X835025Y752475D01*
X850900Y736600D01*
X644525Y736600D02*
X593725Y736600D01*
X866775Y752475D02*
X936625Y752475D01*
X866775Y752475D02*
X850900Y736600D01*
X1177925Y1089025D02*
X1174750Y1092200D01*
X968375Y1092200D01*
D17*
X1187450Y879475D03*
X558800Y47625D03*
X644525Y727075D03*
X593725Y736600D03*
X936625Y752475D03*
X1177925Y1089025D03*
X968375Y1092200D03*
D16*
X488950Y149225D02*
X482600Y142875D01*
X488950Y149225D02*
X628650Y149225D01*
X666750Y187325D01*
X714375Y187325D01*
X1368425Y498475D02*
X1609725Y498475D01*
X1368425Y498475D02*
X1298575Y498475D01*
X1609725Y498475D02*
X1625600Y482600D01*
X1057275Y447675D02*
X1044575Y460375D01*
X1057275Y447675D02*
X1346200Y447675D01*
X1368425Y469900D01*
X1368425Y498475D01*
X892175Y692150D02*
X723900Y692150D01*
X892175Y692150D02*
X895350Y695325D01*
X1031875Y695325D01*
D17*
X482600Y142875D03*
X714375Y187325D03*
X1298575Y498475D03*
X1044575Y460375D03*
X723900Y692150D03*
X1031875Y695325D03*
D16*
X800100Y863600D02*
X784225Y847725D01*
X796925Y736600D02*
X784225Y723900D01*
X796925Y736600D02*
X800100Y736600D01*
D17*
X923925Y561975D03*
X784225Y847725D03*
X784225Y723900D03*
D16*
X866775Y244475D02*
X866775Y212725D01*
X866775Y244475D02*
X644525Y244475D01*
D17*
X866775Y212725D03*
X644525Y244475D03*
X644525Y666750D03*
X917575Y644525D03*
D16*
X498475Y987425D02*
X482600Y1003300D01*
X498475Y987425D02*
X539750Y987425D01*
X549275Y996950D01*
X549275Y1041400D01*
X673100Y1041400D01*
X574675Y1019175D02*
X558800Y1003300D01*
X574675Y1019175D02*
X669925Y1019175D01*
X698500Y990600D01*
X876300Y101600D02*
X860425Y85725D01*
X819150Y85725D01*
X809625Y95250D01*
X809625Y123825D01*
X790575Y123825D01*
X800100Y333375D02*
X800100Y355600D01*
X800100Y333375D02*
X793750Y333375D01*
D17*
X790575Y123825D03*
X793750Y333375D03*
D16*
X847725Y815975D02*
X873125Y841375D01*
X847725Y815975D02*
X654050Y815975D01*
X641350Y803275D01*
X457200Y803275D01*
X450850Y809625D01*
X422275Y809625D01*
X406400Y825500D01*
X1584325Y625475D02*
X1600200Y609600D01*
X1584325Y625475D02*
X1511300Y625475D01*
X1704975Y327025D02*
X1724025Y307975D01*
X1704975Y327025D02*
X1504950Y327025D01*
X1282700Y736600D02*
X1298575Y752475D01*
X1457325Y752475D01*
X1177925Y701675D02*
X1158875Y682625D01*
X1177925Y701675D02*
X1244600Y701675D01*
X1279525Y736600D01*
X1282700Y736600D01*
X714375Y371475D02*
X698500Y355600D01*
X714375Y371475D02*
X873125Y371475D01*
X885825Y384175D01*
X917575Y384175D01*
X917575Y549275D02*
X958850Y549275D01*
X996950Y587375D01*
X1012825Y587375D01*
X917575Y638175D02*
X879475Y676275D01*
D17*
X873125Y841375D03*
X1511300Y625475D03*
X1724025Y307975D03*
X1504950Y327025D03*
X1457325Y752475D03*
X1158875Y682625D03*
X917575Y384175D03*
X917575Y549275D03*
X1012825Y587375D03*
X879475Y676275D03*
X917575Y638175D03*
D16*
X993775Y555625D02*
X1012825Y574675D01*
X1082675Y574675D01*
X1241425Y676275D02*
X1257300Y660400D01*
X1241425Y676275D02*
X1108075Y676275D01*
X1092200Y660400D01*
X1387475Y936625D02*
X1409700Y914400D01*
X1387475Y936625D02*
X1250950Y936625D01*
X1565275Y295275D02*
X1660525Y295275D01*
X1676400Y279400D01*
X673100Y279400D02*
X657225Y263525D01*
X425450Y263525D01*
X619125Y879475D02*
X822325Y879475D01*
X619125Y879475D02*
X593725Y854075D01*
X469900Y854075D01*
X457200Y841375D01*
X447675Y841375D01*
X431800Y825500D01*
X688975Y295275D02*
X1241425Y295275D01*
X1565275Y295275D01*
X688975Y295275D02*
X673100Y279400D01*
X1241425Y295275D02*
X1241425Y307975D01*
D17*
X993775Y555625D03*
X1082675Y574675D03*
X1250950Y936625D03*
X1565275Y295275D03*
X425450Y263525D03*
X822325Y879475D03*
X1241425Y307975D03*
D16*
X400050Y82550D02*
X381000Y63500D01*
X400050Y82550D02*
X479425Y82550D01*
X552450Y384175D02*
X666750Y384175D01*
X673100Y377825D01*
X822325Y377825D01*
X1635125Y561975D02*
X1666875Y593725D01*
X1711325Y593725D01*
X1727200Y609600D01*
X1063625Y638175D02*
X1041400Y660400D01*
X1063625Y638175D02*
X1139825Y638175D01*
X790575Y898525D02*
X774700Y914400D01*
X790575Y898525D02*
X1343025Y898525D01*
X1358900Y914400D01*
X1393825Y898525D02*
X1400175Y892175D01*
X1393825Y898525D02*
X1343025Y898525D01*
X479425Y847725D02*
X457200Y825500D01*
X479425Y847725D02*
X765175Y847725D01*
X1139825Y638175D02*
X1165225Y638175D01*
X1171575Y644525D01*
X1263650Y644525D01*
X1273175Y654050D01*
X1273175Y692150D01*
X1400175Y692150D01*
X1403350Y695325D02*
X1635125Y695325D01*
X1403350Y695325D02*
X1400175Y692150D01*
X841375Y682625D02*
X835025Y676275D01*
X841375Y682625D02*
X889000Y682625D01*
X895350Y676275D01*
X1025525Y676275D01*
X1041400Y660400D01*
D17*
X479425Y82550D03*
X552450Y384175D03*
X822325Y377825D03*
X1635125Y561975D03*
X1139825Y638175D03*
X1400175Y892175D03*
X765175Y847725D03*
X1400175Y692150D03*
X1635125Y695325D03*
X835025Y676275D03*
D16*
X723900Y914400D02*
X739775Y930275D01*
X1200150Y930275D01*
X1206500Y923925D01*
X1235075Y923925D02*
X1244600Y923925D01*
X1235075Y923925D02*
X1206500Y923925D01*
X1244600Y923925D02*
X1250950Y930275D01*
X1292225Y930275D01*
X1308100Y914400D01*
X1574800Y279400D02*
X1603375Y250825D01*
X1727200Y250825D01*
X1444625Y631825D02*
X1444625Y641350D01*
X1444625Y673100D01*
X1444625Y631825D02*
X1730375Y631825D01*
X1752600Y609600D01*
X368300Y276225D02*
X352425Y260350D01*
X368300Y276225D02*
X552450Y276225D01*
X558800Y269875D01*
X641350Y269875D01*
X679450Y307975D01*
X831850Y307975D01*
X923925Y384175D02*
X974725Y384175D01*
X923925Y384175D02*
X911225Y371475D01*
X879475Y371475D01*
X863600Y355600D01*
X850900Y355600D01*
X1158875Y581025D02*
X1165225Y587375D01*
X1158875Y581025D02*
X1000125Y581025D01*
X1266825Y641350D02*
X1444625Y641350D01*
X1266825Y641350D02*
X1263650Y638175D01*
X1235075Y638175D02*
X1171575Y638175D01*
X1235075Y638175D02*
X1263650Y638175D01*
D17*
X1727200Y250825D03*
X1444625Y673100D03*
X352425Y260350D03*
X831850Y307975D03*
X974725Y384175D03*
X1165225Y587375D03*
X1000125Y581025D03*
X1171575Y638175D03*
X1235075Y923925D03*
X1235075Y638175D03*
D16*
X657225Y222250D02*
X625475Y222250D01*
X330200Y222250D01*
X657225Y222250D02*
X666750Y212725D01*
X682625Y212725D01*
X698500Y228600D01*
X1282700Y355600D02*
X1298575Y339725D01*
X1558925Y339725D01*
X1574800Y355600D01*
X739775Y1006475D02*
X723900Y990600D01*
X1000125Y1006475D02*
X1292225Y1006475D01*
X1000125Y1006475D02*
X739775Y1006475D01*
X1292225Y1006475D02*
X1308100Y990600D01*
X1000125Y1003300D02*
X1000125Y1006475D01*
X1012825Y504825D02*
X981075Y504825D01*
X660400Y981075D02*
X574675Y981075D01*
X660400Y981075D02*
X666750Y974725D01*
X708025Y974725D01*
X723900Y990600D01*
X1276350Y441325D02*
X1292225Y425450D01*
X1276350Y441325D02*
X1019175Y441325D01*
X622300Y441325D02*
X622300Y422275D01*
X622300Y441325D02*
X1019175Y441325D01*
D17*
X330200Y222250D03*
X1000125Y1003300D03*
X1012825Y504825D03*
X981075Y504825D03*
X574675Y981075D03*
X1292225Y425450D03*
X1019175Y441325D03*
X625475Y222250D03*
X622300Y422275D03*
D16*
X790575Y974725D02*
X774700Y990600D01*
X1196975Y974725D02*
X1343025Y974725D01*
X1196975Y974725D02*
X790575Y974725D01*
X1343025Y974725D02*
X1358900Y990600D01*
X1057275Y752475D02*
X1041400Y736600D01*
X1057275Y752475D02*
X1196975Y752475D01*
X1196975Y962025D02*
X1196975Y974725D01*
X1247775Y384175D02*
X1403350Y384175D01*
X1409700Y390525D01*
X1533525Y390525D01*
X1539875Y384175D01*
X1552575Y384175D01*
X1574800Y406400D01*
X320675Y47625D02*
X304800Y63500D01*
X320675Y47625D02*
X463550Y47625D01*
X485775Y69850D01*
X485775Y76200D02*
X485775Y79375D01*
X485775Y76200D02*
X485775Y69850D01*
X485775Y79375D02*
X644525Y79375D01*
X927100Y168275D02*
X974725Y168275D01*
X927100Y168275D02*
X920750Y161925D01*
X863600Y161925D01*
X857250Y168275D01*
X688975Y168275D01*
X673100Y152400D01*
X485775Y76200D02*
X473075Y76200D01*
X993775Y384175D02*
X1247775Y384175D01*
D17*
X1196975Y752475D03*
X1196975Y962025D03*
X1247775Y384175D03*
X644525Y79375D03*
X974725Y168275D03*
X473075Y76200D03*
X993775Y384175D03*
D16*
X1409700Y355600D02*
X1425575Y371475D01*
X1482725Y371475D02*
X1511300Y371475D01*
X1482725Y371475D02*
X1425575Y371475D01*
X1511300Y371475D02*
X1517650Y377825D01*
X1676400Y377825D02*
X1720850Y377825D01*
X1676400Y377825D02*
X1517650Y377825D01*
X1720850Y377825D02*
X1736725Y393700D01*
X1736725Y482600D01*
X1727200Y482600D01*
X1403350Y377825D02*
X1216025Y377825D01*
X1403350Y377825D02*
X1409700Y384175D01*
X1470025Y384175D01*
X1482725Y371475D01*
X415925Y196850D02*
X314325Y196850D01*
X415925Y196850D02*
X428625Y209550D01*
X479425Y209550D01*
X485775Y215900D01*
X657225Y215900D01*
X666750Y206375D01*
X803275Y206375D01*
X825500Y228600D01*
X1076325Y720725D02*
X1092200Y736600D01*
X1076325Y720725D02*
X1035050Y720725D01*
X1025525Y730250D01*
X1025525Y752475D01*
X984250Y752475D01*
X974725Y742950D01*
X974725Y720725D01*
X844550Y720725D01*
X835025Y711200D01*
X1381125Y962025D02*
X1409700Y990600D01*
X1381125Y962025D02*
X1231900Y962025D01*
X1225550Y955675D01*
X1146175Y955675D01*
X1139825Y962025D01*
X965200Y962025D01*
X958850Y955675D01*
X904875Y955675D01*
X892175Y942975D01*
X828675Y942975D01*
X574675Y809625D02*
X558800Y825500D01*
X574675Y809625D02*
X615950Y809625D01*
X628650Y822325D01*
X815975Y822325D01*
X1076325Y720725D02*
X1196975Y720725D01*
D17*
X1216025Y377825D03*
X1676400Y377825D03*
X314325Y196850D03*
X835025Y711200D03*
X828675Y942975D03*
X815975Y822325D03*
X1196975Y473075D03*
X1196975Y720725D03*
D16*
X292100Y111125D02*
X276225Y95250D01*
X292100Y111125D02*
X403225Y111125D01*
X447675Y155575D01*
X596900Y155575D01*
X622300Y180975D02*
X635000Y193675D01*
X622300Y180975D02*
X596900Y155575D01*
X635000Y193675D02*
X815975Y193675D01*
X850900Y228600D01*
X1435100Y355600D02*
X1444625Y365125D01*
X1511300Y365125D01*
X1517650Y371475D01*
X1711325Y371475D01*
X1727200Y355600D01*
X882650Y711200D02*
X876300Y704850D01*
X882650Y711200D02*
X885825Y714375D01*
X876300Y704850D02*
X803275Y704850D01*
X796925Y711200D01*
X650875Y711200D01*
X638175Y698500D01*
X584200Y698500D01*
X1139825Y701675D02*
X1146175Y708025D01*
X1139825Y701675D02*
X895350Y701675D01*
X885825Y711200D01*
X882650Y711200D01*
X1419225Y949325D02*
X1460500Y990600D01*
X1419225Y949325D02*
X1152525Y949325D01*
X1177925Y504825D02*
X1517650Y504825D01*
X622300Y180975D02*
X593725Y209550D01*
D17*
X276225Y95250D03*
X885825Y714375D03*
X1146175Y708025D03*
X1177925Y504825D03*
X1152525Y949325D03*
X1517650Y371475D03*
X1517650Y504825D03*
X593725Y209550D03*
D16*
X698500Y533400D02*
X714375Y549275D01*
X720725Y549275D01*
X892175Y949325D02*
X911225Y968375D01*
X892175Y949325D02*
X746125Y949325D01*
X733425Y936625D01*
D17*
X720725Y549275D03*
X911225Y968375D03*
X733425Y936625D03*
D16*
X835025Y1082675D02*
X847725Y1095375D01*
X835025Y1082675D02*
X692150Y1082675D01*
D17*
X692150Y587375D03*
X847725Y1095375D03*
X692150Y1082675D03*
D16*
X714375Y841375D02*
X727075Y828675D01*
X796925Y828675D01*
D17*
X714375Y841375D03*
X796925Y828675D03*
X860425Y752475D03*
D16*
X723900Y660400D02*
X708025Y676275D01*
X803275Y698500D02*
X892175Y698500D01*
X803275Y698500D02*
X796925Y704850D01*
X730250Y704850D01*
X708025Y682625D01*
X708025Y676275D01*
D17*
X708025Y676275D03*
X892175Y698500D03*
D16*
X714375Y644525D02*
X698500Y660400D01*
X714375Y644525D02*
X847725Y644525D01*
D17*
X847725Y644525D03*
X739775Y835025D03*
D16*
X758825Y698500D02*
X796925Y698500D01*
D17*
X758825Y698500D03*
X796925Y698500D03*
D16*
X742950Y676275D02*
X739775Y673100D01*
X742950Y676275D02*
X809625Y676275D01*
X825500Y660400D01*
X882650Y955675D02*
X889000Y962025D01*
X882650Y955675D02*
X644525Y955675D01*
X657225Y704850D02*
X657225Y638175D01*
X850900Y638175D01*
X860425Y647700D01*
X860425Y676275D01*
X841375Y676275D01*
X825500Y660400D01*
D17*
X739775Y673100D03*
X889000Y962025D03*
X644525Y955675D03*
X657225Y704850D03*
D16*
X714375Y390525D02*
X733425Y390525D01*
X714375Y390525D02*
X698500Y406400D01*
X927100Y568325D02*
X930275Y571500D01*
X927100Y568325D02*
X704850Y568325D01*
D17*
X733425Y390525D03*
X930275Y571500D03*
X704850Y568325D03*
X866775Y638175D03*
D16*
X777875Y962025D02*
X749300Y990600D01*
X777875Y962025D02*
X882650Y962025D01*
X869950Y454025D02*
X850900Y454025D01*
D17*
X882650Y962025D03*
X869950Y454025D03*
X850900Y454025D03*
D16*
X717550Y428625D02*
X708025Y419100D01*
X717550Y428625D02*
X898525Y428625D01*
D17*
X708025Y419100D03*
X898525Y428625D03*
X682625Y828675D03*
X682625Y803275D03*
D16*
X765175Y384175D02*
X866775Y384175D01*
D17*
X765175Y384175D03*
X866775Y384175D03*
D16*
X835025Y717550D02*
X841375Y723900D01*
X835025Y717550D02*
X765175Y717550D01*
D17*
X784225Y336550D03*
X841375Y723900D03*
X765175Y717550D03*
X771525Y454025D03*
D16*
X431800Y1003300D02*
X447675Y1019175D01*
X492125Y1019175D01*
X508000Y1003300D01*
X800100Y25400D02*
X815975Y9525D01*
X860425Y9525D01*
X876300Y25400D01*
X184150Y273050D02*
X177800Y279400D01*
X184150Y273050D02*
X238125Y273050D01*
X241300Y269875D01*
X327025Y269875D02*
X352425Y269875D01*
X327025Y269875D02*
X241300Y269875D01*
X371475Y25400D02*
X800100Y25400D01*
X320675Y625475D02*
X307975Y638175D01*
X327025Y276225D02*
X327025Y269875D01*
D17*
X352425Y269875D03*
X371475Y25400D03*
X307975Y638175D03*
X320675Y625475D03*
X327025Y276225D03*
D16*
X482600Y1079500D02*
X498475Y1095375D01*
X542925Y1095375D01*
X558800Y1079500D01*
X177800Y254000D02*
X180975Y250825D01*
X203200Y250825D01*
X215900Y101600D02*
X203200Y88900D01*
X231775Y101600D02*
X260350Y101600D01*
X231775Y101600D02*
X215900Y101600D01*
X260350Y101600D02*
X273050Y88900D01*
X790575Y88900D01*
X803275Y76200D01*
X962025Y76200D01*
X95250Y88900D02*
X73025Y111125D01*
X95250Y88900D02*
X190500Y88900D01*
X215900Y114300D01*
X219075Y114300D01*
X231775Y101600D01*
D17*
X203200Y250825D03*
X203200Y88900D03*
X962025Y76200D03*
X73025Y111125D03*
D16*
X1282700Y25400D02*
X1298575Y9525D01*
X1343025Y9525D01*
X1358900Y25400D01*
X282575Y441325D02*
X152400Y441325D01*
X282575Y441325D02*
X301625Y460375D01*
X428625Y460375D01*
X492125Y511175D02*
X508000Y495300D01*
X492125Y511175D02*
X447675Y511175D01*
X431800Y495300D01*
X1225550Y53975D02*
X1231900Y47625D01*
X1225550Y53975D02*
X1016000Y53975D01*
X1009650Y60325D01*
X844550Y60325D01*
X790575Y12700D02*
X346075Y12700D01*
X339725Y6350D01*
X190500Y6350D01*
X187325Y9525D01*
D17*
X152400Y441325D03*
X428625Y460375D03*
X1231900Y47625D03*
X844550Y60325D03*
X790575Y12700D03*
X187325Y9525D03*
D16*
X1524000Y25400D02*
X1539875Y9525D01*
X1584325Y9525D01*
X1600200Y25400D01*
X184150Y209550D02*
X177800Y203200D01*
X184150Y209550D02*
X215900Y209550D01*
X219075Y581025D02*
X231775Y593725D01*
X457200Y593725D01*
X479425Y571500D01*
X482600Y571500D01*
X542925Y587375D02*
X558800Y571500D01*
X542925Y587375D02*
X498475Y587375D01*
X482600Y571500D01*
X1450975Y314325D02*
X1463675Y301625D01*
X1450975Y314325D02*
X1146175Y314325D01*
X1133475Y327025D01*
X920750Y327025D01*
X908050Y339725D01*
X812800Y339725D01*
X800100Y327025D01*
X704850Y327025D01*
X682625Y349250D01*
X682625Y371475D01*
X638175Y371475D01*
X631825Y523875D02*
X561975Y523875D01*
D17*
X215900Y209550D03*
X219075Y581025D03*
X1463675Y301625D03*
X638175Y371475D03*
X631825Y523875D03*
X561975Y523875D03*
D16*
X422275Y254000D02*
X254000Y254000D01*
X422275Y254000D02*
X425450Y257175D01*
X822325Y257175D01*
D17*
X822325Y257175D03*
D16*
X254000Y304800D02*
X244475Y314325D01*
X139700Y314325D01*
X139700Y488950D02*
X133350Y495300D01*
X88900Y495300D01*
X76200Y482600D01*
D17*
X139700Y314325D03*
X139700Y488950D03*
D16*
X244475Y288925D02*
X254000Y279400D01*
X244475Y288925D02*
X136525Y288925D01*
D17*
X136525Y288925D03*
D16*
X174625Y307975D02*
X177800Y304800D01*
X174625Y307975D02*
X146050Y307975D01*
X146050Y390525D02*
X142875Y393700D01*
X88900Y393700D01*
X76200Y406400D01*
D17*
X146050Y307975D03*
X146050Y390525D03*
D16*
X254000Y203200D02*
X409575Y203200D01*
X447675Y142875D02*
X460375Y130175D01*
X1000125Y130175D01*
X1006475Y123825D01*
X1330325Y123825D01*
X1387475Y123825D01*
D17*
X409575Y203200D03*
X447675Y142875D03*
X1330325Y123825D03*
X1387475Y123825D03*
D16*
X146050Y444500D02*
X88900Y444500D01*
X76200Y431800D01*
D17*
X146050Y444500D03*
D16*
X127000Y469900D02*
X152400Y495300D01*
X127000Y469900D02*
X88900Y469900D01*
X76200Y457200D01*
D17*
X152400Y495300D03*
D16*
X231775Y549275D02*
X238125Y555625D01*
X231775Y549275D02*
X107950Y549275D01*
X104775Y546100D01*
X88900Y546100D01*
X76200Y533400D01*
D17*
X238125Y555625D03*
D16*
X250825Y561975D02*
X254000Y558800D01*
X250825Y561975D02*
X196850Y561975D01*
X190500Y568325D01*
X107950Y568325D01*
X104775Y571500D01*
X88900Y571500D01*
X76200Y558800D01*
X450850Y606425D02*
X473075Y584200D01*
X450850Y606425D02*
X327025Y606425D01*
X307975Y625475D01*
X187325Y625475D01*
X177800Y635000D01*
D17*
X473075Y584200D03*
D16*
X539750Y295275D02*
X558800Y276225D01*
X539750Y295275D02*
X406400Y295275D01*
X400050Y301625D01*
X320675Y301625D01*
X320675Y606425D02*
X317500Y609600D01*
X254000Y609600D01*
D17*
X558800Y276225D03*
X320675Y301625D03*
X320675Y606425D03*
D16*
X196850Y203200D02*
X209550Y190500D01*
X409575Y190500D01*
X425450Y174625D01*
X466725Y174625D01*
X482600Y190500D01*
D17*
X196850Y203200D03*
D16*
X101600Y1117600D02*
X88900Y1117600D01*
X76200Y1117600D01*
X279400Y231775D02*
X282575Y228600D01*
X317500Y228600D01*
X330200Y215900D01*
X454025Y215900D01*
X88900Y952500D02*
X88900Y1117600D01*
X88900Y952500D02*
X47625Y952500D01*
X6350Y911225D01*
X6350Y161925D01*
X44450Y161925D01*
X47625Y158750D01*
X241300Y158750D01*
D17*
X279400Y231775D03*
X454025Y215900D03*
X241300Y158750D03*
D16*
X234950Y146050D02*
X231775Y142875D01*
X98425Y142875D01*
X12700Y57150D01*
X12700Y25400D01*
X25400Y25400D01*
D17*
X225425Y536575D03*
X234950Y146050D03*
D16*
X180975Y530225D02*
X177800Y533400D01*
X180975Y530225D02*
X225425Y530225D01*
X228600Y95250D02*
X209550Y76200D01*
X82550Y76200D01*
X63500Y57150D01*
X63500Y25400D01*
X50800Y25400D01*
D17*
X225425Y530225D03*
X228600Y95250D03*
D16*
X180975Y504825D02*
X177800Y508000D01*
X180975Y504825D02*
X225425Y504825D01*
X215900Y107950D02*
X190500Y82550D01*
X63500Y82550D01*
X38100Y57150D01*
X38100Y12700D01*
X63500Y12700D01*
X76200Y25400D01*
D17*
X225425Y504825D03*
X215900Y107950D03*
D16*
X209550Y63500D02*
X133350Y63500D01*
X101600Y31750D01*
X101600Y25400D01*
D17*
X209550Y63500D03*
D16*
X254000Y533400D02*
X260350Y539750D01*
X282575Y539750D01*
D17*
X282575Y539750D03*
X149225Y600075D03*
X139700Y536575D03*
D16*
X244475Y466725D02*
X254000Y457200D01*
X244475Y466725D02*
X206375Y466725D01*
D17*
X206375Y466725D03*
D16*
X254000Y228600D02*
X260350Y222250D01*
X317500Y222250D01*
X330200Y209550D01*
X409575Y209550D01*
X447675Y149225D02*
X460375Y136525D01*
X1000125Y136525D01*
X1006475Y130175D01*
X1085850Y130175D01*
X1139825Y130175D01*
D17*
X409575Y209550D03*
X447675Y149225D03*
X1085850Y130175D03*
X1139825Y130175D03*
D16*
X1574800Y101600D02*
X1590675Y117475D01*
X1635125Y117475D01*
X1651000Y101600D01*
X257175Y174625D02*
X254000Y177800D01*
X257175Y174625D02*
X403225Y174625D01*
X415925Y161925D01*
X584200Y161925D01*
X600075Y177800D01*
X676275Y263525D02*
X1127125Y263525D01*
X1139825Y250825D01*
X1431925Y250825D01*
X1450975Y123825D02*
X1552575Y123825D01*
X1574800Y101600D01*
D17*
X600075Y177800D03*
X676275Y263525D03*
X1431925Y250825D03*
X1450975Y123825D03*
D16*
X107950Y857250D02*
X101600Y863600D01*
X107950Y857250D02*
X161925Y857250D01*
X165100Y854075D01*
X225425Y854075D01*
X282575Y371475D02*
X285750Y368300D01*
X431800Y368300D01*
D17*
X225425Y854075D03*
X282575Y371475D03*
D16*
X50800Y635000D02*
X63500Y647700D01*
X307975Y647700D01*
X314325Y641350D01*
X361950Y641350D01*
X381000Y622300D01*
X63500Y673100D02*
X50800Y660400D01*
X63500Y673100D02*
X187325Y673100D01*
X206375Y654050D01*
X307975Y654050D01*
X311150Y650875D01*
X377825Y650875D01*
X406400Y622300D01*
X57150Y692150D02*
X50800Y685800D01*
X57150Y692150D02*
X66675Y692150D01*
X73025Y698500D01*
X107950Y698500D01*
X123825Y714375D01*
X412750Y714375D01*
D17*
X412750Y714375D03*
D16*
X63500Y723900D02*
X50800Y711200D01*
X63500Y723900D02*
X114300Y723900D01*
X117475Y727075D01*
X447675Y727075D01*
D17*
X447675Y727075D03*
D16*
X136525Y695325D02*
X123825Y708025D01*
X136525Y695325D02*
X330200Y695325D01*
X368300Y657225D01*
X447675Y657225D01*
X482600Y622300D01*
D17*
X123825Y708025D03*
D16*
X117475Y720725D02*
X488950Y720725D01*
D17*
X117475Y720725D03*
X488950Y720725D03*
D16*
X50800Y787400D02*
X38100Y800100D01*
X38100Y850900D01*
X161925Y850900D01*
X165100Y847725D01*
X457200Y847725D01*
X469900Y860425D01*
X517525Y860425D01*
X533400Y876300D01*
X269875Y933450D02*
X114300Y933450D01*
X269875Y933450D02*
X311150Y892175D01*
X542925Y892175D01*
X558800Y876300D01*
D17*
X114300Y933450D03*
D16*
X279400Y809625D02*
X377825Y809625D01*
X279400Y809625D02*
X263525Y825500D01*
X63500Y825500D01*
X50800Y838200D01*
D17*
X377825Y809625D03*
D16*
X406400Y749300D02*
X390525Y733425D01*
X279400Y733425D01*
X266700Y746125D01*
X133350Y746125D01*
D17*
X133350Y746125D03*
D16*
X285750Y876300D02*
X307975Y854075D01*
X285750Y876300D02*
X63500Y876300D01*
X50800Y889000D01*
D17*
X307975Y854075D03*
D16*
X434975Y796925D02*
X454025Y777875D01*
X434975Y796925D02*
X196850Y796925D01*
X190500Y803275D01*
X133350Y803275D01*
X104775Y774700D01*
X47625Y774700D01*
X31750Y790575D01*
X31750Y904875D01*
X41275Y904875D01*
X50800Y914400D01*
D17*
X454025Y777875D03*
D16*
X285750Y215900D02*
X88900Y215900D01*
X76200Y228600D01*
D17*
X333375Y704850D03*
X285750Y215900D03*
X136525Y282575D03*
D16*
X498475Y714375D02*
X533400Y749300D01*
X498475Y714375D02*
X466725Y714375D01*
X412750Y238125D02*
X422275Y228600D01*
X412750Y238125D02*
X107950Y238125D01*
X104775Y241300D01*
X98425Y241300D01*
X88900Y250825D01*
D17*
X466725Y714375D03*
X422275Y228600D03*
X88900Y250825D03*
D16*
X520700Y711200D02*
X558800Y749300D01*
X520700Y711200D02*
X517525Y711200D01*
X517525Y288925D02*
X511175Y282575D01*
X273050Y282575D01*
X260350Y295275D01*
X107950Y295275D01*
X104775Y292100D01*
X88900Y292100D01*
X76200Y304800D01*
D17*
X517525Y711200D03*
X517525Y288925D03*
D16*
X574675Y635000D02*
X546100Y663575D01*
X374650Y663575D01*
D17*
X574675Y635000D03*
X374650Y663575D03*
D16*
X485775Y682625D02*
X492125Y676275D01*
X485775Y682625D02*
X396875Y682625D01*
X381000Y698500D01*
D17*
X492125Y676275D03*
D16*
X488950Y168275D02*
X415925Y168275D01*
X400050Y184150D01*
X377825Y184150D01*
D17*
X488950Y168275D03*
X377825Y184150D03*
D16*
X517525Y301625D02*
X533400Y317500D01*
X517525Y301625D02*
X498475Y301625D01*
X482600Y317500D01*
X968375Y377825D02*
X990600Y355600D01*
X968375Y377825D02*
X955675Y377825D01*
X936625Y600075D02*
X911225Y625475D01*
X739775Y625475D01*
X723900Y609600D01*
X1292225Y625475D02*
X1308100Y609600D01*
X1292225Y625475D02*
X911225Y625475D01*
X1524000Y587375D02*
X1530350Y593725D01*
X1524000Y587375D02*
X1311275Y587375D01*
X50800Y228600D02*
X31750Y209550D01*
X120650Y69850D02*
X225425Y69850D01*
X254000Y41275D01*
X787400Y41275D01*
X800100Y53975D01*
X933450Y53975D01*
D17*
X955675Y377825D03*
X936625Y600075D03*
X1530350Y593725D03*
X1311275Y587375D03*
X31750Y209550D03*
X120650Y69850D03*
X933450Y53975D03*
D16*
X1127125Y555625D02*
X1146175Y574675D01*
X1193800Y574675D01*
X1212850Y593725D01*
X1343025Y593725D01*
X1358900Y609600D01*
X790575Y593725D02*
X774700Y609600D01*
X790575Y593725D02*
X1212850Y593725D01*
X1609725Y720725D02*
X1625600Y736600D01*
X1609725Y625475D02*
X1609725Y593725D01*
X1536700Y593725D01*
X1530350Y600075D01*
X1498600Y600075D01*
X1492250Y593725D01*
X1343025Y593725D01*
X371475Y152400D02*
X60325Y152400D01*
X384175Y330200D02*
X390525Y336550D01*
X498475Y336550D01*
X498475Y593725D02*
X511175Y606425D01*
X654050Y606425D01*
X666750Y593725D01*
X790575Y593725D01*
D17*
X1127125Y555625D03*
X1609725Y720725D03*
X1609725Y625475D03*
X60325Y152400D03*
X371475Y152400D03*
X384175Y330200D03*
X498475Y336550D03*
X498475Y593725D03*
D16*
X1450975Y638175D02*
X1470025Y657225D01*
X1498600Y657225D01*
X1524000Y682625D01*
X1695450Y682625D01*
X1736725Y723900D01*
X1736725Y752475D01*
X1692275Y752475D01*
X1676400Y736600D01*
X838200Y577850D02*
X828675Y587375D01*
X838200Y577850D02*
X942975Y577850D01*
X955675Y333375D02*
X1095375Y333375D01*
X63500Y266700D02*
X50800Y279400D01*
X63500Y266700D02*
X238125Y266700D01*
X241300Y263525D01*
X320675Y263525D01*
X339725Y504825D02*
X346075Y511175D01*
X419100Y511175D01*
X431800Y523875D01*
X479425Y523875D01*
X485775Y555625D02*
X615950Y555625D01*
X635000Y574675D01*
X815975Y574675D01*
X828675Y587375D01*
X1447800Y828675D02*
X1450975Y825500D01*
X1447800Y828675D02*
X1057275Y828675D01*
X1050925Y835025D01*
X984250Y835025D01*
D17*
X1450975Y638175D03*
X828675Y587375D03*
X942975Y577850D03*
X955675Y333375D03*
X1095375Y333375D03*
X320675Y263525D03*
X339725Y504825D03*
X479425Y523875D03*
X485775Y555625D03*
X1450975Y825500D03*
X984250Y835025D03*
D16*
X1463675Y657225D02*
X1470025Y663575D01*
X1498600Y663575D01*
X1524000Y688975D01*
X1584325Y688975D02*
X1679575Y688975D01*
X1584325Y688975D02*
X1524000Y688975D01*
X1679575Y688975D02*
X1727200Y736600D01*
X917575Y339725D02*
X892175Y365125D01*
X917575Y339725D02*
X1127125Y339725D01*
X1143000Y355600D01*
X57150Y311150D02*
X50800Y304800D01*
X57150Y311150D02*
X66675Y311150D01*
X73025Y317500D01*
X107950Y317500D01*
X123825Y333375D01*
X158750Y333375D01*
X339725Y552450D02*
X342900Y555625D01*
X415925Y555625D01*
X428625Y542925D01*
X660400Y542925D01*
X673100Y555625D01*
X873125Y555625D01*
X1177925Y320675D02*
X1571625Y320675D01*
X1177925Y320675D02*
X1143000Y355600D01*
D17*
X1463675Y657225D03*
X892175Y365125D03*
X158750Y333375D03*
X339725Y552450D03*
X873125Y555625D03*
X1584325Y688975D03*
X1571625Y320675D03*
D16*
X1463675Y447675D02*
X1450975Y460375D01*
X1463675Y447675D02*
X1717675Y447675D01*
X136525Y473075D02*
X127000Y463550D01*
X136525Y473075D02*
X660400Y473075D01*
X666750Y466725D01*
X787400Y466725D01*
X793750Y460375D01*
X936625Y460375D01*
X1152525Y257175D02*
X1444625Y257175D01*
D17*
X1450975Y460375D03*
X1717675Y447675D03*
X127000Y463550D03*
X936625Y460375D03*
X936625Y473075D03*
X1444625Y257175D03*
X1152525Y257175D03*
D16*
X1412875Y574675D02*
X1638300Y574675D01*
X1666875Y603250D01*
X1666875Y625475D01*
X1673225Y625475D01*
X384175Y384175D02*
X114300Y384175D01*
X406400Y374650D02*
X415925Y384175D01*
X514350Y384175D01*
X523875Y374650D01*
X523875Y349250D01*
X657225Y349250D01*
X685800Y320675D01*
X971550Y320675D01*
X1406525Y581025D02*
X1412875Y574675D01*
X1406525Y581025D02*
X1231900Y581025D01*
X1219200Y568325D01*
X1146175Y568325D01*
D17*
X1412875Y574675D03*
X1673225Y625475D03*
X114300Y384175D03*
X384175Y384175D03*
X406400Y374650D03*
X971550Y320675D03*
X1146175Y568325D03*
X1146175Y428625D03*
D16*
X1031875Y257175D02*
X917575Y257175D01*
X911225Y517525D02*
X793750Y517525D01*
X777875Y533400D01*
X774700Y533400D01*
X1343025Y517525D02*
X1358900Y533400D01*
X1343025Y517525D02*
X911225Y517525D01*
X1625600Y660400D02*
X1647825Y638175D01*
X1746250Y638175D01*
X1762125Y622300D01*
X1762125Y555625D01*
X1549400Y555625D01*
X1543050Y549275D01*
X1374775Y549275D01*
X1358900Y533400D01*
X50800Y381000D02*
X12700Y381000D01*
X120650Y44450D02*
X127000Y38100D01*
X250825Y38100D01*
X257175Y31750D01*
X784225Y31750D01*
X800100Y47625D01*
X917575Y47625D01*
D17*
X1031875Y257175D03*
X917575Y257175D03*
X911225Y517525D03*
X12700Y381000D03*
X120650Y44450D03*
X917575Y47625D03*
D16*
X873125Y250825D02*
X987425Y250825D01*
X841375Y546100D02*
X838200Y549275D01*
X742950Y549275D01*
X727075Y533400D01*
X723900Y533400D01*
X1292225Y549275D02*
X1308100Y533400D01*
X1292225Y549275D02*
X965200Y549275D01*
X958850Y542925D01*
X914400Y542925D01*
X908050Y549275D01*
X838200Y549275D01*
X1387475Y568325D02*
X1546225Y568325D01*
X1387475Y568325D02*
X1368425Y549275D01*
X1292225Y549275D01*
X114300Y422275D02*
X111125Y419100D01*
X114300Y422275D02*
X381000Y422275D01*
X387350Y428625D01*
X406400Y428625D01*
X419100Y415925D01*
X650875Y415925D01*
X669925Y434975D01*
D17*
X987425Y250825D03*
X873125Y250825D03*
X841375Y546100D03*
X1546225Y568325D03*
X111125Y419100D03*
X669925Y434975D03*
D16*
X990600Y228600D02*
X1006475Y212725D01*
X1206500Y212725D01*
X1212850Y219075D01*
X1244600Y219075D01*
X1250950Y212725D01*
X1466850Y212725D01*
X1473200Y219075D01*
X1511300Y219075D01*
X1517650Y212725D01*
X1558925Y212725D01*
X1574800Y228600D01*
X739775Y498475D02*
X723900Y482600D01*
X739775Y498475D02*
X1292225Y498475D01*
X1308100Y482600D01*
X63500Y419100D02*
X50800Y431800D01*
X63500Y419100D02*
X104775Y419100D01*
X120650Y434975D01*
X384175Y434975D01*
X403225Y466725D02*
X660400Y466725D01*
X673100Y454025D01*
X720725Y454025D01*
X1501775Y428625D02*
X1539875Y390525D01*
X1501775Y428625D02*
X1311275Y428625D01*
D17*
X384175Y434975D03*
X403225Y466725D03*
X720725Y454025D03*
X1539875Y390525D03*
X1311275Y428625D03*
D16*
X1343025Y466725D02*
X1358900Y482600D01*
X1343025Y466725D02*
X793750Y466725D01*
X777875Y482600D01*
X774700Y482600D01*
X127000Y409575D02*
X120650Y415925D01*
X127000Y409575D02*
X654050Y409575D01*
X679450Y434975D01*
X803275Y434975D01*
D17*
X120650Y415925D03*
X803275Y434975D03*
D16*
X1409700Y482600D02*
X1425575Y466725D01*
X1676400Y466725D01*
X981075Y447675D02*
X828675Y447675D01*
X288925Y428625D02*
X120650Y428625D01*
X295275Y346075D02*
X298450Y342900D01*
X657225Y342900D01*
X685800Y314325D01*
X1003300Y314325D01*
X1660525Y60325D02*
X1666875Y66675D01*
X1660525Y60325D02*
X1095375Y60325D01*
D17*
X1676400Y466725D03*
X828675Y447675D03*
X981075Y447675D03*
X120650Y428625D03*
X288925Y428625D03*
X295275Y346075D03*
X1003300Y314325D03*
X1666875Y66675D03*
X1095375Y60325D03*
D16*
X1143000Y228600D02*
X1158875Y244475D01*
X1450975Y244475D02*
X1711325Y244475D01*
X1450975Y244475D02*
X1158875Y244475D01*
X1711325Y244475D02*
X1727200Y228600D01*
X1450975Y244475D02*
X1450975Y263525D01*
X25400Y168275D02*
X25400Y374650D01*
X25400Y168275D02*
X44450Y168275D01*
X47625Y165100D01*
X165100Y165100D01*
X203200Y31750D02*
X203200Y12700D01*
X339725Y12700D01*
X346075Y19050D01*
X428625Y19050D01*
X841375Y193675D02*
X854075Y206375D01*
X889000Y206375D01*
X927100Y244475D01*
X1158875Y244475D01*
D17*
X1450975Y263525D03*
X25400Y374650D03*
X165100Y165100D03*
X203200Y31750D03*
X428625Y19050D03*
X841375Y193675D03*
D16*
X1146175Y155575D02*
X1158875Y168275D01*
X1457325Y168275D02*
X1711325Y168275D01*
X1457325Y168275D02*
X1158875Y168275D01*
X1711325Y168275D02*
X1727200Y152400D01*
X971550Y174625D02*
X952500Y193675D01*
X971550Y174625D02*
X1127125Y174625D01*
X1146175Y155575D01*
X1143000Y152400D01*
X1457325Y168275D02*
X1457325Y180975D01*
X161925Y527050D02*
X114300Y527050D01*
X161925Y527050D02*
X165100Y523875D01*
X381000Y523875D01*
X387350Y530225D01*
X504825Y530225D01*
X511175Y536575D01*
X631825Y536575D01*
X638175Y511175D02*
X644525Y504825D01*
X873125Y504825D01*
D17*
X952500Y193675D03*
X1457325Y180975D03*
X114300Y527050D03*
X631825Y536575D03*
X638175Y511175D03*
X873125Y504825D03*
D16*
X1400175Y130175D02*
X1654175Y130175D01*
X1676400Y152400D01*
X133350Y501650D02*
X120650Y514350D01*
X133350Y501650D02*
X161925Y501650D01*
X165100Y498475D01*
X412750Y498475D01*
X431800Y517525D01*
X463550Y517525D01*
X466725Y460375D02*
X615950Y460375D01*
X628650Y447675D01*
X822325Y447675D01*
X1095375Y193675D02*
X1419225Y193675D01*
D17*
X1400175Y130175D03*
X120650Y514350D03*
X463550Y517525D03*
X466725Y460375D03*
X822325Y447675D03*
X1419225Y193675D03*
X1095375Y193675D03*
D16*
X790575Y390525D02*
X774700Y406400D01*
X1082675Y390525D02*
X1343025Y390525D01*
X1082675Y390525D02*
X790575Y390525D01*
X1343025Y390525D02*
X1358900Y406400D01*
X1593850Y187325D02*
X1606550Y174625D01*
X1593850Y187325D02*
X1454150Y187325D01*
X1447800Y180975D01*
X1231900Y180975D01*
X1225550Y187325D01*
X1076325Y187325D01*
X1069975Y180975D01*
X654050Y403225D02*
X209550Y403225D01*
X654050Y403225D02*
X673100Y384175D01*
X752475Y384175D01*
X774700Y406400D01*
D17*
X1069975Y180975D03*
X1082675Y390525D03*
X1606550Y174625D03*
X127000Y482600D03*
X209550Y403225D03*
D16*
X990600Y152400D02*
X1006475Y136525D01*
X1317625Y136525D02*
X1558925Y136525D01*
X1317625Y136525D02*
X1006475Y136525D01*
X1558925Y136525D02*
X1574800Y152400D01*
X739775Y422275D02*
X723900Y406400D01*
X739775Y422275D02*
X1289050Y422275D01*
X1304925Y406400D01*
X1308100Y406400D01*
X53975Y606425D02*
X50800Y609600D01*
X53975Y606425D02*
X63500Y606425D01*
X73025Y596900D01*
X127000Y596900D01*
X149225Y574675D01*
X158750Y574675D01*
X161925Y495300D02*
X165100Y492125D01*
X412750Y492125D01*
X425450Y479425D01*
X647700Y479425D01*
X666750Y498475D01*
X720725Y498475D01*
D17*
X158750Y574675D03*
X161925Y495300D03*
X720725Y498475D03*
X1317625Y136525D03*
D16*
X393700Y314325D02*
X371475Y336550D01*
X269875Y336550D01*
X266700Y339725D01*
X107950Y339725D01*
X104775Y342900D01*
X88900Y342900D01*
X76200Y330200D01*
D17*
X393700Y314325D03*
X161925Y635000D03*
D16*
X180975Y860425D02*
X177800Y863600D01*
X180975Y860425D02*
X215900Y860425D01*
X285750Y247650D02*
X282575Y244475D01*
X111125Y244475D01*
X101600Y254000D01*
D17*
X215900Y860425D03*
X285750Y247650D03*
D16*
X428625Y549275D02*
X390525Y587375D01*
X282575Y587375D01*
X282575Y892175D02*
X269875Y904875D01*
X111125Y904875D01*
X101600Y914400D01*
D17*
X428625Y549275D03*
X282575Y587375D03*
X282575Y892175D03*
D16*
X901700Y25400D02*
X917575Y9525D01*
X1127125Y9525D01*
X1143000Y25400D01*
X1362075Y3175D02*
X1384300Y25400D01*
X1362075Y3175D02*
X1165225Y3175D01*
X1143000Y25400D01*
X1603375Y3175D02*
X1625600Y25400D01*
X1603375Y3175D02*
X1362075Y3175D01*
X879475Y301625D02*
X685800Y301625D01*
D17*
X685800Y301625D03*
X879475Y301625D03*
D16*
X841375Y41275D02*
X825500Y25400D01*
X885825Y41275D02*
X1050925Y41275D01*
X885825Y41275D02*
X841375Y41275D01*
X1050925Y41275D02*
X1066800Y25400D01*
X1292225Y41275D02*
X1308100Y25400D01*
X1292225Y41275D02*
X1050925Y41275D01*
X1533525Y41275D02*
X1549400Y25400D01*
X1533525Y41275D02*
X1292225Y41275D01*
X76200Y711200D02*
X63500Y698500D01*
X47625Y698500D01*
X38100Y688975D01*
X38100Y419100D01*
X53975Y419100D01*
X63500Y409575D01*
X63500Y393700D01*
X79375Y393700D01*
X88900Y384175D01*
X88900Y374650D01*
X85725Y374650D01*
X79375Y368300D01*
X73025Y368300D01*
X63500Y358775D01*
X63500Y317500D01*
X47625Y317500D01*
X38100Y307975D01*
X38100Y266700D01*
X53975Y266700D01*
X63500Y257175D01*
X63500Y190500D01*
X196850Y190500D01*
X222250Y165100D01*
X336550Y165100D01*
X384175Y6350D02*
X812800Y6350D01*
X815975Y3175D01*
X876300Y3175D01*
X885825Y12700D01*
X885825Y41275D01*
D17*
X336550Y165100D03*
X384175Y6350D03*
D16*
X276225Y117475D02*
X266700Y127000D01*
X276225Y117475D02*
X358775Y117475D01*
D17*
X358775Y117475D03*
D16*
X549275Y355600D02*
X549275Y381000D01*
X542925Y381000D01*
X533400Y390525D01*
X415925Y390525D01*
X403225Y377825D01*
X114300Y377825D01*
X104775Y368300D01*
X88900Y368300D01*
X76200Y355600D01*
D17*
X549275Y355600D03*
D16*
X539750Y209550D02*
X558800Y190500D01*
X539750Y209550D02*
X485775Y209550D01*
X101600Y787400D02*
X123825Y809625D01*
X152400Y809625D01*
X203200Y415925D02*
X371475Y415925D01*
X371475Y330200D02*
X393700Y307975D01*
X419100Y307975D01*
X425450Y301625D01*
X441325Y301625D01*
X457200Y317500D01*
D17*
X485775Y209550D03*
X152400Y809625D03*
X203200Y415925D03*
X371475Y415925D03*
X371475Y330200D03*
D16*
X257175Y542925D02*
X117475Y542925D01*
X257175Y542925D02*
X260350Y546100D01*
X317500Y546100D02*
X377825Y546100D01*
X317500Y546100D02*
X260350Y546100D01*
X377825Y546100D02*
X387350Y536575D01*
X438150Y536575D01*
X422275Y968375D02*
X457200Y1003300D01*
X422275Y968375D02*
X371475Y968375D01*
X333375Y561975D02*
X317500Y546100D01*
D17*
X117475Y542925D03*
X438150Y536575D03*
X371475Y968375D03*
X333375Y561975D03*
D16*
X901700Y101600D02*
X917575Y85725D01*
X984250Y85725D01*
X990600Y92075D01*
X1028700Y92075D01*
X1035050Y85725D01*
X1127125Y85725D01*
X1143000Y101600D01*
X1368425Y85725D02*
X1384300Y101600D01*
X1368425Y85725D02*
X1127125Y85725D01*
X1609725Y85725D02*
X1625600Y101600D01*
X1609725Y85725D02*
X1368425Y85725D01*
X136525Y593725D02*
X114300Y615950D01*
X136525Y593725D02*
X200025Y593725D01*
X225425Y568325D01*
X390525Y568325D01*
X409575Y396875D02*
X612775Y396875D01*
X619125Y250825D02*
X866775Y250825D01*
X885825Y231775D01*
D17*
X114300Y615950D03*
X390525Y568325D03*
X409575Y396875D03*
X612775Y396875D03*
X619125Y250825D03*
X885825Y231775D03*
D16*
X533400Y1003300D02*
X457200Y1079500D01*
X457200Y571500D02*
X479425Y549275D01*
X523875Y549275D01*
X88900Y622300D02*
X76200Y635000D01*
X88900Y622300D02*
X139700Y622300D01*
X161925Y600075D01*
X390525Y600075D02*
X434975Y600075D01*
X390525Y600075D02*
X161925Y600075D01*
D17*
X523875Y549275D03*
X434975Y600075D03*
X390525Y600075D03*
D16*
X841375Y117475D02*
X825500Y101600D01*
X841375Y117475D02*
X1050925Y117475D01*
X1066800Y101600D01*
X1292225Y117475D02*
X1308100Y101600D01*
X1292225Y117475D02*
X1050925Y117475D01*
X1533525Y117475D02*
X1549400Y101600D01*
X1533525Y117475D02*
X1292225Y117475D01*
X63500Y520700D02*
X63500Y600075D01*
X63500Y520700D02*
X161925Y520700D01*
X165100Y517525D01*
X352425Y517525D01*
D17*
X63500Y600075D03*
X352425Y517525D03*
D16*
X476250Y428625D02*
X482600Y422275D01*
X476250Y428625D02*
X412750Y428625D01*
X393700Y447675D01*
X295275Y447675D01*
X295275Y873125D02*
X279400Y889000D01*
X254000Y889000D01*
D17*
X482600Y422275D03*
X295275Y447675D03*
X295275Y873125D03*
D16*
X250825Y790575D02*
X254000Y787400D01*
X250825Y790575D02*
X196850Y790575D01*
X190500Y796925D01*
X152400Y796925D01*
X104775Y749300D01*
X47625Y749300D01*
X31750Y733425D01*
X31750Y523875D01*
D17*
X31750Y523875D03*
X346075Y669925D03*
X317500Y635000D03*
D16*
X177800Y914400D02*
X165100Y927100D01*
X47625Y927100D01*
X25400Y904875D01*
X25400Y393700D01*
X53975Y393700D01*
X63500Y384175D01*
X63500Y368300D01*
X47625Y368300D01*
X31750Y352425D01*
X31750Y241300D01*
X44450Y241300D01*
X139700Y50800D02*
X165100Y50800D01*
X190500Y50800D01*
X215900Y50800D01*
D17*
X44450Y241300D03*
D16*
X168275Y701675D02*
X161925Y708025D01*
X168275Y701675D02*
X330200Y701675D01*
X361950Y669925D01*
X606425Y669925D01*
X650875Y625475D01*
X682625Y625475D01*
X698500Y609600D01*
D17*
X161925Y708025D03*
D16*
X180975Y809625D02*
X177800Y812800D01*
X180975Y809625D02*
X234950Y809625D01*
X241300Y803275D01*
X450850Y803275D01*
X476250Y777875D01*
X638175Y777875D01*
X650875Y704850D02*
X650875Y631825D01*
X955675Y631825D01*
D17*
X638175Y777875D03*
X650875Y704850D03*
X955675Y631825D03*
D16*
X177800Y787400D02*
X161925Y771525D01*
X161925Y752475D01*
X336550Y752475D01*
X349250Y765175D01*
X892175Y765175D01*
X911225Y669925D02*
X930275Y650875D01*
X930275Y638175D01*
X1057275Y638175D01*
X1063625Y631825D01*
X1273175Y631825D01*
D17*
X892175Y765175D03*
X911225Y669925D03*
X1273175Y631825D03*
D16*
X187325Y771525D02*
X177800Y762000D01*
X187325Y771525D02*
X977900Y771525D01*
X990600Y758825D01*
X1527175Y758825D01*
X1549400Y736600D01*
X187325Y371475D02*
X180975Y365125D01*
X146050Y365125D01*
X127000Y346075D01*
D17*
X187325Y371475D03*
X127000Y346075D03*
D16*
X260350Y831850D02*
X254000Y838200D01*
X260350Y831850D02*
X301625Y831850D01*
X301625Y330200D02*
X292100Y320675D01*
X117475Y320675D01*
X101600Y304800D01*
D17*
X301625Y831850D03*
X301625Y330200D03*
D16*
X273050Y574675D02*
X269875Y577850D01*
X273050Y574675D02*
X352425Y574675D01*
X365125Y146050D02*
X355600Y136525D01*
X190500Y136525D01*
X149225Y95250D01*
X133350Y95250D01*
D17*
X269875Y577850D03*
X352425Y574675D03*
X365125Y146050D03*
X133350Y95250D03*
X1196975Y307975D03*
X1136650Y708025D03*
X1190625Y307975D03*
D16*
X603250Y1025525D02*
X593725Y1035050D01*
X603250Y1025525D02*
X704850Y1025525D01*
X717550Y1012825D01*
X949325Y1012825D01*
X965200Y857250D02*
X942975Y835025D01*
X965200Y857250D02*
X965200Y863600D01*
D17*
X593725Y1035050D03*
X949325Y1012825D03*
X942975Y835025D03*
D16*
X942975Y758825D02*
X600075Y758825D01*
X942975Y758825D02*
X965200Y736600D01*
D17*
X600075Y758825D03*
D16*
X974725Y307975D02*
X968375Y301625D01*
X974725Y307975D02*
X1184275Y307975D01*
X1222375Y523875D02*
X1241425Y542925D01*
X1241425Y854075D02*
X1231900Y863600D01*
X1168400Y863600D01*
X1041400Y1041400D02*
X1057275Y1057275D01*
X1123950Y1057275D01*
D17*
X968375Y301625D03*
X1184275Y307975D03*
X1222375Y523875D03*
X1241425Y542925D03*
X1241425Y854075D03*
X1123950Y1057275D03*
D16*
X1101725Y879475D02*
X1117600Y863600D01*
X1101725Y879475D02*
X1025525Y879475D01*
D17*
X1025525Y879475D03*
D16*
X1117600Y279400D02*
X1133475Y263525D01*
X1209675Y263525D01*
X1016000Y863600D02*
X1000125Y879475D01*
X984250Y879475D01*
X981075Y876300D01*
X981075Y841375D01*
X1203325Y841375D01*
D17*
X1209675Y263525D03*
X1203325Y841375D03*
D16*
X1177925Y365125D02*
X1168400Y355600D01*
X1177925Y365125D02*
X1184275Y365125D01*
X1184275Y809625D02*
X1181100Y812800D01*
X1050925Y812800D02*
X1041400Y812800D01*
X1050925Y812800D02*
X1181100Y812800D01*
X1041400Y812800D02*
X1038225Y809625D01*
X971550Y809625D01*
X1050925Y812800D02*
X1050925Y822325D01*
D17*
X1184275Y365125D03*
X1184275Y809625D03*
X971550Y809625D03*
X1050925Y822325D03*
X981075Y555625D03*
D16*
X1082675Y371475D02*
X1066800Y355600D01*
X1082675Y371475D02*
X1190625Y371475D01*
X1203325Y711200D02*
X1200150Y714375D01*
X1076325Y714375D01*
D17*
X1190625Y371475D03*
X1203325Y711200D03*
X1076325Y714375D03*
X1095375Y892175D03*
D16*
X1038225Y377825D02*
X1016000Y355600D01*
X1038225Y377825D02*
X1190625Y377825D01*
X1117600Y787400D02*
X1136650Y806450D01*
X1139825Y806450D01*
D17*
X1190625Y377825D03*
X1139825Y806450D03*
D16*
X981075Y168275D02*
X965200Y152400D01*
X981075Y168275D02*
X1123950Y168275D01*
D17*
X1123950Y168275D03*
X1165225Y504825D03*
D16*
X1114425Y561975D02*
X1127125Y574675D01*
X1114425Y561975D02*
X1019175Y561975D01*
D17*
X996950Y320675D03*
X1127125Y574675D03*
X1019175Y561975D03*
D16*
X1031875Y504825D02*
X1114425Y504825D01*
X1120775Y587375D02*
X1057275Y587375D01*
D17*
X1031875Y504825D03*
X1114425Y504825D03*
X1057275Y587375D03*
X1120775Y587375D03*
D16*
X1016000Y708025D02*
X1016000Y736600D01*
X1016000Y708025D02*
X1127125Y708025D01*
D17*
X1127125Y708025D03*
D16*
X1152525Y434975D02*
X1158875Y428625D01*
X1152525Y434975D02*
X1050925Y434975D01*
D17*
X1158875Y428625D03*
X1050925Y434975D03*
D16*
X1012825Y301625D02*
X1127125Y301625D01*
D17*
X1127125Y301625D03*
X1012825Y301625D03*
X1085850Y428625D03*
D16*
X1031875Y320675D02*
X1025525Y314325D01*
X1031875Y320675D02*
X1133475Y320675D01*
X1133475Y644525D02*
X1117600Y660400D01*
X1133475Y644525D02*
X1158875Y644525D01*
D17*
X1025525Y314325D03*
X1133475Y320675D03*
X1158875Y644525D03*
D16*
X1333500Y660400D02*
X1333500Y679450D01*
X1343025Y679450D01*
D17*
X1343025Y679450D03*
D16*
X1425575Y206375D02*
X1444625Y187325D01*
X1425575Y206375D02*
X1384300Y206375D01*
X1447800Y187325D02*
X1473200Y212725D01*
X1447800Y187325D02*
X1444625Y187325D01*
D17*
X1444625Y187325D03*
X1384300Y206375D03*
X1504950Y581025D03*
X1473200Y212725D03*
D16*
X717550Y1019175D02*
X711200Y1025525D01*
X717550Y1019175D02*
X1254125Y1019175D01*
D17*
X606425Y530225D03*
X711200Y1025525D03*
X1254125Y1019175D03*
D16*
X574675Y511175D02*
X558800Y495300D01*
X574675Y511175D02*
X606425Y511175D01*
X612775Y879475D02*
X612775Y892175D01*
X1047750Y892175D01*
X1241425Y1012825D02*
X1254125Y1012825D01*
X1241425Y1012825D02*
X1050925Y1012825D01*
D17*
X606425Y511175D03*
X612775Y879475D03*
X1047750Y892175D03*
X1050925Y1012825D03*
X1254125Y1012825D03*
X1241425Y1012825D03*
D16*
X1384300Y736600D02*
X1406525Y714375D01*
X1457325Y714375D01*
X1470025Y377825D02*
X1409700Y377825D01*
X1387475Y355600D01*
X1384300Y355600D01*
D17*
X1457325Y714375D03*
X1470025Y377825D03*
D16*
X1457325Y1089025D02*
X1485900Y1117600D01*
X1457325Y1089025D02*
X1241425Y1089025D01*
D17*
X1270000Y492125D03*
X1241425Y1089025D03*
X1228725Y727075D03*
X1266825Y460375D03*
X1485900Y727075D03*
D16*
X1384300Y533400D02*
X1400175Y517525D01*
X1273175Y568325D02*
X1266825Y574675D01*
X1273175Y568325D02*
X1381125Y568325D01*
D17*
X1400175Y517525D03*
X1266825Y574675D03*
X1381125Y568325D03*
D16*
X1425575Y457200D02*
X1425575Y434975D01*
X1425575Y457200D02*
X1441450Y457200D01*
D17*
X1425575Y434975D03*
X1441450Y457200D03*
X1425575Y622300D03*
D16*
X1482725Y669925D02*
X1466850Y685800D01*
X1317625Y685800D01*
D17*
X1482725Y669925D03*
X1317625Y685800D03*
D16*
X1441450Y812800D02*
X1444625Y809625D01*
X1441450Y812800D02*
X1365250Y812800D01*
X1362075Y815975D01*
X1323975Y815975D02*
X1285875Y815975D01*
X1323975Y815975D02*
X1362075Y815975D01*
D17*
X1444625Y809625D03*
X1285875Y815975D03*
X1323975Y815975D03*
D16*
X1384300Y628650D02*
X1384300Y609600D01*
X1384300Y628650D02*
X1374775Y628650D01*
D17*
X1374775Y628650D03*
X1362075Y809625D03*
D16*
X1358900Y635000D02*
X1333500Y609600D01*
X1358900Y635000D02*
X1406525Y635000D01*
D17*
X1406525Y635000D03*
D16*
X1304925Y660400D02*
X1292225Y647700D01*
X1304925Y660400D02*
X1308100Y660400D01*
X1476375Y708025D02*
X1476375Y752475D01*
X1476375Y708025D02*
X1311275Y708025D01*
D17*
X1292225Y647700D03*
X1476375Y752475D03*
X1311275Y708025D03*
D16*
X1317625Y422275D02*
X1333500Y406400D01*
X1317625Y647700D02*
X1317625Y676275D01*
X1298575Y676275D01*
X1282700Y660400D01*
X1400175Y955675D02*
X1435100Y990600D01*
X1400175Y955675D02*
X1311275Y955675D01*
D17*
X1317625Y422275D03*
X1317625Y647700D03*
X1311275Y955675D03*
X1355725Y809625D03*
D16*
X1308100Y279400D02*
X1323975Y263525D01*
X1444625Y263525D01*
X1470025Y288925D01*
X1295400Y701675D02*
X1273175Y723900D01*
X1295400Y701675D02*
X1476375Y701675D01*
D17*
X1470025Y288925D03*
X1273175Y723900D03*
X1476375Y701675D03*
D16*
X1666875Y428625D02*
X1730375Y428625D01*
D17*
X1666875Y428625D03*
X1730375Y428625D03*
D16*
X1590675Y422275D02*
X1590675Y384175D01*
X1590675Y422275D02*
X1717675Y422275D01*
X1736725Y882650D02*
X1711325Y908050D01*
X1711325Y974725D01*
X1695450Y974725D01*
X1685925Y984250D01*
X1685925Y1041400D01*
X1676400Y1041400D01*
D17*
X1590675Y384175D03*
X1717675Y422275D03*
X1736725Y882650D03*
D16*
X612775Y600075D02*
X584200Y571500D01*
X612775Y600075D02*
X619125Y600075D01*
X619125Y885825D02*
X1527175Y885825D01*
D17*
X619125Y600075D03*
X619125Y885825D03*
X1527175Y885825D03*
D16*
X523875Y517525D02*
X511175Y530225D01*
X523875Y517525D02*
X787400Y517525D01*
X793750Y511175D01*
X1530350Y511175D01*
X1524000Y279400D02*
X1546225Y257175D01*
X1552575Y257175D01*
D17*
X511175Y530225D03*
X1530350Y511175D03*
X1552575Y257175D03*
D16*
X1641475Y454025D02*
X1647825Y460375D01*
X1679575Y460375D01*
X1701800Y482600D01*
D17*
X1641475Y454025D03*
D16*
X1549400Y660400D02*
X1565275Y676275D01*
X1695450Y676275D01*
X1743075Y723900D01*
X1625600Y1041400D02*
X1609725Y1057275D01*
X1593850Y1057275D01*
X1590675Y1054100D01*
X1590675Y936625D01*
X1676400Y936625D01*
X1692275Y920750D01*
X1692275Y885825D01*
X1727200Y885825D01*
X1749425Y863600D01*
X1752600Y863600D01*
D17*
X1743075Y723900D03*
D16*
X1698625Y946150D02*
X1660525Y984250D01*
X1660525Y1025525D01*
X1616075Y1025525D01*
X1600200Y1041400D01*
D17*
X1698625Y946150D03*
D16*
X1701800Y1006475D02*
X1701800Y1041400D01*
X1701800Y1006475D02*
X1708150Y1006475D01*
X1717675Y996950D01*
X1717675Y930275D01*
X1733550Y930275D01*
X1743075Y920750D01*
X1743075Y879475D01*
X1758950Y879475D01*
X1762125Y876300D01*
X1762125Y847725D01*
X1666875Y847725D01*
X1651000Y863600D01*
X1762125Y720725D02*
X1701800Y660400D01*
X1762125Y720725D02*
X1762125Y841375D01*
X1622425Y841375D01*
X1600200Y863600D01*
X1768475Y1000125D02*
X1727200Y1041400D01*
X1768475Y1000125D02*
X1768475Y841375D01*
X1762125Y841375D01*
X1568450Y930275D02*
X1565275Y927100D01*
X1568450Y930275D02*
X1609725Y930275D01*
X1625600Y914400D01*
X1752600Y771525D02*
X1752600Y736600D01*
X1752600Y771525D02*
X1746250Y771525D01*
X1736725Y781050D01*
X1736725Y809625D01*
X1584325Y809625D01*
D17*
X1565275Y927100D03*
X1584325Y809625D03*
D16*
X1679575Y714375D02*
X1701800Y736600D01*
X1679575Y714375D02*
X1600200Y714375D01*
X1590675Y723900D01*
X1590675Y752475D01*
X1597025Y752475D01*
D17*
X1597025Y752475D03*
D16*
X1673225Y752475D02*
X1692275Y771525D01*
X1673225Y752475D02*
X1666875Y752475D01*
X1651000Y736600D01*
D17*
X1692275Y771525D03*
D16*
X1622425Y758825D02*
X1600200Y736600D01*
X1622425Y758825D02*
X1673225Y758825D01*
X1701800Y787400D01*
X1609725Y549275D02*
X1625600Y533400D01*
X1609725Y549275D02*
X1593850Y549275D01*
X1590675Y546100D01*
X1590675Y504825D01*
X1622425Y504825D01*
X1628775Y498475D01*
X1733550Y498475D01*
X1743075Y488950D01*
X1743075Y355600D01*
X1752600Y355600D01*
X1717675Y339725D02*
X1701800Y355600D01*
X1717675Y339725D02*
X1758950Y339725D01*
X1762125Y342900D01*
X1762125Y508000D01*
X1625600Y508000D01*
X1600200Y533400D01*
X1666875Y339725D02*
X1711325Y339725D01*
X1666875Y339725D02*
X1651000Y355600D01*
D17*
X1711325Y339725D03*
D16*
X1701800Y152400D02*
X1717675Y136525D01*
X1758950Y136525D01*
X1768475Y146050D01*
X1768475Y333375D01*
X1622425Y333375D01*
X1600200Y355600D01*
X1708150Y514350D02*
X1727200Y533400D01*
X1708150Y514350D02*
X1685925Y514350D01*
D17*
X1685925Y514350D03*
D16*
X1727200Y301625D02*
X1616075Y301625D01*
X1552575Y301625D01*
X1727200Y301625D02*
X1743075Y285750D01*
X1743075Y228600D01*
X1752600Y228600D01*
X1616075Y301625D02*
X1616075Y320675D01*
D17*
X1552575Y301625D03*
X1616075Y320675D03*
D16*
X1692275Y263525D02*
X1698625Y257175D01*
X1692275Y263525D02*
X1616075Y263525D01*
X1600200Y279400D01*
D17*
X1698625Y257175D03*
D16*
X1616075Y212725D02*
X1600200Y228600D01*
X1616075Y212725D02*
X1733550Y212725D01*
X1736725Y215900D01*
X1736725Y263525D01*
X1717675Y263525D01*
X1701800Y279400D01*
X457200Y368300D02*
X441325Y352425D01*
X269875Y352425D01*
X269875Y447675D02*
X149225Y447675D01*
X139700Y457200D01*
X101600Y457200D01*
D17*
X269875Y352425D03*
X269875Y447675D03*
M02*
