<?xml version="1.0" encoding="UTF-8" standalone="no"?>
<svg
   xmlns:dc="http://purl.org/dc/elements/1.1/"
   xmlns:cc="http://creativecommons.org/ns#"
   xmlns:rdf="http://www.w3.org/1999/02/22-rdf-syntax-ns#"
   xmlns:svg="http://www.w3.org/2000/svg"
   xmlns="http://www.w3.org/2000/svg"
   xmlns:sodipodi="http://sodipodi.sourceforge.net/DTD/sodipodi-0.dtd"
   xmlns:inkscape="http://www.inkscape.org/namespaces/inkscape"
   version="1.1"
   width="304.952388mm"
   height="304.952388mm"
   viewBox="-152.476194 -152.476194 304.952388 304.952388"
   id="svg2111"
   sodipodi:docname="yacc2buss_brd.svg"
   inkscape:version="1.0.2 (e86c8708, 2021-01-15)">
  <metadata
     id="metadata2115">
    <rdf:RDF>
      <cc:Work
         rdf:about="">
        <dc:format>image/svg+xml</dc:format>
        <dc:type
           rdf:resource="http://purl.org/dc/dcmitype/StillImage" />
        <dc:title>/Users/kennethrother/Documents/YACC1-2020/PCB/Working - Under Develolpment/BUS-PROD-V1.1 copy 2-prod/yacc2buss.brd</dc:title>
      </cc:Work>
    </rdf:RDF>
  </metadata>
  <sodipodi:namedview
     pagecolor="#ffffff"
     bordercolor="#666666"
     borderopacity="1"
     objecttolerance="10"
     gridtolerance="10"
     guidetolerance="10"
     inkscape:pageopacity="0"
     inkscape:pageshadow="2"
     inkscape:window-width="1426"
     inkscape:window-height="794"
     id="namedview2113"
     showgrid="false"
     inkscape:document-units="in"
     inkscape:zoom="0.637702"
     inkscape:cx="347.34092"
     inkscape:cy="295.59261"
     inkscape:window-x="0"
     inkscape:window-y="23"
     inkscape:window-maximized="0"
     inkscape:current-layer="svg2111" />
  <title
     id="title1906">/Users/kennethrother/Documents/YACC1-2020/PCB/Working - Under Develolpment/BUS-PROD-V1.1 copy 2-prod/yacc2buss.brd</title>
  <desc
     id="desc1908">generated by eagle2svg 1.4, </desc>
  <defs
     id="defs1912">
    <style
       type="text/css"
       id="style1910"><![CDATA[
path.l20 {stroke:#000000; fill:none; }
line.l20 {stroke:#000000; fill:none; }
circle.l20 {stroke:#000000; fill:none; }
circle.j20 {fill:#000000; }
rect.l20 {fill:#000000; }
text.l20 {font-family:sans-serif; fill:#000000; }
polygon.l20 {fill:#000000; }
path.l45 {stroke:#000000; fill:none; }
line.l45 {stroke:#000000; fill:none; }
circle.l45 {stroke:#000000; fill:none; }
circle.j45 {fill:#000000; }
rect.l45 {fill:#000000; }
text.l45 {font-family:sans-serif; fill:#000000; }
polygon.l45 {fill:#000000; }
circle.j0 {fill:#afd134; }
]]></style>
  </defs>
  <line
     class="l20"
     x1="63.126156"
     y1="152.39999"
     x2="152.39999"
     y2="63.126156"
     style="stroke-width:0.1524;stroke-linecap:round"
     id="line1914" />
  <line
     class="l20"
     x1="152.39999"
     y1="63.126156"
     x2="152.39999"
     y2="-63.126156"
     style="stroke-width:0.1524;stroke-linecap:round"
     id="line1916" />
  <line
     class="l20"
     x1="152.39999"
     y1="-63.126156"
     x2="63.126156"
     y2="-152.39999"
     style="stroke-width:0.1524;stroke-linecap:round"
     id="line1918" />
  <line
     class="l20"
     x1="63.126156"
     y1="-152.39999"
     x2="-63.126156"
     y2="-152.39999"
     style="stroke-width:0.1524;stroke-linecap:round"
     id="line1920" />
  <line
     class="l20"
     x1="-63.126156"
     y1="-152.39999"
     x2="-152.39999"
     y2="-63.126156"
     style="stroke-width:0.1524;stroke-linecap:round"
     id="line1922" />
  <line
     class="l20"
     x1="-152.39999"
     y1="-63.126156"
     x2="-152.39999"
     y2="63.126156"
     style="stroke-width:0.1524;stroke-linecap:round"
     id="line1924" />
  <line
     class="l20"
     x1="-152.39999"
     y1="63.126156"
     x2="-63.126156"
     y2="152.39999"
     style="stroke-width:0.1524;stroke-linecap:round"
     id="line1926" />
  <line
     class="l20"
     x1="-63.126156"
     y1="152.39999"
     x2="63.126156"
     y2="152.39999"
     style="stroke-width:0.1524;stroke-linecap:round"
     id="line1928" />
  <g
     id="g1932">
    <title
       id="title1930">PART 5V</title>
  </g>
  <g
     id="g1936">
    <title
       id="title1934">PART C1</title>
  </g>
  <g
     id="g1940">
    <title
       id="title1938">PART C2</title>
  </g>
  <g
     id="g1944">
    <title
       id="title1942">PART C3</title>
  </g>
  <g
     id="g1948">
    <title
       id="title1946">PART C4</title>
  </g>
  <g
     id="g1952">
    <title
       id="title1950">PART C5</title>
  </g>
  <g
     id="g1956">
    <title
       id="title1954">PART C6</title>
  </g>
  <g
     id="g1960">
    <title
       id="title1958">PART C7</title>
  </g>
  <g
     id="g1964">
    <title
       id="title1962">PART C8</title>
  </g>
  <g
     id="g1968">
    <title
       id="title1966">PART GND</title>
  </g>
  <g
     id="g1972">
    <title
       id="title1970">PART PWR</title>
  </g>
  <g
     id="g1976">
    <title
       id="title1974">PART R1</title>
  </g>
  <g
     id="g1988">
    <title
       id="title1978">PART X1</title>
    <circle
       class="l20"
       cx="-144.47519"
       cy="45.008801"
       r="1.397"
       style="stroke-width:0.005"
       id="circle1980" />
    <path
       class="l45"
       style="stroke-width:0.0254;stroke-linecap:round"
       d="m -145.49519,46.0288 2.04,-2.04 m -2.04,1.020003 a 0.99,0.99 0 1 0 0,-6e-6"
       id="path1982" />
    <circle
       class="l20"
       cx="-144.47519"
       cy="-45.008801"
       r="1.397"
       style="stroke-width:0.005"
       id="circle1984" />
    <path
       class="l45"
       style="stroke-width:0.0254;stroke-linecap:round"
       d="m -145.49519,-43.9888 2.04,-2.04 m -2.04,1.020003 a 0.99,0.99 0 1 0 0,-6e-6"
       id="path1986" />
  </g>
  <g
     id="g2000">
    <title
       id="title1990">PART X2</title>
    <circle
       class="l20"
       cx="45.008801"
       cy="144.47519"
       r="1.397"
       style="stroke-width:0.005"
       id="circle1992" />
    <path
       class="l45"
       style="stroke-width:0.0254;stroke-linecap:round"
       d="m 43.9888,145.49519 2.04,-2.04 m -2.04,1.02"
       id="path1994" />
    <circle
       class="l20"
       cx="-45.008801"
       cy="144.47519"
       r="1.397"
       style="stroke-width:0.005"
       id="circle1996" />
    <path
       class="l45"
       style="stroke-width:0.0254;stroke-linecap:round"
       d="m -46.0288,145.49519 2.04,-2.04 m -2.04,1.02"
       id="path1998" />
  </g>
  <g
     id="g2012">
    <title
       id="title2002">PART X3</title>
    <circle
       class="l20"
       cx="-45.008801"
       cy="-144.47519"
       r="1.397"
       style="stroke-width:0.005"
       id="circle2004" />
    <path
       class="l45"
       style="stroke-width:0.0254;stroke-linecap:round"
       d="m -46.0288,-143.45519 2.04,-2.04 m -2.04,1.02"
       id="path2006" />
    <circle
       class="l20"
       cx="45.008801"
       cy="-144.47519"
       r="1.397"
       style="stroke-width:0.005"
       id="circle2008" />
    <path
       class="l45"
       style="stroke-width:0.0254;stroke-linecap:round"
       d="m 43.9888,-143.45519 2.04,-2.04 m -2.04,1.02"
       id="path2010" />
  </g>
  <g
     id="g2024">
    <title
       id="title2014">PART X4</title>
    <circle
       class="l20"
       cx="70.076195"
       cy="-134.07864"
       r="1.397"
       style="stroke-width:0.005"
       id="circle2016" />
    <path
       class="l45"
       style="stroke-width:0.0254;stroke-linecap:round"
       d="m 69.056191,-133.05864 2.04,-2.04 m -2.04,1.02 a 0.99,0.99 0 1 0 0,-1e-5"
       id="path2018" />
    <circle
       class="l20"
       cx="133.72824"
       cy="-70.42659"
       r="1.397"
       style="stroke-width:0.005"
       id="circle2020" />
    <path
       class="l45"
       style="stroke-width:0.0254;stroke-linecap:round"
       d="m 132.70825,-69.406588 2.04,-2.04 m -2.04,1.020004 a 0.99,0.99 0 1 0 0,-7e-6"
       id="path2022" />
  </g>
  <g
     id="g2036">
    <title
       id="title2026">PART X5</title>
    <circle
       class="l20"
       cx="-134.04471"
       cy="-69.994232"
       r="1.397"
       style="stroke-width:0.005"
       id="circle2028" />
    <path
       class="l45"
       style="stroke-width:0.0254;stroke-linecap:round"
       d="m -135.0647,-68.974231 2.04,-2.04 m -2.04,1.020003 a 0.99,0.99 0 1 0 0,-6e-6"
       id="path2030" />
    <circle
       class="l20"
       cx="-70.392647"
       cy="-133.64629"
       r="1.397"
       style="stroke-width:0.005"
       id="circle2032" />
    <path
       class="l45"
       style="stroke-width:0.0254;stroke-linecap:round"
       d="m -71.412647,-132.62629 2.04,-2.04 m -2.04,1.02001 a 0.99,0.99 0 1 0 0,-1e-5"
       id="path2034" />
  </g>
  <g
     id="g2048">
    <title
       id="title2038">PART X6</title>
    <circle
       class="l20"
       cx="133.49222"
       cy="70.020676"
       r="1.397"
       style="stroke-width:0.005"
       id="circle2040" />
    <path
       class="l45"
       style="stroke-width:0.0254;stroke-linecap:round"
       d="m 132.47221,71.040672 2.04,-2.04 m -2.04,1.020003 a 0.99,0.99 0 1 0 0,-6e-6"
       id="path2042" />
    <circle
       class="l20"
       cx="69.840157"
       cy="133.67273"
       r="1.397"
       style="stroke-width:0.005"
       id="circle2044" />
    <path
       class="l45"
       style="stroke-width:0.0254;stroke-linecap:round"
       d="m 68.820156,134.69273 2.04,-2.04 m -2.04,1.02"
       id="path2046" />
  </g>
  <g
     id="g2060">
    <title
       id="title2050">PART X7</title>
    <circle
       class="l20"
       cx="-70.610542"
       cy="134.17235"
       r="1.397"
       style="stroke-width:0.005"
       id="circle2052" />
    <path
       class="l45"
       style="stroke-width:0.0254;stroke-linecap:round"
       d="m -71.630541,135.19234 2.04,-2.04 m -2.04,1.02"
       id="path2054" />
    <circle
       class="l20"
       cx="-134.2626"
       cy="70.520287"
       r="1.397"
       style="stroke-width:0.005"
       id="circle2056" />
    <path
       class="l45"
       style="stroke-width:0.0254;stroke-linecap:round"
       d="m -135.2826,71.540284 2.04,-2.04 m -2.04,1.020004 a 0.99,0.99 0 1 0 0,-7e-6"
       id="path2058" />
  </g>
  <g
     id="g2072">
    <title
       id="title2062">PART X8</title>
    <circle
       class="l20"
       cx="144.47519"
       cy="-45.008801"
       r="1.397"
       style="stroke-width:0.005"
       id="circle2064" />
    <path
       class="l45"
       style="stroke-width:0.0254;stroke-linecap:round"
       d="m 143.45519,-43.9888 2.04,-2.04 m -2.04,1.020003 a 0.99,0.99 0 1 0 0,-6e-6"
       id="path2066" />
    <circle
       class="l20"
       cx="144.47519"
       cy="45.008801"
       r="1.397"
       style="stroke-width:0.005"
       id="circle2068" />
    <path
       class="l45"
       style="stroke-width:0.0254;stroke-linecap:round"
       d="m 143.45519,46.0288 2.04,-2.04 m -2.04,1.020003 a 0.99,0.99 0 1 0 0,-6e-6"
       id="path2070" />
  </g>
  <circle
     class="l20"
     cx="0"
     cy="0"
     r="0.32499999"
     style="stroke-width:0.005"
     id="circle2074" />
  <path
     class="l45"
     style="stroke-width:0.0254;stroke-linecap:round"
     d="m -1.02,1.02 2.04,-2.04 m -2.04,0 2.04,2.04 M -1.02,0 h 2.04"
     id="path2076" />
  <circle
     class="l20"
     cx="-60.959999"
     cy="-144.78"
     r="1.6"
     style="stroke-width:0.005"
     id="circle2078" />
  <path
     class="l45"
     style="stroke-width:0.0254;stroke-linecap:round"
     d="m -61.98,-143.76 2.04,-2.04 m -2.04,1.02"
     id="path2080" />
  <circle
     class="l20"
     cx="60.959999"
     cy="-144.78"
     r="1.6"
     style="stroke-width:0.005"
     id="circle2082" />
  <path
     class="l45"
     style="stroke-width:0.0254;stroke-linecap:round"
     d="m 59.94,-143.76 2.04,-2.04 m -2.04,1.02"
     id="path2084" />
  <circle
     class="l20"
     cx="144.78"
     cy="-60.959999"
     r="1.6"
     style="stroke-width:0.005"
     id="circle2086" />
  <path
     class="l45"
     style="stroke-width:0.0254;stroke-linecap:round"
     d="m 143.76,-59.94 2.04,-2.04 m -2.04,1.020003 a 0.99,0.99 0 1 0 0,-6e-6"
     id="path2088" />
  <circle
     class="l20"
     cx="144.78"
     cy="60.959999"
     r="1.6"
     style="stroke-width:0.005"
     id="circle2090" />
  <path
     class="l45"
     style="stroke-width:0.0254;stroke-linecap:round"
     d="m 143.76,61.98 2.04,-2.04 m -2.04,1.020003 a 0.99,0.99 0 1 0 0,-6e-6"
     id="path2092" />
  <circle
     class="l20"
     cx="-144.78"
     cy="-60.959999"
     r="1.6"
     style="stroke-width:0.005"
     id="circle2094" />
  <path
     class="l45"
     style="stroke-width:0.0254;stroke-linecap:round"
     d="m -145.8,-59.94 2.04,-2.04 m -2.04,1.020003 a 0.99,0.99 0 1 0 0,-6e-6"
     id="path2096" />
  <circle
     class="l20"
     cx="-146.05"
     cy="60.959999"
     r="1.6"
     style="stroke-width:0.005"
     id="circle2098" />
  <path
     class="l45"
     style="stroke-width:0.0254;stroke-linecap:round"
     d="m -147.07,61.98 2.04,-2.04 m -2.04,1.020003 a 0.99,0.99 0 1 0 0,-6e-6"
     id="path2100" />
  <circle
     class="l20"
     cx="60.959999"
     cy="144.78"
     r="1.6"
     style="stroke-width:0.005"
     id="circle2102" />
  <path
     class="l45"
     style="stroke-width:0.0254;stroke-linecap:round"
     d="m 59.94,145.8 2.04,-2.04 m -2.04,1.02"
     id="path2104" />
  <circle
     class="l20"
     cx="-60.959999"
     cy="143.50999"
     r="1.6"
     style="stroke-width:0.005"
     id="circle2106" />
  <path
     class="l45"
     style="stroke-width:0.0254;stroke-linecap:round"
     d="m -61.98,144.53 2.04,-2.04 m -2.04,1.02"
     id="path2108" />
</svg>
