<?xml version="1.0" encoding="UTF-8" standalone="no"?>
<svg
   xmlns:dc="http://purl.org/dc/elements/1.1/"
   xmlns:cc="http://creativecommons.org/ns#"
   xmlns:rdf="http://www.w3.org/1999/02/22-rdf-syntax-ns#"
   xmlns:svg="http://www.w3.org/2000/svg"
   xmlns="http://www.w3.org/2000/svg"
   xmlns:sodipodi="http://sodipodi.sourceforge.net/DTD/sodipodi-0.dtd"
   xmlns:inkscape="http://www.inkscape.org/namespaces/inkscape"
   version="1.1"
   id="svg288"
   xml:space="preserve"
   width="2245.3333"
   height="1588"
   viewBox="0 0 2245.3333 1588"
   sodipodi:docname="yacc2buss.svg"
   inkscape:version="1.0.2 (e86c8708, 2021-01-15)"><metadata
     id="metadata294"><rdf:RDF><cc:Work
         rdf:about=""><dc:format>image/svg+xml</dc:format><dc:type
           rdf:resource="http://purl.org/dc/dcmitype/StillImage" /><dc:title></dc:title></cc:Work></rdf:RDF></metadata><defs
     id="defs292"><clipPath
       clipPathUnits="userSpaceOnUse"
       id="clipPath314"><path
         d="M 198,198 H 27869 V 19652 H 198 Z"
         clip-rule="evenodd"
         id="path312" /></clipPath><clipPath
       clipPathUnits="userSpaceOnUse"
       id="clipPath324"><path
         d="M 198,198 H 27869 V 19652 H 198 Z"
         clip-rule="evenodd"
         id="path322" /></clipPath><clipPath
       clipPathUnits="userSpaceOnUse"
       id="clipPath330"><path
         d="M 6830,2721 H 21237 V 17128 H 6830 Z"
         clip-rule="evenodd"
         id="path328" /></clipPath></defs><sodipodi:namedview
     pagecolor="#ffffff"
     bordercolor="#666666"
     borderopacity="1"
     objecttolerance="10"
     gridtolerance="10"
     guidetolerance="10"
     inkscape:pageopacity="0"
     inkscape:pageshadow="2"
     inkscape:window-width="1092"
     inkscape:window-height="830"
     id="namedview290"
     showgrid="false"
     inkscape:document-units="in"
     inkscape:zoom="0.46284635"
     inkscape:cx="1118.3455"
     inkscape:cy="729.18367"
     inkscape:window-x="0"
     inkscape:window-y="23"
     inkscape:window-maximized="0"
     inkscape:current-layer="g296" /><g
     id="g296"
     inkscape:groupmode="layer"
     inkscape:label="yacc2buss"
     transform="matrix(1.3333333,0,0,-1.3333333,0,1588)"><g
       id="g298"
       transform="matrix(0.06,0,0,-0.06,0,1191)"><g
         id="g300"><g
           id="g302" /></g><g
         id="g304"><g
           id="g306" /></g><g
         id="g308"><g
           id="g310"
           clip-path="url(#clipPath314)"><g
             id="g316" /></g></g><g
         id="g318"><g
           id="g320"
           clip-path="url(#clipPath324)"><g
             id="g326"
             clip-path="url(#clipPath330)"><g
               id="g332" /><g
               id="g334"><path
                 d="m 14048,9924 c 0,8.2843 -6.716,15 -15,15 -8.284,0 -15,-6.7157 -15,-15 0,-8.2843 6.716,-15 15,-15 8.284,0 15,6.7157 15,15 z"
                 style="fill:none;stroke:#afd134;stroke-width:12.5;stroke-linecap:round;stroke-linejoin:round;stroke-miterlimit:10;stroke-dasharray:none;stroke-opacity:1"
                 id="path336" /><path
                 d="m 14048,9924 c 0,8.2843 -6.716,15 -15,15 -8.284,0 -15,-6.7157 -15,-15 0,-8.2843 6.716,-15 15,-15 8.284,0 15,6.7157 15,15 z"
                 style="fill:#ffffff;fill-opacity:1;fill-rule:evenodd;stroke:#000000;stroke-width:1;stroke-linecap:square;stroke-linejoin:bevel;stroke-miterlimit:10;stroke-dasharray:none;stroke-opacity:1"
                 id="path338" /><path
                 d="m 17015,17123 4217,-4217"
                 style="fill:none;stroke:#afd134;stroke-width:8;stroke-linecap:round;stroke-linejoin:round;stroke-miterlimit:10;stroke-dasharray:none;stroke-opacity:1"
                 id="path340" /><path
                 d="M 21232,12906 V 6942"
                 style="fill:none;stroke:#afd134;stroke-width:8;stroke-linecap:round;stroke-linejoin:round;stroke-miterlimit:10;stroke-dasharray:none;stroke-opacity:1"
                 id="path342" /><path
                 d="M 21232,6942 17015,2725"
                 style="fill:none;stroke:#afd134;stroke-width:8;stroke-linecap:round;stroke-linejoin:round;stroke-miterlimit:10;stroke-dasharray:none;stroke-opacity:1"
                 id="path344" /><path
                 d="M 17015,2725 H 11051"
                 style="fill:none;stroke:#afd134;stroke-width:8;stroke-linecap:round;stroke-linejoin:round;stroke-miterlimit:10;stroke-dasharray:none;stroke-opacity:1"
                 id="path346" /><path
                 d="M 11051,2725 6834,6942"
                 style="fill:none;stroke:#afd134;stroke-width:8;stroke-linecap:round;stroke-linejoin:round;stroke-miterlimit:10;stroke-dasharray:none;stroke-opacity:1"
                 id="path348" /><path
                 d="m 6834,6942 v 5964"
                 style="fill:none;stroke:#afd134;stroke-width:8;stroke-linecap:round;stroke-linejoin:round;stroke-miterlimit:10;stroke-dasharray:none;stroke-opacity:1"
                 id="path350" /><path
                 d="m 6834,12906 4217,4217"
                 style="fill:none;stroke:#afd134;stroke-width:8;stroke-linecap:round;stroke-linejoin:round;stroke-miterlimit:10;stroke-dasharray:none;stroke-opacity:1"
                 id="path352" /><path
                 d="m 11051,17123 h 5964"
                 style="fill:none;stroke:#afd134;stroke-width:8;stroke-linecap:round;stroke-linejoin:round;stroke-miterlimit:10;stroke-dasharray:none;stroke-opacity:1"
                 id="path354" /><path
                 d="m 11229,3085 c 0,41.9736 -34.026,76 -76,76 -41.974,0 -76,-34.0264 -76,-76 0,-41.9736 34.026,-76 76,-76 41.974,0 76,34.0264 76,76 z"
                 style="fill:none;stroke:#afd134;stroke-width:12.5;stroke-linecap:round;stroke-linejoin:round;stroke-miterlimit:10;stroke-dasharray:none;stroke-opacity:1"
                 id="path356" /><path
                 d="m 11229,3085 c 0,41.9736 -34.026,76 -76,76 -41.974,0 -76,-34.0264 -76,-76 0,-41.9736 34.026,-76 76,-76 41.974,0 76,34.0264 76,76 z"
                 style="fill:#ffffff;fill-opacity:1;fill-rule:evenodd;stroke:#000000;stroke-width:1;stroke-linecap:square;stroke-linejoin:bevel;stroke-miterlimit:10;stroke-dasharray:none;stroke-opacity:1"
                 id="path358" /><path
                 d="m 16989,3085 c 0,41.9736 -34.026,76 -76,76 -41.974,0 -76,-34.0264 -76,-76 0,-41.9736 34.026,-76 76,-76 41.974,0 76,34.0264 76,76 z"
                 style="fill:none;stroke:#afd134;stroke-width:12.5;stroke-linecap:round;stroke-linejoin:round;stroke-miterlimit:10;stroke-dasharray:none;stroke-opacity:1"
                 id="path360" /><path
                 d="m 16989,3085 c 0,41.9736 -34.026,76 -76,76 -41.974,0 -76,-34.0264 -76,-76 0,-41.9736 34.026,-76 76,-76 41.974,0 76,34.0264 76,76 z"
                 style="fill:#ffffff;fill-opacity:1;fill-rule:evenodd;stroke:#000000;stroke-width:1;stroke-linecap:square;stroke-linejoin:bevel;stroke-miterlimit:10;stroke-dasharray:none;stroke-opacity:1"
                 id="path362" /><path
                 d="m 20948,7044 c 0,41.9736 -34.026,76 -76,76 -41.974,0 -76,-34.0264 -76,-76 0,-41.9737 34.026,-76 76,-76 41.974,0 76,34.0263 76,76 z"
                 style="fill:none;stroke:#afd134;stroke-width:12.5;stroke-linecap:round;stroke-linejoin:round;stroke-miterlimit:10;stroke-dasharray:none;stroke-opacity:1"
                 id="path364" /><path
                 d="m 20948,7044 c 0,41.9736 -34.026,76 -76,76 -41.974,0 -76,-34.0264 -76,-76 0,-41.9737 34.026,-76 76,-76 41.974,0 76,34.0263 76,76 z"
                 style="fill:#ffffff;fill-opacity:1;fill-rule:evenodd;stroke:#000000;stroke-width:1;stroke-linecap:square;stroke-linejoin:bevel;stroke-miterlimit:10;stroke-dasharray:none;stroke-opacity:1"
                 id="path366" /><path
                 d="m 20948,12804 c 0,41.974 -34.026,76 -76,76 -41.974,0 -76,-34.026 -76,-76 0,-41.974 34.026,-76 76,-76 41.974,0 76,34.026 76,76 z"
                 style="fill:none;stroke:#afd134;stroke-width:12.5;stroke-linecap:round;stroke-linejoin:round;stroke-miterlimit:10;stroke-dasharray:none;stroke-opacity:1"
                 id="path368" /><path
                 d="m 20948,12804 c 0,41.974 -34.026,76 -76,76 -41.974,0 -76,-34.026 -76,-76 0,-41.974 34.026,-76 76,-76 41.974,0 76,34.026 76,76 z"
                 style="fill:#ffffff;fill-opacity:1;fill-rule:evenodd;stroke:#000000;stroke-width:1;stroke-linecap:square;stroke-linejoin:bevel;stroke-miterlimit:10;stroke-dasharray:none;stroke-opacity:1"
                 id="path370" /><path
                 d="m 7270,7044 c 0,41.9736 -34.0264,76 -76,76 -41.9737,0 -76,-34.0264 -76,-76 0,-41.9737 34.0263,-76 76,-76 41.9736,0 76,34.0263 76,76 z"
                 style="fill:none;stroke:#afd134;stroke-width:12.5;stroke-linecap:round;stroke-linejoin:round;stroke-miterlimit:10;stroke-dasharray:none;stroke-opacity:1"
                 id="path372" /><path
                 d="m 7270,7044 c 0,41.9736 -34.0264,76 -76,76 -41.9737,0 -76,-34.0264 -76,-76 0,-41.9737 34.0263,-76 76,-76 41.9736,0 76,34.0263 76,76 z"
                 style="fill:#ffffff;fill-opacity:1;fill-rule:evenodd;stroke:#000000;stroke-width:1;stroke-linecap:square;stroke-linejoin:bevel;stroke-miterlimit:10;stroke-dasharray:none;stroke-opacity:1"
                 id="path374" /><path
                 d="m 7210,12804 c 0,41.974 -34.0264,76 -76,76 -41.9737,0 -76,-34.026 -76,-76 0,-41.974 34.0263,-76 76,-76 41.9736,0 76,34.026 76,76 z"
                 style="fill:none;stroke:#afd134;stroke-width:12.5;stroke-linecap:round;stroke-linejoin:round;stroke-miterlimit:10;stroke-dasharray:none;stroke-opacity:1"
                 id="path376" /><path
                 d="m 7210,12804 c 0,41.974 -34.0264,76 -76,76 -41.9737,0 -76,-34.026 -76,-76 0,-41.974 34.0263,-76 76,-76 41.9736,0 76,34.026 76,76 z"
                 style="fill:#ffffff;fill-opacity:1;fill-rule:evenodd;stroke:#000000;stroke-width:1;stroke-linecap:square;stroke-linejoin:bevel;stroke-miterlimit:10;stroke-dasharray:none;stroke-opacity:1"
                 id="path378" /><path
                 d="m 16989,16763 c 0,41.974 -34.026,76 -76,76 -41.974,0 -76,-34.026 -76,-76 0,-41.974 34.026,-76 76,-76 41.974,0 76,34.026 76,76 z"
                 style="fill:none;stroke:#afd134;stroke-width:12.5;stroke-linecap:round;stroke-linejoin:round;stroke-miterlimit:10;stroke-dasharray:none;stroke-opacity:1"
                 id="path380" /><path
                 d="m 16989,16763 c 0,41.974 -34.026,76 -76,76 -41.974,0 -76,-34.026 -76,-76 0,-41.974 34.026,-76 76,-76 41.974,0 76,34.026 76,76 z"
                 style="fill:#ffffff;fill-opacity:1;fill-rule:evenodd;stroke:#000000;stroke-width:1;stroke-linecap:square;stroke-linejoin:bevel;stroke-miterlimit:10;stroke-dasharray:none;stroke-opacity:1"
                 id="path382" /><path
                 d="m 11229,16703 c 0,41.974 -34.026,76 -76,76 -41.974,0 -76,-34.026 -76,-76 0,-41.974 34.026,-76 76,-76 41.974,0 76,34.026 76,76 z"
                 style="fill:none;stroke:#afd134;stroke-width:12.5;stroke-linecap:round;stroke-linejoin:round;stroke-miterlimit:10;stroke-dasharray:none;stroke-opacity:1"
                 id="path384" /><path
                 d="m 11229,16703 c 0,41.974 -34.026,76 -76,76 -41.974,0 -76,-34.026 -76,-76 0,-41.974 34.026,-76 76,-76 41.974,0 76,34.026 76,76 z"
                 style="fill:#ffffff;fill-opacity:1;fill-rule:evenodd;stroke:#000000;stroke-width:1;stroke-linecap:square;stroke-linejoin:bevel;stroke-miterlimit:10;stroke-dasharray:none;stroke-opacity:1"
                 id="path386" /><path
                 d="m 7274,12050 c 0,36.451 -29.5492,66 -66,66 -36.4508,0 -66,-29.549 -66,-66 0,-36.451 29.5492,-66 66,-66 36.4508,0 66,29.549 66,66 z"
                 style="fill:none;stroke:#afd134;stroke-width:12.5;stroke-linecap:round;stroke-linejoin:round;stroke-miterlimit:10;stroke-dasharray:none;stroke-opacity:1"
                 id="path388" /><path
                 d="m 7274,12050 c 0,36.451 -29.5492,66 -66,66 -36.4508,0 -66,-29.549 -66,-66 0,-36.451 29.5492,-66 66,-66 36.4508,0 66,29.549 66,66 z"
                 style="fill:#ffffff;fill-opacity:1;fill-rule:evenodd;stroke:#000000;stroke-width:1;stroke-linecap:square;stroke-linejoin:bevel;stroke-miterlimit:10;stroke-dasharray:none;stroke-opacity:1"
                 id="path390" /><path
                 d="m 7274,7798 c 0,36.4508 -29.5492,66 -66,66 -36.4508,0 -66,-29.5492 -66,-66 0,-36.4508 29.5492,-66 66,-66 36.4508,0 66,29.5492 66,66 z"
                 style="fill:none;stroke:#afd134;stroke-width:12.5;stroke-linecap:round;stroke-linejoin:round;stroke-miterlimit:10;stroke-dasharray:none;stroke-opacity:1"
                 id="path392" /><path
                 d="m 7274,7798 c 0,36.4508 -29.5492,66 -66,66 -36.4508,0 -66,-29.5492 -66,-66 0,-36.4508 29.5492,-66 66,-66 36.4508,0 66,29.5492 66,66 z"
                 style="fill:#ffffff;fill-opacity:1;fill-rule:evenodd;stroke:#000000;stroke-width:1;stroke-linecap:square;stroke-linejoin:bevel;stroke-miterlimit:10;stroke-dasharray:none;stroke-opacity:1"
                 id="path394" /><path
                 d="m 16225,16749 c 0,36.451 -29.549,66 -66,66 -36.451,0 -66,-29.549 -66,-66 0,-36.451 29.549,-66 66,-66 36.451,0 66,29.549 66,66 z"
                 style="fill:none;stroke:#afd134;stroke-width:12.5;stroke-linecap:round;stroke-linejoin:round;stroke-miterlimit:10;stroke-dasharray:none;stroke-opacity:1"
                 id="path396" /><path
                 d="m 16225,16749 c 0,36.451 -29.549,66 -66,66 -36.451,0 -66,-29.549 -66,-66 0,-36.451 29.549,-66 66,-66 36.451,0 66,29.549 66,66 z"
                 style="fill:#ffffff;fill-opacity:1;fill-rule:evenodd;stroke:#000000;stroke-width:1;stroke-linecap:square;stroke-linejoin:bevel;stroke-miterlimit:10;stroke-dasharray:none;stroke-opacity:1"
                 id="path398" /><path
                 d="m 11973,16749 c 0,36.451 -29.549,66 -66,66 -36.451,0 -66,-29.549 -66,-66 0,-36.451 29.549,-66 66,-66 36.451,0 66,29.549 66,66 z"
                 style="fill:none;stroke:#afd134;stroke-width:12.5;stroke-linecap:round;stroke-linejoin:round;stroke-miterlimit:10;stroke-dasharray:none;stroke-opacity:1"
                 id="path400" /><path
                 d="m 11973,16749 c 0,36.451 -29.549,66 -66,66 -36.451,0 -66,-29.549 -66,-66 0,-36.451 29.549,-66 66,-66 36.451,0 66,29.549 66,66 z"
                 style="fill:#ffffff;fill-opacity:1;fill-rule:evenodd;stroke:#000000;stroke-width:1;stroke-linecap:square;stroke-linejoin:bevel;stroke-miterlimit:10;stroke-dasharray:none;stroke-opacity:1"
                 id="path402" /><path
                 d="m 11973,3099 c 0,36.4508 -29.549,66 -66,66 -36.451,0 -66,-29.5492 -66,-66 0,-36.4508 29.549,-66 66,-66 36.451,0 66,29.5492 66,66 z"
                 style="fill:none;stroke:#afd134;stroke-width:12.5;stroke-linecap:round;stroke-linejoin:round;stroke-miterlimit:10;stroke-dasharray:none;stroke-opacity:1"
                 id="path404" /><path
                 d="m 11973,3099 c 0,36.4508 -29.549,66 -66,66 -36.451,0 -66,-29.5492 -66,-66 0,-36.4508 29.549,-66 66,-66 36.451,0 66,29.5492 66,66 z"
                 style="fill:#ffffff;fill-opacity:1;fill-rule:evenodd;stroke:#000000;stroke-width:1;stroke-linecap:square;stroke-linejoin:bevel;stroke-miterlimit:10;stroke-dasharray:none;stroke-opacity:1"
                 id="path406" /><path
                 d="m 16225,3099 c 0,36.4508 -29.549,66 -66,66 -36.451,0 -66,-29.5492 -66,-66 0,-36.4508 29.549,-66 66,-66 36.451,0 66,29.5492 66,66 z"
                 style="fill:none;stroke:#afd134;stroke-width:12.5;stroke-linecap:round;stroke-linejoin:round;stroke-miterlimit:10;stroke-dasharray:none;stroke-opacity:1"
                 id="path408" /><path
                 d="m 16225,3099 c 0,36.4508 -29.549,66 -66,66 -36.451,0 -66,-29.5492 -66,-66 0,-36.4508 29.549,-66 66,-66 36.451,0 66,29.5492 66,66 z"
                 style="fill:#ffffff;fill-opacity:1;fill-rule:evenodd;stroke:#000000;stroke-width:1;stroke-linecap:square;stroke-linejoin:bevel;stroke-miterlimit:10;stroke-dasharray:none;stroke-opacity:1"
                 id="path410" /><path
                 d="m 17409,3591 c 0,36.4508 -29.549,66 -66,66 -36.451,0 -66,-29.5492 -66,-66 0,-36.4508 29.549,-66 66,-66 36.451,0 66,29.5492 66,66 z"
                 style="fill:none;stroke:#afd134;stroke-width:12.5;stroke-linecap:round;stroke-linejoin:round;stroke-miterlimit:10;stroke-dasharray:none;stroke-opacity:1"
                 id="path412" /><path
                 d="m 17409,3591 c 0,36.4508 -29.549,66 -66,66 -36.451,0 -66,-29.5492 -66,-66 0,-36.4508 29.549,-66 66,-66 36.451,0 66,29.5492 66,66 z"
                 style="fill:#ffffff;fill-opacity:1;fill-rule:evenodd;stroke:#000000;stroke-width:1;stroke-linecap:square;stroke-linejoin:bevel;stroke-miterlimit:10;stroke-dasharray:none;stroke-opacity:1"
                 id="path414" /><path
                 d="m 20416,6597 c 0,36.4508 -29.549,66 -66,66 -36.451,0 -66,-29.5492 -66,-66 0,-36.4508 29.549,-66 66,-66 36.451,0 66,29.5492 66,66 z"
                 style="fill:none;stroke:#afd134;stroke-width:12.5;stroke-linecap:round;stroke-linejoin:round;stroke-miterlimit:10;stroke-dasharray:none;stroke-opacity:1"
                 id="path416" /><path
                 d="m 20416,6597 c 0,36.4508 -29.549,66 -66,66 -36.451,0 -66,-29.5492 -66,-66 0,-36.4508 29.549,-66 66,-66 36.451,0 66,29.5492 66,66 z"
                 style="fill:#ffffff;fill-opacity:1;fill-rule:evenodd;stroke:#000000;stroke-width:1;stroke-linecap:square;stroke-linejoin:bevel;stroke-miterlimit:10;stroke-dasharray:none;stroke-opacity:1"
                 id="path418" /><path
                 d="m 7767,6618 c 0,36.4508 -29.5492,66 -66,66 -36.4508,0 -66,-29.5492 -66,-66 0,-36.4508 29.5492,-66 66,-66 36.4508,0 66,29.5492 66,66 z"
                 style="fill:none;stroke:#afd134;stroke-width:12.5;stroke-linecap:round;stroke-linejoin:round;stroke-miterlimit:10;stroke-dasharray:none;stroke-opacity:1"
                 id="path420" /><path
                 d="m 7767,6618 c 0,36.4508 -29.5492,66 -66,66 -36.4508,0 -66,-29.5492 -66,-66 0,-36.4508 29.5492,-66 66,-66 36.4508,0 66,29.5492 66,66 z"
                 style="fill:#ffffff;fill-opacity:1;fill-rule:evenodd;stroke:#000000;stroke-width:1;stroke-linecap:square;stroke-linejoin:bevel;stroke-miterlimit:10;stroke-dasharray:none;stroke-opacity:1"
                 id="path422" /><path
                 d="m 10774,3611 c 0,36.4508 -29.549,66 -66,66 -36.451,0 -66,-29.5492 -66,-66 0,-36.4508 29.549,-66 66,-66 36.451,0 66,29.5492 66,66 z"
                 style="fill:none;stroke:#afd134;stroke-width:12.5;stroke-linecap:round;stroke-linejoin:round;stroke-miterlimit:10;stroke-dasharray:none;stroke-opacity:1"
                 id="path424" /><path
                 d="m 10774,3611 c 0,36.4508 -29.549,66 -66,66 -36.451,0 -66,-29.5492 -66,-66 0,-36.4508 29.549,-66 66,-66 36.451,0 66,29.5492 66,66 z"
                 style="fill:#ffffff;fill-opacity:1;fill-rule:evenodd;stroke:#000000;stroke-width:1;stroke-linecap:square;stroke-linejoin:bevel;stroke-miterlimit:10;stroke-dasharray:none;stroke-opacity:1"
                 id="path426" /><path
                 d="m 20405,13232 c 0,36.451 -29.549,66 -66,66 -36.451,0 -66,-29.549 -66,-66 0,-36.451 29.549,-66 66,-66 36.451,0 66,29.549 66,66 z"
                 style="fill:none;stroke:#afd134;stroke-width:12.5;stroke-linecap:round;stroke-linejoin:round;stroke-miterlimit:10;stroke-dasharray:none;stroke-opacity:1"
                 id="path428" /><path
                 d="m 20405,13232 c 0,36.451 -29.549,66 -66,66 -36.451,0 -66,-29.549 -66,-66 0,-36.451 29.549,-66 66,-66 36.451,0 66,29.549 66,66 z"
                 style="fill:#ffffff;fill-opacity:1;fill-rule:evenodd;stroke:#000000;stroke-width:1;stroke-linecap:square;stroke-linejoin:bevel;stroke-miterlimit:10;stroke-dasharray:none;stroke-opacity:1"
                 id="path430" /><path
                 d="m 17398,16238 c 0,36.451 -29.549,66 -66,66 -36.451,0 -66,-29.549 -66,-66 0,-36.451 29.549,-66 66,-66 36.451,0 66,29.549 66,66 z"
                 style="fill:none;stroke:#afd134;stroke-width:12.5;stroke-linecap:round;stroke-linejoin:round;stroke-miterlimit:10;stroke-dasharray:none;stroke-opacity:1"
                 id="path432" /><path
                 d="m 17398,16238 c 0,36.451 -29.549,66 -66,66 -36.451,0 -66,-29.549 -66,-66 0,-36.451 29.549,-66 66,-66 36.451,0 66,29.549 66,66 z"
                 style="fill:#ffffff;fill-opacity:1;fill-rule:evenodd;stroke:#000000;stroke-width:1;stroke-linecap:square;stroke-linejoin:bevel;stroke-miterlimit:10;stroke-dasharray:none;stroke-opacity:1"
                 id="path434" /><path
                 d="m 10764,16262 c 0,36.451 -29.549,66 -66,66 -36.451,0 -66,-29.549 -66,-66 0,-36.451 29.549,-66 66,-66 36.451,0 66,29.549 66,66 z"
                 style="fill:none;stroke:#afd134;stroke-width:12.5;stroke-linecap:round;stroke-linejoin:round;stroke-miterlimit:10;stroke-dasharray:none;stroke-opacity:1"
                 id="path436" /><path
                 d="m 10764,16262 c 0,36.451 -29.549,66 -66,66 -36.451,0 -66,-29.549 -66,-66 0,-36.451 29.549,-66 66,-66 36.451,0 66,29.549 66,66 z"
                 style="fill:#ffffff;fill-opacity:1;fill-rule:evenodd;stroke:#000000;stroke-width:1;stroke-linecap:square;stroke-linejoin:bevel;stroke-miterlimit:10;stroke-dasharray:none;stroke-opacity:1"
                 id="path438" /><path
                 d="m 7757,13255 c 0,36.451 -29.5492,66 -66,66 -36.4508,0 -66,-29.549 -66,-66 0,-36.451 29.5492,-66 66,-66 36.4508,0 66,29.549 66,66 z"
                 style="fill:none;stroke:#afd134;stroke-width:12.5;stroke-linecap:round;stroke-linejoin:round;stroke-miterlimit:10;stroke-dasharray:none;stroke-opacity:1"
                 id="path440" /><path
                 d="m 7757,13255 c 0,36.451 -29.5492,66 -66,66 -36.4508,0 -66,-29.549 -66,-66 0,-36.451 29.5492,-66 66,-66 36.4508,0 66,29.549 66,66 z"
                 style="fill:#ffffff;fill-opacity:1;fill-rule:evenodd;stroke:#000000;stroke-width:1;stroke-linecap:square;stroke-linejoin:bevel;stroke-miterlimit:10;stroke-dasharray:none;stroke-opacity:1"
                 id="path442" /><path
                 d="m 20924,7798 c 0,36.4508 -29.549,66 -66,66 -36.451,0 -66,-29.5492 -66,-66 0,-36.4508 29.549,-66 66,-66 36.451,0 66,29.5492 66,66 z"
                 style="fill:none;stroke:#afd134;stroke-width:12.5;stroke-linecap:round;stroke-linejoin:round;stroke-miterlimit:10;stroke-dasharray:none;stroke-opacity:1"
                 id="path444" /><path
                 d="m 20924,7798 c 0,36.4508 -29.549,66 -66,66 -36.451,0 -66,-29.5492 -66,-66 0,-36.4508 29.549,-66 66,-66 36.451,0 66,29.5492 66,66 z"
                 style="fill:#ffffff;fill-opacity:1;fill-rule:evenodd;stroke:#000000;stroke-width:1;stroke-linecap:square;stroke-linejoin:bevel;stroke-miterlimit:10;stroke-dasharray:none;stroke-opacity:1"
                 id="path446" /><path
                 d="m 20924,12050 c 0,36.451 -29.549,66 -66,66 -36.451,0 -66,-29.549 -66,-66 0,-36.451 29.549,-66 66,-66 36.451,0 66,29.549 66,66 z"
                 style="fill:none;stroke:#afd134;stroke-width:12.5;stroke-linecap:round;stroke-linejoin:round;stroke-miterlimit:10;stroke-dasharray:none;stroke-opacity:1"
                 id="path448" /><path
                 d="m 20924,12050 c 0,36.451 -29.549,66 -66,66 -36.451,0 -66,-29.549 -66,-66 0,-36.451 29.549,-66 66,-66 36.451,0 66,29.549 66,66 z"
                 style="fill:#ffffff;fill-opacity:1;fill-rule:evenodd;stroke:#000000;stroke-width:1;stroke-linecap:square;stroke-linejoin:bevel;stroke-miterlimit:10;stroke-dasharray:none;stroke-opacity:1"
                 id="path450" /><path
                 d="m 13985,9972 96,-96"
                 style="fill:none;stroke:#808080;stroke-width:2;stroke-linecap:round;stroke-linejoin:round;stroke-miterlimit:10;stroke-dasharray:none;stroke-opacity:1"
                 id="path452" /><path
                 d="m 14081,9972 -96,-96"
                 style="fill:none;stroke:#808080;stroke-width:2;stroke-linecap:round;stroke-linejoin:round;stroke-miterlimit:10;stroke-dasharray:none;stroke-opacity:1"
                 id="path454" /><path
                 d="m 13985,9924 h 96"
                 style="fill:none;stroke:#808080;stroke-width:2;stroke-linecap:round;stroke-linejoin:round;stroke-miterlimit:10;stroke-dasharray:none;stroke-opacity:1"
                 id="path456" /><path
                 d="m 11200,3085 c 0,25.9574 -21.043,47 -47,47 -25.957,0 -47,-21.0426 -47,-47 0,-25.9574 21.043,-47 47,-47 25.957,0 47,21.0426 47,47 z"
                 style="fill:none;stroke:#808080;stroke-width:2;stroke-linecap:round;stroke-linejoin:round;stroke-miterlimit:10;stroke-dasharray:none;stroke-opacity:1"
                 id="path458" /><path
                 d="m 11105,3133 96,-96"
                 style="fill:none;stroke:#808080;stroke-width:2;stroke-linecap:round;stroke-linejoin:round;stroke-miterlimit:10;stroke-dasharray:none;stroke-opacity:1"
                 id="path460" /><path
                 d="m 16960,3085 c 0,25.9574 -21.043,47 -47,47 -25.957,0 -47,-21.0426 -47,-47 0,-25.9574 21.043,-47 47,-47 25.957,0 47,21.0426 47,47 z"
                 style="fill:none;stroke:#808080;stroke-width:2;stroke-linecap:round;stroke-linejoin:round;stroke-miterlimit:10;stroke-dasharray:none;stroke-opacity:1"
                 id="path462" /><path
                 d="m 16865,3133 96,-96"
                 style="fill:none;stroke:#808080;stroke-width:2;stroke-linecap:round;stroke-linejoin:round;stroke-miterlimit:10;stroke-dasharray:none;stroke-opacity:1"
                 id="path464" /><path
                 d="m 20919,7044 c 0,25.9574 -21.043,47 -47,47 -25.957,0 -47,-21.0426 -47,-47 0,-25.9574 21.043,-47 47,-47 25.957,0 47,21.0426 47,47 z"
                 style="fill:none;stroke:#808080;stroke-width:2;stroke-linecap:round;stroke-linejoin:round;stroke-miterlimit:10;stroke-dasharray:none;stroke-opacity:1"
                 id="path466" /><path
                 d="m 20824,7092 96,-96"
                 style="fill:none;stroke:#808080;stroke-width:2;stroke-linecap:round;stroke-linejoin:round;stroke-miterlimit:10;stroke-dasharray:none;stroke-opacity:1"
                 id="path468" /><path
                 d="m 20919,12804 c 0,25.957 -21.043,47 -47,47 -25.957,0 -47,-21.043 -47,-47 0,-25.957 21.043,-47 47,-47 25.957,0 47,21.043 47,47 z"
                 style="fill:none;stroke:#808080;stroke-width:2;stroke-linecap:round;stroke-linejoin:round;stroke-miterlimit:10;stroke-dasharray:none;stroke-opacity:1"
                 id="path470" /><path
                 d="m 20824,12852 96,-96"
                 style="fill:none;stroke:#808080;stroke-width:2;stroke-linecap:round;stroke-linejoin:round;stroke-miterlimit:10;stroke-dasharray:none;stroke-opacity:1"
                 id="path472" /><path
                 d="m 7241,7044 c 0,25.9574 -21.0426,47 -47,47 -25.9574,0 -47,-21.0426 -47,-47 0,-25.9574 21.0426,-47 47,-47 25.9574,0 47,21.0426 47,47 z"
                 style="fill:none;stroke:#808080;stroke-width:2;stroke-linecap:round;stroke-linejoin:round;stroke-miterlimit:10;stroke-dasharray:none;stroke-opacity:1"
                 id="path474" /><path
                 d="m 7146,7092 96,-96"
                 style="fill:none;stroke:#808080;stroke-width:2;stroke-linecap:round;stroke-linejoin:round;stroke-miterlimit:10;stroke-dasharray:none;stroke-opacity:1"
                 id="path476" /><path
                 d="m 7181,12804 c 0,25.957 -21.0426,47 -47,47 -25.9574,0 -47,-21.043 -47,-47 0,-25.957 21.0426,-47 47,-47 25.9574,0 47,21.043 47,47 z"
                 style="fill:none;stroke:#808080;stroke-width:2;stroke-linecap:round;stroke-linejoin:round;stroke-miterlimit:10;stroke-dasharray:none;stroke-opacity:1"
                 id="path478" /><path
                 d="m 7086,12852 96,-96"
                 style="fill:none;stroke:#808080;stroke-width:2;stroke-linecap:round;stroke-linejoin:round;stroke-miterlimit:10;stroke-dasharray:none;stroke-opacity:1"
                 id="path480" /><path
                 d="m 16960,16763 c 0,25.957 -21.043,47 -47,47 -25.957,0 -47,-21.043 -47,-47 0,-25.957 21.043,-47 47,-47 25.957,0 47,21.043 47,47 z"
                 style="fill:none;stroke:#808080;stroke-width:2;stroke-linecap:round;stroke-linejoin:round;stroke-miterlimit:10;stroke-dasharray:none;stroke-opacity:1"
                 id="path482" /><path
                 d="m 16865,16811 96,-96"
                 style="fill:none;stroke:#808080;stroke-width:2;stroke-linecap:round;stroke-linejoin:round;stroke-miterlimit:10;stroke-dasharray:none;stroke-opacity:1"
                 id="path484" /><path
                 d="m 11200,16703 c 0,25.957 -21.043,47 -47,47 -25.957,0 -47,-21.043 -47,-47 0,-25.957 21.043,-47 47,-47 25.957,0 47,21.043 47,47 z"
                 style="fill:none;stroke:#808080;stroke-width:2;stroke-linecap:round;stroke-linejoin:round;stroke-miterlimit:10;stroke-dasharray:none;stroke-opacity:1"
                 id="path486" /><path
                 d="m 11105,16751 96,-96"
                 style="fill:none;stroke:#808080;stroke-width:2;stroke-linecap:round;stroke-linejoin:round;stroke-miterlimit:10;stroke-dasharray:none;stroke-opacity:1"
                 id="path488" /><path
                 d="m 7255,12050 c 0,25.957 -21.0426,47 -47,47 -25.9574,0 -47,-21.043 -47,-47 0,-25.957 21.0426,-47 47,-47 25.9574,0 47,21.043 47,47 z"
                 style="fill:none;stroke:#808080;stroke-width:2;stroke-linecap:round;stroke-linejoin:round;stroke-miterlimit:10;stroke-dasharray:none;stroke-opacity:1"
                 id="path490" /><path
                 d="m 7160,12098 96,-96"
                 style="fill:none;stroke:#808080;stroke-width:2;stroke-linecap:round;stroke-linejoin:round;stroke-miterlimit:10;stroke-dasharray:none;stroke-opacity:1"
                 id="path492" /><path
                 d="m 7255,7798 c 0,25.9574 -21.0426,47 -47,47 -25.9574,0 -47,-21.0426 -47,-47 0,-25.9574 21.0426,-47 47,-47 25.9574,0 47,21.0426 47,47 z"
                 style="fill:none;stroke:#808080;stroke-width:2;stroke-linecap:round;stroke-linejoin:round;stroke-miterlimit:10;stroke-dasharray:none;stroke-opacity:1"
                 id="path494" /><path
                 d="m 7160,7846 96,-96"
                 style="fill:none;stroke:#808080;stroke-width:2;stroke-linecap:round;stroke-linejoin:round;stroke-miterlimit:10;stroke-dasharray:none;stroke-opacity:1"
                 id="path496" /><path
                 d="m 16206,16749 c 0,25.957 -21.043,47 -47,47 -25.957,0 -47,-21.043 -47,-47 0,-25.957 21.043,-47 47,-47 25.957,0 47,21.043 47,47 z"
                 style="fill:none;stroke:#808080;stroke-width:2;stroke-linecap:round;stroke-linejoin:round;stroke-miterlimit:10;stroke-dasharray:none;stroke-opacity:1"
                 id="path498" /><path
                 d="m 16111,16797 96,-96"
                 style="fill:none;stroke:#808080;stroke-width:2;stroke-linecap:round;stroke-linejoin:round;stroke-miterlimit:10;stroke-dasharray:none;stroke-opacity:1"
                 id="path500" /><path
                 d="m 11954,16749 c 0,25.957 -21.043,47 -47,47 -25.957,0 -47,-21.043 -47,-47 0,-25.957 21.043,-47 47,-47 25.957,0 47,21.043 47,47 z"
                 style="fill:none;stroke:#808080;stroke-width:2;stroke-linecap:round;stroke-linejoin:round;stroke-miterlimit:10;stroke-dasharray:none;stroke-opacity:1"
                 id="path502" /><path
                 d="m 11859,16797 96,-96"
                 style="fill:none;stroke:#808080;stroke-width:2;stroke-linecap:round;stroke-linejoin:round;stroke-miterlimit:10;stroke-dasharray:none;stroke-opacity:1"
                 id="path504" /><path
                 d="m 11954,3099 c 0,25.9574 -21.043,47 -47,47 -25.957,0 -47,-21.0426 -47,-47 0,-25.9574 21.043,-47 47,-47 25.957,0 47,21.0426 47,47 z"
                 style="fill:none;stroke:#808080;stroke-width:2;stroke-linecap:round;stroke-linejoin:round;stroke-miterlimit:10;stroke-dasharray:none;stroke-opacity:1"
                 id="path506" /><path
                 d="m 11859,3147 96,-96"
                 style="fill:none;stroke:#808080;stroke-width:2;stroke-linecap:round;stroke-linejoin:round;stroke-miterlimit:10;stroke-dasharray:none;stroke-opacity:1"
                 id="path508" /><path
                 d="m 16206,3099 c 0,25.9574 -21.043,47 -47,47 -25.957,0 -47,-21.0426 -47,-47 0,-25.9574 21.043,-47 47,-47 25.957,0 47,21.0426 47,47 z"
                 style="fill:none;stroke:#808080;stroke-width:2;stroke-linecap:round;stroke-linejoin:round;stroke-miterlimit:10;stroke-dasharray:none;stroke-opacity:1"
                 id="path510" /><path
                 d="m 16111,3147 96,-96"
                 style="fill:none;stroke:#808080;stroke-width:2;stroke-linecap:round;stroke-linejoin:round;stroke-miterlimit:10;stroke-dasharray:none;stroke-opacity:1"
                 id="path512" /><path
                 d="m 17390,3591 c 0,25.9574 -21.043,47 -47,47 -25.957,0 -47,-21.0426 -47,-47 0,-25.9574 21.043,-47 47,-47 25.957,0 47,21.0426 47,47 z"
                 style="fill:none;stroke:#808080;stroke-width:2;stroke-linecap:round;stroke-linejoin:round;stroke-miterlimit:10;stroke-dasharray:none;stroke-opacity:1"
                 id="path514" /><path
                 d="m 17295,3639 96,-96"
                 style="fill:none;stroke:#808080;stroke-width:2;stroke-linecap:round;stroke-linejoin:round;stroke-miterlimit:10;stroke-dasharray:none;stroke-opacity:1"
                 id="path516" /><path
                 d="m 20397,6597 c 0,25.9574 -21.043,47 -47,47 -25.957,0 -47,-21.0426 -47,-47 0,-25.9574 21.043,-47 47,-47 25.957,0 47,21.0426 47,47 z"
                 style="fill:none;stroke:#808080;stroke-width:2;stroke-linecap:round;stroke-linejoin:round;stroke-miterlimit:10;stroke-dasharray:none;stroke-opacity:1"
                 id="path518" /><path
                 d="m 20302,6645 96,-96"
                 style="fill:none;stroke:#808080;stroke-width:2;stroke-linecap:round;stroke-linejoin:round;stroke-miterlimit:10;stroke-dasharray:none;stroke-opacity:1"
                 id="path520" /><path
                 d="m 7748,6618 c 0,25.9574 -21.0426,47 -47,47 -25.9574,0 -47,-21.0426 -47,-47 0,-25.9574 21.0426,-47 47,-47 25.9574,0 47,21.0426 47,47 z"
                 style="fill:none;stroke:#808080;stroke-width:2;stroke-linecap:round;stroke-linejoin:round;stroke-miterlimit:10;stroke-dasharray:none;stroke-opacity:1"
                 id="path522" /><path
                 d="m 7653,6666 96,-96"
                 style="fill:none;stroke:#808080;stroke-width:2;stroke-linecap:round;stroke-linejoin:round;stroke-miterlimit:10;stroke-dasharray:none;stroke-opacity:1"
                 id="path524" /><path
                 d="m 10755,3611 c 0,25.9574 -21.043,47 -47,47 -25.957,0 -47,-21.0426 -47,-47 0,-25.9574 21.043,-47 47,-47 25.957,0 47,21.0426 47,47 z"
                 style="fill:none;stroke:#808080;stroke-width:2;stroke-linecap:round;stroke-linejoin:round;stroke-miterlimit:10;stroke-dasharray:none;stroke-opacity:1"
                 id="path526" /><path
                 d="m 10660,3659 96,-96"
                 style="fill:none;stroke:#808080;stroke-width:2;stroke-linecap:round;stroke-linejoin:round;stroke-miterlimit:10;stroke-dasharray:none;stroke-opacity:1"
                 id="path528" /><path
                 d="m 20386,13232 c 0,25.957 -21.043,47 -47,47 -25.957,0 -47,-21.043 -47,-47 0,-25.957 21.043,-47 47,-47 25.957,0 47,21.043 47,47 z"
                 style="fill:none;stroke:#808080;stroke-width:2;stroke-linecap:round;stroke-linejoin:round;stroke-miterlimit:10;stroke-dasharray:none;stroke-opacity:1"
                 id="path530" /><path
                 d="m 20291,13280 96,-96"
                 style="fill:none;stroke:#808080;stroke-width:2;stroke-linecap:round;stroke-linejoin:round;stroke-miterlimit:10;stroke-dasharray:none;stroke-opacity:1"
                 id="path532" /><path
                 d="m 17379,16238 c 0,25.957 -21.043,47 -47,47 -25.957,0 -47,-21.043 -47,-47 0,-25.957 21.043,-47 47,-47 25.957,0 47,21.043 47,47 z"
                 style="fill:none;stroke:#808080;stroke-width:2;stroke-linecap:round;stroke-linejoin:round;stroke-miterlimit:10;stroke-dasharray:none;stroke-opacity:1"
                 id="path534" /><path
                 d="m 17284,16286 96,-96"
                 style="fill:none;stroke:#808080;stroke-width:2;stroke-linecap:round;stroke-linejoin:round;stroke-miterlimit:10;stroke-dasharray:none;stroke-opacity:1"
                 id="path536" /><path
                 d="m 10745,16262 c 0,25.957 -21.043,47 -47,47 -25.957,0 -47,-21.043 -47,-47 0,-25.957 21.043,-47 47,-47 25.957,0 47,21.043 47,47 z"
                 style="fill:none;stroke:#808080;stroke-width:2;stroke-linecap:round;stroke-linejoin:round;stroke-miterlimit:10;stroke-dasharray:none;stroke-opacity:1"
                 id="path538" /><path
                 d="m 10650,16310 96,-96"
                 style="fill:none;stroke:#808080;stroke-width:2;stroke-linecap:round;stroke-linejoin:round;stroke-miterlimit:10;stroke-dasharray:none;stroke-opacity:1"
                 id="path540" /><path
                 d="m 7738,13255 c 0,25.957 -21.0426,47 -47,47 -25.9574,0 -47,-21.043 -47,-47 0,-25.957 21.0426,-47 47,-47 25.9574,0 47,21.043 47,47 z"
                 style="fill:none;stroke:#808080;stroke-width:2;stroke-linecap:round;stroke-linejoin:round;stroke-miterlimit:10;stroke-dasharray:none;stroke-opacity:1"
                 id="path542" /><path
                 d="m 7643,13303 96,-96"
                 style="fill:none;stroke:#808080;stroke-width:2;stroke-linecap:round;stroke-linejoin:round;stroke-miterlimit:10;stroke-dasharray:none;stroke-opacity:1"
                 id="path544" /><path
                 d="m 20905,7798 c 0,25.9574 -21.043,47 -47,47 -25.957,0 -47,-21.0426 -47,-47 0,-25.9574 21.043,-47 47,-47 25.957,0 47,21.0426 47,47 z"
                 style="fill:none;stroke:#808080;stroke-width:2;stroke-linecap:round;stroke-linejoin:round;stroke-miterlimit:10;stroke-dasharray:none;stroke-opacity:1"
                 id="path546" /><path
                 d="m 20810,7846 96,-96"
                 style="fill:none;stroke:#808080;stroke-width:2;stroke-linecap:round;stroke-linejoin:round;stroke-miterlimit:10;stroke-dasharray:none;stroke-opacity:1"
                 id="path548" /><path
                 d="m 20905,12050 c 0,25.957 -21.043,47 -47,47 -25.957,0 -47,-21.043 -47,-47 0,-25.957 21.043,-47 47,-47 25.957,0 47,21.043 47,47 z"
                 style="fill:none;stroke:#808080;stroke-width:2;stroke-linecap:round;stroke-linejoin:round;stroke-miterlimit:10;stroke-dasharray:none;stroke-opacity:1"
                 id="path550" /><path
                 d="m 20810,12098 96,-96"
                 style="fill:none;stroke:#808080;stroke-width:2;stroke-linecap:round;stroke-linejoin:round;stroke-miterlimit:10;stroke-dasharray:none;stroke-opacity:1"
                 id="path552" /></g></g></g></g></g></g></svg>
