  0
SECTION
  2
HEADER
  9
$ACADVER
  1
AC1014
  9
$HANDSEED
  5
FFFF
  9
$MEASUREMENT
 70
     1
  0
ENDSEC
  0
SECTION
  2
TABLES
  0
TABLE
  2
VPORT
  5
8
330
0
100
AcDbSymbolTable
 70
     4
  0
VPORT
  5
2E
330
8
100
AcDbSymbolTableRecord
100
AcDbViewportTableRecord
  2
*ACTIVE
 70
     0
 10
0.0
 20
0.0
 11
1.0
 21
1.0
 12
210.0
 22
148.5
 13
0.0
 23
0.0
 14
10.0
 24
10.0
 15
10.0
 25
10.0
 16
0.0
 26
0.0
 36
1.0
 17
0.0
 27
0.0
 37
0.0
 40
341.0
 41
1.24
 42
50.0
 43
0.0
 44
0.0
 50
0.0
 51
0.0
 71
     0
 72
   100
 73
     1
 74
     3
 75
     0
 76
     0
 77
     0
 78
     0
  0
ENDTAB
  0
TABLE
  2
LTYPE
  5
5
330
0
100
AcDbSymbolTable
 70
     1
  0
LTYPE
  5
14
330
5
100
AcDbSymbolTableRecord
100
AcDbLinetypeTableRecord
  2
BYBLOCK
 70
     0
  3

 72
    65
 73
     0
 40
0.0
  0
LTYPE
  5
15
330
5
100
AcDbSymbolTableRecord
100
AcDbLinetypeTableRecord
  2
BYLAYER
 70
     0
  3

 72
    65
 73
     0
 40
0.0
  0
LTYPE
  5
16
330
5
100
AcDbSymbolTableRecord
100
AcDbLinetypeTableRecord
  2
CONTINUOUS
 70
     0
  3
Solid line
 72
    65
 73
     0
 40
0.0
  0
ENDTAB
  0
TABLE
  2
LAYER
  5
2
100
AcDbSymbolTable
 70
2
  0
LAYER
  5
50
100
AcDbSymbolTableRecord
100
AcDbLayerTableRecord
  2
0
 70
0
  6
CONTINUOUS
  0
LAYER
  5
51
100
AcDbSymbolTableRecord
100
AcDbLayerTableRecord
  2
yacc2buss
 70
0
  6
CONTINUOUS
  0
ENDTAB
  0
TABLE
  2
STYLE
  5
3
330
0
100
AcDbSymbolTable
 70
     1
  0
STYLE
  5
11
330
3
100
AcDbSymbolTableRecord
100
AcDbTextStyleTableRecord
  2
STANDARD
 70
     0
 40
0.0
 41
1.0
 50
0.0
 71
     0
 42
2.5
  3
txt
  4

  0
ENDTAB
  0
TABLE
  2
VIEW
  5
6
330
0
100
AcDbSymbolTable
 70
     0
  0
ENDTAB
  0
TABLE
  2
UCS
  5
7
330
0
100
AcDbSymbolTable
 70
     0
  0
ENDTAB
  0
TABLE
  2
APPID
  5
9
330
0
100
AcDbSymbolTable
 70
     2
  0
APPID
  5
12
330
9
100
AcDbSymbolTableRecord
100
AcDbRegAppTableRecord
  2
ACAD
 70
     0
  0
ENDTAB
  0
TABLE
  2
DIMSTYLE
  5
A
330
0
100
AcDbSymbolTable
 70
     1
  0
DIMSTYLE
105
27
330
A
100
AcDbSymbolTableRecord
100
AcDbDimStyleTableRecord
  2
ISO-25
 70
     0
  3

  4

  5

  6

  7

 40
1.0
 41
2.5
 42
0.625
 43
3.75
 44
1.25
 45
0.0
 46
0.0
 47
0.0
 48
0.0
140
2.5
141
2.5
142
0.0
143
0.03937007874016
144
1.0
145
0.0
146
1.0
147
0.625
 71
     0
 72
     0
 73
     0
 74
     0
 75
     0
 76
     0
 77
     1
 78
     8
170
     0
171
     3
172
     1
173
     0
174
     0
175
     0
176
     0
177
     0
178
     0
270
     2
271
     2
272
     2
273
     2
274
     3
340
11
275
     0
280
     0
281
     0
282
     0
283
     0
284
     8
285
     0
286
     0
287
     3
288
     0
  0
ENDTAB
  0
TABLE
  2
BLOCK_RECORD
  5
1
330
0
100
AcDbSymbolTable
 70
     1
  0
BLOCK_RECORD
  5
1F
330
1
100
AcDbSymbolTableRecord
100
AcDbBlockTableRecord
  2
*MODEL_SPACE
  0
BLOCK_RECORD
  5
1B
330
1
100
AcDbSymbolTableRecord
100
AcDbBlockTableRecord
  2
*PAPER_SPACE
  0
ENDTAB
  0
ENDSEC
  0
SECTION
  2
BLOCKS
  0
BLOCK
  5
20
330
1F
100
AcDbEntity
  8
0
100
AcDbBlockBegin
  2
*MODEL_SPACE
 70
     0
 10
0.0
 20
0.0
 30
0.0
  3
*MODEL_SPACE
  1

  0
ENDBLK
  5
21
330
1F
100
AcDbEntity
  8
0
100
AcDbBlockEnd
  0
BLOCK
  5
1C
330
1B
100
AcDbEntity
 67
     1
  8
0
100
AcDbBlockBegin
  2
*PAPER_SPACE
  1

  0
ENDBLK
  5
1D
330
1B
100
AcDbEntity
 67
     1
  8
0
100
AcDbBlockEnd
  0
ENDSEC
  0
SECTION
  2
ENTITIES
  0
SPLINE
  5
100
100
AcDbEntity
  8
yacc2buss
 62
2
100
AcDbSpline
 70
8
 71
3
 72
8
 73
4
 74
0
 40
0
 40
0
 40
0
 40
0
 40
1
 40
1
 40
1
 40
1
 10
11.706637
 20
8.271646
 30
0.0
 10
11.706637
 20
8.264742
 30
0.0
 10
11.701041
 20
8.259146
 30
0.0
 10
11.694137
 20
8.259146
 30
0.0
  0
SPLINE
  5
101
100
AcDbEntity
  8
yacc2buss
 62
2
100
AcDbSpline
 70
8
 71
3
 72
8
 73
4
 74
0
 40
0
 40
0
 40
0
 40
0
 40
1
 40
1
 40
1
 40
1
 10
11.694137
 20
8.259146
 30
0.0
 10
11.687234
 20
8.259146
 30
0.0
 10
11.681637
 20
8.264742
 30
0.0
 10
11.681637
 20
8.271646
 30
0.0
  0
SPLINE
  5
102
100
AcDbEntity
  8
yacc2buss
 62
2
100
AcDbSpline
 70
8
 71
3
 72
8
 73
4
 74
0
 40
0
 40
0
 40
0
 40
0
 40
1
 40
1
 40
1
 40
1
 10
11.681637
 20
8.271646
 30
0.0
 10
11.681637
 20
8.278550
 30
0.0
 10
11.687234
 20
8.284146
 30
0.0
 10
11.694137
 20
8.284146
 30
0.0
  0
SPLINE
  5
103
100
AcDbEntity
  8
yacc2buss
 62
2
100
AcDbSpline
 70
8
 71
3
 72
8
 73
4
 74
0
 40
0
 40
0
 40
0
 40
0
 40
1
 40
1
 40
1
 40
1
 10
11.694137
 20
8.284146
 30
0.0
 10
11.701041
 20
8.284146
 30
0.0
 10
11.706637
 20
8.278550
 30
0.0
 10
11.706637
 20
8.271646
 30
0.0
  0
SPLINE
  5
104
100
AcDbEntity
  8
yacc2buss
 62
7
100
AcDbSpline
 70
8
 71
3
 72
8
 73
4
 74
0
 40
0
 40
0
 40
0
 40
0
 40
1
 40
1
 40
1
 40
1
 10
11.706637
 20
8.271646
 30
0.0
 10
11.706637
 20
8.264742
 30
0.0
 10
11.701041
 20
8.259146
 30
0.0
 10
11.694137
 20
8.259146
 30
0.0
  0
SPLINE
  5
105
100
AcDbEntity
  8
yacc2buss
 62
7
100
AcDbSpline
 70
8
 71
3
 72
8
 73
4
 74
0
 40
0
 40
0
 40
0
 40
0
 40
1
 40
1
 40
1
 40
1
 10
11.694137
 20
8.259146
 30
0.0
 10
11.687234
 20
8.259146
 30
0.0
 10
11.681637
 20
8.264742
 30
0.0
 10
11.681637
 20
8.271646
 30
0.0
  0
SPLINE
  5
106
100
AcDbEntity
  8
yacc2buss
 62
7
100
AcDbSpline
 70
8
 71
3
 72
8
 73
4
 74
0
 40
0
 40
0
 40
0
 40
0
 40
1
 40
1
 40
1
 40
1
 10
11.681637
 20
8.271646
 30
0.0
 10
11.681637
 20
8.278550
 30
0.0
 10
11.687234
 20
8.284146
 30
0.0
 10
11.694137
 20
8.284146
 30
0.0
  0
SPLINE
  5
107
100
AcDbEntity
  8
yacc2buss
 62
7
100
AcDbSpline
 70
8
 71
3
 72
8
 73
4
 74
0
 40
0
 40
0
 40
0
 40
0
 40
1
 40
1
 40
1
 40
1
 10
11.694137
 20
8.284146
 30
0.0
 10
11.701041
 20
8.284146
 30
0.0
 10
11.706637
 20
8.278550
 30
0.0
 10
11.706637
 20
8.271646
 30
0.0
  0
LWPOLYLINE
  5
108
100
AcDbEntity
  8
yacc2buss
 62
2
100
AcDbPolyline
 90
1
 70
1
 10
11.706637
 20
8.271646
 30
0.0
  0
LWPOLYLINE
  5
109
100
AcDbEntity
  8
yacc2buss
 62
7
100
AcDbPolyline
 90
1
 70
1
 10
11.706637
 20
8.271646
 30
0.0
  0
SPLINE
  5
10a
100
AcDbEntity
  8
yacc2buss
 62
2
100
AcDbSpline
 70
8
 71
3
 72
8
 73
4
 74
0
 40
0
 40
0
 40
0
 40
0
 40
1
 40
1
 40
1
 40
1
 10
9.357477
 20
13.970798
 30
0.0
 10
9.357477
 20
13.935820
 30
0.0
 10
9.329122
 20
13.907465
 30
0.0
 10
9.294143
 20
13.907465
 30
0.0
  0
SPLINE
  5
10b
100
AcDbEntity
  8
yacc2buss
 62
2
100
AcDbSpline
 70
8
 71
3
 72
8
 73
4
 74
0
 40
0
 40
0
 40
0
 40
0
 40
1
 40
1
 40
1
 40
1
 10
9.294143
 20
13.907465
 30
0.0
 10
9.259165
 20
13.907465
 30
0.0
 10
9.230810
 20
13.935820
 30
0.0
 10
9.230810
 20
13.970798
 30
0.0
  0
SPLINE
  5
10c
100
AcDbEntity
  8
yacc2buss
 62
2
100
AcDbSpline
 70
8
 71
3
 72
8
 73
4
 74
0
 40
0
 40
0
 40
0
 40
0
 40
1
 40
1
 40
1
 40
1
 10
9.230810
 20
13.970798
 30
0.0
 10
9.230810
 20
14.005776
 30
0.0
 10
9.259165
 20
14.034132
 30
0.0
 10
9.294143
 20
14.034132
 30
0.0
  0
SPLINE
  5
10d
100
AcDbEntity
  8
yacc2buss
 62
2
100
AcDbSpline
 70
8
 71
3
 72
8
 73
4
 74
0
 40
0
 40
0
 40
0
 40
0
 40
1
 40
1
 40
1
 40
1
 10
9.294143
 20
14.034132
 30
0.0
 10
9.329122
 20
14.034132
 30
0.0
 10
9.357477
 20
14.005776
 30
0.0
 10
9.357477
 20
13.970798
 30
0.0
  0
LWPOLYLINE
  5
10e
100
AcDbEntity
  8
yacc2buss
 62
2
100
AcDbPolyline
 90
8
 70
1
 10
14.179131
 20
2.272494
 30
0.0
 10
17.693289
 20
5.786652
 30
0.0
 10
17.693289
 20
10.756640
 30
0.0
 10
14.179131
 20
14.270798
 30
0.0
 10
9.209144
 20
14.270798
 30
0.0
 10
5.694986
 20
10.756640
 30
0.0
 10
5.694986
 20
5.786652
 30
0.0
 10
9.209144
 20
2.272494
 30
0.0
  0
SPLINE
  5
10f
100
AcDbEntity
  8
yacc2buss
 62
7
100
AcDbSpline
 70
8
 71
3
 72
8
 73
4
 74
0
 40
0
 40
0
 40
0
 40
0
 40
1
 40
1
 40
1
 40
1
 10
9.357477
 20
13.970798
 30
0.0
 10
9.357477
 20
13.935820
 30
0.0
 10
9.329122
 20
13.907465
 30
0.0
 10
9.294143
 20
13.907465
 30
0.0
  0
SPLINE
  5
110
100
AcDbEntity
  8
yacc2buss
 62
7
100
AcDbSpline
 70
8
 71
3
 72
8
 73
4
 74
0
 40
0
 40
0
 40
0
 40
0
 40
1
 40
1
 40
1
 40
1
 10
9.294143
 20
13.907465
 30
0.0
 10
9.259165
 20
13.907465
 30
0.0
 10
9.230810
 20
13.935820
 30
0.0
 10
9.230810
 20
13.970798
 30
0.0
  0
SPLINE
  5
111
100
AcDbEntity
  8
yacc2buss
 62
7
100
AcDbSpline
 70
8
 71
3
 72
8
 73
4
 74
0
 40
0
 40
0
 40
0
 40
0
 40
1
 40
1
 40
1
 40
1
 10
9.230810
 20
13.970798
 30
0.0
 10
9.230810
 20
14.005776
 30
0.0
 10
9.259165
 20
14.034132
 30
0.0
 10
9.294143
 20
14.034132
 30
0.0
  0
SPLINE
  5
112
100
AcDbEntity
  8
yacc2buss
 62
7
100
AcDbSpline
 70
8
 71
3
 72
8
 73
4
 74
0
 40
0
 40
0
 40
0
 40
0
 40
1
 40
1
 40
1
 40
1
 10
9.294143
 20
14.034132
 30
0.0
 10
9.329122
 20
14.034132
 30
0.0
 10
9.357477
 20
14.005776
 30
0.0
 10
9.357477
 20
13.970798
 30
0.0
  0
LWPOLYLINE
  5
113
100
AcDbEntity
  8
yacc2buss
 62
2
100
AcDbPolyline
 90
1
 70
1
 10
9.357477
 20
13.970798
 30
0.0
  0
SPLINE
  5
114
100
AcDbEntity
  8
yacc2buss
 62
2
100
AcDbSpline
 70
8
 71
3
 72
8
 73
4
 74
0
 40
0
 40
0
 40
0
 40
0
 40
1
 40
1
 40
1
 40
1
 10
14.157465
 20
13.970798
 30
0.0
 10
14.157465
 20
13.935820
 30
0.0
 10
14.129110
 20
13.907465
 30
0.0
 10
14.094131
 20
13.907465
 30
0.0
  0
SPLINE
  5
115
100
AcDbEntity
  8
yacc2buss
 62
2
100
AcDbSpline
 70
8
 71
3
 72
8
 73
4
 74
0
 40
0
 40
0
 40
0
 40
0
 40
1
 40
1
 40
1
 40
1
 10
14.094131
 20
13.907465
 30
0.0
 10
14.059153
 20
13.907465
 30
0.0
 10
14.030798
 20
13.935820
 30
0.0
 10
14.030798
 20
13.970798
 30
0.0
  0
SPLINE
  5
116
100
AcDbEntity
  8
yacc2buss
 62
2
100
AcDbSpline
 70
8
 71
3
 72
8
 73
4
 74
0
 40
0
 40
0
 40
0
 40
0
 40
1
 40
1
 40
1
 40
1
 10
14.030798
 20
13.970798
 30
0.0
 10
14.030798
 20
14.005776
 30
0.0
 10
14.059153
 20
14.034132
 30
0.0
 10
14.094131
 20
14.034132
 30
0.0
  0
SPLINE
  5
117
100
AcDbEntity
  8
yacc2buss
 62
2
100
AcDbSpline
 70
8
 71
3
 72
8
 73
4
 74
0
 40
0
 40
0
 40
0
 40
0
 40
1
 40
1
 40
1
 40
1
 10
14.094131
 20
14.034132
 30
0.0
 10
14.129110
 20
14.034132
 30
0.0
 10
14.157465
 20
14.005776
 30
0.0
 10
14.157465
 20
13.970798
 30
0.0
  0
LWPOLYLINE
  5
118
100
AcDbEntity
  8
yacc2buss
 62
7
100
AcDbPolyline
 90
1
 70
1
 10
9.357477
 20
13.970798
 30
0.0
  0
SPLINE
  5
119
100
AcDbEntity
  8
yacc2buss
 62
7
100
AcDbSpline
 70
8
 71
3
 72
8
 73
4
 74
0
 40
0
 40
0
 40
0
 40
0
 40
1
 40
1
 40
1
 40
1
 10
14.157465
 20
13.970798
 30
0.0
 10
14.157465
 20
13.935820
 30
0.0
 10
14.129110
 20
13.907465
 30
0.0
 10
14.094131
 20
13.907465
 30
0.0
  0
SPLINE
  5
11a
100
AcDbEntity
  8
yacc2buss
 62
7
100
AcDbSpline
 70
8
 71
3
 72
8
 73
4
 74
0
 40
0
 40
0
 40
0
 40
0
 40
1
 40
1
 40
1
 40
1
 10
14.094131
 20
13.907465
 30
0.0
 10
14.059153
 20
13.907465
 30
0.0
 10
14.030798
 20
13.935820
 30
0.0
 10
14.030798
 20
13.970798
 30
0.0
  0
SPLINE
  5
11b
100
AcDbEntity
  8
yacc2buss
 62
7
100
AcDbSpline
 70
8
 71
3
 72
8
 73
4
 74
0
 40
0
 40
0
 40
0
 40
0
 40
1
 40
1
 40
1
 40
1
 10
14.030798
 20
13.970798
 30
0.0
 10
14.030798
 20
14.005776
 30
0.0
 10
14.059153
 20
14.034132
 30
0.0
 10
14.094131
 20
14.034132
 30
0.0
  0
SPLINE
  5
11c
100
AcDbEntity
  8
yacc2buss
 62
7
100
AcDbSpline
 70
8
 71
3
 72
8
 73
4
 74
0
 40
0
 40
0
 40
0
 40
0
 40
1
 40
1
 40
1
 40
1
 10
14.094131
 20
14.034132
 30
0.0
 10
14.129110
 20
14.034132
 30
0.0
 10
14.157465
 20
14.005776
 30
0.0
 10
14.157465
 20
13.970798
 30
0.0
  0
LWPOLYLINE
  5
11d
100
AcDbEntity
  8
yacc2buss
 62
2
100
AcDbPolyline
 90
1
 70
1
 10
14.157465
 20
13.970798
 30
0.0
  0
SPLINE
  5
11e
100
AcDbEntity
  8
yacc2buss
 62
2
100
AcDbSpline
 70
8
 71
3
 72
8
 73
4
 74
0
 40
0
 40
0
 40
0
 40
0
 40
1
 40
1
 40
1
 40
1
 10
17.456623
 20
10.671640
 30
0.0
 10
17.456623
 20
10.636662
 30
0.0
 10
17.428268
 20
10.608307
 30
0.0
 10
17.393290
 20
10.608307
 30
0.0
  0
SPLINE
  5
11f
100
AcDbEntity
  8
yacc2buss
 62
2
100
AcDbSpline
 70
8
 71
3
 72
8
 73
4
 74
0
 40
0
 40
0
 40
0
 40
0
 40
1
 40
1
 40
1
 40
1
 10
17.393290
 20
10.608307
 30
0.0
 10
17.358312
 20
10.608307
 30
0.0
 10
17.329957
 20
10.636662
 30
0.0
 10
17.329957
 20
10.671640
 30
0.0
  0
SPLINE
  5
120
100
AcDbEntity
  8
yacc2buss
 62
2
100
AcDbSpline
 70
8
 71
3
 72
8
 73
4
 74
0
 40
0
 40
0
 40
0
 40
0
 40
1
 40
1
 40
1
 40
1
 10
17.329957
 20
10.671640
 30
0.0
 10
17.329957
 20
10.706618
 30
0.0
 10
17.358312
 20
10.734973
 30
0.0
 10
17.393290
 20
10.734973
 30
0.0
  0
SPLINE
  5
121
100
AcDbEntity
  8
yacc2buss
 62
2
100
AcDbSpline
 70
8
 71
3
 72
8
 73
4
 74
0
 40
0
 40
0
 40
0
 40
0
 40
1
 40
1
 40
1
 40
1
 10
17.393290
 20
10.734973
 30
0.0
 10
17.428268
 20
10.734973
 30
0.0
 10
17.456623
 20
10.706618
 30
0.0
 10
17.456623
 20
10.671640
 30
0.0
  0
LWPOLYLINE
  5
122
100
AcDbEntity
  8
yacc2buss
 62
7
100
AcDbPolyline
 90
1
 70
1
 10
14.157465
 20
13.970798
 30
0.0
  0
SPLINE
  5
123
100
AcDbEntity
  8
yacc2buss
 62
7
100
AcDbSpline
 70
8
 71
3
 72
8
 73
4
 74
0
 40
0
 40
0
 40
0
 40
0
 40
1
 40
1
 40
1
 40
1
 10
17.456623
 20
10.671640
 30
0.0
 10
17.456623
 20
10.636662
 30
0.0
 10
17.428268
 20
10.608307
 30
0.0
 10
17.393290
 20
10.608307
 30
0.0
  0
SPLINE
  5
124
100
AcDbEntity
  8
yacc2buss
 62
7
100
AcDbSpline
 70
8
 71
3
 72
8
 73
4
 74
0
 40
0
 40
0
 40
0
 40
0
 40
1
 40
1
 40
1
 40
1
 10
17.393290
 20
10.608307
 30
0.0
 10
17.358312
 20
10.608307
 30
0.0
 10
17.329957
 20
10.636662
 30
0.0
 10
17.329957
 20
10.671640
 30
0.0
  0
SPLINE
  5
125
100
AcDbEntity
  8
yacc2buss
 62
7
100
AcDbSpline
 70
8
 71
3
 72
8
 73
4
 74
0
 40
0
 40
0
 40
0
 40
0
 40
1
 40
1
 40
1
 40
1
 10
17.329957
 20
10.671640
 30
0.0
 10
17.329957
 20
10.706618
 30
0.0
 10
17.358312
 20
10.734973
 30
0.0
 10
17.393290
 20
10.734973
 30
0.0
  0
SPLINE
  5
126
100
AcDbEntity
  8
yacc2buss
 62
7
100
AcDbSpline
 70
8
 71
3
 72
8
 73
4
 74
0
 40
0
 40
0
 40
0
 40
0
 40
1
 40
1
 40
1
 40
1
 10
17.393290
 20
10.734973
 30
0.0
 10
17.428268
 20
10.734973
 30
0.0
 10
17.456623
 20
10.706618
 30
0.0
 10
17.456623
 20
10.671640
 30
0.0
  0
LWPOLYLINE
  5
127
100
AcDbEntity
  8
yacc2buss
 62
2
100
AcDbPolyline
 90
1
 70
1
 10
17.456623
 20
10.671640
 30
0.0
  0
SPLINE
  5
128
100
AcDbEntity
  8
yacc2buss
 62
2
100
AcDbSpline
 70
8
 71
3
 72
8
 73
4
 74
0
 40
0
 40
0
 40
0
 40
0
 40
1
 40
1
 40
1
 40
1
 10
17.456623
 20
5.871652
 30
0.0
 10
17.456623
 20
5.836674
 30
0.0
 10
17.428268
 20
5.808319
 30
0.0
 10
17.393290
 20
5.808319
 30
0.0
  0
SPLINE
  5
129
100
AcDbEntity
  8
yacc2buss
 62
2
100
AcDbSpline
 70
8
 71
3
 72
8
 73
4
 74
0
 40
0
 40
0
 40
0
 40
0
 40
1
 40
1
 40
1
 40
1
 10
17.393290
 20
5.808319
 30
0.0
 10
17.358312
 20
5.808319
 30
0.0
 10
17.329957
 20
5.836674
 30
0.0
 10
17.329957
 20
5.871652
 30
0.0
  0
SPLINE
  5
12a
100
AcDbEntity
  8
yacc2buss
 62
2
100
AcDbSpline
 70
8
 71
3
 72
8
 73
4
 74
0
 40
0
 40
0
 40
0
 40
0
 40
1
 40
1
 40
1
 40
1
 10
17.329957
 20
5.871652
 30
0.0
 10
17.329957
 20
5.906630
 30
0.0
 10
17.358312
 20
5.934985
 30
0.0
 10
17.393290
 20
5.934985
 30
0.0
  0
SPLINE
  5
12b
100
AcDbEntity
  8
yacc2buss
 62
2
100
AcDbSpline
 70
8
 71
3
 72
8
 73
4
 74
0
 40
0
 40
0
 40
0
 40
0
 40
1
 40
1
 40
1
 40
1
 10
17.393290
 20
5.934985
 30
0.0
 10
17.428268
 20
5.934985
 30
0.0
 10
17.456623
 20
5.906630
 30
0.0
 10
17.456623
 20
5.871652
 30
0.0
  0
LWPOLYLINE
  5
12c
100
AcDbEntity
  8
yacc2buss
 62
7
100
AcDbPolyline
 90
1
 70
1
 10
17.456623
 20
10.671640
 30
0.0
  0
SPLINE
  5
12d
100
AcDbEntity
  8
yacc2buss
 62
7
100
AcDbSpline
 70
8
 71
3
 72
8
 73
4
 74
0
 40
0
 40
0
 40
0
 40
0
 40
1
 40
1
 40
1
 40
1
 10
17.456623
 20
5.871652
 30
0.0
 10
17.456623
 20
5.836674
 30
0.0
 10
17.428268
 20
5.808319
 30
0.0
 10
17.393290
 20
5.808319
 30
0.0
  0
SPLINE
  5
12e
100
AcDbEntity
  8
yacc2buss
 62
7
100
AcDbSpline
 70
8
 71
3
 72
8
 73
4
 74
0
 40
0
 40
0
 40
0
 40
0
 40
1
 40
1
 40
1
 40
1
 10
17.393290
 20
5.808319
 30
0.0
 10
17.358312
 20
5.808319
 30
0.0
 10
17.329957
 20
5.836674
 30
0.0
 10
17.329957
 20
5.871652
 30
0.0
  0
SPLINE
  5
12f
100
AcDbEntity
  8
yacc2buss
 62
7
100
AcDbSpline
 70
8
 71
3
 72
8
 73
4
 74
0
 40
0
 40
0
 40
0
 40
0
 40
1
 40
1
 40
1
 40
1
 10
17.329957
 20
5.871652
 30
0.0
 10
17.329957
 20
5.906630
 30
0.0
 10
17.358312
 20
5.934985
 30
0.0
 10
17.393290
 20
5.934985
 30
0.0
  0
SPLINE
  5
130
100
AcDbEntity
  8
yacc2buss
 62
7
100
AcDbSpline
 70
8
 71
3
 72
8
 73
4
 74
0
 40
0
 40
0
 40
0
 40
0
 40
1
 40
1
 40
1
 40
1
 10
17.393290
 20
5.934985
 30
0.0
 10
17.428268
 20
5.934985
 30
0.0
 10
17.456623
 20
5.906630
 30
0.0
 10
17.456623
 20
5.871652
 30
0.0
  0
LWPOLYLINE
  5
131
100
AcDbEntity
  8
yacc2buss
 62
2
100
AcDbPolyline
 90
1
 70
1
 10
17.456623
 20
5.871652
 30
0.0
  0
SPLINE
  5
132
100
AcDbEntity
  8
yacc2buss
 62
2
100
AcDbSpline
 70
8
 71
3
 72
8
 73
4
 74
0
 40
0
 40
0
 40
0
 40
0
 40
1
 40
1
 40
1
 40
1
 10
6.058318
 20
10.671640
 30
0.0
 10
6.058318
 20
10.636662
 30
0.0
 10
6.029963
 20
10.608307
 30
0.0
 10
5.994985
 20
10.608307
 30
0.0
  0
SPLINE
  5
133
100
AcDbEntity
  8
yacc2buss
 62
2
100
AcDbSpline
 70
8
 71
3
 72
8
 73
4
 74
0
 40
0
 40
0
 40
0
 40
0
 40
1
 40
1
 40
1
 40
1
 10
5.994985
 20
10.608307
 30
0.0
 10
5.960007
 20
10.608307
 30
0.0
 10
5.931652
 20
10.636662
 30
0.0
 10
5.931652
 20
10.671640
 30
0.0
  0
SPLINE
  5
134
100
AcDbEntity
  8
yacc2buss
 62
2
100
AcDbSpline
 70
8
 71
3
 72
8
 73
4
 74
0
 40
0
 40
0
 40
0
 40
0
 40
1
 40
1
 40
1
 40
1
 10
5.931652
 20
10.671640
 30
0.0
 10
5.931652
 20
10.706618
 30
0.0
 10
5.960007
 20
10.734973
 30
0.0
 10
5.994985
 20
10.734973
 30
0.0
  0
SPLINE
  5
135
100
AcDbEntity
  8
yacc2buss
 62
2
100
AcDbSpline
 70
8
 71
3
 72
8
 73
4
 74
0
 40
0
 40
0
 40
0
 40
0
 40
1
 40
1
 40
1
 40
1
 10
5.994985
 20
10.734973
 30
0.0
 10
6.029963
 20
10.734973
 30
0.0
 10
6.058318
 20
10.706618
 30
0.0
 10
6.058318
 20
10.671640
 30
0.0
  0
LWPOLYLINE
  5
136
100
AcDbEntity
  8
yacc2buss
 62
7
100
AcDbPolyline
 90
1
 70
1
 10
17.456623
 20
5.871652
 30
0.0
  0
SPLINE
  5
137
100
AcDbEntity
  8
yacc2buss
 62
7
100
AcDbSpline
 70
8
 71
3
 72
8
 73
4
 74
0
 40
0
 40
0
 40
0
 40
0
 40
1
 40
1
 40
1
 40
1
 10
6.058318
 20
10.671640
 30
0.0
 10
6.058318
 20
10.636662
 30
0.0
 10
6.029963
 20
10.608307
 30
0.0
 10
5.994985
 20
10.608307
 30
0.0
  0
SPLINE
  5
138
100
AcDbEntity
  8
yacc2buss
 62
7
100
AcDbSpline
 70
8
 71
3
 72
8
 73
4
 74
0
 40
0
 40
0
 40
0
 40
0
 40
1
 40
1
 40
1
 40
1
 10
5.994985
 20
10.608307
 30
0.0
 10
5.960007
 20
10.608307
 30
0.0
 10
5.931652
 20
10.636662
 30
0.0
 10
5.931652
 20
10.671640
 30
0.0
  0
SPLINE
  5
139
100
AcDbEntity
  8
yacc2buss
 62
7
100
AcDbSpline
 70
8
 71
3
 72
8
 73
4
 74
0
 40
0
 40
0
 40
0
 40
0
 40
1
 40
1
 40
1
 40
1
 10
5.931652
 20
10.671640
 30
0.0
 10
5.931652
 20
10.706618
 30
0.0
 10
5.960007
 20
10.734973
 30
0.0
 10
5.994985
 20
10.734973
 30
0.0
  0
SPLINE
  5
13a
100
AcDbEntity
  8
yacc2buss
 62
7
100
AcDbSpline
 70
8
 71
3
 72
8
 73
4
 74
0
 40
0
 40
0
 40
0
 40
0
 40
1
 40
1
 40
1
 40
1
 10
5.994985
 20
10.734973
 30
0.0
 10
6.029963
 20
10.734973
 30
0.0
 10
6.058318
 20
10.706618
 30
0.0
 10
6.058318
 20
10.671640
 30
0.0
  0
LWPOLYLINE
  5
13b
100
AcDbEntity
  8
yacc2buss
 62
2
100
AcDbPolyline
 90
1
 70
1
 10
6.058318
 20
10.671640
 30
0.0
  0
SPLINE
  5
13c
100
AcDbEntity
  8
yacc2buss
 62
2
100
AcDbSpline
 70
8
 71
3
 72
8
 73
4
 74
0
 40
0
 40
0
 40
0
 40
0
 40
1
 40
1
 40
1
 40
1
 10
6.008318
 20
5.871652
 30
0.0
 10
6.008318
 20
5.836674
 30
0.0
 10
5.979963
 20
5.808319
 30
0.0
 10
5.944985
 20
5.808319
 30
0.0
  0
SPLINE
  5
13d
100
AcDbEntity
  8
yacc2buss
 62
2
100
AcDbSpline
 70
8
 71
3
 72
8
 73
4
 74
0
 40
0
 40
0
 40
0
 40
0
 40
1
 40
1
 40
1
 40
1
 10
5.944985
 20
5.808319
 30
0.0
 10
5.910007
 20
5.808319
 30
0.0
 10
5.881652
 20
5.836674
 30
0.0
 10
5.881652
 20
5.871652
 30
0.0
  0
SPLINE
  5
13e
100
AcDbEntity
  8
yacc2buss
 62
2
100
AcDbSpline
 70
8
 71
3
 72
8
 73
4
 74
0
 40
0
 40
0
 40
0
 40
0
 40
1
 40
1
 40
1
 40
1
 10
5.881652
 20
5.871652
 30
0.0
 10
5.881652
 20
5.906630
 30
0.0
 10
5.910007
 20
5.934985
 30
0.0
 10
5.944985
 20
5.934985
 30
0.0
  0
SPLINE
  5
13f
100
AcDbEntity
  8
yacc2buss
 62
2
100
AcDbSpline
 70
8
 71
3
 72
8
 73
4
 74
0
 40
0
 40
0
 40
0
 40
0
 40
1
 40
1
 40
1
 40
1
 10
5.944985
 20
5.934985
 30
0.0
 10
5.979963
 20
5.934985
 30
0.0
 10
6.008318
 20
5.906630
 30
0.0
 10
6.008318
 20
5.871652
 30
0.0
  0
LWPOLYLINE
  5
140
100
AcDbEntity
  8
yacc2buss
 62
7
100
AcDbPolyline
 90
1
 70
1
 10
6.058318
 20
10.671640
 30
0.0
  0
SPLINE
  5
141
100
AcDbEntity
  8
yacc2buss
 62
7
100
AcDbSpline
 70
8
 71
3
 72
8
 73
4
 74
0
 40
0
 40
0
 40
0
 40
0
 40
1
 40
1
 40
1
 40
1
 10
6.008318
 20
5.871652
 30
0.0
 10
6.008318
 20
5.836674
 30
0.0
 10
5.979963
 20
5.808319
 30
0.0
 10
5.944985
 20
5.808319
 30
0.0
  0
SPLINE
  5
142
100
AcDbEntity
  8
yacc2buss
 62
7
100
AcDbSpline
 70
8
 71
3
 72
8
 73
4
 74
0
 40
0
 40
0
 40
0
 40
0
 40
1
 40
1
 40
1
 40
1
 10
5.944985
 20
5.808319
 30
0.0
 10
5.910007
 20
5.808319
 30
0.0
 10
5.881652
 20
5.836674
 30
0.0
 10
5.881652
 20
5.871652
 30
0.0
  0
SPLINE
  5
143
100
AcDbEntity
  8
yacc2buss
 62
7
100
AcDbSpline
 70
8
 71
3
 72
8
 73
4
 74
0
 40
0
 40
0
 40
0
 40
0
 40
1
 40
1
 40
1
 40
1
 10
5.881652
 20
5.871652
 30
0.0
 10
5.881652
 20
5.906630
 30
0.0
 10
5.910007
 20
5.934985
 30
0.0
 10
5.944985
 20
5.934985
 30
0.0
  0
SPLINE
  5
144
100
AcDbEntity
  8
yacc2buss
 62
7
100
AcDbSpline
 70
8
 71
3
 72
8
 73
4
 74
0
 40
0
 40
0
 40
0
 40
0
 40
1
 40
1
 40
1
 40
1
 10
5.944985
 20
5.934985
 30
0.0
 10
5.979963
 20
5.934985
 30
0.0
 10
6.008318
 20
5.906630
 30
0.0
 10
6.008318
 20
5.871652
 30
0.0
  0
LWPOLYLINE
  5
145
100
AcDbEntity
  8
yacc2buss
 62
2
100
AcDbPolyline
 90
1
 70
1
 10
6.008318
 20
5.871652
 30
0.0
  0
SPLINE
  5
146
100
AcDbEntity
  8
yacc2buss
 62
2
100
AcDbSpline
 70
8
 71
3
 72
8
 73
4
 74
0
 40
0
 40
0
 40
0
 40
0
 40
1
 40
1
 40
1
 40
1
 10
14.157465
 20
2.572494
 30
0.0
 10
14.157465
 20
2.537515
 30
0.0
 10
14.129110
 20
2.509160
 30
0.0
 10
14.094131
 20
2.509160
 30
0.0
  0
SPLINE
  5
147
100
AcDbEntity
  8
yacc2buss
 62
2
100
AcDbSpline
 70
8
 71
3
 72
8
 73
4
 74
0
 40
0
 40
0
 40
0
 40
0
 40
1
 40
1
 40
1
 40
1
 10
14.094131
 20
2.509160
 30
0.0
 10
14.059153
 20
2.509160
 30
0.0
 10
14.030798
 20
2.537515
 30
0.0
 10
14.030798
 20
2.572494
 30
0.0
  0
SPLINE
  5
148
100
AcDbEntity
  8
yacc2buss
 62
2
100
AcDbSpline
 70
8
 71
3
 72
8
 73
4
 74
0
 40
0
 40
0
 40
0
 40
0
 40
1
 40
1
 40
1
 40
1
 10
14.030798
 20
2.572494
 30
0.0
 10
14.030798
 20
2.607472
 30
0.0
 10
14.059153
 20
2.635827
 30
0.0
 10
14.094131
 20
2.635827
 30
0.0
  0
SPLINE
  5
149
100
AcDbEntity
  8
yacc2buss
 62
2
100
AcDbSpline
 70
8
 71
3
 72
8
 73
4
 74
0
 40
0
 40
0
 40
0
 40
0
 40
1
 40
1
 40
1
 40
1
 10
14.094131
 20
2.635827
 30
0.0
 10
14.129110
 20
2.635827
 30
0.0
 10
14.157465
 20
2.607472
 30
0.0
 10
14.157465
 20
2.572494
 30
0.0
  0
LWPOLYLINE
  5
14a
100
AcDbEntity
  8
yacc2buss
 62
7
100
AcDbPolyline
 90
1
 70
1
 10
6.008318
 20
5.871652
 30
0.0
  0
SPLINE
  5
14b
100
AcDbEntity
  8
yacc2buss
 62
7
100
AcDbSpline
 70
8
 71
3
 72
8
 73
4
 74
0
 40
0
 40
0
 40
0
 40
0
 40
1
 40
1
 40
1
 40
1
 10
14.157465
 20
2.572494
 30
0.0
 10
14.157465
 20
2.537515
 30
0.0
 10
14.129110
 20
2.509160
 30
0.0
 10
14.094131
 20
2.509160
 30
0.0
  0
SPLINE
  5
14c
100
AcDbEntity
  8
yacc2buss
 62
7
100
AcDbSpline
 70
8
 71
3
 72
8
 73
4
 74
0
 40
0
 40
0
 40
0
 40
0
 40
1
 40
1
 40
1
 40
1
 10
14.094131
 20
2.509160
 30
0.0
 10
14.059153
 20
2.509160
 30
0.0
 10
14.030798
 20
2.537515
 30
0.0
 10
14.030798
 20
2.572494
 30
0.0
  0
SPLINE
  5
14d
100
AcDbEntity
  8
yacc2buss
 62
7
100
AcDbSpline
 70
8
 71
3
 72
8
 73
4
 74
0
 40
0
 40
0
 40
0
 40
0
 40
1
 40
1
 40
1
 40
1
 10
14.030798
 20
2.572494
 30
0.0
 10
14.030798
 20
2.607472
 30
0.0
 10
14.059153
 20
2.635827
 30
0.0
 10
14.094131
 20
2.635827
 30
0.0
  0
SPLINE
  5
14e
100
AcDbEntity
  8
yacc2buss
 62
7
100
AcDbSpline
 70
8
 71
3
 72
8
 73
4
 74
0
 40
0
 40
0
 40
0
 40
0
 40
1
 40
1
 40
1
 40
1
 10
14.094131
 20
2.635827
 30
0.0
 10
14.129110
 20
2.635827
 30
0.0
 10
14.157465
 20
2.607472
 30
0.0
 10
14.157465
 20
2.572494
 30
0.0
  0
LWPOLYLINE
  5
14f
100
AcDbEntity
  8
yacc2buss
 62
2
100
AcDbPolyline
 90
1
 70
1
 10
14.157465
 20
2.572494
 30
0.0
  0
SPLINE
  5
150
100
AcDbEntity
  8
yacc2buss
 62
2
100
AcDbSpline
 70
8
 71
3
 72
8
 73
4
 74
0
 40
0
 40
0
 40
0
 40
0
 40
1
 40
1
 40
1
 40
1
 10
9.357477
 20
2.622493
 30
0.0
 10
9.357477
 20
2.587515
 30
0.0
 10
9.329122
 20
2.559160
 30
0.0
 10
9.294143
 20
2.559160
 30
0.0
  0
SPLINE
  5
151
100
AcDbEntity
  8
yacc2buss
 62
2
100
AcDbSpline
 70
8
 71
3
 72
8
 73
4
 74
0
 40
0
 40
0
 40
0
 40
0
 40
1
 40
1
 40
1
 40
1
 10
9.294143
 20
2.559160
 30
0.0
 10
9.259165
 20
2.559160
 30
0.0
 10
9.230810
 20
2.587515
 30
0.0
 10
9.230810
 20
2.622493
 30
0.0
  0
SPLINE
  5
152
100
AcDbEntity
  8
yacc2buss
 62
2
100
AcDbSpline
 70
8
 71
3
 72
8
 73
4
 74
0
 40
0
 40
0
 40
0
 40
0
 40
1
 40
1
 40
1
 40
1
 10
9.230810
 20
2.622493
 30
0.0
 10
9.230810
 20
2.657472
 30
0.0
 10
9.259165
 20
2.685827
 30
0.0
 10
9.294143
 20
2.685827
 30
0.0
  0
SPLINE
  5
153
100
AcDbEntity
  8
yacc2buss
 62
2
100
AcDbSpline
 70
8
 71
3
 72
8
 73
4
 74
0
 40
0
 40
0
 40
0
 40
0
 40
1
 40
1
 40
1
 40
1
 10
9.294143
 20
2.685827
 30
0.0
 10
9.329122
 20
2.685827
 30
0.0
 10
9.357477
 20
2.657472
 30
0.0
 10
9.357477
 20
2.622493
 30
0.0
  0
LWPOLYLINE
  5
154
100
AcDbEntity
  8
yacc2buss
 62
7
100
AcDbPolyline
 90
1
 70
1
 10
14.157465
 20
2.572494
 30
0.0
  0
SPLINE
  5
155
100
AcDbEntity
  8
yacc2buss
 62
7
100
AcDbSpline
 70
8
 71
3
 72
8
 73
4
 74
0
 40
0
 40
0
 40
0
 40
0
 40
1
 40
1
 40
1
 40
1
 10
9.357477
 20
2.622493
 30
0.0
 10
9.357477
 20
2.587515
 30
0.0
 10
9.329122
 20
2.559160
 30
0.0
 10
9.294143
 20
2.559160
 30
0.0
  0
SPLINE
  5
156
100
AcDbEntity
  8
yacc2buss
 62
7
100
AcDbSpline
 70
8
 71
3
 72
8
 73
4
 74
0
 40
0
 40
0
 40
0
 40
0
 40
1
 40
1
 40
1
 40
1
 10
9.294143
 20
2.559160
 30
0.0
 10
9.259165
 20
2.559160
 30
0.0
 10
9.230810
 20
2.587515
 30
0.0
 10
9.230810
 20
2.622493
 30
0.0
  0
SPLINE
  5
157
100
AcDbEntity
  8
yacc2buss
 62
7
100
AcDbSpline
 70
8
 71
3
 72
8
 73
4
 74
0
 40
0
 40
0
 40
0
 40
0
 40
1
 40
1
 40
1
 40
1
 10
9.230810
 20
2.622493
 30
0.0
 10
9.230810
 20
2.657472
 30
0.0
 10
9.259165
 20
2.685827
 30
0.0
 10
9.294143
 20
2.685827
 30
0.0
  0
SPLINE
  5
158
100
AcDbEntity
  8
yacc2buss
 62
7
100
AcDbSpline
 70
8
 71
3
 72
8
 73
4
 74
0
 40
0
 40
0
 40
0
 40
0
 40
1
 40
1
 40
1
 40
1
 10
9.294143
 20
2.685827
 30
0.0
 10
9.329122
 20
2.685827
 30
0.0
 10
9.357477
 20
2.657472
 30
0.0
 10
9.357477
 20
2.622493
 30
0.0
  0
LWPOLYLINE
  5
159
100
AcDbEntity
  8
yacc2buss
 62
2
100
AcDbPolyline
 90
1
 70
1
 10
9.357477
 20
2.622493
 30
0.0
  0
SPLINE
  5
15a
100
AcDbEntity
  8
yacc2buss
 62
2
100
AcDbSpline
 70
8
 71
3
 72
8
 73
4
 74
0
 40
0
 40
0
 40
0
 40
0
 40
1
 40
1
 40
1
 40
1
 10
6.061652
 20
6.499984
 30
0.0
 10
6.061652
 20
6.469608
 30
0.0
 10
6.037027
 20
6.444984
 30
0.0
 10
6.006652
 20
6.444984
 30
0.0
  0
SPLINE
  5
15b
100
AcDbEntity
  8
yacc2buss
 62
2
100
AcDbSpline
 70
8
 71
3
 72
8
 73
4
 74
0
 40
0
 40
0
 40
0
 40
0
 40
1
 40
1
 40
1
 40
1
 10
6.006652
 20
6.444984
 30
0.0
 10
5.976276
 20
6.444984
 30
0.0
 10
5.951652
 20
6.469608
 30
0.0
 10
5.951652
 20
6.499984
 30
0.0
  0
SPLINE
  5
15c
100
AcDbEntity
  8
yacc2buss
 62
2
100
AcDbSpline
 70
8
 71
3
 72
8
 73
4
 74
0
 40
0
 40
0
 40
0
 40
0
 40
1
 40
1
 40
1
 40
1
 10
5.951652
 20
6.499984
 30
0.0
 10
5.951652
 20
6.530360
 30
0.0
 10
5.976276
 20
6.554984
 30
0.0
 10
6.006652
 20
6.554984
 30
0.0
  0
SPLINE
  5
15d
100
AcDbEntity
  8
yacc2buss
 62
2
100
AcDbSpline
 70
8
 71
3
 72
8
 73
4
 74
0
 40
0
 40
0
 40
0
 40
0
 40
1
 40
1
 40
1
 40
1
 10
6.006652
 20
6.554984
 30
0.0
 10
6.037027
 20
6.554984
 30
0.0
 10
6.061652
 20
6.530360
 30
0.0
 10
6.061652
 20
6.499984
 30
0.0
  0
LWPOLYLINE
  5
15e
100
AcDbEntity
  8
yacc2buss
 62
7
100
AcDbPolyline
 90
1
 70
1
 10
9.357477
 20
2.622493
 30
0.0
  0
SPLINE
  5
15f
100
AcDbEntity
  8
yacc2buss
 62
7
100
AcDbSpline
 70
8
 71
3
 72
8
 73
4
 74
0
 40
0
 40
0
 40
0
 40
0
 40
1
 40
1
 40
1
 40
1
 10
6.061652
 20
6.499984
 30
0.0
 10
6.061652
 20
6.469608
 30
0.0
 10
6.037027
 20
6.444984
 30
0.0
 10
6.006652
 20
6.444984
 30
0.0
  0
SPLINE
  5
160
100
AcDbEntity
  8
yacc2buss
 62
7
100
AcDbSpline
 70
8
 71
3
 72
8
 73
4
 74
0
 40
0
 40
0
 40
0
 40
0
 40
1
 40
1
 40
1
 40
1
 10
6.006652
 20
6.444984
 30
0.0
 10
5.976276
 20
6.444984
 30
0.0
 10
5.951652
 20
6.469608
 30
0.0
 10
5.951652
 20
6.499984
 30
0.0
  0
SPLINE
  5
161
100
AcDbEntity
  8
yacc2buss
 62
7
100
AcDbSpline
 70
8
 71
3
 72
8
 73
4
 74
0
 40
0
 40
0
 40
0
 40
0
 40
1
 40
1
 40
1
 40
1
 10
5.951652
 20
6.499984
 30
0.0
 10
5.951652
 20
6.530360
 30
0.0
 10
5.976276
 20
6.554984
 30
0.0
 10
6.006652
 20
6.554984
 30
0.0
  0
SPLINE
  5
162
100
AcDbEntity
  8
yacc2buss
 62
7
100
AcDbSpline
 70
8
 71
3
 72
8
 73
4
 74
0
 40
0
 40
0
 40
0
 40
0
 40
1
 40
1
 40
1
 40
1
 10
6.006652
 20
6.554984
 30
0.0
 10
6.037027
 20
6.554984
 30
0.0
 10
6.061652
 20
6.530360
 30
0.0
 10
6.061652
 20
6.499984
 30
0.0
  0
LWPOLYLINE
  5
163
100
AcDbEntity
  8
yacc2buss
 62
2
100
AcDbPolyline
 90
1
 70
1
 10
6.061652
 20
6.499984
 30
0.0
  0
SPLINE
  5
164
100
AcDbEntity
  8
yacc2buss
 62
2
100
AcDbSpline
 70
8
 71
3
 72
8
 73
4
 74
0
 40
0
 40
0
 40
0
 40
0
 40
1
 40
1
 40
1
 40
1
 10
6.061652
 20
10.043308
 30
0.0
 10
6.061652
 20
10.012933
 30
0.0
 10
6.037027
 20
9.988308
 30
0.0
 10
6.006652
 20
9.988308
 30
0.0
  0
SPLINE
  5
165
100
AcDbEntity
  8
yacc2buss
 62
2
100
AcDbSpline
 70
8
 71
3
 72
8
 73
4
 74
0
 40
0
 40
0
 40
0
 40
0
 40
1
 40
1
 40
1
 40
1
 10
6.006652
 20
9.988308
 30
0.0
 10
5.976276
 20
9.988308
 30
0.0
 10
5.951652
 20
10.012933
 30
0.0
 10
5.951652
 20
10.043308
 30
0.0
  0
SPLINE
  5
166
100
AcDbEntity
  8
yacc2buss
 62
2
100
AcDbSpline
 70
8
 71
3
 72
8
 73
4
 74
0
 40
0
 40
0
 40
0
 40
0
 40
1
 40
1
 40
1
 40
1
 10
5.951652
 20
10.043308
 30
0.0
 10
5.951652
 20
10.073684
 30
0.0
 10
5.976276
 20
10.098308
 30
0.0
 10
6.006652
 20
10.098308
 30
0.0
  0
SPLINE
  5
167
100
AcDbEntity
  8
yacc2buss
 62
2
100
AcDbSpline
 70
8
 71
3
 72
8
 73
4
 74
0
 40
0
 40
0
 40
0
 40
0
 40
1
 40
1
 40
1
 40
1
 10
6.006652
 20
10.098308
 30
0.0
 10
6.037027
 20
10.098308
 30
0.0
 10
6.061652
 20
10.073684
 30
0.0
 10
6.061652
 20
10.043308
 30
0.0
  0
LWPOLYLINE
  5
168
100
AcDbEntity
  8
yacc2buss
 62
7
100
AcDbPolyline
 90
1
 70
1
 10
6.061652
 20
6.499984
 30
0.0
  0
SPLINE
  5
169
100
AcDbEntity
  8
yacc2buss
 62
7
100
AcDbSpline
 70
8
 71
3
 72
8
 73
4
 74
0
 40
0
 40
0
 40
0
 40
0
 40
1
 40
1
 40
1
 40
1
 10
6.061652
 20
10.043308
 30
0.0
 10
6.061652
 20
10.012933
 30
0.0
 10
6.037027
 20
9.988308
 30
0.0
 10
6.006652
 20
9.988308
 30
0.0
  0
SPLINE
  5
16a
100
AcDbEntity
  8
yacc2buss
 62
7
100
AcDbSpline
 70
8
 71
3
 72
8
 73
4
 74
0
 40
0
 40
0
 40
0
 40
0
 40
1
 40
1
 40
1
 40
1
 10
6.006652
 20
9.988308
 30
0.0
 10
5.976276
 20
9.988308
 30
0.0
 10
5.951652
 20
10.012933
 30
0.0
 10
5.951652
 20
10.043308
 30
0.0
  0
SPLINE
  5
16b
100
AcDbEntity
  8
yacc2buss
 62
7
100
AcDbSpline
 70
8
 71
3
 72
8
 73
4
 74
0
 40
0
 40
0
 40
0
 40
0
 40
1
 40
1
 40
1
 40
1
 10
5.951652
 20
10.043308
 30
0.0
 10
5.951652
 20
10.073684
 30
0.0
 10
5.976276
 20
10.098308
 30
0.0
 10
6.006652
 20
10.098308
 30
0.0
  0
SPLINE
  5
16c
100
AcDbEntity
  8
yacc2buss
 62
7
100
AcDbSpline
 70
8
 71
3
 72
8
 73
4
 74
0
 40
0
 40
0
 40
0
 40
0
 40
1
 40
1
 40
1
 40
1
 10
6.006652
 20
10.098308
 30
0.0
 10
6.037027
 20
10.098308
 30
0.0
 10
6.061652
 20
10.073684
 30
0.0
 10
6.061652
 20
10.043308
 30
0.0
  0
LWPOLYLINE
  5
16d
100
AcDbEntity
  8
yacc2buss
 62
2
100
AcDbPolyline
 90
1
 70
1
 10
6.061652
 20
10.043308
 30
0.0
  0
SPLINE
  5
16e
100
AcDbEntity
  8
yacc2buss
 62
2
100
AcDbSpline
 70
8
 71
3
 72
8
 73
4
 74
0
 40
0
 40
0
 40
0
 40
0
 40
1
 40
1
 40
1
 40
1
 10
13.520800
 20
2.584160
 30
0.0
 10
13.520800
 20
2.553784
 30
0.0
 10
13.496175
 20
2.529160
 30
0.0
 10
13.465800
 20
2.529160
 30
0.0
  0
SPLINE
  5
16f
100
AcDbEntity
  8
yacc2buss
 62
2
100
AcDbSpline
 70
8
 71
3
 72
8
 73
4
 74
0
 40
0
 40
0
 40
0
 40
0
 40
1
 40
1
 40
1
 40
1
 10
13.465800
 20
2.529160
 30
0.0
 10
13.435424
 20
2.529160
 30
0.0
 10
13.410800
 20
2.553784
 30
0.0
 10
13.410800
 20
2.584160
 30
0.0
  0
SPLINE
  5
170
100
AcDbEntity
  8
yacc2buss
 62
2
100
AcDbSpline
 70
8
 71
3
 72
8
 73
4
 74
0
 40
0
 40
0
 40
0
 40
0
 40
1
 40
1
 40
1
 40
1
 10
13.410800
 20
2.584160
 30
0.0
 10
13.410800
 20
2.614536
 30
0.0
 10
13.435424
 20
2.639160
 30
0.0
 10
13.465800
 20
2.639160
 30
0.0
  0
SPLINE
  5
171
100
AcDbEntity
  8
yacc2buss
 62
2
100
AcDbSpline
 70
8
 71
3
 72
8
 73
4
 74
0
 40
0
 40
0
 40
0
 40
0
 40
1
 40
1
 40
1
 40
1
 10
13.465800
 20
2.639160
 30
0.0
 10
13.496175
 20
2.639160
 30
0.0
 10
13.520800
 20
2.614536
 30
0.0
 10
13.520800
 20
2.584160
 30
0.0
  0
LWPOLYLINE
  5
172
100
AcDbEntity
  8
yacc2buss
 62
7
100
AcDbPolyline
 90
1
 70
1
 10
6.061652
 20
10.043308
 30
0.0
  0
SPLINE
  5
173
100
AcDbEntity
  8
yacc2buss
 62
7
100
AcDbSpline
 70
8
 71
3
 72
8
 73
4
 74
0
 40
0
 40
0
 40
0
 40
0
 40
1
 40
1
 40
1
 40
1
 10
13.520800
 20
2.584160
 30
0.0
 10
13.520800
 20
2.553784
 30
0.0
 10
13.496175
 20
2.529160
 30
0.0
 10
13.465800
 20
2.529160
 30
0.0
  0
SPLINE
  5
174
100
AcDbEntity
  8
yacc2buss
 62
7
100
AcDbSpline
 70
8
 71
3
 72
8
 73
4
 74
0
 40
0
 40
0
 40
0
 40
0
 40
1
 40
1
 40
1
 40
1
 10
13.465800
 20
2.529160
 30
0.0
 10
13.435424
 20
2.529160
 30
0.0
 10
13.410800
 20
2.553784
 30
0.0
 10
13.410800
 20
2.584160
 30
0.0
  0
SPLINE
  5
175
100
AcDbEntity
  8
yacc2buss
 62
7
100
AcDbSpline
 70
8
 71
3
 72
8
 73
4
 74
0
 40
0
 40
0
 40
0
 40
0
 40
1
 40
1
 40
1
 40
1
 10
13.410800
 20
2.584160
 30
0.0
 10
13.410800
 20
2.614536
 30
0.0
 10
13.435424
 20
2.639160
 30
0.0
 10
13.465800
 20
2.639160
 30
0.0
  0
SPLINE
  5
176
100
AcDbEntity
  8
yacc2buss
 62
7
100
AcDbSpline
 70
8
 71
3
 72
8
 73
4
 74
0
 40
0
 40
0
 40
0
 40
0
 40
1
 40
1
 40
1
 40
1
 10
13.465800
 20
2.639160
 30
0.0
 10
13.496175
 20
2.639160
 30
0.0
 10
13.520800
 20
2.614536
 30
0.0
 10
13.520800
 20
2.584160
 30
0.0
  0
LWPOLYLINE
  5
177
100
AcDbEntity
  8
yacc2buss
 62
2
100
AcDbPolyline
 90
1
 70
1
 10
13.520800
 20
2.584160
 30
0.0
  0
SPLINE
  5
178
100
AcDbEntity
  8
yacc2buss
 62
2
100
AcDbSpline
 70
8
 71
3
 72
8
 73
4
 74
0
 40
0
 40
0
 40
0
 40
0
 40
1
 40
1
 40
1
 40
1
 10
9.977475
 20
2.584160
 30
0.0
 10
9.977475
 20
2.553784
 30
0.0
 10
9.952851
 20
2.529160
 30
0.0
 10
9.922475
 20
2.529160
 30
0.0
  0
SPLINE
  5
179
100
AcDbEntity
  8
yacc2buss
 62
2
100
AcDbSpline
 70
8
 71
3
 72
8
 73
4
 74
0
 40
0
 40
0
 40
0
 40
0
 40
1
 40
1
 40
1
 40
1
 10
9.922475
 20
2.529160
 30
0.0
 10
9.892099
 20
2.529160
 30
0.0
 10
9.867475
 20
2.553784
 30
0.0
 10
9.867475
 20
2.584160
 30
0.0
  0
SPLINE
  5
17a
100
AcDbEntity
  8
yacc2buss
 62
2
100
AcDbSpline
 70
8
 71
3
 72
8
 73
4
 74
0
 40
0
 40
0
 40
0
 40
0
 40
1
 40
1
 40
1
 40
1
 10
9.867475
 20
2.584160
 30
0.0
 10
9.867475
 20
2.614536
 30
0.0
 10
9.892099
 20
2.639160
 30
0.0
 10
9.922475
 20
2.639160
 30
0.0
  0
SPLINE
  5
17b
100
AcDbEntity
  8
yacc2buss
 62
2
100
AcDbSpline
 70
8
 71
3
 72
8
 73
4
 74
0
 40
0
 40
0
 40
0
 40
0
 40
1
 40
1
 40
1
 40
1
 10
9.922475
 20
2.639160
 30
0.0
 10
9.952851
 20
2.639160
 30
0.0
 10
9.977475
 20
2.614536
 30
0.0
 10
9.977475
 20
2.584160
 30
0.0
  0
LWPOLYLINE
  5
17c
100
AcDbEntity
  8
yacc2buss
 62
7
100
AcDbPolyline
 90
1
 70
1
 10
13.520800
 20
2.584160
 30
0.0
  0
SPLINE
  5
17d
100
AcDbEntity
  8
yacc2buss
 62
7
100
AcDbSpline
 70
8
 71
3
 72
8
 73
4
 74
0
 40
0
 40
0
 40
0
 40
0
 40
1
 40
1
 40
1
 40
1
 10
9.977475
 20
2.584160
 30
0.0
 10
9.977475
 20
2.553784
 30
0.0
 10
9.952851
 20
2.529160
 30
0.0
 10
9.922475
 20
2.529160
 30
0.0
  0
SPLINE
  5
17e
100
AcDbEntity
  8
yacc2buss
 62
7
100
AcDbSpline
 70
8
 71
3
 72
8
 73
4
 74
0
 40
0
 40
0
 40
0
 40
0
 40
1
 40
1
 40
1
 40
1
 10
9.922475
 20
2.529160
 30
0.0
 10
9.892099
 20
2.529160
 30
0.0
 10
9.867475
 20
2.553784
 30
0.0
 10
9.867475
 20
2.584160
 30
0.0
  0
SPLINE
  5
17f
100
AcDbEntity
  8
yacc2buss
 62
7
100
AcDbSpline
 70
8
 71
3
 72
8
 73
4
 74
0
 40
0
 40
0
 40
0
 40
0
 40
1
 40
1
 40
1
 40
1
 10
9.867475
 20
2.584160
 30
0.0
 10
9.867475
 20
2.614536
 30
0.0
 10
9.892099
 20
2.639160
 30
0.0
 10
9.922475
 20
2.639160
 30
0.0
  0
SPLINE
  5
180
100
AcDbEntity
  8
yacc2buss
 62
7
100
AcDbSpline
 70
8
 71
3
 72
8
 73
4
 74
0
 40
0
 40
0
 40
0
 40
0
 40
1
 40
1
 40
1
 40
1
 10
9.922475
 20
2.639160
 30
0.0
 10
9.952851
 20
2.639160
 30
0.0
 10
9.977475
 20
2.614536
 30
0.0
 10
9.977475
 20
2.584160
 30
0.0
  0
LWPOLYLINE
  5
181
100
AcDbEntity
  8
yacc2buss
 62
2
100
AcDbPolyline
 90
1
 70
1
 10
9.977475
 20
2.584160
 30
0.0
  0
SPLINE
  5
182
100
AcDbEntity
  8
yacc2buss
 62
2
100
AcDbSpline
 70
8
 71
3
 72
8
 73
4
 74
0
 40
0
 40
0
 40
0
 40
0
 40
1
 40
1
 40
1
 40
1
 10
9.977475
 20
13.959132
 30
0.0
 10
9.977475
 20
13.928756
 30
0.0
 10
9.952851
 20
13.904132
 30
0.0
 10
9.922475
 20
13.904132
 30
0.0
  0
SPLINE
  5
183
100
AcDbEntity
  8
yacc2buss
 62
2
100
AcDbSpline
 70
8
 71
3
 72
8
 73
4
 74
0
 40
0
 40
0
 40
0
 40
0
 40
1
 40
1
 40
1
 40
1
 10
9.922475
 20
13.904132
 30
0.0
 10
9.892099
 20
13.904132
 30
0.0
 10
9.867475
 20
13.928756
 30
0.0
 10
9.867475
 20
13.959132
 30
0.0
  0
SPLINE
  5
184
100
AcDbEntity
  8
yacc2buss
 62
2
100
AcDbSpline
 70
8
 71
3
 72
8
 73
4
 74
0
 40
0
 40
0
 40
0
 40
0
 40
1
 40
1
 40
1
 40
1
 10
9.867475
 20
13.959132
 30
0.0
 10
9.867475
 20
13.989507
 30
0.0
 10
9.892099
 20
14.014132
 30
0.0
 10
9.922475
 20
14.014132
 30
0.0
  0
SPLINE
  5
185
100
AcDbEntity
  8
yacc2buss
 62
2
100
AcDbSpline
 70
8
 71
3
 72
8
 73
4
 74
0
 40
0
 40
0
 40
0
 40
0
 40
1
 40
1
 40
1
 40
1
 10
9.922475
 20
14.014132
 30
0.0
 10
9.952851
 20
14.014132
 30
0.0
 10
9.977475
 20
13.989507
 30
0.0
 10
9.977475
 20
13.959132
 30
0.0
  0
LWPOLYLINE
  5
186
100
AcDbEntity
  8
yacc2buss
 62
7
100
AcDbPolyline
 90
1
 70
1
 10
9.977475
 20
2.584160
 30
0.0
  0
SPLINE
  5
187
100
AcDbEntity
  8
yacc2buss
 62
7
100
AcDbSpline
 70
8
 71
3
 72
8
 73
4
 74
0
 40
0
 40
0
 40
0
 40
0
 40
1
 40
1
 40
1
 40
1
 10
9.977475
 20
13.959132
 30
0.0
 10
9.977475
 20
13.928756
 30
0.0
 10
9.952851
 20
13.904132
 30
0.0
 10
9.922475
 20
13.904132
 30
0.0
  0
SPLINE
  5
188
100
AcDbEntity
  8
yacc2buss
 62
7
100
AcDbSpline
 70
8
 71
3
 72
8
 73
4
 74
0
 40
0
 40
0
 40
0
 40
0
 40
1
 40
1
 40
1
 40
1
 10
9.922475
 20
13.904132
 30
0.0
 10
9.892099
 20
13.904132
 30
0.0
 10
9.867475
 20
13.928756
 30
0.0
 10
9.867475
 20
13.959132
 30
0.0
  0
SPLINE
  5
189
100
AcDbEntity
  8
yacc2buss
 62
7
100
AcDbSpline
 70
8
 71
3
 72
8
 73
4
 74
0
 40
0
 40
0
 40
0
 40
0
 40
1
 40
1
 40
1
 40
1
 10
9.867475
 20
13.959132
 30
0.0
 10
9.867475
 20
13.989507
 30
0.0
 10
9.892099
 20
14.014132
 30
0.0
 10
9.922475
 20
14.014132
 30
0.0
  0
SPLINE
  5
18a
100
AcDbEntity
  8
yacc2buss
 62
7
100
AcDbSpline
 70
8
 71
3
 72
8
 73
4
 74
0
 40
0
 40
0
 40
0
 40
0
 40
1
 40
1
 40
1
 40
1
 10
9.922475
 20
14.014132
 30
0.0
 10
9.952851
 20
14.014132
 30
0.0
 10
9.977475
 20
13.989507
 30
0.0
 10
9.977475
 20
13.959132
 30
0.0
  0
LWPOLYLINE
  5
18b
100
AcDbEntity
  8
yacc2buss
 62
2
100
AcDbPolyline
 90
1
 70
1
 10
9.977475
 20
13.959132
 30
0.0
  0
SPLINE
  5
18c
100
AcDbEntity
  8
yacc2buss
 62
2
100
AcDbSpline
 70
8
 71
3
 72
8
 73
4
 74
0
 40
0
 40
0
 40
0
 40
0
 40
1
 40
1
 40
1
 40
1
 10
13.520800
 20
13.959132
 30
0.0
 10
13.520800
 20
13.928756
 30
0.0
 10
13.496175
 20
13.904132
 30
0.0
 10
13.465800
 20
13.904132
 30
0.0
  0
SPLINE
  5
18d
100
AcDbEntity
  8
yacc2buss
 62
2
100
AcDbSpline
 70
8
 71
3
 72
8
 73
4
 74
0
 40
0
 40
0
 40
0
 40
0
 40
1
 40
1
 40
1
 40
1
 10
13.465800
 20
13.904132
 30
0.0
 10
13.435424
 20
13.904132
 30
0.0
 10
13.410800
 20
13.928756
 30
0.0
 10
13.410800
 20
13.959132
 30
0.0
  0
SPLINE
  5
18e
100
AcDbEntity
  8
yacc2buss
 62
2
100
AcDbSpline
 70
8
 71
3
 72
8
 73
4
 74
0
 40
0
 40
0
 40
0
 40
0
 40
1
 40
1
 40
1
 40
1
 10
13.410800
 20
13.959132
 30
0.0
 10
13.410800
 20
13.989507
 30
0.0
 10
13.435424
 20
14.014132
 30
0.0
 10
13.465800
 20
14.014132
 30
0.0
  0
SPLINE
  5
18f
100
AcDbEntity
  8
yacc2buss
 62
2
100
AcDbSpline
 70
8
 71
3
 72
8
 73
4
 74
0
 40
0
 40
0
 40
0
 40
0
 40
1
 40
1
 40
1
 40
1
 10
13.465800
 20
14.014132
 30
0.0
 10
13.496175
 20
14.014132
 30
0.0
 10
13.520800
 20
13.989507
 30
0.0
 10
13.520800
 20
13.959132
 30
0.0
  0
LWPOLYLINE
  5
190
100
AcDbEntity
  8
yacc2buss
 62
7
100
AcDbPolyline
 90
1
 70
1
 10
9.977475
 20
13.959132
 30
0.0
  0
SPLINE
  5
191
100
AcDbEntity
  8
yacc2buss
 62
7
100
AcDbSpline
 70
8
 71
3
 72
8
 73
4
 74
0
 40
0
 40
0
 40
0
 40
0
 40
1
 40
1
 40
1
 40
1
 10
13.520800
 20
13.959132
 30
0.0
 10
13.520800
 20
13.928756
 30
0.0
 10
13.496175
 20
13.904132
 30
0.0
 10
13.465800
 20
13.904132
 30
0.0
  0
SPLINE
  5
192
100
AcDbEntity
  8
yacc2buss
 62
7
100
AcDbSpline
 70
8
 71
3
 72
8
 73
4
 74
0
 40
0
 40
0
 40
0
 40
0
 40
1
 40
1
 40
1
 40
1
 10
13.465800
 20
13.904132
 30
0.0
 10
13.435424
 20
13.904132
 30
0.0
 10
13.410800
 20
13.928756
 30
0.0
 10
13.410800
 20
13.959132
 30
0.0
  0
SPLINE
  5
193
100
AcDbEntity
  8
yacc2buss
 62
7
100
AcDbSpline
 70
8
 71
3
 72
8
 73
4
 74
0
 40
0
 40
0
 40
0
 40
0
 40
1
 40
1
 40
1
 40
1
 10
13.410800
 20
13.959132
 30
0.0
 10
13.410800
 20
13.989507
 30
0.0
 10
13.435424
 20
14.014132
 30
0.0
 10
13.465800
 20
14.014132
 30
0.0
  0
SPLINE
  5
194
100
AcDbEntity
  8
yacc2buss
 62
7
100
AcDbSpline
 70
8
 71
3
 72
8
 73
4
 74
0
 40
0
 40
0
 40
0
 40
0
 40
1
 40
1
 40
1
 40
1
 10
13.465800
 20
14.014132
 30
0.0
 10
13.496175
 20
14.014132
 30
0.0
 10
13.520800
 20
13.989507
 30
0.0
 10
13.520800
 20
13.959132
 30
0.0
  0
LWPOLYLINE
  5
195
100
AcDbEntity
  8
yacc2buss
 62
2
100
AcDbPolyline
 90
1
 70
1
 10
13.520800
 20
13.959132
 30
0.0
  0
SPLINE
  5
196
100
AcDbEntity
  8
yacc2buss
 62
2
100
AcDbSpline
 70
8
 71
3
 72
8
 73
4
 74
0
 40
0
 40
0
 40
0
 40
0
 40
1
 40
1
 40
1
 40
1
 10
14.507464
 20
13.549133
 30
0.0
 10
14.507464
 20
13.518757
 30
0.0
 10
14.482840
 20
13.494133
 30
0.0
 10
14.452464
 20
13.494133
 30
0.0
  0
SPLINE
  5
197
100
AcDbEntity
  8
yacc2buss
 62
2
100
AcDbSpline
 70
8
 71
3
 72
8
 73
4
 74
0
 40
0
 40
0
 40
0
 40
0
 40
1
 40
1
 40
1
 40
1
 10
14.452464
 20
13.494133
 30
0.0
 10
14.422088
 20
13.494133
 30
0.0
 10
14.397464
 20
13.518757
 30
0.0
 10
14.397464
 20
13.549133
 30
0.0
  0
SPLINE
  5
198
100
AcDbEntity
  8
yacc2buss
 62
2
100
AcDbSpline
 70
8
 71
3
 72
8
 73
4
 74
0
 40
0
 40
0
 40
0
 40
0
 40
1
 40
1
 40
1
 40
1
 10
14.397464
 20
13.549133
 30
0.0
 10
14.397464
 20
13.579508
 30
0.0
 10
14.422088
 20
13.604133
 30
0.0
 10
14.452464
 20
13.604133
 30
0.0
  0
SPLINE
  5
199
100
AcDbEntity
  8
yacc2buss
 62
2
100
AcDbSpline
 70
8
 71
3
 72
8
 73
4
 74
0
 40
0
 40
0
 40
0
 40
0
 40
1
 40
1
 40
1
 40
1
 10
14.452464
 20
13.604133
 30
0.0
 10
14.482840
 20
13.604133
 30
0.0
 10
14.507464
 20
13.579508
 30
0.0
 10
14.507464
 20
13.549133
 30
0.0
  0
LWPOLYLINE
  5
19a
100
AcDbEntity
  8
yacc2buss
 62
7
100
AcDbPolyline
 90
1
 70
1
 10
13.520800
 20
13.959132
 30
0.0
  0
SPLINE
  5
19b
100
AcDbEntity
  8
yacc2buss
 62
7
100
AcDbSpline
 70
8
 71
3
 72
8
 73
4
 74
0
 40
0
 40
0
 40
0
 40
0
 40
1
 40
1
 40
1
 40
1
 10
14.507464
 20
13.549133
 30
0.0
 10
14.507464
 20
13.518757
 30
0.0
 10
14.482840
 20
13.494133
 30
0.0
 10
14.452464
 20
13.494133
 30
0.0
  0
SPLINE
  5
19c
100
AcDbEntity
  8
yacc2buss
 62
7
100
AcDbSpline
 70
8
 71
3
 72
8
 73
4
 74
0
 40
0
 40
0
 40
0
 40
0
 40
1
 40
1
 40
1
 40
1
 10
14.452464
 20
13.494133
 30
0.0
 10
14.422088
 20
13.494133
 30
0.0
 10
14.397464
 20
13.518757
 30
0.0
 10
14.397464
 20
13.549133
 30
0.0
  0
SPLINE
  5
19d
100
AcDbEntity
  8
yacc2buss
 62
7
100
AcDbSpline
 70
8
 71
3
 72
8
 73
4
 74
0
 40
0
 40
0
 40
0
 40
0
 40
1
 40
1
 40
1
 40
1
 10
14.397464
 20
13.549133
 30
0.0
 10
14.397464
 20
13.579508
 30
0.0
 10
14.422088
 20
13.604133
 30
0.0
 10
14.452464
 20
13.604133
 30
0.0
  0
SPLINE
  5
19e
100
AcDbEntity
  8
yacc2buss
 62
7
100
AcDbSpline
 70
8
 71
3
 72
8
 73
4
 74
0
 40
0
 40
0
 40
0
 40
0
 40
1
 40
1
 40
1
 40
1
 10
14.452464
 20
13.604133
 30
0.0
 10
14.482840
 20
13.604133
 30
0.0
 10
14.507464
 20
13.579508
 30
0.0
 10
14.507464
 20
13.549133
 30
0.0
  0
LWPOLYLINE
  5
19f
100
AcDbEntity
  8
yacc2buss
 62
2
100
AcDbPolyline
 90
1
 70
1
 10
14.507464
 20
13.549133
 30
0.0
  0
SPLINE
  5
1a0
100
AcDbEntity
  8
yacc2buss
 62
2
100
AcDbSpline
 70
8
 71
3
 72
8
 73
4
 74
0
 40
0
 40
0
 40
0
 40
0
 40
1
 40
1
 40
1
 40
1
 10
17.013291
 20
11.044139
 30
0.0
 10
17.013291
 20
11.013763
 30
0.0
 10
16.988667
 20
10.989139
 30
0.0
 10
16.958291
 20
10.989139
 30
0.0
  0
SPLINE
  5
1a1
100
AcDbEntity
  8
yacc2buss
 62
2
100
AcDbSpline
 70
8
 71
3
 72
8
 73
4
 74
0
 40
0
 40
0
 40
0
 40
0
 40
1
 40
1
 40
1
 40
1
 10
16.958291
 20
10.989139
 30
0.0
 10
16.927915
 20
10.989139
 30
0.0
 10
16.903291
 20
11.013763
 30
0.0
 10
16.903291
 20
11.044139
 30
0.0
  0
SPLINE
  5
1a2
100
AcDbEntity
  8
yacc2buss
 62
2
100
AcDbSpline
 70
8
 71
3
 72
8
 73
4
 74
0
 40
0
 40
0
 40
0
 40
0
 40
1
 40
1
 40
1
 40
1
 10
16.903291
 20
11.044139
 30
0.0
 10
16.903291
 20
11.074515
 30
0.0
 10
16.927915
 20
11.099139
 30
0.0
 10
16.958291
 20
11.099139
 30
0.0
  0
SPLINE
  5
1a3
100
AcDbEntity
  8
yacc2buss
 62
2
100
AcDbSpline
 70
8
 71
3
 72
8
 73
4
 74
0
 40
0
 40
0
 40
0
 40
0
 40
1
 40
1
 40
1
 40
1
 10
16.958291
 20
11.099139
 30
0.0
 10
16.988667
 20
11.099139
 30
0.0
 10
17.013291
 20
11.074515
 30
0.0
 10
17.013291
 20
11.044139
 30
0.0
  0
LWPOLYLINE
  5
1a4
100
AcDbEntity
  8
yacc2buss
 62
7
100
AcDbPolyline
 90
1
 70
1
 10
14.507464
 20
13.549133
 30
0.0
  0
SPLINE
  5
1a5
100
AcDbEntity
  8
yacc2buss
 62
7
100
AcDbSpline
 70
8
 71
3
 72
8
 73
4
 74
0
 40
0
 40
0
 40
0
 40
0
 40
1
 40
1
 40
1
 40
1
 10
17.013291
 20
11.044139
 30
0.0
 10
17.013291
 20
11.013763
 30
0.0
 10
16.988667
 20
10.989139
 30
0.0
 10
16.958291
 20
10.989139
 30
0.0
  0
SPLINE
  5
1a6
100
AcDbEntity
  8
yacc2buss
 62
7
100
AcDbSpline
 70
8
 71
3
 72
8
 73
4
 74
0
 40
0
 40
0
 40
0
 40
0
 40
1
 40
1
 40
1
 40
1
 10
16.958291
 20
10.989139
 30
0.0
 10
16.927915
 20
10.989139
 30
0.0
 10
16.903291
 20
11.013763
 30
0.0
 10
16.903291
 20
11.044139
 30
0.0
  0
SPLINE
  5
1a7
100
AcDbEntity
  8
yacc2buss
 62
7
100
AcDbSpline
 70
8
 71
3
 72
8
 73
4
 74
0
 40
0
 40
0
 40
0
 40
0
 40
1
 40
1
 40
1
 40
1
 10
16.903291
 20
11.044139
 30
0.0
 10
16.903291
 20
11.074515
 30
0.0
 10
16.927915
 20
11.099139
 30
0.0
 10
16.958291
 20
11.099139
 30
0.0
  0
SPLINE
  5
1a8
100
AcDbEntity
  8
yacc2buss
 62
7
100
AcDbSpline
 70
8
 71
3
 72
8
 73
4
 74
0
 40
0
 40
0
 40
0
 40
0
 40
1
 40
1
 40
1
 40
1
 10
16.958291
 20
11.099139
 30
0.0
 10
16.988667
 20
11.099139
 30
0.0
 10
17.013291
 20
11.074515
 30
0.0
 10
17.013291
 20
11.044139
 30
0.0
  0
LWPOLYLINE
  5
1a9
100
AcDbEntity
  8
yacc2buss
 62
2
100
AcDbPolyline
 90
1
 70
1
 10
17.013291
 20
11.044139
 30
0.0
  0
SPLINE
  5
1aa
100
AcDbEntity
  8
yacc2buss
 62
2
100
AcDbSpline
 70
8
 71
3
 72
8
 73
4
 74
0
 40
0
 40
0
 40
0
 40
0
 40
1
 40
1
 40
1
 40
1
 10
6.472484
 20
11.026639
 30
0.0
 10
6.472484
 20
10.996264
 30
0.0
 10
6.447860
 20
10.971639
 30
0.0
 10
6.417484
 20
10.971639
 30
0.0
  0
SPLINE
  5
1ab
100
AcDbEntity
  8
yacc2buss
 62
2
100
AcDbSpline
 70
8
 71
3
 72
8
 73
4
 74
0
 40
0
 40
0
 40
0
 40
0
 40
1
 40
1
 40
1
 40
1
 10
6.417484
 20
10.971639
 30
0.0
 10
6.387108
 20
10.971639
 30
0.0
 10
6.362484
 20
10.996264
 30
0.0
 10
6.362484
 20
11.026639
 30
0.0
  0
SPLINE
  5
1ac
100
AcDbEntity
  8
yacc2buss
 62
2
100
AcDbSpline
 70
8
 71
3
 72
8
 73
4
 74
0
 40
0
 40
0
 40
0
 40
0
 40
1
 40
1
 40
1
 40
1
 10
6.362484
 20
11.026639
 30
0.0
 10
6.362484
 20
11.057015
 30
0.0
 10
6.387108
 20
11.081639
 30
0.0
 10
6.417484
 20
11.081639
 30
0.0
  0
SPLINE
  5
1ad
100
AcDbEntity
  8
yacc2buss
 62
2
100
AcDbSpline
 70
8
 71
3
 72
8
 73
4
 74
0
 40
0
 40
0
 40
0
 40
0
 40
1
 40
1
 40
1
 40
1
 10
6.417484
 20
11.081639
 30
0.0
 10
6.447860
 20
11.081639
 30
0.0
 10
6.472484
 20
11.057015
 30
0.0
 10
6.472484
 20
11.026639
 30
0.0
  0
LWPOLYLINE
  5
1ae
100
AcDbEntity
  8
yacc2buss
 62
7
100
AcDbPolyline
 90
1
 70
1
 10
17.013291
 20
11.044139
 30
0.0
  0
SPLINE
  5
1af
100
AcDbEntity
  8
yacc2buss
 62
7
100
AcDbSpline
 70
8
 71
3
 72
8
 73
4
 74
0
 40
0
 40
0
 40
0
 40
0
 40
1
 40
1
 40
1
 40
1
 10
6.472484
 20
11.026639
 30
0.0
 10
6.472484
 20
10.996264
 30
0.0
 10
6.447860
 20
10.971639
 30
0.0
 10
6.417484
 20
10.971639
 30
0.0
  0
SPLINE
  5
1b0
100
AcDbEntity
  8
yacc2buss
 62
7
100
AcDbSpline
 70
8
 71
3
 72
8
 73
4
 74
0
 40
0
 40
0
 40
0
 40
0
 40
1
 40
1
 40
1
 40
1
 10
6.417484
 20
10.971639
 30
0.0
 10
6.387108
 20
10.971639
 30
0.0
 10
6.362484
 20
10.996264
 30
0.0
 10
6.362484
 20
11.026639
 30
0.0
  0
SPLINE
  5
1b1
100
AcDbEntity
  8
yacc2buss
 62
7
100
AcDbSpline
 70
8
 71
3
 72
8
 73
4
 74
0
 40
0
 40
0
 40
0
 40
0
 40
1
 40
1
 40
1
 40
1
 10
6.362484
 20
11.026639
 30
0.0
 10
6.362484
 20
11.057015
 30
0.0
 10
6.387108
 20
11.081639
 30
0.0
 10
6.417484
 20
11.081639
 30
0.0
  0
SPLINE
  5
1b2
100
AcDbEntity
  8
yacc2buss
 62
7
100
AcDbSpline
 70
8
 71
3
 72
8
 73
4
 74
0
 40
0
 40
0
 40
0
 40
0
 40
1
 40
1
 40
1
 40
1
 10
6.417484
 20
11.081639
 30
0.0
 10
6.447860
 20
11.081639
 30
0.0
 10
6.472484
 20
11.057015
 30
0.0
 10
6.472484
 20
11.026639
 30
0.0
  0
LWPOLYLINE
  5
1b3
100
AcDbEntity
  8
yacc2buss
 62
2
100
AcDbPolyline
 90
1
 70
1
 10
6.472484
 20
11.026639
 30
0.0
  0
SPLINE
  5
1b4
100
AcDbEntity
  8
yacc2buss
 62
2
100
AcDbSpline
 70
8
 71
3
 72
8
 73
4
 74
0
 40
0
 40
0
 40
0
 40
0
 40
1
 40
1
 40
1
 40
1
 10
8.978311
 20
13.532466
 30
0.0
 10
8.978311
 20
13.502091
 30
0.0
 10
8.953687
 20
13.477466
 30
0.0
 10
8.923311
 20
13.477466
 30
0.0
  0
SPLINE
  5
1b5
100
AcDbEntity
  8
yacc2buss
 62
2
100
AcDbSpline
 70
8
 71
3
 72
8
 73
4
 74
0
 40
0
 40
0
 40
0
 40
0
 40
1
 40
1
 40
1
 40
1
 10
8.923311
 20
13.477466
 30
0.0
 10
8.892935
 20
13.477466
 30
0.0
 10
8.868311
 20
13.502091
 30
0.0
 10
8.868311
 20
13.532466
 30
0.0
  0
SPLINE
  5
1b6
100
AcDbEntity
  8
yacc2buss
 62
2
100
AcDbSpline
 70
8
 71
3
 72
8
 73
4
 74
0
 40
0
 40
0
 40
0
 40
0
 40
1
 40
1
 40
1
 40
1
 10
8.868311
 20
13.532466
 30
0.0
 10
8.868311
 20
13.562842
 30
0.0
 10
8.892935
 20
13.587466
 30
0.0
 10
8.923311
 20
13.587466
 30
0.0
  0
SPLINE
  5
1b7
100
AcDbEntity
  8
yacc2buss
 62
2
100
AcDbSpline
 70
8
 71
3
 72
8
 73
4
 74
0
 40
0
 40
0
 40
0
 40
0
 40
1
 40
1
 40
1
 40
1
 10
8.923311
 20
13.587466
 30
0.0
 10
8.953687
 20
13.587466
 30
0.0
 10
8.978311
 20
13.562842
 30
0.0
 10
8.978311
 20
13.532466
 30
0.0
  0
LWPOLYLINE
  5
1b8
100
AcDbEntity
  8
yacc2buss
 62
7
100
AcDbPolyline
 90
1
 70
1
 10
6.472484
 20
11.026639
 30
0.0
  0
SPLINE
  5
1b9
100
AcDbEntity
  8
yacc2buss
 62
7
100
AcDbSpline
 70
8
 71
3
 72
8
 73
4
 74
0
 40
0
 40
0
 40
0
 40
0
 40
1
 40
1
 40
1
 40
1
 10
8.978311
 20
13.532466
 30
0.0
 10
8.978311
 20
13.502091
 30
0.0
 10
8.953687
 20
13.477466
 30
0.0
 10
8.923311
 20
13.477466
 30
0.0
  0
SPLINE
  5
1ba
100
AcDbEntity
  8
yacc2buss
 62
7
100
AcDbSpline
 70
8
 71
3
 72
8
 73
4
 74
0
 40
0
 40
0
 40
0
 40
0
 40
1
 40
1
 40
1
 40
1
 10
8.923311
 20
13.477466
 30
0.0
 10
8.892935
 20
13.477466
 30
0.0
 10
8.868311
 20
13.502091
 30
0.0
 10
8.868311
 20
13.532466
 30
0.0
  0
SPLINE
  5
1bb
100
AcDbEntity
  8
yacc2buss
 62
7
100
AcDbSpline
 70
8
 71
3
 72
8
 73
4
 74
0
 40
0
 40
0
 40
0
 40
0
 40
1
 40
1
 40
1
 40
1
 10
8.868311
 20
13.532466
 30
0.0
 10
8.868311
 20
13.562842
 30
0.0
 10
8.892935
 20
13.587466
 30
0.0
 10
8.923311
 20
13.587466
 30
0.0
  0
SPLINE
  5
1bc
100
AcDbEntity
  8
yacc2buss
 62
7
100
AcDbSpline
 70
8
 71
3
 72
8
 73
4
 74
0
 40
0
 40
0
 40
0
 40
0
 40
1
 40
1
 40
1
 40
1
 10
8.923311
 20
13.587466
 30
0.0
 10
8.953687
 20
13.587466
 30
0.0
 10
8.978311
 20
13.562842
 30
0.0
 10
8.978311
 20
13.532466
 30
0.0
  0
LWPOLYLINE
  5
1bd
100
AcDbEntity
  8
yacc2buss
 62
2
100
AcDbPolyline
 90
1
 70
1
 10
8.978311
 20
13.532466
 30
0.0
  0
SPLINE
  5
1be
100
AcDbEntity
  8
yacc2buss
 62
2
100
AcDbSpline
 70
8
 71
3
 72
8
 73
4
 74
0
 40
0
 40
0
 40
0
 40
0
 40
1
 40
1
 40
1
 40
1
 10
17.004124
 20
5.514986
 30
0.0
 10
17.004124
 20
5.484610
 30
0.0
 10
16.979500
 20
5.459986
 30
0.0
 10
16.949124
 20
5.459986
 30
0.0
  0
SPLINE
  5
1bf
100
AcDbEntity
  8
yacc2buss
 62
2
100
AcDbSpline
 70
8
 71
3
 72
8
 73
4
 74
0
 40
0
 40
0
 40
0
 40
0
 40
1
 40
1
 40
1
 40
1
 10
16.949124
 20
5.459986
 30
0.0
 10
16.918749
 20
5.459986
 30
0.0
 10
16.894124
 20
5.484610
 30
0.0
 10
16.894124
 20
5.514986
 30
0.0
  0
SPLINE
  5
1c0
100
AcDbEntity
  8
yacc2buss
 62
2
100
AcDbSpline
 70
8
 71
3
 72
8
 73
4
 74
0
 40
0
 40
0
 40
0
 40
0
 40
1
 40
1
 40
1
 40
1
 10
16.894124
 20
5.514986
 30
0.0
 10
16.894124
 20
5.545362
 30
0.0
 10
16.918749
 20
5.569986
 30
0.0
 10
16.949124
 20
5.569986
 30
0.0
  0
SPLINE
  5
1c1
100
AcDbEntity
  8
yacc2buss
 62
2
100
AcDbSpline
 70
8
 71
3
 72
8
 73
4
 74
0
 40
0
 40
0
 40
0
 40
0
 40
1
 40
1
 40
1
 40
1
 10
16.949124
 20
5.569986
 30
0.0
 10
16.979500
 20
5.569986
 30
0.0
 10
17.004124
 20
5.545362
 30
0.0
 10
17.004124
 20
5.514986
 30
0.0
  0
LWPOLYLINE
  5
1c2
100
AcDbEntity
  8
yacc2buss
 62
7
100
AcDbPolyline
 90
1
 70
1
 10
8.978311
 20
13.532466
 30
0.0
  0
SPLINE
  5
1c3
100
AcDbEntity
  8
yacc2buss
 62
7
100
AcDbSpline
 70
8
 71
3
 72
8
 73
4
 74
0
 40
0
 40
0
 40
0
 40
0
 40
1
 40
1
 40
1
 40
1
 10
17.004124
 20
5.514986
 30
0.0
 10
17.004124
 20
5.484610
 30
0.0
 10
16.979500
 20
5.459986
 30
0.0
 10
16.949124
 20
5.459986
 30
0.0
  0
SPLINE
  5
1c4
100
AcDbEntity
  8
yacc2buss
 62
7
100
AcDbSpline
 70
8
 71
3
 72
8
 73
4
 74
0
 40
0
 40
0
 40
0
 40
0
 40
1
 40
1
 40
1
 40
1
 10
16.949124
 20
5.459986
 30
0.0
 10
16.918749
 20
5.459986
 30
0.0
 10
16.894124
 20
5.484610
 30
0.0
 10
16.894124
 20
5.514986
 30
0.0
  0
SPLINE
  5
1c5
100
AcDbEntity
  8
yacc2buss
 62
7
100
AcDbSpline
 70
8
 71
3
 72
8
 73
4
 74
0
 40
0
 40
0
 40
0
 40
0
 40
1
 40
1
 40
1
 40
1
 10
16.894124
 20
5.514986
 30
0.0
 10
16.894124
 20
5.545362
 30
0.0
 10
16.918749
 20
5.569986
 30
0.0
 10
16.949124
 20
5.569986
 30
0.0
  0
SPLINE
  5
1c6
100
AcDbEntity
  8
yacc2buss
 62
7
100
AcDbSpline
 70
8
 71
3
 72
8
 73
4
 74
0
 40
0
 40
0
 40
0
 40
0
 40
1
 40
1
 40
1
 40
1
 10
16.949124
 20
5.569986
 30
0.0
 10
16.979500
 20
5.569986
 30
0.0
 10
17.004124
 20
5.545362
 30
0.0
 10
17.004124
 20
5.514986
 30
0.0
  0
LWPOLYLINE
  5
1c7
100
AcDbEntity
  8
yacc2buss
 62
2
100
AcDbPolyline
 90
1
 70
1
 10
17.004124
 20
5.514986
 30
0.0
  0
SPLINE
  5
1c8
100
AcDbEntity
  8
yacc2buss
 62
2
100
AcDbSpline
 70
8
 71
3
 72
8
 73
4
 74
0
 40
0
 40
0
 40
0
 40
0
 40
1
 40
1
 40
1
 40
1
 10
14.498297
 20
3.009992
 30
0.0
 10
14.498297
 20
2.979617
 30
0.0
 10
14.473673
 20
2.954993
 30
0.0
 10
14.443297
 20
2.954993
 30
0.0
  0
SPLINE
  5
1c9
100
AcDbEntity
  8
yacc2buss
 62
2
100
AcDbSpline
 70
8
 71
3
 72
8
 73
4
 74
0
 40
0
 40
0
 40
0
 40
0
 40
1
 40
1
 40
1
 40
1
 10
14.443297
 20
2.954993
 30
0.0
 10
14.412921
 20
2.954993
 30
0.0
 10
14.388297
 20
2.979617
 30
0.0
 10
14.388297
 20
3.009992
 30
0.0
  0
SPLINE
  5
1ca
100
AcDbEntity
  8
yacc2buss
 62
2
100
AcDbSpline
 70
8
 71
3
 72
8
 73
4
 74
0
 40
0
 40
0
 40
0
 40
0
 40
1
 40
1
 40
1
 40
1
 10
14.388297
 20
3.009992
 30
0.0
 10
14.388297
 20
3.040368
 30
0.0
 10
14.412921
 20
3.064992
 30
0.0
 10
14.443297
 20
3.064992
 30
0.0
  0
SPLINE
  5
1cb
100
AcDbEntity
  8
yacc2buss
 62
2
100
AcDbSpline
 70
8
 71
3
 72
8
 73
4
 74
0
 40
0
 40
0
 40
0
 40
0
 40
1
 40
1
 40
1
 40
1
 10
14.443297
 20
3.064992
 30
0.0
 10
14.473673
 20
3.064992
 30
0.0
 10
14.498297
 20
3.040368
 30
0.0
 10
14.498297
 20
3.009992
 30
0.0
  0
LWPOLYLINE
  5
1cc
100
AcDbEntity
  8
yacc2buss
 62
7
100
AcDbPolyline
 90
1
 70
1
 10
17.004124
 20
5.514986
 30
0.0
  0
SPLINE
  5
1cd
100
AcDbEntity
  8
yacc2buss
 62
7
100
AcDbSpline
 70
8
 71
3
 72
8
 73
4
 74
0
 40
0
 40
0
 40
0
 40
0
 40
1
 40
1
 40
1
 40
1
 10
14.498297
 20
3.009992
 30
0.0
 10
14.498297
 20
2.979617
 30
0.0
 10
14.473673
 20
2.954993
 30
0.0
 10
14.443297
 20
2.954993
 30
0.0
  0
SPLINE
  5
1ce
100
AcDbEntity
  8
yacc2buss
 62
7
100
AcDbSpline
 70
8
 71
3
 72
8
 73
4
 74
0
 40
0
 40
0
 40
0
 40
0
 40
1
 40
1
 40
1
 40
1
 10
14.443297
 20
2.954993
 30
0.0
 10
14.412921
 20
2.954993
 30
0.0
 10
14.388297
 20
2.979617
 30
0.0
 10
14.388297
 20
3.009992
 30
0.0
  0
SPLINE
  5
1cf
100
AcDbEntity
  8
yacc2buss
 62
7
100
AcDbSpline
 70
8
 71
3
 72
8
 73
4
 74
0
 40
0
 40
0
 40
0
 40
0
 40
1
 40
1
 40
1
 40
1
 10
14.388297
 20
3.009992
 30
0.0
 10
14.388297
 20
3.040368
 30
0.0
 10
14.412921
 20
3.064992
 30
0.0
 10
14.443297
 20
3.064992
 30
0.0
  0
SPLINE
  5
1d0
100
AcDbEntity
  8
yacc2buss
 62
7
100
AcDbSpline
 70
8
 71
3
 72
8
 73
4
 74
0
 40
0
 40
0
 40
0
 40
0
 40
1
 40
1
 40
1
 40
1
 10
14.443297
 20
3.064992
 30
0.0
 10
14.473673
 20
3.064992
 30
0.0
 10
14.498297
 20
3.040368
 30
0.0
 10
14.498297
 20
3.009992
 30
0.0
  0
LWPOLYLINE
  5
1d1
100
AcDbEntity
  8
yacc2buss
 62
2
100
AcDbPolyline
 90
1
 70
1
 10
14.498297
 20
3.009992
 30
0.0
  0
SPLINE
  5
1d2
100
AcDbEntity
  8
yacc2buss
 62
2
100
AcDbSpline
 70
8
 71
3
 72
8
 73
4
 74
0
 40
0
 40
0
 40
0
 40
0
 40
1
 40
1
 40
1
 40
1
 10
8.969978
 20
2.989993
 30
0.0
 10
8.969978
 20
2.959617
 30
0.0
 10
8.945353
 20
2.934993
 30
0.0
 10
8.914978
 20
2.934993
 30
0.0
  0
SPLINE
  5
1d3
100
AcDbEntity
  8
yacc2buss
 62
2
100
AcDbSpline
 70
8
 71
3
 72
8
 73
4
 74
0
 40
0
 40
0
 40
0
 40
0
 40
1
 40
1
 40
1
 40
1
 10
8.914978
 20
2.934993
 30
0.0
 10
8.884602
 20
2.934993
 30
0.0
 10
8.859978
 20
2.959617
 30
0.0
 10
8.859978
 20
2.989993
 30
0.0
  0
SPLINE
  5
1d4
100
AcDbEntity
  8
yacc2buss
 62
2
100
AcDbSpline
 70
8
 71
3
 72
8
 73
4
 74
0
 40
0
 40
0
 40
0
 40
0
 40
1
 40
1
 40
1
 40
1
 10
8.859978
 20
2.989993
 30
0.0
 10
8.859978
 20
3.020368
 30
0.0
 10
8.884602
 20
3.044992
 30
0.0
 10
8.914978
 20
3.044992
 30
0.0
  0
SPLINE
  5
1d5
100
AcDbEntity
  8
yacc2buss
 62
2
100
AcDbSpline
 70
8
 71
3
 72
8
 73
4
 74
0
 40
0
 40
0
 40
0
 40
0
 40
1
 40
1
 40
1
 40
1
 10
8.914978
 20
3.044992
 30
0.0
 10
8.945353
 20
3.044992
 30
0.0
 10
8.969978
 20
3.020368
 30
0.0
 10
8.969978
 20
2.989993
 30
0.0
  0
LWPOLYLINE
  5
1d6
100
AcDbEntity
  8
yacc2buss
 62
7
100
AcDbPolyline
 90
1
 70
1
 10
14.498297
 20
3.009992
 30
0.0
  0
SPLINE
  5
1d7
100
AcDbEntity
  8
yacc2buss
 62
7
100
AcDbSpline
 70
8
 71
3
 72
8
 73
4
 74
0
 40
0
 40
0
 40
0
 40
0
 40
1
 40
1
 40
1
 40
1
 10
8.969978
 20
2.989993
 30
0.0
 10
8.969978
 20
2.959617
 30
0.0
 10
8.945353
 20
2.934993
 30
0.0
 10
8.914978
 20
2.934993
 30
0.0
  0
SPLINE
  5
1d8
100
AcDbEntity
  8
yacc2buss
 62
7
100
AcDbSpline
 70
8
 71
3
 72
8
 73
4
 74
0
 40
0
 40
0
 40
0
 40
0
 40
1
 40
1
 40
1
 40
1
 10
8.914978
 20
2.934993
 30
0.0
 10
8.884602
 20
2.934993
 30
0.0
 10
8.859978
 20
2.959617
 30
0.0
 10
8.859978
 20
2.989993
 30
0.0
  0
SPLINE
  5
1d9
100
AcDbEntity
  8
yacc2buss
 62
7
100
AcDbSpline
 70
8
 71
3
 72
8
 73
4
 74
0
 40
0
 40
0
 40
0
 40
0
 40
1
 40
1
 40
1
 40
1
 10
8.859978
 20
2.989993
 30
0.0
 10
8.859978
 20
3.020368
 30
0.0
 10
8.884602
 20
3.044992
 30
0.0
 10
8.914978
 20
3.044992
 30
0.0
  0
SPLINE
  5
1da
100
AcDbEntity
  8
yacc2buss
 62
7
100
AcDbSpline
 70
8
 71
3
 72
8
 73
4
 74
0
 40
0
 40
0
 40
0
 40
0
 40
1
 40
1
 40
1
 40
1
 10
8.914978
 20
3.044992
 30
0.0
 10
8.945353
 20
3.044992
 30
0.0
 10
8.969978
 20
3.020368
 30
0.0
 10
8.969978
 20
2.989993
 30
0.0
  0
LWPOLYLINE
  5
1db
100
AcDbEntity
  8
yacc2buss
 62
2
100
AcDbPolyline
 90
1
 70
1
 10
8.969978
 20
2.989993
 30
0.0
  0
SPLINE
  5
1dc
100
AcDbEntity
  8
yacc2buss
 62
2
100
AcDbSpline
 70
8
 71
3
 72
8
 73
4
 74
0
 40
0
 40
0
 40
0
 40
0
 40
1
 40
1
 40
1
 40
1
 10
6.464151
 20
5.495820
 30
0.0
 10
6.464151
 20
5.465444
 30
0.0
 10
6.439526
 20
5.440820
 30
0.0
 10
6.409151
 20
5.440820
 30
0.0
  0
SPLINE
  5
1dd
100
AcDbEntity
  8
yacc2buss
 62
2
100
AcDbSpline
 70
8
 71
3
 72
8
 73
4
 74
0
 40
0
 40
0
 40
0
 40
0
 40
1
 40
1
 40
1
 40
1
 10
6.409151
 20
5.440820
 30
0.0
 10
6.378775
 20
5.440820
 30
0.0
 10
6.354151
 20
5.465444
 30
0.0
 10
6.354151
 20
5.495820
 30
0.0
  0
SPLINE
  5
1de
100
AcDbEntity
  8
yacc2buss
 62
2
100
AcDbSpline
 70
8
 71
3
 72
8
 73
4
 74
0
 40
0
 40
0
 40
0
 40
0
 40
1
 40
1
 40
1
 40
1
 10
6.354151
 20
5.495820
 30
0.0
 10
6.354151
 20
5.526195
 30
0.0
 10
6.378775
 20
5.550819
 30
0.0
 10
6.409151
 20
5.550819
 30
0.0
  0
SPLINE
  5
1df
100
AcDbEntity
  8
yacc2buss
 62
2
100
AcDbSpline
 70
8
 71
3
 72
8
 73
4
 74
0
 40
0
 40
0
 40
0
 40
0
 40
1
 40
1
 40
1
 40
1
 10
6.409151
 20
5.550819
 30
0.0
 10
6.439526
 20
5.550819
 30
0.0
 10
6.464151
 20
5.526195
 30
0.0
 10
6.464151
 20
5.495820
 30
0.0
  0
LWPOLYLINE
  5
1e0
100
AcDbEntity
  8
yacc2buss
 62
7
100
AcDbPolyline
 90
1
 70
1
 10
8.969978
 20
2.989993
 30
0.0
  0
SPLINE
  5
1e1
100
AcDbEntity
  8
yacc2buss
 62
7
100
AcDbSpline
 70
8
 71
3
 72
8
 73
4
 74
0
 40
0
 40
0
 40
0
 40
0
 40
1
 40
1
 40
1
 40
1
 10
6.464151
 20
5.495820
 30
0.0
 10
6.464151
 20
5.465444
 30
0.0
 10
6.439526
 20
5.440820
 30
0.0
 10
6.409151
 20
5.440820
 30
0.0
  0
SPLINE
  5
1e2
100
AcDbEntity
  8
yacc2buss
 62
7
100
AcDbSpline
 70
8
 71
3
 72
8
 73
4
 74
0
 40
0
 40
0
 40
0
 40
0
 40
1
 40
1
 40
1
 40
1
 10
6.409151
 20
5.440820
 30
0.0
 10
6.378775
 20
5.440820
 30
0.0
 10
6.354151
 20
5.465444
 30
0.0
 10
6.354151
 20
5.495820
 30
0.0
  0
SPLINE
  5
1e3
100
AcDbEntity
  8
yacc2buss
 62
7
100
AcDbSpline
 70
8
 71
3
 72
8
 73
4
 74
0
 40
0
 40
0
 40
0
 40
0
 40
1
 40
1
 40
1
 40
1
 10
6.354151
 20
5.495820
 30
0.0
 10
6.354151
 20
5.526195
 30
0.0
 10
6.378775
 20
5.550819
 30
0.0
 10
6.409151
 20
5.550819
 30
0.0
  0
SPLINE
  5
1e4
100
AcDbEntity
  8
yacc2buss
 62
7
100
AcDbSpline
 70
8
 71
3
 72
8
 73
4
 74
0
 40
0
 40
0
 40
0
 40
0
 40
1
 40
1
 40
1
 40
1
 10
6.409151
 20
5.550819
 30
0.0
 10
6.439526
 20
5.550819
 30
0.0
 10
6.464151
 20
5.526195
 30
0.0
 10
6.464151
 20
5.495820
 30
0.0
  0
LWPOLYLINE
  5
1e5
100
AcDbEntity
  8
yacc2buss
 62
2
100
AcDbPolyline
 90
1
 70
1
 10
6.464151
 20
5.495820
 30
0.0
  0
SPLINE
  5
1e6
100
AcDbEntity
  8
yacc2buss
 62
2
100
AcDbSpline
 70
8
 71
3
 72
8
 73
4
 74
0
 40
0
 40
0
 40
0
 40
0
 40
1
 40
1
 40
1
 40
1
 10
17.436623
 20
10.043308
 30
0.0
 10
17.436623
 20
10.012933
 30
0.0
 10
17.411999
 20
9.988308
 30
0.0
 10
17.381623
 20
9.988308
 30
0.0
  0
SPLINE
  5
1e7
100
AcDbEntity
  8
yacc2buss
 62
2
100
AcDbSpline
 70
8
 71
3
 72
8
 73
4
 74
0
 40
0
 40
0
 40
0
 40
0
 40
1
 40
1
 40
1
 40
1
 10
17.381623
 20
9.988308
 30
0.0
 10
17.351247
 20
9.988308
 30
0.0
 10
17.326623
 20
10.012933
 30
0.0
 10
17.326623
 20
10.043308
 30
0.0
  0
SPLINE
  5
1e8
100
AcDbEntity
  8
yacc2buss
 62
2
100
AcDbSpline
 70
8
 71
3
 72
8
 73
4
 74
0
 40
0
 40
0
 40
0
 40
0
 40
1
 40
1
 40
1
 40
1
 10
17.326623
 20
10.043308
 30
0.0
 10
17.326623
 20
10.073684
 30
0.0
 10
17.351247
 20
10.098308
 30
0.0
 10
17.381623
 20
10.098308
 30
0.0
  0
SPLINE
  5
1e9
100
AcDbEntity
  8
yacc2buss
 62
2
100
AcDbSpline
 70
8
 71
3
 72
8
 73
4
 74
0
 40
0
 40
0
 40
0
 40
0
 40
1
 40
1
 40
1
 40
1
 10
17.381623
 20
10.098308
 30
0.0
 10
17.411999
 20
10.098308
 30
0.0
 10
17.436623
 20
10.073684
 30
0.0
 10
17.436623
 20
10.043308
 30
0.0
  0
LWPOLYLINE
  5
1ea
100
AcDbEntity
  8
yacc2buss
 62
7
100
AcDbPolyline
 90
1
 70
1
 10
6.464151
 20
5.495820
 30
0.0
  0
SPLINE
  5
1eb
100
AcDbEntity
  8
yacc2buss
 62
7
100
AcDbSpline
 70
8
 71
3
 72
8
 73
4
 74
0
 40
0
 40
0
 40
0
 40
0
 40
1
 40
1
 40
1
 40
1
 10
17.436623
 20
10.043308
 30
0.0
 10
17.436623
 20
10.012933
 30
0.0
 10
17.411999
 20
9.988308
 30
0.0
 10
17.381623
 20
9.988308
 30
0.0
  0
SPLINE
  5
1ec
100
AcDbEntity
  8
yacc2buss
 62
7
100
AcDbSpline
 70
8
 71
3
 72
8
 73
4
 74
0
 40
0
 40
0
 40
0
 40
0
 40
1
 40
1
 40
1
 40
1
 10
17.381623
 20
9.988308
 30
0.0
 10
17.351247
 20
9.988308
 30
0.0
 10
17.326623
 20
10.012933
 30
0.0
 10
17.326623
 20
10.043308
 30
0.0
  0
SPLINE
  5
1ed
100
AcDbEntity
  8
yacc2buss
 62
7
100
AcDbSpline
 70
8
 71
3
 72
8
 73
4
 74
0
 40
0
 40
0
 40
0
 40
0
 40
1
 40
1
 40
1
 40
1
 10
17.326623
 20
10.043308
 30
0.0
 10
17.326623
 20
10.073684
 30
0.0
 10
17.351247
 20
10.098308
 30
0.0
 10
17.381623
 20
10.098308
 30
0.0
  0
SPLINE
  5
1ee
100
AcDbEntity
  8
yacc2buss
 62
7
100
AcDbSpline
 70
8
 71
3
 72
8
 73
4
 74
0
 40
0
 40
0
 40
0
 40
0
 40
1
 40
1
 40
1
 40
1
 10
17.381623
 20
10.098308
 30
0.0
 10
17.411999
 20
10.098308
 30
0.0
 10
17.436623
 20
10.073684
 30
0.0
 10
17.436623
 20
10.043308
 30
0.0
  0
LWPOLYLINE
  5
1ef
100
AcDbEntity
  8
yacc2buss
 62
2
100
AcDbPolyline
 90
1
 70
1
 10
17.436623
 20
10.043308
 30
0.0
  0
SPLINE
  5
1f0
100
AcDbEntity
  8
yacc2buss
 62
2
100
AcDbSpline
 70
8
 71
3
 72
8
 73
4
 74
0
 40
0
 40
0
 40
0
 40
0
 40
1
 40
1
 40
1
 40
1
 10
17.436623
 20
6.499984
 30
0.0
 10
17.436623
 20
6.469608
 30
0.0
 10
17.411999
 20
6.444984
 30
0.0
 10
17.381623
 20
6.444984
 30
0.0
  0
SPLINE
  5
1f1
100
AcDbEntity
  8
yacc2buss
 62
2
100
AcDbSpline
 70
8
 71
3
 72
8
 73
4
 74
0
 40
0
 40
0
 40
0
 40
0
 40
1
 40
1
 40
1
 40
1
 10
17.381623
 20
6.444984
 30
0.0
 10
17.351247
 20
6.444984
 30
0.0
 10
17.326623
 20
6.469608
 30
0.0
 10
17.326623
 20
6.499984
 30
0.0
  0
SPLINE
  5
1f2
100
AcDbEntity
  8
yacc2buss
 62
2
100
AcDbSpline
 70
8
 71
3
 72
8
 73
4
 74
0
 40
0
 40
0
 40
0
 40
0
 40
1
 40
1
 40
1
 40
1
 10
17.326623
 20
6.499984
 30
0.0
 10
17.326623
 20
6.530360
 30
0.0
 10
17.351247
 20
6.554984
 30
0.0
 10
17.381623
 20
6.554984
 30
0.0
  0
SPLINE
  5
1f3
100
AcDbEntity
  8
yacc2buss
 62
2
100
AcDbSpline
 70
8
 71
3
 72
8
 73
4
 74
0
 40
0
 40
0
 40
0
 40
0
 40
1
 40
1
 40
1
 40
1
 10
17.381623
 20
6.554984
 30
0.0
 10
17.411999
 20
6.554984
 30
0.0
 10
17.436623
 20
6.530360
 30
0.0
 10
17.436623
 20
6.499984
 30
0.0
  0
LWPOLYLINE
  5
1f4
100
AcDbEntity
  8
yacc2buss
 62
7
100
AcDbPolyline
 90
1
 70
1
 10
17.436623
 20
10.043308
 30
0.0
  0
SPLINE
  5
1f5
100
AcDbEntity
  8
yacc2buss
 62
7
100
AcDbSpline
 70
8
 71
3
 72
8
 73
4
 74
0
 40
0
 40
0
 40
0
 40
0
 40
1
 40
1
 40
1
 40
1
 10
17.436623
 20
6.499984
 30
0.0
 10
17.436623
 20
6.469608
 30
0.0
 10
17.411999
 20
6.444984
 30
0.0
 10
17.381623
 20
6.444984
 30
0.0
  0
SPLINE
  5
1f6
100
AcDbEntity
  8
yacc2buss
 62
7
100
AcDbSpline
 70
8
 71
3
 72
8
 73
4
 74
0
 40
0
 40
0
 40
0
 40
0
 40
1
 40
1
 40
1
 40
1
 10
17.381623
 20
6.444984
 30
0.0
 10
17.351247
 20
6.444984
 30
0.0
 10
17.326623
 20
6.469608
 30
0.0
 10
17.326623
 20
6.499984
 30
0.0
  0
SPLINE
  5
1f7
100
AcDbEntity
  8
yacc2buss
 62
7
100
AcDbSpline
 70
8
 71
3
 72
8
 73
4
 74
0
 40
0
 40
0
 40
0
 40
0
 40
1
 40
1
 40
1
 40
1
 10
17.326623
 20
6.499984
 30
0.0
 10
17.326623
 20
6.530360
 30
0.0
 10
17.351247
 20
6.554984
 30
0.0
 10
17.381623
 20
6.554984
 30
0.0
  0
SPLINE
  5
1f8
100
AcDbEntity
  8
yacc2buss
 62
7
100
AcDbSpline
 70
8
 71
3
 72
8
 73
4
 74
0
 40
0
 40
0
 40
0
 40
0
 40
1
 40
1
 40
1
 40
1
 10
17.381623
 20
6.554984
 30
0.0
 10
17.411999
 20
6.554984
 30
0.0
 10
17.436623
 20
6.530360
 30
0.0
 10
17.436623
 20
6.499984
 30
0.0
  0
LWPOLYLINE
  5
1f9
100
AcDbEntity
  8
yacc2buss
 62
2
100
AcDbPolyline
 90
1
 70
1
 10
17.436623
 20
6.499984
 30
0.0
  0
LWPOLYLINE
  5
1fa
100
AcDbEntity
  8
yacc2buss
 62
7
100
AcDbPolyline
 90
1
 70
1
 10
17.436623
 20
6.499984
 30
0.0
  0
LWPOLYLINE
  5
1fb
100
AcDbEntity
  8
yacc2buss
 62
1
100
AcDbPolyline
 90
2
 70
0
 10
11.654138
 20
8.231646
 30
0.0
 10
11.734137
 20
8.311646
 30
0.0
  0
LWPOLYLINE
  5
1fc
100
AcDbEntity
  8
yacc2buss
 62
1
100
AcDbPolyline
 90
2
 70
0
 10
11.734137
 20
8.231646
 30
0.0
 10
11.654138
 20
8.311646
 30
0.0
  0
SPLINE
  5
1fd
100
AcDbEntity
  8
yacc2buss
 62
1
100
AcDbSpline
 70
8
 71
3
 72
8
 73
4
 74
0
 40
0
 40
0
 40
0
 40
0
 40
1
 40
1
 40
1
 40
1
 10
9.333310
 20
13.970798
 30
0.0
 10
9.333310
 20
13.949167
 30
0.0
 10
9.315774
 20
13.931632
 30
0.0
 10
9.294143
 20
13.931632
 30
0.0
  0
SPLINE
  5
1fe
100
AcDbEntity
  8
yacc2buss
 62
1
100
AcDbSpline
 70
8
 71
3
 72
8
 73
4
 74
0
 40
0
 40
0
 40
0
 40
0
 40
1
 40
1
 40
1
 40
1
 10
9.294143
 20
13.931632
 30
0.0
 10
9.272513
 20
13.931632
 30
0.0
 10
9.254977
 20
13.949167
 30
0.0
 10
9.254977
 20
13.970798
 30
0.0
  0
SPLINE
  5
1ff
100
AcDbEntity
  8
yacc2buss
 62
1
100
AcDbSpline
 70
8
 71
3
 72
8
 73
4
 74
0
 40
0
 40
0
 40
0
 40
0
 40
1
 40
1
 40
1
 40
1
 10
9.254977
 20
13.970798
 30
0.0
 10
9.254977
 20
13.992430
 30
0.0
 10
9.272513
 20
14.009965
 30
0.0
 10
9.294143
 20
14.009965
 30
0.0
  0
SPLINE
  5
200
100
AcDbEntity
  8
yacc2buss
 62
1
100
AcDbSpline
 70
8
 71
3
 72
8
 73
4
 74
0
 40
0
 40
0
 40
0
 40
0
 40
1
 40
1
 40
1
 40
1
 10
9.294143
 20
14.009965
 30
0.0
 10
9.315774
 20
14.009965
 30
0.0
 10
9.333310
 20
13.992430
 30
0.0
 10
9.333310
 20
13.970798
 30
0.0
  0
LWPOLYLINE
  5
201
100
AcDbEntity
  8
yacc2buss
 62
1
100
AcDbPolyline
 90
2
 70
0
 10
11.654138
 20
8.271646
 30
0.0
 10
11.734137
 20
8.271646
 30
0.0
  0
LWPOLYLINE
  5
202
100
AcDbEntity
  8
yacc2buss
 62
1
100
AcDbPolyline
 90
1
 70
1
 10
9.333310
 20
13.970798
 30
0.0
  0
SPLINE
  5
203
100
AcDbEntity
  8
yacc2buss
 62
1
100
AcDbSpline
 70
8
 71
3
 72
8
 73
4
 74
0
 40
0
 40
0
 40
0
 40
0
 40
1
 40
1
 40
1
 40
1
 10
14.133298
 20
13.970798
 30
0.0
 10
14.133298
 20
13.949167
 30
0.0
 10
14.115762
 20
13.931632
 30
0.0
 10
14.094131
 20
13.931632
 30
0.0
  0
SPLINE
  5
204
100
AcDbEntity
  8
yacc2buss
 62
1
100
AcDbSpline
 70
8
 71
3
 72
8
 73
4
 74
0
 40
0
 40
0
 40
0
 40
0
 40
1
 40
1
 40
1
 40
1
 10
14.094131
 20
13.931632
 30
0.0
 10
14.072501
 20
13.931632
 30
0.0
 10
14.054965
 20
13.949167
 30
0.0
 10
14.054965
 20
13.970798
 30
0.0
  0
SPLINE
  5
205
100
AcDbEntity
  8
yacc2buss
 62
1
100
AcDbSpline
 70
8
 71
3
 72
8
 73
4
 74
0
 40
0
 40
0
 40
0
 40
0
 40
1
 40
1
 40
1
 40
1
 10
14.054965
 20
13.970798
 30
0.0
 10
14.054965
 20
13.992430
 30
0.0
 10
14.072501
 20
14.009965
 30
0.0
 10
14.094131
 20
14.009965
 30
0.0
  0
SPLINE
  5
206
100
AcDbEntity
  8
yacc2buss
 62
1
100
AcDbSpline
 70
8
 71
3
 72
8
 73
4
 74
0
 40
0
 40
0
 40
0
 40
0
 40
1
 40
1
 40
1
 40
1
 10
14.094131
 20
14.009965
 30
0.0
 10
14.115762
 20
14.009965
 30
0.0
 10
14.133298
 20
13.992430
 30
0.0
 10
14.133298
 20
13.970798
 30
0.0
  0
LWPOLYLINE
  5
207
100
AcDbEntity
  8
yacc2buss
 62
1
100
AcDbPolyline
 90
2
 70
0
 10
9.254144
 20
13.930799
 30
0.0
 10
9.334143
 20
14.010798
 30
0.0
  0
LWPOLYLINE
  5
208
100
AcDbEntity
  8
yacc2buss
 62
1
100
AcDbPolyline
 90
1
 70
1
 10
14.133298
 20
13.970798
 30
0.0
  0
SPLINE
  5
209
100
AcDbEntity
  8
yacc2buss
 62
1
100
AcDbSpline
 70
8
 71
3
 72
8
 73
4
 74
0
 40
0
 40
0
 40
0
 40
0
 40
1
 40
1
 40
1
 40
1
 10
17.432456
 20
10.671640
 30
0.0
 10
17.432456
 20
10.650009
 30
0.0
 10
17.414921
 20
10.632473
 30
0.0
 10
17.393290
 20
10.632473
 30
0.0
  0
SPLINE
  5
20a
100
AcDbEntity
  8
yacc2buss
 62
1
100
AcDbSpline
 70
8
 71
3
 72
8
 73
4
 74
0
 40
0
 40
0
 40
0
 40
0
 40
1
 40
1
 40
1
 40
1
 10
17.393290
 20
10.632473
 30
0.0
 10
17.371659
 20
10.632473
 30
0.0
 10
17.354123
 20
10.650009
 30
0.0
 10
17.354123
 20
10.671640
 30
0.0
  0
SPLINE
  5
20b
100
AcDbEntity
  8
yacc2buss
 62
1
100
AcDbSpline
 70
8
 71
3
 72
8
 73
4
 74
0
 40
0
 40
0
 40
0
 40
0
 40
1
 40
1
 40
1
 40
1
 10
17.354123
 20
10.671640
 30
0.0
 10
17.354123
 20
10.693271
 30
0.0
 10
17.371659
 20
10.710807
 30
0.0
 10
17.393290
 20
10.710807
 30
0.0
  0
SPLINE
  5
20c
100
AcDbEntity
  8
yacc2buss
 62
1
100
AcDbSpline
 70
8
 71
3
 72
8
 73
4
 74
0
 40
0
 40
0
 40
0
 40
0
 40
1
 40
1
 40
1
 40
1
 10
17.393290
 20
10.710807
 30
0.0
 10
17.414921
 20
10.710807
 30
0.0
 10
17.432456
 20
10.693271
 30
0.0
 10
17.432456
 20
10.671640
 30
0.0
  0
LWPOLYLINE
  5
20d
100
AcDbEntity
  8
yacc2buss
 62
1
100
AcDbPolyline
 90
2
 70
0
 10
14.054132
 20
13.930799
 30
0.0
 10
14.134131
 20
14.010798
 30
0.0
  0
LWPOLYLINE
  5
20e
100
AcDbEntity
  8
yacc2buss
 62
1
100
AcDbPolyline
 90
1
 70
1
 10
17.432456
 20
10.671640
 30
0.0
  0
SPLINE
  5
20f
100
AcDbEntity
  8
yacc2buss
 62
1
100
AcDbSpline
 70
8
 71
3
 72
8
 73
4
 74
0
 40
0
 40
0
 40
0
 40
0
 40
1
 40
1
 40
1
 40
1
 10
17.432456
 20
5.871652
 30
0.0
 10
17.432456
 20
5.850021
 30
0.0
 10
17.414921
 20
5.832485
 30
0.0
 10
17.393290
 20
5.832485
 30
0.0
  0
SPLINE
  5
210
100
AcDbEntity
  8
yacc2buss
 62
1
100
AcDbSpline
 70
8
 71
3
 72
8
 73
4
 74
0
 40
0
 40
0
 40
0
 40
0
 40
1
 40
1
 40
1
 40
1
 10
17.393290
 20
5.832485
 30
0.0
 10
17.371659
 20
5.832485
 30
0.0
 10
17.354123
 20
5.850021
 30
0.0
 10
17.354123
 20
5.871652
 30
0.0
  0
SPLINE
  5
211
100
AcDbEntity
  8
yacc2buss
 62
1
100
AcDbSpline
 70
8
 71
3
 72
8
 73
4
 74
0
 40
0
 40
0
 40
0
 40
0
 40
1
 40
1
 40
1
 40
1
 10
17.354123
 20
5.871652
 30
0.0
 10
17.354123
 20
5.893283
 30
0.0
 10
17.371659
 20
5.910819
 30
0.0
 10
17.393290
 20
5.910819
 30
0.0
  0
SPLINE
  5
212
100
AcDbEntity
  8
yacc2buss
 62
1
100
AcDbSpline
 70
8
 71
3
 72
8
 73
4
 74
0
 40
0
 40
0
 40
0
 40
0
 40
1
 40
1
 40
1
 40
1
 10
17.393290
 20
5.910819
 30
0.0
 10
17.414921
 20
5.910819
 30
0.0
 10
17.432456
 20
5.893283
 30
0.0
 10
17.432456
 20
5.871652
 30
0.0
  0
LWPOLYLINE
  5
213
100
AcDbEntity
  8
yacc2buss
 62
1
100
AcDbPolyline
 90
2
 70
0
 10
17.353290
 20
10.631640
 30
0.0
 10
17.433290
 20
10.711640
 30
0.0
  0
LWPOLYLINE
  5
214
100
AcDbEntity
  8
yacc2buss
 62
1
100
AcDbPolyline
 90
1
 70
1
 10
17.432456
 20
5.871652
 30
0.0
  0
SPLINE
  5
215
100
AcDbEntity
  8
yacc2buss
 62
1
100
AcDbSpline
 70
8
 71
3
 72
8
 73
4
 74
0
 40
0
 40
0
 40
0
 40
0
 40
1
 40
1
 40
1
 40
1
 10
6.034152
 20
10.671640
 30
0.0
 10
6.034152
 20
10.650009
 30
0.0
 10
6.016616
 20
10.632473
 30
0.0
 10
5.994985
 20
10.632473
 30
0.0
  0
SPLINE
  5
216
100
AcDbEntity
  8
yacc2buss
 62
1
100
AcDbSpline
 70
8
 71
3
 72
8
 73
4
 74
0
 40
0
 40
0
 40
0
 40
0
 40
1
 40
1
 40
1
 40
1
 10
5.994985
 20
10.632473
 30
0.0
 10
5.973354
 20
10.632473
 30
0.0
 10
5.955818
 20
10.650009
 30
0.0
 10
5.955818
 20
10.671640
 30
0.0
  0
SPLINE
  5
217
100
AcDbEntity
  8
yacc2buss
 62
1
100
AcDbSpline
 70
8
 71
3
 72
8
 73
4
 74
0
 40
0
 40
0
 40
0
 40
0
 40
1
 40
1
 40
1
 40
1
 10
5.955818
 20
10.671640
 30
0.0
 10
5.955818
 20
10.693271
 30
0.0
 10
5.973354
 20
10.710807
 30
0.0
 10
5.994985
 20
10.710807
 30
0.0
  0
SPLINE
  5
218
100
AcDbEntity
  8
yacc2buss
 62
1
100
AcDbSpline
 70
8
 71
3
 72
8
 73
4
 74
0
 40
0
 40
0
 40
0
 40
0
 40
1
 40
1
 40
1
 40
1
 10
5.994985
 20
10.710807
 30
0.0
 10
6.016616
 20
10.710807
 30
0.0
 10
6.034152
 20
10.693271
 30
0.0
 10
6.034152
 20
10.671640
 30
0.0
  0
LWPOLYLINE
  5
219
100
AcDbEntity
  8
yacc2buss
 62
1
100
AcDbPolyline
 90
2
 70
0
 10
17.353290
 20
5.831652
 30
0.0
 10
17.433290
 20
5.911652
 30
0.0
  0
LWPOLYLINE
  5
21a
100
AcDbEntity
  8
yacc2buss
 62
1
100
AcDbPolyline
 90
1
 70
1
 10
6.034152
 20
10.671640
 30
0.0
  0
SPLINE
  5
21b
100
AcDbEntity
  8
yacc2buss
 62
1
100
AcDbSpline
 70
8
 71
3
 72
8
 73
4
 74
0
 40
0
 40
0
 40
0
 40
0
 40
1
 40
1
 40
1
 40
1
 10
5.984152
 20
5.871652
 30
0.0
 10
5.984152
 20
5.850021
 30
0.0
 10
5.966616
 20
5.832485
 30
0.0
 10
5.944985
 20
5.832485
 30
0.0
  0
SPLINE
  5
21c
100
AcDbEntity
  8
yacc2buss
 62
1
100
AcDbSpline
 70
8
 71
3
 72
8
 73
4
 74
0
 40
0
 40
0
 40
0
 40
0
 40
1
 40
1
 40
1
 40
1
 10
5.944985
 20
5.832485
 30
0.0
 10
5.923354
 20
5.832485
 30
0.0
 10
5.905819
 20
5.850021
 30
0.0
 10
5.905819
 20
5.871652
 30
0.0
  0
SPLINE
  5
21d
100
AcDbEntity
  8
yacc2buss
 62
1
100
AcDbSpline
 70
8
 71
3
 72
8
 73
4
 74
0
 40
0
 40
0
 40
0
 40
0
 40
1
 40
1
 40
1
 40
1
 10
5.905819
 20
5.871652
 30
0.0
 10
5.905819
 20
5.893283
 30
0.0
 10
5.923354
 20
5.910819
 30
0.0
 10
5.944985
 20
5.910819
 30
0.0
  0
SPLINE
  5
21e
100
AcDbEntity
  8
yacc2buss
 62
1
100
AcDbSpline
 70
8
 71
3
 72
8
 73
4
 74
0
 40
0
 40
0
 40
0
 40
0
 40
1
 40
1
 40
1
 40
1
 10
5.944985
 20
5.910819
 30
0.0
 10
5.966616
 20
5.910819
 30
0.0
 10
5.984152
 20
5.893283
 30
0.0
 10
5.984152
 20
5.871652
 30
0.0
  0
LWPOLYLINE
  5
21f
100
AcDbEntity
  8
yacc2buss
 62
1
100
AcDbPolyline
 90
2
 70
0
 10
5.954985
 20
10.631640
 30
0.0
 10
6.034985
 20
10.711640
 30
0.0
  0
LWPOLYLINE
  5
220
100
AcDbEntity
  8
yacc2buss
 62
1
100
AcDbPolyline
 90
1
 70
1
 10
5.984152
 20
5.871652
 30
0.0
  0
SPLINE
  5
221
100
AcDbEntity
  8
yacc2buss
 62
1
100
AcDbSpline
 70
8
 71
3
 72
8
 73
4
 74
0
 40
0
 40
0
 40
0
 40
0
 40
1
 40
1
 40
1
 40
1
 10
14.133298
 20
2.572494
 30
0.0
 10
14.133298
 20
2.550863
 30
0.0
 10
14.115762
 20
2.533327
 30
0.0
 10
14.094131
 20
2.533327
 30
0.0
  0
SPLINE
  5
222
100
AcDbEntity
  8
yacc2buss
 62
1
100
AcDbSpline
 70
8
 71
3
 72
8
 73
4
 74
0
 40
0
 40
0
 40
0
 40
0
 40
1
 40
1
 40
1
 40
1
 10
14.094131
 20
2.533327
 30
0.0
 10
14.072501
 20
2.533327
 30
0.0
 10
14.054965
 20
2.550863
 30
0.0
 10
14.054965
 20
2.572494
 30
0.0
  0
SPLINE
  5
223
100
AcDbEntity
  8
yacc2buss
 62
1
100
AcDbSpline
 70
8
 71
3
 72
8
 73
4
 74
0
 40
0
 40
0
 40
0
 40
0
 40
1
 40
1
 40
1
 40
1
 10
14.054965
 20
2.572494
 30
0.0
 10
14.054965
 20
2.594124
 30
0.0
 10
14.072501
 20
2.611660
 30
0.0
 10
14.094131
 20
2.611660
 30
0.0
  0
SPLINE
  5
224
100
AcDbEntity
  8
yacc2buss
 62
1
100
AcDbSpline
 70
8
 71
3
 72
8
 73
4
 74
0
 40
0
 40
0
 40
0
 40
0
 40
1
 40
1
 40
1
 40
1
 10
14.094131
 20
2.611660
 30
0.0
 10
14.115762
 20
2.611660
 30
0.0
 10
14.133298
 20
2.594124
 30
0.0
 10
14.133298
 20
2.572494
 30
0.0
  0
LWPOLYLINE
  5
225
100
AcDbEntity
  8
yacc2buss
 62
1
100
AcDbPolyline
 90
2
 70
0
 10
5.904985
 20
5.831652
 30
0.0
 10
5.984985
 20
5.911652
 30
0.0
  0
LWPOLYLINE
  5
226
100
AcDbEntity
  8
yacc2buss
 62
1
100
AcDbPolyline
 90
1
 70
1
 10
14.133298
 20
2.572494
 30
0.0
  0
SPLINE
  5
227
100
AcDbEntity
  8
yacc2buss
 62
1
100
AcDbSpline
 70
8
 71
3
 72
8
 73
4
 74
0
 40
0
 40
0
 40
0
 40
0
 40
1
 40
1
 40
1
 40
1
 10
9.333310
 20
2.622493
 30
0.0
 10
9.333310
 20
2.600863
 30
0.0
 10
9.315774
 20
2.583327
 30
0.0
 10
9.294143
 20
2.583327
 30
0.0
  0
SPLINE
  5
228
100
AcDbEntity
  8
yacc2buss
 62
1
100
AcDbSpline
 70
8
 71
3
 72
8
 73
4
 74
0
 40
0
 40
0
 40
0
 40
0
 40
1
 40
1
 40
1
 40
1
 10
9.294143
 20
2.583327
 30
0.0
 10
9.272513
 20
2.583327
 30
0.0
 10
9.254977
 20
2.600863
 30
0.0
 10
9.254977
 20
2.622493
 30
0.0
  0
SPLINE
  5
229
100
AcDbEntity
  8
yacc2buss
 62
1
100
AcDbSpline
 70
8
 71
3
 72
8
 73
4
 74
0
 40
0
 40
0
 40
0
 40
0
 40
1
 40
1
 40
1
 40
1
 10
9.254977
 20
2.622493
 30
0.0
 10
9.254977
 20
2.644124
 30
0.0
 10
9.272513
 20
2.661660
 30
0.0
 10
9.294143
 20
2.661660
 30
0.0
  0
SPLINE
  5
22a
100
AcDbEntity
  8
yacc2buss
 62
1
100
AcDbSpline
 70
8
 71
3
 72
8
 73
4
 74
0
 40
0
 40
0
 40
0
 40
0
 40
1
 40
1
 40
1
 40
1
 10
9.294143
 20
2.661660
 30
0.0
 10
9.315774
 20
2.661660
 30
0.0
 10
9.333310
 20
2.644124
 30
0.0
 10
9.333310
 20
2.622493
 30
0.0
  0
LWPOLYLINE
  5
22b
100
AcDbEntity
  8
yacc2buss
 62
1
100
AcDbPolyline
 90
2
 70
0
 10
14.054132
 20
2.532494
 30
0.0
 10
14.134131
 20
2.612493
 30
0.0
  0
LWPOLYLINE
  5
22c
100
AcDbEntity
  8
yacc2buss
 62
1
100
AcDbPolyline
 90
1
 70
1
 10
9.333310
 20
2.622493
 30
0.0
  0
SPLINE
  5
22d
100
AcDbEntity
  8
yacc2buss
 62
1
100
AcDbSpline
 70
8
 71
3
 72
8
 73
4
 74
0
 40
0
 40
0
 40
0
 40
0
 40
1
 40
1
 40
1
 40
1
 10
6.045818
 20
6.499984
 30
0.0
 10
6.045818
 20
6.478353
 30
0.0
 10
6.028283
 20
6.460817
 30
0.0
 10
6.006652
 20
6.460817
 30
0.0
  0
SPLINE
  5
22e
100
AcDbEntity
  8
yacc2buss
 62
1
100
AcDbSpline
 70
8
 71
3
 72
8
 73
4
 74
0
 40
0
 40
0
 40
0
 40
0
 40
1
 40
1
 40
1
 40
1
 10
6.006652
 20
6.460817
 30
0.0
 10
5.985021
 20
6.460817
 30
0.0
 10
5.967485
 20
6.478353
 30
0.0
 10
5.967485
 20
6.499984
 30
0.0
  0
SPLINE
  5
22f
100
AcDbEntity
  8
yacc2buss
 62
1
100
AcDbSpline
 70
8
 71
3
 72
8
 73
4
 74
0
 40
0
 40
0
 40
0
 40
0
 40
1
 40
1
 40
1
 40
1
 10
5.967485
 20
6.499984
 30
0.0
 10
5.967485
 20
6.521615
 30
0.0
 10
5.985021
 20
6.539150
 30
0.0
 10
6.006652
 20
6.539150
 30
0.0
  0
SPLINE
  5
230
100
AcDbEntity
  8
yacc2buss
 62
1
100
AcDbSpline
 70
8
 71
3
 72
8
 73
4
 74
0
 40
0
 40
0
 40
0
 40
0
 40
1
 40
1
 40
1
 40
1
 10
6.006652
 20
6.539150
 30
0.0
 10
6.028283
 20
6.539150
 30
0.0
 10
6.045818
 20
6.521615
 30
0.0
 10
6.045818
 20
6.499984
 30
0.0
  0
LWPOLYLINE
  5
231
100
AcDbEntity
  8
yacc2buss
 62
1
100
AcDbPolyline
 90
2
 70
0
 10
9.254144
 20
2.582494
 30
0.0
 10
9.334143
 20
2.662493
 30
0.0
  0
LWPOLYLINE
  5
232
100
AcDbEntity
  8
yacc2buss
 62
1
100
AcDbPolyline
 90
1
 70
1
 10
6.045818
 20
6.499984
 30
0.0
  0
SPLINE
  5
233
100
AcDbEntity
  8
yacc2buss
 62
1
100
AcDbSpline
 70
8
 71
3
 72
8
 73
4
 74
0
 40
0
 40
0
 40
0
 40
0
 40
1
 40
1
 40
1
 40
1
 10
6.045818
 20
10.043308
 30
0.0
 10
6.045818
 20
10.021677
 30
0.0
 10
6.028283
 20
10.004142
 30
0.0
 10
6.006652
 20
10.004142
 30
0.0
  0
SPLINE
  5
234
100
AcDbEntity
  8
yacc2buss
 62
1
100
AcDbSpline
 70
8
 71
3
 72
8
 73
4
 74
0
 40
0
 40
0
 40
0
 40
0
 40
1
 40
1
 40
1
 40
1
 10
6.006652
 20
10.004142
 30
0.0
 10
5.985021
 20
10.004142
 30
0.0
 10
5.967485
 20
10.021677
 30
0.0
 10
5.967485
 20
10.043308
 30
0.0
  0
SPLINE
  5
235
100
AcDbEntity
  8
yacc2buss
 62
1
100
AcDbSpline
 70
8
 71
3
 72
8
 73
4
 74
0
 40
0
 40
0
 40
0
 40
0
 40
1
 40
1
 40
1
 40
1
 10
5.967485
 20
10.043308
 30
0.0
 10
5.967485
 20
10.064939
 30
0.0
 10
5.985021
 20
10.082475
 30
0.0
 10
6.006652
 20
10.082475
 30
0.0
  0
SPLINE
  5
236
100
AcDbEntity
  8
yacc2buss
 62
1
100
AcDbSpline
 70
8
 71
3
 72
8
 73
4
 74
0
 40
0
 40
0
 40
0
 40
0
 40
1
 40
1
 40
1
 40
1
 10
6.006652
 20
10.082475
 30
0.0
 10
6.028283
 20
10.082475
 30
0.0
 10
6.045818
 20
10.064939
 30
0.0
 10
6.045818
 20
10.043308
 30
0.0
  0
LWPOLYLINE
  5
237
100
AcDbEntity
  8
yacc2buss
 62
1
100
AcDbPolyline
 90
2
 70
0
 10
5.966652
 20
6.459984
 30
0.0
 10
6.046652
 20
6.539984
 30
0.0
  0
LWPOLYLINE
  5
238
100
AcDbEntity
  8
yacc2buss
 62
1
100
AcDbPolyline
 90
1
 70
1
 10
6.045818
 20
10.043308
 30
0.0
  0
SPLINE
  5
239
100
AcDbEntity
  8
yacc2buss
 62
1
100
AcDbSpline
 70
8
 71
3
 72
8
 73
4
 74
0
 40
0
 40
0
 40
0
 40
0
 40
1
 40
1
 40
1
 40
1
 10
13.504966
 20
2.584160
 30
0.0
 10
13.504966
 20
2.562529
 30
0.0
 10
13.487430
 20
2.544994
 30
0.0
 10
13.465800
 20
2.544994
 30
0.0
  0
SPLINE
  5
23a
100
AcDbEntity
  8
yacc2buss
 62
1
100
AcDbSpline
 70
8
 71
3
 72
8
 73
4
 74
0
 40
0
 40
0
 40
0
 40
0
 40
1
 40
1
 40
1
 40
1
 10
13.465800
 20
2.544994
 30
0.0
 10
13.444169
 20
2.544994
 30
0.0
 10
13.426633
 20
2.562529
 30
0.0
 10
13.426633
 20
2.584160
 30
0.0
  0
SPLINE
  5
23b
100
AcDbEntity
  8
yacc2buss
 62
1
100
AcDbSpline
 70
8
 71
3
 72
8
 73
4
 74
0
 40
0
 40
0
 40
0
 40
0
 40
1
 40
1
 40
1
 40
1
 10
13.426633
 20
2.584160
 30
0.0
 10
13.426633
 20
2.605791
 30
0.0
 10
13.444169
 20
2.623327
 30
0.0
 10
13.465800
 20
2.623327
 30
0.0
  0
SPLINE
  5
23c
100
AcDbEntity
  8
yacc2buss
 62
1
100
AcDbSpline
 70
8
 71
3
 72
8
 73
4
 74
0
 40
0
 40
0
 40
0
 40
0
 40
1
 40
1
 40
1
 40
1
 10
13.465800
 20
2.623327
 30
0.0
 10
13.487430
 20
2.623327
 30
0.0
 10
13.504966
 20
2.605791
 30
0.0
 10
13.504966
 20
2.584160
 30
0.0
  0
LWPOLYLINE
  5
23d
100
AcDbEntity
  8
yacc2buss
 62
1
100
AcDbPolyline
 90
2
 70
0
 10
5.966652
 20
10.003308
 30
0.0
 10
6.046652
 20
10.083308
 30
0.0
  0
LWPOLYLINE
  5
23e
100
AcDbEntity
  8
yacc2buss
 62
1
100
AcDbPolyline
 90
1
 70
1
 10
13.504966
 20
2.584160
 30
0.0
  0
SPLINE
  5
23f
100
AcDbEntity
  8
yacc2buss
 62
1
100
AcDbSpline
 70
8
 71
3
 72
8
 73
4
 74
0
 40
0
 40
0
 40
0
 40
0
 40
1
 40
1
 40
1
 40
1
 10
9.961642
 20
2.584160
 30
0.0
 10
9.961642
 20
2.562529
 30
0.0
 10
9.944106
 20
2.544994
 30
0.0
 10
9.922475
 20
2.544994
 30
0.0
  0
SPLINE
  5
240
100
AcDbEntity
  8
yacc2buss
 62
1
100
AcDbSpline
 70
8
 71
3
 72
8
 73
4
 74
0
 40
0
 40
0
 40
0
 40
0
 40
1
 40
1
 40
1
 40
1
 10
9.922475
 20
2.544994
 30
0.0
 10
9.900844
 20
2.544994
 30
0.0
 10
9.883309
 20
2.562529
 30
0.0
 10
9.883309
 20
2.584160
 30
0.0
  0
SPLINE
  5
241
100
AcDbEntity
  8
yacc2buss
 62
1
100
AcDbSpline
 70
8
 71
3
 72
8
 73
4
 74
0
 40
0
 40
0
 40
0
 40
0
 40
1
 40
1
 40
1
 40
1
 10
9.883309
 20
2.584160
 30
0.0
 10
9.883309
 20
2.605791
 30
0.0
 10
9.900844
 20
2.623327
 30
0.0
 10
9.922475
 20
2.623327
 30
0.0
  0
SPLINE
  5
242
100
AcDbEntity
  8
yacc2buss
 62
1
100
AcDbSpline
 70
8
 71
3
 72
8
 73
4
 74
0
 40
0
 40
0
 40
0
 40
0
 40
1
 40
1
 40
1
 40
1
 10
9.922475
 20
2.623327
 30
0.0
 10
9.944106
 20
2.623327
 30
0.0
 10
9.961642
 20
2.605791
 30
0.0
 10
9.961642
 20
2.584160
 30
0.0
  0
LWPOLYLINE
  5
243
100
AcDbEntity
  8
yacc2buss
 62
1
100
AcDbPolyline
 90
2
 70
0
 10
13.425800
 20
2.544160
 30
0.0
 10
13.505800
 20
2.624160
 30
0.0
  0
LWPOLYLINE
  5
244
100
AcDbEntity
  8
yacc2buss
 62
1
100
AcDbPolyline
 90
1
 70
1
 10
9.961642
 20
2.584160
 30
0.0
  0
SPLINE
  5
245
100
AcDbEntity
  8
yacc2buss
 62
1
100
AcDbSpline
 70
8
 71
3
 72
8
 73
4
 74
0
 40
0
 40
0
 40
0
 40
0
 40
1
 40
1
 40
1
 40
1
 10
9.961642
 20
13.959132
 30
0.0
 10
9.961642
 20
13.937501
 30
0.0
 10
9.944106
 20
13.919965
 30
0.0
 10
9.922475
 20
13.919965
 30
0.0
  0
SPLINE
  5
246
100
AcDbEntity
  8
yacc2buss
 62
1
100
AcDbSpline
 70
8
 71
3
 72
8
 73
4
 74
0
 40
0
 40
0
 40
0
 40
0
 40
1
 40
1
 40
1
 40
1
 10
9.922475
 20
13.919965
 30
0.0
 10
9.900844
 20
13.919965
 30
0.0
 10
9.883309
 20
13.937501
 30
0.0
 10
9.883309
 20
13.959132
 30
0.0
  0
SPLINE
  5
247
100
AcDbEntity
  8
yacc2buss
 62
1
100
AcDbSpline
 70
8
 71
3
 72
8
 73
4
 74
0
 40
0
 40
0
 40
0
 40
0
 40
1
 40
1
 40
1
 40
1
 10
9.883309
 20
13.959132
 30
0.0
 10
9.883309
 20
13.980763
 30
0.0
 10
9.900844
 20
13.998298
 30
0.0
 10
9.922475
 20
13.998298
 30
0.0
  0
SPLINE
  5
248
100
AcDbEntity
  8
yacc2buss
 62
1
100
AcDbSpline
 70
8
 71
3
 72
8
 73
4
 74
0
 40
0
 40
0
 40
0
 40
0
 40
1
 40
1
 40
1
 40
1
 10
9.922475
 20
13.998298
 30
0.0
 10
9.944106
 20
13.998298
 30
0.0
 10
9.961642
 20
13.980763
 30
0.0
 10
9.961642
 20
13.959132
 30
0.0
  0
LWPOLYLINE
  5
249
100
AcDbEntity
  8
yacc2buss
 62
1
100
AcDbPolyline
 90
2
 70
0
 10
9.882475
 20
2.544160
 30
0.0
 10
9.962475
 20
2.624160
 30
0.0
  0
LWPOLYLINE
  5
24a
100
AcDbEntity
  8
yacc2buss
 62
1
100
AcDbPolyline
 90
1
 70
1
 10
9.961642
 20
13.959132
 30
0.0
  0
SPLINE
  5
24b
100
AcDbEntity
  8
yacc2buss
 62
1
100
AcDbSpline
 70
8
 71
3
 72
8
 73
4
 74
0
 40
0
 40
0
 40
0
 40
0
 40
1
 40
1
 40
1
 40
1
 10
13.504966
 20
13.959132
 30
0.0
 10
13.504966
 20
13.937501
 30
0.0
 10
13.487430
 20
13.919965
 30
0.0
 10
13.465800
 20
13.919965
 30
0.0
  0
SPLINE
  5
24c
100
AcDbEntity
  8
yacc2buss
 62
1
100
AcDbSpline
 70
8
 71
3
 72
8
 73
4
 74
0
 40
0
 40
0
 40
0
 40
0
 40
1
 40
1
 40
1
 40
1
 10
13.465800
 20
13.919965
 30
0.0
 10
13.444169
 20
13.919965
 30
0.0
 10
13.426633
 20
13.937501
 30
0.0
 10
13.426633
 20
13.959132
 30
0.0
  0
SPLINE
  5
24d
100
AcDbEntity
  8
yacc2buss
 62
1
100
AcDbSpline
 70
8
 71
3
 72
8
 73
4
 74
0
 40
0
 40
0
 40
0
 40
0
 40
1
 40
1
 40
1
 40
1
 10
13.426633
 20
13.959132
 30
0.0
 10
13.426633
 20
13.980763
 30
0.0
 10
13.444169
 20
13.998298
 30
0.0
 10
13.465800
 20
13.998298
 30
0.0
  0
SPLINE
  5
24e
100
AcDbEntity
  8
yacc2buss
 62
1
100
AcDbSpline
 70
8
 71
3
 72
8
 73
4
 74
0
 40
0
 40
0
 40
0
 40
0
 40
1
 40
1
 40
1
 40
1
 10
13.465800
 20
13.998298
 30
0.0
 10
13.487430
 20
13.998298
 30
0.0
 10
13.504966
 20
13.980763
 30
0.0
 10
13.504966
 20
13.959132
 30
0.0
  0
LWPOLYLINE
  5
24f
100
AcDbEntity
  8
yacc2buss
 62
1
100
AcDbPolyline
 90
2
 70
0
 10
9.882475
 20
13.919132
 30
0.0
 10
9.962475
 20
13.999132
 30
0.0
  0
LWPOLYLINE
  5
250
100
AcDbEntity
  8
yacc2buss
 62
1
100
AcDbPolyline
 90
1
 70
1
 10
13.504966
 20
13.959132
 30
0.0
  0
SPLINE
  5
251
100
AcDbEntity
  8
yacc2buss
 62
1
100
AcDbSpline
 70
8
 71
3
 72
8
 73
4
 74
0
 40
0
 40
0
 40
0
 40
0
 40
1
 40
1
 40
1
 40
1
 10
14.491630
 20
13.549133
 30
0.0
 10
14.491630
 20
13.527502
 30
0.0
 10
14.474095
 20
13.509966
 30
0.0
 10
14.452464
 20
13.509966
 30
0.0
  0
SPLINE
  5
252
100
AcDbEntity
  8
yacc2buss
 62
1
100
AcDbSpline
 70
8
 71
3
 72
8
 73
4
 74
0
 40
0
 40
0
 40
0
 40
0
 40
1
 40
1
 40
1
 40
1
 10
14.452464
 20
13.509966
 30
0.0
 10
14.430833
 20
13.509966
 30
0.0
 10
14.413297
 20
13.527502
 30
0.0
 10
14.413297
 20
13.549133
 30
0.0
  0
SPLINE
  5
253
100
AcDbEntity
  8
yacc2buss
 62
1
100
AcDbSpline
 70
8
 71
3
 72
8
 73
4
 74
0
 40
0
 40
0
 40
0
 40
0
 40
1
 40
1
 40
1
 40
1
 10
14.413297
 20
13.549133
 30
0.0
 10
14.413297
 20
13.570764
 30
0.0
 10
14.430833
 20
13.588299
 30
0.0
 10
14.452464
 20
13.588299
 30
0.0
  0
SPLINE
  5
254
100
AcDbEntity
  8
yacc2buss
 62
1
100
AcDbSpline
 70
8
 71
3
 72
8
 73
4
 74
0
 40
0
 40
0
 40
0
 40
0
 40
1
 40
1
 40
1
 40
1
 10
14.452464
 20
13.588299
 30
0.0
 10
14.474095
 20
13.588299
 30
0.0
 10
14.491630
 20
13.570764
 30
0.0
 10
14.491630
 20
13.549133
 30
0.0
  0
LWPOLYLINE
  5
255
100
AcDbEntity
  8
yacc2buss
 62
1
100
AcDbPolyline
 90
2
 70
0
 10
13.425800
 20
13.919132
 30
0.0
 10
13.505800
 20
13.999132
 30
0.0
  0
LWPOLYLINE
  5
256
100
AcDbEntity
  8
yacc2buss
 62
1
100
AcDbPolyline
 90
1
 70
1
 10
14.491630
 20
13.549133
 30
0.0
  0
SPLINE
  5
257
100
AcDbEntity
  8
yacc2buss
 62
1
100
AcDbSpline
 70
8
 71
3
 72
8
 73
4
 74
0
 40
0
 40
0
 40
0
 40
0
 40
1
 40
1
 40
1
 40
1
 10
16.997458
 20
11.044139
 30
0.0
 10
16.997458
 20
11.022508
 30
0.0
 10
16.979922
 20
11.004972
 30
0.0
 10
16.958291
 20
11.004972
 30
0.0
  0
SPLINE
  5
258
100
AcDbEntity
  8
yacc2buss
 62
1
100
AcDbSpline
 70
8
 71
3
 72
8
 73
4
 74
0
 40
0
 40
0
 40
0
 40
0
 40
1
 40
1
 40
1
 40
1
 10
16.958291
 20
11.004972
 30
0.0
 10
16.936660
 20
11.004972
 30
0.0
 10
16.919124
 20
11.022508
 30
0.0
 10
16.919124
 20
11.044139
 30
0.0
  0
SPLINE
  5
259
100
AcDbEntity
  8
yacc2buss
 62
1
100
AcDbSpline
 70
8
 71
3
 72
8
 73
4
 74
0
 40
0
 40
0
 40
0
 40
0
 40
1
 40
1
 40
1
 40
1
 10
16.919124
 20
11.044139
 30
0.0
 10
16.919124
 20
11.065770
 30
0.0
 10
16.936660
 20
11.083306
 30
0.0
 10
16.958291
 20
11.083306
 30
0.0
  0
SPLINE
  5
25a
100
AcDbEntity
  8
yacc2buss
 62
1
100
AcDbSpline
 70
8
 71
3
 72
8
 73
4
 74
0
 40
0
 40
0
 40
0
 40
0
 40
1
 40
1
 40
1
 40
1
 10
16.958291
 20
11.083306
 30
0.0
 10
16.979922
 20
11.083306
 30
0.0
 10
16.997458
 20
11.065770
 30
0.0
 10
16.997458
 20
11.044139
 30
0.0
  0
LWPOLYLINE
  5
25b
100
AcDbEntity
  8
yacc2buss
 62
1
100
AcDbPolyline
 90
2
 70
0
 10
14.412464
 20
13.509133
 30
0.0
 10
14.492464
 20
13.589133
 30
0.0
  0
LWPOLYLINE
  5
25c
100
AcDbEntity
  8
yacc2buss
 62
1
100
AcDbPolyline
 90
1
 70
1
 10
16.997458
 20
11.044139
 30
0.0
  0
SPLINE
  5
25d
100
AcDbEntity
  8
yacc2buss
 62
1
100
AcDbSpline
 70
8
 71
3
 72
8
 73
4
 74
0
 40
0
 40
0
 40
0
 40
0
 40
1
 40
1
 40
1
 40
1
 10
6.456651
 20
11.026639
 30
0.0
 10
6.456651
 20
11.005008
 30
0.0
 10
6.439115
 20
10.987473
 30
0.0
 10
6.417484
 20
10.987473
 30
0.0
  0
SPLINE
  5
25e
100
AcDbEntity
  8
yacc2buss
 62
1
100
AcDbSpline
 70
8
 71
3
 72
8
 73
4
 74
0
 40
0
 40
0
 40
0
 40
0
 40
1
 40
1
 40
1
 40
1
 10
6.417484
 20
10.987473
 30
0.0
 10
6.395853
 20
10.987473
 30
0.0
 10
6.378317
 20
11.005008
 30
0.0
 10
6.378317
 20
11.026639
 30
0.0
  0
SPLINE
  5
25f
100
AcDbEntity
  8
yacc2buss
 62
1
100
AcDbSpline
 70
8
 71
3
 72
8
 73
4
 74
0
 40
0
 40
0
 40
0
 40
0
 40
1
 40
1
 40
1
 40
1
 10
6.378317
 20
11.026639
 30
0.0
 10
6.378317
 20
11.048270
 30
0.0
 10
6.395853
 20
11.065806
 30
0.0
 10
6.417484
 20
11.065806
 30
0.0
  0
SPLINE
  5
260
100
AcDbEntity
  8
yacc2buss
 62
1
100
AcDbSpline
 70
8
 71
3
 72
8
 73
4
 74
0
 40
0
 40
0
 40
0
 40
0
 40
1
 40
1
 40
1
 40
1
 10
6.417484
 20
11.065806
 30
0.0
 10
6.439115
 20
11.065806
 30
0.0
 10
6.456651
 20
11.048270
 30
0.0
 10
6.456651
 20
11.026639
 30
0.0
  0
LWPOLYLINE
  5
261
100
AcDbEntity
  8
yacc2buss
 62
1
100
AcDbPolyline
 90
2
 70
0
 10
16.918291
 20
11.004139
 30
0.0
 10
16.998291
 20
11.084139
 30
0.0
  0
LWPOLYLINE
  5
262
100
AcDbEntity
  8
yacc2buss
 62
1
100
AcDbPolyline
 90
1
 70
1
 10
6.456651
 20
11.026639
 30
0.0
  0
SPLINE
  5
263
100
AcDbEntity
  8
yacc2buss
 62
1
100
AcDbSpline
 70
8
 71
3
 72
8
 73
4
 74
0
 40
0
 40
0
 40
0
 40
0
 40
1
 40
1
 40
1
 40
1
 10
8.962478
 20
13.532466
 30
0.0
 10
8.962478
 20
13.510835
 30
0.0
 10
8.944942
 20
13.493300
 30
0.0
 10
8.923311
 20
13.493300
 30
0.0
  0
SPLINE
  5
264
100
AcDbEntity
  8
yacc2buss
 62
1
100
AcDbSpline
 70
8
 71
3
 72
8
 73
4
 74
0
 40
0
 40
0
 40
0
 40
0
 40
1
 40
1
 40
1
 40
1
 10
8.923311
 20
13.493300
 30
0.0
 10
8.901680
 20
13.493300
 30
0.0
 10
8.884144
 20
13.510835
 30
0.0
 10
8.884144
 20
13.532466
 30
0.0
  0
SPLINE
  5
265
100
AcDbEntity
  8
yacc2buss
 62
1
100
AcDbSpline
 70
8
 71
3
 72
8
 73
4
 74
0
 40
0
 40
0
 40
0
 40
0
 40
1
 40
1
 40
1
 40
1
 10
8.884144
 20
13.532466
 30
0.0
 10
8.884144
 20
13.554097
 30
0.0
 10
8.901680
 20
13.571633
 30
0.0
 10
8.923311
 20
13.571633
 30
0.0
  0
SPLINE
  5
266
100
AcDbEntity
  8
yacc2buss
 62
1
100
AcDbSpline
 70
8
 71
3
 72
8
 73
4
 74
0
 40
0
 40
0
 40
0
 40
0
 40
1
 40
1
 40
1
 40
1
 10
8.923311
 20
13.571633
 30
0.0
 10
8.944942
 20
13.571633
 30
0.0
 10
8.962478
 20
13.554097
 30
0.0
 10
8.962478
 20
13.532466
 30
0.0
  0
LWPOLYLINE
  5
267
100
AcDbEntity
  8
yacc2buss
 62
1
100
AcDbPolyline
 90
2
 70
0
 10
6.377484
 20
10.986639
 30
0.0
 10
6.457484
 20
11.066639
 30
0.0
  0
LWPOLYLINE
  5
268
100
AcDbEntity
  8
yacc2buss
 62
1
100
AcDbPolyline
 90
1
 70
1
 10
8.962478
 20
13.532466
 30
0.0
  0
SPLINE
  5
269
100
AcDbEntity
  8
yacc2buss
 62
1
100
AcDbSpline
 70
8
 71
3
 72
8
 73
4
 74
0
 40
0
 40
0
 40
0
 40
0
 40
1
 40
1
 40
1
 40
1
 10
16.988291
 20
5.514986
 30
0.0
 10
16.988291
 20
5.493355
 30
0.0
 10
16.970755
 20
5.475820
 30
0.0
 10
16.949124
 20
5.475820
 30
0.0
  0
SPLINE
  5
26a
100
AcDbEntity
  8
yacc2buss
 62
1
100
AcDbSpline
 70
8
 71
3
 72
8
 73
4
 74
0
 40
0
 40
0
 40
0
 40
0
 40
1
 40
1
 40
1
 40
1
 10
16.949124
 20
5.475820
 30
0.0
 10
16.927494
 20
5.475820
 30
0.0
 10
16.909958
 20
5.493355
 30
0.0
 10
16.909958
 20
5.514986
 30
0.0
  0
SPLINE
  5
26b
100
AcDbEntity
  8
yacc2buss
 62
1
100
AcDbSpline
 70
8
 71
3
 72
8
 73
4
 74
0
 40
0
 40
0
 40
0
 40
0
 40
1
 40
1
 40
1
 40
1
 10
16.909958
 20
5.514986
 30
0.0
 10
16.909958
 20
5.536617
 30
0.0
 10
16.927494
 20
5.554153
 30
0.0
 10
16.949124
 20
5.554153
 30
0.0
  0
SPLINE
  5
26c
100
AcDbEntity
  8
yacc2buss
 62
1
100
AcDbSpline
 70
8
 71
3
 72
8
 73
4
 74
0
 40
0
 40
0
 40
0
 40
0
 40
1
 40
1
 40
1
 40
1
 10
16.949124
 20
5.554153
 30
0.0
 10
16.970755
 20
5.554153
 30
0.0
 10
16.988291
 20
5.536617
 30
0.0
 10
16.988291
 20
5.514986
 30
0.0
  0
LWPOLYLINE
  5
26d
100
AcDbEntity
  8
yacc2buss
 62
1
100
AcDbPolyline
 90
2
 70
0
 10
8.883311
 20
13.492466
 30
0.0
 10
8.963311
 20
13.572466
 30
0.0
  0
LWPOLYLINE
  5
26e
100
AcDbEntity
  8
yacc2buss
 62
1
100
AcDbPolyline
 90
1
 70
1
 10
16.988291
 20
5.514986
 30
0.0
  0
SPLINE
  5
26f
100
AcDbEntity
  8
yacc2buss
 62
1
100
AcDbSpline
 70
8
 71
3
 72
8
 73
4
 74
0
 40
0
 40
0
 40
0
 40
0
 40
1
 40
1
 40
1
 40
1
 10
14.482464
 20
3.009992
 30
0.0
 10
14.482464
 20
2.988362
 30
0.0
 10
14.464928
 20
2.970826
 30
0.0
 10
14.443297
 20
2.970826
 30
0.0
  0
SPLINE
  5
270
100
AcDbEntity
  8
yacc2buss
 62
1
100
AcDbSpline
 70
8
 71
3
 72
8
 73
4
 74
0
 40
0
 40
0
 40
0
 40
0
 40
1
 40
1
 40
1
 40
1
 10
14.443297
 20
2.970826
 30
0.0
 10
14.421666
 20
2.970826
 30
0.0
 10
14.404131
 20
2.988362
 30
0.0
 10
14.404131
 20
3.009992
 30
0.0
  0
SPLINE
  5
271
100
AcDbEntity
  8
yacc2buss
 62
1
100
AcDbSpline
 70
8
 71
3
 72
8
 73
4
 74
0
 40
0
 40
0
 40
0
 40
0
 40
1
 40
1
 40
1
 40
1
 10
14.404131
 20
3.009992
 30
0.0
 10
14.404131
 20
3.031623
 30
0.0
 10
14.421666
 20
3.049159
 30
0.0
 10
14.443297
 20
3.049159
 30
0.0
  0
SPLINE
  5
272
100
AcDbEntity
  8
yacc2buss
 62
1
100
AcDbSpline
 70
8
 71
3
 72
8
 73
4
 74
0
 40
0
 40
0
 40
0
 40
0
 40
1
 40
1
 40
1
 40
1
 10
14.443297
 20
3.049159
 30
0.0
 10
14.464928
 20
3.049159
 30
0.0
 10
14.482464
 20
3.031623
 30
0.0
 10
14.482464
 20
3.009992
 30
0.0
  0
LWPOLYLINE
  5
273
100
AcDbEntity
  8
yacc2buss
 62
1
100
AcDbPolyline
 90
2
 70
0
 10
16.909124
 20
5.474986
 30
0.0
 10
16.989124
 20
5.554986
 30
0.0
  0
LWPOLYLINE
  5
274
100
AcDbEntity
  8
yacc2buss
 62
1
100
AcDbPolyline
 90
1
 70
1
 10
14.482464
 20
3.009992
 30
0.0
  0
SPLINE
  5
275
100
AcDbEntity
  8
yacc2buss
 62
1
100
AcDbSpline
 70
8
 71
3
 72
8
 73
4
 74
0
 40
0
 40
0
 40
0
 40
0
 40
1
 40
1
 40
1
 40
1
 10
8.954144
 20
2.989993
 30
0.0
 10
8.954144
 20
2.968362
 30
0.0
 10
8.936608
 20
2.950826
 30
0.0
 10
8.914978
 20
2.950826
 30
0.0
  0
SPLINE
  5
276
100
AcDbEntity
  8
yacc2buss
 62
1
100
AcDbSpline
 70
8
 71
3
 72
8
 73
4
 74
0
 40
0
 40
0
 40
0
 40
0
 40
1
 40
1
 40
1
 40
1
 10
8.914978
 20
2.950826
 30
0.0
 10
8.893347
 20
2.950826
 30
0.0
 10
8.875811
 20
2.968362
 30
0.0
 10
8.875811
 20
2.989993
 30
0.0
  0
SPLINE
  5
277
100
AcDbEntity
  8
yacc2buss
 62
1
100
AcDbSpline
 70
8
 71
3
 72
8
 73
4
 74
0
 40
0
 40
0
 40
0
 40
0
 40
1
 40
1
 40
1
 40
1
 10
8.875811
 20
2.989993
 30
0.0
 10
8.875811
 20
3.011623
 30
0.0
 10
8.893347
 20
3.029159
 30
0.0
 10
8.914978
 20
3.029159
 30
0.0
  0
SPLINE
  5
278
100
AcDbEntity
  8
yacc2buss
 62
1
100
AcDbSpline
 70
8
 71
3
 72
8
 73
4
 74
0
 40
0
 40
0
 40
0
 40
0
 40
1
 40
1
 40
1
 40
1
 10
8.914978
 20
3.029159
 30
0.0
 10
8.936608
 20
3.029159
 30
0.0
 10
8.954144
 20
3.011623
 30
0.0
 10
8.954144
 20
2.989993
 30
0.0
  0
LWPOLYLINE
  5
279
100
AcDbEntity
  8
yacc2buss
 62
1
100
AcDbPolyline
 90
2
 70
0
 10
14.403297
 20
2.969993
 30
0.0
 10
14.483297
 20
3.049992
 30
0.0
  0
LWPOLYLINE
  5
27a
100
AcDbEntity
  8
yacc2buss
 62
1
100
AcDbPolyline
 90
1
 70
1
 10
8.954144
 20
2.989993
 30
0.0
  0
SPLINE
  5
27b
100
AcDbEntity
  8
yacc2buss
 62
1
100
AcDbSpline
 70
8
 71
3
 72
8
 73
4
 74
0
 40
0
 40
0
 40
0
 40
0
 40
1
 40
1
 40
1
 40
1
 10
6.448317
 20
5.495820
 30
0.0
 10
6.448317
 20
5.474189
 30
0.0
 10
6.430782
 20
5.456653
 30
0.0
 10
6.409151
 20
5.456653
 30
0.0
  0
SPLINE
  5
27c
100
AcDbEntity
  8
yacc2buss
 62
1
100
AcDbSpline
 70
8
 71
3
 72
8
 73
4
 74
0
 40
0
 40
0
 40
0
 40
0
 40
1
 40
1
 40
1
 40
1
 10
6.409151
 20
5.456653
 30
0.0
 10
6.387520
 20
5.456653
 30
0.0
 10
6.369984
 20
5.474189
 30
0.0
 10
6.369984
 20
5.495820
 30
0.0
  0
SPLINE
  5
27d
100
AcDbEntity
  8
yacc2buss
 62
1
100
AcDbSpline
 70
8
 71
3
 72
8
 73
4
 74
0
 40
0
 40
0
 40
0
 40
0
 40
1
 40
1
 40
1
 40
1
 10
6.369984
 20
5.495820
 30
0.0
 10
6.369984
 20
5.517450
 30
0.0
 10
6.387520
 20
5.534986
 30
0.0
 10
6.409151
 20
5.534986
 30
0.0
  0
SPLINE
  5
27e
100
AcDbEntity
  8
yacc2buss
 62
1
100
AcDbSpline
 70
8
 71
3
 72
8
 73
4
 74
0
 40
0
 40
0
 40
0
 40
0
 40
1
 40
1
 40
1
 40
1
 10
6.409151
 20
5.534986
 30
0.0
 10
6.430782
 20
5.534986
 30
0.0
 10
6.448317
 20
5.517450
 30
0.0
 10
6.448317
 20
5.495820
 30
0.0
  0
LWPOLYLINE
  5
27f
100
AcDbEntity
  8
yacc2buss
 62
1
100
AcDbPolyline
 90
2
 70
0
 10
8.874978
 20
2.949993
 30
0.0
 10
8.954978
 20
3.029992
 30
0.0
  0
LWPOLYLINE
  5
280
100
AcDbEntity
  8
yacc2buss
 62
1
100
AcDbPolyline
 90
1
 70
1
 10
6.448317
 20
5.495820
 30
0.0
  0
SPLINE
  5
281
100
AcDbEntity
  8
yacc2buss
 62
1
100
AcDbSpline
 70
8
 71
3
 72
8
 73
4
 74
0
 40
0
 40
0
 40
0
 40
0
 40
1
 40
1
 40
1
 40
1
 10
17.420790
 20
10.043308
 30
0.0
 10
17.420790
 20
10.021677
 30
0.0
 10
17.403254
 20
10.004142
 30
0.0
 10
17.381623
 20
10.004142
 30
0.0
  0
SPLINE
  5
282
100
AcDbEntity
  8
yacc2buss
 62
1
100
AcDbSpline
 70
8
 71
3
 72
8
 73
4
 74
0
 40
0
 40
0
 40
0
 40
0
 40
1
 40
1
 40
1
 40
1
 10
17.381623
 20
10.004142
 30
0.0
 10
17.359992
 20
10.004142
 30
0.0
 10
17.342457
 20
10.021677
 30
0.0
 10
17.342457
 20
10.043308
 30
0.0
  0
SPLINE
  5
283
100
AcDbEntity
  8
yacc2buss
 62
1
100
AcDbSpline
 70
8
 71
3
 72
8
 73
4
 74
0
 40
0
 40
0
 40
0
 40
0
 40
1
 40
1
 40
1
 40
1
 10
17.342457
 20
10.043308
 30
0.0
 10
17.342457
 20
10.064939
 30
0.0
 10
17.359992
 20
10.082475
 30
0.0
 10
17.381623
 20
10.082475
 30
0.0
  0
SPLINE
  5
284
100
AcDbEntity
  8
yacc2buss
 62
1
100
AcDbSpline
 70
8
 71
3
 72
8
 73
4
 74
0
 40
0
 40
0
 40
0
 40
0
 40
1
 40
1
 40
1
 40
1
 10
17.381623
 20
10.082475
 30
0.0
 10
17.403254
 20
10.082475
 30
0.0
 10
17.420790
 20
10.064939
 30
0.0
 10
17.420790
 20
10.043308
 30
0.0
  0
LWPOLYLINE
  5
285
100
AcDbEntity
  8
yacc2buss
 62
1
100
AcDbPolyline
 90
2
 70
0
 10
6.369151
 20
5.455820
 30
0.0
 10
6.449151
 20
5.535819
 30
0.0
  0
LWPOLYLINE
  5
286
100
AcDbEntity
  8
yacc2buss
 62
1
100
AcDbPolyline
 90
1
 70
1
 10
17.420790
 20
10.043308
 30
0.0
  0
SPLINE
  5
287
100
AcDbEntity
  8
yacc2buss
 62
1
100
AcDbSpline
 70
8
 71
3
 72
8
 73
4
 74
0
 40
0
 40
0
 40
0
 40
0
 40
1
 40
1
 40
1
 40
1
 10
17.420790
 20
6.499984
 30
0.0
 10
17.420790
 20
6.478353
 30
0.0
 10
17.403254
 20
6.460817
 30
0.0
 10
17.381623
 20
6.460817
 30
0.0
  0
SPLINE
  5
288
100
AcDbEntity
  8
yacc2buss
 62
1
100
AcDbSpline
 70
8
 71
3
 72
8
 73
4
 74
0
 40
0
 40
0
 40
0
 40
0
 40
1
 40
1
 40
1
 40
1
 10
17.381623
 20
6.460817
 30
0.0
 10
17.359992
 20
6.460817
 30
0.0
 10
17.342457
 20
6.478353
 30
0.0
 10
17.342457
 20
6.499984
 30
0.0
  0
SPLINE
  5
289
100
AcDbEntity
  8
yacc2buss
 62
1
100
AcDbSpline
 70
8
 71
3
 72
8
 73
4
 74
0
 40
0
 40
0
 40
0
 40
0
 40
1
 40
1
 40
1
 40
1
 10
17.342457
 20
6.499984
 30
0.0
 10
17.342457
 20
6.521615
 30
0.0
 10
17.359992
 20
6.539150
 30
0.0
 10
17.381623
 20
6.539150
 30
0.0
  0
SPLINE
  5
28a
100
AcDbEntity
  8
yacc2buss
 62
1
100
AcDbSpline
 70
8
 71
3
 72
8
 73
4
 74
0
 40
0
 40
0
 40
0
 40
0
 40
1
 40
1
 40
1
 40
1
 10
17.381623
 20
6.539150
 30
0.0
 10
17.403254
 20
6.539150
 30
0.0
 10
17.420790
 20
6.521615
 30
0.0
 10
17.420790
 20
6.499984
 30
0.0
  0
LWPOLYLINE
  5
28b
100
AcDbEntity
  8
yacc2buss
 62
1
100
AcDbPolyline
 90
2
 70
0
 10
17.341623
 20
10.003308
 30
0.0
 10
17.421623
 20
10.083308
 30
0.0
  0
LWPOLYLINE
  5
28c
100
AcDbEntity
  8
yacc2buss
 62
1
100
AcDbPolyline
 90
1
 70
1
 10
17.420790
 20
6.499984
 30
0.0
  0
LWPOLYLINE
  5
28d
100
AcDbEntity
  8
yacc2buss
 62
1
100
AcDbPolyline
 90
2
 70
0
 10
17.341623
 20
6.459984
 30
0.0
 10
17.421623
 20
6.539984
 30
0.0
  0
ENDSEC
  0
SECTION
  2
OBJECTS
  0
DICTIONARY
  5
C
330
0
100
AcDbDictionary
  3
ACAD_GROUP
350
D
  3
ACAD_MLINESTYLE
350
17
  0
DICTIONARY
  5
D
330
C
100
AcDbDictionary
  0
DICTIONARY
  5
1A
330
C
100
AcDbDictionary
  0
DICTIONARY
  5
17
330
C
100
AcDbDictionary
  3
STANDARD
350
18
  0
DICTIONARY
  5
19
330
C
100
AcDbDictionary
  0
ENDSEC
  0
EOF
