M48
;GenerationSoftware,Autodesk,EAGLE,9.6.2*%
;CreationDate,2020-11-22T21:19:28Z*%
FMAT,2
ICI,OFF
METRIC,TZ,000.000
T1C0.254
%
G90
M71
T1
X53657Y69533
X58737Y69533
X63817Y69533
X65087Y86678
X68898Y69533
X72073Y53022
X66993Y53022
X122555Y94615
X35243Y62865
X96837Y76518
X154623Y56197
X75248Y45720
X91122Y83820
X71438Y45085
X84138Y45085
X100012Y14605
X32067Y36830
X40323Y48260
X53022Y56515
X30797Y38418
X28257Y77470
X30480Y79693
X38418Y75565
X37148Y76835
X88265Y69533
X91122Y56197
X79058Y30480
X94932Y44767
X98742Y48260
X126047Y88265
X49212Y76200
X106045Y58102
X61912Y57467
X127000Y52387
X125730Y53657
X126682Y56515
X118745Y73978
X133033Y74295
X32067Y44450
X46672Y34290
X120332Y23177
X98425Y78423
X102552Y44450
X85725Y64452
X46037Y35878
X139383Y64135
X139383Y58737
X141923Y56197
X39053Y57150
X37148Y44450
X43498Y68898
X13970Y32067
X15240Y33338
X43180Y44450
X20955Y52387
X60007Y48895
X34608Y62230
X76835Y26670
X78423Y28257
X76200Y27305
X77788Y28892
X75565Y27940
X77153Y29527
X74930Y28575
X76518Y30162
X47307Y46990
X47307Y48260
X122872Y23177
X13335Y77788
X11430Y74930
X12700Y80963
X20955Y87313
X13335Y59690
X12700Y58102
X13335Y68898
X166053Y92392
X122872Y86360
X137160Y94932
X91757Y24765
X96837Y19685
X89535Y58102
X90487Y57150
X105092Y32385
X105092Y39053
X104457Y60960
X102552Y49847
X65405Y99060
X78105Y108267
X141288Y64452
X134303Y71438
X152718Y35560
X133350Y32702
X134620Y31432
X153670Y108267
X133668Y39053
X134620Y38100
X133985Y37465
X157163Y65723
X117792Y32067
X119697Y31432
M30