M48
;GenerationSoftware,Autodesk,EAGLE,9.6.2*%
;CreationDate,2020-11-22T21:19:28Z*%
FMAT,2
ICI,OFF
METRIC,TZ,000.000
T1C0.254
%
G90
M71
T1
X42545Y53022
X70803Y101282
X69215Y99695
X47625Y55562
X53340Y49847
X143510Y96520
X131763Y108267
X64452Y107632
X47625Y43498
X123190Y94932
X120967Y100012
X70168Y101917
X46037Y47942
X82550Y39688
X81280Y40958
X75248Y108267
X77153Y89217
X68263Y32067
X66358Y52387
X75248Y70168
X80963Y50482
X148273Y69533
X87947Y57467
X82868Y74613
X75883Y69533
X115570Y58737
X144780Y55562
X127317Y100012
X153670Y62547
X101917Y45402
X129540Y56832
X128270Y55562
X64770Y17463
X124460Y56832
X113347Y68898
X53340Y61912
X52705Y82868
X74613Y62547
X57467Y83503
X60325Y58102
X103187Y82233
X62230Y87947
X92075Y65087
X118427Y89217
X90487Y90487
X72390Y18098
X89852Y108267
X120015Y56197
X79693Y56197
X85725Y106997
X44767Y22225
X96202Y94297
X33338Y23812
X33338Y19368
X111442Y61912
X56515Y24447
X50800Y18733
X109855Y61912
X123190Y80963
X117157Y82233
X142240Y54927
X142240Y61277
X84138Y81598
X82233Y76835
X69215Y77788
X86043Y84138
X82868Y84773
X163830Y69533
X65405Y25717
X67945Y23177
X70485Y90487
X61277Y44767
X81280Y39053
X11430Y52705
X110490Y96202
X99377Y82868
X72390Y58102
X83503Y37783
X45402Y56832
X51752Y50482
X33338Y58102
X32067Y56832
X62865Y11747
X100647Y13017
X130175Y25082
X35243Y14287
X15240Y79693
X13970Y73660
X16192Y79693
X14605Y75248
X15557Y81280
X18733Y77470
X17780Y76518
X22860Y80963
X20955Y82868
X19685Y95567
X137160Y101917
X141923Y99060
X41593Y69533
X63500Y24447
X66675Y26987
X66993Y30797
X71438Y31432
X72073Y40323
X85408Y26987
X70485Y39688
X90170Y49212
X81280Y98742
X102552Y95567
X97790Y94932
X88265Y98742
X89535Y100012
X103187Y14605
X48895Y82868
X89535Y26987
X62865Y44132
X117792Y81598
X125730Y55562
X124777Y19368
M30