M48
;GenerationSoftware,Autodesk,EAGLE,9.6.2*%
;CreationDate,2020-07-31T13:47:40Z*%
FMAT,2
ICI,OFF
METRIC,TZ,000.000
T10C0.254
T9C0.700
T8C0.800
T7C0.813
T6C0.900
T5C1.016
T4C1.803
T3C2.794
T2C2.800
T1C3.302
%
G90
M71
T1
X144580Y10160
X119580Y10160
T2
X116840Y33030
X147760Y33030
X147760Y107950
X116840Y107950
T3
X2540Y12694
X2540Y101606
T4
X107569Y96520
X107569Y35560
X102870Y35560
X98171Y35560
X107569Y45720
X102870Y45720
X98171Y45720
X107569Y55880
X102870Y55880
X98171Y55880
X107569Y66040
X102870Y66040
X98171Y66040
X107569Y76200
X102870Y76200
X98171Y76200
X107569Y86360
X102870Y86360
X98171Y86360
X102870Y96520
X98171Y96520
X107569Y106680
X102870Y106680
X98171Y106680
X107569Y17145
X102870Y17145
X98171Y17145
T5
X86360Y6350
X7620Y76200
X7620Y40640
X7620Y38100
X3810Y3810
X3810Y6350
X6350Y3810
X6350Y6350
X8890Y3810
X8890Y6350
X11430Y3810
X11430Y6350
X13970Y3810
X13970Y6350
X16510Y3810
X16510Y6350
X19050Y3810
X19050Y6350
X21590Y3810
X21590Y6350
X102870Y7620
X102870Y5080
X86360Y3810
X83820Y6350
X83820Y3810
X20320Y12700
X20320Y10160
X17780Y12700
X17780Y10160
X15240Y12700
X15240Y10160
X81280Y6350
X81280Y3810
X78740Y6350
X78740Y3810
X76200Y6350
X76200Y3810
X73660Y6350
X73660Y3810
X71120Y6350
X71120Y3810
X68580Y6350
X68580Y3810
X26670Y11430
X29210Y11430
X137620Y11580
X134850Y11580
X132080Y11580
X129310Y11580
X126540Y11580
X136230Y8740
X133460Y8740
X130700Y8740
X127930Y8740
X10160Y96520
X10160Y93980
X10160Y91440
X10160Y88900
X10160Y86360
X10160Y83820
X10160Y81280
X10160Y78740
X10160Y76200
X10160Y73660
X10160Y71120
X10160Y68580
X10160Y66040
X10160Y63500
X10160Y60960
X10160Y58420
X7620Y96520
X7620Y93980
X7620Y91440
X7620Y88900
X7620Y86360
X7620Y83820
X7620Y81280
X7620Y78740
X7620Y43180
X7620Y73660
X7620Y71120
X7620Y68580
X7620Y66040
X7620Y63500
X7620Y60960
X7620Y58420
X5080Y96520
X5080Y93980
X5080Y91440
X5080Y88900
X5080Y86360
X5080Y83820
X5080Y81280
X5080Y78740
X5080Y76200
X5080Y73660
X5080Y71120
X5080Y68580
X5080Y66040
X5080Y63500
X5080Y60960
X5080Y58420
X10160Y55880
X10160Y53340
X10160Y50800
X10160Y48260
X10160Y45720
X10160Y43180
X10160Y40640
X10160Y38100
X10160Y35560
X10160Y33020
X10160Y30480
X10160Y27940
X10160Y25400
X10160Y22860
X10160Y20320
X10160Y17780
X7620Y55880
X7620Y53340
X7620Y50800
X7620Y48260
X7620Y45720
X129540Y19050
X129540Y21590
X132080Y19050
X132080Y21590
X134620Y19050
X134620Y21590
X5080Y17780
X5080Y20320
X5080Y22860
X5080Y25400
X5080Y27940
X5080Y30480
X5080Y33020
X5080Y35560
X5080Y38100
X5080Y40640
X5080Y43180
X5080Y45720
X5080Y48260
X5080Y50800
X5080Y53340
X5080Y55880
X7620Y17780
X7620Y20320
X7620Y22860
X7620Y25400
X7620Y27940
X7620Y30480
X7620Y33020
X7620Y35560
T6
X70803Y20320
X70803Y22860
X70803Y17780
T7
X16510Y49530
X16510Y46990
X34290Y21590
X34290Y19050
X19050Y52070
X21590Y52070
X24130Y52070
X26670Y52070
X29210Y52070
X31750Y52070
X29210Y44450
X31750Y44450
X26670Y44450
X24130Y44450
X34290Y52070
X34290Y44450
X21590Y44450
X19050Y44450
X172720Y38100
X170180Y38100
X167640Y38100
X162560Y38100
X157480Y38100
X157480Y45720
X162560Y45720
X165100Y45720
X167640Y45720
X170180Y45720
X172720Y45720
X172720Y26670
X170180Y26670
X167640Y26670
X162560Y26670
X157480Y26670
X157480Y34290
X162560Y34290
X165100Y34290
X167640Y34290
X170180Y34290
X172720Y34290
X36830Y24130
X39370Y24130
X41910Y24130
X44450Y24130
X46990Y24130
X49530Y24130
X52070Y24130
X54610Y24130
X57150Y24130
X59690Y24130
X59690Y16510
X57150Y16510
X46990Y16510
X49530Y16510
X44450Y16510
X41910Y16510
X54610Y16510
X52070Y16510
X39370Y16510
X36830Y16510
X55880Y8890
X53340Y8890
X50800Y8890
X48260Y8890
X45720Y8890
X43180Y8890
X40640Y8890
X66040Y52070
X68580Y52070
X175260Y3810
X172720Y3810
X165100Y3810
X154940Y3810
X33020Y73660
X35560Y73660
X48260Y73660
X50800Y73660
X38100Y73660
X40640Y73660
X45720Y73660
X43180Y73660
X53340Y73660
X55880Y73660
X58420Y73660
X60960Y73660
X63500Y73660
X66040Y73660
X68580Y73660
X71120Y73660
X73660Y73660
X76200Y73660
X78740Y73660
X81280Y73660
X81280Y88900
X78740Y88900
X76200Y88900
X73660Y88900
X71120Y88900
X68580Y88900
X66040Y88900
X63500Y88900
X60960Y88900
X58420Y88900
X55880Y88900
X53340Y88900
X50800Y88900
X48260Y88900
X45720Y88900
X43180Y88900
X40640Y88900
X38100Y88900
X35560Y88900
X33020Y88900
X63500Y58420
X66040Y58420
X78740Y58420
X81280Y58420
X68580Y58420
X71120Y58420
X76200Y58420
X73660Y58420
X81280Y66040
X78740Y66040
X76200Y66040
X73660Y66040
X71120Y66040
X68580Y66040
X66040Y66040
X63500Y66040
X167640Y17780
X170180Y17780
X71120Y52070
X73660Y52070
X76200Y52070
X78740Y52070
X76200Y44450
X78740Y44450
X73660Y44450
X71120Y44450
X81280Y52070
X81280Y44450
X68580Y44450
X66040Y44450
X20320Y100330
X20320Y97790
X55880Y100330
X55880Y97790
X30480Y63500
X30480Y60960
X41910Y35560
X41910Y33020
X63500Y35560
X63500Y33020
X63500Y49530
X63500Y46990
X22860Y95250
X25400Y95250
X38100Y95250
X40640Y95250
X27940Y95250
X30480Y95250
X35560Y95250
X33020Y95250
X43180Y95250
X45720Y95250
X45720Y102870
X43180Y102870
X40640Y102870
X38100Y102870
X35560Y102870
X33020Y102870
X30480Y102870
X27940Y102870
X25400Y102870
X22860Y102870
X163830Y17780
X153670Y17780
X167640Y54610
X170180Y54610
X167640Y62230
X170180Y62230
X167640Y69850
X170180Y69850
X167640Y77470
X170180Y77470
X167640Y86360
X170180Y86360
X167640Y93980
X170180Y93980
X167640Y101600
X170180Y101600
X167640Y109220
X170180Y109220
X163830Y54610
X153670Y54610
X163830Y62230
X153670Y62230
X163830Y69850
X153670Y69850
X163830Y77470
X153670Y77470
X163830Y86360
X153670Y86360
X163830Y93980
X153670Y93980
X163830Y101600
X153670Y101600
X163830Y109220
X153670Y109220
X33020Y58420
X35560Y58420
X48260Y58420
X50800Y58420
X38100Y58420
X40640Y58420
X45720Y58420
X43180Y58420
X53340Y58420
X55880Y58420
X55880Y66040
X53340Y66040
X50800Y66040
X48260Y66040
X45720Y66040
X43180Y66040
X40640Y66040
X38100Y66040
X35560Y66040
X33020Y66040
X40640Y44450
X43180Y44450
X55880Y44450
X58420Y44450
X45720Y44450
X48260Y44450
X53340Y44450
X50800Y44450
X58420Y52070
X55880Y52070
X53340Y52070
X50800Y52070
X48260Y52070
X45720Y52070
X43180Y52070
X40640Y52070
X38100Y49530
X38100Y46990
X60960Y63500
X60960Y60960
X85090Y82550
X85090Y80010
X44450Y30480
X46990Y30480
X59690Y30480
X59690Y38100
X152400Y31750
X152400Y29210
X152400Y43180
X152400Y40640
X85090Y73660
X49530Y30480
X52070Y30480
X57150Y30480
X54610Y30480
X57150Y38100
X54610Y38100
X52070Y38100
X49530Y38100
X46990Y38100
X44450Y38100
X87630Y67310
X85090Y67310
X87630Y60960
X85090Y60960
X87630Y54610
X85090Y54610
X58420Y95250
X60960Y95250
X73660Y95250
X76200Y95250
X63500Y95250
X66040Y95250
X71120Y95250
X68580Y95250
X78740Y95250
X81280Y95250
X81280Y102870
X78740Y102870
X76200Y102870
X73660Y102870
X71120Y102870
X68580Y102870
X66040Y102870
X63500Y102870
X60960Y102870
X58420Y102870
X66040Y30480
X68580Y30480
X81280Y30480
X81280Y38100
X71120Y30480
X73660Y30480
X78740Y30480
X76200Y30480
X78740Y38100
X76200Y38100
X73660Y38100
X71120Y38100
X68580Y38100
X66040Y38100
X87630Y73660
T8
X147760Y64390
X147760Y66930
X147760Y69470
X147760Y72010
X147760Y74550
X147760Y77090
X147760Y79630
X147760Y82170
X147760Y84710
X147760Y87250
X147760Y89790
X147760Y92330
X147760Y94870
X147760Y97410
X147760Y99950
X147760Y102490
T9
X17780Y77470
X25400Y77470
X25400Y85090
X17780Y85090
T10
X4445Y29210
X48895Y106045
X86360Y24130
X93345Y101600
X97790Y72390
X59690Y93980
X57785Y70485
X43815Y70485
X50165Y69850
X111125Y77470
X49530Y78740
X41275Y71120
X60960Y59690
X41910Y60325
X41275Y76200
X97155Y83185
X93980Y93980
X46990Y71120
X51435Y19050
X50165Y19685
X34925Y69850
X42545Y98425
X51435Y71120
X50800Y68580
X38735Y27305
X69850Y69215
X12700Y70485
X40005Y40005
X12065Y37465
X43180Y30480
X45085Y41910
X14605Y39370
X71120Y48895
X86995Y46355
X90170Y81280
X150495Y76835
X12700Y19685
X40005Y47625
X39370Y55245
X78740Y107950
X92710Y38735
X29845Y100965
X102870Y110490
X36830Y104140
X102235Y100965
X41910Y87630
X99060Y90805
X99060Y100330
X93980Y107315
X100965Y101600
X20955Y69215
X112395Y62230
X41910Y85090
X86995Y68580
X89535Y86995
X52070Y76835
X46355Y55245
X57785Y55245
X79375Y78740
X36195Y67945
X58420Y57150
X43815Y55245
X83185Y55245
X83820Y52705
X36195Y62230
X65405Y62230
X67310Y50800
X48260Y41910
X22225Y41275
X53340Y36830
X19685Y36830
X40640Y54610
X6985Y54610
X54610Y43180
X24765Y42545
X79375Y53975
X83185Y49530
X20955Y1270
X55245Y41275
X85090Y41275
X22225Y1270
X59690Y61595
X21590Y62230
X48895Y48260
X71120Y46990
X13335Y53975
X52705Y27305
X64770Y27305
X82550Y46990
X53340Y28575
X73025Y12065
X44450Y57150
X78105Y56515
X57150Y55880
X86360Y38100
X47625Y33655
X62865Y91440
X88265Y91440
X86360Y26035
X55245Y26670
X53975Y34925
X18415Y36830
X19685Y83820
X67310Y85725
X74295Y99695
X64135Y93345
X113030Y97155
X111760Y20955
X74295Y48895
X83185Y48260
X56515Y40640
X74930Y41910
X50800Y40640
X65405Y36195
X32385Y77470
X56515Y69850
X70485Y69850
X74295Y62865
X108585Y62865
X57785Y83820
X27305Y81915
X86995Y58420
X74295Y61595
X69215Y62865
X64770Y70485
X81915Y70485
X66675Y54610
X77470Y74930
X67945Y19685
X36195Y18415
X52070Y62865
X55245Y62865
X165100Y24130
X48260Y13335
X50800Y13335
X166370Y22860
X158115Y24765
X31115Y89535
X51435Y92075
X66675Y92710
X112395Y92075
X113665Y88900
X38100Y71755
X4445Y34290
X43180Y26670
X29210Y92710
X36195Y56515
X63500Y92075
X101600Y92075
X104140Y89535
X76835Y79375
X64135Y20955
X40640Y21590
X83820Y86995
X62865Y26035
X90805Y14605
X46990Y21590
X52705Y95885
M30