%
M48
M72
T01C0.03200
T02C0.04000
T03C0.11000
%
T01
X46500Y16000
X111500Y16000
X71500Y16000
X56500Y16000
T02
X51500Y231000
X61500Y231000
X106500Y231000
X106500Y221000
X121500Y231000
X121500Y221000
X121500Y211000
X121500Y201000
X121500Y191000
X121500Y181000
X121500Y171000
X121500Y161000
X121500Y151000
X121500Y141000
X121500Y131000
X106500Y131000
X106500Y141000
X106500Y151000
X106500Y161000
X106500Y171000
X106500Y181000
X106500Y191000
X106500Y201000
X106500Y211000
X91500Y221000
X91500Y231000
X91500Y241000
X91500Y251000
X91500Y261000
X106500Y261000
X106500Y251000
X106500Y241000
X121500Y251000
X121500Y241000
X121500Y261000
X106500Y271000
X106500Y281000
X106500Y291000
X106500Y301000
X106500Y311000
X106500Y321000
X106500Y331000
X106500Y341000
X106500Y351000
X106500Y361000
X106500Y371000
X106500Y381000
X121500Y381000
X121500Y371000
X121500Y361000
X121500Y351000
X121500Y341000
X121500Y331000
X121500Y321000
X121500Y311000
X121500Y301000
X121500Y291000
X121500Y281000
X121500Y271000
X91500Y271000
X91500Y281000
X91500Y291000
X91500Y301000
X91500Y311000
X91500Y321000
X91500Y331000
X91500Y341000
X91500Y351000
X91500Y361000
X91500Y371000
X91500Y381000
X71500Y381000
X61500Y381000
X51500Y381000
X51500Y71000
X51500Y81000
X61500Y81000
X71500Y81000
X91500Y81000
X106500Y81000
X121500Y81000
X121500Y91000
X121500Y101000
X121500Y111000
X121500Y121000
X106500Y121000
X106500Y111000
X91500Y131000
X91500Y141000
X91500Y151000
X91500Y161000
X91500Y171000
X91500Y181000
X91500Y191000
X91500Y201000
X91500Y211000
X71500Y211000
X61500Y211000
X61500Y221000
X71500Y231000
X71500Y221000
X51500Y221000
X51500Y211000
X51500Y201000
X61500Y201000
X71500Y201000
X71500Y191000
X61500Y191000
X51500Y191000
X51500Y181000
X61500Y181000
X71500Y181000
X71500Y171000
X61500Y171000
X51500Y171000
X51500Y161000
X61500Y161000
X71500Y161000
X71500Y151000
X61500Y151000
X51500Y151000
X51500Y141000
X61500Y141000
X71500Y141000
X71500Y131000
X61500Y131000
X51500Y131000
X51500Y121000
X61500Y121000
X71500Y121000
X71500Y111000
X106500Y101000
X91500Y101000
X91500Y91000
X71500Y91000
X61500Y91000
X51500Y91000
X51500Y101000
X61500Y101000
X61500Y111000
X51500Y111000
X71500Y101000
X91500Y111000
X91500Y121000
X106500Y91000
X106500Y71000
X121500Y71000
X91500Y71000
X71500Y71000
X61500Y71000
X51500Y241000
X61500Y241000
X61500Y251000
X61500Y261000
X61500Y271000
X61500Y281000
X61500Y291000
X61500Y301000
X71500Y301000
X71500Y291000
X71500Y281000
X71500Y271000
X71500Y261000
X71500Y251000
X71500Y241000
X51500Y251000
X51500Y261000
X51500Y271000
X51500Y281000
X51500Y291000
X51500Y301000
X51500Y311000
X61500Y311000
X61500Y321000
X61500Y331000
X61500Y341000
X61500Y351000
X61500Y361000
X61500Y371000
X51500Y371000
X51500Y361000
X51500Y351000
X51500Y341000
X51500Y331000
X51500Y321000
X71500Y321000
X71500Y311000
X71500Y331000
X71500Y341000
X71500Y351000
X71500Y361000
X71500Y371000
T03
X41500Y401025
X41500Y50975
M30
