G75*
%MOIN*%
%OFA0B0*%
%FSLAX25Y25*%
%IPPOS*%
%LPD*%
%AMOC8*
5,1,8,0,0,1.08239X$1,22.5*
%
%ADD10OC8,0.04800*%
%ADD11OC8,0.06000*%
%ADD12C,0.06000*%
%ADD13C,0.00600*%
D10*
X0046500Y0016000D03*
X0056500Y0016000D03*
X0071500Y0016000D03*
X0111500Y0016000D03*
D11*
X0071500Y0071000D03*
X0061500Y0071000D03*
X0051500Y0071000D03*
X0051500Y0081000D03*
X0061500Y0081000D03*
X0071500Y0081000D03*
X0071500Y0091000D03*
X0061500Y0091000D03*
X0051500Y0091000D03*
X0051500Y0101000D03*
X0061500Y0101000D03*
X0071500Y0101000D03*
X0071500Y0111000D03*
X0061500Y0111000D03*
X0051500Y0111000D03*
X0051500Y0121000D03*
X0061500Y0121000D03*
X0071500Y0121000D03*
X0071500Y0131000D03*
X0061500Y0131000D03*
X0051500Y0131000D03*
X0051500Y0141000D03*
X0061500Y0141000D03*
X0071500Y0141000D03*
X0071500Y0151000D03*
X0061500Y0151000D03*
X0051500Y0151000D03*
X0051500Y0161000D03*
X0061500Y0161000D03*
X0071500Y0161000D03*
X0071500Y0171000D03*
X0061500Y0171000D03*
X0051500Y0171000D03*
X0051500Y0181000D03*
X0061500Y0181000D03*
X0071500Y0181000D03*
X0071500Y0191000D03*
X0061500Y0191000D03*
X0051500Y0191000D03*
X0051500Y0201000D03*
X0061500Y0201000D03*
X0071500Y0201000D03*
X0071500Y0211000D03*
X0061500Y0211000D03*
X0051500Y0211000D03*
X0051500Y0221000D03*
X0061500Y0221000D03*
X0071500Y0221000D03*
X0071500Y0231000D03*
X0061500Y0231000D03*
X0051500Y0231000D03*
X0051500Y0241000D03*
X0061500Y0241000D03*
X0071500Y0241000D03*
X0071500Y0251000D03*
X0061500Y0251000D03*
X0051500Y0251000D03*
X0051500Y0261000D03*
X0061500Y0261000D03*
X0071500Y0261000D03*
X0071500Y0271000D03*
X0061500Y0271000D03*
X0051500Y0271000D03*
X0051500Y0281000D03*
X0061500Y0281000D03*
X0071500Y0281000D03*
X0071500Y0291000D03*
X0061500Y0291000D03*
X0051500Y0291000D03*
X0051500Y0301000D03*
X0061500Y0301000D03*
X0071500Y0301000D03*
X0071500Y0311000D03*
X0061500Y0311000D03*
X0051500Y0311000D03*
X0051500Y0321000D03*
X0061500Y0321000D03*
X0071500Y0321000D03*
X0071500Y0331000D03*
X0061500Y0331000D03*
X0051500Y0331000D03*
X0051500Y0341000D03*
X0061500Y0341000D03*
X0071500Y0341000D03*
X0071500Y0351000D03*
X0061500Y0351000D03*
X0051500Y0351000D03*
X0051500Y0361000D03*
X0061500Y0361000D03*
X0071500Y0361000D03*
X0071500Y0371000D03*
X0061500Y0371000D03*
X0051500Y0371000D03*
X0051500Y0381000D03*
X0061500Y0381000D03*
X0071500Y0381000D03*
D12*
X0088500Y0381000D02*
X0094500Y0381000D01*
X0103500Y0381000D02*
X0109500Y0381000D01*
X0118500Y0381000D02*
X0124500Y0381000D01*
X0124500Y0371000D02*
X0118500Y0371000D01*
X0109500Y0371000D02*
X0103500Y0371000D01*
X0094500Y0371000D02*
X0088500Y0371000D01*
X0088500Y0361000D02*
X0094500Y0361000D01*
X0103500Y0361000D02*
X0109500Y0361000D01*
X0118500Y0361000D02*
X0124500Y0361000D01*
X0124500Y0351000D02*
X0118500Y0351000D01*
X0109500Y0351000D02*
X0103500Y0351000D01*
X0094500Y0351000D02*
X0088500Y0351000D01*
X0088500Y0341000D02*
X0094500Y0341000D01*
X0103500Y0341000D02*
X0109500Y0341000D01*
X0118500Y0341000D02*
X0124500Y0341000D01*
X0124500Y0331000D02*
X0118500Y0331000D01*
X0109500Y0331000D02*
X0103500Y0331000D01*
X0094500Y0331000D02*
X0088500Y0331000D01*
X0088500Y0321000D02*
X0094500Y0321000D01*
X0103500Y0321000D02*
X0109500Y0321000D01*
X0118500Y0321000D02*
X0124500Y0321000D01*
X0124500Y0311000D02*
X0118500Y0311000D01*
X0109500Y0311000D02*
X0103500Y0311000D01*
X0094500Y0311000D02*
X0088500Y0311000D01*
X0088500Y0301000D02*
X0094500Y0301000D01*
X0103500Y0301000D02*
X0109500Y0301000D01*
X0118500Y0301000D02*
X0124500Y0301000D01*
X0124500Y0291000D02*
X0118500Y0291000D01*
X0109500Y0291000D02*
X0103500Y0291000D01*
X0094500Y0291000D02*
X0088500Y0291000D01*
X0088500Y0281000D02*
X0094500Y0281000D01*
X0103500Y0281000D02*
X0109500Y0281000D01*
X0118500Y0281000D02*
X0124500Y0281000D01*
X0124500Y0271000D02*
X0118500Y0271000D01*
X0109500Y0271000D02*
X0103500Y0271000D01*
X0094500Y0271000D02*
X0088500Y0271000D01*
X0088500Y0261000D02*
X0094500Y0261000D01*
X0103500Y0261000D02*
X0109500Y0261000D01*
X0118500Y0261000D02*
X0124500Y0261000D01*
X0124500Y0251000D02*
X0118500Y0251000D01*
X0109500Y0251000D02*
X0103500Y0251000D01*
X0094500Y0251000D02*
X0088500Y0251000D01*
X0088500Y0241000D02*
X0094500Y0241000D01*
X0103500Y0241000D02*
X0109500Y0241000D01*
X0118500Y0241000D02*
X0124500Y0241000D01*
X0124500Y0231000D02*
X0118500Y0231000D01*
X0109500Y0231000D02*
X0103500Y0231000D01*
X0094500Y0231000D02*
X0088500Y0231000D01*
X0088500Y0221000D02*
X0094500Y0221000D01*
X0103500Y0221000D02*
X0109500Y0221000D01*
X0118500Y0221000D02*
X0124500Y0221000D01*
X0124500Y0211000D02*
X0118500Y0211000D01*
X0109500Y0211000D02*
X0103500Y0211000D01*
X0094500Y0211000D02*
X0088500Y0211000D01*
X0088500Y0201000D02*
X0094500Y0201000D01*
X0103500Y0201000D02*
X0109500Y0201000D01*
X0118500Y0201000D02*
X0124500Y0201000D01*
X0124500Y0191000D02*
X0118500Y0191000D01*
X0109500Y0191000D02*
X0103500Y0191000D01*
X0094500Y0191000D02*
X0088500Y0191000D01*
X0088500Y0181000D02*
X0094500Y0181000D01*
X0103500Y0181000D02*
X0109500Y0181000D01*
X0118500Y0181000D02*
X0124500Y0181000D01*
X0124500Y0171000D02*
X0118500Y0171000D01*
X0109500Y0171000D02*
X0103500Y0171000D01*
X0094500Y0171000D02*
X0088500Y0171000D01*
X0088500Y0161000D02*
X0094500Y0161000D01*
X0103500Y0161000D02*
X0109500Y0161000D01*
X0118500Y0161000D02*
X0124500Y0161000D01*
X0124500Y0151000D02*
X0118500Y0151000D01*
X0109500Y0151000D02*
X0103500Y0151000D01*
X0094500Y0151000D02*
X0088500Y0151000D01*
X0088500Y0141000D02*
X0094500Y0141000D01*
X0103500Y0141000D02*
X0109500Y0141000D01*
X0118500Y0141000D02*
X0124500Y0141000D01*
X0124500Y0131000D02*
X0118500Y0131000D01*
X0109500Y0131000D02*
X0103500Y0131000D01*
X0094500Y0131000D02*
X0088500Y0131000D01*
X0088500Y0121000D02*
X0094500Y0121000D01*
X0103500Y0121000D02*
X0109500Y0121000D01*
X0118500Y0121000D02*
X0124500Y0121000D01*
X0124500Y0111000D02*
X0118500Y0111000D01*
X0109500Y0111000D02*
X0103500Y0111000D01*
X0094500Y0111000D02*
X0088500Y0111000D01*
X0088500Y0101000D02*
X0094500Y0101000D01*
X0103500Y0101000D02*
X0109500Y0101000D01*
X0118500Y0101000D02*
X0124500Y0101000D01*
X0124500Y0091000D02*
X0118500Y0091000D01*
X0109500Y0091000D02*
X0103500Y0091000D01*
X0094500Y0091000D02*
X0088500Y0091000D01*
X0088500Y0081000D02*
X0094500Y0081000D01*
X0103500Y0081000D02*
X0109500Y0081000D01*
X0118500Y0081000D02*
X0124500Y0081000D01*
X0124500Y0071000D02*
X0118500Y0071000D01*
X0109500Y0071000D02*
X0103500Y0071000D01*
X0094500Y0071000D02*
X0088500Y0071000D01*
D13*
X0091500Y0071000D02*
X0071500Y0071000D01*
X0061500Y0071000D01*
X0051500Y0071000D01*
X0046500Y0076000D01*
X0046500Y0376000D01*
X0051500Y0381000D01*
X0061500Y0381000D01*
X0071500Y0381000D01*
X0091500Y0381000D01*
X0106500Y0381000D01*
X0121500Y0381000D01*
X0121500Y0371000D02*
X0106500Y0371000D01*
X0091500Y0371000D01*
X0071500Y0371000D01*
X0061500Y0371000D01*
X0056500Y0371000D01*
X0056500Y0081000D01*
X0051500Y0081000D01*
X0056500Y0081000D02*
X0061500Y0081000D01*
X0071500Y0081000D01*
X0091500Y0081000D01*
X0106500Y0081000D01*
X0114000Y0073500D01*
X0121500Y0081000D01*
X0114000Y0073500D02*
X0114000Y0018500D01*
X0111500Y0016000D01*
X0071500Y0016000D02*
X0056500Y0016000D01*
X0051500Y0021000D02*
X0051500Y0071000D01*
X0071500Y0091000D02*
X0084000Y0091000D01*
X0084000Y0092250D01*
X0087750Y0096000D01*
X0121500Y0096000D01*
X0121500Y0091000D01*
X0106500Y0101000D02*
X0106500Y0106000D01*
X0066500Y0106000D01*
X0061500Y0101000D01*
X0061500Y0111000D02*
X0066500Y0116000D01*
X0106500Y0116000D01*
X0106500Y0111000D01*
X0106500Y0121000D02*
X0106500Y0126000D01*
X0066500Y0126000D01*
X0061500Y0121000D01*
X0061500Y0131000D02*
X0066500Y0136000D01*
X0106500Y0136000D01*
X0106500Y0131000D01*
X0106500Y0141000D02*
X0106500Y0146000D01*
X0066500Y0146000D01*
X0061500Y0141000D01*
X0061500Y0151000D02*
X0066500Y0156000D01*
X0106500Y0156000D01*
X0106500Y0151000D01*
X0106500Y0161000D02*
X0106500Y0166000D01*
X0066500Y0166000D01*
X0061500Y0161000D01*
X0061500Y0171000D02*
X0066500Y0176000D01*
X0106500Y0176000D01*
X0106500Y0171000D01*
X0106500Y0181000D02*
X0106500Y0186000D01*
X0066500Y0186000D01*
X0061500Y0181000D01*
X0061500Y0191000D02*
X0066500Y0196000D01*
X0106500Y0196000D01*
X0106500Y0191000D01*
X0106500Y0201000D02*
X0106500Y0206000D01*
X0066500Y0206000D01*
X0061500Y0201000D01*
X0061500Y0211000D02*
X0066500Y0216000D01*
X0106500Y0216000D01*
X0106500Y0211000D01*
X0106500Y0221000D02*
X0106500Y0226000D01*
X0066500Y0226000D01*
X0061500Y0221000D01*
X0061500Y0231000D02*
X0066500Y0236000D01*
X0106500Y0236000D01*
X0106500Y0231000D01*
X0106500Y0241000D02*
X0106500Y0246000D01*
X0066500Y0246000D01*
X0061500Y0241000D01*
X0061500Y0251000D02*
X0066500Y0256000D01*
X0106500Y0256000D01*
X0106500Y0251000D01*
X0106500Y0261000D02*
X0106500Y0266000D01*
X0066500Y0266000D01*
X0061500Y0261000D01*
X0061500Y0271000D02*
X0066500Y0276000D01*
X0106500Y0276000D01*
X0106500Y0271000D01*
X0106500Y0281000D02*
X0106500Y0286000D01*
X0066500Y0286000D01*
X0061500Y0281000D01*
X0061500Y0291000D02*
X0066500Y0296000D01*
X0106500Y0296000D01*
X0106500Y0291000D01*
X0106500Y0301000D02*
X0106500Y0306000D01*
X0066500Y0306000D01*
X0061500Y0301000D01*
X0061500Y0311000D02*
X0066500Y0316000D01*
X0106500Y0316000D01*
X0106500Y0311000D01*
X0106500Y0321000D02*
X0106500Y0326000D01*
X0066500Y0326000D01*
X0061500Y0321000D01*
X0061500Y0331000D02*
X0066500Y0336000D01*
X0106500Y0336000D01*
X0106500Y0331000D01*
X0106500Y0341000D02*
X0106500Y0346000D01*
X0066500Y0346000D01*
X0061500Y0341000D01*
X0061500Y0351000D02*
X0066500Y0356000D01*
X0106500Y0356000D01*
X0106500Y0351000D01*
X0106500Y0361000D02*
X0106500Y0366000D01*
X0066500Y0366000D01*
X0061500Y0361000D01*
X0056500Y0371000D02*
X0051500Y0371000D01*
X0091500Y0071000D02*
X0106500Y0071000D01*
X0051500Y0021000D02*
X0046500Y0016000D01*
M02*
