G75*
%MOIN*%
%OFA0B0*%
%FSLAX25Y25*%
%IPPOS*%
%LPD*%
%AMOC8*
5,1,8,0,0,1.08239X$1,22.5*
%
%ADD10C,0.00000*%
%ADD11C,0.00800*%
%ADD12C,0.01000*%
%ADD13C,0.00600*%
%ADD14C,0.00500*%
%ADD15R,0.03400X0.02400*%
%ADD16C,0.00200*%
%ADD17C,0.00300*%
D10*
X0031500Y0001000D02*
X0031500Y0449701D01*
X0731421Y0449701D01*
X0731421Y0001000D01*
X0031500Y0001000D01*
X0030500Y0029100D02*
X0030500Y0422900D01*
X0036000Y0401025D02*
X0036002Y0401173D01*
X0036008Y0401321D01*
X0036018Y0401469D01*
X0036032Y0401617D01*
X0036050Y0401764D01*
X0036072Y0401911D01*
X0036098Y0402057D01*
X0036127Y0402202D01*
X0036161Y0402347D01*
X0036199Y0402490D01*
X0036240Y0402633D01*
X0036285Y0402774D01*
X0036335Y0402914D01*
X0036387Y0403052D01*
X0036444Y0403190D01*
X0036504Y0403325D01*
X0036568Y0403459D01*
X0036635Y0403591D01*
X0036706Y0403721D01*
X0036781Y0403850D01*
X0036859Y0403976D01*
X0036940Y0404100D01*
X0037024Y0404222D01*
X0037112Y0404341D01*
X0037203Y0404458D01*
X0037297Y0404573D01*
X0037395Y0404685D01*
X0037495Y0404794D01*
X0037598Y0404901D01*
X0037704Y0405005D01*
X0037812Y0405106D01*
X0037924Y0405204D01*
X0038038Y0405299D01*
X0038154Y0405390D01*
X0038273Y0405479D01*
X0038394Y0405564D01*
X0038518Y0405646D01*
X0038644Y0405725D01*
X0038771Y0405800D01*
X0038901Y0405872D01*
X0039033Y0405941D01*
X0039166Y0406005D01*
X0039301Y0406066D01*
X0039438Y0406124D01*
X0039576Y0406178D01*
X0039716Y0406228D01*
X0039857Y0406274D01*
X0039999Y0406316D01*
X0040142Y0406355D01*
X0040286Y0406389D01*
X0040432Y0406420D01*
X0040577Y0406447D01*
X0040724Y0406470D01*
X0040871Y0406489D01*
X0041019Y0406504D01*
X0041166Y0406515D01*
X0041315Y0406522D01*
X0041463Y0406525D01*
X0041611Y0406524D01*
X0041759Y0406519D01*
X0041907Y0406510D01*
X0042055Y0406497D01*
X0042203Y0406480D01*
X0042349Y0406459D01*
X0042496Y0406434D01*
X0042641Y0406405D01*
X0042786Y0406373D01*
X0042929Y0406336D01*
X0043072Y0406296D01*
X0043214Y0406251D01*
X0043354Y0406203D01*
X0043493Y0406151D01*
X0043630Y0406096D01*
X0043766Y0406036D01*
X0043901Y0405973D01*
X0044033Y0405907D01*
X0044164Y0405837D01*
X0044293Y0405763D01*
X0044419Y0405686D01*
X0044544Y0405606D01*
X0044666Y0405522D01*
X0044787Y0405435D01*
X0044904Y0405345D01*
X0045020Y0405251D01*
X0045132Y0405155D01*
X0045242Y0405056D01*
X0045350Y0404953D01*
X0045454Y0404848D01*
X0045556Y0404740D01*
X0045654Y0404629D01*
X0045750Y0404516D01*
X0045843Y0404400D01*
X0045932Y0404282D01*
X0046018Y0404161D01*
X0046101Y0404038D01*
X0046181Y0403913D01*
X0046257Y0403786D01*
X0046330Y0403656D01*
X0046399Y0403525D01*
X0046464Y0403392D01*
X0046527Y0403258D01*
X0046585Y0403121D01*
X0046640Y0402983D01*
X0046690Y0402844D01*
X0046738Y0402703D01*
X0046781Y0402562D01*
X0046821Y0402419D01*
X0046856Y0402275D01*
X0046888Y0402130D01*
X0046916Y0401984D01*
X0046940Y0401838D01*
X0046960Y0401691D01*
X0046976Y0401543D01*
X0046988Y0401396D01*
X0046996Y0401247D01*
X0047000Y0401099D01*
X0047000Y0400951D01*
X0046996Y0400803D01*
X0046988Y0400654D01*
X0046976Y0400507D01*
X0046960Y0400359D01*
X0046940Y0400212D01*
X0046916Y0400066D01*
X0046888Y0399920D01*
X0046856Y0399775D01*
X0046821Y0399631D01*
X0046781Y0399488D01*
X0046738Y0399347D01*
X0046690Y0399206D01*
X0046640Y0399067D01*
X0046585Y0398929D01*
X0046527Y0398792D01*
X0046464Y0398658D01*
X0046399Y0398525D01*
X0046330Y0398394D01*
X0046257Y0398264D01*
X0046181Y0398137D01*
X0046101Y0398012D01*
X0046018Y0397889D01*
X0045932Y0397768D01*
X0045843Y0397650D01*
X0045750Y0397534D01*
X0045654Y0397421D01*
X0045556Y0397310D01*
X0045454Y0397202D01*
X0045350Y0397097D01*
X0045242Y0396994D01*
X0045132Y0396895D01*
X0045020Y0396799D01*
X0044904Y0396705D01*
X0044787Y0396615D01*
X0044666Y0396528D01*
X0044544Y0396444D01*
X0044419Y0396364D01*
X0044293Y0396287D01*
X0044164Y0396213D01*
X0044033Y0396143D01*
X0043901Y0396077D01*
X0043766Y0396014D01*
X0043630Y0395954D01*
X0043493Y0395899D01*
X0043354Y0395847D01*
X0043214Y0395799D01*
X0043072Y0395754D01*
X0042929Y0395714D01*
X0042786Y0395677D01*
X0042641Y0395645D01*
X0042496Y0395616D01*
X0042349Y0395591D01*
X0042203Y0395570D01*
X0042055Y0395553D01*
X0041907Y0395540D01*
X0041759Y0395531D01*
X0041611Y0395526D01*
X0041463Y0395525D01*
X0041315Y0395528D01*
X0041166Y0395535D01*
X0041019Y0395546D01*
X0040871Y0395561D01*
X0040724Y0395580D01*
X0040577Y0395603D01*
X0040432Y0395630D01*
X0040286Y0395661D01*
X0040142Y0395695D01*
X0039999Y0395734D01*
X0039857Y0395776D01*
X0039716Y0395822D01*
X0039576Y0395872D01*
X0039438Y0395926D01*
X0039301Y0395984D01*
X0039166Y0396045D01*
X0039033Y0396109D01*
X0038901Y0396178D01*
X0038771Y0396250D01*
X0038644Y0396325D01*
X0038518Y0396404D01*
X0038394Y0396486D01*
X0038273Y0396571D01*
X0038154Y0396660D01*
X0038038Y0396751D01*
X0037924Y0396846D01*
X0037812Y0396944D01*
X0037704Y0397045D01*
X0037598Y0397149D01*
X0037495Y0397256D01*
X0037395Y0397365D01*
X0037297Y0397477D01*
X0037203Y0397592D01*
X0037112Y0397709D01*
X0037024Y0397828D01*
X0036940Y0397950D01*
X0036859Y0398074D01*
X0036781Y0398200D01*
X0036706Y0398329D01*
X0036635Y0398459D01*
X0036568Y0398591D01*
X0036504Y0398725D01*
X0036444Y0398860D01*
X0036387Y0398998D01*
X0036335Y0399136D01*
X0036285Y0399276D01*
X0036240Y0399417D01*
X0036199Y0399560D01*
X0036161Y0399703D01*
X0036127Y0399848D01*
X0036098Y0399993D01*
X0036072Y0400139D01*
X0036050Y0400286D01*
X0036032Y0400433D01*
X0036018Y0400581D01*
X0036008Y0400729D01*
X0036002Y0400877D01*
X0036000Y0401025D01*
X0036000Y0050975D02*
X0036002Y0051123D01*
X0036008Y0051271D01*
X0036018Y0051419D01*
X0036032Y0051567D01*
X0036050Y0051714D01*
X0036072Y0051861D01*
X0036098Y0052007D01*
X0036127Y0052152D01*
X0036161Y0052297D01*
X0036199Y0052440D01*
X0036240Y0052583D01*
X0036285Y0052724D01*
X0036335Y0052864D01*
X0036387Y0053002D01*
X0036444Y0053140D01*
X0036504Y0053275D01*
X0036568Y0053409D01*
X0036635Y0053541D01*
X0036706Y0053671D01*
X0036781Y0053800D01*
X0036859Y0053926D01*
X0036940Y0054050D01*
X0037024Y0054172D01*
X0037112Y0054291D01*
X0037203Y0054408D01*
X0037297Y0054523D01*
X0037395Y0054635D01*
X0037495Y0054744D01*
X0037598Y0054851D01*
X0037704Y0054955D01*
X0037812Y0055056D01*
X0037924Y0055154D01*
X0038038Y0055249D01*
X0038154Y0055340D01*
X0038273Y0055429D01*
X0038394Y0055514D01*
X0038518Y0055596D01*
X0038644Y0055675D01*
X0038771Y0055750D01*
X0038901Y0055822D01*
X0039033Y0055891D01*
X0039166Y0055955D01*
X0039301Y0056016D01*
X0039438Y0056074D01*
X0039576Y0056128D01*
X0039716Y0056178D01*
X0039857Y0056224D01*
X0039999Y0056266D01*
X0040142Y0056305D01*
X0040286Y0056339D01*
X0040432Y0056370D01*
X0040577Y0056397D01*
X0040724Y0056420D01*
X0040871Y0056439D01*
X0041019Y0056454D01*
X0041166Y0056465D01*
X0041315Y0056472D01*
X0041463Y0056475D01*
X0041611Y0056474D01*
X0041759Y0056469D01*
X0041907Y0056460D01*
X0042055Y0056447D01*
X0042203Y0056430D01*
X0042349Y0056409D01*
X0042496Y0056384D01*
X0042641Y0056355D01*
X0042786Y0056323D01*
X0042929Y0056286D01*
X0043072Y0056246D01*
X0043214Y0056201D01*
X0043354Y0056153D01*
X0043493Y0056101D01*
X0043630Y0056046D01*
X0043766Y0055986D01*
X0043901Y0055923D01*
X0044033Y0055857D01*
X0044164Y0055787D01*
X0044293Y0055713D01*
X0044419Y0055636D01*
X0044544Y0055556D01*
X0044666Y0055472D01*
X0044787Y0055385D01*
X0044904Y0055295D01*
X0045020Y0055201D01*
X0045132Y0055105D01*
X0045242Y0055006D01*
X0045350Y0054903D01*
X0045454Y0054798D01*
X0045556Y0054690D01*
X0045654Y0054579D01*
X0045750Y0054466D01*
X0045843Y0054350D01*
X0045932Y0054232D01*
X0046018Y0054111D01*
X0046101Y0053988D01*
X0046181Y0053863D01*
X0046257Y0053736D01*
X0046330Y0053606D01*
X0046399Y0053475D01*
X0046464Y0053342D01*
X0046527Y0053208D01*
X0046585Y0053071D01*
X0046640Y0052933D01*
X0046690Y0052794D01*
X0046738Y0052653D01*
X0046781Y0052512D01*
X0046821Y0052369D01*
X0046856Y0052225D01*
X0046888Y0052080D01*
X0046916Y0051934D01*
X0046940Y0051788D01*
X0046960Y0051641D01*
X0046976Y0051493D01*
X0046988Y0051346D01*
X0046996Y0051197D01*
X0047000Y0051049D01*
X0047000Y0050901D01*
X0046996Y0050753D01*
X0046988Y0050604D01*
X0046976Y0050457D01*
X0046960Y0050309D01*
X0046940Y0050162D01*
X0046916Y0050016D01*
X0046888Y0049870D01*
X0046856Y0049725D01*
X0046821Y0049581D01*
X0046781Y0049438D01*
X0046738Y0049297D01*
X0046690Y0049156D01*
X0046640Y0049017D01*
X0046585Y0048879D01*
X0046527Y0048742D01*
X0046464Y0048608D01*
X0046399Y0048475D01*
X0046330Y0048344D01*
X0046257Y0048214D01*
X0046181Y0048087D01*
X0046101Y0047962D01*
X0046018Y0047839D01*
X0045932Y0047718D01*
X0045843Y0047600D01*
X0045750Y0047484D01*
X0045654Y0047371D01*
X0045556Y0047260D01*
X0045454Y0047152D01*
X0045350Y0047047D01*
X0045242Y0046944D01*
X0045132Y0046845D01*
X0045020Y0046749D01*
X0044904Y0046655D01*
X0044787Y0046565D01*
X0044666Y0046478D01*
X0044544Y0046394D01*
X0044419Y0046314D01*
X0044293Y0046237D01*
X0044164Y0046163D01*
X0044033Y0046093D01*
X0043901Y0046027D01*
X0043766Y0045964D01*
X0043630Y0045904D01*
X0043493Y0045849D01*
X0043354Y0045797D01*
X0043214Y0045749D01*
X0043072Y0045704D01*
X0042929Y0045664D01*
X0042786Y0045627D01*
X0042641Y0045595D01*
X0042496Y0045566D01*
X0042349Y0045541D01*
X0042203Y0045520D01*
X0042055Y0045503D01*
X0041907Y0045490D01*
X0041759Y0045481D01*
X0041611Y0045476D01*
X0041463Y0045475D01*
X0041315Y0045478D01*
X0041166Y0045485D01*
X0041019Y0045496D01*
X0040871Y0045511D01*
X0040724Y0045530D01*
X0040577Y0045553D01*
X0040432Y0045580D01*
X0040286Y0045611D01*
X0040142Y0045645D01*
X0039999Y0045684D01*
X0039857Y0045726D01*
X0039716Y0045772D01*
X0039576Y0045822D01*
X0039438Y0045876D01*
X0039301Y0045934D01*
X0039166Y0045995D01*
X0039033Y0046059D01*
X0038901Y0046128D01*
X0038771Y0046200D01*
X0038644Y0046275D01*
X0038518Y0046354D01*
X0038394Y0046436D01*
X0038273Y0046521D01*
X0038154Y0046610D01*
X0038038Y0046701D01*
X0037924Y0046796D01*
X0037812Y0046894D01*
X0037704Y0046995D01*
X0037598Y0047099D01*
X0037495Y0047206D01*
X0037395Y0047315D01*
X0037297Y0047427D01*
X0037203Y0047542D01*
X0037112Y0047659D01*
X0037024Y0047778D01*
X0036940Y0047900D01*
X0036859Y0048024D01*
X0036781Y0048150D01*
X0036706Y0048279D01*
X0036635Y0048409D01*
X0036568Y0048541D01*
X0036504Y0048675D01*
X0036444Y0048810D01*
X0036387Y0048948D01*
X0036335Y0049086D01*
X0036285Y0049226D01*
X0036240Y0049367D01*
X0036199Y0049510D01*
X0036161Y0049653D01*
X0036127Y0049798D01*
X0036098Y0049943D01*
X0036072Y0050089D01*
X0036050Y0050236D01*
X0036032Y0050383D01*
X0036018Y0050531D01*
X0036008Y0050679D01*
X0036002Y0050827D01*
X0036000Y0050975D01*
D11*
X0041500Y0023500D02*
X0041500Y0008500D01*
X0121900Y0007935D02*
X0123435Y0006400D01*
X0126504Y0006400D01*
X0128039Y0007935D01*
X0128039Y0011004D01*
X0126504Y0012539D01*
X0123435Y0012539D01*
X0121900Y0011004D01*
X0121900Y0007935D01*
X0131108Y0006400D02*
X0131108Y0012539D01*
X0135712Y0012539D01*
X0137246Y0011004D01*
X0137246Y0006400D01*
X0140316Y0007935D02*
X0140316Y0011004D01*
X0141850Y0012539D01*
X0144920Y0012539D01*
X0146454Y0011004D01*
X0146454Y0009469D01*
X0140316Y0009469D01*
X0140316Y0007935D02*
X0141850Y0006400D01*
X0144920Y0006400D01*
X0149524Y0006400D02*
X0154128Y0006400D01*
X0155662Y0007935D01*
X0155662Y0011004D01*
X0154128Y0012539D01*
X0149524Y0012539D01*
X0149524Y0003331D01*
X0158731Y0007935D02*
X0160266Y0009469D01*
X0164870Y0009469D01*
X0164870Y0011004D02*
X0164870Y0006400D01*
X0160266Y0006400D01*
X0158731Y0007935D01*
X0160266Y0012539D02*
X0163335Y0012539D01*
X0164870Y0011004D01*
X0167939Y0011004D02*
X0167939Y0007935D01*
X0169474Y0006400D01*
X0174078Y0006400D01*
X0174078Y0004865D02*
X0174078Y0012539D01*
X0169474Y0012539D01*
X0167939Y0011004D01*
X0174078Y0004865D02*
X0172543Y0003331D01*
X0171009Y0003331D01*
X0177147Y0007935D02*
X0177147Y0011004D01*
X0178682Y0012539D01*
X0181751Y0012539D01*
X0183286Y0011004D01*
X0183286Y0009469D01*
X0177147Y0009469D01*
X0177147Y0007935D02*
X0178682Y0006400D01*
X0181751Y0006400D01*
X0186355Y0007935D02*
X0186355Y0011004D01*
X0187890Y0012539D01*
X0192494Y0012539D01*
X0195563Y0011004D02*
X0195563Y0007935D01*
X0197098Y0006400D01*
X0200167Y0006400D01*
X0201701Y0007935D01*
X0201701Y0011004D01*
X0200167Y0012539D01*
X0197098Y0012539D01*
X0195563Y0011004D01*
X0192494Y0006400D02*
X0187890Y0006400D01*
X0186355Y0007935D01*
X0204771Y0006400D02*
X0204771Y0012539D01*
X0206305Y0012539D01*
X0207840Y0011004D01*
X0209375Y0012539D01*
X0210909Y0011004D01*
X0210909Y0006400D01*
X0207840Y0006400D02*
X0207840Y0011004D01*
X0213979Y0012539D02*
X0218583Y0012539D01*
X0220117Y0011004D01*
X0220117Y0007935D01*
X0218583Y0006400D01*
X0213979Y0006400D01*
X0213979Y0003331D02*
X0213979Y0012539D01*
X0223186Y0012539D02*
X0223186Y0007935D01*
X0224721Y0006400D01*
X0229325Y0006400D01*
X0229325Y0012539D01*
X0232394Y0012539D02*
X0235464Y0012539D01*
X0233929Y0014073D02*
X0233929Y0007935D01*
X0235464Y0006400D01*
X0238533Y0007935D02*
X0238533Y0011004D01*
X0240068Y0012539D01*
X0243137Y0012539D01*
X0244671Y0011004D01*
X0244671Y0009469D01*
X0238533Y0009469D01*
X0238533Y0007935D02*
X0240068Y0006400D01*
X0243137Y0006400D01*
X0247741Y0006400D02*
X0247741Y0012539D01*
X0250810Y0012539D02*
X0247741Y0009469D01*
X0250810Y0012539D02*
X0252345Y0012539D01*
X0255414Y0007935D02*
X0256949Y0007935D01*
X0256949Y0006400D01*
X0255414Y0006400D01*
X0255414Y0007935D01*
X0260018Y0007935D02*
X0260018Y0011004D01*
X0261553Y0012539D01*
X0266156Y0012539D01*
X0269226Y0011004D02*
X0269226Y0007935D01*
X0270760Y0006400D01*
X0273830Y0006400D01*
X0275364Y0007935D01*
X0275364Y0011004D01*
X0273830Y0012539D01*
X0270760Y0012539D01*
X0269226Y0011004D01*
X0266156Y0006400D02*
X0261553Y0006400D01*
X0260018Y0007935D01*
X0278434Y0006400D02*
X0278434Y0012539D01*
X0279968Y0012539D01*
X0281503Y0011004D01*
X0283038Y0012539D01*
X0284572Y0011004D01*
X0284572Y0006400D01*
X0281503Y0006400D02*
X0281503Y0011004D01*
X0280760Y0436400D02*
X0283830Y0436400D01*
X0285364Y0437935D01*
X0288434Y0436400D02*
X0288434Y0442539D01*
X0291503Y0445608D01*
X0294572Y0442539D01*
X0294572Y0436400D01*
X0297642Y0436400D02*
X0297642Y0445608D01*
X0302245Y0445608D01*
X0303780Y0444073D01*
X0303780Y0441004D01*
X0302245Y0439469D01*
X0297642Y0439469D01*
X0300711Y0439469D02*
X0303780Y0436400D01*
X0306849Y0436400D02*
X0311453Y0436400D01*
X0312988Y0437935D01*
X0312988Y0444073D01*
X0311453Y0445608D01*
X0306849Y0445608D01*
X0306849Y0436400D01*
X0294572Y0441004D02*
X0288434Y0441004D01*
X0285364Y0444073D02*
X0283830Y0445608D01*
X0280760Y0445608D01*
X0279226Y0444073D01*
X0279226Y0437935D01*
X0280760Y0436400D01*
X0266949Y0436400D02*
X0260810Y0436400D01*
X0260810Y0445608D01*
X0266949Y0445608D01*
X0263879Y0441004D02*
X0260810Y0441004D01*
X0257741Y0441004D02*
X0256206Y0439469D01*
X0251602Y0439469D01*
X0251602Y0436400D02*
X0251602Y0445608D01*
X0256206Y0445608D01*
X0257741Y0444073D01*
X0257741Y0441004D01*
X0248533Y0444073D02*
X0245464Y0441004D01*
X0245464Y0436400D01*
X0245464Y0441004D02*
X0242394Y0444073D01*
X0242394Y0445608D01*
X0239325Y0445608D02*
X0233186Y0445608D01*
X0236256Y0445608D02*
X0236256Y0436400D01*
X0230117Y0437935D02*
X0230117Y0444073D01*
X0228583Y0445608D01*
X0225513Y0445608D01*
X0223979Y0444073D01*
X0223979Y0437935D01*
X0225513Y0436400D01*
X0228583Y0436400D01*
X0230117Y0437935D01*
X0220909Y0445608D02*
X0214771Y0445608D01*
X0217840Y0445608D02*
X0217840Y0436400D01*
X0211701Y0437935D02*
X0211701Y0444073D01*
X0210167Y0445608D01*
X0207098Y0445608D01*
X0205563Y0444073D01*
X0205563Y0437935D01*
X0207098Y0436400D01*
X0210167Y0436400D01*
X0211701Y0437935D01*
X0202494Y0436400D02*
X0199424Y0439469D01*
X0200959Y0439469D02*
X0196355Y0439469D01*
X0196355Y0436400D02*
X0196355Y0445608D01*
X0200959Y0445608D01*
X0202494Y0444073D01*
X0202494Y0441004D01*
X0200959Y0439469D01*
X0193286Y0441004D02*
X0193286Y0444073D01*
X0191751Y0445608D01*
X0187147Y0445608D01*
X0187147Y0436400D01*
X0187147Y0439469D02*
X0191751Y0439469D01*
X0193286Y0441004D01*
X0174870Y0436400D02*
X0168731Y0436400D01*
X0171801Y0436400D02*
X0171801Y0445608D01*
X0168731Y0442539D01*
X0165662Y0444073D02*
X0164128Y0445608D01*
X0161058Y0445608D01*
X0159524Y0444073D01*
X0159524Y0437935D01*
X0161058Y0436400D01*
X0164128Y0436400D01*
X0165662Y0437935D01*
X0156454Y0437935D02*
X0154920Y0436400D01*
X0151850Y0436400D01*
X0150316Y0437935D01*
X0150316Y0444073D01*
X0151850Y0445608D01*
X0154920Y0445608D01*
X0156454Y0444073D01*
X0147246Y0442539D02*
X0147246Y0436400D01*
X0147246Y0441004D02*
X0141108Y0441004D01*
X0141108Y0442539D02*
X0141108Y0436400D01*
X0134969Y0436400D02*
X0134969Y0441004D01*
X0138039Y0444073D01*
X0138039Y0445608D01*
X0141108Y0442539D02*
X0144177Y0445608D01*
X0147246Y0442539D01*
X0134969Y0441004D02*
X0131900Y0444073D01*
X0131900Y0445608D01*
X0248533Y0445608D02*
X0248533Y0444073D01*
X0325265Y0445608D02*
X0325265Y0439469D01*
X0328334Y0436400D01*
X0331404Y0439469D01*
X0331404Y0445608D01*
X0334473Y0442539D02*
X0337542Y0445608D01*
X0337542Y0436400D01*
X0334473Y0436400D02*
X0340612Y0436400D01*
X0343681Y0436400D02*
X0345215Y0436400D01*
X0345215Y0437935D01*
X0343681Y0437935D01*
X0343681Y0436400D01*
X0348285Y0437935D02*
X0354423Y0444073D01*
X0354423Y0437935D01*
X0352889Y0436400D01*
X0349819Y0436400D01*
X0348285Y0437935D01*
X0348285Y0444073D01*
X0349819Y0445608D01*
X0352889Y0445608D01*
X0354423Y0444073D01*
D12*
X0051500Y0411000D02*
X0051500Y0391000D01*
X0046500Y0391000D01*
X0046500Y0061000D01*
X0036500Y0061000D01*
X0031000Y0056000D01*
X0031000Y0041500D01*
X0026539Y0041512D02*
X0026539Y0410988D01*
X0026500Y0411000D02*
X0031000Y0411000D01*
X0031000Y0396000D01*
X0036500Y0391000D01*
X0046500Y0391000D01*
X0036500Y0401025D02*
X0036502Y0401166D01*
X0036508Y0401307D01*
X0036518Y0401447D01*
X0036532Y0401587D01*
X0036550Y0401727D01*
X0036571Y0401866D01*
X0036597Y0402005D01*
X0036626Y0402143D01*
X0036660Y0402279D01*
X0036697Y0402415D01*
X0036738Y0402550D01*
X0036783Y0402684D01*
X0036832Y0402816D01*
X0036884Y0402947D01*
X0036940Y0403076D01*
X0037000Y0403203D01*
X0037063Y0403329D01*
X0037129Y0403453D01*
X0037200Y0403576D01*
X0037273Y0403696D01*
X0037350Y0403814D01*
X0037430Y0403930D01*
X0037514Y0404043D01*
X0037600Y0404154D01*
X0037690Y0404263D01*
X0037783Y0404369D01*
X0037878Y0404472D01*
X0037977Y0404573D01*
X0038078Y0404671D01*
X0038182Y0404766D01*
X0038289Y0404858D01*
X0038398Y0404947D01*
X0038510Y0405032D01*
X0038624Y0405115D01*
X0038740Y0405195D01*
X0038859Y0405271D01*
X0038980Y0405343D01*
X0039102Y0405413D01*
X0039227Y0405478D01*
X0039353Y0405541D01*
X0039481Y0405599D01*
X0039611Y0405654D01*
X0039742Y0405706D01*
X0039875Y0405753D01*
X0040009Y0405797D01*
X0040144Y0405838D01*
X0040280Y0405874D01*
X0040417Y0405906D01*
X0040555Y0405935D01*
X0040693Y0405960D01*
X0040833Y0405980D01*
X0040973Y0405997D01*
X0041113Y0406010D01*
X0041254Y0406019D01*
X0041394Y0406024D01*
X0041535Y0406025D01*
X0041676Y0406022D01*
X0041817Y0406015D01*
X0041957Y0406004D01*
X0042097Y0405989D01*
X0042237Y0405970D01*
X0042376Y0405948D01*
X0042514Y0405921D01*
X0042652Y0405891D01*
X0042788Y0405856D01*
X0042924Y0405818D01*
X0043058Y0405776D01*
X0043192Y0405730D01*
X0043324Y0405681D01*
X0043454Y0405627D01*
X0043583Y0405570D01*
X0043710Y0405510D01*
X0043836Y0405446D01*
X0043959Y0405378D01*
X0044081Y0405307D01*
X0044201Y0405233D01*
X0044318Y0405155D01*
X0044433Y0405074D01*
X0044546Y0404990D01*
X0044657Y0404903D01*
X0044765Y0404812D01*
X0044870Y0404719D01*
X0044973Y0404622D01*
X0045073Y0404523D01*
X0045170Y0404421D01*
X0045264Y0404316D01*
X0045355Y0404209D01*
X0045443Y0404099D01*
X0045528Y0403987D01*
X0045610Y0403872D01*
X0045689Y0403755D01*
X0045764Y0403636D01*
X0045836Y0403515D01*
X0045904Y0403392D01*
X0045969Y0403267D01*
X0046031Y0403140D01*
X0046088Y0403011D01*
X0046143Y0402881D01*
X0046193Y0402750D01*
X0046240Y0402617D01*
X0046283Y0402483D01*
X0046322Y0402347D01*
X0046357Y0402211D01*
X0046389Y0402074D01*
X0046416Y0401936D01*
X0046440Y0401797D01*
X0046460Y0401657D01*
X0046476Y0401517D01*
X0046488Y0401377D01*
X0046496Y0401236D01*
X0046500Y0401095D01*
X0046500Y0400955D01*
X0046496Y0400814D01*
X0046488Y0400673D01*
X0046476Y0400533D01*
X0046460Y0400393D01*
X0046440Y0400253D01*
X0046416Y0400114D01*
X0046389Y0399976D01*
X0046357Y0399839D01*
X0046322Y0399703D01*
X0046283Y0399567D01*
X0046240Y0399433D01*
X0046193Y0399300D01*
X0046143Y0399169D01*
X0046088Y0399039D01*
X0046031Y0398910D01*
X0045969Y0398783D01*
X0045904Y0398658D01*
X0045836Y0398535D01*
X0045764Y0398414D01*
X0045689Y0398295D01*
X0045610Y0398178D01*
X0045528Y0398063D01*
X0045443Y0397951D01*
X0045355Y0397841D01*
X0045264Y0397734D01*
X0045170Y0397629D01*
X0045073Y0397527D01*
X0044973Y0397428D01*
X0044870Y0397331D01*
X0044765Y0397238D01*
X0044657Y0397147D01*
X0044546Y0397060D01*
X0044433Y0396976D01*
X0044318Y0396895D01*
X0044201Y0396817D01*
X0044081Y0396743D01*
X0043959Y0396672D01*
X0043836Y0396604D01*
X0043710Y0396540D01*
X0043583Y0396480D01*
X0043454Y0396423D01*
X0043324Y0396369D01*
X0043192Y0396320D01*
X0043058Y0396274D01*
X0042924Y0396232D01*
X0042788Y0396194D01*
X0042652Y0396159D01*
X0042514Y0396129D01*
X0042376Y0396102D01*
X0042237Y0396080D01*
X0042097Y0396061D01*
X0041957Y0396046D01*
X0041817Y0396035D01*
X0041676Y0396028D01*
X0041535Y0396025D01*
X0041394Y0396026D01*
X0041254Y0396031D01*
X0041113Y0396040D01*
X0040973Y0396053D01*
X0040833Y0396070D01*
X0040693Y0396090D01*
X0040555Y0396115D01*
X0040417Y0396144D01*
X0040280Y0396176D01*
X0040144Y0396212D01*
X0040009Y0396253D01*
X0039875Y0396297D01*
X0039742Y0396344D01*
X0039611Y0396396D01*
X0039481Y0396451D01*
X0039353Y0396509D01*
X0039227Y0396572D01*
X0039102Y0396637D01*
X0038980Y0396707D01*
X0038859Y0396779D01*
X0038740Y0396855D01*
X0038624Y0396935D01*
X0038510Y0397018D01*
X0038398Y0397103D01*
X0038289Y0397192D01*
X0038182Y0397284D01*
X0038078Y0397379D01*
X0037977Y0397477D01*
X0037878Y0397578D01*
X0037783Y0397681D01*
X0037690Y0397787D01*
X0037600Y0397896D01*
X0037514Y0398007D01*
X0037430Y0398120D01*
X0037350Y0398236D01*
X0037273Y0398354D01*
X0037200Y0398474D01*
X0037129Y0398597D01*
X0037063Y0398721D01*
X0037000Y0398847D01*
X0036940Y0398974D01*
X0036884Y0399103D01*
X0036832Y0399234D01*
X0036783Y0399366D01*
X0036738Y0399500D01*
X0036697Y0399635D01*
X0036660Y0399771D01*
X0036626Y0399907D01*
X0036597Y0400045D01*
X0036571Y0400184D01*
X0036550Y0400323D01*
X0036532Y0400463D01*
X0036518Y0400603D01*
X0036508Y0400743D01*
X0036502Y0400884D01*
X0036500Y0401025D01*
X0026500Y0393500D02*
X0005000Y0393500D01*
X0005000Y0389500D01*
X0001500Y0385500D01*
X0001500Y0066500D01*
X0005000Y0062500D01*
X0005000Y0058500D01*
X0026500Y0058500D01*
X0026000Y0062500D02*
X0005000Y0062500D01*
X0005000Y0389500D01*
X0026000Y0389500D01*
X0005000Y0393500D02*
X0001500Y0389500D01*
X0001500Y0385500D01*
X0031000Y0411000D02*
X0051500Y0411000D01*
X0001500Y0066500D02*
X0001500Y0062500D01*
X0005000Y0058500D01*
X0026500Y0041157D02*
X0051500Y0041157D01*
X0051500Y0061000D01*
X0046500Y0061000D01*
X0036500Y0050975D02*
X0036502Y0051116D01*
X0036508Y0051257D01*
X0036518Y0051397D01*
X0036532Y0051537D01*
X0036550Y0051677D01*
X0036571Y0051816D01*
X0036597Y0051955D01*
X0036626Y0052093D01*
X0036660Y0052229D01*
X0036697Y0052365D01*
X0036738Y0052500D01*
X0036783Y0052634D01*
X0036832Y0052766D01*
X0036884Y0052897D01*
X0036940Y0053026D01*
X0037000Y0053153D01*
X0037063Y0053279D01*
X0037129Y0053403D01*
X0037200Y0053526D01*
X0037273Y0053646D01*
X0037350Y0053764D01*
X0037430Y0053880D01*
X0037514Y0053993D01*
X0037600Y0054104D01*
X0037690Y0054213D01*
X0037783Y0054319D01*
X0037878Y0054422D01*
X0037977Y0054523D01*
X0038078Y0054621D01*
X0038182Y0054716D01*
X0038289Y0054808D01*
X0038398Y0054897D01*
X0038510Y0054982D01*
X0038624Y0055065D01*
X0038740Y0055145D01*
X0038859Y0055221D01*
X0038980Y0055293D01*
X0039102Y0055363D01*
X0039227Y0055428D01*
X0039353Y0055491D01*
X0039481Y0055549D01*
X0039611Y0055604D01*
X0039742Y0055656D01*
X0039875Y0055703D01*
X0040009Y0055747D01*
X0040144Y0055788D01*
X0040280Y0055824D01*
X0040417Y0055856D01*
X0040555Y0055885D01*
X0040693Y0055910D01*
X0040833Y0055930D01*
X0040973Y0055947D01*
X0041113Y0055960D01*
X0041254Y0055969D01*
X0041394Y0055974D01*
X0041535Y0055975D01*
X0041676Y0055972D01*
X0041817Y0055965D01*
X0041957Y0055954D01*
X0042097Y0055939D01*
X0042237Y0055920D01*
X0042376Y0055898D01*
X0042514Y0055871D01*
X0042652Y0055841D01*
X0042788Y0055806D01*
X0042924Y0055768D01*
X0043058Y0055726D01*
X0043192Y0055680D01*
X0043324Y0055631D01*
X0043454Y0055577D01*
X0043583Y0055520D01*
X0043710Y0055460D01*
X0043836Y0055396D01*
X0043959Y0055328D01*
X0044081Y0055257D01*
X0044201Y0055183D01*
X0044318Y0055105D01*
X0044433Y0055024D01*
X0044546Y0054940D01*
X0044657Y0054853D01*
X0044765Y0054762D01*
X0044870Y0054669D01*
X0044973Y0054572D01*
X0045073Y0054473D01*
X0045170Y0054371D01*
X0045264Y0054266D01*
X0045355Y0054159D01*
X0045443Y0054049D01*
X0045528Y0053937D01*
X0045610Y0053822D01*
X0045689Y0053705D01*
X0045764Y0053586D01*
X0045836Y0053465D01*
X0045904Y0053342D01*
X0045969Y0053217D01*
X0046031Y0053090D01*
X0046088Y0052961D01*
X0046143Y0052831D01*
X0046193Y0052700D01*
X0046240Y0052567D01*
X0046283Y0052433D01*
X0046322Y0052297D01*
X0046357Y0052161D01*
X0046389Y0052024D01*
X0046416Y0051886D01*
X0046440Y0051747D01*
X0046460Y0051607D01*
X0046476Y0051467D01*
X0046488Y0051327D01*
X0046496Y0051186D01*
X0046500Y0051045D01*
X0046500Y0050905D01*
X0046496Y0050764D01*
X0046488Y0050623D01*
X0046476Y0050483D01*
X0046460Y0050343D01*
X0046440Y0050203D01*
X0046416Y0050064D01*
X0046389Y0049926D01*
X0046357Y0049789D01*
X0046322Y0049653D01*
X0046283Y0049517D01*
X0046240Y0049383D01*
X0046193Y0049250D01*
X0046143Y0049119D01*
X0046088Y0048989D01*
X0046031Y0048860D01*
X0045969Y0048733D01*
X0045904Y0048608D01*
X0045836Y0048485D01*
X0045764Y0048364D01*
X0045689Y0048245D01*
X0045610Y0048128D01*
X0045528Y0048013D01*
X0045443Y0047901D01*
X0045355Y0047791D01*
X0045264Y0047684D01*
X0045170Y0047579D01*
X0045073Y0047477D01*
X0044973Y0047378D01*
X0044870Y0047281D01*
X0044765Y0047188D01*
X0044657Y0047097D01*
X0044546Y0047010D01*
X0044433Y0046926D01*
X0044318Y0046845D01*
X0044201Y0046767D01*
X0044081Y0046693D01*
X0043959Y0046622D01*
X0043836Y0046554D01*
X0043710Y0046490D01*
X0043583Y0046430D01*
X0043454Y0046373D01*
X0043324Y0046319D01*
X0043192Y0046270D01*
X0043058Y0046224D01*
X0042924Y0046182D01*
X0042788Y0046144D01*
X0042652Y0046109D01*
X0042514Y0046079D01*
X0042376Y0046052D01*
X0042237Y0046030D01*
X0042097Y0046011D01*
X0041957Y0045996D01*
X0041817Y0045985D01*
X0041676Y0045978D01*
X0041535Y0045975D01*
X0041394Y0045976D01*
X0041254Y0045981D01*
X0041113Y0045990D01*
X0040973Y0046003D01*
X0040833Y0046020D01*
X0040693Y0046040D01*
X0040555Y0046065D01*
X0040417Y0046094D01*
X0040280Y0046126D01*
X0040144Y0046162D01*
X0040009Y0046203D01*
X0039875Y0046247D01*
X0039742Y0046294D01*
X0039611Y0046346D01*
X0039481Y0046401D01*
X0039353Y0046459D01*
X0039227Y0046522D01*
X0039102Y0046587D01*
X0038980Y0046657D01*
X0038859Y0046729D01*
X0038740Y0046805D01*
X0038624Y0046885D01*
X0038510Y0046968D01*
X0038398Y0047053D01*
X0038289Y0047142D01*
X0038182Y0047234D01*
X0038078Y0047329D01*
X0037977Y0047427D01*
X0037878Y0047528D01*
X0037783Y0047631D01*
X0037690Y0047737D01*
X0037600Y0047846D01*
X0037514Y0047957D01*
X0037430Y0048070D01*
X0037350Y0048186D01*
X0037273Y0048304D01*
X0037200Y0048424D01*
X0037129Y0048547D01*
X0037063Y0048671D01*
X0037000Y0048797D01*
X0036940Y0048924D01*
X0036884Y0049053D01*
X0036832Y0049184D01*
X0036783Y0049316D01*
X0036738Y0049450D01*
X0036697Y0049585D01*
X0036660Y0049721D01*
X0036626Y0049857D01*
X0036597Y0049995D01*
X0036571Y0050134D01*
X0036550Y0050273D01*
X0036532Y0050413D01*
X0036518Y0050553D01*
X0036508Y0050693D01*
X0036502Y0050834D01*
X0036500Y0050975D01*
X0051500Y0041157D02*
X0051500Y0041000D01*
X0041500Y0023500D02*
X0041687Y0023743D01*
X0041879Y0023981D01*
X0042078Y0024214D01*
X0042282Y0024442D01*
X0042491Y0024665D01*
X0042706Y0024883D01*
X0042926Y0025096D01*
X0043151Y0025303D01*
X0043382Y0025505D01*
X0043617Y0025701D01*
X0043857Y0025891D01*
X0044101Y0026075D01*
X0044350Y0026253D01*
X0044604Y0026425D01*
X0044861Y0026591D01*
X0045122Y0026751D01*
X0045387Y0026904D01*
X0045656Y0027050D01*
X0045929Y0027190D01*
X0046204Y0027323D01*
X0046483Y0027449D01*
X0046765Y0027569D01*
X0047050Y0027681D01*
X0047337Y0027786D01*
X0047627Y0027885D01*
X0047919Y0027976D01*
X0048214Y0028060D01*
X0048510Y0028137D01*
X0048808Y0028207D01*
X0049108Y0028269D01*
X0049409Y0028324D01*
X0049711Y0028371D01*
X0050015Y0028411D01*
X0050319Y0028444D01*
X0050624Y0028469D01*
X0050930Y0028487D01*
X0051236Y0028497D01*
X0051542Y0028500D01*
X0051848Y0028495D01*
X0052154Y0028483D01*
X0052460Y0028463D01*
X0052764Y0028436D01*
X0053069Y0028401D01*
X0053372Y0028359D01*
X0053674Y0028310D01*
X0053975Y0028253D01*
X0054274Y0028188D01*
X0054572Y0028117D01*
X0054867Y0028038D01*
X0055161Y0027952D01*
X0055453Y0027859D01*
X0055742Y0027758D01*
X0056029Y0027651D01*
X0056313Y0027536D01*
X0056594Y0027415D01*
X0056872Y0027287D01*
X0057147Y0027152D01*
X0057418Y0027010D01*
X0057686Y0026862D01*
X0057950Y0026707D01*
X0058210Y0026546D01*
X0058466Y0026379D01*
X0058719Y0026205D01*
X0058966Y0026025D01*
X0059210Y0025839D01*
X0059448Y0025648D01*
X0059682Y0025450D01*
X0059911Y0025247D01*
X0060135Y0025038D01*
X0060354Y0024824D01*
X0060567Y0024604D01*
X0060775Y0024380D01*
X0060978Y0024150D01*
X0061174Y0023916D01*
X0061365Y0023676D01*
X0061550Y0023433D01*
X0061729Y0023184D01*
X0061902Y0022932D01*
X0062069Y0022675D01*
X0062229Y0022414D01*
X0062383Y0022149D01*
X0062530Y0021881D01*
X0062671Y0021609D01*
X0062805Y0021334D01*
X0062932Y0021055D01*
X0063053Y0020774D01*
X0063166Y0020489D01*
X0063272Y0020202D01*
X0063372Y0019913D01*
X0063464Y0019621D01*
X0063549Y0019327D01*
X0063627Y0019031D01*
X0063698Y0018733D01*
X0063761Y0018433D01*
X0063817Y0018132D01*
X0063865Y0017830D01*
X0063906Y0017527D01*
X0063940Y0017223D01*
X0063966Y0016918D01*
X0063985Y0016612D01*
X0063996Y0016306D01*
X0064000Y0016000D01*
X0063996Y0015694D01*
X0063985Y0015388D01*
X0063966Y0015082D01*
X0063940Y0014777D01*
X0063906Y0014473D01*
X0063865Y0014170D01*
X0063817Y0013868D01*
X0063761Y0013567D01*
X0063698Y0013267D01*
X0063627Y0012969D01*
X0063549Y0012673D01*
X0063464Y0012379D01*
X0063372Y0012087D01*
X0063272Y0011798D01*
X0063166Y0011511D01*
X0063053Y0011226D01*
X0062932Y0010945D01*
X0062805Y0010666D01*
X0062671Y0010391D01*
X0062530Y0010119D01*
X0062383Y0009851D01*
X0062229Y0009586D01*
X0062069Y0009325D01*
X0061902Y0009068D01*
X0061729Y0008816D01*
X0061550Y0008567D01*
X0061365Y0008324D01*
X0061174Y0008084D01*
X0060978Y0007850D01*
X0060775Y0007620D01*
X0060567Y0007396D01*
X0060354Y0007176D01*
X0060135Y0006962D01*
X0059911Y0006753D01*
X0059682Y0006550D01*
X0059448Y0006352D01*
X0059210Y0006161D01*
X0058966Y0005975D01*
X0058719Y0005795D01*
X0058466Y0005621D01*
X0058210Y0005454D01*
X0057950Y0005293D01*
X0057686Y0005138D01*
X0057418Y0004990D01*
X0057147Y0004848D01*
X0056872Y0004713D01*
X0056594Y0004585D01*
X0056313Y0004464D01*
X0056029Y0004349D01*
X0055742Y0004242D01*
X0055453Y0004141D01*
X0055161Y0004048D01*
X0054867Y0003962D01*
X0054572Y0003883D01*
X0054274Y0003812D01*
X0053975Y0003747D01*
X0053674Y0003690D01*
X0053372Y0003641D01*
X0053069Y0003599D01*
X0052764Y0003564D01*
X0052460Y0003537D01*
X0052154Y0003517D01*
X0051848Y0003505D01*
X0051542Y0003500D01*
X0051236Y0003503D01*
X0050930Y0003513D01*
X0050624Y0003531D01*
X0050319Y0003556D01*
X0050015Y0003589D01*
X0049711Y0003629D01*
X0049409Y0003676D01*
X0049108Y0003731D01*
X0048808Y0003793D01*
X0048510Y0003863D01*
X0048214Y0003940D01*
X0047919Y0004024D01*
X0047627Y0004115D01*
X0047337Y0004214D01*
X0047050Y0004319D01*
X0046765Y0004431D01*
X0046483Y0004551D01*
X0046204Y0004677D01*
X0045929Y0004810D01*
X0045656Y0004950D01*
X0045387Y0005096D01*
X0045122Y0005249D01*
X0044861Y0005409D01*
X0044604Y0005575D01*
X0044350Y0005747D01*
X0044101Y0005925D01*
X0043857Y0006109D01*
X0043617Y0006299D01*
X0043382Y0006495D01*
X0043151Y0006697D01*
X0042926Y0006904D01*
X0042706Y0007117D01*
X0042491Y0007335D01*
X0042282Y0007558D01*
X0042078Y0007786D01*
X0041879Y0008019D01*
X0041687Y0008257D01*
X0041500Y0008500D01*
D13*
X0041500Y0016000D02*
X0041503Y0016245D01*
X0041512Y0016491D01*
X0041527Y0016736D01*
X0041548Y0016980D01*
X0041575Y0017224D01*
X0041608Y0017467D01*
X0041647Y0017710D01*
X0041692Y0017951D01*
X0041743Y0018191D01*
X0041800Y0018430D01*
X0041862Y0018667D01*
X0041931Y0018903D01*
X0042005Y0019137D01*
X0042085Y0019369D01*
X0042170Y0019599D01*
X0042261Y0019827D01*
X0042358Y0020052D01*
X0042460Y0020276D01*
X0042568Y0020496D01*
X0042681Y0020714D01*
X0042799Y0020929D01*
X0042923Y0021141D01*
X0043051Y0021350D01*
X0043185Y0021556D01*
X0043324Y0021758D01*
X0043468Y0021957D01*
X0043617Y0022152D01*
X0043770Y0022344D01*
X0043928Y0022532D01*
X0044090Y0022716D01*
X0044258Y0022895D01*
X0044429Y0023071D01*
X0044605Y0023242D01*
X0044784Y0023410D01*
X0044968Y0023572D01*
X0045156Y0023730D01*
X0045348Y0023883D01*
X0045543Y0024032D01*
X0045742Y0024176D01*
X0045944Y0024315D01*
X0046150Y0024449D01*
X0046359Y0024577D01*
X0046571Y0024701D01*
X0046786Y0024819D01*
X0047004Y0024932D01*
X0047224Y0025040D01*
X0047448Y0025142D01*
X0047673Y0025239D01*
X0047901Y0025330D01*
X0048131Y0025415D01*
X0048363Y0025495D01*
X0048597Y0025569D01*
X0048833Y0025638D01*
X0049070Y0025700D01*
X0049309Y0025757D01*
X0049549Y0025808D01*
X0049790Y0025853D01*
X0050033Y0025892D01*
X0050276Y0025925D01*
X0050520Y0025952D01*
X0050764Y0025973D01*
X0051009Y0025988D01*
X0051255Y0025997D01*
X0051500Y0026000D01*
X0051745Y0025997D01*
X0051991Y0025988D01*
X0052236Y0025973D01*
X0052480Y0025952D01*
X0052724Y0025925D01*
X0052967Y0025892D01*
X0053210Y0025853D01*
X0053451Y0025808D01*
X0053691Y0025757D01*
X0053930Y0025700D01*
X0054167Y0025638D01*
X0054403Y0025569D01*
X0054637Y0025495D01*
X0054869Y0025415D01*
X0055099Y0025330D01*
X0055327Y0025239D01*
X0055552Y0025142D01*
X0055776Y0025040D01*
X0055996Y0024932D01*
X0056214Y0024819D01*
X0056429Y0024701D01*
X0056641Y0024577D01*
X0056850Y0024449D01*
X0057056Y0024315D01*
X0057258Y0024176D01*
X0057457Y0024032D01*
X0057652Y0023883D01*
X0057844Y0023730D01*
X0058032Y0023572D01*
X0058216Y0023410D01*
X0058395Y0023242D01*
X0058571Y0023071D01*
X0058742Y0022895D01*
X0058910Y0022716D01*
X0059072Y0022532D01*
X0059230Y0022344D01*
X0059383Y0022152D01*
X0059532Y0021957D01*
X0059676Y0021758D01*
X0059815Y0021556D01*
X0059949Y0021350D01*
X0060077Y0021141D01*
X0060201Y0020929D01*
X0060319Y0020714D01*
X0060432Y0020496D01*
X0060540Y0020276D01*
X0060642Y0020052D01*
X0060739Y0019827D01*
X0060830Y0019599D01*
X0060915Y0019369D01*
X0060995Y0019137D01*
X0061069Y0018903D01*
X0061138Y0018667D01*
X0061200Y0018430D01*
X0061257Y0018191D01*
X0061308Y0017951D01*
X0061353Y0017710D01*
X0061392Y0017467D01*
X0061425Y0017224D01*
X0061452Y0016980D01*
X0061473Y0016736D01*
X0061488Y0016491D01*
X0061497Y0016245D01*
X0061500Y0016000D01*
X0061497Y0015755D01*
X0061488Y0015509D01*
X0061473Y0015264D01*
X0061452Y0015020D01*
X0061425Y0014776D01*
X0061392Y0014533D01*
X0061353Y0014290D01*
X0061308Y0014049D01*
X0061257Y0013809D01*
X0061200Y0013570D01*
X0061138Y0013333D01*
X0061069Y0013097D01*
X0060995Y0012863D01*
X0060915Y0012631D01*
X0060830Y0012401D01*
X0060739Y0012173D01*
X0060642Y0011948D01*
X0060540Y0011724D01*
X0060432Y0011504D01*
X0060319Y0011286D01*
X0060201Y0011071D01*
X0060077Y0010859D01*
X0059949Y0010650D01*
X0059815Y0010444D01*
X0059676Y0010242D01*
X0059532Y0010043D01*
X0059383Y0009848D01*
X0059230Y0009656D01*
X0059072Y0009468D01*
X0058910Y0009284D01*
X0058742Y0009105D01*
X0058571Y0008929D01*
X0058395Y0008758D01*
X0058216Y0008590D01*
X0058032Y0008428D01*
X0057844Y0008270D01*
X0057652Y0008117D01*
X0057457Y0007968D01*
X0057258Y0007824D01*
X0057056Y0007685D01*
X0056850Y0007551D01*
X0056641Y0007423D01*
X0056429Y0007299D01*
X0056214Y0007181D01*
X0055996Y0007068D01*
X0055776Y0006960D01*
X0055552Y0006858D01*
X0055327Y0006761D01*
X0055099Y0006670D01*
X0054869Y0006585D01*
X0054637Y0006505D01*
X0054403Y0006431D01*
X0054167Y0006362D01*
X0053930Y0006300D01*
X0053691Y0006243D01*
X0053451Y0006192D01*
X0053210Y0006147D01*
X0052967Y0006108D01*
X0052724Y0006075D01*
X0052480Y0006048D01*
X0052236Y0006027D01*
X0051991Y0006012D01*
X0051745Y0006003D01*
X0051500Y0006000D01*
X0051255Y0006003D01*
X0051009Y0006012D01*
X0050764Y0006027D01*
X0050520Y0006048D01*
X0050276Y0006075D01*
X0050033Y0006108D01*
X0049790Y0006147D01*
X0049549Y0006192D01*
X0049309Y0006243D01*
X0049070Y0006300D01*
X0048833Y0006362D01*
X0048597Y0006431D01*
X0048363Y0006505D01*
X0048131Y0006585D01*
X0047901Y0006670D01*
X0047673Y0006761D01*
X0047448Y0006858D01*
X0047224Y0006960D01*
X0047004Y0007068D01*
X0046786Y0007181D01*
X0046571Y0007299D01*
X0046359Y0007423D01*
X0046150Y0007551D01*
X0045944Y0007685D01*
X0045742Y0007824D01*
X0045543Y0007968D01*
X0045348Y0008117D01*
X0045156Y0008270D01*
X0044968Y0008428D01*
X0044784Y0008590D01*
X0044605Y0008758D01*
X0044429Y0008929D01*
X0044258Y0009105D01*
X0044090Y0009284D01*
X0043928Y0009468D01*
X0043770Y0009656D01*
X0043617Y0009848D01*
X0043468Y0010043D01*
X0043324Y0010242D01*
X0043185Y0010444D01*
X0043051Y0010650D01*
X0042923Y0010859D01*
X0042799Y0011071D01*
X0042681Y0011286D01*
X0042568Y0011504D01*
X0042460Y0011724D01*
X0042358Y0011948D01*
X0042261Y0012173D01*
X0042170Y0012401D01*
X0042085Y0012631D01*
X0042005Y0012863D01*
X0041931Y0013097D01*
X0041862Y0013333D01*
X0041800Y0013570D01*
X0041743Y0013809D01*
X0041692Y0014049D01*
X0041647Y0014290D01*
X0041608Y0014533D01*
X0041575Y0014776D01*
X0041548Y0015020D01*
X0041527Y0015264D01*
X0041512Y0015509D01*
X0041503Y0015755D01*
X0041500Y0016000D01*
X0079000Y0012500D02*
X0079000Y0019500D01*
X0079002Y0019560D01*
X0079007Y0019621D01*
X0079016Y0019680D01*
X0079029Y0019739D01*
X0079045Y0019798D01*
X0079065Y0019855D01*
X0079088Y0019910D01*
X0079115Y0019965D01*
X0079144Y0020017D01*
X0079177Y0020068D01*
X0079213Y0020117D01*
X0079251Y0020163D01*
X0079293Y0020207D01*
X0079337Y0020249D01*
X0079383Y0020287D01*
X0079432Y0020323D01*
X0079483Y0020356D01*
X0079535Y0020385D01*
X0079590Y0020412D01*
X0079645Y0020435D01*
X0079702Y0020455D01*
X0079761Y0020471D01*
X0079820Y0020484D01*
X0079879Y0020493D01*
X0079940Y0020498D01*
X0080000Y0020500D01*
X0081500Y0020500D01*
X0082000Y0020000D01*
X0101000Y0020000D01*
X0101500Y0020500D01*
X0103000Y0020500D01*
X0103060Y0020498D01*
X0103121Y0020493D01*
X0103180Y0020484D01*
X0103239Y0020471D01*
X0103298Y0020455D01*
X0103355Y0020435D01*
X0103410Y0020412D01*
X0103465Y0020385D01*
X0103517Y0020356D01*
X0103568Y0020323D01*
X0103617Y0020287D01*
X0103663Y0020249D01*
X0103707Y0020207D01*
X0103749Y0020163D01*
X0103787Y0020117D01*
X0103823Y0020068D01*
X0103856Y0020017D01*
X0103885Y0019965D01*
X0103912Y0019910D01*
X0103935Y0019855D01*
X0103955Y0019798D01*
X0103971Y0019739D01*
X0103984Y0019680D01*
X0103993Y0019621D01*
X0103998Y0019560D01*
X0104000Y0019500D01*
X0104000Y0012500D01*
X0103998Y0012440D01*
X0103993Y0012379D01*
X0103984Y0012320D01*
X0103971Y0012261D01*
X0103955Y0012202D01*
X0103935Y0012145D01*
X0103912Y0012090D01*
X0103885Y0012035D01*
X0103856Y0011983D01*
X0103823Y0011932D01*
X0103787Y0011883D01*
X0103749Y0011837D01*
X0103707Y0011793D01*
X0103663Y0011751D01*
X0103617Y0011713D01*
X0103568Y0011677D01*
X0103517Y0011644D01*
X0103465Y0011615D01*
X0103410Y0011588D01*
X0103355Y0011565D01*
X0103298Y0011545D01*
X0103239Y0011529D01*
X0103180Y0011516D01*
X0103121Y0011507D01*
X0103060Y0011502D01*
X0103000Y0011500D01*
X0101500Y0011500D01*
X0101000Y0012000D01*
X0082000Y0012000D01*
X0081500Y0011500D01*
X0080000Y0011500D01*
X0079940Y0011502D01*
X0079879Y0011507D01*
X0079820Y0011516D01*
X0079761Y0011529D01*
X0079702Y0011545D01*
X0079645Y0011565D01*
X0079590Y0011588D01*
X0079535Y0011615D01*
X0079483Y0011644D01*
X0079432Y0011677D01*
X0079383Y0011713D01*
X0079337Y0011751D01*
X0079293Y0011793D01*
X0079251Y0011837D01*
X0079213Y0011883D01*
X0079177Y0011932D01*
X0079144Y0011983D01*
X0079115Y0012035D01*
X0079088Y0012090D01*
X0079065Y0012145D01*
X0079045Y0012202D01*
X0079029Y0012261D01*
X0079016Y0012320D01*
X0079007Y0012379D01*
X0079002Y0012440D01*
X0079000Y0012500D01*
X0089000Y0066000D02*
X0086500Y0068500D01*
X0086500Y0073500D01*
X0089000Y0076000D01*
X0086500Y0078500D01*
X0086500Y0083500D01*
X0089000Y0086000D01*
X0086500Y0088500D01*
X0086500Y0093500D01*
X0089000Y0096000D01*
X0086500Y0098500D01*
X0086500Y0103500D01*
X0089000Y0106000D01*
X0086500Y0108500D01*
X0086500Y0113500D01*
X0089000Y0116000D01*
X0086500Y0118500D01*
X0086500Y0123500D01*
X0089000Y0126000D01*
X0086500Y0128500D01*
X0086500Y0133500D01*
X0089000Y0136000D01*
X0086500Y0138500D01*
X0086500Y0143500D01*
X0089000Y0146000D01*
X0086500Y0148500D01*
X0086500Y0153500D01*
X0089000Y0156000D01*
X0086500Y0158500D01*
X0086500Y0163500D01*
X0089000Y0166000D01*
X0086500Y0168500D01*
X0086500Y0173500D01*
X0089000Y0176000D01*
X0086500Y0178500D01*
X0086500Y0183500D01*
X0089000Y0186000D01*
X0086500Y0188500D01*
X0086500Y0193500D01*
X0089000Y0196000D01*
X0086500Y0198500D01*
X0086500Y0203500D01*
X0089000Y0206000D01*
X0086500Y0208500D01*
X0086500Y0213500D01*
X0089000Y0216000D01*
X0086500Y0218500D01*
X0086500Y0223500D01*
X0089000Y0226000D01*
X0086500Y0228500D01*
X0086500Y0233500D01*
X0089000Y0236000D01*
X0086500Y0238500D01*
X0086500Y0243500D01*
X0089000Y0246000D01*
X0086500Y0248500D01*
X0086500Y0253500D01*
X0089000Y0256000D01*
X0086500Y0258500D01*
X0086500Y0263500D01*
X0089000Y0266000D01*
X0086500Y0268500D01*
X0086500Y0273500D01*
X0089000Y0276000D01*
X0086500Y0278500D01*
X0086500Y0283500D01*
X0089000Y0286000D01*
X0086500Y0288500D01*
X0086500Y0293500D01*
X0089000Y0296000D01*
X0086500Y0298500D01*
X0086500Y0303500D01*
X0089000Y0306000D01*
X0086500Y0308500D01*
X0086500Y0313500D01*
X0089000Y0316000D01*
X0086500Y0318500D01*
X0086500Y0323500D01*
X0089000Y0326000D01*
X0086500Y0328500D01*
X0086500Y0333500D01*
X0089000Y0336000D01*
X0086500Y0338500D01*
X0086500Y0343500D01*
X0089000Y0346000D01*
X0086500Y0348500D01*
X0086500Y0353500D01*
X0089000Y0356000D01*
X0086500Y0358500D01*
X0086500Y0363500D01*
X0089000Y0366000D01*
X0086500Y0368500D01*
X0086500Y0373500D01*
X0089000Y0376000D01*
X0086500Y0378500D01*
X0086500Y0383500D01*
X0089000Y0386000D01*
X0094000Y0386000D01*
X0096500Y0383500D01*
X0096500Y0378500D01*
X0094000Y0376000D01*
X0096500Y0373500D01*
X0096500Y0368500D01*
X0094000Y0366000D01*
X0096500Y0363500D01*
X0096500Y0358500D01*
X0094000Y0356000D01*
X0096500Y0353500D01*
X0096500Y0348500D01*
X0094000Y0346000D01*
X0096500Y0343500D01*
X0096500Y0338500D01*
X0094000Y0336000D01*
X0096500Y0333500D01*
X0096500Y0328500D01*
X0094000Y0326000D01*
X0096500Y0323500D01*
X0096500Y0318500D01*
X0094000Y0316000D01*
X0096500Y0313500D01*
X0096500Y0308500D01*
X0094000Y0306000D01*
X0096500Y0303500D01*
X0096500Y0298500D01*
X0094000Y0296000D01*
X0096500Y0293500D01*
X0096500Y0288500D01*
X0094000Y0286000D01*
X0096500Y0283500D01*
X0096500Y0278500D01*
X0094000Y0276000D01*
X0096500Y0273500D01*
X0096500Y0268500D01*
X0094000Y0266000D01*
X0089000Y0266000D01*
X0094000Y0266000D01*
X0096500Y0263500D01*
X0096500Y0258500D01*
X0094000Y0256000D01*
X0096500Y0253500D01*
X0096500Y0248500D01*
X0094000Y0246000D01*
X0096500Y0243500D01*
X0096500Y0238500D01*
X0094000Y0236000D01*
X0096500Y0233500D01*
X0096500Y0228500D01*
X0094000Y0226000D01*
X0096500Y0223500D01*
X0096500Y0218500D01*
X0094000Y0216000D01*
X0096500Y0213500D01*
X0096500Y0208500D01*
X0094000Y0206000D01*
X0096500Y0203500D01*
X0096500Y0198500D01*
X0094000Y0196000D01*
X0096500Y0193500D01*
X0096500Y0188500D01*
X0094000Y0186000D01*
X0096500Y0183500D01*
X0096500Y0178500D01*
X0094000Y0176000D01*
X0096500Y0173500D01*
X0096500Y0168500D01*
X0094000Y0166000D01*
X0096500Y0163500D01*
X0096500Y0158500D01*
X0094000Y0156000D01*
X0096500Y0153500D01*
X0096500Y0148500D01*
X0094000Y0146000D01*
X0096500Y0143500D01*
X0096500Y0138500D01*
X0094000Y0136000D01*
X0096500Y0133500D01*
X0096500Y0128500D01*
X0094000Y0126000D01*
X0096500Y0123500D01*
X0096500Y0118500D01*
X0094000Y0116000D01*
X0096500Y0113500D01*
X0096500Y0108500D01*
X0094000Y0106000D01*
X0096500Y0103500D01*
X0096500Y0098500D01*
X0094000Y0096000D01*
X0096500Y0093500D01*
X0096500Y0088500D01*
X0094000Y0086000D01*
X0096500Y0083500D01*
X0096500Y0078500D01*
X0094000Y0076000D01*
X0096500Y0073500D01*
X0096500Y0068500D01*
X0094000Y0066000D01*
X0089000Y0066000D01*
X0101500Y0068500D02*
X0104000Y0066000D01*
X0109000Y0066000D01*
X0111500Y0068500D01*
X0111500Y0073500D01*
X0109000Y0076000D01*
X0111500Y0078500D01*
X0111500Y0083500D01*
X0109000Y0086000D01*
X0111500Y0088500D01*
X0111500Y0093500D01*
X0109000Y0096000D01*
X0111500Y0098500D01*
X0111500Y0103500D01*
X0109000Y0106000D01*
X0111500Y0108500D01*
X0111500Y0113500D01*
X0109000Y0116000D01*
X0111500Y0118500D01*
X0111500Y0123500D01*
X0109000Y0126000D01*
X0111500Y0128500D01*
X0111500Y0133500D01*
X0109000Y0136000D01*
X0111500Y0138500D01*
X0111500Y0143500D01*
X0109000Y0146000D01*
X0111500Y0148500D01*
X0111500Y0153500D01*
X0109000Y0156000D01*
X0111500Y0158500D01*
X0111500Y0163500D01*
X0109000Y0166000D01*
X0111500Y0168500D01*
X0111500Y0173500D01*
X0109000Y0176000D01*
X0111500Y0178500D01*
X0111500Y0183500D01*
X0109000Y0186000D01*
X0111500Y0188500D01*
X0111500Y0193500D01*
X0109000Y0196000D01*
X0111500Y0198500D01*
X0111500Y0203500D01*
X0109000Y0206000D01*
X0111500Y0208500D01*
X0111500Y0213500D01*
X0109000Y0216000D01*
X0111500Y0218500D01*
X0111500Y0223500D01*
X0109000Y0226000D01*
X0111500Y0228500D01*
X0111500Y0233500D01*
X0109000Y0236000D01*
X0111500Y0238500D01*
X0111500Y0243500D01*
X0109000Y0246000D01*
X0111500Y0248500D01*
X0111500Y0253500D01*
X0109000Y0256000D01*
X0111500Y0258500D01*
X0111500Y0263500D01*
X0109000Y0266000D01*
X0111500Y0268500D01*
X0111500Y0273500D01*
X0109000Y0276000D01*
X0111500Y0278500D01*
X0111500Y0283500D01*
X0109000Y0286000D01*
X0111500Y0288500D01*
X0111500Y0293500D01*
X0109000Y0296000D01*
X0111500Y0298500D01*
X0111500Y0303500D01*
X0109000Y0306000D01*
X0111500Y0308500D01*
X0111500Y0313500D01*
X0109000Y0316000D01*
X0111500Y0318500D01*
X0111500Y0323500D01*
X0109000Y0326000D01*
X0111500Y0328500D01*
X0111500Y0333500D01*
X0109000Y0336000D01*
X0111500Y0338500D01*
X0111500Y0343500D01*
X0109000Y0346000D01*
X0111500Y0348500D01*
X0111500Y0353500D01*
X0109000Y0356000D01*
X0111500Y0358500D01*
X0111500Y0363500D01*
X0109000Y0366000D01*
X0111500Y0368500D01*
X0111500Y0373500D01*
X0109000Y0376000D01*
X0111500Y0378500D01*
X0111500Y0383500D01*
X0109000Y0386000D01*
X0104000Y0386000D01*
X0101500Y0383500D01*
X0101500Y0378500D01*
X0104000Y0376000D01*
X0101500Y0373500D01*
X0101500Y0368500D01*
X0104000Y0366000D01*
X0101500Y0363500D01*
X0101500Y0358500D01*
X0104000Y0356000D01*
X0101500Y0353500D01*
X0101500Y0348500D01*
X0104000Y0346000D01*
X0101500Y0343500D01*
X0101500Y0338500D01*
X0104000Y0336000D01*
X0101500Y0333500D01*
X0101500Y0328500D01*
X0104000Y0326000D01*
X0101500Y0323500D01*
X0101500Y0318500D01*
X0104000Y0316000D01*
X0101500Y0313500D01*
X0101500Y0308500D01*
X0104000Y0306000D01*
X0101500Y0303500D01*
X0101500Y0298500D01*
X0104000Y0296000D01*
X0101500Y0293500D01*
X0101500Y0288500D01*
X0104000Y0286000D01*
X0101500Y0283500D01*
X0101500Y0278500D01*
X0104000Y0276000D01*
X0101500Y0273500D01*
X0101500Y0268500D01*
X0104000Y0266000D01*
X0109000Y0266000D01*
X0104000Y0266000D01*
X0101500Y0263500D01*
X0101500Y0258500D01*
X0104000Y0256000D01*
X0101500Y0253500D01*
X0101500Y0248500D01*
X0104000Y0246000D01*
X0101500Y0243500D01*
X0101500Y0238500D01*
X0104000Y0236000D01*
X0101500Y0233500D01*
X0101500Y0228500D01*
X0104000Y0226000D01*
X0101500Y0223500D01*
X0101500Y0218500D01*
X0104000Y0216000D01*
X0101500Y0213500D01*
X0101500Y0208500D01*
X0104000Y0206000D01*
X0101500Y0203500D01*
X0101500Y0198500D01*
X0104000Y0196000D01*
X0101500Y0193500D01*
X0101500Y0188500D01*
X0104000Y0186000D01*
X0101500Y0183500D01*
X0101500Y0178500D01*
X0104000Y0176000D01*
X0101500Y0173500D01*
X0101500Y0168500D01*
X0104000Y0166000D01*
X0101500Y0163500D01*
X0101500Y0158500D01*
X0104000Y0156000D01*
X0101500Y0153500D01*
X0101500Y0148500D01*
X0104000Y0146000D01*
X0101500Y0143500D01*
X0101500Y0138500D01*
X0104000Y0136000D01*
X0101500Y0133500D01*
X0101500Y0128500D01*
X0104000Y0126000D01*
X0101500Y0123500D01*
X0101500Y0118500D01*
X0104000Y0116000D01*
X0101500Y0113500D01*
X0101500Y0108500D01*
X0104000Y0106000D01*
X0101500Y0103500D01*
X0101500Y0098500D01*
X0104000Y0096000D01*
X0101500Y0093500D01*
X0101500Y0088500D01*
X0104000Y0086000D01*
X0101500Y0083500D01*
X0101500Y0078500D01*
X0104000Y0076000D01*
X0101500Y0073500D01*
X0101500Y0068500D01*
X0116500Y0068500D02*
X0119000Y0066000D01*
X0124000Y0066000D01*
X0126500Y0068500D01*
X0126500Y0073500D01*
X0124000Y0076000D01*
X0126500Y0078500D01*
X0126500Y0083500D01*
X0124000Y0086000D01*
X0126500Y0088500D01*
X0126500Y0093500D01*
X0124000Y0096000D01*
X0126500Y0098500D01*
X0126500Y0103500D01*
X0124000Y0106000D01*
X0126500Y0108500D01*
X0126500Y0113500D01*
X0124000Y0116000D01*
X0126500Y0118500D01*
X0126500Y0123500D01*
X0124000Y0126000D01*
X0126500Y0128500D01*
X0126500Y0133500D01*
X0124000Y0136000D01*
X0126500Y0138500D01*
X0126500Y0143500D01*
X0124000Y0146000D01*
X0126500Y0148500D01*
X0126500Y0153500D01*
X0124000Y0156000D01*
X0126500Y0158500D01*
X0126500Y0163500D01*
X0124000Y0166000D01*
X0126500Y0168500D01*
X0126500Y0173500D01*
X0124000Y0176000D01*
X0126500Y0178500D01*
X0126500Y0183500D01*
X0124000Y0186000D01*
X0126500Y0188500D01*
X0126500Y0193500D01*
X0124000Y0196000D01*
X0126500Y0198500D01*
X0126500Y0203500D01*
X0124000Y0206000D01*
X0126500Y0208500D01*
X0126500Y0213500D01*
X0124000Y0216000D01*
X0126500Y0218500D01*
X0126500Y0223500D01*
X0124000Y0226000D01*
X0126500Y0228500D01*
X0126500Y0233500D01*
X0124000Y0236000D01*
X0126500Y0238500D01*
X0126500Y0243500D01*
X0124000Y0246000D01*
X0126500Y0248500D01*
X0126500Y0253500D01*
X0124000Y0256000D01*
X0126500Y0258500D01*
X0126500Y0263500D01*
X0124000Y0266000D01*
X0126500Y0268500D01*
X0126500Y0273500D01*
X0124000Y0276000D01*
X0126500Y0278500D01*
X0126500Y0283500D01*
X0124000Y0286000D01*
X0126500Y0288500D01*
X0126500Y0293500D01*
X0124000Y0296000D01*
X0126500Y0298500D01*
X0126500Y0303500D01*
X0124000Y0306000D01*
X0126500Y0308500D01*
X0126500Y0313500D01*
X0124000Y0316000D01*
X0126500Y0318500D01*
X0126500Y0323500D01*
X0124000Y0326000D01*
X0126500Y0328500D01*
X0126500Y0333500D01*
X0124000Y0336000D01*
X0126500Y0338500D01*
X0126500Y0343500D01*
X0124000Y0346000D01*
X0126500Y0348500D01*
X0126500Y0353500D01*
X0124000Y0356000D01*
X0126500Y0358500D01*
X0126500Y0363500D01*
X0124000Y0366000D01*
X0126500Y0368500D01*
X0126500Y0373500D01*
X0124000Y0376000D01*
X0126500Y0378500D01*
X0126500Y0383500D01*
X0124000Y0386000D01*
X0119000Y0386000D01*
X0116500Y0383500D01*
X0116500Y0378500D01*
X0119000Y0376000D01*
X0116500Y0373500D01*
X0116500Y0368500D01*
X0119000Y0366000D01*
X0116500Y0363500D01*
X0116500Y0358500D01*
X0119000Y0356000D01*
X0116500Y0353500D01*
X0116500Y0348500D01*
X0119000Y0346000D01*
X0116500Y0343500D01*
X0116500Y0338500D01*
X0119000Y0336000D01*
X0116500Y0333500D01*
X0116500Y0328500D01*
X0119000Y0326000D01*
X0116500Y0323500D01*
X0116500Y0318500D01*
X0119000Y0316000D01*
X0116500Y0313500D01*
X0116500Y0308500D01*
X0119000Y0306000D01*
X0116500Y0303500D01*
X0116500Y0298500D01*
X0119000Y0296000D01*
X0116500Y0293500D01*
X0116500Y0288500D01*
X0119000Y0286000D01*
X0116500Y0283500D01*
X0116500Y0278500D01*
X0119000Y0276000D01*
X0116500Y0273500D01*
X0116500Y0268500D01*
X0119000Y0266000D01*
X0124000Y0266000D01*
X0119000Y0266000D01*
X0116500Y0263500D01*
X0116500Y0258500D01*
X0119000Y0256000D01*
X0116500Y0253500D01*
X0116500Y0248500D01*
X0119000Y0246000D01*
X0116500Y0243500D01*
X0116500Y0238500D01*
X0119000Y0236000D01*
X0116500Y0233500D01*
X0116500Y0228500D01*
X0119000Y0226000D01*
X0116500Y0223500D01*
X0116500Y0218500D01*
X0119000Y0216000D01*
X0116500Y0213500D01*
X0116500Y0208500D01*
X0119000Y0206000D01*
X0116500Y0203500D01*
X0116500Y0198500D01*
X0119000Y0196000D01*
X0116500Y0193500D01*
X0116500Y0188500D01*
X0119000Y0186000D01*
X0116500Y0183500D01*
X0116500Y0178500D01*
X0119000Y0176000D01*
X0116500Y0173500D01*
X0116500Y0168500D01*
X0119000Y0166000D01*
X0116500Y0163500D01*
X0116500Y0158500D01*
X0119000Y0156000D01*
X0116500Y0153500D01*
X0116500Y0148500D01*
X0119000Y0146000D01*
X0116500Y0143500D01*
X0116500Y0138500D01*
X0119000Y0136000D01*
X0116500Y0133500D01*
X0116500Y0128500D01*
X0119000Y0126000D01*
X0116500Y0123500D01*
X0116500Y0118500D01*
X0119000Y0116000D01*
X0116500Y0113500D01*
X0116500Y0108500D01*
X0119000Y0106000D01*
X0116500Y0103500D01*
X0116500Y0098500D01*
X0119000Y0096000D01*
X0116500Y0093500D01*
X0116500Y0088500D01*
X0119000Y0086000D01*
X0116500Y0083500D01*
X0116500Y0078500D01*
X0119000Y0076000D01*
X0116500Y0073500D01*
X0116500Y0068500D01*
D14*
X0025438Y0013654D02*
X0025438Y0009150D01*
X0025438Y0010651D02*
X0027690Y0010651D01*
X0028441Y0011402D01*
X0028441Y0012903D01*
X0027690Y0013654D01*
X0025438Y0013654D01*
X0030042Y0013654D02*
X0030042Y0009150D01*
X0031543Y0010651D01*
X0033045Y0009150D01*
X0033045Y0013654D01*
X0034646Y0013654D02*
X0036898Y0013654D01*
X0037649Y0012903D01*
X0037649Y0011402D01*
X0036898Y0010651D01*
X0034646Y0010651D01*
X0034646Y0009150D02*
X0034646Y0013654D01*
X0036147Y0010651D02*
X0037649Y0009150D01*
X0079750Y0022250D02*
X0079750Y0026754D01*
X0082002Y0026754D01*
X0082753Y0026003D01*
X0082753Y0024502D01*
X0082002Y0023751D01*
X0079750Y0023751D01*
X0081251Y0023751D02*
X0082753Y0022250D01*
X0084354Y0022250D02*
X0087356Y0022250D01*
X0085855Y0022250D02*
X0085855Y0026754D01*
X0084354Y0025253D01*
X0085102Y0018254D02*
X0085853Y0017503D01*
X0085853Y0016753D01*
X0085102Y0016002D01*
X0085853Y0015251D01*
X0085853Y0014501D01*
X0085102Y0013750D01*
X0083601Y0013750D01*
X0082850Y0014501D01*
X0084351Y0016002D02*
X0085102Y0016002D01*
X0085102Y0018254D02*
X0083601Y0018254D01*
X0082850Y0017503D01*
X0087454Y0017503D02*
X0088205Y0018254D01*
X0089706Y0018254D01*
X0090456Y0017503D01*
X0090456Y0016753D01*
X0089706Y0016002D01*
X0090456Y0015251D01*
X0090456Y0014501D01*
X0089706Y0013750D01*
X0088205Y0013750D01*
X0087454Y0014501D01*
X0088955Y0016002D02*
X0089706Y0016002D01*
X0092058Y0017503D02*
X0092808Y0018254D01*
X0094310Y0018254D01*
X0095060Y0017503D01*
X0092058Y0014501D01*
X0092808Y0013750D01*
X0094310Y0013750D01*
X0095060Y0014501D01*
X0095060Y0017503D01*
X0092058Y0017503D02*
X0092058Y0014501D01*
X0072149Y0061250D02*
X0069897Y0061250D01*
X0069146Y0062001D01*
X0069146Y0063502D01*
X0069897Y0064253D01*
X0072149Y0064253D01*
X0080246Y0067001D02*
X0080246Y0068502D01*
X0080997Y0069253D01*
X0082498Y0068502D02*
X0083249Y0069253D01*
X0083999Y0069253D01*
X0084750Y0068502D01*
X0084750Y0067001D01*
X0083999Y0066250D01*
X0082498Y0067001D02*
X0082498Y0068502D01*
X0082498Y0067001D02*
X0081747Y0066250D01*
X0080997Y0066250D01*
X0080246Y0067001D01*
X0080246Y0070854D02*
X0083249Y0070854D01*
X0084750Y0072355D01*
X0083249Y0073856D01*
X0080246Y0073856D01*
X0081747Y0075458D02*
X0080246Y0076959D01*
X0084750Y0076959D01*
X0084750Y0075458D02*
X0084750Y0078460D01*
X0095246Y0077710D02*
X0095246Y0076208D01*
X0095997Y0075458D01*
X0095246Y0073856D02*
X0098249Y0073856D01*
X0099750Y0072355D01*
X0098249Y0070854D01*
X0095246Y0070854D01*
X0095997Y0069253D02*
X0095246Y0068502D01*
X0095246Y0067001D01*
X0095997Y0066250D01*
X0096747Y0066250D01*
X0097498Y0067001D01*
X0097498Y0068502D01*
X0098249Y0069253D01*
X0098999Y0069253D01*
X0099750Y0068502D01*
X0099750Y0067001D01*
X0098999Y0066250D01*
X0099247Y0070250D02*
X0097746Y0071751D01*
X0102250Y0071751D01*
X0102250Y0070250D02*
X0102250Y0073253D01*
X0099750Y0075458D02*
X0096747Y0078460D01*
X0095997Y0078460D01*
X0095246Y0077710D01*
X0099750Y0078460D02*
X0099750Y0075458D01*
X0110246Y0076208D02*
X0110246Y0077710D01*
X0110997Y0078460D01*
X0111747Y0078460D01*
X0112498Y0077710D01*
X0113249Y0078460D01*
X0113999Y0078460D01*
X0114750Y0077710D01*
X0114750Y0076208D01*
X0113999Y0075458D01*
X0113249Y0073856D02*
X0110246Y0073856D01*
X0110997Y0075458D02*
X0110246Y0076208D01*
X0112498Y0076959D02*
X0112498Y0077710D01*
X0113249Y0073856D02*
X0114750Y0072355D01*
X0113249Y0070854D01*
X0110246Y0070854D01*
X0110997Y0069253D02*
X0110246Y0068502D01*
X0110246Y0067001D01*
X0110997Y0066250D01*
X0111747Y0066250D01*
X0112498Y0067001D01*
X0112498Y0068502D01*
X0113249Y0069253D01*
X0113999Y0069253D01*
X0114750Y0068502D01*
X0114750Y0067001D01*
X0113999Y0066250D01*
X0114247Y0070250D02*
X0112746Y0071751D01*
X0117250Y0071751D01*
X0117250Y0070250D02*
X0117250Y0073253D01*
X0127746Y0071751D02*
X0132250Y0071751D01*
X0132250Y0070250D02*
X0132250Y0073253D01*
X0129247Y0070250D02*
X0127746Y0071751D01*
X0062149Y0063502D02*
X0062149Y0062001D01*
X0061398Y0061250D01*
X0059146Y0061250D01*
X0059146Y0065754D01*
X0059146Y0064253D02*
X0061398Y0064253D01*
X0062149Y0063502D01*
X0052149Y0063502D02*
X0052149Y0061250D01*
X0049897Y0061250D01*
X0049146Y0062001D01*
X0049897Y0062751D01*
X0052149Y0062751D01*
X0052149Y0063502D02*
X0051398Y0064253D01*
X0049897Y0064253D01*
X0013750Y0091745D02*
X0013750Y0093997D01*
X0012999Y0094748D01*
X0009997Y0094748D01*
X0009246Y0093997D01*
X0009246Y0091745D01*
X0013750Y0091745D01*
X0013750Y0096349D02*
X0013750Y0097851D01*
X0013750Y0097100D02*
X0009246Y0097100D01*
X0009246Y0096349D02*
X0009246Y0097851D01*
X0009246Y0099419D02*
X0013750Y0102421D01*
X0009246Y0102421D01*
X0011498Y0104022D02*
X0011498Y0107025D01*
X0010747Y0108626D02*
X0009246Y0110128D01*
X0013750Y0110128D01*
X0013750Y0111629D02*
X0013750Y0108626D01*
X0013750Y0106274D02*
X0009246Y0106274D01*
X0011498Y0104022D01*
X0013750Y0099419D02*
X0009246Y0099419D01*
X0011498Y0113230D02*
X0011498Y0115482D01*
X0012249Y0116233D01*
X0012999Y0116233D01*
X0013750Y0115482D01*
X0013750Y0113981D01*
X0012999Y0113230D01*
X0011498Y0113230D01*
X0009997Y0114732D01*
X0009246Y0116233D01*
X0010747Y0117834D02*
X0009246Y0119335D01*
X0013750Y0119335D01*
X0013750Y0117834D02*
X0013750Y0120837D01*
X0013750Y0122438D02*
X0010747Y0125441D01*
X0009997Y0125441D01*
X0009246Y0124690D01*
X0009246Y0123189D01*
X0009997Y0122438D01*
X0013750Y0122438D02*
X0013750Y0125441D01*
X0011498Y0127042D02*
X0011498Y0130045D01*
X0012249Y0131646D02*
X0012249Y0133898D01*
X0011498Y0134649D01*
X0009997Y0134649D01*
X0009246Y0133898D01*
X0009246Y0131646D01*
X0013750Y0131646D01*
X0012249Y0133147D02*
X0013750Y0134649D01*
X0098246Y0160251D02*
X0102750Y0160251D01*
X0102750Y0158750D02*
X0102750Y0161753D01*
X0101999Y0163354D02*
X0098997Y0166356D01*
X0101999Y0166356D01*
X0102750Y0165606D01*
X0102750Y0164105D01*
X0101999Y0163354D01*
X0098997Y0163354D01*
X0098246Y0164105D01*
X0098246Y0165606D01*
X0098997Y0166356D01*
X0098246Y0160251D02*
X0099747Y0158750D01*
X0113246Y0160251D02*
X0117750Y0160251D01*
X0117750Y0158750D02*
X0117750Y0161753D01*
X0116999Y0163354D02*
X0113997Y0166356D01*
X0116999Y0166356D01*
X0117750Y0165606D01*
X0117750Y0164105D01*
X0116999Y0163354D01*
X0113997Y0163354D01*
X0113246Y0164105D01*
X0113246Y0165606D01*
X0113997Y0166356D01*
X0113246Y0160251D02*
X0114747Y0158750D01*
X0128246Y0160251D02*
X0132750Y0160251D01*
X0132750Y0158750D02*
X0132750Y0161753D01*
X0131999Y0163354D02*
X0128997Y0166356D01*
X0131999Y0166356D01*
X0132750Y0165606D01*
X0132750Y0164105D01*
X0131999Y0163354D01*
X0128997Y0163354D01*
X0128246Y0164105D01*
X0128246Y0165606D01*
X0128997Y0166356D01*
X0128246Y0160251D02*
X0129747Y0158750D01*
X0128997Y0257750D02*
X0128246Y0258501D01*
X0128246Y0260002D01*
X0128997Y0260753D01*
X0129747Y0260753D01*
X0132750Y0257750D01*
X0132750Y0260753D01*
X0131999Y0262354D02*
X0128997Y0265356D01*
X0131999Y0265356D01*
X0132750Y0264606D01*
X0132750Y0263105D01*
X0131999Y0262354D01*
X0128997Y0262354D01*
X0128246Y0263105D01*
X0128246Y0264606D01*
X0128997Y0265356D01*
X0129747Y0269750D02*
X0128246Y0271251D01*
X0132750Y0271251D01*
X0132750Y0269750D02*
X0132750Y0272753D01*
X0117750Y0272753D02*
X0117750Y0269750D01*
X0117750Y0271251D02*
X0113246Y0271251D01*
X0114747Y0269750D01*
X0113499Y0269253D02*
X0114250Y0268502D01*
X0114250Y0267001D01*
X0113499Y0266250D01*
X0113997Y0265356D02*
X0116999Y0262354D01*
X0117750Y0263105D01*
X0117750Y0264606D01*
X0116999Y0265356D01*
X0113997Y0265356D01*
X0113246Y0264606D01*
X0113246Y0263105D01*
X0113997Y0262354D01*
X0116999Y0262354D01*
X0117750Y0260753D02*
X0117750Y0257750D01*
X0114747Y0260753D01*
X0113997Y0260753D01*
X0113246Y0260002D01*
X0113246Y0258501D01*
X0113997Y0257750D01*
X0102750Y0257750D02*
X0099747Y0260753D01*
X0098997Y0260753D01*
X0098246Y0260002D01*
X0098246Y0258501D01*
X0098997Y0257750D01*
X0102750Y0257750D02*
X0102750Y0260753D01*
X0101999Y0262354D02*
X0098997Y0265356D01*
X0101999Y0265356D01*
X0102750Y0264606D01*
X0102750Y0263105D01*
X0101999Y0262354D01*
X0098997Y0262354D01*
X0098246Y0263105D01*
X0098246Y0264606D01*
X0098997Y0265356D01*
X0098499Y0266250D02*
X0099250Y0267001D01*
X0099250Y0268502D01*
X0098499Y0269253D01*
X0097749Y0269253D01*
X0096998Y0268502D01*
X0096998Y0267001D01*
X0096247Y0266250D01*
X0095497Y0266250D01*
X0094746Y0267001D01*
X0094746Y0268502D01*
X0095497Y0269253D01*
X0094746Y0270854D02*
X0097749Y0270854D01*
X0099250Y0272355D01*
X0097749Y0273856D01*
X0094746Y0273856D01*
X0094746Y0275458D02*
X0096998Y0275458D01*
X0096247Y0276959D01*
X0096247Y0277710D01*
X0096998Y0278460D01*
X0098499Y0278460D01*
X0099250Y0277710D01*
X0099250Y0276208D01*
X0098499Y0275458D01*
X0094746Y0275458D02*
X0094746Y0278460D01*
X0098246Y0271251D02*
X0102750Y0271251D01*
X0102750Y0269750D02*
X0102750Y0272753D01*
X0099747Y0269750D02*
X0098246Y0271251D01*
X0109746Y0270854D02*
X0112749Y0270854D01*
X0114250Y0272355D01*
X0112749Y0273856D01*
X0109746Y0273856D01*
X0111998Y0275458D02*
X0111998Y0277710D01*
X0112749Y0278460D01*
X0113499Y0278460D01*
X0114250Y0277710D01*
X0114250Y0276208D01*
X0113499Y0275458D01*
X0111998Y0275458D01*
X0110497Y0276959D01*
X0109746Y0278460D01*
X0110497Y0269253D02*
X0109746Y0268502D01*
X0109746Y0267001D01*
X0110497Y0266250D01*
X0111247Y0266250D01*
X0111998Y0267001D01*
X0111998Y0268502D01*
X0112749Y0269253D01*
X0113499Y0269253D01*
X0084250Y0268502D02*
X0084250Y0267001D01*
X0083499Y0266250D01*
X0081998Y0267001D02*
X0081998Y0268502D01*
X0082749Y0269253D01*
X0083499Y0269253D01*
X0084250Y0268502D01*
X0081998Y0267001D02*
X0081247Y0266250D01*
X0080497Y0266250D01*
X0079746Y0267001D01*
X0079746Y0268502D01*
X0080497Y0269253D01*
X0079746Y0270854D02*
X0082749Y0270854D01*
X0084250Y0272355D01*
X0082749Y0273856D01*
X0079746Y0273856D01*
X0081998Y0275458D02*
X0079746Y0277710D01*
X0084250Y0277710D01*
X0081998Y0278460D02*
X0081998Y0275458D01*
X0038750Y0274022D02*
X0034246Y0274022D01*
X0034246Y0277025D01*
X0035747Y0278626D02*
X0034246Y0280128D01*
X0035747Y0281629D01*
X0038750Y0281629D01*
X0038750Y0283230D02*
X0038750Y0285482D01*
X0037999Y0286233D01*
X0037249Y0286233D01*
X0036498Y0285482D01*
X0036498Y0283230D01*
X0036498Y0281629D02*
X0036498Y0278626D01*
X0035747Y0278626D02*
X0038750Y0278626D01*
X0036498Y0275524D02*
X0036498Y0274022D01*
X0034246Y0283230D02*
X0034246Y0285482D01*
X0034997Y0286233D01*
X0035747Y0286233D01*
X0036498Y0285482D01*
X0034997Y0287834D02*
X0037999Y0287834D01*
X0038750Y0288585D01*
X0038750Y0290086D01*
X0037999Y0290837D01*
X0037999Y0292438D02*
X0038750Y0293189D01*
X0038750Y0294690D01*
X0037999Y0295441D01*
X0034997Y0295441D01*
X0034246Y0294690D01*
X0034246Y0293189D01*
X0034997Y0292438D01*
X0035747Y0292438D01*
X0036498Y0293189D01*
X0036498Y0295441D01*
X0036498Y0297042D02*
X0036498Y0299294D01*
X0037249Y0300045D01*
X0037999Y0300045D01*
X0038750Y0299294D01*
X0038750Y0297793D01*
X0037999Y0297042D01*
X0036498Y0297042D01*
X0034997Y0298543D01*
X0034246Y0300045D01*
X0034246Y0301646D02*
X0034246Y0303898D01*
X0034997Y0304649D01*
X0036498Y0304649D01*
X0037249Y0303898D01*
X0037249Y0301646D01*
X0038750Y0301646D02*
X0034246Y0301646D01*
X0037249Y0303147D02*
X0038750Y0304649D01*
X0034997Y0290837D02*
X0034246Y0290086D01*
X0034246Y0288585D01*
X0034997Y0287834D01*
X0034246Y0283230D02*
X0038750Y0283230D01*
X0038750Y0352042D02*
X0034246Y0355045D01*
X0035747Y0356646D02*
X0034246Y0358147D01*
X0038750Y0358147D01*
X0038750Y0356646D02*
X0038750Y0359649D01*
X0038750Y0355045D02*
X0034246Y0352042D01*
X0080246Y0380251D02*
X0084750Y0380251D01*
X0084750Y0378750D02*
X0084750Y0381753D01*
X0084750Y0383354D02*
X0081747Y0386356D01*
X0080997Y0386356D01*
X0080246Y0385606D01*
X0080246Y0384105D01*
X0080997Y0383354D01*
X0080246Y0380251D02*
X0081747Y0378750D01*
X0084750Y0383354D02*
X0084750Y0386356D01*
X0095246Y0385606D02*
X0095246Y0384105D01*
X0095997Y0383354D01*
X0095246Y0385606D02*
X0095997Y0386356D01*
X0096747Y0386356D01*
X0099750Y0383354D01*
X0099750Y0386356D01*
X0099750Y0381753D02*
X0099750Y0378750D01*
X0099750Y0380251D02*
X0095246Y0380251D01*
X0096747Y0378750D01*
X0110246Y0380251D02*
X0114750Y0380251D01*
X0114750Y0378750D02*
X0114750Y0381753D01*
X0114750Y0383354D02*
X0111747Y0386356D01*
X0110997Y0386356D01*
X0110246Y0385606D01*
X0110246Y0384105D01*
X0110997Y0383354D01*
X0110246Y0380251D02*
X0111747Y0378750D01*
X0114750Y0383354D02*
X0114750Y0386356D01*
D15*
X0105700Y0016000D03*
X0077300Y0016000D03*
D16*
X0030634Y0041512D02*
X0030634Y0410988D01*
D17*
X0042131Y0382638D02*
X0041648Y0382155D01*
X0041648Y0381187D01*
X0042131Y0380703D01*
X0042131Y0379692D02*
X0042615Y0379692D01*
X0043099Y0379208D01*
X0043583Y0379692D01*
X0044066Y0379692D01*
X0044550Y0379208D01*
X0044550Y0378241D01*
X0044066Y0377757D01*
X0043099Y0378724D02*
X0043099Y0379208D01*
X0042131Y0379692D02*
X0041648Y0379208D01*
X0041648Y0378241D01*
X0042131Y0377757D01*
X0044550Y0380703D02*
X0042615Y0382638D01*
X0042131Y0382638D01*
X0044550Y0382638D02*
X0044550Y0380703D01*
X0044550Y0071138D02*
X0044550Y0069203D01*
X0044550Y0070171D02*
X0041648Y0070171D01*
X0042615Y0069203D01*
M02*
