M48
;GenerationSoftware,Autodesk,EAGLE,9.6.2*%
;CreationDate,2020-11-23T13:22:23Z*%
FMAT,2
ICI,OFF
METRIC,TZ,000.000
T4C0.254
T3C0.813
T2C1.016
T1C2.794
%
G90
M71
T1
X2540Y101606
X2540Y12694
T2
X139700Y35560
X15240Y6350
X12700Y6350
X10160Y6350
X10160Y96520
X10160Y93980
X10160Y91440
X10160Y88900
X10160Y86360
X10160Y83820
X10160Y81280
X10160Y78740
X10160Y76200
X10160Y73660
X10160Y71120
X10160Y68580
X10160Y66040
X10160Y63500
X10160Y60960
X10160Y58420
X7620Y96520
X7620Y93980
X7620Y91440
X7620Y88900
X7620Y86360
X7620Y83820
X7620Y81280
X7620Y78740
X7620Y76200
X7620Y73660
X7620Y71120
X7620Y68580
X7620Y66040
X7620Y63500
X7620Y60960
X7620Y58420
X5080Y96520
X5080Y93980
X5080Y91440
X5080Y88900
X5080Y86360
X5080Y83820
X5080Y81280
X5080Y78740
X5080Y76200
X5080Y73660
X5080Y71120
X5080Y68580
X5080Y66040
X5080Y63500
X5080Y60960
X5080Y58420
X10160Y55880
X10160Y53340
X10160Y50800
X139700Y40640
X10160Y45720
X10160Y43180
X10160Y40640
X10160Y38100
X10160Y35560
X10160Y33020
X10160Y30480
X10160Y27940
X10160Y25400
X10160Y22860
X10160Y20320
X10160Y17780
X7620Y55880
X7620Y53340
X7620Y50800
X7620Y48260
X7620Y45720
X7620Y43180
X7620Y40640
X7620Y38100
X7620Y35560
X7620Y33020
X7620Y30480
X7620Y27940
X7620Y25400
X7620Y22860
X7620Y20320
X7620Y17780
X5080Y55880
X5080Y53340
X5080Y50800
X5080Y48260
X5080Y45720
X5080Y43180
X5080Y40640
X5080Y38100
X5080Y35560
X5080Y33020
X5080Y30480
X5080Y27940
X5080Y25400
X5080Y22860
X5080Y20320
X5080Y17780
X173990Y53340
X173990Y55880
X173990Y58420
X173990Y60960
X173990Y63500
X171450Y53340
X171450Y55880
X171450Y58420
X171450Y60960
X171450Y63500
X139700Y38100
X10160Y48260
T3
X92710Y92710
X36830Y67310
X165100Y3810
X154940Y3810
X172720Y3810
X175260Y3810
X48260Y64770
X48260Y62230
X48260Y77470
X48260Y74930
X146050Y54610
X148590Y54610
X151130Y54610
X153670Y54610
X156210Y54610
X158750Y54610
X161290Y54610
X163830Y54610
X156210Y46990
X158750Y46990
X153670Y46990
X151130Y46990
X163830Y46990
X161290Y46990
X148590Y46990
X146050Y46990
X116840Y16510
X119380Y16510
X121920Y16510
X124460Y16510
X127000Y16510
X129540Y16510
X127000Y8890
X129540Y8890
X124460Y8890
X121920Y8890
X132080Y16510
X132080Y8890
X119380Y8890
X116840Y8890
X116840Y41910
X119380Y41910
X121920Y41910
X124460Y41910
X127000Y41910
X129540Y41910
X127000Y34290
X129540Y34290
X124460Y34290
X121920Y34290
X132080Y41910
X132080Y34290
X119380Y34290
X116840Y34290
X148590Y41910
X151130Y41910
X153670Y41910
X156210Y41910
X158750Y41910
X161290Y41910
X158750Y34290
X161290Y34290
X156210Y34290
X153670Y34290
X163830Y41910
X163830Y34290
X151130Y34290
X148590Y34290
X148590Y29210
X151130Y29210
X153670Y29210
X156210Y29210
X158750Y29210
X161290Y29210
X158750Y21590
X161290Y21590
X156210Y21590
X153670Y21590
X163830Y29210
X163830Y21590
X151130Y21590
X148590Y21590
X90170Y105410
X92710Y105410
X95250Y105410
X97790Y105410
X100330Y105410
X102870Y105410
X100330Y97790
X102870Y97790
X97790Y97790
X95250Y97790
X105410Y105410
X105410Y97790
X92710Y97790
X90170Y97790
X90170Y54610
X92710Y54610
X95250Y54610
X97790Y54610
X100330Y54610
X102870Y54610
X100330Y46990
X102870Y46990
X97790Y46990
X95250Y46990
X105410Y54610
X105410Y46990
X92710Y46990
X90170Y46990
X90170Y67310
X92710Y67310
X95250Y67310
X97790Y67310
X100330Y67310
X102870Y67310
X100330Y59690
X102870Y59690
X97790Y59690
X95250Y59690
X105410Y67310
X105410Y59690
X92710Y59690
X90170Y59690
X50800Y104140
X53340Y104140
X55880Y104140
X58420Y104140
X60960Y104140
X63500Y104140
X66040Y104140
X68580Y104140
X71120Y104140
X73660Y104140
X73660Y96520
X71120Y96520
X60960Y96520
X63500Y96520
X58420Y96520
X55880Y96520
X68580Y96520
X66040Y96520
X53340Y96520
X50800Y96520
X82550Y41910
X85090Y41910
X87630Y41910
X90170Y41910
X92710Y41910
X95250Y41910
X97790Y41910
X100330Y41910
X102870Y41910
X105410Y41910
X105410Y34290
X92710Y34290
X95250Y34290
X90170Y34290
X87630Y34290
X100330Y34290
X97790Y34290
X85090Y34290
X82550Y34290
X50800Y41910
X53340Y41910
X55880Y41910
X58420Y41910
X60960Y41910
X63500Y41910
X66040Y41910
X68580Y41910
X71120Y41910
X73660Y41910
X73660Y34290
X71120Y34290
X60960Y34290
X63500Y34290
X58420Y34290
X55880Y34290
X68580Y34290
X41910Y29210
X66040Y34290
X53340Y34290
X50800Y34290
X90170Y92710
X95250Y92710
X97790Y92710
X100330Y92710
X102870Y92710
X100330Y85090
X102870Y85090
X97790Y85090
X95250Y85090
X105410Y92710
X105410Y85090
X92710Y85090
X90170Y85090
X90170Y16510
X92710Y16510
X95250Y16510
X97790Y16510
X100330Y16510
X102870Y16510
X100330Y8890
X102870Y8890
X97790Y8890
X95250Y8890
X105410Y16510
X105410Y8890
X116840Y72390
X119380Y72390
X132080Y72390
X132080Y80010
X121920Y72390
X124460Y72390
X129540Y72390
X127000Y72390
X129540Y80010
X127000Y80010
X124460Y80010
X121920Y80010
X119380Y80010
X116840Y80010
X116840Y59690
X119380Y59690
X132080Y59690
X132080Y67310
X121920Y59690
X124460Y59690
X129540Y59690
X127000Y59690
X129540Y67310
X127000Y67310
X124460Y67310
X121920Y67310
X119380Y67310
X116840Y67310
X140970Y72390
X143510Y72390
X156210Y72390
X158750Y72390
X146050Y72390
X148590Y72390
X153670Y72390
X151130Y72390
X161290Y72390
X163830Y72390
X163830Y80010
X161290Y80010
X158750Y80010
X156210Y80010
X153670Y80010
X151130Y80010
X148590Y80010
X146050Y80010
X143510Y80010
X140970Y80010
X24130Y59690
X26670Y59690
X39370Y59690
X41910Y59690
X29210Y59690
X31750Y59690
X36830Y59690
X34290Y59690
X41910Y67310
X39370Y67310
X21590Y92710
X34290Y67310
X31750Y67310
X29210Y67310
X26670Y67310
X24130Y67310
X26670Y8890
X29210Y8890
X41910Y8890
X41910Y16510
X31750Y8890
X34290Y8890
X39370Y8890
X36830Y8890
X39370Y16510
X36830Y16510
X34290Y16510
X31750Y16510
X29210Y16510
X26670Y16510
X19050Y46990
X21590Y46990
X34290Y46990
X36830Y46990
X24130Y46990
X26670Y46990
X31750Y46990
X29210Y46990
X39370Y46990
X41910Y46990
X41910Y54610
X39370Y54610
X36830Y54610
X34290Y54610
X31750Y54610
X29210Y54610
X26670Y54610
X24130Y54610
X21590Y54610
X19050Y54610
X50800Y46990
X53340Y46990
X66040Y46990
X68580Y46990
X55880Y46990
X58420Y46990
X63500Y46990
X60960Y46990
X71120Y46990
X73660Y46990
X73660Y54610
X71120Y54610
X68580Y54610
X66040Y54610
X63500Y54610
X60960Y54610
X58420Y54610
X55880Y54610
X53340Y54610
X50800Y54610
X50800Y85090
X53340Y85090
X66040Y85090
X68580Y85090
X55880Y85090
X58420Y85090
X63500Y85090
X60960Y85090
X71120Y85090
X73660Y85090
X73660Y92710
X71120Y92710
X68580Y92710
X66040Y92710
X63500Y92710
X60960Y92710
X58420Y92710
X55880Y92710
X53340Y92710
X50800Y92710
X82550Y72390
X85090Y72390
X97790Y72390
X100330Y72390
X87630Y72390
X90170Y72390
X95250Y72390
X92710Y72390
X102870Y72390
X105410Y72390
X105410Y80010
X102870Y80010
X100330Y80010
X97790Y80010
X95250Y80010
X92710Y80010
X90170Y80010
X87630Y80010
X85090Y80010
X82550Y80010
X50800Y59690
X53340Y59690
X66040Y59690
X68580Y59690
X55880Y59690
X58420Y59690
X63500Y59690
X60960Y59690
X71120Y59690
X73660Y59690
X73660Y67310
X71120Y67310
X68580Y67310
X66040Y67310
X63500Y67310
X60960Y67310
X58420Y67310
X55880Y67310
X53340Y67310
X50800Y67310
X50800Y72390
X53340Y72390
X66040Y72390
X68580Y72390
X55880Y72390
X58420Y72390
X63500Y72390
X60960Y72390
X71120Y72390
X73660Y72390
X73660Y80010
X71120Y80010
X68580Y80010
X66040Y80010
X63500Y80010
X60960Y80010
X58420Y80010
X55880Y80010
X53340Y80010
X50800Y80010
X24130Y34290
X26670Y34290
X39370Y34290
X41910Y34290
X29210Y34290
X31750Y34290
X36830Y34290
X34290Y34290
X41910Y41910
X39370Y41910
X36830Y41910
X34290Y41910
X31750Y41910
X29210Y41910
X26670Y41910
X24130Y41910
X55880Y21590
X58420Y21590
X71120Y21590
X73660Y21590
X60960Y21590
X63500Y21590
X68580Y21590
X66040Y21590
X73660Y29210
X71120Y29210
X68580Y29210
X66040Y29210
X63500Y29210
X60960Y29210
X58420Y29210
X55880Y29210
X116840Y21590
X119380Y21590
X132080Y21590
X132080Y29210
X121920Y21590
X124460Y21590
X129540Y21590
X127000Y21590
X129540Y29210
X127000Y29210
X124460Y29210
X121920Y29210
X119380Y29210
X116840Y29210
X148590Y8890
X151130Y8890
X163830Y8890
X163830Y16510
X153670Y8890
X156210Y8890
X161290Y8890
X158750Y8890
X161290Y16510
X158750Y16510
X156210Y16510
X153670Y16510
X151130Y16510
X148590Y16510
X24130Y21590
X26670Y21590
X39370Y21590
X41910Y21590
X29210Y21590
X31750Y21590
X36830Y21590
X34290Y21590
X92710Y8890
X39370Y29210
X36830Y29210
X34290Y29210
X31750Y29210
X29210Y29210
X26670Y29210
X24130Y29210
X58420Y8890
X60960Y8890
X73660Y8890
X73660Y16510
X63500Y8890
X66040Y8890
X71120Y8890
X68580Y8890
X71120Y16510
X68580Y16510
X66040Y16510
X63500Y16510
X60960Y16510
X58420Y16510
X21590Y97790
X24130Y97790
X26670Y97790
X29210Y97790
X31750Y97790
X34290Y97790
X36830Y97790
X39370Y97790
X41910Y97790
X21590Y104140
X24130Y104140
X26670Y104140
X29210Y104140
X31750Y104140
X34290Y104140
X36830Y104140
X39370Y104140
X41910Y104140
X19050Y85090
X21590Y85090
X34290Y85090
X36830Y85090
X24130Y85090
X26670Y85090
X31750Y85090
X29210Y85090
X39370Y85090
X41910Y85090
X41910Y92710
X39370Y92710
X36830Y92710
X34290Y92710
X31750Y92710
X29210Y92710
X26670Y92710
X24130Y92710
X102870Y34290
X19050Y92710
X19050Y72390
X21590Y72390
X34290Y72390
X36830Y72390
X24130Y72390
X26670Y72390
X31750Y72390
X29210Y72390
X39370Y72390
X41910Y72390
X41910Y80010
X39370Y80010
X36830Y80010
X34290Y80010
X31750Y80010
X29210Y80010
X26670Y80010
X24130Y80010
X21590Y80010
X19050Y80010
X114300Y85090
X116840Y85090
X129540Y85090
X132080Y85090
X119380Y85090
X121920Y85090
X127000Y85090
X124460Y85090
X132080Y92710
X129540Y92710
X127000Y92710
X124460Y92710
X121920Y92710
X119380Y92710
X116840Y92710
X114300Y92710
X114300Y46990
X116840Y46990
X129540Y46990
X132080Y46990
X119380Y46990
X121920Y46990
X127000Y46990
X124460Y46990
X132080Y54610
X129540Y54610
X127000Y54610
X124460Y54610
X121920Y54610
X119380Y54610
X116840Y54610
X114300Y54610
X114300Y97790
X116840Y97790
X129540Y97790
X132080Y97790
X119380Y97790
X121920Y97790
X127000Y97790
X124460Y97790
X132080Y105410
X129540Y105410
X127000Y105410
X124460Y105410
X121920Y105410
X119380Y105410
X116840Y105410
X114300Y105410
X146050Y59690
X148590Y59690
X161290Y59690
X163830Y59690
X151130Y59690
X153670Y59690
X158750Y59690
X156210Y59690
X163830Y67310
X161290Y67310
X158750Y67310
X156210Y67310
X153670Y67310
X151130Y67310
X148590Y67310
X146050Y67310
X140970Y85090
X143510Y85090
X156210Y85090
X158750Y85090
X146050Y85090
X148590Y85090
X153670Y85090
X151130Y85090
X161290Y85090
X163830Y85090
X163830Y92710
X161290Y92710
X158750Y92710
X156210Y92710
X153670Y92710
X151130Y92710
X148590Y92710
X146050Y92710
X143510Y92710
X140970Y92710
X146050Y97790
X148590Y97790
X161290Y97790
X163830Y97790
X151130Y97790
X153670Y97790
X158750Y97790
X156210Y97790
X163830Y105410
X161290Y105410
X158750Y105410
X156210Y105410
X153670Y105410
X151130Y105410
X148590Y105410
X146050Y105410
X87630Y49530
X87630Y52070
X114300Y11430
X114300Y13970
X21590Y62230
X21590Y64770
X138430Y87630
X138430Y90170
X111760Y49530
X111760Y52070
X114300Y36830
X114300Y39370
X24130Y11430
X24130Y13970
X48260Y49530
X48260Y52070
X21590Y24130
X21590Y26670
X111760Y87630
X111760Y90170
X80010Y74930
X80010Y77470
X146050Y36830
X146050Y39370
X143510Y100330
X143510Y102870
X111760Y100330
X111760Y102870
X146050Y24130
X146050Y26670
X48260Y36830
X48260Y39370
X21590Y36830
X21590Y39370
X48260Y87630
X48260Y90170
X87630Y100330
X87630Y102870
X114300Y24130
X114300Y26670
X87630Y87630
X87630Y90170
X146050Y11430
X146050Y13970
X53340Y24130
X53340Y26670
X16510Y74930
X16510Y77470
X16510Y87630
X16510Y90170
X138430Y74930
X138430Y77470
X143510Y62230
X143510Y64770
X114300Y74930
X114300Y77470
X114300Y62230
X114300Y64770
X143510Y49530
X143510Y52070
X87630Y24130
X87630Y26670
X87630Y11430
X87630Y13970
X55880Y11430
X55880Y13970
X48260Y99060
X48260Y101600
X87630Y62230
X87630Y64770
X16510Y49530
X16510Y52070
X80010Y36830
X80010Y39370
X90170Y21590
X92710Y21590
X105410Y21590
X105410Y29210
X95250Y21590
X97790Y21590
X102870Y21590
X100330Y21590
X102870Y29210
X100330Y29210
X97790Y29210
X95250Y29210
X92710Y29210
X90170Y29210
X90170Y8890
T4
X61277Y69533
X39053Y14605
X43498Y28257
X38418Y18733
X12382Y42863
X75883Y100965
X81280Y7302
X29527Y5080
X110807Y5080
X117157Y19050
X118427Y57467
X120332Y76518
X112077Y79058
X132715Y27622
X88900Y27305
X79693Y89852
X121285Y25717
X110807Y2540
X8890Y69215
X53022Y63817
X108267Y13970
X53022Y49212
X53975Y75248
X133668Y38735
X22225Y6032
X51435Y57150
X149543Y6032
X131763Y25082
X85408Y26352
X76518Y101600
X148590Y31432
X111442Y45402
X47307Y45402
X44132Y26987
X139065Y31432
X141605Y54292
X162878Y81280
X100965Y109220
X58737Y108585
X63817Y99060
X90487Y102552
X104140Y98742
X60007Y88582
X59055Y98107
X105092Y50165
X91122Y50165
X96202Y48260
X95567Y44132
X104457Y64452
X102552Y36195
X110807Y64452
X110807Y37783
X96202Y37465
X102552Y39053
X91122Y39053
X60642Y75883
X86043Y56832
X83185Y27622
X61912Y27940
X66358Y13335
X79058Y24447
X67628Y25717
X81280Y41593
X77788Y29210
X75248Y35878
X104140Y36830
X63817Y37148
X100012Y25717
X59372Y30480
X56832Y24447
X122872Y108902
X17463Y103187
X13652Y64135
X131763Y43815
X161608Y63500
X110172Y79693
X140018Y82233
X38418Y82233
X127952Y87313
X122872Y90487
X144463Y106997
X148908Y49530
X152083Y71120
X163513Y69215
X22860Y6667
X11747Y66675
X19368Y70168
X20955Y73978
X30797Y63182
X15240Y79375
X29210Y77153
X30162Y89852
X30797Y70803
X21590Y83185
X20003Y82550
X16510Y81280
X20003Y88582
X35243Y77788
X22542Y75883
X22542Y81280
X14605Y75248
X14605Y88582
X13335Y73025
X13970Y85090
X12065Y81915
X13970Y65405
X13970Y84138
X127952Y23812
X152400Y4445
X39053Y4445
X128587Y24447
X126365Y13017
X76835Y18733
X45402Y79058
X49847Y17463
X42863Y15240
X37148Y38418
X65087Y37783
X37148Y13017
X31432Y74613
X23177Y74613
X23812Y9525
X33655Y40323
X62547Y39053
X28575Y10478
X25082Y24447
X51117Y23812
X66675Y25717
X51435Y65405
X131128Y30480
X127952Y19050
X24447Y65087
X44132Y70803
X51752Y55880
X83503Y44767
X84773Y44767
X45085Y46672
X44767Y53022
X32702Y55880
X82868Y39053
X42863Y63182
X50165Y98107
X29527Y31432
X30797Y4445
X30797Y32702
X135573Y69215
X149543Y63500
X38418Y32067
X123190Y107632
X3810Y67310
X136843Y69215
X152718Y63500
X24130Y32067
X36513Y32067
X51435Y35878
X59055Y32702
X63182Y25082
X35243Y25082
X66993Y75883
X97790Y75248
X91122Y61277
X82233Y89852
X107632Y52070
X98425Y78423
X98742Y52387
X69533Y11112
X101917Y74613
X103187Y95885
X103822Y61277
X119697Y95885
X46672Y70168
X46672Y49847
X83503Y87313
X86043Y84138
X71438Y76518
X100012Y76518
X108267Y43815
X108267Y82868
X43498Y82868
X43498Y65723
X131763Y48895
X143193Y58102
X130492Y57785
X126365Y76518
X111442Y82868
X137478Y71120
X133668Y50165
X157480Y91122
X153353Y75883
X122872Y76518
X146685Y78423
X118427Y77153
X142558Y69850
X120967Y69850
X117792Y64452
X129222Y87947
X119697Y87947
X106997Y20003
X88900Y111125
X48260Y108585
X106997Y57467
X46990Y87630
X51752Y68898
X57467Y18098
X46672Y44132
X106362Y86678
X127952Y83503
X98742Y48260
X78423Y23812
X88582Y105092
X67628Y23812
X87947Y20638
X39688Y32067
X79693Y55562
X76518Y64770
X123507Y53022
X66358Y69533
X88582Y68263
X75883Y65723
X79693Y14922
X89535Y13652
X51117Y13970
X71438Y69533
X27622Y77788
X70803Y77788
X32702Y78740
X93662Y77153
X75883Y66993
X40323Y39053
X109537Y26987
X54292Y83503
X101282Y78423
X32702Y19368
X28575Y75883
X34608Y75883
X61277Y77153
X34608Y57785
X31115Y40323
X126047Y62547
X44767Y81598
X42863Y58420
X42863Y45085
X93027Y69533
X114300Y69850
X53340Y62547
X32067Y43815
X26035Y81598
X106045Y101282
X82868Y100330
X124142Y56832
X48577Y20638
X108902Y53022
X161608Y56832
X120332Y50800
X153353Y56515
X69850Y83503
X91122Y83503
X90487Y49530
X69533Y49212
X76200Y13017
X93662Y13017
X91122Y81598
X154623Y52387
X74613Y53340
X133668Y57150
X98107Y95250
X96202Y77788
X127952Y56832
X82550Y28892
X93662Y66040
X94615Y73978
X148908Y61912
X68263Y70168
X38418Y69850
X38418Y39053
X96837Y75248
X45402Y73025
X42863Y44132
X86043Y59690
X46037Y44767
X46037Y70803
X88265Y43498
X142558Y108267
X85090Y109855
X145098Y108902
X59055Y61277
X152718Y40640
X92392Y31115
X64135Y61277
X63182Y51117
X79693Y70168
X75248Y62230
X48577Y57785
X97472Y31750
X66993Y51117
X70168Y49847
X74613Y88582
X73343Y57785
X39370Y50482
X162243Y44767
X67945Y68898
X72073Y38418
X67628Y49847
X40005Y48895
X62547Y64770
X88582Y108585
X41910Y64452
X86678Y110490
X150178Y108902
X88582Y46355
X57785Y68898
X98742Y44767
X42228Y75248
X45402Y74613
X42228Y76518
X60007Y48260
X56515Y56515
X54292Y63500
X88582Y63182
X54292Y66040
X30162Y11112
M30