M48
;GenerationSoftware,Autodesk,EAGLE,9.6.2*%
;CreationDate,2020-07-07T17:50:56Z*%
FMAT,2
ICI,OFF
METRIC,TZ,000.000
T1C0.254
%
G90
M71
T1
X53975Y69215
X63817Y69533
X123825Y81915
X97155Y82233
X32067Y38418
X32385Y39688
X33973Y87313
X64452Y57467
X31750Y44450
X32702Y45720
X87947Y7620
X77153Y64135
X95567Y45402
X98742Y45720
X49212Y78740
X96202Y50800
X126365Y51117
X134620Y66358
X133350Y67628
X73025Y48895
X84455Y81598
X97472Y75248
X99695Y19368
X43815Y35560
X2540Y57150
X127952Y109855
X148908Y61912
X139383Y75565
X39053Y56832
X43498Y68898
X125095Y62230
X42545Y44132
X29845Y45085
X43815Y29527
X30480Y44450
X48260Y67310
X58737Y23812
X44132Y46037
X32385Y57785
X41275Y74930
X57150Y34608
X35243Y40640
X46355Y48260
X45720Y48895
X50800Y3492
X128905Y57785
X19368Y82868
X19685Y86678
X13335Y58737
X16828Y55245
X35878Y32385
X3175Y73343
X163830Y70803
X153353Y69533
X150178Y76835
X160973Y102235
X149543Y99377
X71755Y36195
X89535Y57467
X102235Y32702
X104457Y40640
X150495Y30797
X127635Y56197
X151130Y36195
X158750Y64135
X158750Y62865
M30