G04 EAGLE Gerber RS-274X export*
G75*
%MOMM*%
%FSLAX34Y34*%
%LPD*%
%INBottom Copper*%
%IPPOS*%
%AMOC8*
5,1,8,0,0,1.08239X$1,22.5*%
G01*
%ADD10P,1.429621X8X112.500000*%
%ADD11C,1.320800*%
%ADD12P,2.034460X8X22.500000*%
%ADD13P,1.649562X8X292.500000*%
%ADD14P,1.649562X8X202.500000*%
%ADD15P,1.429621X8X202.500000*%
%ADD16C,0.152400*%
%ADD17C,0.756400*%


D10*
X152400Y901700D03*
X152400Y927100D03*
X812800Y114300D03*
X812800Y139700D03*
X571500Y368300D03*
X571500Y393700D03*
X508000Y495300D03*
X508000Y520700D03*
X508000Y1028700D03*
X508000Y1054100D03*
X584200Y901700D03*
X584200Y927100D03*
X508000Y774700D03*
X508000Y800100D03*
X584200Y647700D03*
X584200Y673100D03*
X228600Y1028700D03*
X228600Y1054100D03*
X495300Y241300D03*
X495300Y266700D03*
X203200Y368300D03*
X203200Y393700D03*
X825500Y368300D03*
X825500Y393700D03*
X152400Y635000D03*
X152400Y660400D03*
X203200Y495300D03*
X203200Y520700D03*
X825500Y901700D03*
X825500Y927100D03*
X825500Y774700D03*
X825500Y800100D03*
X228600Y241300D03*
X228600Y266700D03*
X1168400Y368300D03*
X1168400Y393700D03*
X1092200Y495300D03*
X1092200Y520700D03*
X152400Y774700D03*
X152400Y800100D03*
X1168400Y647700D03*
X1168400Y673100D03*
X1092200Y774700D03*
X1092200Y800100D03*
X1168400Y901700D03*
X1168400Y927100D03*
X1092200Y1028700D03*
X1092200Y1054100D03*
X1409700Y1028700D03*
X1409700Y1054100D03*
X1409700Y901700D03*
X1409700Y927100D03*
X1409700Y368300D03*
X1409700Y393700D03*
X1409700Y114300D03*
X1409700Y139700D03*
X1409700Y774700D03*
X1409700Y800100D03*
X1409700Y495300D03*
X1409700Y520700D03*
X1092200Y241300D03*
X1092200Y266700D03*
X1409700Y241300D03*
X1409700Y266700D03*
X1409700Y647700D03*
X1409700Y673100D03*
X825500Y1028700D03*
X825500Y1054100D03*
X825500Y647700D03*
X825500Y673100D03*
X825500Y495300D03*
X825500Y520700D03*
X812800Y241300D03*
X812800Y266700D03*
D11*
X241300Y336296D02*
X241300Y349504D01*
X266700Y349504D02*
X266700Y336296D01*
X393700Y336296D02*
X393700Y349504D01*
X419100Y349504D02*
X419100Y336296D01*
X292100Y336296D02*
X292100Y349504D01*
X317500Y349504D02*
X317500Y336296D01*
X368300Y336296D02*
X368300Y349504D01*
X342900Y349504D02*
X342900Y336296D01*
X419100Y412496D02*
X419100Y425704D01*
X393700Y425704D02*
X393700Y412496D01*
X368300Y412496D02*
X368300Y425704D01*
X342900Y425704D02*
X342900Y412496D01*
X317500Y412496D02*
X317500Y425704D01*
X292100Y425704D02*
X292100Y412496D01*
X266700Y412496D02*
X266700Y425704D01*
X241300Y425704D02*
X241300Y412496D01*
X190500Y869696D02*
X190500Y882904D01*
X215900Y882904D02*
X215900Y869696D01*
X342900Y869696D02*
X342900Y882904D01*
X368300Y882904D02*
X368300Y869696D01*
X241300Y869696D02*
X241300Y882904D01*
X266700Y882904D02*
X266700Y869696D01*
X317500Y869696D02*
X317500Y882904D01*
X292100Y882904D02*
X292100Y869696D01*
X393700Y869696D02*
X393700Y882904D01*
X419100Y882904D02*
X419100Y869696D01*
X419100Y945896D02*
X419100Y959104D01*
X393700Y959104D02*
X393700Y945896D01*
X368300Y945896D02*
X368300Y959104D01*
X342900Y959104D02*
X342900Y945896D01*
X317500Y945896D02*
X317500Y959104D01*
X292100Y959104D02*
X292100Y945896D01*
X266700Y945896D02*
X266700Y959104D01*
X241300Y959104D02*
X241300Y945896D01*
X215900Y945896D02*
X215900Y959104D01*
X190500Y959104D02*
X190500Y945896D01*
X1447800Y628904D02*
X1447800Y615696D01*
X1473200Y615696D02*
X1473200Y628904D01*
X1600200Y628904D02*
X1600200Y615696D01*
X1625600Y615696D02*
X1625600Y628904D01*
X1498600Y628904D02*
X1498600Y615696D01*
X1524000Y615696D02*
X1524000Y628904D01*
X1574800Y628904D02*
X1574800Y615696D01*
X1549400Y615696D02*
X1549400Y628904D01*
X1625600Y691896D02*
X1625600Y705104D01*
X1600200Y705104D02*
X1600200Y691896D01*
X1574800Y691896D02*
X1574800Y705104D01*
X1549400Y705104D02*
X1549400Y691896D01*
X1524000Y691896D02*
X1524000Y705104D01*
X1498600Y705104D02*
X1498600Y691896D01*
X1473200Y691896D02*
X1473200Y705104D01*
X1447800Y705104D02*
X1447800Y691896D01*
X1447800Y742696D02*
X1447800Y755904D01*
X1473200Y755904D02*
X1473200Y742696D01*
X1600200Y742696D02*
X1600200Y755904D01*
X1625600Y755904D02*
X1625600Y742696D01*
X1498600Y742696D02*
X1498600Y755904D01*
X1524000Y755904D02*
X1524000Y742696D01*
X1574800Y742696D02*
X1574800Y755904D01*
X1549400Y755904D02*
X1549400Y742696D01*
X1625600Y818896D02*
X1625600Y832104D01*
X1600200Y832104D02*
X1600200Y818896D01*
X1574800Y818896D02*
X1574800Y832104D01*
X1549400Y832104D02*
X1549400Y818896D01*
X1524000Y818896D02*
X1524000Y832104D01*
X1498600Y832104D02*
X1498600Y818896D01*
X1473200Y818896D02*
X1473200Y832104D01*
X1447800Y832104D02*
X1447800Y818896D01*
X1447800Y996696D02*
X1447800Y1009904D01*
X1473200Y1009904D02*
X1473200Y996696D01*
X1600200Y996696D02*
X1600200Y1009904D01*
X1625600Y1009904D02*
X1625600Y996696D01*
X1498600Y996696D02*
X1498600Y1009904D01*
X1524000Y1009904D02*
X1524000Y996696D01*
X1574800Y996696D02*
X1574800Y1009904D01*
X1549400Y1009904D02*
X1549400Y996696D01*
X1625600Y1072896D02*
X1625600Y1086104D01*
X1600200Y1086104D02*
X1600200Y1072896D01*
X1574800Y1072896D02*
X1574800Y1086104D01*
X1549400Y1086104D02*
X1549400Y1072896D01*
X1524000Y1072896D02*
X1524000Y1086104D01*
X1498600Y1086104D02*
X1498600Y1072896D01*
X1473200Y1072896D02*
X1473200Y1086104D01*
X1447800Y1086104D02*
X1447800Y1072896D01*
X1447800Y882904D02*
X1447800Y869696D01*
X1473200Y869696D02*
X1473200Y882904D01*
X1600200Y882904D02*
X1600200Y869696D01*
X1625600Y869696D02*
X1625600Y882904D01*
X1498600Y882904D02*
X1498600Y869696D01*
X1524000Y869696D02*
X1524000Y882904D01*
X1574800Y882904D02*
X1574800Y869696D01*
X1549400Y869696D02*
X1549400Y882904D01*
X1625600Y945896D02*
X1625600Y959104D01*
X1600200Y959104D02*
X1600200Y945896D01*
X1574800Y945896D02*
X1574800Y959104D01*
X1549400Y959104D02*
X1549400Y945896D01*
X1524000Y945896D02*
X1524000Y959104D01*
X1498600Y959104D02*
X1498600Y945896D01*
X1473200Y945896D02*
X1473200Y959104D01*
X1447800Y959104D02*
X1447800Y945896D01*
X1130300Y755904D02*
X1130300Y742696D01*
X1155700Y742696D02*
X1155700Y755904D01*
X1282700Y755904D02*
X1282700Y742696D01*
X1308100Y742696D02*
X1308100Y755904D01*
X1181100Y755904D02*
X1181100Y742696D01*
X1206500Y742696D02*
X1206500Y755904D01*
X1257300Y755904D02*
X1257300Y742696D01*
X1231900Y742696D02*
X1231900Y755904D01*
X1333500Y755904D02*
X1333500Y742696D01*
X1358900Y742696D02*
X1358900Y755904D01*
X1358900Y818896D02*
X1358900Y832104D01*
X1333500Y832104D02*
X1333500Y818896D01*
X1308100Y818896D02*
X1308100Y832104D01*
X1282700Y832104D02*
X1282700Y818896D01*
X1257300Y818896D02*
X1257300Y832104D01*
X1231900Y832104D02*
X1231900Y818896D01*
X1206500Y818896D02*
X1206500Y832104D01*
X1181100Y832104D02*
X1181100Y818896D01*
X1155700Y818896D02*
X1155700Y832104D01*
X1130300Y832104D02*
X1130300Y818896D01*
X241300Y476504D02*
X241300Y463296D01*
X266700Y463296D02*
X266700Y476504D01*
X393700Y476504D02*
X393700Y463296D01*
X419100Y463296D02*
X419100Y476504D01*
X292100Y476504D02*
X292100Y463296D01*
X317500Y463296D02*
X317500Y476504D01*
X368300Y476504D02*
X368300Y463296D01*
X342900Y463296D02*
X342900Y476504D01*
X419100Y539496D02*
X419100Y552704D01*
X393700Y552704D02*
X393700Y539496D01*
X368300Y539496D02*
X368300Y552704D01*
X342900Y552704D02*
X342900Y539496D01*
X317500Y539496D02*
X317500Y552704D01*
X292100Y552704D02*
X292100Y539496D01*
X266700Y539496D02*
X266700Y552704D01*
X241300Y552704D02*
X241300Y539496D01*
X1130300Y996696D02*
X1130300Y1009904D01*
X1155700Y1009904D02*
X1155700Y996696D01*
X1282700Y996696D02*
X1282700Y1009904D01*
X1308100Y1009904D02*
X1308100Y996696D01*
X1181100Y996696D02*
X1181100Y1009904D01*
X1206500Y1009904D02*
X1206500Y996696D01*
X1257300Y996696D02*
X1257300Y1009904D01*
X1231900Y1009904D02*
X1231900Y996696D01*
X1333500Y996696D02*
X1333500Y1009904D01*
X1358900Y1009904D02*
X1358900Y996696D01*
X1358900Y1072896D02*
X1358900Y1086104D01*
X1333500Y1086104D02*
X1333500Y1072896D01*
X1308100Y1072896D02*
X1308100Y1086104D01*
X1282700Y1086104D02*
X1282700Y1072896D01*
X1257300Y1072896D02*
X1257300Y1086104D01*
X1231900Y1086104D02*
X1231900Y1072896D01*
X1206500Y1072896D02*
X1206500Y1086104D01*
X1181100Y1086104D02*
X1181100Y1072896D01*
X1155700Y1072896D02*
X1155700Y1086104D01*
X1130300Y1086104D02*
X1130300Y1072896D01*
X190500Y628904D02*
X190500Y615696D01*
X215900Y615696D02*
X215900Y628904D01*
X342900Y628904D02*
X342900Y615696D01*
X368300Y615696D02*
X368300Y628904D01*
X241300Y628904D02*
X241300Y615696D01*
X266700Y615696D02*
X266700Y628904D01*
X317500Y628904D02*
X317500Y615696D01*
X292100Y615696D02*
X292100Y628904D01*
X393700Y628904D02*
X393700Y615696D01*
X419100Y615696D02*
X419100Y628904D01*
X419100Y691896D02*
X419100Y705104D01*
X393700Y705104D02*
X393700Y691896D01*
X368300Y691896D02*
X368300Y705104D01*
X342900Y705104D02*
X342900Y691896D01*
X317500Y691896D02*
X317500Y705104D01*
X292100Y705104D02*
X292100Y691896D01*
X266700Y691896D02*
X266700Y705104D01*
X241300Y705104D02*
X241300Y691896D01*
X215900Y691896D02*
X215900Y705104D01*
X190500Y705104D02*
X190500Y691896D01*
X863600Y996696D02*
X863600Y1009904D01*
X889000Y1009904D02*
X889000Y996696D01*
X1016000Y996696D02*
X1016000Y1009904D01*
X1041400Y1009904D02*
X1041400Y996696D01*
X914400Y996696D02*
X914400Y1009904D01*
X939800Y1009904D02*
X939800Y996696D01*
X990600Y996696D02*
X990600Y1009904D01*
X965200Y1009904D02*
X965200Y996696D01*
X1041400Y1072896D02*
X1041400Y1086104D01*
X1016000Y1086104D02*
X1016000Y1072896D01*
X990600Y1072896D02*
X990600Y1086104D01*
X965200Y1086104D02*
X965200Y1072896D01*
X939800Y1072896D02*
X939800Y1086104D01*
X914400Y1086104D02*
X914400Y1072896D01*
X889000Y1072896D02*
X889000Y1086104D01*
X863600Y1086104D02*
X863600Y1072896D01*
X863600Y882904D02*
X863600Y869696D01*
X889000Y869696D02*
X889000Y882904D01*
X1016000Y882904D02*
X1016000Y869696D01*
X1041400Y869696D02*
X1041400Y882904D01*
X914400Y882904D02*
X914400Y869696D01*
X939800Y869696D02*
X939800Y882904D01*
X990600Y882904D02*
X990600Y869696D01*
X965200Y869696D02*
X965200Y882904D01*
X1041400Y945896D02*
X1041400Y959104D01*
X1016000Y959104D02*
X1016000Y945896D01*
X990600Y945896D02*
X990600Y959104D01*
X965200Y959104D02*
X965200Y945896D01*
X939800Y945896D02*
X939800Y959104D01*
X914400Y959104D02*
X914400Y945896D01*
X889000Y945896D02*
X889000Y959104D01*
X863600Y959104D02*
X863600Y945896D01*
X863600Y755904D02*
X863600Y742696D01*
X889000Y742696D02*
X889000Y755904D01*
X1016000Y755904D02*
X1016000Y742696D01*
X1041400Y742696D02*
X1041400Y755904D01*
X914400Y755904D02*
X914400Y742696D01*
X939800Y742696D02*
X939800Y755904D01*
X990600Y755904D02*
X990600Y742696D01*
X965200Y742696D02*
X965200Y755904D01*
X1041400Y818896D02*
X1041400Y832104D01*
X1016000Y832104D02*
X1016000Y818896D01*
X990600Y818896D02*
X990600Y832104D01*
X965200Y832104D02*
X965200Y818896D01*
X939800Y818896D02*
X939800Y832104D01*
X914400Y832104D02*
X914400Y818896D01*
X889000Y818896D02*
X889000Y832104D01*
X863600Y832104D02*
X863600Y818896D01*
X863600Y628904D02*
X863600Y615696D01*
X889000Y615696D02*
X889000Y628904D01*
X1016000Y628904D02*
X1016000Y615696D01*
X1041400Y615696D02*
X1041400Y628904D01*
X914400Y628904D02*
X914400Y615696D01*
X939800Y615696D02*
X939800Y628904D01*
X990600Y628904D02*
X990600Y615696D01*
X965200Y615696D02*
X965200Y628904D01*
X1041400Y691896D02*
X1041400Y705104D01*
X1016000Y705104D02*
X1016000Y691896D01*
X990600Y691896D02*
X990600Y705104D01*
X965200Y705104D02*
X965200Y691896D01*
X939800Y691896D02*
X939800Y705104D01*
X914400Y705104D02*
X914400Y691896D01*
X889000Y691896D02*
X889000Y705104D01*
X863600Y705104D02*
X863600Y691896D01*
X546100Y996696D02*
X546100Y1009904D01*
X571500Y1009904D02*
X571500Y996696D01*
X698500Y996696D02*
X698500Y1009904D01*
X723900Y1009904D02*
X723900Y996696D01*
X596900Y996696D02*
X596900Y1009904D01*
X622300Y1009904D02*
X622300Y996696D01*
X673100Y996696D02*
X673100Y1009904D01*
X647700Y1009904D02*
X647700Y996696D01*
X749300Y996696D02*
X749300Y1009904D01*
X774700Y1009904D02*
X774700Y996696D01*
X774700Y1072896D02*
X774700Y1086104D01*
X749300Y1086104D02*
X749300Y1072896D01*
X723900Y1072896D02*
X723900Y1086104D01*
X698500Y1086104D02*
X698500Y1072896D01*
X673100Y1072896D02*
X673100Y1086104D01*
X647700Y1086104D02*
X647700Y1072896D01*
X622300Y1072896D02*
X622300Y1086104D01*
X596900Y1086104D02*
X596900Y1072896D01*
X571500Y1072896D02*
X571500Y1086104D01*
X546100Y1086104D02*
X546100Y1072896D01*
X546100Y755904D02*
X546100Y742696D01*
X571500Y742696D02*
X571500Y755904D01*
X698500Y755904D02*
X698500Y742696D01*
X723900Y742696D02*
X723900Y755904D01*
X596900Y755904D02*
X596900Y742696D01*
X622300Y742696D02*
X622300Y755904D01*
X673100Y755904D02*
X673100Y742696D01*
X647700Y742696D02*
X647700Y755904D01*
X749300Y755904D02*
X749300Y742696D01*
X774700Y742696D02*
X774700Y755904D01*
X774700Y818896D02*
X774700Y832104D01*
X749300Y832104D02*
X749300Y818896D01*
X723900Y818896D02*
X723900Y832104D01*
X698500Y832104D02*
X698500Y818896D01*
X673100Y818896D02*
X673100Y832104D01*
X647700Y832104D02*
X647700Y818896D01*
X622300Y818896D02*
X622300Y832104D01*
X596900Y832104D02*
X596900Y818896D01*
X571500Y818896D02*
X571500Y832104D01*
X546100Y832104D02*
X546100Y818896D01*
X1447800Y95504D02*
X1447800Y82296D01*
X1473200Y82296D02*
X1473200Y95504D01*
X1600200Y95504D02*
X1600200Y82296D01*
X1625600Y82296D02*
X1625600Y95504D01*
X1498600Y95504D02*
X1498600Y82296D01*
X1524000Y82296D02*
X1524000Y95504D01*
X1574800Y95504D02*
X1574800Y82296D01*
X1549400Y82296D02*
X1549400Y95504D01*
X1625600Y158496D02*
X1625600Y171704D01*
X1600200Y171704D02*
X1600200Y158496D01*
X1574800Y158496D02*
X1574800Y171704D01*
X1549400Y171704D02*
X1549400Y158496D01*
X1524000Y158496D02*
X1524000Y171704D01*
X1498600Y171704D02*
X1498600Y158496D01*
X1473200Y158496D02*
X1473200Y171704D01*
X1447800Y171704D02*
X1447800Y158496D01*
X863600Y463296D02*
X863600Y476504D01*
X889000Y476504D02*
X889000Y463296D01*
X1016000Y463296D02*
X1016000Y476504D01*
X1041400Y476504D02*
X1041400Y463296D01*
X914400Y463296D02*
X914400Y476504D01*
X939800Y476504D02*
X939800Y463296D01*
X990600Y463296D02*
X990600Y476504D01*
X965200Y476504D02*
X965200Y463296D01*
X1041400Y539496D02*
X1041400Y552704D01*
X1016000Y552704D02*
X1016000Y539496D01*
X990600Y539496D02*
X990600Y552704D01*
X965200Y552704D02*
X965200Y539496D01*
X939800Y539496D02*
X939800Y552704D01*
X914400Y552704D02*
X914400Y539496D01*
X889000Y539496D02*
X889000Y552704D01*
X863600Y552704D02*
X863600Y539496D01*
X863600Y349504D02*
X863600Y336296D01*
X889000Y336296D02*
X889000Y349504D01*
X1016000Y349504D02*
X1016000Y336296D01*
X1041400Y336296D02*
X1041400Y349504D01*
X914400Y349504D02*
X914400Y336296D01*
X939800Y336296D02*
X939800Y349504D01*
X990600Y349504D02*
X990600Y336296D01*
X965200Y336296D02*
X965200Y349504D01*
X1041400Y412496D02*
X1041400Y425704D01*
X1016000Y425704D02*
X1016000Y412496D01*
X990600Y412496D02*
X990600Y425704D01*
X965200Y425704D02*
X965200Y412496D01*
X939800Y412496D02*
X939800Y425704D01*
X914400Y425704D02*
X914400Y412496D01*
X889000Y412496D02*
X889000Y425704D01*
X863600Y425704D02*
X863600Y412496D01*
X850900Y222504D02*
X850900Y209296D01*
X876300Y209296D02*
X876300Y222504D01*
X1003300Y222504D02*
X1003300Y209296D01*
X1028700Y209296D02*
X1028700Y222504D01*
X901700Y222504D02*
X901700Y209296D01*
X927100Y209296D02*
X927100Y222504D01*
X977900Y222504D02*
X977900Y209296D01*
X952500Y209296D02*
X952500Y222504D01*
X1028700Y285496D02*
X1028700Y298704D01*
X1003300Y298704D02*
X1003300Y285496D01*
X977900Y285496D02*
X977900Y298704D01*
X952500Y298704D02*
X952500Y285496D01*
X927100Y285496D02*
X927100Y298704D01*
X901700Y298704D02*
X901700Y285496D01*
X876300Y285496D02*
X876300Y298704D01*
X850900Y298704D02*
X850900Y285496D01*
X850900Y95504D02*
X850900Y82296D01*
X876300Y82296D02*
X876300Y95504D01*
X1003300Y95504D02*
X1003300Y82296D01*
X1028700Y82296D02*
X1028700Y95504D01*
X901700Y95504D02*
X901700Y82296D01*
X927100Y82296D02*
X927100Y95504D01*
X977900Y95504D02*
X977900Y82296D01*
X952500Y82296D02*
X952500Y95504D01*
X1028700Y158496D02*
X1028700Y171704D01*
X1003300Y171704D02*
X1003300Y158496D01*
X977900Y158496D02*
X977900Y171704D01*
X952500Y171704D02*
X952500Y158496D01*
X927100Y158496D02*
X927100Y171704D01*
X901700Y171704D02*
X901700Y158496D01*
X876300Y158496D02*
X876300Y171704D01*
X850900Y171704D02*
X850900Y158496D01*
X190500Y742696D02*
X190500Y755904D01*
X215900Y755904D02*
X215900Y742696D01*
X342900Y742696D02*
X342900Y755904D01*
X368300Y755904D02*
X368300Y742696D01*
X241300Y742696D02*
X241300Y755904D01*
X266700Y755904D02*
X266700Y742696D01*
X317500Y742696D02*
X317500Y755904D01*
X292100Y755904D02*
X292100Y742696D01*
X393700Y742696D02*
X393700Y755904D01*
X419100Y755904D02*
X419100Y742696D01*
X419100Y818896D02*
X419100Y832104D01*
X393700Y832104D02*
X393700Y818896D01*
X368300Y818896D02*
X368300Y832104D01*
X342900Y832104D02*
X342900Y818896D01*
X317500Y818896D02*
X317500Y832104D01*
X292100Y832104D02*
X292100Y818896D01*
X266700Y818896D02*
X266700Y832104D01*
X241300Y832104D02*
X241300Y818896D01*
X215900Y818896D02*
X215900Y832104D01*
X190500Y832104D02*
X190500Y818896D01*
X546100Y476504D02*
X546100Y463296D01*
X571500Y463296D02*
X571500Y476504D01*
X698500Y476504D02*
X698500Y463296D01*
X723900Y463296D02*
X723900Y476504D01*
X596900Y476504D02*
X596900Y463296D01*
X622300Y463296D02*
X622300Y476504D01*
X673100Y476504D02*
X673100Y463296D01*
X647700Y463296D02*
X647700Y476504D01*
X749300Y476504D02*
X749300Y463296D01*
X774700Y463296D02*
X774700Y476504D01*
X774700Y539496D02*
X774700Y552704D01*
X749300Y552704D02*
X749300Y539496D01*
X723900Y539496D02*
X723900Y552704D01*
X698500Y552704D02*
X698500Y539496D01*
X673100Y539496D02*
X673100Y552704D01*
X647700Y552704D02*
X647700Y539496D01*
X622300Y539496D02*
X622300Y552704D01*
X596900Y552704D02*
X596900Y539496D01*
X571500Y539496D02*
X571500Y552704D01*
X546100Y552704D02*
X546100Y539496D01*
X533400Y222504D02*
X533400Y209296D01*
X558800Y209296D02*
X558800Y222504D01*
X685800Y222504D02*
X685800Y209296D01*
X711200Y209296D02*
X711200Y222504D01*
X584200Y222504D02*
X584200Y209296D01*
X609600Y209296D02*
X609600Y222504D01*
X660400Y222504D02*
X660400Y209296D01*
X635000Y209296D02*
X635000Y222504D01*
X736600Y222504D02*
X736600Y209296D01*
X762000Y209296D02*
X762000Y222504D01*
X762000Y285496D02*
X762000Y298704D01*
X736600Y298704D02*
X736600Y285496D01*
X711200Y285496D02*
X711200Y298704D01*
X685800Y298704D02*
X685800Y285496D01*
X660400Y285496D02*
X660400Y298704D01*
X635000Y298704D02*
X635000Y285496D01*
X609600Y285496D02*
X609600Y298704D01*
X584200Y298704D02*
X584200Y285496D01*
X558800Y285496D02*
X558800Y298704D01*
X533400Y298704D02*
X533400Y285496D01*
X1447800Y222504D02*
X1447800Y209296D01*
X1473200Y209296D02*
X1473200Y222504D01*
X1600200Y222504D02*
X1600200Y209296D01*
X1625600Y209296D02*
X1625600Y222504D01*
X1498600Y222504D02*
X1498600Y209296D01*
X1524000Y209296D02*
X1524000Y222504D01*
X1574800Y222504D02*
X1574800Y209296D01*
X1549400Y209296D02*
X1549400Y222504D01*
X1625600Y285496D02*
X1625600Y298704D01*
X1600200Y298704D02*
X1600200Y285496D01*
X1574800Y285496D02*
X1574800Y298704D01*
X1549400Y298704D02*
X1549400Y285496D01*
X1524000Y285496D02*
X1524000Y298704D01*
X1498600Y298704D02*
X1498600Y285496D01*
X1473200Y285496D02*
X1473200Y298704D01*
X1447800Y298704D02*
X1447800Y285496D01*
X1447800Y336296D02*
X1447800Y349504D01*
X1473200Y349504D02*
X1473200Y336296D01*
X1600200Y336296D02*
X1600200Y349504D01*
X1625600Y349504D02*
X1625600Y336296D01*
X1498600Y336296D02*
X1498600Y349504D01*
X1524000Y349504D02*
X1524000Y336296D01*
X1574800Y336296D02*
X1574800Y349504D01*
X1549400Y349504D02*
X1549400Y336296D01*
X1625600Y412496D02*
X1625600Y425704D01*
X1600200Y425704D02*
X1600200Y412496D01*
X1574800Y412496D02*
X1574800Y425704D01*
X1549400Y425704D02*
X1549400Y412496D01*
X1524000Y412496D02*
X1524000Y425704D01*
X1498600Y425704D02*
X1498600Y412496D01*
X1473200Y412496D02*
X1473200Y425704D01*
X1447800Y425704D02*
X1447800Y412496D01*
X1447800Y463296D02*
X1447800Y476504D01*
X1473200Y476504D02*
X1473200Y463296D01*
X1600200Y463296D02*
X1600200Y476504D01*
X1625600Y476504D02*
X1625600Y463296D01*
X1498600Y463296D02*
X1498600Y476504D01*
X1524000Y476504D02*
X1524000Y463296D01*
X1574800Y463296D02*
X1574800Y476504D01*
X1549400Y476504D02*
X1549400Y463296D01*
X1625600Y539496D02*
X1625600Y552704D01*
X1600200Y552704D02*
X1600200Y539496D01*
X1574800Y539496D02*
X1574800Y552704D01*
X1549400Y552704D02*
X1549400Y539496D01*
X1524000Y539496D02*
X1524000Y552704D01*
X1498600Y552704D02*
X1498600Y539496D01*
X1473200Y539496D02*
X1473200Y552704D01*
X1447800Y552704D02*
X1447800Y539496D01*
X1130300Y222504D02*
X1130300Y209296D01*
X1155700Y209296D02*
X1155700Y222504D01*
X1282700Y222504D02*
X1282700Y209296D01*
X1308100Y209296D02*
X1308100Y222504D01*
X1181100Y222504D02*
X1181100Y209296D01*
X1206500Y209296D02*
X1206500Y222504D01*
X1257300Y222504D02*
X1257300Y209296D01*
X1231900Y209296D02*
X1231900Y222504D01*
X1333500Y222504D02*
X1333500Y209296D01*
X1358900Y209296D02*
X1358900Y222504D01*
X1358900Y285496D02*
X1358900Y298704D01*
X1333500Y298704D02*
X1333500Y285496D01*
X1308100Y285496D02*
X1308100Y298704D01*
X1282700Y298704D02*
X1282700Y285496D01*
X1257300Y285496D02*
X1257300Y298704D01*
X1231900Y298704D02*
X1231900Y285496D01*
X1206500Y285496D02*
X1206500Y298704D01*
X1181100Y298704D02*
X1181100Y285496D01*
X1155700Y285496D02*
X1155700Y298704D01*
X1130300Y298704D02*
X1130300Y285496D01*
X1130300Y463296D02*
X1130300Y476504D01*
X1155700Y476504D02*
X1155700Y463296D01*
X1282700Y463296D02*
X1282700Y476504D01*
X1308100Y476504D02*
X1308100Y463296D01*
X1181100Y463296D02*
X1181100Y476504D01*
X1206500Y476504D02*
X1206500Y463296D01*
X1257300Y463296D02*
X1257300Y476504D01*
X1231900Y476504D02*
X1231900Y463296D01*
X1333500Y463296D02*
X1333500Y476504D01*
X1358900Y476504D02*
X1358900Y463296D01*
X1358900Y539496D02*
X1358900Y552704D01*
X1333500Y552704D02*
X1333500Y539496D01*
X1308100Y539496D02*
X1308100Y552704D01*
X1282700Y552704D02*
X1282700Y539496D01*
X1257300Y539496D02*
X1257300Y552704D01*
X1231900Y552704D02*
X1231900Y539496D01*
X1206500Y539496D02*
X1206500Y552704D01*
X1181100Y552704D02*
X1181100Y539496D01*
X1155700Y539496D02*
X1155700Y552704D01*
X1130300Y552704D02*
X1130300Y539496D01*
D12*
X76200Y25400D03*
X76200Y50800D03*
X101600Y25400D03*
X101600Y50800D03*
X127000Y25400D03*
X127000Y50800D03*
X152400Y25400D03*
X152400Y50800D03*
X76200Y1092200D03*
X76200Y1117600D03*
X101600Y1092200D03*
X101600Y1117600D03*
X127000Y1092200D03*
X127000Y1117600D03*
X152400Y1092200D03*
X152400Y1117600D03*
D13*
X1727200Y1117600D03*
X1752600Y1117600D03*
X1727200Y1092200D03*
X1752600Y1092200D03*
X1727200Y1066800D03*
X1752600Y1066800D03*
X1727200Y1041400D03*
X1752600Y1041400D03*
X1727200Y1016000D03*
X1752600Y1016000D03*
X1727200Y990600D03*
X1752600Y990600D03*
X1727200Y965200D03*
X1752600Y965200D03*
X1727200Y939800D03*
X1752600Y939800D03*
X1727200Y914400D03*
X1752600Y914400D03*
X1727200Y889000D03*
X1752600Y889000D03*
X1727200Y863600D03*
X1752600Y863600D03*
X1727200Y838200D03*
X1752600Y838200D03*
X1727200Y812800D03*
X1752600Y812800D03*
X1727200Y787400D03*
X1752600Y787400D03*
X1727200Y762000D03*
X1752600Y762000D03*
X1727200Y736600D03*
X1752600Y736600D03*
X1727200Y711200D03*
X1752600Y711200D03*
X1727200Y685800D03*
X1752600Y685800D03*
X1727200Y660400D03*
X1752600Y660400D03*
X1727200Y635000D03*
X1752600Y635000D03*
X1727200Y584200D03*
X1752600Y584200D03*
X1727200Y558800D03*
X1752600Y558800D03*
X1727200Y533400D03*
X1752600Y533400D03*
X1727200Y508000D03*
X1752600Y508000D03*
X1727200Y482600D03*
X1752600Y482600D03*
X1727200Y457200D03*
X1752600Y457200D03*
X1727200Y431800D03*
X1752600Y431800D03*
X1727200Y406400D03*
X1752600Y406400D03*
X1727200Y381000D03*
X1752600Y381000D03*
X1727200Y355600D03*
X1752600Y355600D03*
X1727200Y330200D03*
X1752600Y330200D03*
X1727200Y304800D03*
X1752600Y304800D03*
X1727200Y279400D03*
X1752600Y279400D03*
X1727200Y254000D03*
X1752600Y254000D03*
X1727200Y228600D03*
X1752600Y228600D03*
X1727200Y203200D03*
X1752600Y203200D03*
X1727200Y177800D03*
X1752600Y177800D03*
X1727200Y152400D03*
X1752600Y152400D03*
X1727200Y127000D03*
X1752600Y127000D03*
X1727200Y101600D03*
X1752600Y101600D03*
D11*
X673100Y120396D02*
X673100Y133604D01*
X647700Y133604D02*
X647700Y120396D01*
X622300Y120396D02*
X622300Y133604D01*
X596900Y133604D02*
X596900Y120396D01*
X571500Y120396D02*
X571500Y133604D01*
X546100Y133604D02*
X546100Y120396D01*
X520700Y120396D02*
X520700Y133604D01*
X495300Y133604D02*
X495300Y120396D01*
X469900Y120396D02*
X469900Y133604D01*
X419100Y133604D02*
X419100Y120396D01*
X393700Y120396D02*
X393700Y133604D01*
X368300Y133604D02*
X368300Y120396D01*
X342900Y120396D02*
X342900Y133604D01*
X317500Y133604D02*
X317500Y120396D01*
X292100Y120396D02*
X292100Y133604D01*
X266700Y133604D02*
X266700Y120396D01*
X241300Y120396D02*
X241300Y133604D01*
X215900Y133604D02*
X215900Y120396D01*
D14*
X50800Y177800D03*
X50800Y203200D03*
X50800Y228600D03*
X50800Y254000D03*
X50800Y279400D03*
X50800Y304800D03*
X50800Y330200D03*
X50800Y355600D03*
X50800Y381000D03*
X50800Y406400D03*
X50800Y431800D03*
X50800Y457200D03*
X50800Y482600D03*
X50800Y508000D03*
X50800Y533400D03*
X50800Y558800D03*
X76200Y177800D03*
X76200Y203200D03*
X76200Y228600D03*
X76200Y254000D03*
X76200Y279400D03*
X76200Y304800D03*
X76200Y330200D03*
X76200Y355600D03*
X76200Y381000D03*
X76200Y406400D03*
X76200Y431800D03*
X76200Y457200D03*
X76200Y482600D03*
X76200Y508000D03*
X76200Y533400D03*
X76200Y558800D03*
X101600Y177800D03*
X101600Y203200D03*
X101600Y228600D03*
X101600Y254000D03*
X101600Y279400D03*
X101600Y304800D03*
X101600Y330200D03*
X101600Y355600D03*
X101600Y381000D03*
X101600Y406400D03*
X101600Y431800D03*
X101600Y457200D03*
X101600Y482600D03*
X101600Y508000D03*
X101600Y533400D03*
X101600Y558800D03*
X50800Y584200D03*
X50800Y609600D03*
X50800Y635000D03*
X50800Y660400D03*
X50800Y685800D03*
X50800Y711200D03*
X50800Y736600D03*
X50800Y762000D03*
X50800Y787400D03*
X50800Y812800D03*
X50800Y838200D03*
X50800Y863600D03*
X50800Y889000D03*
X50800Y914400D03*
X50800Y939800D03*
X50800Y965200D03*
X76200Y584200D03*
X76200Y609600D03*
X76200Y635000D03*
X76200Y660400D03*
X76200Y685800D03*
X76200Y711200D03*
X76200Y736600D03*
X76200Y762000D03*
X76200Y787400D03*
X76200Y812800D03*
X76200Y838200D03*
X76200Y863600D03*
X76200Y889000D03*
X76200Y914400D03*
X76200Y939800D03*
X76200Y965200D03*
X101600Y584200D03*
X101600Y609600D03*
X101600Y635000D03*
X101600Y660400D03*
X101600Y685800D03*
X101600Y711200D03*
X101600Y736600D03*
X101600Y762000D03*
X101600Y787400D03*
X101600Y812800D03*
X101600Y838200D03*
X101600Y863600D03*
X101600Y889000D03*
X101600Y914400D03*
X101600Y939800D03*
X101600Y965200D03*
D15*
X1739900Y38100D03*
X1714500Y38100D03*
X1549400Y38100D03*
X1447800Y38100D03*
D11*
X266700Y209296D02*
X266700Y222504D01*
X292100Y222504D02*
X292100Y209296D01*
X419100Y209296D02*
X419100Y222504D01*
X419100Y285496D02*
X419100Y298704D01*
X317500Y222504D02*
X317500Y209296D01*
X342900Y209296D02*
X342900Y222504D01*
X393700Y222504D02*
X393700Y209296D01*
X368300Y209296D02*
X368300Y222504D01*
X393700Y285496D02*
X393700Y298704D01*
X368300Y298704D02*
X368300Y285496D01*
X342900Y285496D02*
X342900Y298704D01*
X317500Y298704D02*
X317500Y285496D01*
X292100Y285496D02*
X292100Y298704D01*
X266700Y298704D02*
X266700Y285496D01*
X609600Y336296D02*
X609600Y349504D01*
X635000Y349504D02*
X635000Y336296D01*
X762000Y336296D02*
X762000Y349504D01*
X762000Y412496D02*
X762000Y425704D01*
X660400Y349504D02*
X660400Y336296D01*
X685800Y336296D02*
X685800Y349504D01*
X736600Y349504D02*
X736600Y336296D01*
X711200Y336296D02*
X711200Y349504D01*
X736600Y412496D02*
X736600Y425704D01*
X711200Y425704D02*
X711200Y412496D01*
X685800Y412496D02*
X685800Y425704D01*
X660400Y425704D02*
X660400Y412496D01*
X635000Y412496D02*
X635000Y425704D01*
X609600Y425704D02*
X609600Y412496D01*
X622300Y615696D02*
X622300Y628904D01*
X647700Y628904D02*
X647700Y615696D01*
X774700Y615696D02*
X774700Y628904D01*
X774700Y691896D02*
X774700Y705104D01*
X673100Y628904D02*
X673100Y615696D01*
X698500Y615696D02*
X698500Y628904D01*
X749300Y628904D02*
X749300Y615696D01*
X723900Y615696D02*
X723900Y628904D01*
X749300Y691896D02*
X749300Y705104D01*
X723900Y705104D02*
X723900Y691896D01*
X698500Y691896D02*
X698500Y705104D01*
X673100Y705104D02*
X673100Y691896D01*
X647700Y691896D02*
X647700Y705104D01*
X622300Y705104D02*
X622300Y691896D01*
X622300Y869696D02*
X622300Y882904D01*
X647700Y882904D02*
X647700Y869696D01*
X774700Y869696D02*
X774700Y882904D01*
X774700Y945896D02*
X774700Y959104D01*
X673100Y882904D02*
X673100Y869696D01*
X698500Y869696D02*
X698500Y882904D01*
X749300Y882904D02*
X749300Y869696D01*
X723900Y869696D02*
X723900Y882904D01*
X749300Y945896D02*
X749300Y959104D01*
X723900Y959104D02*
X723900Y945896D01*
X698500Y945896D02*
X698500Y959104D01*
X673100Y959104D02*
X673100Y945896D01*
X647700Y945896D02*
X647700Y959104D01*
X622300Y959104D02*
X622300Y945896D01*
X1206500Y349504D02*
X1206500Y336296D01*
X1231900Y336296D02*
X1231900Y349504D01*
X1358900Y349504D02*
X1358900Y336296D01*
X1358900Y412496D02*
X1358900Y425704D01*
X1257300Y349504D02*
X1257300Y336296D01*
X1282700Y336296D02*
X1282700Y349504D01*
X1333500Y349504D02*
X1333500Y336296D01*
X1308100Y336296D02*
X1308100Y349504D01*
X1333500Y412496D02*
X1333500Y425704D01*
X1308100Y425704D02*
X1308100Y412496D01*
X1282700Y412496D02*
X1282700Y425704D01*
X1257300Y425704D02*
X1257300Y412496D01*
X1231900Y412496D02*
X1231900Y425704D01*
X1206500Y425704D02*
X1206500Y412496D01*
X1206500Y615696D02*
X1206500Y628904D01*
X1231900Y628904D02*
X1231900Y615696D01*
X1358900Y615696D02*
X1358900Y628904D01*
X1358900Y691896D02*
X1358900Y705104D01*
X1257300Y628904D02*
X1257300Y615696D01*
X1282700Y615696D02*
X1282700Y628904D01*
X1333500Y628904D02*
X1333500Y615696D01*
X1308100Y615696D02*
X1308100Y628904D01*
X1333500Y691896D02*
X1333500Y705104D01*
X1308100Y705104D02*
X1308100Y691896D01*
X1282700Y691896D02*
X1282700Y705104D01*
X1257300Y705104D02*
X1257300Y691896D01*
X1231900Y691896D02*
X1231900Y705104D01*
X1206500Y705104D02*
X1206500Y691896D01*
X1206500Y869696D02*
X1206500Y882904D01*
X1231900Y882904D02*
X1231900Y869696D01*
X1358900Y869696D02*
X1358900Y882904D01*
X1358900Y945896D02*
X1358900Y959104D01*
X1257300Y882904D02*
X1257300Y869696D01*
X1282700Y869696D02*
X1282700Y882904D01*
X1333500Y882904D02*
X1333500Y869696D01*
X1308100Y869696D02*
X1308100Y882904D01*
X1333500Y945896D02*
X1333500Y959104D01*
X1308100Y959104D02*
X1308100Y945896D01*
X1282700Y945896D02*
X1282700Y959104D01*
X1257300Y959104D02*
X1257300Y945896D01*
X1231900Y945896D02*
X1231900Y959104D01*
X1206500Y959104D02*
X1206500Y945896D01*
X266700Y996696D02*
X266700Y1009904D01*
X292100Y1009904D02*
X292100Y996696D01*
X419100Y996696D02*
X419100Y1009904D01*
X419100Y1072896D02*
X419100Y1086104D01*
X317500Y1009904D02*
X317500Y996696D01*
X342900Y996696D02*
X342900Y1009904D01*
X393700Y1009904D02*
X393700Y996696D01*
X368300Y996696D02*
X368300Y1009904D01*
X393700Y1072896D02*
X393700Y1086104D01*
X368300Y1086104D02*
X368300Y1072896D01*
X342900Y1072896D02*
X342900Y1086104D01*
X317500Y1086104D02*
X317500Y1072896D01*
X292100Y1072896D02*
X292100Y1086104D01*
X266700Y1086104D02*
X266700Y1072896D01*
D16*
X180975Y955675D02*
X152400Y927100D01*
X180975Y955675D02*
X180975Y1006475D01*
X228600Y1054100D01*
X419100Y1079500D02*
X419100Y1003300D01*
X508000Y1016000D02*
X508000Y800100D01*
X508000Y1016000D02*
X498475Y1025525D01*
X498475Y1044575D01*
X508000Y1054100D01*
X409575Y758825D02*
X419100Y749300D01*
X409575Y758825D02*
X409575Y866775D01*
X419100Y876300D01*
X152400Y660400D02*
X142875Y669925D01*
X142875Y790575D01*
X152400Y800100D01*
X409575Y225425D02*
X419100Y215900D01*
X409575Y225425D02*
X409575Y333375D01*
X419100Y342900D01*
X409575Y460375D02*
X419100Y469900D01*
X409575Y460375D02*
X409575Y333375D01*
X409575Y612775D02*
X419100Y622300D01*
X409575Y612775D02*
X409575Y460375D01*
X409575Y739775D02*
X419100Y749300D01*
X409575Y739775D02*
X409575Y650875D01*
X419100Y641350D01*
X419100Y622300D01*
X409575Y993775D02*
X419100Y1003300D01*
X409575Y993775D02*
X409575Y927100D01*
X419100Y917575D01*
X419100Y876300D01*
X1714500Y88900D02*
X1727200Y88900D01*
X1714500Y88900D02*
X1625600Y88900D01*
X1727200Y88900D02*
X1727200Y101600D01*
X1714500Y88900D02*
X1714500Y38100D01*
X1625600Y215900D02*
X1616075Y225425D01*
X1616075Y333375D01*
X1625600Y342900D01*
X1616075Y460375D02*
X1625600Y469900D01*
X1616075Y460375D02*
X1616075Y333375D01*
X1612900Y101600D02*
X1625600Y88900D01*
X1612900Y101600D02*
X1612900Y203200D01*
X1625600Y215900D01*
X1625600Y749300D02*
X1616075Y758825D01*
X1616075Y866775D01*
X1625600Y876300D01*
X1616075Y993775D02*
X1625600Y1003300D01*
X1616075Y993775D02*
X1616075Y866775D01*
X1625600Y1016000D02*
X1727200Y1117600D01*
X1625600Y1016000D02*
X1625600Y1003300D01*
X1616075Y631825D02*
X1625600Y622300D01*
X1616075Y631825D02*
X1616075Y758825D01*
X1616075Y479425D02*
X1625600Y469900D01*
X1616075Y479425D02*
X1616075Y631825D01*
X800100Y215900D02*
X762000Y215900D01*
X800100Y215900D02*
X800100Y244475D01*
X812800Y257175D01*
X812800Y266700D01*
X812800Y342900D02*
X774700Y342900D01*
X762000Y342900D01*
X812800Y342900D02*
X812800Y266700D01*
X774700Y342900D02*
X774700Y469900D01*
X812800Y139700D02*
X822325Y130175D01*
X822325Y111125D01*
X815975Y104775D01*
X800100Y104775D01*
X800100Y215900D01*
X774700Y622300D02*
X784225Y631825D01*
X784225Y739775D01*
X774700Y749300D01*
X765175Y866775D02*
X774700Y876300D01*
X765175Y866775D02*
X765175Y758825D01*
X774700Y749300D01*
X819150Y1047750D02*
X825500Y1054100D01*
X819150Y1047750D02*
X784225Y1012825D01*
X774700Y1003300D01*
X784225Y885825D02*
X774700Y876300D01*
X784225Y885825D02*
X784225Y1012825D01*
X784225Y479425D02*
X774700Y469900D01*
X784225Y479425D02*
X784225Y631825D01*
X1349375Y758825D02*
X1358900Y749300D01*
X1349375Y758825D02*
X1349375Y866775D01*
X1358900Y876300D01*
X1368425Y993775D02*
X1358900Y1003300D01*
X1368425Y993775D02*
X1368425Y885825D01*
X1358900Y876300D01*
X1368425Y225425D02*
X1358900Y215900D01*
X1368425Y225425D02*
X1368425Y333375D01*
X1358900Y342900D01*
X1368425Y460375D02*
X1358900Y469900D01*
X1368425Y460375D02*
X1368425Y333375D01*
X1368425Y612775D02*
X1358900Y622300D01*
X1368425Y612775D02*
X1368425Y460375D01*
X1349375Y739775D02*
X1358900Y749300D01*
X1349375Y739775D02*
X1349375Y631825D01*
X1358900Y622300D01*
X1409700Y800100D02*
X1412875Y803275D01*
X1412875Y892175D01*
X1419225Y898525D01*
X1419225Y917575D01*
X1409700Y927100D01*
X1419225Y1044575D02*
X1409700Y1054100D01*
X1419225Y1044575D02*
X1419225Y917575D01*
X1419225Y149225D02*
X1409700Y139700D01*
X1419225Y149225D02*
X1419225Y257175D01*
X1409700Y266700D01*
X1419225Y384175D02*
X1409700Y393700D01*
X1419225Y384175D02*
X1419225Y257175D01*
X1419225Y511175D02*
X1409700Y520700D01*
X1419225Y511175D02*
X1419225Y384175D01*
X1419225Y663575D02*
X1409700Y673100D01*
X1419225Y663575D02*
X1419225Y511175D01*
X1416050Y793750D02*
X1409700Y800100D01*
X1416050Y793750D02*
X1416050Y781050D01*
X1419225Y777875D01*
X1419225Y663575D01*
X1397000Y225425D02*
X1368425Y225425D01*
X1397000Y225425D02*
X1397000Y114300D01*
X1406525Y104775D01*
X1419225Y104775D01*
X1419225Y149225D01*
X1041400Y749300D02*
X1031875Y758825D01*
X1031875Y866775D01*
X1041400Y876300D01*
X1019175Y98425D02*
X1028700Y88900D01*
X1019175Y133350D02*
X1019175Y206375D01*
X1019175Y133350D02*
X1019175Y98425D01*
X1019175Y206375D02*
X1028700Y215900D01*
X1019175Y320675D02*
X1041400Y342900D01*
X1019175Y320675D02*
X1019175Y206375D01*
X1050925Y460375D02*
X1041400Y469900D01*
X1050925Y460375D02*
X1050925Y352425D01*
X1041400Y342900D01*
X1092200Y266700D02*
X1057275Y231775D01*
X1057275Y171450D01*
X1019175Y133350D01*
X1050925Y612775D02*
X1041400Y622300D01*
X1050925Y612775D02*
X1050925Y460375D01*
X1031875Y739775D02*
X1041400Y749300D01*
X1031875Y739775D02*
X1031875Y685800D01*
X1041400Y676275D01*
X1041400Y622300D01*
X212725Y403225D02*
X203200Y393700D01*
X212725Y403225D02*
X212725Y511175D01*
X203200Y520700D01*
X212725Y282575D02*
X228600Y266700D01*
X212725Y282575D02*
X212725Y403225D01*
X825500Y520700D02*
X835025Y511175D01*
X835025Y403225D01*
X825500Y393700D01*
X835025Y663575D02*
X825500Y673100D01*
X835025Y663575D02*
X835025Y511175D01*
X835025Y790575D02*
X825500Y800100D01*
X835025Y790575D02*
X835025Y663575D01*
X835025Y917575D02*
X825500Y927100D01*
X835025Y917575D02*
X835025Y790575D01*
X1082675Y1044575D02*
X1092200Y1054100D01*
X1082675Y1044575D02*
X1082675Y809625D01*
X1092200Y800100D01*
X1082675Y276225D02*
X1092200Y266700D01*
X1082675Y276225D02*
X1082675Y511175D01*
X1092200Y520700D01*
X835025Y1031875D02*
X819150Y1047750D01*
X835025Y1031875D02*
X835025Y917575D01*
X266700Y1066800D02*
X228600Y1028700D01*
X266700Y1066800D02*
X266700Y1079500D01*
X168275Y847725D02*
X190500Y825500D01*
X168275Y847725D02*
X168275Y885825D01*
X152400Y901700D01*
X152400Y914400D02*
X190500Y952500D01*
X152400Y914400D02*
X152400Y901700D01*
X190500Y990600D02*
X228600Y1028700D01*
X190500Y990600D02*
X190500Y952500D01*
X419100Y127000D02*
X460375Y85725D01*
X485775Y85725D01*
X485775Y231775D01*
X495300Y241300D01*
X536575Y536575D02*
X546100Y546100D01*
X536575Y536575D02*
X536575Y295275D01*
X533400Y292100D01*
X228600Y241300D02*
X203200Y266700D01*
X203200Y368300D01*
X241300Y419100D02*
X231775Y428625D01*
X231775Y495300D02*
X231775Y536575D01*
X231775Y495300D02*
X231775Y428625D01*
X231775Y536575D02*
X241300Y546100D01*
X193675Y504825D02*
X152400Y546100D01*
X193675Y504825D02*
X203200Y495300D01*
X152400Y546100D02*
X152400Y635000D01*
X200025Y688975D02*
X190500Y698500D01*
X200025Y688975D02*
X200025Y593725D01*
X152400Y546100D01*
X161925Y765175D02*
X152400Y774700D01*
X161925Y765175D02*
X161925Y644525D01*
X152400Y635000D01*
X231775Y495300D02*
X234950Y495300D01*
X193675Y377825D02*
X203200Y368300D01*
X193675Y377825D02*
X193675Y504825D01*
X123825Y917575D02*
X101600Y939800D01*
X123825Y917575D02*
X123825Y841375D01*
X161925Y803275D01*
X161925Y765175D01*
X1438275Y47625D02*
X1447800Y38100D01*
X1438275Y47625D02*
X1438275Y155575D01*
X1447800Y165100D01*
X1438275Y282575D02*
X1447800Y292100D01*
X1438275Y282575D02*
X1438275Y155575D01*
X1438275Y409575D02*
X1447800Y419100D01*
X1438275Y409575D02*
X1438275Y282575D01*
X1438275Y536575D02*
X1447800Y546100D01*
X1438275Y536575D02*
X1438275Y409575D01*
X1447800Y698500D02*
X1457325Y708025D01*
X1457325Y815975D01*
X1447800Y825500D01*
X1447800Y952500D02*
X1438275Y962025D01*
X1438275Y1063625D02*
X1438275Y1069975D01*
X1438275Y1063625D02*
X1438275Y962025D01*
X1438275Y1069975D02*
X1447800Y1079500D01*
X1438275Y835025D02*
X1447800Y825500D01*
X1438275Y835025D02*
X1438275Y962025D01*
X1130300Y863600D02*
X1130300Y825500D01*
X1130300Y863600D02*
X1168400Y901700D01*
X1206500Y917575D02*
X1206500Y952500D01*
X1206500Y917575D02*
X1200150Y911225D01*
X1168400Y911225D01*
X1168400Y901700D01*
X1120775Y1069975D02*
X1130300Y1079500D01*
X1120775Y1069975D02*
X1120775Y958850D01*
X1168400Y911225D01*
X1400175Y123825D02*
X1409700Y114300D01*
X1400175Y123825D02*
X1400175Y231775D01*
X1409700Y241300D01*
X1400175Y358775D02*
X1409700Y368300D01*
X1400175Y358775D02*
X1400175Y231775D01*
X1400175Y485775D02*
X1409700Y495300D01*
X1400175Y485775D02*
X1400175Y358775D01*
X1400175Y638175D02*
X1409700Y647700D01*
X1400175Y638175D02*
X1400175Y485775D01*
X1400175Y765175D02*
X1409700Y774700D01*
X1400175Y765175D02*
X1400175Y638175D01*
X1400175Y892175D02*
X1409700Y901700D01*
X1400175Y892175D02*
X1400175Y765175D01*
X1400175Y1019175D02*
X1409700Y1028700D01*
X1400175Y1019175D02*
X1400175Y892175D01*
X1400175Y1063625D02*
X1438275Y1063625D01*
X1400175Y1063625D02*
X1400175Y1019175D01*
X1457325Y555625D02*
X1447800Y546100D01*
X1457325Y555625D02*
X1457325Y708025D01*
X1130300Y279400D02*
X1092200Y241300D01*
X1130300Y279400D02*
X1130300Y292100D01*
X1130300Y330200D02*
X1168400Y368300D01*
X1130300Y330200D02*
X1130300Y292100D01*
X1196975Y409575D02*
X1206500Y419100D01*
X1196975Y409575D02*
X1196975Y384175D01*
X1181100Y368300D01*
X1168400Y368300D01*
X1196975Y688975D02*
X1206500Y698500D01*
X1196975Y688975D02*
X1196975Y409575D01*
X1092200Y495300D02*
X1130300Y533400D01*
X1130300Y546100D01*
X1130300Y609600D02*
X1168400Y647700D01*
X1130300Y609600D02*
X1130300Y546100D01*
X1114425Y752475D02*
X1101725Y765175D01*
X1092200Y774700D01*
X1114425Y752475D02*
X1114425Y701675D01*
X1168400Y647700D01*
X1101725Y1019175D02*
X1092200Y1028700D01*
X1101725Y1019175D02*
X1101725Y765175D01*
X1092200Y444500D02*
X1168400Y368300D01*
X1092200Y444500D02*
X1092200Y495300D01*
X631825Y708025D02*
X622300Y698500D01*
X631825Y901700D02*
X631825Y914400D01*
X631825Y901700D02*
X631825Y708025D01*
X631825Y914400D02*
X622300Y923925D01*
X622300Y952500D01*
X584200Y863600D02*
X555625Y835025D01*
X546100Y825500D01*
X584200Y863600D02*
X584200Y901700D01*
X815975Y911225D02*
X825500Y901700D01*
X815975Y911225D02*
X815975Y1019175D01*
X825500Y1028700D01*
X631825Y901700D02*
X628650Y901700D01*
X815975Y784225D02*
X825500Y774700D01*
X815975Y784225D02*
X815975Y911225D01*
X841375Y174625D02*
X850900Y165100D01*
X841375Y174625D02*
X841375Y282575D01*
X850900Y292100D01*
X803275Y123825D02*
X812800Y114300D01*
X803275Y123825D02*
X803275Y231775D01*
X812800Y241300D01*
X609600Y365125D02*
X609600Y419100D01*
X815975Y485775D02*
X825500Y495300D01*
X815975Y485775D02*
X815975Y377825D01*
X819150Y374650D02*
X825500Y368300D01*
X819150Y374650D02*
X815975Y377825D01*
X819150Y374650D02*
X854075Y409575D01*
X863600Y419100D01*
X854075Y536575D02*
X863600Y546100D01*
X854075Y536575D02*
X854075Y409575D01*
X854075Y688975D02*
X863600Y698500D01*
X854075Y688975D02*
X854075Y536575D01*
X854075Y815975D02*
X863600Y825500D01*
X854075Y815975D02*
X854075Y688975D01*
X854075Y942975D02*
X863600Y952500D01*
X854075Y942975D02*
X854075Y815975D01*
X873125Y1069975D02*
X863600Y1079500D01*
X873125Y1069975D02*
X873125Y962025D01*
X863600Y952500D01*
X825500Y647700D02*
X815975Y638175D01*
X815975Y485775D01*
X825500Y254000D02*
X812800Y241300D01*
X825500Y254000D02*
X825500Y368300D01*
X815975Y765175D02*
X825500Y774700D01*
X815975Y765175D02*
X815975Y638175D01*
X536575Y1069975D02*
X546100Y1079500D01*
X536575Y1069975D02*
X536575Y854075D01*
X555625Y835025D01*
D17*
X234950Y495300D03*
X628650Y901700D03*
X609600Y365125D03*
D16*
X736600Y850900D02*
X739775Y854075D01*
X739775Y993775D01*
X749300Y1003300D01*
X889000Y1041400D02*
X889000Y1079500D01*
X787400Y1041400D02*
X749300Y1003300D01*
X1473200Y546100D02*
X1482725Y555625D01*
X1482725Y942975D01*
X1473200Y952500D01*
X1358900Y977900D02*
X1333500Y1003300D01*
X1466850Y977900D02*
X1473200Y971550D01*
X1473200Y952500D01*
X701675Y146050D02*
X704850Y142875D01*
X701675Y146050D02*
X701675Y311150D01*
X720725Y330200D01*
X720725Y450850D01*
X714375Y457200D01*
X714375Y482600D01*
X717550Y485775D01*
X749300Y485775D01*
X749300Y469900D01*
X885825Y542925D02*
X889000Y546100D01*
X885825Y542925D02*
X885825Y514350D01*
X752475Y508000D02*
X749300Y504825D01*
X749300Y485775D01*
X1330325Y473075D02*
X1333500Y469900D01*
X1330325Y473075D02*
X1330325Y508000D01*
X1473200Y514350D02*
X1473200Y546100D01*
X739775Y847725D02*
X736600Y850900D01*
X739775Y847725D02*
X739775Y520700D01*
X752475Y508000D01*
D17*
X736600Y850900D03*
X889000Y1041400D03*
X787400Y1041400D03*
X1358900Y977900D03*
X1466850Y977900D03*
X704850Y142875D03*
X885825Y514350D03*
X752475Y508000D03*
X1330325Y508000D03*
X1473200Y514350D03*
D16*
X266700Y825500D02*
X257175Y835025D01*
X257175Y933450D01*
X1447800Y876300D02*
X1460500Y863600D01*
X1460500Y508000D01*
X1447800Y495300D01*
X1447800Y469900D01*
X631825Y117475D02*
X622300Y127000D01*
X631825Y117475D02*
X631825Y95250D01*
X635000Y92075D01*
X698500Y92075D01*
X698500Y469900D01*
X847725Y987425D02*
X863600Y1003300D01*
X847725Y987425D02*
X847725Y485775D01*
D17*
X257175Y933450D03*
X847725Y485775D03*
D16*
X1016000Y1079500D02*
X1035050Y1098550D01*
X1219200Y1098550D01*
X1219200Y1016000D01*
X1231900Y1003300D01*
X1225550Y520700D02*
X1231900Y514350D01*
X1231900Y469900D01*
X1600200Y546100D02*
X1609725Y555625D01*
X1609725Y942975D01*
X1600200Y952500D01*
X1073150Y1022350D02*
X1016000Y1079500D01*
X1073150Y1022350D02*
X1073150Y533400D01*
X600075Y130175D02*
X596900Y127000D01*
X600075Y130175D02*
X600075Y450850D01*
X606425Y457200D01*
X606425Y485775D01*
X292100Y825500D02*
X282575Y835025D01*
X282575Y965200D01*
X295275Y977900D01*
X657225Y479425D02*
X647700Y469900D01*
X657225Y596900D02*
X657225Y666750D01*
X657225Y596900D02*
X657225Y479425D01*
X657225Y666750D02*
X660400Y669925D01*
X660400Y917575D01*
X638175Y939800D01*
X638175Y993775D01*
X647700Y1003300D01*
X1012825Y549275D02*
X1016000Y546100D01*
X1012825Y549275D02*
X1012825Y587375D01*
D17*
X1225550Y520700D03*
X1073150Y533400D03*
X606425Y485775D03*
X295275Y977900D03*
X1012825Y587375D03*
X657225Y596900D03*
D16*
X574675Y130175D02*
X571500Y127000D01*
X574675Y130175D02*
X574675Y260350D01*
X596900Y282575D01*
X596900Y469900D01*
X317500Y825500D02*
X307975Y835025D01*
X307975Y968375D01*
X600075Y473075D02*
X596900Y469900D01*
X600075Y473075D02*
X600075Y520700D01*
X609600Y530225D01*
X609600Y590550D02*
X609600Y847725D01*
X609600Y590550D02*
X609600Y530225D01*
X609600Y847725D02*
X596900Y860425D01*
X596900Y1003300D01*
X1117600Y1079500D02*
X1120775Y1079500D01*
X1117600Y1079500D02*
X1041400Y1079500D01*
X1120775Y1079500D02*
X1120775Y1092200D01*
X1123950Y1095375D01*
X1190625Y1095375D01*
X1190625Y1012825D01*
X1181100Y1003300D01*
X1177925Y520700D02*
X1181100Y517525D01*
X1177925Y520700D02*
X1171575Y527050D01*
X1181100Y517525D02*
X1181100Y469900D01*
X1625600Y546100D02*
X1635125Y555625D01*
X1635125Y942975D01*
X1625600Y952500D01*
X1117600Y1079500D02*
X1117600Y711200D01*
X1190625Y638175D01*
X1190625Y533400D01*
X1177925Y520700D01*
D17*
X307975Y968375D03*
X1171575Y527050D03*
X609600Y590550D03*
D16*
X1165225Y965200D02*
X1171575Y971550D01*
X1171575Y1069975D01*
X1181100Y1079500D01*
X523875Y149225D02*
X546100Y127000D01*
X523875Y149225D02*
X523875Y260350D01*
X549275Y285750D01*
X549275Y450850D01*
X555625Y457200D01*
X555625Y504825D01*
X596900Y546100D01*
X885825Y422275D02*
X889000Y419100D01*
X885825Y422275D02*
X885825Y450850D01*
X536575Y800100D02*
X527050Y809625D01*
X536575Y800100D02*
X536575Y606425D01*
X596900Y546100D01*
X1143000Y508000D02*
X1181100Y546100D01*
X1143000Y508000D02*
X1143000Y460375D01*
X1470025Y422275D02*
X1473200Y419100D01*
X1470025Y422275D02*
X1470025Y450850D01*
X1162050Y450850D02*
X1143000Y450850D01*
X1143000Y460375D01*
X596900Y1079500D02*
X581025Y1095375D01*
X527050Y1095375D01*
X527050Y809625D01*
D17*
X1165225Y965200D03*
X885825Y450850D03*
X549275Y450850D03*
X527050Y809625D03*
X1143000Y460375D03*
X1470025Y450850D03*
X1162050Y450850D03*
D16*
X647700Y546100D02*
X641350Y552450D01*
X641350Y606425D01*
X635000Y612775D01*
X635000Y920750D02*
X635000Y1060450D01*
X635000Y920750D02*
X635000Y860425D01*
X635000Y612775D01*
X635000Y1060450D02*
X647700Y1073150D01*
X647700Y1079500D01*
X657225Y803275D02*
X644525Y790575D01*
X657225Y803275D02*
X657225Y838200D01*
X635000Y860425D01*
X857250Y882650D02*
X863600Y876300D01*
X857250Y882650D02*
X857250Y920750D01*
X860425Y923925D01*
X520700Y307975D02*
X520700Y127000D01*
X844550Y311150D02*
X863600Y330200D01*
X863600Y342900D01*
X1247775Y1063625D02*
X1231900Y1079500D01*
X1247775Y1063625D02*
X1247775Y990600D01*
X1250950Y987425D01*
X1323975Y987425D01*
X1323975Y1016000D01*
X1346200Y1038225D02*
X1403350Y1095375D01*
X1346200Y1038225D02*
X1323975Y1016000D01*
X1403350Y1095375D02*
X1454150Y1095375D01*
X1457325Y1092200D01*
X1457325Y1012825D01*
X1447800Y1003300D01*
X1231900Y546100D02*
X1241425Y536575D01*
X1241425Y327025D01*
X1235075Y320675D01*
X1235075Y317500D01*
X1384300Y1000125D02*
X1346200Y1038225D01*
X1384300Y1000125D02*
X1384300Y539750D01*
X647700Y546100D02*
X638175Y536575D01*
X638175Y438150D01*
X644525Y431800D01*
X644525Y317500D01*
X641350Y314325D01*
D17*
X644525Y790575D03*
X860425Y923925D03*
X635000Y920750D03*
X520700Y307975D03*
X844550Y311150D03*
X1235075Y317500D03*
X1384300Y539750D03*
X641350Y314325D03*
D16*
X1016000Y952500D02*
X1016000Y981075D01*
X1003300Y993775D01*
X1003300Y1050925D01*
X1031875Y434975D02*
X1016000Y419100D01*
X1031875Y434975D02*
X1031875Y492125D01*
X1263650Y508000D02*
X1282700Y527050D01*
X1282700Y546100D01*
X1600200Y419100D02*
X1609725Y428625D01*
X1609725Y488950D01*
X514350Y146050D02*
X495300Y127000D01*
X514350Y146050D02*
X514350Y460375D01*
X530225Y476250D01*
X530225Y536575D01*
X520700Y809625D02*
X517525Y812800D01*
X514350Y815975D01*
X520700Y809625D02*
X520700Y546100D01*
X530225Y536575D01*
X698500Y1079500D02*
X669925Y1108075D01*
X517525Y1108075D01*
X517525Y812800D01*
X698500Y539750D02*
X742950Y495300D01*
X698500Y539750D02*
X698500Y546100D01*
D17*
X1003300Y1050925D03*
X1031875Y492125D03*
X1263650Y508000D03*
X1609725Y488950D03*
X530225Y536575D03*
X514350Y815975D03*
X742950Y495300D03*
D16*
X1333500Y1079500D02*
X1362075Y1108075D01*
X1536700Y1108075D02*
X1577975Y1108075D01*
X1536700Y1108075D02*
X1362075Y1108075D01*
X1057275Y431800D02*
X1060450Y428625D01*
X1057275Y441325D02*
X1057275Y800100D01*
X1057275Y441325D02*
X1057275Y431800D01*
X1057275Y800100D02*
X1060450Y803275D01*
X1060450Y933450D01*
X1041400Y952500D01*
X1333500Y546100D02*
X1323975Y536575D01*
X1323975Y438150D01*
X1060450Y441325D02*
X1057275Y441325D01*
X1622425Y422275D02*
X1625600Y419100D01*
X1622425Y422275D02*
X1622425Y444500D01*
X1536700Y447675D02*
X1536700Y1108075D01*
X1536700Y447675D02*
X1533525Y444500D01*
X482600Y139700D02*
X469900Y127000D01*
X482600Y139700D02*
X482600Y434975D01*
X520700Y473075D01*
X520700Y527050D01*
X498475Y819150D02*
X501650Y822325D01*
X498475Y819150D02*
X498475Y549275D01*
X520700Y527050D01*
X742950Y1073150D02*
X749300Y1079500D01*
X742950Y1073150D02*
X742950Y1019175D01*
X733425Y1009650D01*
X733425Y981075D02*
X733425Y857250D01*
X733425Y981075D02*
X733425Y1009650D01*
X733425Y857250D02*
X711200Y835025D01*
X711200Y815975D01*
X1031875Y962025D02*
X1041400Y952500D01*
X1031875Y962025D02*
X1031875Y981075D01*
D17*
X1577975Y1108075D03*
X1060450Y428625D03*
X1323975Y438150D03*
X1060450Y441325D03*
X1622425Y444500D03*
X1533525Y444500D03*
X520700Y527050D03*
X501650Y822325D03*
X711200Y815975D03*
X1031875Y981075D03*
X733425Y981075D03*
D16*
X1489075Y174625D02*
X1498600Y165100D01*
X1489075Y174625D02*
X1489075Y282575D01*
X1498600Y292100D01*
X1489075Y409575D02*
X1498600Y419100D01*
X1489075Y409575D02*
X1489075Y282575D01*
X1489075Y536575D02*
X1498600Y546100D01*
X1489075Y536575D02*
X1489075Y409575D01*
X1498600Y698500D02*
X1489075Y708025D01*
X1489075Y815975D01*
X1498600Y825500D01*
X1498600Y952500D02*
X1489075Y962025D01*
X1489075Y1069975D01*
X1498600Y1079500D01*
X1508125Y835025D02*
X1498600Y825500D01*
X1508125Y835025D02*
X1508125Y942975D01*
X1498600Y952500D01*
X1508125Y555625D02*
X1498600Y546100D01*
X1508125Y555625D02*
X1508125Y688975D01*
X1498600Y698500D01*
X901700Y165100D02*
X892175Y174625D01*
X892175Y282575D01*
X901700Y292100D01*
X904875Y409575D02*
X914400Y419100D01*
X904875Y409575D02*
X904875Y295275D01*
X901700Y292100D01*
X904875Y536575D02*
X914400Y546100D01*
X904875Y536575D02*
X904875Y409575D01*
X914400Y698500D02*
X904875Y708025D01*
X904875Y815975D01*
X914400Y825500D01*
X904875Y942975D02*
X914400Y952500D01*
X904875Y942975D02*
X904875Y815975D01*
X914400Y1085850D02*
X904875Y1095375D01*
X885825Y1114425D01*
X914400Y1085850D02*
X914400Y1079500D01*
X904875Y962025D02*
X914400Y952500D01*
X904875Y962025D02*
X904875Y1095375D01*
X923925Y555625D02*
X914400Y546100D01*
X923925Y555625D02*
X923925Y688975D01*
X914400Y698500D01*
D17*
X885825Y1114425D03*
D16*
X1514475Y352425D02*
X1524000Y342900D01*
X1514475Y352425D02*
X1514475Y536575D01*
X1524000Y546100D01*
X1539875Y352425D02*
X1549400Y342900D01*
X1539875Y352425D02*
X1539875Y536575D01*
X1549400Y546100D01*
X1533525Y225425D02*
X1524000Y215900D01*
X1533525Y225425D02*
X1533525Y409575D01*
X1524000Y419100D01*
X1558925Y225425D02*
X1549400Y215900D01*
X1558925Y225425D02*
X1558925Y409575D01*
X1549400Y419100D01*
X1514475Y98425D02*
X1524000Y88900D01*
X1514475Y98425D02*
X1514475Y282575D01*
X1524000Y292100D01*
X1539875Y98425D02*
X1549400Y88900D01*
X1539875Y98425D02*
X1539875Y282575D01*
X1549400Y292100D01*
X1565275Y536575D02*
X1574800Y546100D01*
X1565275Y536575D02*
X1565275Y428625D01*
X1574800Y419100D01*
X1282700Y317500D02*
X1257300Y342900D01*
X1562100Y323850D02*
X1565275Y320675D01*
X1562100Y323850D02*
X1562100Y457200D01*
X1549400Y469900D01*
D17*
X1282700Y317500D03*
X1565275Y320675D03*
D16*
X1346200Y355600D02*
X1333500Y342900D01*
X1346200Y355600D02*
X1346200Y438150D01*
D17*
X1346200Y438150D03*
D16*
X1139825Y479425D02*
X1130300Y469900D01*
X1139825Y479425D02*
X1139825Y530225D01*
X1155700Y546100D01*
X1250950Y615950D02*
X1257300Y622300D01*
X1250950Y615950D02*
X1250950Y577850D01*
X1184275Y574675D02*
X1155700Y546100D01*
D17*
X1250950Y577850D03*
X1184275Y574675D03*
D16*
X1155700Y241300D02*
X1130300Y215900D01*
X1155700Y241300D02*
X1155700Y292100D01*
X1330325Y619125D02*
X1333500Y622300D01*
X1330325Y619125D02*
X1330325Y593725D01*
X1216025Y587375D02*
X1212850Y590550D01*
X1216025Y587375D02*
X1216025Y374650D01*
X1155700Y314325D01*
X1155700Y292100D01*
D17*
X1330325Y593725D03*
X1212850Y590550D03*
D16*
X1565275Y174625D02*
X1574800Y165100D01*
X1565275Y174625D02*
X1565275Y282575D01*
X1574800Y292100D01*
X1292225Y409575D02*
X1282700Y419100D01*
X1292225Y409575D02*
X1292225Y314325D01*
D17*
X1292225Y314325D03*
D16*
X1352550Y234950D02*
X1333500Y215900D01*
X1352550Y234950D02*
X1352550Y254000D01*
X1470025Y254000D02*
X1473200Y257175D01*
X1473200Y292100D01*
X1466850Y787400D02*
X1473200Y793750D01*
X1473200Y825500D01*
X1482725Y301625D02*
X1473200Y292100D01*
X1482725Y301625D02*
X1482725Y495300D01*
X1463675Y514350D01*
X1463675Y784225D01*
X1466850Y787400D01*
X736600Y152400D02*
X733425Y149225D01*
X736600Y152400D02*
X736600Y215900D01*
X250825Y708025D02*
X241300Y698500D01*
X250825Y708025D02*
X250825Y942975D01*
X241300Y952500D01*
X879475Y295275D02*
X876300Y292100D01*
X879475Y295275D02*
X879475Y387350D01*
X898525Y406400D01*
X898525Y815975D01*
X889000Y825500D01*
X752475Y752475D02*
X749300Y749300D01*
X752475Y781050D02*
X752475Y806450D01*
X752475Y781050D02*
X752475Y752475D01*
X752475Y231775D02*
X736600Y215900D01*
X752475Y231775D02*
X752475Y276225D01*
D17*
X1352550Y254000D03*
X1470025Y254000D03*
X1466850Y787400D03*
X733425Y149225D03*
X752475Y806450D03*
X752475Y781050D03*
X752475Y276225D03*
D16*
X276225Y708025D02*
X266700Y698500D01*
X276225Y708025D02*
X276225Y942975D01*
X266700Y952500D01*
X685800Y161925D02*
X679450Y155575D01*
X685800Y161925D02*
X685800Y215900D01*
X406400Y638175D02*
X409575Y641350D01*
X406400Y638175D02*
X406400Y377825D01*
X384175Y355600D01*
X384175Y142875D01*
X368300Y127000D01*
X863600Y749300D02*
X876300Y762000D01*
X876300Y835025D01*
X882650Y841375D01*
X901700Y841375D01*
X901700Y314325D01*
X885825Y298450D01*
X885825Y203200D01*
X882650Y200025D01*
X854075Y200025D01*
X854075Y212725D01*
X850900Y215900D01*
D17*
X679450Y155575D03*
X409575Y641350D03*
D16*
X301625Y708025D02*
X292100Y698500D01*
X301625Y708025D02*
X301625Y942975D01*
X292100Y952500D01*
X635000Y190500D02*
X606425Y161925D01*
X635000Y190500D02*
X635000Y215900D01*
X304800Y685800D02*
X292100Y698500D01*
X304800Y685800D02*
X304800Y161925D01*
X1000125Y765175D02*
X1016000Y781050D01*
X1016000Y825500D01*
X1016000Y781050D02*
X1012825Y781050D01*
X1219200Y203200D02*
X1089025Y73025D01*
X1219200Y203200D02*
X1231900Y215900D01*
X1089025Y73025D02*
X1012825Y73025D01*
X1012825Y231775D02*
X1012825Y282575D01*
X1012825Y231775D02*
X1012825Y73025D01*
X1012825Y282575D02*
X1003300Y292100D01*
X1600200Y292100D02*
X1609725Y282575D01*
X1609725Y133350D02*
X1609725Y76200D01*
X1609725Y133350D02*
X1609725Y282575D01*
X1609725Y76200D02*
X1558925Y25400D01*
X1089025Y25400D01*
X1089025Y73025D01*
X1584325Y809625D02*
X1600200Y825500D01*
X1584325Y809625D02*
X1584325Y158750D01*
X1609725Y133350D01*
X1222375Y739775D02*
X1231900Y749300D01*
X1222375Y739775D02*
X1222375Y666750D01*
X1225550Y663575D01*
X1225550Y638175D01*
X1219200Y631825D01*
X1219200Y203200D01*
D17*
X606425Y161925D03*
X304800Y161925D03*
X1000125Y765175D03*
X1012825Y781050D03*
X1012825Y231775D03*
D16*
X1625600Y292100D02*
X1641475Y307975D01*
X1641475Y809625D01*
X1031875Y244475D02*
X1028700Y247650D01*
X1028700Y292100D01*
X1047750Y768350D02*
X1041400Y774700D01*
X1041400Y825500D01*
X327025Y136525D02*
X317500Y127000D01*
X327025Y136525D02*
X327025Y688975D01*
X317500Y698500D01*
X584200Y215900D02*
X584200Y117475D01*
X327025Y942975D02*
X317500Y952500D01*
X327025Y942975D02*
X327025Y688975D01*
X1181100Y228600D02*
X1212850Y260350D01*
X1181100Y228600D02*
X1181100Y215900D01*
D17*
X1641475Y809625D03*
X1031875Y244475D03*
X1047750Y768350D03*
X584200Y117475D03*
X1212850Y260350D03*
D16*
X584200Y292100D02*
X571500Y279400D01*
X571500Y171450D01*
X568325Y168275D01*
X342900Y698500D02*
X352425Y708025D01*
X352425Y942975D01*
X342900Y952500D01*
X587375Y815975D02*
X596900Y825500D01*
X587375Y815975D02*
X587375Y711200D01*
X1171575Y815975D02*
X1181100Y825500D01*
X1171575Y815975D02*
X1171575Y714375D01*
X587375Y295275D02*
X584200Y292100D01*
X587375Y295275D02*
X587375Y514350D01*
X606425Y533400D01*
X606425Y584200D01*
X593725Y596900D01*
X593725Y704850D01*
X587375Y711200D01*
D17*
X568325Y168275D03*
X587375Y711200D03*
X1171575Y714375D03*
D16*
X1447800Y88900D02*
X1457325Y79375D01*
X1457325Y34925D01*
X1450975Y28575D01*
X1435100Y28575D02*
X1244600Y28575D01*
X1435100Y28575D02*
X1450975Y28575D01*
X1244600Y28575D02*
X1244600Y279400D01*
X1231900Y292100D01*
X1435100Y609600D02*
X1438275Y612775D01*
X1447800Y622300D01*
X1435100Y609600D02*
X1435100Y28575D01*
X1250950Y806450D02*
X1231900Y825500D01*
X1250950Y806450D02*
X1250950Y800100D01*
X1422400Y793750D02*
X1438275Y777875D01*
X1438275Y612775D01*
X377825Y708025D02*
X368300Y698500D01*
X377825Y708025D02*
X377825Y942975D01*
X368300Y952500D01*
X638175Y815975D02*
X647700Y825500D01*
X638175Y815975D02*
X638175Y727075D01*
X641350Y723900D01*
X838200Y101600D02*
X850900Y88900D01*
X838200Y101600D02*
X838200Y371475D01*
X873125Y406400D01*
X873125Y612775D01*
X863600Y622300D01*
X635000Y292100D02*
X644525Y282575D01*
X644525Y146050D01*
X638175Y139700D01*
X638175Y98425D01*
X863600Y663575D02*
X860425Y666750D01*
X863600Y663575D02*
X863600Y622300D01*
D17*
X1250950Y800100D03*
X1422400Y793750D03*
X641350Y723900D03*
X638175Y98425D03*
X860425Y666750D03*
D16*
X695325Y107950D02*
X660400Y107950D01*
X695325Y107950D02*
X695325Y282575D01*
X685800Y292100D01*
X704850Y819150D02*
X698500Y825500D01*
X704850Y819150D02*
X704850Y790575D01*
X733425Y762000D01*
X733425Y714375D02*
X733425Y603250D01*
X733425Y714375D02*
X733425Y762000D01*
X733425Y603250D02*
X688975Y558800D01*
X688975Y514350D01*
X685800Y511175D01*
X685800Y441325D01*
X695325Y431800D01*
X695325Y282575D01*
X1273175Y282575D02*
X1282700Y292100D01*
X1273175Y282575D02*
X1273175Y168275D01*
X1276350Y165100D01*
X381000Y685800D02*
X377825Y682625D01*
X381000Y685800D02*
X381000Y939800D01*
X393700Y952500D01*
X1270000Y812800D02*
X1282700Y825500D01*
X1270000Y812800D02*
X1270000Y682625D01*
X1587500Y177800D02*
X1600200Y165100D01*
X1587500Y177800D02*
X1587500Y685800D01*
X1600200Y698500D01*
X733425Y714375D02*
X711200Y714375D01*
X711200Y685800D01*
D17*
X660400Y107950D03*
X1276350Y165100D03*
X377825Y682625D03*
X1270000Y682625D03*
X711200Y685800D03*
D16*
X428625Y708025D02*
X419100Y698500D01*
X428625Y708025D02*
X428625Y942975D01*
X419100Y952500D01*
X727075Y184150D02*
X717550Y174625D01*
X727075Y184150D02*
X727075Y282575D01*
X736600Y292100D01*
X447675Y685800D02*
X450850Y688975D01*
X447675Y685800D02*
X447675Y441325D01*
X438150Y431800D01*
X438150Y174625D01*
X749300Y825500D02*
X749300Y850900D01*
X1054100Y190500D02*
X1028700Y165100D01*
X1054100Y190500D02*
X1054100Y685800D01*
X1041400Y698500D01*
X1333500Y292100D02*
X1292225Y250825D01*
X1292225Y184150D02*
X1292225Y171450D01*
X1292225Y184150D02*
X1292225Y250825D01*
X1644650Y673100D02*
X1647825Y676275D01*
X1644650Y673100D02*
X1644650Y184150D01*
X1625600Y165100D01*
X1054100Y685800D02*
X1054100Y806450D01*
D17*
X717550Y174625D03*
X450850Y688975D03*
X438150Y174625D03*
X749300Y850900D03*
X1292225Y171450D03*
X1292225Y184150D03*
X1647825Y676275D03*
X1054100Y806450D03*
D16*
X1498600Y520700D02*
X1508125Y530225D01*
X1498600Y520700D02*
X1498600Y469900D01*
D17*
X1508125Y530225D03*
D16*
X1317625Y536575D02*
X1308100Y546100D01*
X1317625Y536575D02*
X1317625Y508000D01*
X1457325Y495300D02*
X1473200Y479425D01*
X1473200Y469900D01*
D17*
X1317625Y508000D03*
X1457325Y495300D03*
D16*
X1257300Y492125D02*
X1257300Y546100D01*
D17*
X1257300Y492125D03*
D16*
X1495425Y447675D02*
X1508125Y434975D01*
X1508125Y352425D01*
X1498600Y342900D01*
D17*
X1495425Y447675D03*
D16*
X1463675Y447675D02*
X1457325Y454025D01*
X1463675Y447675D02*
X1463675Y352425D01*
X1473200Y342900D01*
D17*
X1457325Y454025D03*
D16*
X1298575Y428625D02*
X1257300Y469900D01*
X1298575Y428625D02*
X1298575Y371475D01*
D17*
X1298575Y371475D03*
D16*
X1317625Y460375D02*
X1308100Y469900D01*
X1317625Y460375D02*
X1317625Y371475D01*
D17*
X1317625Y371475D03*
D16*
X1495425Y273050D02*
X1498600Y269875D01*
X1498600Y215900D01*
D17*
X1495425Y273050D03*
D16*
X1463675Y301625D02*
X1457325Y307975D01*
X1463675Y301625D02*
X1463675Y225425D01*
X1473200Y215900D01*
D17*
X1457325Y307975D03*
D16*
X1257300Y292100D02*
X1247775Y282575D01*
X1247775Y174625D01*
X1298575Y123825D01*
X1390650Y123825D01*
X1390650Y203200D01*
D17*
X1390650Y203200D03*
D16*
X1593850Y266700D02*
X1600200Y260350D01*
X1600200Y215900D01*
D17*
X1593850Y266700D03*
D16*
X1155700Y215900D02*
X1044575Y104775D01*
D17*
X1044575Y104775D03*
D16*
X1447800Y238125D02*
X1460500Y225425D01*
X1460500Y101600D01*
X1473200Y88900D01*
D17*
X1447800Y238125D03*
D16*
X1270000Y203200D02*
X1257300Y215900D01*
X1270000Y203200D02*
X1270000Y161925D01*
X1301750Y130175D01*
X1546225Y130175D02*
X1574800Y101600D01*
X1574800Y88900D01*
D17*
X1301750Y130175D03*
X1546225Y130175D03*
D16*
X1511300Y228600D02*
X1508125Y231775D01*
X1511300Y228600D02*
X1511300Y79375D01*
X1517650Y73025D01*
X1600200Y73025D01*
X1600200Y88900D01*
D17*
X1508125Y231775D03*
D16*
X939800Y342900D02*
X927100Y355600D01*
X927100Y523875D01*
X939800Y536575D01*
X939800Y546100D01*
X955675Y352425D02*
X965200Y342900D01*
X955675Y352425D02*
X955675Y536575D01*
X965200Y546100D01*
X939800Y228600D02*
X927100Y215900D01*
X939800Y228600D02*
X939800Y320675D01*
X949325Y330200D01*
X949325Y409575D01*
X939800Y419100D01*
X965200Y228600D02*
X952500Y215900D01*
X965200Y228600D02*
X965200Y320675D01*
X974725Y330200D01*
X974725Y368300D01*
X965200Y377825D01*
X965200Y419100D01*
X917575Y98425D02*
X927100Y88900D01*
X917575Y98425D02*
X917575Y282575D01*
X927100Y292100D01*
X942975Y98425D02*
X952500Y88900D01*
X942975Y98425D02*
X942975Y282575D01*
X952500Y292100D01*
X768350Y425450D02*
X762000Y419100D01*
X768350Y425450D02*
X768350Y441325D01*
X981075Y441325D02*
X990600Y431800D01*
X990600Y419100D01*
X981075Y536575D02*
X990600Y546100D01*
X981075Y536575D02*
X981075Y441325D01*
D17*
X768350Y441325D03*
X981075Y441325D03*
D16*
X669925Y352425D02*
X660400Y342900D01*
X669925Y352425D02*
X669925Y377825D01*
X974725Y377825D02*
X974725Y460375D01*
X965200Y469900D01*
D17*
X669925Y377825D03*
X974725Y377825D03*
D16*
X746125Y352425D02*
X736600Y342900D01*
X746125Y352425D02*
X746125Y438150D01*
X742950Y441325D01*
X933450Y447675D02*
X939800Y454025D01*
X939800Y469900D01*
D17*
X742950Y441325D03*
X933450Y447675D03*
D16*
X552450Y476250D02*
X546100Y469900D01*
X552450Y476250D02*
X552450Y527050D01*
X571500Y546100D01*
X669925Y619125D02*
X673100Y622300D01*
X669925Y619125D02*
X669925Y565150D01*
X663575Y558800D01*
X663575Y495300D01*
D17*
X663575Y495300D03*
D16*
X546100Y228600D02*
X533400Y215900D01*
X546100Y228600D02*
X546100Y276225D01*
X558800Y288925D01*
X558800Y292100D01*
X762000Y609600D02*
X749300Y622300D01*
X762000Y609600D02*
X762000Y501650D01*
X581025Y501650D02*
X558800Y479425D01*
X558800Y292100D01*
D17*
X762000Y501650D03*
X581025Y501650D03*
D16*
X968375Y174625D02*
X977900Y165100D01*
X968375Y174625D02*
X968375Y282575D01*
X977900Y292100D01*
X981075Y295275D02*
X981075Y396875D01*
X981075Y295275D02*
X977900Y292100D01*
D17*
X981075Y396875D03*
D16*
X1524000Y952500D02*
X1524000Y1003300D01*
X1549400Y1003300D02*
X1549400Y952500D01*
X1533525Y758825D02*
X1524000Y749300D01*
X1533525Y758825D02*
X1533525Y1069975D01*
X1524000Y1079500D01*
X1558925Y758825D02*
X1549400Y749300D01*
X1558925Y758825D02*
X1558925Y1069975D01*
X1549400Y1079500D01*
X1514475Y631825D02*
X1524000Y622300D01*
X1514475Y631825D02*
X1514475Y815975D01*
X1524000Y825500D01*
X1539875Y631825D02*
X1549400Y622300D01*
X1539875Y631825D02*
X1539875Y815975D01*
X1549400Y825500D01*
X1565275Y1069975D02*
X1574800Y1079500D01*
X1565275Y1069975D02*
X1565275Y962025D01*
X1574800Y952500D01*
X1368425Y708025D02*
X1358900Y698500D01*
X1368425Y708025D02*
X1368425Y879475D01*
X1374775Y885825D01*
X1374775Y917575D01*
X1200150Y920750D02*
X1130300Y990600D01*
X1130300Y1003300D01*
X1130300Y1054100D02*
X1155700Y1079500D01*
X1130300Y1054100D02*
X1130300Y1003300D01*
D17*
X1374775Y917575D03*
X1200150Y920750D03*
D16*
X1155700Y774700D02*
X1130300Y749300D01*
X1155700Y774700D02*
X1155700Y825500D01*
X1276350Y704850D02*
X1282700Y698500D01*
X1276350Y704850D02*
X1276350Y720725D01*
X1155700Y723900D02*
X1130300Y749300D01*
D17*
X1276350Y720725D03*
X1155700Y723900D03*
D16*
X1565275Y708025D02*
X1574800Y698500D01*
X1565275Y708025D02*
X1565275Y815975D01*
X1574800Y825500D01*
X1298575Y968375D02*
X1282700Y952500D01*
X1298575Y968375D02*
X1343025Y968375D01*
X1343025Y723900D01*
D17*
X1343025Y723900D03*
D16*
X1498600Y876300D02*
X1485900Y889000D01*
X1485900Y1089025D01*
X1470025Y1104900D01*
X1365250Y1104900D01*
X1365250Y1085850D01*
X1358900Y1079500D01*
X1460500Y889000D02*
X1473200Y876300D01*
X1460500Y889000D02*
X1460500Y1098550D01*
X1308100Y1101725D02*
X1308100Y1079500D01*
D17*
X1460500Y1098550D03*
X1308100Y1101725D03*
D16*
X1257300Y1079500D02*
X1289050Y1047750D01*
X1584325Y1041400D02*
X1584325Y885825D01*
X1574800Y876300D01*
D17*
X1289050Y1047750D03*
X1584325Y1041400D03*
D16*
X1216025Y1069975D02*
X1206500Y1079500D01*
X1216025Y1069975D02*
X1216025Y996950D01*
X1225550Y987425D01*
X1241425Y987425D01*
X1241425Y1047750D01*
X1222375Y1066800D01*
X1222375Y1092200D01*
X1238250Y1108075D01*
X1333500Y1108075D01*
X1349375Y1123950D01*
X1590675Y1123950D01*
X1590675Y885825D01*
X1600200Y876300D01*
X1323975Y1069975D02*
X1257300Y1003300D01*
X1323975Y1069975D02*
X1323975Y1092200D01*
X1352550Y1120775D01*
X1584325Y1120775D01*
X1584325Y1050925D01*
X1574800Y1041400D01*
X1574800Y1003300D01*
X1495425Y806450D02*
X1498600Y803275D01*
X1498600Y749300D01*
D17*
X1495425Y806450D03*
D16*
X1317625Y815975D02*
X1308100Y825500D01*
X1317625Y815975D02*
X1317625Y781050D01*
D17*
X1317625Y781050D03*
D16*
X1260475Y822325D02*
X1257300Y825500D01*
X1260475Y822325D02*
X1260475Y800100D01*
D17*
X1260475Y800100D03*
D16*
X1419225Y812800D02*
X1450975Y781050D01*
D17*
X1419225Y812800D03*
X1450975Y781050D03*
D16*
X1165225Y739775D02*
X1155700Y749300D01*
X1165225Y739775D02*
X1165225Y688975D01*
X1187450Y666750D01*
X1187450Y663575D01*
X1489075Y666750D02*
X1498600Y657225D01*
X1498600Y622300D01*
D17*
X1187450Y663575D03*
X1489075Y666750D03*
D16*
X1219200Y736600D02*
X1206500Y749300D01*
X1219200Y736600D02*
X1219200Y660400D01*
X1470025Y660400D02*
X1473200Y657225D01*
X1473200Y622300D01*
D17*
X1219200Y660400D03*
X1470025Y660400D03*
D16*
X1257300Y749300D02*
X1241425Y733425D01*
X1241425Y603250D01*
X1238250Y600075D01*
D17*
X1238250Y600075D03*
D16*
X1298575Y739775D02*
X1308100Y749300D01*
X1298575Y739775D02*
X1298575Y657225D01*
X1311275Y644525D01*
D17*
X1311275Y644525D03*
D16*
X939800Y876300D02*
X936625Y879475D01*
X936625Y933450D01*
X930275Y939800D01*
X930275Y1069975D01*
X939800Y1079500D01*
X955675Y885825D02*
X965200Y876300D01*
X955675Y885825D02*
X955675Y1069975D01*
X965200Y1079500D01*
X949325Y758825D02*
X939800Y749300D01*
X949325Y758825D02*
X949325Y942975D01*
X939800Y952500D01*
X974725Y758825D02*
X965200Y749300D01*
X974725Y758825D02*
X974725Y942975D01*
X965200Y952500D01*
X930275Y631825D02*
X939800Y622300D01*
X930275Y631825D02*
X930275Y815975D01*
X939800Y825500D01*
X952500Y635000D02*
X965200Y622300D01*
X952500Y635000D02*
X952500Y812800D01*
X965200Y825500D01*
X981075Y1069975D02*
X990600Y1079500D01*
X981075Y1069975D02*
X981075Y962025D01*
X990600Y952500D01*
X711200Y914400D02*
X673100Y876300D01*
X711200Y914400D02*
X711200Y1012825D01*
X965200Y1028700D02*
X971550Y1035050D01*
X965200Y1028700D02*
X965200Y1003300D01*
D17*
X711200Y1012825D03*
X971550Y1035050D03*
D16*
X765175Y892175D02*
X749300Y876300D01*
X765175Y892175D02*
X765175Y977900D01*
X936625Y977900D02*
X939800Y981075D01*
X939800Y1003300D01*
D17*
X765175Y977900D03*
X936625Y977900D03*
D16*
X758825Y714375D02*
X774700Y698500D01*
X758825Y714375D02*
X758825Y847725D01*
X555625Y844550D02*
X546100Y854075D01*
X546100Y1003300D01*
X546100Y1054100D02*
X571500Y1079500D01*
X546100Y1054100D02*
X546100Y1003300D01*
D17*
X758825Y847725D03*
X555625Y844550D03*
D16*
X571500Y774700D02*
X546100Y749300D01*
X571500Y774700D02*
X571500Y825500D01*
X695325Y701675D02*
X698500Y698500D01*
X695325Y701675D02*
X695325Y720725D01*
D17*
X695325Y720725D03*
D16*
X984250Y704850D02*
X990600Y698500D01*
X984250Y704850D02*
X984250Y733425D01*
X977900Y739775D01*
X977900Y812800D01*
X990600Y825500D01*
X698500Y952500D02*
X663575Y987425D01*
X663575Y1101725D01*
X965200Y1101725D02*
X977900Y1089025D01*
X977900Y812800D01*
D17*
X663575Y1101725D03*
X965200Y1101725D03*
D16*
X847725Y1079500D02*
X774700Y1079500D01*
X847725Y1079500D02*
X847725Y1057275D01*
X911225Y1047750D02*
X914400Y1044575D01*
X914400Y1003300D01*
X949325Y1114425D02*
X1314450Y1114425D01*
X949325Y1114425D02*
X949325Y1047750D01*
D17*
X847725Y1057275D03*
X911225Y1047750D03*
X1314450Y1114425D03*
X949325Y1047750D03*
D16*
X736600Y1092200D02*
X723900Y1079500D01*
X736600Y1092200D02*
X736600Y1095375D01*
X739775Y1098550D01*
X879475Y1098550D01*
X879475Y1012825D01*
X889000Y1003300D01*
X1727200Y1041400D02*
X1739900Y1054100D01*
X1739900Y1120775D01*
X1730375Y1130300D01*
X879475Y1130300D01*
X879475Y1098550D01*
X987425Y1054100D02*
X990600Y1050925D01*
X990600Y1003300D01*
X1638300Y1016000D02*
X1727200Y1016000D01*
D17*
X987425Y1054100D03*
X1638300Y1016000D03*
D16*
X1016000Y1022350D02*
X1009650Y1028700D01*
X1016000Y1022350D02*
X1016000Y1003300D01*
X1025525Y946150D02*
X1054100Y917575D01*
X1025525Y946150D02*
X1025525Y993775D01*
X1016000Y1003300D01*
D17*
X1009650Y1028700D03*
X1054100Y917575D03*
D16*
X638175Y1069975D02*
X571500Y1003300D01*
X638175Y1069975D02*
X638175Y1101725D01*
X908050Y1108075D02*
X923925Y1092200D01*
X923925Y892175D01*
X914400Y882650D01*
X914400Y876300D01*
X1609725Y1073150D02*
X1622425Y1060450D01*
X1609725Y1073150D02*
X1609725Y1111250D01*
X1593850Y1127125D01*
X908050Y1127125D01*
X908050Y1108075D01*
D17*
X638175Y1101725D03*
X908050Y1108075D03*
X1622425Y1060450D03*
D16*
X622300Y1003300D02*
X612775Y993775D01*
X612775Y920750D01*
X863600Y914400D02*
X889000Y889000D01*
X889000Y876300D01*
D17*
X612775Y920750D03*
X863600Y914400D03*
D16*
X739775Y1069975D02*
X673100Y1003300D01*
X739775Y1069975D02*
X739775Y1092200D01*
X742950Y1095375D01*
X876300Y1095375D01*
X876300Y930275D01*
X984250Y920750D02*
X990600Y914400D01*
X990600Y876300D01*
X1670050Y971550D02*
X1727200Y914400D01*
X1009650Y977900D02*
X1000125Y968375D01*
X1000125Y936625D01*
X984250Y920750D01*
D17*
X876300Y930275D03*
X984250Y920750D03*
X1670050Y971550D03*
X1009650Y977900D03*
D16*
X723900Y1003300D02*
X714375Y993775D01*
X714375Y854075D01*
X993775Y854075D02*
X1016000Y876300D01*
X1136650Y854075D02*
X1187450Y904875D01*
D17*
X714375Y854075D03*
X993775Y854075D03*
X1187450Y904875D03*
X1136650Y854075D03*
D16*
X796925Y847725D02*
X774700Y825500D01*
X914400Y847725D02*
X923925Y838200D01*
X923925Y758825D01*
X914400Y749300D01*
X1158875Y866775D02*
X1174750Y850900D01*
X930275Y892175D02*
X923925Y885825D01*
X923925Y838200D01*
D17*
X796925Y847725D03*
X914400Y847725D03*
X1174750Y850900D03*
X1158875Y866775D03*
X930275Y892175D03*
D16*
X885825Y793750D02*
X889000Y790575D01*
X889000Y749300D01*
D17*
X885825Y793750D03*
D16*
X682625Y815975D02*
X673100Y825500D01*
X682625Y815975D02*
X682625Y803275D01*
X984250Y787400D02*
X990600Y781050D01*
X990600Y749300D01*
X1654175Y739775D02*
X1727200Y812800D01*
X1654175Y739775D02*
X1654175Y628650D01*
X1041400Y600075D02*
X1025525Y615950D01*
X1025525Y666750D01*
X1000125Y692150D01*
X1000125Y739775D01*
X990600Y749300D01*
D17*
X682625Y803275D03*
X984250Y787400D03*
X1654175Y628650D03*
X1041400Y600075D03*
D16*
X1019175Y803275D02*
X1022350Y806450D01*
X1019175Y803275D02*
X1019175Y752475D01*
X1016000Y749300D01*
X1371600Y723900D02*
X1377950Y730250D01*
X1371600Y723900D02*
X1371600Y673100D01*
X1031875Y676275D02*
X1025525Y682625D01*
X1025525Y739775D01*
X1016000Y749300D01*
D17*
X1022350Y806450D03*
X1377950Y730250D03*
X1371600Y673100D03*
X1031875Y676275D03*
D16*
X879475Y704850D02*
X863600Y720725D01*
X879475Y704850D02*
X879475Y631825D01*
X889000Y622300D01*
X1139825Y831850D02*
X1158875Y850900D01*
X1139825Y831850D02*
X1139825Y781050D01*
X1120775Y762000D01*
X1120775Y727075D01*
X1123950Y723900D01*
D17*
X863600Y720725D03*
X1158875Y850900D03*
X1123950Y723900D03*
D16*
X685800Y736600D02*
X673100Y749300D01*
X685800Y736600D02*
X685800Y673100D01*
X958850Y660400D02*
X990600Y628650D01*
X990600Y622300D01*
D17*
X685800Y673100D03*
X958850Y660400D03*
D16*
X981075Y704850D02*
X958850Y727075D01*
X981075Y704850D02*
X981075Y657225D01*
X1016000Y622300D01*
D17*
X958850Y727075D03*
D16*
X923925Y530225D02*
X914400Y520700D01*
X914400Y469900D01*
X1670050Y533400D02*
X1727200Y533400D01*
X1063625Y527050D02*
X1063625Y561975D01*
D17*
X923925Y530225D03*
X1670050Y533400D03*
X1063625Y561975D03*
X1063625Y527050D03*
D16*
X879475Y561975D02*
X879475Y479425D01*
X889000Y469900D01*
X1200150Y384175D02*
X1209675Y393700D01*
X1200150Y384175D02*
X1200150Y377825D01*
X1136650Y314325D01*
X876300Y317500D02*
X873125Y314325D01*
X876300Y317500D02*
X876300Y457200D01*
X889000Y469900D01*
D17*
X879475Y561975D03*
X1209675Y393700D03*
X1136650Y314325D03*
X873125Y314325D03*
D16*
X673100Y546100D02*
X679450Y552450D01*
X679450Y568325D01*
X996950Y568325D02*
X1000125Y568325D01*
X996950Y568325D02*
X984250Y568325D01*
X1000125Y568325D02*
X1000125Y479425D01*
X990600Y469900D01*
X996950Y568325D02*
X996950Y571500D01*
D17*
X679450Y568325D03*
X984250Y568325D03*
X996950Y571500D03*
D16*
X1006475Y577850D02*
X984250Y577850D01*
X1006475Y571500D02*
X1006475Y479425D01*
X1006475Y571500D02*
X1006475Y577850D01*
X1006475Y479425D02*
X1016000Y469900D01*
D17*
X984250Y577850D03*
X1006475Y571500D03*
D16*
X711200Y215900D02*
X711200Y161925D01*
X793750Y79375D01*
X977900Y63500D02*
X1003300Y88900D01*
D17*
X793750Y79375D03*
X977900Y63500D03*
D16*
X660400Y117475D02*
X660400Y215900D01*
X952500Y114300D02*
X977900Y88900D01*
D17*
X660400Y117475D03*
X952500Y114300D03*
D16*
X866775Y177800D02*
X847725Y196850D01*
X866775Y177800D02*
X866775Y98425D01*
X876300Y88900D01*
D17*
X847725Y196850D03*
D16*
X831850Y266700D02*
X831850Y282575D01*
X993775Y244475D02*
X1003300Y234950D01*
X993775Y244475D02*
X974725Y263525D01*
X1003300Y234950D02*
X1003300Y215900D01*
X1635125Y161925D02*
X1727200Y254000D01*
X1635125Y161925D02*
X1635125Y152400D01*
X1628775Y146050D01*
X1619250Y146050D01*
X1000125Y146050D02*
X993775Y152400D01*
X993775Y244475D01*
D17*
X831850Y282575D03*
X831850Y266700D03*
X974725Y263525D03*
X1619250Y146050D03*
X1000125Y146050D03*
D16*
X673100Y279400D02*
X660400Y292100D01*
X673100Y279400D02*
X673100Y149225D01*
X688975Y133350D01*
X688975Y127000D01*
X962025Y127000D02*
X987425Y152400D01*
X987425Y206375D01*
X977900Y215900D01*
D17*
X688975Y127000D03*
X962025Y127000D03*
D16*
X720725Y282575D02*
X711200Y292100D01*
X720725Y282575D02*
X720725Y263525D01*
X847725Y257175D02*
X876300Y228600D01*
X876300Y215900D01*
D17*
X720725Y263525D03*
X847725Y257175D03*
D16*
X796925Y257175D02*
X762000Y292100D01*
X796925Y257175D02*
X796925Y250825D01*
X898525Y250825D02*
X901700Y247650D01*
X901700Y215900D01*
D17*
X796925Y250825D03*
X898525Y250825D03*
D16*
X727075Y466725D02*
X723900Y469900D01*
X727075Y466725D02*
X727075Y330200D01*
X746125Y311150D01*
X806450Y311150D01*
X806450Y333375D01*
X1016000Y342900D02*
X1044575Y371475D01*
D17*
X806450Y333375D03*
X1044575Y371475D03*
D16*
X1025525Y482600D02*
X1016000Y492125D01*
X1025525Y482600D02*
X1025525Y450850D01*
X1000125Y425450D01*
X1000125Y381000D02*
X1000125Y352425D01*
X1000125Y381000D02*
X1000125Y425450D01*
X1000125Y352425D02*
X990600Y342900D01*
D17*
X1016000Y492125D03*
X1000125Y381000D03*
D16*
X625475Y466725D02*
X622300Y469900D01*
X625475Y466725D02*
X625475Y387350D01*
X889000Y384175D02*
X889000Y342900D01*
D17*
X625475Y387350D03*
X889000Y384175D03*
D16*
X571500Y469900D02*
X561975Y460375D01*
X561975Y311150D01*
X568325Y304800D01*
X568325Y247650D01*
X549275Y228600D01*
X549275Y146050D01*
X555625Y139700D01*
X555625Y114300D01*
X600075Y69850D01*
X914400Y69850D01*
X914400Y342900D01*
X1727200Y431800D02*
X1739900Y419100D01*
X1739900Y50800D01*
X1711325Y22225D01*
X914400Y22225D01*
X914400Y69850D01*
X558800Y117475D02*
X558800Y215900D01*
X558800Y117475D02*
X603250Y73025D01*
X901700Y73025D01*
X901700Y88900D01*
X685800Y609600D02*
X698500Y622300D01*
X685800Y609600D02*
X685800Y520700D01*
X682625Y517525D01*
X682625Y438150D01*
X676275Y431800D01*
X676275Y352425D01*
X685800Y342900D01*
X679450Y692150D02*
X673100Y698500D01*
X679450Y692150D02*
X679450Y669925D01*
X682625Y666750D01*
X692150Y666750D01*
X692150Y682625D01*
X688975Y685800D01*
X688975Y866775D01*
X698500Y876300D01*
X752475Y374650D02*
X755650Y371475D01*
X752475Y374650D02*
X752475Y450850D01*
X765175Y463550D01*
X765175Y495300D01*
X768350Y498475D01*
X768350Y530225D01*
X765175Y533400D01*
X765175Y666750D02*
X765175Y682625D01*
X765175Y666750D02*
X765175Y533400D01*
X765175Y682625D02*
X749300Y698500D01*
X708025Y666750D02*
X692150Y666750D01*
D17*
X755650Y371475D03*
X708025Y666750D03*
X765175Y666750D03*
D16*
X1206500Y622300D02*
X1212850Y628650D01*
X1212850Y644525D01*
X1260475Y644525D02*
X1282700Y622300D01*
X1257300Y596900D01*
X1257300Y568325D01*
X1247775Y558800D01*
X1247775Y377825D01*
X1282700Y342900D01*
D17*
X1212850Y644525D03*
X1260475Y644525D03*
D16*
X1206500Y876300D02*
X1216025Y885825D01*
X1216025Y958850D01*
X1225550Y968375D01*
X1241425Y968375D01*
X1241425Y933450D01*
X1222375Y914400D01*
X1222375Y863600D01*
X1225550Y860425D01*
X1266825Y860425D02*
X1282700Y860425D01*
X1266825Y860425D02*
X1225550Y860425D01*
X1282700Y860425D02*
X1282700Y876300D01*
X403225Y333375D02*
X393700Y342900D01*
X403225Y333375D02*
X403225Y320675D01*
X1244600Y320675D02*
X1244600Y685800D01*
X1257300Y698500D01*
X1333500Y698500D02*
X1346200Y685800D01*
X1346200Y447675D01*
X1352550Y441325D01*
X1352550Y434975D01*
X1349375Y431800D01*
X1349375Y336550D01*
X1320800Y307975D01*
X1244600Y307975D01*
X1244600Y320675D01*
X1266825Y708025D02*
X1266825Y860425D01*
X1266825Y708025D02*
X1257300Y698500D01*
D17*
X403225Y320675D03*
X1244600Y320675D03*
D16*
X736600Y419100D02*
X733425Y422275D01*
X733425Y441325D01*
D17*
X733425Y441325D03*
D16*
X111125Y441325D02*
X107950Y441325D01*
X104775Y444500D01*
X88900Y444500D01*
X88900Y495300D01*
X76200Y508000D01*
D17*
X111125Y441325D03*
D16*
X317500Y215900D02*
X311150Y209550D01*
X311150Y155575D01*
X307975Y152400D01*
X301625Y152400D01*
X254000Y200025D01*
X254000Y457200D01*
X241300Y469900D01*
X257175Y247650D02*
X269875Y234950D01*
X257175Y247650D02*
X257175Y536575D01*
X266700Y546100D01*
D17*
X269875Y234950D03*
D16*
X238125Y339725D02*
X241300Y342900D01*
X238125Y339725D02*
X238125Y171450D01*
X152400Y85725D01*
X152400Y50800D01*
X317500Y1079500D02*
X301625Y1095375D01*
X279400Y1095375D01*
X279400Y1038225D01*
X203200Y962025D01*
X203200Y533400D01*
X225425Y511175D01*
X225425Y358775D01*
X241300Y342900D01*
X266700Y419100D02*
X279400Y431800D01*
X279400Y990600D01*
X292100Y1003300D01*
X292100Y1079500D01*
X127000Y476250D02*
X117475Y466725D01*
X117475Y85725D01*
X88900Y57150D01*
X88900Y38100D01*
X76200Y25400D01*
D17*
X127000Y476250D03*
D16*
X342900Y469900D02*
X352425Y460375D01*
X352425Y180975D01*
D17*
X352425Y180975D03*
D16*
X146050Y365125D02*
X184150Y403225D01*
X146050Y365125D02*
X146050Y63500D01*
X139700Y57150D01*
X139700Y38100D01*
X127000Y25400D01*
D17*
X184150Y403225D03*
D16*
X381000Y457200D02*
X393700Y469900D01*
X381000Y457200D02*
X381000Y174625D01*
X349250Y142875D01*
X333375Y142875D01*
X333375Y114300D01*
X244475Y25400D01*
X152400Y25400D01*
X342900Y546100D02*
X342900Y600075D01*
X355600Y612775D01*
X355600Y990600D01*
D17*
X355600Y990600D03*
D16*
X444500Y574675D02*
X438150Y568325D01*
X444500Y574675D02*
X444500Y1092200D01*
X431800Y1104900D01*
X101600Y1104900D01*
X101600Y1092200D01*
D17*
X438150Y568325D03*
D16*
X393700Y546100D02*
X349250Y590550D01*
X193675Y596900D02*
X165100Y625475D01*
X165100Y876300D01*
X127000Y914400D01*
X127000Y1092200D01*
D17*
X349250Y590550D03*
X193675Y596900D03*
D16*
X419100Y546100D02*
X422275Y549275D01*
X422275Y603250D01*
X431800Y612775D01*
X431800Y1089025D01*
D17*
X431800Y1089025D03*
D16*
X495300Y454025D02*
X444500Y403225D01*
X495300Y454025D02*
X495300Y892175D01*
D17*
X444500Y403225D03*
X495300Y892175D03*
D16*
X488950Y473075D02*
X444500Y428625D01*
X488950Y473075D02*
X488950Y850900D01*
X1231900Y914400D02*
X1257300Y939800D01*
X1257300Y952500D01*
D17*
X444500Y428625D03*
X488950Y850900D03*
X1231900Y914400D03*
D16*
X111125Y854075D02*
X101600Y863600D01*
X111125Y854075D02*
X111125Y844550D01*
X139700Y815975D01*
X139700Y457200D01*
X190500Y406400D01*
X190500Y234950D01*
D17*
X190500Y234950D03*
D16*
X215900Y622300D02*
X206375Y631825D01*
X206375Y739775D01*
X215900Y749300D01*
X234950Y628650D02*
X241300Y622300D01*
X234950Y628650D02*
X234950Y682625D01*
X231775Y685800D01*
X231775Y739775D01*
X241300Y749300D01*
X257175Y631825D02*
X266700Y622300D01*
X257175Y682625D02*
X257175Y739775D01*
X257175Y682625D02*
X257175Y631825D01*
X257175Y739775D02*
X266700Y749300D01*
D17*
X257175Y682625D03*
D16*
X282575Y631825D02*
X292100Y622300D01*
X282575Y727075D02*
X282575Y739775D01*
X282575Y727075D02*
X282575Y631825D01*
X282575Y739775D02*
X292100Y749300D01*
X285750Y727075D02*
X282575Y727075D01*
D17*
X285750Y727075D03*
D16*
X307975Y631825D02*
X317500Y622300D01*
X307975Y631825D02*
X307975Y739775D01*
X317500Y749300D01*
X333375Y631825D02*
X342900Y622300D01*
X333375Y631825D02*
X333375Y739775D01*
X342900Y749300D01*
X342900Y777875D02*
X333375Y787400D01*
X342900Y777875D02*
X342900Y749300D01*
D17*
X333375Y787400D03*
D16*
X358775Y631825D02*
X368300Y622300D01*
X358775Y631825D02*
X358775Y739775D01*
X368300Y749300D01*
X63500Y774700D02*
X50800Y787400D01*
X63500Y774700D02*
X111125Y774700D01*
X111125Y771525D01*
D17*
X111125Y771525D03*
D16*
X384175Y631825D02*
X393700Y622300D01*
X384175Y631825D02*
X384175Y739775D01*
X393700Y749300D01*
X63500Y800100D02*
X50800Y812800D01*
X63500Y800100D02*
X133350Y800100D01*
X133350Y777875D01*
D17*
X133350Y777875D03*
D16*
X117475Y847725D02*
X114300Y850900D01*
X114300Y892175D01*
X104775Y901700D01*
X50800Y901700D01*
X50800Y914400D01*
D17*
X117475Y847725D03*
D16*
X57150Y977900D02*
X28575Y977900D01*
X28575Y260350D01*
X47625Y241300D01*
X76200Y241300D01*
X76200Y228600D01*
D17*
X57150Y977900D03*
D16*
X333375Y885825D02*
X342900Y876300D01*
X333375Y885825D02*
X333375Y920750D01*
X34925Y933450D02*
X31750Y930275D01*
X31750Y282575D01*
X47625Y266700D01*
X76200Y266700D01*
X76200Y254000D01*
D17*
X333375Y920750D03*
X34925Y933450D03*
D16*
X114300Y911225D02*
X117475Y908050D01*
X114300Y911225D02*
X114300Y917575D01*
X104775Y927100D01*
X34925Y927100D01*
X34925Y304800D01*
X47625Y292100D01*
X76200Y292100D01*
X76200Y279400D01*
D17*
X117475Y908050D03*
D16*
X44450Y825500D02*
X38100Y819150D01*
X38100Y327025D01*
X47625Y317500D01*
X76200Y317500D01*
X76200Y304800D01*
D17*
X44450Y825500D03*
D16*
X206375Y835025D02*
X215900Y825500D01*
X206375Y835025D02*
X206375Y942975D01*
X215900Y952500D01*
X428625Y301625D02*
X419100Y292100D01*
X428625Y301625D02*
X428625Y584200D01*
X257175Y584200D02*
X231775Y609600D01*
X231775Y679450D01*
X225425Y685800D01*
X225425Y815975D01*
X215900Y825500D01*
D17*
X428625Y584200D03*
X257175Y584200D03*
D16*
X342900Y292100D02*
X330200Y279400D01*
X330200Y117475D01*
X323850Y111125D01*
X301625Y111125D01*
X301625Y146050D01*
X250825Y196850D01*
X250825Y387350D01*
X228600Y409575D01*
X228600Y676275D01*
X215900Y688975D01*
X215900Y698500D01*
X393700Y292100D02*
X406400Y279400D01*
X406400Y206375D01*
X412750Y200025D01*
X431800Y200025D01*
X431800Y577850D01*
X441325Y587375D01*
X441325Y1089025D01*
X434975Y1095375D01*
X333375Y1095375D01*
X333375Y1012825D01*
X342900Y1003300D01*
X180975Y631825D02*
X190500Y622300D01*
X180975Y631825D02*
X180975Y739775D01*
X190500Y749300D01*
X200025Y866775D02*
X190500Y876300D01*
X200025Y866775D02*
X200025Y758825D01*
X190500Y749300D01*
X317500Y1003300D02*
X327025Y1012825D01*
X327025Y1092200D01*
X320675Y1098550D01*
X276225Y1098550D01*
X276225Y1041400D01*
X200025Y965200D01*
X200025Y866775D01*
X403225Y1019175D02*
X342900Y1079500D01*
X403225Y1019175D02*
X403225Y927100D01*
X400050Y923925D01*
X400050Y892175D01*
X403225Y889000D01*
X403225Y501650D01*
X377825Y476250D01*
X377825Y301625D01*
X368300Y292100D01*
X574675Y746125D02*
X571500Y749300D01*
X574675Y746125D02*
X574675Y596900D01*
X908050Y584200D02*
X914400Y590550D01*
X914400Y622300D01*
D17*
X574675Y596900D03*
X908050Y584200D03*
D16*
X292100Y215900D02*
X276225Y231775D01*
X276225Y254000D01*
D17*
X276225Y254000D03*
D16*
X406400Y1066800D02*
X393700Y1079500D01*
X406400Y1066800D02*
X406400Y920750D01*
D17*
X406400Y920750D03*
D16*
X704850Y444500D02*
X701675Y441325D01*
X701675Y352425D01*
X711200Y342900D01*
X1308100Y876300D02*
X1323975Y860425D01*
X1323975Y577850D01*
X1343025Y558800D01*
X1343025Y444500D01*
X1339850Y441325D01*
X1339850Y434975D01*
X1343025Y431800D01*
X1343025Y377825D01*
X1308100Y342900D01*
D17*
X704850Y444500D03*
D16*
X1222375Y352425D02*
X1231900Y342900D01*
X1222375Y352425D02*
X1222375Y488950D01*
X1225550Y492125D01*
X1266825Y498475D02*
X1292225Y498475D01*
X1292225Y889000D01*
X1289050Y892175D01*
X1231900Y892175D01*
X1231900Y876300D01*
X635000Y342900D02*
X619125Y358775D01*
X619125Y450850D01*
X612775Y457200D01*
X612775Y577850D02*
X612775Y584200D01*
X612775Y577850D02*
X612775Y457200D01*
X612775Y584200D02*
X615950Y587375D01*
X615950Y606425D01*
X612775Y609600D01*
X612775Y854075D01*
X88900Y698500D02*
X76200Y711200D01*
X88900Y698500D02*
X127000Y698500D01*
X127000Y596900D01*
X612775Y577850D02*
X615950Y577850D01*
D17*
X1225550Y492125D03*
X1266825Y498475D03*
X612775Y854075D03*
X127000Y596900D03*
X615950Y577850D03*
D16*
X139700Y336550D02*
X133350Y342900D01*
X133350Y758825D01*
X104775Y787400D01*
X101600Y787400D01*
D17*
X139700Y336550D03*
D16*
X708025Y606425D02*
X714375Y612775D01*
X714375Y679450D01*
X723900Y688975D01*
X723900Y698500D01*
X1308100Y698500D02*
X1317625Y688975D01*
X1317625Y606425D01*
D17*
X708025Y606425D03*
X1317625Y606425D03*
D16*
X711200Y488950D02*
X692150Y508000D01*
X711200Y488950D02*
X711200Y419100D01*
X1295400Y939800D02*
X1308100Y952500D01*
X1295400Y939800D02*
X1295400Y438150D01*
X1308100Y425450D01*
X1308100Y419100D01*
D17*
X692150Y508000D03*
D16*
X654050Y692150D02*
X647700Y698500D01*
X654050Y692150D02*
X654050Y673100D01*
X1231900Y698500D02*
X1231900Y641350D01*
D17*
X654050Y673100D03*
X1231900Y641350D03*
D16*
X1231900Y419100D02*
X1228725Y415925D01*
X1228725Y387350D01*
X1193800Y390525D02*
X1190625Y387350D01*
X1193800Y390525D02*
X1193800Y841375D01*
X1219200Y866775D01*
X1219200Y939800D01*
X1231900Y952500D01*
X635000Y555625D02*
X635000Y419100D01*
X663575Y571500D02*
X663575Y936625D01*
X647700Y952500D01*
X88900Y647700D02*
X76200Y660400D01*
X88900Y647700D02*
X117475Y647700D01*
X117475Y590550D01*
D17*
X1228725Y387350D03*
X1190625Y387350D03*
X635000Y555625D03*
X663575Y571500D03*
X117475Y590550D03*
M02*
