G04 EAGLE Gerber RS-274X export*
G75*
%MOMM*%
%FSLAX34Y34*%
%LPD*%
%INBottom Copper*%
%IPPOS*%
%AMOC8*
5,1,8,0,0,1.08239X$1,22.5*%
G01*
%ADD10P,1.649562X8X202.500000*%
%ADD11P,1.319650X8X202.500000*%
%ADD12P,1.319650X8X112.500000*%
%ADD13C,1.219200*%
%ADD14P,1.319650X8X22.500000*%
%ADD15P,1.814519X8X202.500000*%
%ADD16P,1.814519X8X22.500000*%
%ADD17P,1.649562X8X22.500000*%
%ADD18C,0.254000*%
%ADD19C,0.558800*%


D10*
X50800Y177800D03*
X50800Y203200D03*
X50800Y228600D03*
X50800Y254000D03*
X50800Y279400D03*
X50800Y304800D03*
X50800Y330200D03*
X50800Y355600D03*
X50800Y381000D03*
X50800Y406400D03*
X50800Y431800D03*
X50800Y457200D03*
X50800Y482600D03*
X50800Y508000D03*
X50800Y533400D03*
X50800Y558800D03*
X76200Y177800D03*
X76200Y203200D03*
X76200Y228600D03*
X76200Y254000D03*
X76200Y279400D03*
X76200Y304800D03*
X76200Y330200D03*
X76200Y355600D03*
X76200Y381000D03*
X76200Y406400D03*
X76200Y431800D03*
X76200Y457200D03*
X76200Y482600D03*
X76200Y508000D03*
X76200Y533400D03*
X76200Y558800D03*
X101600Y177800D03*
X101600Y203200D03*
X101600Y228600D03*
X101600Y254000D03*
X101600Y279400D03*
X101600Y304800D03*
X101600Y330200D03*
X101600Y355600D03*
X101600Y381000D03*
X101600Y406400D03*
X101600Y431800D03*
X101600Y457200D03*
X101600Y482600D03*
X101600Y508000D03*
X101600Y533400D03*
X101600Y558800D03*
X50800Y584200D03*
X50800Y609600D03*
X50800Y635000D03*
X50800Y660400D03*
X50800Y685800D03*
X50800Y711200D03*
X50800Y736600D03*
X50800Y762000D03*
X50800Y787400D03*
X50800Y812800D03*
X50800Y838200D03*
X50800Y863600D03*
X50800Y889000D03*
X50800Y914400D03*
X50800Y939800D03*
X50800Y965200D03*
X76200Y584200D03*
X76200Y609600D03*
X76200Y635000D03*
X76200Y660400D03*
X76200Y685800D03*
X76200Y711200D03*
X76200Y736600D03*
X76200Y762000D03*
X76200Y787400D03*
X76200Y812800D03*
X76200Y838200D03*
X76200Y863600D03*
X76200Y889000D03*
X76200Y914400D03*
X76200Y939800D03*
X76200Y965200D03*
X101600Y584200D03*
X101600Y609600D03*
X101600Y635000D03*
X101600Y660400D03*
X101600Y685800D03*
X101600Y711200D03*
X101600Y736600D03*
X101600Y762000D03*
X101600Y787400D03*
X101600Y812800D03*
X101600Y838200D03*
X101600Y863600D03*
X101600Y889000D03*
X101600Y914400D03*
X101600Y939800D03*
X101600Y965200D03*
D11*
X1752600Y38100D03*
X1727200Y38100D03*
D12*
X1752600Y101600D03*
X1752600Y203200D03*
D13*
X539496Y1079500D02*
X527304Y1079500D01*
X527304Y1054100D02*
X539496Y1054100D01*
X539496Y927100D02*
X527304Y927100D01*
X527304Y901700D02*
X539496Y901700D01*
X539496Y1028700D02*
X527304Y1028700D01*
X527304Y1003300D02*
X539496Y1003300D01*
X539496Y952500D02*
X527304Y952500D01*
X527304Y977900D02*
X539496Y977900D01*
X539496Y876300D02*
X527304Y876300D01*
X527304Y850900D02*
X539496Y850900D01*
X603504Y850900D02*
X615696Y850900D01*
X615696Y876300D02*
X603504Y876300D01*
X603504Y901700D02*
X615696Y901700D01*
X615696Y927100D02*
X603504Y927100D01*
X603504Y952500D02*
X615696Y952500D01*
X615696Y977900D02*
X603504Y977900D01*
X603504Y1003300D02*
X615696Y1003300D01*
X615696Y1028700D02*
X603504Y1028700D01*
X603504Y1054100D02*
X615696Y1054100D01*
X615696Y1079500D02*
X603504Y1079500D01*
X488696Y1066800D02*
X476504Y1066800D01*
X476504Y1041400D02*
X488696Y1041400D01*
X488696Y1016000D02*
X476504Y1016000D01*
X476504Y990600D02*
X488696Y990600D01*
X488696Y965200D02*
X476504Y965200D01*
X476504Y939800D02*
X488696Y939800D01*
X488696Y914400D02*
X476504Y914400D01*
X476504Y889000D02*
X488696Y889000D01*
X488696Y863600D02*
X476504Y863600D01*
X527304Y812800D02*
X539496Y812800D01*
X539496Y787400D02*
X527304Y787400D01*
X527304Y660400D02*
X539496Y660400D01*
X539496Y635000D02*
X527304Y635000D01*
X527304Y762000D02*
X539496Y762000D01*
X539496Y736600D02*
X527304Y736600D01*
X527304Y685800D02*
X539496Y685800D01*
X539496Y711200D02*
X527304Y711200D01*
X527304Y609600D02*
X539496Y609600D01*
X539496Y584200D02*
X527304Y584200D01*
X603504Y584200D02*
X615696Y584200D01*
X615696Y609600D02*
X603504Y609600D01*
X603504Y635000D02*
X615696Y635000D01*
X615696Y660400D02*
X603504Y660400D01*
X603504Y685800D02*
X615696Y685800D01*
X615696Y711200D02*
X603504Y711200D01*
X603504Y736600D02*
X615696Y736600D01*
X615696Y762000D02*
X603504Y762000D01*
X603504Y787400D02*
X615696Y787400D01*
X615696Y812800D02*
X603504Y812800D01*
X488696Y800100D02*
X476504Y800100D01*
X476504Y774700D02*
X488696Y774700D01*
X488696Y749300D02*
X476504Y749300D01*
X476504Y723900D02*
X488696Y723900D01*
X488696Y698500D02*
X476504Y698500D01*
X476504Y673100D02*
X488696Y673100D01*
X488696Y647700D02*
X476504Y647700D01*
X476504Y622300D02*
X488696Y622300D01*
X488696Y596900D02*
X476504Y596900D01*
X527304Y546100D02*
X539496Y546100D01*
X539496Y520700D02*
X527304Y520700D01*
X527304Y393700D02*
X539496Y393700D01*
X539496Y368300D02*
X527304Y368300D01*
X527304Y495300D02*
X539496Y495300D01*
X539496Y469900D02*
X527304Y469900D01*
X527304Y419100D02*
X539496Y419100D01*
X539496Y444500D02*
X527304Y444500D01*
X527304Y342900D02*
X539496Y342900D01*
X539496Y317500D02*
X527304Y317500D01*
X603504Y317500D02*
X615696Y317500D01*
X615696Y342900D02*
X603504Y342900D01*
X603504Y368300D02*
X615696Y368300D01*
X615696Y393700D02*
X603504Y393700D01*
X603504Y419100D02*
X615696Y419100D01*
X615696Y444500D02*
X603504Y444500D01*
X603504Y469900D02*
X615696Y469900D01*
X615696Y495300D02*
X603504Y495300D01*
X603504Y520700D02*
X615696Y520700D01*
X615696Y546100D02*
X603504Y546100D01*
X488696Y533400D02*
X476504Y533400D01*
X476504Y508000D02*
X488696Y508000D01*
X488696Y482600D02*
X476504Y482600D01*
X476504Y457200D02*
X488696Y457200D01*
X488696Y431800D02*
X476504Y431800D01*
X476504Y406400D02*
X488696Y406400D01*
X488696Y381000D02*
X476504Y381000D01*
X476504Y355600D02*
X488696Y355600D01*
X488696Y330200D02*
X476504Y330200D01*
X527304Y279400D02*
X539496Y279400D01*
X539496Y254000D02*
X527304Y254000D01*
X527304Y127000D02*
X539496Y127000D01*
X539496Y101600D02*
X527304Y101600D01*
X527304Y228600D02*
X539496Y228600D01*
X539496Y203200D02*
X527304Y203200D01*
X527304Y152400D02*
X539496Y152400D01*
X539496Y177800D02*
X527304Y177800D01*
X527304Y76200D02*
X539496Y76200D01*
X539496Y50800D02*
X527304Y50800D01*
X603504Y50800D02*
X615696Y50800D01*
X615696Y76200D02*
X603504Y76200D01*
X603504Y101600D02*
X615696Y101600D01*
X615696Y127000D02*
X603504Y127000D01*
X603504Y152400D02*
X615696Y152400D01*
X615696Y177800D02*
X603504Y177800D01*
X603504Y203200D02*
X615696Y203200D01*
X615696Y228600D02*
X603504Y228600D01*
X603504Y254000D02*
X615696Y254000D01*
X615696Y279400D02*
X603504Y279400D01*
X488696Y266700D02*
X476504Y266700D01*
X476504Y241300D02*
X488696Y241300D01*
X488696Y215900D02*
X476504Y215900D01*
X476504Y190500D02*
X488696Y190500D01*
X488696Y165100D02*
X476504Y165100D01*
X476504Y139700D02*
X488696Y139700D01*
X488696Y114300D02*
X476504Y114300D01*
X476504Y88900D02*
X488696Y88900D01*
X488696Y63500D02*
X476504Y63500D01*
X882904Y1079500D02*
X895096Y1079500D01*
X895096Y1054100D02*
X882904Y1054100D01*
X882904Y927100D02*
X895096Y927100D01*
X895096Y901700D02*
X882904Y901700D01*
X882904Y1028700D02*
X895096Y1028700D01*
X895096Y1003300D02*
X882904Y1003300D01*
X882904Y952500D02*
X895096Y952500D01*
X895096Y977900D02*
X882904Y977900D01*
X882904Y876300D02*
X895096Y876300D01*
X895096Y850900D02*
X882904Y850900D01*
X959104Y850900D02*
X971296Y850900D01*
X971296Y876300D02*
X959104Y876300D01*
X959104Y901700D02*
X971296Y901700D01*
X971296Y927100D02*
X959104Y927100D01*
X959104Y952500D02*
X971296Y952500D01*
X971296Y977900D02*
X959104Y977900D01*
X959104Y1003300D02*
X971296Y1003300D01*
X971296Y1028700D02*
X959104Y1028700D01*
X959104Y1054100D02*
X971296Y1054100D01*
X971296Y1079500D02*
X959104Y1079500D01*
X844296Y1066800D02*
X832104Y1066800D01*
X832104Y1041400D02*
X844296Y1041400D01*
X844296Y1016000D02*
X832104Y1016000D01*
X832104Y990600D02*
X844296Y990600D01*
X844296Y965200D02*
X832104Y965200D01*
X832104Y939800D02*
X844296Y939800D01*
X844296Y914400D02*
X832104Y914400D01*
X832104Y889000D02*
X844296Y889000D01*
X844296Y863600D02*
X832104Y863600D01*
X882904Y812800D02*
X895096Y812800D01*
X895096Y787400D02*
X882904Y787400D01*
X882904Y660400D02*
X895096Y660400D01*
X895096Y635000D02*
X882904Y635000D01*
X882904Y762000D02*
X895096Y762000D01*
X895096Y736600D02*
X882904Y736600D01*
X882904Y685800D02*
X895096Y685800D01*
X895096Y711200D02*
X882904Y711200D01*
X882904Y609600D02*
X895096Y609600D01*
X895096Y584200D02*
X882904Y584200D01*
X959104Y584200D02*
X971296Y584200D01*
X971296Y609600D02*
X959104Y609600D01*
X959104Y635000D02*
X971296Y635000D01*
X971296Y660400D02*
X959104Y660400D01*
X959104Y685800D02*
X971296Y685800D01*
X971296Y711200D02*
X959104Y711200D01*
X959104Y736600D02*
X971296Y736600D01*
X971296Y762000D02*
X959104Y762000D01*
X959104Y787400D02*
X971296Y787400D01*
X971296Y812800D02*
X959104Y812800D01*
X844296Y800100D02*
X832104Y800100D01*
X832104Y774700D02*
X844296Y774700D01*
X844296Y749300D02*
X832104Y749300D01*
X832104Y723900D02*
X844296Y723900D01*
X844296Y698500D02*
X832104Y698500D01*
X832104Y673100D02*
X844296Y673100D01*
X844296Y647700D02*
X832104Y647700D01*
X832104Y622300D02*
X844296Y622300D01*
X844296Y596900D02*
X832104Y596900D01*
X882904Y546100D02*
X895096Y546100D01*
X895096Y520700D02*
X882904Y520700D01*
X882904Y393700D02*
X895096Y393700D01*
X895096Y368300D02*
X882904Y368300D01*
X882904Y495300D02*
X895096Y495300D01*
X895096Y469900D02*
X882904Y469900D01*
X882904Y419100D02*
X895096Y419100D01*
X895096Y444500D02*
X882904Y444500D01*
X882904Y342900D02*
X895096Y342900D01*
X895096Y317500D02*
X882904Y317500D01*
X959104Y317500D02*
X971296Y317500D01*
X971296Y342900D02*
X959104Y342900D01*
X959104Y368300D02*
X971296Y368300D01*
X971296Y393700D02*
X959104Y393700D01*
X959104Y419100D02*
X971296Y419100D01*
X971296Y444500D02*
X959104Y444500D01*
X959104Y469900D02*
X971296Y469900D01*
X971296Y495300D02*
X959104Y495300D01*
X959104Y520700D02*
X971296Y520700D01*
X971296Y546100D02*
X959104Y546100D01*
X844296Y533400D02*
X832104Y533400D01*
X832104Y508000D02*
X844296Y508000D01*
X844296Y482600D02*
X832104Y482600D01*
X832104Y457200D02*
X844296Y457200D01*
X844296Y431800D02*
X832104Y431800D01*
X832104Y406400D02*
X844296Y406400D01*
X844296Y381000D02*
X832104Y381000D01*
X832104Y355600D02*
X844296Y355600D01*
X844296Y330200D02*
X832104Y330200D01*
X882904Y279400D02*
X895096Y279400D01*
X895096Y254000D02*
X882904Y254000D01*
X882904Y127000D02*
X895096Y127000D01*
X895096Y101600D02*
X882904Y101600D01*
X882904Y228600D02*
X895096Y228600D01*
X895096Y203200D02*
X882904Y203200D01*
X882904Y152400D02*
X895096Y152400D01*
X895096Y177800D02*
X882904Y177800D01*
X882904Y76200D02*
X895096Y76200D01*
X895096Y50800D02*
X882904Y50800D01*
X959104Y50800D02*
X971296Y50800D01*
X971296Y76200D02*
X959104Y76200D01*
X959104Y101600D02*
X971296Y101600D01*
X971296Y127000D02*
X959104Y127000D01*
X959104Y152400D02*
X971296Y152400D01*
X971296Y177800D02*
X959104Y177800D01*
X959104Y203200D02*
X971296Y203200D01*
X971296Y228600D02*
X959104Y228600D01*
X959104Y254000D02*
X971296Y254000D01*
X971296Y279400D02*
X959104Y279400D01*
X844296Y266700D02*
X832104Y266700D01*
X832104Y241300D02*
X844296Y241300D01*
X844296Y215900D02*
X832104Y215900D01*
X832104Y190500D02*
X844296Y190500D01*
X844296Y165100D02*
X832104Y165100D01*
X832104Y139700D02*
X844296Y139700D01*
X844296Y114300D02*
X832104Y114300D01*
X832104Y88900D02*
X844296Y88900D01*
X844296Y63500D02*
X832104Y63500D01*
X1238504Y1079500D02*
X1250696Y1079500D01*
X1250696Y1054100D02*
X1238504Y1054100D01*
X1238504Y927100D02*
X1250696Y927100D01*
X1250696Y901700D02*
X1238504Y901700D01*
X1238504Y1028700D02*
X1250696Y1028700D01*
X1250696Y1003300D02*
X1238504Y1003300D01*
X1238504Y952500D02*
X1250696Y952500D01*
X1250696Y977900D02*
X1238504Y977900D01*
X1238504Y876300D02*
X1250696Y876300D01*
X1250696Y850900D02*
X1238504Y850900D01*
X1314704Y850900D02*
X1326896Y850900D01*
X1326896Y876300D02*
X1314704Y876300D01*
X1314704Y901700D02*
X1326896Y901700D01*
X1326896Y927100D02*
X1314704Y927100D01*
X1314704Y952500D02*
X1326896Y952500D01*
X1326896Y977900D02*
X1314704Y977900D01*
X1314704Y1003300D02*
X1326896Y1003300D01*
X1326896Y1028700D02*
X1314704Y1028700D01*
X1314704Y1054100D02*
X1326896Y1054100D01*
X1326896Y1079500D02*
X1314704Y1079500D01*
X1199896Y1066800D02*
X1187704Y1066800D01*
X1187704Y1041400D02*
X1199896Y1041400D01*
X1199896Y1016000D02*
X1187704Y1016000D01*
X1187704Y990600D02*
X1199896Y990600D01*
X1199896Y965200D02*
X1187704Y965200D01*
X1187704Y939800D02*
X1199896Y939800D01*
X1199896Y914400D02*
X1187704Y914400D01*
X1187704Y889000D02*
X1199896Y889000D01*
X1199896Y863600D02*
X1187704Y863600D01*
X1238504Y812800D02*
X1250696Y812800D01*
X1250696Y787400D02*
X1238504Y787400D01*
X1238504Y660400D02*
X1250696Y660400D01*
X1250696Y635000D02*
X1238504Y635000D01*
X1238504Y762000D02*
X1250696Y762000D01*
X1250696Y736600D02*
X1238504Y736600D01*
X1238504Y685800D02*
X1250696Y685800D01*
X1250696Y711200D02*
X1238504Y711200D01*
X1238504Y609600D02*
X1250696Y609600D01*
X1250696Y584200D02*
X1238504Y584200D01*
X1314704Y584200D02*
X1326896Y584200D01*
X1326896Y609600D02*
X1314704Y609600D01*
X1314704Y635000D02*
X1326896Y635000D01*
X1326896Y660400D02*
X1314704Y660400D01*
X1314704Y685800D02*
X1326896Y685800D01*
X1326896Y711200D02*
X1314704Y711200D01*
X1314704Y736600D02*
X1326896Y736600D01*
X1326896Y762000D02*
X1314704Y762000D01*
X1314704Y787400D02*
X1326896Y787400D01*
X1326896Y812800D02*
X1314704Y812800D01*
X1199896Y800100D02*
X1187704Y800100D01*
X1187704Y774700D02*
X1199896Y774700D01*
X1199896Y749300D02*
X1187704Y749300D01*
X1187704Y723900D02*
X1199896Y723900D01*
X1199896Y698500D02*
X1187704Y698500D01*
X1187704Y673100D02*
X1199896Y673100D01*
X1199896Y647700D02*
X1187704Y647700D01*
X1187704Y622300D02*
X1199896Y622300D01*
X1199896Y596900D02*
X1187704Y596900D01*
X1238504Y546100D02*
X1250696Y546100D01*
X1250696Y520700D02*
X1238504Y520700D01*
X1238504Y393700D02*
X1250696Y393700D01*
X1250696Y368300D02*
X1238504Y368300D01*
X1238504Y495300D02*
X1250696Y495300D01*
X1250696Y469900D02*
X1238504Y469900D01*
X1238504Y419100D02*
X1250696Y419100D01*
X1250696Y444500D02*
X1238504Y444500D01*
X1238504Y342900D02*
X1250696Y342900D01*
X1250696Y317500D02*
X1238504Y317500D01*
X1314704Y317500D02*
X1326896Y317500D01*
X1326896Y342900D02*
X1314704Y342900D01*
X1314704Y368300D02*
X1326896Y368300D01*
X1326896Y393700D02*
X1314704Y393700D01*
X1314704Y419100D02*
X1326896Y419100D01*
X1326896Y444500D02*
X1314704Y444500D01*
X1314704Y469900D02*
X1326896Y469900D01*
X1326896Y495300D02*
X1314704Y495300D01*
X1314704Y520700D02*
X1326896Y520700D01*
X1326896Y546100D02*
X1314704Y546100D01*
X1199896Y533400D02*
X1187704Y533400D01*
X1187704Y508000D02*
X1199896Y508000D01*
X1199896Y482600D02*
X1187704Y482600D01*
X1187704Y457200D02*
X1199896Y457200D01*
X1199896Y431800D02*
X1187704Y431800D01*
X1187704Y406400D02*
X1199896Y406400D01*
X1199896Y381000D02*
X1187704Y381000D01*
X1187704Y355600D02*
X1199896Y355600D01*
X1199896Y330200D02*
X1187704Y330200D01*
X1238504Y279400D02*
X1250696Y279400D01*
X1250696Y254000D02*
X1238504Y254000D01*
X1238504Y127000D02*
X1250696Y127000D01*
X1250696Y101600D02*
X1238504Y101600D01*
X1238504Y228600D02*
X1250696Y228600D01*
X1250696Y203200D02*
X1238504Y203200D01*
X1238504Y152400D02*
X1250696Y152400D01*
X1250696Y177800D02*
X1238504Y177800D01*
X1238504Y76200D02*
X1250696Y76200D01*
X1250696Y50800D02*
X1238504Y50800D01*
X1314704Y50800D02*
X1326896Y50800D01*
X1326896Y76200D02*
X1314704Y76200D01*
X1314704Y101600D02*
X1326896Y101600D01*
X1326896Y127000D02*
X1314704Y127000D01*
X1314704Y152400D02*
X1326896Y152400D01*
X1326896Y177800D02*
X1314704Y177800D01*
X1314704Y203200D02*
X1326896Y203200D01*
X1326896Y228600D02*
X1314704Y228600D01*
X1314704Y254000D02*
X1326896Y254000D01*
X1326896Y279400D02*
X1314704Y279400D01*
X1199896Y266700D02*
X1187704Y266700D01*
X1187704Y241300D02*
X1199896Y241300D01*
X1199896Y215900D02*
X1187704Y215900D01*
X1187704Y190500D02*
X1199896Y190500D01*
X1199896Y165100D02*
X1187704Y165100D01*
X1187704Y139700D02*
X1199896Y139700D01*
X1199896Y114300D02*
X1187704Y114300D01*
X1187704Y88900D02*
X1199896Y88900D01*
X1199896Y63500D02*
X1187704Y63500D01*
X1594104Y1079500D02*
X1606296Y1079500D01*
X1606296Y1054100D02*
X1594104Y1054100D01*
X1594104Y927100D02*
X1606296Y927100D01*
X1606296Y901700D02*
X1594104Y901700D01*
X1594104Y1028700D02*
X1606296Y1028700D01*
X1606296Y1003300D02*
X1594104Y1003300D01*
X1594104Y952500D02*
X1606296Y952500D01*
X1606296Y977900D02*
X1594104Y977900D01*
X1594104Y876300D02*
X1606296Y876300D01*
X1606296Y850900D02*
X1594104Y850900D01*
X1670304Y850900D02*
X1682496Y850900D01*
X1682496Y876300D02*
X1670304Y876300D01*
X1670304Y901700D02*
X1682496Y901700D01*
X1682496Y927100D02*
X1670304Y927100D01*
X1670304Y952500D02*
X1682496Y952500D01*
X1682496Y977900D02*
X1670304Y977900D01*
X1670304Y1003300D02*
X1682496Y1003300D01*
X1682496Y1028700D02*
X1670304Y1028700D01*
X1670304Y1054100D02*
X1682496Y1054100D01*
X1682496Y1079500D02*
X1670304Y1079500D01*
X1555496Y1066800D02*
X1543304Y1066800D01*
X1543304Y1041400D02*
X1555496Y1041400D01*
X1555496Y1016000D02*
X1543304Y1016000D01*
X1543304Y990600D02*
X1555496Y990600D01*
X1555496Y965200D02*
X1543304Y965200D01*
X1543304Y939800D02*
X1555496Y939800D01*
X1555496Y914400D02*
X1543304Y914400D01*
X1543304Y889000D02*
X1555496Y889000D01*
X1555496Y863600D02*
X1543304Y863600D01*
X1594104Y812800D02*
X1606296Y812800D01*
X1606296Y787400D02*
X1594104Y787400D01*
X1594104Y660400D02*
X1606296Y660400D01*
X1606296Y635000D02*
X1594104Y635000D01*
X1594104Y762000D02*
X1606296Y762000D01*
X1606296Y736600D02*
X1594104Y736600D01*
X1594104Y685800D02*
X1606296Y685800D01*
X1606296Y711200D02*
X1594104Y711200D01*
X1594104Y609600D02*
X1606296Y609600D01*
X1606296Y584200D02*
X1594104Y584200D01*
X1670304Y584200D02*
X1682496Y584200D01*
X1682496Y609600D02*
X1670304Y609600D01*
X1670304Y635000D02*
X1682496Y635000D01*
X1682496Y660400D02*
X1670304Y660400D01*
X1670304Y685800D02*
X1682496Y685800D01*
X1682496Y711200D02*
X1670304Y711200D01*
X1670304Y736600D02*
X1682496Y736600D01*
X1682496Y762000D02*
X1670304Y762000D01*
X1670304Y787400D02*
X1682496Y787400D01*
X1682496Y812800D02*
X1670304Y812800D01*
X1555496Y800100D02*
X1543304Y800100D01*
X1543304Y774700D02*
X1555496Y774700D01*
X1555496Y749300D02*
X1543304Y749300D01*
X1543304Y723900D02*
X1555496Y723900D01*
X1555496Y698500D02*
X1543304Y698500D01*
X1543304Y673100D02*
X1555496Y673100D01*
X1555496Y647700D02*
X1543304Y647700D01*
X1543304Y622300D02*
X1555496Y622300D01*
X1555496Y596900D02*
X1543304Y596900D01*
X1594104Y546100D02*
X1606296Y546100D01*
X1606296Y520700D02*
X1594104Y520700D01*
X1594104Y393700D02*
X1606296Y393700D01*
X1606296Y368300D02*
X1594104Y368300D01*
X1594104Y495300D02*
X1606296Y495300D01*
X1606296Y469900D02*
X1594104Y469900D01*
X1594104Y419100D02*
X1606296Y419100D01*
X1606296Y444500D02*
X1594104Y444500D01*
X1594104Y342900D02*
X1606296Y342900D01*
X1606296Y317500D02*
X1594104Y317500D01*
X1670304Y317500D02*
X1682496Y317500D01*
X1682496Y342900D02*
X1670304Y342900D01*
X1670304Y368300D02*
X1682496Y368300D01*
X1682496Y393700D02*
X1670304Y393700D01*
X1670304Y419100D02*
X1682496Y419100D01*
X1682496Y444500D02*
X1670304Y444500D01*
X1670304Y469900D02*
X1682496Y469900D01*
X1682496Y495300D02*
X1670304Y495300D01*
X1670304Y520700D02*
X1682496Y520700D01*
X1682496Y546100D02*
X1670304Y546100D01*
X1555496Y533400D02*
X1543304Y533400D01*
X1543304Y508000D02*
X1555496Y508000D01*
X1555496Y482600D02*
X1543304Y482600D01*
X1543304Y457200D02*
X1555496Y457200D01*
X1555496Y431800D02*
X1543304Y431800D01*
X1543304Y406400D02*
X1555496Y406400D01*
X1555496Y381000D02*
X1543304Y381000D01*
X1543304Y355600D02*
X1555496Y355600D01*
X1555496Y330200D02*
X1543304Y330200D01*
X1594104Y279400D02*
X1606296Y279400D01*
X1606296Y254000D02*
X1594104Y254000D01*
X1594104Y127000D02*
X1606296Y127000D01*
X1606296Y101600D02*
X1594104Y101600D01*
X1594104Y228600D02*
X1606296Y228600D01*
X1606296Y203200D02*
X1594104Y203200D01*
X1594104Y152400D02*
X1606296Y152400D01*
X1606296Y177800D02*
X1594104Y177800D01*
X1594104Y76200D02*
X1606296Y76200D01*
X1606296Y50800D02*
X1594104Y50800D01*
X1670304Y50800D02*
X1682496Y50800D01*
X1682496Y76200D02*
X1670304Y76200D01*
X1670304Y101600D02*
X1682496Y101600D01*
X1682496Y127000D02*
X1670304Y127000D01*
X1670304Y152400D02*
X1682496Y152400D01*
X1682496Y177800D02*
X1670304Y177800D01*
X1670304Y203200D02*
X1682496Y203200D01*
X1682496Y228600D02*
X1670304Y228600D01*
X1670304Y254000D02*
X1682496Y254000D01*
X1682496Y279400D02*
X1670304Y279400D01*
X1555496Y266700D02*
X1543304Y266700D01*
X1543304Y241300D02*
X1555496Y241300D01*
X1555496Y215900D02*
X1543304Y215900D01*
X1543304Y190500D02*
X1555496Y190500D01*
X1555496Y165100D02*
X1543304Y165100D01*
X1543304Y139700D02*
X1555496Y139700D01*
X1555496Y114300D02*
X1543304Y114300D01*
X1543304Y88900D02*
X1555496Y88900D01*
X1555496Y63500D02*
X1543304Y63500D01*
X196596Y965200D02*
X184404Y965200D01*
X184404Y939800D02*
X196596Y939800D01*
X196596Y812800D02*
X184404Y812800D01*
X260604Y812800D02*
X272796Y812800D01*
X196596Y914400D02*
X184404Y914400D01*
X184404Y889000D02*
X196596Y889000D01*
X196596Y838200D02*
X184404Y838200D01*
X184404Y863600D02*
X196596Y863600D01*
X260604Y838200D02*
X272796Y838200D01*
X272796Y863600D02*
X260604Y863600D01*
X260604Y889000D02*
X272796Y889000D01*
X272796Y914400D02*
X260604Y914400D01*
X260604Y939800D02*
X272796Y939800D01*
X272796Y965200D02*
X260604Y965200D01*
X196596Y736600D02*
X184404Y736600D01*
X184404Y711200D02*
X196596Y711200D01*
X196596Y584200D02*
X184404Y584200D01*
X184404Y558800D02*
X196596Y558800D01*
X196596Y685800D02*
X184404Y685800D01*
X184404Y660400D02*
X196596Y660400D01*
X196596Y609600D02*
X184404Y609600D01*
X184404Y635000D02*
X196596Y635000D01*
X260604Y558800D02*
X272796Y558800D01*
X272796Y584200D02*
X260604Y584200D01*
X260604Y609600D02*
X272796Y609600D01*
X272796Y635000D02*
X260604Y635000D01*
X260604Y660400D02*
X272796Y660400D01*
X272796Y685800D02*
X260604Y685800D01*
X260604Y711200D02*
X272796Y711200D01*
X272796Y736600D02*
X260604Y736600D01*
X196596Y482600D02*
X184404Y482600D01*
X184404Y457200D02*
X196596Y457200D01*
X196596Y330200D02*
X184404Y330200D01*
X184404Y304800D02*
X196596Y304800D01*
X196596Y431800D02*
X184404Y431800D01*
X184404Y406400D02*
X196596Y406400D01*
X196596Y355600D02*
X184404Y355600D01*
X184404Y381000D02*
X196596Y381000D01*
X260604Y304800D02*
X272796Y304800D01*
X272796Y330200D02*
X260604Y330200D01*
X260604Y355600D02*
X272796Y355600D01*
X272796Y381000D02*
X260604Y381000D01*
X260604Y406400D02*
X272796Y406400D01*
X272796Y431800D02*
X260604Y431800D01*
X260604Y457200D02*
X272796Y457200D01*
X272796Y482600D02*
X260604Y482600D01*
X438404Y876300D02*
X450596Y876300D01*
X450596Y901700D02*
X438404Y901700D01*
X438404Y1028700D02*
X450596Y1028700D01*
X450596Y1054100D02*
X438404Y1054100D01*
X438404Y927100D02*
X450596Y927100D01*
X450596Y952500D02*
X438404Y952500D01*
X438404Y1003300D02*
X450596Y1003300D01*
X450596Y977900D02*
X438404Y977900D01*
X374396Y1054100D02*
X362204Y1054100D01*
X362204Y1028700D02*
X374396Y1028700D01*
X374396Y1003300D02*
X362204Y1003300D01*
X362204Y977900D02*
X374396Y977900D01*
X374396Y952500D02*
X362204Y952500D01*
X362204Y927100D02*
X374396Y927100D01*
X374396Y901700D02*
X362204Y901700D01*
X362204Y876300D02*
X374396Y876300D01*
X438404Y609600D02*
X450596Y609600D01*
X450596Y635000D02*
X438404Y635000D01*
X438404Y762000D02*
X450596Y762000D01*
X450596Y787400D02*
X438404Y787400D01*
X438404Y660400D02*
X450596Y660400D01*
X450596Y685800D02*
X438404Y685800D01*
X438404Y736600D02*
X450596Y736600D01*
X450596Y711200D02*
X438404Y711200D01*
X374396Y787400D02*
X362204Y787400D01*
X362204Y762000D02*
X374396Y762000D01*
X374396Y736600D02*
X362204Y736600D01*
X362204Y711200D02*
X374396Y711200D01*
X374396Y685800D02*
X362204Y685800D01*
X362204Y660400D02*
X374396Y660400D01*
X374396Y635000D02*
X362204Y635000D01*
X362204Y609600D02*
X374396Y609600D01*
X438404Y342900D02*
X450596Y342900D01*
X450596Y368300D02*
X438404Y368300D01*
X438404Y495300D02*
X450596Y495300D01*
X450596Y520700D02*
X438404Y520700D01*
X438404Y393700D02*
X450596Y393700D01*
X450596Y419100D02*
X438404Y419100D01*
X438404Y469900D02*
X450596Y469900D01*
X450596Y444500D02*
X438404Y444500D01*
X374396Y520700D02*
X362204Y520700D01*
X362204Y495300D02*
X374396Y495300D01*
X374396Y469900D02*
X362204Y469900D01*
X362204Y444500D02*
X374396Y444500D01*
X374396Y419100D02*
X362204Y419100D01*
X362204Y393700D02*
X374396Y393700D01*
X374396Y368300D02*
X362204Y368300D01*
X362204Y342900D02*
X374396Y342900D01*
X438404Y76200D02*
X450596Y76200D01*
X450596Y101600D02*
X438404Y101600D01*
X438404Y228600D02*
X450596Y228600D01*
X450596Y254000D02*
X438404Y254000D01*
X438404Y127000D02*
X450596Y127000D01*
X450596Y152400D02*
X438404Y152400D01*
X438404Y203200D02*
X450596Y203200D01*
X450596Y177800D02*
X438404Y177800D01*
X374396Y254000D02*
X362204Y254000D01*
X362204Y228600D02*
X374396Y228600D01*
X374396Y203200D02*
X362204Y203200D01*
X362204Y177800D02*
X374396Y177800D01*
X374396Y152400D02*
X362204Y152400D01*
X362204Y127000D02*
X374396Y127000D01*
X374396Y101600D02*
X362204Y101600D01*
X362204Y76200D02*
X374396Y76200D01*
X794004Y876300D02*
X806196Y876300D01*
X806196Y901700D02*
X794004Y901700D01*
X794004Y1028700D02*
X806196Y1028700D01*
X806196Y1054100D02*
X794004Y1054100D01*
X794004Y927100D02*
X806196Y927100D01*
X806196Y952500D02*
X794004Y952500D01*
X794004Y1003300D02*
X806196Y1003300D01*
X806196Y977900D02*
X794004Y977900D01*
X729996Y1054100D02*
X717804Y1054100D01*
X717804Y1028700D02*
X729996Y1028700D01*
X729996Y1003300D02*
X717804Y1003300D01*
X717804Y977900D02*
X729996Y977900D01*
X729996Y952500D02*
X717804Y952500D01*
X717804Y927100D02*
X729996Y927100D01*
X729996Y901700D02*
X717804Y901700D01*
X717804Y876300D02*
X729996Y876300D01*
X794004Y609600D02*
X806196Y609600D01*
X806196Y635000D02*
X794004Y635000D01*
X794004Y762000D02*
X806196Y762000D01*
X806196Y787400D02*
X794004Y787400D01*
X794004Y660400D02*
X806196Y660400D01*
X806196Y685800D02*
X794004Y685800D01*
X794004Y736600D02*
X806196Y736600D01*
X806196Y711200D02*
X794004Y711200D01*
X729996Y787400D02*
X717804Y787400D01*
X717804Y762000D02*
X729996Y762000D01*
X729996Y736600D02*
X717804Y736600D01*
X717804Y711200D02*
X729996Y711200D01*
X729996Y685800D02*
X717804Y685800D01*
X717804Y660400D02*
X729996Y660400D01*
X729996Y635000D02*
X717804Y635000D01*
X717804Y609600D02*
X729996Y609600D01*
X794004Y342900D02*
X806196Y342900D01*
X806196Y368300D02*
X794004Y368300D01*
X794004Y495300D02*
X806196Y495300D01*
X806196Y520700D02*
X794004Y520700D01*
X794004Y393700D02*
X806196Y393700D01*
X806196Y419100D02*
X794004Y419100D01*
X794004Y469900D02*
X806196Y469900D01*
X806196Y444500D02*
X794004Y444500D01*
X729996Y520700D02*
X717804Y520700D01*
X717804Y495300D02*
X729996Y495300D01*
X729996Y469900D02*
X717804Y469900D01*
X717804Y444500D02*
X729996Y444500D01*
X729996Y419100D02*
X717804Y419100D01*
X717804Y393700D02*
X729996Y393700D01*
X729996Y368300D02*
X717804Y368300D01*
X717804Y342900D02*
X729996Y342900D01*
X794004Y76200D02*
X806196Y76200D01*
X806196Y101600D02*
X794004Y101600D01*
X794004Y228600D02*
X806196Y228600D01*
X806196Y254000D02*
X794004Y254000D01*
X794004Y127000D02*
X806196Y127000D01*
X806196Y152400D02*
X794004Y152400D01*
X794004Y203200D02*
X806196Y203200D01*
X806196Y177800D02*
X794004Y177800D01*
X729996Y254000D02*
X717804Y254000D01*
X717804Y228600D02*
X729996Y228600D01*
X729996Y203200D02*
X717804Y203200D01*
X717804Y177800D02*
X729996Y177800D01*
X729996Y152400D02*
X717804Y152400D01*
X717804Y127000D02*
X729996Y127000D01*
X729996Y101600D02*
X717804Y101600D01*
X717804Y76200D02*
X729996Y76200D01*
X1149604Y876300D02*
X1161796Y876300D01*
X1161796Y901700D02*
X1149604Y901700D01*
X1149604Y1028700D02*
X1161796Y1028700D01*
X1161796Y1054100D02*
X1149604Y1054100D01*
X1149604Y927100D02*
X1161796Y927100D01*
X1161796Y952500D02*
X1149604Y952500D01*
X1149604Y1003300D02*
X1161796Y1003300D01*
X1161796Y977900D02*
X1149604Y977900D01*
X1085596Y1054100D02*
X1073404Y1054100D01*
X1073404Y1028700D02*
X1085596Y1028700D01*
X1085596Y1003300D02*
X1073404Y1003300D01*
X1073404Y977900D02*
X1085596Y977900D01*
X1085596Y952500D02*
X1073404Y952500D01*
X1073404Y927100D02*
X1085596Y927100D01*
X1085596Y901700D02*
X1073404Y901700D01*
X1073404Y876300D02*
X1085596Y876300D01*
X1149604Y609600D02*
X1161796Y609600D01*
X1161796Y635000D02*
X1149604Y635000D01*
X1149604Y762000D02*
X1161796Y762000D01*
X1161796Y787400D02*
X1149604Y787400D01*
X1149604Y660400D02*
X1161796Y660400D01*
X1161796Y685800D02*
X1149604Y685800D01*
X1149604Y736600D02*
X1161796Y736600D01*
X1161796Y711200D02*
X1149604Y711200D01*
X1085596Y787400D02*
X1073404Y787400D01*
X1073404Y762000D02*
X1085596Y762000D01*
X1085596Y736600D02*
X1073404Y736600D01*
X1073404Y711200D02*
X1085596Y711200D01*
X1085596Y685800D02*
X1073404Y685800D01*
X1073404Y660400D02*
X1085596Y660400D01*
X1085596Y635000D02*
X1073404Y635000D01*
X1073404Y609600D02*
X1085596Y609600D01*
X1149604Y342900D02*
X1161796Y342900D01*
X1161796Y368300D02*
X1149604Y368300D01*
X1149604Y495300D02*
X1161796Y495300D01*
X1161796Y520700D02*
X1149604Y520700D01*
X1149604Y393700D02*
X1161796Y393700D01*
X1161796Y419100D02*
X1149604Y419100D01*
X1149604Y469900D02*
X1161796Y469900D01*
X1161796Y444500D02*
X1149604Y444500D01*
X1085596Y520700D02*
X1073404Y520700D01*
X1073404Y495300D02*
X1085596Y495300D01*
X1085596Y469900D02*
X1073404Y469900D01*
X1073404Y444500D02*
X1085596Y444500D01*
X1085596Y419100D02*
X1073404Y419100D01*
X1073404Y393700D02*
X1085596Y393700D01*
X1085596Y368300D02*
X1073404Y368300D01*
X1073404Y342900D02*
X1085596Y342900D01*
X1149604Y76200D02*
X1161796Y76200D01*
X1161796Y101600D02*
X1149604Y101600D01*
X1149604Y228600D02*
X1161796Y228600D01*
X1161796Y254000D02*
X1149604Y254000D01*
X1149604Y127000D02*
X1161796Y127000D01*
X1161796Y152400D02*
X1149604Y152400D01*
X1149604Y203200D02*
X1161796Y203200D01*
X1161796Y177800D02*
X1149604Y177800D01*
X1085596Y254000D02*
X1073404Y254000D01*
X1073404Y228600D02*
X1085596Y228600D01*
X1085596Y203200D02*
X1073404Y203200D01*
X1073404Y177800D02*
X1085596Y177800D01*
X1085596Y152400D02*
X1073404Y152400D01*
X1073404Y127000D02*
X1085596Y127000D01*
X1085596Y101600D02*
X1073404Y101600D01*
X1073404Y76200D02*
X1085596Y76200D01*
X1505204Y876300D02*
X1517396Y876300D01*
X1517396Y901700D02*
X1505204Y901700D01*
X1505204Y1028700D02*
X1517396Y1028700D01*
X1517396Y1054100D02*
X1505204Y1054100D01*
X1505204Y927100D02*
X1517396Y927100D01*
X1517396Y952500D02*
X1505204Y952500D01*
X1505204Y1003300D02*
X1517396Y1003300D01*
X1517396Y977900D02*
X1505204Y977900D01*
X1441196Y1054100D02*
X1429004Y1054100D01*
X1429004Y1028700D02*
X1441196Y1028700D01*
X1441196Y1003300D02*
X1429004Y1003300D01*
X1429004Y977900D02*
X1441196Y977900D01*
X1441196Y952500D02*
X1429004Y952500D01*
X1429004Y927100D02*
X1441196Y927100D01*
X1441196Y901700D02*
X1429004Y901700D01*
X1429004Y876300D02*
X1441196Y876300D01*
X1505204Y609600D02*
X1517396Y609600D01*
X1517396Y635000D02*
X1505204Y635000D01*
X1505204Y762000D02*
X1517396Y762000D01*
X1517396Y787400D02*
X1505204Y787400D01*
X1505204Y660400D02*
X1517396Y660400D01*
X1517396Y685800D02*
X1505204Y685800D01*
X1505204Y736600D02*
X1517396Y736600D01*
X1517396Y711200D02*
X1505204Y711200D01*
X1441196Y787400D02*
X1429004Y787400D01*
X1429004Y762000D02*
X1441196Y762000D01*
X1441196Y736600D02*
X1429004Y736600D01*
X1429004Y711200D02*
X1441196Y711200D01*
X1441196Y685800D02*
X1429004Y685800D01*
X1429004Y660400D02*
X1441196Y660400D01*
X1441196Y635000D02*
X1429004Y635000D01*
X1429004Y609600D02*
X1441196Y609600D01*
X1505204Y342900D02*
X1517396Y342900D01*
X1517396Y368300D02*
X1505204Y368300D01*
X1505204Y495300D02*
X1517396Y495300D01*
X1517396Y520700D02*
X1505204Y520700D01*
X1505204Y393700D02*
X1517396Y393700D01*
X1517396Y419100D02*
X1505204Y419100D01*
X1505204Y469900D02*
X1517396Y469900D01*
X1517396Y444500D02*
X1505204Y444500D01*
X1441196Y520700D02*
X1429004Y520700D01*
X1429004Y495300D02*
X1441196Y495300D01*
X1441196Y469900D02*
X1429004Y469900D01*
X1429004Y444500D02*
X1441196Y444500D01*
X1441196Y419100D02*
X1429004Y419100D01*
X1429004Y393700D02*
X1441196Y393700D01*
X1441196Y368300D02*
X1429004Y368300D01*
X1429004Y342900D02*
X1441196Y342900D01*
X1505204Y76200D02*
X1517396Y76200D01*
X1517396Y101600D02*
X1505204Y101600D01*
X1505204Y228600D02*
X1517396Y228600D01*
X1517396Y254000D02*
X1505204Y254000D01*
X1505204Y127000D02*
X1517396Y127000D01*
X1517396Y152400D02*
X1505204Y152400D01*
X1505204Y203200D02*
X1517396Y203200D01*
X1517396Y177800D02*
X1505204Y177800D01*
X1441196Y254000D02*
X1429004Y254000D01*
X1429004Y228600D02*
X1441196Y228600D01*
X1441196Y203200D02*
X1429004Y203200D01*
X1429004Y177800D02*
X1441196Y177800D01*
X1441196Y152400D02*
X1429004Y152400D01*
X1429004Y127000D02*
X1441196Y127000D01*
X1441196Y101600D02*
X1429004Y101600D01*
X1429004Y76200D02*
X1441196Y76200D01*
D14*
X647700Y1066800D03*
X673100Y1066800D03*
X647700Y800100D03*
X673100Y800100D03*
X647700Y533400D03*
X673100Y533400D03*
X647700Y266700D03*
X673100Y266700D03*
X1003300Y1066800D03*
X1028700Y1066800D03*
X1003300Y800100D03*
X1028700Y800100D03*
X1003300Y533400D03*
X1028700Y533400D03*
X1003300Y266700D03*
X1028700Y266700D03*
X1358900Y1066800D03*
X1384300Y1066800D03*
X1358900Y800100D03*
X1384300Y800100D03*
X1358900Y533400D03*
X1384300Y533400D03*
X1358900Y266700D03*
X1384300Y266700D03*
X1714500Y1066800D03*
X1739900Y1066800D03*
X1714500Y800100D03*
X1739900Y800100D03*
X1714500Y533400D03*
X1739900Y533400D03*
X1714500Y266700D03*
X1739900Y266700D03*
X215900Y990600D03*
X241300Y990600D03*
X215900Y762000D03*
X241300Y762000D03*
X215900Y508000D03*
X241300Y508000D03*
X215900Y254000D03*
X241300Y254000D03*
D13*
X196596Y228600D02*
X184404Y228600D01*
X184404Y203200D02*
X196596Y203200D01*
X196596Y76200D02*
X184404Y76200D01*
X184404Y50800D02*
X196596Y50800D01*
X196596Y177800D02*
X184404Y177800D01*
X184404Y152400D02*
X196596Y152400D01*
X196596Y101600D02*
X184404Y101600D01*
X184404Y127000D02*
X196596Y127000D01*
X260604Y50800D02*
X272796Y50800D01*
X272796Y76200D02*
X260604Y76200D01*
X260604Y101600D02*
X272796Y101600D01*
X272796Y127000D02*
X260604Y127000D01*
X260604Y152400D02*
X272796Y152400D01*
X272796Y177800D02*
X260604Y177800D01*
X260604Y203200D02*
X272796Y203200D01*
X272796Y228600D02*
X260604Y228600D01*
X241300Y1111504D02*
X241300Y1123696D01*
X215900Y1123696D02*
X215900Y1111504D01*
X88900Y1111504D02*
X88900Y1123696D01*
X88900Y1047496D02*
X88900Y1035304D01*
X190500Y1111504D02*
X190500Y1123696D01*
X165100Y1123696D02*
X165100Y1111504D01*
X114300Y1111504D02*
X114300Y1123696D01*
X139700Y1123696D02*
X139700Y1111504D01*
X114300Y1047496D02*
X114300Y1035304D01*
X139700Y1035304D02*
X139700Y1047496D01*
X165100Y1047496D02*
X165100Y1035304D01*
X190500Y1035304D02*
X190500Y1047496D01*
X215900Y1047496D02*
X215900Y1035304D01*
X241300Y1035304D02*
X241300Y1047496D01*
X82296Y101600D02*
X70104Y101600D01*
X70104Y76200D02*
X82296Y76200D01*
X146304Y76200D02*
X158496Y76200D01*
X158496Y101600D02*
X146304Y101600D01*
X82296Y50800D02*
X70104Y50800D01*
X70104Y25400D02*
X82296Y25400D01*
X146304Y50800D02*
X158496Y50800D01*
X158496Y25400D02*
X146304Y25400D01*
D11*
X292100Y1079500D03*
X266700Y1079500D03*
D13*
X158496Y266700D02*
X146304Y266700D01*
X146304Y241300D02*
X158496Y241300D01*
X158496Y215900D02*
X146304Y215900D01*
X146304Y190500D02*
X158496Y190500D01*
X158496Y165100D02*
X146304Y165100D01*
D15*
X457200Y838200D03*
X355600Y838200D03*
D16*
X304800Y977900D03*
X330200Y977900D03*
D15*
X457200Y571500D03*
X355600Y571500D03*
D16*
X304800Y711200D03*
X330200Y711200D03*
D15*
X457200Y304800D03*
X355600Y304800D03*
D16*
X304800Y444500D03*
X330200Y444500D03*
D15*
X457200Y38100D03*
X355600Y38100D03*
D16*
X304800Y177800D03*
X330200Y177800D03*
D15*
X812800Y838200D03*
X711200Y838200D03*
D16*
X660400Y977900D03*
X685800Y977900D03*
D15*
X812800Y571500D03*
X711200Y571500D03*
D16*
X660400Y711200D03*
X685800Y711200D03*
D15*
X812800Y304800D03*
X711200Y304800D03*
D16*
X660400Y444500D03*
X685800Y444500D03*
D15*
X812800Y38100D03*
X711200Y38100D03*
D16*
X660400Y177800D03*
X685800Y177800D03*
D15*
X1168400Y838200D03*
X1066800Y838200D03*
D16*
X1016000Y977900D03*
X1041400Y977900D03*
D15*
X1168400Y571500D03*
X1066800Y571500D03*
D16*
X1016000Y711200D03*
X1041400Y711200D03*
D15*
X1168400Y304800D03*
X1066800Y304800D03*
D16*
X1016000Y444500D03*
X1041400Y444500D03*
D15*
X1168400Y38100D03*
X1066800Y38100D03*
D16*
X1016000Y177800D03*
X1041400Y177800D03*
D15*
X1524000Y838200D03*
X1422400Y838200D03*
D16*
X1371600Y977900D03*
X1397000Y977900D03*
D15*
X1524000Y571500D03*
X1422400Y571500D03*
D16*
X1371600Y711200D03*
X1397000Y711200D03*
D15*
X1524000Y304800D03*
X1422400Y304800D03*
D16*
X1371600Y444500D03*
X1397000Y444500D03*
D15*
X1524000Y38100D03*
X1422400Y38100D03*
D16*
X1371600Y177800D03*
X1397000Y177800D03*
D17*
X1752600Y1117600D03*
D18*
X1079500Y101600D02*
X1079500Y76200D01*
X1079500Y342900D02*
X1079500Y368300D01*
X1079500Y393700D01*
X1079500Y419100D02*
X1079500Y444500D01*
X1079500Y469900D02*
X1079500Y495300D01*
X1079500Y342900D02*
X1079500Y254000D01*
X1079500Y876300D02*
X1079500Y901700D01*
X1079500Y927100D02*
X1079500Y952500D01*
X1079500Y1028700D02*
X1079500Y1054100D01*
X1079500Y1003300D02*
X1079500Y977900D01*
X1079500Y635000D02*
X1079500Y609600D01*
X1079500Y635000D02*
X1079500Y660400D01*
X1079500Y685800D02*
X1079500Y711200D01*
X1079500Y736600D02*
X1079500Y762000D01*
X1079500Y787400D02*
X1079500Y876300D01*
X1435100Y101600D02*
X1435100Y76200D01*
X1435100Y127000D02*
X1435100Y152400D01*
X1435100Y177800D02*
X1435100Y203200D01*
X1435100Y50800D02*
X1600200Y50800D01*
X1435100Y50800D02*
X1435100Y76200D01*
X1727200Y254000D02*
X1739900Y266700D01*
X1727200Y254000D02*
X1727200Y38100D01*
X1435100Y393700D02*
X1435100Y419100D01*
X1435100Y393700D02*
X1435100Y368300D01*
X1435100Y419100D02*
X1435100Y444500D01*
X1435100Y469900D02*
X1435100Y495300D01*
X1739900Y800100D02*
X1739900Y1066800D01*
X1435100Y635000D02*
X1435100Y609600D01*
X1435100Y685800D02*
X1435100Y711200D01*
X1435100Y1028700D02*
X1435100Y1054100D01*
X1435100Y876300D02*
X1435100Y850900D01*
X1435100Y787400D01*
X1435100Y850900D02*
X1600200Y850900D01*
X1435100Y609600D02*
X1435100Y520700D01*
X1435100Y342900D02*
X1435100Y254000D01*
X190500Y558800D02*
X174625Y574675D01*
X174625Y796925D01*
X190500Y812800D01*
X174625Y66675D02*
X190500Y50800D01*
X174625Y66675D02*
X174625Y136525D01*
X190500Y152400D01*
X174625Y187325D02*
X190500Y203200D01*
X174625Y187325D02*
X174625Y136525D01*
X174625Y244475D02*
X152400Y266700D01*
X174625Y244475D02*
X174625Y187325D01*
X174625Y542925D02*
X190500Y558800D01*
X174625Y542925D02*
X174625Y320675D01*
X190500Y304800D01*
X368300Y876300D02*
X368300Y901700D01*
X266700Y1079500D02*
X231775Y1079500D01*
X231775Y1000125D01*
X241300Y990600D01*
X368300Y635000D02*
X368300Y609600D01*
X368300Y660400D02*
X368300Y685800D01*
X368300Y762000D02*
X368300Y787400D01*
X368300Y736600D02*
X368300Y711200D01*
X368300Y368300D02*
X368300Y342900D01*
X368300Y317500D02*
X533400Y317500D01*
X368300Y317500D02*
X368300Y342900D01*
X368300Y393700D02*
X368300Y419100D01*
X368300Y495300D02*
X368300Y520700D01*
X368300Y609600D01*
X368300Y317500D02*
X368300Y254000D01*
X368300Y787400D02*
X368300Y876300D01*
X723900Y228600D02*
X723900Y203200D01*
X723900Y101600D02*
X723900Y76200D01*
X723900Y50800D02*
X889000Y50800D01*
X723900Y50800D02*
X723900Y76200D01*
X723900Y127000D02*
X723900Y152400D01*
X723900Y495300D02*
X723900Y520700D01*
X723900Y368300D02*
X723900Y342900D01*
X723900Y317500D02*
X889000Y317500D01*
X723900Y317500D02*
X723900Y342900D01*
X723900Y393700D02*
X723900Y419100D01*
X723900Y444500D02*
X723900Y469900D01*
X723900Y317500D02*
X723900Y254000D01*
X723900Y609600D02*
X723900Y635000D01*
X723900Y660400D02*
X723900Y685800D01*
X723900Y736600D02*
X723900Y762000D01*
X723900Y977900D02*
X723900Y1003300D01*
X723900Y977900D02*
X723900Y952500D01*
X723900Y850900D02*
X889000Y850900D01*
X723900Y850900D02*
X723900Y876300D01*
X723900Y850900D02*
X723900Y787400D01*
X723900Y584200D02*
X889000Y584200D01*
X723900Y584200D02*
X723900Y609600D01*
X723900Y584200D02*
X723900Y520700D01*
X482600Y533400D02*
X457200Y558800D01*
X457200Y571500D01*
X812800Y558800D02*
X838200Y533400D01*
X812800Y558800D02*
X812800Y571500D01*
X812800Y292100D02*
X838200Y266700D01*
X812800Y292100D02*
X812800Y304800D01*
X482600Y266700D02*
X457200Y292100D01*
X457200Y304800D01*
X457200Y38100D02*
X409575Y38100D01*
X409575Y244475D01*
X457200Y292100D01*
X647700Y266700D02*
X647700Y533400D01*
X1168400Y558800D02*
X1193800Y533400D01*
X1168400Y558800D02*
X1168400Y571500D01*
X1524000Y558800D02*
X1549400Y533400D01*
X1524000Y558800D02*
X1524000Y571500D01*
X1524000Y292100D02*
X1549400Y266700D01*
X1524000Y292100D02*
X1524000Y304800D01*
X1749425Y206375D02*
X1752600Y203200D01*
X1749425Y206375D02*
X1749425Y273050D01*
X1746250Y276225D01*
X1714500Y276225D01*
X1714500Y266700D01*
X1193800Y266700D02*
X1168400Y292100D01*
X1168400Y304800D01*
X1168400Y38100D02*
X1127125Y38100D01*
X1127125Y250825D01*
X1168400Y292100D01*
X1714500Y276225D02*
X1714500Y533400D01*
X1193800Y800100D02*
X1168400Y825500D01*
X1168400Y838200D01*
X482600Y800100D02*
X457200Y825500D01*
X457200Y838200D01*
X812800Y825500D02*
X838200Y800100D01*
X812800Y825500D02*
X812800Y838200D01*
X1524000Y825500D02*
X1549400Y800100D01*
X1524000Y825500D02*
X1524000Y838200D01*
X1320800Y1066800D02*
X1193800Y1066800D01*
X1320800Y1066800D02*
X1320800Y1079500D01*
X1714500Y1066800D02*
X1714500Y800100D01*
X101600Y203200D02*
X88900Y190500D01*
X88900Y114300D01*
X76200Y101600D01*
X215900Y508000D02*
X215900Y762000D01*
X482600Y1066800D02*
X609600Y1066800D01*
X609600Y1079500D01*
X266700Y1016000D02*
X241300Y1041400D01*
X266700Y1016000D02*
X266700Y965200D01*
X215900Y990600D02*
X215900Y762000D01*
X215900Y508000D02*
X215900Y254000D01*
X1358900Y800100D02*
X1358900Y1066800D01*
X1003300Y800100D02*
X1003300Y533400D01*
X558800Y254000D02*
X533400Y228600D01*
X558800Y254000D02*
X558800Y476250D01*
X549275Y485775D02*
X539750Y495300D01*
X549275Y485775D02*
X558800Y476250D01*
X539750Y495300D02*
X533400Y495300D01*
X549275Y746125D02*
X533400Y762000D01*
X549275Y625475D02*
X549275Y485775D01*
X549275Y625475D02*
X549275Y746125D01*
X1565275Y530225D02*
X1600200Y495300D01*
X1565275Y530225D02*
X1565275Y549275D01*
X1524000Y590550D01*
X1482725Y590550D01*
X1482725Y660400D01*
X1266825Y473075D02*
X1266825Y250825D01*
X1244600Y228600D01*
X1470025Y577850D02*
X1482725Y590550D01*
X1470025Y577850D02*
X1470025Y323850D01*
X1543050Y250825D01*
X1584325Y250825D01*
X1584325Y244475D01*
X1600200Y228600D01*
X911225Y768350D02*
X911225Y1006475D01*
X889000Y1028700D01*
X1270000Y476250D02*
X1266825Y473075D01*
X1270000Y476250D02*
X1270000Y1003300D01*
X1244600Y1028700D01*
X558800Y787400D02*
X533400Y762000D01*
X558800Y787400D02*
X558800Y1022350D01*
D19*
X549275Y625475D03*
X1482725Y660400D03*
X1266825Y473075D03*
X911225Y768350D03*
X558800Y1022350D03*
D18*
X565150Y415925D02*
X565150Y209550D01*
X533400Y177800D01*
X533400Y977900D02*
X552450Y996950D01*
X552450Y1025525D01*
X555625Y1028700D01*
X565150Y1028700D01*
X565150Y704850D02*
X565150Y415925D01*
X565150Y704850D02*
X565150Y1028700D01*
X1628775Y949325D02*
X1628775Y720725D01*
X1628775Y949325D02*
X1600200Y977900D01*
X1263650Y730250D02*
X1244600Y711200D01*
X1263650Y730250D02*
X1263650Y958850D01*
X1244600Y977900D01*
X1276350Y209550D02*
X1244600Y177800D01*
X1276350Y209550D02*
X1276350Y422275D01*
X1244600Y165100D02*
X1317625Y165100D01*
X1244600Y165100D02*
X1244600Y177800D01*
X1276350Y422275D02*
X1276350Y708025D01*
X1628775Y720725D02*
X1628775Y454025D01*
X904875Y460375D02*
X889000Y444500D01*
X904875Y460375D02*
X904875Y695325D01*
X889000Y711200D01*
X904875Y962025D02*
X889000Y977900D01*
X904875Y962025D02*
X904875Y695325D01*
D19*
X565150Y415925D03*
X1628775Y720725D03*
X1276350Y422275D03*
X1317625Y165100D03*
X1276350Y708025D03*
X1628775Y454025D03*
X565150Y704850D03*
D18*
X1244600Y342900D02*
X1260475Y358775D01*
X1260475Y593725D01*
X1244600Y609600D01*
X1600200Y342900D02*
X1616075Y358775D01*
X1616075Y593725D01*
X1600200Y609600D01*
X1616075Y860425D02*
X1600200Y876300D01*
X1616075Y860425D02*
X1616075Y593725D01*
X1616075Y92075D02*
X1600200Y76200D01*
X1616075Y92075D02*
X1616075Y358775D01*
X549275Y358775D02*
X533400Y342900D01*
X549275Y358775D02*
X549275Y476250D01*
X539750Y485775D01*
X517525Y485775D01*
X517525Y587375D02*
X517525Y593725D01*
X517525Y587375D02*
X517525Y485775D01*
X517525Y593725D02*
X533400Y609600D01*
X533400Y876300D02*
X517525Y876300D01*
X492125Y850900D01*
X409575Y850900D01*
X409575Y600075D01*
X422275Y587375D01*
X517525Y587375D01*
X63500Y698500D02*
X50800Y711200D01*
X63500Y698500D02*
X63500Y581025D01*
X917575Y314325D02*
X927100Y304800D01*
X917575Y314325D02*
X889000Y342900D01*
X927100Y304800D02*
X927100Y114300D01*
X889000Y76200D01*
X917575Y314325D02*
X917575Y358775D01*
X917575Y606425D01*
X917575Y873125D01*
D19*
X63500Y581025D03*
X917575Y606425D03*
X917575Y873125D03*
X917575Y358775D03*
D18*
X1676400Y76200D02*
X1692275Y92075D01*
X1692275Y327025D01*
X1676400Y342900D01*
X1336675Y92075D02*
X1320800Y76200D01*
X1336675Y92075D02*
X1336675Y327025D01*
X1320800Y342900D01*
X625475Y92075D02*
X609600Y76200D01*
X625475Y92075D02*
X625475Y327025D01*
X609600Y342900D01*
X965200Y76200D02*
X981075Y92075D01*
X981075Y327025D01*
X965200Y342900D01*
X63500Y723900D02*
X50800Y736600D01*
X63500Y723900D02*
X114300Y723900D01*
X114300Y619125D01*
X942975Y365125D02*
X965200Y342900D01*
X942975Y365125D02*
X942975Y406400D01*
X933450Y415925D01*
X933450Y660400D01*
X936625Y663575D01*
X949325Y663575D01*
X949325Y625475D01*
X965200Y609600D01*
D19*
X114300Y619125D03*
D18*
X965200Y393700D02*
X987425Y371475D01*
X987425Y161925D01*
X1654175Y669925D02*
X1654175Y917575D01*
X1676400Y127000D02*
X1660525Y111125D01*
X1660525Y69850D01*
X1663700Y66675D01*
X1698625Y66675D01*
X1698625Y371475D01*
X1676400Y393700D01*
X1654175Y403225D02*
X1654175Y669925D01*
X609600Y127000D02*
X593725Y111125D01*
X593725Y69850D01*
X596900Y66675D01*
X631825Y66675D01*
X631825Y371475D01*
X609600Y393700D01*
X577850Y692150D02*
X577850Y908050D01*
X577850Y692150D02*
X609600Y660400D01*
X1298575Y682625D02*
X1298575Y904875D01*
X1298575Y682625D02*
X1320800Y660400D01*
X476250Y790575D02*
X463550Y777875D01*
X476250Y790575D02*
X517525Y790575D01*
X517525Y819150D01*
X539750Y841375D01*
X552450Y841375D01*
X552450Y914400D01*
X631825Y415925D02*
X609600Y393700D01*
X631825Y415925D02*
X631825Y612775D01*
X965200Y393700D02*
X993775Y422275D01*
X993775Y625475D01*
D19*
X987425Y161925D03*
X1654175Y669925D03*
X1654175Y917575D03*
X1654175Y403225D03*
X577850Y908050D03*
X1298575Y904875D03*
X463550Y777875D03*
X552450Y914400D03*
X631825Y612775D03*
X993775Y625475D03*
D18*
X1660525Y727075D02*
X1676400Y711200D01*
X1660525Y727075D02*
X1660525Y962025D01*
X1676400Y977900D01*
X1676400Y711200D02*
X1660525Y695325D01*
X1660525Y460375D01*
X1676400Y444500D01*
X1368425Y200025D02*
X1355725Y187325D01*
X1368425Y200025D02*
X1368425Y396875D01*
X1320800Y444500D01*
X1320800Y993775D02*
X1304925Y993775D01*
X1292225Y993775D01*
X1320800Y993775D02*
X1320800Y977900D01*
X1304925Y727075D02*
X1320800Y711200D01*
X1304925Y727075D02*
X1304925Y993775D01*
X1336675Y460375D02*
X1320800Y444500D01*
X1336675Y460375D02*
X1336675Y695325D01*
X1320800Y711200D01*
X1676400Y177800D02*
X1628775Y130175D01*
X1628775Y57150D01*
X1597025Y25400D01*
X1355725Y25400D01*
X1355725Y187325D01*
X1012825Y225425D02*
X1012825Y415925D01*
X981075Y695325D02*
X965200Y711200D01*
X981075Y695325D02*
X981075Y460375D01*
X965200Y444500D01*
X609600Y177800D02*
X584200Y203200D01*
X584200Y419100D01*
X609600Y444500D01*
X625475Y695325D02*
X609600Y711200D01*
X625475Y695325D02*
X625475Y460375D01*
X609600Y444500D01*
X584200Y952500D02*
X609600Y977900D01*
X584200Y952500D02*
X584200Y736600D01*
X609600Y711200D01*
D19*
X1355725Y187325D03*
X1292225Y993775D03*
X1012825Y225425D03*
X1012825Y415925D03*
D18*
X577850Y171450D02*
X533400Y127000D01*
X577850Y171450D02*
X577850Y403225D01*
X889000Y393700D02*
X911225Y415925D01*
X911225Y657225D01*
X1222375Y660400D02*
X1222375Y882650D01*
X1228725Y889000D01*
X1228725Y911225D01*
X1244600Y927100D01*
X1622425Y904875D02*
X1622425Y669925D01*
X1622425Y904875D02*
X1600200Y927100D01*
X1622425Y669925D02*
X1622425Y409575D01*
X1304925Y66675D02*
X1244600Y127000D01*
X1304925Y66675D02*
X1349375Y66675D01*
X1349375Y403225D01*
X1577975Y638175D02*
X1600200Y660400D01*
X920750Y127000D02*
X889000Y127000D01*
X920750Y127000D02*
X920750Y155575D01*
D19*
X577850Y403225D03*
X911225Y657225D03*
X1222375Y660400D03*
X1622425Y669925D03*
X1622425Y409575D03*
X1349375Y403225D03*
X1577975Y638175D03*
X920750Y155575D03*
D18*
X1343025Y250825D02*
X1343025Y393700D01*
X1327150Y409575D01*
X1304925Y409575D01*
X1304925Y479425D01*
X1320800Y495300D01*
X1320800Y762000D02*
X1336675Y777875D01*
X1336675Y1012825D01*
X1320800Y1028700D01*
X1660525Y244475D02*
X1676400Y228600D01*
X1660525Y244475D02*
X1660525Y425450D01*
X1670050Y434975D01*
X1692275Y434975D01*
X1692275Y479425D01*
X1676400Y495300D01*
X1692275Y746125D02*
X1676400Y762000D01*
X1692275Y746125D02*
X1692275Y479425D01*
X1692275Y1012825D02*
X1676400Y1028700D01*
X1692275Y1012825D02*
X1692275Y746125D01*
X1349375Y1057275D02*
X1320800Y1028700D01*
X1349375Y1057275D02*
X1349375Y1073150D01*
X1365250Y1089025D01*
X1660525Y1089025D01*
X1660525Y1044575D01*
X1676400Y1028700D01*
X1343025Y739775D02*
X1343025Y555625D01*
X1343025Y517525D01*
X1343025Y739775D02*
X1320800Y762000D01*
X571500Y457200D02*
X571500Y288925D01*
X571500Y247650D01*
X571500Y457200D02*
X609600Y495300D01*
X949325Y479425D02*
X965200Y495300D01*
X949325Y479425D02*
X949325Y438150D01*
X952500Y434975D01*
X987425Y434975D01*
X987425Y739775D01*
X981075Y746125D02*
X965200Y762000D01*
X981075Y746125D02*
X987425Y739775D01*
X981075Y1012825D02*
X965200Y1028700D01*
X981075Y1012825D02*
X981075Y746125D01*
X625475Y777875D02*
X609600Y762000D01*
X625475Y892175D02*
X625475Y1012825D01*
X625475Y892175D02*
X625475Y777875D01*
X625475Y1012825D02*
X609600Y1028700D01*
X904875Y1089025D02*
X965200Y1028700D01*
X904875Y1089025D02*
X625475Y1089025D01*
X625475Y1012825D01*
X638175Y733425D02*
X638175Y523875D01*
X638175Y733425D02*
X609600Y762000D01*
D19*
X1343025Y250825D03*
X1343025Y517525D03*
X571500Y247650D03*
X571500Y288925D03*
X625475Y892175D03*
X638175Y523875D03*
X1343025Y555625D03*
D18*
X161925Y473075D02*
X155575Y466725D01*
X155575Y317500D01*
X104775Y266700D01*
X63500Y266700D01*
X63500Y241300D01*
X50800Y228600D01*
X190500Y736600D02*
X206375Y752475D01*
X206375Y819150D01*
X203200Y822325D01*
X161925Y822325D01*
X161925Y473075D01*
D19*
X161925Y473075D03*
D18*
X168275Y466725D02*
X168275Y688975D01*
X168275Y320675D02*
X114300Y266700D01*
X168275Y320675D02*
X168275Y466725D01*
D19*
X168275Y466725D03*
X168275Y688975D03*
X114300Y266700D03*
D18*
X139700Y428625D02*
X142875Y431800D01*
X139700Y428625D02*
X139700Y327025D01*
X104775Y292100D01*
X50800Y292100D01*
X50800Y279400D01*
X155575Y479425D02*
X155575Y682625D01*
D19*
X142875Y431800D03*
X155575Y682625D03*
X155575Y479425D03*
D18*
X133350Y622300D02*
X142875Y631825D01*
X133350Y622300D02*
X133350Y346075D01*
X104775Y317500D01*
X50800Y317500D01*
X50800Y304800D01*
X79375Y1057275D02*
X139700Y1117600D01*
X79375Y1057275D02*
X79375Y1003300D01*
X133350Y949325D01*
X133350Y641350D01*
D19*
X142875Y631825D03*
X133350Y641350D03*
D18*
X266700Y76200D02*
X206375Y15875D01*
X60325Y15875D01*
X60325Y152400D01*
X38100Y174625D01*
X38100Y317500D01*
X50800Y330200D01*
X38100Y349250D02*
X38100Y368300D01*
X50800Y381000D01*
D19*
X38100Y349250D03*
D18*
X231775Y238125D02*
X266700Y203200D01*
X231775Y238125D02*
X231775Y361950D01*
D19*
X231775Y361950D03*
D18*
X139700Y787400D02*
X142875Y790575D01*
X139700Y787400D02*
X139700Y638175D01*
X127000Y625475D01*
X127000Y568325D01*
X104775Y546100D01*
X50800Y546100D01*
X50800Y533400D01*
D19*
X142875Y790575D03*
D18*
X127000Y796925D02*
X120650Y790575D01*
X120650Y587375D01*
X104775Y571500D01*
X50800Y571500D01*
X50800Y558800D01*
D19*
X127000Y796925D03*
D18*
X225425Y847725D02*
X225425Y603250D01*
D19*
X225425Y847725D03*
X225425Y603250D03*
D18*
X104775Y850900D02*
X127000Y873125D01*
X104775Y850900D02*
X38100Y850900D01*
X38100Y622300D01*
X50800Y609600D01*
D19*
X127000Y873125D03*
D18*
X155575Y981075D02*
X215900Y1041400D01*
X155575Y981075D02*
X155575Y771525D01*
D19*
X155575Y771525D03*
D18*
X241300Y1117600D02*
X282575Y1117600D01*
X282575Y946150D01*
X292100Y936625D01*
X292100Y742950D01*
X317500Y717550D01*
X317500Y552450D01*
D19*
X317500Y552450D03*
D18*
X215900Y1117600D02*
X200025Y1133475D01*
X63500Y1133475D01*
X63500Y885825D01*
X73025Y876300D01*
X101600Y876300D01*
X101600Y863600D01*
X425450Y895350D02*
X444500Y876300D01*
X425450Y895350D02*
X425450Y911225D01*
D19*
X425450Y911225D03*
D18*
X444500Y927100D02*
X428625Y942975D01*
X428625Y984250D01*
X434975Y990600D01*
X482600Y990600D01*
X590550Y869950D02*
X609600Y850900D01*
X590550Y869950D02*
X590550Y946150D01*
D19*
X590550Y946150D03*
D18*
X482600Y939800D02*
X466725Y955675D01*
X444500Y977900D01*
X533400Y901700D02*
X504825Y873125D01*
X466725Y873125D01*
X466725Y955675D01*
X498475Y930275D02*
X482600Y914400D01*
X498475Y952500D02*
X498475Y996950D01*
X498475Y952500D02*
X498475Y930275D01*
X498475Y996950D02*
X492125Y1003300D01*
X444500Y1003300D01*
D19*
X498475Y952500D03*
D18*
X517525Y923925D02*
X482600Y889000D01*
X517525Y923925D02*
X517525Y987425D01*
X533400Y1003300D01*
X482600Y863600D02*
X419100Y863600D01*
X419100Y1028700D01*
X444500Y1054100D01*
X466725Y631825D02*
X444500Y609600D01*
X466725Y631825D02*
X466725Y663575D01*
X504825Y663575D02*
X504825Y752475D01*
X482600Y774700D01*
D19*
X466725Y663575D03*
X504825Y663575D03*
D18*
X415925Y644525D02*
X415925Y730250D01*
D19*
X415925Y644525D03*
X415925Y730250D03*
D18*
X428625Y676275D02*
X444500Y660400D01*
X428625Y676275D02*
X428625Y717550D01*
X434975Y723900D01*
X482600Y723900D01*
X577850Y615950D02*
X609600Y584200D01*
X577850Y615950D02*
X577850Y666750D01*
D19*
X577850Y666750D03*
D18*
X482600Y673100D02*
X444500Y711200D01*
X498475Y663575D02*
X482600Y647700D01*
X498475Y688975D02*
X498475Y730250D01*
X498475Y688975D02*
X498475Y663575D01*
X498475Y730250D02*
X492125Y736600D01*
X444500Y736600D01*
D19*
X498475Y688975D03*
D18*
X517525Y657225D02*
X482600Y622300D01*
X517525Y657225D02*
X517525Y720725D01*
X533400Y736600D01*
X482600Y596900D02*
X422275Y596900D01*
X422275Y765175D01*
X444500Y787400D01*
X444500Y342900D02*
X422275Y342900D01*
X422275Y469900D01*
X438150Y485775D01*
X466725Y485775D01*
X466725Y492125D01*
X482600Y508000D01*
X504825Y368300D02*
X444500Y368300D01*
X504825Y368300D02*
X504825Y466725D01*
X488950Y482600D01*
X482600Y482600D01*
X428625Y409575D02*
X444500Y393700D01*
X428625Y409575D02*
X428625Y450850D01*
X434975Y457200D01*
X482600Y457200D01*
X539750Y333375D02*
X552450Y320675D01*
X539750Y333375D02*
X498475Y333375D01*
X498475Y336550D01*
X488950Y346075D01*
X460375Y346075D01*
X460375Y349250D01*
X450850Y358775D01*
X428625Y358775D01*
X428625Y374650D01*
X438150Y384175D01*
X460375Y384175D01*
X460375Y403225D01*
X444500Y419100D01*
D19*
X552450Y320675D03*
D18*
X482600Y406400D02*
X444500Y444500D01*
X498475Y396875D02*
X482600Y381000D01*
X498475Y396875D02*
X498475Y463550D01*
X492125Y469900D01*
X444500Y469900D01*
X482600Y355600D02*
X517525Y355600D01*
X517525Y454025D01*
X533400Y469900D01*
X482600Y330200D02*
X415925Y330200D01*
X415925Y492125D01*
X444500Y520700D01*
X422275Y98425D02*
X444500Y76200D01*
X422275Y98425D02*
X422275Y231775D01*
X590550Y222250D02*
X609600Y203200D01*
X590550Y222250D02*
X590550Y238125D01*
D19*
X422275Y231775D03*
X590550Y238125D03*
D18*
X444500Y101600D02*
X428625Y117475D01*
X428625Y234950D01*
X431800Y238125D01*
X466725Y238125D01*
X466725Y231775D01*
X482600Y215900D01*
X549275Y50800D02*
X609600Y50800D01*
X549275Y50800D02*
X549275Y57150D01*
X539750Y66675D01*
X498475Y66675D01*
X498475Y69850D01*
X488950Y79375D01*
X460375Y79375D01*
X460375Y136525D01*
X444500Y152400D01*
X444500Y177800D02*
X482600Y139700D01*
X473075Y174625D02*
X444500Y203200D01*
X473075Y174625D02*
X498475Y174625D01*
X498475Y130175D01*
X482600Y114300D01*
X482600Y88900D02*
X517525Y123825D01*
X517525Y187325D01*
X530225Y200025D01*
X473075Y200025D02*
X444500Y228600D01*
X473075Y200025D02*
X530225Y200025D01*
X533400Y203200D01*
X482600Y63500D02*
X415925Y63500D01*
X415925Y234950D01*
X434975Y254000D01*
X444500Y254000D01*
X800100Y876300D02*
X828675Y904875D01*
X860425Y904875D01*
X860425Y1019175D01*
X838200Y1041400D01*
X777875Y923925D02*
X800100Y901700D01*
X777875Y923925D02*
X777875Y1003300D01*
X790575Y1016000D01*
X838200Y1016000D01*
X784225Y942975D02*
X800100Y927100D01*
X784225Y942975D02*
X784225Y984250D01*
X790575Y990600D01*
X838200Y990600D01*
X917575Y898525D02*
X965200Y850900D01*
X917575Y898525D02*
X917575Y946150D01*
D19*
X917575Y946150D03*
D18*
X838200Y939800D02*
X800100Y977900D01*
X854075Y930275D02*
X838200Y914400D01*
X854075Y952500D02*
X854075Y996950D01*
X854075Y952500D02*
X854075Y930275D01*
X854075Y996950D02*
X847725Y1003300D01*
X800100Y1003300D01*
D19*
X854075Y952500D03*
D18*
X838200Y889000D02*
X873125Y889000D01*
X873125Y987425D01*
X889000Y1003300D01*
X838200Y863600D02*
X771525Y863600D01*
X771525Y1025525D01*
X800100Y1054100D01*
X828675Y638175D02*
X800100Y609600D01*
X828675Y638175D02*
X863600Y638175D01*
X863600Y749300D01*
X838200Y774700D01*
X777875Y657225D02*
X800100Y635000D01*
X777875Y657225D02*
X777875Y736600D01*
X790575Y749300D01*
X838200Y749300D01*
X784225Y676275D02*
X800100Y660400D01*
X784225Y676275D02*
X784225Y717550D01*
X790575Y723900D01*
X838200Y723900D01*
X939800Y609600D02*
X965200Y584200D01*
X939800Y609600D02*
X939800Y657225D01*
D19*
X939800Y657225D03*
D18*
X838200Y673100D02*
X800100Y711200D01*
X854075Y663575D02*
X838200Y647700D01*
X854075Y685800D02*
X854075Y730250D01*
X854075Y685800D02*
X854075Y663575D01*
X854075Y730250D02*
X847725Y736600D01*
X800100Y736600D01*
X854075Y685800D02*
X857250Y685800D01*
D19*
X857250Y685800D03*
D18*
X873125Y622300D02*
X838200Y622300D01*
X873125Y622300D02*
X873125Y720725D01*
X889000Y736600D01*
X838200Y596900D02*
X771525Y596900D01*
X771525Y758825D01*
X800100Y787400D01*
X771525Y371475D02*
X800100Y342900D01*
X771525Y371475D02*
X771525Y488950D01*
X790575Y508000D01*
X838200Y508000D01*
X777875Y390525D02*
X800100Y368300D01*
X777875Y390525D02*
X777875Y469900D01*
X790575Y482600D01*
X838200Y482600D01*
X939800Y419100D02*
X965200Y419100D01*
X939800Y419100D02*
X939800Y466725D01*
D19*
X939800Y466725D03*
D18*
X800100Y393700D02*
X784225Y409575D01*
X784225Y450850D01*
X790575Y457200D01*
X838200Y457200D01*
X936625Y346075D02*
X965200Y317500D01*
X936625Y346075D02*
X936625Y374650D01*
D19*
X936625Y374650D03*
D18*
X838200Y406400D02*
X822325Y422275D01*
X800100Y444500D01*
X889000Y368300D02*
X860425Y339725D01*
X822325Y339725D01*
X822325Y422275D01*
X854075Y396875D02*
X838200Y381000D01*
X854075Y419100D02*
X854075Y463550D01*
X854075Y419100D02*
X854075Y396875D01*
X854075Y463550D02*
X847725Y469900D01*
X800100Y469900D01*
X854075Y419100D02*
X866775Y419100D01*
D19*
X866775Y419100D03*
D18*
X873125Y390525D02*
X838200Y355600D01*
X873125Y390525D02*
X873125Y454025D01*
X889000Y469900D01*
X873125Y495300D02*
X800100Y495300D01*
X873125Y495300D02*
X873125Y454025D01*
X838200Y330200D02*
X765175Y330200D01*
X765175Y492125D01*
X793750Y520700D01*
X800100Y520700D01*
X771525Y104775D02*
X800100Y76200D01*
X771525Y104775D02*
X771525Y225425D01*
D19*
X771525Y225425D03*
D18*
X777875Y123825D02*
X800100Y101600D01*
X777875Y123825D02*
X777875Y228600D01*
X787400Y238125D01*
X822325Y238125D01*
X822325Y231775D01*
X838200Y215900D01*
X784225Y142875D02*
X800100Y127000D01*
X784225Y142875D02*
X784225Y184150D01*
X790575Y190500D01*
X838200Y190500D01*
X933450Y82550D02*
X965200Y50800D01*
X933450Y82550D02*
X933450Y133350D01*
D19*
X933450Y133350D03*
D18*
X838200Y139700D02*
X822325Y155575D01*
X800100Y177800D01*
X889000Y101600D02*
X860425Y73025D01*
X822325Y73025D01*
X822325Y155575D01*
X815975Y203200D02*
X800100Y203200D01*
X815975Y203200D02*
X819150Y200025D01*
X854075Y200025D01*
X854075Y130175D01*
X838200Y114300D01*
X838200Y88900D02*
X873125Y123825D01*
X873125Y187325D01*
X889000Y203200D01*
X822325Y206375D02*
X800100Y228600D01*
X822325Y206375D02*
X889000Y206375D01*
X889000Y203200D01*
X838200Y63500D02*
X765175Y63500D01*
X765175Y228600D01*
X790575Y254000D01*
X800100Y254000D01*
X1120775Y876300D02*
X1155700Y876300D01*
X1120775Y876300D02*
X1120775Y1025525D01*
X1139825Y1044575D01*
X1193800Y1044575D01*
X1193800Y1041400D01*
X1155700Y901700D02*
X1127125Y901700D01*
X1127125Y1022350D01*
X1143000Y1038225D01*
X1177925Y1038225D01*
X1177925Y1031875D01*
X1193800Y1016000D01*
X1139825Y942975D02*
X1155700Y927100D01*
X1139825Y942975D02*
X1139825Y984250D01*
X1146175Y990600D01*
X1193800Y990600D01*
X1155700Y977900D02*
X1193800Y939800D01*
X1209675Y930275D02*
X1193800Y914400D01*
X1209675Y952500D02*
X1209675Y996950D01*
X1209675Y952500D02*
X1209675Y930275D01*
X1209675Y996950D02*
X1203325Y1003300D01*
X1155700Y1003300D01*
D19*
X1209675Y952500D03*
D18*
X1165225Y917575D02*
X1193800Y889000D01*
X1165225Y917575D02*
X1133475Y917575D01*
X1133475Y1006475D01*
X1155700Y1028700D01*
X1222375Y892175D02*
X1193800Y863600D01*
X1222375Y892175D02*
X1222375Y1031875D01*
X1244600Y1054100D01*
X1133475Y631825D02*
X1155700Y609600D01*
X1133475Y631825D02*
X1133475Y736600D01*
X1149350Y752475D01*
X1177925Y752475D01*
X1177925Y758825D01*
X1193800Y774700D01*
X1139825Y650875D02*
X1155700Y635000D01*
X1139825Y650875D02*
X1139825Y717550D01*
X1149350Y727075D01*
X1177925Y727075D01*
X1177925Y733425D01*
X1193800Y749300D01*
X1282700Y622300D02*
X1320800Y584200D01*
X1282700Y622300D02*
X1282700Y669925D01*
D19*
X1282700Y669925D03*
D18*
X1193800Y673100D02*
X1177925Y688975D01*
X1155700Y711200D01*
X1244600Y635000D02*
X1216025Y606425D01*
X1177925Y606425D01*
X1177925Y688975D01*
X1212850Y666750D02*
X1193800Y647700D01*
D19*
X1212850Y666750D03*
D18*
X1228725Y657225D02*
X1193800Y622300D01*
X1228725Y657225D02*
X1228725Y720725D01*
X1244600Y736600D01*
X1193800Y596900D02*
X1127125Y596900D01*
X1127125Y758825D01*
X1155700Y787400D01*
X1133475Y365125D02*
X1155700Y342900D01*
X1133475Y365125D02*
X1133475Y479425D01*
X1139825Y485775D01*
X1177925Y485775D01*
X1177925Y492125D01*
X1193800Y508000D01*
X1139825Y384175D02*
X1155700Y368300D01*
X1139825Y384175D02*
X1139825Y476250D01*
X1143000Y479425D01*
X1193800Y479425D01*
X1193800Y482600D01*
X1282700Y355600D02*
X1320800Y317500D01*
X1282700Y355600D02*
X1282700Y406400D01*
D19*
X1282700Y406400D03*
D18*
X1193800Y406400D02*
X1177925Y422275D01*
X1155700Y444500D01*
X1244600Y368300D02*
X1216025Y339725D01*
X1177925Y339725D01*
X1177925Y422275D01*
X1209675Y396875D02*
X1193800Y381000D01*
X1209675Y419100D02*
X1209675Y463550D01*
X1209675Y419100D02*
X1209675Y396875D01*
X1209675Y463550D02*
X1200150Y473075D01*
X1155700Y473075D01*
X1155700Y469900D01*
D19*
X1209675Y419100D03*
D18*
X1228725Y390525D02*
X1193800Y355600D01*
X1228725Y390525D02*
X1228725Y454025D01*
X1244600Y469900D01*
X1193800Y330200D02*
X1127125Y330200D01*
X1127125Y492125D01*
X1155700Y520700D01*
X1139825Y92075D02*
X1155700Y76200D01*
X1139825Y92075D02*
X1139825Y234950D01*
X1146175Y241300D01*
X1193800Y241300D01*
X1301750Y120650D02*
X1320800Y101600D01*
X1301750Y120650D02*
X1301750Y142875D01*
D19*
X1301750Y142875D03*
D18*
X1320800Y50800D02*
X1260475Y50800D01*
X1260475Y57150D01*
X1250950Y66675D01*
X1209675Y66675D01*
X1209675Y69850D01*
X1206500Y73025D01*
X1171575Y73025D01*
X1171575Y136525D01*
X1155700Y152400D01*
X1177925Y155575D02*
X1193800Y139700D01*
X1177925Y155575D02*
X1155700Y177800D01*
X1216025Y101600D02*
X1244600Y101600D01*
X1216025Y101600D02*
X1216025Y88900D01*
X1206500Y79375D01*
X1177925Y79375D01*
X1177925Y155575D01*
X1155700Y203200D02*
X1209675Y203200D01*
X1209675Y130175D01*
X1193800Y114300D01*
X1193800Y88900D02*
X1228725Y123825D01*
X1228725Y187325D01*
X1244600Y203200D01*
X1228725Y228600D02*
X1155700Y228600D01*
X1228725Y228600D02*
X1228725Y187325D01*
X1193800Y63500D02*
X1133475Y63500D01*
X1133475Y238125D01*
X1149350Y254000D01*
X1155700Y254000D01*
X1511300Y876300D02*
X1495425Y892175D01*
X1495425Y1009650D01*
X1504950Y1019175D01*
X1533525Y1019175D01*
X1533525Y1025525D01*
X1549400Y1041400D01*
X1533525Y955675D02*
X1549400Y939800D01*
X1533525Y955675D02*
X1511300Y977900D01*
X1600200Y901700D02*
X1571625Y873125D01*
X1533525Y873125D01*
X1533525Y955675D01*
X1565275Y930275D02*
X1549400Y914400D01*
X1565275Y952500D02*
X1565275Y996950D01*
X1565275Y952500D02*
X1565275Y930275D01*
X1565275Y996950D02*
X1555750Y1006475D01*
X1511300Y1006475D01*
X1511300Y1003300D01*
D19*
X1565275Y952500D03*
D18*
X1584325Y923925D02*
X1549400Y889000D01*
X1584325Y923925D02*
X1584325Y987425D01*
X1600200Y1003300D01*
X1549400Y863600D02*
X1489075Y863600D01*
X1489075Y1031875D01*
X1511300Y1054100D01*
X1495425Y625475D02*
X1511300Y609600D01*
X1495425Y625475D02*
X1495425Y742950D01*
X1504950Y752475D01*
X1533525Y752475D01*
X1533525Y758825D01*
X1549400Y774700D01*
X1533525Y688975D02*
X1549400Y673100D01*
X1533525Y688975D02*
X1511300Y711200D01*
X1600200Y635000D02*
X1571625Y606425D01*
X1533525Y606425D01*
X1533525Y688975D01*
X1565275Y663575D02*
X1549400Y647700D01*
X1565275Y663575D02*
X1565275Y730250D01*
X1555750Y739775D01*
X1511300Y739775D01*
X1511300Y736600D01*
X1584325Y657225D02*
X1549400Y622300D01*
X1584325Y657225D02*
X1584325Y720725D01*
X1600200Y736600D01*
X1549400Y596900D02*
X1489075Y596900D01*
X1489075Y765175D01*
X1511300Y787400D01*
X1482725Y371475D02*
X1511300Y342900D01*
X1482725Y371475D02*
X1482725Y473075D01*
X1495425Y485775D01*
X1533525Y485775D01*
X1533525Y492125D01*
X1549400Y508000D01*
X1489075Y390525D02*
X1511300Y368300D01*
X1489075Y390525D02*
X1489075Y469900D01*
X1498600Y479425D01*
X1549400Y479425D01*
X1549400Y482600D01*
X1495425Y409575D02*
X1511300Y393700D01*
X1495425Y409575D02*
X1495425Y450850D01*
X1501775Y457200D01*
X1549400Y457200D01*
X1533525Y422275D02*
X1549400Y406400D01*
X1533525Y422275D02*
X1511300Y444500D01*
X1600200Y368300D02*
X1571625Y339725D01*
X1533525Y339725D01*
X1533525Y422275D01*
X1565275Y396875D02*
X1549400Y381000D01*
X1565275Y419100D02*
X1565275Y463550D01*
X1565275Y419100D02*
X1565275Y396875D01*
X1565275Y463550D02*
X1558925Y469900D01*
X1511300Y469900D01*
D19*
X1565275Y419100D03*
D18*
X1584325Y390525D02*
X1549400Y355600D01*
X1584325Y390525D02*
X1584325Y454025D01*
X1600200Y469900D01*
X1549400Y330200D02*
X1476375Y330200D01*
X1476375Y485775D01*
X1511300Y520700D01*
X1482725Y104775D02*
X1511300Y76200D01*
X1482725Y104775D02*
X1482725Y225425D01*
D19*
X1482725Y225425D03*
D18*
X1489075Y123825D02*
X1511300Y101600D01*
X1489075Y123825D02*
X1489075Y228600D01*
X1498600Y238125D01*
X1533525Y238125D01*
X1533525Y231775D01*
X1549400Y215900D01*
X1495425Y142875D02*
X1511300Y127000D01*
X1495425Y142875D02*
X1495425Y184150D01*
X1501775Y190500D01*
X1549400Y190500D01*
X1533525Y155575D02*
X1549400Y139700D01*
X1533525Y155575D02*
X1511300Y177800D01*
X1600200Y101600D02*
X1571625Y73025D01*
X1533525Y73025D01*
X1533525Y155575D01*
X1527175Y203200D02*
X1511300Y203200D01*
X1527175Y203200D02*
X1530350Y200025D01*
X1565275Y200025D01*
X1565275Y130175D01*
X1549400Y114300D01*
X1549400Y88900D02*
X1584325Y123825D01*
X1584325Y187325D01*
X1600200Y203200D01*
X1533525Y206375D02*
X1511300Y228600D01*
X1533525Y206375D02*
X1600200Y206375D01*
X1600200Y203200D01*
X1549400Y63500D02*
X1476375Y63500D01*
X1476375Y228600D01*
X1501775Y254000D01*
X1511300Y254000D01*
X285750Y730250D02*
X266700Y711200D01*
X285750Y730250D02*
X285750Y933450D01*
X469900Y1079500D02*
X533400Y1079500D01*
X469900Y1079500D02*
X469900Y1098550D01*
X466725Y1101725D01*
X330200Y1101725D01*
X330200Y977900D01*
D19*
X285750Y933450D03*
D18*
X533400Y812800D02*
X552450Y793750D01*
X336550Y809625D02*
X330200Y803275D01*
X330200Y711200D01*
D19*
X552450Y793750D03*
X336550Y809625D03*
D18*
X587375Y542925D02*
X609600Y520700D01*
X298450Y628650D02*
X266700Y660400D01*
X298450Y523875D02*
X298450Y476250D01*
X298450Y523875D02*
X298450Y628650D01*
X298450Y476250D02*
X330200Y444500D01*
X298450Y523875D02*
X327025Y552450D01*
D19*
X587375Y542925D03*
X327025Y552450D03*
D18*
X533400Y279400D02*
X552450Y260350D01*
X292100Y609600D02*
X266700Y635000D01*
X292100Y609600D02*
X292100Y390525D01*
X298450Y384175D01*
X298450Y279400D02*
X298450Y212725D01*
X298450Y279400D02*
X298450Y384175D01*
X298450Y212725D02*
X330200Y180975D01*
X330200Y177800D01*
D19*
X552450Y260350D03*
X298450Y279400D03*
D18*
X266700Y609600D02*
X250825Y625475D01*
X250825Y790575D01*
X673100Y885825D02*
X685800Y898525D01*
X685800Y977900D01*
X685800Y1079500D02*
X889000Y1079500D01*
X685800Y1079500D02*
X685800Y977900D01*
D19*
X250825Y790575D03*
X673100Y885825D03*
D18*
X685800Y631825D02*
X654050Y600075D01*
X685800Y631825D02*
X685800Y711200D01*
D19*
X654050Y600075D03*
D18*
X657225Y565150D02*
X685800Y536575D01*
X685800Y444500D01*
X685800Y536575D02*
X695325Y546100D01*
D19*
X657225Y565150D03*
X695325Y546100D03*
D18*
X225425Y549275D02*
X225425Y323850D01*
X854075Y279400D02*
X889000Y279400D01*
X854075Y279400D02*
X854075Y260350D01*
X850900Y257175D01*
X815975Y257175D01*
X815975Y260350D01*
X812800Y263525D01*
X739775Y263525D01*
X739775Y247650D01*
X730250Y238125D01*
X685800Y238125D01*
X685800Y177800D01*
D19*
X225425Y549275D03*
X225425Y323850D03*
D18*
X266700Y457200D02*
X231775Y492125D01*
X231775Y990600D01*
X225425Y996950D01*
X225425Y1123950D01*
X234950Y1133475D01*
X1041400Y1133475D01*
X1041400Y1079500D02*
X1041400Y977900D01*
X1041400Y1079500D02*
X1041400Y1133475D01*
X1041400Y1079500D02*
X1244600Y1079500D01*
X511175Y558800D02*
X498475Y546100D01*
X1022350Y606425D02*
X1041400Y625475D01*
X1041400Y711200D01*
X1244600Y809625D02*
X1257300Y796925D01*
X1244600Y809625D02*
X1244600Y812800D01*
D19*
X498475Y546100D03*
X511175Y558800D03*
X1022350Y606425D03*
X1257300Y796925D03*
D18*
X1298575Y542925D02*
X1320800Y520700D01*
X1244600Y546100D02*
X1190625Y546100D01*
X1190625Y568325D01*
X1174750Y584200D01*
X1108075Y584200D01*
X1108075Y571500D01*
X1041400Y504825D01*
X1041400Y444500D01*
D19*
X1298575Y542925D03*
D18*
X1301750Y273050D02*
X1320800Y254000D01*
X292100Y381000D02*
X266700Y381000D01*
X292100Y381000D02*
X292100Y209550D01*
X317500Y184150D01*
X317500Y104775D01*
X396875Y25400D01*
X1079500Y25400D01*
X1079500Y53975D01*
X1041400Y92075D01*
X1041400Y177800D01*
X1190625Y279400D02*
X1244600Y279400D01*
X1190625Y279400D02*
X1190625Y301625D01*
X1174750Y317500D01*
X1095375Y317500D01*
X1095375Y196850D01*
X1085850Y187325D01*
X1041400Y187325D01*
X1041400Y177800D01*
D19*
X1301750Y273050D03*
D18*
X400050Y377825D02*
X381000Y358775D01*
X400050Y377825D02*
X400050Y1031875D01*
X463550Y1095375D01*
X1397000Y977900D02*
X1419225Y1000125D01*
X1419225Y1060450D01*
X1438275Y1079500D01*
X1600200Y1079500D01*
D19*
X381000Y358775D03*
X463550Y1095375D03*
D18*
X1028700Y352425D02*
X1047750Y333375D01*
X1028700Y352425D02*
X1028700Y514350D01*
X1120775Y606425D01*
X1120775Y790575D01*
D19*
X1047750Y333375D03*
X1120775Y790575D03*
D18*
X1397000Y314325D02*
X1374775Y292100D01*
X1397000Y314325D02*
X1397000Y444500D01*
D19*
X1374775Y292100D03*
D18*
X1397000Y304800D02*
X1397000Y177800D01*
D19*
X1397000Y304800D03*
D18*
X282575Y168275D02*
X254000Y168275D01*
X282575Y168275D02*
X282575Y374650D01*
X311150Y403225D02*
X342900Y434975D01*
X342900Y841375D01*
X298450Y885825D01*
X298450Y908050D01*
D19*
X254000Y168275D03*
X282575Y374650D03*
X311150Y403225D03*
X298450Y908050D03*
D18*
X206375Y117475D02*
X190500Y101600D01*
X206375Y117475D02*
X206375Y339725D01*
X190500Y355600D01*
X206375Y593725D02*
X190500Y609600D01*
X206375Y593725D02*
X206375Y339725D01*
X384175Y1025525D02*
X431800Y1073150D01*
X384175Y1025525D02*
X384175Y603250D01*
D19*
X431800Y1073150D03*
X384175Y603250D03*
D18*
X168275Y66675D02*
X152400Y50800D01*
X168275Y66675D02*
X168275Y174625D01*
X152400Y190500D01*
X136525Y41275D02*
X152400Y25400D01*
X136525Y41275D02*
X136525Y149225D01*
X152400Y165100D01*
X149225Y425450D02*
X149225Y638175D01*
X149225Y981075D02*
X88900Y1041400D01*
X149225Y981075D02*
X149225Y638175D01*
D19*
X149225Y425450D03*
X149225Y638175D03*
D18*
X355600Y838200D02*
X304800Y889000D01*
X304800Y977900D01*
X304800Y584200D02*
X311150Y577850D01*
X304800Y584200D02*
X304800Y711200D01*
D19*
X311150Y577850D03*
D18*
X304800Y355600D02*
X355600Y304800D01*
X304800Y355600D02*
X304800Y444500D01*
X304800Y88900D02*
X355600Y38100D01*
X304800Y88900D02*
X304800Y177800D01*
X711200Y838200D02*
X660400Y889000D01*
X660400Y977900D01*
X647700Y571500D02*
X711200Y571500D01*
X647700Y571500D02*
X647700Y698500D01*
X660400Y711200D01*
X660400Y355600D02*
X711200Y304800D01*
X660400Y355600D02*
X660400Y444500D01*
X660400Y88900D02*
X711200Y38100D01*
X660400Y88900D02*
X660400Y177800D01*
X1066800Y838200D02*
X1016000Y889000D01*
X1016000Y977900D01*
X1016000Y571500D02*
X1066800Y571500D01*
X1016000Y571500D02*
X1016000Y711200D01*
X1019175Y352425D02*
X1066800Y304800D01*
X1019175Y352425D02*
X1019175Y441325D01*
X1016000Y444500D01*
X1016000Y88900D02*
X1066800Y38100D01*
X1016000Y88900D02*
X1016000Y177800D01*
X1422400Y838200D02*
X1371600Y889000D01*
X1371600Y977900D01*
X1371600Y622300D02*
X1422400Y571500D01*
X1371600Y622300D02*
X1371600Y711200D01*
X1409700Y317500D02*
X1422400Y304800D01*
X1409700Y317500D02*
X1409700Y450850D01*
X1403350Y457200D01*
X1371600Y457200D01*
X1371600Y444500D01*
X1409700Y50800D02*
X1422400Y38100D01*
X1409700Y50800D02*
X1409700Y139700D01*
X1371600Y177800D01*
M02*
