G04 EAGLE Gerber RS-274X export*
G75*
%MOMM*%
%FSLAX34Y34*%
%LPD*%
%INSoldermask Bottom*%
%IPPOS*%
%AMOC8*
5,1,8,0,0,1.08239X$1,22.5*%
G01*
%ADD10P,1.787026X8X202.500000*%
%ADD11C,2.921000*%
%ADD12P,1.457113X8X202.500000*%
%ADD13P,1.457113X8X112.500000*%
%ADD14C,1.346200*%
%ADD15P,1.457113X8X22.500000*%
%ADD16P,1.951982X8X202.500000*%
%ADD17P,1.951982X8X22.500000*%
%ADD18P,1.787026X8X22.500000*%
%ADD19C,0.685800*%


D10*
X50800Y177800D03*
X50800Y203200D03*
X50800Y228600D03*
X50800Y254000D03*
X50800Y279400D03*
X50800Y304800D03*
X50800Y330200D03*
X50800Y355600D03*
X50800Y381000D03*
X50800Y406400D03*
X50800Y431800D03*
X50800Y457200D03*
X50800Y482600D03*
X50800Y508000D03*
X50800Y533400D03*
X50800Y558800D03*
X76200Y177800D03*
X76200Y203200D03*
X76200Y228600D03*
X76200Y254000D03*
X76200Y279400D03*
X76200Y304800D03*
X76200Y330200D03*
X76200Y355600D03*
X76200Y381000D03*
X76200Y406400D03*
X76200Y431800D03*
X76200Y457200D03*
X76200Y482600D03*
X76200Y508000D03*
X76200Y533400D03*
X76200Y558800D03*
X101600Y177800D03*
X101600Y203200D03*
X101600Y228600D03*
X101600Y254000D03*
X101600Y279400D03*
X101600Y304800D03*
X101600Y330200D03*
X101600Y355600D03*
X101600Y381000D03*
X101600Y406400D03*
X101600Y431800D03*
X101600Y457200D03*
X101600Y482600D03*
X101600Y508000D03*
X101600Y533400D03*
X101600Y558800D03*
X50800Y584200D03*
X50800Y609600D03*
X50800Y635000D03*
X50800Y660400D03*
X50800Y685800D03*
X50800Y711200D03*
X50800Y736600D03*
X50800Y762000D03*
X50800Y787400D03*
X50800Y812800D03*
X50800Y838200D03*
X50800Y863600D03*
X50800Y889000D03*
X50800Y914400D03*
X50800Y939800D03*
X50800Y965200D03*
X76200Y584200D03*
X76200Y609600D03*
X76200Y635000D03*
X76200Y660400D03*
X76200Y685800D03*
X76200Y711200D03*
X76200Y736600D03*
X76200Y762000D03*
X76200Y787400D03*
X76200Y812800D03*
X76200Y838200D03*
X76200Y863600D03*
X76200Y889000D03*
X76200Y914400D03*
X76200Y939800D03*
X76200Y965200D03*
X101600Y584200D03*
X101600Y609600D03*
X101600Y635000D03*
X101600Y660400D03*
X101600Y685800D03*
X101600Y711200D03*
X101600Y736600D03*
X101600Y762000D03*
X101600Y787400D03*
X101600Y812800D03*
X101600Y838200D03*
X101600Y863600D03*
X101600Y889000D03*
X101600Y914400D03*
X101600Y939800D03*
X101600Y965200D03*
D11*
X25400Y1016064D03*
X25400Y126936D03*
D12*
X1752600Y38100D03*
X1727200Y38100D03*
D13*
X1752600Y101600D03*
X1752600Y203200D03*
D14*
X539496Y1079500D02*
X527304Y1079500D01*
X527304Y1054100D02*
X539496Y1054100D01*
X539496Y927100D02*
X527304Y927100D01*
X527304Y901700D02*
X539496Y901700D01*
X539496Y1028700D02*
X527304Y1028700D01*
X527304Y1003300D02*
X539496Y1003300D01*
X539496Y952500D02*
X527304Y952500D01*
X527304Y977900D02*
X539496Y977900D01*
X539496Y876300D02*
X527304Y876300D01*
X527304Y850900D02*
X539496Y850900D01*
X603504Y850900D02*
X615696Y850900D01*
X615696Y876300D02*
X603504Y876300D01*
X603504Y901700D02*
X615696Y901700D01*
X615696Y927100D02*
X603504Y927100D01*
X603504Y952500D02*
X615696Y952500D01*
X615696Y977900D02*
X603504Y977900D01*
X603504Y1003300D02*
X615696Y1003300D01*
X615696Y1028700D02*
X603504Y1028700D01*
X603504Y1054100D02*
X615696Y1054100D01*
X615696Y1079500D02*
X603504Y1079500D01*
X488696Y1066800D02*
X476504Y1066800D01*
X476504Y1041400D02*
X488696Y1041400D01*
X488696Y1016000D02*
X476504Y1016000D01*
X476504Y990600D02*
X488696Y990600D01*
X488696Y965200D02*
X476504Y965200D01*
X476504Y939800D02*
X488696Y939800D01*
X488696Y914400D02*
X476504Y914400D01*
X476504Y889000D02*
X488696Y889000D01*
X488696Y863600D02*
X476504Y863600D01*
X527304Y812800D02*
X539496Y812800D01*
X539496Y787400D02*
X527304Y787400D01*
X527304Y660400D02*
X539496Y660400D01*
X539496Y635000D02*
X527304Y635000D01*
X527304Y762000D02*
X539496Y762000D01*
X539496Y736600D02*
X527304Y736600D01*
X527304Y685800D02*
X539496Y685800D01*
X539496Y711200D02*
X527304Y711200D01*
X527304Y609600D02*
X539496Y609600D01*
X539496Y584200D02*
X527304Y584200D01*
X603504Y584200D02*
X615696Y584200D01*
X615696Y609600D02*
X603504Y609600D01*
X603504Y635000D02*
X615696Y635000D01*
X615696Y660400D02*
X603504Y660400D01*
X603504Y685800D02*
X615696Y685800D01*
X615696Y711200D02*
X603504Y711200D01*
X603504Y736600D02*
X615696Y736600D01*
X615696Y762000D02*
X603504Y762000D01*
X603504Y787400D02*
X615696Y787400D01*
X615696Y812800D02*
X603504Y812800D01*
X488696Y800100D02*
X476504Y800100D01*
X476504Y774700D02*
X488696Y774700D01*
X488696Y749300D02*
X476504Y749300D01*
X476504Y723900D02*
X488696Y723900D01*
X488696Y698500D02*
X476504Y698500D01*
X476504Y673100D02*
X488696Y673100D01*
X488696Y647700D02*
X476504Y647700D01*
X476504Y622300D02*
X488696Y622300D01*
X488696Y596900D02*
X476504Y596900D01*
X527304Y546100D02*
X539496Y546100D01*
X539496Y520700D02*
X527304Y520700D01*
X527304Y393700D02*
X539496Y393700D01*
X539496Y368300D02*
X527304Y368300D01*
X527304Y495300D02*
X539496Y495300D01*
X539496Y469900D02*
X527304Y469900D01*
X527304Y419100D02*
X539496Y419100D01*
X539496Y444500D02*
X527304Y444500D01*
X527304Y342900D02*
X539496Y342900D01*
X539496Y317500D02*
X527304Y317500D01*
X603504Y317500D02*
X615696Y317500D01*
X615696Y342900D02*
X603504Y342900D01*
X603504Y368300D02*
X615696Y368300D01*
X615696Y393700D02*
X603504Y393700D01*
X603504Y419100D02*
X615696Y419100D01*
X615696Y444500D02*
X603504Y444500D01*
X603504Y469900D02*
X615696Y469900D01*
X615696Y495300D02*
X603504Y495300D01*
X603504Y520700D02*
X615696Y520700D01*
X615696Y546100D02*
X603504Y546100D01*
X488696Y533400D02*
X476504Y533400D01*
X476504Y508000D02*
X488696Y508000D01*
X488696Y482600D02*
X476504Y482600D01*
X476504Y457200D02*
X488696Y457200D01*
X488696Y431800D02*
X476504Y431800D01*
X476504Y406400D02*
X488696Y406400D01*
X488696Y381000D02*
X476504Y381000D01*
X476504Y355600D02*
X488696Y355600D01*
X488696Y330200D02*
X476504Y330200D01*
X527304Y279400D02*
X539496Y279400D01*
X539496Y254000D02*
X527304Y254000D01*
X527304Y127000D02*
X539496Y127000D01*
X539496Y101600D02*
X527304Y101600D01*
X527304Y228600D02*
X539496Y228600D01*
X539496Y203200D02*
X527304Y203200D01*
X527304Y152400D02*
X539496Y152400D01*
X539496Y177800D02*
X527304Y177800D01*
X527304Y76200D02*
X539496Y76200D01*
X539496Y50800D02*
X527304Y50800D01*
X603504Y50800D02*
X615696Y50800D01*
X615696Y76200D02*
X603504Y76200D01*
X603504Y101600D02*
X615696Y101600D01*
X615696Y127000D02*
X603504Y127000D01*
X603504Y152400D02*
X615696Y152400D01*
X615696Y177800D02*
X603504Y177800D01*
X603504Y203200D02*
X615696Y203200D01*
X615696Y228600D02*
X603504Y228600D01*
X603504Y254000D02*
X615696Y254000D01*
X615696Y279400D02*
X603504Y279400D01*
X488696Y266700D02*
X476504Y266700D01*
X476504Y241300D02*
X488696Y241300D01*
X488696Y215900D02*
X476504Y215900D01*
X476504Y190500D02*
X488696Y190500D01*
X488696Y165100D02*
X476504Y165100D01*
X476504Y139700D02*
X488696Y139700D01*
X488696Y114300D02*
X476504Y114300D01*
X476504Y88900D02*
X488696Y88900D01*
X488696Y63500D02*
X476504Y63500D01*
X882904Y1079500D02*
X895096Y1079500D01*
X895096Y1054100D02*
X882904Y1054100D01*
X882904Y927100D02*
X895096Y927100D01*
X895096Y901700D02*
X882904Y901700D01*
X882904Y1028700D02*
X895096Y1028700D01*
X895096Y1003300D02*
X882904Y1003300D01*
X882904Y952500D02*
X895096Y952500D01*
X895096Y977900D02*
X882904Y977900D01*
X882904Y876300D02*
X895096Y876300D01*
X895096Y850900D02*
X882904Y850900D01*
X959104Y850900D02*
X971296Y850900D01*
X971296Y876300D02*
X959104Y876300D01*
X959104Y901700D02*
X971296Y901700D01*
X971296Y927100D02*
X959104Y927100D01*
X959104Y952500D02*
X971296Y952500D01*
X971296Y977900D02*
X959104Y977900D01*
X959104Y1003300D02*
X971296Y1003300D01*
X971296Y1028700D02*
X959104Y1028700D01*
X959104Y1054100D02*
X971296Y1054100D01*
X971296Y1079500D02*
X959104Y1079500D01*
X844296Y1066800D02*
X832104Y1066800D01*
X832104Y1041400D02*
X844296Y1041400D01*
X844296Y1016000D02*
X832104Y1016000D01*
X832104Y990600D02*
X844296Y990600D01*
X844296Y965200D02*
X832104Y965200D01*
X832104Y939800D02*
X844296Y939800D01*
X844296Y914400D02*
X832104Y914400D01*
X832104Y889000D02*
X844296Y889000D01*
X844296Y863600D02*
X832104Y863600D01*
X882904Y812800D02*
X895096Y812800D01*
X895096Y787400D02*
X882904Y787400D01*
X882904Y660400D02*
X895096Y660400D01*
X895096Y635000D02*
X882904Y635000D01*
X882904Y762000D02*
X895096Y762000D01*
X895096Y736600D02*
X882904Y736600D01*
X882904Y685800D02*
X895096Y685800D01*
X895096Y711200D02*
X882904Y711200D01*
X882904Y609600D02*
X895096Y609600D01*
X895096Y584200D02*
X882904Y584200D01*
X959104Y584200D02*
X971296Y584200D01*
X971296Y609600D02*
X959104Y609600D01*
X959104Y635000D02*
X971296Y635000D01*
X971296Y660400D02*
X959104Y660400D01*
X959104Y685800D02*
X971296Y685800D01*
X971296Y711200D02*
X959104Y711200D01*
X959104Y736600D02*
X971296Y736600D01*
X971296Y762000D02*
X959104Y762000D01*
X959104Y787400D02*
X971296Y787400D01*
X971296Y812800D02*
X959104Y812800D01*
X844296Y800100D02*
X832104Y800100D01*
X832104Y774700D02*
X844296Y774700D01*
X844296Y749300D02*
X832104Y749300D01*
X832104Y723900D02*
X844296Y723900D01*
X844296Y698500D02*
X832104Y698500D01*
X832104Y673100D02*
X844296Y673100D01*
X844296Y647700D02*
X832104Y647700D01*
X832104Y622300D02*
X844296Y622300D01*
X844296Y596900D02*
X832104Y596900D01*
X882904Y546100D02*
X895096Y546100D01*
X895096Y520700D02*
X882904Y520700D01*
X882904Y393700D02*
X895096Y393700D01*
X895096Y368300D02*
X882904Y368300D01*
X882904Y495300D02*
X895096Y495300D01*
X895096Y469900D02*
X882904Y469900D01*
X882904Y419100D02*
X895096Y419100D01*
X895096Y444500D02*
X882904Y444500D01*
X882904Y342900D02*
X895096Y342900D01*
X895096Y317500D02*
X882904Y317500D01*
X959104Y317500D02*
X971296Y317500D01*
X971296Y342900D02*
X959104Y342900D01*
X959104Y368300D02*
X971296Y368300D01*
X971296Y393700D02*
X959104Y393700D01*
X959104Y419100D02*
X971296Y419100D01*
X971296Y444500D02*
X959104Y444500D01*
X959104Y469900D02*
X971296Y469900D01*
X971296Y495300D02*
X959104Y495300D01*
X959104Y520700D02*
X971296Y520700D01*
X971296Y546100D02*
X959104Y546100D01*
X844296Y533400D02*
X832104Y533400D01*
X832104Y508000D02*
X844296Y508000D01*
X844296Y482600D02*
X832104Y482600D01*
X832104Y457200D02*
X844296Y457200D01*
X844296Y431800D02*
X832104Y431800D01*
X832104Y406400D02*
X844296Y406400D01*
X844296Y381000D02*
X832104Y381000D01*
X832104Y355600D02*
X844296Y355600D01*
X844296Y330200D02*
X832104Y330200D01*
X882904Y279400D02*
X895096Y279400D01*
X895096Y254000D02*
X882904Y254000D01*
X882904Y127000D02*
X895096Y127000D01*
X895096Y101600D02*
X882904Y101600D01*
X882904Y228600D02*
X895096Y228600D01*
X895096Y203200D02*
X882904Y203200D01*
X882904Y152400D02*
X895096Y152400D01*
X895096Y177800D02*
X882904Y177800D01*
X882904Y76200D02*
X895096Y76200D01*
X895096Y50800D02*
X882904Y50800D01*
X959104Y50800D02*
X971296Y50800D01*
X971296Y76200D02*
X959104Y76200D01*
X959104Y101600D02*
X971296Y101600D01*
X971296Y127000D02*
X959104Y127000D01*
X959104Y152400D02*
X971296Y152400D01*
X971296Y177800D02*
X959104Y177800D01*
X959104Y203200D02*
X971296Y203200D01*
X971296Y228600D02*
X959104Y228600D01*
X959104Y254000D02*
X971296Y254000D01*
X971296Y279400D02*
X959104Y279400D01*
X844296Y266700D02*
X832104Y266700D01*
X832104Y241300D02*
X844296Y241300D01*
X844296Y215900D02*
X832104Y215900D01*
X832104Y190500D02*
X844296Y190500D01*
X844296Y165100D02*
X832104Y165100D01*
X832104Y139700D02*
X844296Y139700D01*
X844296Y114300D02*
X832104Y114300D01*
X832104Y88900D02*
X844296Y88900D01*
X844296Y63500D02*
X832104Y63500D01*
X1238504Y1079500D02*
X1250696Y1079500D01*
X1250696Y1054100D02*
X1238504Y1054100D01*
X1238504Y927100D02*
X1250696Y927100D01*
X1250696Y901700D02*
X1238504Y901700D01*
X1238504Y1028700D02*
X1250696Y1028700D01*
X1250696Y1003300D02*
X1238504Y1003300D01*
X1238504Y952500D02*
X1250696Y952500D01*
X1250696Y977900D02*
X1238504Y977900D01*
X1238504Y876300D02*
X1250696Y876300D01*
X1250696Y850900D02*
X1238504Y850900D01*
X1314704Y850900D02*
X1326896Y850900D01*
X1326896Y876300D02*
X1314704Y876300D01*
X1314704Y901700D02*
X1326896Y901700D01*
X1326896Y927100D02*
X1314704Y927100D01*
X1314704Y952500D02*
X1326896Y952500D01*
X1326896Y977900D02*
X1314704Y977900D01*
X1314704Y1003300D02*
X1326896Y1003300D01*
X1326896Y1028700D02*
X1314704Y1028700D01*
X1314704Y1054100D02*
X1326896Y1054100D01*
X1326896Y1079500D02*
X1314704Y1079500D01*
X1199896Y1066800D02*
X1187704Y1066800D01*
X1187704Y1041400D02*
X1199896Y1041400D01*
X1199896Y1016000D02*
X1187704Y1016000D01*
X1187704Y990600D02*
X1199896Y990600D01*
X1199896Y965200D02*
X1187704Y965200D01*
X1187704Y939800D02*
X1199896Y939800D01*
X1199896Y914400D02*
X1187704Y914400D01*
X1187704Y889000D02*
X1199896Y889000D01*
X1199896Y863600D02*
X1187704Y863600D01*
X1238504Y812800D02*
X1250696Y812800D01*
X1250696Y787400D02*
X1238504Y787400D01*
X1238504Y660400D02*
X1250696Y660400D01*
X1250696Y635000D02*
X1238504Y635000D01*
X1238504Y762000D02*
X1250696Y762000D01*
X1250696Y736600D02*
X1238504Y736600D01*
X1238504Y685800D02*
X1250696Y685800D01*
X1250696Y711200D02*
X1238504Y711200D01*
X1238504Y609600D02*
X1250696Y609600D01*
X1250696Y584200D02*
X1238504Y584200D01*
X1314704Y584200D02*
X1326896Y584200D01*
X1326896Y609600D02*
X1314704Y609600D01*
X1314704Y635000D02*
X1326896Y635000D01*
X1326896Y660400D02*
X1314704Y660400D01*
X1314704Y685800D02*
X1326896Y685800D01*
X1326896Y711200D02*
X1314704Y711200D01*
X1314704Y736600D02*
X1326896Y736600D01*
X1326896Y762000D02*
X1314704Y762000D01*
X1314704Y787400D02*
X1326896Y787400D01*
X1326896Y812800D02*
X1314704Y812800D01*
X1199896Y800100D02*
X1187704Y800100D01*
X1187704Y774700D02*
X1199896Y774700D01*
X1199896Y749300D02*
X1187704Y749300D01*
X1187704Y723900D02*
X1199896Y723900D01*
X1199896Y698500D02*
X1187704Y698500D01*
X1187704Y673100D02*
X1199896Y673100D01*
X1199896Y647700D02*
X1187704Y647700D01*
X1187704Y622300D02*
X1199896Y622300D01*
X1199896Y596900D02*
X1187704Y596900D01*
X1238504Y546100D02*
X1250696Y546100D01*
X1250696Y520700D02*
X1238504Y520700D01*
X1238504Y393700D02*
X1250696Y393700D01*
X1250696Y368300D02*
X1238504Y368300D01*
X1238504Y495300D02*
X1250696Y495300D01*
X1250696Y469900D02*
X1238504Y469900D01*
X1238504Y419100D02*
X1250696Y419100D01*
X1250696Y444500D02*
X1238504Y444500D01*
X1238504Y342900D02*
X1250696Y342900D01*
X1250696Y317500D02*
X1238504Y317500D01*
X1314704Y317500D02*
X1326896Y317500D01*
X1326896Y342900D02*
X1314704Y342900D01*
X1314704Y368300D02*
X1326896Y368300D01*
X1326896Y393700D02*
X1314704Y393700D01*
X1314704Y419100D02*
X1326896Y419100D01*
X1326896Y444500D02*
X1314704Y444500D01*
X1314704Y469900D02*
X1326896Y469900D01*
X1326896Y495300D02*
X1314704Y495300D01*
X1314704Y520700D02*
X1326896Y520700D01*
X1326896Y546100D02*
X1314704Y546100D01*
X1199896Y533400D02*
X1187704Y533400D01*
X1187704Y508000D02*
X1199896Y508000D01*
X1199896Y482600D02*
X1187704Y482600D01*
X1187704Y457200D02*
X1199896Y457200D01*
X1199896Y431800D02*
X1187704Y431800D01*
X1187704Y406400D02*
X1199896Y406400D01*
X1199896Y381000D02*
X1187704Y381000D01*
X1187704Y355600D02*
X1199896Y355600D01*
X1199896Y330200D02*
X1187704Y330200D01*
X1238504Y279400D02*
X1250696Y279400D01*
X1250696Y254000D02*
X1238504Y254000D01*
X1238504Y127000D02*
X1250696Y127000D01*
X1250696Y101600D02*
X1238504Y101600D01*
X1238504Y228600D02*
X1250696Y228600D01*
X1250696Y203200D02*
X1238504Y203200D01*
X1238504Y152400D02*
X1250696Y152400D01*
X1250696Y177800D02*
X1238504Y177800D01*
X1238504Y76200D02*
X1250696Y76200D01*
X1250696Y50800D02*
X1238504Y50800D01*
X1314704Y50800D02*
X1326896Y50800D01*
X1326896Y76200D02*
X1314704Y76200D01*
X1314704Y101600D02*
X1326896Y101600D01*
X1326896Y127000D02*
X1314704Y127000D01*
X1314704Y152400D02*
X1326896Y152400D01*
X1326896Y177800D02*
X1314704Y177800D01*
X1314704Y203200D02*
X1326896Y203200D01*
X1326896Y228600D02*
X1314704Y228600D01*
X1314704Y254000D02*
X1326896Y254000D01*
X1326896Y279400D02*
X1314704Y279400D01*
X1199896Y266700D02*
X1187704Y266700D01*
X1187704Y241300D02*
X1199896Y241300D01*
X1199896Y215900D02*
X1187704Y215900D01*
X1187704Y190500D02*
X1199896Y190500D01*
X1199896Y165100D02*
X1187704Y165100D01*
X1187704Y139700D02*
X1199896Y139700D01*
X1199896Y114300D02*
X1187704Y114300D01*
X1187704Y88900D02*
X1199896Y88900D01*
X1199896Y63500D02*
X1187704Y63500D01*
X1594104Y1079500D02*
X1606296Y1079500D01*
X1606296Y1054100D02*
X1594104Y1054100D01*
X1594104Y927100D02*
X1606296Y927100D01*
X1606296Y901700D02*
X1594104Y901700D01*
X1594104Y1028700D02*
X1606296Y1028700D01*
X1606296Y1003300D02*
X1594104Y1003300D01*
X1594104Y952500D02*
X1606296Y952500D01*
X1606296Y977900D02*
X1594104Y977900D01*
X1594104Y876300D02*
X1606296Y876300D01*
X1606296Y850900D02*
X1594104Y850900D01*
X1670304Y850900D02*
X1682496Y850900D01*
X1682496Y876300D02*
X1670304Y876300D01*
X1670304Y901700D02*
X1682496Y901700D01*
X1682496Y927100D02*
X1670304Y927100D01*
X1670304Y952500D02*
X1682496Y952500D01*
X1682496Y977900D02*
X1670304Y977900D01*
X1670304Y1003300D02*
X1682496Y1003300D01*
X1682496Y1028700D02*
X1670304Y1028700D01*
X1670304Y1054100D02*
X1682496Y1054100D01*
X1682496Y1079500D02*
X1670304Y1079500D01*
X1555496Y1066800D02*
X1543304Y1066800D01*
X1543304Y1041400D02*
X1555496Y1041400D01*
X1555496Y1016000D02*
X1543304Y1016000D01*
X1543304Y990600D02*
X1555496Y990600D01*
X1555496Y965200D02*
X1543304Y965200D01*
X1543304Y939800D02*
X1555496Y939800D01*
X1555496Y914400D02*
X1543304Y914400D01*
X1543304Y889000D02*
X1555496Y889000D01*
X1555496Y863600D02*
X1543304Y863600D01*
X1594104Y812800D02*
X1606296Y812800D01*
X1606296Y787400D02*
X1594104Y787400D01*
X1594104Y660400D02*
X1606296Y660400D01*
X1606296Y635000D02*
X1594104Y635000D01*
X1594104Y762000D02*
X1606296Y762000D01*
X1606296Y736600D02*
X1594104Y736600D01*
X1594104Y685800D02*
X1606296Y685800D01*
X1606296Y711200D02*
X1594104Y711200D01*
X1594104Y609600D02*
X1606296Y609600D01*
X1606296Y584200D02*
X1594104Y584200D01*
X1670304Y584200D02*
X1682496Y584200D01*
X1682496Y609600D02*
X1670304Y609600D01*
X1670304Y635000D02*
X1682496Y635000D01*
X1682496Y660400D02*
X1670304Y660400D01*
X1670304Y685800D02*
X1682496Y685800D01*
X1682496Y711200D02*
X1670304Y711200D01*
X1670304Y736600D02*
X1682496Y736600D01*
X1682496Y762000D02*
X1670304Y762000D01*
X1670304Y787400D02*
X1682496Y787400D01*
X1682496Y812800D02*
X1670304Y812800D01*
X1555496Y800100D02*
X1543304Y800100D01*
X1543304Y774700D02*
X1555496Y774700D01*
X1555496Y749300D02*
X1543304Y749300D01*
X1543304Y723900D02*
X1555496Y723900D01*
X1555496Y698500D02*
X1543304Y698500D01*
X1543304Y673100D02*
X1555496Y673100D01*
X1555496Y647700D02*
X1543304Y647700D01*
X1543304Y622300D02*
X1555496Y622300D01*
X1555496Y596900D02*
X1543304Y596900D01*
X1594104Y546100D02*
X1606296Y546100D01*
X1606296Y520700D02*
X1594104Y520700D01*
X1594104Y393700D02*
X1606296Y393700D01*
X1606296Y368300D02*
X1594104Y368300D01*
X1594104Y495300D02*
X1606296Y495300D01*
X1606296Y469900D02*
X1594104Y469900D01*
X1594104Y419100D02*
X1606296Y419100D01*
X1606296Y444500D02*
X1594104Y444500D01*
X1594104Y342900D02*
X1606296Y342900D01*
X1606296Y317500D02*
X1594104Y317500D01*
X1670304Y317500D02*
X1682496Y317500D01*
X1682496Y342900D02*
X1670304Y342900D01*
X1670304Y368300D02*
X1682496Y368300D01*
X1682496Y393700D02*
X1670304Y393700D01*
X1670304Y419100D02*
X1682496Y419100D01*
X1682496Y444500D02*
X1670304Y444500D01*
X1670304Y469900D02*
X1682496Y469900D01*
X1682496Y495300D02*
X1670304Y495300D01*
X1670304Y520700D02*
X1682496Y520700D01*
X1682496Y546100D02*
X1670304Y546100D01*
X1555496Y533400D02*
X1543304Y533400D01*
X1543304Y508000D02*
X1555496Y508000D01*
X1555496Y482600D02*
X1543304Y482600D01*
X1543304Y457200D02*
X1555496Y457200D01*
X1555496Y431800D02*
X1543304Y431800D01*
X1543304Y406400D02*
X1555496Y406400D01*
X1555496Y381000D02*
X1543304Y381000D01*
X1543304Y355600D02*
X1555496Y355600D01*
X1555496Y330200D02*
X1543304Y330200D01*
X1594104Y279400D02*
X1606296Y279400D01*
X1606296Y254000D02*
X1594104Y254000D01*
X1594104Y127000D02*
X1606296Y127000D01*
X1606296Y101600D02*
X1594104Y101600D01*
X1594104Y228600D02*
X1606296Y228600D01*
X1606296Y203200D02*
X1594104Y203200D01*
X1594104Y152400D02*
X1606296Y152400D01*
X1606296Y177800D02*
X1594104Y177800D01*
X1594104Y76200D02*
X1606296Y76200D01*
X1606296Y50800D02*
X1594104Y50800D01*
X1670304Y50800D02*
X1682496Y50800D01*
X1682496Y76200D02*
X1670304Y76200D01*
X1670304Y101600D02*
X1682496Y101600D01*
X1682496Y127000D02*
X1670304Y127000D01*
X1670304Y152400D02*
X1682496Y152400D01*
X1682496Y177800D02*
X1670304Y177800D01*
X1670304Y203200D02*
X1682496Y203200D01*
X1682496Y228600D02*
X1670304Y228600D01*
X1670304Y254000D02*
X1682496Y254000D01*
X1682496Y279400D02*
X1670304Y279400D01*
X1555496Y266700D02*
X1543304Y266700D01*
X1543304Y241300D02*
X1555496Y241300D01*
X1555496Y215900D02*
X1543304Y215900D01*
X1543304Y190500D02*
X1555496Y190500D01*
X1555496Y165100D02*
X1543304Y165100D01*
X1543304Y139700D02*
X1555496Y139700D01*
X1555496Y114300D02*
X1543304Y114300D01*
X1543304Y88900D02*
X1555496Y88900D01*
X1555496Y63500D02*
X1543304Y63500D01*
X196596Y965200D02*
X184404Y965200D01*
X184404Y939800D02*
X196596Y939800D01*
X196596Y812800D02*
X184404Y812800D01*
X260604Y812800D02*
X272796Y812800D01*
X196596Y914400D02*
X184404Y914400D01*
X184404Y889000D02*
X196596Y889000D01*
X196596Y838200D02*
X184404Y838200D01*
X184404Y863600D02*
X196596Y863600D01*
X260604Y838200D02*
X272796Y838200D01*
X272796Y863600D02*
X260604Y863600D01*
X260604Y889000D02*
X272796Y889000D01*
X272796Y914400D02*
X260604Y914400D01*
X260604Y939800D02*
X272796Y939800D01*
X272796Y965200D02*
X260604Y965200D01*
X196596Y736600D02*
X184404Y736600D01*
X184404Y711200D02*
X196596Y711200D01*
X196596Y584200D02*
X184404Y584200D01*
X184404Y558800D02*
X196596Y558800D01*
X196596Y685800D02*
X184404Y685800D01*
X184404Y660400D02*
X196596Y660400D01*
X196596Y609600D02*
X184404Y609600D01*
X184404Y635000D02*
X196596Y635000D01*
X260604Y558800D02*
X272796Y558800D01*
X272796Y584200D02*
X260604Y584200D01*
X260604Y609600D02*
X272796Y609600D01*
X272796Y635000D02*
X260604Y635000D01*
X260604Y660400D02*
X272796Y660400D01*
X272796Y685800D02*
X260604Y685800D01*
X260604Y711200D02*
X272796Y711200D01*
X272796Y736600D02*
X260604Y736600D01*
X196596Y482600D02*
X184404Y482600D01*
X184404Y457200D02*
X196596Y457200D01*
X196596Y330200D02*
X184404Y330200D01*
X184404Y304800D02*
X196596Y304800D01*
X196596Y431800D02*
X184404Y431800D01*
X184404Y406400D02*
X196596Y406400D01*
X196596Y355600D02*
X184404Y355600D01*
X184404Y381000D02*
X196596Y381000D01*
X260604Y304800D02*
X272796Y304800D01*
X272796Y330200D02*
X260604Y330200D01*
X260604Y355600D02*
X272796Y355600D01*
X272796Y381000D02*
X260604Y381000D01*
X260604Y406400D02*
X272796Y406400D01*
X272796Y431800D02*
X260604Y431800D01*
X260604Y457200D02*
X272796Y457200D01*
X272796Y482600D02*
X260604Y482600D01*
X438404Y876300D02*
X450596Y876300D01*
X450596Y901700D02*
X438404Y901700D01*
X438404Y1028700D02*
X450596Y1028700D01*
X450596Y1054100D02*
X438404Y1054100D01*
X438404Y927100D02*
X450596Y927100D01*
X450596Y952500D02*
X438404Y952500D01*
X438404Y1003300D02*
X450596Y1003300D01*
X450596Y977900D02*
X438404Y977900D01*
X374396Y1054100D02*
X362204Y1054100D01*
X362204Y1028700D02*
X374396Y1028700D01*
X374396Y1003300D02*
X362204Y1003300D01*
X362204Y977900D02*
X374396Y977900D01*
X374396Y952500D02*
X362204Y952500D01*
X362204Y927100D02*
X374396Y927100D01*
X374396Y901700D02*
X362204Y901700D01*
X362204Y876300D02*
X374396Y876300D01*
X438404Y609600D02*
X450596Y609600D01*
X450596Y635000D02*
X438404Y635000D01*
X438404Y762000D02*
X450596Y762000D01*
X450596Y787400D02*
X438404Y787400D01*
X438404Y660400D02*
X450596Y660400D01*
X450596Y685800D02*
X438404Y685800D01*
X438404Y736600D02*
X450596Y736600D01*
X450596Y711200D02*
X438404Y711200D01*
X374396Y787400D02*
X362204Y787400D01*
X362204Y762000D02*
X374396Y762000D01*
X374396Y736600D02*
X362204Y736600D01*
X362204Y711200D02*
X374396Y711200D01*
X374396Y685800D02*
X362204Y685800D01*
X362204Y660400D02*
X374396Y660400D01*
X374396Y635000D02*
X362204Y635000D01*
X362204Y609600D02*
X374396Y609600D01*
X438404Y342900D02*
X450596Y342900D01*
X450596Y368300D02*
X438404Y368300D01*
X438404Y495300D02*
X450596Y495300D01*
X450596Y520700D02*
X438404Y520700D01*
X438404Y393700D02*
X450596Y393700D01*
X450596Y419100D02*
X438404Y419100D01*
X438404Y469900D02*
X450596Y469900D01*
X450596Y444500D02*
X438404Y444500D01*
X374396Y520700D02*
X362204Y520700D01*
X362204Y495300D02*
X374396Y495300D01*
X374396Y469900D02*
X362204Y469900D01*
X362204Y444500D02*
X374396Y444500D01*
X374396Y419100D02*
X362204Y419100D01*
X362204Y393700D02*
X374396Y393700D01*
X374396Y368300D02*
X362204Y368300D01*
X362204Y342900D02*
X374396Y342900D01*
X438404Y76200D02*
X450596Y76200D01*
X450596Y101600D02*
X438404Y101600D01*
X438404Y228600D02*
X450596Y228600D01*
X450596Y254000D02*
X438404Y254000D01*
X438404Y127000D02*
X450596Y127000D01*
X450596Y152400D02*
X438404Y152400D01*
X438404Y203200D02*
X450596Y203200D01*
X450596Y177800D02*
X438404Y177800D01*
X374396Y254000D02*
X362204Y254000D01*
X362204Y228600D02*
X374396Y228600D01*
X374396Y203200D02*
X362204Y203200D01*
X362204Y177800D02*
X374396Y177800D01*
X374396Y152400D02*
X362204Y152400D01*
X362204Y127000D02*
X374396Y127000D01*
X374396Y101600D02*
X362204Y101600D01*
X362204Y76200D02*
X374396Y76200D01*
X794004Y876300D02*
X806196Y876300D01*
X806196Y901700D02*
X794004Y901700D01*
X794004Y1028700D02*
X806196Y1028700D01*
X806196Y1054100D02*
X794004Y1054100D01*
X794004Y927100D02*
X806196Y927100D01*
X806196Y952500D02*
X794004Y952500D01*
X794004Y1003300D02*
X806196Y1003300D01*
X806196Y977900D02*
X794004Y977900D01*
X729996Y1054100D02*
X717804Y1054100D01*
X717804Y1028700D02*
X729996Y1028700D01*
X729996Y1003300D02*
X717804Y1003300D01*
X717804Y977900D02*
X729996Y977900D01*
X729996Y952500D02*
X717804Y952500D01*
X717804Y927100D02*
X729996Y927100D01*
X729996Y901700D02*
X717804Y901700D01*
X717804Y876300D02*
X729996Y876300D01*
X794004Y609600D02*
X806196Y609600D01*
X806196Y635000D02*
X794004Y635000D01*
X794004Y762000D02*
X806196Y762000D01*
X806196Y787400D02*
X794004Y787400D01*
X794004Y660400D02*
X806196Y660400D01*
X806196Y685800D02*
X794004Y685800D01*
X794004Y736600D02*
X806196Y736600D01*
X806196Y711200D02*
X794004Y711200D01*
X729996Y787400D02*
X717804Y787400D01*
X717804Y762000D02*
X729996Y762000D01*
X729996Y736600D02*
X717804Y736600D01*
X717804Y711200D02*
X729996Y711200D01*
X729996Y685800D02*
X717804Y685800D01*
X717804Y660400D02*
X729996Y660400D01*
X729996Y635000D02*
X717804Y635000D01*
X717804Y609600D02*
X729996Y609600D01*
X794004Y342900D02*
X806196Y342900D01*
X806196Y368300D02*
X794004Y368300D01*
X794004Y495300D02*
X806196Y495300D01*
X806196Y520700D02*
X794004Y520700D01*
X794004Y393700D02*
X806196Y393700D01*
X806196Y419100D02*
X794004Y419100D01*
X794004Y469900D02*
X806196Y469900D01*
X806196Y444500D02*
X794004Y444500D01*
X729996Y520700D02*
X717804Y520700D01*
X717804Y495300D02*
X729996Y495300D01*
X729996Y469900D02*
X717804Y469900D01*
X717804Y444500D02*
X729996Y444500D01*
X729996Y419100D02*
X717804Y419100D01*
X717804Y393700D02*
X729996Y393700D01*
X729996Y368300D02*
X717804Y368300D01*
X717804Y342900D02*
X729996Y342900D01*
X794004Y76200D02*
X806196Y76200D01*
X806196Y101600D02*
X794004Y101600D01*
X794004Y228600D02*
X806196Y228600D01*
X806196Y254000D02*
X794004Y254000D01*
X794004Y127000D02*
X806196Y127000D01*
X806196Y152400D02*
X794004Y152400D01*
X794004Y203200D02*
X806196Y203200D01*
X806196Y177800D02*
X794004Y177800D01*
X729996Y254000D02*
X717804Y254000D01*
X717804Y228600D02*
X729996Y228600D01*
X729996Y203200D02*
X717804Y203200D01*
X717804Y177800D02*
X729996Y177800D01*
X729996Y152400D02*
X717804Y152400D01*
X717804Y127000D02*
X729996Y127000D01*
X729996Y101600D02*
X717804Y101600D01*
X717804Y76200D02*
X729996Y76200D01*
X1149604Y876300D02*
X1161796Y876300D01*
X1161796Y901700D02*
X1149604Y901700D01*
X1149604Y1028700D02*
X1161796Y1028700D01*
X1161796Y1054100D02*
X1149604Y1054100D01*
X1149604Y927100D02*
X1161796Y927100D01*
X1161796Y952500D02*
X1149604Y952500D01*
X1149604Y1003300D02*
X1161796Y1003300D01*
X1161796Y977900D02*
X1149604Y977900D01*
X1085596Y1054100D02*
X1073404Y1054100D01*
X1073404Y1028700D02*
X1085596Y1028700D01*
X1085596Y1003300D02*
X1073404Y1003300D01*
X1073404Y977900D02*
X1085596Y977900D01*
X1085596Y952500D02*
X1073404Y952500D01*
X1073404Y927100D02*
X1085596Y927100D01*
X1085596Y901700D02*
X1073404Y901700D01*
X1073404Y876300D02*
X1085596Y876300D01*
X1149604Y609600D02*
X1161796Y609600D01*
X1161796Y635000D02*
X1149604Y635000D01*
X1149604Y762000D02*
X1161796Y762000D01*
X1161796Y787400D02*
X1149604Y787400D01*
X1149604Y660400D02*
X1161796Y660400D01*
X1161796Y685800D02*
X1149604Y685800D01*
X1149604Y736600D02*
X1161796Y736600D01*
X1161796Y711200D02*
X1149604Y711200D01*
X1085596Y787400D02*
X1073404Y787400D01*
X1073404Y762000D02*
X1085596Y762000D01*
X1085596Y736600D02*
X1073404Y736600D01*
X1073404Y711200D02*
X1085596Y711200D01*
X1085596Y685800D02*
X1073404Y685800D01*
X1073404Y660400D02*
X1085596Y660400D01*
X1085596Y635000D02*
X1073404Y635000D01*
X1073404Y609600D02*
X1085596Y609600D01*
X1149604Y342900D02*
X1161796Y342900D01*
X1161796Y368300D02*
X1149604Y368300D01*
X1149604Y495300D02*
X1161796Y495300D01*
X1161796Y520700D02*
X1149604Y520700D01*
X1149604Y393700D02*
X1161796Y393700D01*
X1161796Y419100D02*
X1149604Y419100D01*
X1149604Y469900D02*
X1161796Y469900D01*
X1161796Y444500D02*
X1149604Y444500D01*
X1085596Y520700D02*
X1073404Y520700D01*
X1073404Y495300D02*
X1085596Y495300D01*
X1085596Y469900D02*
X1073404Y469900D01*
X1073404Y444500D02*
X1085596Y444500D01*
X1085596Y419100D02*
X1073404Y419100D01*
X1073404Y393700D02*
X1085596Y393700D01*
X1085596Y368300D02*
X1073404Y368300D01*
X1073404Y342900D02*
X1085596Y342900D01*
X1149604Y76200D02*
X1161796Y76200D01*
X1161796Y101600D02*
X1149604Y101600D01*
X1149604Y228600D02*
X1161796Y228600D01*
X1161796Y254000D02*
X1149604Y254000D01*
X1149604Y127000D02*
X1161796Y127000D01*
X1161796Y152400D02*
X1149604Y152400D01*
X1149604Y203200D02*
X1161796Y203200D01*
X1161796Y177800D02*
X1149604Y177800D01*
X1085596Y254000D02*
X1073404Y254000D01*
X1073404Y228600D02*
X1085596Y228600D01*
X1085596Y203200D02*
X1073404Y203200D01*
X1073404Y177800D02*
X1085596Y177800D01*
X1085596Y152400D02*
X1073404Y152400D01*
X1073404Y127000D02*
X1085596Y127000D01*
X1085596Y101600D02*
X1073404Y101600D01*
X1073404Y76200D02*
X1085596Y76200D01*
X1505204Y876300D02*
X1517396Y876300D01*
X1517396Y901700D02*
X1505204Y901700D01*
X1505204Y1028700D02*
X1517396Y1028700D01*
X1517396Y1054100D02*
X1505204Y1054100D01*
X1505204Y927100D02*
X1517396Y927100D01*
X1517396Y952500D02*
X1505204Y952500D01*
X1505204Y1003300D02*
X1517396Y1003300D01*
X1517396Y977900D02*
X1505204Y977900D01*
X1441196Y1054100D02*
X1429004Y1054100D01*
X1429004Y1028700D02*
X1441196Y1028700D01*
X1441196Y1003300D02*
X1429004Y1003300D01*
X1429004Y977900D02*
X1441196Y977900D01*
X1441196Y952500D02*
X1429004Y952500D01*
X1429004Y927100D02*
X1441196Y927100D01*
X1441196Y901700D02*
X1429004Y901700D01*
X1429004Y876300D02*
X1441196Y876300D01*
X1505204Y609600D02*
X1517396Y609600D01*
X1517396Y635000D02*
X1505204Y635000D01*
X1505204Y762000D02*
X1517396Y762000D01*
X1517396Y787400D02*
X1505204Y787400D01*
X1505204Y660400D02*
X1517396Y660400D01*
X1517396Y685800D02*
X1505204Y685800D01*
X1505204Y736600D02*
X1517396Y736600D01*
X1517396Y711200D02*
X1505204Y711200D01*
X1441196Y787400D02*
X1429004Y787400D01*
X1429004Y762000D02*
X1441196Y762000D01*
X1441196Y736600D02*
X1429004Y736600D01*
X1429004Y711200D02*
X1441196Y711200D01*
X1441196Y685800D02*
X1429004Y685800D01*
X1429004Y660400D02*
X1441196Y660400D01*
X1441196Y635000D02*
X1429004Y635000D01*
X1429004Y609600D02*
X1441196Y609600D01*
X1505204Y342900D02*
X1517396Y342900D01*
X1517396Y368300D02*
X1505204Y368300D01*
X1505204Y495300D02*
X1517396Y495300D01*
X1517396Y520700D02*
X1505204Y520700D01*
X1505204Y393700D02*
X1517396Y393700D01*
X1517396Y419100D02*
X1505204Y419100D01*
X1505204Y469900D02*
X1517396Y469900D01*
X1517396Y444500D02*
X1505204Y444500D01*
X1441196Y520700D02*
X1429004Y520700D01*
X1429004Y495300D02*
X1441196Y495300D01*
X1441196Y469900D02*
X1429004Y469900D01*
X1429004Y444500D02*
X1441196Y444500D01*
X1441196Y419100D02*
X1429004Y419100D01*
X1429004Y393700D02*
X1441196Y393700D01*
X1441196Y368300D02*
X1429004Y368300D01*
X1429004Y342900D02*
X1441196Y342900D01*
X1505204Y76200D02*
X1517396Y76200D01*
X1517396Y101600D02*
X1505204Y101600D01*
X1505204Y228600D02*
X1517396Y228600D01*
X1517396Y254000D02*
X1505204Y254000D01*
X1505204Y127000D02*
X1517396Y127000D01*
X1517396Y152400D02*
X1505204Y152400D01*
X1505204Y203200D02*
X1517396Y203200D01*
X1517396Y177800D02*
X1505204Y177800D01*
X1441196Y254000D02*
X1429004Y254000D01*
X1429004Y228600D02*
X1441196Y228600D01*
X1441196Y203200D02*
X1429004Y203200D01*
X1429004Y177800D02*
X1441196Y177800D01*
X1441196Y152400D02*
X1429004Y152400D01*
X1429004Y127000D02*
X1441196Y127000D01*
X1441196Y101600D02*
X1429004Y101600D01*
X1429004Y76200D02*
X1441196Y76200D01*
D15*
X647700Y1066800D03*
X673100Y1066800D03*
X647700Y800100D03*
X673100Y800100D03*
X647700Y533400D03*
X673100Y533400D03*
X647700Y266700D03*
X673100Y266700D03*
X1003300Y1066800D03*
X1028700Y1066800D03*
X1003300Y800100D03*
X1028700Y800100D03*
X1003300Y533400D03*
X1028700Y533400D03*
X1003300Y266700D03*
X1028700Y266700D03*
X1358900Y1066800D03*
X1384300Y1066800D03*
X1358900Y800100D03*
X1384300Y800100D03*
X1358900Y533400D03*
X1384300Y533400D03*
X1358900Y266700D03*
X1384300Y266700D03*
X1714500Y1066800D03*
X1739900Y1066800D03*
X1714500Y800100D03*
X1739900Y800100D03*
X1714500Y533400D03*
X1739900Y533400D03*
X1714500Y266700D03*
X1739900Y266700D03*
X215900Y990600D03*
X241300Y990600D03*
X215900Y762000D03*
X241300Y762000D03*
X215900Y508000D03*
X241300Y508000D03*
X215900Y254000D03*
X241300Y254000D03*
D14*
X196596Y228600D02*
X184404Y228600D01*
X184404Y203200D02*
X196596Y203200D01*
X196596Y76200D02*
X184404Y76200D01*
X184404Y50800D02*
X196596Y50800D01*
X196596Y177800D02*
X184404Y177800D01*
X184404Y152400D02*
X196596Y152400D01*
X196596Y101600D02*
X184404Y101600D01*
X184404Y127000D02*
X196596Y127000D01*
X260604Y50800D02*
X272796Y50800D01*
X272796Y76200D02*
X260604Y76200D01*
X260604Y101600D02*
X272796Y101600D01*
X272796Y127000D02*
X260604Y127000D01*
X260604Y152400D02*
X272796Y152400D01*
X272796Y177800D02*
X260604Y177800D01*
X260604Y203200D02*
X272796Y203200D01*
X272796Y228600D02*
X260604Y228600D01*
X241300Y1111504D02*
X241300Y1123696D01*
X215900Y1123696D02*
X215900Y1111504D01*
X88900Y1111504D02*
X88900Y1123696D01*
X88900Y1047496D02*
X88900Y1035304D01*
X190500Y1111504D02*
X190500Y1123696D01*
X165100Y1123696D02*
X165100Y1111504D01*
X114300Y1111504D02*
X114300Y1123696D01*
X139700Y1123696D02*
X139700Y1111504D01*
X114300Y1047496D02*
X114300Y1035304D01*
X139700Y1035304D02*
X139700Y1047496D01*
X165100Y1047496D02*
X165100Y1035304D01*
X190500Y1035304D02*
X190500Y1047496D01*
X215900Y1047496D02*
X215900Y1035304D01*
X241300Y1035304D02*
X241300Y1047496D01*
X82296Y101600D02*
X70104Y101600D01*
X70104Y76200D02*
X82296Y76200D01*
X146304Y76200D02*
X158496Y76200D01*
X158496Y101600D02*
X146304Y101600D01*
X82296Y50800D02*
X70104Y50800D01*
X70104Y25400D02*
X82296Y25400D01*
X146304Y50800D02*
X158496Y50800D01*
X158496Y25400D02*
X146304Y25400D01*
D12*
X292100Y1079500D03*
X266700Y1079500D03*
D14*
X158496Y266700D02*
X146304Y266700D01*
X146304Y241300D02*
X158496Y241300D01*
X158496Y215900D02*
X146304Y215900D01*
X146304Y190500D02*
X158496Y190500D01*
X158496Y165100D02*
X146304Y165100D01*
D16*
X457200Y838200D03*
X355600Y838200D03*
D17*
X304800Y977900D03*
X330200Y977900D03*
D16*
X457200Y571500D03*
X355600Y571500D03*
D17*
X304800Y711200D03*
X330200Y711200D03*
D16*
X457200Y304800D03*
X355600Y304800D03*
D17*
X304800Y444500D03*
X330200Y444500D03*
D16*
X457200Y38100D03*
X355600Y38100D03*
D17*
X304800Y177800D03*
X330200Y177800D03*
D16*
X812800Y838200D03*
X711200Y838200D03*
D17*
X660400Y977900D03*
X685800Y977900D03*
D16*
X812800Y571500D03*
X711200Y571500D03*
D17*
X660400Y711200D03*
X685800Y711200D03*
D16*
X812800Y304800D03*
X711200Y304800D03*
D17*
X660400Y444500D03*
X685800Y444500D03*
D16*
X812800Y38100D03*
X711200Y38100D03*
D17*
X660400Y177800D03*
X685800Y177800D03*
D16*
X1168400Y838200D03*
X1066800Y838200D03*
D17*
X1016000Y977900D03*
X1041400Y977900D03*
D16*
X1168400Y571500D03*
X1066800Y571500D03*
D17*
X1016000Y711200D03*
X1041400Y711200D03*
D16*
X1168400Y304800D03*
X1066800Y304800D03*
D17*
X1016000Y444500D03*
X1041400Y444500D03*
D16*
X1168400Y38100D03*
X1066800Y38100D03*
D17*
X1016000Y177800D03*
X1041400Y177800D03*
D16*
X1524000Y838200D03*
X1422400Y838200D03*
D17*
X1371600Y977900D03*
X1397000Y977900D03*
D16*
X1524000Y571500D03*
X1422400Y571500D03*
D17*
X1371600Y711200D03*
X1397000Y711200D03*
D16*
X1524000Y304800D03*
X1422400Y304800D03*
D17*
X1371600Y444500D03*
X1397000Y444500D03*
D16*
X1524000Y38100D03*
X1422400Y38100D03*
D17*
X1371600Y177800D03*
X1397000Y177800D03*
D18*
X1752600Y1117600D03*
D19*
X549275Y625475D03*
X1482725Y660400D03*
X1266825Y473075D03*
X911225Y768350D03*
X558800Y1022350D03*
X565150Y415925D03*
X1628775Y720725D03*
X1276350Y422275D03*
X1317625Y165100D03*
X1276350Y708025D03*
X1628775Y454025D03*
X565150Y704850D03*
X63500Y581025D03*
X917575Y606425D03*
X917575Y873125D03*
X917575Y358775D03*
X114300Y619125D03*
X987425Y161925D03*
X1654175Y669925D03*
X1654175Y917575D03*
X1654175Y403225D03*
X577850Y908050D03*
X1298575Y904875D03*
X463550Y777875D03*
X552450Y914400D03*
X631825Y612775D03*
X993775Y625475D03*
X1355725Y187325D03*
X1292225Y993775D03*
X1012825Y225425D03*
X1012825Y415925D03*
X577850Y403225D03*
X911225Y657225D03*
X1222375Y660400D03*
X1622425Y669925D03*
X1622425Y409575D03*
X1349375Y403225D03*
X1577975Y638175D03*
X920750Y155575D03*
X1343025Y250825D03*
X1343025Y517525D03*
X571500Y247650D03*
X571500Y288925D03*
X625475Y892175D03*
X638175Y523875D03*
X1343025Y555625D03*
X161925Y473075D03*
X168275Y466725D03*
X168275Y688975D03*
X114300Y266700D03*
X142875Y431800D03*
X155575Y682625D03*
X155575Y479425D03*
X142875Y631825D03*
X133350Y641350D03*
X38100Y349250D03*
X231775Y361950D03*
X142875Y790575D03*
X127000Y796925D03*
X225425Y847725D03*
X225425Y603250D03*
X127000Y873125D03*
X155575Y771525D03*
X317500Y552450D03*
X425450Y911225D03*
X590550Y946150D03*
X498475Y952500D03*
X466725Y663575D03*
X504825Y663575D03*
X415925Y644525D03*
X415925Y730250D03*
X577850Y666750D03*
X498475Y688975D03*
X552450Y320675D03*
X422275Y231775D03*
X590550Y238125D03*
X917575Y946150D03*
X854075Y952500D03*
X939800Y657225D03*
X857250Y685800D03*
X939800Y466725D03*
X936625Y374650D03*
X866775Y419100D03*
X771525Y225425D03*
X933450Y133350D03*
X1209675Y952500D03*
X1282700Y669925D03*
X1212850Y666750D03*
X1282700Y406400D03*
X1209675Y419100D03*
X1301750Y142875D03*
X1565275Y952500D03*
X1565275Y419100D03*
X1482725Y225425D03*
X285750Y933450D03*
X552450Y793750D03*
X336550Y809625D03*
X587375Y542925D03*
X327025Y552450D03*
X552450Y260350D03*
X298450Y279400D03*
X250825Y790575D03*
X673100Y885825D03*
X654050Y600075D03*
X657225Y565150D03*
X695325Y546100D03*
X225425Y549275D03*
X225425Y323850D03*
X498475Y546100D03*
X511175Y558800D03*
X1022350Y606425D03*
X1257300Y796925D03*
X1298575Y542925D03*
X1301750Y273050D03*
X381000Y358775D03*
X463550Y1095375D03*
X1047750Y333375D03*
X1120775Y790575D03*
X1374775Y292100D03*
X1397000Y304800D03*
X254000Y168275D03*
X282575Y374650D03*
X311150Y403225D03*
X298450Y908050D03*
X431800Y1073150D03*
X384175Y603250D03*
X149225Y425450D03*
X149225Y638175D03*
X311150Y577850D03*
M02*
