G04 EAGLE Gerber RS-274X export*
G75*
%MOMM*%
%FSLAX34Y34*%
%LPD*%
%INSilkscreen Top*%
%IPPOS*%
%AMOC8*
5,1,8,0,0,1.08239X$1,22.5*%
G01*
%ADD10C,0.203200*%
%ADD11C,0.152400*%
%ADD12C,0.101600*%
%ADD13C,0.254000*%
%ADD14C,0.050800*%
%ADD15C,0.076200*%
%ADD16C,0.127000*%
%ADD17R,0.863600X0.609600*%
%ADD18C,0.177800*%


D10*
X255016Y1129304D02*
X255016Y1125406D01*
X262812Y1117610D01*
X270608Y1125406D01*
X270608Y1129304D01*
X262812Y1117610D02*
X262812Y1105916D01*
X278404Y1105916D02*
X278404Y1121508D01*
X286200Y1129304D01*
X293996Y1121508D01*
X293996Y1105916D01*
X293996Y1117610D02*
X278404Y1117610D01*
X313486Y1129304D02*
X317384Y1125406D01*
X313486Y1129304D02*
X305690Y1129304D01*
X301792Y1125406D01*
X301792Y1109814D01*
X305690Y1105916D01*
X313486Y1105916D01*
X317384Y1109814D01*
X336874Y1129304D02*
X340772Y1125406D01*
X336874Y1129304D02*
X329078Y1129304D01*
X325180Y1125406D01*
X325180Y1109814D01*
X329078Y1105916D01*
X336874Y1105916D01*
X340772Y1109814D01*
X348568Y1121508D02*
X356364Y1129304D01*
X356364Y1105916D01*
X348568Y1105916D02*
X364160Y1105916D01*
X395344Y1105916D02*
X395344Y1129304D01*
X403140Y1121508D01*
X410936Y1129304D01*
X410936Y1105916D01*
X418732Y1129304D02*
X434324Y1129304D01*
X418732Y1129304D02*
X418732Y1105916D01*
X434324Y1105916D01*
X426528Y1117610D02*
X418732Y1117610D01*
X442120Y1105916D02*
X442120Y1129304D01*
X449916Y1121508D01*
X457712Y1129304D01*
X457712Y1105916D01*
X469406Y1129304D02*
X477202Y1129304D01*
X469406Y1129304D02*
X465508Y1125406D01*
X465508Y1109814D01*
X469406Y1105916D01*
X477202Y1105916D01*
X481100Y1109814D01*
X481100Y1125406D01*
X477202Y1129304D01*
X488896Y1129304D02*
X488896Y1105916D01*
X488896Y1129304D02*
X500590Y1129304D01*
X504488Y1125406D01*
X504488Y1117610D01*
X500590Y1113712D01*
X488896Y1113712D01*
X496692Y1113712D02*
X504488Y1105916D01*
X512284Y1125406D02*
X512284Y1129304D01*
X512284Y1125406D02*
X520080Y1117610D01*
X527876Y1125406D01*
X527876Y1129304D01*
X520080Y1117610D02*
X520080Y1105916D01*
X559060Y1105916D02*
X559060Y1129304D01*
X570754Y1129304D01*
X574652Y1125406D01*
X574652Y1121508D01*
X570754Y1117610D01*
X574652Y1113712D01*
X574652Y1109814D01*
X570754Y1105916D01*
X559060Y1105916D01*
X559060Y1117610D02*
X570754Y1117610D01*
X586346Y1129304D02*
X594142Y1129304D01*
X586346Y1129304D02*
X582448Y1125406D01*
X582448Y1109814D01*
X586346Y1105916D01*
X594142Y1105916D01*
X598040Y1109814D01*
X598040Y1125406D01*
X594142Y1129304D01*
X605836Y1121508D02*
X605836Y1105916D01*
X605836Y1121508D02*
X613632Y1129304D01*
X621428Y1121508D01*
X621428Y1105916D01*
X621428Y1117610D02*
X605836Y1117610D01*
X629224Y1105916D02*
X629224Y1129304D01*
X640917Y1129304D01*
X644815Y1125406D01*
X644815Y1117610D01*
X640917Y1113712D01*
X629224Y1113712D01*
X637019Y1113712D02*
X644815Y1105916D01*
X652611Y1105916D02*
X652611Y1129304D01*
X652611Y1105916D02*
X664305Y1105916D01*
X668203Y1109814D01*
X668203Y1125406D01*
X664305Y1129304D01*
X652611Y1129304D01*
X699387Y1129304D02*
X699387Y1113712D01*
X707183Y1105916D01*
X714979Y1113712D01*
X714979Y1129304D01*
X722775Y1121508D02*
X730571Y1129304D01*
X730571Y1105916D01*
X722775Y1105916D02*
X738367Y1105916D01*
X746163Y1105916D02*
X746163Y1109814D01*
X750061Y1109814D01*
X750061Y1105916D01*
X746163Y1105916D01*
X757857Y1105916D02*
X773449Y1105916D01*
X757857Y1105916D02*
X773449Y1121508D01*
X773449Y1125406D01*
X769551Y1129304D01*
X761755Y1129304D01*
X757857Y1125406D01*
X266710Y13716D02*
X258914Y13716D01*
X266710Y13716D02*
X270608Y17614D01*
X270608Y25410D01*
X266710Y29308D01*
X258914Y29308D01*
X255016Y25410D01*
X255016Y17614D01*
X258914Y13716D01*
X278404Y13716D02*
X278404Y29308D01*
X290098Y29308D01*
X293996Y25410D01*
X293996Y13716D01*
X305690Y13716D02*
X313486Y13716D01*
X305690Y13716D02*
X301792Y17614D01*
X301792Y25410D01*
X305690Y29308D01*
X313486Y29308D01*
X317384Y25410D01*
X317384Y21512D01*
X301792Y21512D01*
X325180Y29308D02*
X325180Y5920D01*
X325180Y29308D02*
X336874Y29308D01*
X340772Y25410D01*
X340772Y17614D01*
X336874Y13716D01*
X325180Y13716D01*
X352466Y29308D02*
X360262Y29308D01*
X364160Y25410D01*
X364160Y13716D01*
X352466Y13716D01*
X348568Y17614D01*
X352466Y21512D01*
X364160Y21512D01*
X379752Y5920D02*
X383650Y5920D01*
X387548Y9818D01*
X387548Y29308D01*
X375854Y29308D01*
X371956Y25410D01*
X371956Y17614D01*
X375854Y13716D01*
X387548Y13716D01*
X399242Y13716D02*
X407038Y13716D01*
X399242Y13716D02*
X395344Y17614D01*
X395344Y25410D01*
X399242Y29308D01*
X407038Y29308D01*
X410936Y25410D01*
X410936Y21512D01*
X395344Y21512D01*
X422630Y29308D02*
X434324Y29308D01*
X422630Y29308D02*
X418732Y25410D01*
X418732Y17614D01*
X422630Y13716D01*
X434324Y13716D01*
X446018Y13716D02*
X453814Y13716D01*
X457712Y17614D01*
X457712Y25410D01*
X453814Y29308D01*
X446018Y29308D01*
X442120Y25410D01*
X442120Y17614D01*
X446018Y13716D01*
X465508Y13716D02*
X465508Y29308D01*
X469406Y29308D01*
X473304Y25410D01*
X473304Y13716D01*
X473304Y25410D02*
X477202Y29308D01*
X481100Y25410D01*
X481100Y13716D01*
X488896Y5920D02*
X488896Y29308D01*
X500590Y29308D01*
X504488Y25410D01*
X504488Y17614D01*
X500590Y13716D01*
X488896Y13716D01*
X512284Y17614D02*
X512284Y29308D01*
X512284Y17614D02*
X516182Y13716D01*
X527876Y13716D01*
X527876Y29308D01*
X539570Y33206D02*
X539570Y17614D01*
X543468Y13716D01*
X543468Y29308D02*
X535672Y29308D01*
X555162Y13716D02*
X562958Y13716D01*
X555162Y13716D02*
X551264Y17614D01*
X551264Y25410D01*
X555162Y29308D01*
X562958Y29308D01*
X566856Y25410D01*
X566856Y21512D01*
X551264Y21512D01*
X574652Y13716D02*
X574652Y29308D01*
X574652Y21512D02*
X582448Y29308D01*
X586346Y29308D01*
X594142Y17614D02*
X594142Y13716D01*
X594142Y17614D02*
X598040Y17614D01*
X598040Y13716D01*
X594142Y13716D01*
X609733Y29308D02*
X621427Y29308D01*
X609733Y29308D02*
X605836Y25410D01*
X605836Y17614D01*
X609733Y13716D01*
X621427Y13716D01*
X633121Y13716D02*
X640917Y13716D01*
X644815Y17614D01*
X644815Y25410D01*
X640917Y29308D01*
X633121Y29308D01*
X629223Y25410D01*
X629223Y17614D01*
X633121Y13716D01*
X652611Y13716D02*
X652611Y29308D01*
X656509Y29308D01*
X660407Y25410D01*
X660407Y13716D01*
X660407Y25410D02*
X664305Y29308D01*
X668203Y25410D01*
X668203Y13716D01*
D11*
X13462Y79674D02*
X13462Y90520D01*
X16174Y93232D01*
X21597Y93232D01*
X24309Y90520D01*
X24309Y79674D01*
X21597Y76962D01*
X16174Y76962D01*
X13462Y79674D01*
X24309Y90520D01*
D12*
X109904Y1127853D02*
X107955Y1129802D01*
X104057Y1129802D01*
X102108Y1127853D01*
X102108Y1120057D01*
X104057Y1118108D01*
X107955Y1118108D01*
X109904Y1120057D01*
X109904Y1123955D01*
X106006Y1123955D01*
X113802Y1125904D02*
X113802Y1118108D01*
X113802Y1125904D02*
X119649Y1125904D01*
X121598Y1123955D01*
X121598Y1118108D01*
X133292Y1118108D02*
X133292Y1129802D01*
X133292Y1118108D02*
X127445Y1118108D01*
X125496Y1120057D01*
X125496Y1123955D01*
X127445Y1125904D01*
X133292Y1125904D01*
X21004Y1123955D02*
X13208Y1123955D01*
X24902Y1118108D02*
X24902Y1129802D01*
X30749Y1129802D01*
X32698Y1127853D01*
X32698Y1125904D01*
X30749Y1123955D01*
X32698Y1122006D01*
X32698Y1120057D01*
X30749Y1118108D01*
X24902Y1118108D01*
X24902Y1123955D02*
X30749Y1123955D01*
X36596Y1120057D02*
X36596Y1129802D01*
X36596Y1120057D02*
X38545Y1118108D01*
X42443Y1118108D01*
X44392Y1120057D01*
X44392Y1129802D01*
X54137Y1129802D02*
X56086Y1127853D01*
X54137Y1129802D02*
X50239Y1129802D01*
X48290Y1127853D01*
X48290Y1125904D01*
X50239Y1123955D01*
X54137Y1123955D01*
X56086Y1122006D01*
X56086Y1120057D01*
X54137Y1118108D01*
X50239Y1118108D01*
X48290Y1120057D01*
X59984Y1123955D02*
X67780Y1123955D01*
X71678Y1129802D02*
X79474Y1129802D01*
X71678Y1129802D02*
X71678Y1118108D01*
X79474Y1118108D01*
X75576Y1123955D02*
X71678Y1123955D01*
X83372Y1118108D02*
X83372Y1129802D01*
X91168Y1118108D01*
X91168Y1129802D01*
D13*
X-67310Y996950D02*
X-76200Y986790D01*
X-67310Y996950D02*
X-12700Y996950D01*
X-13970Y986790D02*
X-67310Y986790D01*
X-76200Y986790D02*
X-76200Y976630D01*
X-76200Y166370D01*
X-76200Y156210D01*
X-67310Y156210D02*
X-13970Y156210D01*
X-67310Y146050D02*
X-76200Y156210D01*
X-67310Y146050D02*
X-12700Y146050D01*
D14*
X-2200Y102900D02*
X-2200Y1041370D01*
D13*
X-12600Y1041370D02*
X-12600Y102900D01*
X-12700Y102000D02*
X50800Y101999D01*
X50800Y1041400D02*
X-1270Y1041400D01*
X-12700Y1041400D01*
X50800Y101999D02*
X50800Y101601D01*
X50800Y101999D02*
X50800Y152400D01*
X38100Y152400D01*
X12700Y152400D01*
X-1270Y139700D01*
X50800Y990600D02*
X50800Y1041400D01*
X50800Y990600D02*
X38100Y990600D01*
X12700Y990600D01*
X-1270Y1003300D01*
X38100Y990600D02*
X38100Y152400D01*
X-67310Y156210D02*
X-76200Y166370D01*
X-67310Y986790D02*
X-67310Y996950D01*
X-67310Y986790D02*
X-67310Y156210D01*
X-67310Y146050D01*
X-76200Y976630D02*
X-67310Y986790D01*
X-1270Y139700D02*
X-1270Y102870D01*
X-1270Y1003300D02*
X-1270Y1041400D01*
X12700Y1016064D02*
X12704Y1016376D01*
X12715Y1016687D01*
X12734Y1016998D01*
X12761Y1017309D01*
X12796Y1017619D01*
X12837Y1017927D01*
X12887Y1018235D01*
X12944Y1018542D01*
X13009Y1018847D01*
X13081Y1019150D01*
X13160Y1019451D01*
X13247Y1019751D01*
X13341Y1020048D01*
X13442Y1020343D01*
X13551Y1020635D01*
X13667Y1020924D01*
X13790Y1021211D01*
X13919Y1021494D01*
X14056Y1021774D01*
X14200Y1022051D01*
X14350Y1022324D01*
X14507Y1022593D01*
X14670Y1022858D01*
X14840Y1023120D01*
X15017Y1023377D01*
X15199Y1023629D01*
X15388Y1023877D01*
X15583Y1024121D01*
X15783Y1024359D01*
X15990Y1024593D01*
X16202Y1024821D01*
X16420Y1025044D01*
X16643Y1025262D01*
X16871Y1025474D01*
X17105Y1025681D01*
X17343Y1025881D01*
X17587Y1026076D01*
X17835Y1026265D01*
X18087Y1026447D01*
X18344Y1026624D01*
X18606Y1026794D01*
X18871Y1026957D01*
X19140Y1027114D01*
X19413Y1027264D01*
X19690Y1027408D01*
X19970Y1027545D01*
X20253Y1027674D01*
X20540Y1027797D01*
X20829Y1027913D01*
X21121Y1028022D01*
X21416Y1028123D01*
X21713Y1028217D01*
X22013Y1028304D01*
X22314Y1028383D01*
X22617Y1028455D01*
X22922Y1028520D01*
X23229Y1028577D01*
X23537Y1028627D01*
X23845Y1028668D01*
X24155Y1028703D01*
X24466Y1028730D01*
X24777Y1028749D01*
X25088Y1028760D01*
X25400Y1028764D01*
X25712Y1028760D01*
X26023Y1028749D01*
X26334Y1028730D01*
X26645Y1028703D01*
X26955Y1028668D01*
X27263Y1028627D01*
X27571Y1028577D01*
X27878Y1028520D01*
X28183Y1028455D01*
X28486Y1028383D01*
X28787Y1028304D01*
X29087Y1028217D01*
X29384Y1028123D01*
X29679Y1028022D01*
X29971Y1027913D01*
X30260Y1027797D01*
X30547Y1027674D01*
X30830Y1027545D01*
X31110Y1027408D01*
X31387Y1027264D01*
X31660Y1027114D01*
X31929Y1026957D01*
X32194Y1026794D01*
X32456Y1026624D01*
X32713Y1026447D01*
X32965Y1026265D01*
X33213Y1026076D01*
X33457Y1025881D01*
X33695Y1025681D01*
X33929Y1025474D01*
X34157Y1025262D01*
X34380Y1025044D01*
X34598Y1024821D01*
X34810Y1024593D01*
X35017Y1024359D01*
X35217Y1024121D01*
X35412Y1023877D01*
X35601Y1023629D01*
X35783Y1023377D01*
X35960Y1023120D01*
X36130Y1022858D01*
X36293Y1022593D01*
X36450Y1022324D01*
X36600Y1022051D01*
X36744Y1021774D01*
X36881Y1021494D01*
X37010Y1021211D01*
X37133Y1020924D01*
X37249Y1020635D01*
X37358Y1020343D01*
X37459Y1020048D01*
X37553Y1019751D01*
X37640Y1019451D01*
X37719Y1019150D01*
X37791Y1018847D01*
X37856Y1018542D01*
X37913Y1018235D01*
X37963Y1017927D01*
X38004Y1017619D01*
X38039Y1017309D01*
X38066Y1016998D01*
X38085Y1016687D01*
X38096Y1016376D01*
X38100Y1016064D01*
X38096Y1015752D01*
X38085Y1015441D01*
X38066Y1015130D01*
X38039Y1014819D01*
X38004Y1014509D01*
X37963Y1014201D01*
X37913Y1013893D01*
X37856Y1013586D01*
X37791Y1013281D01*
X37719Y1012978D01*
X37640Y1012677D01*
X37553Y1012377D01*
X37459Y1012080D01*
X37358Y1011785D01*
X37249Y1011493D01*
X37133Y1011204D01*
X37010Y1010917D01*
X36881Y1010634D01*
X36744Y1010354D01*
X36600Y1010077D01*
X36450Y1009804D01*
X36293Y1009535D01*
X36130Y1009270D01*
X35960Y1009008D01*
X35783Y1008751D01*
X35601Y1008499D01*
X35412Y1008251D01*
X35217Y1008007D01*
X35017Y1007769D01*
X34810Y1007535D01*
X34598Y1007307D01*
X34380Y1007084D01*
X34157Y1006866D01*
X33929Y1006654D01*
X33695Y1006447D01*
X33457Y1006247D01*
X33213Y1006052D01*
X32965Y1005863D01*
X32713Y1005681D01*
X32456Y1005504D01*
X32194Y1005334D01*
X31929Y1005171D01*
X31660Y1005014D01*
X31387Y1004864D01*
X31110Y1004720D01*
X30830Y1004583D01*
X30547Y1004454D01*
X30260Y1004331D01*
X29971Y1004215D01*
X29679Y1004106D01*
X29384Y1004005D01*
X29087Y1003911D01*
X28787Y1003824D01*
X28486Y1003745D01*
X28183Y1003673D01*
X27878Y1003608D01*
X27571Y1003551D01*
X27263Y1003501D01*
X26955Y1003460D01*
X26645Y1003425D01*
X26334Y1003398D01*
X26023Y1003379D01*
X25712Y1003368D01*
X25400Y1003364D01*
X25088Y1003368D01*
X24777Y1003379D01*
X24466Y1003398D01*
X24155Y1003425D01*
X23845Y1003460D01*
X23537Y1003501D01*
X23229Y1003551D01*
X22922Y1003608D01*
X22617Y1003673D01*
X22314Y1003745D01*
X22013Y1003824D01*
X21713Y1003911D01*
X21416Y1004005D01*
X21121Y1004106D01*
X20829Y1004215D01*
X20540Y1004331D01*
X20253Y1004454D01*
X19970Y1004583D01*
X19690Y1004720D01*
X19413Y1004864D01*
X19140Y1005014D01*
X18871Y1005171D01*
X18606Y1005334D01*
X18344Y1005504D01*
X18087Y1005681D01*
X17835Y1005863D01*
X17587Y1006052D01*
X17343Y1006247D01*
X17105Y1006447D01*
X16871Y1006654D01*
X16643Y1006866D01*
X16420Y1007084D01*
X16202Y1007307D01*
X15990Y1007535D01*
X15783Y1007769D01*
X15583Y1008007D01*
X15388Y1008251D01*
X15199Y1008499D01*
X15017Y1008751D01*
X14840Y1009008D01*
X14670Y1009270D01*
X14507Y1009535D01*
X14350Y1009804D01*
X14200Y1010077D01*
X14056Y1010354D01*
X13919Y1010634D01*
X13790Y1010917D01*
X13667Y1011204D01*
X13551Y1011493D01*
X13442Y1011785D01*
X13341Y1012080D01*
X13247Y1012377D01*
X13160Y1012677D01*
X13081Y1012978D01*
X13009Y1013281D01*
X12944Y1013586D01*
X12887Y1013893D01*
X12837Y1014201D01*
X12796Y1014509D01*
X12761Y1014819D01*
X12734Y1015130D01*
X12715Y1015441D01*
X12704Y1015752D01*
X12700Y1016064D01*
X12700Y126936D02*
X12704Y127248D01*
X12715Y127559D01*
X12734Y127870D01*
X12761Y128181D01*
X12796Y128491D01*
X12837Y128799D01*
X12887Y129107D01*
X12944Y129414D01*
X13009Y129719D01*
X13081Y130022D01*
X13160Y130323D01*
X13247Y130623D01*
X13341Y130920D01*
X13442Y131215D01*
X13551Y131507D01*
X13667Y131796D01*
X13790Y132083D01*
X13919Y132366D01*
X14056Y132646D01*
X14200Y132923D01*
X14350Y133196D01*
X14507Y133465D01*
X14670Y133730D01*
X14840Y133992D01*
X15017Y134249D01*
X15199Y134501D01*
X15388Y134749D01*
X15583Y134993D01*
X15783Y135231D01*
X15990Y135465D01*
X16202Y135693D01*
X16420Y135916D01*
X16643Y136134D01*
X16871Y136346D01*
X17105Y136553D01*
X17343Y136753D01*
X17587Y136948D01*
X17835Y137137D01*
X18087Y137319D01*
X18344Y137496D01*
X18606Y137666D01*
X18871Y137829D01*
X19140Y137986D01*
X19413Y138136D01*
X19690Y138280D01*
X19970Y138417D01*
X20253Y138546D01*
X20540Y138669D01*
X20829Y138785D01*
X21121Y138894D01*
X21416Y138995D01*
X21713Y139089D01*
X22013Y139176D01*
X22314Y139255D01*
X22617Y139327D01*
X22922Y139392D01*
X23229Y139449D01*
X23537Y139499D01*
X23845Y139540D01*
X24155Y139575D01*
X24466Y139602D01*
X24777Y139621D01*
X25088Y139632D01*
X25400Y139636D01*
X25712Y139632D01*
X26023Y139621D01*
X26334Y139602D01*
X26645Y139575D01*
X26955Y139540D01*
X27263Y139499D01*
X27571Y139449D01*
X27878Y139392D01*
X28183Y139327D01*
X28486Y139255D01*
X28787Y139176D01*
X29087Y139089D01*
X29384Y138995D01*
X29679Y138894D01*
X29971Y138785D01*
X30260Y138669D01*
X30547Y138546D01*
X30830Y138417D01*
X31110Y138280D01*
X31387Y138136D01*
X31660Y137986D01*
X31929Y137829D01*
X32194Y137666D01*
X32456Y137496D01*
X32713Y137319D01*
X32965Y137137D01*
X33213Y136948D01*
X33457Y136753D01*
X33695Y136553D01*
X33929Y136346D01*
X34157Y136134D01*
X34380Y135916D01*
X34598Y135693D01*
X34810Y135465D01*
X35017Y135231D01*
X35217Y134993D01*
X35412Y134749D01*
X35601Y134501D01*
X35783Y134249D01*
X35960Y133992D01*
X36130Y133730D01*
X36293Y133465D01*
X36450Y133196D01*
X36600Y132923D01*
X36744Y132646D01*
X36881Y132366D01*
X37010Y132083D01*
X37133Y131796D01*
X37249Y131507D01*
X37358Y131215D01*
X37459Y130920D01*
X37553Y130623D01*
X37640Y130323D01*
X37719Y130022D01*
X37791Y129719D01*
X37856Y129414D01*
X37913Y129107D01*
X37963Y128799D01*
X38004Y128491D01*
X38039Y128181D01*
X38066Y127870D01*
X38085Y127559D01*
X38096Y127248D01*
X38100Y126936D01*
X38096Y126624D01*
X38085Y126313D01*
X38066Y126002D01*
X38039Y125691D01*
X38004Y125381D01*
X37963Y125073D01*
X37913Y124765D01*
X37856Y124458D01*
X37791Y124153D01*
X37719Y123850D01*
X37640Y123549D01*
X37553Y123249D01*
X37459Y122952D01*
X37358Y122657D01*
X37249Y122365D01*
X37133Y122076D01*
X37010Y121789D01*
X36881Y121506D01*
X36744Y121226D01*
X36600Y120949D01*
X36450Y120676D01*
X36293Y120407D01*
X36130Y120142D01*
X35960Y119880D01*
X35783Y119623D01*
X35601Y119371D01*
X35412Y119123D01*
X35217Y118879D01*
X35017Y118641D01*
X34810Y118407D01*
X34598Y118179D01*
X34380Y117956D01*
X34157Y117738D01*
X33929Y117526D01*
X33695Y117319D01*
X33457Y117119D01*
X33213Y116924D01*
X32965Y116735D01*
X32713Y116553D01*
X32456Y116376D01*
X32194Y116206D01*
X31929Y116043D01*
X31660Y115886D01*
X31387Y115736D01*
X31110Y115592D01*
X30830Y115455D01*
X30547Y115326D01*
X30260Y115203D01*
X29971Y115087D01*
X29679Y114978D01*
X29384Y114877D01*
X29087Y114783D01*
X28787Y114696D01*
X28486Y114617D01*
X28183Y114545D01*
X27878Y114480D01*
X27571Y114423D01*
X27263Y114373D01*
X26955Y114332D01*
X26645Y114297D01*
X26334Y114270D01*
X26023Y114251D01*
X25712Y114240D01*
X25400Y114236D01*
X25088Y114240D01*
X24777Y114251D01*
X24466Y114270D01*
X24155Y114297D01*
X23845Y114332D01*
X23537Y114373D01*
X23229Y114423D01*
X22922Y114480D01*
X22617Y114545D01*
X22314Y114617D01*
X22013Y114696D01*
X21713Y114783D01*
X21416Y114877D01*
X21121Y114978D01*
X20829Y115087D01*
X20540Y115203D01*
X20253Y115326D01*
X19970Y115455D01*
X19690Y115592D01*
X19413Y115736D01*
X19140Y115886D01*
X18871Y116043D01*
X18606Y116206D01*
X18344Y116376D01*
X18087Y116553D01*
X17835Y116735D01*
X17587Y116924D01*
X17343Y117119D01*
X17105Y117319D01*
X16871Y117526D01*
X16643Y117738D01*
X16420Y117956D01*
X16202Y118179D01*
X15990Y118407D01*
X15783Y118641D01*
X15583Y118879D01*
X15388Y119123D01*
X15199Y119371D01*
X15017Y119623D01*
X14840Y119880D01*
X14670Y120142D01*
X14507Y120407D01*
X14350Y120676D01*
X14200Y120949D01*
X14056Y121226D01*
X13919Y121506D01*
X13790Y121789D01*
X13667Y122076D01*
X13551Y122365D01*
X13442Y122657D01*
X13341Y122952D01*
X13247Y123249D01*
X13160Y123549D01*
X13081Y123850D01*
X13009Y124153D01*
X12944Y124458D01*
X12887Y124765D01*
X12837Y125073D01*
X12796Y125381D01*
X12761Y125691D01*
X12734Y126002D01*
X12715Y126313D01*
X12704Y126624D01*
X12700Y126936D01*
D15*
X28232Y173237D02*
X25775Y175694D01*
X33147Y175694D01*
X33147Y173237D02*
X33147Y178152D01*
D16*
X46728Y160662D02*
X50541Y160662D01*
X52448Y158755D01*
X52448Y153035D01*
X46728Y153035D01*
X44821Y154942D01*
X46728Y156848D01*
X52448Y156848D01*
X70221Y153035D02*
X70221Y164475D01*
X70221Y153035D02*
X75941Y153035D01*
X77848Y154942D01*
X77848Y158755D01*
X75941Y160662D01*
X70221Y160662D01*
X97528Y160662D02*
X103248Y160662D01*
X97528Y160662D02*
X95621Y158755D01*
X95621Y154942D01*
X97528Y153035D01*
X103248Y153035D01*
D15*
X27003Y956963D02*
X25775Y958191D01*
X25775Y960649D01*
X27003Y961878D01*
X28232Y961878D01*
X29461Y960649D01*
X29461Y959420D01*
X29461Y960649D02*
X30690Y961878D01*
X31918Y961878D01*
X33147Y960649D01*
X33147Y958191D01*
X31918Y956963D01*
X33147Y964447D02*
X33147Y969362D01*
X33147Y964447D02*
X28232Y969362D01*
X27003Y969362D01*
X25775Y968133D01*
X25775Y965676D01*
X27003Y964447D01*
D16*
X-45085Y230493D02*
X-56525Y230493D01*
X-45085Y230493D02*
X-45085Y236213D01*
X-46992Y238120D01*
X-54618Y238120D01*
X-56525Y236213D01*
X-56525Y230493D01*
X-45085Y242187D02*
X-45085Y246000D01*
X-45085Y244094D02*
X-56525Y244094D01*
X-56525Y246000D02*
X-56525Y242187D01*
X-56525Y249983D02*
X-45085Y249983D01*
X-45085Y257610D02*
X-56525Y249983D01*
X-56525Y257610D02*
X-45085Y257610D01*
X-45085Y267397D02*
X-56525Y267397D01*
X-50805Y261677D01*
X-50805Y269303D01*
X-52712Y273371D02*
X-56525Y277184D01*
X-45085Y277184D01*
X-45085Y273371D02*
X-45085Y280997D01*
X-54618Y288878D02*
X-56525Y292691D01*
X-54618Y288878D02*
X-50805Y285065D01*
X-46992Y285065D01*
X-45085Y286972D01*
X-45085Y290785D01*
X-46992Y292691D01*
X-48898Y292691D01*
X-50805Y290785D01*
X-50805Y285065D01*
X-52712Y296759D02*
X-56525Y300572D01*
X-45085Y300572D01*
X-45085Y296759D02*
X-45085Y304385D01*
X-45085Y308453D02*
X-45085Y316079D01*
X-45085Y308453D02*
X-52712Y316079D01*
X-54618Y316079D01*
X-56525Y314173D01*
X-56525Y310359D01*
X-54618Y308453D01*
X-50805Y320147D02*
X-50805Y327773D01*
X-45085Y331841D02*
X-56525Y331841D01*
X-56525Y337561D01*
X-54618Y339467D01*
X-50805Y339467D01*
X-48898Y337561D01*
X-48898Y331841D01*
X-48898Y335654D02*
X-45085Y339467D01*
X6975Y891647D02*
X18415Y899274D01*
X18415Y891647D02*
X6975Y899274D01*
X10789Y903341D02*
X6975Y907154D01*
X18415Y907154D01*
X18415Y903341D02*
X18415Y910968D01*
D10*
X1714500Y57150D02*
X1714500Y19050D01*
D13*
X1714974Y18434D01*
X1715463Y17829D01*
X1715967Y17237D01*
X1716485Y16657D01*
X1717017Y16090D01*
X1717563Y15536D01*
X1718122Y14996D01*
X1718695Y14470D01*
X1719280Y13957D01*
X1719877Y13460D01*
X1720486Y12977D01*
X1721107Y12509D01*
X1721740Y12056D01*
X1722383Y11619D01*
X1723037Y11198D01*
X1723701Y10794D01*
X1724374Y10405D01*
X1725057Y10033D01*
X1725749Y9678D01*
X1726449Y9340D01*
X1727157Y9019D01*
X1727873Y8716D01*
X1728597Y8430D01*
X1729326Y8162D01*
X1730063Y7912D01*
X1730805Y7681D01*
X1731553Y7467D01*
X1732305Y7272D01*
X1733063Y7095D01*
X1733824Y6937D01*
X1734589Y6797D01*
X1735357Y6677D01*
X1736128Y6575D01*
X1736901Y6492D01*
X1737676Y6428D01*
X1738452Y6383D01*
X1739229Y6357D01*
X1740007Y6350D01*
X1740784Y6362D01*
X1741561Y6393D01*
X1742337Y6444D01*
X1743112Y6513D01*
X1743884Y6601D01*
X1744654Y6708D01*
X1745422Y6834D01*
X1746186Y6978D01*
X1746946Y7142D01*
X1747702Y7324D01*
X1748453Y7524D01*
X1749200Y7742D01*
X1749940Y7979D01*
X1750675Y8234D01*
X1751403Y8507D01*
X1752124Y8798D01*
X1752838Y9106D01*
X1753544Y9431D01*
X1754242Y9774D01*
X1754932Y10134D01*
X1755612Y10510D01*
X1756283Y10903D01*
X1756944Y11313D01*
X1757595Y11738D01*
X1758235Y12179D01*
X1758864Y12636D01*
X1759482Y13108D01*
X1760088Y13595D01*
X1760682Y14097D01*
X1761264Y14613D01*
X1761833Y15143D01*
X1762388Y15687D01*
X1762931Y16245D01*
X1763459Y16815D01*
X1763973Y17398D01*
X1764473Y17994D01*
X1764958Y18602D01*
X1765428Y19221D01*
X1765882Y19852D01*
X1766321Y20494D01*
X1766745Y21146D01*
X1767152Y21809D01*
X1767543Y22481D01*
X1767917Y23163D01*
X1768274Y23853D01*
X1768614Y24552D01*
X1768938Y25260D01*
X1769243Y25974D01*
X1769532Y26697D01*
X1769802Y27426D01*
X1770054Y28161D01*
X1770289Y28903D01*
X1770505Y29650D01*
X1770703Y30402D01*
X1770882Y31158D01*
X1771043Y31919D01*
X1771185Y32683D01*
X1771308Y33451D01*
X1771412Y34222D01*
X1771498Y34995D01*
X1771564Y35769D01*
X1771612Y36545D01*
X1771640Y37322D01*
X1771650Y38100D01*
X1771640Y38878D01*
X1771612Y39655D01*
X1771564Y40431D01*
X1771498Y41205D01*
X1771412Y41978D01*
X1771308Y42749D01*
X1771185Y43517D01*
X1771043Y44281D01*
X1770882Y45042D01*
X1770703Y45798D01*
X1770505Y46550D01*
X1770289Y47297D01*
X1770054Y48039D01*
X1769802Y48774D01*
X1769532Y49503D01*
X1769243Y50226D01*
X1768938Y50940D01*
X1768614Y51648D01*
X1768274Y52347D01*
X1767917Y53037D01*
X1767543Y53719D01*
X1767152Y54391D01*
X1766745Y55054D01*
X1766321Y55706D01*
X1765882Y56348D01*
X1765428Y56979D01*
X1764958Y57598D01*
X1764473Y58206D01*
X1763973Y58802D01*
X1763459Y59385D01*
X1762931Y59955D01*
X1762388Y60513D01*
X1761833Y61057D01*
X1761264Y61587D01*
X1760682Y62103D01*
X1760088Y62605D01*
X1759482Y63092D01*
X1758864Y63564D01*
X1758235Y64021D01*
X1757595Y64462D01*
X1756944Y64887D01*
X1756283Y65297D01*
X1755612Y65690D01*
X1754932Y66066D01*
X1754242Y66426D01*
X1753544Y66769D01*
X1752838Y67094D01*
X1752124Y67402D01*
X1751403Y67693D01*
X1750675Y67966D01*
X1749940Y68221D01*
X1749200Y68458D01*
X1748453Y68676D01*
X1747702Y68876D01*
X1746946Y69058D01*
X1746186Y69222D01*
X1745422Y69366D01*
X1744654Y69492D01*
X1743884Y69599D01*
X1743112Y69687D01*
X1742337Y69756D01*
X1741561Y69807D01*
X1740784Y69838D01*
X1740007Y69850D01*
X1739229Y69843D01*
X1738452Y69817D01*
X1737676Y69772D01*
X1736901Y69708D01*
X1736128Y69625D01*
X1735357Y69523D01*
X1734589Y69403D01*
X1733824Y69263D01*
X1733063Y69105D01*
X1732305Y68928D01*
X1731553Y68733D01*
X1730805Y68519D01*
X1730063Y68288D01*
X1729326Y68038D01*
X1728597Y67770D01*
X1727873Y67484D01*
X1727157Y67181D01*
X1726449Y66860D01*
X1725749Y66522D01*
X1725057Y66167D01*
X1724374Y65795D01*
X1723701Y65406D01*
X1723037Y65002D01*
X1722383Y64581D01*
X1721740Y64144D01*
X1721107Y63691D01*
X1720486Y63223D01*
X1719877Y62740D01*
X1719280Y62243D01*
X1718695Y61730D01*
X1718122Y61204D01*
X1717563Y60664D01*
X1717017Y60110D01*
X1716485Y59543D01*
X1715967Y58963D01*
X1715463Y58371D01*
X1714974Y57766D01*
X1714500Y57150D01*
D11*
X1714500Y38100D02*
X1714508Y38723D01*
X1714531Y39346D01*
X1714569Y39969D01*
X1714622Y40590D01*
X1714691Y41209D01*
X1714775Y41827D01*
X1714874Y42442D01*
X1714988Y43055D01*
X1715117Y43665D01*
X1715261Y44272D01*
X1715420Y44875D01*
X1715594Y45473D01*
X1715782Y46068D01*
X1715985Y46657D01*
X1716202Y47241D01*
X1716433Y47820D01*
X1716679Y48393D01*
X1716939Y48960D01*
X1717212Y49520D01*
X1717499Y50073D01*
X1717800Y50620D01*
X1718114Y51158D01*
X1718441Y51689D01*
X1718781Y52211D01*
X1719133Y52726D01*
X1719499Y53231D01*
X1719876Y53727D01*
X1720266Y54214D01*
X1720667Y54691D01*
X1721080Y55158D01*
X1721504Y55614D01*
X1721939Y56061D01*
X1722386Y56496D01*
X1722842Y56920D01*
X1723309Y57333D01*
X1723786Y57734D01*
X1724273Y58124D01*
X1724769Y58501D01*
X1725274Y58867D01*
X1725789Y59219D01*
X1726311Y59559D01*
X1726842Y59886D01*
X1727380Y60200D01*
X1727927Y60501D01*
X1728480Y60788D01*
X1729040Y61061D01*
X1729607Y61321D01*
X1730180Y61567D01*
X1730759Y61798D01*
X1731343Y62015D01*
X1731932Y62218D01*
X1732527Y62406D01*
X1733125Y62580D01*
X1733728Y62739D01*
X1734335Y62883D01*
X1734945Y63012D01*
X1735558Y63126D01*
X1736173Y63225D01*
X1736791Y63309D01*
X1737410Y63378D01*
X1738031Y63431D01*
X1738654Y63469D01*
X1739277Y63492D01*
X1739900Y63500D01*
X1740523Y63492D01*
X1741146Y63469D01*
X1741769Y63431D01*
X1742390Y63378D01*
X1743009Y63309D01*
X1743627Y63225D01*
X1744242Y63126D01*
X1744855Y63012D01*
X1745465Y62883D01*
X1746072Y62739D01*
X1746675Y62580D01*
X1747273Y62406D01*
X1747868Y62218D01*
X1748457Y62015D01*
X1749041Y61798D01*
X1749620Y61567D01*
X1750193Y61321D01*
X1750760Y61061D01*
X1751320Y60788D01*
X1751873Y60501D01*
X1752420Y60200D01*
X1752958Y59886D01*
X1753489Y59559D01*
X1754011Y59219D01*
X1754526Y58867D01*
X1755031Y58501D01*
X1755527Y58124D01*
X1756014Y57734D01*
X1756491Y57333D01*
X1756958Y56920D01*
X1757414Y56496D01*
X1757861Y56061D01*
X1758296Y55614D01*
X1758720Y55158D01*
X1759133Y54691D01*
X1759534Y54214D01*
X1759924Y53727D01*
X1760301Y53231D01*
X1760667Y52726D01*
X1761019Y52211D01*
X1761359Y51689D01*
X1761686Y51158D01*
X1762000Y50620D01*
X1762301Y50073D01*
X1762588Y49520D01*
X1762861Y48960D01*
X1763121Y48393D01*
X1763367Y47820D01*
X1763598Y47241D01*
X1763815Y46657D01*
X1764018Y46068D01*
X1764206Y45473D01*
X1764380Y44875D01*
X1764539Y44272D01*
X1764683Y43665D01*
X1764812Y43055D01*
X1764926Y42442D01*
X1765025Y41827D01*
X1765109Y41209D01*
X1765178Y40590D01*
X1765231Y39969D01*
X1765269Y39346D01*
X1765292Y38723D01*
X1765300Y38100D01*
X1765292Y37477D01*
X1765269Y36854D01*
X1765231Y36231D01*
X1765178Y35610D01*
X1765109Y34991D01*
X1765025Y34373D01*
X1764926Y33758D01*
X1764812Y33145D01*
X1764683Y32535D01*
X1764539Y31928D01*
X1764380Y31325D01*
X1764206Y30727D01*
X1764018Y30132D01*
X1763815Y29543D01*
X1763598Y28959D01*
X1763367Y28380D01*
X1763121Y27807D01*
X1762861Y27240D01*
X1762588Y26680D01*
X1762301Y26127D01*
X1762000Y25580D01*
X1761686Y25042D01*
X1761359Y24511D01*
X1761019Y23989D01*
X1760667Y23474D01*
X1760301Y22969D01*
X1759924Y22473D01*
X1759534Y21986D01*
X1759133Y21509D01*
X1758720Y21042D01*
X1758296Y20586D01*
X1757861Y20139D01*
X1757414Y19704D01*
X1756958Y19280D01*
X1756491Y18867D01*
X1756014Y18466D01*
X1755527Y18076D01*
X1755031Y17699D01*
X1754526Y17333D01*
X1754011Y16981D01*
X1753489Y16641D01*
X1752958Y16314D01*
X1752420Y16000D01*
X1751873Y15699D01*
X1751320Y15412D01*
X1750760Y15139D01*
X1750193Y14879D01*
X1749620Y14633D01*
X1749041Y14402D01*
X1748457Y14185D01*
X1747868Y13982D01*
X1747273Y13794D01*
X1746675Y13620D01*
X1746072Y13461D01*
X1745465Y13317D01*
X1744855Y13188D01*
X1744242Y13074D01*
X1743627Y12975D01*
X1743009Y12891D01*
X1742390Y12822D01*
X1741769Y12769D01*
X1741146Y12731D01*
X1740523Y12708D01*
X1739900Y12700D01*
X1739277Y12708D01*
X1738654Y12731D01*
X1738031Y12769D01*
X1737410Y12822D01*
X1736791Y12891D01*
X1736173Y12975D01*
X1735558Y13074D01*
X1734945Y13188D01*
X1734335Y13317D01*
X1733728Y13461D01*
X1733125Y13620D01*
X1732527Y13794D01*
X1731932Y13982D01*
X1731343Y14185D01*
X1730759Y14402D01*
X1730180Y14633D01*
X1729607Y14879D01*
X1729040Y15139D01*
X1728480Y15412D01*
X1727927Y15699D01*
X1727380Y16000D01*
X1726842Y16314D01*
X1726311Y16641D01*
X1725789Y16981D01*
X1725274Y17333D01*
X1724769Y17699D01*
X1724273Y18076D01*
X1723786Y18466D01*
X1723309Y18867D01*
X1722842Y19280D01*
X1722386Y19704D01*
X1721939Y20139D01*
X1721504Y20586D01*
X1721080Y21042D01*
X1720667Y21509D01*
X1720266Y21986D01*
X1719876Y22473D01*
X1719499Y22969D01*
X1719133Y23474D01*
X1718781Y23989D01*
X1718441Y24511D01*
X1718114Y25042D01*
X1717800Y25580D01*
X1717499Y26127D01*
X1717212Y26680D01*
X1716939Y27240D01*
X1716679Y27807D01*
X1716433Y28380D01*
X1716202Y28959D01*
X1715985Y29543D01*
X1715782Y30132D01*
X1715594Y30727D01*
X1715420Y31325D01*
X1715261Y31928D01*
X1715117Y32535D01*
X1714988Y33145D01*
X1714874Y33758D01*
X1714775Y34373D01*
X1714691Y34991D01*
X1714622Y35610D01*
X1714569Y36231D01*
X1714531Y36854D01*
X1714508Y37477D01*
X1714500Y38100D01*
D16*
X1673703Y32141D02*
X1673703Y20701D01*
X1673703Y32141D02*
X1679423Y32141D01*
X1681330Y30234D01*
X1681330Y26421D01*
X1679423Y24514D01*
X1673703Y24514D01*
X1685397Y20701D02*
X1685397Y32141D01*
X1689210Y24514D02*
X1685397Y20701D01*
X1689210Y24514D02*
X1693024Y20701D01*
X1693024Y32141D01*
X1697091Y32141D02*
X1697091Y20701D01*
X1697091Y32141D02*
X1702811Y32141D01*
X1704717Y30234D01*
X1704717Y26421D01*
X1702811Y24514D01*
X1697091Y24514D01*
X1700904Y24514D02*
X1704717Y20701D01*
D11*
X1631950Y29210D02*
X1631948Y29110D01*
X1631942Y29011D01*
X1631932Y28911D01*
X1631919Y28813D01*
X1631901Y28714D01*
X1631880Y28617D01*
X1631855Y28521D01*
X1631826Y28425D01*
X1631793Y28331D01*
X1631757Y28238D01*
X1631717Y28147D01*
X1631673Y28057D01*
X1631626Y27969D01*
X1631576Y27883D01*
X1631522Y27799D01*
X1631465Y27717D01*
X1631405Y27638D01*
X1631341Y27560D01*
X1631275Y27486D01*
X1631206Y27414D01*
X1631134Y27345D01*
X1631060Y27279D01*
X1630982Y27215D01*
X1630903Y27155D01*
X1630821Y27098D01*
X1630737Y27044D01*
X1630651Y26994D01*
X1630563Y26947D01*
X1630473Y26903D01*
X1630382Y26863D01*
X1630289Y26827D01*
X1630195Y26794D01*
X1630099Y26765D01*
X1630003Y26740D01*
X1629906Y26719D01*
X1629807Y26701D01*
X1629709Y26688D01*
X1629609Y26678D01*
X1629510Y26672D01*
X1629410Y26670D01*
X1631950Y46990D02*
X1631948Y47090D01*
X1631942Y47189D01*
X1631932Y47289D01*
X1631919Y47387D01*
X1631901Y47486D01*
X1631880Y47583D01*
X1631855Y47679D01*
X1631826Y47775D01*
X1631793Y47869D01*
X1631757Y47962D01*
X1631717Y48053D01*
X1631673Y48143D01*
X1631626Y48231D01*
X1631576Y48317D01*
X1631522Y48401D01*
X1631465Y48483D01*
X1631405Y48562D01*
X1631341Y48640D01*
X1631275Y48714D01*
X1631206Y48786D01*
X1631134Y48855D01*
X1631060Y48921D01*
X1630982Y48985D01*
X1630903Y49045D01*
X1630821Y49102D01*
X1630737Y49156D01*
X1630651Y49206D01*
X1630563Y49253D01*
X1630473Y49297D01*
X1630382Y49337D01*
X1630289Y49373D01*
X1630195Y49406D01*
X1630099Y49435D01*
X1630003Y49460D01*
X1629906Y49481D01*
X1629807Y49499D01*
X1629709Y49512D01*
X1629609Y49522D01*
X1629510Y49528D01*
X1629410Y49530D01*
X1570990Y49530D02*
X1570890Y49528D01*
X1570791Y49522D01*
X1570691Y49512D01*
X1570593Y49499D01*
X1570494Y49481D01*
X1570397Y49460D01*
X1570301Y49435D01*
X1570205Y49406D01*
X1570111Y49373D01*
X1570018Y49337D01*
X1569927Y49297D01*
X1569837Y49253D01*
X1569749Y49206D01*
X1569663Y49156D01*
X1569579Y49102D01*
X1569497Y49045D01*
X1569418Y48985D01*
X1569340Y48921D01*
X1569266Y48855D01*
X1569194Y48786D01*
X1569125Y48714D01*
X1569059Y48640D01*
X1568995Y48562D01*
X1568935Y48483D01*
X1568878Y48401D01*
X1568824Y48317D01*
X1568774Y48231D01*
X1568727Y48143D01*
X1568683Y48053D01*
X1568643Y47962D01*
X1568607Y47869D01*
X1568574Y47775D01*
X1568545Y47679D01*
X1568520Y47583D01*
X1568499Y47486D01*
X1568481Y47387D01*
X1568468Y47289D01*
X1568458Y47189D01*
X1568452Y47090D01*
X1568450Y46990D01*
X1568450Y29210D02*
X1568452Y29110D01*
X1568458Y29011D01*
X1568468Y28911D01*
X1568481Y28813D01*
X1568499Y28714D01*
X1568520Y28617D01*
X1568545Y28521D01*
X1568574Y28425D01*
X1568607Y28331D01*
X1568643Y28238D01*
X1568683Y28147D01*
X1568727Y28057D01*
X1568774Y27969D01*
X1568824Y27883D01*
X1568878Y27799D01*
X1568935Y27717D01*
X1568995Y27638D01*
X1569059Y27560D01*
X1569125Y27486D01*
X1569194Y27414D01*
X1569266Y27345D01*
X1569340Y27279D01*
X1569418Y27215D01*
X1569497Y27155D01*
X1569579Y27098D01*
X1569663Y27044D01*
X1569749Y26994D01*
X1569837Y26947D01*
X1569927Y26903D01*
X1570018Y26863D01*
X1570111Y26827D01*
X1570205Y26794D01*
X1570301Y26765D01*
X1570397Y26740D01*
X1570494Y26719D01*
X1570593Y26701D01*
X1570691Y26688D01*
X1570791Y26678D01*
X1570890Y26672D01*
X1570990Y26670D01*
X1631950Y29210D02*
X1631950Y46990D01*
X1629410Y26670D02*
X1625600Y26670D01*
X1624330Y27940D01*
X1625600Y49530D02*
X1629410Y49530D01*
X1625600Y49530D02*
X1624330Y48260D01*
X1576070Y27940D02*
X1574800Y26670D01*
X1576070Y27940D02*
X1624330Y27940D01*
X1576070Y48260D02*
X1574800Y49530D01*
X1576070Y48260D02*
X1624330Y48260D01*
X1574800Y26670D02*
X1570990Y26670D01*
X1570990Y49530D02*
X1574800Y49530D01*
X1568450Y46990D02*
X1568450Y29210D01*
D17*
X1564132Y38100D03*
X1636268Y38100D03*
D16*
X1607927Y22235D02*
X1607927Y10795D01*
X1607927Y22235D02*
X1613647Y22235D01*
X1615554Y20328D01*
X1615554Y16515D01*
X1613647Y14608D01*
X1607927Y14608D01*
X1611740Y14608D02*
X1615554Y10795D01*
X1619621Y10795D02*
X1627248Y10795D01*
X1619621Y10795D02*
X1627248Y18422D01*
X1627248Y20328D01*
X1625341Y22235D01*
X1621528Y22235D01*
X1619621Y20328D01*
D11*
X915670Y911860D02*
X915670Y965200D01*
X915979Y965204D01*
X916288Y965215D01*
X916597Y965234D01*
X916905Y965260D01*
X917213Y965294D01*
X917519Y965335D01*
X917825Y965384D01*
X918129Y965440D01*
X918431Y965504D01*
X918732Y965575D01*
X919032Y965653D01*
X919329Y965738D01*
X919624Y965831D01*
X919917Y965931D01*
X920207Y966038D01*
X920494Y966152D01*
X920779Y966273D01*
X921061Y966401D01*
X921339Y966535D01*
X921614Y966677D01*
X921886Y966825D01*
X922153Y966980D01*
X922417Y967141D01*
X922677Y967308D01*
X922933Y967482D01*
X923185Y967662D01*
X923432Y967848D01*
X923674Y968040D01*
X923912Y968238D01*
X924145Y968441D01*
X924373Y968651D01*
X924595Y968865D01*
X924813Y969085D01*
X925025Y969311D01*
X925231Y969541D01*
X925432Y969776D01*
X925627Y970016D01*
X925816Y970261D01*
X925999Y970510D01*
X926176Y970764D01*
X926346Y971022D01*
X926511Y971284D01*
X926669Y971550D01*
X926820Y971820D01*
X926965Y972093D01*
X927103Y972370D01*
X927234Y972650D01*
X927358Y972933D01*
X927476Y973219D01*
X927586Y973508D01*
X927690Y973799D01*
X927786Y974093D01*
X927875Y974389D01*
X927957Y974688D01*
X928032Y974988D01*
X928099Y975290D01*
X928159Y975593D01*
X928211Y975898D01*
X928256Y976204D01*
X928294Y976511D01*
X928324Y976819D01*
X928346Y977127D01*
X928362Y977436D01*
X928369Y977745D01*
X928369Y978055D01*
X928362Y978364D01*
X928346Y978673D01*
X928324Y978981D01*
X928294Y979289D01*
X928256Y979596D01*
X928211Y979902D01*
X928159Y980207D01*
X928099Y980510D01*
X928032Y980812D01*
X927957Y981112D01*
X927875Y981411D01*
X927786Y981707D01*
X927690Y982001D01*
X927586Y982292D01*
X927476Y982581D01*
X927358Y982867D01*
X927234Y983150D01*
X927103Y983430D01*
X926965Y983707D01*
X926820Y983980D01*
X926669Y984250D01*
X926511Y984516D01*
X926346Y984778D01*
X926176Y985036D01*
X925999Y985290D01*
X925816Y985539D01*
X925627Y985784D01*
X925432Y986024D01*
X925231Y986259D01*
X925025Y986489D01*
X924813Y986715D01*
X924595Y986935D01*
X924373Y987149D01*
X924145Y987359D01*
X923912Y987562D01*
X923674Y987760D01*
X923432Y987952D01*
X923185Y988138D01*
X922933Y988318D01*
X922677Y988492D01*
X922417Y988659D01*
X922153Y988820D01*
X921886Y988975D01*
X921614Y989123D01*
X921339Y989265D01*
X921061Y989399D01*
X920779Y989527D01*
X920494Y989648D01*
X920207Y989762D01*
X919917Y989869D01*
X919624Y989969D01*
X919329Y990062D01*
X919032Y990147D01*
X918732Y990225D01*
X918431Y990296D01*
X918129Y990360D01*
X917825Y990416D01*
X917519Y990465D01*
X917213Y990506D01*
X916905Y990540D01*
X916597Y990566D01*
X916288Y990585D01*
X915979Y990596D01*
X915670Y990600D01*
X1268730Y1043940D02*
X1268730Y911860D01*
X915670Y990600D02*
X915670Y1043940D01*
X1268730Y1043940D01*
X1268730Y911860D02*
X915670Y911860D01*
D18*
X913511Y915289D02*
X913511Y920628D01*
X913511Y917958D02*
X897495Y917958D01*
X897495Y915289D02*
X897495Y920628D01*
X897495Y934211D02*
X900165Y936881D01*
X897495Y934211D02*
X897495Y928873D01*
X900165Y926203D01*
X910842Y926203D01*
X913511Y928873D01*
X913511Y934211D01*
X910842Y936881D01*
X902834Y942575D02*
X897495Y947914D01*
X913511Y947914D01*
X913511Y953252D02*
X913511Y942575D01*
D11*
X915670Y736600D02*
X915670Y683260D01*
X915670Y736600D02*
X915979Y736604D01*
X916288Y736615D01*
X916597Y736634D01*
X916905Y736660D01*
X917213Y736694D01*
X917519Y736735D01*
X917825Y736784D01*
X918129Y736840D01*
X918431Y736904D01*
X918732Y736975D01*
X919032Y737053D01*
X919329Y737138D01*
X919624Y737231D01*
X919917Y737331D01*
X920207Y737438D01*
X920494Y737552D01*
X920779Y737673D01*
X921061Y737801D01*
X921339Y737935D01*
X921614Y738077D01*
X921886Y738225D01*
X922153Y738380D01*
X922417Y738541D01*
X922677Y738708D01*
X922933Y738882D01*
X923185Y739062D01*
X923432Y739248D01*
X923674Y739440D01*
X923912Y739638D01*
X924145Y739841D01*
X924373Y740051D01*
X924595Y740265D01*
X924813Y740485D01*
X925025Y740711D01*
X925231Y740941D01*
X925432Y741176D01*
X925627Y741416D01*
X925816Y741661D01*
X925999Y741910D01*
X926176Y742164D01*
X926346Y742422D01*
X926511Y742684D01*
X926669Y742950D01*
X926820Y743220D01*
X926965Y743493D01*
X927103Y743770D01*
X927234Y744050D01*
X927358Y744333D01*
X927476Y744619D01*
X927586Y744908D01*
X927690Y745199D01*
X927786Y745493D01*
X927875Y745789D01*
X927957Y746088D01*
X928032Y746388D01*
X928099Y746690D01*
X928159Y746993D01*
X928211Y747298D01*
X928256Y747604D01*
X928294Y747911D01*
X928324Y748219D01*
X928346Y748527D01*
X928362Y748836D01*
X928369Y749145D01*
X928369Y749455D01*
X928362Y749764D01*
X928346Y750073D01*
X928324Y750381D01*
X928294Y750689D01*
X928256Y750996D01*
X928211Y751302D01*
X928159Y751607D01*
X928099Y751910D01*
X928032Y752212D01*
X927957Y752512D01*
X927875Y752811D01*
X927786Y753107D01*
X927690Y753401D01*
X927586Y753692D01*
X927476Y753981D01*
X927358Y754267D01*
X927234Y754550D01*
X927103Y754830D01*
X926965Y755107D01*
X926820Y755380D01*
X926669Y755650D01*
X926511Y755916D01*
X926346Y756178D01*
X926176Y756436D01*
X925999Y756690D01*
X925816Y756939D01*
X925627Y757184D01*
X925432Y757424D01*
X925231Y757659D01*
X925025Y757889D01*
X924813Y758115D01*
X924595Y758335D01*
X924373Y758549D01*
X924145Y758759D01*
X923912Y758962D01*
X923674Y759160D01*
X923432Y759352D01*
X923185Y759538D01*
X922933Y759718D01*
X922677Y759892D01*
X922417Y760059D01*
X922153Y760220D01*
X921886Y760375D01*
X921614Y760523D01*
X921339Y760665D01*
X921061Y760799D01*
X920779Y760927D01*
X920494Y761048D01*
X920207Y761162D01*
X919917Y761269D01*
X919624Y761369D01*
X919329Y761462D01*
X919032Y761547D01*
X918732Y761625D01*
X918431Y761696D01*
X918129Y761760D01*
X917825Y761816D01*
X917519Y761865D01*
X917213Y761906D01*
X916905Y761940D01*
X916597Y761966D01*
X916288Y761985D01*
X915979Y761996D01*
X915670Y762000D01*
X1268730Y815340D02*
X1268730Y683260D01*
X915670Y762000D02*
X915670Y815340D01*
X1268730Y815340D01*
X1268730Y683260D02*
X915670Y683260D01*
D18*
X913511Y686689D02*
X913511Y692028D01*
X913511Y689358D02*
X897495Y689358D01*
X897495Y686689D02*
X897495Y692028D01*
X897495Y705611D02*
X900165Y708281D01*
X897495Y705611D02*
X897495Y700273D01*
X900165Y697603D01*
X910842Y697603D01*
X913511Y700273D01*
X913511Y705611D01*
X910842Y708281D01*
X913511Y713975D02*
X913511Y724652D01*
X913511Y713975D02*
X902834Y724652D01*
X900165Y724652D01*
X897495Y721983D01*
X897495Y716644D01*
X900165Y713975D01*
D11*
X1193800Y177800D02*
X1193800Y152400D01*
X965200Y152400D02*
X965200Y177800D01*
X971550Y158750D02*
X965200Y152400D01*
X971550Y171450D02*
X965200Y177800D01*
X984250Y171450D02*
X990600Y177800D01*
X1193800Y177800D01*
X990600Y152400D02*
X984250Y158750D01*
X990600Y152400D02*
X965200Y152400D01*
X990600Y152400D02*
X990600Y177800D01*
X965200Y177800D01*
X990600Y152400D02*
X1193800Y152400D01*
D16*
X991235Y184785D02*
X991235Y196225D01*
X996955Y196225D01*
X998862Y194318D01*
X998862Y190505D01*
X996955Y188598D01*
X991235Y188598D01*
X995048Y188598D02*
X998862Y184785D01*
X1002929Y184785D02*
X1002929Y196225D01*
X1010555Y184785D01*
X1010555Y196225D01*
X1014623Y192412D02*
X1018436Y196225D01*
X1018436Y184785D01*
X1014623Y184785D02*
X1022249Y184785D01*
D11*
X1193800Y457200D02*
X1193800Y482600D01*
X965200Y482600D02*
X965200Y457200D01*
X971550Y463550D01*
X971550Y476250D02*
X965200Y482600D01*
X984250Y476250D02*
X990600Y482600D01*
X1193800Y482600D01*
X990600Y457200D02*
X984250Y463550D01*
X990600Y457200D02*
X965200Y457200D01*
X990600Y457200D02*
X990600Y482600D01*
X965200Y482600D01*
X990600Y457200D02*
X1193800Y457200D01*
D16*
X991235Y489585D02*
X991235Y501025D01*
X996955Y501025D01*
X998862Y499118D01*
X998862Y495305D01*
X996955Y493398D01*
X991235Y493398D01*
X995048Y493398D02*
X998862Y489585D01*
X1002929Y489585D02*
X1002929Y501025D01*
X1010555Y489585D01*
X1010555Y501025D01*
X1014623Y489585D02*
X1022249Y489585D01*
X1014623Y489585D02*
X1022249Y497212D01*
X1022249Y499118D01*
X1020343Y501025D01*
X1016530Y501025D01*
X1014623Y499118D01*
D11*
X419100Y905510D02*
X241300Y905510D01*
X241300Y847090D02*
X419100Y847090D01*
X419100Y905510D01*
X241300Y905510D02*
X241300Y886460D01*
X241300Y866140D02*
X241300Y847090D01*
X241300Y866140D02*
X241547Y866143D01*
X241795Y866152D01*
X242042Y866167D01*
X242288Y866188D01*
X242534Y866215D01*
X242779Y866248D01*
X243024Y866287D01*
X243267Y866332D01*
X243509Y866383D01*
X243750Y866440D01*
X243989Y866502D01*
X244227Y866571D01*
X244463Y866645D01*
X244697Y866725D01*
X244929Y866810D01*
X245159Y866902D01*
X245387Y866998D01*
X245612Y867101D01*
X245835Y867208D01*
X246055Y867322D01*
X246272Y867440D01*
X246487Y867564D01*
X246698Y867693D01*
X246906Y867827D01*
X247111Y867966D01*
X247312Y868110D01*
X247510Y868258D01*
X247704Y868412D01*
X247894Y868570D01*
X248080Y868733D01*
X248262Y868900D01*
X248440Y869072D01*
X248614Y869248D01*
X248784Y869428D01*
X248949Y869613D01*
X249109Y869801D01*
X249265Y869993D01*
X249417Y870189D01*
X249563Y870388D01*
X249705Y870591D01*
X249841Y870798D01*
X249973Y871007D01*
X250099Y871220D01*
X250220Y871436D01*
X250336Y871654D01*
X250446Y871876D01*
X250551Y872100D01*
X250651Y872326D01*
X250745Y872555D01*
X250833Y872786D01*
X250916Y873020D01*
X250993Y873255D01*
X251064Y873492D01*
X251130Y873730D01*
X251189Y873970D01*
X251243Y874212D01*
X251291Y874455D01*
X251333Y874698D01*
X251369Y874943D01*
X251399Y875189D01*
X251423Y875435D01*
X251441Y875682D01*
X251453Y875929D01*
X251459Y876176D01*
X251459Y876424D01*
X251453Y876671D01*
X251441Y876918D01*
X251423Y877165D01*
X251399Y877411D01*
X251369Y877657D01*
X251333Y877902D01*
X251291Y878145D01*
X251243Y878388D01*
X251189Y878630D01*
X251130Y878870D01*
X251064Y879108D01*
X250993Y879345D01*
X250916Y879580D01*
X250833Y879814D01*
X250745Y880045D01*
X250651Y880274D01*
X250551Y880500D01*
X250446Y880724D01*
X250336Y880946D01*
X250220Y881164D01*
X250099Y881380D01*
X249973Y881593D01*
X249841Y881802D01*
X249705Y882009D01*
X249563Y882212D01*
X249417Y882411D01*
X249265Y882607D01*
X249109Y882799D01*
X248949Y882987D01*
X248784Y883172D01*
X248614Y883352D01*
X248440Y883528D01*
X248262Y883700D01*
X248080Y883867D01*
X247894Y884030D01*
X247704Y884188D01*
X247510Y884342D01*
X247312Y884490D01*
X247111Y884634D01*
X246906Y884773D01*
X246698Y884907D01*
X246487Y885036D01*
X246272Y885160D01*
X246055Y885278D01*
X245835Y885392D01*
X245612Y885499D01*
X245387Y885602D01*
X245159Y885698D01*
X244929Y885790D01*
X244697Y885875D01*
X244463Y885955D01*
X244227Y886029D01*
X243989Y886098D01*
X243750Y886160D01*
X243509Y886217D01*
X243267Y886268D01*
X243024Y886313D01*
X242779Y886352D01*
X242534Y886385D01*
X242288Y886412D01*
X242042Y886433D01*
X241795Y886448D01*
X241547Y886457D01*
X241300Y886460D01*
D16*
X236855Y850268D02*
X236855Y846455D01*
X236855Y848362D02*
X225415Y848362D01*
X225415Y850268D02*
X225415Y846455D01*
X225415Y859971D02*
X227322Y861877D01*
X225415Y859971D02*
X225415Y856158D01*
X227322Y854251D01*
X234948Y854251D01*
X236855Y856158D01*
X236855Y859971D01*
X234948Y861877D01*
X227322Y869758D02*
X225415Y873571D01*
X227322Y869758D02*
X231135Y865945D01*
X234948Y865945D01*
X236855Y867852D01*
X236855Y871665D01*
X234948Y873571D01*
X233042Y873571D01*
X231135Y871665D01*
X231135Y865945D01*
D11*
X558800Y1045210D02*
X762000Y1045210D01*
X762000Y986790D02*
X558800Y986790D01*
X762000Y986790D02*
X762000Y1045210D01*
X558800Y1045210D02*
X558800Y1026160D01*
X558800Y1005840D02*
X558800Y986790D01*
X558800Y1005840D02*
X559047Y1005843D01*
X559295Y1005852D01*
X559542Y1005867D01*
X559788Y1005888D01*
X560034Y1005915D01*
X560279Y1005948D01*
X560524Y1005987D01*
X560767Y1006032D01*
X561009Y1006083D01*
X561250Y1006140D01*
X561489Y1006202D01*
X561727Y1006271D01*
X561963Y1006345D01*
X562197Y1006425D01*
X562429Y1006510D01*
X562659Y1006602D01*
X562887Y1006698D01*
X563112Y1006801D01*
X563335Y1006908D01*
X563555Y1007022D01*
X563772Y1007140D01*
X563987Y1007264D01*
X564198Y1007393D01*
X564406Y1007527D01*
X564611Y1007666D01*
X564812Y1007810D01*
X565010Y1007958D01*
X565204Y1008112D01*
X565394Y1008270D01*
X565580Y1008433D01*
X565762Y1008600D01*
X565940Y1008772D01*
X566114Y1008948D01*
X566284Y1009128D01*
X566449Y1009313D01*
X566609Y1009501D01*
X566765Y1009693D01*
X566917Y1009889D01*
X567063Y1010088D01*
X567205Y1010291D01*
X567341Y1010498D01*
X567473Y1010707D01*
X567599Y1010920D01*
X567720Y1011136D01*
X567836Y1011354D01*
X567946Y1011576D01*
X568051Y1011800D01*
X568151Y1012026D01*
X568245Y1012255D01*
X568333Y1012486D01*
X568416Y1012720D01*
X568493Y1012955D01*
X568564Y1013192D01*
X568630Y1013430D01*
X568689Y1013670D01*
X568743Y1013912D01*
X568791Y1014155D01*
X568833Y1014398D01*
X568869Y1014643D01*
X568899Y1014889D01*
X568923Y1015135D01*
X568941Y1015382D01*
X568953Y1015629D01*
X568959Y1015876D01*
X568959Y1016124D01*
X568953Y1016371D01*
X568941Y1016618D01*
X568923Y1016865D01*
X568899Y1017111D01*
X568869Y1017357D01*
X568833Y1017602D01*
X568791Y1017845D01*
X568743Y1018088D01*
X568689Y1018330D01*
X568630Y1018570D01*
X568564Y1018808D01*
X568493Y1019045D01*
X568416Y1019280D01*
X568333Y1019514D01*
X568245Y1019745D01*
X568151Y1019974D01*
X568051Y1020200D01*
X567946Y1020424D01*
X567836Y1020646D01*
X567720Y1020864D01*
X567599Y1021080D01*
X567473Y1021293D01*
X567341Y1021502D01*
X567205Y1021709D01*
X567063Y1021912D01*
X566917Y1022111D01*
X566765Y1022307D01*
X566609Y1022499D01*
X566449Y1022687D01*
X566284Y1022872D01*
X566114Y1023052D01*
X565940Y1023228D01*
X565762Y1023400D01*
X565580Y1023567D01*
X565394Y1023730D01*
X565204Y1023888D01*
X565010Y1024042D01*
X564812Y1024190D01*
X564611Y1024334D01*
X564406Y1024473D01*
X564198Y1024607D01*
X563987Y1024736D01*
X563772Y1024860D01*
X563555Y1024978D01*
X563335Y1025092D01*
X563112Y1025199D01*
X562887Y1025302D01*
X562659Y1025398D01*
X562429Y1025490D01*
X562197Y1025575D01*
X561963Y1025655D01*
X561727Y1025729D01*
X561489Y1025798D01*
X561250Y1025860D01*
X561009Y1025917D01*
X560767Y1025968D01*
X560524Y1026013D01*
X560279Y1026052D01*
X560034Y1026085D01*
X559788Y1026112D01*
X559542Y1026133D01*
X559295Y1026148D01*
X559047Y1026157D01*
X558800Y1026160D01*
D16*
X554355Y991238D02*
X554355Y987425D01*
X554355Y989332D02*
X542915Y989332D01*
X542915Y991238D02*
X542915Y987425D01*
X542915Y1000941D02*
X544822Y1002847D01*
X542915Y1000941D02*
X542915Y997128D01*
X544822Y995221D01*
X552448Y995221D01*
X554355Y997128D01*
X554355Y1000941D01*
X552448Y1002847D01*
X542915Y1006915D02*
X542915Y1014541D01*
X544822Y1014541D01*
X552448Y1006915D01*
X554355Y1006915D01*
D11*
X508000Y410210D02*
X762000Y410210D01*
X762000Y351790D02*
X508000Y351790D01*
X762000Y351790D02*
X762000Y410210D01*
X508000Y410210D02*
X508000Y391160D01*
X508000Y370840D02*
X508000Y351790D01*
X508000Y370840D02*
X508247Y370843D01*
X508495Y370852D01*
X508742Y370867D01*
X508988Y370888D01*
X509234Y370915D01*
X509479Y370948D01*
X509724Y370987D01*
X509967Y371032D01*
X510209Y371083D01*
X510450Y371140D01*
X510689Y371202D01*
X510927Y371271D01*
X511163Y371345D01*
X511397Y371425D01*
X511629Y371510D01*
X511859Y371602D01*
X512087Y371698D01*
X512312Y371801D01*
X512535Y371908D01*
X512755Y372022D01*
X512972Y372140D01*
X513187Y372264D01*
X513398Y372393D01*
X513606Y372527D01*
X513811Y372666D01*
X514012Y372810D01*
X514210Y372958D01*
X514404Y373112D01*
X514594Y373270D01*
X514780Y373433D01*
X514962Y373600D01*
X515140Y373772D01*
X515314Y373948D01*
X515484Y374128D01*
X515649Y374313D01*
X515809Y374501D01*
X515965Y374693D01*
X516117Y374889D01*
X516263Y375088D01*
X516405Y375291D01*
X516541Y375498D01*
X516673Y375707D01*
X516799Y375920D01*
X516920Y376136D01*
X517036Y376354D01*
X517146Y376576D01*
X517251Y376800D01*
X517351Y377026D01*
X517445Y377255D01*
X517533Y377486D01*
X517616Y377720D01*
X517693Y377955D01*
X517764Y378192D01*
X517830Y378430D01*
X517889Y378670D01*
X517943Y378912D01*
X517991Y379155D01*
X518033Y379398D01*
X518069Y379643D01*
X518099Y379889D01*
X518123Y380135D01*
X518141Y380382D01*
X518153Y380629D01*
X518159Y380876D01*
X518159Y381124D01*
X518153Y381371D01*
X518141Y381618D01*
X518123Y381865D01*
X518099Y382111D01*
X518069Y382357D01*
X518033Y382602D01*
X517991Y382845D01*
X517943Y383088D01*
X517889Y383330D01*
X517830Y383570D01*
X517764Y383808D01*
X517693Y384045D01*
X517616Y384280D01*
X517533Y384514D01*
X517445Y384745D01*
X517351Y384974D01*
X517251Y385200D01*
X517146Y385424D01*
X517036Y385646D01*
X516920Y385864D01*
X516799Y386080D01*
X516673Y386293D01*
X516541Y386502D01*
X516405Y386709D01*
X516263Y386912D01*
X516117Y387111D01*
X515965Y387307D01*
X515809Y387499D01*
X515649Y387687D01*
X515484Y387872D01*
X515314Y388052D01*
X515140Y388228D01*
X514962Y388400D01*
X514780Y388567D01*
X514594Y388730D01*
X514404Y388888D01*
X514210Y389042D01*
X514012Y389190D01*
X513811Y389334D01*
X513606Y389473D01*
X513398Y389607D01*
X513187Y389736D01*
X512972Y389860D01*
X512755Y389978D01*
X512535Y390092D01*
X512312Y390199D01*
X512087Y390302D01*
X511859Y390398D01*
X511629Y390490D01*
X511397Y390575D01*
X511163Y390655D01*
X510927Y390729D01*
X510689Y390798D01*
X510450Y390860D01*
X510209Y390917D01*
X509967Y390968D01*
X509724Y391013D01*
X509479Y391052D01*
X509234Y391085D01*
X508988Y391112D01*
X508742Y391133D01*
X508495Y391148D01*
X508247Y391157D01*
X508000Y391160D01*
D12*
X503682Y354926D02*
X503682Y351028D01*
X503682Y352977D02*
X491988Y352977D01*
X491988Y351028D02*
X491988Y354926D01*
X491988Y364671D02*
X493937Y366620D01*
X491988Y364671D02*
X491988Y360773D01*
X493937Y358824D01*
X501733Y358824D01*
X503682Y360773D01*
X503682Y364671D01*
X501733Y366620D01*
X493937Y370518D02*
X491988Y372467D01*
X491988Y376365D01*
X493937Y378314D01*
X495886Y378314D01*
X497835Y376365D01*
X499784Y378314D01*
X501733Y378314D01*
X503682Y376365D01*
X503682Y372467D01*
X501733Y370518D01*
X499784Y370518D01*
X497835Y372467D01*
X495886Y370518D01*
X493937Y370518D01*
X497835Y372467D02*
X497835Y376365D01*
D11*
X508000Y245110D02*
X762000Y245110D01*
X762000Y186690D02*
X508000Y186690D01*
X762000Y186690D02*
X762000Y245110D01*
X508000Y245110D02*
X508000Y226060D01*
X508000Y205740D02*
X508000Y186690D01*
X508000Y205740D02*
X508247Y205743D01*
X508495Y205752D01*
X508742Y205767D01*
X508988Y205788D01*
X509234Y205815D01*
X509479Y205848D01*
X509724Y205887D01*
X509967Y205932D01*
X510209Y205983D01*
X510450Y206040D01*
X510689Y206102D01*
X510927Y206171D01*
X511163Y206245D01*
X511397Y206325D01*
X511629Y206410D01*
X511859Y206502D01*
X512087Y206598D01*
X512312Y206701D01*
X512535Y206808D01*
X512755Y206922D01*
X512972Y207040D01*
X513187Y207164D01*
X513398Y207293D01*
X513606Y207427D01*
X513811Y207566D01*
X514012Y207710D01*
X514210Y207858D01*
X514404Y208012D01*
X514594Y208170D01*
X514780Y208333D01*
X514962Y208500D01*
X515140Y208672D01*
X515314Y208848D01*
X515484Y209028D01*
X515649Y209213D01*
X515809Y209401D01*
X515965Y209593D01*
X516117Y209789D01*
X516263Y209988D01*
X516405Y210191D01*
X516541Y210398D01*
X516673Y210607D01*
X516799Y210820D01*
X516920Y211036D01*
X517036Y211254D01*
X517146Y211476D01*
X517251Y211700D01*
X517351Y211926D01*
X517445Y212155D01*
X517533Y212386D01*
X517616Y212620D01*
X517693Y212855D01*
X517764Y213092D01*
X517830Y213330D01*
X517889Y213570D01*
X517943Y213812D01*
X517991Y214055D01*
X518033Y214298D01*
X518069Y214543D01*
X518099Y214789D01*
X518123Y215035D01*
X518141Y215282D01*
X518153Y215529D01*
X518159Y215776D01*
X518159Y216024D01*
X518153Y216271D01*
X518141Y216518D01*
X518123Y216765D01*
X518099Y217011D01*
X518069Y217257D01*
X518033Y217502D01*
X517991Y217745D01*
X517943Y217988D01*
X517889Y218230D01*
X517830Y218470D01*
X517764Y218708D01*
X517693Y218945D01*
X517616Y219180D01*
X517533Y219414D01*
X517445Y219645D01*
X517351Y219874D01*
X517251Y220100D01*
X517146Y220324D01*
X517036Y220546D01*
X516920Y220764D01*
X516799Y220980D01*
X516673Y221193D01*
X516541Y221402D01*
X516405Y221609D01*
X516263Y221812D01*
X516117Y222011D01*
X515965Y222207D01*
X515809Y222399D01*
X515649Y222587D01*
X515484Y222772D01*
X515314Y222952D01*
X515140Y223128D01*
X514962Y223300D01*
X514780Y223467D01*
X514594Y223630D01*
X514404Y223788D01*
X514210Y223942D01*
X514012Y224090D01*
X513811Y224234D01*
X513606Y224373D01*
X513398Y224507D01*
X513187Y224636D01*
X512972Y224760D01*
X512755Y224878D01*
X512535Y224992D01*
X512312Y225099D01*
X512087Y225202D01*
X511859Y225298D01*
X511629Y225390D01*
X511397Y225475D01*
X511163Y225555D01*
X510927Y225629D01*
X510689Y225698D01*
X510450Y225760D01*
X510209Y225817D01*
X509967Y225868D01*
X509724Y225913D01*
X509479Y225952D01*
X509234Y225985D01*
X508988Y226012D01*
X508742Y226033D01*
X508495Y226048D01*
X508247Y226057D01*
X508000Y226060D01*
D12*
X503682Y189826D02*
X503682Y185928D01*
X503682Y187877D02*
X491988Y187877D01*
X491988Y185928D02*
X491988Y189826D01*
X491988Y199571D02*
X493937Y201520D01*
X491988Y199571D02*
X491988Y195673D01*
X493937Y193724D01*
X501733Y193724D01*
X503682Y195673D01*
X503682Y199571D01*
X501733Y201520D01*
X501733Y205418D02*
X503682Y207367D01*
X503682Y211265D01*
X501733Y213214D01*
X493937Y213214D01*
X491988Y211265D01*
X491988Y207367D01*
X493937Y205418D01*
X495886Y205418D01*
X497835Y207367D01*
X497835Y213214D01*
D11*
X584200Y905510D02*
X762000Y905510D01*
X762000Y847090D02*
X584200Y847090D01*
X762000Y847090D02*
X762000Y905510D01*
X584200Y905510D02*
X584200Y886460D01*
X584200Y866140D02*
X584200Y847090D01*
X584200Y866140D02*
X584447Y866143D01*
X584695Y866152D01*
X584942Y866167D01*
X585188Y866188D01*
X585434Y866215D01*
X585679Y866248D01*
X585924Y866287D01*
X586167Y866332D01*
X586409Y866383D01*
X586650Y866440D01*
X586889Y866502D01*
X587127Y866571D01*
X587363Y866645D01*
X587597Y866725D01*
X587829Y866810D01*
X588059Y866902D01*
X588287Y866998D01*
X588512Y867101D01*
X588735Y867208D01*
X588955Y867322D01*
X589172Y867440D01*
X589387Y867564D01*
X589598Y867693D01*
X589806Y867827D01*
X590011Y867966D01*
X590212Y868110D01*
X590410Y868258D01*
X590604Y868412D01*
X590794Y868570D01*
X590980Y868733D01*
X591162Y868900D01*
X591340Y869072D01*
X591514Y869248D01*
X591684Y869428D01*
X591849Y869613D01*
X592009Y869801D01*
X592165Y869993D01*
X592317Y870189D01*
X592463Y870388D01*
X592605Y870591D01*
X592741Y870798D01*
X592873Y871007D01*
X592999Y871220D01*
X593120Y871436D01*
X593236Y871654D01*
X593346Y871876D01*
X593451Y872100D01*
X593551Y872326D01*
X593645Y872555D01*
X593733Y872786D01*
X593816Y873020D01*
X593893Y873255D01*
X593964Y873492D01*
X594030Y873730D01*
X594089Y873970D01*
X594143Y874212D01*
X594191Y874455D01*
X594233Y874698D01*
X594269Y874943D01*
X594299Y875189D01*
X594323Y875435D01*
X594341Y875682D01*
X594353Y875929D01*
X594359Y876176D01*
X594359Y876424D01*
X594353Y876671D01*
X594341Y876918D01*
X594323Y877165D01*
X594299Y877411D01*
X594269Y877657D01*
X594233Y877902D01*
X594191Y878145D01*
X594143Y878388D01*
X594089Y878630D01*
X594030Y878870D01*
X593964Y879108D01*
X593893Y879345D01*
X593816Y879580D01*
X593733Y879814D01*
X593645Y880045D01*
X593551Y880274D01*
X593451Y880500D01*
X593346Y880724D01*
X593236Y880946D01*
X593120Y881164D01*
X592999Y881380D01*
X592873Y881593D01*
X592741Y881802D01*
X592605Y882009D01*
X592463Y882212D01*
X592317Y882411D01*
X592165Y882607D01*
X592009Y882799D01*
X591849Y882987D01*
X591684Y883172D01*
X591514Y883352D01*
X591340Y883528D01*
X591162Y883700D01*
X590980Y883867D01*
X590794Y884030D01*
X590604Y884188D01*
X590410Y884342D01*
X590212Y884490D01*
X590011Y884634D01*
X589806Y884773D01*
X589598Y884907D01*
X589387Y885036D01*
X589172Y885160D01*
X588955Y885278D01*
X588735Y885392D01*
X588512Y885499D01*
X588287Y885602D01*
X588059Y885698D01*
X587829Y885790D01*
X587597Y885875D01*
X587363Y885955D01*
X587127Y886029D01*
X586889Y886098D01*
X586650Y886160D01*
X586409Y886217D01*
X586167Y886268D01*
X585924Y886313D01*
X585679Y886352D01*
X585434Y886385D01*
X585188Y886412D01*
X584942Y886433D01*
X584695Y886448D01*
X584447Y886457D01*
X584200Y886460D01*
D16*
X579755Y850268D02*
X579755Y846455D01*
X579755Y848362D02*
X568315Y848362D01*
X568315Y850268D02*
X568315Y846455D01*
X568315Y859971D02*
X570222Y861877D01*
X568315Y859971D02*
X568315Y856158D01*
X570222Y854251D01*
X577848Y854251D01*
X579755Y856158D01*
X579755Y859971D01*
X577848Y861877D01*
X579755Y871665D02*
X568315Y871665D01*
X574035Y865945D01*
X574035Y873571D01*
D11*
X508000Y664210D02*
X762000Y664210D01*
X762000Y605790D02*
X508000Y605790D01*
X762000Y605790D02*
X762000Y664210D01*
X508000Y664210D02*
X508000Y645160D01*
X508000Y624840D02*
X508000Y605790D01*
X508000Y624840D02*
X508247Y624843D01*
X508495Y624852D01*
X508742Y624867D01*
X508988Y624888D01*
X509234Y624915D01*
X509479Y624948D01*
X509724Y624987D01*
X509967Y625032D01*
X510209Y625083D01*
X510450Y625140D01*
X510689Y625202D01*
X510927Y625271D01*
X511163Y625345D01*
X511397Y625425D01*
X511629Y625510D01*
X511859Y625602D01*
X512087Y625698D01*
X512312Y625801D01*
X512535Y625908D01*
X512755Y626022D01*
X512972Y626140D01*
X513187Y626264D01*
X513398Y626393D01*
X513606Y626527D01*
X513811Y626666D01*
X514012Y626810D01*
X514210Y626958D01*
X514404Y627112D01*
X514594Y627270D01*
X514780Y627433D01*
X514962Y627600D01*
X515140Y627772D01*
X515314Y627948D01*
X515484Y628128D01*
X515649Y628313D01*
X515809Y628501D01*
X515965Y628693D01*
X516117Y628889D01*
X516263Y629088D01*
X516405Y629291D01*
X516541Y629498D01*
X516673Y629707D01*
X516799Y629920D01*
X516920Y630136D01*
X517036Y630354D01*
X517146Y630576D01*
X517251Y630800D01*
X517351Y631026D01*
X517445Y631255D01*
X517533Y631486D01*
X517616Y631720D01*
X517693Y631955D01*
X517764Y632192D01*
X517830Y632430D01*
X517889Y632670D01*
X517943Y632912D01*
X517991Y633155D01*
X518033Y633398D01*
X518069Y633643D01*
X518099Y633889D01*
X518123Y634135D01*
X518141Y634382D01*
X518153Y634629D01*
X518159Y634876D01*
X518159Y635124D01*
X518153Y635371D01*
X518141Y635618D01*
X518123Y635865D01*
X518099Y636111D01*
X518069Y636357D01*
X518033Y636602D01*
X517991Y636845D01*
X517943Y637088D01*
X517889Y637330D01*
X517830Y637570D01*
X517764Y637808D01*
X517693Y638045D01*
X517616Y638280D01*
X517533Y638514D01*
X517445Y638745D01*
X517351Y638974D01*
X517251Y639200D01*
X517146Y639424D01*
X517036Y639646D01*
X516920Y639864D01*
X516799Y640080D01*
X516673Y640293D01*
X516541Y640502D01*
X516405Y640709D01*
X516263Y640912D01*
X516117Y641111D01*
X515965Y641307D01*
X515809Y641499D01*
X515649Y641687D01*
X515484Y641872D01*
X515314Y642052D01*
X515140Y642228D01*
X514962Y642400D01*
X514780Y642567D01*
X514594Y642730D01*
X514404Y642888D01*
X514210Y643042D01*
X514012Y643190D01*
X513811Y643334D01*
X513606Y643473D01*
X513398Y643607D01*
X513187Y643736D01*
X512972Y643860D01*
X512755Y643978D01*
X512535Y644092D01*
X512312Y644199D01*
X512087Y644302D01*
X511859Y644398D01*
X511629Y644490D01*
X511397Y644575D01*
X511163Y644655D01*
X510927Y644729D01*
X510689Y644798D01*
X510450Y644860D01*
X510209Y644917D01*
X509967Y644968D01*
X509724Y645013D01*
X509479Y645052D01*
X509234Y645085D01*
X508988Y645112D01*
X508742Y645133D01*
X508495Y645148D01*
X508247Y645157D01*
X508000Y645160D01*
D12*
X503682Y608926D02*
X503682Y605028D01*
X503682Y606977D02*
X491988Y606977D01*
X491988Y605028D02*
X491988Y608926D01*
X491988Y618671D02*
X493937Y620620D01*
X491988Y618671D02*
X491988Y614773D01*
X493937Y612824D01*
X501733Y612824D01*
X503682Y614773D01*
X503682Y618671D01*
X501733Y620620D01*
X491988Y624518D02*
X491988Y632314D01*
X491988Y624518D02*
X497835Y624518D01*
X495886Y628416D01*
X495886Y630365D01*
X497835Y632314D01*
X501733Y632314D01*
X503682Y630365D01*
X503682Y626467D01*
X501733Y624518D01*
D11*
X762000Y520700D02*
X762000Y495300D01*
X533400Y495300D02*
X533400Y520700D01*
X539750Y501650D02*
X533400Y495300D01*
X539750Y514350D02*
X533400Y520700D01*
X552450Y514350D02*
X558800Y520700D01*
X762000Y520700D01*
X558800Y495300D02*
X552450Y501650D01*
X558800Y495300D02*
X533400Y495300D01*
X558800Y495300D02*
X558800Y520700D01*
X533400Y520700D01*
X558800Y495300D02*
X762000Y495300D01*
D16*
X559435Y527685D02*
X559435Y539125D01*
X565155Y539125D01*
X567062Y537218D01*
X567062Y533405D01*
X565155Y531498D01*
X559435Y531498D01*
X563248Y531498D02*
X567062Y527685D01*
X571129Y527685D02*
X571129Y539125D01*
X578755Y527685D01*
X578755Y539125D01*
X582823Y537218D02*
X584730Y539125D01*
X588543Y539125D01*
X590449Y537218D01*
X590449Y535312D01*
X588543Y533405D01*
X586636Y533405D01*
X588543Y533405D02*
X590449Y531498D01*
X590449Y529592D01*
X588543Y527685D01*
X584730Y527685D01*
X582823Y529592D01*
D11*
X762000Y762000D02*
X762000Y787400D01*
X533400Y787400D02*
X533400Y762000D01*
X539750Y768350D01*
X539750Y781050D02*
X533400Y787400D01*
X552450Y781050D02*
X558800Y787400D01*
X762000Y787400D01*
X558800Y762000D02*
X552450Y768350D01*
X558800Y762000D02*
X533400Y762000D01*
X558800Y762000D02*
X558800Y787400D01*
X533400Y787400D01*
X558800Y762000D02*
X762000Y762000D01*
D16*
X559435Y794385D02*
X559435Y805825D01*
X565155Y805825D01*
X567062Y803918D01*
X567062Y800105D01*
X565155Y798198D01*
X559435Y798198D01*
X563248Y798198D02*
X567062Y794385D01*
X571129Y794385D02*
X571129Y805825D01*
X578755Y794385D01*
X578755Y805825D01*
X588543Y805825D02*
X588543Y794385D01*
X582823Y800105D02*
X588543Y805825D01*
X590449Y800105D02*
X582823Y800105D01*
D11*
X419100Y740410D02*
X215900Y740410D01*
X215900Y681990D02*
X419100Y681990D01*
X419100Y740410D01*
X215900Y740410D02*
X215900Y721360D01*
X215900Y701040D02*
X215900Y681990D01*
X215900Y701040D02*
X216147Y701043D01*
X216395Y701052D01*
X216642Y701067D01*
X216888Y701088D01*
X217134Y701115D01*
X217379Y701148D01*
X217624Y701187D01*
X217867Y701232D01*
X218109Y701283D01*
X218350Y701340D01*
X218589Y701402D01*
X218827Y701471D01*
X219063Y701545D01*
X219297Y701625D01*
X219529Y701710D01*
X219759Y701802D01*
X219987Y701898D01*
X220212Y702001D01*
X220435Y702108D01*
X220655Y702222D01*
X220872Y702340D01*
X221087Y702464D01*
X221298Y702593D01*
X221506Y702727D01*
X221711Y702866D01*
X221912Y703010D01*
X222110Y703158D01*
X222304Y703312D01*
X222494Y703470D01*
X222680Y703633D01*
X222862Y703800D01*
X223040Y703972D01*
X223214Y704148D01*
X223384Y704328D01*
X223549Y704513D01*
X223709Y704701D01*
X223865Y704893D01*
X224017Y705089D01*
X224163Y705288D01*
X224305Y705491D01*
X224441Y705698D01*
X224573Y705907D01*
X224699Y706120D01*
X224820Y706336D01*
X224936Y706554D01*
X225046Y706776D01*
X225151Y707000D01*
X225251Y707226D01*
X225345Y707455D01*
X225433Y707686D01*
X225516Y707920D01*
X225593Y708155D01*
X225664Y708392D01*
X225730Y708630D01*
X225789Y708870D01*
X225843Y709112D01*
X225891Y709355D01*
X225933Y709598D01*
X225969Y709843D01*
X225999Y710089D01*
X226023Y710335D01*
X226041Y710582D01*
X226053Y710829D01*
X226059Y711076D01*
X226059Y711324D01*
X226053Y711571D01*
X226041Y711818D01*
X226023Y712065D01*
X225999Y712311D01*
X225969Y712557D01*
X225933Y712802D01*
X225891Y713045D01*
X225843Y713288D01*
X225789Y713530D01*
X225730Y713770D01*
X225664Y714008D01*
X225593Y714245D01*
X225516Y714480D01*
X225433Y714714D01*
X225345Y714945D01*
X225251Y715174D01*
X225151Y715400D01*
X225046Y715624D01*
X224936Y715846D01*
X224820Y716064D01*
X224699Y716280D01*
X224573Y716493D01*
X224441Y716702D01*
X224305Y716909D01*
X224163Y717112D01*
X224017Y717311D01*
X223865Y717507D01*
X223709Y717699D01*
X223549Y717887D01*
X223384Y718072D01*
X223214Y718252D01*
X223040Y718428D01*
X222862Y718600D01*
X222680Y718767D01*
X222494Y718930D01*
X222304Y719088D01*
X222110Y719242D01*
X221912Y719390D01*
X221711Y719534D01*
X221506Y719673D01*
X221298Y719807D01*
X221087Y719936D01*
X220872Y720060D01*
X220655Y720178D01*
X220435Y720292D01*
X220212Y720399D01*
X219987Y720502D01*
X219759Y720598D01*
X219529Y720690D01*
X219297Y720775D01*
X219063Y720855D01*
X218827Y720929D01*
X218589Y720998D01*
X218350Y721060D01*
X218109Y721117D01*
X217867Y721168D01*
X217624Y721213D01*
X217379Y721252D01*
X217134Y721285D01*
X216888Y721312D01*
X216642Y721333D01*
X216395Y721348D01*
X216147Y721357D01*
X215900Y721360D01*
D16*
X211455Y686438D02*
X211455Y682625D01*
X211455Y684532D02*
X200015Y684532D01*
X200015Y686438D02*
X200015Y682625D01*
X200015Y696141D02*
X201922Y698047D01*
X200015Y696141D02*
X200015Y692328D01*
X201922Y690421D01*
X209548Y690421D01*
X211455Y692328D01*
X211455Y696141D01*
X209548Y698047D01*
X203829Y702115D02*
X200015Y705928D01*
X211455Y705928D01*
X211455Y702115D02*
X211455Y709741D01*
X203829Y713809D02*
X200015Y717622D01*
X211455Y717622D01*
X211455Y713809D02*
X211455Y721435D01*
D11*
X241300Y588010D02*
X419100Y588010D01*
X419100Y529590D02*
X241300Y529590D01*
X419100Y529590D02*
X419100Y588010D01*
X241300Y588010D02*
X241300Y568960D01*
X241300Y548640D02*
X241300Y529590D01*
X241300Y548640D02*
X241547Y548643D01*
X241795Y548652D01*
X242042Y548667D01*
X242288Y548688D01*
X242534Y548715D01*
X242779Y548748D01*
X243024Y548787D01*
X243267Y548832D01*
X243509Y548883D01*
X243750Y548940D01*
X243989Y549002D01*
X244227Y549071D01*
X244463Y549145D01*
X244697Y549225D01*
X244929Y549310D01*
X245159Y549402D01*
X245387Y549498D01*
X245612Y549601D01*
X245835Y549708D01*
X246055Y549822D01*
X246272Y549940D01*
X246487Y550064D01*
X246698Y550193D01*
X246906Y550327D01*
X247111Y550466D01*
X247312Y550610D01*
X247510Y550758D01*
X247704Y550912D01*
X247894Y551070D01*
X248080Y551233D01*
X248262Y551400D01*
X248440Y551572D01*
X248614Y551748D01*
X248784Y551928D01*
X248949Y552113D01*
X249109Y552301D01*
X249265Y552493D01*
X249417Y552689D01*
X249563Y552888D01*
X249705Y553091D01*
X249841Y553298D01*
X249973Y553507D01*
X250099Y553720D01*
X250220Y553936D01*
X250336Y554154D01*
X250446Y554376D01*
X250551Y554600D01*
X250651Y554826D01*
X250745Y555055D01*
X250833Y555286D01*
X250916Y555520D01*
X250993Y555755D01*
X251064Y555992D01*
X251130Y556230D01*
X251189Y556470D01*
X251243Y556712D01*
X251291Y556955D01*
X251333Y557198D01*
X251369Y557443D01*
X251399Y557689D01*
X251423Y557935D01*
X251441Y558182D01*
X251453Y558429D01*
X251459Y558676D01*
X251459Y558924D01*
X251453Y559171D01*
X251441Y559418D01*
X251423Y559665D01*
X251399Y559911D01*
X251369Y560157D01*
X251333Y560402D01*
X251291Y560645D01*
X251243Y560888D01*
X251189Y561130D01*
X251130Y561370D01*
X251064Y561608D01*
X250993Y561845D01*
X250916Y562080D01*
X250833Y562314D01*
X250745Y562545D01*
X250651Y562774D01*
X250551Y563000D01*
X250446Y563224D01*
X250336Y563446D01*
X250220Y563664D01*
X250099Y563880D01*
X249973Y564093D01*
X249841Y564302D01*
X249705Y564509D01*
X249563Y564712D01*
X249417Y564911D01*
X249265Y565107D01*
X249109Y565299D01*
X248949Y565487D01*
X248784Y565672D01*
X248614Y565852D01*
X248440Y566028D01*
X248262Y566200D01*
X248080Y566367D01*
X247894Y566530D01*
X247704Y566688D01*
X247510Y566842D01*
X247312Y566990D01*
X247111Y567134D01*
X246906Y567273D01*
X246698Y567407D01*
X246487Y567536D01*
X246272Y567660D01*
X246055Y567778D01*
X245835Y567892D01*
X245612Y567999D01*
X245387Y568102D01*
X245159Y568198D01*
X244929Y568290D01*
X244697Y568375D01*
X244463Y568455D01*
X244227Y568529D01*
X243989Y568598D01*
X243750Y568660D01*
X243509Y568717D01*
X243267Y568768D01*
X243024Y568813D01*
X242779Y568852D01*
X242534Y568885D01*
X242288Y568912D01*
X242042Y568933D01*
X241795Y568948D01*
X241547Y568957D01*
X241300Y568960D01*
D16*
X236855Y532768D02*
X236855Y528955D01*
X236855Y530862D02*
X225415Y530862D01*
X225415Y532768D02*
X225415Y528955D01*
X225415Y542471D02*
X227322Y544377D01*
X225415Y542471D02*
X225415Y538658D01*
X227322Y536751D01*
X234948Y536751D01*
X236855Y538658D01*
X236855Y542471D01*
X234948Y544377D01*
X229229Y548445D02*
X225415Y552258D01*
X236855Y552258D01*
X236855Y548445D02*
X236855Y556071D01*
X236855Y560139D02*
X236855Y567765D01*
X236855Y560139D02*
X229229Y567765D01*
X227322Y567765D01*
X225415Y565859D01*
X225415Y562046D01*
X227322Y560139D01*
D11*
X241300Y1045210D02*
X419100Y1045210D01*
X419100Y986790D02*
X241300Y986790D01*
X419100Y986790D02*
X419100Y1045210D01*
X241300Y1045210D02*
X241300Y1026160D01*
X241300Y1005840D02*
X241300Y986790D01*
X241300Y1005840D02*
X241547Y1005843D01*
X241795Y1005852D01*
X242042Y1005867D01*
X242288Y1005888D01*
X242534Y1005915D01*
X242779Y1005948D01*
X243024Y1005987D01*
X243267Y1006032D01*
X243509Y1006083D01*
X243750Y1006140D01*
X243989Y1006202D01*
X244227Y1006271D01*
X244463Y1006345D01*
X244697Y1006425D01*
X244929Y1006510D01*
X245159Y1006602D01*
X245387Y1006698D01*
X245612Y1006801D01*
X245835Y1006908D01*
X246055Y1007022D01*
X246272Y1007140D01*
X246487Y1007264D01*
X246698Y1007393D01*
X246906Y1007527D01*
X247111Y1007666D01*
X247312Y1007810D01*
X247510Y1007958D01*
X247704Y1008112D01*
X247894Y1008270D01*
X248080Y1008433D01*
X248262Y1008600D01*
X248440Y1008772D01*
X248614Y1008948D01*
X248784Y1009128D01*
X248949Y1009313D01*
X249109Y1009501D01*
X249265Y1009693D01*
X249417Y1009889D01*
X249563Y1010088D01*
X249705Y1010291D01*
X249841Y1010498D01*
X249973Y1010707D01*
X250099Y1010920D01*
X250220Y1011136D01*
X250336Y1011354D01*
X250446Y1011576D01*
X250551Y1011800D01*
X250651Y1012026D01*
X250745Y1012255D01*
X250833Y1012486D01*
X250916Y1012720D01*
X250993Y1012955D01*
X251064Y1013192D01*
X251130Y1013430D01*
X251189Y1013670D01*
X251243Y1013912D01*
X251291Y1014155D01*
X251333Y1014398D01*
X251369Y1014643D01*
X251399Y1014889D01*
X251423Y1015135D01*
X251441Y1015382D01*
X251453Y1015629D01*
X251459Y1015876D01*
X251459Y1016124D01*
X251453Y1016371D01*
X251441Y1016618D01*
X251423Y1016865D01*
X251399Y1017111D01*
X251369Y1017357D01*
X251333Y1017602D01*
X251291Y1017845D01*
X251243Y1018088D01*
X251189Y1018330D01*
X251130Y1018570D01*
X251064Y1018808D01*
X250993Y1019045D01*
X250916Y1019280D01*
X250833Y1019514D01*
X250745Y1019745D01*
X250651Y1019974D01*
X250551Y1020200D01*
X250446Y1020424D01*
X250336Y1020646D01*
X250220Y1020864D01*
X250099Y1021080D01*
X249973Y1021293D01*
X249841Y1021502D01*
X249705Y1021709D01*
X249563Y1021912D01*
X249417Y1022111D01*
X249265Y1022307D01*
X249109Y1022499D01*
X248949Y1022687D01*
X248784Y1022872D01*
X248614Y1023052D01*
X248440Y1023228D01*
X248262Y1023400D01*
X248080Y1023567D01*
X247894Y1023730D01*
X247704Y1023888D01*
X247510Y1024042D01*
X247312Y1024190D01*
X247111Y1024334D01*
X246906Y1024473D01*
X246698Y1024607D01*
X246487Y1024736D01*
X246272Y1024860D01*
X246055Y1024978D01*
X245835Y1025092D01*
X245612Y1025199D01*
X245387Y1025302D01*
X245159Y1025398D01*
X244929Y1025490D01*
X244697Y1025575D01*
X244463Y1025655D01*
X244227Y1025729D01*
X243989Y1025798D01*
X243750Y1025860D01*
X243509Y1025917D01*
X243267Y1025968D01*
X243024Y1026013D01*
X242779Y1026052D01*
X242534Y1026085D01*
X242288Y1026112D01*
X242042Y1026133D01*
X241795Y1026148D01*
X241547Y1026157D01*
X241300Y1026160D01*
D16*
X236855Y989968D02*
X236855Y986155D01*
X236855Y988062D02*
X225415Y988062D01*
X225415Y989968D02*
X225415Y986155D01*
X225415Y999671D02*
X227322Y1001577D01*
X225415Y999671D02*
X225415Y995858D01*
X227322Y993951D01*
X234948Y993951D01*
X236855Y995858D01*
X236855Y999671D01*
X234948Y1001577D01*
X229229Y1005645D02*
X225415Y1009458D01*
X236855Y1009458D01*
X236855Y1005645D02*
X236855Y1013271D01*
X234948Y1017339D02*
X227322Y1017339D01*
X225415Y1019246D01*
X225415Y1023059D01*
X227322Y1024965D01*
X234948Y1024965D01*
X236855Y1023059D01*
X236855Y1019246D01*
X234948Y1017339D01*
X227322Y1024965D01*
D11*
X915670Y304800D02*
X915670Y251460D01*
X915670Y304800D02*
X915979Y304804D01*
X916288Y304815D01*
X916597Y304834D01*
X916905Y304860D01*
X917213Y304894D01*
X917519Y304935D01*
X917825Y304984D01*
X918129Y305040D01*
X918431Y305104D01*
X918732Y305175D01*
X919032Y305253D01*
X919329Y305338D01*
X919624Y305431D01*
X919917Y305531D01*
X920207Y305638D01*
X920494Y305752D01*
X920779Y305873D01*
X921061Y306001D01*
X921339Y306135D01*
X921614Y306277D01*
X921886Y306425D01*
X922153Y306580D01*
X922417Y306741D01*
X922677Y306908D01*
X922933Y307082D01*
X923185Y307262D01*
X923432Y307448D01*
X923674Y307640D01*
X923912Y307838D01*
X924145Y308041D01*
X924373Y308251D01*
X924595Y308465D01*
X924813Y308685D01*
X925025Y308911D01*
X925231Y309141D01*
X925432Y309376D01*
X925627Y309616D01*
X925816Y309861D01*
X925999Y310110D01*
X926176Y310364D01*
X926346Y310622D01*
X926511Y310884D01*
X926669Y311150D01*
X926820Y311420D01*
X926965Y311693D01*
X927103Y311970D01*
X927234Y312250D01*
X927358Y312533D01*
X927476Y312819D01*
X927586Y313108D01*
X927690Y313399D01*
X927786Y313693D01*
X927875Y313989D01*
X927957Y314288D01*
X928032Y314588D01*
X928099Y314890D01*
X928159Y315193D01*
X928211Y315498D01*
X928256Y315804D01*
X928294Y316111D01*
X928324Y316419D01*
X928346Y316727D01*
X928362Y317036D01*
X928369Y317345D01*
X928369Y317655D01*
X928362Y317964D01*
X928346Y318273D01*
X928324Y318581D01*
X928294Y318889D01*
X928256Y319196D01*
X928211Y319502D01*
X928159Y319807D01*
X928099Y320110D01*
X928032Y320412D01*
X927957Y320712D01*
X927875Y321011D01*
X927786Y321307D01*
X927690Y321601D01*
X927586Y321892D01*
X927476Y322181D01*
X927358Y322467D01*
X927234Y322750D01*
X927103Y323030D01*
X926965Y323307D01*
X926820Y323580D01*
X926669Y323850D01*
X926511Y324116D01*
X926346Y324378D01*
X926176Y324636D01*
X925999Y324890D01*
X925816Y325139D01*
X925627Y325384D01*
X925432Y325624D01*
X925231Y325859D01*
X925025Y326089D01*
X924813Y326315D01*
X924595Y326535D01*
X924373Y326749D01*
X924145Y326959D01*
X923912Y327162D01*
X923674Y327360D01*
X923432Y327552D01*
X923185Y327738D01*
X922933Y327918D01*
X922677Y328092D01*
X922417Y328259D01*
X922153Y328420D01*
X921886Y328575D01*
X921614Y328723D01*
X921339Y328865D01*
X921061Y328999D01*
X920779Y329127D01*
X920494Y329248D01*
X920207Y329362D01*
X919917Y329469D01*
X919624Y329569D01*
X919329Y329662D01*
X919032Y329747D01*
X918732Y329825D01*
X918431Y329896D01*
X918129Y329960D01*
X917825Y330016D01*
X917519Y330065D01*
X917213Y330106D01*
X916905Y330140D01*
X916597Y330166D01*
X916288Y330185D01*
X915979Y330196D01*
X915670Y330200D01*
X1268730Y383540D02*
X1268730Y251460D01*
X915670Y330200D02*
X915670Y383540D01*
X1268730Y383540D01*
X1268730Y251460D02*
X915670Y251460D01*
D18*
X913511Y254889D02*
X913511Y260228D01*
X913511Y257558D02*
X897495Y257558D01*
X897495Y254889D02*
X897495Y260228D01*
X897495Y273811D02*
X900165Y276481D01*
X897495Y273811D02*
X897495Y268473D01*
X900165Y265803D01*
X910842Y265803D01*
X913511Y268473D01*
X913511Y273811D01*
X910842Y276481D01*
X902834Y282175D02*
X897495Y287514D01*
X913511Y287514D01*
X913511Y292852D02*
X913511Y282175D01*
X900165Y298547D02*
X897495Y301216D01*
X897495Y306554D01*
X900165Y309224D01*
X902834Y309224D01*
X905503Y306554D01*
X905503Y303885D01*
X905503Y306554D02*
X908172Y309224D01*
X910842Y309224D01*
X913511Y306554D01*
X913511Y301216D01*
X910842Y298547D01*
D11*
X863600Y956310D02*
X863600Y999490D01*
X889000Y999490D02*
X889000Y956310D01*
X886460Y1002030D02*
X866140Y1002030D01*
X866140Y953770D02*
X886460Y953770D01*
X863600Y999490D02*
X863602Y999590D01*
X863608Y999689D01*
X863618Y999789D01*
X863631Y999887D01*
X863649Y999986D01*
X863670Y1000083D01*
X863695Y1000179D01*
X863724Y1000275D01*
X863757Y1000369D01*
X863793Y1000462D01*
X863833Y1000553D01*
X863877Y1000643D01*
X863924Y1000731D01*
X863974Y1000817D01*
X864028Y1000901D01*
X864085Y1000983D01*
X864145Y1001062D01*
X864209Y1001140D01*
X864275Y1001214D01*
X864344Y1001286D01*
X864416Y1001355D01*
X864490Y1001421D01*
X864568Y1001485D01*
X864647Y1001545D01*
X864729Y1001602D01*
X864813Y1001656D01*
X864899Y1001706D01*
X864987Y1001753D01*
X865077Y1001797D01*
X865168Y1001837D01*
X865261Y1001873D01*
X865355Y1001906D01*
X865451Y1001935D01*
X865547Y1001960D01*
X865644Y1001981D01*
X865743Y1001999D01*
X865841Y1002012D01*
X865941Y1002022D01*
X866040Y1002028D01*
X866140Y1002030D01*
X863600Y956310D02*
X863602Y956210D01*
X863608Y956111D01*
X863618Y956011D01*
X863631Y955913D01*
X863649Y955814D01*
X863670Y955717D01*
X863695Y955621D01*
X863724Y955525D01*
X863757Y955431D01*
X863793Y955338D01*
X863833Y955247D01*
X863877Y955157D01*
X863924Y955069D01*
X863974Y954983D01*
X864028Y954899D01*
X864085Y954817D01*
X864145Y954738D01*
X864209Y954660D01*
X864275Y954586D01*
X864344Y954514D01*
X864416Y954445D01*
X864490Y954379D01*
X864568Y954315D01*
X864647Y954255D01*
X864729Y954198D01*
X864813Y954144D01*
X864899Y954094D01*
X864987Y954047D01*
X865077Y954003D01*
X865168Y953963D01*
X865261Y953927D01*
X865355Y953894D01*
X865451Y953865D01*
X865547Y953840D01*
X865644Y953819D01*
X865743Y953801D01*
X865841Y953788D01*
X865941Y953778D01*
X866040Y953772D01*
X866140Y953770D01*
X889000Y999490D02*
X888998Y999590D01*
X888992Y999689D01*
X888982Y999789D01*
X888969Y999887D01*
X888951Y999986D01*
X888930Y1000083D01*
X888905Y1000179D01*
X888876Y1000275D01*
X888843Y1000369D01*
X888807Y1000462D01*
X888767Y1000553D01*
X888723Y1000643D01*
X888676Y1000731D01*
X888626Y1000817D01*
X888572Y1000901D01*
X888515Y1000983D01*
X888455Y1001062D01*
X888391Y1001140D01*
X888325Y1001214D01*
X888256Y1001286D01*
X888184Y1001355D01*
X888110Y1001421D01*
X888032Y1001485D01*
X887953Y1001545D01*
X887871Y1001602D01*
X887787Y1001656D01*
X887701Y1001706D01*
X887613Y1001753D01*
X887523Y1001797D01*
X887432Y1001837D01*
X887339Y1001873D01*
X887245Y1001906D01*
X887149Y1001935D01*
X887053Y1001960D01*
X886956Y1001981D01*
X886857Y1001999D01*
X886759Y1002012D01*
X886659Y1002022D01*
X886560Y1002028D01*
X886460Y1002030D01*
X889000Y956310D02*
X888998Y956210D01*
X888992Y956111D01*
X888982Y956011D01*
X888969Y955913D01*
X888951Y955814D01*
X888930Y955717D01*
X888905Y955621D01*
X888876Y955525D01*
X888843Y955431D01*
X888807Y955338D01*
X888767Y955247D01*
X888723Y955157D01*
X888676Y955069D01*
X888626Y954983D01*
X888572Y954899D01*
X888515Y954817D01*
X888455Y954738D01*
X888391Y954660D01*
X888325Y954586D01*
X888256Y954514D01*
X888184Y954445D01*
X888110Y954379D01*
X888032Y954315D01*
X887953Y954255D01*
X887871Y954198D01*
X887787Y954144D01*
X887701Y954094D01*
X887613Y954047D01*
X887523Y954003D01*
X887432Y953963D01*
X887339Y953927D01*
X887245Y953894D01*
X887149Y953865D01*
X887053Y953840D01*
X886956Y953819D01*
X886857Y953801D01*
X886759Y953788D01*
X886659Y953778D01*
X886560Y953772D01*
X886460Y953770D01*
X876300Y980440D02*
X876300Y981710D01*
D13*
X876300Y980440D02*
X868680Y980440D01*
X876300Y980440D02*
X883920Y980440D01*
X876300Y975360D02*
X868680Y975360D01*
X876300Y975360D02*
X883920Y975360D01*
D11*
X876300Y975360D02*
X876300Y974090D01*
D16*
X850892Y963302D02*
X848985Y961395D01*
X848985Y957582D01*
X850892Y955675D01*
X858518Y955675D01*
X860425Y957582D01*
X860425Y961395D01*
X858518Y963302D01*
X852799Y967369D02*
X848985Y971182D01*
X860425Y971182D01*
X860425Y967369D02*
X860425Y974995D01*
D11*
X863600Y770890D02*
X863600Y727710D01*
X889000Y727710D02*
X889000Y770890D01*
X886460Y773430D02*
X866140Y773430D01*
X866140Y725170D02*
X886460Y725170D01*
X863600Y770890D02*
X863602Y770990D01*
X863608Y771089D01*
X863618Y771189D01*
X863631Y771287D01*
X863649Y771386D01*
X863670Y771483D01*
X863695Y771579D01*
X863724Y771675D01*
X863757Y771769D01*
X863793Y771862D01*
X863833Y771953D01*
X863877Y772043D01*
X863924Y772131D01*
X863974Y772217D01*
X864028Y772301D01*
X864085Y772383D01*
X864145Y772462D01*
X864209Y772540D01*
X864275Y772614D01*
X864344Y772686D01*
X864416Y772755D01*
X864490Y772821D01*
X864568Y772885D01*
X864647Y772945D01*
X864729Y773002D01*
X864813Y773056D01*
X864899Y773106D01*
X864987Y773153D01*
X865077Y773197D01*
X865168Y773237D01*
X865261Y773273D01*
X865355Y773306D01*
X865451Y773335D01*
X865547Y773360D01*
X865644Y773381D01*
X865743Y773399D01*
X865841Y773412D01*
X865941Y773422D01*
X866040Y773428D01*
X866140Y773430D01*
X863600Y727710D02*
X863602Y727610D01*
X863608Y727511D01*
X863618Y727411D01*
X863631Y727313D01*
X863649Y727214D01*
X863670Y727117D01*
X863695Y727021D01*
X863724Y726925D01*
X863757Y726831D01*
X863793Y726738D01*
X863833Y726647D01*
X863877Y726557D01*
X863924Y726469D01*
X863974Y726383D01*
X864028Y726299D01*
X864085Y726217D01*
X864145Y726138D01*
X864209Y726060D01*
X864275Y725986D01*
X864344Y725914D01*
X864416Y725845D01*
X864490Y725779D01*
X864568Y725715D01*
X864647Y725655D01*
X864729Y725598D01*
X864813Y725544D01*
X864899Y725494D01*
X864987Y725447D01*
X865077Y725403D01*
X865168Y725363D01*
X865261Y725327D01*
X865355Y725294D01*
X865451Y725265D01*
X865547Y725240D01*
X865644Y725219D01*
X865743Y725201D01*
X865841Y725188D01*
X865941Y725178D01*
X866040Y725172D01*
X866140Y725170D01*
X889000Y770890D02*
X888998Y770990D01*
X888992Y771089D01*
X888982Y771189D01*
X888969Y771287D01*
X888951Y771386D01*
X888930Y771483D01*
X888905Y771579D01*
X888876Y771675D01*
X888843Y771769D01*
X888807Y771862D01*
X888767Y771953D01*
X888723Y772043D01*
X888676Y772131D01*
X888626Y772217D01*
X888572Y772301D01*
X888515Y772383D01*
X888455Y772462D01*
X888391Y772540D01*
X888325Y772614D01*
X888256Y772686D01*
X888184Y772755D01*
X888110Y772821D01*
X888032Y772885D01*
X887953Y772945D01*
X887871Y773002D01*
X887787Y773056D01*
X887701Y773106D01*
X887613Y773153D01*
X887523Y773197D01*
X887432Y773237D01*
X887339Y773273D01*
X887245Y773306D01*
X887149Y773335D01*
X887053Y773360D01*
X886956Y773381D01*
X886857Y773399D01*
X886759Y773412D01*
X886659Y773422D01*
X886560Y773428D01*
X886460Y773430D01*
X889000Y727710D02*
X888998Y727610D01*
X888992Y727511D01*
X888982Y727411D01*
X888969Y727313D01*
X888951Y727214D01*
X888930Y727117D01*
X888905Y727021D01*
X888876Y726925D01*
X888843Y726831D01*
X888807Y726738D01*
X888767Y726647D01*
X888723Y726557D01*
X888676Y726469D01*
X888626Y726383D01*
X888572Y726299D01*
X888515Y726217D01*
X888455Y726138D01*
X888391Y726060D01*
X888325Y725986D01*
X888256Y725914D01*
X888184Y725845D01*
X888110Y725779D01*
X888032Y725715D01*
X887953Y725655D01*
X887871Y725598D01*
X887787Y725544D01*
X887701Y725494D01*
X887613Y725447D01*
X887523Y725403D01*
X887432Y725363D01*
X887339Y725327D01*
X887245Y725294D01*
X887149Y725265D01*
X887053Y725240D01*
X886956Y725219D01*
X886857Y725201D01*
X886759Y725188D01*
X886659Y725178D01*
X886560Y725172D01*
X886460Y725170D01*
X876300Y751840D02*
X876300Y753110D01*
D13*
X876300Y751840D02*
X868680Y751840D01*
X876300Y751840D02*
X883920Y751840D01*
X876300Y746760D02*
X868680Y746760D01*
X876300Y746760D02*
X883920Y746760D01*
D11*
X876300Y746760D02*
X876300Y745490D01*
D16*
X850892Y734702D02*
X848985Y732795D01*
X848985Y728982D01*
X850892Y727075D01*
X858518Y727075D01*
X860425Y728982D01*
X860425Y732795D01*
X858518Y734702D01*
X860425Y738769D02*
X860425Y746395D01*
X860425Y738769D02*
X852799Y746395D01*
X850892Y746395D01*
X848985Y744489D01*
X848985Y740676D01*
X850892Y738769D01*
D11*
X863600Y339090D02*
X863600Y295910D01*
X889000Y295910D02*
X889000Y339090D01*
X886460Y341630D02*
X866140Y341630D01*
X866140Y293370D02*
X886460Y293370D01*
X863600Y339090D02*
X863602Y339190D01*
X863608Y339289D01*
X863618Y339389D01*
X863631Y339487D01*
X863649Y339586D01*
X863670Y339683D01*
X863695Y339779D01*
X863724Y339875D01*
X863757Y339969D01*
X863793Y340062D01*
X863833Y340153D01*
X863877Y340243D01*
X863924Y340331D01*
X863974Y340417D01*
X864028Y340501D01*
X864085Y340583D01*
X864145Y340662D01*
X864209Y340740D01*
X864275Y340814D01*
X864344Y340886D01*
X864416Y340955D01*
X864490Y341021D01*
X864568Y341085D01*
X864647Y341145D01*
X864729Y341202D01*
X864813Y341256D01*
X864899Y341306D01*
X864987Y341353D01*
X865077Y341397D01*
X865168Y341437D01*
X865261Y341473D01*
X865355Y341506D01*
X865451Y341535D01*
X865547Y341560D01*
X865644Y341581D01*
X865743Y341599D01*
X865841Y341612D01*
X865941Y341622D01*
X866040Y341628D01*
X866140Y341630D01*
X863600Y295910D02*
X863602Y295810D01*
X863608Y295711D01*
X863618Y295611D01*
X863631Y295513D01*
X863649Y295414D01*
X863670Y295317D01*
X863695Y295221D01*
X863724Y295125D01*
X863757Y295031D01*
X863793Y294938D01*
X863833Y294847D01*
X863877Y294757D01*
X863924Y294669D01*
X863974Y294583D01*
X864028Y294499D01*
X864085Y294417D01*
X864145Y294338D01*
X864209Y294260D01*
X864275Y294186D01*
X864344Y294114D01*
X864416Y294045D01*
X864490Y293979D01*
X864568Y293915D01*
X864647Y293855D01*
X864729Y293798D01*
X864813Y293744D01*
X864899Y293694D01*
X864987Y293647D01*
X865077Y293603D01*
X865168Y293563D01*
X865261Y293527D01*
X865355Y293494D01*
X865451Y293465D01*
X865547Y293440D01*
X865644Y293419D01*
X865743Y293401D01*
X865841Y293388D01*
X865941Y293378D01*
X866040Y293372D01*
X866140Y293370D01*
X889000Y339090D02*
X888998Y339190D01*
X888992Y339289D01*
X888982Y339389D01*
X888969Y339487D01*
X888951Y339586D01*
X888930Y339683D01*
X888905Y339779D01*
X888876Y339875D01*
X888843Y339969D01*
X888807Y340062D01*
X888767Y340153D01*
X888723Y340243D01*
X888676Y340331D01*
X888626Y340417D01*
X888572Y340501D01*
X888515Y340583D01*
X888455Y340662D01*
X888391Y340740D01*
X888325Y340814D01*
X888256Y340886D01*
X888184Y340955D01*
X888110Y341021D01*
X888032Y341085D01*
X887953Y341145D01*
X887871Y341202D01*
X887787Y341256D01*
X887701Y341306D01*
X887613Y341353D01*
X887523Y341397D01*
X887432Y341437D01*
X887339Y341473D01*
X887245Y341506D01*
X887149Y341535D01*
X887053Y341560D01*
X886956Y341581D01*
X886857Y341599D01*
X886759Y341612D01*
X886659Y341622D01*
X886560Y341628D01*
X886460Y341630D01*
X889000Y295910D02*
X888998Y295810D01*
X888992Y295711D01*
X888982Y295611D01*
X888969Y295513D01*
X888951Y295414D01*
X888930Y295317D01*
X888905Y295221D01*
X888876Y295125D01*
X888843Y295031D01*
X888807Y294938D01*
X888767Y294847D01*
X888723Y294757D01*
X888676Y294669D01*
X888626Y294583D01*
X888572Y294499D01*
X888515Y294417D01*
X888455Y294338D01*
X888391Y294260D01*
X888325Y294186D01*
X888256Y294114D01*
X888184Y294045D01*
X888110Y293979D01*
X888032Y293915D01*
X887953Y293855D01*
X887871Y293798D01*
X887787Y293744D01*
X887701Y293694D01*
X887613Y293647D01*
X887523Y293603D01*
X887432Y293563D01*
X887339Y293527D01*
X887245Y293494D01*
X887149Y293465D01*
X887053Y293440D01*
X886956Y293419D01*
X886857Y293401D01*
X886759Y293388D01*
X886659Y293378D01*
X886560Y293372D01*
X886460Y293370D01*
X876300Y320040D02*
X876300Y321310D01*
D13*
X876300Y320040D02*
X868680Y320040D01*
X876300Y320040D02*
X883920Y320040D01*
X876300Y314960D02*
X868680Y314960D01*
X876300Y314960D02*
X883920Y314960D01*
D11*
X876300Y314960D02*
X876300Y313690D01*
D16*
X850892Y302902D02*
X848985Y300995D01*
X848985Y297182D01*
X850892Y295275D01*
X858518Y295275D01*
X860425Y297182D01*
X860425Y300995D01*
X858518Y302902D01*
X850892Y306969D02*
X848985Y308876D01*
X848985Y312689D01*
X850892Y314595D01*
X852799Y314595D01*
X854705Y312689D01*
X854705Y310782D01*
X854705Y312689D02*
X856612Y314595D01*
X858518Y314595D01*
X860425Y312689D01*
X860425Y308876D01*
X858518Y306969D01*
D11*
X457200Y237490D02*
X457200Y194310D01*
X482600Y194310D02*
X482600Y237490D01*
X480060Y240030D02*
X459740Y240030D01*
X459740Y191770D02*
X480060Y191770D01*
X457200Y237490D02*
X457202Y237590D01*
X457208Y237689D01*
X457218Y237789D01*
X457231Y237887D01*
X457249Y237986D01*
X457270Y238083D01*
X457295Y238179D01*
X457324Y238275D01*
X457357Y238369D01*
X457393Y238462D01*
X457433Y238553D01*
X457477Y238643D01*
X457524Y238731D01*
X457574Y238817D01*
X457628Y238901D01*
X457685Y238983D01*
X457745Y239062D01*
X457809Y239140D01*
X457875Y239214D01*
X457944Y239286D01*
X458016Y239355D01*
X458090Y239421D01*
X458168Y239485D01*
X458247Y239545D01*
X458329Y239602D01*
X458413Y239656D01*
X458499Y239706D01*
X458587Y239753D01*
X458677Y239797D01*
X458768Y239837D01*
X458861Y239873D01*
X458955Y239906D01*
X459051Y239935D01*
X459147Y239960D01*
X459244Y239981D01*
X459343Y239999D01*
X459441Y240012D01*
X459541Y240022D01*
X459640Y240028D01*
X459740Y240030D01*
X457200Y194310D02*
X457202Y194210D01*
X457208Y194111D01*
X457218Y194011D01*
X457231Y193913D01*
X457249Y193814D01*
X457270Y193717D01*
X457295Y193621D01*
X457324Y193525D01*
X457357Y193431D01*
X457393Y193338D01*
X457433Y193247D01*
X457477Y193157D01*
X457524Y193069D01*
X457574Y192983D01*
X457628Y192899D01*
X457685Y192817D01*
X457745Y192738D01*
X457809Y192660D01*
X457875Y192586D01*
X457944Y192514D01*
X458016Y192445D01*
X458090Y192379D01*
X458168Y192315D01*
X458247Y192255D01*
X458329Y192198D01*
X458413Y192144D01*
X458499Y192094D01*
X458587Y192047D01*
X458677Y192003D01*
X458768Y191963D01*
X458861Y191927D01*
X458955Y191894D01*
X459051Y191865D01*
X459147Y191840D01*
X459244Y191819D01*
X459343Y191801D01*
X459441Y191788D01*
X459541Y191778D01*
X459640Y191772D01*
X459740Y191770D01*
X482600Y237490D02*
X482598Y237590D01*
X482592Y237689D01*
X482582Y237789D01*
X482569Y237887D01*
X482551Y237986D01*
X482530Y238083D01*
X482505Y238179D01*
X482476Y238275D01*
X482443Y238369D01*
X482407Y238462D01*
X482367Y238553D01*
X482323Y238643D01*
X482276Y238731D01*
X482226Y238817D01*
X482172Y238901D01*
X482115Y238983D01*
X482055Y239062D01*
X481991Y239140D01*
X481925Y239214D01*
X481856Y239286D01*
X481784Y239355D01*
X481710Y239421D01*
X481632Y239485D01*
X481553Y239545D01*
X481471Y239602D01*
X481387Y239656D01*
X481301Y239706D01*
X481213Y239753D01*
X481123Y239797D01*
X481032Y239837D01*
X480939Y239873D01*
X480845Y239906D01*
X480749Y239935D01*
X480653Y239960D01*
X480556Y239981D01*
X480457Y239999D01*
X480359Y240012D01*
X480259Y240022D01*
X480160Y240028D01*
X480060Y240030D01*
X482600Y194310D02*
X482598Y194210D01*
X482592Y194111D01*
X482582Y194011D01*
X482569Y193913D01*
X482551Y193814D01*
X482530Y193717D01*
X482505Y193621D01*
X482476Y193525D01*
X482443Y193431D01*
X482407Y193338D01*
X482367Y193247D01*
X482323Y193157D01*
X482276Y193069D01*
X482226Y192983D01*
X482172Y192899D01*
X482115Y192817D01*
X482055Y192738D01*
X481991Y192660D01*
X481925Y192586D01*
X481856Y192514D01*
X481784Y192445D01*
X481710Y192379D01*
X481632Y192315D01*
X481553Y192255D01*
X481471Y192198D01*
X481387Y192144D01*
X481301Y192094D01*
X481213Y192047D01*
X481123Y192003D01*
X481032Y191963D01*
X480939Y191927D01*
X480845Y191894D01*
X480749Y191865D01*
X480653Y191840D01*
X480556Y191819D01*
X480457Y191801D01*
X480359Y191788D01*
X480259Y191778D01*
X480160Y191772D01*
X480060Y191770D01*
X469900Y218440D02*
X469900Y219710D01*
D13*
X469900Y218440D02*
X462280Y218440D01*
X469900Y218440D02*
X477520Y218440D01*
X469900Y213360D02*
X462280Y213360D01*
X469900Y213360D02*
X477520Y213360D01*
D11*
X469900Y213360D02*
X469900Y212090D01*
D16*
X444492Y201302D02*
X442585Y199395D01*
X442585Y195582D01*
X444492Y193675D01*
X452118Y193675D01*
X454025Y195582D01*
X454025Y199395D01*
X452118Y201302D01*
X454025Y211089D02*
X442585Y211089D01*
X448305Y205369D01*
X448305Y212995D01*
D11*
X457200Y359410D02*
X457200Y402590D01*
X482600Y402590D02*
X482600Y359410D01*
X480060Y405130D02*
X459740Y405130D01*
X459740Y356870D02*
X480060Y356870D01*
X457200Y402590D02*
X457202Y402690D01*
X457208Y402789D01*
X457218Y402889D01*
X457231Y402987D01*
X457249Y403086D01*
X457270Y403183D01*
X457295Y403279D01*
X457324Y403375D01*
X457357Y403469D01*
X457393Y403562D01*
X457433Y403653D01*
X457477Y403743D01*
X457524Y403831D01*
X457574Y403917D01*
X457628Y404001D01*
X457685Y404083D01*
X457745Y404162D01*
X457809Y404240D01*
X457875Y404314D01*
X457944Y404386D01*
X458016Y404455D01*
X458090Y404521D01*
X458168Y404585D01*
X458247Y404645D01*
X458329Y404702D01*
X458413Y404756D01*
X458499Y404806D01*
X458587Y404853D01*
X458677Y404897D01*
X458768Y404937D01*
X458861Y404973D01*
X458955Y405006D01*
X459051Y405035D01*
X459147Y405060D01*
X459244Y405081D01*
X459343Y405099D01*
X459441Y405112D01*
X459541Y405122D01*
X459640Y405128D01*
X459740Y405130D01*
X457200Y359410D02*
X457202Y359310D01*
X457208Y359211D01*
X457218Y359111D01*
X457231Y359013D01*
X457249Y358914D01*
X457270Y358817D01*
X457295Y358721D01*
X457324Y358625D01*
X457357Y358531D01*
X457393Y358438D01*
X457433Y358347D01*
X457477Y358257D01*
X457524Y358169D01*
X457574Y358083D01*
X457628Y357999D01*
X457685Y357917D01*
X457745Y357838D01*
X457809Y357760D01*
X457875Y357686D01*
X457944Y357614D01*
X458016Y357545D01*
X458090Y357479D01*
X458168Y357415D01*
X458247Y357355D01*
X458329Y357298D01*
X458413Y357244D01*
X458499Y357194D01*
X458587Y357147D01*
X458677Y357103D01*
X458768Y357063D01*
X458861Y357027D01*
X458955Y356994D01*
X459051Y356965D01*
X459147Y356940D01*
X459244Y356919D01*
X459343Y356901D01*
X459441Y356888D01*
X459541Y356878D01*
X459640Y356872D01*
X459740Y356870D01*
X482600Y402590D02*
X482598Y402690D01*
X482592Y402789D01*
X482582Y402889D01*
X482569Y402987D01*
X482551Y403086D01*
X482530Y403183D01*
X482505Y403279D01*
X482476Y403375D01*
X482443Y403469D01*
X482407Y403562D01*
X482367Y403653D01*
X482323Y403743D01*
X482276Y403831D01*
X482226Y403917D01*
X482172Y404001D01*
X482115Y404083D01*
X482055Y404162D01*
X481991Y404240D01*
X481925Y404314D01*
X481856Y404386D01*
X481784Y404455D01*
X481710Y404521D01*
X481632Y404585D01*
X481553Y404645D01*
X481471Y404702D01*
X481387Y404756D01*
X481301Y404806D01*
X481213Y404853D01*
X481123Y404897D01*
X481032Y404937D01*
X480939Y404973D01*
X480845Y405006D01*
X480749Y405035D01*
X480653Y405060D01*
X480556Y405081D01*
X480457Y405099D01*
X480359Y405112D01*
X480259Y405122D01*
X480160Y405128D01*
X480060Y405130D01*
X482600Y359410D02*
X482598Y359310D01*
X482592Y359211D01*
X482582Y359111D01*
X482569Y359013D01*
X482551Y358914D01*
X482530Y358817D01*
X482505Y358721D01*
X482476Y358625D01*
X482443Y358531D01*
X482407Y358438D01*
X482367Y358347D01*
X482323Y358257D01*
X482276Y358169D01*
X482226Y358083D01*
X482172Y357999D01*
X482115Y357917D01*
X482055Y357838D01*
X481991Y357760D01*
X481925Y357686D01*
X481856Y357614D01*
X481784Y357545D01*
X481710Y357479D01*
X481632Y357415D01*
X481553Y357355D01*
X481471Y357298D01*
X481387Y357244D01*
X481301Y357194D01*
X481213Y357147D01*
X481123Y357103D01*
X481032Y357063D01*
X480939Y357027D01*
X480845Y356994D01*
X480749Y356965D01*
X480653Y356940D01*
X480556Y356919D01*
X480457Y356901D01*
X480359Y356888D01*
X480259Y356878D01*
X480160Y356872D01*
X480060Y356870D01*
X469900Y383540D02*
X469900Y384810D01*
D13*
X469900Y383540D02*
X462280Y383540D01*
X469900Y383540D02*
X477520Y383540D01*
X469900Y378460D02*
X462280Y378460D01*
X469900Y378460D02*
X477520Y378460D01*
D11*
X469900Y378460D02*
X469900Y377190D01*
D16*
X444492Y366402D02*
X442585Y364495D01*
X442585Y360682D01*
X444492Y358775D01*
X452118Y358775D01*
X454025Y360682D01*
X454025Y364495D01*
X452118Y366402D01*
X442585Y370469D02*
X442585Y378095D01*
X442585Y370469D02*
X448305Y370469D01*
X446399Y374282D01*
X446399Y376189D01*
X448305Y378095D01*
X452118Y378095D01*
X454025Y376189D01*
X454025Y372376D01*
X452118Y370469D01*
D11*
X457200Y613410D02*
X457200Y656590D01*
X482600Y656590D02*
X482600Y613410D01*
X480060Y659130D02*
X459740Y659130D01*
X459740Y610870D02*
X480060Y610870D01*
X457200Y656590D02*
X457202Y656690D01*
X457208Y656789D01*
X457218Y656889D01*
X457231Y656987D01*
X457249Y657086D01*
X457270Y657183D01*
X457295Y657279D01*
X457324Y657375D01*
X457357Y657469D01*
X457393Y657562D01*
X457433Y657653D01*
X457477Y657743D01*
X457524Y657831D01*
X457574Y657917D01*
X457628Y658001D01*
X457685Y658083D01*
X457745Y658162D01*
X457809Y658240D01*
X457875Y658314D01*
X457944Y658386D01*
X458016Y658455D01*
X458090Y658521D01*
X458168Y658585D01*
X458247Y658645D01*
X458329Y658702D01*
X458413Y658756D01*
X458499Y658806D01*
X458587Y658853D01*
X458677Y658897D01*
X458768Y658937D01*
X458861Y658973D01*
X458955Y659006D01*
X459051Y659035D01*
X459147Y659060D01*
X459244Y659081D01*
X459343Y659099D01*
X459441Y659112D01*
X459541Y659122D01*
X459640Y659128D01*
X459740Y659130D01*
X457200Y613410D02*
X457202Y613310D01*
X457208Y613211D01*
X457218Y613111D01*
X457231Y613013D01*
X457249Y612914D01*
X457270Y612817D01*
X457295Y612721D01*
X457324Y612625D01*
X457357Y612531D01*
X457393Y612438D01*
X457433Y612347D01*
X457477Y612257D01*
X457524Y612169D01*
X457574Y612083D01*
X457628Y611999D01*
X457685Y611917D01*
X457745Y611838D01*
X457809Y611760D01*
X457875Y611686D01*
X457944Y611614D01*
X458016Y611545D01*
X458090Y611479D01*
X458168Y611415D01*
X458247Y611355D01*
X458329Y611298D01*
X458413Y611244D01*
X458499Y611194D01*
X458587Y611147D01*
X458677Y611103D01*
X458768Y611063D01*
X458861Y611027D01*
X458955Y610994D01*
X459051Y610965D01*
X459147Y610940D01*
X459244Y610919D01*
X459343Y610901D01*
X459441Y610888D01*
X459541Y610878D01*
X459640Y610872D01*
X459740Y610870D01*
X482600Y656590D02*
X482598Y656690D01*
X482592Y656789D01*
X482582Y656889D01*
X482569Y656987D01*
X482551Y657086D01*
X482530Y657183D01*
X482505Y657279D01*
X482476Y657375D01*
X482443Y657469D01*
X482407Y657562D01*
X482367Y657653D01*
X482323Y657743D01*
X482276Y657831D01*
X482226Y657917D01*
X482172Y658001D01*
X482115Y658083D01*
X482055Y658162D01*
X481991Y658240D01*
X481925Y658314D01*
X481856Y658386D01*
X481784Y658455D01*
X481710Y658521D01*
X481632Y658585D01*
X481553Y658645D01*
X481471Y658702D01*
X481387Y658756D01*
X481301Y658806D01*
X481213Y658853D01*
X481123Y658897D01*
X481032Y658937D01*
X480939Y658973D01*
X480845Y659006D01*
X480749Y659035D01*
X480653Y659060D01*
X480556Y659081D01*
X480457Y659099D01*
X480359Y659112D01*
X480259Y659122D01*
X480160Y659128D01*
X480060Y659130D01*
X482600Y613410D02*
X482598Y613310D01*
X482592Y613211D01*
X482582Y613111D01*
X482569Y613013D01*
X482551Y612914D01*
X482530Y612817D01*
X482505Y612721D01*
X482476Y612625D01*
X482443Y612531D01*
X482407Y612438D01*
X482367Y612347D01*
X482323Y612257D01*
X482276Y612169D01*
X482226Y612083D01*
X482172Y611999D01*
X482115Y611917D01*
X482055Y611838D01*
X481991Y611760D01*
X481925Y611686D01*
X481856Y611614D01*
X481784Y611545D01*
X481710Y611479D01*
X481632Y611415D01*
X481553Y611355D01*
X481471Y611298D01*
X481387Y611244D01*
X481301Y611194D01*
X481213Y611147D01*
X481123Y611103D01*
X481032Y611063D01*
X480939Y611027D01*
X480845Y610994D01*
X480749Y610965D01*
X480653Y610940D01*
X480556Y610919D01*
X480457Y610901D01*
X480359Y610888D01*
X480259Y610878D01*
X480160Y610872D01*
X480060Y610870D01*
X469900Y637540D02*
X469900Y638810D01*
D13*
X469900Y637540D02*
X462280Y637540D01*
X469900Y637540D02*
X477520Y637540D01*
X469900Y632460D02*
X462280Y632460D01*
X469900Y632460D02*
X477520Y632460D01*
D11*
X469900Y632460D02*
X469900Y631190D01*
D16*
X444492Y620402D02*
X442585Y618495D01*
X442585Y614682D01*
X444492Y612775D01*
X452118Y612775D01*
X454025Y614682D01*
X454025Y618495D01*
X452118Y620402D01*
X444492Y628282D02*
X442585Y632095D01*
X444492Y628282D02*
X448305Y624469D01*
X452118Y624469D01*
X454025Y626376D01*
X454025Y630189D01*
X452118Y632095D01*
X450212Y632095D01*
X448305Y630189D01*
X448305Y624469D01*
D11*
X533400Y854710D02*
X533400Y897890D01*
X558800Y897890D02*
X558800Y854710D01*
X556260Y900430D02*
X535940Y900430D01*
X535940Y852170D02*
X556260Y852170D01*
X533400Y897890D02*
X533402Y897990D01*
X533408Y898089D01*
X533418Y898189D01*
X533431Y898287D01*
X533449Y898386D01*
X533470Y898483D01*
X533495Y898579D01*
X533524Y898675D01*
X533557Y898769D01*
X533593Y898862D01*
X533633Y898953D01*
X533677Y899043D01*
X533724Y899131D01*
X533774Y899217D01*
X533828Y899301D01*
X533885Y899383D01*
X533945Y899462D01*
X534009Y899540D01*
X534075Y899614D01*
X534144Y899686D01*
X534216Y899755D01*
X534290Y899821D01*
X534368Y899885D01*
X534447Y899945D01*
X534529Y900002D01*
X534613Y900056D01*
X534699Y900106D01*
X534787Y900153D01*
X534877Y900197D01*
X534968Y900237D01*
X535061Y900273D01*
X535155Y900306D01*
X535251Y900335D01*
X535347Y900360D01*
X535444Y900381D01*
X535543Y900399D01*
X535641Y900412D01*
X535741Y900422D01*
X535840Y900428D01*
X535940Y900430D01*
X533400Y854710D02*
X533402Y854610D01*
X533408Y854511D01*
X533418Y854411D01*
X533431Y854313D01*
X533449Y854214D01*
X533470Y854117D01*
X533495Y854021D01*
X533524Y853925D01*
X533557Y853831D01*
X533593Y853738D01*
X533633Y853647D01*
X533677Y853557D01*
X533724Y853469D01*
X533774Y853383D01*
X533828Y853299D01*
X533885Y853217D01*
X533945Y853138D01*
X534009Y853060D01*
X534075Y852986D01*
X534144Y852914D01*
X534216Y852845D01*
X534290Y852779D01*
X534368Y852715D01*
X534447Y852655D01*
X534529Y852598D01*
X534613Y852544D01*
X534699Y852494D01*
X534787Y852447D01*
X534877Y852403D01*
X534968Y852363D01*
X535061Y852327D01*
X535155Y852294D01*
X535251Y852265D01*
X535347Y852240D01*
X535444Y852219D01*
X535543Y852201D01*
X535641Y852188D01*
X535741Y852178D01*
X535840Y852172D01*
X535940Y852170D01*
X558800Y897890D02*
X558798Y897990D01*
X558792Y898089D01*
X558782Y898189D01*
X558769Y898287D01*
X558751Y898386D01*
X558730Y898483D01*
X558705Y898579D01*
X558676Y898675D01*
X558643Y898769D01*
X558607Y898862D01*
X558567Y898953D01*
X558523Y899043D01*
X558476Y899131D01*
X558426Y899217D01*
X558372Y899301D01*
X558315Y899383D01*
X558255Y899462D01*
X558191Y899540D01*
X558125Y899614D01*
X558056Y899686D01*
X557984Y899755D01*
X557910Y899821D01*
X557832Y899885D01*
X557753Y899945D01*
X557671Y900002D01*
X557587Y900056D01*
X557501Y900106D01*
X557413Y900153D01*
X557323Y900197D01*
X557232Y900237D01*
X557139Y900273D01*
X557045Y900306D01*
X556949Y900335D01*
X556853Y900360D01*
X556756Y900381D01*
X556657Y900399D01*
X556559Y900412D01*
X556459Y900422D01*
X556360Y900428D01*
X556260Y900430D01*
X558800Y854710D02*
X558798Y854610D01*
X558792Y854511D01*
X558782Y854411D01*
X558769Y854313D01*
X558751Y854214D01*
X558730Y854117D01*
X558705Y854021D01*
X558676Y853925D01*
X558643Y853831D01*
X558607Y853738D01*
X558567Y853647D01*
X558523Y853557D01*
X558476Y853469D01*
X558426Y853383D01*
X558372Y853299D01*
X558315Y853217D01*
X558255Y853138D01*
X558191Y853060D01*
X558125Y852986D01*
X558056Y852914D01*
X557984Y852845D01*
X557910Y852779D01*
X557832Y852715D01*
X557753Y852655D01*
X557671Y852598D01*
X557587Y852544D01*
X557501Y852494D01*
X557413Y852447D01*
X557323Y852403D01*
X557232Y852363D01*
X557139Y852327D01*
X557045Y852294D01*
X556949Y852265D01*
X556853Y852240D01*
X556756Y852219D01*
X556657Y852201D01*
X556559Y852188D01*
X556459Y852178D01*
X556360Y852172D01*
X556260Y852170D01*
X546100Y878840D02*
X546100Y880110D01*
D13*
X546100Y878840D02*
X538480Y878840D01*
X546100Y878840D02*
X553720Y878840D01*
X546100Y873760D02*
X538480Y873760D01*
X546100Y873760D02*
X553720Y873760D01*
D11*
X546100Y873760D02*
X546100Y872490D01*
D16*
X520692Y861702D02*
X518785Y859795D01*
X518785Y855982D01*
X520692Y854075D01*
X528318Y854075D01*
X530225Y855982D01*
X530225Y859795D01*
X528318Y861702D01*
X518785Y865769D02*
X518785Y873395D01*
X520692Y873395D01*
X528318Y865769D01*
X530225Y865769D01*
D11*
X508000Y994410D02*
X508000Y1037590D01*
X533400Y1037590D02*
X533400Y994410D01*
X530860Y1040130D02*
X510540Y1040130D01*
X510540Y991870D02*
X530860Y991870D01*
X508000Y1037590D02*
X508002Y1037690D01*
X508008Y1037789D01*
X508018Y1037889D01*
X508031Y1037987D01*
X508049Y1038086D01*
X508070Y1038183D01*
X508095Y1038279D01*
X508124Y1038375D01*
X508157Y1038469D01*
X508193Y1038562D01*
X508233Y1038653D01*
X508277Y1038743D01*
X508324Y1038831D01*
X508374Y1038917D01*
X508428Y1039001D01*
X508485Y1039083D01*
X508545Y1039162D01*
X508609Y1039240D01*
X508675Y1039314D01*
X508744Y1039386D01*
X508816Y1039455D01*
X508890Y1039521D01*
X508968Y1039585D01*
X509047Y1039645D01*
X509129Y1039702D01*
X509213Y1039756D01*
X509299Y1039806D01*
X509387Y1039853D01*
X509477Y1039897D01*
X509568Y1039937D01*
X509661Y1039973D01*
X509755Y1040006D01*
X509851Y1040035D01*
X509947Y1040060D01*
X510044Y1040081D01*
X510143Y1040099D01*
X510241Y1040112D01*
X510341Y1040122D01*
X510440Y1040128D01*
X510540Y1040130D01*
X508000Y994410D02*
X508002Y994310D01*
X508008Y994211D01*
X508018Y994111D01*
X508031Y994013D01*
X508049Y993914D01*
X508070Y993817D01*
X508095Y993721D01*
X508124Y993625D01*
X508157Y993531D01*
X508193Y993438D01*
X508233Y993347D01*
X508277Y993257D01*
X508324Y993169D01*
X508374Y993083D01*
X508428Y992999D01*
X508485Y992917D01*
X508545Y992838D01*
X508609Y992760D01*
X508675Y992686D01*
X508744Y992614D01*
X508816Y992545D01*
X508890Y992479D01*
X508968Y992415D01*
X509047Y992355D01*
X509129Y992298D01*
X509213Y992244D01*
X509299Y992194D01*
X509387Y992147D01*
X509477Y992103D01*
X509568Y992063D01*
X509661Y992027D01*
X509755Y991994D01*
X509851Y991965D01*
X509947Y991940D01*
X510044Y991919D01*
X510143Y991901D01*
X510241Y991888D01*
X510341Y991878D01*
X510440Y991872D01*
X510540Y991870D01*
X533400Y1037590D02*
X533398Y1037690D01*
X533392Y1037789D01*
X533382Y1037889D01*
X533369Y1037987D01*
X533351Y1038086D01*
X533330Y1038183D01*
X533305Y1038279D01*
X533276Y1038375D01*
X533243Y1038469D01*
X533207Y1038562D01*
X533167Y1038653D01*
X533123Y1038743D01*
X533076Y1038831D01*
X533026Y1038917D01*
X532972Y1039001D01*
X532915Y1039083D01*
X532855Y1039162D01*
X532791Y1039240D01*
X532725Y1039314D01*
X532656Y1039386D01*
X532584Y1039455D01*
X532510Y1039521D01*
X532432Y1039585D01*
X532353Y1039645D01*
X532271Y1039702D01*
X532187Y1039756D01*
X532101Y1039806D01*
X532013Y1039853D01*
X531923Y1039897D01*
X531832Y1039937D01*
X531739Y1039973D01*
X531645Y1040006D01*
X531549Y1040035D01*
X531453Y1040060D01*
X531356Y1040081D01*
X531257Y1040099D01*
X531159Y1040112D01*
X531059Y1040122D01*
X530960Y1040128D01*
X530860Y1040130D01*
X533400Y994410D02*
X533398Y994310D01*
X533392Y994211D01*
X533382Y994111D01*
X533369Y994013D01*
X533351Y993914D01*
X533330Y993817D01*
X533305Y993721D01*
X533276Y993625D01*
X533243Y993531D01*
X533207Y993438D01*
X533167Y993347D01*
X533123Y993257D01*
X533076Y993169D01*
X533026Y993083D01*
X532972Y992999D01*
X532915Y992917D01*
X532855Y992838D01*
X532791Y992760D01*
X532725Y992686D01*
X532656Y992614D01*
X532584Y992545D01*
X532510Y992479D01*
X532432Y992415D01*
X532353Y992355D01*
X532271Y992298D01*
X532187Y992244D01*
X532101Y992194D01*
X532013Y992147D01*
X531923Y992103D01*
X531832Y992063D01*
X531739Y992027D01*
X531645Y991994D01*
X531549Y991965D01*
X531453Y991940D01*
X531356Y991919D01*
X531257Y991901D01*
X531159Y991888D01*
X531059Y991878D01*
X530960Y991872D01*
X530860Y991870D01*
X520700Y1018540D02*
X520700Y1019810D01*
D13*
X520700Y1018540D02*
X513080Y1018540D01*
X520700Y1018540D02*
X528320Y1018540D01*
X520700Y1013460D02*
X513080Y1013460D01*
X520700Y1013460D02*
X528320Y1013460D01*
D11*
X520700Y1013460D02*
X520700Y1012190D01*
D16*
X495292Y1001402D02*
X493385Y999495D01*
X493385Y995682D01*
X495292Y993775D01*
X502918Y993775D01*
X504825Y995682D01*
X504825Y999495D01*
X502918Y1001402D01*
X495292Y1005469D02*
X493385Y1007376D01*
X493385Y1011189D01*
X495292Y1013095D01*
X497199Y1013095D01*
X499105Y1011189D01*
X501012Y1013095D01*
X502918Y1013095D01*
X504825Y1011189D01*
X504825Y1007376D01*
X502918Y1005469D01*
X501012Y1005469D01*
X499105Y1007376D01*
X497199Y1005469D01*
X495292Y1005469D01*
X499105Y1007376D02*
X499105Y1011189D01*
D11*
X190500Y994410D02*
X190500Y1037590D01*
X215900Y1037590D02*
X215900Y994410D01*
X213360Y1040130D02*
X193040Y1040130D01*
X193040Y991870D02*
X213360Y991870D01*
X190500Y1037590D02*
X190502Y1037690D01*
X190508Y1037789D01*
X190518Y1037889D01*
X190531Y1037987D01*
X190549Y1038086D01*
X190570Y1038183D01*
X190595Y1038279D01*
X190624Y1038375D01*
X190657Y1038469D01*
X190693Y1038562D01*
X190733Y1038653D01*
X190777Y1038743D01*
X190824Y1038831D01*
X190874Y1038917D01*
X190928Y1039001D01*
X190985Y1039083D01*
X191045Y1039162D01*
X191109Y1039240D01*
X191175Y1039314D01*
X191244Y1039386D01*
X191316Y1039455D01*
X191390Y1039521D01*
X191468Y1039585D01*
X191547Y1039645D01*
X191629Y1039702D01*
X191713Y1039756D01*
X191799Y1039806D01*
X191887Y1039853D01*
X191977Y1039897D01*
X192068Y1039937D01*
X192161Y1039973D01*
X192255Y1040006D01*
X192351Y1040035D01*
X192447Y1040060D01*
X192544Y1040081D01*
X192643Y1040099D01*
X192741Y1040112D01*
X192841Y1040122D01*
X192940Y1040128D01*
X193040Y1040130D01*
X190500Y994410D02*
X190502Y994310D01*
X190508Y994211D01*
X190518Y994111D01*
X190531Y994013D01*
X190549Y993914D01*
X190570Y993817D01*
X190595Y993721D01*
X190624Y993625D01*
X190657Y993531D01*
X190693Y993438D01*
X190733Y993347D01*
X190777Y993257D01*
X190824Y993169D01*
X190874Y993083D01*
X190928Y992999D01*
X190985Y992917D01*
X191045Y992838D01*
X191109Y992760D01*
X191175Y992686D01*
X191244Y992614D01*
X191316Y992545D01*
X191390Y992479D01*
X191468Y992415D01*
X191547Y992355D01*
X191629Y992298D01*
X191713Y992244D01*
X191799Y992194D01*
X191887Y992147D01*
X191977Y992103D01*
X192068Y992063D01*
X192161Y992027D01*
X192255Y991994D01*
X192351Y991965D01*
X192447Y991940D01*
X192544Y991919D01*
X192643Y991901D01*
X192741Y991888D01*
X192841Y991878D01*
X192940Y991872D01*
X193040Y991870D01*
X215900Y1037590D02*
X215898Y1037690D01*
X215892Y1037789D01*
X215882Y1037889D01*
X215869Y1037987D01*
X215851Y1038086D01*
X215830Y1038183D01*
X215805Y1038279D01*
X215776Y1038375D01*
X215743Y1038469D01*
X215707Y1038562D01*
X215667Y1038653D01*
X215623Y1038743D01*
X215576Y1038831D01*
X215526Y1038917D01*
X215472Y1039001D01*
X215415Y1039083D01*
X215355Y1039162D01*
X215291Y1039240D01*
X215225Y1039314D01*
X215156Y1039386D01*
X215084Y1039455D01*
X215010Y1039521D01*
X214932Y1039585D01*
X214853Y1039645D01*
X214771Y1039702D01*
X214687Y1039756D01*
X214601Y1039806D01*
X214513Y1039853D01*
X214423Y1039897D01*
X214332Y1039937D01*
X214239Y1039973D01*
X214145Y1040006D01*
X214049Y1040035D01*
X213953Y1040060D01*
X213856Y1040081D01*
X213757Y1040099D01*
X213659Y1040112D01*
X213559Y1040122D01*
X213460Y1040128D01*
X213360Y1040130D01*
X215900Y994410D02*
X215898Y994310D01*
X215892Y994211D01*
X215882Y994111D01*
X215869Y994013D01*
X215851Y993914D01*
X215830Y993817D01*
X215805Y993721D01*
X215776Y993625D01*
X215743Y993531D01*
X215707Y993438D01*
X215667Y993347D01*
X215623Y993257D01*
X215576Y993169D01*
X215526Y993083D01*
X215472Y992999D01*
X215415Y992917D01*
X215355Y992838D01*
X215291Y992760D01*
X215225Y992686D01*
X215156Y992614D01*
X215084Y992545D01*
X215010Y992479D01*
X214932Y992415D01*
X214853Y992355D01*
X214771Y992298D01*
X214687Y992244D01*
X214601Y992194D01*
X214513Y992147D01*
X214423Y992103D01*
X214332Y992063D01*
X214239Y992027D01*
X214145Y991994D01*
X214049Y991965D01*
X213953Y991940D01*
X213856Y991919D01*
X213757Y991901D01*
X213659Y991888D01*
X213559Y991878D01*
X213460Y991872D01*
X213360Y991870D01*
X203200Y1018540D02*
X203200Y1019810D01*
D13*
X203200Y1018540D02*
X195580Y1018540D01*
X203200Y1018540D02*
X210820Y1018540D01*
X203200Y1013460D02*
X195580Y1013460D01*
X203200Y1013460D02*
X210820Y1013460D01*
D11*
X203200Y1013460D02*
X203200Y1012190D01*
D16*
X177792Y1001402D02*
X175885Y999495D01*
X175885Y995682D01*
X177792Y993775D01*
X185418Y993775D01*
X187325Y995682D01*
X187325Y999495D01*
X185418Y1001402D01*
X185418Y1005469D02*
X187325Y1007376D01*
X187325Y1011189D01*
X185418Y1013095D01*
X177792Y1013095D01*
X175885Y1011189D01*
X175885Y1007376D01*
X177792Y1005469D01*
X179699Y1005469D01*
X181605Y1007376D01*
X181605Y1013095D01*
D11*
X190500Y897890D02*
X190500Y854710D01*
X215900Y854710D02*
X215900Y897890D01*
X213360Y900430D02*
X193040Y900430D01*
X193040Y852170D02*
X213360Y852170D01*
X190500Y897890D02*
X190502Y897990D01*
X190508Y898089D01*
X190518Y898189D01*
X190531Y898287D01*
X190549Y898386D01*
X190570Y898483D01*
X190595Y898579D01*
X190624Y898675D01*
X190657Y898769D01*
X190693Y898862D01*
X190733Y898953D01*
X190777Y899043D01*
X190824Y899131D01*
X190874Y899217D01*
X190928Y899301D01*
X190985Y899383D01*
X191045Y899462D01*
X191109Y899540D01*
X191175Y899614D01*
X191244Y899686D01*
X191316Y899755D01*
X191390Y899821D01*
X191468Y899885D01*
X191547Y899945D01*
X191629Y900002D01*
X191713Y900056D01*
X191799Y900106D01*
X191887Y900153D01*
X191977Y900197D01*
X192068Y900237D01*
X192161Y900273D01*
X192255Y900306D01*
X192351Y900335D01*
X192447Y900360D01*
X192544Y900381D01*
X192643Y900399D01*
X192741Y900412D01*
X192841Y900422D01*
X192940Y900428D01*
X193040Y900430D01*
X190500Y854710D02*
X190502Y854610D01*
X190508Y854511D01*
X190518Y854411D01*
X190531Y854313D01*
X190549Y854214D01*
X190570Y854117D01*
X190595Y854021D01*
X190624Y853925D01*
X190657Y853831D01*
X190693Y853738D01*
X190733Y853647D01*
X190777Y853557D01*
X190824Y853469D01*
X190874Y853383D01*
X190928Y853299D01*
X190985Y853217D01*
X191045Y853138D01*
X191109Y853060D01*
X191175Y852986D01*
X191244Y852914D01*
X191316Y852845D01*
X191390Y852779D01*
X191468Y852715D01*
X191547Y852655D01*
X191629Y852598D01*
X191713Y852544D01*
X191799Y852494D01*
X191887Y852447D01*
X191977Y852403D01*
X192068Y852363D01*
X192161Y852327D01*
X192255Y852294D01*
X192351Y852265D01*
X192447Y852240D01*
X192544Y852219D01*
X192643Y852201D01*
X192741Y852188D01*
X192841Y852178D01*
X192940Y852172D01*
X193040Y852170D01*
X215900Y897890D02*
X215898Y897990D01*
X215892Y898089D01*
X215882Y898189D01*
X215869Y898287D01*
X215851Y898386D01*
X215830Y898483D01*
X215805Y898579D01*
X215776Y898675D01*
X215743Y898769D01*
X215707Y898862D01*
X215667Y898953D01*
X215623Y899043D01*
X215576Y899131D01*
X215526Y899217D01*
X215472Y899301D01*
X215415Y899383D01*
X215355Y899462D01*
X215291Y899540D01*
X215225Y899614D01*
X215156Y899686D01*
X215084Y899755D01*
X215010Y899821D01*
X214932Y899885D01*
X214853Y899945D01*
X214771Y900002D01*
X214687Y900056D01*
X214601Y900106D01*
X214513Y900153D01*
X214423Y900197D01*
X214332Y900237D01*
X214239Y900273D01*
X214145Y900306D01*
X214049Y900335D01*
X213953Y900360D01*
X213856Y900381D01*
X213757Y900399D01*
X213659Y900412D01*
X213559Y900422D01*
X213460Y900428D01*
X213360Y900430D01*
X215900Y854710D02*
X215898Y854610D01*
X215892Y854511D01*
X215882Y854411D01*
X215869Y854313D01*
X215851Y854214D01*
X215830Y854117D01*
X215805Y854021D01*
X215776Y853925D01*
X215743Y853831D01*
X215707Y853738D01*
X215667Y853647D01*
X215623Y853557D01*
X215576Y853469D01*
X215526Y853383D01*
X215472Y853299D01*
X215415Y853217D01*
X215355Y853138D01*
X215291Y853060D01*
X215225Y852986D01*
X215156Y852914D01*
X215084Y852845D01*
X215010Y852779D01*
X214932Y852715D01*
X214853Y852655D01*
X214771Y852598D01*
X214687Y852544D01*
X214601Y852494D01*
X214513Y852447D01*
X214423Y852403D01*
X214332Y852363D01*
X214239Y852327D01*
X214145Y852294D01*
X214049Y852265D01*
X213953Y852240D01*
X213856Y852219D01*
X213757Y852201D01*
X213659Y852188D01*
X213559Y852178D01*
X213460Y852172D01*
X213360Y852170D01*
X203200Y878840D02*
X203200Y880110D01*
D13*
X203200Y878840D02*
X195580Y878840D01*
X203200Y878840D02*
X210820Y878840D01*
X203200Y873760D02*
X195580Y873760D01*
X203200Y873760D02*
X210820Y873760D01*
D11*
X203200Y873760D02*
X203200Y872490D01*
D16*
X177792Y861702D02*
X175885Y859795D01*
X175885Y855982D01*
X177792Y854075D01*
X185418Y854075D01*
X187325Y855982D01*
X187325Y859795D01*
X185418Y861702D01*
X179699Y865769D02*
X175885Y869582D01*
X187325Y869582D01*
X187325Y865769D02*
X187325Y873395D01*
X185418Y877463D02*
X177792Y877463D01*
X175885Y879370D01*
X175885Y883183D01*
X177792Y885089D01*
X185418Y885089D01*
X187325Y883183D01*
X187325Y879370D01*
X185418Y877463D01*
X177792Y885089D01*
D11*
X165100Y720090D02*
X165100Y676910D01*
X190500Y676910D02*
X190500Y720090D01*
X187960Y722630D02*
X167640Y722630D01*
X167640Y674370D02*
X187960Y674370D01*
X165100Y720090D02*
X165102Y720190D01*
X165108Y720289D01*
X165118Y720389D01*
X165131Y720487D01*
X165149Y720586D01*
X165170Y720683D01*
X165195Y720779D01*
X165224Y720875D01*
X165257Y720969D01*
X165293Y721062D01*
X165333Y721153D01*
X165377Y721243D01*
X165424Y721331D01*
X165474Y721417D01*
X165528Y721501D01*
X165585Y721583D01*
X165645Y721662D01*
X165709Y721740D01*
X165775Y721814D01*
X165844Y721886D01*
X165916Y721955D01*
X165990Y722021D01*
X166068Y722085D01*
X166147Y722145D01*
X166229Y722202D01*
X166313Y722256D01*
X166399Y722306D01*
X166487Y722353D01*
X166577Y722397D01*
X166668Y722437D01*
X166761Y722473D01*
X166855Y722506D01*
X166951Y722535D01*
X167047Y722560D01*
X167144Y722581D01*
X167243Y722599D01*
X167341Y722612D01*
X167441Y722622D01*
X167540Y722628D01*
X167640Y722630D01*
X165100Y676910D02*
X165102Y676810D01*
X165108Y676711D01*
X165118Y676611D01*
X165131Y676513D01*
X165149Y676414D01*
X165170Y676317D01*
X165195Y676221D01*
X165224Y676125D01*
X165257Y676031D01*
X165293Y675938D01*
X165333Y675847D01*
X165377Y675757D01*
X165424Y675669D01*
X165474Y675583D01*
X165528Y675499D01*
X165585Y675417D01*
X165645Y675338D01*
X165709Y675260D01*
X165775Y675186D01*
X165844Y675114D01*
X165916Y675045D01*
X165990Y674979D01*
X166068Y674915D01*
X166147Y674855D01*
X166229Y674798D01*
X166313Y674744D01*
X166399Y674694D01*
X166487Y674647D01*
X166577Y674603D01*
X166668Y674563D01*
X166761Y674527D01*
X166855Y674494D01*
X166951Y674465D01*
X167047Y674440D01*
X167144Y674419D01*
X167243Y674401D01*
X167341Y674388D01*
X167441Y674378D01*
X167540Y674372D01*
X167640Y674370D01*
X190500Y720090D02*
X190498Y720190D01*
X190492Y720289D01*
X190482Y720389D01*
X190469Y720487D01*
X190451Y720586D01*
X190430Y720683D01*
X190405Y720779D01*
X190376Y720875D01*
X190343Y720969D01*
X190307Y721062D01*
X190267Y721153D01*
X190223Y721243D01*
X190176Y721331D01*
X190126Y721417D01*
X190072Y721501D01*
X190015Y721583D01*
X189955Y721662D01*
X189891Y721740D01*
X189825Y721814D01*
X189756Y721886D01*
X189684Y721955D01*
X189610Y722021D01*
X189532Y722085D01*
X189453Y722145D01*
X189371Y722202D01*
X189287Y722256D01*
X189201Y722306D01*
X189113Y722353D01*
X189023Y722397D01*
X188932Y722437D01*
X188839Y722473D01*
X188745Y722506D01*
X188649Y722535D01*
X188553Y722560D01*
X188456Y722581D01*
X188357Y722599D01*
X188259Y722612D01*
X188159Y722622D01*
X188060Y722628D01*
X187960Y722630D01*
X190500Y676910D02*
X190498Y676810D01*
X190492Y676711D01*
X190482Y676611D01*
X190469Y676513D01*
X190451Y676414D01*
X190430Y676317D01*
X190405Y676221D01*
X190376Y676125D01*
X190343Y676031D01*
X190307Y675938D01*
X190267Y675847D01*
X190223Y675757D01*
X190176Y675669D01*
X190126Y675583D01*
X190072Y675499D01*
X190015Y675417D01*
X189955Y675338D01*
X189891Y675260D01*
X189825Y675186D01*
X189756Y675114D01*
X189684Y675045D01*
X189610Y674979D01*
X189532Y674915D01*
X189453Y674855D01*
X189371Y674798D01*
X189287Y674744D01*
X189201Y674694D01*
X189113Y674647D01*
X189023Y674603D01*
X188932Y674563D01*
X188839Y674527D01*
X188745Y674494D01*
X188649Y674465D01*
X188553Y674440D01*
X188456Y674419D01*
X188357Y674401D01*
X188259Y674388D01*
X188159Y674378D01*
X188060Y674372D01*
X187960Y674370D01*
X177800Y701040D02*
X177800Y702310D01*
D13*
X177800Y701040D02*
X170180Y701040D01*
X177800Y701040D02*
X185420Y701040D01*
X177800Y695960D02*
X170180Y695960D01*
X177800Y695960D02*
X185420Y695960D01*
D11*
X177800Y695960D02*
X177800Y694690D01*
D16*
X152392Y683902D02*
X150485Y681995D01*
X150485Y678182D01*
X152392Y676275D01*
X160018Y676275D01*
X161925Y678182D01*
X161925Y681995D01*
X160018Y683902D01*
X154299Y687969D02*
X150485Y691782D01*
X161925Y691782D01*
X161925Y687969D02*
X161925Y695595D01*
X154299Y699663D02*
X150485Y703476D01*
X161925Y703476D01*
X161925Y699663D02*
X161925Y707289D01*
D11*
X177800Y580390D02*
X177800Y537210D01*
X203200Y537210D02*
X203200Y580390D01*
X200660Y582930D02*
X180340Y582930D01*
X180340Y534670D02*
X200660Y534670D01*
X177800Y580390D02*
X177802Y580490D01*
X177808Y580589D01*
X177818Y580689D01*
X177831Y580787D01*
X177849Y580886D01*
X177870Y580983D01*
X177895Y581079D01*
X177924Y581175D01*
X177957Y581269D01*
X177993Y581362D01*
X178033Y581453D01*
X178077Y581543D01*
X178124Y581631D01*
X178174Y581717D01*
X178228Y581801D01*
X178285Y581883D01*
X178345Y581962D01*
X178409Y582040D01*
X178475Y582114D01*
X178544Y582186D01*
X178616Y582255D01*
X178690Y582321D01*
X178768Y582385D01*
X178847Y582445D01*
X178929Y582502D01*
X179013Y582556D01*
X179099Y582606D01*
X179187Y582653D01*
X179277Y582697D01*
X179368Y582737D01*
X179461Y582773D01*
X179555Y582806D01*
X179651Y582835D01*
X179747Y582860D01*
X179844Y582881D01*
X179943Y582899D01*
X180041Y582912D01*
X180141Y582922D01*
X180240Y582928D01*
X180340Y582930D01*
X177800Y537210D02*
X177802Y537110D01*
X177808Y537011D01*
X177818Y536911D01*
X177831Y536813D01*
X177849Y536714D01*
X177870Y536617D01*
X177895Y536521D01*
X177924Y536425D01*
X177957Y536331D01*
X177993Y536238D01*
X178033Y536147D01*
X178077Y536057D01*
X178124Y535969D01*
X178174Y535883D01*
X178228Y535799D01*
X178285Y535717D01*
X178345Y535638D01*
X178409Y535560D01*
X178475Y535486D01*
X178544Y535414D01*
X178616Y535345D01*
X178690Y535279D01*
X178768Y535215D01*
X178847Y535155D01*
X178929Y535098D01*
X179013Y535044D01*
X179099Y534994D01*
X179187Y534947D01*
X179277Y534903D01*
X179368Y534863D01*
X179461Y534827D01*
X179555Y534794D01*
X179651Y534765D01*
X179747Y534740D01*
X179844Y534719D01*
X179943Y534701D01*
X180041Y534688D01*
X180141Y534678D01*
X180240Y534672D01*
X180340Y534670D01*
X203200Y580390D02*
X203198Y580490D01*
X203192Y580589D01*
X203182Y580689D01*
X203169Y580787D01*
X203151Y580886D01*
X203130Y580983D01*
X203105Y581079D01*
X203076Y581175D01*
X203043Y581269D01*
X203007Y581362D01*
X202967Y581453D01*
X202923Y581543D01*
X202876Y581631D01*
X202826Y581717D01*
X202772Y581801D01*
X202715Y581883D01*
X202655Y581962D01*
X202591Y582040D01*
X202525Y582114D01*
X202456Y582186D01*
X202384Y582255D01*
X202310Y582321D01*
X202232Y582385D01*
X202153Y582445D01*
X202071Y582502D01*
X201987Y582556D01*
X201901Y582606D01*
X201813Y582653D01*
X201723Y582697D01*
X201632Y582737D01*
X201539Y582773D01*
X201445Y582806D01*
X201349Y582835D01*
X201253Y582860D01*
X201156Y582881D01*
X201057Y582899D01*
X200959Y582912D01*
X200859Y582922D01*
X200760Y582928D01*
X200660Y582930D01*
X203200Y537210D02*
X203198Y537110D01*
X203192Y537011D01*
X203182Y536911D01*
X203169Y536813D01*
X203151Y536714D01*
X203130Y536617D01*
X203105Y536521D01*
X203076Y536425D01*
X203043Y536331D01*
X203007Y536238D01*
X202967Y536147D01*
X202923Y536057D01*
X202876Y535969D01*
X202826Y535883D01*
X202772Y535799D01*
X202715Y535717D01*
X202655Y535638D01*
X202591Y535560D01*
X202525Y535486D01*
X202456Y535414D01*
X202384Y535345D01*
X202310Y535279D01*
X202232Y535215D01*
X202153Y535155D01*
X202071Y535098D01*
X201987Y535044D01*
X201901Y534994D01*
X201813Y534947D01*
X201723Y534903D01*
X201632Y534863D01*
X201539Y534827D01*
X201445Y534794D01*
X201349Y534765D01*
X201253Y534740D01*
X201156Y534719D01*
X201057Y534701D01*
X200959Y534688D01*
X200859Y534678D01*
X200760Y534672D01*
X200660Y534670D01*
X190500Y561340D02*
X190500Y562610D01*
D13*
X190500Y561340D02*
X182880Y561340D01*
X190500Y561340D02*
X198120Y561340D01*
X190500Y556260D02*
X182880Y556260D01*
X190500Y556260D02*
X198120Y556260D01*
D11*
X190500Y556260D02*
X190500Y554990D01*
D16*
X165092Y544202D02*
X163185Y542295D01*
X163185Y538482D01*
X165092Y536575D01*
X172718Y536575D01*
X174625Y538482D01*
X174625Y542295D01*
X172718Y544202D01*
X166999Y548269D02*
X163185Y552082D01*
X174625Y552082D01*
X174625Y548269D02*
X174625Y555895D01*
X174625Y559963D02*
X174625Y567589D01*
X174625Y559963D02*
X166999Y567589D01*
X165092Y567589D01*
X163185Y565683D01*
X163185Y561870D01*
X165092Y559963D01*
D11*
X190500Y402590D02*
X190500Y359410D01*
X215900Y359410D02*
X215900Y402590D01*
X213360Y405130D02*
X193040Y405130D01*
X193040Y356870D02*
X213360Y356870D01*
X190500Y402590D02*
X190502Y402690D01*
X190508Y402789D01*
X190518Y402889D01*
X190531Y402987D01*
X190549Y403086D01*
X190570Y403183D01*
X190595Y403279D01*
X190624Y403375D01*
X190657Y403469D01*
X190693Y403562D01*
X190733Y403653D01*
X190777Y403743D01*
X190824Y403831D01*
X190874Y403917D01*
X190928Y404001D01*
X190985Y404083D01*
X191045Y404162D01*
X191109Y404240D01*
X191175Y404314D01*
X191244Y404386D01*
X191316Y404455D01*
X191390Y404521D01*
X191468Y404585D01*
X191547Y404645D01*
X191629Y404702D01*
X191713Y404756D01*
X191799Y404806D01*
X191887Y404853D01*
X191977Y404897D01*
X192068Y404937D01*
X192161Y404973D01*
X192255Y405006D01*
X192351Y405035D01*
X192447Y405060D01*
X192544Y405081D01*
X192643Y405099D01*
X192741Y405112D01*
X192841Y405122D01*
X192940Y405128D01*
X193040Y405130D01*
X190500Y359410D02*
X190502Y359310D01*
X190508Y359211D01*
X190518Y359111D01*
X190531Y359013D01*
X190549Y358914D01*
X190570Y358817D01*
X190595Y358721D01*
X190624Y358625D01*
X190657Y358531D01*
X190693Y358438D01*
X190733Y358347D01*
X190777Y358257D01*
X190824Y358169D01*
X190874Y358083D01*
X190928Y357999D01*
X190985Y357917D01*
X191045Y357838D01*
X191109Y357760D01*
X191175Y357686D01*
X191244Y357614D01*
X191316Y357545D01*
X191390Y357479D01*
X191468Y357415D01*
X191547Y357355D01*
X191629Y357298D01*
X191713Y357244D01*
X191799Y357194D01*
X191887Y357147D01*
X191977Y357103D01*
X192068Y357063D01*
X192161Y357027D01*
X192255Y356994D01*
X192351Y356965D01*
X192447Y356940D01*
X192544Y356919D01*
X192643Y356901D01*
X192741Y356888D01*
X192841Y356878D01*
X192940Y356872D01*
X193040Y356870D01*
X215900Y402590D02*
X215898Y402690D01*
X215892Y402789D01*
X215882Y402889D01*
X215869Y402987D01*
X215851Y403086D01*
X215830Y403183D01*
X215805Y403279D01*
X215776Y403375D01*
X215743Y403469D01*
X215707Y403562D01*
X215667Y403653D01*
X215623Y403743D01*
X215576Y403831D01*
X215526Y403917D01*
X215472Y404001D01*
X215415Y404083D01*
X215355Y404162D01*
X215291Y404240D01*
X215225Y404314D01*
X215156Y404386D01*
X215084Y404455D01*
X215010Y404521D01*
X214932Y404585D01*
X214853Y404645D01*
X214771Y404702D01*
X214687Y404756D01*
X214601Y404806D01*
X214513Y404853D01*
X214423Y404897D01*
X214332Y404937D01*
X214239Y404973D01*
X214145Y405006D01*
X214049Y405035D01*
X213953Y405060D01*
X213856Y405081D01*
X213757Y405099D01*
X213659Y405112D01*
X213559Y405122D01*
X213460Y405128D01*
X213360Y405130D01*
X215900Y359410D02*
X215898Y359310D01*
X215892Y359211D01*
X215882Y359111D01*
X215869Y359013D01*
X215851Y358914D01*
X215830Y358817D01*
X215805Y358721D01*
X215776Y358625D01*
X215743Y358531D01*
X215707Y358438D01*
X215667Y358347D01*
X215623Y358257D01*
X215576Y358169D01*
X215526Y358083D01*
X215472Y357999D01*
X215415Y357917D01*
X215355Y357838D01*
X215291Y357760D01*
X215225Y357686D01*
X215156Y357614D01*
X215084Y357545D01*
X215010Y357479D01*
X214932Y357415D01*
X214853Y357355D01*
X214771Y357298D01*
X214687Y357244D01*
X214601Y357194D01*
X214513Y357147D01*
X214423Y357103D01*
X214332Y357063D01*
X214239Y357027D01*
X214145Y356994D01*
X214049Y356965D01*
X213953Y356940D01*
X213856Y356919D01*
X213757Y356901D01*
X213659Y356888D01*
X213559Y356878D01*
X213460Y356872D01*
X213360Y356870D01*
X203200Y383540D02*
X203200Y384810D01*
D13*
X203200Y383540D02*
X195580Y383540D01*
X203200Y383540D02*
X210820Y383540D01*
X203200Y378460D02*
X195580Y378460D01*
X203200Y378460D02*
X210820Y378460D01*
D11*
X203200Y378460D02*
X203200Y377190D01*
D16*
X177792Y366402D02*
X175885Y364495D01*
X175885Y360682D01*
X177792Y358775D01*
X185418Y358775D01*
X187325Y360682D01*
X187325Y364495D01*
X185418Y366402D01*
X179699Y370469D02*
X175885Y374282D01*
X187325Y374282D01*
X187325Y370469D02*
X187325Y378095D01*
X177792Y382163D02*
X175885Y384070D01*
X175885Y387883D01*
X177792Y389789D01*
X179699Y389789D01*
X181605Y387883D01*
X181605Y385976D01*
X181605Y387883D02*
X183512Y389789D01*
X185418Y389789D01*
X187325Y387883D01*
X187325Y384070D01*
X185418Y382163D01*
D11*
X241300Y410210D02*
X419100Y410210D01*
X419100Y351790D02*
X241300Y351790D01*
X419100Y351790D02*
X419100Y410210D01*
X241300Y410210D02*
X241300Y391160D01*
X241300Y370840D02*
X241300Y351790D01*
X241300Y370840D02*
X241547Y370843D01*
X241795Y370852D01*
X242042Y370867D01*
X242288Y370888D01*
X242534Y370915D01*
X242779Y370948D01*
X243024Y370987D01*
X243267Y371032D01*
X243509Y371083D01*
X243750Y371140D01*
X243989Y371202D01*
X244227Y371271D01*
X244463Y371345D01*
X244697Y371425D01*
X244929Y371510D01*
X245159Y371602D01*
X245387Y371698D01*
X245612Y371801D01*
X245835Y371908D01*
X246055Y372022D01*
X246272Y372140D01*
X246487Y372264D01*
X246698Y372393D01*
X246906Y372527D01*
X247111Y372666D01*
X247312Y372810D01*
X247510Y372958D01*
X247704Y373112D01*
X247894Y373270D01*
X248080Y373433D01*
X248262Y373600D01*
X248440Y373772D01*
X248614Y373948D01*
X248784Y374128D01*
X248949Y374313D01*
X249109Y374501D01*
X249265Y374693D01*
X249417Y374889D01*
X249563Y375088D01*
X249705Y375291D01*
X249841Y375498D01*
X249973Y375707D01*
X250099Y375920D01*
X250220Y376136D01*
X250336Y376354D01*
X250446Y376576D01*
X250551Y376800D01*
X250651Y377026D01*
X250745Y377255D01*
X250833Y377486D01*
X250916Y377720D01*
X250993Y377955D01*
X251064Y378192D01*
X251130Y378430D01*
X251189Y378670D01*
X251243Y378912D01*
X251291Y379155D01*
X251333Y379398D01*
X251369Y379643D01*
X251399Y379889D01*
X251423Y380135D01*
X251441Y380382D01*
X251453Y380629D01*
X251459Y380876D01*
X251459Y381124D01*
X251453Y381371D01*
X251441Y381618D01*
X251423Y381865D01*
X251399Y382111D01*
X251369Y382357D01*
X251333Y382602D01*
X251291Y382845D01*
X251243Y383088D01*
X251189Y383330D01*
X251130Y383570D01*
X251064Y383808D01*
X250993Y384045D01*
X250916Y384280D01*
X250833Y384514D01*
X250745Y384745D01*
X250651Y384974D01*
X250551Y385200D01*
X250446Y385424D01*
X250336Y385646D01*
X250220Y385864D01*
X250099Y386080D01*
X249973Y386293D01*
X249841Y386502D01*
X249705Y386709D01*
X249563Y386912D01*
X249417Y387111D01*
X249265Y387307D01*
X249109Y387499D01*
X248949Y387687D01*
X248784Y387872D01*
X248614Y388052D01*
X248440Y388228D01*
X248262Y388400D01*
X248080Y388567D01*
X247894Y388730D01*
X247704Y388888D01*
X247510Y389042D01*
X247312Y389190D01*
X247111Y389334D01*
X246906Y389473D01*
X246698Y389607D01*
X246487Y389736D01*
X246272Y389860D01*
X246055Y389978D01*
X245835Y390092D01*
X245612Y390199D01*
X245387Y390302D01*
X245159Y390398D01*
X244929Y390490D01*
X244697Y390575D01*
X244463Y390655D01*
X244227Y390729D01*
X243989Y390798D01*
X243750Y390860D01*
X243509Y390917D01*
X243267Y390968D01*
X243024Y391013D01*
X242779Y391052D01*
X242534Y391085D01*
X242288Y391112D01*
X242042Y391133D01*
X241795Y391148D01*
X241547Y391157D01*
X241300Y391160D01*
D16*
X236855Y354968D02*
X236855Y351155D01*
X236855Y353062D02*
X225415Y353062D01*
X225415Y354968D02*
X225415Y351155D01*
X225415Y364671D02*
X227322Y366577D01*
X225415Y364671D02*
X225415Y360858D01*
X227322Y358951D01*
X234948Y358951D01*
X236855Y360858D01*
X236855Y364671D01*
X234948Y366577D01*
X229229Y370645D02*
X225415Y374458D01*
X236855Y374458D01*
X236855Y370645D02*
X236855Y378271D01*
X236855Y388059D02*
X225415Y388059D01*
X231135Y382339D01*
X231135Y389965D01*
D11*
X1701800Y1003300D02*
X1727200Y1003300D01*
X1727200Y774700D02*
X1701800Y774700D01*
X1720850Y781050D02*
X1727200Y774700D01*
X1708150Y781050D02*
X1701800Y774700D01*
X1708150Y793750D02*
X1701800Y800100D01*
X1701800Y1003300D01*
X1727200Y800100D02*
X1720850Y793750D01*
X1727200Y800100D02*
X1727200Y774700D01*
X1727200Y800100D02*
X1701800Y800100D01*
X1701800Y774700D01*
X1727200Y800100D02*
X1727200Y1003300D01*
D16*
X1694815Y800735D02*
X1683375Y800735D01*
X1683375Y806455D01*
X1685282Y808362D01*
X1689095Y808362D01*
X1691002Y806455D01*
X1691002Y800735D01*
X1691002Y804548D02*
X1694815Y808362D01*
X1694815Y812429D02*
X1683375Y812429D01*
X1694815Y820055D01*
X1683375Y820055D01*
X1683375Y824123D02*
X1683375Y831749D01*
X1683375Y824123D02*
X1689095Y824123D01*
X1687189Y827936D01*
X1687189Y829843D01*
X1689095Y831749D01*
X1692908Y831749D01*
X1694815Y829843D01*
X1694815Y826030D01*
X1692908Y824123D01*
D11*
X1701800Y698500D02*
X1727200Y698500D01*
X1727200Y469900D02*
X1701800Y469900D01*
X1720850Y476250D02*
X1727200Y469900D01*
X1708150Y476250D02*
X1701800Y469900D01*
X1708150Y488950D02*
X1701800Y495300D01*
X1701800Y698500D01*
X1727200Y495300D02*
X1720850Y488950D01*
X1727200Y495300D02*
X1727200Y469900D01*
X1727200Y495300D02*
X1701800Y495300D01*
X1701800Y469900D01*
X1727200Y495300D02*
X1727200Y698500D01*
D16*
X1694815Y495935D02*
X1683375Y495935D01*
X1683375Y501655D01*
X1685282Y503562D01*
X1689095Y503562D01*
X1691002Y501655D01*
X1691002Y495935D01*
X1691002Y499748D02*
X1694815Y503562D01*
X1694815Y507629D02*
X1683375Y507629D01*
X1694815Y515255D01*
X1683375Y515255D01*
X1685282Y523136D02*
X1683375Y526949D01*
X1685282Y523136D02*
X1689095Y519323D01*
X1692908Y519323D01*
X1694815Y521230D01*
X1694815Y525043D01*
X1692908Y526949D01*
X1691002Y526949D01*
X1689095Y525043D01*
X1689095Y519323D01*
D11*
X1346200Y943610D02*
X1346200Y986790D01*
X1371600Y986790D02*
X1371600Y943610D01*
X1369060Y989330D02*
X1348740Y989330D01*
X1348740Y941070D02*
X1369060Y941070D01*
X1346200Y986790D02*
X1346202Y986890D01*
X1346208Y986989D01*
X1346218Y987089D01*
X1346231Y987187D01*
X1346249Y987286D01*
X1346270Y987383D01*
X1346295Y987479D01*
X1346324Y987575D01*
X1346357Y987669D01*
X1346393Y987762D01*
X1346433Y987853D01*
X1346477Y987943D01*
X1346524Y988031D01*
X1346574Y988117D01*
X1346628Y988201D01*
X1346685Y988283D01*
X1346745Y988362D01*
X1346809Y988440D01*
X1346875Y988514D01*
X1346944Y988586D01*
X1347016Y988655D01*
X1347090Y988721D01*
X1347168Y988785D01*
X1347247Y988845D01*
X1347329Y988902D01*
X1347413Y988956D01*
X1347499Y989006D01*
X1347587Y989053D01*
X1347677Y989097D01*
X1347768Y989137D01*
X1347861Y989173D01*
X1347955Y989206D01*
X1348051Y989235D01*
X1348147Y989260D01*
X1348244Y989281D01*
X1348343Y989299D01*
X1348441Y989312D01*
X1348541Y989322D01*
X1348640Y989328D01*
X1348740Y989330D01*
X1346200Y943610D02*
X1346202Y943510D01*
X1346208Y943411D01*
X1346218Y943311D01*
X1346231Y943213D01*
X1346249Y943114D01*
X1346270Y943017D01*
X1346295Y942921D01*
X1346324Y942825D01*
X1346357Y942731D01*
X1346393Y942638D01*
X1346433Y942547D01*
X1346477Y942457D01*
X1346524Y942369D01*
X1346574Y942283D01*
X1346628Y942199D01*
X1346685Y942117D01*
X1346745Y942038D01*
X1346809Y941960D01*
X1346875Y941886D01*
X1346944Y941814D01*
X1347016Y941745D01*
X1347090Y941679D01*
X1347168Y941615D01*
X1347247Y941555D01*
X1347329Y941498D01*
X1347413Y941444D01*
X1347499Y941394D01*
X1347587Y941347D01*
X1347677Y941303D01*
X1347768Y941263D01*
X1347861Y941227D01*
X1347955Y941194D01*
X1348051Y941165D01*
X1348147Y941140D01*
X1348244Y941119D01*
X1348343Y941101D01*
X1348441Y941088D01*
X1348541Y941078D01*
X1348640Y941072D01*
X1348740Y941070D01*
X1371600Y986790D02*
X1371598Y986890D01*
X1371592Y986989D01*
X1371582Y987089D01*
X1371569Y987187D01*
X1371551Y987286D01*
X1371530Y987383D01*
X1371505Y987479D01*
X1371476Y987575D01*
X1371443Y987669D01*
X1371407Y987762D01*
X1371367Y987853D01*
X1371323Y987943D01*
X1371276Y988031D01*
X1371226Y988117D01*
X1371172Y988201D01*
X1371115Y988283D01*
X1371055Y988362D01*
X1370991Y988440D01*
X1370925Y988514D01*
X1370856Y988586D01*
X1370784Y988655D01*
X1370710Y988721D01*
X1370632Y988785D01*
X1370553Y988845D01*
X1370471Y988902D01*
X1370387Y988956D01*
X1370301Y989006D01*
X1370213Y989053D01*
X1370123Y989097D01*
X1370032Y989137D01*
X1369939Y989173D01*
X1369845Y989206D01*
X1369749Y989235D01*
X1369653Y989260D01*
X1369556Y989281D01*
X1369457Y989299D01*
X1369359Y989312D01*
X1369259Y989322D01*
X1369160Y989328D01*
X1369060Y989330D01*
X1371600Y943610D02*
X1371598Y943510D01*
X1371592Y943411D01*
X1371582Y943311D01*
X1371569Y943213D01*
X1371551Y943114D01*
X1371530Y943017D01*
X1371505Y942921D01*
X1371476Y942825D01*
X1371443Y942731D01*
X1371407Y942638D01*
X1371367Y942547D01*
X1371323Y942457D01*
X1371276Y942369D01*
X1371226Y942283D01*
X1371172Y942199D01*
X1371115Y942117D01*
X1371055Y942038D01*
X1370991Y941960D01*
X1370925Y941886D01*
X1370856Y941814D01*
X1370784Y941745D01*
X1370710Y941679D01*
X1370632Y941615D01*
X1370553Y941555D01*
X1370471Y941498D01*
X1370387Y941444D01*
X1370301Y941394D01*
X1370213Y941347D01*
X1370123Y941303D01*
X1370032Y941263D01*
X1369939Y941227D01*
X1369845Y941194D01*
X1369749Y941165D01*
X1369653Y941140D01*
X1369556Y941119D01*
X1369457Y941101D01*
X1369359Y941088D01*
X1369259Y941078D01*
X1369160Y941072D01*
X1369060Y941070D01*
X1358900Y967740D02*
X1358900Y969010D01*
D13*
X1358900Y967740D02*
X1351280Y967740D01*
X1358900Y967740D02*
X1366520Y967740D01*
X1358900Y962660D02*
X1351280Y962660D01*
X1358900Y962660D02*
X1366520Y962660D01*
D11*
X1358900Y962660D02*
X1358900Y961390D01*
D16*
X1333492Y950602D02*
X1331585Y948695D01*
X1331585Y944882D01*
X1333492Y942975D01*
X1341118Y942975D01*
X1343025Y944882D01*
X1343025Y948695D01*
X1341118Y950602D01*
X1335399Y954669D02*
X1331585Y958482D01*
X1343025Y958482D01*
X1343025Y954669D02*
X1343025Y962295D01*
X1343025Y972083D02*
X1331585Y972083D01*
X1337305Y966363D01*
X1337305Y973989D01*
D11*
X1346200Y847090D02*
X1346200Y803910D01*
X1371600Y803910D02*
X1371600Y847090D01*
X1369060Y849630D02*
X1348740Y849630D01*
X1348740Y801370D02*
X1369060Y801370D01*
X1346200Y847090D02*
X1346202Y847190D01*
X1346208Y847289D01*
X1346218Y847389D01*
X1346231Y847487D01*
X1346249Y847586D01*
X1346270Y847683D01*
X1346295Y847779D01*
X1346324Y847875D01*
X1346357Y847969D01*
X1346393Y848062D01*
X1346433Y848153D01*
X1346477Y848243D01*
X1346524Y848331D01*
X1346574Y848417D01*
X1346628Y848501D01*
X1346685Y848583D01*
X1346745Y848662D01*
X1346809Y848740D01*
X1346875Y848814D01*
X1346944Y848886D01*
X1347016Y848955D01*
X1347090Y849021D01*
X1347168Y849085D01*
X1347247Y849145D01*
X1347329Y849202D01*
X1347413Y849256D01*
X1347499Y849306D01*
X1347587Y849353D01*
X1347677Y849397D01*
X1347768Y849437D01*
X1347861Y849473D01*
X1347955Y849506D01*
X1348051Y849535D01*
X1348147Y849560D01*
X1348244Y849581D01*
X1348343Y849599D01*
X1348441Y849612D01*
X1348541Y849622D01*
X1348640Y849628D01*
X1348740Y849630D01*
X1346200Y803910D02*
X1346202Y803810D01*
X1346208Y803711D01*
X1346218Y803611D01*
X1346231Y803513D01*
X1346249Y803414D01*
X1346270Y803317D01*
X1346295Y803221D01*
X1346324Y803125D01*
X1346357Y803031D01*
X1346393Y802938D01*
X1346433Y802847D01*
X1346477Y802757D01*
X1346524Y802669D01*
X1346574Y802583D01*
X1346628Y802499D01*
X1346685Y802417D01*
X1346745Y802338D01*
X1346809Y802260D01*
X1346875Y802186D01*
X1346944Y802114D01*
X1347016Y802045D01*
X1347090Y801979D01*
X1347168Y801915D01*
X1347247Y801855D01*
X1347329Y801798D01*
X1347413Y801744D01*
X1347499Y801694D01*
X1347587Y801647D01*
X1347677Y801603D01*
X1347768Y801563D01*
X1347861Y801527D01*
X1347955Y801494D01*
X1348051Y801465D01*
X1348147Y801440D01*
X1348244Y801419D01*
X1348343Y801401D01*
X1348441Y801388D01*
X1348541Y801378D01*
X1348640Y801372D01*
X1348740Y801370D01*
X1371600Y847090D02*
X1371598Y847190D01*
X1371592Y847289D01*
X1371582Y847389D01*
X1371569Y847487D01*
X1371551Y847586D01*
X1371530Y847683D01*
X1371505Y847779D01*
X1371476Y847875D01*
X1371443Y847969D01*
X1371407Y848062D01*
X1371367Y848153D01*
X1371323Y848243D01*
X1371276Y848331D01*
X1371226Y848417D01*
X1371172Y848501D01*
X1371115Y848583D01*
X1371055Y848662D01*
X1370991Y848740D01*
X1370925Y848814D01*
X1370856Y848886D01*
X1370784Y848955D01*
X1370710Y849021D01*
X1370632Y849085D01*
X1370553Y849145D01*
X1370471Y849202D01*
X1370387Y849256D01*
X1370301Y849306D01*
X1370213Y849353D01*
X1370123Y849397D01*
X1370032Y849437D01*
X1369939Y849473D01*
X1369845Y849506D01*
X1369749Y849535D01*
X1369653Y849560D01*
X1369556Y849581D01*
X1369457Y849599D01*
X1369359Y849612D01*
X1369259Y849622D01*
X1369160Y849628D01*
X1369060Y849630D01*
X1371600Y803910D02*
X1371598Y803810D01*
X1371592Y803711D01*
X1371582Y803611D01*
X1371569Y803513D01*
X1371551Y803414D01*
X1371530Y803317D01*
X1371505Y803221D01*
X1371476Y803125D01*
X1371443Y803031D01*
X1371407Y802938D01*
X1371367Y802847D01*
X1371323Y802757D01*
X1371276Y802669D01*
X1371226Y802583D01*
X1371172Y802499D01*
X1371115Y802417D01*
X1371055Y802338D01*
X1370991Y802260D01*
X1370925Y802186D01*
X1370856Y802114D01*
X1370784Y802045D01*
X1370710Y801979D01*
X1370632Y801915D01*
X1370553Y801855D01*
X1370471Y801798D01*
X1370387Y801744D01*
X1370301Y801694D01*
X1370213Y801647D01*
X1370123Y801603D01*
X1370032Y801563D01*
X1369939Y801527D01*
X1369845Y801494D01*
X1369749Y801465D01*
X1369653Y801440D01*
X1369556Y801419D01*
X1369457Y801401D01*
X1369359Y801388D01*
X1369259Y801378D01*
X1369160Y801372D01*
X1369060Y801370D01*
X1358900Y828040D02*
X1358900Y829310D01*
D13*
X1358900Y828040D02*
X1351280Y828040D01*
X1358900Y828040D02*
X1366520Y828040D01*
X1358900Y822960D02*
X1351280Y822960D01*
X1358900Y822960D02*
X1366520Y822960D01*
D11*
X1358900Y822960D02*
X1358900Y821690D01*
D16*
X1333492Y810902D02*
X1331585Y808995D01*
X1331585Y805182D01*
X1333492Y803275D01*
X1341118Y803275D01*
X1343025Y805182D01*
X1343025Y808995D01*
X1341118Y810902D01*
X1335399Y814969D02*
X1331585Y818782D01*
X1343025Y818782D01*
X1343025Y814969D02*
X1343025Y822595D01*
X1331585Y826663D02*
X1331585Y834289D01*
X1331585Y826663D02*
X1337305Y826663D01*
X1335399Y830476D01*
X1335399Y832383D01*
X1337305Y834289D01*
X1341118Y834289D01*
X1343025Y832383D01*
X1343025Y828570D01*
X1341118Y826663D01*
D11*
X1346200Y694690D02*
X1346200Y651510D01*
X1371600Y651510D02*
X1371600Y694690D01*
X1369060Y697230D02*
X1348740Y697230D01*
X1348740Y648970D02*
X1369060Y648970D01*
X1346200Y694690D02*
X1346202Y694790D01*
X1346208Y694889D01*
X1346218Y694989D01*
X1346231Y695087D01*
X1346249Y695186D01*
X1346270Y695283D01*
X1346295Y695379D01*
X1346324Y695475D01*
X1346357Y695569D01*
X1346393Y695662D01*
X1346433Y695753D01*
X1346477Y695843D01*
X1346524Y695931D01*
X1346574Y696017D01*
X1346628Y696101D01*
X1346685Y696183D01*
X1346745Y696262D01*
X1346809Y696340D01*
X1346875Y696414D01*
X1346944Y696486D01*
X1347016Y696555D01*
X1347090Y696621D01*
X1347168Y696685D01*
X1347247Y696745D01*
X1347329Y696802D01*
X1347413Y696856D01*
X1347499Y696906D01*
X1347587Y696953D01*
X1347677Y696997D01*
X1347768Y697037D01*
X1347861Y697073D01*
X1347955Y697106D01*
X1348051Y697135D01*
X1348147Y697160D01*
X1348244Y697181D01*
X1348343Y697199D01*
X1348441Y697212D01*
X1348541Y697222D01*
X1348640Y697228D01*
X1348740Y697230D01*
X1346200Y651510D02*
X1346202Y651410D01*
X1346208Y651311D01*
X1346218Y651211D01*
X1346231Y651113D01*
X1346249Y651014D01*
X1346270Y650917D01*
X1346295Y650821D01*
X1346324Y650725D01*
X1346357Y650631D01*
X1346393Y650538D01*
X1346433Y650447D01*
X1346477Y650357D01*
X1346524Y650269D01*
X1346574Y650183D01*
X1346628Y650099D01*
X1346685Y650017D01*
X1346745Y649938D01*
X1346809Y649860D01*
X1346875Y649786D01*
X1346944Y649714D01*
X1347016Y649645D01*
X1347090Y649579D01*
X1347168Y649515D01*
X1347247Y649455D01*
X1347329Y649398D01*
X1347413Y649344D01*
X1347499Y649294D01*
X1347587Y649247D01*
X1347677Y649203D01*
X1347768Y649163D01*
X1347861Y649127D01*
X1347955Y649094D01*
X1348051Y649065D01*
X1348147Y649040D01*
X1348244Y649019D01*
X1348343Y649001D01*
X1348441Y648988D01*
X1348541Y648978D01*
X1348640Y648972D01*
X1348740Y648970D01*
X1371600Y694690D02*
X1371598Y694790D01*
X1371592Y694889D01*
X1371582Y694989D01*
X1371569Y695087D01*
X1371551Y695186D01*
X1371530Y695283D01*
X1371505Y695379D01*
X1371476Y695475D01*
X1371443Y695569D01*
X1371407Y695662D01*
X1371367Y695753D01*
X1371323Y695843D01*
X1371276Y695931D01*
X1371226Y696017D01*
X1371172Y696101D01*
X1371115Y696183D01*
X1371055Y696262D01*
X1370991Y696340D01*
X1370925Y696414D01*
X1370856Y696486D01*
X1370784Y696555D01*
X1370710Y696621D01*
X1370632Y696685D01*
X1370553Y696745D01*
X1370471Y696802D01*
X1370387Y696856D01*
X1370301Y696906D01*
X1370213Y696953D01*
X1370123Y696997D01*
X1370032Y697037D01*
X1369939Y697073D01*
X1369845Y697106D01*
X1369749Y697135D01*
X1369653Y697160D01*
X1369556Y697181D01*
X1369457Y697199D01*
X1369359Y697212D01*
X1369259Y697222D01*
X1369160Y697228D01*
X1369060Y697230D01*
X1371600Y651510D02*
X1371598Y651410D01*
X1371592Y651311D01*
X1371582Y651211D01*
X1371569Y651113D01*
X1371551Y651014D01*
X1371530Y650917D01*
X1371505Y650821D01*
X1371476Y650725D01*
X1371443Y650631D01*
X1371407Y650538D01*
X1371367Y650447D01*
X1371323Y650357D01*
X1371276Y650269D01*
X1371226Y650183D01*
X1371172Y650099D01*
X1371115Y650017D01*
X1371055Y649938D01*
X1370991Y649860D01*
X1370925Y649786D01*
X1370856Y649714D01*
X1370784Y649645D01*
X1370710Y649579D01*
X1370632Y649515D01*
X1370553Y649455D01*
X1370471Y649398D01*
X1370387Y649344D01*
X1370301Y649294D01*
X1370213Y649247D01*
X1370123Y649203D01*
X1370032Y649163D01*
X1369939Y649127D01*
X1369845Y649094D01*
X1369749Y649065D01*
X1369653Y649040D01*
X1369556Y649019D01*
X1369457Y649001D01*
X1369359Y648988D01*
X1369259Y648978D01*
X1369160Y648972D01*
X1369060Y648970D01*
X1358900Y675640D02*
X1358900Y676910D01*
D13*
X1358900Y675640D02*
X1351280Y675640D01*
X1358900Y675640D02*
X1366520Y675640D01*
X1358900Y670560D02*
X1351280Y670560D01*
X1358900Y670560D02*
X1366520Y670560D01*
D11*
X1358900Y670560D02*
X1358900Y669290D01*
D16*
X1333492Y658502D02*
X1331585Y656595D01*
X1331585Y652782D01*
X1333492Y650875D01*
X1341118Y650875D01*
X1343025Y652782D01*
X1343025Y656595D01*
X1341118Y658502D01*
X1335399Y662569D02*
X1331585Y666382D01*
X1343025Y666382D01*
X1343025Y662569D02*
X1343025Y670195D01*
X1333492Y678076D02*
X1331585Y681889D01*
X1333492Y678076D02*
X1337305Y674263D01*
X1341118Y674263D01*
X1343025Y676170D01*
X1343025Y679983D01*
X1341118Y681889D01*
X1339212Y681889D01*
X1337305Y679983D01*
X1337305Y674263D01*
D11*
X1346200Y542290D02*
X1346200Y499110D01*
X1371600Y499110D02*
X1371600Y542290D01*
X1369060Y544830D02*
X1348740Y544830D01*
X1348740Y496570D02*
X1369060Y496570D01*
X1346200Y542290D02*
X1346202Y542390D01*
X1346208Y542489D01*
X1346218Y542589D01*
X1346231Y542687D01*
X1346249Y542786D01*
X1346270Y542883D01*
X1346295Y542979D01*
X1346324Y543075D01*
X1346357Y543169D01*
X1346393Y543262D01*
X1346433Y543353D01*
X1346477Y543443D01*
X1346524Y543531D01*
X1346574Y543617D01*
X1346628Y543701D01*
X1346685Y543783D01*
X1346745Y543862D01*
X1346809Y543940D01*
X1346875Y544014D01*
X1346944Y544086D01*
X1347016Y544155D01*
X1347090Y544221D01*
X1347168Y544285D01*
X1347247Y544345D01*
X1347329Y544402D01*
X1347413Y544456D01*
X1347499Y544506D01*
X1347587Y544553D01*
X1347677Y544597D01*
X1347768Y544637D01*
X1347861Y544673D01*
X1347955Y544706D01*
X1348051Y544735D01*
X1348147Y544760D01*
X1348244Y544781D01*
X1348343Y544799D01*
X1348441Y544812D01*
X1348541Y544822D01*
X1348640Y544828D01*
X1348740Y544830D01*
X1346200Y499110D02*
X1346202Y499010D01*
X1346208Y498911D01*
X1346218Y498811D01*
X1346231Y498713D01*
X1346249Y498614D01*
X1346270Y498517D01*
X1346295Y498421D01*
X1346324Y498325D01*
X1346357Y498231D01*
X1346393Y498138D01*
X1346433Y498047D01*
X1346477Y497957D01*
X1346524Y497869D01*
X1346574Y497783D01*
X1346628Y497699D01*
X1346685Y497617D01*
X1346745Y497538D01*
X1346809Y497460D01*
X1346875Y497386D01*
X1346944Y497314D01*
X1347016Y497245D01*
X1347090Y497179D01*
X1347168Y497115D01*
X1347247Y497055D01*
X1347329Y496998D01*
X1347413Y496944D01*
X1347499Y496894D01*
X1347587Y496847D01*
X1347677Y496803D01*
X1347768Y496763D01*
X1347861Y496727D01*
X1347955Y496694D01*
X1348051Y496665D01*
X1348147Y496640D01*
X1348244Y496619D01*
X1348343Y496601D01*
X1348441Y496588D01*
X1348541Y496578D01*
X1348640Y496572D01*
X1348740Y496570D01*
X1371600Y542290D02*
X1371598Y542390D01*
X1371592Y542489D01*
X1371582Y542589D01*
X1371569Y542687D01*
X1371551Y542786D01*
X1371530Y542883D01*
X1371505Y542979D01*
X1371476Y543075D01*
X1371443Y543169D01*
X1371407Y543262D01*
X1371367Y543353D01*
X1371323Y543443D01*
X1371276Y543531D01*
X1371226Y543617D01*
X1371172Y543701D01*
X1371115Y543783D01*
X1371055Y543862D01*
X1370991Y543940D01*
X1370925Y544014D01*
X1370856Y544086D01*
X1370784Y544155D01*
X1370710Y544221D01*
X1370632Y544285D01*
X1370553Y544345D01*
X1370471Y544402D01*
X1370387Y544456D01*
X1370301Y544506D01*
X1370213Y544553D01*
X1370123Y544597D01*
X1370032Y544637D01*
X1369939Y544673D01*
X1369845Y544706D01*
X1369749Y544735D01*
X1369653Y544760D01*
X1369556Y544781D01*
X1369457Y544799D01*
X1369359Y544812D01*
X1369259Y544822D01*
X1369160Y544828D01*
X1369060Y544830D01*
X1371600Y499110D02*
X1371598Y499010D01*
X1371592Y498911D01*
X1371582Y498811D01*
X1371569Y498713D01*
X1371551Y498614D01*
X1371530Y498517D01*
X1371505Y498421D01*
X1371476Y498325D01*
X1371443Y498231D01*
X1371407Y498138D01*
X1371367Y498047D01*
X1371323Y497957D01*
X1371276Y497869D01*
X1371226Y497783D01*
X1371172Y497699D01*
X1371115Y497617D01*
X1371055Y497538D01*
X1370991Y497460D01*
X1370925Y497386D01*
X1370856Y497314D01*
X1370784Y497245D01*
X1370710Y497179D01*
X1370632Y497115D01*
X1370553Y497055D01*
X1370471Y496998D01*
X1370387Y496944D01*
X1370301Y496894D01*
X1370213Y496847D01*
X1370123Y496803D01*
X1370032Y496763D01*
X1369939Y496727D01*
X1369845Y496694D01*
X1369749Y496665D01*
X1369653Y496640D01*
X1369556Y496619D01*
X1369457Y496601D01*
X1369359Y496588D01*
X1369259Y496578D01*
X1369160Y496572D01*
X1369060Y496570D01*
X1358900Y523240D02*
X1358900Y524510D01*
D13*
X1358900Y523240D02*
X1351280Y523240D01*
X1358900Y523240D02*
X1366520Y523240D01*
X1358900Y518160D02*
X1351280Y518160D01*
X1358900Y518160D02*
X1366520Y518160D01*
D11*
X1358900Y518160D02*
X1358900Y516890D01*
D16*
X1333492Y506102D02*
X1331585Y504195D01*
X1331585Y500382D01*
X1333492Y498475D01*
X1341118Y498475D01*
X1343025Y500382D01*
X1343025Y504195D01*
X1341118Y506102D01*
X1335399Y510169D02*
X1331585Y513982D01*
X1343025Y513982D01*
X1343025Y510169D02*
X1343025Y517795D01*
X1331585Y521863D02*
X1331585Y529489D01*
X1333492Y529489D01*
X1341118Y521863D01*
X1343025Y521863D01*
D11*
X57150Y1104900D02*
X44450Y1104900D01*
X57150Y1104900D02*
X63500Y1098550D01*
X63500Y1085850D01*
X57150Y1079500D01*
X63500Y1098550D02*
X69850Y1104900D01*
X82550Y1104900D01*
X88900Y1098550D01*
X88900Y1085850D01*
X82550Y1079500D01*
X69850Y1079500D01*
X63500Y1085850D01*
X38100Y1085850D02*
X38100Y1098550D01*
X44450Y1104900D01*
X38100Y1085850D02*
X44450Y1079500D01*
X57150Y1079500D01*
X88900Y1098550D02*
X95250Y1104900D01*
X107950Y1104900D01*
X114300Y1098550D01*
X114300Y1085850D01*
X107950Y1079500D01*
X95250Y1079500D01*
X88900Y1085850D01*
D16*
X63373Y1062230D02*
X65280Y1060323D01*
X67186Y1060323D01*
X69093Y1062230D01*
X69093Y1071763D01*
X67186Y1071763D02*
X71000Y1071763D01*
X75067Y1071763D02*
X75067Y1060323D01*
X75067Y1071763D02*
X80787Y1071763D01*
X82693Y1069856D01*
X82693Y1066043D01*
X80787Y1064136D01*
X75067Y1064136D01*
X86761Y1067950D02*
X90574Y1071763D01*
X90574Y1060323D01*
X86761Y1060323D02*
X94387Y1060323D01*
D11*
X241300Y245110D02*
X419100Y245110D01*
X419100Y186690D02*
X241300Y186690D01*
X419100Y186690D02*
X419100Y245110D01*
X241300Y245110D02*
X241300Y226060D01*
X241300Y205740D02*
X241300Y186690D01*
X241300Y205740D02*
X241547Y205743D01*
X241795Y205752D01*
X242042Y205767D01*
X242288Y205788D01*
X242534Y205815D01*
X242779Y205848D01*
X243024Y205887D01*
X243267Y205932D01*
X243509Y205983D01*
X243750Y206040D01*
X243989Y206102D01*
X244227Y206171D01*
X244463Y206245D01*
X244697Y206325D01*
X244929Y206410D01*
X245159Y206502D01*
X245387Y206598D01*
X245612Y206701D01*
X245835Y206808D01*
X246055Y206922D01*
X246272Y207040D01*
X246487Y207164D01*
X246698Y207293D01*
X246906Y207427D01*
X247111Y207566D01*
X247312Y207710D01*
X247510Y207858D01*
X247704Y208012D01*
X247894Y208170D01*
X248080Y208333D01*
X248262Y208500D01*
X248440Y208672D01*
X248614Y208848D01*
X248784Y209028D01*
X248949Y209213D01*
X249109Y209401D01*
X249265Y209593D01*
X249417Y209789D01*
X249563Y209988D01*
X249705Y210191D01*
X249841Y210398D01*
X249973Y210607D01*
X250099Y210820D01*
X250220Y211036D01*
X250336Y211254D01*
X250446Y211476D01*
X250551Y211700D01*
X250651Y211926D01*
X250745Y212155D01*
X250833Y212386D01*
X250916Y212620D01*
X250993Y212855D01*
X251064Y213092D01*
X251130Y213330D01*
X251189Y213570D01*
X251243Y213812D01*
X251291Y214055D01*
X251333Y214298D01*
X251369Y214543D01*
X251399Y214789D01*
X251423Y215035D01*
X251441Y215282D01*
X251453Y215529D01*
X251459Y215776D01*
X251459Y216024D01*
X251453Y216271D01*
X251441Y216518D01*
X251423Y216765D01*
X251399Y217011D01*
X251369Y217257D01*
X251333Y217502D01*
X251291Y217745D01*
X251243Y217988D01*
X251189Y218230D01*
X251130Y218470D01*
X251064Y218708D01*
X250993Y218945D01*
X250916Y219180D01*
X250833Y219414D01*
X250745Y219645D01*
X250651Y219874D01*
X250551Y220100D01*
X250446Y220324D01*
X250336Y220546D01*
X250220Y220764D01*
X250099Y220980D01*
X249973Y221193D01*
X249841Y221402D01*
X249705Y221609D01*
X249563Y221812D01*
X249417Y222011D01*
X249265Y222207D01*
X249109Y222399D01*
X248949Y222587D01*
X248784Y222772D01*
X248614Y222952D01*
X248440Y223128D01*
X248262Y223300D01*
X248080Y223467D01*
X247894Y223630D01*
X247704Y223788D01*
X247510Y223942D01*
X247312Y224090D01*
X247111Y224234D01*
X246906Y224373D01*
X246698Y224507D01*
X246487Y224636D01*
X246272Y224760D01*
X246055Y224878D01*
X245835Y224992D01*
X245612Y225099D01*
X245387Y225202D01*
X245159Y225298D01*
X244929Y225390D01*
X244697Y225475D01*
X244463Y225555D01*
X244227Y225629D01*
X243989Y225698D01*
X243750Y225760D01*
X243509Y225817D01*
X243267Y225868D01*
X243024Y225913D01*
X242779Y225952D01*
X242534Y225985D01*
X242288Y226012D01*
X242042Y226033D01*
X241795Y226048D01*
X241547Y226057D01*
X241300Y226060D01*
D16*
X236855Y189868D02*
X236855Y186055D01*
X236855Y187962D02*
X225415Y187962D01*
X225415Y189868D02*
X225415Y186055D01*
X225415Y199571D02*
X227322Y201477D01*
X225415Y199571D02*
X225415Y195758D01*
X227322Y193851D01*
X234948Y193851D01*
X236855Y195758D01*
X236855Y199571D01*
X234948Y201477D01*
X227322Y205545D02*
X225415Y207452D01*
X225415Y211265D01*
X227322Y213171D01*
X229229Y213171D01*
X231135Y211265D01*
X231135Y209358D01*
X231135Y211265D02*
X233042Y213171D01*
X234948Y213171D01*
X236855Y211265D01*
X236855Y207452D01*
X234948Y205545D01*
D11*
X190500Y194310D02*
X190500Y237490D01*
X215900Y237490D02*
X215900Y194310D01*
X213360Y240030D02*
X193040Y240030D01*
X193040Y191770D02*
X213360Y191770D01*
X190500Y237490D02*
X190502Y237590D01*
X190508Y237689D01*
X190518Y237789D01*
X190531Y237887D01*
X190549Y237986D01*
X190570Y238083D01*
X190595Y238179D01*
X190624Y238275D01*
X190657Y238369D01*
X190693Y238462D01*
X190733Y238553D01*
X190777Y238643D01*
X190824Y238731D01*
X190874Y238817D01*
X190928Y238901D01*
X190985Y238983D01*
X191045Y239062D01*
X191109Y239140D01*
X191175Y239214D01*
X191244Y239286D01*
X191316Y239355D01*
X191390Y239421D01*
X191468Y239485D01*
X191547Y239545D01*
X191629Y239602D01*
X191713Y239656D01*
X191799Y239706D01*
X191887Y239753D01*
X191977Y239797D01*
X192068Y239837D01*
X192161Y239873D01*
X192255Y239906D01*
X192351Y239935D01*
X192447Y239960D01*
X192544Y239981D01*
X192643Y239999D01*
X192741Y240012D01*
X192841Y240022D01*
X192940Y240028D01*
X193040Y240030D01*
X190500Y194310D02*
X190502Y194210D01*
X190508Y194111D01*
X190518Y194011D01*
X190531Y193913D01*
X190549Y193814D01*
X190570Y193717D01*
X190595Y193621D01*
X190624Y193525D01*
X190657Y193431D01*
X190693Y193338D01*
X190733Y193247D01*
X190777Y193157D01*
X190824Y193069D01*
X190874Y192983D01*
X190928Y192899D01*
X190985Y192817D01*
X191045Y192738D01*
X191109Y192660D01*
X191175Y192586D01*
X191244Y192514D01*
X191316Y192445D01*
X191390Y192379D01*
X191468Y192315D01*
X191547Y192255D01*
X191629Y192198D01*
X191713Y192144D01*
X191799Y192094D01*
X191887Y192047D01*
X191977Y192003D01*
X192068Y191963D01*
X192161Y191927D01*
X192255Y191894D01*
X192351Y191865D01*
X192447Y191840D01*
X192544Y191819D01*
X192643Y191801D01*
X192741Y191788D01*
X192841Y191778D01*
X192940Y191772D01*
X193040Y191770D01*
X215900Y237490D02*
X215898Y237590D01*
X215892Y237689D01*
X215882Y237789D01*
X215869Y237887D01*
X215851Y237986D01*
X215830Y238083D01*
X215805Y238179D01*
X215776Y238275D01*
X215743Y238369D01*
X215707Y238462D01*
X215667Y238553D01*
X215623Y238643D01*
X215576Y238731D01*
X215526Y238817D01*
X215472Y238901D01*
X215415Y238983D01*
X215355Y239062D01*
X215291Y239140D01*
X215225Y239214D01*
X215156Y239286D01*
X215084Y239355D01*
X215010Y239421D01*
X214932Y239485D01*
X214853Y239545D01*
X214771Y239602D01*
X214687Y239656D01*
X214601Y239706D01*
X214513Y239753D01*
X214423Y239797D01*
X214332Y239837D01*
X214239Y239873D01*
X214145Y239906D01*
X214049Y239935D01*
X213953Y239960D01*
X213856Y239981D01*
X213757Y239999D01*
X213659Y240012D01*
X213559Y240022D01*
X213460Y240028D01*
X213360Y240030D01*
X215900Y194310D02*
X215898Y194210D01*
X215892Y194111D01*
X215882Y194011D01*
X215869Y193913D01*
X215851Y193814D01*
X215830Y193717D01*
X215805Y193621D01*
X215776Y193525D01*
X215743Y193431D01*
X215707Y193338D01*
X215667Y193247D01*
X215623Y193157D01*
X215576Y193069D01*
X215526Y192983D01*
X215472Y192899D01*
X215415Y192817D01*
X215355Y192738D01*
X215291Y192660D01*
X215225Y192586D01*
X215156Y192514D01*
X215084Y192445D01*
X215010Y192379D01*
X214932Y192315D01*
X214853Y192255D01*
X214771Y192198D01*
X214687Y192144D01*
X214601Y192094D01*
X214513Y192047D01*
X214423Y192003D01*
X214332Y191963D01*
X214239Y191927D01*
X214145Y191894D01*
X214049Y191865D01*
X213953Y191840D01*
X213856Y191819D01*
X213757Y191801D01*
X213659Y191788D01*
X213559Y191778D01*
X213460Y191772D01*
X213360Y191770D01*
X203200Y218440D02*
X203200Y219710D01*
D13*
X203200Y218440D02*
X195580Y218440D01*
X203200Y218440D02*
X210820Y218440D01*
X203200Y213360D02*
X195580Y213360D01*
X203200Y213360D02*
X210820Y213360D01*
D11*
X203200Y213360D02*
X203200Y212090D01*
D16*
X177792Y201302D02*
X175885Y199395D01*
X175885Y195582D01*
X177792Y193675D01*
X185418Y193675D01*
X187325Y195582D01*
X187325Y199395D01*
X185418Y201302D01*
X179699Y205369D02*
X175885Y209182D01*
X187325Y209182D01*
X187325Y205369D02*
X187325Y212995D01*
X177792Y217063D02*
X175885Y218970D01*
X175885Y222783D01*
X177792Y224689D01*
X179699Y224689D01*
X181605Y222783D01*
X183512Y224689D01*
X185418Y224689D01*
X187325Y222783D01*
X187325Y218970D01*
X185418Y217063D01*
X183512Y217063D01*
X181605Y218970D01*
X179699Y217063D01*
X177792Y217063D01*
X181605Y218970D02*
X181605Y222783D01*
D11*
X1397000Y994410D02*
X1651000Y994410D01*
X1651000Y935990D02*
X1397000Y935990D01*
X1651000Y935990D02*
X1651000Y994410D01*
X1397000Y994410D02*
X1397000Y975360D01*
X1397000Y955040D02*
X1397000Y935990D01*
X1397000Y955040D02*
X1397247Y955043D01*
X1397495Y955052D01*
X1397742Y955067D01*
X1397988Y955088D01*
X1398234Y955115D01*
X1398479Y955148D01*
X1398724Y955187D01*
X1398967Y955232D01*
X1399209Y955283D01*
X1399450Y955340D01*
X1399689Y955402D01*
X1399927Y955471D01*
X1400163Y955545D01*
X1400397Y955625D01*
X1400629Y955710D01*
X1400859Y955802D01*
X1401087Y955898D01*
X1401312Y956001D01*
X1401535Y956108D01*
X1401755Y956222D01*
X1401972Y956340D01*
X1402187Y956464D01*
X1402398Y956593D01*
X1402606Y956727D01*
X1402811Y956866D01*
X1403012Y957010D01*
X1403210Y957158D01*
X1403404Y957312D01*
X1403594Y957470D01*
X1403780Y957633D01*
X1403962Y957800D01*
X1404140Y957972D01*
X1404314Y958148D01*
X1404484Y958328D01*
X1404649Y958513D01*
X1404809Y958701D01*
X1404965Y958893D01*
X1405117Y959089D01*
X1405263Y959288D01*
X1405405Y959491D01*
X1405541Y959698D01*
X1405673Y959907D01*
X1405799Y960120D01*
X1405920Y960336D01*
X1406036Y960554D01*
X1406146Y960776D01*
X1406251Y961000D01*
X1406351Y961226D01*
X1406445Y961455D01*
X1406533Y961686D01*
X1406616Y961920D01*
X1406693Y962155D01*
X1406764Y962392D01*
X1406830Y962630D01*
X1406889Y962870D01*
X1406943Y963112D01*
X1406991Y963355D01*
X1407033Y963598D01*
X1407069Y963843D01*
X1407099Y964089D01*
X1407123Y964335D01*
X1407141Y964582D01*
X1407153Y964829D01*
X1407159Y965076D01*
X1407159Y965324D01*
X1407153Y965571D01*
X1407141Y965818D01*
X1407123Y966065D01*
X1407099Y966311D01*
X1407069Y966557D01*
X1407033Y966802D01*
X1406991Y967045D01*
X1406943Y967288D01*
X1406889Y967530D01*
X1406830Y967770D01*
X1406764Y968008D01*
X1406693Y968245D01*
X1406616Y968480D01*
X1406533Y968714D01*
X1406445Y968945D01*
X1406351Y969174D01*
X1406251Y969400D01*
X1406146Y969624D01*
X1406036Y969846D01*
X1405920Y970064D01*
X1405799Y970280D01*
X1405673Y970493D01*
X1405541Y970702D01*
X1405405Y970909D01*
X1405263Y971112D01*
X1405117Y971311D01*
X1404965Y971507D01*
X1404809Y971699D01*
X1404649Y971887D01*
X1404484Y972072D01*
X1404314Y972252D01*
X1404140Y972428D01*
X1403962Y972600D01*
X1403780Y972767D01*
X1403594Y972930D01*
X1403404Y973088D01*
X1403210Y973242D01*
X1403012Y973390D01*
X1402811Y973534D01*
X1402606Y973673D01*
X1402398Y973807D01*
X1402187Y973936D01*
X1401972Y974060D01*
X1401755Y974178D01*
X1401535Y974292D01*
X1401312Y974399D01*
X1401087Y974502D01*
X1400859Y974598D01*
X1400629Y974690D01*
X1400397Y974775D01*
X1400163Y974855D01*
X1399927Y974929D01*
X1399689Y974998D01*
X1399450Y975060D01*
X1399209Y975117D01*
X1398967Y975168D01*
X1398724Y975213D01*
X1398479Y975252D01*
X1398234Y975285D01*
X1397988Y975312D01*
X1397742Y975333D01*
X1397495Y975348D01*
X1397247Y975357D01*
X1397000Y975360D01*
D12*
X1392682Y939126D02*
X1392682Y935228D01*
X1392682Y937177D02*
X1380988Y937177D01*
X1380988Y935228D02*
X1380988Y939126D01*
X1380988Y948871D02*
X1382937Y950820D01*
X1380988Y948871D02*
X1380988Y944973D01*
X1382937Y943024D01*
X1390733Y943024D01*
X1392682Y944973D01*
X1392682Y948871D01*
X1390733Y950820D01*
X1384886Y954718D02*
X1380988Y958616D01*
X1392682Y958616D01*
X1392682Y954718D02*
X1392682Y962514D01*
X1380988Y966412D02*
X1380988Y974208D01*
X1380988Y966412D02*
X1386835Y966412D01*
X1384886Y970310D01*
X1384886Y972259D01*
X1386835Y974208D01*
X1390733Y974208D01*
X1392682Y972259D01*
X1392682Y968361D01*
X1390733Y966412D01*
D11*
X1397000Y702310D02*
X1651000Y702310D01*
X1651000Y643890D02*
X1397000Y643890D01*
X1651000Y643890D02*
X1651000Y702310D01*
X1397000Y702310D02*
X1397000Y683260D01*
X1397000Y662940D02*
X1397000Y643890D01*
X1397000Y662940D02*
X1397247Y662943D01*
X1397495Y662952D01*
X1397742Y662967D01*
X1397988Y662988D01*
X1398234Y663015D01*
X1398479Y663048D01*
X1398724Y663087D01*
X1398967Y663132D01*
X1399209Y663183D01*
X1399450Y663240D01*
X1399689Y663302D01*
X1399927Y663371D01*
X1400163Y663445D01*
X1400397Y663525D01*
X1400629Y663610D01*
X1400859Y663702D01*
X1401087Y663798D01*
X1401312Y663901D01*
X1401535Y664008D01*
X1401755Y664122D01*
X1401972Y664240D01*
X1402187Y664364D01*
X1402398Y664493D01*
X1402606Y664627D01*
X1402811Y664766D01*
X1403012Y664910D01*
X1403210Y665058D01*
X1403404Y665212D01*
X1403594Y665370D01*
X1403780Y665533D01*
X1403962Y665700D01*
X1404140Y665872D01*
X1404314Y666048D01*
X1404484Y666228D01*
X1404649Y666413D01*
X1404809Y666601D01*
X1404965Y666793D01*
X1405117Y666989D01*
X1405263Y667188D01*
X1405405Y667391D01*
X1405541Y667598D01*
X1405673Y667807D01*
X1405799Y668020D01*
X1405920Y668236D01*
X1406036Y668454D01*
X1406146Y668676D01*
X1406251Y668900D01*
X1406351Y669126D01*
X1406445Y669355D01*
X1406533Y669586D01*
X1406616Y669820D01*
X1406693Y670055D01*
X1406764Y670292D01*
X1406830Y670530D01*
X1406889Y670770D01*
X1406943Y671012D01*
X1406991Y671255D01*
X1407033Y671498D01*
X1407069Y671743D01*
X1407099Y671989D01*
X1407123Y672235D01*
X1407141Y672482D01*
X1407153Y672729D01*
X1407159Y672976D01*
X1407159Y673224D01*
X1407153Y673471D01*
X1407141Y673718D01*
X1407123Y673965D01*
X1407099Y674211D01*
X1407069Y674457D01*
X1407033Y674702D01*
X1406991Y674945D01*
X1406943Y675188D01*
X1406889Y675430D01*
X1406830Y675670D01*
X1406764Y675908D01*
X1406693Y676145D01*
X1406616Y676380D01*
X1406533Y676614D01*
X1406445Y676845D01*
X1406351Y677074D01*
X1406251Y677300D01*
X1406146Y677524D01*
X1406036Y677746D01*
X1405920Y677964D01*
X1405799Y678180D01*
X1405673Y678393D01*
X1405541Y678602D01*
X1405405Y678809D01*
X1405263Y679012D01*
X1405117Y679211D01*
X1404965Y679407D01*
X1404809Y679599D01*
X1404649Y679787D01*
X1404484Y679972D01*
X1404314Y680152D01*
X1404140Y680328D01*
X1403962Y680500D01*
X1403780Y680667D01*
X1403594Y680830D01*
X1403404Y680988D01*
X1403210Y681142D01*
X1403012Y681290D01*
X1402811Y681434D01*
X1402606Y681573D01*
X1402398Y681707D01*
X1402187Y681836D01*
X1401972Y681960D01*
X1401755Y682078D01*
X1401535Y682192D01*
X1401312Y682299D01*
X1401087Y682402D01*
X1400859Y682498D01*
X1400629Y682590D01*
X1400397Y682675D01*
X1400163Y682755D01*
X1399927Y682829D01*
X1399689Y682898D01*
X1399450Y682960D01*
X1399209Y683017D01*
X1398967Y683068D01*
X1398724Y683113D01*
X1398479Y683152D01*
X1398234Y683185D01*
X1397988Y683212D01*
X1397742Y683233D01*
X1397495Y683248D01*
X1397247Y683257D01*
X1397000Y683260D01*
D12*
X1392682Y647026D02*
X1392682Y643128D01*
X1392682Y645077D02*
X1380988Y645077D01*
X1380988Y643128D02*
X1380988Y647026D01*
X1380988Y656771D02*
X1382937Y658720D01*
X1380988Y656771D02*
X1380988Y652873D01*
X1382937Y650924D01*
X1390733Y650924D01*
X1392682Y652873D01*
X1392682Y656771D01*
X1390733Y658720D01*
X1384886Y662618D02*
X1380988Y666516D01*
X1392682Y666516D01*
X1392682Y662618D02*
X1392682Y670414D01*
X1382937Y678210D02*
X1380988Y682108D01*
X1382937Y678210D02*
X1386835Y674312D01*
X1390733Y674312D01*
X1392682Y676261D01*
X1392682Y680159D01*
X1390733Y682108D01*
X1388784Y682108D01*
X1386835Y680159D01*
X1386835Y674312D01*
D11*
X1397000Y867410D02*
X1651000Y867410D01*
X1651000Y808990D02*
X1397000Y808990D01*
X1651000Y808990D02*
X1651000Y867410D01*
X1397000Y867410D02*
X1397000Y848360D01*
X1397000Y828040D02*
X1397000Y808990D01*
X1397000Y828040D02*
X1397247Y828043D01*
X1397495Y828052D01*
X1397742Y828067D01*
X1397988Y828088D01*
X1398234Y828115D01*
X1398479Y828148D01*
X1398724Y828187D01*
X1398967Y828232D01*
X1399209Y828283D01*
X1399450Y828340D01*
X1399689Y828402D01*
X1399927Y828471D01*
X1400163Y828545D01*
X1400397Y828625D01*
X1400629Y828710D01*
X1400859Y828802D01*
X1401087Y828898D01*
X1401312Y829001D01*
X1401535Y829108D01*
X1401755Y829222D01*
X1401972Y829340D01*
X1402187Y829464D01*
X1402398Y829593D01*
X1402606Y829727D01*
X1402811Y829866D01*
X1403012Y830010D01*
X1403210Y830158D01*
X1403404Y830312D01*
X1403594Y830470D01*
X1403780Y830633D01*
X1403962Y830800D01*
X1404140Y830972D01*
X1404314Y831148D01*
X1404484Y831328D01*
X1404649Y831513D01*
X1404809Y831701D01*
X1404965Y831893D01*
X1405117Y832089D01*
X1405263Y832288D01*
X1405405Y832491D01*
X1405541Y832698D01*
X1405673Y832907D01*
X1405799Y833120D01*
X1405920Y833336D01*
X1406036Y833554D01*
X1406146Y833776D01*
X1406251Y834000D01*
X1406351Y834226D01*
X1406445Y834455D01*
X1406533Y834686D01*
X1406616Y834920D01*
X1406693Y835155D01*
X1406764Y835392D01*
X1406830Y835630D01*
X1406889Y835870D01*
X1406943Y836112D01*
X1406991Y836355D01*
X1407033Y836598D01*
X1407069Y836843D01*
X1407099Y837089D01*
X1407123Y837335D01*
X1407141Y837582D01*
X1407153Y837829D01*
X1407159Y838076D01*
X1407159Y838324D01*
X1407153Y838571D01*
X1407141Y838818D01*
X1407123Y839065D01*
X1407099Y839311D01*
X1407069Y839557D01*
X1407033Y839802D01*
X1406991Y840045D01*
X1406943Y840288D01*
X1406889Y840530D01*
X1406830Y840770D01*
X1406764Y841008D01*
X1406693Y841245D01*
X1406616Y841480D01*
X1406533Y841714D01*
X1406445Y841945D01*
X1406351Y842174D01*
X1406251Y842400D01*
X1406146Y842624D01*
X1406036Y842846D01*
X1405920Y843064D01*
X1405799Y843280D01*
X1405673Y843493D01*
X1405541Y843702D01*
X1405405Y843909D01*
X1405263Y844112D01*
X1405117Y844311D01*
X1404965Y844507D01*
X1404809Y844699D01*
X1404649Y844887D01*
X1404484Y845072D01*
X1404314Y845252D01*
X1404140Y845428D01*
X1403962Y845600D01*
X1403780Y845767D01*
X1403594Y845930D01*
X1403404Y846088D01*
X1403210Y846242D01*
X1403012Y846390D01*
X1402811Y846534D01*
X1402606Y846673D01*
X1402398Y846807D01*
X1402187Y846936D01*
X1401972Y847060D01*
X1401755Y847178D01*
X1401535Y847292D01*
X1401312Y847399D01*
X1401087Y847502D01*
X1400859Y847598D01*
X1400629Y847690D01*
X1400397Y847775D01*
X1400163Y847855D01*
X1399927Y847929D01*
X1399689Y847998D01*
X1399450Y848060D01*
X1399209Y848117D01*
X1398967Y848168D01*
X1398724Y848213D01*
X1398479Y848252D01*
X1398234Y848285D01*
X1397988Y848312D01*
X1397742Y848333D01*
X1397495Y848348D01*
X1397247Y848357D01*
X1397000Y848360D01*
D12*
X1392682Y812126D02*
X1392682Y808228D01*
X1392682Y810177D02*
X1380988Y810177D01*
X1380988Y808228D02*
X1380988Y812126D01*
X1380988Y821871D02*
X1382937Y823820D01*
X1380988Y821871D02*
X1380988Y817973D01*
X1382937Y816024D01*
X1390733Y816024D01*
X1392682Y817973D01*
X1392682Y821871D01*
X1390733Y823820D01*
X1384886Y827718D02*
X1380988Y831616D01*
X1392682Y831616D01*
X1392682Y827718D02*
X1392682Y835514D01*
X1380988Y839412D02*
X1380988Y847208D01*
X1382937Y847208D01*
X1390733Y839412D01*
X1392682Y839412D01*
D11*
X1397000Y549910D02*
X1651000Y549910D01*
X1651000Y491490D02*
X1397000Y491490D01*
X1651000Y491490D02*
X1651000Y549910D01*
X1397000Y549910D02*
X1397000Y530860D01*
X1397000Y510540D02*
X1397000Y491490D01*
X1397000Y510540D02*
X1397247Y510543D01*
X1397495Y510552D01*
X1397742Y510567D01*
X1397988Y510588D01*
X1398234Y510615D01*
X1398479Y510648D01*
X1398724Y510687D01*
X1398967Y510732D01*
X1399209Y510783D01*
X1399450Y510840D01*
X1399689Y510902D01*
X1399927Y510971D01*
X1400163Y511045D01*
X1400397Y511125D01*
X1400629Y511210D01*
X1400859Y511302D01*
X1401087Y511398D01*
X1401312Y511501D01*
X1401535Y511608D01*
X1401755Y511722D01*
X1401972Y511840D01*
X1402187Y511964D01*
X1402398Y512093D01*
X1402606Y512227D01*
X1402811Y512366D01*
X1403012Y512510D01*
X1403210Y512658D01*
X1403404Y512812D01*
X1403594Y512970D01*
X1403780Y513133D01*
X1403962Y513300D01*
X1404140Y513472D01*
X1404314Y513648D01*
X1404484Y513828D01*
X1404649Y514013D01*
X1404809Y514201D01*
X1404965Y514393D01*
X1405117Y514589D01*
X1405263Y514788D01*
X1405405Y514991D01*
X1405541Y515198D01*
X1405673Y515407D01*
X1405799Y515620D01*
X1405920Y515836D01*
X1406036Y516054D01*
X1406146Y516276D01*
X1406251Y516500D01*
X1406351Y516726D01*
X1406445Y516955D01*
X1406533Y517186D01*
X1406616Y517420D01*
X1406693Y517655D01*
X1406764Y517892D01*
X1406830Y518130D01*
X1406889Y518370D01*
X1406943Y518612D01*
X1406991Y518855D01*
X1407033Y519098D01*
X1407069Y519343D01*
X1407099Y519589D01*
X1407123Y519835D01*
X1407141Y520082D01*
X1407153Y520329D01*
X1407159Y520576D01*
X1407159Y520824D01*
X1407153Y521071D01*
X1407141Y521318D01*
X1407123Y521565D01*
X1407099Y521811D01*
X1407069Y522057D01*
X1407033Y522302D01*
X1406991Y522545D01*
X1406943Y522788D01*
X1406889Y523030D01*
X1406830Y523270D01*
X1406764Y523508D01*
X1406693Y523745D01*
X1406616Y523980D01*
X1406533Y524214D01*
X1406445Y524445D01*
X1406351Y524674D01*
X1406251Y524900D01*
X1406146Y525124D01*
X1406036Y525346D01*
X1405920Y525564D01*
X1405799Y525780D01*
X1405673Y525993D01*
X1405541Y526202D01*
X1405405Y526409D01*
X1405263Y526612D01*
X1405117Y526811D01*
X1404965Y527007D01*
X1404809Y527199D01*
X1404649Y527387D01*
X1404484Y527572D01*
X1404314Y527752D01*
X1404140Y527928D01*
X1403962Y528100D01*
X1403780Y528267D01*
X1403594Y528430D01*
X1403404Y528588D01*
X1403210Y528742D01*
X1403012Y528890D01*
X1402811Y529034D01*
X1402606Y529173D01*
X1402398Y529307D01*
X1402187Y529436D01*
X1401972Y529560D01*
X1401755Y529678D01*
X1401535Y529792D01*
X1401312Y529899D01*
X1401087Y530002D01*
X1400859Y530098D01*
X1400629Y530190D01*
X1400397Y530275D01*
X1400163Y530355D01*
X1399927Y530429D01*
X1399689Y530498D01*
X1399450Y530560D01*
X1399209Y530617D01*
X1398967Y530668D01*
X1398724Y530713D01*
X1398479Y530752D01*
X1398234Y530785D01*
X1397988Y530812D01*
X1397742Y530833D01*
X1397495Y530848D01*
X1397247Y530857D01*
X1397000Y530860D01*
D12*
X1392682Y494626D02*
X1392682Y490728D01*
X1392682Y492677D02*
X1380988Y492677D01*
X1380988Y490728D02*
X1380988Y494626D01*
X1380988Y504371D02*
X1382937Y506320D01*
X1380988Y504371D02*
X1380988Y500473D01*
X1382937Y498524D01*
X1390733Y498524D01*
X1392682Y500473D01*
X1392682Y504371D01*
X1390733Y506320D01*
X1384886Y510218D02*
X1380988Y514116D01*
X1392682Y514116D01*
X1392682Y510218D02*
X1392682Y518014D01*
X1390733Y521912D02*
X1392682Y523861D01*
X1392682Y527759D01*
X1390733Y529708D01*
X1382937Y529708D01*
X1380988Y527759D01*
X1380988Y523861D01*
X1382937Y521912D01*
X1384886Y521912D01*
X1386835Y523861D01*
X1386835Y529708D01*
M02*
