G04 EAGLE Gerber RS-274X export*
G75*
%MOMM*%
%FSLAX34Y34*%
%LPD*%
%INBottom Copper*%
%IPPOS*%
%AMOC8*
5,1,8,0,0,1.08239X$1,22.5*%
G01*
%ADD10P,1.649562X8X202.500000*%
%ADD11P,1.319650X8X202.500000*%
%ADD12P,1.319650X8X112.500000*%
%ADD13C,1.219200*%
%ADD14P,1.319650X8X22.500000*%
%ADD15C,0.254000*%
%ADD16C,0.558800*%


D10*
X50800Y177800D03*
X50800Y203200D03*
X50800Y228600D03*
X50800Y254000D03*
X50800Y279400D03*
X50800Y304800D03*
X50800Y330200D03*
X50800Y355600D03*
X50800Y381000D03*
X50800Y406400D03*
X50800Y431800D03*
X50800Y457200D03*
X50800Y482600D03*
X50800Y508000D03*
X50800Y533400D03*
X50800Y558800D03*
X76200Y177800D03*
X76200Y203200D03*
X76200Y228600D03*
X76200Y254000D03*
X76200Y279400D03*
X76200Y304800D03*
X76200Y330200D03*
X76200Y355600D03*
X76200Y381000D03*
X76200Y406400D03*
X76200Y431800D03*
X76200Y457200D03*
X76200Y482600D03*
X76200Y508000D03*
X76200Y533400D03*
X76200Y558800D03*
X101600Y177800D03*
X101600Y203200D03*
X101600Y228600D03*
X101600Y254000D03*
X101600Y279400D03*
X101600Y304800D03*
X101600Y330200D03*
X101600Y355600D03*
X101600Y381000D03*
X101600Y406400D03*
X101600Y431800D03*
X101600Y457200D03*
X101600Y482600D03*
X101600Y508000D03*
X101600Y533400D03*
X101600Y558800D03*
X50800Y584200D03*
X50800Y609600D03*
X50800Y635000D03*
X50800Y660400D03*
X50800Y685800D03*
X50800Y711200D03*
X50800Y736600D03*
X50800Y762000D03*
X50800Y787400D03*
X50800Y812800D03*
X50800Y838200D03*
X50800Y863600D03*
X50800Y889000D03*
X50800Y914400D03*
X50800Y939800D03*
X50800Y965200D03*
X76200Y584200D03*
X76200Y609600D03*
X76200Y635000D03*
X76200Y660400D03*
X76200Y685800D03*
X76200Y711200D03*
X76200Y736600D03*
X76200Y762000D03*
X76200Y787400D03*
X76200Y812800D03*
X76200Y838200D03*
X76200Y863600D03*
X76200Y889000D03*
X76200Y914400D03*
X76200Y939800D03*
X76200Y965200D03*
X101600Y584200D03*
X101600Y609600D03*
X101600Y635000D03*
X101600Y660400D03*
X101600Y685800D03*
X101600Y711200D03*
X101600Y736600D03*
X101600Y762000D03*
X101600Y787400D03*
X101600Y812800D03*
X101600Y838200D03*
X101600Y863600D03*
X101600Y889000D03*
X101600Y914400D03*
X101600Y939800D03*
X101600Y965200D03*
D11*
X1752600Y38100D03*
X1727200Y38100D03*
D12*
X1752600Y101600D03*
X1752600Y203200D03*
D13*
X539496Y1079500D02*
X527304Y1079500D01*
X527304Y1054100D02*
X539496Y1054100D01*
X539496Y927100D02*
X527304Y927100D01*
X527304Y901700D02*
X539496Y901700D01*
X539496Y1028700D02*
X527304Y1028700D01*
X527304Y1003300D02*
X539496Y1003300D01*
X539496Y952500D02*
X527304Y952500D01*
X527304Y977900D02*
X539496Y977900D01*
X539496Y876300D02*
X527304Y876300D01*
X527304Y850900D02*
X539496Y850900D01*
X603504Y850900D02*
X615696Y850900D01*
X615696Y876300D02*
X603504Y876300D01*
X603504Y901700D02*
X615696Y901700D01*
X615696Y927100D02*
X603504Y927100D01*
X603504Y952500D02*
X615696Y952500D01*
X615696Y977900D02*
X603504Y977900D01*
X603504Y1003300D02*
X615696Y1003300D01*
X615696Y1028700D02*
X603504Y1028700D01*
X603504Y1054100D02*
X615696Y1054100D01*
X615696Y1079500D02*
X603504Y1079500D01*
X488696Y1066800D02*
X476504Y1066800D01*
X476504Y1041400D02*
X488696Y1041400D01*
X488696Y1016000D02*
X476504Y1016000D01*
X476504Y990600D02*
X488696Y990600D01*
X488696Y965200D02*
X476504Y965200D01*
X476504Y939800D02*
X488696Y939800D01*
X488696Y914400D02*
X476504Y914400D01*
X476504Y889000D02*
X488696Y889000D01*
X488696Y863600D02*
X476504Y863600D01*
X527304Y812800D02*
X539496Y812800D01*
X539496Y787400D02*
X527304Y787400D01*
X527304Y660400D02*
X539496Y660400D01*
X539496Y635000D02*
X527304Y635000D01*
X527304Y762000D02*
X539496Y762000D01*
X539496Y736600D02*
X527304Y736600D01*
X527304Y685800D02*
X539496Y685800D01*
X539496Y711200D02*
X527304Y711200D01*
X527304Y609600D02*
X539496Y609600D01*
X539496Y584200D02*
X527304Y584200D01*
X603504Y584200D02*
X615696Y584200D01*
X615696Y609600D02*
X603504Y609600D01*
X603504Y635000D02*
X615696Y635000D01*
X615696Y660400D02*
X603504Y660400D01*
X603504Y685800D02*
X615696Y685800D01*
X615696Y711200D02*
X603504Y711200D01*
X603504Y736600D02*
X615696Y736600D01*
X615696Y762000D02*
X603504Y762000D01*
X603504Y787400D02*
X615696Y787400D01*
X615696Y812800D02*
X603504Y812800D01*
X488696Y800100D02*
X476504Y800100D01*
X476504Y774700D02*
X488696Y774700D01*
X488696Y749300D02*
X476504Y749300D01*
X476504Y723900D02*
X488696Y723900D01*
X488696Y698500D02*
X476504Y698500D01*
X476504Y673100D02*
X488696Y673100D01*
X488696Y647700D02*
X476504Y647700D01*
X476504Y622300D02*
X488696Y622300D01*
X488696Y596900D02*
X476504Y596900D01*
X527304Y546100D02*
X539496Y546100D01*
X539496Y520700D02*
X527304Y520700D01*
X527304Y393700D02*
X539496Y393700D01*
X539496Y368300D02*
X527304Y368300D01*
X527304Y495300D02*
X539496Y495300D01*
X539496Y469900D02*
X527304Y469900D01*
X527304Y419100D02*
X539496Y419100D01*
X539496Y444500D02*
X527304Y444500D01*
X527304Y342900D02*
X539496Y342900D01*
X539496Y317500D02*
X527304Y317500D01*
X603504Y317500D02*
X615696Y317500D01*
X615696Y342900D02*
X603504Y342900D01*
X603504Y368300D02*
X615696Y368300D01*
X615696Y393700D02*
X603504Y393700D01*
X603504Y419100D02*
X615696Y419100D01*
X615696Y444500D02*
X603504Y444500D01*
X603504Y469900D02*
X615696Y469900D01*
X615696Y495300D02*
X603504Y495300D01*
X603504Y520700D02*
X615696Y520700D01*
X615696Y546100D02*
X603504Y546100D01*
X488696Y533400D02*
X476504Y533400D01*
X476504Y508000D02*
X488696Y508000D01*
X488696Y482600D02*
X476504Y482600D01*
X476504Y457200D02*
X488696Y457200D01*
X488696Y431800D02*
X476504Y431800D01*
X476504Y406400D02*
X488696Y406400D01*
X488696Y381000D02*
X476504Y381000D01*
X476504Y355600D02*
X488696Y355600D01*
X488696Y330200D02*
X476504Y330200D01*
X527304Y279400D02*
X539496Y279400D01*
X539496Y254000D02*
X527304Y254000D01*
X527304Y127000D02*
X539496Y127000D01*
X539496Y101600D02*
X527304Y101600D01*
X527304Y228600D02*
X539496Y228600D01*
X539496Y203200D02*
X527304Y203200D01*
X527304Y152400D02*
X539496Y152400D01*
X539496Y177800D02*
X527304Y177800D01*
X527304Y76200D02*
X539496Y76200D01*
X539496Y50800D02*
X527304Y50800D01*
X603504Y50800D02*
X615696Y50800D01*
X615696Y76200D02*
X603504Y76200D01*
X603504Y101600D02*
X615696Y101600D01*
X615696Y127000D02*
X603504Y127000D01*
X603504Y152400D02*
X615696Y152400D01*
X615696Y177800D02*
X603504Y177800D01*
X603504Y203200D02*
X615696Y203200D01*
X615696Y228600D02*
X603504Y228600D01*
X603504Y254000D02*
X615696Y254000D01*
X615696Y279400D02*
X603504Y279400D01*
X488696Y266700D02*
X476504Y266700D01*
X476504Y241300D02*
X488696Y241300D01*
X488696Y215900D02*
X476504Y215900D01*
X476504Y190500D02*
X488696Y190500D01*
X488696Y165100D02*
X476504Y165100D01*
X476504Y139700D02*
X488696Y139700D01*
X488696Y114300D02*
X476504Y114300D01*
X476504Y88900D02*
X488696Y88900D01*
X488696Y63500D02*
X476504Y63500D01*
X882904Y1079500D02*
X895096Y1079500D01*
X895096Y1054100D02*
X882904Y1054100D01*
X882904Y927100D02*
X895096Y927100D01*
X895096Y901700D02*
X882904Y901700D01*
X882904Y1028700D02*
X895096Y1028700D01*
X895096Y1003300D02*
X882904Y1003300D01*
X882904Y952500D02*
X895096Y952500D01*
X895096Y977900D02*
X882904Y977900D01*
X882904Y876300D02*
X895096Y876300D01*
X895096Y850900D02*
X882904Y850900D01*
X959104Y850900D02*
X971296Y850900D01*
X971296Y876300D02*
X959104Y876300D01*
X959104Y901700D02*
X971296Y901700D01*
X971296Y927100D02*
X959104Y927100D01*
X959104Y952500D02*
X971296Y952500D01*
X971296Y977900D02*
X959104Y977900D01*
X959104Y1003300D02*
X971296Y1003300D01*
X971296Y1028700D02*
X959104Y1028700D01*
X959104Y1054100D02*
X971296Y1054100D01*
X971296Y1079500D02*
X959104Y1079500D01*
X844296Y1066800D02*
X832104Y1066800D01*
X832104Y1041400D02*
X844296Y1041400D01*
X844296Y1016000D02*
X832104Y1016000D01*
X832104Y990600D02*
X844296Y990600D01*
X844296Y965200D02*
X832104Y965200D01*
X832104Y939800D02*
X844296Y939800D01*
X844296Y914400D02*
X832104Y914400D01*
X832104Y889000D02*
X844296Y889000D01*
X844296Y863600D02*
X832104Y863600D01*
X882904Y812800D02*
X895096Y812800D01*
X895096Y787400D02*
X882904Y787400D01*
X882904Y660400D02*
X895096Y660400D01*
X895096Y635000D02*
X882904Y635000D01*
X882904Y762000D02*
X895096Y762000D01*
X895096Y736600D02*
X882904Y736600D01*
X882904Y685800D02*
X895096Y685800D01*
X895096Y711200D02*
X882904Y711200D01*
X882904Y609600D02*
X895096Y609600D01*
X895096Y584200D02*
X882904Y584200D01*
X959104Y584200D02*
X971296Y584200D01*
X971296Y609600D02*
X959104Y609600D01*
X959104Y635000D02*
X971296Y635000D01*
X971296Y660400D02*
X959104Y660400D01*
X959104Y685800D02*
X971296Y685800D01*
X971296Y711200D02*
X959104Y711200D01*
X959104Y736600D02*
X971296Y736600D01*
X971296Y762000D02*
X959104Y762000D01*
X959104Y787400D02*
X971296Y787400D01*
X971296Y812800D02*
X959104Y812800D01*
X844296Y800100D02*
X832104Y800100D01*
X832104Y774700D02*
X844296Y774700D01*
X844296Y749300D02*
X832104Y749300D01*
X832104Y723900D02*
X844296Y723900D01*
X844296Y698500D02*
X832104Y698500D01*
X832104Y673100D02*
X844296Y673100D01*
X844296Y647700D02*
X832104Y647700D01*
X832104Y622300D02*
X844296Y622300D01*
X844296Y596900D02*
X832104Y596900D01*
X882904Y546100D02*
X895096Y546100D01*
X895096Y520700D02*
X882904Y520700D01*
X882904Y393700D02*
X895096Y393700D01*
X895096Y368300D02*
X882904Y368300D01*
X882904Y495300D02*
X895096Y495300D01*
X895096Y469900D02*
X882904Y469900D01*
X882904Y419100D02*
X895096Y419100D01*
X895096Y444500D02*
X882904Y444500D01*
X882904Y342900D02*
X895096Y342900D01*
X895096Y317500D02*
X882904Y317500D01*
X959104Y317500D02*
X971296Y317500D01*
X971296Y342900D02*
X959104Y342900D01*
X959104Y368300D02*
X971296Y368300D01*
X971296Y393700D02*
X959104Y393700D01*
X959104Y419100D02*
X971296Y419100D01*
X971296Y444500D02*
X959104Y444500D01*
X959104Y469900D02*
X971296Y469900D01*
X971296Y495300D02*
X959104Y495300D01*
X959104Y520700D02*
X971296Y520700D01*
X971296Y546100D02*
X959104Y546100D01*
X844296Y533400D02*
X832104Y533400D01*
X832104Y508000D02*
X844296Y508000D01*
X844296Y482600D02*
X832104Y482600D01*
X832104Y457200D02*
X844296Y457200D01*
X844296Y431800D02*
X832104Y431800D01*
X832104Y406400D02*
X844296Y406400D01*
X844296Y381000D02*
X832104Y381000D01*
X832104Y355600D02*
X844296Y355600D01*
X844296Y330200D02*
X832104Y330200D01*
X882904Y279400D02*
X895096Y279400D01*
X895096Y254000D02*
X882904Y254000D01*
X882904Y127000D02*
X895096Y127000D01*
X895096Y101600D02*
X882904Y101600D01*
X882904Y228600D02*
X895096Y228600D01*
X895096Y203200D02*
X882904Y203200D01*
X882904Y152400D02*
X895096Y152400D01*
X895096Y177800D02*
X882904Y177800D01*
X882904Y76200D02*
X895096Y76200D01*
X895096Y50800D02*
X882904Y50800D01*
X959104Y50800D02*
X971296Y50800D01*
X971296Y76200D02*
X959104Y76200D01*
X959104Y101600D02*
X971296Y101600D01*
X971296Y127000D02*
X959104Y127000D01*
X959104Y152400D02*
X971296Y152400D01*
X971296Y177800D02*
X959104Y177800D01*
X959104Y203200D02*
X971296Y203200D01*
X971296Y228600D02*
X959104Y228600D01*
X959104Y254000D02*
X971296Y254000D01*
X971296Y279400D02*
X959104Y279400D01*
X844296Y266700D02*
X832104Y266700D01*
X832104Y241300D02*
X844296Y241300D01*
X844296Y215900D02*
X832104Y215900D01*
X832104Y190500D02*
X844296Y190500D01*
X844296Y165100D02*
X832104Y165100D01*
X832104Y139700D02*
X844296Y139700D01*
X844296Y114300D02*
X832104Y114300D01*
X832104Y88900D02*
X844296Y88900D01*
X844296Y63500D02*
X832104Y63500D01*
X1238504Y1079500D02*
X1250696Y1079500D01*
X1250696Y1054100D02*
X1238504Y1054100D01*
X1238504Y927100D02*
X1250696Y927100D01*
X1250696Y901700D02*
X1238504Y901700D01*
X1238504Y1028700D02*
X1250696Y1028700D01*
X1250696Y1003300D02*
X1238504Y1003300D01*
X1238504Y952500D02*
X1250696Y952500D01*
X1250696Y977900D02*
X1238504Y977900D01*
X1238504Y876300D02*
X1250696Y876300D01*
X1250696Y850900D02*
X1238504Y850900D01*
X1314704Y850900D02*
X1326896Y850900D01*
X1326896Y876300D02*
X1314704Y876300D01*
X1314704Y901700D02*
X1326896Y901700D01*
X1326896Y927100D02*
X1314704Y927100D01*
X1314704Y952500D02*
X1326896Y952500D01*
X1326896Y977900D02*
X1314704Y977900D01*
X1314704Y1003300D02*
X1326896Y1003300D01*
X1326896Y1028700D02*
X1314704Y1028700D01*
X1314704Y1054100D02*
X1326896Y1054100D01*
X1326896Y1079500D02*
X1314704Y1079500D01*
X1199896Y1066800D02*
X1187704Y1066800D01*
X1187704Y1041400D02*
X1199896Y1041400D01*
X1199896Y1016000D02*
X1187704Y1016000D01*
X1187704Y990600D02*
X1199896Y990600D01*
X1199896Y965200D02*
X1187704Y965200D01*
X1187704Y939800D02*
X1199896Y939800D01*
X1199896Y914400D02*
X1187704Y914400D01*
X1187704Y889000D02*
X1199896Y889000D01*
X1199896Y863600D02*
X1187704Y863600D01*
X1238504Y812800D02*
X1250696Y812800D01*
X1250696Y787400D02*
X1238504Y787400D01*
X1238504Y660400D02*
X1250696Y660400D01*
X1250696Y635000D02*
X1238504Y635000D01*
X1238504Y762000D02*
X1250696Y762000D01*
X1250696Y736600D02*
X1238504Y736600D01*
X1238504Y685800D02*
X1250696Y685800D01*
X1250696Y711200D02*
X1238504Y711200D01*
X1238504Y609600D02*
X1250696Y609600D01*
X1250696Y584200D02*
X1238504Y584200D01*
X1314704Y584200D02*
X1326896Y584200D01*
X1326896Y609600D02*
X1314704Y609600D01*
X1314704Y635000D02*
X1326896Y635000D01*
X1326896Y660400D02*
X1314704Y660400D01*
X1314704Y685800D02*
X1326896Y685800D01*
X1326896Y711200D02*
X1314704Y711200D01*
X1314704Y736600D02*
X1326896Y736600D01*
X1326896Y762000D02*
X1314704Y762000D01*
X1314704Y787400D02*
X1326896Y787400D01*
X1326896Y812800D02*
X1314704Y812800D01*
X1199896Y800100D02*
X1187704Y800100D01*
X1187704Y774700D02*
X1199896Y774700D01*
X1199896Y749300D02*
X1187704Y749300D01*
X1187704Y723900D02*
X1199896Y723900D01*
X1199896Y698500D02*
X1187704Y698500D01*
X1187704Y673100D02*
X1199896Y673100D01*
X1199896Y647700D02*
X1187704Y647700D01*
X1187704Y622300D02*
X1199896Y622300D01*
X1199896Y596900D02*
X1187704Y596900D01*
X1238504Y546100D02*
X1250696Y546100D01*
X1250696Y520700D02*
X1238504Y520700D01*
X1238504Y393700D02*
X1250696Y393700D01*
X1250696Y368300D02*
X1238504Y368300D01*
X1238504Y495300D02*
X1250696Y495300D01*
X1250696Y469900D02*
X1238504Y469900D01*
X1238504Y419100D02*
X1250696Y419100D01*
X1250696Y444500D02*
X1238504Y444500D01*
X1238504Y342900D02*
X1250696Y342900D01*
X1250696Y317500D02*
X1238504Y317500D01*
X1314704Y317500D02*
X1326896Y317500D01*
X1326896Y342900D02*
X1314704Y342900D01*
X1314704Y368300D02*
X1326896Y368300D01*
X1326896Y393700D02*
X1314704Y393700D01*
X1314704Y419100D02*
X1326896Y419100D01*
X1326896Y444500D02*
X1314704Y444500D01*
X1314704Y469900D02*
X1326896Y469900D01*
X1326896Y495300D02*
X1314704Y495300D01*
X1314704Y520700D02*
X1326896Y520700D01*
X1326896Y546100D02*
X1314704Y546100D01*
X1199896Y533400D02*
X1187704Y533400D01*
X1187704Y508000D02*
X1199896Y508000D01*
X1199896Y482600D02*
X1187704Y482600D01*
X1187704Y457200D02*
X1199896Y457200D01*
X1199896Y431800D02*
X1187704Y431800D01*
X1187704Y406400D02*
X1199896Y406400D01*
X1199896Y381000D02*
X1187704Y381000D01*
X1187704Y355600D02*
X1199896Y355600D01*
X1199896Y330200D02*
X1187704Y330200D01*
X1238504Y279400D02*
X1250696Y279400D01*
X1250696Y254000D02*
X1238504Y254000D01*
X1238504Y127000D02*
X1250696Y127000D01*
X1250696Y101600D02*
X1238504Y101600D01*
X1238504Y228600D02*
X1250696Y228600D01*
X1250696Y203200D02*
X1238504Y203200D01*
X1238504Y152400D02*
X1250696Y152400D01*
X1250696Y177800D02*
X1238504Y177800D01*
X1238504Y76200D02*
X1250696Y76200D01*
X1250696Y50800D02*
X1238504Y50800D01*
X1314704Y50800D02*
X1326896Y50800D01*
X1326896Y76200D02*
X1314704Y76200D01*
X1314704Y101600D02*
X1326896Y101600D01*
X1326896Y127000D02*
X1314704Y127000D01*
X1314704Y152400D02*
X1326896Y152400D01*
X1326896Y177800D02*
X1314704Y177800D01*
X1314704Y203200D02*
X1326896Y203200D01*
X1326896Y228600D02*
X1314704Y228600D01*
X1314704Y254000D02*
X1326896Y254000D01*
X1326896Y279400D02*
X1314704Y279400D01*
X1199896Y266700D02*
X1187704Y266700D01*
X1187704Y241300D02*
X1199896Y241300D01*
X1199896Y215900D02*
X1187704Y215900D01*
X1187704Y190500D02*
X1199896Y190500D01*
X1199896Y165100D02*
X1187704Y165100D01*
X1187704Y139700D02*
X1199896Y139700D01*
X1199896Y114300D02*
X1187704Y114300D01*
X1187704Y88900D02*
X1199896Y88900D01*
X1199896Y63500D02*
X1187704Y63500D01*
X1594104Y1079500D02*
X1606296Y1079500D01*
X1606296Y1054100D02*
X1594104Y1054100D01*
X1594104Y927100D02*
X1606296Y927100D01*
X1606296Y901700D02*
X1594104Y901700D01*
X1594104Y1028700D02*
X1606296Y1028700D01*
X1606296Y1003300D02*
X1594104Y1003300D01*
X1594104Y952500D02*
X1606296Y952500D01*
X1606296Y977900D02*
X1594104Y977900D01*
X1594104Y876300D02*
X1606296Y876300D01*
X1606296Y850900D02*
X1594104Y850900D01*
X1670304Y850900D02*
X1682496Y850900D01*
X1682496Y876300D02*
X1670304Y876300D01*
X1670304Y901700D02*
X1682496Y901700D01*
X1682496Y927100D02*
X1670304Y927100D01*
X1670304Y952500D02*
X1682496Y952500D01*
X1682496Y977900D02*
X1670304Y977900D01*
X1670304Y1003300D02*
X1682496Y1003300D01*
X1682496Y1028700D02*
X1670304Y1028700D01*
X1670304Y1054100D02*
X1682496Y1054100D01*
X1682496Y1079500D02*
X1670304Y1079500D01*
X1555496Y1066800D02*
X1543304Y1066800D01*
X1543304Y1041400D02*
X1555496Y1041400D01*
X1555496Y1016000D02*
X1543304Y1016000D01*
X1543304Y990600D02*
X1555496Y990600D01*
X1555496Y965200D02*
X1543304Y965200D01*
X1543304Y939800D02*
X1555496Y939800D01*
X1555496Y914400D02*
X1543304Y914400D01*
X1543304Y889000D02*
X1555496Y889000D01*
X1555496Y863600D02*
X1543304Y863600D01*
X1594104Y812800D02*
X1606296Y812800D01*
X1606296Y787400D02*
X1594104Y787400D01*
X1594104Y660400D02*
X1606296Y660400D01*
X1606296Y635000D02*
X1594104Y635000D01*
X1594104Y762000D02*
X1606296Y762000D01*
X1606296Y736600D02*
X1594104Y736600D01*
X1594104Y685800D02*
X1606296Y685800D01*
X1606296Y711200D02*
X1594104Y711200D01*
X1594104Y609600D02*
X1606296Y609600D01*
X1606296Y584200D02*
X1594104Y584200D01*
X1670304Y584200D02*
X1682496Y584200D01*
X1682496Y609600D02*
X1670304Y609600D01*
X1670304Y635000D02*
X1682496Y635000D01*
X1682496Y660400D02*
X1670304Y660400D01*
X1670304Y685800D02*
X1682496Y685800D01*
X1682496Y711200D02*
X1670304Y711200D01*
X1670304Y736600D02*
X1682496Y736600D01*
X1682496Y762000D02*
X1670304Y762000D01*
X1670304Y787400D02*
X1682496Y787400D01*
X1682496Y812800D02*
X1670304Y812800D01*
X1555496Y800100D02*
X1543304Y800100D01*
X1543304Y774700D02*
X1555496Y774700D01*
X1555496Y749300D02*
X1543304Y749300D01*
X1543304Y723900D02*
X1555496Y723900D01*
X1555496Y698500D02*
X1543304Y698500D01*
X1543304Y673100D02*
X1555496Y673100D01*
X1555496Y647700D02*
X1543304Y647700D01*
X1543304Y622300D02*
X1555496Y622300D01*
X1555496Y596900D02*
X1543304Y596900D01*
X1594104Y546100D02*
X1606296Y546100D01*
X1606296Y520700D02*
X1594104Y520700D01*
X1594104Y393700D02*
X1606296Y393700D01*
X1606296Y368300D02*
X1594104Y368300D01*
X1594104Y495300D02*
X1606296Y495300D01*
X1606296Y469900D02*
X1594104Y469900D01*
X1594104Y419100D02*
X1606296Y419100D01*
X1606296Y444500D02*
X1594104Y444500D01*
X1594104Y342900D02*
X1606296Y342900D01*
X1606296Y317500D02*
X1594104Y317500D01*
X1670304Y317500D02*
X1682496Y317500D01*
X1682496Y342900D02*
X1670304Y342900D01*
X1670304Y368300D02*
X1682496Y368300D01*
X1682496Y393700D02*
X1670304Y393700D01*
X1670304Y419100D02*
X1682496Y419100D01*
X1682496Y444500D02*
X1670304Y444500D01*
X1670304Y469900D02*
X1682496Y469900D01*
X1682496Y495300D02*
X1670304Y495300D01*
X1670304Y520700D02*
X1682496Y520700D01*
X1682496Y546100D02*
X1670304Y546100D01*
X1555496Y533400D02*
X1543304Y533400D01*
X1543304Y508000D02*
X1555496Y508000D01*
X1555496Y482600D02*
X1543304Y482600D01*
X1543304Y457200D02*
X1555496Y457200D01*
X1555496Y431800D02*
X1543304Y431800D01*
X1543304Y406400D02*
X1555496Y406400D01*
X1555496Y381000D02*
X1543304Y381000D01*
X1543304Y355600D02*
X1555496Y355600D01*
X1555496Y330200D02*
X1543304Y330200D01*
X1594104Y279400D02*
X1606296Y279400D01*
X1606296Y254000D02*
X1594104Y254000D01*
X1594104Y127000D02*
X1606296Y127000D01*
X1606296Y101600D02*
X1594104Y101600D01*
X1594104Y228600D02*
X1606296Y228600D01*
X1606296Y203200D02*
X1594104Y203200D01*
X1594104Y152400D02*
X1606296Y152400D01*
X1606296Y177800D02*
X1594104Y177800D01*
X1594104Y76200D02*
X1606296Y76200D01*
X1606296Y50800D02*
X1594104Y50800D01*
X1670304Y50800D02*
X1682496Y50800D01*
X1682496Y76200D02*
X1670304Y76200D01*
X1670304Y101600D02*
X1682496Y101600D01*
X1682496Y127000D02*
X1670304Y127000D01*
X1670304Y152400D02*
X1682496Y152400D01*
X1682496Y177800D02*
X1670304Y177800D01*
X1670304Y203200D02*
X1682496Y203200D01*
X1682496Y228600D02*
X1670304Y228600D01*
X1670304Y254000D02*
X1682496Y254000D01*
X1682496Y279400D02*
X1670304Y279400D01*
X1555496Y266700D02*
X1543304Y266700D01*
X1543304Y241300D02*
X1555496Y241300D01*
X1555496Y215900D02*
X1543304Y215900D01*
X1543304Y190500D02*
X1555496Y190500D01*
X1555496Y165100D02*
X1543304Y165100D01*
X1543304Y139700D02*
X1555496Y139700D01*
X1555496Y114300D02*
X1543304Y114300D01*
X1543304Y88900D02*
X1555496Y88900D01*
X1555496Y63500D02*
X1543304Y63500D01*
X196596Y965200D02*
X184404Y965200D01*
X184404Y939800D02*
X196596Y939800D01*
X196596Y812800D02*
X184404Y812800D01*
X260604Y812800D02*
X272796Y812800D01*
X196596Y914400D02*
X184404Y914400D01*
X184404Y889000D02*
X196596Y889000D01*
X196596Y838200D02*
X184404Y838200D01*
X184404Y863600D02*
X196596Y863600D01*
X260604Y838200D02*
X272796Y838200D01*
X272796Y863600D02*
X260604Y863600D01*
X260604Y889000D02*
X272796Y889000D01*
X272796Y914400D02*
X260604Y914400D01*
X260604Y939800D02*
X272796Y939800D01*
X272796Y965200D02*
X260604Y965200D01*
X196596Y749300D02*
X184404Y749300D01*
X184404Y723900D02*
X196596Y723900D01*
X196596Y596900D02*
X184404Y596900D01*
X184404Y571500D02*
X196596Y571500D01*
X196596Y698500D02*
X184404Y698500D01*
X184404Y673100D02*
X196596Y673100D01*
X196596Y622300D02*
X184404Y622300D01*
X184404Y647700D02*
X196596Y647700D01*
X260604Y571500D02*
X272796Y571500D01*
X272796Y596900D02*
X260604Y596900D01*
X260604Y622300D02*
X272796Y622300D01*
X272796Y647700D02*
X260604Y647700D01*
X260604Y673100D02*
X272796Y673100D01*
X272796Y698500D02*
X260604Y698500D01*
X260604Y723900D02*
X272796Y723900D01*
X272796Y749300D02*
X260604Y749300D01*
X196596Y508000D02*
X184404Y508000D01*
X184404Y482600D02*
X196596Y482600D01*
X196596Y355600D02*
X184404Y355600D01*
X184404Y330200D02*
X196596Y330200D01*
X196596Y457200D02*
X184404Y457200D01*
X184404Y431800D02*
X196596Y431800D01*
X196596Y381000D02*
X184404Y381000D01*
X184404Y406400D02*
X196596Y406400D01*
X260604Y330200D02*
X272796Y330200D01*
X272796Y355600D02*
X260604Y355600D01*
X260604Y381000D02*
X272796Y381000D01*
X272796Y406400D02*
X260604Y406400D01*
X260604Y431800D02*
X272796Y431800D01*
X272796Y457200D02*
X260604Y457200D01*
X260604Y482600D02*
X272796Y482600D01*
X272796Y508000D02*
X260604Y508000D01*
X438404Y876300D02*
X450596Y876300D01*
X450596Y901700D02*
X438404Y901700D01*
X438404Y1028700D02*
X450596Y1028700D01*
X450596Y1054100D02*
X438404Y1054100D01*
X438404Y927100D02*
X450596Y927100D01*
X450596Y952500D02*
X438404Y952500D01*
X438404Y1003300D02*
X450596Y1003300D01*
X450596Y977900D02*
X438404Y977900D01*
X374396Y1054100D02*
X362204Y1054100D01*
X362204Y1028700D02*
X374396Y1028700D01*
X374396Y1003300D02*
X362204Y1003300D01*
X362204Y977900D02*
X374396Y977900D01*
X374396Y952500D02*
X362204Y952500D01*
X362204Y927100D02*
X374396Y927100D01*
X374396Y901700D02*
X362204Y901700D01*
X362204Y876300D02*
X374396Y876300D01*
X438404Y609600D02*
X450596Y609600D01*
X450596Y635000D02*
X438404Y635000D01*
X438404Y762000D02*
X450596Y762000D01*
X450596Y787400D02*
X438404Y787400D01*
X438404Y660400D02*
X450596Y660400D01*
X450596Y685800D02*
X438404Y685800D01*
X438404Y736600D02*
X450596Y736600D01*
X450596Y711200D02*
X438404Y711200D01*
X374396Y787400D02*
X362204Y787400D01*
X362204Y762000D02*
X374396Y762000D01*
X374396Y736600D02*
X362204Y736600D01*
X362204Y711200D02*
X374396Y711200D01*
X374396Y685800D02*
X362204Y685800D01*
X362204Y660400D02*
X374396Y660400D01*
X374396Y635000D02*
X362204Y635000D01*
X362204Y609600D02*
X374396Y609600D01*
X438404Y342900D02*
X450596Y342900D01*
X450596Y368300D02*
X438404Y368300D01*
X438404Y495300D02*
X450596Y495300D01*
X450596Y520700D02*
X438404Y520700D01*
X438404Y393700D02*
X450596Y393700D01*
X450596Y419100D02*
X438404Y419100D01*
X438404Y469900D02*
X450596Y469900D01*
X450596Y444500D02*
X438404Y444500D01*
X374396Y520700D02*
X362204Y520700D01*
X362204Y495300D02*
X374396Y495300D01*
X374396Y469900D02*
X362204Y469900D01*
X362204Y444500D02*
X374396Y444500D01*
X374396Y419100D02*
X362204Y419100D01*
X362204Y393700D02*
X374396Y393700D01*
X374396Y368300D02*
X362204Y368300D01*
X362204Y342900D02*
X374396Y342900D01*
X438404Y76200D02*
X450596Y76200D01*
X450596Y101600D02*
X438404Y101600D01*
X438404Y228600D02*
X450596Y228600D01*
X450596Y254000D02*
X438404Y254000D01*
X438404Y127000D02*
X450596Y127000D01*
X450596Y152400D02*
X438404Y152400D01*
X438404Y203200D02*
X450596Y203200D01*
X450596Y177800D02*
X438404Y177800D01*
X374396Y254000D02*
X362204Y254000D01*
X362204Y228600D02*
X374396Y228600D01*
X374396Y203200D02*
X362204Y203200D01*
X362204Y177800D02*
X374396Y177800D01*
X374396Y152400D02*
X362204Y152400D01*
X362204Y127000D02*
X374396Y127000D01*
X374396Y101600D02*
X362204Y101600D01*
X362204Y76200D02*
X374396Y76200D01*
X794004Y876300D02*
X806196Y876300D01*
X806196Y901700D02*
X794004Y901700D01*
X794004Y1028700D02*
X806196Y1028700D01*
X806196Y1054100D02*
X794004Y1054100D01*
X794004Y927100D02*
X806196Y927100D01*
X806196Y952500D02*
X794004Y952500D01*
X794004Y1003300D02*
X806196Y1003300D01*
X806196Y977900D02*
X794004Y977900D01*
X729996Y1054100D02*
X717804Y1054100D01*
X717804Y1028700D02*
X729996Y1028700D01*
X729996Y1003300D02*
X717804Y1003300D01*
X717804Y977900D02*
X729996Y977900D01*
X729996Y952500D02*
X717804Y952500D01*
X717804Y927100D02*
X729996Y927100D01*
X729996Y901700D02*
X717804Y901700D01*
X717804Y876300D02*
X729996Y876300D01*
X794004Y609600D02*
X806196Y609600D01*
X806196Y635000D02*
X794004Y635000D01*
X794004Y762000D02*
X806196Y762000D01*
X806196Y787400D02*
X794004Y787400D01*
X794004Y660400D02*
X806196Y660400D01*
X806196Y685800D02*
X794004Y685800D01*
X794004Y736600D02*
X806196Y736600D01*
X806196Y711200D02*
X794004Y711200D01*
X729996Y787400D02*
X717804Y787400D01*
X717804Y762000D02*
X729996Y762000D01*
X729996Y736600D02*
X717804Y736600D01*
X717804Y711200D02*
X729996Y711200D01*
X729996Y685800D02*
X717804Y685800D01*
X717804Y660400D02*
X729996Y660400D01*
X729996Y635000D02*
X717804Y635000D01*
X717804Y609600D02*
X729996Y609600D01*
X794004Y342900D02*
X806196Y342900D01*
X806196Y368300D02*
X794004Y368300D01*
X794004Y495300D02*
X806196Y495300D01*
X806196Y520700D02*
X794004Y520700D01*
X794004Y393700D02*
X806196Y393700D01*
X806196Y419100D02*
X794004Y419100D01*
X794004Y469900D02*
X806196Y469900D01*
X806196Y444500D02*
X794004Y444500D01*
X729996Y520700D02*
X717804Y520700D01*
X717804Y495300D02*
X729996Y495300D01*
X729996Y469900D02*
X717804Y469900D01*
X717804Y444500D02*
X729996Y444500D01*
X729996Y419100D02*
X717804Y419100D01*
X717804Y393700D02*
X729996Y393700D01*
X729996Y368300D02*
X717804Y368300D01*
X717804Y342900D02*
X729996Y342900D01*
X794004Y76200D02*
X806196Y76200D01*
X806196Y101600D02*
X794004Y101600D01*
X794004Y228600D02*
X806196Y228600D01*
X806196Y254000D02*
X794004Y254000D01*
X794004Y127000D02*
X806196Y127000D01*
X806196Y152400D02*
X794004Y152400D01*
X794004Y203200D02*
X806196Y203200D01*
X806196Y177800D02*
X794004Y177800D01*
X729996Y254000D02*
X717804Y254000D01*
X717804Y228600D02*
X729996Y228600D01*
X729996Y203200D02*
X717804Y203200D01*
X717804Y177800D02*
X729996Y177800D01*
X729996Y152400D02*
X717804Y152400D01*
X717804Y127000D02*
X729996Y127000D01*
X729996Y101600D02*
X717804Y101600D01*
X717804Y76200D02*
X729996Y76200D01*
X1149604Y876300D02*
X1161796Y876300D01*
X1161796Y901700D02*
X1149604Y901700D01*
X1149604Y1028700D02*
X1161796Y1028700D01*
X1161796Y1054100D02*
X1149604Y1054100D01*
X1149604Y927100D02*
X1161796Y927100D01*
X1161796Y952500D02*
X1149604Y952500D01*
X1149604Y1003300D02*
X1161796Y1003300D01*
X1161796Y977900D02*
X1149604Y977900D01*
X1085596Y1054100D02*
X1073404Y1054100D01*
X1073404Y1028700D02*
X1085596Y1028700D01*
X1085596Y1003300D02*
X1073404Y1003300D01*
X1073404Y977900D02*
X1085596Y977900D01*
X1085596Y952500D02*
X1073404Y952500D01*
X1073404Y927100D02*
X1085596Y927100D01*
X1085596Y901700D02*
X1073404Y901700D01*
X1073404Y876300D02*
X1085596Y876300D01*
X1149604Y609600D02*
X1161796Y609600D01*
X1161796Y635000D02*
X1149604Y635000D01*
X1149604Y762000D02*
X1161796Y762000D01*
X1161796Y787400D02*
X1149604Y787400D01*
X1149604Y660400D02*
X1161796Y660400D01*
X1161796Y685800D02*
X1149604Y685800D01*
X1149604Y736600D02*
X1161796Y736600D01*
X1161796Y711200D02*
X1149604Y711200D01*
X1085596Y787400D02*
X1073404Y787400D01*
X1073404Y762000D02*
X1085596Y762000D01*
X1085596Y736600D02*
X1073404Y736600D01*
X1073404Y711200D02*
X1085596Y711200D01*
X1085596Y685800D02*
X1073404Y685800D01*
X1073404Y660400D02*
X1085596Y660400D01*
X1085596Y635000D02*
X1073404Y635000D01*
X1073404Y609600D02*
X1085596Y609600D01*
X1149604Y342900D02*
X1161796Y342900D01*
X1161796Y368300D02*
X1149604Y368300D01*
X1149604Y495300D02*
X1161796Y495300D01*
X1161796Y520700D02*
X1149604Y520700D01*
X1149604Y393700D02*
X1161796Y393700D01*
X1161796Y419100D02*
X1149604Y419100D01*
X1149604Y469900D02*
X1161796Y469900D01*
X1161796Y444500D02*
X1149604Y444500D01*
X1085596Y520700D02*
X1073404Y520700D01*
X1073404Y495300D02*
X1085596Y495300D01*
X1085596Y469900D02*
X1073404Y469900D01*
X1073404Y444500D02*
X1085596Y444500D01*
X1085596Y419100D02*
X1073404Y419100D01*
X1073404Y393700D02*
X1085596Y393700D01*
X1085596Y368300D02*
X1073404Y368300D01*
X1073404Y342900D02*
X1085596Y342900D01*
X1149604Y76200D02*
X1161796Y76200D01*
X1161796Y101600D02*
X1149604Y101600D01*
X1149604Y228600D02*
X1161796Y228600D01*
X1161796Y254000D02*
X1149604Y254000D01*
X1149604Y127000D02*
X1161796Y127000D01*
X1161796Y152400D02*
X1149604Y152400D01*
X1149604Y203200D02*
X1161796Y203200D01*
X1161796Y177800D02*
X1149604Y177800D01*
X1085596Y254000D02*
X1073404Y254000D01*
X1073404Y228600D02*
X1085596Y228600D01*
X1085596Y203200D02*
X1073404Y203200D01*
X1073404Y177800D02*
X1085596Y177800D01*
X1085596Y152400D02*
X1073404Y152400D01*
X1073404Y127000D02*
X1085596Y127000D01*
X1085596Y101600D02*
X1073404Y101600D01*
X1073404Y76200D02*
X1085596Y76200D01*
X1505204Y876300D02*
X1517396Y876300D01*
X1517396Y901700D02*
X1505204Y901700D01*
X1505204Y1028700D02*
X1517396Y1028700D01*
X1517396Y1054100D02*
X1505204Y1054100D01*
X1505204Y927100D02*
X1517396Y927100D01*
X1517396Y952500D02*
X1505204Y952500D01*
X1505204Y1003300D02*
X1517396Y1003300D01*
X1517396Y977900D02*
X1505204Y977900D01*
X1441196Y1054100D02*
X1429004Y1054100D01*
X1429004Y1028700D02*
X1441196Y1028700D01*
X1441196Y1003300D02*
X1429004Y1003300D01*
X1429004Y977900D02*
X1441196Y977900D01*
X1441196Y952500D02*
X1429004Y952500D01*
X1429004Y927100D02*
X1441196Y927100D01*
X1441196Y901700D02*
X1429004Y901700D01*
X1429004Y876300D02*
X1441196Y876300D01*
X1505204Y609600D02*
X1517396Y609600D01*
X1517396Y635000D02*
X1505204Y635000D01*
X1505204Y762000D02*
X1517396Y762000D01*
X1517396Y787400D02*
X1505204Y787400D01*
X1505204Y660400D02*
X1517396Y660400D01*
X1517396Y685800D02*
X1505204Y685800D01*
X1505204Y736600D02*
X1517396Y736600D01*
X1517396Y711200D02*
X1505204Y711200D01*
X1441196Y787400D02*
X1429004Y787400D01*
X1429004Y762000D02*
X1441196Y762000D01*
X1441196Y736600D02*
X1429004Y736600D01*
X1429004Y711200D02*
X1441196Y711200D01*
X1441196Y685800D02*
X1429004Y685800D01*
X1429004Y660400D02*
X1441196Y660400D01*
X1441196Y635000D02*
X1429004Y635000D01*
X1429004Y609600D02*
X1441196Y609600D01*
X1505204Y342900D02*
X1517396Y342900D01*
X1517396Y368300D02*
X1505204Y368300D01*
X1505204Y495300D02*
X1517396Y495300D01*
X1517396Y520700D02*
X1505204Y520700D01*
X1505204Y393700D02*
X1517396Y393700D01*
X1517396Y419100D02*
X1505204Y419100D01*
X1505204Y469900D02*
X1517396Y469900D01*
X1517396Y444500D02*
X1505204Y444500D01*
X1441196Y520700D02*
X1429004Y520700D01*
X1429004Y495300D02*
X1441196Y495300D01*
X1441196Y469900D02*
X1429004Y469900D01*
X1429004Y444500D02*
X1441196Y444500D01*
X1441196Y419100D02*
X1429004Y419100D01*
X1429004Y393700D02*
X1441196Y393700D01*
X1441196Y368300D02*
X1429004Y368300D01*
X1429004Y342900D02*
X1441196Y342900D01*
X1505204Y76200D02*
X1517396Y76200D01*
X1517396Y101600D02*
X1505204Y101600D01*
X1505204Y228600D02*
X1517396Y228600D01*
X1517396Y254000D02*
X1505204Y254000D01*
X1505204Y127000D02*
X1517396Y127000D01*
X1517396Y152400D02*
X1505204Y152400D01*
X1505204Y203200D02*
X1517396Y203200D01*
X1517396Y177800D02*
X1505204Y177800D01*
X1441196Y254000D02*
X1429004Y254000D01*
X1429004Y228600D02*
X1441196Y228600D01*
X1441196Y203200D02*
X1429004Y203200D01*
X1429004Y177800D02*
X1441196Y177800D01*
X1441196Y152400D02*
X1429004Y152400D01*
X1429004Y127000D02*
X1441196Y127000D01*
X1441196Y101600D02*
X1429004Y101600D01*
X1429004Y76200D02*
X1441196Y76200D01*
X196596Y266700D02*
X184404Y266700D01*
X184404Y241300D02*
X196596Y241300D01*
X196596Y114300D02*
X184404Y114300D01*
X184404Y88900D02*
X196596Y88900D01*
X196596Y215900D02*
X184404Y215900D01*
X184404Y190500D02*
X196596Y190500D01*
X196596Y139700D02*
X184404Y139700D01*
X184404Y165100D02*
X196596Y165100D01*
X260604Y88900D02*
X272796Y88900D01*
X272796Y114300D02*
X260604Y114300D01*
X260604Y139700D02*
X272796Y139700D01*
X272796Y165100D02*
X260604Y165100D01*
X260604Y190500D02*
X272796Y190500D01*
X272796Y215900D02*
X260604Y215900D01*
X260604Y241300D02*
X272796Y241300D01*
X272796Y266700D02*
X260604Y266700D01*
D14*
X647700Y1066800D03*
X673100Y1066800D03*
X647700Y800100D03*
X673100Y800100D03*
X647700Y533400D03*
X673100Y533400D03*
X647700Y266700D03*
X673100Y266700D03*
X1003300Y1066800D03*
X1028700Y1066800D03*
X1003300Y800100D03*
X1028700Y800100D03*
X1003300Y533400D03*
X1028700Y533400D03*
X1003300Y266700D03*
X1028700Y266700D03*
X1358900Y1066800D03*
X1384300Y1066800D03*
X1358900Y800100D03*
X1384300Y800100D03*
X1358900Y533400D03*
X1384300Y533400D03*
X1358900Y266700D03*
X1384300Y266700D03*
X1714500Y1066800D03*
X1739900Y1066800D03*
X1714500Y800100D03*
X1739900Y800100D03*
X1714500Y533400D03*
X1739900Y533400D03*
X1714500Y266700D03*
X1739900Y266700D03*
D15*
X1600200Y50800D02*
X1612900Y38100D01*
X1727200Y38100D01*
X1397000Y254000D02*
X1384300Y266700D01*
X1397000Y254000D02*
X1435100Y254000D01*
X1597025Y53975D02*
X1600200Y50800D01*
X1597025Y53975D02*
X1457325Y53975D01*
X1435100Y76200D01*
X1397000Y520700D02*
X1384300Y533400D01*
X1397000Y520700D02*
X1435100Y520700D01*
X1739900Y307975D02*
X1739900Y266700D01*
X1739900Y307975D02*
X1609725Y307975D01*
X1600200Y317500D01*
X1397000Y787400D02*
X1384300Y800100D01*
X1397000Y787400D02*
X1435100Y787400D01*
X1600200Y584200D02*
X1622425Y561975D01*
X1727200Y561975D01*
X1739900Y549275D01*
X1739900Y533400D01*
X1397000Y1054100D02*
X1384300Y1066800D01*
X1397000Y1054100D02*
X1435100Y1054100D01*
X1739900Y841375D02*
X1739900Y800100D01*
X1739900Y841375D02*
X1609725Y841375D01*
X1600200Y850900D01*
X1028700Y266700D02*
X1041400Y254000D01*
X1079500Y254000D01*
X1041400Y520700D02*
X1028700Y533400D01*
X1041400Y520700D02*
X1079500Y520700D01*
X1241425Y320675D02*
X1244600Y317500D01*
X1241425Y320675D02*
X1101725Y320675D01*
X1079500Y342900D01*
X1041400Y787400D02*
X1028700Y800100D01*
X1041400Y787400D02*
X1079500Y787400D01*
X1241425Y587375D02*
X1244600Y584200D01*
X1241425Y587375D02*
X1101725Y587375D01*
X1079500Y609600D01*
X1041400Y1054100D02*
X1028700Y1066800D01*
X1041400Y1054100D02*
X1079500Y1054100D01*
X1260475Y866775D02*
X1244600Y850900D01*
X1260475Y866775D02*
X1260475Y885825D01*
X1212850Y885825D01*
X1206500Y879475D01*
X1174750Y879475D01*
X1168400Y885825D01*
X1089025Y885825D01*
X1079500Y876300D01*
X673100Y266700D02*
X685800Y254000D01*
X723900Y254000D01*
X885825Y53975D02*
X889000Y50800D01*
X885825Y53975D02*
X746125Y53975D01*
X723900Y76200D01*
X685800Y520700D02*
X673100Y533400D01*
X685800Y520700D02*
X723900Y520700D01*
X685800Y787400D02*
X673100Y800100D01*
X685800Y787400D02*
X723900Y787400D01*
X885825Y587375D02*
X889000Y584200D01*
X885825Y587375D02*
X746125Y587375D01*
X723900Y609600D01*
X685800Y1054100D02*
X673100Y1066800D01*
X685800Y1054100D02*
X723900Y1054100D01*
X203200Y101600D02*
X190500Y88900D01*
X203200Y101600D02*
X368300Y101600D01*
X530225Y581025D02*
X533400Y584200D01*
X530225Y581025D02*
X200025Y581025D01*
X190500Y571500D01*
X200025Y339725D02*
X190500Y330200D01*
X200025Y339725D02*
X365125Y339725D01*
X368300Y342900D01*
X530225Y320675D02*
X533400Y317500D01*
X530225Y320675D02*
X390525Y320675D01*
X368300Y342900D01*
X533400Y850900D02*
X530225Y854075D01*
X390525Y854075D01*
X368300Y876300D01*
X114300Y977900D02*
X101600Y965200D01*
X114300Y977900D02*
X368300Y977900D01*
X688975Y841375D02*
X723900Y876300D01*
X688975Y841375D02*
X542925Y841375D01*
X533400Y850900D01*
X1397000Y38100D02*
X1435100Y76200D01*
X1397000Y38100D02*
X1257300Y38100D01*
X1244600Y50800D01*
X1676400Y266700D02*
X1714500Y266700D01*
X1676400Y266700D02*
X1549400Y266700D01*
X1676400Y266700D02*
X1676400Y279400D01*
X1196975Y269875D02*
X1193800Y266700D01*
X1196975Y269875D02*
X1311275Y269875D01*
X1320800Y279400D01*
X1346200Y279400D02*
X1349375Y276225D01*
X1358900Y266700D01*
X1346200Y279400D02*
X1320800Y279400D01*
X1003300Y266700D02*
X965200Y266700D01*
X838200Y266700D01*
X965200Y266700D02*
X965200Y276225D01*
X647700Y266700D02*
X609600Y266700D01*
X482600Y266700D01*
X609600Y266700D02*
X609600Y276225D01*
X266700Y266700D02*
X203200Y203200D01*
X101600Y203200D01*
X266700Y266700D02*
X482600Y266700D01*
X828675Y276225D02*
X838200Y266700D01*
X828675Y276225D02*
X609600Y276225D01*
X609600Y279400D01*
X1184275Y276225D02*
X1193800Y266700D01*
X1184275Y276225D02*
X965200Y276225D01*
X965200Y279400D01*
X1539875Y276225D02*
X1549400Y266700D01*
X1539875Y276225D02*
X1349375Y276225D01*
X1549400Y800100D02*
X1552575Y803275D01*
X1666875Y803275D01*
X1676400Y812800D01*
X1701800Y812800D02*
X1714500Y800100D01*
X1701800Y812800D02*
X1676400Y812800D01*
X1196975Y803275D02*
X1193800Y800100D01*
X1196975Y803275D02*
X1311275Y803275D01*
X1320800Y812800D01*
X1346200Y812800D02*
X1349375Y809625D01*
X1358900Y800100D01*
X1346200Y812800D02*
X1320800Y812800D01*
X647700Y800100D02*
X609600Y800100D01*
X482600Y800100D01*
X609600Y800100D02*
X609600Y812800D01*
X965200Y800100D02*
X1003300Y800100D01*
X965200Y800100D02*
X838200Y800100D01*
X965200Y800100D02*
X965200Y809625D01*
X657225Y809625D02*
X647700Y800100D01*
X657225Y809625D02*
X828675Y809625D01*
X838200Y800100D01*
X1184275Y809625D02*
X1193800Y800100D01*
X1184275Y809625D02*
X965200Y809625D01*
X965200Y812800D01*
X1539875Y809625D02*
X1549400Y800100D01*
X1539875Y809625D02*
X1349375Y809625D01*
X1358900Y1066800D02*
X1320800Y1066800D01*
X1193800Y1066800D01*
X1320800Y1066800D02*
X1320800Y1076325D01*
X647700Y1066800D02*
X609600Y1066800D01*
X482600Y1066800D01*
X609600Y1066800D02*
X609600Y1079500D01*
X965200Y1066800D02*
X1003300Y1066800D01*
X965200Y1066800D02*
X838200Y1066800D01*
X965200Y1066800D02*
X965200Y1076325D01*
X657225Y1076325D02*
X647700Y1066800D01*
X657225Y1076325D02*
X828675Y1076325D01*
X838200Y1066800D01*
X1184275Y1076325D02*
X1193800Y1066800D01*
X1184275Y1076325D02*
X965200Y1076325D01*
X965200Y1079500D01*
X1539875Y1076325D02*
X1549400Y1066800D01*
X1539875Y1076325D02*
X1320800Y1076325D01*
X1320800Y1079500D01*
X117475Y955675D02*
X101600Y939800D01*
X117475Y955675D02*
X257175Y955675D01*
X266700Y965200D01*
X1676400Y533400D02*
X1714500Y533400D01*
X1676400Y533400D02*
X1549400Y533400D01*
X1676400Y533400D02*
X1676400Y546100D01*
X1196975Y536575D02*
X1193800Y533400D01*
X1196975Y536575D02*
X1311275Y536575D01*
X1320800Y546100D01*
X1346200Y546100D02*
X1349375Y542925D01*
X1358900Y533400D01*
X1346200Y546100D02*
X1320800Y546100D01*
X841375Y536575D02*
X838200Y533400D01*
X841375Y536575D02*
X955675Y536575D01*
X965200Y546100D01*
X990600Y546100D02*
X993775Y542925D01*
X1003300Y533400D01*
X990600Y546100D02*
X965200Y546100D01*
X622300Y533400D02*
X612775Y542925D01*
X622300Y533400D02*
X647700Y533400D01*
X292100Y533400D02*
X266700Y508000D01*
X292100Y533400D02*
X482600Y533400D01*
X596900Y533400D02*
X609600Y546100D01*
X596900Y533400D02*
X482600Y533400D01*
X828675Y542925D02*
X838200Y533400D01*
X828675Y542925D02*
X612775Y542925D01*
X609600Y546100D01*
X1184275Y542925D02*
X1193800Y533400D01*
X1184275Y542925D02*
X993775Y542925D01*
X1539875Y542925D02*
X1549400Y533400D01*
X1539875Y542925D02*
X1349375Y542925D01*
X1619250Y495300D02*
X1622425Y492125D01*
X1619250Y495300D02*
X1600200Y495300D01*
X1622425Y739775D02*
X1600200Y762000D01*
X895350Y768350D02*
X889000Y762000D01*
X895350Y768350D02*
X917575Y768350D01*
X1241425Y1031875D02*
X1244600Y1028700D01*
X1241425Y1031875D02*
X1174750Y1031875D01*
X1168400Y1038225D01*
X898525Y1038225D01*
X889000Y1028700D01*
X1597025Y498475D02*
X1600200Y495300D01*
X1597025Y498475D02*
X1530350Y498475D01*
X1524000Y504825D01*
X1377950Y504825D01*
X1333500Y460375D01*
X1279525Y460375D01*
X1244600Y495300D01*
X558800Y469900D02*
X533400Y495300D01*
X812800Y244475D02*
X815975Y247650D01*
X812800Y244475D02*
X549275Y244475D01*
X533400Y228600D01*
X885825Y498475D02*
X889000Y495300D01*
X885825Y498475D02*
X819150Y498475D01*
X812800Y504825D01*
X666750Y504825D01*
X622300Y460375D01*
X577850Y460375D01*
X568325Y469900D01*
X558800Y469900D01*
X63500Y546100D02*
X63500Y577850D01*
X63500Y546100D02*
X174625Y546100D01*
X250825Y469900D01*
X250825Y447675D01*
X298450Y447675D01*
X355600Y504825D01*
X463550Y504825D01*
X469900Y498475D01*
X530225Y498475D01*
X533400Y495300D01*
X1241425Y498475D02*
X1244600Y495300D01*
X1241425Y498475D02*
X1174750Y498475D01*
X1168400Y504825D01*
X1022350Y504825D01*
X977900Y460375D01*
X923925Y460375D01*
X889000Y495300D01*
D16*
X1622425Y492125D03*
X1622425Y739775D03*
X917575Y768350D03*
X558800Y469900D03*
X815975Y247650D03*
X63500Y577850D03*
D15*
X1600200Y444500D02*
X1628775Y415925D01*
X1628775Y682625D02*
X1600200Y711200D01*
X1250950Y184150D02*
X1244600Y177800D01*
X1250950Y184150D02*
X1266825Y184150D01*
X1273175Y422275D02*
X1250950Y444500D01*
X1244600Y444500D01*
X1273175Y682625D02*
X1244600Y711200D01*
X898525Y187325D02*
X889000Y177800D01*
X898525Y187325D02*
X911225Y187325D01*
X911225Y428625D02*
X895350Y444500D01*
X889000Y444500D01*
X542925Y187325D02*
X533400Y177800D01*
X542925Y187325D02*
X555625Y187325D01*
X565150Y412750D02*
X533400Y444500D01*
X885825Y708025D02*
X889000Y711200D01*
X885825Y708025D02*
X819150Y708025D01*
X812800Y701675D01*
X565150Y701675D02*
X542925Y701675D01*
X565150Y701675D02*
X812800Y701675D01*
X542925Y701675D02*
X536575Y708025D01*
X50800Y660400D02*
X31750Y679450D01*
X31750Y749300D01*
X120650Y749300D01*
X161925Y708025D01*
X222250Y708025D01*
X247650Y682625D01*
X342900Y682625D01*
X361950Y701675D01*
X463550Y701675D01*
X469900Y708025D01*
X536575Y708025D01*
X533400Y711200D01*
X889000Y711200D02*
X911225Y711200D01*
X1241425Y441325D02*
X1244600Y444500D01*
X1241425Y441325D02*
X1174750Y441325D01*
X1162050Y428625D01*
X911225Y428625D01*
X1562100Y765175D02*
X1565275Y768350D01*
X1562100Y765175D02*
X1530350Y765175D01*
X1524000Y771525D01*
X1492250Y771525D01*
X1441450Y720725D01*
X1377950Y720725D01*
X1333500Y676275D01*
X1279525Y676275D01*
X1273175Y682625D01*
D16*
X1628775Y415925D03*
X1628775Y682625D03*
X1266825Y184150D03*
X1273175Y422275D03*
X1273175Y682625D03*
X911225Y187325D03*
X911225Y428625D03*
X555625Y187325D03*
X565150Y412750D03*
X565150Y701675D03*
X911225Y711200D03*
X1565275Y768350D03*
D15*
X898525Y885825D02*
X889000Y876300D01*
X898525Y885825D02*
X1047750Y885825D01*
X1066800Y866775D01*
X1174750Y866775D01*
X1181100Y873125D01*
X1241425Y873125D01*
X1244600Y876300D01*
X1600200Y342900D02*
X1628775Y314325D01*
X1641475Y314325D01*
X542925Y333375D02*
X533400Y342900D01*
X542925Y333375D02*
X819150Y333375D01*
X825500Y339725D01*
X885825Y339725D01*
X889000Y342900D01*
X561975Y847725D02*
X533400Y876300D01*
X561975Y847725D02*
X565150Y847725D01*
X571500Y619125D02*
X561975Y609600D01*
X533400Y609600D01*
X73025Y622300D02*
X63500Y631825D01*
X73025Y622300D02*
X117475Y622300D01*
X200025Y539750D01*
X406400Y539750D01*
D16*
X1641475Y314325D03*
X565150Y847725D03*
X571500Y619125D03*
X63500Y631825D03*
X406400Y539750D03*
D15*
X587375Y854075D02*
X609600Y876300D01*
X50800Y736600D02*
X38100Y723900D01*
X38100Y682625D01*
X47625Y673100D01*
X53975Y673100D01*
X63500Y663575D01*
X63500Y647700D01*
X117475Y647700D01*
X177800Y587375D01*
X514350Y587375D01*
X527050Y600075D01*
X600075Y600075D01*
X609600Y609600D01*
X1285875Y574675D02*
X1320800Y609600D01*
X1285875Y574675D02*
X952500Y574675D01*
X949325Y577850D01*
X949325Y609600D01*
X965200Y609600D01*
X1285875Y841375D02*
X1320800Y876300D01*
X1285875Y841375D02*
X1000125Y841375D01*
X965200Y876300D01*
X1660525Y593725D02*
X1676400Y609600D01*
X1660525Y593725D02*
X1568450Y593725D01*
X1549400Y574675D01*
X1285875Y574675D01*
X1660525Y860425D02*
X1676400Y876300D01*
X1660525Y860425D02*
X1568450Y860425D01*
X1549400Y841375D01*
X1285875Y841375D01*
X1320800Y342900D02*
X1285875Y307975D01*
X1000125Y307975D01*
X965200Y342900D01*
X1666875Y352425D02*
X1676400Y342900D01*
X1666875Y352425D02*
X1568450Y352425D01*
X1562100Y346075D01*
X1530350Y346075D01*
X1524000Y352425D01*
X1377950Y352425D01*
X1333500Y307975D01*
X1285875Y307975D01*
X619125Y352425D02*
X609600Y342900D01*
X619125Y352425D02*
X819150Y352425D01*
X825500Y346075D01*
X869950Y346075D01*
X876300Y352425D01*
X955675Y352425D01*
X965200Y342900D01*
D16*
X587375Y854075D03*
D15*
X1676400Y660400D02*
X1692275Y644525D01*
X1692275Y625475D01*
X1568450Y625475D01*
X1555750Y638175D01*
X1530350Y638175D01*
X1524000Y644525D01*
X1352550Y644525D01*
X1336675Y660400D01*
X1320800Y660400D01*
X123825Y657225D02*
X114300Y666750D01*
X123825Y657225D02*
X349250Y657225D01*
X361950Y644525D01*
X463550Y644525D01*
X476250Y631825D01*
X514350Y631825D01*
X520700Y625475D01*
X622300Y625475D01*
X625475Y628650D01*
X625475Y660400D01*
X609600Y660400D01*
X609600Y127000D02*
X695325Y41275D01*
X977900Y41275D01*
X981075Y44450D01*
X981075Y127000D01*
X965200Y127000D01*
X612775Y390525D02*
X609600Y393700D01*
X612775Y390525D02*
X704850Y390525D01*
X717550Y377825D01*
X819150Y377825D01*
X831850Y365125D01*
X869950Y365125D01*
X876300Y358775D01*
X977900Y358775D01*
X981075Y361950D01*
X981075Y377825D02*
X981075Y393700D01*
X981075Y377825D02*
X981075Y361950D01*
X981075Y393700D02*
X965200Y393700D01*
X631825Y615950D02*
X622300Y625475D01*
X1320800Y393700D02*
X1336675Y377825D01*
X1336675Y358775D01*
X1212850Y358775D01*
X1200150Y371475D01*
X1174750Y371475D01*
X1168400Y377825D01*
X981075Y377825D01*
D16*
X114300Y666750D03*
X631825Y615950D03*
D15*
X1006475Y219075D02*
X965200Y177800D01*
X1006475Y219075D02*
X1174750Y219075D01*
X1181100Y225425D01*
X1225550Y225425D01*
X1231900Y219075D01*
X1279525Y219075D01*
X1320800Y177800D01*
X974725Y434975D02*
X965200Y444500D01*
X974725Y434975D02*
X993775Y434975D01*
X993775Y231775D02*
X1006475Y219075D01*
X1320800Y444500D02*
X1330325Y454025D01*
X1460500Y454025D01*
X1492250Y485775D01*
X1530350Y485775D01*
X1536700Y492125D01*
X1581150Y492125D01*
X1587500Y485775D01*
X1635125Y485775D01*
X1676400Y444500D01*
X1308100Y444500D02*
X1298575Y434975D01*
X1308100Y444500D02*
X1320800Y444500D01*
X63500Y800100D02*
X50800Y787400D01*
X63500Y800100D02*
X146050Y800100D01*
X187325Y758825D01*
X203200Y758825D01*
X250825Y711200D01*
X250825Y688975D01*
X323850Y688975D01*
X355600Y720725D01*
X463550Y720725D01*
X469900Y714375D01*
X514350Y714375D01*
X520700Y720725D01*
X600075Y720725D01*
X609600Y711200D01*
X920750Y720725D02*
X949325Y692150D01*
X920750Y720725D02*
X857250Y720725D01*
X850900Y714375D01*
X819150Y714375D01*
X812800Y720725D01*
X600075Y720725D01*
X1308100Y892175D02*
X1311275Y889000D01*
X1308100Y892175D02*
X1212850Y892175D01*
X1206500Y898525D01*
X1174750Y898525D01*
X1168400Y892175D01*
X1050925Y892175D01*
X965200Y977900D01*
X923925Y219075D02*
X965200Y177800D01*
X923925Y219075D02*
X857250Y219075D01*
X850900Y225425D01*
X819150Y225425D01*
X812800Y219075D01*
X698500Y219075D01*
X622300Y142875D01*
X596900Y142875D01*
X593725Y146050D01*
X593725Y177800D01*
X609600Y177800D01*
D16*
X993775Y434975D03*
X993775Y231775D03*
X1298575Y434975D03*
X949325Y692150D03*
X1311275Y889000D03*
D15*
X549275Y911225D02*
X533400Y927100D01*
X549275Y911225D02*
X631825Y911225D01*
X631825Y669925D02*
X542925Y669925D01*
X536575Y663575D01*
X63500Y673100D02*
X50800Y685800D01*
X63500Y673100D02*
X155575Y673100D01*
X165100Y663575D01*
X349250Y663575D01*
X355600Y669925D01*
X463550Y669925D01*
X469900Y663575D01*
X536575Y663575D01*
X533400Y660400D01*
X1631950Y393700D02*
X1635125Y390525D01*
X1631950Y393700D02*
X1600200Y393700D01*
X1628775Y631825D02*
X1600200Y660400D01*
X1628775Y631825D02*
X1635125Y631825D01*
X1603375Y923925D02*
X1600200Y927100D01*
X1603375Y923925D02*
X1635125Y923925D01*
X1254125Y669925D02*
X1244600Y660400D01*
X1254125Y669925D02*
X1266825Y669925D01*
X1244600Y127000D02*
X1260475Y111125D01*
X1260475Y92075D01*
X1257300Y92075D02*
X1212850Y92075D01*
X1257300Y92075D02*
X1260475Y92075D01*
X1212850Y92075D02*
X1206500Y98425D01*
X1174750Y98425D01*
X1168400Y92075D01*
X1025525Y92075D01*
X974725Y142875D01*
X933450Y142875D01*
X1241425Y396875D02*
X1244600Y393700D01*
X1241425Y396875D02*
X1174750Y396875D01*
X1168400Y403225D01*
X952500Y403225D01*
X933450Y384175D01*
X933450Y377825D01*
X911225Y377825D01*
X895350Y393700D01*
X889000Y393700D01*
X1250950Y393700D02*
X1266825Y409575D01*
X1250950Y393700D02*
X1244600Y393700D01*
X1257300Y92075D02*
X1304925Y44450D01*
D16*
X631825Y911225D03*
X631825Y669925D03*
X1635125Y390525D03*
X1635125Y631825D03*
X1635125Y923925D03*
X1266825Y669925D03*
X933450Y142875D03*
X1266825Y409575D03*
X1304925Y44450D03*
D15*
X1320800Y762000D02*
X1336675Y777875D01*
X1343025Y777875D02*
X1530350Y777875D01*
X1343025Y777875D02*
X1336675Y777875D01*
X1530350Y777875D02*
X1543050Y790575D01*
X1581150Y790575D01*
X1587500Y796925D01*
X1641475Y796925D01*
X1676400Y762000D01*
X1698625Y517525D02*
X1676400Y495300D01*
X1698625Y517525D02*
X1739900Y517525D01*
X1749425Y527050D01*
X1749425Y762000D01*
X1676400Y762000D01*
X1749425Y955675D02*
X1676400Y1028700D01*
X1749425Y955675D02*
X1749425Y762000D01*
X1666875Y238125D02*
X1676400Y228600D01*
X1666875Y238125D02*
X1568450Y238125D01*
X1562100Y231775D01*
X1530350Y231775D01*
X1524000Y238125D01*
X1330325Y238125D01*
X1320800Y228600D01*
X981075Y590550D02*
X987425Y596900D01*
X987425Y762000D01*
X965200Y762000D01*
X987425Y762000D02*
X993775Y768350D01*
X955675Y238125D02*
X965200Y228600D01*
X955675Y238125D02*
X857250Y238125D01*
X850900Y231775D01*
X819150Y231775D01*
X812800Y238125D01*
X619125Y238125D01*
X609600Y228600D01*
X609600Y762000D02*
X581025Y790575D01*
X63500Y825500D02*
X50800Y812800D01*
X63500Y825500D02*
X231775Y825500D01*
X254000Y847725D01*
X317500Y847725D01*
X355600Y885825D01*
X463550Y885825D01*
X469900Y879475D01*
X514350Y879475D01*
X520700Y885825D01*
X581025Y885825D01*
X581025Y523875D02*
X609600Y495300D01*
D16*
X981075Y590550D03*
X993775Y768350D03*
X1343025Y777875D03*
X581025Y790575D03*
X581025Y885825D03*
X581025Y523875D03*
D15*
X190500Y508000D02*
X152400Y469900D01*
X73025Y469900D01*
X63500Y460375D01*
X63500Y393700D01*
X47625Y393700D01*
X25400Y371475D01*
X25400Y228600D01*
X50800Y228600D01*
X161925Y720725D02*
X190500Y749300D01*
X161925Y536575D02*
X190500Y508000D01*
D16*
X161925Y720725D03*
X161925Y536575D03*
D15*
X190500Y482600D02*
X149225Y441325D01*
X127000Y441325D01*
D16*
X127000Y441325D03*
D15*
X174625Y441325D02*
X190500Y457200D01*
X174625Y441325D02*
X165100Y441325D01*
X149225Y425450D01*
X149225Y368300D01*
X47625Y368300D01*
X38100Y358775D01*
X38100Y342900D01*
X53975Y342900D01*
X63500Y333375D01*
X63500Y317500D01*
X47625Y317500D01*
X38100Y307975D01*
X38100Y279400D01*
X50800Y279400D01*
X219075Y669925D02*
X190500Y698500D01*
X219075Y485775D02*
X190500Y457200D01*
D16*
X219075Y669925D03*
X219075Y485775D03*
D15*
X165100Y292100D02*
X190500Y266700D01*
X165100Y292100D02*
X63500Y292100D01*
X50800Y304800D01*
X165100Y266700D02*
X190500Y241300D01*
X165100Y266700D02*
X41275Y266700D01*
X31750Y276225D01*
X31750Y330200D01*
X50800Y330200D01*
X190500Y215900D02*
X206375Y231775D01*
X206375Y298450D01*
X149225Y298450D01*
X104775Y342900D01*
X63500Y342900D01*
X50800Y355600D01*
X177800Y927100D02*
X190500Y939800D01*
X177800Y927100D02*
X47625Y927100D01*
X12700Y892175D01*
X12700Y431800D01*
X50800Y431800D01*
X187325Y885825D02*
X190500Y889000D01*
X187325Y885825D02*
X114300Y885825D01*
X25400Y508000D02*
X50800Y482600D01*
D16*
X114300Y885825D03*
X25400Y508000D03*
D15*
X231775Y803275D02*
X266700Y838200D01*
X231775Y803275D02*
X152400Y803275D01*
X149225Y806450D01*
X114300Y806450D01*
D16*
X114300Y806450D03*
D15*
X257175Y854075D02*
X266700Y863600D01*
X257175Y854075D02*
X177800Y854075D01*
D16*
X177800Y854075D03*
D15*
X254000Y876300D02*
X266700Y889000D01*
X254000Y876300D02*
X47625Y876300D01*
X25400Y854075D01*
X25400Y622300D01*
X53975Y622300D01*
X63500Y612775D01*
X63500Y584200D01*
X50800Y584200D01*
X254000Y901700D02*
X266700Y914400D01*
X254000Y901700D02*
X47625Y901700D01*
X19050Y873125D01*
X19050Y609600D01*
X50800Y609600D01*
X187325Y434975D02*
X190500Y431800D01*
X187325Y434975D02*
X168275Y434975D01*
X168275Y669925D02*
X171450Y673100D01*
X190500Y673100D01*
X88900Y723900D02*
X76200Y736600D01*
X88900Y723900D02*
X114300Y723900D01*
X168275Y669925D01*
D16*
X168275Y434975D03*
X168275Y669925D03*
D15*
X101600Y457200D02*
X142875Y415925D01*
D16*
X142875Y415925D03*
D15*
X136525Y742950D02*
X104775Y774700D01*
X47625Y774700D01*
X38100Y784225D01*
X38100Y850900D01*
X88900Y850900D01*
X101600Y863600D01*
D16*
X136525Y742950D03*
D15*
X571500Y1041400D02*
X609600Y1003300D01*
X571500Y1041400D02*
X482600Y1041400D01*
X422275Y923925D02*
X444500Y901700D01*
X422275Y923925D02*
X422275Y1016000D01*
X482600Y1016000D01*
X568325Y993775D02*
X609600Y952500D01*
X568325Y993775D02*
X504825Y993775D01*
X482600Y1016000D01*
X428625Y942975D02*
X444500Y927100D01*
X428625Y942975D02*
X428625Y990600D01*
X482600Y990600D01*
X600075Y892175D02*
X609600Y901700D01*
X600075Y892175D02*
X501650Y892175D01*
X495300Y898525D01*
X466725Y898525D01*
X460375Y904875D01*
X460375Y927100D01*
X444500Y927100D01*
X444500Y952500D02*
X457200Y965200D01*
X482600Y965200D01*
X609600Y850900D02*
X638175Y879475D01*
X638175Y942975D01*
X565150Y942975D01*
X542925Y965200D01*
X482600Y965200D01*
X530225Y904875D02*
X533400Y901700D01*
X530225Y904875D02*
X469900Y904875D01*
X466725Y908050D01*
X466725Y939800D01*
X482600Y939800D01*
X482600Y914400D02*
X520700Y952500D01*
X533400Y952500D01*
X533400Y1003300D02*
X508000Y1028700D01*
X444500Y1028700D01*
X571500Y774700D02*
X609600Y736600D01*
X571500Y774700D02*
X482600Y774700D01*
X600075Y695325D02*
X609600Y685800D01*
X600075Y695325D02*
X511175Y695325D01*
D16*
X511175Y695325D03*
D15*
X593725Y650875D02*
X609600Y635000D01*
X593725Y650875D02*
X501650Y650875D01*
X495300Y657225D01*
X447675Y657225D01*
X444500Y660400D01*
X444500Y685800D02*
X454025Y695325D01*
X479425Y695325D01*
X609600Y584200D02*
X638175Y612775D01*
X638175Y676275D01*
X501650Y676275D01*
X482600Y695325D01*
X479425Y695325D01*
X482600Y698500D01*
X501650Y685800D02*
X533400Y685800D01*
D16*
X501650Y685800D03*
D15*
X469900Y736600D02*
X444500Y762000D01*
X469900Y736600D02*
X533400Y736600D01*
X533400Y787400D02*
X444500Y787400D01*
X571500Y508000D02*
X609600Y469900D01*
X571500Y508000D02*
X482600Y508000D01*
X434975Y377825D02*
X444500Y368300D01*
X434975Y377825D02*
X428625Y377825D01*
X415925Y390525D01*
X415925Y482600D01*
X482600Y482600D01*
X568325Y460375D02*
X609600Y419100D01*
X568325Y460375D02*
X517525Y460375D01*
X495300Y482600D01*
X482600Y482600D01*
X428625Y409575D02*
X444500Y393700D01*
X428625Y409575D02*
X428625Y457200D01*
X482600Y457200D01*
X600075Y377825D02*
X609600Y368300D01*
X600075Y377825D02*
X508000Y377825D01*
X492125Y393700D01*
X444500Y393700D01*
X444500Y419100D02*
X457200Y431800D01*
X482600Y431800D01*
X615950Y384175D02*
X625475Y374650D01*
X615950Y384175D02*
X565150Y384175D01*
X539750Y409575D01*
X504825Y409575D01*
X482600Y431800D01*
D16*
X625475Y374650D03*
D15*
X482600Y381000D02*
X479425Y384175D01*
X431800Y384175D01*
X422275Y393700D01*
X422275Y469900D01*
X444500Y469900D01*
X498475Y454025D02*
X533400Y419100D01*
X498475Y454025D02*
X498475Y469900D01*
X444500Y469900D01*
X447675Y492125D02*
X444500Y495300D01*
X447675Y492125D02*
X511175Y492125D01*
X533400Y469900D01*
X609600Y203200D02*
X600075Y193675D01*
X501650Y193675D01*
X495300Y200025D01*
X463550Y200025D01*
X457200Y193675D01*
X431800Y193675D01*
X428625Y196850D01*
X428625Y241300D01*
X482600Y241300D01*
X609600Y152400D02*
X625475Y168275D01*
X625475Y215900D01*
X482600Y215900D01*
X428625Y142875D02*
X444500Y127000D01*
X428625Y142875D02*
X428625Y187325D01*
X479425Y187325D01*
X482600Y190500D01*
X555625Y155575D02*
X609600Y101600D01*
X555625Y155575D02*
X555625Y168275D01*
X504825Y168275D01*
X482600Y190500D01*
X457200Y165100D02*
X454025Y161925D01*
X444500Y152400D01*
X457200Y165100D02*
X482600Y165100D01*
X549275Y111125D02*
X609600Y50800D01*
X549275Y111125D02*
X549275Y161925D01*
X454025Y161925D01*
X530225Y104775D02*
X533400Y101600D01*
X530225Y104775D02*
X469900Y104775D01*
X466725Y107950D01*
X466725Y139700D01*
X482600Y139700D01*
X482600Y114300D02*
X520700Y152400D01*
X533400Y152400D01*
X466725Y206375D02*
X444500Y228600D01*
X466725Y206375D02*
X530225Y206375D01*
X533400Y203200D01*
X454025Y92075D02*
X482600Y63500D01*
X454025Y92075D02*
X431800Y92075D01*
X406400Y117475D01*
X406400Y254000D01*
X444500Y254000D01*
X533400Y254000D01*
X965200Y1003300D02*
X949325Y1019175D01*
X860425Y1019175D01*
X838200Y1041400D01*
X777875Y923925D02*
X800100Y901700D01*
X777875Y923925D02*
X777875Y1016000D01*
X838200Y1016000D01*
X904875Y1012825D02*
X965200Y952500D01*
X904875Y1012825D02*
X841375Y1012825D01*
X838200Y1016000D01*
X784225Y942975D02*
X800100Y927100D01*
X784225Y942975D02*
X784225Y990600D01*
X838200Y990600D01*
X949325Y917575D02*
X965200Y901700D01*
X949325Y917575D02*
X857250Y917575D01*
X847725Y927100D01*
X800100Y927100D01*
X800100Y952500D02*
X812800Y965200D01*
X838200Y965200D01*
X949325Y866775D02*
X965200Y850900D01*
X949325Y866775D02*
X876300Y866775D01*
X873125Y869950D01*
X873125Y892175D01*
X977900Y892175D01*
X981075Y895350D01*
X981075Y942975D01*
X860425Y942975D01*
X838200Y965200D01*
X854075Y987425D02*
X889000Y952500D01*
X854075Y987425D02*
X854075Y1003300D01*
X800100Y1003300D01*
X809625Y892175D02*
X838200Y863600D01*
X809625Y892175D02*
X787400Y892175D01*
X762000Y917575D01*
X762000Y1054100D01*
X800100Y1054100D01*
X889000Y1054100D01*
X927100Y774700D02*
X965200Y736600D01*
X927100Y774700D02*
X838200Y774700D01*
X923925Y727075D02*
X965200Y685800D01*
X923925Y727075D02*
X860425Y727075D01*
X838200Y749300D01*
X949325Y650875D02*
X965200Y635000D01*
X949325Y650875D02*
X857250Y650875D01*
X847725Y660400D01*
X800100Y660400D01*
X800100Y685800D02*
X809625Y695325D01*
X835025Y695325D01*
X838200Y698500D01*
X965200Y584200D02*
X981075Y600075D01*
X981075Y676275D01*
X920750Y676275D01*
X898525Y698500D01*
X838200Y698500D01*
X885825Y638175D02*
X889000Y635000D01*
X885825Y638175D02*
X819150Y638175D01*
X806450Y650875D01*
X787400Y650875D01*
X784225Y654050D01*
X784225Y673100D01*
X838200Y673100D01*
X854075Y685800D02*
X889000Y685800D01*
D16*
X854075Y685800D03*
D15*
X803275Y758825D02*
X800100Y762000D01*
X803275Y758825D02*
X866775Y758825D01*
X889000Y736600D01*
X889000Y787400D02*
X800100Y787400D01*
X927100Y508000D02*
X965200Y469900D01*
X927100Y508000D02*
X838200Y508000D01*
X911225Y419100D02*
X965200Y419100D01*
X911225Y419100D02*
X895350Y434975D01*
X876300Y434975D01*
X860425Y450850D01*
X860425Y482600D01*
X838200Y482600D01*
X784225Y409575D02*
X800100Y393700D01*
X784225Y409575D02*
X784225Y457200D01*
X838200Y457200D01*
X962025Y371475D02*
X965200Y368300D01*
X962025Y371475D02*
X908050Y371475D01*
X895350Y384175D01*
X857250Y384175D01*
X847725Y393700D01*
X800100Y393700D01*
X800100Y419100D02*
X812800Y431800D01*
X838200Y431800D01*
X901700Y409575D02*
X927100Y384175D01*
X901700Y409575D02*
X860425Y409575D01*
X838200Y431800D01*
D16*
X927100Y384175D03*
D15*
X838200Y381000D02*
X835025Y384175D01*
X787400Y384175D01*
X777875Y393700D01*
X777875Y469900D01*
X800100Y469900D01*
X879475Y428625D02*
X889000Y419100D01*
X879475Y428625D02*
X873125Y428625D01*
X854075Y447675D01*
X854075Y469900D01*
X800100Y469900D01*
X803275Y492125D02*
X800100Y495300D01*
X803275Y492125D02*
X866775Y492125D01*
X889000Y469900D01*
X981075Y219075D02*
X965200Y203200D01*
X981075Y219075D02*
X981075Y244475D01*
X841375Y244475D01*
X838200Y241300D01*
X777875Y123825D02*
X800100Y101600D01*
X777875Y123825D02*
X777875Y212725D01*
X835025Y212725D01*
X838200Y215900D01*
X923925Y193675D02*
X965200Y152400D01*
X923925Y193675D02*
X860425Y193675D01*
X838200Y215900D01*
X784225Y142875D02*
X800100Y127000D01*
X784225Y142875D02*
X784225Y190500D01*
X838200Y190500D01*
X911225Y155575D02*
X965200Y101600D01*
X911225Y155575D02*
X911225Y168275D01*
X860425Y168275D01*
X838200Y190500D01*
X812800Y165100D02*
X809625Y161925D01*
X800100Y152400D01*
X812800Y165100D02*
X838200Y165100D01*
X904875Y111125D02*
X965200Y50800D01*
X904875Y111125D02*
X904875Y161925D01*
X809625Y161925D01*
X885825Y104775D02*
X889000Y101600D01*
X885825Y104775D02*
X825500Y104775D01*
X822325Y107950D01*
X822325Y139700D01*
X838200Y139700D01*
X838200Y114300D02*
X876300Y152400D01*
X889000Y152400D01*
X889000Y254000D02*
X800100Y254000D01*
X1320800Y1003300D02*
X1282700Y1041400D01*
X1193800Y1041400D01*
X1146175Y911225D02*
X1155700Y901700D01*
X1146175Y911225D02*
X1139825Y911225D01*
X1133475Y917575D01*
X1133475Y1016000D01*
X1193800Y1016000D01*
X1279525Y993775D02*
X1320800Y952500D01*
X1279525Y993775D02*
X1216025Y993775D01*
X1193800Y1016000D01*
X1304925Y917575D02*
X1320800Y901700D01*
X1304925Y917575D02*
X1212850Y917575D01*
X1203325Y927100D01*
X1155700Y927100D01*
X1155700Y952500D02*
X1168400Y965200D01*
X1193800Y965200D01*
X1320800Y850900D02*
X1336675Y866775D01*
X1336675Y942975D01*
X1216025Y942975D01*
X1193800Y965200D01*
X1241425Y904875D02*
X1244600Y901700D01*
X1241425Y904875D02*
X1174750Y904875D01*
X1162050Y917575D01*
X1143000Y917575D01*
X1139825Y920750D01*
X1139825Y977900D01*
X1155700Y977900D01*
X1216025Y981075D02*
X1244600Y952500D01*
X1216025Y981075D02*
X1177925Y981075D01*
X1155700Y1003300D01*
X1158875Y1025525D02*
X1155700Y1028700D01*
X1158875Y1025525D02*
X1222375Y1025525D01*
X1244600Y1003300D01*
X1244600Y1054100D02*
X1155700Y1054100D01*
X1282700Y774700D02*
X1320800Y736600D01*
X1282700Y774700D02*
X1193800Y774700D01*
X1133475Y657225D02*
X1155700Y635000D01*
X1133475Y657225D02*
X1133475Y749300D01*
X1193800Y749300D01*
X1279525Y727075D02*
X1320800Y685800D01*
X1279525Y727075D02*
X1228725Y727075D01*
X1206500Y749300D01*
X1193800Y749300D01*
X1139825Y676275D02*
X1155700Y660400D01*
X1139825Y676275D02*
X1139825Y723900D01*
X1193800Y723900D01*
X1311275Y644525D02*
X1320800Y635000D01*
X1311275Y644525D02*
X1219200Y644525D01*
X1203325Y660400D01*
X1155700Y660400D01*
X1155700Y685800D02*
X1168400Y698500D01*
X1193800Y698500D01*
X1320800Y584200D02*
X1336675Y600075D01*
X1336675Y650875D01*
X1295400Y650875D01*
X1270000Y676275D01*
X1216025Y676275D01*
X1193800Y698500D01*
X1209675Y720725D02*
X1244600Y685800D01*
X1209675Y720725D02*
X1209675Y736600D01*
X1155700Y736600D01*
X1158875Y758825D02*
X1155700Y762000D01*
X1158875Y758825D02*
X1222375Y758825D01*
X1244600Y736600D01*
X1165225Y625475D02*
X1193800Y596900D01*
X1165225Y625475D02*
X1143000Y625475D01*
X1117600Y650875D01*
X1117600Y787400D01*
X1155700Y787400D01*
X1244600Y787400D01*
X1282700Y508000D02*
X1320800Y469900D01*
X1282700Y508000D02*
X1193800Y508000D01*
X1311275Y428625D02*
X1320800Y419100D01*
X1311275Y428625D02*
X1282700Y428625D01*
X1250950Y460375D01*
X1216025Y460375D01*
X1193800Y482600D01*
X1304925Y384175D02*
X1320800Y368300D01*
X1304925Y384175D02*
X1212850Y384175D01*
X1206500Y390525D01*
X1158875Y390525D01*
X1155700Y393700D01*
X1155700Y419100D02*
X1158875Y422275D01*
X1184275Y422275D01*
X1193800Y431800D01*
X1320800Y317500D02*
X1343025Y339725D01*
X1343025Y409575D01*
X1276350Y409575D01*
X1254125Y431800D01*
X1193800Y431800D01*
X1209675Y419100D02*
X1244600Y419100D01*
D16*
X1209675Y419100D03*
D15*
X1158875Y492125D02*
X1155700Y495300D01*
X1158875Y492125D02*
X1222375Y492125D01*
X1244600Y469900D01*
X1244600Y520700D02*
X1155700Y520700D01*
X1282700Y241300D02*
X1320800Y203200D01*
X1282700Y241300D02*
X1193800Y241300D01*
X1133475Y123825D02*
X1155700Y101600D01*
X1133475Y123825D02*
X1133475Y212725D01*
X1190625Y212725D01*
X1260475Y212725D02*
X1320800Y152400D01*
X1260475Y212725D02*
X1190625Y212725D01*
X1193800Y215900D01*
X1139825Y142875D02*
X1155700Y127000D01*
X1139825Y142875D02*
X1139825Y190500D01*
X1193800Y190500D01*
X1273175Y149225D02*
X1320800Y101600D01*
X1273175Y149225D02*
X1273175Y190500D01*
X1193800Y190500D01*
X1168400Y165100D02*
X1155700Y152400D01*
X1168400Y165100D02*
X1193800Y165100D01*
X1266825Y104775D02*
X1320800Y50800D01*
X1266825Y104775D02*
X1266825Y165100D01*
X1193800Y165100D01*
X1241425Y104775D02*
X1244600Y101600D01*
X1241425Y104775D02*
X1181100Y104775D01*
X1177925Y107950D01*
X1177925Y139700D01*
X1193800Y139700D01*
X1193800Y114300D02*
X1231900Y152400D01*
X1244600Y152400D01*
X1244600Y254000D02*
X1155700Y254000D01*
X1511300Y876300D02*
X1482725Y904875D01*
X1482725Y1041400D01*
X1549400Y1041400D01*
X1638300Y1041400D02*
X1676400Y1003300D01*
X1638300Y1041400D02*
X1549400Y1041400D01*
X1612900Y1016000D02*
X1676400Y952500D01*
X1612900Y1016000D02*
X1549400Y1016000D01*
X1495425Y942975D02*
X1511300Y927100D01*
X1495425Y942975D02*
X1495425Y990600D01*
X1549400Y990600D01*
X1660525Y917575D02*
X1676400Y901700D01*
X1660525Y917575D02*
X1568450Y917575D01*
X1558925Y927100D01*
X1511300Y927100D01*
X1511300Y952500D02*
X1524000Y965200D01*
X1549400Y965200D01*
X1676400Y850900D02*
X1692275Y866775D01*
X1692275Y942975D01*
X1571625Y942975D01*
X1549400Y965200D01*
X1546225Y917575D02*
X1549400Y914400D01*
X1546225Y917575D02*
X1498600Y917575D01*
X1489075Y927100D01*
X1489075Y1003300D01*
X1511300Y1003300D01*
X1565275Y987425D02*
X1600200Y952500D01*
X1565275Y987425D02*
X1565275Y1003300D01*
X1511300Y1003300D01*
X1638300Y774700D02*
X1676400Y736600D01*
X1638300Y774700D02*
X1549400Y774700D01*
X1635125Y727075D02*
X1676400Y685800D01*
X1635125Y727075D02*
X1584325Y727075D01*
X1562100Y749300D01*
X1549400Y749300D01*
X1495425Y676275D02*
X1511300Y660400D01*
X1495425Y676275D02*
X1495425Y723900D01*
X1549400Y723900D01*
X1641475Y669925D02*
X1676400Y635000D01*
X1641475Y669925D02*
X1568450Y669925D01*
X1558925Y660400D01*
X1511300Y660400D01*
X1511300Y685800D02*
X1524000Y698500D01*
X1549400Y698500D01*
X1676400Y584200D02*
X1698625Y606425D01*
X1698625Y676275D01*
X1571625Y676275D01*
X1549400Y698500D01*
X1546225Y650875D02*
X1549400Y647700D01*
X1546225Y650875D02*
X1498600Y650875D01*
X1489075Y660400D01*
X1489075Y736600D01*
X1511300Y736600D01*
X1565275Y720725D02*
X1600200Y685800D01*
X1565275Y720725D02*
X1565275Y736600D01*
X1511300Y736600D01*
X1514475Y758825D02*
X1511300Y762000D01*
X1514475Y758825D02*
X1577975Y758825D01*
X1600200Y736600D01*
X1638300Y508000D02*
X1676400Y469900D01*
X1638300Y508000D02*
X1549400Y508000D01*
X1495425Y384175D02*
X1511300Y368300D01*
X1495425Y384175D02*
X1495425Y479425D01*
X1546225Y479425D01*
X1616075Y479425D02*
X1676400Y419100D01*
X1616075Y479425D02*
X1546225Y479425D01*
X1549400Y482600D01*
X1660525Y384175D02*
X1676400Y368300D01*
X1660525Y384175D02*
X1568450Y384175D01*
X1558925Y393700D01*
X1511300Y393700D01*
X1511300Y419100D02*
X1524000Y431800D01*
X1549400Y431800D01*
X1676400Y317500D02*
X1692275Y333375D01*
X1692275Y409575D01*
X1571625Y409575D01*
X1549400Y431800D01*
X1571625Y447675D02*
X1600200Y419100D01*
X1571625Y447675D02*
X1533525Y447675D01*
X1511300Y469900D01*
X1511300Y520700D02*
X1600200Y520700D01*
X1676400Y203200D02*
X1660525Y187325D01*
X1660525Y142875D01*
X1689100Y142875D01*
X1698625Y152400D01*
X1698625Y244475D01*
X1552575Y244475D01*
X1549400Y241300D01*
X1676400Y152400D02*
X1692275Y168275D01*
X1692275Y215900D01*
X1549400Y215900D01*
X1495425Y142875D02*
X1511300Y127000D01*
X1495425Y142875D02*
X1495425Y190500D01*
X1549400Y190500D01*
X1622425Y155575D02*
X1676400Y101600D01*
X1622425Y155575D02*
X1622425Y190500D01*
X1549400Y190500D01*
X1524000Y165100D02*
X1511300Y152400D01*
X1524000Y165100D02*
X1549400Y165100D01*
X1616075Y111125D02*
X1676400Y50800D01*
X1616075Y111125D02*
X1616075Y165100D01*
X1549400Y165100D01*
X1597025Y104775D02*
X1600200Y101600D01*
X1597025Y104775D02*
X1536700Y104775D01*
X1533525Y107950D01*
X1533525Y139700D01*
X1549400Y139700D01*
X1549400Y114300D02*
X1587500Y152400D01*
X1600200Y152400D01*
X1536700Y203200D02*
X1511300Y228600D01*
X1536700Y203200D02*
X1600200Y203200D01*
X355600Y968375D02*
X282575Y895350D01*
X355600Y968375D02*
X381000Y968375D01*
X415925Y1003300D01*
X415925Y1079500D01*
X533400Y1079500D01*
D16*
X282575Y895350D03*
D15*
X346075Y777875D02*
X266700Y698500D01*
X346075Y777875D02*
X412750Y777875D01*
X447675Y812800D01*
X533400Y812800D01*
X609600Y787400D02*
X625475Y771525D01*
X625475Y727075D01*
X565150Y727075D01*
X539750Y752475D01*
X517525Y752475D01*
X504825Y765175D01*
X463550Y765175D01*
X450850Y777875D01*
X412750Y777875D01*
X269875Y676275D02*
X266700Y673100D01*
X269875Y676275D02*
X381000Y676275D01*
X393700Y546100D02*
X533400Y546100D01*
X587375Y546100D02*
X593725Y539750D01*
X587375Y546100D02*
X533400Y546100D01*
D16*
X381000Y676275D03*
X393700Y546100D03*
X593725Y539750D03*
D15*
X552450Y260350D02*
X558800Y254000D01*
X609600Y254000D01*
X273050Y641350D02*
X266700Y647700D01*
X273050Y641350D02*
X301625Y641350D01*
X330200Y298450D02*
X349250Y279400D01*
X533400Y279400D01*
D16*
X552450Y260350D03*
X301625Y641350D03*
X330200Y298450D03*
D15*
X288925Y996950D02*
X381000Y1089025D01*
X879475Y1089025D01*
X889000Y1079500D01*
D16*
X288925Y996950D03*
D15*
X320675Y650875D02*
X266700Y596900D01*
X346075Y787400D02*
X381000Y822325D01*
X879475Y822325D01*
X889000Y812800D01*
X942975Y812800D02*
X946150Y809625D01*
X942975Y812800D02*
X889000Y812800D01*
D16*
X320675Y650875D03*
X346075Y787400D03*
X946150Y809625D03*
D15*
X863600Y571500D02*
X266700Y571500D01*
X955675Y530225D02*
X965200Y520700D01*
X955675Y530225D02*
X876300Y530225D01*
D16*
X863600Y571500D03*
X876300Y530225D03*
D15*
X193675Y593725D02*
X190500Y596900D01*
X193675Y593725D02*
X231775Y593725D01*
X238125Y333375D02*
X260350Y311150D01*
X517525Y311150D01*
X533400Y295275D01*
X873125Y295275D01*
X889000Y279400D02*
X939800Y279400D01*
D16*
X231775Y593725D03*
X238125Y333375D03*
X873125Y295275D03*
X939800Y279400D03*
D15*
X244475Y984250D02*
X361950Y1101725D01*
X1222375Y1101725D01*
X1244600Y1079500D01*
D16*
X244475Y984250D03*
D15*
X336550Y527050D02*
X266700Y457200D01*
X352425Y825500D02*
X355600Y828675D01*
X1228725Y828675D01*
X1244600Y812800D01*
X1311275Y796925D02*
X1320800Y787400D01*
X1311275Y796925D02*
X1231900Y796925D01*
D16*
X336550Y527050D03*
X352425Y825500D03*
X1231900Y796925D03*
D15*
X295275Y565150D02*
X288925Y558800D01*
X295275Y565150D02*
X1225550Y565150D01*
X1244600Y546100D01*
X1311275Y530225D02*
X1320800Y520700D01*
X1311275Y530225D02*
X1231900Y530225D01*
D16*
X288925Y558800D03*
X1231900Y530225D03*
D15*
X266700Y406400D02*
X225425Y365125D01*
X177800Y365125D01*
X174625Y361950D01*
X174625Y304800D01*
X514350Y304800D01*
X530225Y288925D01*
X1235075Y288925D01*
X1244600Y279400D01*
X1311275Y263525D02*
X1320800Y254000D01*
X1311275Y263525D02*
X1260475Y263525D01*
D16*
X1260475Y263525D03*
D15*
X346075Y460375D02*
X266700Y381000D01*
X346075Y460375D02*
X381000Y460375D01*
X1651000Y1079500D02*
X1676400Y1054100D01*
X1651000Y1079500D02*
X1600200Y1079500D01*
D16*
X381000Y460375D03*
D15*
X295275Y784225D02*
X346075Y835025D01*
X1577975Y835025D01*
X1590675Y822325D02*
X1600200Y812800D01*
X1590675Y822325D02*
X1577975Y835025D01*
X1676400Y787400D02*
X1679575Y790575D01*
X1720850Y790575D01*
X1724025Y793750D01*
X1724025Y822325D01*
X1590675Y822325D01*
D16*
X295275Y784225D03*
D15*
X301625Y558800D02*
X1209675Y558800D01*
X1254125Y558800D02*
X1257300Y555625D01*
X1590675Y555625D01*
X1600200Y546100D01*
X1676400Y520700D02*
X1679575Y523875D01*
X1720850Y523875D01*
X1724025Y527050D01*
X1724025Y555625D01*
X1590675Y555625D01*
D16*
X301625Y558800D03*
X1209675Y558800D03*
X1254125Y558800D03*
D15*
X200025Y346075D02*
X190500Y355600D01*
X200025Y346075D02*
X349250Y346075D01*
X355600Y352425D01*
X463550Y352425D01*
X476250Y339725D01*
X514350Y339725D01*
X527050Y327025D01*
X577850Y327025D01*
X603250Y301625D01*
X1577975Y301625D01*
X1590675Y288925D02*
X1600200Y279400D01*
X1590675Y288925D02*
X1577975Y301625D01*
X1676400Y254000D02*
X1679575Y257175D01*
X1720850Y257175D01*
X1724025Y260350D01*
X1724025Y288925D01*
X1590675Y288925D01*
X225425Y612775D02*
X190500Y647700D01*
D16*
X225425Y612775D03*
D15*
X190500Y406400D02*
X212725Y384175D01*
D16*
X212725Y384175D03*
M02*
