M48
;GenerationSoftware,Autodesk,EAGLE,9.6.2*%
;CreationDate,2020-07-13T19:31:40Z*%
FMAT,2
ICI,OFF
METRIC,TZ,000.000
T11C0.254
T10C0.700
T9C0.800
T8C0.813
T7C0.900
T6C1.000
T5C1.016
T4C1.803
T3C2.794
T2C2.800
T1C3.050
%
G90
M71
T1
X144575Y10160
X119585Y10160
T2
X116840Y33030
X147760Y33030
X147760Y107950
X116840Y107950
T3
X2540Y12694
X2540Y101606
T4
X107569Y45720
X107569Y35560
X102870Y35560
X98171Y35560
X102870Y45720
X98171Y45720
X107569Y55880
X102870Y55880
X98171Y55880
X107569Y66040
X102870Y66040
X98171Y66040
X107569Y76200
X102870Y76200
X98171Y76200
X107569Y86360
X102870Y86360
X98171Y86360
X107569Y96520
X102870Y96520
X98171Y96520
X107569Y106680
X102870Y106680
X98171Y106680
X107569Y17145
X102870Y17145
X98171Y17145
T5
X83820Y3810
X83820Y6350
X86360Y3810
X86360Y6350
X5080Y76200
X5080Y73660
X5080Y71120
X3810Y3810
X3810Y6350
X6350Y3810
X6350Y6350
X8890Y3810
X8890Y6350
X11430Y3810
X11430Y6350
X13970Y3810
X13970Y6350
X16510Y3810
X16510Y6350
X19050Y3810
X19050Y6350
X21590Y3810
X21590Y6350
X102870Y7620
X102870Y5080
X81280Y6350
X81280Y3810
X78740Y6350
X20320Y12700
X20320Y10160
X17780Y12700
X17780Y10160
X15240Y12700
X15240Y10160
X78740Y3810
X76200Y6350
X76200Y3810
X73660Y6350
X73660Y3810
X71120Y6350
X71120Y3810
X68580Y6350
X68580Y3810
X120650Y17780
X123190Y17780
X125730Y17780
X128270Y17780
X130810Y17780
X133350Y17780
X135890Y17780
X138430Y17780
X140970Y17780
X143510Y17780
X120650Y20320
X123190Y20320
X125730Y20320
X128270Y20320
X130810Y20320
X133350Y20320
X5080Y68580
X5080Y66040
X5080Y63500
X5080Y60960
X5080Y58420
X10160Y55880
X10160Y53340
X10160Y50800
X5080Y78740
X10160Y96520
X10160Y93980
X10160Y91440
X10160Y88900
X10160Y86360
X10160Y83820
X10160Y81280
X10160Y78740
X10160Y76200
X10160Y73660
X10160Y71120
X10160Y68580
X10160Y66040
X10160Y63500
X10160Y60960
X10160Y58420
X7620Y96520
X7620Y93980
X7620Y91440
X7620Y88900
X7620Y86360
X7620Y83820
X7620Y81280
X7620Y78740
X7620Y76200
X7620Y73660
X7620Y71120
X7620Y68580
X7620Y66040
X7620Y63500
X7620Y60960
X7620Y58420
X5080Y96520
X5080Y93980
X5080Y91440
X5080Y88900
X5080Y86360
X5080Y83820
X5080Y81280
X135890Y20320
X138430Y20320
X140970Y20320
X143510Y20320
X26670Y11430
X29210Y11430
X5080Y17780
X5080Y20320
X5080Y22860
X5080Y25400
X5080Y27940
X5080Y30480
X5080Y33020
X5080Y35560
X5080Y38100
X5080Y40640
X5080Y43180
X5080Y45720
X5080Y48260
X5080Y50800
X5080Y53340
X5080Y55880
X7620Y17780
X7620Y20320
X7620Y22860
X7620Y25400
X7620Y27940
X7620Y30480
X7620Y33020
X7620Y35560
X7620Y38100
X7620Y40640
X7620Y43180
X7620Y45720
X7620Y48260
X7620Y50800
X7620Y53340
X7620Y55880
X10160Y17780
X10160Y20320
X10160Y22860
X10160Y25400
X10160Y27940
X10160Y30480
X10160Y33020
X10160Y35560
X10160Y38100
X10160Y40640
X10160Y43180
X10160Y45720
X10160Y48260
T6
X130695Y8740
X133465Y8740
X136235Y8740
X137620Y11580
X134850Y11580
X132080Y11580
X129310Y11580
X126540Y11580
X127925Y8740
T7
X70803Y20320
X70803Y22860
X70803Y17780
T8
X55880Y11430
X167640Y26670
X53340Y11430
X50800Y11430
X48260Y11430
X45720Y11430
X43180Y11430
X40640Y11430
X66040Y52070
X68580Y52070
X71120Y52070
X73660Y52070
X76200Y52070
X78740Y52070
X76200Y44450
X78740Y44450
X73660Y44450
X71120Y44450
X81280Y52070
X81280Y44450
X68580Y44450
X66040Y44450
X19050Y100330
X19050Y97790
X54610Y100330
X54610Y97790
X27940Y63500
X27940Y60960
X40640Y35560
X40640Y33020
X62230Y35560
X62230Y33020
X62230Y49530
X62230Y46990
X38100Y49530
X38100Y46990
X59690Y63500
X59690Y60960
X85090Y82550
X175260Y3810
X172720Y3810
X165100Y3810
X154940Y3810
X33020Y73660
X35560Y73660
X48260Y73660
X50800Y73660
X38100Y73660
X40640Y73660
X45720Y73660
X43180Y73660
X53340Y73660
X55880Y73660
X58420Y73660
X60960Y73660
X63500Y73660
X66040Y73660
X68580Y73660
X71120Y73660
X73660Y73660
X76200Y73660
X78740Y73660
X81280Y73660
X81280Y88900
X78740Y88900
X76200Y88900
X73660Y88900
X71120Y88900
X68580Y88900
X66040Y88900
X63500Y88900
X60960Y88900
X58420Y88900
X55880Y88900
X53340Y88900
X50800Y88900
X48260Y88900
X45720Y88900
X43180Y88900
X40640Y88900
X38100Y88900
X35560Y88900
X33020Y88900
X63500Y58420
X66040Y58420
X78740Y58420
X81280Y58420
X68580Y58420
X71120Y58420
X76200Y58420
X73660Y58420
X81280Y66040
X78740Y66040
X76200Y66040
X73660Y66040
X71120Y66040
X68580Y66040
X66040Y66040
X63500Y66040
X85090Y80010
X152400Y31750
X152400Y29210
X152400Y43180
X152400Y40640
X85090Y73660
X87630Y73660
X85090Y54610
X87630Y54610
X85090Y60960
X87630Y60960
X167640Y17780
X170180Y17780
X85090Y67310
X87630Y67310
X44450Y38100
X46990Y38100
X49530Y38100
X52070Y38100
X54610Y38100
X57150Y38100
X54610Y30480
X57150Y30480
X52070Y30480
X49530Y30480
X59690Y38100
X59690Y30480
X46990Y30480
X44450Y30480
X66040Y38100
X68580Y38100
X71120Y38100
X73660Y38100
X76200Y38100
X78740Y38100
X76200Y30480
X78740Y30480
X22860Y95250
X25400Y95250
X38100Y95250
X40640Y95250
X27940Y95250
X30480Y95250
X35560Y95250
X33020Y95250
X43180Y95250
X45720Y95250
X45720Y102870
X43180Y102870
X40640Y102870
X38100Y102870
X35560Y102870
X33020Y102870
X30480Y102870
X27940Y102870
X25400Y102870
X22860Y102870
X163830Y17780
X153670Y17780
X167640Y54610
X170180Y54610
X167640Y62230
X170180Y62230
X167640Y69850
X170180Y69850
X167640Y77470
X170180Y77470
X167640Y86360
X170180Y86360
X167640Y93980
X170180Y93980
X167640Y101600
X170180Y101600
X167640Y109220
X170180Y109220
X163830Y54610
X153670Y54610
X163830Y62230
X153670Y62230
X163830Y69850
X153670Y69850
X163830Y77470
X153670Y77470
X163830Y86360
X153670Y86360
X163830Y93980
X153670Y93980
X163830Y101600
X153670Y101600
X163830Y109220
X153670Y109220
X33020Y58420
X35560Y58420
X48260Y58420
X50800Y58420
X38100Y58420
X40640Y58420
X45720Y58420
X43180Y58420
X53340Y58420
X55880Y58420
X55880Y66040
X53340Y66040
X50800Y66040
X48260Y66040
X45720Y66040
X43180Y66040
X40640Y66040
X38100Y66040
X35560Y66040
X33020Y66040
X172720Y34290
X170180Y34290
X167640Y34290
X165100Y34290
X162560Y34290
X157480Y34290
X157480Y26670
X162560Y26670
X73660Y30480
X170180Y26670
X172720Y26670
X172720Y45720
X170180Y45720
X167640Y45720
X165100Y45720
X162560Y45720
X157480Y45720
X157480Y38100
X162560Y38100
X167640Y38100
X170180Y38100
X172720Y38100
X40640Y44450
X43180Y44450
X55880Y44450
X58420Y44450
X45720Y44450
X48260Y44450
X53340Y44450
X50800Y44450
X58420Y52070
X55880Y52070
X53340Y52070
X50800Y52070
X48260Y52070
X45720Y52070
X43180Y52070
X40640Y52070
X71120Y30480
X81280Y38100
X81280Y30480
X68580Y30480
X66040Y30480
X58420Y102870
X73660Y102870
X76200Y102870
X78740Y102870
X81280Y102870
X60960Y102870
X63500Y102870
X66040Y102870
X68580Y102870
X71120Y102870
X81280Y95250
X78740Y95250
X68580Y95250
X71120Y95250
X66040Y95250
X63500Y95250
X76200Y95250
X73660Y95250
X60960Y95250
X58420Y95250
T9
X147760Y77090
X147760Y74550
X147760Y72010
X147760Y69470
X147760Y66930
X147760Y64390
X147760Y79630
X147760Y82170
X147760Y84710
X147760Y87250
X147760Y89790
X147760Y92330
X147760Y94870
X147760Y97410
X147760Y99950
X147760Y102490
T10
X17780Y77470
X25400Y77470
X25400Y85090
X17780Y85090
T11
X39053Y106997
X81915Y106997
X99060Y100647
X136208Y70168
X156845Y44132
X149860Y63182
X159385Y53657
X150495Y62547
X57150Y71438
X133350Y71438
X152083Y52705
X66993Y28257
X57150Y62230
X162878Y53022
X34608Y55562
X34290Y23812
X168910Y47942
X49847Y83185
X92392Y96520
X97790Y101917
X59372Y99695
X88582Y92075
X81915Y105092
X47942Y105092
X97790Y90805
X59372Y101600
X76835Y107632
X40640Y107632
X65087Y46355
X99060Y28257
X23812Y27622
X25400Y86360
X12065Y75883
X66993Y75565
X14922Y21590
X21907Y21590
X24447Y80010
X27305Y80010
X69533Y80010
X82868Y47307
X71438Y49530
X18733Y16828
X36830Y44132
X36830Y38100
X36830Y40640
X24447Y79058
X27305Y79058
X68898Y78423
X62547Y75565
X74295Y104457
X33020Y80645
X74613Y91757
X75565Y87313
X145415Y84455
X39688Y70168
X33655Y20955
X154305Y35878
X137160Y35878
X61912Y34290
X60325Y36195
X38418Y9208
X42863Y42228
X36830Y16192
X35560Y4445
X34925Y5715
X8255Y1905
X31115Y1905
X32385Y25082
X40005Y53657
X39053Y86995
X39053Y90170
X13970Y71438
X40958Y70168
X71755Y93662
X74613Y100012
X132715Y90170
X44767Y76835
X44767Y92392
X56832Y105727
X113347Y105727
X119062Y105727
X45085Y64452
X41910Y88265
X45085Y61277
X73660Y110172
X122237Y110172
X28892Y90805
X32385Y87313
X62230Y106362
X23812Y13970
X36195Y13970
X59690Y47942
X85725Y39688
X17780Y5715
X62547Y59690
X80328Y56197
X23495Y7620
X26035Y38735
X54927Y28257
X21907Y28257
X21907Y88265
X23177Y38735
X49847Y33655
X51117Y83503
X69533Y80963
X75248Y53975
X84455Y10160
X33020Y12700
X52387Y62865
X56832Y6350
X108585Y32385
X60007Y90170
X69215Y90487
X149543Y100330
X73025Y101282
X66993Y93027
X76200Y93027
X66358Y92392
X164783Y50165
X71120Y110807
X124142Y110807
X158433Y20638
X73978Y49530
X82868Y49212
X64452Y53657
X151765Y53975
X126365Y26035
X60325Y33655
X29210Y78423
X68898Y77470
X57785Y68263
X55880Y71438
X72708Y70803
X67628Y49530
X112395Y40323
X72708Y26670
X31115Y86360
X83503Y56832
X83503Y60007
X68898Y61277
X63817Y62230
X33973Y64452
M30