G04 EAGLE Gerber RS-274X export*
G75*
%MOMM*%
%FSLAX34Y34*%
%LPD*%
%IN*%
%IPPOS*%
%AMOC8*
5,1,8,0,0,1.08239X$1,22.5*%
G01*
%ADD10C,0.254000*%


D10*
X0Y0D02*
X1777800Y0D01*
X1777800Y1139700D01*
X0Y1139700D01*
X0Y0D01*
X11430Y1016563D02*
X11501Y1017558D01*
X11643Y1018546D01*
X11855Y1019521D01*
X12136Y1020479D01*
X12485Y1021414D01*
X12900Y1022321D01*
X13378Y1023197D01*
X13917Y1024037D01*
X14515Y1024835D01*
X15169Y1025589D01*
X15875Y1026295D01*
X16629Y1026949D01*
X17428Y1027547D01*
X18267Y1028086D01*
X19143Y1028564D01*
X20051Y1028979D01*
X20985Y1029328D01*
X21943Y1029609D01*
X22918Y1029821D01*
X23906Y1029963D01*
X24901Y1030034D01*
X25899Y1030034D01*
X26894Y1029963D01*
X27882Y1029821D01*
X28857Y1029609D01*
X29815Y1029328D01*
X30750Y1028979D01*
X31657Y1028564D01*
X32533Y1028086D01*
X33373Y1027547D01*
X34171Y1026949D01*
X34925Y1026295D01*
X35631Y1025589D01*
X36285Y1024835D01*
X36883Y1024037D01*
X37422Y1023197D01*
X37900Y1022321D01*
X38315Y1021414D01*
X38664Y1020479D01*
X38945Y1019521D01*
X39157Y1018546D01*
X39299Y1017558D01*
X39370Y1016563D01*
X39370Y1015565D01*
X39299Y1014570D01*
X39157Y1013582D01*
X38945Y1012607D01*
X38664Y1011649D01*
X38315Y1010715D01*
X37900Y1009807D01*
X37422Y1008931D01*
X36883Y1008092D01*
X36285Y1007293D01*
X35631Y1006539D01*
X34925Y1005833D01*
X34171Y1005179D01*
X33373Y1004581D01*
X32533Y1004042D01*
X31657Y1003564D01*
X30750Y1003149D01*
X29815Y1002800D01*
X28857Y1002519D01*
X27882Y1002307D01*
X26894Y1002165D01*
X25899Y1002094D01*
X24901Y1002094D01*
X23906Y1002165D01*
X22918Y1002307D01*
X21943Y1002519D01*
X20985Y1002800D01*
X20051Y1003149D01*
X19143Y1003564D01*
X18267Y1004042D01*
X17428Y1004581D01*
X16629Y1005179D01*
X15875Y1005833D01*
X15169Y1006539D01*
X14515Y1007293D01*
X13917Y1008092D01*
X13378Y1008931D01*
X12900Y1009807D01*
X12485Y1010715D01*
X12136Y1011649D01*
X11855Y1012607D01*
X11643Y1013582D01*
X11501Y1014570D01*
X11430Y1015565D01*
X11430Y1016563D01*
X11430Y127435D02*
X11501Y128430D01*
X11643Y129418D01*
X11855Y130393D01*
X12136Y131351D01*
X12485Y132286D01*
X12900Y133193D01*
X13378Y134069D01*
X13917Y134909D01*
X14515Y135707D01*
X15169Y136461D01*
X15875Y137167D01*
X16629Y137821D01*
X17428Y138419D01*
X18267Y138958D01*
X19143Y139436D01*
X20051Y139851D01*
X20985Y140200D01*
X21943Y140481D01*
X22918Y140693D01*
X23906Y140835D01*
X24901Y140906D01*
X25899Y140906D01*
X26894Y140835D01*
X27882Y140693D01*
X28857Y140481D01*
X29815Y140200D01*
X30750Y139851D01*
X31657Y139436D01*
X32533Y138958D01*
X33373Y138419D01*
X34171Y137821D01*
X34925Y137167D01*
X35631Y136461D01*
X36285Y135707D01*
X36883Y134909D01*
X37422Y134069D01*
X37900Y133193D01*
X38315Y132286D01*
X38664Y131351D01*
X38945Y130393D01*
X39157Y129418D01*
X39299Y128430D01*
X39370Y127435D01*
X39370Y126437D01*
X39299Y125442D01*
X39157Y124454D01*
X38945Y123479D01*
X38664Y122521D01*
X38315Y121587D01*
X37900Y120679D01*
X37422Y119803D01*
X36883Y118964D01*
X36285Y118165D01*
X35631Y117411D01*
X34925Y116705D01*
X34171Y116051D01*
X33373Y115453D01*
X32533Y114914D01*
X31657Y114436D01*
X30750Y114021D01*
X29815Y113672D01*
X28857Y113391D01*
X27882Y113179D01*
X26894Y113037D01*
X25899Y112966D01*
X24901Y112966D01*
X23906Y113037D01*
X22918Y113179D01*
X21943Y113391D01*
X20985Y113672D01*
X20051Y114021D01*
X19143Y114436D01*
X18267Y114914D01*
X17428Y115453D01*
X16629Y116051D01*
X15875Y116705D01*
X15169Y117411D01*
X14515Y118165D01*
X13917Y118964D01*
X13378Y119803D01*
X12900Y120679D01*
X12485Y121587D01*
X12136Y122521D01*
X11855Y123479D01*
X11643Y124454D01*
X11501Y125442D01*
X11430Y126437D01*
X11430Y127435D01*
X1167900Y1065500D02*
X1166903Y1065571D01*
X1165913Y1065714D01*
X1164936Y1065926D01*
X1163976Y1066208D01*
X1163039Y1066557D01*
X1162129Y1066973D01*
X1161252Y1067452D01*
X1160410Y1067993D01*
X1159610Y1068592D01*
X1158854Y1069247D01*
X1158147Y1069954D01*
X1157492Y1070710D01*
X1156893Y1071510D01*
X1156352Y1072352D01*
X1155873Y1073229D01*
X1155457Y1074139D01*
X1155108Y1075076D01*
X1154826Y1076036D01*
X1154614Y1077013D01*
X1154471Y1078003D01*
X1154400Y1079000D01*
X1154400Y1080000D01*
X1154471Y1080998D01*
X1154614Y1081987D01*
X1154826Y1082965D01*
X1155108Y1083924D01*
X1155457Y1084861D01*
X1155873Y1085771D01*
X1156352Y1086648D01*
X1156893Y1087490D01*
X1157492Y1088290D01*
X1158147Y1089046D01*
X1158854Y1089753D01*
X1159610Y1090408D01*
X1160410Y1091007D01*
X1161252Y1091548D01*
X1162129Y1092027D01*
X1163039Y1092443D01*
X1163976Y1092792D01*
X1164936Y1093074D01*
X1165913Y1093286D01*
X1166903Y1093429D01*
X1167900Y1093500D01*
X1168900Y1093500D01*
X1169898Y1093429D01*
X1170887Y1093286D01*
X1171865Y1093074D01*
X1172824Y1092792D01*
X1173761Y1092443D01*
X1174671Y1092027D01*
X1175548Y1091548D01*
X1176390Y1091007D01*
X1177190Y1090408D01*
X1177946Y1089753D01*
X1178653Y1089046D01*
X1179308Y1088290D01*
X1179907Y1087490D01*
X1180448Y1086648D01*
X1180927Y1085771D01*
X1181343Y1084861D01*
X1181692Y1083924D01*
X1181974Y1082965D01*
X1182186Y1081987D01*
X1182329Y1080998D01*
X1182400Y1080000D01*
X1182400Y1079000D01*
X1182329Y1078003D01*
X1182186Y1077013D01*
X1181974Y1076036D01*
X1181692Y1075076D01*
X1181343Y1074139D01*
X1180927Y1073229D01*
X1180448Y1072352D01*
X1179907Y1071510D01*
X1179308Y1070710D01*
X1178653Y1069954D01*
X1177946Y1069247D01*
X1177190Y1068592D01*
X1176390Y1067993D01*
X1175548Y1067452D01*
X1174671Y1066973D01*
X1173761Y1066557D01*
X1172824Y1066208D01*
X1171865Y1065926D01*
X1170887Y1065714D01*
X1169898Y1065571D01*
X1168900Y1065500D01*
X1167900Y1065500D01*
X1477100Y1065500D02*
X1476103Y1065571D01*
X1475113Y1065714D01*
X1474136Y1065926D01*
X1473176Y1066208D01*
X1472239Y1066557D01*
X1471329Y1066973D01*
X1470452Y1067452D01*
X1469610Y1067993D01*
X1468810Y1068592D01*
X1468054Y1069247D01*
X1467347Y1069954D01*
X1466692Y1070710D01*
X1466093Y1071510D01*
X1465552Y1072352D01*
X1465073Y1073229D01*
X1464657Y1074139D01*
X1464308Y1075076D01*
X1464026Y1076036D01*
X1463814Y1077013D01*
X1463671Y1078003D01*
X1463600Y1079000D01*
X1463600Y1080000D01*
X1463671Y1080998D01*
X1463814Y1081987D01*
X1464026Y1082965D01*
X1464308Y1083924D01*
X1464657Y1084861D01*
X1465073Y1085771D01*
X1465552Y1086648D01*
X1466093Y1087490D01*
X1466692Y1088290D01*
X1467347Y1089046D01*
X1468054Y1089753D01*
X1468810Y1090408D01*
X1469610Y1091007D01*
X1470452Y1091548D01*
X1471329Y1092027D01*
X1472239Y1092443D01*
X1473176Y1092792D01*
X1474136Y1093074D01*
X1475113Y1093286D01*
X1476103Y1093429D01*
X1477100Y1093500D01*
X1478100Y1093500D01*
X1479098Y1093429D01*
X1480087Y1093286D01*
X1481065Y1093074D01*
X1482024Y1092792D01*
X1482961Y1092443D01*
X1483871Y1092027D01*
X1484748Y1091548D01*
X1485590Y1091007D01*
X1486390Y1090408D01*
X1487146Y1089753D01*
X1487853Y1089046D01*
X1488508Y1088290D01*
X1489107Y1087490D01*
X1489648Y1086648D01*
X1490127Y1085771D01*
X1490543Y1084861D01*
X1490892Y1083924D01*
X1491174Y1082965D01*
X1491386Y1081987D01*
X1491529Y1080998D01*
X1491600Y1080000D01*
X1491600Y1079000D01*
X1491529Y1078003D01*
X1491386Y1077013D01*
X1491174Y1076036D01*
X1490892Y1075076D01*
X1490543Y1074139D01*
X1490127Y1073229D01*
X1489648Y1072352D01*
X1489107Y1071510D01*
X1488508Y1070710D01*
X1487853Y1069954D01*
X1487146Y1069247D01*
X1486390Y1068592D01*
X1485590Y1067993D01*
X1484748Y1067452D01*
X1483871Y1066973D01*
X1482961Y1066557D01*
X1482024Y1066208D01*
X1481065Y1065926D01*
X1480087Y1065714D01*
X1479098Y1065571D01*
X1478100Y1065500D01*
X1477100Y1065500D01*
X1477100Y316300D02*
X1476103Y316371D01*
X1475113Y316514D01*
X1474136Y316726D01*
X1473176Y317008D01*
X1472239Y317357D01*
X1471329Y317773D01*
X1470452Y318252D01*
X1469610Y318793D01*
X1468810Y319392D01*
X1468054Y320047D01*
X1467347Y320754D01*
X1466692Y321510D01*
X1466093Y322310D01*
X1465552Y323152D01*
X1465073Y324029D01*
X1464657Y324939D01*
X1464308Y325876D01*
X1464026Y326836D01*
X1463814Y327813D01*
X1463671Y328803D01*
X1463600Y329800D01*
X1463600Y330800D01*
X1463671Y331798D01*
X1463814Y332787D01*
X1464026Y333765D01*
X1464308Y334724D01*
X1464657Y335661D01*
X1465073Y336571D01*
X1465552Y337448D01*
X1466093Y338290D01*
X1466692Y339090D01*
X1467347Y339846D01*
X1468054Y340553D01*
X1468810Y341208D01*
X1469610Y341807D01*
X1470452Y342348D01*
X1471329Y342827D01*
X1472239Y343243D01*
X1473176Y343592D01*
X1474136Y343874D01*
X1475113Y344086D01*
X1476103Y344229D01*
X1477100Y344300D01*
X1478100Y344300D01*
X1479098Y344229D01*
X1480087Y344086D01*
X1481065Y343874D01*
X1482024Y343592D01*
X1482961Y343243D01*
X1483871Y342827D01*
X1484748Y342348D01*
X1485590Y341807D01*
X1486390Y341208D01*
X1487146Y340553D01*
X1487853Y339846D01*
X1488508Y339090D01*
X1489107Y338290D01*
X1489648Y337448D01*
X1490127Y336571D01*
X1490543Y335661D01*
X1490892Y334724D01*
X1491174Y333765D01*
X1491386Y332787D01*
X1491529Y331798D01*
X1491600Y330800D01*
X1491600Y329800D01*
X1491529Y328803D01*
X1491386Y327813D01*
X1491174Y326836D01*
X1490892Y325876D01*
X1490543Y324939D01*
X1490127Y324029D01*
X1489648Y323152D01*
X1489107Y322310D01*
X1488508Y321510D01*
X1487853Y320754D01*
X1487146Y320047D01*
X1486390Y319392D01*
X1485590Y318793D01*
X1484748Y318252D01*
X1483871Y317773D01*
X1482961Y317357D01*
X1482024Y317008D01*
X1481065Y316726D01*
X1480087Y316514D01*
X1479098Y316371D01*
X1478100Y316300D01*
X1477100Y316300D01*
X1167900Y316300D02*
X1166903Y316371D01*
X1165913Y316514D01*
X1164936Y316726D01*
X1163976Y317008D01*
X1163039Y317357D01*
X1162129Y317773D01*
X1161252Y318252D01*
X1160410Y318793D01*
X1159610Y319392D01*
X1158854Y320047D01*
X1158147Y320754D01*
X1157492Y321510D01*
X1156893Y322310D01*
X1156352Y323152D01*
X1155873Y324029D01*
X1155457Y324939D01*
X1155108Y325876D01*
X1154826Y326836D01*
X1154614Y327813D01*
X1154471Y328803D01*
X1154400Y329800D01*
X1154400Y330800D01*
X1154471Y331798D01*
X1154614Y332787D01*
X1154826Y333765D01*
X1155108Y334724D01*
X1155457Y335661D01*
X1155873Y336571D01*
X1156352Y337448D01*
X1156893Y338290D01*
X1157492Y339090D01*
X1158147Y339846D01*
X1158854Y340553D01*
X1159610Y341208D01*
X1160410Y341807D01*
X1161252Y342348D01*
X1162129Y342827D01*
X1163039Y343243D01*
X1163976Y343592D01*
X1164936Y343874D01*
X1165913Y344086D01*
X1166903Y344229D01*
X1167900Y344300D01*
X1168900Y344300D01*
X1169898Y344229D01*
X1170887Y344086D01*
X1171865Y343874D01*
X1172824Y343592D01*
X1173761Y343243D01*
X1174671Y342827D01*
X1175548Y342348D01*
X1176390Y341807D01*
X1177190Y341208D01*
X1177946Y340553D01*
X1178653Y339846D01*
X1179308Y339090D01*
X1179907Y338290D01*
X1180448Y337448D01*
X1180927Y336571D01*
X1181343Y335661D01*
X1181692Y334724D01*
X1181974Y333765D01*
X1182186Y332787D01*
X1182329Y331798D01*
X1182400Y330800D01*
X1182400Y329800D01*
X1182329Y328803D01*
X1182186Y327813D01*
X1181974Y326836D01*
X1181692Y325876D01*
X1181343Y324939D01*
X1180927Y324029D01*
X1180448Y323152D01*
X1179907Y322310D01*
X1179308Y321510D01*
X1178653Y320754D01*
X1177946Y320047D01*
X1177190Y319392D01*
X1176390Y318793D01*
X1175548Y318252D01*
X1174671Y317773D01*
X1173761Y317357D01*
X1172824Y317008D01*
X1171865Y316726D01*
X1170887Y316514D01*
X1169898Y316371D01*
X1168900Y316300D01*
X1167900Y316300D01*
M02*
