M48
;GenerationSoftware,Autodesk,EAGLE,9.6.2*%
;CreationDate,2020-07-08T14:40:04Z*%
FMAT,2
ICI,OFF
METRIC,TZ,000.000
T4C0.254
T3C0.813
T2C1.016
T1C2.794
%
G90
M71
T1
X2540Y101606
X2540Y12694
T2
X10160Y6350
X10160Y96520
X10160Y93980
X10160Y91440
X10160Y88900
X10160Y86360
X10160Y83820
X10160Y81280
X10160Y78740
X10160Y76200
X10160Y73660
X10160Y71120
X10160Y68580
X10160Y66040
X10160Y63500
X10160Y60960
X10160Y58420
X7620Y96520
X7620Y93980
X7620Y91440
X7620Y88900
X7620Y86360
X7620Y83820
X7620Y81280
X7620Y78740
X7620Y76200
X7620Y73660
X7620Y71120
X7620Y68580
X7620Y66040
X7620Y63500
X7620Y60960
X7620Y58420
X5080Y96520
X5080Y93980
X5080Y91440
X5080Y88900
X5080Y86360
X5080Y83820
X5080Y81280
X5080Y78740
X5080Y76200
X5080Y73660
X5080Y71120
X5080Y68580
X5080Y66040
X5080Y63500
X5080Y60960
X5080Y58420
X10160Y55880
X10160Y53340
X10160Y50800
X10160Y48260
X15240Y6350
X10160Y43180
X10160Y40640
X10160Y38100
X10160Y35560
X10160Y33020
X10160Y30480
X10160Y27940
X10160Y25400
X10160Y22860
X10160Y20320
X10160Y17780
X7620Y55880
X7620Y53340
X7620Y50800
X7620Y48260
X7620Y45720
X7620Y43180
X7620Y40640
X7620Y38100
X7620Y35560
X7620Y33020
X7620Y30480
X7620Y27940
X7620Y25400
X7620Y22860
X7620Y20320
X7620Y17780
X5080Y55880
X5080Y53340
X5080Y50800
X5080Y48260
X5080Y45720
X5080Y43180
X5080Y40640
X5080Y38100
X5080Y35560
X5080Y33020
X5080Y30480
X5080Y27940
X5080Y25400
X5080Y22860
X5080Y20320
X5080Y17780
X173990Y53340
X173990Y55880
X173990Y58420
X173990Y60960
X173990Y63500
X171450Y53340
X171450Y55880
X171450Y58420
X171450Y60960
X171450Y63500
X12700Y6350
X10160Y45720
T3
X34290Y85090
X129540Y46990
X165100Y3810
X154940Y3810
X172720Y3810
X175260Y3810
X48260Y64770
X48260Y62230
X48260Y77470
X48260Y74930
X146050Y54610
X148590Y54610
X151130Y54610
X153670Y54610
X156210Y54610
X158750Y54610
X161290Y54610
X163830Y54610
X156210Y46990
X158750Y46990
X153670Y46990
X151130Y46990
X163830Y46990
X161290Y46990
X148590Y46990
X146050Y46990
X116840Y16510
X119380Y16510
X121920Y16510
X124460Y16510
X127000Y16510
X129540Y16510
X127000Y8890
X129540Y8890
X124460Y8890
X121920Y8890
X132080Y16510
X132080Y8890
X119380Y8890
X116840Y8890
X116840Y41910
X119380Y41910
X121920Y41910
X124460Y41910
X127000Y41910
X129540Y41910
X127000Y34290
X129540Y34290
X124460Y34290
X121920Y34290
X132080Y41910
X132080Y34290
X119380Y34290
X116840Y34290
X148590Y41910
X151130Y41910
X153670Y41910
X156210Y41910
X158750Y41910
X161290Y41910
X158750Y34290
X161290Y34290
X156210Y34290
X153670Y34290
X163830Y41910
X163830Y34290
X151130Y34290
X148590Y34290
X148590Y29210
X151130Y29210
X153670Y29210
X156210Y29210
X158750Y29210
X161290Y29210
X158750Y21590
X161290Y21590
X156210Y21590
X153670Y21590
X163830Y29210
X163830Y21590
X151130Y21590
X148590Y21590
X90170Y105410
X92710Y105410
X95250Y105410
X97790Y105410
X100330Y105410
X102870Y105410
X100330Y97790
X102870Y97790
X97790Y97790
X95250Y97790
X105410Y105410
X105410Y97790
X92710Y97790
X90170Y97790
X90170Y54610
X92710Y54610
X95250Y54610
X97790Y54610
X100330Y54610
X102870Y54610
X100330Y46990
X102870Y46990
X97790Y46990
X95250Y46990
X105410Y54610
X105410Y46990
X92710Y46990
X90170Y46990
X90170Y67310
X92710Y67310
X95250Y67310
X97790Y67310
X100330Y67310
X102870Y67310
X100330Y59690
X102870Y59690
X97790Y59690
X95250Y59690
X105410Y67310
X105410Y59690
X92710Y59690
X90170Y59690
X50800Y104140
X53340Y104140
X116840Y72390
X119380Y72390
X132080Y72390
X132080Y80010
X121920Y72390
X124460Y72390
X129540Y72390
X127000Y72390
X129540Y80010
X127000Y80010
X124460Y80010
X121920Y80010
X119380Y80010
X116840Y80010
X116840Y59690
X119380Y59690
X132080Y59690
X132080Y67310
X121920Y59690
X124460Y59690
X129540Y59690
X127000Y59690
X129540Y67310
X127000Y67310
X124460Y67310
X121920Y67310
X119380Y67310
X116840Y67310
X140970Y72390
X143510Y72390
X156210Y72390
X158750Y72390
X146050Y72390
X148590Y72390
X153670Y72390
X151130Y72390
X161290Y72390
X163830Y72390
X163830Y80010
X161290Y80010
X158750Y80010
X156210Y80010
X153670Y80010
X151130Y80010
X148590Y80010
X146050Y80010
X143510Y80010
X140970Y80010
X24130Y59690
X26670Y59690
X39370Y59690
X41910Y59690
X29210Y59690
X31750Y59690
X36830Y59690
X34290Y59690
X41910Y67310
X39370Y67310
X36830Y67310
X34290Y67310
X31750Y67310
X29210Y67310
X26670Y67310
X24130Y67310
X26670Y8890
X29210Y8890
X41910Y8890
X41910Y16510
X31750Y8890
X34290Y8890
X39370Y8890
X36830Y8890
X39370Y16510
X36830Y16510
X34290Y16510
X31750Y16510
X29210Y16510
X26670Y16510
X19050Y46990
X21590Y46990
X34290Y46990
X36830Y46990
X24130Y46990
X26670Y46990
X31750Y46990
X29210Y46990
X39370Y46990
X41910Y46990
X41910Y54610
X39370Y54610
X36830Y54610
X34290Y54610
X31750Y54610
X29210Y54610
X26670Y54610
X24130Y54610
X21590Y54610
X19050Y54610
X50800Y46990
X53340Y46990
X66040Y46990
X68580Y46990
X55880Y46990
X58420Y46990
X63500Y46990
X60960Y46990
X71120Y46990
X73660Y46990
X73660Y54610
X71120Y54610
X68580Y54610
X66040Y54610
X63500Y54610
X60960Y54610
X58420Y54610
X55880Y54610
X53340Y54610
X50800Y54610
X50800Y85090
X53340Y85090
X66040Y85090
X68580Y85090
X55880Y85090
X58420Y85090
X63500Y85090
X60960Y85090
X71120Y85090
X73660Y85090
X73660Y92710
X71120Y92710
X68580Y92710
X66040Y92710
X63500Y92710
X60960Y92710
X58420Y92710
X55880Y92710
X53340Y92710
X50800Y92710
X82550Y72390
X85090Y72390
X97790Y72390
X100330Y72390
X87630Y72390
X90170Y72390
X95250Y72390
X92710Y72390
X102870Y72390
X105410Y72390
X105410Y80010
X102870Y80010
X100330Y80010
X97790Y80010
X95250Y80010
X92710Y80010
X90170Y80010
X87630Y80010
X85090Y80010
X82550Y80010
X50800Y59690
X53340Y59690
X66040Y59690
X68580Y59690
X55880Y59690
X58420Y59690
X63500Y59690
X60960Y59690
X71120Y59690
X73660Y59690
X73660Y67310
X71120Y67310
X68580Y67310
X66040Y67310
X63500Y67310
X60960Y67310
X58420Y67310
X55880Y67310
X53340Y67310
X50800Y67310
X50800Y72390
X53340Y72390
X66040Y72390
X68580Y72390
X55880Y72390
X58420Y72390
X63500Y72390
X60960Y72390
X71120Y72390
X73660Y72390
X73660Y80010
X71120Y80010
X68580Y80010
X66040Y80010
X63500Y80010
X60960Y80010
X58420Y80010
X55880Y80010
X53340Y80010
X50800Y80010
X24130Y34290
X26670Y34290
X39370Y34290
X41910Y34290
X29210Y34290
X31750Y34290
X36830Y34290
X34290Y34290
X41910Y41910
X39370Y41910
X36830Y41910
X34290Y41910
X31750Y41910
X29210Y41910
X26670Y41910
X24130Y41910
X55880Y21590
X58420Y21590
X71120Y21590
X73660Y21590
X60960Y21590
X63500Y21590
X68580Y21590
X66040Y21590
X73660Y29210
X71120Y29210
X68580Y29210
X66040Y29210
X63500Y29210
X60960Y29210
X58420Y29210
X55880Y29210
X116840Y21590
X119380Y21590
X132080Y21590
X132080Y29210
X121920Y21590
X124460Y21590
X129540Y21590
X127000Y21590
X129540Y29210
X127000Y29210
X124460Y29210
X121920Y29210
X119380Y29210
X116840Y29210
X148590Y8890
X151130Y8890
X163830Y8890
X163830Y16510
X153670Y8890
X156210Y8890
X161290Y8890
X158750Y8890
X161290Y16510
X158750Y16510
X156210Y16510
X153670Y16510
X151130Y16510
X148590Y16510
X24130Y21590
X26670Y21590
X39370Y21590
X41910Y21590
X29210Y21590
X31750Y21590
X36830Y21590
X34290Y21590
X41910Y29210
X39370Y29210
X36830Y29210
X34290Y29210
X31750Y29210
X29210Y29210
X26670Y29210
X24130Y29210
X58420Y8890
X60960Y8890
X73660Y8890
X73660Y16510
X63500Y8890
X66040Y8890
X71120Y8890
X68580Y8890
X71120Y16510
X68580Y16510
X66040Y16510
X63500Y16510
X60960Y16510
X58420Y16510
X21590Y97790
X24130Y97790
X26670Y97790
X29210Y97790
X31750Y97790
X34290Y97790
X36830Y97790
X39370Y97790
X41910Y97790
X21590Y104140
X24130Y104140
X26670Y104140
X29210Y104140
X31750Y104140
X34290Y104140
X36830Y104140
X39370Y104140
X41910Y104140
X19050Y85090
X21590Y85090
X55880Y104140
X36830Y85090
X24130Y85090
X26670Y85090
X31750Y85090
X29210Y85090
X39370Y85090
X41910Y85090
X41910Y92710
X39370Y92710
X36830Y92710
X34290Y92710
X31750Y92710
X29210Y92710
X26670Y92710
X24130Y92710
X21590Y92710
X19050Y92710
X19050Y72390
X21590Y72390
X34290Y72390
X36830Y72390
X24130Y72390
X26670Y72390
X31750Y72390
X29210Y72390
X39370Y72390
X41910Y72390
X41910Y80010
X39370Y80010
X36830Y80010
X34290Y80010
X31750Y80010
X29210Y80010
X26670Y80010
X24130Y80010
X21590Y80010
X19050Y80010
X114300Y85090
X116840Y85090
X129540Y85090
X132080Y85090
X119380Y85090
X121920Y85090
X127000Y85090
X124460Y85090
X132080Y92710
X129540Y92710
X127000Y92710
X124460Y92710
X121920Y92710
X119380Y92710
X116840Y92710
X114300Y92710
X114300Y46990
X116840Y46990
X58420Y104140
X132080Y46990
X119380Y46990
X121920Y46990
X127000Y46990
X124460Y46990
X132080Y54610
X129540Y54610
X127000Y54610
X124460Y54610
X121920Y54610
X119380Y54610
X116840Y54610
X114300Y54610
X114300Y97790
X116840Y97790
X129540Y97790
X132080Y97790
X119380Y97790
X121920Y97790
X127000Y97790
X124460Y97790
X132080Y105410
X129540Y105410
X127000Y105410
X124460Y105410
X121920Y105410
X119380Y105410
X116840Y105410
X114300Y105410
X146050Y59690
X148590Y59690
X161290Y59690
X163830Y59690
X151130Y59690
X153670Y59690
X158750Y59690
X156210Y59690
X163830Y67310
X161290Y67310
X158750Y67310
X156210Y67310
X153670Y67310
X151130Y67310
X148590Y67310
X146050Y67310
X140970Y85090
X143510Y85090
X156210Y85090
X158750Y85090
X146050Y85090
X148590Y85090
X153670Y85090
X151130Y85090
X161290Y85090
X163830Y85090
X163830Y92710
X161290Y92710
X158750Y92710
X156210Y92710
X153670Y92710
X151130Y92710
X148590Y92710
X146050Y92710
X143510Y92710
X140970Y92710
X146050Y97790
X148590Y97790
X161290Y97790
X163830Y97790
X151130Y97790
X153670Y97790
X158750Y97790
X156210Y97790
X163830Y105410
X161290Y105410
X158750Y105410
X156210Y105410
X153670Y105410
X151130Y105410
X148590Y105410
X146050Y105410
X87630Y49530
X87630Y52070
X114300Y11430
X114300Y13970
X21590Y62230
X21590Y64770
X138430Y87630
X138430Y90170
X111760Y49530
X111760Y52070
X114300Y36830
X114300Y39370
X24130Y11430
X24130Y13970
X48260Y49530
X48260Y52070
X21590Y24130
X21590Y26670
X111760Y87630
X111760Y90170
X80010Y74930
X80010Y77470
X146050Y36830
X146050Y39370
X143510Y100330
X143510Y102870
X111760Y100330
X111760Y102870
X146050Y24130
X146050Y26670
X48260Y36830
X48260Y39370
X21590Y36830
X21590Y39370
X48260Y87630
X48260Y90170
X87630Y100330
X87630Y102870
X114300Y24130
X114300Y26670
X87630Y87630
X87630Y90170
X146050Y11430
X146050Y13970
X53340Y24130
X53340Y26670
X16510Y74930
X16510Y77470
X16510Y87630
X16510Y90170
X138430Y74930
X138430Y77470
X143510Y62230
X143510Y64770
X114300Y74930
X114300Y77470
X114300Y62230
X114300Y64770
X143510Y49530
X143510Y52070
X87630Y24130
X87630Y26670
X87630Y11430
X87630Y13970
X55880Y11430
X55880Y13970
X48260Y99060
X48260Y101600
X87630Y62230
X87630Y64770
X16510Y49530
X16510Y52070
X80010Y36830
X80010Y39370
X90170Y21590
X92710Y21590
X105410Y21590
X105410Y29210
X95250Y21590
X97790Y21590
X102870Y21590
X100330Y21590
X102870Y29210
X100330Y29210
X97790Y29210
X95250Y29210
X92710Y29210
X90170Y29210
X90170Y8890
X92710Y8890
X105410Y8890
X105410Y16510
X95250Y8890
X97790Y8890
X102870Y8890
X100330Y8890
X102870Y16510
X100330Y16510
X97790Y16510
X95250Y16510
X92710Y16510
X90170Y16510
X90170Y85090
X92710Y85090
X105410Y85090
X105410Y92710
X95250Y85090
X97790Y85090
X102870Y85090
X100330Y85090
X102870Y92710
X100330Y92710
X97790Y92710
X95250Y92710
X92710Y92710
X90170Y92710
X50800Y34290
X53340Y34290
X66040Y34290
X68580Y34290
X55880Y34290
X58420Y34290
X63500Y34290
X60960Y34290
X71120Y34290
X73660Y34290
X73660Y41910
X71120Y41910
X68580Y41910
X66040Y41910
X63500Y41910
X60960Y41910
X58420Y41910
X55880Y41910
X53340Y41910
X50800Y41910
X82550Y34290
X85090Y34290
X97790Y34290
X100330Y34290
X87630Y34290
X90170Y34290
X95250Y34290
X92710Y34290
X102870Y34290
X105410Y34290
X105410Y41910
X102870Y41910
X100330Y41910
X97790Y41910
X95250Y41910
X92710Y41910
X90170Y41910
X87630Y41910
X85090Y41910
X82550Y41910
X50800Y96520
X53340Y96520
X66040Y96520
X68580Y96520
X55880Y96520
X58420Y96520
X63500Y96520
X60960Y96520
X71120Y96520
X73660Y96520
X73660Y104140
X71120Y104140
X68580Y104140
X66040Y104140
X63500Y104140
X60960Y104140
T4
X150495Y56832
X123507Y74930
X131128Y75248
X162560Y53022
X40323Y4128
X27940Y12700
X17463Y19685
X128587Y49847
X117792Y76518
X57467Y25082
X40958Y6667
X9208Y22225
X52705Y63182
X51752Y49212
X110807Y51117
X51435Y53022
X51435Y78105
X136208Y88900
X123825Y10795
X133668Y37783
X111442Y31432
X136208Y83503
X149543Y20320
X106362Y83820
X52387Y87947
X90805Y51435
X102552Y43498
X99695Y45402
X103822Y53022
X107315Y62230
X107315Y36195
X105092Y36830
X96520Y57467
X94932Y36513
X81280Y58737
X60007Y15240
X104775Y38418
X71438Y11747
X71755Y30797
X65087Y27940
X86043Y23812
X74930Y34925
X77788Y35243
X133668Y45085
X125412Y82233
X40958Y81280
X151448Y86678
X137478Y103187
X136525Y102235
X152400Y91122
X149225Y87313
X6985Y70168
X35878Y37783
X30797Y30480
X17463Y70803
X24447Y87630
X23812Y87630
X20003Y82868
X14605Y84138
X35243Y76835
X14605Y83503
X120332Y23177
X128905Y18733
X30797Y19050
X126047Y27622
X65087Y24765
X46990Y76835
X37148Y31432
X67945Y31432
X44450Y32067
X69533Y31750
X60642Y12065
X46355Y76835
X45402Y77153
X29845Y11430
X66040Y24130
X51435Y65405
X140653Y47942
X40640Y56832
X44767Y91757
X43815Y67310
X33655Y44450
X76200Y74613
X32385Y69850
X86678Y37783
X82233Y61912
X30162Y96202
X39053Y57150
X27622Y61912
X156845Y101917
X160338Y51435
X39053Y52070
X79058Y49847
X76518Y36830
X133668Y70168
X160655Y57150
X26670Y32385
X35243Y30797
X47625Y34608
X59055Y37783
X62865Y37465
X66993Y65723
X97790Y69533
X84138Y94932
X86678Y57150
X98425Y26035
X97472Y78423
X155258Y68580
X98742Y68898
X156528Y56515
X100012Y26035
X103187Y95250
X94932Y74613
X63182Y75883
X30480Y74613
X85090Y82550
X61277Y76518
X89852Y76200
X83820Y84455
X97472Y82550
X75565Y83503
X74613Y48260
X120967Y75565
X148273Y76200
X114617Y80328
X141605Y86678
X128905Y56197
X124777Y45402
X120332Y87313
X82233Y64770
X88582Y52705
X59372Y19050
X124142Y52387
X55245Y99377
X104140Y45720
X62547Y19050
X113982Y48577
X59690Y91757
X61277Y69533
X37783Y48577
X88582Y107632
X65087Y48895
X98742Y44450
X66358Y68898
X72073Y7302
X72073Y107950
X123507Y56832
X71120Y53022
X71438Y68898
X39370Y10795
X32702Y65405
X94615Y89217
X123825Y90487
X68898Y64135
X33338Y39688
X65405Y82550
X27622Y87630
X99695Y58102
X65723Y58102
X25717Y45720
X99377Y76518
X33655Y76518
X27305Y78423
X31750Y40323
X51752Y88582
X49212Y59372
X49212Y76835
X40005Y57467
X36513Y10795
X105727Y58102
X102552Y77153
X87630Y77470
X94932Y19685
X56832Y23812
X123507Y58420
X124142Y50482
X69533Y49530
X91122Y81280
X96202Y48577
X73025Y76835
X96202Y60960
X130492Y63182
X96202Y77788
X103187Y74613
X102552Y70168
X94297Y69533
X68898Y70168
X95885Y26670
X149225Y61912
X96837Y70803
X97155Y44132
X50482Y43498
X61277Y89217
X57785Y57785
X57785Y49847
X65405Y99377
X92075Y32067
X62865Y57785
X60960Y45085
X66993Y53022
X154623Y40640
X65087Y68898
X68263Y58102
X34608Y50800
X101917Y65723
X160338Y68580
X73978Y24447
X102235Y24130
X73343Y58102
X72073Y51117
X39688Y50800
X141923Y50482
X143828Y74613
X68898Y68898
X71438Y39688
X70803Y44767
X67310Y53975
X71438Y108585
X123825Y107950
X64135Y65405
X61595Y50482
X33973Y51752
X65723Y44767
X133033Y95250
X59055Y69215
X29527Y48577
X59690Y45720
X112395Y104775
X72708Y82868
X93345Y39370
X92392Y63182
X145415Y56832
X137478Y101917
X53975Y65405
X50800Y56197
M30