M48
;GenerationSoftware,Autodesk,EAGLE,9.6.2*%
;CreationDate,2020-07-20T15:31:44Z*%
FMAT,2
ICI,OFF
METRIC,TZ,000.000
T4C0.254
T3C0.813
T2C0.914
T1C2.794
%
G90
M71
T1
X102150Y11735
X12150Y11735
X218990Y11735
X128990Y11735
T2
X114300Y3810
X213360Y13970
X116840Y3810
X96520Y13970
X93980Y13970
X91440Y13970
X134620Y11430
X137160Y11430
X139700Y11430
X142240Y11430
X144780Y11430
X147320Y11430
X149860Y11430
X152400Y11430
X154940Y11430
X157480Y11430
X160020Y11430
X162560Y11430
X165100Y11430
X167640Y11430
X170180Y11430
X172720Y11430
X134620Y8890
X137160Y8890
X139700Y8890
X142240Y8890
X144780Y8890
X147320Y8890
X149860Y8890
X152400Y8890
X154940Y8890
X157480Y8890
X160020Y8890
X162560Y8890
X165100Y8890
X167640Y8890
X170180Y8890
X172720Y8890
X134620Y13970
X137160Y13970
X139700Y13970
X142240Y13970
X144780Y13970
X147320Y13970
X149860Y13970
X152400Y13970
X154940Y13970
X157480Y13970
X160020Y13970
X162560Y13970
X165100Y13970
X167640Y13970
X170180Y13970
X172720Y13970
X175260Y11430
X177800Y11430
X180340Y11430
X182880Y11430
X185420Y11430
X187960Y11430
X190500Y11430
X193040Y11430
X195580Y11430
X198120Y11430
X200660Y11430
X203200Y11430
X205740Y11430
X208280Y11430
X210820Y11430
X213360Y11430
X175260Y8890
X177800Y8890
X180340Y8890
X182880Y8890
X185420Y8890
X187960Y8890
X190500Y8890
X193040Y8890
X195580Y8890
X198120Y8890
X200660Y8890
X203200Y8890
X205740Y8890
X208280Y8890
X210820Y8890
X213360Y8890
X175260Y13970
X177800Y13970
X180340Y13970
X182880Y13970
X185420Y13970
X187960Y13970
X190500Y13970
X193040Y13970
X195580Y13970
X198120Y13970
X200660Y13970
X203200Y13970
X205740Y13970
X88900Y13970
X210820Y13970
X208280Y13970
X17780Y11430
X20320Y11430
X22860Y11430
X25400Y11430
X27940Y11430
X30480Y11430
X33020Y11430
X35560Y11430
X38100Y11430
X40640Y11430
X43180Y11430
X45720Y11430
X48260Y11430
X50800Y11430
X53340Y11430
X55880Y11430
X17780Y8890
X20320Y8890
X22860Y8890
X25400Y8890
X27940Y8890
X30480Y8890
X33020Y8890
X35560Y8890
X38100Y8890
X40640Y8890
X43180Y8890
X45720Y8890
X48260Y8890
X50800Y8890
X53340Y8890
X55880Y8890
X17780Y13970
X20320Y13970
X22860Y13970
X25400Y13970
X27940Y13970
X30480Y13970
X33020Y13970
X35560Y13970
X38100Y13970
X40640Y13970
X43180Y13970
X45720Y13970
X48260Y13970
X50800Y13970
X53340Y13970
X55880Y13970
X58420Y11430
X60960Y11430
X63500Y11430
X66040Y11430
X68580Y11430
X71120Y11430
X73660Y11430
X76200Y11430
X78740Y11430
X81280Y11430
X83820Y11430
X86360Y11430
X88900Y11430
X91440Y11430
X93980Y11430
X96520Y11430
X58420Y8890
X60960Y8890
X63500Y8890
X66040Y8890
X68580Y8890
X71120Y8890
X73660Y8890
X76200Y8890
X78740Y8890
X81280Y8890
X83820Y8890
X86360Y8890
X88900Y8890
X91440Y8890
X93980Y8890
X96520Y8890
X58420Y13970
X60960Y13970
X63500Y13970
X66040Y13970
X68580Y13970
X71120Y13970
X73660Y13970
X76200Y13970
X78740Y13970
X81280Y13970
X83820Y13970
X86360Y13970
T3
X156210Y25400
X78740Y25400
X81280Y25400
X100330Y25400
X143510Y25400
X133350Y25400
X90170Y25400
X153670Y25400
T4
X48895Y5080
X108585Y5080
X39370Y16510
X38735Y23495
X100330Y21590
X158750Y22225
X29845Y19050
X142875Y2540
X46355Y3810
X111760Y6350
X142240Y3810
X99060Y15240
X130175Y7620
X24765Y2540
X120650Y635
X125095Y5080
X139065Y3810
X94615Y23495
X19050Y20955
X75565Y88265
X81280Y88265
X135255Y24130
X203200Y1270
X174625Y6985
X175260Y3175
X222885Y5715
X178435Y96520
X51435Y84455
X43180Y26670
X40640Y20320
X127635Y27940
X112395Y16510
X156210Y30480
X39370Y34290
X25400Y27305
X58420Y40005
X184785Y28575
X173990Y93980
X58420Y85090
X58420Y32385
X171450Y41275
X111760Y97790
X195580Y15875
X195580Y48895
X127000Y55880
X109855Y22860
X179070Y24765
X114935Y24765
X189230Y6985
X219075Y6985
X113030Y88900
X62230Y18415
X179705Y90170
X52705Y80010
X50800Y41275
X50800Y37465
X190500Y22225
X173990Y98425
X50165Y83820
X40640Y31115
X206375Y1905
X209550Y635
X218440Y8255
X88265Y85090
X87630Y24765
X138430Y82550
X99060Y22860
X187960Y86360
X96520Y85090
X104140Y22860
X86995Y83820
X78740Y17780
X213360Y17145
X131445Y83185
X99060Y8255
X109855Y10160
X100330Y81280
X68580Y81280
X59690Y61595
X178435Y6985
X132715Y12700
X130175Y80010
X57150Y82550
X22860Y22225
X107315Y24130
X100330Y78740
X24130Y62865
X139700Y24130
X133350Y77470
X26670Y62865
X116840Y55880
X161290Y40640
X146050Y74930
X34290Y71755
X36830Y28575
X160655Y31115
X38735Y32385
X130175Y27940
X101600Y22860
X44450Y20955
X162560Y41275
X160020Y43815
X144780Y71120
X81280Y71120
X50800Y22225
X166370Y22225
X162560Y69850
X74295Y68580
X167640Y31115
X162560Y72390
X51435Y68580
X48895Y49530
X45720Y18415
X165100Y40640
X165100Y67310
X41910Y62865
X40005Y29210
X182245Y32385
X173990Y66040
X54610Y62865
X139700Y26035
X220345Y4445
X208280Y44450
X66040Y62230
X66040Y34290
X62230Y30480
X173990Y63500
X67310Y63500
X177165Y62230
X78740Y62230
X186055Y60960
X69850Y57785
X67310Y26670
X173990Y59690
X78740Y58420
X78740Y35560
X72390Y34290
X191770Y58420
X86360Y58420
X193040Y57150
X77470Y57150
X191770Y62865
X113665Y68580
X198120Y32385
X85090Y54610
X198120Y40005
X183515Y54610
X173990Y73660
X83820Y73660
X203200Y21590
X93345Y26670
X198120Y85725
X179070Y95250
X97790Y95250
X97790Y68580
X105410Y68580
X98425Y12700
X130810Y23495
X129540Y76200
X57150Y76200
X55880Y58420
X17145Y20955
X139700Y53340
X30480Y54610
X27940Y57150
X142875Y52070
X29210Y28575
X146050Y50800
X31750Y37465
X148590Y49530
X57785Y49530
X55880Y54610
X33020Y54610
X149860Y48260
X151130Y46990
X168275Y40640
X43815Y34290
X157480Y43815
X46355Y30480
X156210Y43180
X50165Y42545
X158750Y41910
X52705Y38735
X152400Y40640
X52705Y36195
X170180Y39370
X72390Y39370
X66040Y24130
X45720Y24130
X171450Y38100
X57150Y34290
X175260Y36830
X58420Y30480
X177800Y35560
X92075Y35560
X76200Y24130
X62230Y21590
X183515Y31750
X76200Y34290
X62865Y36830
X182245Y22225
X160020Y22860
X158750Y33020
X68580Y30480
X182245Y27940
X163830Y28575
X161290Y32385
X120650Y31750
X187960Y40640
X168275Y52705
X144780Y76200
X69850Y82550
X170180Y52705
X193040Y31115
X141605Y53340
X76200Y22225
X198120Y23495
X146050Y24130
X82550Y30480
X200660Y20955
X203200Y19685
X97790Y18415
X205740Y18415
X125095Y16510
X120015Y27305
X95250Y26670
X88900Y22860
X208280Y17780
X29210Y2540
M30