G04 EAGLE Gerber RS-274X export*
G75*
%MOMM*%
%FSLAX34Y34*%
%LPD*%
%INSilkscreen Top*%
%IPPOS*%
%AMOC8*
5,1,8,0,0,1.08239X$1,22.5*%
G01*
%ADD10C,0.254000*%
%ADD11C,0.127000*%
%ADD12C,0.203200*%
%ADD13C,0.152400*%
%ADD14R,0.863600X0.609600*%


D10*
X139700Y158750D02*
X139700Y143510D01*
X146050Y100330D02*
X152400Y100330D01*
X152400Y69850D01*
X990600Y69850D02*
X990600Y100330D01*
X995680Y100330D01*
X1012190Y87630D02*
X1043940Y87630D01*
X1043940Y146050D01*
X1012190Y146050D01*
X993140Y130810D01*
X1003300Y143510D02*
X1003300Y158750D01*
X130810Y146050D02*
X99060Y146050D01*
X99060Y87630D01*
X130810Y146050D02*
X149860Y130810D01*
X130810Y87630D02*
X99060Y87630D01*
X99060Y66040D01*
X139700Y158750D02*
X1003300Y158750D01*
X990600Y69850D02*
X152400Y69850D01*
X1043940Y146050D02*
X1043940Y162560D01*
X1043940Y87630D02*
X1043940Y66040D01*
X1043940Y162560D02*
X1043938Y162700D01*
X1043932Y162840D01*
X1043923Y162980D01*
X1043909Y163119D01*
X1043892Y163258D01*
X1043871Y163396D01*
X1043846Y163534D01*
X1043817Y163671D01*
X1043785Y163807D01*
X1043748Y163942D01*
X1043708Y164076D01*
X1043665Y164209D01*
X1043617Y164341D01*
X1043567Y164472D01*
X1043512Y164601D01*
X1043454Y164728D01*
X1043393Y164854D01*
X1043328Y164978D01*
X1043259Y165100D01*
X1043188Y165220D01*
X1043113Y165338D01*
X1043035Y165455D01*
X1042953Y165569D01*
X1042869Y165680D01*
X1042781Y165789D01*
X1042691Y165896D01*
X1042597Y166001D01*
X1042501Y166102D01*
X1042402Y166201D01*
X1042301Y166297D01*
X1042196Y166391D01*
X1042089Y166481D01*
X1041980Y166569D01*
X1041869Y166653D01*
X1041755Y166735D01*
X1041638Y166813D01*
X1041520Y166888D01*
X1041400Y166959D01*
X1041278Y167028D01*
X1041154Y167093D01*
X1041028Y167154D01*
X1040901Y167212D01*
X1040772Y167267D01*
X1040641Y167317D01*
X1040509Y167365D01*
X1040376Y167408D01*
X1040242Y167448D01*
X1040107Y167485D01*
X1039971Y167517D01*
X1039834Y167546D01*
X1039696Y167571D01*
X1039558Y167592D01*
X1039419Y167609D01*
X1039280Y167623D01*
X1039140Y167632D01*
X1039000Y167638D01*
X1038860Y167640D01*
X1043940Y66040D02*
X1043938Y65900D01*
X1043932Y65760D01*
X1043923Y65620D01*
X1043909Y65481D01*
X1043892Y65342D01*
X1043871Y65204D01*
X1043846Y65066D01*
X1043817Y64929D01*
X1043785Y64793D01*
X1043748Y64658D01*
X1043708Y64524D01*
X1043665Y64391D01*
X1043617Y64259D01*
X1043567Y64128D01*
X1043512Y63999D01*
X1043454Y63872D01*
X1043393Y63746D01*
X1043328Y63622D01*
X1043259Y63500D01*
X1043188Y63380D01*
X1043113Y63262D01*
X1043035Y63145D01*
X1042953Y63031D01*
X1042869Y62920D01*
X1042781Y62811D01*
X1042691Y62704D01*
X1042597Y62599D01*
X1042501Y62498D01*
X1042402Y62399D01*
X1042301Y62303D01*
X1042196Y62209D01*
X1042089Y62119D01*
X1041980Y62031D01*
X1041869Y61947D01*
X1041755Y61865D01*
X1041638Y61787D01*
X1041520Y61712D01*
X1041400Y61641D01*
X1041278Y61572D01*
X1041154Y61507D01*
X1041028Y61446D01*
X1040901Y61388D01*
X1040772Y61333D01*
X1040641Y61283D01*
X1040509Y61235D01*
X1040376Y61192D01*
X1040242Y61152D01*
X1040107Y61115D01*
X1039971Y61083D01*
X1039834Y61054D01*
X1039696Y61029D01*
X1039558Y61008D01*
X1039419Y60991D01*
X1039280Y60977D01*
X1039140Y60968D01*
X1039000Y60962D01*
X1038860Y60960D01*
X99060Y146050D02*
X99060Y162560D01*
X104140Y167640D02*
X130810Y167640D01*
X1012190Y167640D01*
X1038860Y167640D01*
X143510Y60960D02*
X104140Y60960D01*
X143510Y60960D02*
X999490Y60960D01*
X1038860Y60960D01*
X104140Y167640D02*
X104000Y167638D01*
X103860Y167632D01*
X103720Y167623D01*
X103581Y167609D01*
X103442Y167592D01*
X103304Y167571D01*
X103166Y167546D01*
X103029Y167517D01*
X102893Y167485D01*
X102758Y167448D01*
X102624Y167408D01*
X102491Y167365D01*
X102359Y167317D01*
X102228Y167267D01*
X102099Y167212D01*
X101972Y167154D01*
X101846Y167093D01*
X101722Y167028D01*
X101600Y166959D01*
X101480Y166888D01*
X101362Y166813D01*
X101245Y166735D01*
X101131Y166653D01*
X101020Y166569D01*
X100911Y166481D01*
X100804Y166391D01*
X100699Y166297D01*
X100598Y166201D01*
X100499Y166102D01*
X100403Y166001D01*
X100309Y165896D01*
X100219Y165789D01*
X100131Y165680D01*
X100047Y165569D01*
X99965Y165455D01*
X99887Y165338D01*
X99812Y165220D01*
X99741Y165100D01*
X99672Y164978D01*
X99607Y164854D01*
X99546Y164728D01*
X99488Y164601D01*
X99433Y164472D01*
X99383Y164341D01*
X99335Y164209D01*
X99292Y164076D01*
X99252Y163942D01*
X99215Y163807D01*
X99183Y163671D01*
X99154Y163534D01*
X99129Y163396D01*
X99108Y163258D01*
X99091Y163119D01*
X99077Y162980D01*
X99068Y162840D01*
X99062Y162700D01*
X99060Y162560D01*
X99060Y66040D02*
X99062Y65900D01*
X99068Y65760D01*
X99077Y65620D01*
X99091Y65481D01*
X99108Y65342D01*
X99129Y65204D01*
X99154Y65066D01*
X99183Y64929D01*
X99215Y64793D01*
X99252Y64658D01*
X99292Y64524D01*
X99335Y64391D01*
X99383Y64259D01*
X99433Y64128D01*
X99488Y63999D01*
X99546Y63872D01*
X99607Y63746D01*
X99672Y63622D01*
X99741Y63500D01*
X99812Y63380D01*
X99887Y63262D01*
X99965Y63145D01*
X100047Y63031D01*
X100131Y62920D01*
X100219Y62811D01*
X100309Y62704D01*
X100403Y62599D01*
X100499Y62498D01*
X100598Y62399D01*
X100699Y62303D01*
X100804Y62209D01*
X100911Y62119D01*
X101020Y62031D01*
X101131Y61947D01*
X101245Y61865D01*
X101362Y61787D01*
X101480Y61712D01*
X101600Y61641D01*
X101722Y61572D01*
X101846Y61507D01*
X101972Y61446D01*
X102099Y61388D01*
X102228Y61333D01*
X102359Y61283D01*
X102491Y61235D01*
X102624Y61192D01*
X102758Y61152D01*
X102893Y61115D01*
X103029Y61083D01*
X103166Y61054D01*
X103304Y61029D01*
X103442Y61008D01*
X103581Y60991D01*
X103720Y60977D01*
X103860Y60968D01*
X104000Y60962D01*
X104140Y60960D01*
X149860Y102870D02*
X149860Y130810D01*
X149860Y102870D02*
X146050Y100330D01*
X149860Y102870D02*
X130810Y87630D01*
X993140Y102870D02*
X993140Y130810D01*
X993140Y102870D02*
X1012190Y87630D01*
X1012190Y146050D02*
X1012190Y167640D01*
X999490Y91440D02*
X999490Y60960D01*
X1003300Y143510D02*
X1008380Y143510D01*
X1007110Y91440D02*
X999490Y91440D01*
X143510Y91440D02*
X143510Y60960D01*
X130810Y146050D02*
X130810Y167640D01*
X134620Y143510D02*
X139700Y143510D01*
X143510Y91440D02*
X135890Y91440D01*
X108801Y117348D02*
X108805Y117660D01*
X108816Y117971D01*
X108835Y118282D01*
X108862Y118593D01*
X108897Y118903D01*
X108938Y119211D01*
X108988Y119519D01*
X109045Y119826D01*
X109110Y120131D01*
X109182Y120434D01*
X109261Y120735D01*
X109348Y121035D01*
X109442Y121332D01*
X109543Y121627D01*
X109652Y121919D01*
X109768Y122208D01*
X109891Y122495D01*
X110020Y122778D01*
X110157Y123058D01*
X110301Y123335D01*
X110451Y123608D01*
X110608Y123877D01*
X110771Y124142D01*
X110941Y124404D01*
X111118Y124661D01*
X111300Y124913D01*
X111489Y125161D01*
X111684Y125405D01*
X111884Y125643D01*
X112091Y125877D01*
X112303Y126105D01*
X112521Y126328D01*
X112744Y126546D01*
X112972Y126758D01*
X113206Y126965D01*
X113444Y127165D01*
X113688Y127360D01*
X113936Y127549D01*
X114188Y127731D01*
X114445Y127908D01*
X114707Y128078D01*
X114972Y128241D01*
X115241Y128398D01*
X115514Y128548D01*
X115791Y128692D01*
X116071Y128829D01*
X116354Y128958D01*
X116641Y129081D01*
X116930Y129197D01*
X117222Y129306D01*
X117517Y129407D01*
X117814Y129501D01*
X118114Y129588D01*
X118415Y129667D01*
X118718Y129739D01*
X119023Y129804D01*
X119330Y129861D01*
X119638Y129911D01*
X119946Y129952D01*
X120256Y129987D01*
X120567Y130014D01*
X120878Y130033D01*
X121189Y130044D01*
X121501Y130048D01*
X121813Y130044D01*
X122124Y130033D01*
X122435Y130014D01*
X122746Y129987D01*
X123056Y129952D01*
X123364Y129911D01*
X123672Y129861D01*
X123979Y129804D01*
X124284Y129739D01*
X124587Y129667D01*
X124888Y129588D01*
X125188Y129501D01*
X125485Y129407D01*
X125780Y129306D01*
X126072Y129197D01*
X126361Y129081D01*
X126648Y128958D01*
X126931Y128829D01*
X127211Y128692D01*
X127488Y128548D01*
X127761Y128398D01*
X128030Y128241D01*
X128295Y128078D01*
X128557Y127908D01*
X128814Y127731D01*
X129066Y127549D01*
X129314Y127360D01*
X129558Y127165D01*
X129796Y126965D01*
X130030Y126758D01*
X130258Y126546D01*
X130481Y126328D01*
X130699Y126105D01*
X130911Y125877D01*
X131118Y125643D01*
X131318Y125405D01*
X131513Y125161D01*
X131702Y124913D01*
X131884Y124661D01*
X132061Y124404D01*
X132231Y124142D01*
X132394Y123877D01*
X132551Y123608D01*
X132701Y123335D01*
X132845Y123058D01*
X132982Y122778D01*
X133111Y122495D01*
X133234Y122208D01*
X133350Y121919D01*
X133459Y121627D01*
X133560Y121332D01*
X133654Y121035D01*
X133741Y120735D01*
X133820Y120434D01*
X133892Y120131D01*
X133957Y119826D01*
X134014Y119519D01*
X134064Y119211D01*
X134105Y118903D01*
X134140Y118593D01*
X134167Y118282D01*
X134186Y117971D01*
X134197Y117660D01*
X134201Y117348D01*
X134197Y117036D01*
X134186Y116725D01*
X134167Y116414D01*
X134140Y116103D01*
X134105Y115793D01*
X134064Y115485D01*
X134014Y115177D01*
X133957Y114870D01*
X133892Y114565D01*
X133820Y114262D01*
X133741Y113961D01*
X133654Y113661D01*
X133560Y113364D01*
X133459Y113069D01*
X133350Y112777D01*
X133234Y112488D01*
X133111Y112201D01*
X132982Y111918D01*
X132845Y111638D01*
X132701Y111361D01*
X132551Y111088D01*
X132394Y110819D01*
X132231Y110554D01*
X132061Y110292D01*
X131884Y110035D01*
X131702Y109783D01*
X131513Y109535D01*
X131318Y109291D01*
X131118Y109053D01*
X130911Y108819D01*
X130699Y108591D01*
X130481Y108368D01*
X130258Y108150D01*
X130030Y107938D01*
X129796Y107731D01*
X129558Y107531D01*
X129314Y107336D01*
X129066Y107147D01*
X128814Y106965D01*
X128557Y106788D01*
X128295Y106618D01*
X128030Y106455D01*
X127761Y106298D01*
X127488Y106148D01*
X127211Y106004D01*
X126931Y105867D01*
X126648Y105738D01*
X126361Y105615D01*
X126072Y105499D01*
X125780Y105390D01*
X125485Y105289D01*
X125188Y105195D01*
X124888Y105108D01*
X124587Y105029D01*
X124284Y104957D01*
X123979Y104892D01*
X123672Y104835D01*
X123364Y104785D01*
X123056Y104744D01*
X122746Y104709D01*
X122435Y104682D01*
X122124Y104663D01*
X121813Y104652D01*
X121501Y104648D01*
X121189Y104652D01*
X120878Y104663D01*
X120567Y104682D01*
X120256Y104709D01*
X119946Y104744D01*
X119638Y104785D01*
X119330Y104835D01*
X119023Y104892D01*
X118718Y104957D01*
X118415Y105029D01*
X118114Y105108D01*
X117814Y105195D01*
X117517Y105289D01*
X117222Y105390D01*
X116930Y105499D01*
X116641Y105615D01*
X116354Y105738D01*
X116071Y105867D01*
X115791Y106004D01*
X115514Y106148D01*
X115241Y106298D01*
X114972Y106455D01*
X114707Y106618D01*
X114445Y106788D01*
X114188Y106965D01*
X113936Y107147D01*
X113688Y107336D01*
X113444Y107531D01*
X113206Y107731D01*
X112972Y107938D01*
X112744Y108150D01*
X112521Y108368D01*
X112303Y108591D01*
X112091Y108819D01*
X111884Y109053D01*
X111684Y109291D01*
X111489Y109535D01*
X111300Y109783D01*
X111118Y110035D01*
X110941Y110292D01*
X110771Y110554D01*
X110608Y110819D01*
X110451Y111088D01*
X110301Y111361D01*
X110157Y111638D01*
X110020Y111918D01*
X109891Y112201D01*
X109768Y112488D01*
X109652Y112777D01*
X109543Y113069D01*
X109442Y113364D01*
X109348Y113661D01*
X109261Y113961D01*
X109182Y114262D01*
X109110Y114565D01*
X109045Y114870D01*
X108988Y115177D01*
X108938Y115485D01*
X108897Y115793D01*
X108862Y116103D01*
X108835Y116414D01*
X108816Y116725D01*
X108805Y117036D01*
X108801Y117348D01*
X1008799Y117348D02*
X1008803Y117660D01*
X1008814Y117971D01*
X1008833Y118282D01*
X1008860Y118593D01*
X1008895Y118903D01*
X1008936Y119211D01*
X1008986Y119519D01*
X1009043Y119826D01*
X1009108Y120131D01*
X1009180Y120434D01*
X1009259Y120735D01*
X1009346Y121035D01*
X1009440Y121332D01*
X1009541Y121627D01*
X1009650Y121919D01*
X1009766Y122208D01*
X1009889Y122495D01*
X1010018Y122778D01*
X1010155Y123058D01*
X1010299Y123335D01*
X1010449Y123608D01*
X1010606Y123877D01*
X1010769Y124142D01*
X1010939Y124404D01*
X1011116Y124661D01*
X1011298Y124913D01*
X1011487Y125161D01*
X1011682Y125405D01*
X1011882Y125643D01*
X1012089Y125877D01*
X1012301Y126105D01*
X1012519Y126328D01*
X1012742Y126546D01*
X1012970Y126758D01*
X1013204Y126965D01*
X1013442Y127165D01*
X1013686Y127360D01*
X1013934Y127549D01*
X1014186Y127731D01*
X1014443Y127908D01*
X1014705Y128078D01*
X1014970Y128241D01*
X1015239Y128398D01*
X1015512Y128548D01*
X1015789Y128692D01*
X1016069Y128829D01*
X1016352Y128958D01*
X1016639Y129081D01*
X1016928Y129197D01*
X1017220Y129306D01*
X1017515Y129407D01*
X1017812Y129501D01*
X1018112Y129588D01*
X1018413Y129667D01*
X1018716Y129739D01*
X1019021Y129804D01*
X1019328Y129861D01*
X1019636Y129911D01*
X1019944Y129952D01*
X1020254Y129987D01*
X1020565Y130014D01*
X1020876Y130033D01*
X1021187Y130044D01*
X1021499Y130048D01*
X1021811Y130044D01*
X1022122Y130033D01*
X1022433Y130014D01*
X1022744Y129987D01*
X1023054Y129952D01*
X1023362Y129911D01*
X1023670Y129861D01*
X1023977Y129804D01*
X1024282Y129739D01*
X1024585Y129667D01*
X1024886Y129588D01*
X1025186Y129501D01*
X1025483Y129407D01*
X1025778Y129306D01*
X1026070Y129197D01*
X1026359Y129081D01*
X1026646Y128958D01*
X1026929Y128829D01*
X1027209Y128692D01*
X1027486Y128548D01*
X1027759Y128398D01*
X1028028Y128241D01*
X1028293Y128078D01*
X1028555Y127908D01*
X1028812Y127731D01*
X1029064Y127549D01*
X1029312Y127360D01*
X1029556Y127165D01*
X1029794Y126965D01*
X1030028Y126758D01*
X1030256Y126546D01*
X1030479Y126328D01*
X1030697Y126105D01*
X1030909Y125877D01*
X1031116Y125643D01*
X1031316Y125405D01*
X1031511Y125161D01*
X1031700Y124913D01*
X1031882Y124661D01*
X1032059Y124404D01*
X1032229Y124142D01*
X1032392Y123877D01*
X1032549Y123608D01*
X1032699Y123335D01*
X1032843Y123058D01*
X1032980Y122778D01*
X1033109Y122495D01*
X1033232Y122208D01*
X1033348Y121919D01*
X1033457Y121627D01*
X1033558Y121332D01*
X1033652Y121035D01*
X1033739Y120735D01*
X1033818Y120434D01*
X1033890Y120131D01*
X1033955Y119826D01*
X1034012Y119519D01*
X1034062Y119211D01*
X1034103Y118903D01*
X1034138Y118593D01*
X1034165Y118282D01*
X1034184Y117971D01*
X1034195Y117660D01*
X1034199Y117348D01*
X1034195Y117036D01*
X1034184Y116725D01*
X1034165Y116414D01*
X1034138Y116103D01*
X1034103Y115793D01*
X1034062Y115485D01*
X1034012Y115177D01*
X1033955Y114870D01*
X1033890Y114565D01*
X1033818Y114262D01*
X1033739Y113961D01*
X1033652Y113661D01*
X1033558Y113364D01*
X1033457Y113069D01*
X1033348Y112777D01*
X1033232Y112488D01*
X1033109Y112201D01*
X1032980Y111918D01*
X1032843Y111638D01*
X1032699Y111361D01*
X1032549Y111088D01*
X1032392Y110819D01*
X1032229Y110554D01*
X1032059Y110292D01*
X1031882Y110035D01*
X1031700Y109783D01*
X1031511Y109535D01*
X1031316Y109291D01*
X1031116Y109053D01*
X1030909Y108819D01*
X1030697Y108591D01*
X1030479Y108368D01*
X1030256Y108150D01*
X1030028Y107938D01*
X1029794Y107731D01*
X1029556Y107531D01*
X1029312Y107336D01*
X1029064Y107147D01*
X1028812Y106965D01*
X1028555Y106788D01*
X1028293Y106618D01*
X1028028Y106455D01*
X1027759Y106298D01*
X1027486Y106148D01*
X1027209Y106004D01*
X1026929Y105867D01*
X1026646Y105738D01*
X1026359Y105615D01*
X1026070Y105499D01*
X1025778Y105390D01*
X1025483Y105289D01*
X1025186Y105195D01*
X1024886Y105108D01*
X1024585Y105029D01*
X1024282Y104957D01*
X1023977Y104892D01*
X1023670Y104835D01*
X1023362Y104785D01*
X1023054Y104744D01*
X1022744Y104709D01*
X1022433Y104682D01*
X1022122Y104663D01*
X1021811Y104652D01*
X1021499Y104648D01*
X1021187Y104652D01*
X1020876Y104663D01*
X1020565Y104682D01*
X1020254Y104709D01*
X1019944Y104744D01*
X1019636Y104785D01*
X1019328Y104835D01*
X1019021Y104892D01*
X1018716Y104957D01*
X1018413Y105029D01*
X1018112Y105108D01*
X1017812Y105195D01*
X1017515Y105289D01*
X1017220Y105390D01*
X1016928Y105499D01*
X1016639Y105615D01*
X1016352Y105738D01*
X1016069Y105867D01*
X1015789Y106004D01*
X1015512Y106148D01*
X1015239Y106298D01*
X1014970Y106455D01*
X1014705Y106618D01*
X1014443Y106788D01*
X1014186Y106965D01*
X1013934Y107147D01*
X1013686Y107336D01*
X1013442Y107531D01*
X1013204Y107731D01*
X1012970Y107938D01*
X1012742Y108150D01*
X1012519Y108368D01*
X1012301Y108591D01*
X1012089Y108819D01*
X1011882Y109053D01*
X1011682Y109291D01*
X1011487Y109535D01*
X1011298Y109783D01*
X1011116Y110035D01*
X1010939Y110292D01*
X1010769Y110554D01*
X1010606Y110819D01*
X1010449Y111088D01*
X1010299Y111361D01*
X1010155Y111638D01*
X1010018Y111918D01*
X1009889Y112201D01*
X1009766Y112488D01*
X1009650Y112777D01*
X1009541Y113069D01*
X1009440Y113364D01*
X1009346Y113661D01*
X1009259Y113961D01*
X1009180Y114262D01*
X1009108Y114565D01*
X1009043Y114870D01*
X1008986Y115177D01*
X1008936Y115485D01*
X1008895Y115793D01*
X1008860Y116103D01*
X1008833Y116414D01*
X1008814Y116725D01*
X1008803Y117036D01*
X1008799Y117348D01*
D11*
X156202Y102977D02*
X154295Y104884D01*
X154295Y108697D01*
X156202Y110604D01*
X158109Y110604D01*
X160015Y108697D01*
X160015Y106790D01*
X160015Y108697D02*
X161922Y110604D01*
X163828Y110604D01*
X165735Y108697D01*
X165735Y104884D01*
X163828Y102977D01*
X165735Y114671D02*
X165735Y122298D01*
X158109Y122298D02*
X165735Y114671D01*
X158109Y122298D02*
X156202Y122298D01*
X154295Y120391D01*
X154295Y116578D01*
X156202Y114671D01*
X158109Y125204D02*
X158109Y129017D01*
X160015Y130924D01*
X165735Y130924D01*
X165735Y125204D01*
X163828Y123297D01*
X161922Y125204D01*
X161922Y130924D01*
X159379Y77584D02*
X159379Y71864D01*
X161285Y69957D01*
X165098Y69957D01*
X167005Y71864D01*
X167005Y77584D01*
X978525Y110864D02*
X982339Y107051D01*
X978525Y110864D02*
X989965Y110864D01*
X989965Y107051D02*
X989965Y114678D01*
X981069Y135628D02*
X981069Y139441D01*
X982975Y141348D01*
X988695Y141348D01*
X988695Y135628D01*
X986788Y133721D01*
X984882Y135628D01*
X984882Y141348D01*
X981069Y90548D02*
X981069Y84828D01*
X982975Y82921D01*
X986788Y82921D01*
X988695Y84828D01*
X988695Y90548D01*
X749935Y172085D02*
X749935Y183525D01*
X749935Y172085D02*
X755655Y172085D01*
X757562Y173992D01*
X757562Y181618D01*
X755655Y183525D01*
X749935Y183525D01*
X761629Y172085D02*
X765442Y172085D01*
X763536Y172085D02*
X763536Y183525D01*
X765442Y183525D02*
X761629Y183525D01*
X769425Y183525D02*
X769425Y172085D01*
X777051Y172085D02*
X769425Y183525D01*
X777051Y183525D02*
X777051Y172085D01*
X786839Y172085D02*
X786839Y183525D01*
X781119Y177805D01*
X788745Y177805D01*
X792813Y179712D02*
X796626Y183525D01*
X796626Y172085D01*
X792813Y172085D02*
X800439Y172085D01*
X808320Y181618D02*
X812133Y183525D01*
X808320Y181618D02*
X804507Y177805D01*
X804507Y173992D01*
X806413Y172085D01*
X810227Y172085D01*
X812133Y173992D01*
X812133Y175898D01*
X810227Y177805D01*
X804507Y177805D01*
X816201Y179712D02*
X820014Y183525D01*
X820014Y172085D01*
X816201Y172085D02*
X823827Y172085D01*
X827895Y172085D02*
X835521Y172085D01*
X827895Y172085D02*
X835521Y179712D01*
X835521Y181618D01*
X833615Y183525D01*
X829801Y183525D01*
X827895Y181618D01*
X839589Y177805D02*
X847215Y177805D01*
X851283Y172085D02*
X851283Y183525D01*
X857003Y183525D01*
X858909Y181618D01*
X858909Y177805D01*
X857003Y175898D01*
X851283Y175898D01*
X855096Y175898D02*
X858909Y172085D01*
X109862Y173355D02*
X102235Y184795D01*
X109862Y184795D02*
X102235Y173355D01*
X113929Y182888D02*
X115836Y184795D01*
X119649Y184795D01*
X121555Y182888D01*
X121555Y180982D01*
X119649Y179075D01*
X117742Y179075D01*
X119649Y179075D02*
X121555Y177168D01*
X121555Y175262D01*
X119649Y173355D01*
X115836Y173355D01*
X113929Y175262D01*
D10*
X1308100Y158750D02*
X1308100Y143510D01*
X1314450Y100330D02*
X1320800Y100330D01*
X1320800Y69850D01*
X2159000Y69850D02*
X2159000Y100330D01*
X2164080Y100330D01*
X2180590Y87630D02*
X2212340Y87630D01*
X2212340Y146050D01*
X2180590Y146050D01*
X2161540Y130810D01*
X2171700Y143510D02*
X2171700Y158750D01*
X1299210Y146050D02*
X1267460Y146050D01*
X1267460Y87630D01*
X1299210Y146050D02*
X1318260Y130810D01*
X1299210Y87630D02*
X1267460Y87630D01*
X1267460Y66040D01*
X1308100Y158750D02*
X2171700Y158750D01*
X2159000Y69850D02*
X1320800Y69850D01*
X2212340Y146050D02*
X2212340Y162560D01*
X2212340Y87630D02*
X2212340Y66040D01*
X2212340Y162560D02*
X2212338Y162700D01*
X2212332Y162840D01*
X2212323Y162980D01*
X2212309Y163119D01*
X2212292Y163258D01*
X2212271Y163396D01*
X2212246Y163534D01*
X2212217Y163671D01*
X2212185Y163807D01*
X2212148Y163942D01*
X2212108Y164076D01*
X2212065Y164209D01*
X2212017Y164341D01*
X2211967Y164472D01*
X2211912Y164601D01*
X2211854Y164728D01*
X2211793Y164854D01*
X2211728Y164978D01*
X2211659Y165100D01*
X2211588Y165220D01*
X2211513Y165338D01*
X2211435Y165455D01*
X2211353Y165569D01*
X2211269Y165680D01*
X2211181Y165789D01*
X2211091Y165896D01*
X2210997Y166001D01*
X2210901Y166102D01*
X2210802Y166201D01*
X2210701Y166297D01*
X2210596Y166391D01*
X2210489Y166481D01*
X2210380Y166569D01*
X2210269Y166653D01*
X2210155Y166735D01*
X2210038Y166813D01*
X2209920Y166888D01*
X2209800Y166959D01*
X2209678Y167028D01*
X2209554Y167093D01*
X2209428Y167154D01*
X2209301Y167212D01*
X2209172Y167267D01*
X2209041Y167317D01*
X2208909Y167365D01*
X2208776Y167408D01*
X2208642Y167448D01*
X2208507Y167485D01*
X2208371Y167517D01*
X2208234Y167546D01*
X2208096Y167571D01*
X2207958Y167592D01*
X2207819Y167609D01*
X2207680Y167623D01*
X2207540Y167632D01*
X2207400Y167638D01*
X2207260Y167640D01*
X2212340Y66040D02*
X2212338Y65900D01*
X2212332Y65760D01*
X2212323Y65620D01*
X2212309Y65481D01*
X2212292Y65342D01*
X2212271Y65204D01*
X2212246Y65066D01*
X2212217Y64929D01*
X2212185Y64793D01*
X2212148Y64658D01*
X2212108Y64524D01*
X2212065Y64391D01*
X2212017Y64259D01*
X2211967Y64128D01*
X2211912Y63999D01*
X2211854Y63872D01*
X2211793Y63746D01*
X2211728Y63622D01*
X2211659Y63500D01*
X2211588Y63380D01*
X2211513Y63262D01*
X2211435Y63145D01*
X2211353Y63031D01*
X2211269Y62920D01*
X2211181Y62811D01*
X2211091Y62704D01*
X2210997Y62599D01*
X2210901Y62498D01*
X2210802Y62399D01*
X2210701Y62303D01*
X2210596Y62209D01*
X2210489Y62119D01*
X2210380Y62031D01*
X2210269Y61947D01*
X2210155Y61865D01*
X2210038Y61787D01*
X2209920Y61712D01*
X2209800Y61641D01*
X2209678Y61572D01*
X2209554Y61507D01*
X2209428Y61446D01*
X2209301Y61388D01*
X2209172Y61333D01*
X2209041Y61283D01*
X2208909Y61235D01*
X2208776Y61192D01*
X2208642Y61152D01*
X2208507Y61115D01*
X2208371Y61083D01*
X2208234Y61054D01*
X2208096Y61029D01*
X2207958Y61008D01*
X2207819Y60991D01*
X2207680Y60977D01*
X2207540Y60968D01*
X2207400Y60962D01*
X2207260Y60960D01*
X1267460Y146050D02*
X1267460Y162560D01*
X1272540Y167640D02*
X1299210Y167640D01*
X2180590Y167640D01*
X2207260Y167640D01*
X1311910Y60960D02*
X1272540Y60960D01*
X1311910Y60960D02*
X2167890Y60960D01*
X2207260Y60960D01*
X1272540Y167640D02*
X1272400Y167638D01*
X1272260Y167632D01*
X1272120Y167623D01*
X1271981Y167609D01*
X1271842Y167592D01*
X1271704Y167571D01*
X1271566Y167546D01*
X1271429Y167517D01*
X1271293Y167485D01*
X1271158Y167448D01*
X1271024Y167408D01*
X1270891Y167365D01*
X1270759Y167317D01*
X1270628Y167267D01*
X1270499Y167212D01*
X1270372Y167154D01*
X1270246Y167093D01*
X1270122Y167028D01*
X1270000Y166959D01*
X1269880Y166888D01*
X1269762Y166813D01*
X1269645Y166735D01*
X1269531Y166653D01*
X1269420Y166569D01*
X1269311Y166481D01*
X1269204Y166391D01*
X1269099Y166297D01*
X1268998Y166201D01*
X1268899Y166102D01*
X1268803Y166001D01*
X1268709Y165896D01*
X1268619Y165789D01*
X1268531Y165680D01*
X1268447Y165569D01*
X1268365Y165455D01*
X1268287Y165338D01*
X1268212Y165220D01*
X1268141Y165100D01*
X1268072Y164978D01*
X1268007Y164854D01*
X1267946Y164728D01*
X1267888Y164601D01*
X1267833Y164472D01*
X1267783Y164341D01*
X1267735Y164209D01*
X1267692Y164076D01*
X1267652Y163942D01*
X1267615Y163807D01*
X1267583Y163671D01*
X1267554Y163534D01*
X1267529Y163396D01*
X1267508Y163258D01*
X1267491Y163119D01*
X1267477Y162980D01*
X1267468Y162840D01*
X1267462Y162700D01*
X1267460Y162560D01*
X1267460Y66040D02*
X1267462Y65900D01*
X1267468Y65760D01*
X1267477Y65620D01*
X1267491Y65481D01*
X1267508Y65342D01*
X1267529Y65204D01*
X1267554Y65066D01*
X1267583Y64929D01*
X1267615Y64793D01*
X1267652Y64658D01*
X1267692Y64524D01*
X1267735Y64391D01*
X1267783Y64259D01*
X1267833Y64128D01*
X1267888Y63999D01*
X1267946Y63872D01*
X1268007Y63746D01*
X1268072Y63622D01*
X1268141Y63500D01*
X1268212Y63380D01*
X1268287Y63262D01*
X1268365Y63145D01*
X1268447Y63031D01*
X1268531Y62920D01*
X1268619Y62811D01*
X1268709Y62704D01*
X1268803Y62599D01*
X1268899Y62498D01*
X1268998Y62399D01*
X1269099Y62303D01*
X1269204Y62209D01*
X1269311Y62119D01*
X1269420Y62031D01*
X1269531Y61947D01*
X1269645Y61865D01*
X1269762Y61787D01*
X1269880Y61712D01*
X1270000Y61641D01*
X1270122Y61572D01*
X1270246Y61507D01*
X1270372Y61446D01*
X1270499Y61388D01*
X1270628Y61333D01*
X1270759Y61283D01*
X1270891Y61235D01*
X1271024Y61192D01*
X1271158Y61152D01*
X1271293Y61115D01*
X1271429Y61083D01*
X1271566Y61054D01*
X1271704Y61029D01*
X1271842Y61008D01*
X1271981Y60991D01*
X1272120Y60977D01*
X1272260Y60968D01*
X1272400Y60962D01*
X1272540Y60960D01*
X1318260Y102870D02*
X1318260Y130810D01*
X1318260Y102870D02*
X1314450Y100330D01*
X1318260Y102870D02*
X1299210Y87630D01*
X2161540Y102870D02*
X2161540Y130810D01*
X2161540Y102870D02*
X2180590Y87630D01*
X2180590Y146050D02*
X2180590Y167640D01*
X2167890Y91440D02*
X2167890Y60960D01*
X2171700Y143510D02*
X2176780Y143510D01*
X2175510Y91440D02*
X2167890Y91440D01*
X1311910Y91440D02*
X1311910Y60960D01*
X1299210Y146050D02*
X1299210Y167640D01*
X1303020Y143510D02*
X1308100Y143510D01*
X1311910Y91440D02*
X1304290Y91440D01*
X1277201Y117348D02*
X1277205Y117660D01*
X1277216Y117971D01*
X1277235Y118282D01*
X1277262Y118593D01*
X1277297Y118903D01*
X1277338Y119211D01*
X1277388Y119519D01*
X1277445Y119826D01*
X1277510Y120131D01*
X1277582Y120434D01*
X1277661Y120735D01*
X1277748Y121035D01*
X1277842Y121332D01*
X1277943Y121627D01*
X1278052Y121919D01*
X1278168Y122208D01*
X1278291Y122495D01*
X1278420Y122778D01*
X1278557Y123058D01*
X1278701Y123335D01*
X1278851Y123608D01*
X1279008Y123877D01*
X1279171Y124142D01*
X1279341Y124404D01*
X1279518Y124661D01*
X1279700Y124913D01*
X1279889Y125161D01*
X1280084Y125405D01*
X1280284Y125643D01*
X1280491Y125877D01*
X1280703Y126105D01*
X1280921Y126328D01*
X1281144Y126546D01*
X1281372Y126758D01*
X1281606Y126965D01*
X1281844Y127165D01*
X1282088Y127360D01*
X1282336Y127549D01*
X1282588Y127731D01*
X1282845Y127908D01*
X1283107Y128078D01*
X1283372Y128241D01*
X1283641Y128398D01*
X1283914Y128548D01*
X1284191Y128692D01*
X1284471Y128829D01*
X1284754Y128958D01*
X1285041Y129081D01*
X1285330Y129197D01*
X1285622Y129306D01*
X1285917Y129407D01*
X1286214Y129501D01*
X1286514Y129588D01*
X1286815Y129667D01*
X1287118Y129739D01*
X1287423Y129804D01*
X1287730Y129861D01*
X1288038Y129911D01*
X1288346Y129952D01*
X1288656Y129987D01*
X1288967Y130014D01*
X1289278Y130033D01*
X1289589Y130044D01*
X1289901Y130048D01*
X1290213Y130044D01*
X1290524Y130033D01*
X1290835Y130014D01*
X1291146Y129987D01*
X1291456Y129952D01*
X1291764Y129911D01*
X1292072Y129861D01*
X1292379Y129804D01*
X1292684Y129739D01*
X1292987Y129667D01*
X1293288Y129588D01*
X1293588Y129501D01*
X1293885Y129407D01*
X1294180Y129306D01*
X1294472Y129197D01*
X1294761Y129081D01*
X1295048Y128958D01*
X1295331Y128829D01*
X1295611Y128692D01*
X1295888Y128548D01*
X1296161Y128398D01*
X1296430Y128241D01*
X1296695Y128078D01*
X1296957Y127908D01*
X1297214Y127731D01*
X1297466Y127549D01*
X1297714Y127360D01*
X1297958Y127165D01*
X1298196Y126965D01*
X1298430Y126758D01*
X1298658Y126546D01*
X1298881Y126328D01*
X1299099Y126105D01*
X1299311Y125877D01*
X1299518Y125643D01*
X1299718Y125405D01*
X1299913Y125161D01*
X1300102Y124913D01*
X1300284Y124661D01*
X1300461Y124404D01*
X1300631Y124142D01*
X1300794Y123877D01*
X1300951Y123608D01*
X1301101Y123335D01*
X1301245Y123058D01*
X1301382Y122778D01*
X1301511Y122495D01*
X1301634Y122208D01*
X1301750Y121919D01*
X1301859Y121627D01*
X1301960Y121332D01*
X1302054Y121035D01*
X1302141Y120735D01*
X1302220Y120434D01*
X1302292Y120131D01*
X1302357Y119826D01*
X1302414Y119519D01*
X1302464Y119211D01*
X1302505Y118903D01*
X1302540Y118593D01*
X1302567Y118282D01*
X1302586Y117971D01*
X1302597Y117660D01*
X1302601Y117348D01*
X1302597Y117036D01*
X1302586Y116725D01*
X1302567Y116414D01*
X1302540Y116103D01*
X1302505Y115793D01*
X1302464Y115485D01*
X1302414Y115177D01*
X1302357Y114870D01*
X1302292Y114565D01*
X1302220Y114262D01*
X1302141Y113961D01*
X1302054Y113661D01*
X1301960Y113364D01*
X1301859Y113069D01*
X1301750Y112777D01*
X1301634Y112488D01*
X1301511Y112201D01*
X1301382Y111918D01*
X1301245Y111638D01*
X1301101Y111361D01*
X1300951Y111088D01*
X1300794Y110819D01*
X1300631Y110554D01*
X1300461Y110292D01*
X1300284Y110035D01*
X1300102Y109783D01*
X1299913Y109535D01*
X1299718Y109291D01*
X1299518Y109053D01*
X1299311Y108819D01*
X1299099Y108591D01*
X1298881Y108368D01*
X1298658Y108150D01*
X1298430Y107938D01*
X1298196Y107731D01*
X1297958Y107531D01*
X1297714Y107336D01*
X1297466Y107147D01*
X1297214Y106965D01*
X1296957Y106788D01*
X1296695Y106618D01*
X1296430Y106455D01*
X1296161Y106298D01*
X1295888Y106148D01*
X1295611Y106004D01*
X1295331Y105867D01*
X1295048Y105738D01*
X1294761Y105615D01*
X1294472Y105499D01*
X1294180Y105390D01*
X1293885Y105289D01*
X1293588Y105195D01*
X1293288Y105108D01*
X1292987Y105029D01*
X1292684Y104957D01*
X1292379Y104892D01*
X1292072Y104835D01*
X1291764Y104785D01*
X1291456Y104744D01*
X1291146Y104709D01*
X1290835Y104682D01*
X1290524Y104663D01*
X1290213Y104652D01*
X1289901Y104648D01*
X1289589Y104652D01*
X1289278Y104663D01*
X1288967Y104682D01*
X1288656Y104709D01*
X1288346Y104744D01*
X1288038Y104785D01*
X1287730Y104835D01*
X1287423Y104892D01*
X1287118Y104957D01*
X1286815Y105029D01*
X1286514Y105108D01*
X1286214Y105195D01*
X1285917Y105289D01*
X1285622Y105390D01*
X1285330Y105499D01*
X1285041Y105615D01*
X1284754Y105738D01*
X1284471Y105867D01*
X1284191Y106004D01*
X1283914Y106148D01*
X1283641Y106298D01*
X1283372Y106455D01*
X1283107Y106618D01*
X1282845Y106788D01*
X1282588Y106965D01*
X1282336Y107147D01*
X1282088Y107336D01*
X1281844Y107531D01*
X1281606Y107731D01*
X1281372Y107938D01*
X1281144Y108150D01*
X1280921Y108368D01*
X1280703Y108591D01*
X1280491Y108819D01*
X1280284Y109053D01*
X1280084Y109291D01*
X1279889Y109535D01*
X1279700Y109783D01*
X1279518Y110035D01*
X1279341Y110292D01*
X1279171Y110554D01*
X1279008Y110819D01*
X1278851Y111088D01*
X1278701Y111361D01*
X1278557Y111638D01*
X1278420Y111918D01*
X1278291Y112201D01*
X1278168Y112488D01*
X1278052Y112777D01*
X1277943Y113069D01*
X1277842Y113364D01*
X1277748Y113661D01*
X1277661Y113961D01*
X1277582Y114262D01*
X1277510Y114565D01*
X1277445Y114870D01*
X1277388Y115177D01*
X1277338Y115485D01*
X1277297Y115793D01*
X1277262Y116103D01*
X1277235Y116414D01*
X1277216Y116725D01*
X1277205Y117036D01*
X1277201Y117348D01*
X2177199Y117348D02*
X2177203Y117660D01*
X2177214Y117971D01*
X2177233Y118282D01*
X2177260Y118593D01*
X2177295Y118903D01*
X2177336Y119211D01*
X2177386Y119519D01*
X2177443Y119826D01*
X2177508Y120131D01*
X2177580Y120434D01*
X2177659Y120735D01*
X2177746Y121035D01*
X2177840Y121332D01*
X2177941Y121627D01*
X2178050Y121919D01*
X2178166Y122208D01*
X2178289Y122495D01*
X2178418Y122778D01*
X2178555Y123058D01*
X2178699Y123335D01*
X2178849Y123608D01*
X2179006Y123877D01*
X2179169Y124142D01*
X2179339Y124404D01*
X2179516Y124661D01*
X2179698Y124913D01*
X2179887Y125161D01*
X2180082Y125405D01*
X2180282Y125643D01*
X2180489Y125877D01*
X2180701Y126105D01*
X2180919Y126328D01*
X2181142Y126546D01*
X2181370Y126758D01*
X2181604Y126965D01*
X2181842Y127165D01*
X2182086Y127360D01*
X2182334Y127549D01*
X2182586Y127731D01*
X2182843Y127908D01*
X2183105Y128078D01*
X2183370Y128241D01*
X2183639Y128398D01*
X2183912Y128548D01*
X2184189Y128692D01*
X2184469Y128829D01*
X2184752Y128958D01*
X2185039Y129081D01*
X2185328Y129197D01*
X2185620Y129306D01*
X2185915Y129407D01*
X2186212Y129501D01*
X2186512Y129588D01*
X2186813Y129667D01*
X2187116Y129739D01*
X2187421Y129804D01*
X2187728Y129861D01*
X2188036Y129911D01*
X2188344Y129952D01*
X2188654Y129987D01*
X2188965Y130014D01*
X2189276Y130033D01*
X2189587Y130044D01*
X2189899Y130048D01*
X2190211Y130044D01*
X2190522Y130033D01*
X2190833Y130014D01*
X2191144Y129987D01*
X2191454Y129952D01*
X2191762Y129911D01*
X2192070Y129861D01*
X2192377Y129804D01*
X2192682Y129739D01*
X2192985Y129667D01*
X2193286Y129588D01*
X2193586Y129501D01*
X2193883Y129407D01*
X2194178Y129306D01*
X2194470Y129197D01*
X2194759Y129081D01*
X2195046Y128958D01*
X2195329Y128829D01*
X2195609Y128692D01*
X2195886Y128548D01*
X2196159Y128398D01*
X2196428Y128241D01*
X2196693Y128078D01*
X2196955Y127908D01*
X2197212Y127731D01*
X2197464Y127549D01*
X2197712Y127360D01*
X2197956Y127165D01*
X2198194Y126965D01*
X2198428Y126758D01*
X2198656Y126546D01*
X2198879Y126328D01*
X2199097Y126105D01*
X2199309Y125877D01*
X2199516Y125643D01*
X2199716Y125405D01*
X2199911Y125161D01*
X2200100Y124913D01*
X2200282Y124661D01*
X2200459Y124404D01*
X2200629Y124142D01*
X2200792Y123877D01*
X2200949Y123608D01*
X2201099Y123335D01*
X2201243Y123058D01*
X2201380Y122778D01*
X2201509Y122495D01*
X2201632Y122208D01*
X2201748Y121919D01*
X2201857Y121627D01*
X2201958Y121332D01*
X2202052Y121035D01*
X2202139Y120735D01*
X2202218Y120434D01*
X2202290Y120131D01*
X2202355Y119826D01*
X2202412Y119519D01*
X2202462Y119211D01*
X2202503Y118903D01*
X2202538Y118593D01*
X2202565Y118282D01*
X2202584Y117971D01*
X2202595Y117660D01*
X2202599Y117348D01*
X2202595Y117036D01*
X2202584Y116725D01*
X2202565Y116414D01*
X2202538Y116103D01*
X2202503Y115793D01*
X2202462Y115485D01*
X2202412Y115177D01*
X2202355Y114870D01*
X2202290Y114565D01*
X2202218Y114262D01*
X2202139Y113961D01*
X2202052Y113661D01*
X2201958Y113364D01*
X2201857Y113069D01*
X2201748Y112777D01*
X2201632Y112488D01*
X2201509Y112201D01*
X2201380Y111918D01*
X2201243Y111638D01*
X2201099Y111361D01*
X2200949Y111088D01*
X2200792Y110819D01*
X2200629Y110554D01*
X2200459Y110292D01*
X2200282Y110035D01*
X2200100Y109783D01*
X2199911Y109535D01*
X2199716Y109291D01*
X2199516Y109053D01*
X2199309Y108819D01*
X2199097Y108591D01*
X2198879Y108368D01*
X2198656Y108150D01*
X2198428Y107938D01*
X2198194Y107731D01*
X2197956Y107531D01*
X2197712Y107336D01*
X2197464Y107147D01*
X2197212Y106965D01*
X2196955Y106788D01*
X2196693Y106618D01*
X2196428Y106455D01*
X2196159Y106298D01*
X2195886Y106148D01*
X2195609Y106004D01*
X2195329Y105867D01*
X2195046Y105738D01*
X2194759Y105615D01*
X2194470Y105499D01*
X2194178Y105390D01*
X2193883Y105289D01*
X2193586Y105195D01*
X2193286Y105108D01*
X2192985Y105029D01*
X2192682Y104957D01*
X2192377Y104892D01*
X2192070Y104835D01*
X2191762Y104785D01*
X2191454Y104744D01*
X2191144Y104709D01*
X2190833Y104682D01*
X2190522Y104663D01*
X2190211Y104652D01*
X2189899Y104648D01*
X2189587Y104652D01*
X2189276Y104663D01*
X2188965Y104682D01*
X2188654Y104709D01*
X2188344Y104744D01*
X2188036Y104785D01*
X2187728Y104835D01*
X2187421Y104892D01*
X2187116Y104957D01*
X2186813Y105029D01*
X2186512Y105108D01*
X2186212Y105195D01*
X2185915Y105289D01*
X2185620Y105390D01*
X2185328Y105499D01*
X2185039Y105615D01*
X2184752Y105738D01*
X2184469Y105867D01*
X2184189Y106004D01*
X2183912Y106148D01*
X2183639Y106298D01*
X2183370Y106455D01*
X2183105Y106618D01*
X2182843Y106788D01*
X2182586Y106965D01*
X2182334Y107147D01*
X2182086Y107336D01*
X2181842Y107531D01*
X2181604Y107731D01*
X2181370Y107938D01*
X2181142Y108150D01*
X2180919Y108368D01*
X2180701Y108591D01*
X2180489Y108819D01*
X2180282Y109053D01*
X2180082Y109291D01*
X2179887Y109535D01*
X2179698Y109783D01*
X2179516Y110035D01*
X2179339Y110292D01*
X2179169Y110554D01*
X2179006Y110819D01*
X2178849Y111088D01*
X2178699Y111361D01*
X2178555Y111638D01*
X2178418Y111918D01*
X2178289Y112201D01*
X2178166Y112488D01*
X2178050Y112777D01*
X2177941Y113069D01*
X2177840Y113364D01*
X2177746Y113661D01*
X2177659Y113961D01*
X2177580Y114262D01*
X2177508Y114565D01*
X2177443Y114870D01*
X2177386Y115177D01*
X2177336Y115485D01*
X2177295Y115793D01*
X2177260Y116103D01*
X2177233Y116414D01*
X2177214Y116725D01*
X2177203Y117036D01*
X2177199Y117348D01*
D11*
X1324602Y102977D02*
X1322695Y104884D01*
X1322695Y108697D01*
X1324602Y110604D01*
X1326509Y110604D01*
X1328415Y108697D01*
X1328415Y106790D01*
X1328415Y108697D02*
X1330322Y110604D01*
X1332228Y110604D01*
X1334135Y108697D01*
X1334135Y104884D01*
X1332228Y102977D01*
X1334135Y114671D02*
X1334135Y122298D01*
X1326509Y122298D02*
X1334135Y114671D01*
X1326509Y122298D02*
X1324602Y122298D01*
X1322695Y120391D01*
X1322695Y116578D01*
X1324602Y114671D01*
X1326509Y125204D02*
X1326509Y129017D01*
X1328415Y130924D01*
X1334135Y130924D01*
X1334135Y125204D01*
X1332228Y123297D01*
X1330322Y125204D01*
X1330322Y130924D01*
X1327779Y77584D02*
X1327779Y71864D01*
X1329685Y69957D01*
X1333498Y69957D01*
X1335405Y71864D01*
X1335405Y77584D01*
X2146925Y110864D02*
X2150739Y107051D01*
X2146925Y110864D02*
X2158365Y110864D01*
X2158365Y107051D02*
X2158365Y114678D01*
X2149469Y135628D02*
X2149469Y139441D01*
X2151375Y141348D01*
X2157095Y141348D01*
X2157095Y135628D01*
X2155188Y133721D01*
X2153282Y135628D01*
X2153282Y141348D01*
X2149469Y90548D02*
X2149469Y84828D01*
X2151375Y82921D01*
X2155188Y82921D01*
X2157095Y84828D01*
X2157095Y90548D01*
X1918335Y172085D02*
X1918335Y183525D01*
X1918335Y172085D02*
X1924055Y172085D01*
X1925962Y173992D01*
X1925962Y181618D01*
X1924055Y183525D01*
X1918335Y183525D01*
X1930029Y172085D02*
X1933842Y172085D01*
X1931936Y172085D02*
X1931936Y183525D01*
X1933842Y183525D02*
X1930029Y183525D01*
X1937825Y183525D02*
X1937825Y172085D01*
X1945451Y172085D02*
X1937825Y183525D01*
X1945451Y183525D02*
X1945451Y172085D01*
X1955239Y172085D02*
X1955239Y183525D01*
X1949519Y177805D01*
X1957145Y177805D01*
X1961213Y179712D02*
X1965026Y183525D01*
X1965026Y172085D01*
X1961213Y172085D02*
X1968839Y172085D01*
X1976720Y181618D02*
X1980533Y183525D01*
X1976720Y181618D02*
X1972907Y177805D01*
X1972907Y173992D01*
X1974813Y172085D01*
X1978627Y172085D01*
X1980533Y173992D01*
X1980533Y175898D01*
X1978627Y177805D01*
X1972907Y177805D01*
X1984601Y179712D02*
X1988414Y183525D01*
X1988414Y172085D01*
X1984601Y172085D02*
X1992227Y172085D01*
X1996295Y172085D02*
X2003921Y172085D01*
X1996295Y172085D02*
X2003921Y179712D01*
X2003921Y181618D01*
X2002015Y183525D01*
X1998201Y183525D01*
X1996295Y181618D01*
X2007989Y177805D02*
X2015615Y177805D01*
X2019683Y172085D02*
X2019683Y183525D01*
X2025403Y183525D01*
X2027309Y181618D01*
X2027309Y177805D01*
X2025403Y175898D01*
X2019683Y175898D01*
X2023496Y175898D02*
X2027309Y172085D01*
X1278262Y173355D02*
X1270635Y184795D01*
X1278262Y184795D02*
X1270635Y173355D01*
X1288049Y173355D02*
X1288049Y184795D01*
X1282329Y179075D01*
X1289955Y179075D01*
D12*
X825500Y234950D02*
X825500Y273050D01*
D10*
X825026Y273666D01*
X824537Y274271D01*
X824033Y274863D01*
X823515Y275443D01*
X822983Y276010D01*
X822437Y276564D01*
X821878Y277104D01*
X821305Y277630D01*
X820720Y278143D01*
X820123Y278640D01*
X819514Y279123D01*
X818893Y279591D01*
X818260Y280044D01*
X817617Y280481D01*
X816963Y280902D01*
X816299Y281306D01*
X815626Y281695D01*
X814943Y282067D01*
X814251Y282422D01*
X813551Y282760D01*
X812843Y283081D01*
X812127Y283384D01*
X811403Y283670D01*
X810674Y283938D01*
X809937Y284188D01*
X809195Y284419D01*
X808447Y284633D01*
X807695Y284828D01*
X806937Y285005D01*
X806176Y285163D01*
X805411Y285303D01*
X804643Y285423D01*
X803872Y285525D01*
X803099Y285608D01*
X802324Y285672D01*
X801548Y285717D01*
X800771Y285743D01*
X799993Y285750D01*
X799216Y285738D01*
X798439Y285707D01*
X797663Y285656D01*
X796888Y285587D01*
X796116Y285499D01*
X795346Y285392D01*
X794578Y285266D01*
X793814Y285122D01*
X793054Y284958D01*
X792298Y284776D01*
X791547Y284576D01*
X790800Y284358D01*
X790060Y284121D01*
X789325Y283866D01*
X788597Y283593D01*
X787876Y283302D01*
X787162Y282994D01*
X786456Y282669D01*
X785758Y282326D01*
X785068Y281966D01*
X784388Y281590D01*
X783717Y281197D01*
X783056Y280787D01*
X782405Y280362D01*
X781765Y279921D01*
X781136Y279464D01*
X780518Y278992D01*
X779912Y278505D01*
X779318Y278003D01*
X778736Y277487D01*
X778167Y276957D01*
X777612Y276413D01*
X777069Y275855D01*
X776541Y275285D01*
X776027Y274702D01*
X775527Y274106D01*
X775042Y273498D01*
X774572Y272879D01*
X774118Y272248D01*
X773679Y271606D01*
X773255Y270954D01*
X772848Y270291D01*
X772457Y269619D01*
X772083Y268937D01*
X771726Y268247D01*
X771386Y267548D01*
X771062Y266840D01*
X770757Y266126D01*
X770468Y265403D01*
X770198Y264674D01*
X769946Y263939D01*
X769711Y263197D01*
X769495Y262450D01*
X769297Y261698D01*
X769118Y260942D01*
X768957Y260181D01*
X768815Y259417D01*
X768692Y258649D01*
X768588Y257878D01*
X768502Y257105D01*
X768436Y256331D01*
X768388Y255555D01*
X768360Y254778D01*
X768350Y254000D01*
X768360Y253222D01*
X768388Y252445D01*
X768436Y251669D01*
X768502Y250895D01*
X768588Y250122D01*
X768692Y249351D01*
X768815Y248583D01*
X768957Y247819D01*
X769118Y247058D01*
X769297Y246302D01*
X769495Y245550D01*
X769711Y244803D01*
X769946Y244061D01*
X770198Y243326D01*
X770468Y242597D01*
X770757Y241874D01*
X771062Y241160D01*
X771386Y240452D01*
X771726Y239753D01*
X772083Y239063D01*
X772457Y238381D01*
X772848Y237709D01*
X773255Y237046D01*
X773679Y236394D01*
X774118Y235752D01*
X774572Y235121D01*
X775042Y234502D01*
X775527Y233894D01*
X776027Y233298D01*
X776541Y232715D01*
X777069Y232145D01*
X777612Y231587D01*
X778167Y231043D01*
X778736Y230513D01*
X779318Y229997D01*
X779912Y229495D01*
X780518Y229008D01*
X781136Y228536D01*
X781765Y228079D01*
X782405Y227638D01*
X783056Y227213D01*
X783717Y226803D01*
X784388Y226410D01*
X785068Y226034D01*
X785758Y225674D01*
X786456Y225331D01*
X787162Y225006D01*
X787876Y224698D01*
X788597Y224407D01*
X789325Y224134D01*
X790060Y223879D01*
X790800Y223642D01*
X791547Y223424D01*
X792298Y223224D01*
X793054Y223042D01*
X793814Y222878D01*
X794578Y222734D01*
X795346Y222608D01*
X796116Y222501D01*
X796888Y222413D01*
X797663Y222344D01*
X798439Y222293D01*
X799216Y222262D01*
X799993Y222250D01*
X800771Y222257D01*
X801548Y222283D01*
X802324Y222328D01*
X803099Y222392D01*
X803872Y222475D01*
X804643Y222577D01*
X805411Y222697D01*
X806176Y222837D01*
X806937Y222995D01*
X807695Y223172D01*
X808447Y223367D01*
X809195Y223581D01*
X809937Y223812D01*
X810674Y224062D01*
X811403Y224330D01*
X812127Y224616D01*
X812843Y224919D01*
X813551Y225240D01*
X814251Y225578D01*
X814943Y225933D01*
X815626Y226305D01*
X816299Y226694D01*
X816963Y227098D01*
X817617Y227519D01*
X818260Y227956D01*
X818893Y228409D01*
X819514Y228877D01*
X820123Y229360D01*
X820720Y229857D01*
X821305Y230370D01*
X821878Y230896D01*
X822437Y231436D01*
X822983Y231990D01*
X823515Y232557D01*
X824033Y233137D01*
X824537Y233729D01*
X825026Y234334D01*
X825500Y234950D01*
D13*
X774700Y254000D02*
X774708Y254623D01*
X774731Y255246D01*
X774769Y255869D01*
X774822Y256490D01*
X774891Y257109D01*
X774975Y257727D01*
X775074Y258342D01*
X775188Y258955D01*
X775317Y259565D01*
X775461Y260172D01*
X775620Y260775D01*
X775794Y261373D01*
X775982Y261968D01*
X776185Y262557D01*
X776402Y263141D01*
X776633Y263720D01*
X776879Y264293D01*
X777139Y264860D01*
X777412Y265420D01*
X777699Y265973D01*
X778000Y266520D01*
X778314Y267058D01*
X778641Y267589D01*
X778981Y268111D01*
X779333Y268626D01*
X779699Y269131D01*
X780076Y269627D01*
X780466Y270114D01*
X780867Y270591D01*
X781280Y271058D01*
X781704Y271514D01*
X782139Y271961D01*
X782586Y272396D01*
X783042Y272820D01*
X783509Y273233D01*
X783986Y273634D01*
X784473Y274024D01*
X784969Y274401D01*
X785474Y274767D01*
X785989Y275119D01*
X786511Y275459D01*
X787042Y275786D01*
X787580Y276100D01*
X788127Y276401D01*
X788680Y276688D01*
X789240Y276961D01*
X789807Y277221D01*
X790380Y277467D01*
X790959Y277698D01*
X791543Y277915D01*
X792132Y278118D01*
X792727Y278306D01*
X793325Y278480D01*
X793928Y278639D01*
X794535Y278783D01*
X795145Y278912D01*
X795758Y279026D01*
X796373Y279125D01*
X796991Y279209D01*
X797610Y279278D01*
X798231Y279331D01*
X798854Y279369D01*
X799477Y279392D01*
X800100Y279400D01*
X800723Y279392D01*
X801346Y279369D01*
X801969Y279331D01*
X802590Y279278D01*
X803209Y279209D01*
X803827Y279125D01*
X804442Y279026D01*
X805055Y278912D01*
X805665Y278783D01*
X806272Y278639D01*
X806875Y278480D01*
X807473Y278306D01*
X808068Y278118D01*
X808657Y277915D01*
X809241Y277698D01*
X809820Y277467D01*
X810393Y277221D01*
X810960Y276961D01*
X811520Y276688D01*
X812073Y276401D01*
X812620Y276100D01*
X813158Y275786D01*
X813689Y275459D01*
X814211Y275119D01*
X814726Y274767D01*
X815231Y274401D01*
X815727Y274024D01*
X816214Y273634D01*
X816691Y273233D01*
X817158Y272820D01*
X817614Y272396D01*
X818061Y271961D01*
X818496Y271514D01*
X818920Y271058D01*
X819333Y270591D01*
X819734Y270114D01*
X820124Y269627D01*
X820501Y269131D01*
X820867Y268626D01*
X821219Y268111D01*
X821559Y267589D01*
X821886Y267058D01*
X822200Y266520D01*
X822501Y265973D01*
X822788Y265420D01*
X823061Y264860D01*
X823321Y264293D01*
X823567Y263720D01*
X823798Y263141D01*
X824015Y262557D01*
X824218Y261968D01*
X824406Y261373D01*
X824580Y260775D01*
X824739Y260172D01*
X824883Y259565D01*
X825012Y258955D01*
X825126Y258342D01*
X825225Y257727D01*
X825309Y257109D01*
X825378Y256490D01*
X825431Y255869D01*
X825469Y255246D01*
X825492Y254623D01*
X825500Y254000D01*
X825492Y253377D01*
X825469Y252754D01*
X825431Y252131D01*
X825378Y251510D01*
X825309Y250891D01*
X825225Y250273D01*
X825126Y249658D01*
X825012Y249045D01*
X824883Y248435D01*
X824739Y247828D01*
X824580Y247225D01*
X824406Y246627D01*
X824218Y246032D01*
X824015Y245443D01*
X823798Y244859D01*
X823567Y244280D01*
X823321Y243707D01*
X823061Y243140D01*
X822788Y242580D01*
X822501Y242027D01*
X822200Y241480D01*
X821886Y240942D01*
X821559Y240411D01*
X821219Y239889D01*
X820867Y239374D01*
X820501Y238869D01*
X820124Y238373D01*
X819734Y237886D01*
X819333Y237409D01*
X818920Y236942D01*
X818496Y236486D01*
X818061Y236039D01*
X817614Y235604D01*
X817158Y235180D01*
X816691Y234767D01*
X816214Y234366D01*
X815727Y233976D01*
X815231Y233599D01*
X814726Y233233D01*
X814211Y232881D01*
X813689Y232541D01*
X813158Y232214D01*
X812620Y231900D01*
X812073Y231599D01*
X811520Y231312D01*
X810960Y231039D01*
X810393Y230779D01*
X809820Y230533D01*
X809241Y230302D01*
X808657Y230085D01*
X808068Y229882D01*
X807473Y229694D01*
X806875Y229520D01*
X806272Y229361D01*
X805665Y229217D01*
X805055Y229088D01*
X804442Y228974D01*
X803827Y228875D01*
X803209Y228791D01*
X802590Y228722D01*
X801969Y228669D01*
X801346Y228631D01*
X800723Y228608D01*
X800100Y228600D01*
X799477Y228608D01*
X798854Y228631D01*
X798231Y228669D01*
X797610Y228722D01*
X796991Y228791D01*
X796373Y228875D01*
X795758Y228974D01*
X795145Y229088D01*
X794535Y229217D01*
X793928Y229361D01*
X793325Y229520D01*
X792727Y229694D01*
X792132Y229882D01*
X791543Y230085D01*
X790959Y230302D01*
X790380Y230533D01*
X789807Y230779D01*
X789240Y231039D01*
X788680Y231312D01*
X788127Y231599D01*
X787580Y231900D01*
X787042Y232214D01*
X786511Y232541D01*
X785989Y232881D01*
X785474Y233233D01*
X784969Y233599D01*
X784473Y233976D01*
X783986Y234366D01*
X783509Y234767D01*
X783042Y235180D01*
X782586Y235604D01*
X782139Y236039D01*
X781704Y236486D01*
X781280Y236942D01*
X780867Y237409D01*
X780466Y237886D01*
X780076Y238373D01*
X779699Y238869D01*
X779333Y239374D01*
X778981Y239889D01*
X778641Y240411D01*
X778314Y240942D01*
X778000Y241480D01*
X777699Y242027D01*
X777412Y242580D01*
X777139Y243140D01*
X776879Y243707D01*
X776633Y244280D01*
X776402Y244859D01*
X776185Y245443D01*
X775982Y246032D01*
X775794Y246627D01*
X775620Y247225D01*
X775461Y247828D01*
X775317Y248435D01*
X775188Y249045D01*
X775074Y249658D01*
X774975Y250273D01*
X774891Y250891D01*
X774822Y251510D01*
X774769Y252131D01*
X774731Y252754D01*
X774708Y253377D01*
X774700Y254000D01*
D11*
X832485Y259969D02*
X832485Y271409D01*
X838205Y271409D01*
X840112Y269502D01*
X840112Y265689D01*
X838205Y263782D01*
X832485Y263782D01*
X844179Y259969D02*
X844179Y271409D01*
X847992Y263782D02*
X844179Y259969D01*
X847992Y263782D02*
X851805Y259969D01*
X851805Y271409D01*
X855873Y271409D02*
X855873Y259969D01*
X855873Y271409D02*
X861593Y271409D01*
X863499Y269502D01*
X863499Y265689D01*
X861593Y263782D01*
X855873Y263782D01*
X859686Y263782D02*
X863499Y259969D01*
X867567Y267596D02*
X871380Y271409D01*
X871380Y259969D01*
X867567Y259969D02*
X875193Y259969D01*
D13*
X981710Y242570D02*
X981810Y242572D01*
X981909Y242578D01*
X982009Y242588D01*
X982107Y242601D01*
X982206Y242619D01*
X982303Y242640D01*
X982399Y242665D01*
X982495Y242694D01*
X982589Y242727D01*
X982682Y242763D01*
X982773Y242803D01*
X982863Y242847D01*
X982951Y242894D01*
X983037Y242944D01*
X983121Y242998D01*
X983203Y243055D01*
X983282Y243115D01*
X983360Y243179D01*
X983434Y243245D01*
X983506Y243314D01*
X983575Y243386D01*
X983641Y243460D01*
X983705Y243538D01*
X983765Y243617D01*
X983822Y243699D01*
X983876Y243783D01*
X983926Y243869D01*
X983973Y243957D01*
X984017Y244047D01*
X984057Y244138D01*
X984093Y244231D01*
X984126Y244325D01*
X984155Y244421D01*
X984180Y244517D01*
X984201Y244614D01*
X984219Y244713D01*
X984232Y244811D01*
X984242Y244911D01*
X984248Y245010D01*
X984250Y245110D01*
X984250Y262890D02*
X984248Y262990D01*
X984242Y263089D01*
X984232Y263189D01*
X984219Y263287D01*
X984201Y263386D01*
X984180Y263483D01*
X984155Y263579D01*
X984126Y263675D01*
X984093Y263769D01*
X984057Y263862D01*
X984017Y263953D01*
X983973Y264043D01*
X983926Y264131D01*
X983876Y264217D01*
X983822Y264301D01*
X983765Y264383D01*
X983705Y264462D01*
X983641Y264540D01*
X983575Y264614D01*
X983506Y264686D01*
X983434Y264755D01*
X983360Y264821D01*
X983282Y264885D01*
X983203Y264945D01*
X983121Y265002D01*
X983037Y265056D01*
X982951Y265106D01*
X982863Y265153D01*
X982773Y265197D01*
X982682Y265237D01*
X982589Y265273D01*
X982495Y265306D01*
X982399Y265335D01*
X982303Y265360D01*
X982206Y265381D01*
X982107Y265399D01*
X982009Y265412D01*
X981909Y265422D01*
X981810Y265428D01*
X981710Y265430D01*
X923290Y265430D02*
X923190Y265428D01*
X923091Y265422D01*
X922991Y265412D01*
X922893Y265399D01*
X922794Y265381D01*
X922697Y265360D01*
X922601Y265335D01*
X922505Y265306D01*
X922411Y265273D01*
X922318Y265237D01*
X922227Y265197D01*
X922137Y265153D01*
X922049Y265106D01*
X921963Y265056D01*
X921879Y265002D01*
X921797Y264945D01*
X921718Y264885D01*
X921640Y264821D01*
X921566Y264755D01*
X921494Y264686D01*
X921425Y264614D01*
X921359Y264540D01*
X921295Y264462D01*
X921235Y264383D01*
X921178Y264301D01*
X921124Y264217D01*
X921074Y264131D01*
X921027Y264043D01*
X920983Y263953D01*
X920943Y263862D01*
X920907Y263769D01*
X920874Y263675D01*
X920845Y263579D01*
X920820Y263483D01*
X920799Y263386D01*
X920781Y263287D01*
X920768Y263189D01*
X920758Y263089D01*
X920752Y262990D01*
X920750Y262890D01*
X920750Y245110D02*
X920752Y245010D01*
X920758Y244911D01*
X920768Y244811D01*
X920781Y244713D01*
X920799Y244614D01*
X920820Y244517D01*
X920845Y244421D01*
X920874Y244325D01*
X920907Y244231D01*
X920943Y244138D01*
X920983Y244047D01*
X921027Y243957D01*
X921074Y243869D01*
X921124Y243783D01*
X921178Y243699D01*
X921235Y243617D01*
X921295Y243538D01*
X921359Y243460D01*
X921425Y243386D01*
X921494Y243314D01*
X921566Y243245D01*
X921640Y243179D01*
X921718Y243115D01*
X921797Y243055D01*
X921879Y242998D01*
X921963Y242944D01*
X922049Y242894D01*
X922137Y242847D01*
X922227Y242803D01*
X922318Y242763D01*
X922411Y242727D01*
X922505Y242694D01*
X922601Y242665D01*
X922697Y242640D01*
X922794Y242619D01*
X922893Y242601D01*
X922991Y242588D01*
X923091Y242578D01*
X923190Y242572D01*
X923290Y242570D01*
X984250Y245110D02*
X984250Y262890D01*
X981710Y242570D02*
X977900Y242570D01*
X976630Y243840D01*
X977900Y265430D02*
X981710Y265430D01*
X977900Y265430D02*
X976630Y264160D01*
X928370Y243840D02*
X927100Y242570D01*
X928370Y243840D02*
X976630Y243840D01*
X928370Y264160D02*
X927100Y265430D01*
X928370Y264160D02*
X976630Y264160D01*
X927100Y242570D02*
X923290Y242570D01*
X923290Y265430D02*
X927100Y265430D01*
X920750Y262890D02*
X920750Y245110D01*
D14*
X916432Y254000D03*
X988568Y254000D03*
D11*
X960227Y238135D02*
X960227Y226695D01*
X960227Y238135D02*
X965947Y238135D01*
X967854Y236228D01*
X967854Y232415D01*
X965947Y230508D01*
X960227Y230508D01*
X964040Y230508D02*
X967854Y226695D01*
X971921Y234322D02*
X975734Y238135D01*
X975734Y226695D01*
X971921Y226695D02*
X979548Y226695D01*
D12*
X1574800Y234950D02*
X1574800Y273050D01*
D10*
X1574326Y273666D01*
X1573837Y274271D01*
X1573333Y274863D01*
X1572815Y275443D01*
X1572283Y276010D01*
X1571737Y276564D01*
X1571178Y277104D01*
X1570605Y277630D01*
X1570020Y278143D01*
X1569423Y278640D01*
X1568814Y279123D01*
X1568193Y279591D01*
X1567560Y280044D01*
X1566917Y280481D01*
X1566263Y280902D01*
X1565599Y281306D01*
X1564926Y281695D01*
X1564243Y282067D01*
X1563551Y282422D01*
X1562851Y282760D01*
X1562143Y283081D01*
X1561427Y283384D01*
X1560703Y283670D01*
X1559974Y283938D01*
X1559237Y284188D01*
X1558495Y284419D01*
X1557747Y284633D01*
X1556995Y284828D01*
X1556237Y285005D01*
X1555476Y285163D01*
X1554711Y285303D01*
X1553943Y285423D01*
X1553172Y285525D01*
X1552399Y285608D01*
X1551624Y285672D01*
X1550848Y285717D01*
X1550071Y285743D01*
X1549293Y285750D01*
X1548516Y285738D01*
X1547739Y285707D01*
X1546963Y285656D01*
X1546188Y285587D01*
X1545416Y285499D01*
X1544646Y285392D01*
X1543878Y285266D01*
X1543114Y285122D01*
X1542354Y284958D01*
X1541598Y284776D01*
X1540847Y284576D01*
X1540100Y284358D01*
X1539360Y284121D01*
X1538625Y283866D01*
X1537897Y283593D01*
X1537176Y283302D01*
X1536462Y282994D01*
X1535756Y282669D01*
X1535058Y282326D01*
X1534368Y281966D01*
X1533688Y281590D01*
X1533017Y281197D01*
X1532356Y280787D01*
X1531705Y280362D01*
X1531065Y279921D01*
X1530436Y279464D01*
X1529818Y278992D01*
X1529212Y278505D01*
X1528618Y278003D01*
X1528036Y277487D01*
X1527467Y276957D01*
X1526912Y276413D01*
X1526369Y275855D01*
X1525841Y275285D01*
X1525327Y274702D01*
X1524827Y274106D01*
X1524342Y273498D01*
X1523872Y272879D01*
X1523418Y272248D01*
X1522979Y271606D01*
X1522555Y270954D01*
X1522148Y270291D01*
X1521757Y269619D01*
X1521383Y268937D01*
X1521026Y268247D01*
X1520686Y267548D01*
X1520362Y266840D01*
X1520057Y266126D01*
X1519768Y265403D01*
X1519498Y264674D01*
X1519246Y263939D01*
X1519011Y263197D01*
X1518795Y262450D01*
X1518597Y261698D01*
X1518418Y260942D01*
X1518257Y260181D01*
X1518115Y259417D01*
X1517992Y258649D01*
X1517888Y257878D01*
X1517802Y257105D01*
X1517736Y256331D01*
X1517688Y255555D01*
X1517660Y254778D01*
X1517650Y254000D01*
X1517660Y253222D01*
X1517688Y252445D01*
X1517736Y251669D01*
X1517802Y250895D01*
X1517888Y250122D01*
X1517992Y249351D01*
X1518115Y248583D01*
X1518257Y247819D01*
X1518418Y247058D01*
X1518597Y246302D01*
X1518795Y245550D01*
X1519011Y244803D01*
X1519246Y244061D01*
X1519498Y243326D01*
X1519768Y242597D01*
X1520057Y241874D01*
X1520362Y241160D01*
X1520686Y240452D01*
X1521026Y239753D01*
X1521383Y239063D01*
X1521757Y238381D01*
X1522148Y237709D01*
X1522555Y237046D01*
X1522979Y236394D01*
X1523418Y235752D01*
X1523872Y235121D01*
X1524342Y234502D01*
X1524827Y233894D01*
X1525327Y233298D01*
X1525841Y232715D01*
X1526369Y232145D01*
X1526912Y231587D01*
X1527467Y231043D01*
X1528036Y230513D01*
X1528618Y229997D01*
X1529212Y229495D01*
X1529818Y229008D01*
X1530436Y228536D01*
X1531065Y228079D01*
X1531705Y227638D01*
X1532356Y227213D01*
X1533017Y226803D01*
X1533688Y226410D01*
X1534368Y226034D01*
X1535058Y225674D01*
X1535756Y225331D01*
X1536462Y225006D01*
X1537176Y224698D01*
X1537897Y224407D01*
X1538625Y224134D01*
X1539360Y223879D01*
X1540100Y223642D01*
X1540847Y223424D01*
X1541598Y223224D01*
X1542354Y223042D01*
X1543114Y222878D01*
X1543878Y222734D01*
X1544646Y222608D01*
X1545416Y222501D01*
X1546188Y222413D01*
X1546963Y222344D01*
X1547739Y222293D01*
X1548516Y222262D01*
X1549293Y222250D01*
X1550071Y222257D01*
X1550848Y222283D01*
X1551624Y222328D01*
X1552399Y222392D01*
X1553172Y222475D01*
X1553943Y222577D01*
X1554711Y222697D01*
X1555476Y222837D01*
X1556237Y222995D01*
X1556995Y223172D01*
X1557747Y223367D01*
X1558495Y223581D01*
X1559237Y223812D01*
X1559974Y224062D01*
X1560703Y224330D01*
X1561427Y224616D01*
X1562143Y224919D01*
X1562851Y225240D01*
X1563551Y225578D01*
X1564243Y225933D01*
X1564926Y226305D01*
X1565599Y226694D01*
X1566263Y227098D01*
X1566917Y227519D01*
X1567560Y227956D01*
X1568193Y228409D01*
X1568814Y228877D01*
X1569423Y229360D01*
X1570020Y229857D01*
X1570605Y230370D01*
X1571178Y230896D01*
X1571737Y231436D01*
X1572283Y231990D01*
X1572815Y232557D01*
X1573333Y233137D01*
X1573837Y233729D01*
X1574326Y234334D01*
X1574800Y234950D01*
D13*
X1524000Y254000D02*
X1524008Y254623D01*
X1524031Y255246D01*
X1524069Y255869D01*
X1524122Y256490D01*
X1524191Y257109D01*
X1524275Y257727D01*
X1524374Y258342D01*
X1524488Y258955D01*
X1524617Y259565D01*
X1524761Y260172D01*
X1524920Y260775D01*
X1525094Y261373D01*
X1525282Y261968D01*
X1525485Y262557D01*
X1525702Y263141D01*
X1525933Y263720D01*
X1526179Y264293D01*
X1526439Y264860D01*
X1526712Y265420D01*
X1526999Y265973D01*
X1527300Y266520D01*
X1527614Y267058D01*
X1527941Y267589D01*
X1528281Y268111D01*
X1528633Y268626D01*
X1528999Y269131D01*
X1529376Y269627D01*
X1529766Y270114D01*
X1530167Y270591D01*
X1530580Y271058D01*
X1531004Y271514D01*
X1531439Y271961D01*
X1531886Y272396D01*
X1532342Y272820D01*
X1532809Y273233D01*
X1533286Y273634D01*
X1533773Y274024D01*
X1534269Y274401D01*
X1534774Y274767D01*
X1535289Y275119D01*
X1535811Y275459D01*
X1536342Y275786D01*
X1536880Y276100D01*
X1537427Y276401D01*
X1537980Y276688D01*
X1538540Y276961D01*
X1539107Y277221D01*
X1539680Y277467D01*
X1540259Y277698D01*
X1540843Y277915D01*
X1541432Y278118D01*
X1542027Y278306D01*
X1542625Y278480D01*
X1543228Y278639D01*
X1543835Y278783D01*
X1544445Y278912D01*
X1545058Y279026D01*
X1545673Y279125D01*
X1546291Y279209D01*
X1546910Y279278D01*
X1547531Y279331D01*
X1548154Y279369D01*
X1548777Y279392D01*
X1549400Y279400D01*
X1550023Y279392D01*
X1550646Y279369D01*
X1551269Y279331D01*
X1551890Y279278D01*
X1552509Y279209D01*
X1553127Y279125D01*
X1553742Y279026D01*
X1554355Y278912D01*
X1554965Y278783D01*
X1555572Y278639D01*
X1556175Y278480D01*
X1556773Y278306D01*
X1557368Y278118D01*
X1557957Y277915D01*
X1558541Y277698D01*
X1559120Y277467D01*
X1559693Y277221D01*
X1560260Y276961D01*
X1560820Y276688D01*
X1561373Y276401D01*
X1561920Y276100D01*
X1562458Y275786D01*
X1562989Y275459D01*
X1563511Y275119D01*
X1564026Y274767D01*
X1564531Y274401D01*
X1565027Y274024D01*
X1565514Y273634D01*
X1565991Y273233D01*
X1566458Y272820D01*
X1566914Y272396D01*
X1567361Y271961D01*
X1567796Y271514D01*
X1568220Y271058D01*
X1568633Y270591D01*
X1569034Y270114D01*
X1569424Y269627D01*
X1569801Y269131D01*
X1570167Y268626D01*
X1570519Y268111D01*
X1570859Y267589D01*
X1571186Y267058D01*
X1571500Y266520D01*
X1571801Y265973D01*
X1572088Y265420D01*
X1572361Y264860D01*
X1572621Y264293D01*
X1572867Y263720D01*
X1573098Y263141D01*
X1573315Y262557D01*
X1573518Y261968D01*
X1573706Y261373D01*
X1573880Y260775D01*
X1574039Y260172D01*
X1574183Y259565D01*
X1574312Y258955D01*
X1574426Y258342D01*
X1574525Y257727D01*
X1574609Y257109D01*
X1574678Y256490D01*
X1574731Y255869D01*
X1574769Y255246D01*
X1574792Y254623D01*
X1574800Y254000D01*
X1574792Y253377D01*
X1574769Y252754D01*
X1574731Y252131D01*
X1574678Y251510D01*
X1574609Y250891D01*
X1574525Y250273D01*
X1574426Y249658D01*
X1574312Y249045D01*
X1574183Y248435D01*
X1574039Y247828D01*
X1573880Y247225D01*
X1573706Y246627D01*
X1573518Y246032D01*
X1573315Y245443D01*
X1573098Y244859D01*
X1572867Y244280D01*
X1572621Y243707D01*
X1572361Y243140D01*
X1572088Y242580D01*
X1571801Y242027D01*
X1571500Y241480D01*
X1571186Y240942D01*
X1570859Y240411D01*
X1570519Y239889D01*
X1570167Y239374D01*
X1569801Y238869D01*
X1569424Y238373D01*
X1569034Y237886D01*
X1568633Y237409D01*
X1568220Y236942D01*
X1567796Y236486D01*
X1567361Y236039D01*
X1566914Y235604D01*
X1566458Y235180D01*
X1565991Y234767D01*
X1565514Y234366D01*
X1565027Y233976D01*
X1564531Y233599D01*
X1564026Y233233D01*
X1563511Y232881D01*
X1562989Y232541D01*
X1562458Y232214D01*
X1561920Y231900D01*
X1561373Y231599D01*
X1560820Y231312D01*
X1560260Y231039D01*
X1559693Y230779D01*
X1559120Y230533D01*
X1558541Y230302D01*
X1557957Y230085D01*
X1557368Y229882D01*
X1556773Y229694D01*
X1556175Y229520D01*
X1555572Y229361D01*
X1554965Y229217D01*
X1554355Y229088D01*
X1553742Y228974D01*
X1553127Y228875D01*
X1552509Y228791D01*
X1551890Y228722D01*
X1551269Y228669D01*
X1550646Y228631D01*
X1550023Y228608D01*
X1549400Y228600D01*
X1548777Y228608D01*
X1548154Y228631D01*
X1547531Y228669D01*
X1546910Y228722D01*
X1546291Y228791D01*
X1545673Y228875D01*
X1545058Y228974D01*
X1544445Y229088D01*
X1543835Y229217D01*
X1543228Y229361D01*
X1542625Y229520D01*
X1542027Y229694D01*
X1541432Y229882D01*
X1540843Y230085D01*
X1540259Y230302D01*
X1539680Y230533D01*
X1539107Y230779D01*
X1538540Y231039D01*
X1537980Y231312D01*
X1537427Y231599D01*
X1536880Y231900D01*
X1536342Y232214D01*
X1535811Y232541D01*
X1535289Y232881D01*
X1534774Y233233D01*
X1534269Y233599D01*
X1533773Y233976D01*
X1533286Y234366D01*
X1532809Y234767D01*
X1532342Y235180D01*
X1531886Y235604D01*
X1531439Y236039D01*
X1531004Y236486D01*
X1530580Y236942D01*
X1530167Y237409D01*
X1529766Y237886D01*
X1529376Y238373D01*
X1528999Y238869D01*
X1528633Y239374D01*
X1528281Y239889D01*
X1527941Y240411D01*
X1527614Y240942D01*
X1527300Y241480D01*
X1526999Y242027D01*
X1526712Y242580D01*
X1526439Y243140D01*
X1526179Y243707D01*
X1525933Y244280D01*
X1525702Y244859D01*
X1525485Y245443D01*
X1525282Y246032D01*
X1525094Y246627D01*
X1524920Y247225D01*
X1524761Y247828D01*
X1524617Y248435D01*
X1524488Y249045D01*
X1524374Y249658D01*
X1524275Y250273D01*
X1524191Y250891D01*
X1524122Y251510D01*
X1524069Y252131D01*
X1524031Y252754D01*
X1524008Y253377D01*
X1524000Y254000D01*
D11*
X1581785Y259969D02*
X1581785Y271409D01*
X1587505Y271409D01*
X1589412Y269502D01*
X1589412Y265689D01*
X1587505Y263782D01*
X1581785Y263782D01*
X1593479Y259969D02*
X1593479Y271409D01*
X1597292Y263782D02*
X1593479Y259969D01*
X1597292Y263782D02*
X1601105Y259969D01*
X1601105Y271409D01*
X1605173Y271409D02*
X1605173Y259969D01*
X1605173Y271409D02*
X1610893Y271409D01*
X1612799Y269502D01*
X1612799Y265689D01*
X1610893Y263782D01*
X1605173Y263782D01*
X1608986Y263782D02*
X1612799Y259969D01*
X1616867Y259969D02*
X1624493Y259969D01*
X1616867Y259969D02*
X1624493Y267596D01*
X1624493Y269502D01*
X1622587Y271409D01*
X1618774Y271409D01*
X1616867Y269502D01*
D13*
X1416050Y245110D02*
X1416048Y245010D01*
X1416042Y244911D01*
X1416032Y244811D01*
X1416019Y244713D01*
X1416001Y244614D01*
X1415980Y244517D01*
X1415955Y244421D01*
X1415926Y244325D01*
X1415893Y244231D01*
X1415857Y244138D01*
X1415817Y244047D01*
X1415773Y243957D01*
X1415726Y243869D01*
X1415676Y243783D01*
X1415622Y243699D01*
X1415565Y243617D01*
X1415505Y243538D01*
X1415441Y243460D01*
X1415375Y243386D01*
X1415306Y243314D01*
X1415234Y243245D01*
X1415160Y243179D01*
X1415082Y243115D01*
X1415003Y243055D01*
X1414921Y242998D01*
X1414837Y242944D01*
X1414751Y242894D01*
X1414663Y242847D01*
X1414573Y242803D01*
X1414482Y242763D01*
X1414389Y242727D01*
X1414295Y242694D01*
X1414199Y242665D01*
X1414103Y242640D01*
X1414006Y242619D01*
X1413907Y242601D01*
X1413809Y242588D01*
X1413709Y242578D01*
X1413610Y242572D01*
X1413510Y242570D01*
X1416050Y262890D02*
X1416048Y262990D01*
X1416042Y263089D01*
X1416032Y263189D01*
X1416019Y263287D01*
X1416001Y263386D01*
X1415980Y263483D01*
X1415955Y263579D01*
X1415926Y263675D01*
X1415893Y263769D01*
X1415857Y263862D01*
X1415817Y263953D01*
X1415773Y264043D01*
X1415726Y264131D01*
X1415676Y264217D01*
X1415622Y264301D01*
X1415565Y264383D01*
X1415505Y264462D01*
X1415441Y264540D01*
X1415375Y264614D01*
X1415306Y264686D01*
X1415234Y264755D01*
X1415160Y264821D01*
X1415082Y264885D01*
X1415003Y264945D01*
X1414921Y265002D01*
X1414837Y265056D01*
X1414751Y265106D01*
X1414663Y265153D01*
X1414573Y265197D01*
X1414482Y265237D01*
X1414389Y265273D01*
X1414295Y265306D01*
X1414199Y265335D01*
X1414103Y265360D01*
X1414006Y265381D01*
X1413907Y265399D01*
X1413809Y265412D01*
X1413709Y265422D01*
X1413610Y265428D01*
X1413510Y265430D01*
X1355090Y265430D02*
X1354990Y265428D01*
X1354891Y265422D01*
X1354791Y265412D01*
X1354693Y265399D01*
X1354594Y265381D01*
X1354497Y265360D01*
X1354401Y265335D01*
X1354305Y265306D01*
X1354211Y265273D01*
X1354118Y265237D01*
X1354027Y265197D01*
X1353937Y265153D01*
X1353849Y265106D01*
X1353763Y265056D01*
X1353679Y265002D01*
X1353597Y264945D01*
X1353518Y264885D01*
X1353440Y264821D01*
X1353366Y264755D01*
X1353294Y264686D01*
X1353225Y264614D01*
X1353159Y264540D01*
X1353095Y264462D01*
X1353035Y264383D01*
X1352978Y264301D01*
X1352924Y264217D01*
X1352874Y264131D01*
X1352827Y264043D01*
X1352783Y263953D01*
X1352743Y263862D01*
X1352707Y263769D01*
X1352674Y263675D01*
X1352645Y263579D01*
X1352620Y263483D01*
X1352599Y263386D01*
X1352581Y263287D01*
X1352568Y263189D01*
X1352558Y263089D01*
X1352552Y262990D01*
X1352550Y262890D01*
X1352550Y245110D02*
X1352552Y245010D01*
X1352558Y244911D01*
X1352568Y244811D01*
X1352581Y244713D01*
X1352599Y244614D01*
X1352620Y244517D01*
X1352645Y244421D01*
X1352674Y244325D01*
X1352707Y244231D01*
X1352743Y244138D01*
X1352783Y244047D01*
X1352827Y243957D01*
X1352874Y243869D01*
X1352924Y243783D01*
X1352978Y243699D01*
X1353035Y243617D01*
X1353095Y243538D01*
X1353159Y243460D01*
X1353225Y243386D01*
X1353294Y243314D01*
X1353366Y243245D01*
X1353440Y243179D01*
X1353518Y243115D01*
X1353597Y243055D01*
X1353679Y242998D01*
X1353763Y242944D01*
X1353849Y242894D01*
X1353937Y242847D01*
X1354027Y242803D01*
X1354118Y242763D01*
X1354211Y242727D01*
X1354305Y242694D01*
X1354401Y242665D01*
X1354497Y242640D01*
X1354594Y242619D01*
X1354693Y242601D01*
X1354791Y242588D01*
X1354891Y242578D01*
X1354990Y242572D01*
X1355090Y242570D01*
X1416050Y245110D02*
X1416050Y262890D01*
X1413510Y242570D02*
X1409700Y242570D01*
X1408430Y243840D01*
X1409700Y265430D02*
X1413510Y265430D01*
X1409700Y265430D02*
X1408430Y264160D01*
X1360170Y243840D02*
X1358900Y242570D01*
X1360170Y243840D02*
X1408430Y243840D01*
X1360170Y264160D02*
X1358900Y265430D01*
X1360170Y264160D02*
X1408430Y264160D01*
X1358900Y242570D02*
X1355090Y242570D01*
X1355090Y265430D02*
X1358900Y265430D01*
X1352550Y262890D02*
X1352550Y245110D01*
D14*
X1348232Y254000D03*
X1420368Y254000D03*
D11*
X1392027Y238135D02*
X1392027Y226695D01*
X1392027Y238135D02*
X1397747Y238135D01*
X1399654Y236228D01*
X1399654Y232415D01*
X1397747Y230508D01*
X1392027Y230508D01*
X1395840Y230508D02*
X1399654Y226695D01*
X1403721Y226695D02*
X1411348Y226695D01*
X1403721Y226695D02*
X1411348Y234322D01*
X1411348Y236228D01*
X1409441Y238135D01*
X1405628Y238135D01*
X1403721Y236228D01*
D13*
X1155700Y27940D02*
X1153160Y25400D01*
X1155700Y27940D02*
X1158240Y25400D01*
X1155700Y48260D02*
X1153160Y50800D01*
X1155700Y48260D02*
X1158240Y50800D01*
X1178560Y50800D01*
X1181100Y48260D01*
X1132840Y50800D02*
X1130300Y48260D01*
X1132840Y50800D02*
X1153160Y50800D01*
X1130300Y48260D02*
X1130300Y27940D01*
X1132840Y25400D01*
X1153160Y25400D01*
X1158240Y25400D02*
X1178560Y25400D01*
X1181100Y27940D01*
X1181100Y48260D01*
D11*
X1146653Y11432D02*
X1148560Y9525D01*
X1150466Y9525D01*
X1152373Y11432D01*
X1152373Y20965D01*
X1150466Y20965D02*
X1154280Y20965D01*
X1158347Y20965D02*
X1158347Y9525D01*
X1158347Y20965D02*
X1164067Y20965D01*
X1165974Y19058D01*
X1165974Y15245D01*
X1164067Y13338D01*
X1158347Y13338D01*
X1170041Y17152D02*
X1173854Y20965D01*
X1173854Y9525D01*
X1170041Y9525D02*
X1177667Y9525D01*
M02*
