G04 EAGLE Gerber RS-274X export*
G75*
%MOMM*%
%FSLAX34Y34*%
%LPD*%
%INSoldermask Top*%
%IPPOS*%
%AMOC8*
5,1,8,0,0,1.08239X$1,22.5*%
G01*
%ADD10P,1.622070X8X292.500000*%
%ADD11C,2.921000*%
%ADD12P,1.457113X8X22.500000*%
%ADD13P,1.457113X8X202.500000*%
%ADD14C,1.498600*%
%ADD15C,0.584200*%


D10*
X965200Y139700D03*
X939800Y139700D03*
X914400Y139700D03*
X889000Y139700D03*
X863600Y139700D03*
X838200Y139700D03*
X812800Y139700D03*
X787400Y139700D03*
X762000Y139700D03*
X736600Y139700D03*
X711200Y139700D03*
X685800Y139700D03*
X660400Y139700D03*
X635000Y139700D03*
X609600Y139700D03*
X584200Y139700D03*
X965200Y88900D03*
X939800Y88900D03*
X914400Y88900D03*
X889000Y88900D03*
X863600Y88900D03*
X838200Y88900D03*
X812800Y88900D03*
X787400Y88900D03*
X762000Y88900D03*
X736600Y88900D03*
X711200Y88900D03*
X685800Y88900D03*
X660400Y88900D03*
X635000Y88900D03*
X609600Y88900D03*
X584200Y88900D03*
X965200Y114300D03*
X939800Y114300D03*
X914400Y114300D03*
X889000Y114300D03*
X863600Y114300D03*
X838200Y114300D03*
X812800Y114300D03*
X787400Y114300D03*
X762000Y114300D03*
X736600Y114300D03*
X711200Y114300D03*
X685800Y114300D03*
X660400Y114300D03*
X635000Y114300D03*
X609600Y114300D03*
X584200Y114300D03*
X558800Y139700D03*
X533400Y139700D03*
X508000Y139700D03*
X482600Y139700D03*
X457200Y139700D03*
X431800Y139700D03*
X406400Y139700D03*
X381000Y139700D03*
X355600Y139700D03*
X330200Y139700D03*
X304800Y139700D03*
X279400Y139700D03*
X254000Y139700D03*
X228600Y139700D03*
X203200Y139700D03*
X177800Y139700D03*
X558800Y88900D03*
X533400Y88900D03*
X508000Y88900D03*
X482600Y88900D03*
X457200Y88900D03*
X431800Y88900D03*
X406400Y88900D03*
X381000Y88900D03*
X355600Y88900D03*
X330200Y88900D03*
X304800Y88900D03*
X279400Y88900D03*
X254000Y88900D03*
X228600Y88900D03*
X203200Y88900D03*
X177800Y88900D03*
X558800Y114300D03*
X533400Y114300D03*
X508000Y114300D03*
X482600Y114300D03*
X457200Y114300D03*
X431800Y114300D03*
X406400Y114300D03*
X381000Y114300D03*
X355600Y114300D03*
X330200Y114300D03*
X304800Y114300D03*
X279400Y114300D03*
X254000Y114300D03*
X228600Y114300D03*
X203200Y114300D03*
X177800Y114300D03*
D11*
X1021499Y117348D03*
X121501Y117348D03*
D10*
X2133600Y139700D03*
X2108200Y139700D03*
X2082800Y139700D03*
X2057400Y139700D03*
X2032000Y139700D03*
X2006600Y139700D03*
X1981200Y139700D03*
X1955800Y139700D03*
X1930400Y139700D03*
X1905000Y139700D03*
X1879600Y139700D03*
X1854200Y139700D03*
X1828800Y139700D03*
X1803400Y139700D03*
X1778000Y139700D03*
X1752600Y139700D03*
X2133600Y88900D03*
X2108200Y88900D03*
X2082800Y88900D03*
X2057400Y88900D03*
X2032000Y88900D03*
X2006600Y88900D03*
X1981200Y88900D03*
X1955800Y88900D03*
X1930400Y88900D03*
X1905000Y88900D03*
X1879600Y88900D03*
X1854200Y88900D03*
X1828800Y88900D03*
X1803400Y88900D03*
X1778000Y88900D03*
X1752600Y88900D03*
X2133600Y114300D03*
X2108200Y114300D03*
X2082800Y114300D03*
X2057400Y114300D03*
X2032000Y114300D03*
X2006600Y114300D03*
X1981200Y114300D03*
X1955800Y114300D03*
X1930400Y114300D03*
X1905000Y114300D03*
X1879600Y114300D03*
X1854200Y114300D03*
X1828800Y114300D03*
X1803400Y114300D03*
X1778000Y114300D03*
X1752600Y114300D03*
X1727200Y139700D03*
X1701800Y139700D03*
X1676400Y139700D03*
X1651000Y139700D03*
X1625600Y139700D03*
X1600200Y139700D03*
X1574800Y139700D03*
X1549400Y139700D03*
X1524000Y139700D03*
X1498600Y139700D03*
X1473200Y139700D03*
X1447800Y139700D03*
X1422400Y139700D03*
X1397000Y139700D03*
X1371600Y139700D03*
X1346200Y139700D03*
X1727200Y88900D03*
X1701800Y88900D03*
X1676400Y88900D03*
X1651000Y88900D03*
X1625600Y88900D03*
X1600200Y88900D03*
X1574800Y88900D03*
X1549400Y88900D03*
X1524000Y88900D03*
X1498600Y88900D03*
X1473200Y88900D03*
X1447800Y88900D03*
X1422400Y88900D03*
X1397000Y88900D03*
X1371600Y88900D03*
X1346200Y88900D03*
X1727200Y114300D03*
X1701800Y114300D03*
X1676400Y114300D03*
X1651000Y114300D03*
X1625600Y114300D03*
X1600200Y114300D03*
X1574800Y114300D03*
X1549400Y114300D03*
X1524000Y114300D03*
X1498600Y114300D03*
X1473200Y114300D03*
X1447800Y114300D03*
X1422400Y114300D03*
X1397000Y114300D03*
X1371600Y114300D03*
X1346200Y114300D03*
D11*
X2189899Y117348D03*
X1289901Y117348D03*
D12*
X787400Y254000D03*
X812800Y254000D03*
D13*
X1003300Y254000D03*
X901700Y254000D03*
D12*
X1536700Y254000D03*
X1562100Y254000D03*
D13*
X1435100Y254000D03*
X1333500Y254000D03*
D14*
X1168400Y44958D02*
X1168400Y31242D01*
X1143000Y31242D02*
X1143000Y44958D01*
D15*
X990600Y152400D03*
X2082800Y177800D03*
X889000Y228600D03*
X952500Y266700D03*
X1200150Y273050D03*
X1250950Y165100D03*
X2057400Y184150D03*
X977900Y184150D03*
X2032000Y196850D03*
X2006600Y209550D03*
X825500Y304800D03*
X1460500Y241300D03*
X1981200Y234950D03*
X762000Y222250D03*
X1416050Y533400D03*
X1930400Y311150D03*
X1701800Y527050D03*
X698500Y825500D03*
X1447800Y762000D03*
X1682750Y527050D03*
X1879600Y406400D03*
X1206500Y317500D03*
X1612900Y323850D03*
X1638300Y285750D03*
X1822450Y279400D03*
X685800Y304800D03*
X1587500Y330200D03*
X1600200Y228600D03*
X1822450Y222250D03*
X628650Y368300D03*
X762000Y342900D03*
X1835150Y317500D03*
X622300Y215900D03*
X762000Y241300D03*
X920750Y355600D03*
X1778000Y355600D03*
X584200Y304800D03*
X1752600Y368300D03*
X571500Y342900D03*
X1714500Y381000D03*
X457200Y241300D03*
X660400Y241300D03*
X723900Y393700D03*
X1701800Y393700D03*
X527050Y361950D03*
X1524000Y406400D03*
X527050Y387350D03*
X1587500Y419100D03*
X501650Y425450D03*
X1562100Y431800D03*
X463550Y304800D03*
X1574800Y438150D03*
X438150Y342900D03*
X1682750Y406400D03*
X1511300Y469900D03*
X1498600Y482600D03*
X330200Y546100D03*
X558800Y546100D03*
X577850Y495300D03*
X1485900Y495300D03*
X317500Y374650D03*
X1460500Y508000D03*
X292100Y285750D03*
X1428750Y520700D03*
X279400Y571500D03*
X304800Y546100D03*
X1397000Y533400D03*
X171450Y209550D03*
X558800Y584200D03*
X571500Y762000D03*
X1295400Y762000D03*
X1308100Y234950D03*
X984250Y127000D03*
X1054100Y685800D03*
X977900Y685800D03*
X977900Y952500D03*
X1790700Y952500D03*
X1981200Y857250D03*
X933450Y266700D03*
X2032000Y215900D03*
X838200Y736600D03*
X1739900Y736600D03*
X1835150Y546100D03*
X1981200Y400050D03*
X850900Y546100D03*
X1981200Y323850D03*
X1136650Y685800D03*
X1917700Y628650D03*
X774700Y571500D03*
X1930400Y571500D03*
X863600Y584200D03*
X1917700Y584200D03*
X723900Y342900D03*
X787400Y355600D03*
X787400Y584200D03*
X1739900Y596900D03*
X673100Y266700D03*
X698500Y577850D03*
X1860550Y609600D03*
X787400Y622300D03*
X1771650Y622300D03*
X673100Y635000D03*
X1739900Y635000D03*
X622300Y304800D03*
X660400Y342900D03*
X660400Y622300D03*
X2082800Y444500D03*
X2203450Y44450D03*
X1397000Y260350D03*
X546100Y628650D03*
X1739900Y660400D03*
X1822450Y323850D03*
X400050Y292100D03*
X419100Y628650D03*
X1651000Y673100D03*
X1651000Y406400D03*
X457200Y184150D03*
X488950Y495300D03*
X514350Y685800D03*
X1625600Y723900D03*
X1676400Y311150D03*
X742950Y685800D03*
X1625600Y698500D03*
X1663700Y222250D03*
X508000Y222250D03*
X812800Y711200D03*
X1447800Y711200D03*
X1600200Y438150D03*
X1625600Y412750D03*
X444500Y209550D03*
X1016000Y228600D03*
X1301750Y279400D03*
X387350Y323850D03*
X1606550Y311150D03*
X368300Y285750D03*
X342900Y717550D03*
X1460500Y749300D03*
X1612900Y406400D03*
X1168400Y558800D03*
X266700Y628650D03*
X1333500Y774700D03*
X1397000Y241300D03*
X241300Y628650D03*
X1003300Y787400D03*
X1073150Y241300D03*
X228600Y222250D03*
X571500Y825500D03*
X1301750Y800100D03*
X1327150Y127000D03*
X1784350Y69850D03*
X596900Y615950D03*
X685800Y812800D03*
X1003300Y812800D03*
X1098550Y101600D03*
X990600Y82550D03*
X1314450Y831850D03*
X2133600Y171450D03*
X787400Y177800D03*
X869950Y838200D03*
X1041400Y228600D03*
X965200Y850900D03*
X1879600Y863600D03*
X990600Y228600D03*
X1384300Y825500D03*
X876300Y247650D03*
X882650Y850900D03*
X2184400Y82550D03*
X2095500Y6350D03*
X2063750Y19050D03*
X406400Y311150D03*
X501650Y838200D03*
X1739900Y984250D03*
X1905000Y222250D03*
X508000Y374650D03*
X508000Y412750D03*
X527050Y800100D03*
X1797050Y901700D03*
X622300Y184150D03*
X1130300Y889000D03*
X2190750Y69850D03*
X1892300Y69850D03*
X1149350Y247650D03*
X1790700Y247650D03*
X1098550Y228600D03*
X1270000Y558800D03*
X1955800Y488950D03*
X1955800Y158750D03*
X1117600Y977900D03*
X1714500Y412750D03*
X584200Y323850D03*
X584200Y850900D03*
X1739900Y939800D03*
X1847850Y285750D03*
X584200Y400050D03*
X254000Y273050D03*
X393700Y342900D03*
X1562100Y304800D03*
X1123950Y165100D03*
X1276350Y279400D03*
X406400Y203200D03*
X431800Y266700D03*
X514350Y844550D03*
X1784350Y965200D03*
X2228850Y57150D03*
X1752600Y31750D03*
X1746250Y69850D03*
X488950Y50800D03*
X1085850Y50800D03*
X393700Y165100D03*
X387350Y234950D03*
X1003300Y215900D03*
X1587500Y222250D03*
X298450Y190500D03*
X1428750Y25400D03*
X463550Y38100D03*
X1117600Y63500D03*
X1422400Y38100D03*
X292100Y25400D03*
X1301750Y76200D03*
X247650Y25400D03*
X1206500Y6350D03*
X1250950Y50800D03*
X1390650Y38100D03*
X946150Y234950D03*
X190500Y209550D03*
X755650Y882650D03*
X812800Y882650D03*
X1352550Y241300D03*
X2032000Y12700D03*
M02*
