G04 EAGLE Gerber RS-274X export*
G75*
%MOMM*%
%FSLAX34Y34*%
%LPD*%
%INBottom Copper*%
%IPPOS*%
%AMOC8*
5,1,8,0,0,1.08239X$1,22.5*%
G01*
%ADD10P,1.484606X8X292.500000*%
%ADD11P,1.319650X8X22.500000*%
%ADD12P,1.319650X8X202.500000*%
%ADD13C,1.371600*%
%ADD14C,0.508000*%
%ADD15C,0.685800*%
%ADD16C,0.152400*%


D10*
X965200Y139700D03*
X939800Y139700D03*
X914400Y139700D03*
X889000Y139700D03*
X863600Y139700D03*
X838200Y139700D03*
X812800Y139700D03*
X787400Y139700D03*
X762000Y139700D03*
X736600Y139700D03*
X711200Y139700D03*
X685800Y139700D03*
X660400Y139700D03*
X635000Y139700D03*
X609600Y139700D03*
X584200Y139700D03*
X965200Y88900D03*
X939800Y88900D03*
X914400Y88900D03*
X889000Y88900D03*
X863600Y88900D03*
X838200Y88900D03*
X812800Y88900D03*
X787400Y88900D03*
X762000Y88900D03*
X736600Y88900D03*
X711200Y88900D03*
X685800Y88900D03*
X660400Y88900D03*
X635000Y88900D03*
X609600Y88900D03*
X584200Y88900D03*
X965200Y114300D03*
X939800Y114300D03*
X914400Y114300D03*
X889000Y114300D03*
X863600Y114300D03*
X838200Y114300D03*
X812800Y114300D03*
X787400Y114300D03*
X762000Y114300D03*
X736600Y114300D03*
X711200Y114300D03*
X685800Y114300D03*
X660400Y114300D03*
X635000Y114300D03*
X609600Y114300D03*
X584200Y114300D03*
X558800Y139700D03*
X533400Y139700D03*
X508000Y139700D03*
X482600Y139700D03*
X457200Y139700D03*
X431800Y139700D03*
X406400Y139700D03*
X381000Y139700D03*
X355600Y139700D03*
X330200Y139700D03*
X304800Y139700D03*
X279400Y139700D03*
X254000Y139700D03*
X228600Y139700D03*
X203200Y139700D03*
X177800Y139700D03*
X558800Y88900D03*
X533400Y88900D03*
X508000Y88900D03*
X482600Y88900D03*
X457200Y88900D03*
X431800Y88900D03*
X406400Y88900D03*
X381000Y88900D03*
X355600Y88900D03*
X330200Y88900D03*
X304800Y88900D03*
X279400Y88900D03*
X254000Y88900D03*
X228600Y88900D03*
X203200Y88900D03*
X177800Y88900D03*
X558800Y114300D03*
X533400Y114300D03*
X508000Y114300D03*
X482600Y114300D03*
X457200Y114300D03*
X431800Y114300D03*
X406400Y114300D03*
X381000Y114300D03*
X355600Y114300D03*
X330200Y114300D03*
X304800Y114300D03*
X279400Y114300D03*
X254000Y114300D03*
X228600Y114300D03*
X203200Y114300D03*
X177800Y114300D03*
X2133600Y139700D03*
X2108200Y139700D03*
X2082800Y139700D03*
X2057400Y139700D03*
X2032000Y139700D03*
X2006600Y139700D03*
X1981200Y139700D03*
X1955800Y139700D03*
X1930400Y139700D03*
X1905000Y139700D03*
X1879600Y139700D03*
X1854200Y139700D03*
X1828800Y139700D03*
X1803400Y139700D03*
X1778000Y139700D03*
X1752600Y139700D03*
X2133600Y88900D03*
X2108200Y88900D03*
X2082800Y88900D03*
X2057400Y88900D03*
X2032000Y88900D03*
X2006600Y88900D03*
X1981200Y88900D03*
X1955800Y88900D03*
X1930400Y88900D03*
X1905000Y88900D03*
X1879600Y88900D03*
X1854200Y88900D03*
X1828800Y88900D03*
X1803400Y88900D03*
X1778000Y88900D03*
X1752600Y88900D03*
X2133600Y114300D03*
X2108200Y114300D03*
X2082800Y114300D03*
X2057400Y114300D03*
X2032000Y114300D03*
X2006600Y114300D03*
X1981200Y114300D03*
X1955800Y114300D03*
X1930400Y114300D03*
X1905000Y114300D03*
X1879600Y114300D03*
X1854200Y114300D03*
X1828800Y114300D03*
X1803400Y114300D03*
X1778000Y114300D03*
X1752600Y114300D03*
X1727200Y139700D03*
X1701800Y139700D03*
X1676400Y139700D03*
X1651000Y139700D03*
X1625600Y139700D03*
X1600200Y139700D03*
X1574800Y139700D03*
X1549400Y139700D03*
X1524000Y139700D03*
X1498600Y139700D03*
X1473200Y139700D03*
X1447800Y139700D03*
X1422400Y139700D03*
X1397000Y139700D03*
X1371600Y139700D03*
X1346200Y139700D03*
X1727200Y88900D03*
X1701800Y88900D03*
X1676400Y88900D03*
X1651000Y88900D03*
X1625600Y88900D03*
X1600200Y88900D03*
X1574800Y88900D03*
X1549400Y88900D03*
X1524000Y88900D03*
X1498600Y88900D03*
X1473200Y88900D03*
X1447800Y88900D03*
X1422400Y88900D03*
X1397000Y88900D03*
X1371600Y88900D03*
X1346200Y88900D03*
X1727200Y114300D03*
X1701800Y114300D03*
X1676400Y114300D03*
X1651000Y114300D03*
X1625600Y114300D03*
X1600200Y114300D03*
X1574800Y114300D03*
X1549400Y114300D03*
X1524000Y114300D03*
X1498600Y114300D03*
X1473200Y114300D03*
X1447800Y114300D03*
X1422400Y114300D03*
X1397000Y114300D03*
X1371600Y114300D03*
X1346200Y114300D03*
D11*
X787400Y254000D03*
X812800Y254000D03*
D12*
X1003300Y254000D03*
X901700Y254000D03*
D11*
X1536700Y254000D03*
X1562100Y254000D03*
D12*
X1435100Y254000D03*
X1333500Y254000D03*
D13*
X1168400Y44958D02*
X1168400Y31242D01*
X1143000Y31242D02*
X1143000Y44958D01*
D14*
X1546225Y238125D02*
X1562100Y254000D01*
X1546225Y238125D02*
X1501775Y238125D01*
X1498600Y241300D01*
X1444625Y241300D01*
X1441450Y238125D01*
X1428750Y238125D01*
X1409700Y257175D01*
X1349375Y257175D01*
X1565275Y161925D02*
X2111375Y161925D01*
X825500Y177800D02*
X815975Y187325D01*
X825500Y177800D02*
X939800Y177800D01*
X955675Y161925D01*
X177800Y88900D02*
X177800Y19050D01*
X962025Y19050D01*
X965200Y22225D01*
X1266825Y161925D02*
X1565275Y161925D01*
X1266825Y161925D02*
X1257300Y152400D01*
X1047750Y152400D01*
X1038225Y161925D01*
X955675Y161925D01*
D15*
X1349375Y257175D03*
X2111375Y161925D03*
X1565275Y161925D03*
X815975Y187325D03*
X955675Y161925D03*
X965200Y22225D03*
D16*
X1047750Y311150D02*
X1050925Y314325D01*
X1857375Y314325D01*
X1924050Y247650D01*
X1971675Y247650D01*
X2032000Y187325D01*
X2127250Y187325D01*
X2146300Y168275D01*
X2146300Y127000D01*
X2095500Y127000D01*
X2082800Y139700D01*
D15*
X1047750Y311150D03*
D16*
X901700Y187325D02*
X898525Y190500D01*
X901700Y187325D02*
X1104900Y187325D01*
X1130300Y161925D01*
X1254125Y161925D01*
X1266825Y174625D01*
X2054225Y174625D01*
D15*
X898525Y190500D03*
X2054225Y174625D03*
D16*
X873125Y196850D02*
X866775Y190500D01*
X873125Y196850D02*
X1101725Y196850D01*
X1120775Y177800D01*
X1168400Y177800D01*
X1181100Y165100D01*
X1250950Y165100D01*
X1263650Y177800D01*
X2047875Y177800D01*
X2054225Y184150D01*
X2124075Y184150D01*
X2139950Y168275D01*
X2139950Y152400D01*
X2044700Y152400D01*
X2032000Y139700D01*
D15*
X866775Y190500D03*
D16*
X854075Y203200D02*
X841375Y190500D01*
X854075Y203200D02*
X1101725Y203200D01*
X1123950Y180975D01*
X1171575Y180975D01*
X1184275Y168275D01*
X1247775Y168275D01*
X1260475Y180975D01*
X2000250Y180975D01*
X2003425Y184150D01*
D15*
X841375Y190500D03*
X2003425Y184150D03*
D16*
X844550Y206375D02*
X828675Y190500D01*
X844550Y206375D02*
X1104900Y206375D01*
X1127125Y184150D01*
X1174750Y184150D01*
X1187450Y171450D01*
X1244600Y171450D01*
X1257300Y184150D01*
X1971675Y184150D01*
X1974850Y187325D01*
D15*
X828675Y190500D03*
X1974850Y187325D03*
D16*
X800100Y152400D02*
X787400Y139700D01*
X800100Y152400D02*
X1035050Y152400D01*
X1044575Y142875D01*
X1266825Y142875D01*
X1276350Y152400D01*
X1943100Y152400D01*
X1955800Y139700D01*
X790575Y215900D02*
X765175Y190500D01*
X790575Y215900D02*
X1101725Y215900D01*
X1130300Y187325D01*
X1177925Y187325D01*
X1190625Y174625D01*
X1241425Y174625D01*
X1254125Y187325D01*
X1920875Y187325D01*
X1924050Y190500D01*
D15*
X765175Y190500D03*
X1924050Y190500D03*
D16*
X771525Y219075D02*
X742950Y190500D01*
X771525Y219075D02*
X1104900Y219075D01*
X1133475Y190500D01*
X1181100Y190500D01*
X1193800Y177800D01*
X1238250Y177800D01*
X1250950Y190500D01*
X1898650Y190500D01*
X1901825Y193675D01*
D15*
X742950Y190500D03*
X1901825Y193675D03*
D16*
X752475Y225425D02*
X717550Y190500D01*
X752475Y225425D02*
X1104900Y225425D01*
X1136650Y193675D01*
X1184275Y193675D01*
X1196975Y180975D01*
X1235075Y180975D01*
X1247775Y193675D01*
X1873250Y193675D01*
X1876425Y196850D01*
D15*
X717550Y190500D03*
X1876425Y196850D03*
D16*
X698500Y266700D02*
X692150Y260350D01*
X698500Y266700D02*
X793750Y266700D01*
X796925Y269875D01*
X1089025Y269875D01*
X1168400Y269875D02*
X1793875Y269875D01*
X1854200Y209550D01*
D15*
X692150Y260350D03*
X1089025Y269875D03*
X1168400Y269875D03*
X1854200Y209550D03*
D16*
X666750Y234950D02*
X663575Y238125D01*
X666750Y234950D02*
X774700Y234950D01*
X777875Y231775D01*
X1111250Y231775D01*
X1143000Y200025D01*
X1825625Y200025D01*
D15*
X663575Y238125D03*
X1825625Y200025D03*
D16*
X660400Y247650D02*
X638175Y225425D01*
X660400Y247650D02*
X768350Y247650D01*
X781050Y234950D01*
X1114425Y234950D01*
X1146175Y203200D01*
X1793875Y203200D01*
X1797050Y206375D01*
D15*
X638175Y225425D03*
X1797050Y206375D03*
D16*
X1104900Y31750D02*
X625475Y31750D01*
X1104900Y31750D02*
X1130300Y6350D01*
X1727200Y6350D01*
X1758950Y38100D01*
D15*
X625475Y31750D03*
X1758950Y38100D03*
D16*
X838200Y38100D02*
X596900Y38100D01*
X838200Y38100D02*
X841375Y34925D01*
X1108075Y34925D01*
X1133475Y9525D01*
X1663700Y9525D01*
X1692275Y38100D01*
D15*
X596900Y38100D03*
X1692275Y38100D03*
D16*
X558800Y139700D02*
X546100Y152400D01*
X498475Y152400D01*
X495300Y149225D01*
X495300Y44450D01*
X838200Y44450D01*
X844550Y38100D01*
X1111250Y38100D01*
X1136650Y12700D01*
X1641475Y12700D01*
X1666875Y38100D01*
D15*
X1666875Y38100D03*
D16*
X533400Y139700D02*
X523875Y149225D01*
X501650Y149225D01*
X498475Y146050D01*
X498475Y50800D01*
X838200Y50800D01*
X847725Y41275D01*
X1114425Y41275D01*
X1139825Y15875D01*
X1619250Y15875D01*
X1635125Y31750D01*
D15*
X1635125Y31750D03*
D16*
X523875Y123825D02*
X508000Y139700D01*
X523875Y123825D02*
X523875Y53975D01*
X841375Y53975D01*
X850900Y44450D01*
X987425Y44450D01*
X1000125Y57150D01*
X1130300Y57150D01*
X1143000Y69850D01*
X1374775Y69850D01*
X1387475Y57150D01*
X1635125Y57150D01*
X1638300Y53975D01*
D15*
X1638300Y53975D03*
D16*
X574675Y250825D02*
X514350Y190500D01*
X574675Y250825D02*
X771525Y250825D01*
X784225Y238125D01*
X1117600Y238125D01*
X1149350Y206375D01*
X1635125Y206375D01*
X1638300Y209550D01*
D15*
X514350Y190500D03*
X1638300Y209550D03*
D16*
X527050Y257175D02*
X460375Y190500D01*
X527050Y257175D02*
X685800Y257175D01*
X688975Y254000D01*
X774700Y254000D01*
X787400Y241300D01*
X1120775Y241300D01*
X1152525Y209550D01*
X1619250Y209550D01*
X1622425Y212725D01*
D15*
X460375Y190500D03*
X1622425Y212725D03*
D16*
X517525Y269875D02*
X438150Y190500D01*
X517525Y269875D02*
X790575Y269875D01*
X793750Y273050D01*
X1082675Y273050D01*
X1085850Y276225D01*
X1092200Y276225D01*
X1155700Y212725D01*
X1587500Y212725D01*
X1590675Y215900D01*
D15*
X438150Y190500D03*
X1590675Y215900D03*
D16*
X469900Y273050D02*
X415925Y219075D01*
X469900Y273050D02*
X787400Y273050D01*
X790575Y276225D01*
X876300Y276225D01*
X879475Y279400D01*
X1095375Y279400D01*
X1158875Y215900D01*
X1571625Y215900D01*
X1574800Y219075D01*
D15*
X415925Y219075D03*
X1574800Y219075D03*
D16*
X441325Y276225D02*
X406400Y241300D01*
X441325Y276225D02*
X774700Y276225D01*
X777875Y279400D01*
X873125Y279400D01*
X876300Y282575D01*
X1098550Y282575D01*
X1162050Y219075D01*
X1530350Y219075D01*
X1533525Y222250D01*
D15*
X406400Y241300D03*
X1533525Y222250D03*
D16*
X412750Y266700D02*
X365125Y219075D01*
X412750Y266700D02*
X419100Y266700D01*
X431800Y279400D01*
X771525Y279400D01*
X774700Y282575D01*
X857250Y282575D01*
X860425Y285750D01*
X1101725Y285750D01*
X1165225Y222250D01*
X1511300Y222250D01*
X1514475Y225425D01*
D15*
X365125Y219075D03*
X1514475Y225425D03*
D16*
X330200Y139700D02*
X320675Y130175D01*
X247650Y130175D01*
X244475Y133350D01*
X244475Y269875D01*
X415925Y269875D01*
X428625Y282575D01*
X768350Y282575D01*
X771525Y285750D01*
X854075Y285750D01*
X857250Y288925D01*
X1104900Y288925D01*
X1168400Y225425D01*
X1492250Y225425D01*
X1495425Y228600D01*
D15*
X1495425Y228600D03*
D16*
X342900Y520700D02*
X311150Y488950D01*
X342900Y520700D02*
X1384300Y520700D01*
D15*
X311150Y488950D03*
X1384300Y520700D03*
D16*
X333375Y533400D02*
X282575Y482600D01*
X333375Y533400D02*
X1362075Y533400D01*
D15*
X282575Y482600D03*
X1362075Y533400D03*
D16*
X254000Y158750D02*
X254000Y139700D01*
X254000Y158750D02*
X250825Y161925D01*
X250825Y184150D01*
X781050Y184150D01*
X806450Y292100D02*
X1108075Y292100D01*
X1168400Y231775D01*
X1419225Y231775D01*
D15*
X781050Y184150D03*
X806450Y292100D03*
X1419225Y231775D03*
D16*
X228600Y273050D02*
X228600Y139700D01*
X228600Y273050D02*
X412750Y273050D01*
X425450Y285750D01*
X765175Y285750D01*
X777875Y298450D01*
X860425Y298450D01*
X863600Y295275D01*
X1111250Y295275D01*
X1171575Y234950D01*
X1390650Y234950D01*
X1393825Y238125D01*
D15*
X1393825Y238125D03*
D16*
X800100Y266700D02*
X787400Y254000D01*
X800100Y266700D02*
X990600Y266700D01*
X1003300Y254000D01*
X1435100Y254000D02*
X1536700Y254000D01*
X927100Y127000D02*
X914400Y114300D01*
X927100Y127000D02*
X984250Y127000D01*
X1177925Y60325D02*
X1355725Y60325D01*
X1371600Y44450D01*
X2082800Y44450D01*
X2120900Y82550D01*
X2120900Y101600D01*
X2095500Y101600D01*
X2082800Y114300D01*
D15*
X984250Y127000D03*
X1177925Y60325D03*
D16*
X920750Y53975D02*
X904875Y69850D01*
X920750Y53975D02*
X952500Y53975D01*
D15*
X904875Y69850D03*
X952500Y53975D03*
D16*
X869950Y298450D02*
X866775Y301625D01*
X869950Y298450D02*
X1790700Y298450D01*
X1844675Y244475D01*
X1965325Y244475D01*
X2025650Y184150D01*
D15*
X866775Y301625D03*
X2025650Y184150D03*
D16*
X1841500Y387350D02*
X936625Y387350D01*
X1841500Y387350D02*
X2000250Y228600D01*
D15*
X936625Y387350D03*
X2000250Y228600D03*
D16*
X930275Y406400D02*
X927100Y403225D01*
X930275Y406400D02*
X1866900Y406400D01*
X1968500Y304800D01*
D15*
X927100Y403225D03*
X1968500Y304800D03*
D16*
X800100Y101600D02*
X787400Y114300D01*
X800100Y101600D02*
X990600Y101600D01*
X1009650Y82550D01*
X1320800Y82550D01*
X1339850Y101600D01*
X1943100Y101600D01*
X1955800Y114300D01*
X793750Y317500D02*
X790575Y314325D01*
X793750Y317500D02*
X1863725Y317500D01*
X1917700Y263525D01*
D15*
X790575Y314325D03*
X1917700Y263525D03*
D16*
X771525Y320675D02*
X749300Y298450D01*
X771525Y320675D02*
X1898650Y320675D01*
D15*
X749300Y298450D03*
X1898650Y320675D03*
D16*
X1876425Y327025D02*
X803275Y327025D01*
D15*
X803275Y327025D03*
X1876425Y327025D03*
D16*
X720725Y346075D02*
X698500Y323850D01*
X720725Y346075D02*
X1511300Y346075D01*
X1524000Y333375D01*
X1841500Y333375D01*
D15*
X698500Y323850D03*
X1841500Y333375D03*
D16*
X714375Y349250D02*
X669925Y304800D01*
X714375Y349250D02*
X1514475Y349250D01*
X1527175Y336550D01*
X1822450Y336550D01*
X1825625Y339725D01*
D15*
X669925Y304800D03*
X1825625Y339725D03*
D16*
X695325Y355600D02*
X650875Y311150D01*
X695325Y355600D02*
X1514475Y355600D01*
X1530350Y339725D01*
X1755775Y339725D01*
X1758950Y342900D01*
D15*
X650875Y311150D03*
X1758950Y342900D03*
D16*
X663575Y358775D02*
X644525Y339725D01*
X663575Y358775D02*
X1517650Y358775D01*
X1533525Y342900D01*
X1743075Y342900D01*
X1746250Y346075D01*
D15*
X644525Y339725D03*
X1746250Y346075D03*
D16*
X600075Y130175D02*
X584200Y114300D01*
X600075Y130175D02*
X600075Y152400D01*
X708025Y152400D01*
X711200Y307975D02*
X742950Y339725D01*
X1130300Y339725D01*
X1330325Y136525D02*
X1339850Y127000D01*
X1739900Y127000D01*
X1752600Y114300D01*
D15*
X708025Y152400D03*
X711200Y307975D03*
X1130300Y339725D03*
X1330325Y136525D03*
D16*
X574675Y98425D02*
X558800Y114300D01*
X574675Y98425D02*
X574675Y69850D01*
X873125Y69850D01*
X1123950Y292100D02*
X1139825Y276225D01*
X1717675Y276225D01*
D15*
X873125Y69850D03*
X1123950Y292100D03*
X1717675Y276225D03*
D16*
X1200150Y38100D02*
X1184275Y53975D01*
X1200150Y38100D02*
X1651000Y38100D01*
D15*
X1184275Y53975D03*
X1651000Y38100D03*
D16*
X752475Y552450D02*
X749300Y555625D01*
X752475Y552450D02*
X1536700Y552450D01*
X1616075Y473075D01*
D15*
X749300Y555625D03*
X1616075Y473075D03*
D16*
X1565275Y514350D02*
X644525Y514350D01*
D15*
X644525Y514350D03*
X1565275Y514350D03*
D16*
X1543050Y508000D02*
X615950Y508000D01*
D15*
X615950Y508000D03*
X1543050Y508000D03*
D16*
X1457325Y549275D02*
X450850Y549275D01*
X1457325Y549275D02*
X1485900Y520700D01*
D15*
X450850Y549275D03*
X1485900Y520700D03*
D16*
X498475Y368300D02*
X422275Y292100D01*
X498475Y368300D02*
X927100Y368300D01*
X930275Y365125D01*
X1517650Y365125D01*
X1533525Y349250D01*
X1536700Y349250D01*
D15*
X422275Y292100D03*
X1536700Y349250D03*
D16*
X447675Y501650D02*
X444500Y498475D01*
X447675Y501650D02*
X1495425Y501650D01*
D15*
X444500Y498475D03*
X1495425Y501650D03*
D16*
X473075Y381000D02*
X371475Y279400D01*
X473075Y381000D02*
X920750Y381000D01*
X933450Y368300D01*
X1524000Y368300D01*
D15*
X371475Y279400D03*
X1524000Y368300D03*
D16*
X450850Y495300D02*
X444500Y488950D01*
X450850Y495300D02*
X1441450Y495300D01*
D15*
X444500Y488950D03*
X1441450Y495300D03*
D16*
X323850Y425450D02*
X320675Y428625D01*
X323850Y425450D02*
X1330325Y425450D01*
X1333500Y428625D01*
X1450975Y428625D01*
X1463675Y415925D01*
D15*
X320675Y428625D03*
X1463675Y415925D03*
D16*
X396875Y387350D02*
X288925Y279400D01*
X396875Y387350D02*
X920750Y387350D01*
X933450Y374650D01*
X1419225Y374650D01*
D15*
X288925Y279400D03*
X1419225Y374650D03*
D16*
X381000Y396875D02*
X263525Y279400D01*
X381000Y396875D02*
X1406525Y396875D01*
X1409700Y400050D01*
D15*
X263525Y279400D03*
X1409700Y400050D03*
D16*
X1336675Y422275D02*
X241300Y422275D01*
D15*
X241300Y422275D03*
X1336675Y422275D03*
D16*
X1193800Y266700D02*
X1171575Y244475D01*
X1193800Y266700D02*
X1787525Y266700D01*
X1851025Y203200D01*
X1993900Y203200D01*
X2012950Y184150D01*
D15*
X1171575Y244475D03*
X2012950Y184150D03*
D16*
X1863725Y409575D02*
X793750Y409575D01*
X1863725Y409575D02*
X1866900Y412750D01*
X1873250Y412750D01*
X2047875Y238125D01*
D15*
X793750Y409575D03*
X2047875Y238125D03*
D16*
X822325Y130175D02*
X781050Y130175D01*
X771525Y139700D01*
X771525Y158750D01*
X758825Y158750D01*
X917575Y431800D02*
X1911350Y431800D01*
X2019300Y323850D01*
D15*
X822325Y130175D03*
X758825Y158750D03*
X917575Y431800D03*
X2019300Y323850D03*
D16*
X781050Y171450D02*
X774700Y177800D01*
X565150Y177800D01*
D15*
X781050Y171450D03*
X565150Y177800D03*
D16*
X841375Y60325D02*
X854075Y47625D01*
X974725Y47625D01*
X977900Y50800D01*
D15*
X841375Y60325D03*
X977900Y50800D03*
D16*
X800100Y76200D02*
X787400Y88900D01*
X800100Y76200D02*
X1943100Y76200D01*
X1955800Y88900D01*
X762000Y88900D02*
X749300Y76200D01*
X606425Y76200D01*
X593725Y88900D01*
X593725Y104775D01*
X577850Y104775D01*
X574675Y107950D01*
X574675Y158750D01*
X657225Y158750D01*
D15*
X657225Y158750D03*
D16*
X939800Y444500D02*
X1866900Y444500D01*
X1870075Y447675D01*
D15*
X939800Y444500D03*
X1870075Y447675D03*
D16*
X720725Y98425D02*
X711200Y88900D01*
X720725Y98425D02*
X736600Y98425D01*
X752475Y114300D01*
X752475Y123825D01*
X847725Y123825D01*
X933450Y381000D02*
X942975Y381000D01*
X933450Y381000D02*
X930275Y384175D01*
X930275Y393700D01*
X1870075Y393700D01*
D15*
X847725Y123825D03*
X942975Y381000D03*
X1870075Y393700D03*
D16*
X1038225Y311150D02*
X815975Y311150D01*
X1038225Y311150D02*
X1044575Y304800D01*
X1790700Y304800D01*
X1793875Y307975D01*
X1803400Y307975D01*
D15*
X815975Y311150D03*
X1803400Y307975D03*
D16*
X644525Y79375D02*
X635000Y88900D01*
X644525Y79375D02*
X742950Y79375D01*
X752475Y88900D01*
X752475Y98425D01*
X844550Y98425D01*
X850900Y92075D01*
X879475Y301625D02*
X876300Y304800D01*
X879475Y301625D02*
X1797050Y301625D01*
D15*
X850900Y92075D03*
X876300Y304800D03*
X1797050Y301625D03*
D16*
X625475Y104775D02*
X609600Y88900D01*
X625475Y104775D02*
X720725Y104775D01*
D15*
X720725Y104775D03*
D16*
X631825Y203200D02*
X660400Y231775D01*
X771525Y231775D01*
X774700Y228600D01*
X1108075Y228600D01*
X1139825Y196850D01*
X1190625Y196850D01*
X1200150Y187325D01*
D15*
X631825Y203200D03*
X1200150Y187325D03*
D16*
X711200Y450850D02*
X704850Y444500D01*
X711200Y450850D02*
X1504950Y450850D01*
X1508125Y447675D01*
X1641475Y447675D01*
X1654175Y460375D01*
X1717675Y460375D01*
D15*
X704850Y444500D03*
X1717675Y460375D03*
D16*
X558800Y63500D02*
X533400Y88900D01*
X558800Y63500D02*
X771525Y63500D01*
X787400Y155575D02*
X790575Y158750D01*
X806450Y158750D01*
D15*
X771525Y63500D03*
X787400Y155575D03*
X806450Y158750D03*
D16*
X282575Y473075D02*
X269875Y460375D01*
X282575Y473075D02*
X835025Y473075D01*
X841375Y466725D01*
X1641475Y466725D01*
D15*
X269875Y460375D03*
X1641475Y466725D03*
D16*
X482600Y88900D02*
X473075Y79375D01*
X222250Y79375D01*
X215900Y85725D01*
X215900Y101600D01*
X196850Y101600D01*
X190500Y107950D01*
X190500Y454025D01*
X1508125Y454025D01*
X1511300Y450850D01*
X1584325Y450850D01*
X1587500Y454025D01*
D15*
X1587500Y454025D03*
D16*
X457200Y104775D02*
X457200Y88900D01*
X457200Y104775D02*
X463550Y104775D01*
X469900Y111125D01*
X587375Y463550D02*
X584200Y466725D01*
X587375Y463550D02*
X663575Y463550D01*
X669925Y457200D01*
X1514475Y457200D01*
D15*
X469900Y111125D03*
X584200Y466725D03*
X1514475Y457200D03*
D16*
X673100Y463550D02*
X669925Y466725D01*
X673100Y463550D02*
X1606550Y463550D01*
X1616075Y454025D01*
D15*
X669925Y466725D03*
X1616075Y454025D03*
D16*
X631825Y485775D02*
X628650Y488950D01*
X631825Y485775D02*
X847725Y485775D01*
X854075Y479425D01*
X1181100Y479425D01*
D15*
X628650Y488950D03*
X1181100Y479425D03*
D16*
X381000Y88900D02*
X365125Y104775D01*
X247650Y104775D01*
X238125Y114300D01*
X238125Y130175D01*
X222250Y130175D01*
X219075Y133350D01*
X219075Y415925D01*
X1031875Y415925D01*
D15*
X1031875Y415925D03*
D16*
X342900Y158750D02*
X342900Y117475D01*
X342900Y158750D02*
X555625Y158750D01*
X638175Y292100D02*
X644525Y298450D01*
X711200Y298450D01*
X746125Y333375D01*
X1123950Y333375D01*
D15*
X342900Y117475D03*
X555625Y158750D03*
X638175Y292100D03*
X1123950Y333375D03*
D16*
X314325Y73025D02*
X311150Y76200D01*
X196850Y76200D01*
X190500Y82550D01*
X190500Y101600D01*
X171450Y101600D01*
X165100Y95250D01*
X165100Y9525D01*
X968375Y9525D01*
X984250Y25400D01*
X1000125Y47625D02*
X1006475Y53975D01*
X1133475Y53975D01*
X1146175Y66675D01*
X1355725Y66675D01*
X1371600Y50800D01*
X1460500Y50800D01*
D15*
X314325Y73025D03*
X984250Y25400D03*
X1000125Y47625D03*
X1460500Y50800D03*
D16*
X1384300Y542925D02*
X444500Y542925D01*
D15*
X444500Y542925D03*
X1384300Y542925D03*
D16*
X298450Y482600D02*
X295275Y485775D01*
X298450Y482600D02*
X831850Y482600D01*
X841375Y473075D01*
X1412875Y473075D01*
D15*
X295275Y485775D03*
X1412875Y473075D03*
D16*
X825500Y165100D02*
X257175Y165100D01*
D15*
X257175Y165100D03*
X825500Y165100D03*
D16*
X228600Y104775D02*
X228600Y88900D01*
X228600Y104775D02*
X222250Y104775D01*
X215900Y111125D01*
X215900Y438150D01*
X1311275Y438150D01*
D15*
X1311275Y438150D03*
D14*
X914400Y161925D02*
X911225Y165100D01*
X914400Y161925D02*
X939800Y161925D01*
X952500Y66675D02*
X1012825Y66675D01*
D15*
X911225Y165100D03*
X939800Y161925D03*
X1012825Y66675D03*
X952500Y66675D03*
D14*
X1333500Y254000D02*
X1343025Y244475D01*
X1368425Y244475D01*
X1193800Y250825D02*
X1187450Y244475D01*
X1193800Y250825D02*
X1333500Y250825D01*
X1333500Y254000D01*
X2085975Y66675D02*
X2108200Y88900D01*
X2085975Y66675D02*
X1393825Y66675D01*
D15*
X1368425Y244475D03*
X1187450Y244475D03*
X1393825Y66675D03*
M02*
