G04 EAGLE Gerber RS-274X export*
G75*
%MOMM*%
%FSLAX34Y34*%
%LPD*%
%IN*%
%IPPOS*%
%AMOC8*
5,1,8,0,0,1.08239X$1,22.5*%
G01*
%ADD10C,0.254000*%


D10*
X0Y0D02*
X2311200Y0D01*
X2311200Y695200D01*
X0Y695200D01*
X0Y0D01*
X1021000Y103378D02*
X1020005Y103449D01*
X1019017Y103591D01*
X1018042Y103803D01*
X1017084Y104084D01*
X1016150Y104433D01*
X1015242Y104848D01*
X1014366Y105326D01*
X1013527Y105865D01*
X1012728Y106463D01*
X1011974Y107117D01*
X1011268Y107823D01*
X1010614Y108577D01*
X1010016Y109376D01*
X1009477Y110215D01*
X1008999Y111091D01*
X1008584Y111999D01*
X1008235Y112933D01*
X1007954Y113891D01*
X1007742Y114866D01*
X1007600Y115854D01*
X1007529Y116849D01*
X1007529Y117847D01*
X1007600Y118842D01*
X1007742Y119830D01*
X1007954Y120805D01*
X1008235Y121763D01*
X1008584Y122698D01*
X1008999Y123605D01*
X1009477Y124481D01*
X1010016Y125321D01*
X1010614Y126119D01*
X1011268Y126873D01*
X1011974Y127579D01*
X1012728Y128233D01*
X1013527Y128831D01*
X1014366Y129370D01*
X1015242Y129848D01*
X1016150Y130263D01*
X1017084Y130612D01*
X1018042Y130893D01*
X1019017Y131105D01*
X1020005Y131247D01*
X1021000Y131318D01*
X1021998Y131318D01*
X1022993Y131247D01*
X1023981Y131105D01*
X1024956Y130893D01*
X1025914Y130612D01*
X1026849Y130263D01*
X1027756Y129848D01*
X1028632Y129370D01*
X1029472Y128831D01*
X1030270Y128233D01*
X1031024Y127579D01*
X1031730Y126873D01*
X1032384Y126119D01*
X1032982Y125321D01*
X1033521Y124481D01*
X1033999Y123605D01*
X1034414Y122698D01*
X1034763Y121763D01*
X1035044Y120805D01*
X1035256Y119830D01*
X1035398Y118842D01*
X1035469Y117847D01*
X1035469Y116849D01*
X1035398Y115854D01*
X1035256Y114866D01*
X1035044Y113891D01*
X1034763Y112933D01*
X1034414Y111999D01*
X1033999Y111091D01*
X1033521Y110215D01*
X1032982Y109376D01*
X1032384Y108577D01*
X1031730Y107823D01*
X1031024Y107117D01*
X1030270Y106463D01*
X1029472Y105865D01*
X1028632Y105326D01*
X1027756Y104848D01*
X1026849Y104433D01*
X1025914Y104084D01*
X1024956Y103803D01*
X1023981Y103591D01*
X1022993Y103449D01*
X1021998Y103378D01*
X1021000Y103378D01*
X121002Y103378D02*
X120007Y103449D01*
X119019Y103591D01*
X118044Y103803D01*
X117086Y104084D01*
X116152Y104433D01*
X115244Y104848D01*
X114368Y105326D01*
X113529Y105865D01*
X112730Y106463D01*
X111976Y107117D01*
X111270Y107823D01*
X110616Y108577D01*
X110018Y109376D01*
X109479Y110215D01*
X109001Y111091D01*
X108586Y111999D01*
X108237Y112933D01*
X107956Y113891D01*
X107744Y114866D01*
X107602Y115854D01*
X107531Y116849D01*
X107531Y117847D01*
X107602Y118842D01*
X107744Y119830D01*
X107956Y120805D01*
X108237Y121763D01*
X108586Y122698D01*
X109001Y123605D01*
X109479Y124481D01*
X110018Y125321D01*
X110616Y126119D01*
X111270Y126873D01*
X111976Y127579D01*
X112730Y128233D01*
X113529Y128831D01*
X114368Y129370D01*
X115244Y129848D01*
X116152Y130263D01*
X117086Y130612D01*
X118044Y130893D01*
X119019Y131105D01*
X120007Y131247D01*
X121002Y131318D01*
X122000Y131318D01*
X122995Y131247D01*
X123983Y131105D01*
X124958Y130893D01*
X125916Y130612D01*
X126851Y130263D01*
X127758Y129848D01*
X128634Y129370D01*
X129474Y128831D01*
X130272Y128233D01*
X131026Y127579D01*
X131732Y126873D01*
X132386Y126119D01*
X132984Y125321D01*
X133523Y124481D01*
X134001Y123605D01*
X134416Y122698D01*
X134765Y121763D01*
X135046Y120805D01*
X135258Y119830D01*
X135400Y118842D01*
X135471Y117847D01*
X135471Y116849D01*
X135400Y115854D01*
X135258Y114866D01*
X135046Y113891D01*
X134765Y112933D01*
X134416Y111999D01*
X134001Y111091D01*
X133523Y110215D01*
X132984Y109376D01*
X132386Y108577D01*
X131732Y107823D01*
X131026Y107117D01*
X130272Y106463D01*
X129474Y105865D01*
X128634Y105326D01*
X127758Y104848D01*
X126851Y104433D01*
X125916Y104084D01*
X124958Y103803D01*
X123983Y103591D01*
X122995Y103449D01*
X122000Y103378D01*
X121002Y103378D01*
X2189400Y103378D02*
X2188405Y103449D01*
X2187417Y103591D01*
X2186442Y103803D01*
X2185484Y104084D01*
X2184550Y104433D01*
X2183642Y104848D01*
X2182766Y105326D01*
X2181927Y105865D01*
X2181128Y106463D01*
X2180374Y107117D01*
X2179668Y107823D01*
X2179014Y108577D01*
X2178416Y109376D01*
X2177877Y110215D01*
X2177399Y111091D01*
X2176984Y111999D01*
X2176635Y112933D01*
X2176354Y113891D01*
X2176142Y114866D01*
X2176000Y115854D01*
X2175929Y116849D01*
X2175929Y117847D01*
X2176000Y118842D01*
X2176142Y119830D01*
X2176354Y120805D01*
X2176635Y121763D01*
X2176984Y122698D01*
X2177399Y123605D01*
X2177877Y124481D01*
X2178416Y125321D01*
X2179014Y126119D01*
X2179668Y126873D01*
X2180374Y127579D01*
X2181128Y128233D01*
X2181927Y128831D01*
X2182766Y129370D01*
X2183642Y129848D01*
X2184550Y130263D01*
X2185484Y130612D01*
X2186442Y130893D01*
X2187417Y131105D01*
X2188405Y131247D01*
X2189400Y131318D01*
X2190398Y131318D01*
X2191393Y131247D01*
X2192381Y131105D01*
X2193356Y130893D01*
X2194314Y130612D01*
X2195249Y130263D01*
X2196156Y129848D01*
X2197032Y129370D01*
X2197872Y128831D01*
X2198670Y128233D01*
X2199424Y127579D01*
X2200130Y126873D01*
X2200784Y126119D01*
X2201382Y125321D01*
X2201921Y124481D01*
X2202399Y123605D01*
X2202814Y122698D01*
X2203163Y121763D01*
X2203444Y120805D01*
X2203656Y119830D01*
X2203798Y118842D01*
X2203869Y117847D01*
X2203869Y116849D01*
X2203798Y115854D01*
X2203656Y114866D01*
X2203444Y113891D01*
X2203163Y112933D01*
X2202814Y111999D01*
X2202399Y111091D01*
X2201921Y110215D01*
X2201382Y109376D01*
X2200784Y108577D01*
X2200130Y107823D01*
X2199424Y107117D01*
X2198670Y106463D01*
X2197872Y105865D01*
X2197032Y105326D01*
X2196156Y104848D01*
X2195249Y104433D01*
X2194314Y104084D01*
X2193356Y103803D01*
X2192381Y103591D01*
X2191393Y103449D01*
X2190398Y103378D01*
X2189400Y103378D01*
X1289402Y103378D02*
X1288407Y103449D01*
X1287419Y103591D01*
X1286444Y103803D01*
X1285486Y104084D01*
X1284552Y104433D01*
X1283644Y104848D01*
X1282768Y105326D01*
X1281929Y105865D01*
X1281130Y106463D01*
X1280376Y107117D01*
X1279670Y107823D01*
X1279016Y108577D01*
X1278418Y109376D01*
X1277879Y110215D01*
X1277401Y111091D01*
X1276986Y111999D01*
X1276637Y112933D01*
X1276356Y113891D01*
X1276144Y114866D01*
X1276002Y115854D01*
X1275931Y116849D01*
X1275931Y117847D01*
X1276002Y118842D01*
X1276144Y119830D01*
X1276356Y120805D01*
X1276637Y121763D01*
X1276986Y122698D01*
X1277401Y123605D01*
X1277879Y124481D01*
X1278418Y125321D01*
X1279016Y126119D01*
X1279670Y126873D01*
X1280376Y127579D01*
X1281130Y128233D01*
X1281929Y128831D01*
X1282768Y129370D01*
X1283644Y129848D01*
X1284552Y130263D01*
X1285486Y130612D01*
X1286444Y130893D01*
X1287419Y131105D01*
X1288407Y131247D01*
X1289402Y131318D01*
X1290400Y131318D01*
X1291395Y131247D01*
X1292383Y131105D01*
X1293358Y130893D01*
X1294316Y130612D01*
X1295251Y130263D01*
X1296158Y129848D01*
X1297034Y129370D01*
X1297874Y128831D01*
X1298672Y128233D01*
X1299426Y127579D01*
X1300132Y126873D01*
X1300786Y126119D01*
X1301384Y125321D01*
X1301923Y124481D01*
X1302401Y123605D01*
X1302816Y122698D01*
X1303165Y121763D01*
X1303446Y120805D01*
X1303658Y119830D01*
X1303800Y118842D01*
X1303871Y117847D01*
X1303871Y116849D01*
X1303800Y115854D01*
X1303658Y114866D01*
X1303446Y113891D01*
X1303165Y112933D01*
X1302816Y111999D01*
X1302401Y111091D01*
X1301923Y110215D01*
X1301384Y109376D01*
X1300786Y108577D01*
X1300132Y107823D01*
X1299426Y107117D01*
X1298672Y106463D01*
X1297874Y105865D01*
X1297034Y105326D01*
X1296158Y104848D01*
X1295251Y104433D01*
X1294316Y104084D01*
X1293358Y103803D01*
X1292383Y103591D01*
X1291395Y103449D01*
X1290400Y103378D01*
X1289402Y103378D01*
M02*
