G04 EAGLE Gerber RS-274X export*
G75*
%MOMM*%
%FSLAX34Y34*%
%LPD*%
%INTop Copper*%
%IPPOS*%
%AMOC8*
5,1,8,0,0,1.08239X$1,22.5*%
G01*
%ADD10P,1.649562X8X22.500000*%
%ADD11C,1.219200*%
%ADD12C,1.219200*%
%ADD13P,1.539592X8X292.500000*%
%ADD14P,1.539592X8X112.500000*%
%ADD15R,1.500000X1.500000*%
%ADD16C,1.778000*%
%ADD17P,1.539592X8X202.500000*%
%ADD18P,1.319650X8X22.500000*%
%ADD19P,1.539592X8X22.500000*%
%ADD20P,1.319650X8X292.500000*%
%ADD21C,1.524000*%
%ADD22C,1.371600*%
%ADD23C,2.200000*%
%ADD24C,1.700000*%
%ADD25R,1.905000X1.905000*%
%ADD26C,1.905000*%
%ADD27C,0.127000*%
%ADD28C,0.457200*%


D10*
X38100Y825500D03*
X63500Y825500D03*
X88900Y825500D03*
X114300Y825500D03*
X139700Y825500D03*
X165100Y825500D03*
X38100Y850900D03*
X63500Y850900D03*
X88900Y850900D03*
X114300Y850900D03*
X139700Y850900D03*
X165100Y850900D03*
X190500Y825500D03*
X190500Y850900D03*
X215900Y825500D03*
X241300Y825500D03*
X266700Y825500D03*
X292100Y825500D03*
X317500Y825500D03*
X342900Y825500D03*
X215900Y850900D03*
X241300Y850900D03*
X266700Y850900D03*
X292100Y850900D03*
X317500Y850900D03*
X342900Y850900D03*
X368300Y825500D03*
X368300Y850900D03*
X393700Y825500D03*
X419100Y825500D03*
X444500Y825500D03*
X469900Y825500D03*
X495300Y825500D03*
X520700Y825500D03*
X393700Y850900D03*
X419100Y850900D03*
X444500Y850900D03*
X469900Y850900D03*
X495300Y850900D03*
X520700Y850900D03*
D11*
X50800Y1187704D02*
X50800Y1199896D01*
X76200Y1199896D02*
X76200Y1187704D01*
X101600Y1187704D02*
X101600Y1199896D01*
X127000Y1199896D02*
X127000Y1187704D01*
X152400Y1187704D02*
X152400Y1199896D01*
X177800Y1199896D02*
X177800Y1187704D01*
X203200Y1187704D02*
X203200Y1199896D01*
X228600Y1199896D02*
X228600Y1187704D01*
X254000Y1187704D02*
X254000Y1199896D01*
X279400Y1199896D02*
X279400Y1187704D01*
X304800Y1187704D02*
X304800Y1199896D01*
X330200Y1199896D02*
X330200Y1187704D01*
X355600Y1187704D02*
X355600Y1199896D01*
X381000Y1199896D02*
X381000Y1187704D01*
X381000Y1263904D02*
X381000Y1276096D01*
X355600Y1276096D02*
X355600Y1263904D01*
X330200Y1263904D02*
X330200Y1276096D01*
X304800Y1276096D02*
X304800Y1263904D01*
X279400Y1263904D02*
X279400Y1276096D01*
X254000Y1276096D02*
X254000Y1263904D01*
X228600Y1263904D02*
X228600Y1276096D01*
X203200Y1276096D02*
X203200Y1263904D01*
X177800Y1263904D02*
X177800Y1276096D01*
X152400Y1276096D02*
X152400Y1263904D01*
X127000Y1263904D02*
X127000Y1276096D01*
X101600Y1276096D02*
X101600Y1263904D01*
X76200Y1263904D02*
X76200Y1276096D01*
X50800Y1276096D02*
X50800Y1263904D01*
D12*
X431800Y1207770D03*
X431800Y1256030D03*
D13*
X482600Y1282700D03*
X482600Y1257300D03*
D14*
X482600Y1181100D03*
X482600Y1206500D03*
D15*
X952500Y1498600D03*
D16*
X927100Y1498600D03*
X901700Y1498600D03*
X876300Y1498600D03*
X850900Y1498600D03*
X825500Y1498600D03*
D17*
X850900Y1346200D03*
X825500Y1346200D03*
D18*
X38100Y1143000D03*
X139700Y1143000D03*
D19*
X177800Y1130300D03*
X203200Y1130300D03*
X177800Y1054100D03*
X203200Y1054100D03*
D18*
X38100Y1041400D03*
X139700Y1041400D03*
X38100Y1092200D03*
X139700Y1092200D03*
D11*
X127000Y933196D02*
X127000Y921004D01*
X152400Y921004D02*
X152400Y933196D01*
X177800Y933196D02*
X177800Y921004D01*
X203200Y921004D02*
X203200Y933196D01*
X203200Y997204D02*
X203200Y1009396D01*
X177800Y1009396D02*
X177800Y997204D01*
X152400Y997204D02*
X152400Y1009396D01*
X127000Y1009396D02*
X127000Y997204D01*
D20*
X508000Y1498600D03*
X508000Y1473200D03*
X609600Y1498600D03*
X609600Y1473200D03*
X711200Y1498600D03*
X711200Y1473200D03*
X711200Y1422400D03*
X711200Y1320800D03*
X609600Y1422400D03*
X609600Y1320800D03*
X508000Y1422400D03*
X508000Y1320800D03*
D17*
X965200Y25400D03*
X939800Y25400D03*
X965200Y419100D03*
X939800Y419100D03*
X457200Y419100D03*
X431800Y419100D03*
X711200Y419100D03*
X685800Y419100D03*
X457200Y25400D03*
X431800Y25400D03*
D11*
X88900Y1403604D02*
X88900Y1415796D01*
X114300Y1415796D02*
X114300Y1403604D01*
X139700Y1403604D02*
X139700Y1415796D01*
D16*
X88900Y1460500D03*
X139700Y1460500D03*
D21*
X83820Y939800D02*
X68580Y939800D01*
X68580Y965200D02*
X83820Y965200D01*
X83820Y990600D02*
X68580Y990600D01*
D17*
X203200Y25400D03*
X177800Y25400D03*
X711200Y25400D03*
X685800Y25400D03*
X203200Y419100D03*
X177800Y419100D03*
D22*
X939800Y1415542D02*
X939800Y1429258D01*
X965200Y1429258D02*
X965200Y1415542D01*
X825500Y1415542D02*
X825500Y1429258D01*
X850900Y1429258D02*
X850900Y1415542D01*
D23*
X276300Y1473600D03*
X206300Y1473600D03*
D24*
X266300Y1498600D03*
X216300Y1498600D03*
D25*
X335800Y1508400D03*
D26*
X335800Y1463400D03*
X400800Y1463400D03*
X400800Y1508400D03*
D18*
X279400Y965200D03*
X381000Y965200D03*
D20*
X1054100Y1498600D03*
X1054100Y1473200D03*
X1054100Y1422400D03*
X1054100Y1320800D03*
D11*
X869696Y952500D02*
X857504Y952500D01*
X857504Y977900D02*
X869696Y977900D01*
X869696Y1003300D02*
X857504Y1003300D01*
X857504Y1028700D02*
X869696Y1028700D01*
X869696Y1054100D02*
X857504Y1054100D01*
X857504Y1079500D02*
X869696Y1079500D01*
X869696Y1104900D02*
X857504Y1104900D01*
X857504Y1130300D02*
X869696Y1130300D01*
X869696Y1155700D02*
X857504Y1155700D01*
X857504Y1181100D02*
X869696Y1181100D01*
X869696Y1206500D02*
X857504Y1206500D01*
X857504Y1231900D02*
X869696Y1231900D01*
X869696Y1257300D02*
X857504Y1257300D01*
X857504Y1282700D02*
X869696Y1282700D01*
X793496Y1282700D02*
X781304Y1282700D01*
X781304Y1257300D02*
X793496Y1257300D01*
X793496Y1231900D02*
X781304Y1231900D01*
X781304Y1206500D02*
X793496Y1206500D01*
X793496Y1181100D02*
X781304Y1181100D01*
X781304Y1155700D02*
X793496Y1155700D01*
X793496Y1130300D02*
X781304Y1130300D01*
X781304Y1104900D02*
X793496Y1104900D01*
X793496Y1079500D02*
X781304Y1079500D01*
X781304Y1054100D02*
X793496Y1054100D01*
X793496Y1028700D02*
X781304Y1028700D01*
X781304Y1003300D02*
X793496Y1003300D01*
X793496Y977900D02*
X781304Y977900D01*
X781304Y952500D02*
X793496Y952500D01*
X984504Y952500D02*
X996696Y952500D01*
X996696Y977900D02*
X984504Y977900D01*
X984504Y1003300D02*
X996696Y1003300D01*
X996696Y1028700D02*
X984504Y1028700D01*
X984504Y1054100D02*
X996696Y1054100D01*
X996696Y1079500D02*
X984504Y1079500D01*
X984504Y1104900D02*
X996696Y1104900D01*
X996696Y1130300D02*
X984504Y1130300D01*
X984504Y1155700D02*
X996696Y1155700D01*
X996696Y1181100D02*
X984504Y1181100D01*
X984504Y1206500D02*
X996696Y1206500D01*
X996696Y1231900D02*
X984504Y1231900D01*
X984504Y1257300D02*
X996696Y1257300D01*
X996696Y1282700D02*
X984504Y1282700D01*
X920496Y1282700D02*
X908304Y1282700D01*
X908304Y1257300D02*
X920496Y1257300D01*
X920496Y1231900D02*
X908304Y1231900D01*
X908304Y1206500D02*
X920496Y1206500D01*
X920496Y1181100D02*
X908304Y1181100D01*
X908304Y1155700D02*
X920496Y1155700D01*
X920496Y1130300D02*
X908304Y1130300D01*
X908304Y1104900D02*
X920496Y1104900D01*
X920496Y1079500D02*
X908304Y1079500D01*
X908304Y1054100D02*
X920496Y1054100D01*
X920496Y1028700D02*
X908304Y1028700D01*
X908304Y1003300D02*
X920496Y1003300D01*
X920496Y977900D02*
X908304Y977900D01*
X908304Y952500D02*
X920496Y952500D01*
X742696Y952500D02*
X730504Y952500D01*
X730504Y977900D02*
X742696Y977900D01*
X742696Y1003300D02*
X730504Y1003300D01*
X730504Y1028700D02*
X742696Y1028700D01*
X742696Y1054100D02*
X730504Y1054100D01*
X730504Y1079500D02*
X742696Y1079500D01*
X742696Y1104900D02*
X730504Y1104900D01*
X730504Y1130300D02*
X742696Y1130300D01*
X742696Y1155700D02*
X730504Y1155700D01*
X730504Y1181100D02*
X742696Y1181100D01*
X742696Y1206500D02*
X730504Y1206500D01*
X730504Y1231900D02*
X742696Y1231900D01*
X742696Y1257300D02*
X730504Y1257300D01*
X730504Y1282700D02*
X742696Y1282700D01*
X666496Y1282700D02*
X654304Y1282700D01*
X654304Y1257300D02*
X666496Y1257300D01*
X666496Y1231900D02*
X654304Y1231900D01*
X654304Y1206500D02*
X666496Y1206500D01*
X666496Y1181100D02*
X654304Y1181100D01*
X654304Y1155700D02*
X666496Y1155700D01*
X666496Y1130300D02*
X654304Y1130300D01*
X654304Y1104900D02*
X666496Y1104900D01*
X666496Y1079500D02*
X654304Y1079500D01*
X654304Y1054100D02*
X666496Y1054100D01*
X666496Y1028700D02*
X654304Y1028700D01*
X654304Y1003300D02*
X666496Y1003300D01*
X666496Y977900D02*
X654304Y977900D01*
X654304Y952500D02*
X666496Y952500D01*
X615696Y952500D02*
X603504Y952500D01*
X603504Y977900D02*
X615696Y977900D01*
X615696Y1003300D02*
X603504Y1003300D01*
X603504Y1028700D02*
X615696Y1028700D01*
X615696Y1054100D02*
X603504Y1054100D01*
X603504Y1079500D02*
X615696Y1079500D01*
X615696Y1104900D02*
X603504Y1104900D01*
X603504Y1130300D02*
X615696Y1130300D01*
X615696Y1155700D02*
X603504Y1155700D01*
X603504Y1181100D02*
X615696Y1181100D01*
X615696Y1206500D02*
X603504Y1206500D01*
X603504Y1231900D02*
X615696Y1231900D01*
X615696Y1257300D02*
X603504Y1257300D01*
X603504Y1282700D02*
X615696Y1282700D01*
X539496Y1282700D02*
X527304Y1282700D01*
X527304Y1257300D02*
X539496Y1257300D01*
X539496Y1231900D02*
X527304Y1231900D01*
X527304Y1206500D02*
X539496Y1206500D01*
X539496Y1181100D02*
X527304Y1181100D01*
X527304Y1155700D02*
X539496Y1155700D01*
X539496Y1130300D02*
X527304Y1130300D01*
X527304Y1104900D02*
X539496Y1104900D01*
X539496Y1079500D02*
X527304Y1079500D01*
X527304Y1054100D02*
X539496Y1054100D01*
X539496Y1028700D02*
X527304Y1028700D01*
X527304Y1003300D02*
X539496Y1003300D01*
X539496Y977900D02*
X527304Y977900D01*
X527304Y952500D02*
X539496Y952500D01*
X1111504Y952500D02*
X1123696Y952500D01*
X1123696Y977900D02*
X1111504Y977900D01*
X1111504Y1003300D02*
X1123696Y1003300D01*
X1123696Y1028700D02*
X1111504Y1028700D01*
X1111504Y1054100D02*
X1123696Y1054100D01*
X1123696Y1079500D02*
X1111504Y1079500D01*
X1111504Y1104900D02*
X1123696Y1104900D01*
X1123696Y1130300D02*
X1111504Y1130300D01*
X1111504Y1155700D02*
X1123696Y1155700D01*
X1123696Y1181100D02*
X1111504Y1181100D01*
X1111504Y1206500D02*
X1123696Y1206500D01*
X1123696Y1231900D02*
X1111504Y1231900D01*
X1111504Y1257300D02*
X1123696Y1257300D01*
X1123696Y1282700D02*
X1111504Y1282700D01*
X1047496Y1282700D02*
X1035304Y1282700D01*
X1035304Y1257300D02*
X1047496Y1257300D01*
X1047496Y1231900D02*
X1035304Y1231900D01*
X1035304Y1206500D02*
X1047496Y1206500D01*
X1047496Y1181100D02*
X1035304Y1181100D01*
X1035304Y1155700D02*
X1047496Y1155700D01*
X1047496Y1130300D02*
X1035304Y1130300D01*
X1035304Y1104900D02*
X1047496Y1104900D01*
X1047496Y1079500D02*
X1035304Y1079500D01*
X1035304Y1054100D02*
X1047496Y1054100D01*
X1047496Y1028700D02*
X1035304Y1028700D01*
X1035304Y1003300D02*
X1047496Y1003300D01*
X1047496Y977900D02*
X1035304Y977900D01*
X1035304Y952500D02*
X1047496Y952500D01*
D10*
X622300Y825500D03*
X647700Y825500D03*
X673100Y825500D03*
X698500Y825500D03*
X723900Y825500D03*
X749300Y825500D03*
X622300Y850900D03*
X647700Y850900D03*
X673100Y850900D03*
X698500Y850900D03*
X723900Y850900D03*
X749300Y850900D03*
X774700Y825500D03*
X774700Y850900D03*
X800100Y825500D03*
X825500Y825500D03*
X850900Y825500D03*
X876300Y825500D03*
X901700Y825500D03*
X927100Y825500D03*
X800100Y850900D03*
X825500Y850900D03*
X850900Y850900D03*
X876300Y850900D03*
X901700Y850900D03*
X927100Y850900D03*
X952500Y825500D03*
X952500Y850900D03*
X977900Y825500D03*
X1003300Y825500D03*
X1028700Y825500D03*
X1054100Y825500D03*
X1079500Y825500D03*
X1104900Y825500D03*
X977900Y850900D03*
X1003300Y850900D03*
X1028700Y850900D03*
X1054100Y850900D03*
X1079500Y850900D03*
X1104900Y850900D03*
D19*
X1066800Y927100D03*
X1092200Y927100D03*
X939800Y927100D03*
X965200Y927100D03*
X812800Y927100D03*
X838200Y927100D03*
X685800Y927100D03*
X711200Y927100D03*
X558800Y927100D03*
X584200Y927100D03*
D11*
X272796Y50800D02*
X260604Y50800D01*
X260604Y76200D02*
X272796Y76200D01*
X272796Y101600D02*
X260604Y101600D01*
X260604Y127000D02*
X272796Y127000D01*
X272796Y152400D02*
X260604Y152400D01*
X260604Y177800D02*
X272796Y177800D01*
X272796Y203200D02*
X260604Y203200D01*
X260604Y228600D02*
X272796Y228600D01*
X272796Y254000D02*
X260604Y254000D01*
X260604Y279400D02*
X272796Y279400D01*
X272796Y304800D02*
X260604Y304800D01*
X260604Y330200D02*
X272796Y330200D01*
X272796Y355600D02*
X260604Y355600D01*
X260604Y381000D02*
X272796Y381000D01*
X120396Y381000D02*
X108204Y381000D01*
X108204Y355600D02*
X120396Y355600D01*
X120396Y330200D02*
X108204Y330200D01*
X108204Y304800D02*
X120396Y304800D01*
X120396Y279400D02*
X108204Y279400D01*
X108204Y254000D02*
X120396Y254000D01*
X120396Y228600D02*
X108204Y228600D01*
X108204Y203200D02*
X120396Y203200D01*
X120396Y177800D02*
X108204Y177800D01*
X108204Y152400D02*
X120396Y152400D01*
X120396Y127000D02*
X108204Y127000D01*
X108204Y101600D02*
X120396Y101600D01*
X120396Y76200D02*
X108204Y76200D01*
X108204Y50800D02*
X120396Y50800D01*
X514604Y50800D02*
X526796Y50800D01*
X526796Y76200D02*
X514604Y76200D01*
X514604Y101600D02*
X526796Y101600D01*
X526796Y127000D02*
X514604Y127000D01*
X514604Y152400D02*
X526796Y152400D01*
X526796Y177800D02*
X514604Y177800D01*
X514604Y203200D02*
X526796Y203200D01*
X526796Y228600D02*
X514604Y228600D01*
X514604Y254000D02*
X526796Y254000D01*
X526796Y279400D02*
X514604Y279400D01*
X514604Y304800D02*
X526796Y304800D01*
X526796Y330200D02*
X514604Y330200D01*
X514604Y355600D02*
X526796Y355600D01*
X526796Y381000D02*
X514604Y381000D01*
X374396Y381000D02*
X362204Y381000D01*
X362204Y355600D02*
X374396Y355600D01*
X374396Y330200D02*
X362204Y330200D01*
X362204Y304800D02*
X374396Y304800D01*
X374396Y279400D02*
X362204Y279400D01*
X362204Y254000D02*
X374396Y254000D01*
X374396Y228600D02*
X362204Y228600D01*
X362204Y203200D02*
X374396Y203200D01*
X374396Y177800D02*
X362204Y177800D01*
X362204Y152400D02*
X374396Y152400D01*
X374396Y127000D02*
X362204Y127000D01*
X362204Y101600D02*
X374396Y101600D01*
X374396Y76200D02*
X362204Y76200D01*
X362204Y50800D02*
X374396Y50800D01*
X768604Y50800D02*
X780796Y50800D01*
X780796Y76200D02*
X768604Y76200D01*
X768604Y101600D02*
X780796Y101600D01*
X780796Y127000D02*
X768604Y127000D01*
X768604Y152400D02*
X780796Y152400D01*
X780796Y177800D02*
X768604Y177800D01*
X768604Y203200D02*
X780796Y203200D01*
X780796Y228600D02*
X768604Y228600D01*
X768604Y254000D02*
X780796Y254000D01*
X780796Y279400D02*
X768604Y279400D01*
X768604Y304800D02*
X780796Y304800D01*
X780796Y330200D02*
X768604Y330200D01*
X768604Y355600D02*
X780796Y355600D01*
X780796Y381000D02*
X768604Y381000D01*
X628396Y381000D02*
X616204Y381000D01*
X616204Y355600D02*
X628396Y355600D01*
X628396Y330200D02*
X616204Y330200D01*
X616204Y304800D02*
X628396Y304800D01*
X628396Y279400D02*
X616204Y279400D01*
X616204Y254000D02*
X628396Y254000D01*
X628396Y228600D02*
X616204Y228600D01*
X616204Y203200D02*
X628396Y203200D01*
X628396Y177800D02*
X616204Y177800D01*
X616204Y152400D02*
X628396Y152400D01*
X628396Y127000D02*
X616204Y127000D01*
X616204Y101600D02*
X628396Y101600D01*
X628396Y76200D02*
X616204Y76200D01*
X616204Y50800D02*
X628396Y50800D01*
X1022604Y50800D02*
X1034796Y50800D01*
X1034796Y76200D02*
X1022604Y76200D01*
X1022604Y101600D02*
X1034796Y101600D01*
X1034796Y127000D02*
X1022604Y127000D01*
X1022604Y152400D02*
X1034796Y152400D01*
X1034796Y177800D02*
X1022604Y177800D01*
X1022604Y203200D02*
X1034796Y203200D01*
X1034796Y228600D02*
X1022604Y228600D01*
X1022604Y254000D02*
X1034796Y254000D01*
X1034796Y279400D02*
X1022604Y279400D01*
X1022604Y304800D02*
X1034796Y304800D01*
X1034796Y330200D02*
X1022604Y330200D01*
X1022604Y355600D02*
X1034796Y355600D01*
X1034796Y381000D02*
X1022604Y381000D01*
X882396Y381000D02*
X870204Y381000D01*
X870204Y355600D02*
X882396Y355600D01*
X882396Y330200D02*
X870204Y330200D01*
X870204Y304800D02*
X882396Y304800D01*
X882396Y279400D02*
X870204Y279400D01*
X870204Y254000D02*
X882396Y254000D01*
X882396Y228600D02*
X870204Y228600D01*
X870204Y203200D02*
X882396Y203200D01*
X882396Y177800D02*
X870204Y177800D01*
X870204Y152400D02*
X882396Y152400D01*
X882396Y127000D02*
X870204Y127000D01*
X870204Y101600D02*
X882396Y101600D01*
X882396Y76200D02*
X870204Y76200D01*
X870204Y50800D02*
X882396Y50800D01*
X272796Y444500D02*
X260604Y444500D01*
X260604Y469900D02*
X272796Y469900D01*
X272796Y495300D02*
X260604Y495300D01*
X260604Y520700D02*
X272796Y520700D01*
X272796Y546100D02*
X260604Y546100D01*
X260604Y571500D02*
X272796Y571500D01*
X272796Y596900D02*
X260604Y596900D01*
X260604Y622300D02*
X272796Y622300D01*
X272796Y647700D02*
X260604Y647700D01*
X260604Y673100D02*
X272796Y673100D01*
X272796Y698500D02*
X260604Y698500D01*
X260604Y723900D02*
X272796Y723900D01*
X272796Y749300D02*
X260604Y749300D01*
X260604Y774700D02*
X272796Y774700D01*
X120396Y774700D02*
X108204Y774700D01*
X108204Y749300D02*
X120396Y749300D01*
X120396Y723900D02*
X108204Y723900D01*
X108204Y698500D02*
X120396Y698500D01*
X120396Y673100D02*
X108204Y673100D01*
X108204Y647700D02*
X120396Y647700D01*
X120396Y622300D02*
X108204Y622300D01*
X108204Y596900D02*
X120396Y596900D01*
X120396Y571500D02*
X108204Y571500D01*
X108204Y546100D02*
X120396Y546100D01*
X120396Y520700D02*
X108204Y520700D01*
X108204Y495300D02*
X120396Y495300D01*
X120396Y469900D02*
X108204Y469900D01*
X108204Y444500D02*
X120396Y444500D01*
X514604Y444500D02*
X526796Y444500D01*
X526796Y469900D02*
X514604Y469900D01*
X514604Y495300D02*
X526796Y495300D01*
X526796Y520700D02*
X514604Y520700D01*
X514604Y546100D02*
X526796Y546100D01*
X526796Y571500D02*
X514604Y571500D01*
X514604Y596900D02*
X526796Y596900D01*
X526796Y622300D02*
X514604Y622300D01*
X514604Y647700D02*
X526796Y647700D01*
X526796Y673100D02*
X514604Y673100D01*
X514604Y698500D02*
X526796Y698500D01*
X526796Y723900D02*
X514604Y723900D01*
X514604Y749300D02*
X526796Y749300D01*
X526796Y774700D02*
X514604Y774700D01*
X374396Y774700D02*
X362204Y774700D01*
X362204Y749300D02*
X374396Y749300D01*
X374396Y723900D02*
X362204Y723900D01*
X362204Y698500D02*
X374396Y698500D01*
X374396Y673100D02*
X362204Y673100D01*
X362204Y647700D02*
X374396Y647700D01*
X374396Y622300D02*
X362204Y622300D01*
X362204Y596900D02*
X374396Y596900D01*
X374396Y571500D02*
X362204Y571500D01*
X362204Y546100D02*
X374396Y546100D01*
X374396Y520700D02*
X362204Y520700D01*
X362204Y495300D02*
X374396Y495300D01*
X374396Y469900D02*
X362204Y469900D01*
X362204Y444500D02*
X374396Y444500D01*
X768604Y444500D02*
X780796Y444500D01*
X780796Y469900D02*
X768604Y469900D01*
X768604Y495300D02*
X780796Y495300D01*
X780796Y520700D02*
X768604Y520700D01*
X768604Y546100D02*
X780796Y546100D01*
X780796Y571500D02*
X768604Y571500D01*
X768604Y596900D02*
X780796Y596900D01*
X780796Y622300D02*
X768604Y622300D01*
X768604Y647700D02*
X780796Y647700D01*
X780796Y673100D02*
X768604Y673100D01*
X768604Y698500D02*
X780796Y698500D01*
X780796Y723900D02*
X768604Y723900D01*
X768604Y749300D02*
X780796Y749300D01*
X780796Y774700D02*
X768604Y774700D01*
X628396Y774700D02*
X616204Y774700D01*
X616204Y749300D02*
X628396Y749300D01*
X628396Y723900D02*
X616204Y723900D01*
X616204Y698500D02*
X628396Y698500D01*
X628396Y673100D02*
X616204Y673100D01*
X616204Y647700D02*
X628396Y647700D01*
X628396Y622300D02*
X616204Y622300D01*
X616204Y596900D02*
X628396Y596900D01*
X628396Y571500D02*
X616204Y571500D01*
X616204Y546100D02*
X628396Y546100D01*
X628396Y520700D02*
X616204Y520700D01*
X616204Y495300D02*
X628396Y495300D01*
X628396Y469900D02*
X616204Y469900D01*
X616204Y444500D02*
X628396Y444500D01*
X1022604Y444500D02*
X1034796Y444500D01*
X1034796Y469900D02*
X1022604Y469900D01*
X1022604Y495300D02*
X1034796Y495300D01*
X1034796Y520700D02*
X1022604Y520700D01*
X1022604Y546100D02*
X1034796Y546100D01*
X1034796Y571500D02*
X1022604Y571500D01*
X1022604Y596900D02*
X1034796Y596900D01*
X1034796Y622300D02*
X1022604Y622300D01*
X1022604Y647700D02*
X1034796Y647700D01*
X1034796Y673100D02*
X1022604Y673100D01*
X1022604Y698500D02*
X1034796Y698500D01*
X1034796Y723900D02*
X1022604Y723900D01*
X1022604Y749300D02*
X1034796Y749300D01*
X1034796Y774700D02*
X1022604Y774700D01*
X882396Y774700D02*
X870204Y774700D01*
X870204Y749300D02*
X882396Y749300D01*
X882396Y723900D02*
X870204Y723900D01*
X870204Y698500D02*
X882396Y698500D01*
X882396Y673100D02*
X870204Y673100D01*
X870204Y647700D02*
X882396Y647700D01*
X882396Y622300D02*
X870204Y622300D01*
X870204Y596900D02*
X882396Y596900D01*
X882396Y571500D02*
X870204Y571500D01*
X870204Y546100D02*
X882396Y546100D01*
X882396Y520700D02*
X870204Y520700D01*
X870204Y495300D02*
X882396Y495300D01*
X882396Y469900D02*
X870204Y469900D01*
X870204Y444500D02*
X882396Y444500D01*
D14*
X25400Y1219200D03*
X25400Y1244600D03*
D18*
X317500Y1346200D03*
X419100Y1346200D03*
D21*
X241300Y1338580D02*
X241300Y1353820D01*
X266700Y1353820D02*
X266700Y1338580D01*
D10*
X558800Y825500D03*
X558800Y850900D03*
X584200Y825500D03*
X584200Y850900D03*
D27*
X825500Y1498600D02*
X850900Y1498600D01*
X203200Y1346200D02*
X152400Y1397000D01*
X139700Y1409700D01*
X203200Y1346200D02*
X203200Y1270000D01*
X1041400Y1460500D02*
X1054100Y1473200D01*
X1041400Y1460500D02*
X1041400Y1282700D01*
X216300Y1498600D02*
X152400Y1498600D01*
X152400Y1397000D01*
X88900Y1409700D02*
X25400Y1346200D01*
X25400Y1244600D01*
X914400Y1397000D02*
X939800Y1422400D01*
X914400Y1397000D02*
X914400Y1282700D01*
X142875Y1260475D02*
X76200Y1193800D01*
X142875Y1260475D02*
X142875Y1292225D01*
D28*
X142875Y1292225D03*
D27*
X787400Y1206500D02*
X825500Y1244600D01*
X825500Y1346200D01*
X876300Y1244600D02*
X914400Y1206500D01*
X876300Y1244600D02*
X825500Y1244600D01*
X517525Y1346200D02*
X403225Y1460500D01*
X517525Y1346200D02*
X825500Y1346200D01*
X403225Y1460500D02*
X400800Y1463400D01*
X638175Y1184275D02*
X638175Y930275D01*
X638175Y1184275D02*
X660400Y1206500D01*
D28*
X638175Y930275D03*
D27*
X60325Y1114425D02*
X38100Y1092200D01*
X60325Y1114425D02*
X60325Y1260475D01*
X50800Y1270000D01*
X149225Y1031875D02*
X177800Y1003300D01*
X149225Y1031875D02*
X149225Y1047750D01*
X136525Y1060450D01*
D28*
X136525Y1060450D03*
D27*
X66675Y1069975D02*
X38100Y1041400D01*
X66675Y1069975D02*
X66675Y1260475D01*
X76200Y1270000D01*
X38100Y1041400D02*
X60325Y1019175D01*
D28*
X60325Y1019175D03*
D27*
X120650Y320675D02*
X139700Y301625D01*
X120650Y320675D02*
X63500Y320675D01*
X63500Y825500D01*
X142875Y1066800D02*
X190500Y1114425D01*
X142875Y1066800D02*
X95250Y1066800D01*
X95250Y873125D01*
X76200Y854075D01*
X76200Y847725D01*
X63500Y835025D01*
X63500Y825500D01*
D28*
X139700Y301625D03*
X190500Y1114425D03*
D27*
X479425Y742950D02*
X476250Y739775D01*
X479425Y742950D02*
X479425Y819150D01*
X482600Y822325D01*
X482600Y838200D01*
X469900Y850900D01*
X587375Y1044575D02*
X577850Y1054100D01*
X577850Y1143000D01*
X555625Y1165225D01*
X504825Y1165225D01*
X504825Y1044575D01*
X469900Y1009650D01*
X469900Y850900D01*
D28*
X476250Y739775D03*
X587375Y1044575D03*
D27*
X127000Y787400D02*
X114300Y774700D01*
X127000Y787400D02*
X127000Y854075D01*
X168275Y895350D01*
X476250Y895350D02*
X495300Y876300D01*
X495300Y850900D01*
X679450Y1031875D02*
X685800Y1038225D01*
X679450Y1031875D02*
X679450Y1025525D01*
D28*
X168275Y895350D03*
X476250Y895350D03*
X685800Y1038225D03*
X679450Y1025525D03*
D27*
X504825Y777875D02*
X492125Y765175D01*
X504825Y777875D02*
X504825Y819150D01*
X508000Y822325D01*
X508000Y828675D01*
X520700Y841375D01*
X520700Y850900D01*
X549275Y946150D02*
X549275Y962025D01*
X549275Y946150D02*
X520700Y917575D01*
X520700Y850900D01*
D28*
X492125Y765175D03*
X549275Y962025D03*
D27*
X606425Y755650D02*
X590550Y739775D01*
X606425Y755650D02*
X606425Y809625D01*
X622300Y825500D01*
X603250Y904875D02*
X612775Y914400D01*
X603250Y904875D02*
X603250Y844550D01*
X622300Y825500D01*
D28*
X590550Y739775D03*
X612775Y914400D03*
D27*
X1079500Y1016000D02*
X1095375Y1031875D01*
X1079500Y1016000D02*
X1079500Y850900D01*
X1044575Y815975D02*
X1044575Y485775D01*
X1028700Y469900D01*
X288925Y98425D02*
X266700Y76200D01*
X288925Y98425D02*
X288925Y466725D01*
D28*
X1095375Y1031875D03*
X1044575Y815975D03*
X288925Y466725D03*
D27*
X1057275Y1012825D02*
X1066800Y1022350D01*
X1057275Y1012825D02*
X1057275Y942975D01*
X1047750Y933450D01*
X1047750Y857250D01*
X1054100Y850900D01*
X1060450Y844550D01*
X1060450Y835025D01*
X1066800Y828675D01*
X1066800Y755650D01*
X1050925Y739775D01*
X1050925Y676275D01*
X146050Y209550D02*
X114300Y177800D01*
X146050Y209550D02*
X146050Y542925D01*
D28*
X1066800Y1022350D03*
X1050925Y676275D03*
X146050Y542925D03*
D27*
X1019175Y876300D02*
X1019175Y993775D01*
X1019175Y876300D02*
X1028700Y866775D01*
X1028700Y850900D01*
X1016000Y838200D01*
X1016000Y784225D01*
X990600Y758825D01*
X990600Y625475D01*
X876300Y228600D02*
X892175Y212725D01*
X892175Y196850D01*
X889000Y193675D01*
X854075Y193675D01*
X854075Y600075D01*
X876300Y622300D01*
D28*
X1019175Y993775D03*
X990600Y625475D03*
D27*
X1006475Y854075D02*
X1006475Y968375D01*
X1006475Y854075D02*
X1003300Y850900D01*
X990600Y838200D01*
X990600Y822325D01*
X984250Y815975D01*
X984250Y549275D01*
X901700Y177800D02*
X876300Y152400D01*
X901700Y177800D02*
X901700Y466725D01*
X984250Y549275D01*
D28*
X1006475Y968375D03*
X984250Y549275D03*
D27*
X996950Y927100D02*
X1000125Y930275D01*
X996950Y927100D02*
X996950Y869950D01*
X977900Y850900D01*
X1117600Y952500D02*
X1123950Y946150D01*
X1123950Y523875D01*
X847725Y155575D02*
X876300Y127000D01*
X847725Y155575D02*
X847725Y511175D01*
D28*
X1000125Y930275D03*
X1123950Y523875D03*
X847725Y511175D03*
D27*
X952500Y876300D02*
X984250Y908050D01*
X952500Y876300D02*
X952500Y850900D01*
X1098550Y908050D02*
X1117600Y889000D01*
X1117600Y508000D01*
X1028700Y101600D02*
X1012825Y85725D01*
X1012825Y44450D01*
X1016000Y41275D01*
X1101725Y41275D01*
X1101725Y492125D01*
X1117600Y508000D01*
D28*
X984250Y908050D03*
X1098550Y908050D03*
X1117600Y508000D03*
D27*
X927100Y898525D02*
X930275Y901700D01*
X927100Y898525D02*
X927100Y850900D01*
X1063625Y733425D02*
X1095375Y765175D01*
X1063625Y733425D02*
X1063625Y596900D01*
D28*
X930275Y901700D03*
X1095375Y765175D03*
X1063625Y596900D03*
D27*
X898525Y854075D02*
X898525Y987425D01*
X898525Y854075D02*
X901700Y850900D01*
X914400Y838200D01*
X914400Y558800D01*
X542925Y174625D02*
X520700Y152400D01*
X542925Y174625D02*
X542925Y571500D01*
X533400Y581025D01*
X504825Y581025D01*
X504825Y561975D01*
X520700Y546100D01*
D28*
X898525Y987425D03*
X914400Y558800D03*
D27*
X885825Y1006475D02*
X898525Y1019175D01*
X885825Y1006475D02*
X885825Y860425D01*
X876300Y850900D01*
X882650Y844550D01*
X882650Y835025D01*
X889000Y828675D01*
X889000Y809625D01*
X901700Y796925D01*
X901700Y600075D01*
X536575Y193675D02*
X520700Y177800D01*
X536575Y193675D02*
X536575Y555625D01*
X520700Y571500D01*
D28*
X898525Y1019175D03*
X901700Y600075D03*
D27*
X857250Y844550D02*
X850900Y850900D01*
X857250Y844550D02*
X857250Y835025D01*
X863600Y828675D01*
X863600Y784225D01*
X844550Y765175D01*
X844550Y666750D01*
X803275Y625475D02*
X774700Y596900D01*
X803275Y625475D02*
X844550Y666750D01*
X803275Y231775D02*
X774700Y203200D01*
X803275Y231775D02*
X803275Y625475D01*
X879475Y1025525D02*
X898525Y1044575D01*
X879475Y1025525D02*
X879475Y882650D01*
X844550Y869950D02*
X825500Y850900D01*
X838200Y838200D01*
X838200Y822325D01*
X819150Y803275D01*
X819150Y669925D01*
X774700Y625475D01*
X774700Y622300D01*
X1012825Y244475D02*
X1028700Y228600D01*
X1012825Y244475D02*
X1012825Y606425D01*
X1028700Y622300D01*
D28*
X898525Y1044575D03*
X879475Y882650D03*
X844550Y869950D03*
D27*
X812800Y685800D02*
X774700Y647700D01*
X812800Y685800D02*
X812800Y838200D01*
X800100Y850900D01*
X1025525Y1089025D02*
X1041400Y1104900D01*
X1025525Y1089025D02*
X1025525Y895350D01*
X815975Y882650D02*
X800100Y866775D01*
X800100Y850900D01*
X282575Y269875D02*
X266700Y254000D01*
X282575Y269875D02*
X282575Y631825D01*
X266700Y647700D01*
D28*
X1025525Y895350D03*
X815975Y882650D03*
D27*
X758825Y688975D02*
X774700Y673100D01*
X758825Y688975D02*
X758825Y819150D01*
X762000Y822325D01*
X762000Y828675D01*
X774700Y841375D01*
X774700Y850900D01*
X1041400Y1130300D02*
X1101725Y1130300D01*
X1101725Y1098550D01*
X1111250Y1089025D01*
X1133475Y1089025D01*
X1133475Y895350D01*
X758825Y295275D02*
X774700Y279400D01*
X758825Y295275D02*
X758825Y688975D01*
D28*
X1133475Y895350D03*
D27*
X381000Y1193800D02*
X361950Y1174750D01*
D28*
X361950Y1174750D03*
D27*
X92075Y1285875D02*
X38100Y1285875D01*
X38100Y1158875D01*
X25400Y1146175D01*
X25400Y641350D01*
X860425Y219075D02*
X876300Y203200D01*
X860425Y219075D02*
X860425Y581025D01*
X876300Y596900D01*
D28*
X92075Y1285875D03*
X25400Y641350D03*
D27*
X288925Y1203325D02*
X355600Y1270000D01*
X288925Y1203325D02*
X288925Y1114425D01*
X892175Y269875D02*
X876300Y254000D01*
X892175Y269875D02*
X892175Y631825D01*
X876300Y647700D01*
D28*
X288925Y1114425D03*
D27*
X88900Y422275D02*
X117475Y393700D01*
X88900Y422275D02*
X88900Y825500D01*
D28*
X117475Y393700D03*
D27*
X165100Y381000D02*
X190500Y406400D01*
X190500Y825500D01*
X212725Y936625D02*
X276225Y1000125D01*
X212725Y936625D02*
X212725Y863600D01*
X203200Y854075D01*
X203200Y838200D01*
X190500Y825500D01*
D28*
X165100Y381000D03*
X276225Y1000125D03*
D27*
X234950Y387350D02*
X241300Y381000D01*
X234950Y387350D02*
X234950Y812800D01*
D28*
X241300Y381000D03*
X234950Y812800D03*
D27*
X133350Y400050D02*
X114300Y381000D01*
X133350Y400050D02*
X133350Y819150D01*
X139700Y825500D01*
X514350Y1035050D02*
X533400Y1054100D01*
X514350Y1035050D02*
X514350Y895350D01*
D28*
X514350Y895350D03*
D27*
X139700Y381000D02*
X114300Y355600D01*
X139700Y381000D02*
X139700Y800100D01*
X152400Y812800D02*
X165100Y825500D01*
X152400Y812800D02*
X139700Y800100D01*
X187325Y936625D02*
X276225Y1025525D01*
X187325Y936625D02*
X187325Y889000D01*
X152400Y854075D01*
X152400Y812800D01*
D28*
X276225Y1025525D03*
D27*
X222250Y307975D02*
X165100Y307975D01*
X222250Y307975D02*
X222250Y819150D01*
X215900Y825500D01*
X234950Y904875D02*
X282575Y952500D01*
X234950Y904875D02*
X234950Y860425D01*
X228600Y854075D01*
X228600Y847725D01*
X215900Y835025D01*
X215900Y825500D01*
D28*
X165100Y307975D03*
X282575Y952500D03*
D27*
X247650Y288925D02*
X184150Y288925D01*
X247650Y288925D02*
X247650Y447675D01*
X241300Y454025D01*
X241300Y825500D01*
X276225Y927100D02*
X285750Y927100D01*
X276225Y927100D02*
X254000Y904875D01*
X254000Y838200D01*
X241300Y825500D01*
D28*
X184150Y288925D03*
X285750Y927100D03*
D27*
X469900Y355600D02*
X520700Y304800D01*
X469900Y355600D02*
X469900Y447675D01*
X450850Y466725D01*
X450850Y777875D01*
X273050Y800100D02*
X266700Y806450D01*
X266700Y825500D01*
X279400Y911225D02*
X288925Y920750D01*
X279400Y911225D02*
X279400Y847725D01*
X266700Y835025D01*
X266700Y825500D01*
D28*
X450850Y777875D03*
X273050Y800100D03*
X288925Y920750D03*
D27*
X396875Y1219200D02*
X431800Y1254125D01*
X431800Y1256030D01*
X431800Y1257300D02*
X482600Y1257300D01*
X431800Y1257300D02*
X431800Y1256030D01*
D28*
X396875Y1219200D03*
D27*
X431800Y1206500D02*
X482600Y1206500D01*
X431800Y1206500D02*
X431800Y1207770D01*
X850900Y1346200D02*
X850900Y1422400D01*
X228600Y1270000D02*
X212725Y1254125D01*
X212725Y1139825D01*
X203200Y1130300D01*
X279400Y1270000D02*
X301625Y1292225D01*
X301625Y1393825D01*
X403225Y1495425D01*
X508000Y1495425D01*
X508000Y1498600D01*
X609600Y1473200D02*
X609600Y1422400D01*
X508000Y1422400D02*
X508000Y1473200D01*
X711200Y1473200D02*
X711200Y1422400D01*
X177800Y1270000D02*
X114300Y1333500D01*
X114300Y1409700D01*
X825500Y1422400D02*
X863600Y1460500D01*
X863600Y1504950D01*
X869950Y1511300D01*
X952500Y1511300D01*
X952500Y1498600D01*
X901700Y1485900D02*
X965200Y1422400D01*
X901700Y1485900D02*
X876300Y1485900D01*
X876300Y1498600D01*
X282575Y968375D02*
X279400Y965200D01*
X282575Y968375D02*
X282575Y1168400D01*
X263525Y1187450D01*
X263525Y1323975D01*
X254000Y1333500D01*
X254000Y1489075D01*
X263525Y1498600D01*
X104775Y1292225D02*
X127000Y1270000D01*
X104775Y1292225D02*
X104775Y1460500D01*
X155575Y1511300D01*
X263525Y1511300D01*
X263525Y1498600D01*
X266300Y1498600D01*
X1054100Y1422400D02*
X1063625Y1431925D01*
X1063625Y1489075D01*
X1054100Y1498600D01*
X927100Y758825D02*
X920750Y752475D01*
X927100Y758825D02*
X927100Y825500D01*
X771525Y1038225D02*
X787400Y1054100D01*
X771525Y1038225D02*
X771525Y879475D01*
D28*
X920750Y752475D03*
X771525Y879475D03*
D27*
X933450Y787400D02*
X952500Y806450D01*
X952500Y825500D01*
X787400Y1028700D02*
X803275Y1044575D01*
X803275Y1060450D01*
X800100Y1063625D01*
X762000Y1063625D01*
X762000Y838200D01*
D28*
X933450Y787400D03*
X762000Y838200D03*
D27*
X965200Y758825D02*
X977900Y771525D01*
X977900Y825500D01*
X809625Y981075D02*
X787400Y1003300D01*
X809625Y981075D02*
X809625Y939800D01*
X800100Y930275D01*
X800100Y882650D01*
D28*
X965200Y758825D03*
X800100Y882650D03*
X831850Y873125D03*
D27*
X796925Y746125D02*
X774700Y723900D01*
X796925Y765175D02*
X796925Y812800D01*
X796925Y765175D02*
X796925Y746125D01*
X796925Y812800D02*
X787400Y822325D01*
X787400Y857250D01*
X793750Y863600D01*
X793750Y936625D01*
X803275Y946150D01*
X803275Y962025D01*
X787400Y977900D01*
X990600Y812800D02*
X1003300Y825500D01*
X990600Y812800D02*
X990600Y777875D01*
X800100Y765175D02*
X796925Y765175D01*
D28*
X990600Y777875D03*
X800100Y765175D03*
D27*
X930275Y1069975D02*
X990600Y1130300D01*
X930275Y1069975D02*
X930275Y933450D01*
X904875Y908050D01*
X749300Y895350D02*
X736600Y882650D01*
X736600Y723900D01*
X749300Y711200D01*
X749300Y704850D01*
X746125Y701675D01*
X711200Y701675D01*
X711200Y708025D01*
D28*
X711200Y708025D03*
X904875Y908050D03*
X749300Y895350D03*
D27*
X952500Y1066800D02*
X990600Y1104900D01*
X952500Y1066800D02*
X952500Y885825D01*
X939800Y873125D01*
X939800Y838200D01*
D28*
X939800Y838200D03*
D27*
X895350Y692150D02*
X876300Y673100D01*
X895350Y692150D02*
X895350Y720725D01*
X873125Y942975D02*
X863600Y952500D01*
X873125Y942975D02*
X873125Y914400D01*
X1031875Y914400D02*
X1041400Y904875D01*
X1041400Y838200D01*
X1054100Y825500D01*
D28*
X895350Y720725D03*
X873125Y914400D03*
X1031875Y914400D03*
D27*
X1063625Y1009650D02*
X1066800Y1012825D01*
X1063625Y1009650D02*
X1063625Y939800D01*
X1054100Y930275D01*
X1054100Y866775D01*
X1066800Y854075D01*
X1066800Y838200D01*
X1079500Y825500D01*
D28*
X1066800Y1012825D03*
D27*
X568325Y752475D02*
X565150Y755650D01*
X565150Y819150D01*
X558800Y825500D01*
D28*
X568325Y752475D03*
X781050Y882650D03*
D27*
X876300Y749300D02*
X850900Y723900D01*
X850900Y676275D01*
X698500Y657225D02*
X650875Y704850D01*
X650875Y812800D01*
X660400Y822325D01*
X660400Y838200D01*
X647700Y850900D01*
X644525Y854075D02*
X644525Y987425D01*
X644525Y854075D02*
X647700Y850900D01*
D28*
X850900Y676275D03*
X698500Y657225D03*
X644525Y987425D03*
D27*
X727075Y708025D02*
X742950Y708025D01*
X727075Y708025D02*
X711200Y723900D01*
X711200Y838200D01*
X723900Y850900D01*
X720725Y942975D02*
X720725Y1063625D01*
X720725Y942975D02*
X730250Y933450D01*
X730250Y857250D01*
X723900Y850900D01*
D28*
X742950Y708025D03*
X720725Y1063625D03*
D27*
X806450Y730250D02*
X774700Y698500D01*
X806450Y730250D02*
X806450Y800100D01*
X787400Y866775D02*
X787400Y952500D01*
D28*
X806450Y800100D03*
X787400Y866775D03*
D27*
X692150Y793750D02*
X685800Y800100D01*
X685800Y828675D01*
X673100Y841375D01*
X673100Y850900D01*
X847725Y1038225D02*
X863600Y1054100D01*
X847725Y1038225D02*
X847725Y1019175D01*
X701675Y993775D02*
X676275Y968375D01*
X676275Y933450D01*
X673100Y930275D01*
X673100Y850900D01*
D28*
X692150Y793750D03*
X847725Y1019175D03*
X701675Y993775D03*
D27*
X301625Y396875D02*
X352425Y346075D01*
X301625Y396875D02*
X301625Y692150D01*
X292100Y701675D01*
X292100Y825500D01*
X304800Y914400D02*
X323850Y933450D01*
X304800Y914400D02*
X304800Y847725D01*
X292100Y835025D01*
X292100Y825500D01*
D28*
X352425Y346075D03*
X323850Y933450D03*
D27*
X320675Y393700D02*
X349250Y365125D01*
X320675Y393700D02*
X320675Y822325D01*
X317500Y825500D01*
X330200Y981075D02*
X342900Y993775D01*
X330200Y981075D02*
X330200Y838200D01*
X317500Y825500D01*
D28*
X349250Y365125D03*
X342900Y993775D03*
D27*
X342900Y403225D02*
X346075Y400050D01*
X342900Y403225D02*
X342900Y825500D01*
X355600Y1035050D02*
X358775Y1038225D01*
X355600Y1035050D02*
X355600Y838200D01*
X342900Y825500D01*
D28*
X346075Y400050D03*
X358775Y1038225D03*
D27*
X352425Y371475D02*
X368300Y355600D01*
X352425Y371475D02*
X352425Y809625D01*
X368300Y825500D01*
X390525Y863600D02*
X390525Y1044575D01*
X390525Y863600D02*
X381000Y854075D01*
X381000Y847725D01*
X368300Y835025D01*
X368300Y825500D01*
D28*
X390525Y1044575D03*
D27*
X393700Y355600D02*
X368300Y330200D01*
X393700Y355600D02*
X393700Y825500D01*
X371475Y1035050D02*
X384175Y1047750D01*
X371475Y1035050D02*
X371475Y866775D01*
X374650Y863600D01*
D28*
X384175Y1047750D03*
X374650Y863600D03*
D27*
X406400Y342900D02*
X368300Y304800D01*
X406400Y342900D02*
X406400Y800100D01*
X419100Y812800D01*
X419100Y825500D01*
X431800Y1089025D02*
X438150Y1095375D01*
X431800Y1089025D02*
X431800Y847725D01*
X419100Y835025D01*
X419100Y825500D01*
D28*
X438150Y1095375D03*
D27*
X444500Y355600D02*
X368300Y279400D01*
X444500Y355600D02*
X444500Y825500D01*
X625475Y1114425D02*
X609600Y1130300D01*
X625475Y1114425D02*
X625475Y917575D01*
X609600Y901700D01*
X609600Y879475D01*
D28*
X609600Y879475D03*
D27*
X796925Y327025D02*
X774700Y304800D01*
X796925Y327025D02*
X796925Y419100D01*
X492125Y434975D02*
X469900Y457200D01*
X469900Y825500D01*
X457200Y1073150D02*
X498475Y1114425D01*
X457200Y1073150D02*
X457200Y838200D01*
X469900Y825500D01*
D28*
X796925Y419100D03*
X492125Y434975D03*
X498475Y1114425D03*
D27*
X790575Y346075D02*
X774700Y330200D01*
X790575Y346075D02*
X790575Y406400D01*
X530225Y406400D02*
X485775Y450850D01*
X485775Y815975D01*
X495300Y825500D01*
X511175Y1114425D02*
X565150Y1114425D01*
X511175Y1114425D02*
X511175Y1041400D01*
X508000Y1038225D01*
X508000Y838200D01*
X495300Y825500D01*
D28*
X790575Y406400D03*
X530225Y406400D03*
X565150Y1114425D03*
D27*
X644525Y444500D02*
X714375Y374650D01*
X644525Y444500D02*
X644525Y781050D01*
X631825Y866775D02*
X631825Y1076325D01*
X631825Y866775D02*
X635000Y863600D01*
D28*
X714375Y374650D03*
X644525Y781050D03*
X631825Y1076325D03*
X635000Y863600D03*
D27*
X622300Y381000D02*
X565150Y323850D01*
X565150Y320675D01*
X98425Y314325D02*
X50800Y314325D01*
X50800Y838200D01*
X57150Y844550D02*
X63500Y850900D01*
X57150Y844550D02*
X50800Y838200D01*
X660400Y1054100D02*
X676275Y1069975D01*
X676275Y1216025D01*
X206375Y1231900D02*
X161925Y1231900D01*
X161925Y1146175D01*
X66675Y1050925D01*
X66675Y1006475D01*
X57150Y996950D01*
X57150Y844550D01*
D28*
X565150Y320675D03*
X98425Y314325D03*
X676275Y1216025D03*
X206375Y1231900D03*
D27*
X98425Y425450D02*
X123825Y400050D01*
X98425Y425450D02*
X98425Y819150D01*
X101600Y822325D01*
X101600Y838200D01*
X114300Y850900D01*
X644525Y1019175D02*
X660400Y1003300D01*
X644525Y1019175D02*
X644525Y1146175D01*
X276225Y1146175D02*
X190500Y1060450D01*
X190500Y987425D01*
X136525Y933450D01*
X136525Y873125D01*
X114300Y850900D01*
D28*
X123825Y400050D03*
X644525Y1146175D03*
X276225Y1146175D03*
D27*
X606425Y320675D02*
X622300Y304800D01*
X215900Y320675D02*
X215900Y806450D01*
X203200Y819150D01*
D28*
X606425Y320675D03*
X215900Y320675D03*
X203200Y819150D03*
X425450Y869950D03*
D27*
X76200Y466725D02*
X82550Y460375D01*
X76200Y466725D02*
X76200Y838200D01*
X88900Y850900D01*
D28*
X82550Y460375D03*
D27*
X587375Y314325D02*
X622300Y279400D01*
X587375Y314325D02*
X558800Y314325D01*
X558800Y771525D01*
X650875Y942975D02*
X660400Y952500D01*
X650875Y942975D02*
X650875Y901700D01*
D28*
X558800Y771525D03*
X650875Y901700D03*
D27*
X1006475Y295275D02*
X908050Y196850D01*
X908050Y85725D01*
X882650Y60325D01*
X158750Y60325D01*
X158750Y803275D01*
X177800Y822325D01*
X177800Y838200D01*
X190500Y850900D01*
D28*
X1006475Y295275D03*
X412750Y876300D03*
D27*
X704850Y482600D02*
X752475Y434975D01*
X704850Y482600D02*
X704850Y812800D01*
X666750Y876300D02*
X666750Y920750D01*
X228600Y863600D02*
X215900Y850900D01*
X228600Y863600D02*
X228600Y901700D01*
X603250Y939800D02*
X619125Y923925D01*
D28*
X752475Y434975D03*
X704850Y812800D03*
X666750Y876300D03*
X666750Y920750D03*
X228600Y901700D03*
X603250Y939800D03*
X619125Y923925D03*
D27*
X228600Y307975D02*
X241300Y295275D01*
X228600Y307975D02*
X228600Y838200D01*
X241300Y850900D01*
X692150Y1022350D02*
X701675Y1012825D01*
X692150Y1022350D02*
X692150Y1136650D01*
X390525Y1139825D02*
X288925Y1038225D01*
X288925Y949325D01*
X241300Y901700D01*
X241300Y850900D01*
D28*
X241300Y295275D03*
X701675Y1012825D03*
X692150Y1136650D03*
X390525Y1139825D03*
D27*
X330200Y434975D02*
X336550Y428625D01*
X330200Y434975D02*
X330200Y819150D01*
X577850Y1031875D02*
X584200Y1038225D01*
X577850Y1031875D02*
X577850Y946150D01*
X273050Y914400D02*
X266700Y908050D01*
X266700Y850900D01*
D28*
X336550Y428625D03*
X330200Y819150D03*
X584200Y1038225D03*
X577850Y946150D03*
X273050Y914400D03*
D27*
X250825Y781050D02*
X250825Y454025D01*
X250825Y781050D02*
X263525Y793750D01*
X279400Y793750D01*
X279400Y838200D01*
X292100Y850900D01*
X561975Y1066800D02*
X565150Y1069975D01*
X561975Y1066800D02*
X561975Y1025525D01*
X342900Y1019175D02*
X295275Y971550D01*
X295275Y854075D01*
X292100Y850900D01*
D28*
X250825Y454025D03*
X565150Y1069975D03*
X561975Y1025525D03*
X342900Y1019175D03*
D27*
X584200Y441325D02*
X631825Y393700D01*
X584200Y441325D02*
X584200Y679450D01*
X314325Y688975D02*
X304800Y698500D01*
X304800Y838200D01*
X317500Y850900D01*
X708025Y1069975D02*
X714375Y1076325D01*
X708025Y1069975D02*
X708025Y981075D01*
X323850Y901700D02*
X317500Y895350D01*
X317500Y850900D01*
D28*
X631825Y393700D03*
X584200Y679450D03*
X314325Y688975D03*
X714375Y1076325D03*
X708025Y981075D03*
X323850Y901700D03*
D27*
X549275Y295275D02*
X596900Y295275D01*
X549275Y295275D02*
X549275Y819150D01*
X546100Y822325D01*
X546100Y933450D01*
X555625Y942975D01*
X555625Y1082675D01*
X349250Y857250D02*
X342900Y850900D01*
X349250Y857250D02*
X349250Y1082675D01*
D28*
X596900Y295275D03*
X555625Y1082675D03*
X349250Y1082675D03*
D27*
X295275Y269875D02*
X504825Y269875D01*
X295275Y269875D02*
X295275Y688975D01*
X285750Y698500D01*
X285750Y812800D01*
X698500Y1092200D02*
X736600Y1130300D01*
X698500Y1092200D02*
X698500Y1063625D01*
X390525Y1063625D02*
X365125Y1038225D01*
X365125Y854075D01*
X368300Y850900D01*
D28*
X504825Y269875D03*
X285750Y812800D03*
X698500Y1063625D03*
X390525Y1063625D03*
D27*
X384175Y819150D02*
X384175Y714375D01*
X384175Y819150D02*
X381000Y822325D01*
X381000Y838200D01*
X393700Y850900D01*
X396875Y854075D02*
X396875Y1162050D01*
X396875Y854075D02*
X393700Y850900D01*
D28*
X384175Y714375D03*
X396875Y1162050D03*
D27*
X419100Y1092200D02*
X492125Y1165225D01*
X419100Y1092200D02*
X419100Y850900D01*
D28*
X492125Y1165225D03*
D27*
X431800Y803275D02*
X412750Y784225D01*
X431800Y803275D02*
X431800Y838200D01*
X444500Y850900D01*
X873125Y1120775D02*
X914400Y1079500D01*
X873125Y1120775D02*
X806450Y1120775D01*
X806450Y1184275D01*
X793750Y1196975D01*
X682625Y1196975D01*
X682625Y1231900D01*
X673100Y1241425D01*
X498475Y1241425D01*
X498475Y1152525D01*
X444500Y1098550D01*
X444500Y850900D01*
D28*
X412750Y784225D03*
D27*
X565150Y663575D02*
X577850Y676275D01*
X577850Y812800D01*
X625475Y863600D02*
X625475Y908050D01*
X625475Y863600D02*
X635000Y854075D01*
X635000Y847725D01*
X647700Y835025D01*
X647700Y825500D01*
D28*
X565150Y663575D03*
X577850Y812800D03*
X625475Y908050D03*
D27*
X387350Y692150D02*
X368300Y673100D01*
X387350Y692150D02*
X387350Y704850D01*
X660400Y714375D02*
X673100Y727075D01*
X673100Y825500D01*
X990600Y879475D02*
X990600Y952500D01*
X990600Y879475D02*
X965200Y854075D01*
X965200Y768350D01*
X920750Y723900D01*
X920750Y692150D01*
D28*
X387350Y704850D03*
X660400Y714375D03*
X920750Y692150D03*
D27*
X698500Y708025D02*
X657225Y708025D01*
X698500Y708025D02*
X698500Y825500D01*
X698500Y933450D02*
X708025Y942975D01*
X698500Y933450D02*
X698500Y866775D01*
X685800Y854075D01*
X685800Y838200D01*
X698500Y825500D01*
D28*
X657225Y708025D03*
X708025Y942975D03*
D27*
X723900Y736600D02*
X717550Y730250D01*
X723900Y736600D02*
X723900Y825500D01*
D28*
X717550Y730250D03*
D27*
X790575Y765175D02*
X790575Y809625D01*
X774700Y825500D01*
D28*
X790575Y765175D03*
D27*
X838200Y679450D02*
X822325Y663575D01*
X838200Y679450D02*
X838200Y812800D01*
X850900Y825500D01*
X825500Y1092200D02*
X787400Y1130300D01*
X825500Y1092200D02*
X825500Y866775D01*
X812800Y854075D01*
X812800Y847725D01*
X819150Y841375D01*
X819150Y838200D01*
D28*
X822325Y663575D03*
X819150Y838200D03*
D27*
X749300Y765175D02*
X742950Y758825D01*
X749300Y765175D02*
X749300Y825500D01*
X806450Y1066800D02*
X812800Y1066800D01*
X806450Y1066800D02*
X803275Y1069975D01*
X755650Y1069975D01*
X755650Y863600D01*
D28*
X742950Y758825D03*
X812800Y1066800D03*
X755650Y863600D03*
D27*
X908050Y819150D02*
X908050Y714375D01*
X908050Y819150D02*
X901700Y825500D01*
X819150Y1079500D02*
X787400Y1079500D01*
X819150Y1079500D02*
X819150Y939800D01*
X892175Y939800D02*
X892175Y857250D01*
X889000Y854075D01*
X889000Y838200D01*
X901700Y825500D01*
D28*
X908050Y714375D03*
X819150Y939800D03*
X892175Y939800D03*
D27*
X876300Y812800D02*
X889000Y800100D01*
X876300Y812800D02*
X876300Y825500D01*
X841375Y1057275D02*
X863600Y1079500D01*
X841375Y1057275D02*
X841375Y939800D01*
X850900Y930275D01*
X850900Y866775D01*
X863600Y854075D01*
X863600Y838200D01*
X876300Y825500D01*
D28*
X889000Y800100D03*
D27*
X539750Y768350D02*
X520700Y749300D01*
X539750Y768350D02*
X539750Y835025D01*
X831850Y1057275D02*
X844550Y1069975D01*
X831850Y1057275D02*
X831850Y955675D01*
X717550Y914400D02*
X704850Y901700D01*
X704850Y857250D01*
X698500Y850900D01*
D28*
X539750Y835025D03*
X844550Y1069975D03*
X831850Y955675D03*
X717550Y914400D03*
D27*
X584200Y736600D02*
X622300Y698500D01*
X584200Y736600D02*
X584200Y825500D01*
X752475Y1104900D02*
X787400Y1104900D01*
X752475Y1104900D02*
X752475Y1098550D01*
X742950Y1089025D01*
X720725Y1089025D01*
X720725Y1073150D01*
X714375Y1066800D01*
X714375Y939800D01*
X723900Y930275D01*
X723900Y866775D01*
X711200Y854075D01*
X711200Y847725D01*
X704850Y841375D01*
X704850Y838200D01*
D28*
X704850Y838200D03*
D27*
X1012825Y873125D02*
X1022350Y863600D01*
X1012825Y873125D02*
X1012825Y1130300D01*
X996950Y1146175D01*
X863600Y1146175D01*
X863600Y1130300D01*
X596900Y863600D02*
X584200Y850900D01*
X596900Y863600D02*
X596900Y942975D01*
X593725Y946150D01*
X593725Y1089025D01*
D28*
X1022350Y863600D03*
X593725Y1089025D03*
D27*
X1101725Y1063625D02*
X1117600Y1079500D01*
X1101725Y1063625D02*
X1101725Y933450D01*
X1104900Y930275D01*
X1104900Y923925D01*
X1092200Y911225D01*
X1092200Y771525D01*
X1057275Y736600D01*
X1057275Y501650D01*
X635000Y838200D02*
X622300Y850900D01*
X635000Y838200D02*
X635000Y784225D01*
X638175Y781050D01*
X638175Y511175D01*
X622300Y495300D01*
X638175Y117475D02*
X622300Y101600D01*
X638175Y117475D02*
X638175Y511175D01*
D28*
X1057275Y501650D03*
D27*
X390525Y1346200D02*
X317500Y1346200D01*
X390525Y1346200D02*
X390525Y1177925D01*
X403225Y1165225D01*
X403225Y857250D01*
X406400Y854075D01*
X406400Y809625D01*
X400050Y803275D01*
X400050Y457200D01*
X1028700Y50800D02*
X1044575Y66675D01*
X1044575Y428625D01*
X1028700Y444500D01*
D28*
X400050Y457200D03*
D27*
X304800Y1270000D02*
X307975Y1273175D01*
X307975Y1390650D01*
X406400Y1489075D01*
X609600Y1489075D01*
X609600Y1498600D01*
X511175Y1155700D02*
X527050Y1139825D01*
X571500Y1139825D01*
X571500Y904875D01*
X584200Y892175D01*
X749300Y885825D02*
X749300Y850900D01*
D28*
X511175Y1155700D03*
X584200Y892175D03*
X749300Y885825D03*
M02*
