M48
;GenerationSoftware,Autodesk,EAGLE,9.6.2*%
;CreationDate,2020-12-02T01:51:59Z*%
FMAT,2
ICI,OFF
METRIC,TZ,000.000
T10C0.254
T9C0.800
T8C0.813
T7C0.914
T6C1.000
T5C1.016
T4C1.118
T3C1.143
T2C1.200
T1C3.200
%
G90
M71
T1
X111760Y2540
X111760Y149860
X2540Y149860
X2540Y2540
T2
X27630Y147360
X20630Y147360
T3
X33580Y150840
X33580Y146340
X40080Y146340
X40080Y150840
T4
X8890Y146050
X13970Y146050
T5
X110490Y82550
X107950Y82550
X105410Y82550
X102870Y82550
X100330Y82550
X97790Y82550
X95250Y85090
X95250Y82550
X92710Y85090
X90170Y85090
X87630Y85090
X85090Y85090
X82550Y85090
X80010Y85090
X92710Y82550
X90170Y82550
X87630Y82550
X85090Y82550
X82550Y82550
X80010Y82550
X77470Y85090
X77470Y82550
X74930Y85090
X72390Y85090
X69850Y85090
X67310Y85090
X64770Y85090
X62230Y85090
X74930Y82550
X72390Y82550
X69850Y82550
X67310Y82550
X64770Y82550
X62230Y82550
X97790Y85090
X100330Y85090
X102870Y85090
X105410Y85090
X107950Y85090
X110490Y85090
X58420Y82550
X55880Y85090
X55880Y82550
X58420Y85090
X7620Y99060
X7620Y96520
X7620Y93980
X24130Y134620
X26670Y134620
X82550Y149860
X85090Y149860
X87630Y149860
X90170Y149860
X92710Y149860
X3810Y82550
X52070Y85090
X49530Y85090
X46990Y85090
X44450Y85090
X41910Y85090
X39370Y85090
X52070Y82550
X49530Y82550
X46990Y82550
X44450Y82550
X41910Y82550
X39370Y82550
X36830Y85090
X36830Y82550
X34290Y85090
X31750Y85090
X29210Y85090
X26670Y85090
X24130Y85090
X21590Y85090
X34290Y82550
X31750Y82550
X29210Y82550
X26670Y82550
X24130Y82550
X21590Y82550
X19050Y85090
X19050Y82550
X16510Y85090
X13970Y85090
X11430Y85090
X8890Y85090
X6350Y85090
X3810Y85090
X16510Y82550
X13970Y82550
X11430Y82550
X8890Y82550
X6350Y82550
T6
X95250Y149860
T7
X96520Y142240
X82550Y142240
X85090Y142240
X93980Y142240
T8
X99060Y110490
X60960Y110490
X41910Y134620
X31750Y134620
X2540Y124460
X2540Y121920
X87630Y44450
X87630Y46990
X87630Y49530
X87630Y52070
X87630Y54610
X87630Y57150
X87630Y59690
X87630Y62230
X87630Y64770
X87630Y67310
X87630Y69850
X87630Y72390
X87630Y74930
X87630Y77470
X102870Y77470
X102870Y74930
X102870Y72390
X102870Y69850
X102870Y67310
X102870Y64770
X102870Y62230
X102870Y59690
X102870Y57150
X102870Y54610
X102870Y52070
X102870Y49530
X102870Y46990
X102870Y44450
X62230Y44450
X62230Y46990
X62230Y49530
X62230Y52070
X62230Y54610
X62230Y57150
X62230Y59690
X62230Y62230
X62230Y64770
X62230Y67310
X62230Y69850
X62230Y72390
X62230Y74930
X62230Y77470
X77470Y77470
X77470Y74930
X77470Y72390
X77470Y69850
X77470Y67310
X77470Y64770
X77470Y62230
X77470Y59690
X77470Y57150
X77470Y54610
X77470Y52070
X77470Y49530
X77470Y46990
X77470Y44450
X36830Y44450
X36830Y46990
X36830Y49530
X36830Y52070
X36830Y54610
X36830Y57150
X36830Y59690
X36830Y62230
X36830Y64770
X36830Y67310
X36830Y69850
X36830Y72390
X36830Y74930
X36830Y77470
X52070Y77470
X52070Y74930
X52070Y72390
X52070Y69850
X52070Y67310
X52070Y64770
X52070Y62230
X52070Y59690
X52070Y57150
X52070Y54610
X52070Y52070
X52070Y49530
X52070Y46990
X52070Y44450
X11430Y44450
X11430Y46990
X11430Y49530
X11430Y52070
X11430Y54610
X11430Y57150
X11430Y59690
X11430Y62230
X11430Y64770
X11430Y67310
X11430Y69850
X11430Y72390
X11430Y74930
X11430Y77470
X26670Y77470
X26670Y74930
X26670Y72390
X26670Y69850
X26670Y67310
X26670Y64770
X26670Y62230
X26670Y59690
X26670Y57150
X26670Y54610
X26670Y52070
X26670Y49530
X26670Y46990
X26670Y44450
X87630Y5080
X87630Y7620
X87630Y10160
X87630Y12700
X87630Y15240
X87630Y17780
X87630Y20320
X87630Y22860
X87630Y25400
X87630Y27940
X87630Y30480
X87630Y33020
X87630Y35560
X5080Y119380
X7620Y119380
X10160Y119380
X12700Y119380
X15240Y119380
X17780Y119380
X20320Y119380
X22860Y119380
X25400Y119380
X27940Y119380
X30480Y119380
X33020Y119380
X35560Y119380
X38100Y119380
X38100Y127000
X35560Y127000
X33020Y127000
X30480Y127000
X27940Y127000
X25400Y127000
X22860Y127000
X20320Y127000
X17780Y127000
X15240Y127000
X12700Y127000
X10160Y127000
X7620Y127000
X5080Y127000
X43180Y120777
X43180Y125603
X48260Y128270
X48260Y125730
X48260Y118110
X48260Y120650
X87630Y38100
X102870Y38100
X102870Y35560
X102870Y33020
X102870Y30480
X102870Y27940
X85090Y134620
X82550Y134620
X3810Y114300
X13970Y114300
X17780Y113030
X20320Y113030
X17780Y105410
X20320Y105410
X3810Y104140
X13970Y104140
X3810Y109220
X13970Y109220
X12700Y92710
X15240Y92710
X17780Y92710
X20320Y92710
X20320Y100330
X17780Y100330
X15240Y100330
X12700Y100330
X50800Y149860
X50800Y147320
X60960Y149860
X60960Y147320
X71120Y149860
X71120Y147320
X71120Y142240
X71120Y132080
X60960Y142240
X60960Y132080
X50800Y142240
X50800Y132080
X96520Y2540
X93980Y2540
X96520Y41910
X93980Y41910
X45720Y41910
X43180Y41910
X71120Y41910
X68580Y41910
X45720Y2540
X43180Y2540
X8890Y140970
X11430Y140970
X13970Y140970
X102870Y25400
X102870Y22860
X102870Y20320
X102870Y17780
X102870Y15240
X20320Y2540
X17780Y2540
X71120Y2540
X68580Y2540
X20320Y41910
X17780Y41910
X102870Y12700
X102870Y10160
X102870Y7620
X102870Y5080
X62230Y5080
X62230Y7620
X52070Y22860
X52070Y20320
X62230Y10160
X62230Y12700
X62230Y15240
X62230Y17780
X27940Y96520
X38100Y96520
X105410Y149860
X105410Y147320
X105410Y142240
X105410Y132080
X86360Y95250
X86360Y97790
X86360Y100330
X86360Y102870
X86360Y105410
X86360Y107950
X86360Y110490
X86360Y113030
X86360Y115570
X86360Y118110
X86360Y120650
X86360Y123190
X86360Y125730
X86360Y128270
X78740Y128270
X78740Y125730
X78740Y123190
X78740Y120650
X78740Y118110
X78740Y115570
X78740Y113030
X78740Y110490
X78740Y107950
X78740Y105410
X78740Y102870
X78740Y100330
X78740Y97790
X78740Y95250
X99060Y95250
X99060Y97790
X99060Y100330
X99060Y102870
X99060Y105410
X99060Y107950
X62230Y20320
X99060Y113030
X99060Y115570
X99060Y118110
X99060Y120650
X99060Y123190
X99060Y125730
X99060Y128270
X91440Y128270
X91440Y125730
X91440Y123190
X91440Y120650
X91440Y118110
X91440Y115570
X91440Y113030
X91440Y110490
X91440Y107950
X91440Y105410
X91440Y102870
X91440Y100330
X91440Y97790
X91440Y95250
X73660Y95250
X73660Y97790
X73660Y100330
X73660Y102870
X73660Y105410
X73660Y107950
X73660Y110490
X73660Y113030
X73660Y115570
X73660Y118110
X73660Y120650
X73660Y123190
X73660Y125730
X73660Y128270
X66040Y128270
X66040Y125730
X66040Y123190
X66040Y120650
X66040Y118110
X66040Y115570
X66040Y113030
X66040Y110490
X66040Y107950
X66040Y105410
X66040Y102870
X66040Y100330
X66040Y97790
X66040Y95250
X60960Y95250
X60960Y97790
X60960Y100330
X60960Y102870
X60960Y105410
X60960Y107950
X62230Y22860
X60960Y113030
X60960Y115570
X60960Y118110
X60960Y120650
X60960Y123190
X60960Y125730
X60960Y128270
X53340Y128270
X53340Y125730
X53340Y123190
X53340Y120650
X53340Y118110
X53340Y115570
X53340Y113030
X53340Y110490
X53340Y107950
X53340Y105410
X53340Y102870
X53340Y100330
X53340Y97790
X53340Y95250
X111760Y95250
X111760Y97790
X111760Y100330
X111760Y102870
X111760Y105410
X111760Y107950
X111760Y110490
X111760Y113030
X111760Y115570
X111760Y118110
X111760Y120650
X111760Y123190
X111760Y125730
X111760Y128270
X104140Y128270
X104140Y125730
X104140Y123190
X104140Y120650
X104140Y118110
X104140Y115570
X104140Y113030
X104140Y110490
X104140Y107950
X104140Y105410
X104140Y102870
X104140Y100330
X104140Y97790
X104140Y95250
X62230Y25400
X62230Y27940
X62230Y30480
X62230Y33020
X62230Y35560
X62230Y38100
X77470Y38100
X77470Y35560
X77470Y33020
X77470Y30480
X77470Y27940
X77470Y25400
X77470Y22860
X77470Y20320
X77470Y17780
X77470Y15240
X77470Y12700
X77470Y10160
X77470Y7620
X77470Y5080
X36830Y5080
X36830Y7620
X36830Y10160
X36830Y12700
X36830Y15240
X36830Y17780
X36830Y20320
X36830Y22860
X36830Y25400
X36830Y27940
X36830Y30480
X36830Y33020
X36830Y35560
X36830Y38100
X52070Y38100
X52070Y35560
X52070Y33020
X52070Y30480
X52070Y27940
X52070Y25400
X106680Y92710
X109220Y92710
X93980Y92710
X96520Y92710
X81280Y92710
X83820Y92710
X68580Y92710
X71120Y92710
X55880Y92710
X58420Y92710
X26670Y5080
X26670Y7620
X26670Y10160
X26670Y12700
X26670Y15240
X26670Y17780
X26670Y20320
X26670Y22860
X26670Y25400
X26670Y27940
X26670Y30480
X26670Y33020
X26670Y35560
X26670Y38100
X11430Y38100
X11430Y35560
X11430Y33020
X11430Y30480
X11430Y27940
X11430Y25400
X11430Y22860
X11430Y20320
X11430Y17780
X11430Y15240
X11430Y12700
X11430Y10160
X11430Y7620
X11430Y5080
X52070Y5080
X52070Y7620
X52070Y10160
X52070Y12700
X52070Y15240
X52070Y17780
T9
X21630Y149860
X26630Y149860
T10
X47625Y73978
X58737Y104457
X16828Y89535
X47625Y89535
X68580Y103822
X67945Y102552
X49212Y76518
X54927Y96202
X59055Y73978
X61277Y91440
X109537Y103187
X104457Y81598
X28892Y46672
X106680Y102235
X105092Y67628
X14605Y54292
X101917Y99377
X99060Y62547
X100647Y96837
X98425Y54927
X100012Y93027
X112395Y52387
X84773Y51117
X98425Y90805
X109855Y90805
X111760Y50800
X93027Y90170
X109537Y76518
X106362Y59690
X89852Y98742
X91440Y55880
X89852Y101917
X90170Y60007
X89852Y104457
X87947Y88265
X84455Y86995
X102552Y89535
X81598Y88265
X113347Y89535
X36195Y117475
X63182Y107632
X64452Y78105
X9208Y128587
X2540Y64135
X28892Y111442
X11747Y39370
X16510Y38100
X27622Y100012
X24130Y38100
X23495Y81280
X51435Y89535
X27622Y102552
X16510Y30797
X28257Y95250
X18415Y28892
X28575Y92710
X45085Y77788
X27305Y80010
X28892Y92075
X39688Y121920
X92075Y75248
X77153Y87947
X93345Y78740
X76200Y83820
X96520Y75883
X80010Y88265
X83185Y87313
X99060Y77788
X80010Y76518
X71120Y70803
X90487Y90805
X74930Y89535
X93980Y83820
X89535Y72073
X87313Y91440
X103187Y91440
X106680Y101282
X56832Y75248
X78105Y88265
X85090Y67628
X69850Y65723
X64452Y98742
X74295Y70803
X72073Y106362
X80645Y80010
X78740Y86678
X69215Y79375
X84773Y101917
X70168Y99377
X35243Y34608
X32385Y93345
X34925Y36513
X34290Y99377
X34608Y40005
X35878Y103822
X39053Y104457
X38418Y104775
X37465Y86360
X43815Y109537
X60960Y87947
X79693Y41910
X49212Y43498
X49847Y111442
X79058Y40640
X53022Y40640
X56515Y111442
X71438Y37465
X74930Y88582
X58420Y89217
X51117Y115570
X40005Y45720
X105727Y50165
X59372Y108902
X102235Y86360
X70485Y83820
X71755Y91440
X83185Y95567
X84455Y106997
X53975Y83503
X88900Y80010
X89217Y93980
X81915Y93980
X90805Y71438
X75565Y86360
X81280Y106680
X74295Y75883
X81915Y83820
X82233Y66358
X79058Y76518
X71755Y73025
X70803Y94297
X65723Y70803
X92075Y69215
X66040Y71438
X38735Y70485
X62547Y90805
X57785Y81280
X56515Y66358
X41275Y78423
X49212Y116522
X39688Y116205
X38418Y71438
X39053Y106362
X69850Y106362
X28575Y81280
X50482Y26987
X34925Y108267
X55562Y108267
X59690Y29527
X32385Y90170
X70803Y98107
X71438Y107632
X31432Y68898
X58420Y67945
X63182Y39370
X34290Y101917
X56197Y102552
X56515Y106997
X25082Y45402
X27305Y91440
X57785Y94615
X58420Y103822
X33020Y81915
X33655Y42863
X39053Y113982
X69215Y113665
X70168Y101282
X24130Y29527
X61912Y92392
X60325Y93980
X22860Y90170
X66675Y92075
X66675Y87630
X70485Y81280
X75248Y43498
X41275Y87630
X100647Y29527
X65087Y90170
X55880Y77153
X8255Y46037
X42545Y86995
X20320Y81915
X21590Y32067
X60642Y32067
X27622Y114617
X64452Y114617
X12382Y40005
X20638Y123190
X67628Y121602
X9843Y31432
X56515Y32067
X63500Y86360
X19050Y111442
X13970Y30162
X6032Y101917
X13652Y106045
X63817Y93027
X14287Y129222
M30