G04 EAGLE Gerber RS-274X export*
G75*
%MOMM*%
%FSLAX34Y34*%
%LPD*%
%IN*%
%IPPOS*%
%AMOC8*
5,1,8,0,0,1.08239X$1,22.5*%
G01*
%ADD10C,0.254000*%


D10*
X3300Y0D02*
X1143000Y0D01*
X1143000Y1523800D01*
X3300Y1523800D01*
X3300Y0D01*
X1133600Y24876D02*
X1133532Y23831D01*
X1133395Y22792D01*
X1133190Y21765D01*
X1132919Y20753D01*
X1132583Y19761D01*
X1132182Y18793D01*
X1131718Y17854D01*
X1131195Y16946D01*
X1130613Y16075D01*
X1129975Y15244D01*
X1129284Y14457D01*
X1128543Y13716D01*
X1127756Y13025D01*
X1126925Y12388D01*
X1126054Y11806D01*
X1125146Y11282D01*
X1124207Y10818D01*
X1123239Y10417D01*
X1122247Y10081D01*
X1121235Y9810D01*
X1120208Y9605D01*
X1119169Y9469D01*
X1118124Y9400D01*
X1117076Y9400D01*
X1116031Y9469D01*
X1114992Y9605D01*
X1113965Y9810D01*
X1112953Y10081D01*
X1111961Y10417D01*
X1110993Y10818D01*
X1110054Y11282D01*
X1109146Y11806D01*
X1108275Y12388D01*
X1107444Y13025D01*
X1106657Y13716D01*
X1105916Y14457D01*
X1105225Y15244D01*
X1104588Y16075D01*
X1104006Y16946D01*
X1103482Y17854D01*
X1103018Y18793D01*
X1102617Y19761D01*
X1102281Y20753D01*
X1102010Y21765D01*
X1101805Y22792D01*
X1101669Y23831D01*
X1101600Y24876D01*
X1101600Y25924D01*
X1101669Y26969D01*
X1101805Y28008D01*
X1102010Y29035D01*
X1102281Y30047D01*
X1102617Y31039D01*
X1103018Y32007D01*
X1103482Y32946D01*
X1104006Y33854D01*
X1104588Y34725D01*
X1105225Y35556D01*
X1105916Y36343D01*
X1106657Y37084D01*
X1107444Y37775D01*
X1108275Y38413D01*
X1109146Y38995D01*
X1110054Y39518D01*
X1110993Y39982D01*
X1111961Y40383D01*
X1112953Y40719D01*
X1113965Y40990D01*
X1114992Y41195D01*
X1116031Y41332D01*
X1117076Y41400D01*
X1118124Y41400D01*
X1119169Y41332D01*
X1120208Y41195D01*
X1121235Y40990D01*
X1122247Y40719D01*
X1123239Y40383D01*
X1124207Y39982D01*
X1125146Y39518D01*
X1126054Y38995D01*
X1126925Y38413D01*
X1127756Y37775D01*
X1128543Y37084D01*
X1129284Y36343D01*
X1129975Y35556D01*
X1130613Y34725D01*
X1131195Y33854D01*
X1131718Y32946D01*
X1132182Y32007D01*
X1132583Y31039D01*
X1132919Y30047D01*
X1133190Y29035D01*
X1133395Y28008D01*
X1133532Y26969D01*
X1133600Y25924D01*
X1133600Y24876D01*
X1133600Y1498076D02*
X1133532Y1497031D01*
X1133395Y1495992D01*
X1133190Y1494965D01*
X1132919Y1493953D01*
X1132583Y1492961D01*
X1132182Y1491993D01*
X1131718Y1491054D01*
X1131195Y1490146D01*
X1130613Y1489275D01*
X1129975Y1488444D01*
X1129284Y1487657D01*
X1128543Y1486916D01*
X1127756Y1486225D01*
X1126925Y1485588D01*
X1126054Y1485006D01*
X1125146Y1484482D01*
X1124207Y1484018D01*
X1123239Y1483617D01*
X1122247Y1483281D01*
X1121235Y1483010D01*
X1120208Y1482805D01*
X1119169Y1482669D01*
X1118124Y1482600D01*
X1117076Y1482600D01*
X1116031Y1482669D01*
X1114992Y1482805D01*
X1113965Y1483010D01*
X1112953Y1483281D01*
X1111961Y1483617D01*
X1110993Y1484018D01*
X1110054Y1484482D01*
X1109146Y1485006D01*
X1108275Y1485588D01*
X1107444Y1486225D01*
X1106657Y1486916D01*
X1105916Y1487657D01*
X1105225Y1488444D01*
X1104588Y1489275D01*
X1104006Y1490146D01*
X1103482Y1491054D01*
X1103018Y1491993D01*
X1102617Y1492961D01*
X1102281Y1493953D01*
X1102010Y1494965D01*
X1101805Y1495992D01*
X1101669Y1497031D01*
X1101600Y1498076D01*
X1101600Y1499124D01*
X1101669Y1500169D01*
X1101805Y1501208D01*
X1102010Y1502235D01*
X1102281Y1503247D01*
X1102617Y1504239D01*
X1103018Y1505207D01*
X1103482Y1506146D01*
X1104006Y1507054D01*
X1104588Y1507925D01*
X1105225Y1508756D01*
X1105916Y1509543D01*
X1106657Y1510284D01*
X1107444Y1510975D01*
X1108275Y1511613D01*
X1109146Y1512195D01*
X1110054Y1512718D01*
X1110993Y1513182D01*
X1111961Y1513583D01*
X1112953Y1513919D01*
X1113965Y1514190D01*
X1114992Y1514395D01*
X1116031Y1514532D01*
X1117076Y1514600D01*
X1118124Y1514600D01*
X1119169Y1514532D01*
X1120208Y1514395D01*
X1121235Y1514190D01*
X1122247Y1513919D01*
X1123239Y1513583D01*
X1124207Y1513182D01*
X1125146Y1512718D01*
X1126054Y1512195D01*
X1126925Y1511613D01*
X1127756Y1510975D01*
X1128543Y1510284D01*
X1129284Y1509543D01*
X1129975Y1508756D01*
X1130613Y1507925D01*
X1131195Y1507054D01*
X1131718Y1506146D01*
X1132182Y1505207D01*
X1132583Y1504239D01*
X1132919Y1503247D01*
X1133190Y1502235D01*
X1133395Y1501208D01*
X1133532Y1500169D01*
X1133600Y1499124D01*
X1133600Y1498076D01*
X41400Y1498076D02*
X41332Y1497031D01*
X41195Y1495992D01*
X40990Y1494965D01*
X40719Y1493953D01*
X40383Y1492961D01*
X39982Y1491993D01*
X39518Y1491054D01*
X38995Y1490146D01*
X38413Y1489275D01*
X37775Y1488444D01*
X37084Y1487657D01*
X36343Y1486916D01*
X35556Y1486225D01*
X34725Y1485588D01*
X33854Y1485006D01*
X32946Y1484482D01*
X32007Y1484018D01*
X31039Y1483617D01*
X30047Y1483281D01*
X29035Y1483010D01*
X28008Y1482805D01*
X26969Y1482669D01*
X25924Y1482600D01*
X24876Y1482600D01*
X23831Y1482669D01*
X22792Y1482805D01*
X21765Y1483010D01*
X20753Y1483281D01*
X19761Y1483617D01*
X18793Y1484018D01*
X17854Y1484482D01*
X16946Y1485006D01*
X16075Y1485588D01*
X15244Y1486225D01*
X14457Y1486916D01*
X13716Y1487657D01*
X13025Y1488444D01*
X12388Y1489275D01*
X11806Y1490146D01*
X11282Y1491054D01*
X10818Y1491993D01*
X10417Y1492961D01*
X10081Y1493953D01*
X9810Y1494965D01*
X9605Y1495992D01*
X9469Y1497031D01*
X9400Y1498076D01*
X9400Y1499124D01*
X9469Y1500169D01*
X9605Y1501208D01*
X9810Y1502235D01*
X10081Y1503247D01*
X10417Y1504239D01*
X10818Y1505207D01*
X11282Y1506146D01*
X11806Y1507054D01*
X12388Y1507925D01*
X13025Y1508756D01*
X13716Y1509543D01*
X14457Y1510284D01*
X15244Y1510975D01*
X16075Y1511613D01*
X16946Y1512195D01*
X17854Y1512718D01*
X18793Y1513182D01*
X19761Y1513583D01*
X20753Y1513919D01*
X21765Y1514190D01*
X22792Y1514395D01*
X23831Y1514532D01*
X24876Y1514600D01*
X25924Y1514600D01*
X26969Y1514532D01*
X28008Y1514395D01*
X29035Y1514190D01*
X30047Y1513919D01*
X31039Y1513583D01*
X32007Y1513182D01*
X32946Y1512718D01*
X33854Y1512195D01*
X34725Y1511613D01*
X35556Y1510975D01*
X36343Y1510284D01*
X37084Y1509543D01*
X37775Y1508756D01*
X38413Y1507925D01*
X38995Y1507054D01*
X39518Y1506146D01*
X39982Y1505207D01*
X40383Y1504239D01*
X40719Y1503247D01*
X40990Y1502235D01*
X41195Y1501208D01*
X41332Y1500169D01*
X41400Y1499124D01*
X41400Y1498076D01*
X41400Y24876D02*
X41332Y23831D01*
X41195Y22792D01*
X40990Y21765D01*
X40719Y20753D01*
X40383Y19761D01*
X39982Y18793D01*
X39518Y17854D01*
X38995Y16946D01*
X38413Y16075D01*
X37775Y15244D01*
X37084Y14457D01*
X36343Y13716D01*
X35556Y13025D01*
X34725Y12388D01*
X33854Y11806D01*
X32946Y11282D01*
X32007Y10818D01*
X31039Y10417D01*
X30047Y10081D01*
X29035Y9810D01*
X28008Y9605D01*
X26969Y9469D01*
X25924Y9400D01*
X24876Y9400D01*
X23831Y9469D01*
X22792Y9605D01*
X21765Y9810D01*
X20753Y10081D01*
X19761Y10417D01*
X18793Y10818D01*
X17854Y11282D01*
X16946Y11806D01*
X16075Y12388D01*
X15244Y13025D01*
X14457Y13716D01*
X13716Y14457D01*
X13025Y15244D01*
X12388Y16075D01*
X11806Y16946D01*
X11282Y17854D01*
X10818Y18793D01*
X10417Y19761D01*
X10081Y20753D01*
X9810Y21765D01*
X9605Y22792D01*
X9469Y23831D01*
X9400Y24876D01*
X9400Y25924D01*
X9469Y26969D01*
X9605Y28008D01*
X9810Y29035D01*
X10081Y30047D01*
X10417Y31039D01*
X10818Y32007D01*
X11282Y32946D01*
X11806Y33854D01*
X12388Y34725D01*
X13025Y35556D01*
X13716Y36343D01*
X14457Y37084D01*
X15244Y37775D01*
X16075Y38413D01*
X16946Y38995D01*
X17854Y39518D01*
X18793Y39982D01*
X19761Y40383D01*
X20753Y40719D01*
X21765Y40990D01*
X22792Y41195D01*
X23831Y41332D01*
X24876Y41400D01*
X25924Y41400D01*
X26969Y41332D01*
X28008Y41195D01*
X29035Y40990D01*
X30047Y40719D01*
X31039Y40383D01*
X32007Y39982D01*
X32946Y39518D01*
X33854Y38995D01*
X34725Y38413D01*
X35556Y37775D01*
X36343Y37084D01*
X37084Y36343D01*
X37775Y35556D01*
X38413Y34725D01*
X38995Y33854D01*
X39518Y32946D01*
X39982Y32007D01*
X40383Y31039D01*
X40719Y30047D01*
X40990Y29035D01*
X41195Y28008D01*
X41332Y26969D01*
X41400Y25924D01*
X41400Y24876D01*
M02*
