%
M48
M72
T01C0.01000
T02C0.03200
T03C0.04000
T04C0.11000
%
T01
X501917Y296800
X519417Y328050
X525667Y31800
X536917Y24300
X564417Y253050
X528167Y5550
X516917Y80550
X540667Y366800
X545667Y364300
X530667Y354300
X539417Y248050
X579417Y346800
X596917Y53050
X609417Y125550
X629417Y180550
X648167Y100550
X669417Y96800
X660667Y128050
X664417Y235550
X595667Y229300
X598167Y415550
X599417Y65550
X575667Y50550
X570667Y51800
X563167Y51800
X560667Y53050
X558167Y45550
X576917Y235550
X589417Y235550
X596917Y234300
X601917Y154300
X609417Y151800
X641917Y83050
X630667Y150550
X601917Y124300
X589417Y103050
X585667Y126800
X555667Y205550
X570667Y220550
X563167Y221800
X558167Y174300
X564417Y174300
X574417Y154300
X555667Y131800
X548167Y170550
X548167Y151800
X539417Y156800
X536917Y133050
X531917Y151800
X548167Y205550
X525667Y203050
X521917Y101800
X524417Y83050
X524417Y74300
X551917Y53050
X560667Y31800
X620667Y70550
X669417Y171800
X653167Y176800
X650667Y174300
X650667Y229300
X655667Y226800
X626917Y320550
X696917Y250550
X685667Y255550
X660667Y400550
X610667Y378050
X609417Y195550
X578167Y179300
X581917Y169300
X645667Y168050
X639417Y76800
X675667Y48050
X670667Y74300
X581917Y80550
X565667Y101800
X551917Y80550
X571917Y76800
X530667Y101800
X524417Y224300
X490667Y233050
X495667Y233050
X459417Y433050
X463167Y431800
X516917Y286800
X530667Y276800
X496917Y264300
X488167Y253050
X475667Y250550
X469417Y306800
X480667Y84300
X483167Y78050
X480667Y73050
X466917Y54300
X485667Y126800
X438167Y81800
X426917Y250550
X439417Y383050
X444417Y380550
X411917Y405550
X359417Y409300
X365667Y371800
X373167Y376800
X350667Y81800
X275667Y120550
X318167Y78050
X318167Y80550
X316917Y33050
X356917Y34300
X358167Y58050
X319417Y70550
X316917Y53050
X280667Y51800
X236917Y201800
X244417Y195550
X241917Y250550
X276917Y303050
X274417Y150550
X250667Y329300
X249417Y333050
X240667Y301800
X255667Y235550
X249417Y101800
X266917Y34300
X234417Y101800
X226917Y50550
X224417Y50550
X274417Y100550
X224417Y105550
X226917Y185550
X269417Y181800
X280667Y179300
X289417Y196800
X298167Y124300
X345667Y381800
X348167Y411800
X69417Y354300
X111917Y343050
X91917Y315550
X129417Y174300
X148167Y261800
X145667Y401800
X144417Y219300
X166917Y246800
X193167Y174300
X193167Y176800
X198167Y301800
X216917Y405550
X216917Y284300
X190667Y301800
X178167Y270550
X166917Y265550
X185667Y251800
X224417Y273050
X221917Y300550
X218167Y298050
X229417Y246800
X226917Y233050
X255667Y255550
X259417Y253050
X261917Y268050
X269417Y301800
X156917Y294300
X246917Y401800
X253167Y400550
X264417Y378050
X274417Y378050
X256917Y401800
X245667Y301800
X251917Y279300
X265667Y276800
X273167Y283050
X265667Y268050
X306917Y224300
X306917Y350550
X345667Y320550
X328167Y109300
X360667Y325550
X400667Y100550
X366917Y5550
X406917Y71800
X439417Y53050
X441917Y73050
X446917Y103050
X431917Y103050
X459417Y25550
X473167Y21800
X496917Y26800
X480667Y203050
X471917Y201800
X394417Y440550
X378167Y379300
X416917Y385550
X471917Y176800
X465667Y174300
X456917Y174300
X454417Y171800
X464417Y150550
X468167Y246800
X470667Y250550
X466917Y318050
X458167Y370550
X449417Y320550
X438167Y226800
X445667Y233050
X439417Y223050
X429417Y233050
X409417Y226800
X401917Y179300
X408167Y100550
X373167Y171800
X369417Y124300
X356917Y131800
X389417Y176800
X425667Y174300
X444417Y279300
X441917Y279300
X438167Y279300
X435667Y301800
X440667Y301800
X454417Y279300
X461917Y281800
X460667Y224300
X456917Y196800
X425667Y188050
X420667Y183050
X408167Y183050
X431917Y150550
X443167Y155550
X440667Y148050
X440667Y135550
X490667Y129300
X473167Y121800
X491917Y120550
X440667Y129300
X453167Y124300
X438167Y118050
X393167Y51800
X401917Y50550
X393167Y31800
X409417Y28050
X475667Y31800
X430667Y34300
X531917Y45550
X570667Y26800
X570667Y21800
X548167Y9300
X498167Y9300
X306917Y131800
X259417Y205550
X275667Y250550
X293167Y226800
X305667Y220550
X334417Y201800
X333167Y198050
X349417Y226800
X335667Y233050
X325667Y221800
X335667Y251800
X369417Y236800
X418167Y221800
X366917Y250550
X360667Y255550
X395667Y265550
X369417Y323050
X385667Y333050
X388167Y298050
X385667Y300550
X379417Y246800
X361917Y185550
X361917Y180550
X348167Y353050
X329417Y353050
X326917Y350550
X281917Y380550
X316917Y384300
X303167Y401800
X298167Y406800
X296917Y386800
X275667Y401800
X234417Y320550
X189417Y100550
X190667Y105550
X246917Y131800
X245667Y169300
X160667Y184300
X150667Y219300
X168167Y179300
X210667Y204300
X221917Y203050
X254417Y231800
X261917Y225550
X300667Y206800
X285667Y176800
X284417Y168050
X324417Y150550
X319417Y145550
X351917Y153050
X338167Y183050
X334417Y171800
X250667Y218050
X241917Y220550
X226917Y229300
X138167Y96800
X214417Y80550
X211917Y126800
X215667Y118050
X195667Y108050
X165667Y120550
X150667Y120550
X200667Y273050
X111917Y289300
X110667Y268050
X111917Y254300
X196917Y348050
X254417Y370550
X275667Y331800
X264417Y325550
X251917Y301800
X284417Y371800
X296917Y370550
X345667Y348050
X351917Y330550
X379417Y328050
X406917Y326800
X395667Y329300
X409417Y286800
X416917Y280550
X450667Y270550
X424417Y253050
X443167Y251800
X406917Y263050
X395667Y281800
X430667Y320550
X469417Y379300
X466917Y386800
X494417Y321800
X490667Y320550
X478167Y423050
X475667Y399300
X498167Y401800
X506917Y323050
X485667Y333050
X508167Y374300
X511917Y373050
X425667Y355550
X416917Y346800
X430667Y338050
X415667Y376800
X431917Y399300
X399417Y406800
X379417Y404300
X398167Y430550
X620667Y348050
X675667Y326800
X678167Y301800
X708167Y253050
X560667Y298050
X620667Y303050
X568167Y226800
X485667Y298050
X485667Y300550
X458167Y300550
X395667Y273050
X365667Y300550
X360667Y303050
X354417Y276800
X344417Y276800
X345667Y301800
X299417Y279300
X290667Y258050
X324417Y270550
X364417Y276800
X476917Y371800
X543167Y401800
X566917Y353050
X551917Y320550
X540667Y304300
X530667Y304300
X523167Y326800
X543167Y331800
X558167Y406800
X525667Y420550
X515667Y426800
X515667Y433050
X534417Y433050
X470667Y76800
X260667Y50550
X204417Y50550
X60667Y165550
X211917Y150550
X220667Y148050
X236917Y124300
X214417Y350550
X226917Y375550
X168167Y405550
X74417Y420550
X339417Y420550
X344417Y423050
X354417Y423050
X353167Y353050
X358167Y423050
T02
X353167Y361800
X303167Y91800
X323167Y91800
X293167Y111800
X303167Y111800
X313167Y91800
X333167Y91800
X343167Y91800
X353167Y91800
X323167Y41800
X263167Y111800
X273167Y111800
X283167Y111800
X283167Y41800
X313167Y41800
X333167Y41800
X353167Y31800
X353167Y21800
X393167Y61800
X353167Y61800
X343167Y61800
X333167Y61800
X323167Y61800
X313167Y61800
X303167Y61800
X293167Y61800
X283167Y61800
X273167Y61800
X263167Y61800
X273167Y91800
X273167Y41800
X273167Y11800
X233167Y141800
X233167Y241800
X243167Y241800
X253167Y241800
X253167Y111800
X263167Y31800
X263167Y21800
X173167Y61800
X183167Y61800
X233167Y111800
X223167Y61800
X213167Y61800
X203167Y61800
X183167Y191800
X193167Y191800
X203167Y191800
X213167Y191800
X223167Y191800
X223167Y141800
X223167Y291800
X233167Y291800
X243167Y291800
X243167Y311800
X263167Y261800
X263167Y311800
X273167Y291800
X273167Y161800
X263167Y161800
X253167Y171800
X253167Y341800
X263167Y341800
X283167Y291800
X263167Y411800
X273167Y341800
X243167Y411800
X253167Y391800
X243167Y391800
X233167Y391800
X253167Y291800
X263167Y291800
X213167Y411800
X223167Y311800
X223167Y241800
X233167Y261800
X243167Y261800
X233167Y341800
X243167Y341800
X223167Y341800
X213167Y341800
X203167Y361800
X213167Y361800
X223167Y361800
X233167Y361800
X243167Y361800
X263167Y361800
X283167Y341800
X293167Y341800
X293167Y241800
X313167Y191800
X323167Y191800
X323167Y361800
X333167Y391800
X343167Y391800
X353167Y391800
X108167Y411800
X118167Y411800
X133167Y171800
X143167Y161800
X163167Y241800
X153167Y241800
X143167Y241800
X133167Y241800
X123167Y231800
X123167Y221800
X143167Y91800
X153167Y91800
X163167Y91800
X173167Y91800
X193167Y61800
X163167Y61800
X163167Y191800
X173167Y161800
X183167Y271800
X193167Y261800
X213167Y291800
X203167Y291800
X193167Y291800
X183167Y281800
X203167Y261800
X213167Y261800
X223167Y261800
X253167Y261800
X273167Y241800
X273167Y261800
X283167Y261800
X283167Y211800
X283167Y311800
X293167Y311800
X303167Y311800
X323167Y321800
X303167Y341800
X323167Y331800
X333167Y311800
X343167Y311800
X333167Y361800
X253167Y411800
X233167Y411800
X223167Y411800
X203167Y411800
X193167Y411800
X183167Y411800
X168167Y411800
X173167Y241800
X183167Y241800
X193167Y241800
X213167Y231800
X243167Y211800
X253167Y211800
X263167Y241800
X273167Y311800
X253167Y311800
X233167Y311800
X213167Y311800
X203167Y321800
X203167Y331800
X213167Y111800
X213167Y141800
X213167Y161800
X223167Y161800
X233167Y161800
X253167Y181800
X263167Y191800
X273167Y191800
X293167Y191800
X303167Y141800
X283167Y241800
X303167Y191800
X283167Y191800
X283167Y141800
X293167Y141800
X283167Y91800
X293167Y91800
X263167Y91800
X253167Y81800
X253167Y71800
X233167Y61800
X293167Y41800
X303167Y41800
X363167Y41800
X373167Y41800
X383167Y41800
X393167Y41800
X403167Y61800
X413167Y61800
X423167Y61800
X433167Y61800
X443167Y61800
X453167Y61800
X463167Y61800
X473167Y61800
X473167Y111800
X493167Y41800
X513167Y211800
X513167Y91800
X533167Y31800
X553167Y241800
X563167Y241800
X563167Y261800
X553167Y261800
X523167Y411800
X533167Y411800
X533167Y361800
X543167Y261800
X533167Y261800
X533167Y111800
X543167Y111800
X573167Y241800
X583167Y241800
X613167Y121800
X633167Y191800
X643167Y191800
X653167Y191800
X663167Y191800
X673167Y191800
X683167Y191800
X683167Y211800
X673167Y211800
X663167Y211800
X653167Y211800
X643167Y141800
X653167Y141800
X663167Y141800
X673167Y141800
X683167Y91800
X693167Y91800
X703167Y91800
X713167Y91800
X703167Y111800
X713167Y111800
X693167Y111800
X683167Y111800
X673167Y111800
X663167Y111800
X663167Y91800
X663167Y241800
X653167Y241800
X643167Y211800
X633167Y211800
X623167Y211800
X613167Y211800
X603167Y221800
X603167Y311800
X573167Y441800
X583167Y441800
X593167Y441800
X553167Y441800
X593167Y411800
X583167Y411800
X593167Y61800
X583167Y61800
X573167Y61800
X563167Y61800
X573167Y41800
X563167Y41800
X553167Y41800
X553167Y61800
X573167Y91800
X583167Y91800
X593167Y91800
X563167Y91800
X563167Y111800
X553167Y161800
X563167Y161800
X543167Y161800
X543167Y191800
X533167Y161800
X543167Y141800
X553167Y141800
X563167Y141800
X563167Y191800
X573167Y191800
X583167Y191800
X603167Y231800
X613167Y241800
X623167Y161800
X633167Y261800
X633167Y91800
X643167Y91800
X643167Y111800
X633167Y111800
X633167Y141800
X623167Y141800
X613167Y131800
X593167Y141800
X583167Y141800
X573167Y111800
X583167Y111800
X593167Y111800
X573167Y141800
X573167Y161800
X583167Y161800
X593167Y161800
X593167Y191800
X623167Y191800
X613167Y181800
X613167Y171800
X633167Y161800
X643167Y161800
X653167Y161800
X643167Y261800
X653167Y261800
X663167Y261800
X643167Y241800
X633167Y241800
X623167Y241800
X613167Y261800
X623167Y261800
X633167Y321800
X643167Y311800
X653167Y311800
X663167Y311800
X673167Y241800
X683167Y241800
X683167Y261800
X673167Y261800
X683167Y291800
X673167Y291800
X693167Y341800
X703167Y341800
X713167Y341800
X703167Y361800
X713167Y361800
X693167Y361800
X683167Y361800
X673167Y361800
X663167Y361800
X653167Y361800
X643167Y371800
X643167Y381800
X653167Y391800
X673167Y311800
X693167Y311800
X703167Y311800
X713167Y311800
X683167Y311800
X673167Y341800
X683167Y341800
X663167Y341800
X663167Y411800
X673167Y411800
X683167Y411800
X693167Y411800
X693167Y441800
X683167Y441800
X673167Y441800
X663167Y441800
X653167Y441800
X643167Y441800
X633167Y441800
X623167Y441800
X613167Y431800
X613167Y421800
X623167Y411800
X633167Y411800
X643167Y411800
X653167Y411800
X663167Y391800
X673167Y391800
X683167Y391800
X693167Y391800
X703167Y391800
X713167Y391800
X653167Y341800
X643167Y341800
X633167Y331800
X603167Y271800
X603167Y281800
X613167Y291800
X623167Y291800
X603167Y361800
X593167Y361800
X583167Y361800
X573167Y361800
X603167Y341800
X613167Y341800
X593167Y341800
X583167Y341800
X583167Y261800
X573167Y261800
X543167Y241800
X533167Y241800
X523167Y241800
X513167Y241800
X503167Y311800
X513167Y341800
X523167Y261800
X513167Y261800
X503167Y271800
X503167Y221800
X523167Y211800
X533167Y211800
X553167Y211800
X563167Y211800
X573167Y211800
X583167Y211800
X543167Y211800
X503167Y231800
X483167Y241800
X463167Y441800
X413167Y411800
X413167Y391800
X363167Y361800
X373167Y361800
X383167Y361800
X363167Y391800
X373167Y391800
X383167Y391800
X393167Y361800
X373167Y111800
X383167Y91800
X393167Y91800
X403167Y91800
X363167Y11800
X373167Y11800
X383167Y11800
X403167Y41800
X393167Y11800
X403167Y11800
X413167Y41800
X423167Y41800
X513167Y11800
X503167Y11800
X513167Y61800
X523167Y61800
X533167Y61800
X543167Y61800
X533167Y91800
X543167Y91800
X553167Y91800
X523167Y91800
X503167Y61800
X493167Y71800
X473167Y41800
X473167Y311800
X473167Y91800
X463167Y91800
X453167Y91800
X443167Y91800
X433167Y111800
X433167Y371800
X443167Y361800
X453167Y441800
X443167Y441800
X433167Y441800
X423167Y441800
X413167Y441800
X403167Y441800
X393167Y391800
X403167Y391800
X433167Y91800
X443167Y111800
X453167Y111800
X463167Y11800
X473167Y11800
X483167Y11800
X483167Y261800
X473167Y261800
X463167Y311800
X443167Y321800
X453167Y361800
X443167Y411800
X453167Y411800
X463167Y411800
X473167Y391800
X463167Y391800
X453167Y391800
X443167Y391800
X433167Y381800
X403167Y361800
X413167Y361800
X423167Y291800
X433167Y291800
X433167Y241800
X443167Y241800
X453167Y241800
X443167Y211800
X453167Y211800
X463167Y211800
X473167Y211800
X483167Y211800
X473167Y191800
X463167Y191800
X453167Y311800
X463167Y261800
X453167Y261800
X443167Y261800
X433167Y261800
X423167Y261800
X413167Y261800
X343167Y141800
X353167Y311800
X363167Y311800
X373167Y311800
X383167Y311800
X383167Y291800
X383167Y241800
X373167Y241800
X363167Y161800
X373167Y161800
X363167Y111800
X353167Y141800
X363167Y141800
X373167Y141800
X383167Y141800
X393167Y141800
X383167Y161800
X393167Y161800
X403167Y161800
X413167Y161800
X413167Y91800
X423167Y91800
X393167Y111800
X383167Y111800
X353167Y111800
X343167Y111800
X333167Y111800
X323167Y121800
X323167Y131800
X333167Y141800
X333167Y211800
X343167Y211800
X353167Y211800
X363167Y211800
X373167Y211800
X383167Y211800
X403167Y221800
X413167Y191800
X403167Y191800
X393167Y191800
X383167Y191800
X373167Y191800
X363167Y191800
X353167Y191800
X343167Y181800
X133167Y181800
X143167Y191800
X153167Y191800
X173167Y191800
X173167Y211800
X183167Y211800
X193167Y211800
X223167Y211800
X233167Y211800
X263167Y211800
X273167Y211800
X293167Y211800
X313167Y221800
X323167Y211800
X313167Y231800
X323167Y241800
X333167Y241800
X343167Y241800
X353167Y241800
X363167Y241800
X363167Y291800
X403167Y231800
X413167Y211800
X423167Y211800
X433167Y211800
X423167Y241800
X413167Y241800
X463167Y241800
X473167Y241800
X453167Y191800
X443167Y191800
X433167Y181800
X433167Y171800
X463167Y291800
X473167Y291800
X483167Y291800
X483167Y311800
X493167Y311800
X473167Y411800
X513167Y291800
X513167Y311800
X483167Y341800
X473167Y361800
X463167Y361800
X483167Y361800
X493167Y361800
X503167Y411800
X573167Y341800
X553167Y191800
X533167Y191800
X523167Y181800
X523167Y171800
X503167Y161800
X493167Y161800
X483167Y161800
X473167Y161800
X453167Y161800
X463167Y161800
X433167Y141800
X443167Y141800
X453167Y141800
X463167Y141800
X473167Y141800
X483167Y141800
X493167Y141800
X513167Y131800
X513167Y121800
X523167Y111800
X553167Y111800
X523167Y141800
X533167Y141800
X493167Y111800
X483167Y111800
X463167Y111800
X423167Y141800
X413167Y131800
X413167Y121800
X423167Y111800
X373167Y81800
X373167Y71800
X383167Y61800
X443167Y31800
X443167Y21800
X423167Y11800
X413167Y11800
X333167Y11800
X323167Y11800
X313167Y11800
X283167Y11800
X293167Y11800
X303167Y11800
X203167Y91800
X203167Y121800
X223167Y111800
X243167Y141800
X233167Y191800
X203167Y161800
X193167Y161800
X183167Y161800
X163167Y161800
X153167Y211800
X143167Y211800
X133167Y211800
X163167Y211800
X213167Y221800
X313167Y261800
X323167Y261800
X283167Y361800
X293167Y361800
X313167Y381800
X323167Y391800
X293167Y391800
X283167Y391800
X273167Y391800
X263167Y391800
X223167Y391800
X213167Y391800
X203167Y391800
X193167Y381800
X193167Y371800
X253167Y361800
X273167Y361800
X313167Y371800
X343167Y361800
X343167Y341800
X333167Y341800
X353167Y341800
X363167Y341800
X373167Y341800
X383167Y341800
X393167Y341800
X413167Y291800
X403167Y271800
X393167Y311800
X403167Y311800
X413167Y311800
X423167Y311800
X443167Y331800
X453167Y341800
X463167Y341800
X483167Y391800
X503167Y361800
X503167Y341800
X493167Y391800
X513167Y361800
X523167Y361800
X533167Y331800
X543167Y341800
X553167Y341800
X563167Y341800
X563167Y361800
X563167Y311800
X563167Y291800
X573167Y291800
X583167Y291800
X583167Y311800
X593167Y311800
X613167Y311800
X633167Y291800
X623167Y391800
X613167Y391800
X613167Y361800
X623167Y361800
X603167Y391800
X593167Y391800
X583167Y391800
X573167Y391800
X563167Y391800
X553167Y371800
X553167Y381800
X533167Y391800
X523167Y391800
X513167Y391800
X503167Y391800
X513167Y411800
X543167Y411800
X553167Y411800
X563167Y411800
X573167Y411800
X563167Y441800
X543167Y441800
X533167Y441800
X513167Y441800
X523167Y441800
X503167Y441800
X493167Y431800
X493167Y421800
X473167Y441800
X433167Y411800
X423167Y411800
X403167Y411800
X393167Y421800
X393167Y431800
X403167Y341800
X413167Y341800
X423167Y341800
X473167Y341800
X493167Y341800
X533167Y321800
X543167Y311800
X533167Y291800
X543167Y291800
X553167Y291800
X523167Y291800
X503167Y281800
X453167Y291800
X443167Y291800
X403167Y281800
X383167Y261800
X373167Y261800
X363167Y261800
X353167Y261800
X343167Y261800
X333167Y261800
X313167Y291800
X323167Y291800
X343167Y171800
X353167Y161800
X323167Y161800
X313167Y161800
X303167Y161800
X293167Y161800
X283167Y161800
X273167Y141800
X263167Y141800
X253167Y141800
X203167Y131800
X183167Y141800
X173167Y141800
X163167Y141800
X153167Y161800
X143167Y141800
X153167Y141800
X133167Y141800
X123167Y141800
X113167Y131800
X113167Y121800
X123167Y111800
X133167Y111800
X143167Y111800
X153167Y111800
X163167Y111800
X173167Y111800
X183167Y111800
X213167Y91800
X223167Y91800
X233167Y91800
X243167Y111800
X193167Y91800
X183167Y91800
X153167Y61800
X143167Y61800
X133167Y71800
X133167Y81800
X303167Y281800
X303167Y271800
X333167Y291800
X373167Y291800
X353167Y291800
X343167Y291800
X158167Y411800
X148167Y411800
X138167Y411800
X128167Y411800
X98167Y411800
X88167Y411800
X483167Y191800
X493167Y191800
X503167Y191800
X443167Y161800
X503167Y91800
X493167Y81800
X463167Y41800
X483167Y41800
X453167Y41800
X453167Y11800
X493167Y11800
X533167Y21800
X543167Y11800
X553167Y11800
X563167Y11800
X573167Y11800
X583167Y11800
X583167Y41800
X593167Y41800
X613167Y71800
X623167Y61800
X653167Y91800
X633167Y61800
X643167Y61800
X653167Y61800
X663167Y61800
X673167Y61800
X683167Y61800
X693167Y61800
X683167Y161800
X673167Y161800
X663167Y161800
X683167Y141800
X693167Y141800
X703167Y141800
X713167Y141800
X653167Y111800
X673167Y91800
X673167Y41800
X693167Y11800
X683167Y11800
X663167Y41800
X683167Y41800
X693167Y41800
X703167Y61800
X713167Y61800
X728167Y76800
X728167Y36800
X723167Y16800
X733167Y16800
X673167Y11800
X663167Y11800
X653167Y11800
X633167Y41800
X623167Y31800
X623167Y21800
X633167Y11800
X643167Y11800
X643167Y41800
X653167Y41800
X603167Y41800
X603167Y11800
X593167Y11800
X543167Y41800
X513167Y41800
X503167Y41800
X613167Y81800
X623167Y91800
X623167Y111800
X643167Y291800
X653167Y291800
X663167Y291800
X573167Y311800
X553167Y311800
T03
X713167Y211800
X713167Y241800
X723167Y241800
X723167Y231800
X723167Y221800
X723167Y211800
X713167Y221800
X713167Y231800
X713167Y251800
X723167Y251800
X73167Y331800
X83167Y331800
X83167Y321800
X83167Y361800
X83167Y351800
X83167Y371800
X73167Y371800
X73167Y361800
X73167Y351800
X73167Y341800
X83167Y341800
X83167Y311800
X83167Y301800
X83167Y291800
X83167Y281800
X83167Y271800
X83167Y261800
X83167Y251800
X83167Y241800
X83167Y231800
X83167Y221800
X83167Y211800
X83167Y201800
X83167Y191800
X83167Y181800
X83167Y171800
X73167Y161800
X83167Y161800
X73167Y171800
X63167Y171800
X63167Y331800
X63167Y321800
X73167Y321800
X73167Y311800
X73167Y301800
X73167Y291800
X73167Y281800
X73167Y271800
X73167Y261800
X73167Y251800
X73167Y241800
X73167Y231800
X73167Y221800
X73167Y211800
X73167Y201800
X73167Y191800
X73167Y181800
X63167Y181800
X63167Y191800
X63167Y201800
X63167Y211800
X63167Y221800
X63167Y231800
X63167Y241800
X63167Y251800
X63167Y261800
X63167Y271800
X63167Y281800
X63167Y291800
X63167Y301800
X63167Y311800
X63167Y341800
X63167Y351800
X63167Y361800
X63167Y371800
X63167Y381800
X73167Y381800
X83167Y381800
X83167Y81800
X83167Y71800
X73167Y71800
X63167Y71800
X63167Y81800
X73167Y81800
X73167Y91800
X83167Y91800
X83167Y101800
X83167Y111800
X83167Y121800
X73167Y121800
X73167Y111800
X73167Y101800
X63167Y101800
X63167Y91800
X63167Y111800
X63167Y121800
X63167Y131800
X73167Y131800
X83167Y131800
X83167Y141800
X73167Y141800
X63167Y141800
X63167Y151800
X73167Y151800
X83167Y151800
X63167Y161800
T04
X53167Y51775
X53167Y401825
M30
