G04 EAGLE Gerber RS-274X export*
G75*
%MOMM*%
%FSLAX34Y34*%
%LPD*%
%INBottom Copper*%
%IPPOS*%
%AMOC8*
5,1,8,0,0,1.08239X$1,22.5*%
G01*
%ADD10P,1.649562X8X202.500000*%
%ADD11P,1.319650X8X202.500000*%
%ADD12C,1.219200*%
%ADD13C,0.254000*%
%ADD14C,0.558800*%


D10*
X50800Y177800D03*
X50800Y203200D03*
X50800Y228600D03*
X50800Y254000D03*
X50800Y279400D03*
X50800Y304800D03*
X50800Y330200D03*
X50800Y355600D03*
X50800Y381000D03*
X50800Y406400D03*
X50800Y431800D03*
X50800Y457200D03*
X50800Y482600D03*
X50800Y508000D03*
X50800Y533400D03*
X50800Y558800D03*
X76200Y177800D03*
X76200Y203200D03*
X76200Y228600D03*
X76200Y254000D03*
X76200Y279400D03*
X76200Y304800D03*
X76200Y330200D03*
X76200Y355600D03*
X76200Y381000D03*
X76200Y406400D03*
X76200Y431800D03*
X76200Y457200D03*
X76200Y482600D03*
X76200Y508000D03*
X76200Y533400D03*
X76200Y558800D03*
X101600Y177800D03*
X101600Y203200D03*
X101600Y228600D03*
X101600Y254000D03*
X101600Y279400D03*
X101600Y304800D03*
X101600Y330200D03*
X101600Y355600D03*
X101600Y381000D03*
X101600Y406400D03*
X101600Y431800D03*
X101600Y457200D03*
X101600Y482600D03*
X101600Y508000D03*
X101600Y533400D03*
X101600Y558800D03*
X50800Y584200D03*
X50800Y609600D03*
X50800Y635000D03*
X50800Y660400D03*
X50800Y685800D03*
X50800Y711200D03*
X50800Y736600D03*
X50800Y762000D03*
X50800Y787400D03*
X50800Y812800D03*
X50800Y838200D03*
X50800Y863600D03*
X50800Y889000D03*
X50800Y914400D03*
X50800Y939800D03*
X50800Y965200D03*
X76200Y584200D03*
X76200Y609600D03*
X76200Y635000D03*
X76200Y660400D03*
X76200Y685800D03*
X76200Y711200D03*
X76200Y736600D03*
X76200Y762000D03*
X76200Y787400D03*
X76200Y812800D03*
X76200Y838200D03*
X76200Y863600D03*
X76200Y889000D03*
X76200Y914400D03*
X76200Y939800D03*
X76200Y965200D03*
X101600Y584200D03*
X101600Y609600D03*
X101600Y635000D03*
X101600Y660400D03*
X101600Y685800D03*
X101600Y711200D03*
X101600Y736600D03*
X101600Y762000D03*
X101600Y787400D03*
X101600Y812800D03*
X101600Y838200D03*
X101600Y863600D03*
X101600Y889000D03*
X101600Y914400D03*
X101600Y939800D03*
X101600Y965200D03*
D11*
X1752600Y38100D03*
X1727200Y38100D03*
X1651000Y38100D03*
X1549400Y38100D03*
D12*
X927100Y895604D02*
X927100Y907796D01*
X952500Y907796D02*
X952500Y895604D01*
X977900Y895604D02*
X977900Y907796D01*
X1003300Y907796D02*
X1003300Y895604D01*
X1028700Y895604D02*
X1028700Y907796D01*
X1054100Y907796D02*
X1054100Y895604D01*
X1079500Y895604D02*
X1079500Y907796D01*
X1104900Y907796D02*
X1104900Y895604D01*
X1130300Y895604D02*
X1130300Y907796D01*
X1155700Y907796D02*
X1155700Y895604D01*
X1181100Y895604D02*
X1181100Y907796D01*
X1206500Y907796D02*
X1206500Y895604D01*
X1231900Y895604D02*
X1231900Y907796D01*
X1257300Y907796D02*
X1257300Y895604D01*
X1257300Y1048004D02*
X1257300Y1060196D01*
X1231900Y1060196D02*
X1231900Y1048004D01*
X1206500Y1048004D02*
X1206500Y1060196D01*
X1181100Y1060196D02*
X1181100Y1048004D01*
X1155700Y1048004D02*
X1155700Y1060196D01*
X1130300Y1060196D02*
X1130300Y1048004D01*
X1104900Y1048004D02*
X1104900Y1060196D01*
X1079500Y1060196D02*
X1079500Y1048004D01*
X1054100Y1048004D02*
X1054100Y1060196D01*
X1028700Y1060196D02*
X1028700Y1048004D01*
X1003300Y1048004D02*
X1003300Y1060196D01*
X977900Y1060196D02*
X977900Y1048004D01*
X952500Y1048004D02*
X952500Y1060196D01*
X927100Y1060196D02*
X927100Y1048004D01*
X927100Y679196D02*
X927100Y667004D01*
X952500Y667004D02*
X952500Y679196D01*
X977900Y679196D02*
X977900Y667004D01*
X1003300Y667004D02*
X1003300Y679196D01*
X1028700Y679196D02*
X1028700Y667004D01*
X1054100Y667004D02*
X1054100Y679196D01*
X1079500Y679196D02*
X1079500Y667004D01*
X1104900Y667004D02*
X1104900Y679196D01*
X1130300Y679196D02*
X1130300Y667004D01*
X1155700Y667004D02*
X1155700Y679196D01*
X1181100Y679196D02*
X1181100Y667004D01*
X1206500Y667004D02*
X1206500Y679196D01*
X1231900Y679196D02*
X1231900Y667004D01*
X1257300Y667004D02*
X1257300Y679196D01*
X1257300Y819404D02*
X1257300Y831596D01*
X1231900Y831596D02*
X1231900Y819404D01*
X1206500Y819404D02*
X1206500Y831596D01*
X1181100Y831596D02*
X1181100Y819404D01*
X1155700Y819404D02*
X1155700Y831596D01*
X1130300Y831596D02*
X1130300Y819404D01*
X1104900Y819404D02*
X1104900Y831596D01*
X1079500Y831596D02*
X1079500Y819404D01*
X1054100Y819404D02*
X1054100Y831596D01*
X1028700Y831596D02*
X1028700Y819404D01*
X1003300Y819404D02*
X1003300Y831596D01*
X977900Y831596D02*
X977900Y819404D01*
X952500Y819404D02*
X952500Y831596D01*
X927100Y831596D02*
X927100Y819404D01*
X977900Y209296D02*
X977900Y197104D01*
X1003300Y197104D02*
X1003300Y209296D01*
X1130300Y209296D02*
X1130300Y197104D01*
X1155700Y197104D02*
X1155700Y209296D01*
X1028700Y209296D02*
X1028700Y197104D01*
X1054100Y197104D02*
X1054100Y209296D01*
X1104900Y209296D02*
X1104900Y197104D01*
X1079500Y197104D02*
X1079500Y209296D01*
X1181100Y209296D02*
X1181100Y197104D01*
X1206500Y197104D02*
X1206500Y209296D01*
X1231900Y209296D02*
X1231900Y197104D01*
X1257300Y197104D02*
X1257300Y209296D01*
X1257300Y349504D02*
X1257300Y361696D01*
X1231900Y361696D02*
X1231900Y349504D01*
X1206500Y349504D02*
X1206500Y361696D01*
X1181100Y361696D02*
X1181100Y349504D01*
X1155700Y349504D02*
X1155700Y361696D01*
X1130300Y361696D02*
X1130300Y349504D01*
X1104900Y349504D02*
X1104900Y361696D01*
X1079500Y361696D02*
X1079500Y349504D01*
X1054100Y349504D02*
X1054100Y361696D01*
X1028700Y361696D02*
X1028700Y349504D01*
X1003300Y349504D02*
X1003300Y361696D01*
X977900Y361696D02*
X977900Y349504D01*
X1181100Y82296D02*
X1181100Y70104D01*
X1155700Y70104D02*
X1155700Y82296D01*
X1130300Y82296D02*
X1130300Y70104D01*
X1104900Y70104D02*
X1104900Y82296D01*
X1079500Y82296D02*
X1079500Y70104D01*
X1054100Y70104D02*
X1054100Y82296D01*
X1028700Y82296D02*
X1028700Y70104D01*
X1003300Y70104D02*
X1003300Y82296D01*
X977900Y82296D02*
X977900Y70104D01*
X977900Y527304D02*
X977900Y539496D01*
X1003300Y539496D02*
X1003300Y527304D01*
X1028700Y527304D02*
X1028700Y539496D01*
X1054100Y539496D02*
X1054100Y527304D01*
X1079500Y527304D02*
X1079500Y539496D01*
X1104900Y539496D02*
X1104900Y527304D01*
X1130300Y527304D02*
X1130300Y539496D01*
X1155700Y539496D02*
X1155700Y527304D01*
X1181100Y527304D02*
X1181100Y539496D01*
X254000Y806704D02*
X254000Y818896D01*
X279400Y818896D02*
X279400Y806704D01*
X406400Y806704D02*
X406400Y818896D01*
X406400Y882904D02*
X406400Y895096D01*
X304800Y818896D02*
X304800Y806704D01*
X330200Y806704D02*
X330200Y818896D01*
X381000Y818896D02*
X381000Y806704D01*
X355600Y806704D02*
X355600Y818896D01*
X381000Y882904D02*
X381000Y895096D01*
X355600Y895096D02*
X355600Y882904D01*
X330200Y882904D02*
X330200Y895096D01*
X304800Y895096D02*
X304800Y882904D01*
X279400Y882904D02*
X279400Y895096D01*
X254000Y895096D02*
X254000Y882904D01*
X571500Y971804D02*
X571500Y983996D01*
X596900Y983996D02*
X596900Y971804D01*
X723900Y971804D02*
X723900Y983996D01*
X749300Y983996D02*
X749300Y971804D01*
X622300Y971804D02*
X622300Y983996D01*
X647700Y983996D02*
X647700Y971804D01*
X698500Y971804D02*
X698500Y983996D01*
X673100Y983996D02*
X673100Y971804D01*
X749300Y1048004D02*
X749300Y1060196D01*
X723900Y1060196D02*
X723900Y1048004D01*
X698500Y1048004D02*
X698500Y1060196D01*
X673100Y1060196D02*
X673100Y1048004D01*
X647700Y1048004D02*
X647700Y1060196D01*
X622300Y1060196D02*
X622300Y1048004D01*
X596900Y1048004D02*
X596900Y1060196D01*
X571500Y1060196D02*
X571500Y1048004D01*
X520700Y348996D02*
X520700Y336804D01*
X546100Y336804D02*
X546100Y348996D01*
X673100Y348996D02*
X673100Y336804D01*
X698500Y336804D02*
X698500Y348996D01*
X571500Y348996D02*
X571500Y336804D01*
X596900Y336804D02*
X596900Y348996D01*
X647700Y348996D02*
X647700Y336804D01*
X622300Y336804D02*
X622300Y348996D01*
X723900Y348996D02*
X723900Y336804D01*
X749300Y336804D02*
X749300Y348996D01*
X749300Y413004D02*
X749300Y425196D01*
X723900Y425196D02*
X723900Y413004D01*
X698500Y413004D02*
X698500Y425196D01*
X673100Y425196D02*
X673100Y413004D01*
X647700Y413004D02*
X647700Y425196D01*
X622300Y425196D02*
X622300Y413004D01*
X596900Y413004D02*
X596900Y425196D01*
X571500Y425196D02*
X571500Y413004D01*
X546100Y413004D02*
X546100Y425196D01*
X520700Y425196D02*
X520700Y413004D01*
X520700Y183896D02*
X520700Y171704D01*
X546100Y171704D02*
X546100Y183896D01*
X673100Y183896D02*
X673100Y171704D01*
X698500Y171704D02*
X698500Y183896D01*
X571500Y183896D02*
X571500Y171704D01*
X596900Y171704D02*
X596900Y183896D01*
X647700Y183896D02*
X647700Y171704D01*
X622300Y171704D02*
X622300Y183896D01*
X723900Y183896D02*
X723900Y171704D01*
X749300Y171704D02*
X749300Y183896D01*
X749300Y247904D02*
X749300Y260096D01*
X723900Y260096D02*
X723900Y247904D01*
X698500Y247904D02*
X698500Y260096D01*
X673100Y260096D02*
X673100Y247904D01*
X647700Y247904D02*
X647700Y260096D01*
X622300Y260096D02*
X622300Y247904D01*
X596900Y247904D02*
X596900Y260096D01*
X571500Y260096D02*
X571500Y247904D01*
X546100Y247904D02*
X546100Y260096D01*
X520700Y260096D02*
X520700Y247904D01*
X596900Y832104D02*
X596900Y844296D01*
X622300Y844296D02*
X622300Y832104D01*
X749300Y832104D02*
X749300Y844296D01*
X749300Y908304D02*
X749300Y920496D01*
X647700Y844296D02*
X647700Y832104D01*
X673100Y832104D02*
X673100Y844296D01*
X723900Y844296D02*
X723900Y832104D01*
X698500Y832104D02*
X698500Y844296D01*
X723900Y908304D02*
X723900Y920496D01*
X698500Y920496D02*
X698500Y908304D01*
X673100Y908304D02*
X673100Y920496D01*
X647700Y920496D02*
X647700Y908304D01*
X622300Y908304D02*
X622300Y920496D01*
X596900Y920496D02*
X596900Y908304D01*
X520700Y602996D02*
X520700Y590804D01*
X546100Y590804D02*
X546100Y602996D01*
X673100Y602996D02*
X673100Y590804D01*
X698500Y590804D02*
X698500Y602996D01*
X571500Y602996D02*
X571500Y590804D01*
X596900Y590804D02*
X596900Y602996D01*
X647700Y602996D02*
X647700Y590804D01*
X622300Y590804D02*
X622300Y602996D01*
X723900Y602996D02*
X723900Y590804D01*
X749300Y590804D02*
X749300Y602996D01*
X749300Y667004D02*
X749300Y679196D01*
X723900Y679196D02*
X723900Y667004D01*
X698500Y667004D02*
X698500Y679196D01*
X673100Y679196D02*
X673100Y667004D01*
X647700Y667004D02*
X647700Y679196D01*
X622300Y679196D02*
X622300Y667004D01*
X596900Y667004D02*
X596900Y679196D01*
X571500Y679196D02*
X571500Y667004D01*
X546100Y667004D02*
X546100Y679196D01*
X520700Y679196D02*
X520700Y667004D01*
X546100Y514096D02*
X546100Y501904D01*
X571500Y501904D02*
X571500Y514096D01*
X596900Y514096D02*
X596900Y501904D01*
X622300Y501904D02*
X622300Y514096D01*
X647700Y514096D02*
X647700Y501904D01*
X673100Y501904D02*
X673100Y514096D01*
X698500Y514096D02*
X698500Y501904D01*
X723900Y501904D02*
X723900Y514096D01*
X749300Y514096D02*
X749300Y501904D01*
X546100Y768604D02*
X546100Y780796D01*
X571500Y780796D02*
X571500Y768604D01*
X596900Y768604D02*
X596900Y780796D01*
X622300Y780796D02*
X622300Y768604D01*
X647700Y768604D02*
X647700Y780796D01*
X673100Y780796D02*
X673100Y768604D01*
X698500Y768604D02*
X698500Y780796D01*
X723900Y780796D02*
X723900Y768604D01*
X749300Y768604D02*
X749300Y780796D01*
X254000Y959104D02*
X254000Y971296D01*
X279400Y971296D02*
X279400Y959104D01*
X406400Y959104D02*
X406400Y971296D01*
X406400Y1035304D02*
X406400Y1047496D01*
X304800Y971296D02*
X304800Y959104D01*
X330200Y959104D02*
X330200Y971296D01*
X381000Y971296D02*
X381000Y959104D01*
X355600Y959104D02*
X355600Y971296D01*
X381000Y1035304D02*
X381000Y1047496D01*
X355600Y1047496D02*
X355600Y1035304D01*
X330200Y1035304D02*
X330200Y1047496D01*
X304800Y1047496D02*
X304800Y1035304D01*
X279400Y1035304D02*
X279400Y1047496D01*
X254000Y1047496D02*
X254000Y1035304D01*
X228600Y679196D02*
X228600Y667004D01*
X254000Y667004D02*
X254000Y679196D01*
X381000Y679196D02*
X381000Y667004D01*
X406400Y667004D02*
X406400Y679196D01*
X279400Y679196D02*
X279400Y667004D01*
X304800Y667004D02*
X304800Y679196D01*
X355600Y679196D02*
X355600Y667004D01*
X330200Y667004D02*
X330200Y679196D01*
X406400Y743204D02*
X406400Y755396D01*
X381000Y755396D02*
X381000Y743204D01*
X355600Y743204D02*
X355600Y755396D01*
X330200Y755396D02*
X330200Y743204D01*
X304800Y743204D02*
X304800Y755396D01*
X279400Y755396D02*
X279400Y743204D01*
X254000Y743204D02*
X254000Y755396D01*
X228600Y755396D02*
X228600Y743204D01*
X254000Y526796D02*
X254000Y514604D01*
X279400Y514604D02*
X279400Y526796D01*
X406400Y526796D02*
X406400Y514604D01*
X406400Y590804D02*
X406400Y602996D01*
X304800Y526796D02*
X304800Y514604D01*
X330200Y514604D02*
X330200Y526796D01*
X381000Y526796D02*
X381000Y514604D01*
X355600Y514604D02*
X355600Y526796D01*
X381000Y590804D02*
X381000Y602996D01*
X355600Y602996D02*
X355600Y590804D01*
X330200Y590804D02*
X330200Y602996D01*
X304800Y602996D02*
X304800Y590804D01*
X279400Y590804D02*
X279400Y602996D01*
X254000Y602996D02*
X254000Y590804D01*
D13*
X279400Y1041400D02*
X304800Y1041400D01*
X323850Y1060450D01*
X336550Y1060450D01*
X355600Y1041400D01*
X158750Y1022350D02*
X101600Y965200D01*
X158750Y1022350D02*
X260350Y1022350D01*
X279400Y1041400D01*
X387350Y539750D02*
X406400Y520700D01*
X387350Y539750D02*
X298450Y539750D01*
X279400Y520700D01*
X304800Y596900D02*
X330200Y596900D01*
X76200Y177800D02*
X50800Y177800D01*
X101600Y177800D02*
X520700Y177800D01*
X673100Y977900D02*
X692150Y996950D01*
X730250Y996950D01*
X749300Y977900D01*
X1257300Y203200D02*
X1231900Y177800D01*
X749300Y177800D01*
X1562100Y203200D02*
X1727200Y38100D01*
X1562100Y203200D02*
X1257300Y203200D01*
X539750Y196850D02*
X520700Y177800D01*
X539750Y196850D02*
X730250Y196850D01*
X749300Y177800D01*
X412750Y958850D02*
X406400Y965200D01*
X412750Y958850D02*
X628650Y958850D01*
X647700Y977900D01*
X920750Y819150D02*
X927100Y825500D01*
X920750Y819150D02*
X615950Y819150D01*
X596900Y838200D01*
X247650Y768350D02*
X228600Y749300D01*
X247650Y768350D02*
X285750Y768350D01*
X304800Y749300D01*
X361950Y768350D02*
X381000Y749300D01*
X361950Y768350D02*
X285750Y768350D01*
X539750Y768350D02*
X546100Y774700D01*
X539750Y768350D02*
X361950Y768350D01*
X571500Y1054100D02*
X558800Y1066800D01*
X279400Y1066800D01*
X254000Y1041400D01*
X1181100Y76200D02*
X1219200Y38100D01*
X1549400Y38100D01*
X76200Y203200D02*
X50800Y203200D01*
X38100Y215900D01*
X38100Y266700D01*
X508000Y266700D01*
X520700Y254000D01*
X971550Y527050D02*
X977900Y533400D01*
X971550Y527050D02*
X565150Y527050D01*
X546100Y508000D01*
X1085850Y171450D02*
X1181100Y76200D01*
X1085850Y171450D02*
X996950Y171450D01*
D14*
X996950Y171450D03*
D13*
X63500Y647700D02*
X50800Y635000D01*
X63500Y647700D02*
X133350Y647700D01*
X152400Y628650D01*
X527050Y628650D01*
D14*
X527050Y628650D03*
D13*
X203200Y488950D02*
X127000Y565150D01*
X203200Y488950D02*
X577850Y488950D01*
X596900Y508000D01*
D14*
X127000Y565150D03*
D13*
X50800Y711200D02*
X63500Y723900D01*
X400050Y723900D01*
X419100Y704850D01*
X603250Y704850D01*
D14*
X603250Y704850D03*
D13*
X50800Y736600D02*
X38100Y723900D01*
X38100Y622300D01*
X127000Y622300D01*
X133350Y615950D01*
X628650Y615950D01*
X647700Y596900D01*
X50800Y762000D02*
X31750Y742950D01*
X31750Y571500D01*
X647700Y571500D01*
X673100Y596900D01*
X139700Y622300D02*
X133350Y628650D01*
X139700Y622300D02*
X673100Y622300D01*
X698500Y596900D01*
D14*
X133350Y628650D03*
D13*
X63500Y698500D02*
X50800Y685800D01*
X63500Y698500D02*
X577850Y698500D01*
D14*
X577850Y698500D03*
D13*
X692150Y565150D02*
X139700Y565150D01*
X692150Y565150D02*
X723900Y596900D01*
D14*
X139700Y565150D03*
D13*
X520700Y317500D02*
X546100Y342900D01*
X520700Y317500D02*
X158750Y317500D01*
D14*
X158750Y317500D03*
D13*
X552450Y234950D02*
X558800Y241300D01*
X552450Y234950D02*
X114300Y234950D01*
X107950Y241300D01*
X63500Y241300D01*
X50800Y254000D01*
D14*
X558800Y241300D03*
D13*
X647700Y342900D02*
X666750Y323850D01*
X704850Y323850D01*
X711200Y330200D01*
X711200Y368300D01*
X120650Y368300D01*
D14*
X120650Y368300D03*
D13*
X679450Y361950D02*
X698500Y342900D01*
X679450Y361950D02*
X114300Y361950D01*
D14*
X114300Y361950D03*
D13*
X730250Y438150D02*
X749300Y419100D01*
X730250Y438150D02*
X127000Y438150D01*
X107950Y419100D01*
X44450Y419100D01*
X38100Y412750D01*
X38100Y330200D01*
X50800Y330200D01*
X139700Y311150D02*
X711200Y311150D01*
X139700Y311150D02*
X107950Y342900D01*
X63500Y342900D01*
X50800Y355600D01*
D14*
X711200Y311150D03*
D13*
X603250Y374650D02*
X647700Y419100D01*
X603250Y374650D02*
X114300Y374650D01*
X107950Y368300D01*
X63500Y368300D01*
X50800Y381000D01*
X571500Y393700D02*
X596900Y419100D01*
X571500Y393700D02*
X63500Y393700D01*
X50800Y406400D01*
X527050Y158750D02*
X546100Y177800D01*
X527050Y158750D02*
X139700Y158750D01*
X127000Y171450D01*
D14*
X127000Y171450D03*
D13*
X571500Y152400D02*
X596900Y177800D01*
X571500Y152400D02*
X107950Y152400D01*
X88900Y171450D01*
X88900Y190500D01*
X44450Y190500D01*
X25400Y209550D01*
X25400Y457200D01*
X50800Y457200D01*
X615950Y146050D02*
X647700Y177800D01*
X615950Y146050D02*
X63500Y146050D01*
X12700Y196850D01*
X12700Y482600D01*
X50800Y482600D01*
X679450Y273050D02*
X698500Y254000D01*
X679450Y273050D02*
X641350Y273050D01*
X622300Y292100D01*
X133350Y292100D01*
X107950Y317500D01*
X38100Y317500D01*
X31750Y323850D01*
X31750Y444500D01*
X57150Y444500D01*
X63500Y450850D01*
X63500Y495300D01*
X44450Y495300D01*
X38100Y501650D01*
X38100Y558800D01*
X50800Y558800D01*
X615950Y285750D02*
X647700Y254000D01*
X615950Y285750D02*
X133350Y285750D01*
D14*
X133350Y285750D03*
D13*
X127000Y577850D02*
X584200Y577850D01*
X127000Y577850D02*
X107950Y596900D01*
X63500Y596900D01*
X50800Y609600D01*
D14*
X584200Y577850D03*
D13*
X88900Y774700D02*
X76200Y762000D01*
X88900Y774700D02*
X114300Y774700D01*
X254000Y914400D01*
X355600Y914400D01*
X381000Y889000D01*
X393700Y927100D02*
X374650Y946150D01*
X393700Y927100D02*
X431800Y889000D01*
X374650Y946150D02*
X349250Y946150D01*
X330200Y965200D01*
X76200Y736600D02*
X63500Y749300D01*
X63500Y927100D01*
X393700Y927100D01*
D14*
X431800Y889000D03*
D13*
X1651000Y38100D02*
X1663700Y25400D01*
X1739900Y25400D01*
X1752600Y38100D01*
X590550Y298450D02*
X584200Y304800D01*
X590550Y298450D02*
X1092200Y298450D01*
X1155700Y234950D01*
X1155700Y203200D01*
D14*
X584200Y304800D03*
D13*
X660400Y292100D02*
X673100Y279400D01*
X1098550Y279400D01*
X1130300Y247650D01*
X1130300Y203200D01*
D14*
X660400Y292100D03*
D13*
X730250Y361950D02*
X673100Y419100D01*
X730250Y361950D02*
X768350Y361950D01*
D14*
X768350Y361950D03*
D13*
X812800Y330200D02*
X723900Y419100D01*
X812800Y330200D02*
X1060450Y330200D01*
D14*
X1060450Y330200D03*
D13*
X742950Y323850D02*
X723900Y342900D01*
X742950Y323850D02*
X1079500Y323850D01*
X1168400Y234950D01*
X1168400Y184150D01*
X1073150Y184150D01*
X1054100Y203200D01*
X730250Y95250D02*
X660400Y165100D01*
X730250Y95250D02*
X1009650Y95250D01*
X1028700Y76200D01*
D14*
X660400Y165100D03*
D13*
X635000Y215900D02*
X965200Y215900D01*
X971550Y222250D01*
X984250Y222250D01*
X1003300Y203200D01*
D14*
X635000Y215900D03*
D13*
X596900Y317500D02*
X571500Y342900D01*
X596900Y317500D02*
X863600Y317500D01*
D14*
X863600Y317500D03*
D13*
X603250Y222250D02*
X571500Y254000D01*
X603250Y222250D02*
X958850Y222250D01*
X990600Y254000D01*
X996950Y254000D01*
D14*
X996950Y254000D03*
D13*
X647700Y228600D02*
X622300Y254000D01*
X647700Y228600D02*
X946150Y228600D01*
X977900Y260350D01*
X1022350Y260350D01*
D14*
X1022350Y260350D03*
D13*
X692150Y234950D02*
X673100Y254000D01*
X692150Y234950D02*
X762000Y234950D01*
X793750Y266700D01*
X1098550Y266700D01*
X1028700Y508000D02*
X1054100Y533400D01*
X1028700Y508000D02*
X952500Y508000D01*
X946150Y501650D01*
X946150Y381000D01*
X1079500Y381000D01*
X1104900Y355600D01*
X1104900Y825500D02*
X1104900Y844550D01*
X1098550Y844550D01*
X1092200Y850900D01*
X1054100Y850900D01*
X1041400Y838200D01*
X1041400Y806450D01*
X1054100Y806450D01*
D14*
X1098550Y266700D03*
X1054100Y806450D03*
D13*
X742950Y273050D02*
X723900Y254000D01*
X742950Y273050D02*
X1047750Y273050D01*
X1054100Y355600D02*
X1073150Y374650D01*
X1054100Y825500D02*
X1073150Y844550D01*
X1085850Y844550D01*
X1092200Y838200D01*
X1092200Y800100D01*
D14*
X1047750Y273050D03*
X1073150Y374650D03*
X1092200Y800100D03*
D13*
X323850Y692150D02*
X304800Y673100D01*
X323850Y692150D02*
X933450Y692150D01*
X952500Y673100D01*
X1104900Y533400D02*
X1073150Y501650D01*
X958850Y501650D01*
X596900Y933450D02*
X577850Y952500D01*
X596900Y933450D02*
X920750Y933450D01*
X952500Y901700D01*
D14*
X958850Y501650D03*
X577850Y952500D03*
D13*
X1130300Y533400D02*
X1149350Y514350D01*
X1187450Y514350D01*
X1193800Y520700D01*
X1193800Y628650D01*
X673100Y628650D01*
X647700Y654050D01*
X400050Y654050D01*
X381000Y673100D01*
X444500Y711200D02*
X406400Y749300D01*
X444500Y711200D02*
X622300Y711200D01*
X635000Y698500D01*
X952500Y698500D01*
X965200Y685800D01*
X965200Y654050D01*
X946150Y654050D01*
X927100Y673100D01*
X965200Y654050D02*
X1149350Y654050D01*
D14*
X1149350Y654050D03*
D13*
X717550Y958850D02*
X698500Y977900D01*
X717550Y958850D02*
X1035050Y958850D01*
X1130300Y1054100D01*
X1162050Y552450D02*
X1181100Y533400D01*
X711200Y552450D02*
X463550Y552450D01*
X711200Y552450D02*
X1162050Y552450D01*
X463550Y552450D02*
X412750Y501650D01*
X323850Y501650D01*
X304800Y520700D01*
D14*
X711200Y552450D03*
D13*
X641350Y704850D02*
X571500Y774700D01*
X641350Y704850D02*
X1149350Y704850D01*
X1181100Y673100D01*
X660400Y711200D02*
X596900Y774700D01*
X660400Y711200D02*
X1168400Y711200D01*
X1206500Y673100D01*
X666750Y730250D02*
X622300Y774700D01*
X666750Y730250D02*
X1174750Y730250D01*
X1231900Y673100D01*
X666750Y793750D02*
X647700Y774700D01*
X666750Y793750D02*
X1225550Y793750D01*
X1257300Y825500D01*
X711200Y635000D02*
X673100Y673100D01*
X711200Y635000D02*
X1238250Y635000D01*
D14*
X1238250Y635000D03*
D13*
X730250Y641350D02*
X698500Y673100D01*
X730250Y641350D02*
X1212850Y641350D01*
D14*
X1212850Y641350D03*
D13*
X749300Y647700D02*
X723900Y673100D01*
X749300Y647700D02*
X1193800Y647700D01*
D14*
X1193800Y647700D03*
D13*
X1155700Y508000D02*
X1155700Y355600D01*
X1155700Y508000D02*
X1193800Y508000D01*
X1270000Y584200D01*
X1270000Y774700D02*
X1270000Y844550D01*
X1270000Y774700D02*
X1270000Y584200D01*
X1270000Y844550D02*
X1174750Y844550D01*
X1155700Y825500D01*
X1270000Y774700D02*
X749300Y774700D01*
X298450Y793750D02*
X279400Y812800D01*
X298450Y793750D02*
X654050Y793750D01*
X660400Y800100D01*
X1066800Y800100D01*
X1079500Y812800D01*
X1079500Y825500D01*
X1079500Y355600D02*
X1098550Y336550D01*
X1263650Y336550D01*
X1276350Y349250D01*
X1276350Y1073150D01*
X1098550Y1073150D01*
X1079500Y1054100D01*
X368300Y857250D02*
X349250Y838200D01*
X368300Y857250D02*
X920750Y857250D01*
X952500Y825500D01*
D14*
X349250Y838200D03*
D13*
X273050Y831850D02*
X254000Y812800D01*
X273050Y831850D02*
X361950Y831850D01*
X381000Y812800D01*
X355600Y889000D02*
X336550Y908050D01*
X323850Y908050D01*
X317500Y901700D01*
X317500Y863600D01*
X1098550Y863600D01*
X1130300Y831850D01*
X1130300Y825500D01*
X990600Y495300D02*
X1130300Y355600D01*
X990600Y495300D02*
X952500Y495300D01*
D14*
X952500Y495300D03*
D13*
X628650Y895350D02*
X647700Y914400D01*
X628650Y895350D02*
X450850Y895350D01*
X393700Y952500D01*
X393700Y1022350D01*
X615950Y1022350D01*
X635000Y1041400D01*
X635000Y1073150D01*
X730250Y1073150D01*
X749300Y1054100D01*
X660400Y1054100D02*
X660400Y971550D01*
X660400Y1054100D02*
X673100Y1054100D01*
D14*
X660400Y971550D03*
D13*
X349250Y869950D02*
X330200Y889000D01*
X349250Y869950D02*
X704850Y869950D01*
X749300Y914400D01*
X381000Y965200D02*
X361950Y984250D01*
X298450Y984250D01*
X279400Y965200D01*
X152400Y654050D02*
X146050Y647700D01*
X152400Y654050D02*
X234950Y654050D01*
X254000Y673100D01*
D14*
X146050Y647700D03*
D13*
X641350Y647700D02*
X660400Y628650D01*
X641350Y647700D02*
X355600Y647700D01*
X330200Y673100D01*
D14*
X660400Y628650D03*
D13*
X425450Y711200D02*
X406400Y730250D01*
X298450Y730250D01*
X279400Y749300D01*
D14*
X425450Y711200D03*
M02*
