%
M48
M72
T01C0.01300
T02C0.03200
T03C0.03600
T04C0.06300
T05C0.11000
T06C0.12598
%
T01
X355400Y317000
X456600Y318200
X546200Y324600
T02
X81000Y26000
X101000Y26000
X281000Y26000
X301000Y26000
X381000Y26000
X401000Y26000
X481000Y26000
X501000Y26000
X581000Y26000
X601000Y26000
X681000Y76000
X681000Y86000
X681000Y111000
X681000Y151000
X196000Y26000
X176000Y26000
T03
X131000Y361000
X151000Y361000
X141000Y361000
X141000Y351000
X151000Y351000
X131000Y351000
X151000Y341000
X131000Y341000
X141000Y371000
X131000Y371000
X51000Y371000
X31000Y371000
X31000Y81000
X41000Y81000
X31000Y71000
X31000Y381000
X41000Y381000
X41000Y371000
X151000Y331000
X131000Y331000
X151000Y321000
X131000Y321000
X151000Y311000
X131000Y311000
X131000Y301000
X151000Y301000
X141000Y301000
X141000Y311000
X141000Y321000
X241000Y331000
X341000Y331000
X341000Y321000
X241000Y321000
X231000Y321000
X251000Y321000
X351000Y321000
X231000Y311000
X251000Y301000
X351000Y301000
X331000Y301000
X241000Y301000
X141000Y291000
X151000Y291000
X131000Y291000
X151000Y281000
X131000Y281000
X151000Y271000
X131000Y271000
X151000Y261000
X131000Y261000
X151000Y251000
X131000Y251000
X151000Y241000
X131000Y241000
X151000Y231000
X131000Y231000
X151000Y221000
X131000Y221000
X141000Y221000
X151000Y211000
X131000Y211000
X151000Y201000
X131000Y201000
X151000Y191000
X131000Y191000
X151000Y181000
X131000Y181000
X151000Y171000
X131000Y171000
X151000Y161000
X131000Y161000
X151000Y151000
X131000Y151000
X151000Y141000
X131000Y141000
X151000Y131000
X131000Y131000
X131000Y121000
X151000Y121000
X131000Y111000
X151000Y111000
X241000Y101000
X341000Y101000
X351000Y111000
X331000Y111000
X231000Y111000
X141000Y111000
X141000Y121000
X151000Y101000
X131000Y101000
X151000Y91000
X131000Y91000
X141000Y91000
X141000Y101000
X251000Y101000
X231000Y101000
X251000Y91000
X231000Y91000
X141000Y81000
X131000Y81000
X51000Y81000
X41000Y71000
X51000Y71000
X41000Y91000
X141000Y131000
X141000Y141000
X141000Y151000
X141000Y161000
X141000Y171000
X141000Y181000
X141000Y191000
X141000Y201000
X141000Y211000
X141000Y271000
X141000Y281000
X231000Y301000
X141000Y231000
X141000Y241000
X141000Y251000
X141000Y261000
X51000Y141000
X41000Y141000
X31000Y141000
X41000Y151000
X51000Y151000
X41000Y161000
X51000Y161000
X31000Y161000
X31000Y151000
X41000Y171000
X51000Y171000
X41000Y181000
X51000Y181000
X41000Y191000
X51000Y191000
X41000Y201000
X51000Y201000
X31000Y201000
X31000Y191000
X31000Y181000
X31000Y171000
X51000Y131000
X41000Y131000
X41000Y121000
X51000Y111000
X41000Y111000
X31000Y111000
X41000Y101000
X51000Y101000
X31000Y101000
X31000Y91000
X51000Y91000
X51000Y121000
X31000Y121000
X31000Y131000
X131000Y71000
X141000Y71000
X151000Y71000
X151000Y81000
X231000Y71000
X241000Y71000
X251000Y71000
X241000Y81000
X231000Y81000
X251000Y81000
X351000Y91000
X331000Y91000
X241000Y91000
X351000Y101000
X331000Y101000
X241000Y111000
X341000Y111000
X441000Y111000
X441000Y101000
X451000Y111000
X431000Y111000
X351000Y121000
X451000Y121000
X551000Y121000
X531000Y121000
X441000Y121000
X341000Y121000
X241000Y121000
X231000Y121000
X231000Y131000
X231000Y141000
X231000Y151000
X231000Y161000
X231000Y171000
X231000Y181000
X231000Y191000
X231000Y201000
X231000Y211000
X231000Y221000
X231000Y231000
X231000Y241000
X231000Y251000
X231000Y261000
X231000Y271000
X231000Y281000
X231000Y291000
X241000Y291000
X241000Y281000
X241000Y271000
X241000Y261000
X241000Y251000
X251000Y251000
X351000Y251000
X331000Y251000
X331000Y261000
X341000Y261000
X341000Y251000
X251000Y241000
X351000Y241000
X451000Y241000
X431000Y251000
X451000Y251000
X441000Y251000
X341000Y241000
X241000Y241000
X241000Y231000
X251000Y231000
X351000Y231000
X451000Y231000
X441000Y231000
X341000Y231000
X331000Y231000
X351000Y221000
X331000Y221000
X241000Y221000
X251000Y221000
X251000Y211000
X351000Y211000
X451000Y211000
X431000Y221000
X341000Y221000
X341000Y211000
X241000Y211000
X241000Y201000
X241000Y191000
X251000Y191000
X351000Y191000
X331000Y191000
X331000Y201000
X341000Y201000
X341000Y191000
X251000Y201000
X351000Y201000
X451000Y201000
X441000Y201000
X451000Y191000
X431000Y191000
X331000Y181000
X241000Y181000
X241000Y171000
X241000Y161000
X241000Y151000
X241000Y141000
X241000Y131000
X251000Y131000
X251000Y121000
X341000Y131000
X251000Y141000
X351000Y141000
X331000Y141000
X331000Y131000
X331000Y121000
X351000Y131000
X341000Y141000
X331000Y151000
X251000Y151000
X351000Y151000
X451000Y151000
X431000Y161000
X341000Y161000
X331000Y161000
X351000Y161000
X341000Y151000
X451000Y161000
X441000Y161000
X351000Y171000
X451000Y171000
X431000Y181000
X341000Y181000
X331000Y171000
X251000Y171000
X341000Y171000
X351000Y181000
X451000Y181000
X441000Y181000
X441000Y191000
X531000Y201000
X531000Y211000
X441000Y211000
X451000Y221000
X441000Y221000
X331000Y241000
X351000Y261000
X451000Y261000
X431000Y271000
X341000Y271000
X331000Y271000
X251000Y271000
X351000Y271000
X451000Y271000
X431000Y281000
X341000Y281000
X331000Y281000
X251000Y281000
X351000Y281000
X451000Y281000
X431000Y291000
X341000Y291000
X331000Y291000
X251000Y291000
X351000Y291000
X451000Y291000
X431000Y301000
X341000Y301000
X251000Y261000
X331000Y311000
X251000Y311000
X241000Y311000
X231000Y331000
X251000Y331000
X231000Y341000
X141000Y341000
X141000Y331000
X151000Y371000
X141000Y381000
X131000Y381000
X51000Y381000
X51000Y361000
X51000Y351000
X51000Y341000
X51000Y331000
X51000Y321000
X51000Y311000
X51000Y301000
X51000Y291000
X51000Y281000
X41000Y281000
X31000Y281000
X41000Y291000
X31000Y291000
X41000Y311000
X41000Y321000
X41000Y331000
X41000Y341000
X31000Y341000
X31000Y331000
X31000Y321000
X31000Y311000
X31000Y301000
X41000Y301000
X51000Y271000
X51000Y261000
X51000Y251000
X51000Y241000
X51000Y231000
X41000Y231000
X31000Y231000
X41000Y241000
X41000Y251000
X31000Y251000
X31000Y241000
X41000Y261000
X31000Y261000
X41000Y271000
X31000Y271000
X51000Y221000
X51000Y211000
X41000Y211000
X31000Y211000
X41000Y221000
X31000Y221000
X41000Y351000
X31000Y351000
X31000Y361000
X41000Y361000
X151000Y381000
X231000Y381000
X231000Y371000
X231000Y361000
X231000Y351000
X241000Y351000
X251000Y351000
X351000Y351000
X331000Y351000
X341000Y341000
X441000Y341000
X451000Y341000
X431000Y341000
X331000Y341000
X251000Y341000
X351000Y341000
X541000Y351000
X451000Y351000
X431000Y351000
X341000Y351000
X331000Y361000
X241000Y361000
X251000Y361000
X351000Y361000
X451000Y361000
X431000Y361000
X341000Y361000
X241000Y341000
X351000Y331000
X331000Y331000
X241000Y371000
X251000Y371000
X241000Y381000
X251000Y381000
X331000Y321000
X431000Y321000
X341000Y311000
X351000Y311000
X431000Y331000
X431000Y311000
X441000Y311000
X451000Y311000
X451000Y301000
X441000Y301000
X441000Y291000
X441000Y281000
X441000Y271000
X441000Y261000
X431000Y261000
X531000Y261000
X441000Y241000
X431000Y231000
X531000Y231000
X531000Y241000
X431000Y241000
X431000Y211000
X331000Y211000
X251000Y181000
X451000Y141000
X431000Y141000
X431000Y131000
X441000Y131000
X541000Y121000
X641000Y121000
X551000Y111000
X531000Y111000
X451000Y101000
X431000Y91000
X341000Y91000
X331000Y81000
X341000Y81000
X331000Y71000
X341000Y71000
X351000Y71000
X351000Y81000
X431000Y151000
X531000Y151000
X441000Y151000
X441000Y141000
X451000Y131000
X551000Y131000
X531000Y131000
X541000Y131000
X531000Y141000
X531000Y161000
X531000Y171000
X441000Y171000
X431000Y171000
X431000Y201000
X551000Y321000
X641000Y321000
X541000Y321000
X441000Y321000
X451000Y321000
X451000Y331000
X441000Y331000
X441000Y351000
X331000Y371000
X341000Y371000
X351000Y371000
X331000Y381000
X341000Y381000
X351000Y381000
X431000Y381000
X431000Y371000
X441000Y361000
X441000Y371000
X451000Y371000
X441000Y381000
X451000Y381000
X531000Y381000
X531000Y371000
X531000Y361000
X531000Y351000
X541000Y361000
X551000Y361000
X541000Y371000
X551000Y371000
X541000Y381000
X551000Y381000
X551000Y351000
X541000Y341000
X551000Y341000
X531000Y341000
X531000Y331000
X541000Y331000
X551000Y331000
X651000Y331000
X651000Y321000
X651000Y311000
X641000Y311000
X541000Y301000
X531000Y301000
X531000Y291000
X531000Y281000
X531000Y271000
X531000Y251000
X531000Y221000
X531000Y191000
X531000Y181000
X541000Y171000
X551000Y171000
X551000Y161000
X551000Y151000
X551000Y141000
X541000Y141000
X541000Y151000
X541000Y161000
X541000Y181000
X551000Y181000
X541000Y191000
X541000Y201000
X541000Y211000
X541000Y221000
X551000Y221000
X551000Y211000
X551000Y201000
X551000Y191000
X541000Y231000
X551000Y231000
X541000Y241000
X541000Y251000
X541000Y261000
X551000Y261000
X551000Y251000
X551000Y241000
X541000Y271000
X551000Y271000
X541000Y281000
X541000Y291000
X551000Y301000
X551000Y291000
X551000Y281000
X651000Y301000
X651000Y291000
X631000Y291000
X631000Y281000
X641000Y281000
X651000Y281000
X651000Y271000
X641000Y271000
X631000Y271000
X631000Y261000
X641000Y261000
X651000Y261000
X651000Y251000
X631000Y251000
X631000Y241000
X641000Y241000
X651000Y241000
X651000Y231000
X631000Y231000
X641000Y231000
X641000Y221000
X651000Y221000
X651000Y211000
X631000Y221000
X641000Y211000
X631000Y201000
X631000Y191000
X641000Y191000
X651000Y191000
X651000Y181000
X641000Y181000
X631000Y181000
X631000Y171000
X641000Y171000
X651000Y171000
X651000Y161000
X631000Y151000
X641000Y151000
X651000Y151000
X651000Y81000
X641000Y81000
X631000Y81000
X551000Y81000
X541000Y81000
X531000Y81000
X451000Y81000
X441000Y81000
X431000Y81000
X431000Y71000
X441000Y71000
X451000Y71000
X451000Y91000
X441000Y91000
X431000Y101000
X431000Y121000
X531000Y71000
X541000Y71000
X551000Y71000
X541000Y91000
X531000Y91000
X531000Y101000
X541000Y101000
X541000Y111000
X551000Y91000
X651000Y91000
X651000Y101000
X641000Y101000
X631000Y111000
X641000Y111000
X651000Y111000
X651000Y121000
X641000Y131000
X651000Y131000
X631000Y131000
X631000Y121000
X631000Y101000
X551000Y101000
X631000Y91000
X641000Y91000
X631000Y71000
X641000Y71000
X651000Y71000
X651000Y141000
X631000Y141000
X641000Y141000
X641000Y161000
X631000Y161000
X651000Y201000
X641000Y201000
X631000Y211000
X641000Y251000
X641000Y291000
X631000Y301000
X641000Y301000
X631000Y311000
X531000Y311000
X531000Y321000
X631000Y321000
X631000Y331000
X641000Y331000
X541000Y311000
X551000Y311000
X631000Y341000
X631000Y351000
X641000Y351000
X651000Y351000
X651000Y341000
X641000Y341000
X631000Y361000
X641000Y361000
X651000Y361000
X641000Y371000
X631000Y371000
X631000Y381000
X641000Y381000
X651000Y381000
X651000Y371000
X251000Y161000
X251000Y111000
T04
X691000Y381000
X691000Y351000
T05
X39800Y403200
X139800Y403200
X139800Y48800
X39800Y48800
X239800Y48800
X339800Y48800
X439800Y48800
X339800Y403200
X439800Y403200
X639800Y403200
X539800Y403200
X239800Y403200
X539800Y48800
X639800Y48800
T06
X26000Y21000
X351000Y21000
X351000Y431000
X676000Y431000
X676000Y21000
X26000Y431000
M30
