G75*
%MOIN*%
%OFA0B0*%
%FSLAX25Y25*%
%IPPOS*%
%LPD*%
%AMOC8*
5,1,8,0,0,1.08239X$1,22.5*
%
%ADD10OC8,0.05400*%
%ADD11OC8,0.16400*%
%ADD12OC8,0.04800*%
%ADD13C,0.07500*%
%ADD14OC8,0.07500*%
%ADD15C,0.00600*%
%ADD16C,0.02700*%
%ADD17C,0.05000*%
%ADD18C,0.03937*%
D10*
X0031000Y0071000D03*
X0041000Y0071000D03*
X0041000Y0081000D03*
X0031000Y0081000D03*
X0031000Y0091000D03*
X0041000Y0091000D03*
X0041000Y0101000D03*
X0031000Y0101000D03*
X0031000Y0111000D03*
X0041000Y0111000D03*
X0041000Y0121000D03*
X0031000Y0121000D03*
X0031000Y0131000D03*
X0041000Y0131000D03*
X0041000Y0141000D03*
X0031000Y0141000D03*
X0031000Y0151000D03*
X0041000Y0151000D03*
X0041000Y0161000D03*
X0031000Y0161000D03*
X0031000Y0171000D03*
X0041000Y0171000D03*
X0051000Y0171000D03*
X0051000Y0161000D03*
X0051000Y0151000D03*
X0051000Y0141000D03*
X0051000Y0131000D03*
X0051000Y0121000D03*
X0051000Y0111000D03*
X0051000Y0101000D03*
X0051000Y0091000D03*
X0051000Y0081000D03*
X0051000Y0071000D03*
X0131000Y0071000D03*
X0131000Y0081000D03*
X0141000Y0081000D03*
X0151000Y0081000D03*
X0151000Y0071000D03*
X0141000Y0071000D03*
X0141000Y0091000D03*
X0151000Y0091000D03*
X0151000Y0101000D03*
X0141000Y0101000D03*
X0141000Y0111000D03*
X0151000Y0111000D03*
X0151000Y0121000D03*
X0141000Y0121000D03*
X0131000Y0121000D03*
X0131000Y0111000D03*
X0131000Y0101000D03*
X0131000Y0091000D03*
X0131000Y0131000D03*
X0131000Y0141000D03*
X0131000Y0151000D03*
X0131000Y0161000D03*
X0131000Y0171000D03*
X0141000Y0171000D03*
X0151000Y0171000D03*
X0151000Y0161000D03*
X0141000Y0161000D03*
X0141000Y0151000D03*
X0151000Y0151000D03*
X0151000Y0141000D03*
X0141000Y0141000D03*
X0141000Y0131000D03*
X0151000Y0131000D03*
X0151000Y0181000D03*
X0141000Y0181000D03*
X0141000Y0191000D03*
X0151000Y0191000D03*
X0151000Y0201000D03*
X0141000Y0201000D03*
X0141000Y0211000D03*
X0151000Y0211000D03*
X0151000Y0221000D03*
X0141000Y0221000D03*
X0141000Y0231000D03*
X0151000Y0231000D03*
X0151000Y0241000D03*
X0141000Y0241000D03*
X0141000Y0251000D03*
X0151000Y0251000D03*
X0151000Y0261000D03*
X0141000Y0261000D03*
X0131000Y0261000D03*
X0131000Y0251000D03*
X0131000Y0241000D03*
X0131000Y0231000D03*
X0131000Y0221000D03*
X0131000Y0211000D03*
X0131000Y0201000D03*
X0131000Y0191000D03*
X0131000Y0181000D03*
X0051000Y0181000D03*
X0051000Y0191000D03*
X0051000Y0201000D03*
X0051000Y0211000D03*
X0041000Y0211000D03*
X0031000Y0211000D03*
X0031000Y0201000D03*
X0041000Y0201000D03*
X0041000Y0191000D03*
X0031000Y0191000D03*
X0031000Y0181000D03*
X0041000Y0181000D03*
X0041000Y0221000D03*
X0031000Y0221000D03*
X0031000Y0231000D03*
X0041000Y0231000D03*
X0041000Y0241000D03*
X0031000Y0241000D03*
X0031000Y0251000D03*
X0041000Y0251000D03*
X0041000Y0261000D03*
X0031000Y0261000D03*
X0031000Y0271000D03*
X0041000Y0271000D03*
X0041000Y0281000D03*
X0031000Y0281000D03*
X0031000Y0291000D03*
X0041000Y0291000D03*
X0041000Y0301000D03*
X0031000Y0301000D03*
X0031000Y0311000D03*
X0041000Y0311000D03*
X0041000Y0321000D03*
X0031000Y0321000D03*
X0031000Y0331000D03*
X0041000Y0331000D03*
X0041000Y0341000D03*
X0031000Y0341000D03*
X0031000Y0351000D03*
X0041000Y0351000D03*
X0051000Y0351000D03*
X0051000Y0341000D03*
X0051000Y0331000D03*
X0051000Y0321000D03*
X0051000Y0311000D03*
X0051000Y0301000D03*
X0051000Y0291000D03*
X0051000Y0281000D03*
X0051000Y0271000D03*
X0051000Y0261000D03*
X0051000Y0251000D03*
X0051000Y0241000D03*
X0051000Y0231000D03*
X0051000Y0221000D03*
X0131000Y0271000D03*
X0131000Y0281000D03*
X0131000Y0291000D03*
X0131000Y0301000D03*
X0141000Y0301000D03*
X0151000Y0301000D03*
X0151000Y0291000D03*
X0141000Y0291000D03*
X0141000Y0281000D03*
X0151000Y0281000D03*
X0151000Y0271000D03*
X0141000Y0271000D03*
X0141000Y0311000D03*
X0151000Y0311000D03*
X0151000Y0321000D03*
X0141000Y0321000D03*
X0141000Y0331000D03*
X0151000Y0331000D03*
X0151000Y0341000D03*
X0141000Y0341000D03*
X0141000Y0351000D03*
X0151000Y0351000D03*
X0151000Y0361000D03*
X0141000Y0361000D03*
X0141000Y0371000D03*
X0151000Y0371000D03*
X0151000Y0381000D03*
X0141000Y0381000D03*
X0131000Y0381000D03*
X0131000Y0371000D03*
X0131000Y0361000D03*
X0131000Y0351000D03*
X0131000Y0341000D03*
X0131000Y0331000D03*
X0131000Y0321000D03*
X0131000Y0311000D03*
X0051000Y0361000D03*
X0051000Y0371000D03*
X0051000Y0381000D03*
X0041000Y0381000D03*
X0031000Y0381000D03*
X0031000Y0371000D03*
X0041000Y0371000D03*
X0041000Y0361000D03*
X0031000Y0361000D03*
X0231000Y0361000D03*
X0231000Y0371000D03*
X0231000Y0381000D03*
X0241000Y0381000D03*
X0251000Y0381000D03*
X0251000Y0371000D03*
X0241000Y0371000D03*
X0241000Y0361000D03*
X0251000Y0361000D03*
X0251000Y0351000D03*
X0241000Y0351000D03*
X0241000Y0341000D03*
X0251000Y0341000D03*
X0251000Y0331000D03*
X0241000Y0331000D03*
X0241000Y0321000D03*
X0251000Y0321000D03*
X0251000Y0311000D03*
X0241000Y0311000D03*
X0231000Y0311000D03*
X0231000Y0321000D03*
X0231000Y0331000D03*
X0231000Y0341000D03*
X0231000Y0351000D03*
X0231000Y0301000D03*
X0231000Y0291000D03*
X0231000Y0281000D03*
X0231000Y0271000D03*
X0241000Y0271000D03*
X0251000Y0271000D03*
X0251000Y0281000D03*
X0241000Y0281000D03*
X0241000Y0291000D03*
X0251000Y0291000D03*
X0251000Y0301000D03*
X0241000Y0301000D03*
X0241000Y0261000D03*
X0251000Y0261000D03*
X0251000Y0251000D03*
X0241000Y0251000D03*
X0241000Y0241000D03*
X0251000Y0241000D03*
X0251000Y0231000D03*
X0241000Y0231000D03*
X0241000Y0221000D03*
X0251000Y0221000D03*
X0251000Y0211000D03*
X0241000Y0211000D03*
X0241000Y0201000D03*
X0251000Y0201000D03*
X0251000Y0191000D03*
X0241000Y0191000D03*
X0241000Y0181000D03*
X0251000Y0181000D03*
X0251000Y0171000D03*
X0241000Y0171000D03*
X0241000Y0161000D03*
X0251000Y0161000D03*
X0251000Y0151000D03*
X0241000Y0151000D03*
X0241000Y0141000D03*
X0251000Y0141000D03*
X0251000Y0131000D03*
X0241000Y0131000D03*
X0231000Y0131000D03*
X0231000Y0141000D03*
X0231000Y0151000D03*
X0231000Y0161000D03*
X0231000Y0171000D03*
X0231000Y0181000D03*
X0231000Y0191000D03*
X0231000Y0201000D03*
X0231000Y0211000D03*
X0231000Y0221000D03*
X0231000Y0231000D03*
X0231000Y0241000D03*
X0231000Y0251000D03*
X0231000Y0261000D03*
X0331000Y0261000D03*
X0341000Y0261000D03*
X0341000Y0251000D03*
X0331000Y0251000D03*
X0331000Y0241000D03*
X0341000Y0241000D03*
X0341000Y0231000D03*
X0331000Y0231000D03*
X0331000Y0221000D03*
X0341000Y0221000D03*
X0351000Y0221000D03*
X0351000Y0231000D03*
X0351000Y0241000D03*
X0351000Y0251000D03*
X0351000Y0261000D03*
X0351000Y0271000D03*
X0351000Y0281000D03*
X0351000Y0291000D03*
X0351000Y0301000D03*
X0341000Y0301000D03*
X0331000Y0301000D03*
X0331000Y0291000D03*
X0341000Y0291000D03*
X0341000Y0281000D03*
X0331000Y0281000D03*
X0331000Y0271000D03*
X0341000Y0271000D03*
X0341000Y0311000D03*
X0331000Y0311000D03*
X0331000Y0321000D03*
X0341000Y0321000D03*
X0341000Y0331000D03*
X0331000Y0331000D03*
X0331000Y0341000D03*
X0341000Y0341000D03*
X0341000Y0351000D03*
X0331000Y0351000D03*
X0331000Y0361000D03*
X0341000Y0361000D03*
X0341000Y0371000D03*
X0331000Y0371000D03*
X0331000Y0381000D03*
X0341000Y0381000D03*
X0351000Y0381000D03*
X0351000Y0371000D03*
X0351000Y0361000D03*
X0351000Y0351000D03*
X0351000Y0341000D03*
X0351000Y0331000D03*
X0351000Y0321000D03*
X0351000Y0311000D03*
X0431000Y0311000D03*
X0441000Y0311000D03*
X0441000Y0321000D03*
X0431000Y0321000D03*
X0431000Y0331000D03*
X0441000Y0331000D03*
X0441000Y0341000D03*
X0431000Y0341000D03*
X0431000Y0351000D03*
X0441000Y0351000D03*
X0451000Y0351000D03*
X0451000Y0341000D03*
X0451000Y0331000D03*
X0451000Y0321000D03*
X0451000Y0311000D03*
X0451000Y0301000D03*
X0451000Y0291000D03*
X0451000Y0281000D03*
X0451000Y0271000D03*
X0441000Y0271000D03*
X0431000Y0271000D03*
X0431000Y0281000D03*
X0441000Y0281000D03*
X0441000Y0291000D03*
X0431000Y0291000D03*
X0431000Y0301000D03*
X0441000Y0301000D03*
X0441000Y0261000D03*
X0431000Y0261000D03*
X0431000Y0251000D03*
X0441000Y0251000D03*
X0441000Y0241000D03*
X0431000Y0241000D03*
X0431000Y0231000D03*
X0441000Y0231000D03*
X0441000Y0221000D03*
X0431000Y0221000D03*
X0431000Y0211000D03*
X0441000Y0211000D03*
X0441000Y0201000D03*
X0431000Y0201000D03*
X0431000Y0191000D03*
X0441000Y0191000D03*
X0441000Y0181000D03*
X0431000Y0181000D03*
X0431000Y0171000D03*
X0441000Y0171000D03*
X0441000Y0161000D03*
X0431000Y0161000D03*
X0431000Y0151000D03*
X0441000Y0151000D03*
X0441000Y0141000D03*
X0431000Y0141000D03*
X0431000Y0131000D03*
X0441000Y0131000D03*
X0451000Y0131000D03*
X0451000Y0141000D03*
X0451000Y0151000D03*
X0451000Y0161000D03*
X0451000Y0171000D03*
X0451000Y0181000D03*
X0451000Y0191000D03*
X0451000Y0201000D03*
X0451000Y0211000D03*
X0451000Y0221000D03*
X0451000Y0231000D03*
X0451000Y0241000D03*
X0451000Y0251000D03*
X0451000Y0261000D03*
X0531000Y0261000D03*
X0531000Y0251000D03*
X0531000Y0241000D03*
X0531000Y0231000D03*
X0531000Y0221000D03*
X0541000Y0221000D03*
X0551000Y0221000D03*
X0551000Y0231000D03*
X0541000Y0231000D03*
X0541000Y0241000D03*
X0551000Y0241000D03*
X0551000Y0251000D03*
X0541000Y0251000D03*
X0541000Y0261000D03*
X0551000Y0261000D03*
X0551000Y0271000D03*
X0541000Y0271000D03*
X0541000Y0281000D03*
X0551000Y0281000D03*
X0551000Y0291000D03*
X0541000Y0291000D03*
X0541000Y0301000D03*
X0551000Y0301000D03*
X0551000Y0311000D03*
X0541000Y0311000D03*
X0541000Y0321000D03*
X0551000Y0321000D03*
X0551000Y0331000D03*
X0541000Y0331000D03*
X0541000Y0341000D03*
X0551000Y0341000D03*
X0551000Y0351000D03*
X0541000Y0351000D03*
X0531000Y0351000D03*
X0531000Y0341000D03*
X0531000Y0331000D03*
X0531000Y0321000D03*
X0531000Y0311000D03*
X0531000Y0301000D03*
X0531000Y0291000D03*
X0531000Y0281000D03*
X0531000Y0271000D03*
X0531000Y0211000D03*
X0531000Y0201000D03*
X0531000Y0191000D03*
X0531000Y0181000D03*
X0541000Y0181000D03*
X0551000Y0181000D03*
X0551000Y0191000D03*
X0541000Y0191000D03*
X0541000Y0201000D03*
X0551000Y0201000D03*
X0551000Y0211000D03*
X0541000Y0211000D03*
X0541000Y0171000D03*
X0551000Y0171000D03*
X0551000Y0161000D03*
X0541000Y0161000D03*
X0541000Y0151000D03*
X0551000Y0151000D03*
X0551000Y0141000D03*
X0541000Y0141000D03*
X0541000Y0131000D03*
X0551000Y0131000D03*
X0551000Y0121000D03*
X0541000Y0121000D03*
X0541000Y0111000D03*
X0551000Y0111000D03*
X0551000Y0101000D03*
X0541000Y0101000D03*
X0541000Y0091000D03*
X0551000Y0091000D03*
X0551000Y0081000D03*
X0541000Y0081000D03*
X0541000Y0071000D03*
X0551000Y0071000D03*
X0531000Y0071000D03*
X0531000Y0081000D03*
X0531000Y0091000D03*
X0531000Y0101000D03*
X0531000Y0111000D03*
X0531000Y0121000D03*
X0531000Y0131000D03*
X0531000Y0141000D03*
X0531000Y0151000D03*
X0531000Y0161000D03*
X0531000Y0171000D03*
X0451000Y0121000D03*
X0451000Y0111000D03*
X0451000Y0101000D03*
X0451000Y0091000D03*
X0441000Y0091000D03*
X0431000Y0091000D03*
X0431000Y0101000D03*
X0441000Y0101000D03*
X0441000Y0111000D03*
X0431000Y0111000D03*
X0431000Y0121000D03*
X0441000Y0121000D03*
X0441000Y0081000D03*
X0431000Y0081000D03*
X0431000Y0071000D03*
X0441000Y0071000D03*
X0451000Y0071000D03*
X0451000Y0081000D03*
X0351000Y0081000D03*
X0351000Y0071000D03*
X0341000Y0071000D03*
X0331000Y0071000D03*
X0331000Y0081000D03*
X0341000Y0081000D03*
X0341000Y0091000D03*
X0331000Y0091000D03*
X0331000Y0101000D03*
X0341000Y0101000D03*
X0341000Y0111000D03*
X0331000Y0111000D03*
X0331000Y0121000D03*
X0341000Y0121000D03*
X0351000Y0121000D03*
X0351000Y0111000D03*
X0351000Y0101000D03*
X0351000Y0091000D03*
X0351000Y0131000D03*
X0351000Y0141000D03*
X0351000Y0151000D03*
X0351000Y0161000D03*
X0351000Y0171000D03*
X0341000Y0171000D03*
X0331000Y0171000D03*
X0331000Y0161000D03*
X0341000Y0161000D03*
X0341000Y0151000D03*
X0331000Y0151000D03*
X0331000Y0141000D03*
X0341000Y0141000D03*
X0341000Y0131000D03*
X0331000Y0131000D03*
X0331000Y0181000D03*
X0341000Y0181000D03*
X0341000Y0191000D03*
X0331000Y0191000D03*
X0331000Y0201000D03*
X0341000Y0201000D03*
X0341000Y0211000D03*
X0331000Y0211000D03*
X0351000Y0211000D03*
X0351000Y0201000D03*
X0351000Y0191000D03*
X0351000Y0181000D03*
X0251000Y0121000D03*
X0241000Y0121000D03*
X0241000Y0111000D03*
X0251000Y0111000D03*
X0251000Y0101000D03*
X0241000Y0101000D03*
X0241000Y0091000D03*
X0251000Y0091000D03*
X0251000Y0081000D03*
X0241000Y0081000D03*
X0241000Y0071000D03*
X0251000Y0071000D03*
X0231000Y0071000D03*
X0231000Y0081000D03*
X0231000Y0091000D03*
X0231000Y0101000D03*
X0231000Y0111000D03*
X0231000Y0121000D03*
X0431000Y0361000D03*
X0441000Y0361000D03*
X0441000Y0371000D03*
X0431000Y0371000D03*
X0431000Y0381000D03*
X0441000Y0381000D03*
X0451000Y0381000D03*
X0451000Y0371000D03*
X0451000Y0361000D03*
X0531000Y0361000D03*
X0531000Y0371000D03*
X0531000Y0381000D03*
X0541000Y0381000D03*
X0551000Y0381000D03*
X0551000Y0371000D03*
X0541000Y0371000D03*
X0541000Y0361000D03*
X0551000Y0361000D03*
X0631000Y0361000D03*
X0631000Y0371000D03*
X0631000Y0381000D03*
X0641000Y0381000D03*
X0651000Y0381000D03*
X0651000Y0371000D03*
X0641000Y0371000D03*
X0641000Y0361000D03*
X0651000Y0361000D03*
X0651000Y0351000D03*
X0641000Y0351000D03*
X0641000Y0341000D03*
X0651000Y0341000D03*
X0651000Y0331000D03*
X0641000Y0331000D03*
X0641000Y0321000D03*
X0651000Y0321000D03*
X0651000Y0311000D03*
X0641000Y0311000D03*
X0631000Y0311000D03*
X0631000Y0321000D03*
X0631000Y0331000D03*
X0631000Y0341000D03*
X0631000Y0351000D03*
X0631000Y0301000D03*
X0631000Y0291000D03*
X0631000Y0281000D03*
X0631000Y0271000D03*
X0641000Y0271000D03*
X0651000Y0271000D03*
X0651000Y0281000D03*
X0641000Y0281000D03*
X0641000Y0291000D03*
X0651000Y0291000D03*
X0651000Y0301000D03*
X0641000Y0301000D03*
X0641000Y0261000D03*
X0651000Y0261000D03*
X0651000Y0251000D03*
X0641000Y0251000D03*
X0641000Y0241000D03*
X0651000Y0241000D03*
X0651000Y0231000D03*
X0641000Y0231000D03*
X0641000Y0221000D03*
X0651000Y0221000D03*
X0651000Y0211000D03*
X0641000Y0211000D03*
X0641000Y0201000D03*
X0651000Y0201000D03*
X0651000Y0191000D03*
X0641000Y0191000D03*
X0641000Y0181000D03*
X0651000Y0181000D03*
X0651000Y0171000D03*
X0641000Y0171000D03*
X0641000Y0161000D03*
X0651000Y0161000D03*
X0651000Y0151000D03*
X0641000Y0151000D03*
X0641000Y0141000D03*
X0651000Y0141000D03*
X0651000Y0131000D03*
X0641000Y0131000D03*
X0631000Y0131000D03*
X0631000Y0141000D03*
X0631000Y0151000D03*
X0631000Y0161000D03*
X0631000Y0171000D03*
X0631000Y0181000D03*
X0631000Y0191000D03*
X0631000Y0201000D03*
X0631000Y0211000D03*
X0631000Y0221000D03*
X0631000Y0231000D03*
X0631000Y0241000D03*
X0631000Y0251000D03*
X0631000Y0261000D03*
X0631000Y0121000D03*
X0631000Y0111000D03*
X0631000Y0101000D03*
X0631000Y0091000D03*
X0641000Y0091000D03*
X0651000Y0091000D03*
X0651000Y0101000D03*
X0641000Y0101000D03*
X0641000Y0111000D03*
X0651000Y0111000D03*
X0651000Y0121000D03*
X0641000Y0121000D03*
X0641000Y0081000D03*
X0651000Y0081000D03*
X0651000Y0071000D03*
X0641000Y0071000D03*
X0631000Y0071000D03*
X0631000Y0081000D03*
D11*
X0691000Y0351000D03*
X0691000Y0381000D03*
D12*
X0681000Y0151000D03*
X0681000Y0111000D03*
X0681000Y0086000D03*
X0681000Y0076000D03*
D13*
X0081000Y0026000D03*
X0176000Y0026000D03*
X0281000Y0026000D03*
X0381000Y0026000D03*
X0481000Y0026000D03*
X0581000Y0026000D03*
D14*
X0601000Y0026000D03*
X0501000Y0026000D03*
X0401000Y0026000D03*
X0301000Y0026000D03*
X0196000Y0026000D03*
X0101000Y0026000D03*
D15*
X0134600Y0087400D02*
X0131000Y0091000D01*
X0134600Y0087400D02*
X0152600Y0087400D01*
X0156200Y0091000D01*
X0231000Y0091000D01*
X0234600Y0087400D01*
X0252600Y0087400D01*
X0256200Y0091000D01*
X0331000Y0091000D01*
X0334600Y0094600D01*
X0352600Y0094600D01*
X0356200Y0091000D01*
X0431000Y0091000D01*
X0434600Y0094600D01*
X0452600Y0094600D01*
X0456200Y0091000D01*
X0531000Y0091000D01*
X0534600Y0097400D02*
X0531000Y0101000D01*
X0532600Y0104600D02*
X0444600Y0104600D01*
X0441000Y0101000D01*
X0436200Y0101000D01*
X0432600Y0104600D01*
X0344200Y0104600D01*
X0341000Y0101400D01*
X0341000Y0101000D01*
X0337400Y0104600D01*
X0249400Y0104600D01*
X0245800Y0101000D01*
X0241000Y0101000D01*
X0251000Y0101000D02*
X0325800Y0101000D01*
X0329400Y0097400D01*
X0347400Y0097400D01*
X0351000Y0101000D01*
X0351000Y0100600D01*
X0354200Y0097400D01*
X0442600Y0097400D01*
X0446200Y0101000D01*
X0451000Y0101000D01*
X0451000Y0091000D02*
X0446200Y0091000D01*
X0442600Y0087400D01*
X0354600Y0087400D01*
X0351000Y0091000D01*
X0347400Y0107400D02*
X0351000Y0111000D01*
X0425800Y0111000D01*
X0429400Y0114600D01*
X0447400Y0114600D01*
X0451000Y0111000D01*
X0451000Y0111400D01*
X0454200Y0114600D01*
X0542600Y0114600D01*
X0546200Y0111000D01*
X0551000Y0111000D01*
X0554600Y0114600D01*
X0642600Y0114600D01*
X0646200Y0111000D01*
X0651000Y0111000D01*
X0651000Y0121000D02*
X0647400Y0124600D01*
X0629400Y0124600D01*
X0625800Y0121000D01*
X0551000Y0121000D01*
X0547400Y0117400D01*
X0529400Y0117400D01*
X0525800Y0121000D01*
X0451000Y0121000D01*
X0444600Y0124600D02*
X0441000Y0121000D01*
X0436200Y0121000D01*
X0432600Y0124600D01*
X0344600Y0124600D01*
X0341000Y0121000D01*
X0337400Y0114600D02*
X0341000Y0111000D01*
X0337400Y0114600D02*
X0249400Y0114600D01*
X0245800Y0111000D01*
X0241000Y0111000D01*
X0236200Y0111000D01*
X0232600Y0114600D01*
X0144200Y0114600D01*
X0141000Y0111400D01*
X0141000Y0111000D01*
X0137400Y0114600D01*
X0049400Y0114600D01*
X0045800Y0111000D01*
X0041000Y0111000D01*
X0051000Y0101000D02*
X0125800Y0101000D01*
X0129400Y0104600D01*
X0147400Y0104600D01*
X0151000Y0101000D01*
X0152600Y0097400D02*
X0134600Y0097400D01*
X0131000Y0101000D01*
X0137400Y0094600D02*
X0141000Y0091000D01*
X0141000Y0091400D01*
X0144200Y0094600D01*
X0232600Y0094600D01*
X0236200Y0091000D01*
X0241000Y0091000D01*
X0231000Y0101000D02*
X0156200Y0101000D01*
X0152600Y0097400D01*
X0137400Y0094600D02*
X0049400Y0094600D01*
X0045800Y0091000D01*
X0041000Y0091000D01*
X0051000Y0121000D02*
X0125800Y0121000D01*
X0129400Y0124600D01*
X0147400Y0124600D01*
X0151000Y0121000D01*
X0151000Y0121400D01*
X0154200Y0124600D01*
X0242600Y0124600D01*
X0246200Y0121000D01*
X0251000Y0121000D01*
X0325800Y0121000D01*
X0329400Y0117400D01*
X0347400Y0117400D01*
X0351000Y0121000D01*
X0344600Y0127400D02*
X0341000Y0131000D01*
X0336200Y0131000D01*
X0332600Y0134600D01*
X0244600Y0134600D01*
X0241000Y0131000D01*
X0236200Y0131000D01*
X0232600Y0134600D01*
X0144200Y0134600D01*
X0141000Y0131400D01*
X0141000Y0131000D01*
X0137400Y0134600D01*
X0049400Y0134600D01*
X0045800Y0131000D01*
X0041000Y0131000D01*
X0041000Y0141000D02*
X0045800Y0141000D01*
X0049400Y0144600D01*
X0137400Y0144600D01*
X0141000Y0141000D01*
X0141000Y0141400D01*
X0144200Y0144600D01*
X0232600Y0144600D01*
X0236200Y0141000D01*
X0241000Y0141000D01*
X0234600Y0137400D02*
X0231000Y0141000D01*
X0234600Y0137400D02*
X0252600Y0137400D01*
X0256200Y0141000D01*
X0331000Y0141000D01*
X0334600Y0144600D01*
X0352600Y0144600D01*
X0356200Y0141000D01*
X0431000Y0141000D01*
X0434600Y0137400D01*
X0452600Y0137400D01*
X0456200Y0141000D01*
X0531000Y0141000D01*
X0532600Y0144600D02*
X0444600Y0144600D01*
X0441000Y0141000D01*
X0434600Y0134600D02*
X0431000Y0131000D01*
X0432600Y0127400D02*
X0344600Y0127400D01*
X0347400Y0147400D02*
X0329400Y0147400D01*
X0325800Y0151000D01*
X0251000Y0151000D01*
X0244600Y0154600D02*
X0241000Y0151000D01*
X0236200Y0151000D01*
X0232600Y0154600D01*
X0144200Y0154600D01*
X0141000Y0151400D01*
X0141000Y0151000D01*
X0137400Y0154600D01*
X0049400Y0154600D01*
X0045800Y0151000D01*
X0041000Y0151000D01*
X0041000Y0161000D02*
X0045800Y0161000D01*
X0049400Y0164600D01*
X0137400Y0164600D01*
X0141000Y0161000D01*
X0141000Y0161400D01*
X0144200Y0164600D01*
X0232600Y0164600D01*
X0236200Y0161000D01*
X0241000Y0161000D01*
X0244600Y0164600D01*
X0332600Y0164600D01*
X0336200Y0161000D01*
X0341000Y0161000D01*
X0344600Y0164600D01*
X0432600Y0164600D01*
X0436200Y0161000D01*
X0441000Y0161000D01*
X0444600Y0164600D01*
X0532600Y0164600D01*
X0536200Y0161000D01*
X0541000Y0161000D01*
X0534600Y0157400D02*
X0531000Y0161000D01*
X0534600Y0157400D02*
X0552600Y0157400D01*
X0556200Y0161000D01*
X0631000Y0161000D01*
X0632600Y0154600D02*
X0544600Y0154600D01*
X0541000Y0151000D01*
X0536200Y0151000D01*
X0532600Y0154600D01*
X0444600Y0154600D01*
X0441000Y0151000D01*
X0436200Y0151000D01*
X0432600Y0154600D01*
X0344600Y0154600D01*
X0341000Y0151000D01*
X0336200Y0151000D01*
X0332600Y0154600D01*
X0244600Y0154600D01*
X0241000Y0171000D02*
X0236200Y0171000D01*
X0232600Y0174600D01*
X0144200Y0174600D01*
X0141000Y0171400D01*
X0141000Y0171000D01*
X0137400Y0174600D01*
X0049400Y0174600D01*
X0045800Y0171000D01*
X0041000Y0171000D01*
X0041000Y0181000D02*
X0045800Y0181000D01*
X0049400Y0184600D01*
X0137400Y0184600D01*
X0141000Y0181000D01*
X0141000Y0181400D01*
X0144200Y0184600D01*
X0232600Y0184600D01*
X0236200Y0181000D01*
X0241000Y0181000D01*
X0234600Y0177400D02*
X0231000Y0181000D01*
X0234600Y0177400D02*
X0252600Y0177400D01*
X0256200Y0181000D01*
X0331000Y0181000D01*
X0334600Y0177400D01*
X0352600Y0177400D01*
X0356200Y0181000D01*
X0431000Y0181000D01*
X0432600Y0184600D02*
X0344600Y0184600D01*
X0341000Y0181000D01*
X0334600Y0187400D02*
X0331000Y0191000D01*
X0332600Y0194600D02*
X0336200Y0191000D01*
X0341000Y0191000D01*
X0344600Y0194600D01*
X0432600Y0194600D01*
X0436200Y0191000D01*
X0441000Y0191000D01*
X0444600Y0194600D01*
X0532600Y0194600D01*
X0536200Y0191000D01*
X0541000Y0191000D01*
X0544600Y0194600D01*
X0632600Y0194600D01*
X0636200Y0191000D01*
X0641000Y0191000D01*
X0641000Y0181000D02*
X0636200Y0181000D01*
X0632600Y0184600D01*
X0544600Y0184600D01*
X0541000Y0181000D01*
X0536200Y0181000D01*
X0532600Y0184600D01*
X0444600Y0184600D01*
X0441000Y0181000D01*
X0436200Y0181000D01*
X0432600Y0184600D01*
X0431000Y0191000D02*
X0356200Y0191000D01*
X0352600Y0187400D01*
X0334600Y0187400D01*
X0332600Y0194600D02*
X0244600Y0194600D01*
X0241000Y0191000D01*
X0236200Y0191000D01*
X0232600Y0194600D01*
X0144200Y0194600D01*
X0141000Y0191400D01*
X0141000Y0191000D01*
X0137400Y0194600D01*
X0049400Y0194600D01*
X0045800Y0191000D01*
X0041000Y0191000D01*
X0041000Y0201000D02*
X0045800Y0201000D01*
X0049400Y0204600D01*
X0137400Y0204600D01*
X0141000Y0201000D01*
X0141000Y0201400D01*
X0144200Y0204600D01*
X0232600Y0204600D01*
X0236200Y0201000D01*
X0241000Y0201000D01*
X0244600Y0197400D01*
X0332600Y0197400D01*
X0336200Y0201000D01*
X0341000Y0201000D01*
X0344600Y0197400D01*
X0432600Y0197400D01*
X0436200Y0201000D01*
X0441000Y0201000D01*
X0444600Y0204600D01*
X0532600Y0204600D01*
X0536200Y0201000D01*
X0541000Y0201000D01*
X0544600Y0204600D01*
X0632600Y0204600D01*
X0636200Y0201000D01*
X0641000Y0201000D01*
X0641000Y0211000D02*
X0636200Y0211000D01*
X0632600Y0214600D01*
X0544600Y0214600D01*
X0541000Y0211000D01*
X0536200Y0211000D01*
X0532600Y0214600D01*
X0444600Y0214600D01*
X0441000Y0211000D01*
X0436200Y0211000D01*
X0432600Y0214600D01*
X0344600Y0214600D01*
X0341000Y0211000D01*
X0336200Y0211000D01*
X0332600Y0214600D01*
X0244600Y0214600D01*
X0241000Y0211000D01*
X0236200Y0211000D01*
X0232600Y0214600D01*
X0144200Y0214600D01*
X0141000Y0211400D01*
X0141000Y0211000D01*
X0137400Y0214600D01*
X0049400Y0214600D01*
X0045800Y0211000D01*
X0041000Y0211000D01*
X0041000Y0221000D02*
X0045800Y0221000D01*
X0049400Y0224600D01*
X0137400Y0224600D01*
X0141000Y0221000D01*
X0141000Y0221400D01*
X0144200Y0224600D01*
X0232600Y0224600D01*
X0236200Y0221000D01*
X0241000Y0221000D01*
X0244600Y0224600D01*
X0332600Y0224600D01*
X0336200Y0221000D01*
X0341000Y0221000D01*
X0344600Y0224600D01*
X0432600Y0224600D01*
X0436200Y0221000D01*
X0441000Y0221000D01*
X0444600Y0224600D01*
X0532600Y0224600D01*
X0536200Y0221000D01*
X0541000Y0221000D01*
X0534600Y0217400D02*
X0531000Y0221000D01*
X0534600Y0217400D02*
X0552600Y0217400D01*
X0556200Y0221000D01*
X0631000Y0221000D01*
X0636200Y0231000D02*
X0632600Y0234600D01*
X0544600Y0234600D01*
X0541000Y0231000D01*
X0536200Y0231000D01*
X0532600Y0234600D01*
X0444600Y0234600D01*
X0441000Y0231000D01*
X0436200Y0231000D01*
X0432600Y0234600D01*
X0344600Y0234600D01*
X0341000Y0231000D01*
X0336200Y0231000D01*
X0332600Y0234600D01*
X0244600Y0234600D01*
X0241000Y0231000D01*
X0236200Y0231000D01*
X0232600Y0234600D01*
X0144200Y0234600D01*
X0141000Y0231400D01*
X0141000Y0231000D01*
X0137400Y0234600D01*
X0049400Y0234600D01*
X0045800Y0231000D01*
X0041000Y0231000D01*
X0041000Y0241000D02*
X0045800Y0241000D01*
X0049400Y0244600D01*
X0137400Y0244600D01*
X0141000Y0241000D01*
X0144600Y0237400D01*
X0232600Y0237400D01*
X0236200Y0241000D01*
X0241000Y0241000D01*
X0244600Y0237400D01*
X0332600Y0237400D01*
X0336200Y0241000D01*
X0341000Y0241000D01*
X0344600Y0244600D01*
X0432600Y0244600D01*
X0436200Y0241000D01*
X0441000Y0241000D01*
X0444600Y0244600D01*
X0532600Y0244600D01*
X0536200Y0241000D01*
X0541000Y0241000D01*
X0544600Y0244600D01*
X0632600Y0244600D01*
X0636200Y0241000D01*
X0641000Y0241000D01*
X0641000Y0231000D02*
X0636200Y0231000D01*
X0636200Y0251000D02*
X0632600Y0254600D01*
X0544600Y0254600D01*
X0541000Y0251000D01*
X0536200Y0251000D01*
X0532600Y0254600D01*
X0444600Y0254600D01*
X0441000Y0251000D01*
X0436200Y0251000D01*
X0432600Y0254600D01*
X0344600Y0254600D01*
X0341000Y0251000D01*
X0336200Y0251000D01*
X0332600Y0254600D01*
X0244600Y0254600D01*
X0241000Y0251000D01*
X0236200Y0251000D01*
X0232600Y0254600D01*
X0144200Y0254600D01*
X0141000Y0251400D01*
X0141000Y0251000D01*
X0137400Y0254600D01*
X0049400Y0254600D01*
X0045800Y0251000D01*
X0041000Y0251000D01*
X0041000Y0261000D02*
X0045800Y0261000D01*
X0049400Y0264600D01*
X0137400Y0264600D01*
X0141000Y0261000D01*
X0141000Y0261400D01*
X0144200Y0264600D01*
X0232600Y0264600D01*
X0236200Y0261000D01*
X0241000Y0261000D01*
X0244600Y0257400D01*
X0332600Y0257400D01*
X0336200Y0261000D01*
X0341000Y0261000D01*
X0344600Y0257400D01*
X0432600Y0257400D01*
X0436200Y0261000D01*
X0441000Y0261000D01*
X0444600Y0264600D01*
X0532600Y0264600D01*
X0536200Y0261000D01*
X0541000Y0261000D01*
X0544600Y0264600D01*
X0632600Y0264600D01*
X0636200Y0261000D01*
X0641000Y0261000D01*
X0641000Y0251000D02*
X0636200Y0251000D01*
X0636200Y0271000D02*
X0632600Y0274600D01*
X0544600Y0274600D01*
X0541000Y0271000D01*
X0536200Y0271000D01*
X0532600Y0274600D01*
X0444600Y0274600D01*
X0441000Y0271000D01*
X0436200Y0271000D01*
X0432600Y0274600D01*
X0344600Y0274600D01*
X0341000Y0271000D01*
X0334600Y0267400D02*
X0331000Y0271000D01*
X0256200Y0271000D01*
X0252600Y0267400D01*
X0234600Y0267400D01*
X0231000Y0271000D01*
X0232600Y0274600D02*
X0144200Y0274600D01*
X0141000Y0271400D01*
X0141000Y0271000D01*
X0137400Y0274600D01*
X0049400Y0274600D01*
X0045800Y0271000D01*
X0041000Y0271000D01*
X0041000Y0281000D02*
X0045800Y0281000D01*
X0049400Y0284600D01*
X0137400Y0284600D01*
X0141000Y0281000D01*
X0141000Y0281400D01*
X0144200Y0284600D01*
X0232600Y0284600D01*
X0236200Y0281000D01*
X0241000Y0281000D01*
X0234600Y0277400D02*
X0231000Y0281000D01*
X0234600Y0277400D02*
X0252600Y0277400D01*
X0256200Y0281000D01*
X0331000Y0281000D01*
X0334600Y0277400D01*
X0352600Y0277400D01*
X0356200Y0281000D01*
X0431000Y0281000D01*
X0432600Y0284600D02*
X0344600Y0284600D01*
X0341000Y0281000D01*
X0334600Y0287400D02*
X0331000Y0291000D01*
X0256200Y0291000D01*
X0252600Y0287400D01*
X0234600Y0287400D01*
X0231000Y0291000D01*
X0232600Y0294600D02*
X0144200Y0294600D01*
X0141000Y0291400D01*
X0141000Y0291000D01*
X0137400Y0294600D01*
X0049400Y0294600D01*
X0045800Y0291000D01*
X0041000Y0291000D01*
X0041000Y0301000D02*
X0045800Y0301000D01*
X0049400Y0304600D01*
X0137400Y0304600D01*
X0141000Y0301000D01*
X0144600Y0297400D01*
X0232600Y0297400D01*
X0236200Y0301000D01*
X0241000Y0301000D01*
X0244600Y0297400D01*
X0332600Y0297400D01*
X0336200Y0301000D01*
X0341000Y0301000D01*
X0344600Y0304600D01*
X0432600Y0304600D01*
X0436200Y0301000D01*
X0441000Y0301000D01*
X0444600Y0304600D01*
X0532600Y0304600D01*
X0536200Y0301000D01*
X0541000Y0301000D01*
X0544600Y0304600D01*
X0632600Y0304600D01*
X0636200Y0301000D01*
X0641000Y0301000D01*
X0647400Y0297400D02*
X0651000Y0301000D01*
X0647400Y0297400D02*
X0629400Y0297400D01*
X0625800Y0301000D01*
X0551000Y0301000D01*
X0544600Y0294600D02*
X0541000Y0291000D01*
X0536200Y0291000D01*
X0532600Y0294600D01*
X0444600Y0294600D01*
X0441000Y0291000D01*
X0436200Y0291000D01*
X0432600Y0294600D01*
X0344600Y0294600D01*
X0341000Y0291000D01*
X0334600Y0287400D02*
X0352600Y0287400D01*
X0356200Y0291000D01*
X0431000Y0291000D01*
X0432600Y0284600D02*
X0436200Y0281000D01*
X0441000Y0281000D01*
X0444600Y0284600D01*
X0532600Y0284600D01*
X0536200Y0281000D01*
X0541000Y0281000D01*
X0544600Y0284600D01*
X0632600Y0284600D01*
X0636200Y0281000D01*
X0641000Y0281000D01*
X0641000Y0271000D02*
X0636200Y0271000D01*
X0636200Y0291000D02*
X0632600Y0294600D01*
X0544600Y0294600D01*
X0549400Y0307400D02*
X0637400Y0307400D01*
X0641000Y0311000D01*
X0647400Y0314600D02*
X0651000Y0311000D01*
X0647400Y0314600D02*
X0629400Y0314600D01*
X0625800Y0311000D01*
X0551000Y0311000D01*
X0549400Y0307400D02*
X0545800Y0311000D01*
X0541000Y0311000D01*
X0536200Y0311000D01*
X0529800Y0317400D01*
X0460600Y0317400D01*
X0457400Y0320600D01*
X0455800Y0320600D01*
X0449800Y0314600D01*
X0444600Y0314600D01*
X0441000Y0311000D01*
X0436200Y0311000D01*
X0429800Y0317400D01*
X0358200Y0317400D01*
X0356200Y0319400D01*
X0354600Y0319400D01*
X0349800Y0314600D01*
X0344600Y0314600D01*
X0341000Y0311000D01*
X0336200Y0311000D01*
X0332600Y0314600D01*
X0244600Y0314600D01*
X0241000Y0311000D01*
X0236200Y0311000D01*
X0232600Y0314600D01*
X0144200Y0314600D01*
X0141000Y0311400D01*
X0141000Y0311000D01*
X0137400Y0314600D01*
X0049400Y0314600D01*
X0045800Y0311000D01*
X0041000Y0311000D01*
X0041000Y0321000D02*
X0045800Y0321000D01*
X0049400Y0324600D01*
X0137400Y0324600D01*
X0141000Y0321000D01*
X0141000Y0321400D01*
X0144200Y0324600D01*
X0232600Y0324600D01*
X0236200Y0321000D01*
X0241000Y0321000D01*
X0244600Y0324600D01*
X0332600Y0324600D01*
X0336200Y0321000D01*
X0341000Y0321000D01*
X0344600Y0324600D01*
X0432600Y0324600D01*
X0436200Y0321000D01*
X0441000Y0321000D01*
X0444600Y0324600D01*
X0532600Y0324600D01*
X0536200Y0321000D01*
X0541000Y0321000D01*
X0546200Y0324600D02*
X0547400Y0324600D01*
X0551000Y0321000D01*
X0551000Y0321400D01*
X0554200Y0324600D01*
X0642600Y0324600D01*
X0646200Y0321000D01*
X0651000Y0321000D01*
X0641000Y0331000D02*
X0636200Y0331000D01*
X0632600Y0334600D01*
X0544600Y0334600D01*
X0541000Y0331000D01*
X0536200Y0331000D01*
X0532600Y0327400D01*
X0444600Y0327400D01*
X0441000Y0331000D01*
X0442600Y0334600D02*
X0354200Y0334600D01*
X0351000Y0331400D01*
X0351000Y0331000D01*
X0347400Y0334600D01*
X0329400Y0334600D01*
X0325800Y0331000D01*
X0251000Y0331000D01*
X0247400Y0334600D01*
X0229400Y0334600D01*
X0225800Y0331000D01*
X0151000Y0331000D01*
X0149400Y0327400D02*
X0237400Y0327400D01*
X0241000Y0331000D01*
X0241000Y0341000D02*
X0236200Y0341000D01*
X0232600Y0344600D01*
X0144200Y0344600D01*
X0141000Y0341400D01*
X0141000Y0341000D01*
X0137400Y0344600D01*
X0049400Y0344600D01*
X0045800Y0341000D01*
X0041000Y0341000D01*
X0041000Y0331000D02*
X0045800Y0331000D01*
X0049400Y0334600D01*
X0137400Y0334600D01*
X0141000Y0331000D01*
X0145800Y0331000D01*
X0149400Y0327400D01*
X0151000Y0321000D02*
X0225800Y0321000D01*
X0229400Y0317400D01*
X0247400Y0317400D01*
X0251000Y0321000D01*
X0247400Y0304600D02*
X0229400Y0304600D01*
X0225800Y0301000D01*
X0151000Y0301000D01*
X0151000Y0351000D02*
X0151000Y0351400D01*
X0154200Y0354600D01*
X0242600Y0354600D01*
X0246200Y0351000D01*
X0251000Y0351000D01*
X0252600Y0347400D02*
X0234600Y0347400D01*
X0231000Y0351000D01*
X0234600Y0357400D02*
X0231000Y0361000D01*
X0156200Y0361000D01*
X0152600Y0357400D01*
X0134600Y0357400D01*
X0131000Y0361000D01*
X0127400Y0364600D01*
X0039400Y0364600D01*
X0035800Y0361000D01*
X0031000Y0361000D01*
X0051000Y0351000D02*
X0125800Y0351000D01*
X0129400Y0354600D01*
X0147400Y0354600D01*
X0151000Y0351000D01*
X0141000Y0361000D02*
X0144600Y0364600D01*
X0232600Y0364600D01*
X0236200Y0361000D01*
X0241000Y0361000D01*
X0234600Y0357400D02*
X0252600Y0357400D01*
X0256200Y0361000D01*
X0331000Y0361000D01*
X0334600Y0357400D01*
X0352600Y0357400D01*
X0356200Y0361000D01*
X0431000Y0361000D01*
X0434600Y0364600D01*
X0452600Y0364600D01*
X0456200Y0361000D01*
X0531000Y0361000D01*
X0534600Y0364600D01*
X0552600Y0364600D01*
X0556200Y0361000D01*
X0631000Y0361000D01*
X0631000Y0351000D02*
X0556200Y0351000D01*
X0552600Y0354600D01*
X0534600Y0354600D01*
X0531000Y0351000D01*
X0456200Y0351000D01*
X0452600Y0347400D01*
X0434600Y0347400D01*
X0431000Y0351000D01*
X0356200Y0351000D01*
X0352600Y0347400D01*
X0334600Y0347400D01*
X0331000Y0351000D01*
X0256200Y0351000D01*
X0252600Y0347400D01*
X0249400Y0344600D02*
X0337400Y0344600D01*
X0341000Y0341000D01*
X0347400Y0337400D02*
X0351000Y0341000D01*
X0425800Y0341000D01*
X0429400Y0344600D01*
X0447400Y0344600D01*
X0451000Y0341000D01*
X0451000Y0341400D01*
X0454200Y0344600D01*
X0542600Y0344600D01*
X0546200Y0341000D01*
X0551000Y0341000D01*
X0554600Y0344600D01*
X0642600Y0344600D01*
X0646200Y0341000D01*
X0651000Y0341000D01*
X0641000Y0291000D02*
X0636200Y0291000D01*
X0456600Y0311400D02*
X0452600Y0307400D01*
X0365000Y0307400D01*
X0355400Y0317000D01*
X0347400Y0337400D02*
X0329400Y0337400D01*
X0325800Y0341000D01*
X0251000Y0341000D01*
X0249400Y0344600D02*
X0245800Y0341000D01*
X0241000Y0341000D01*
X0251000Y0361000D02*
X0253800Y0361000D01*
X0257400Y0364600D01*
X0347400Y0364600D01*
X0351000Y0361000D01*
X0344600Y0354600D02*
X0341000Y0351000D01*
X0344600Y0354600D02*
X0432600Y0354600D01*
X0436200Y0351000D01*
X0441000Y0351000D01*
X0442600Y0334600D02*
X0446200Y0331000D01*
X0451000Y0331000D01*
X0456600Y0318200D02*
X0456600Y0311400D01*
X0431000Y0271000D02*
X0356200Y0271000D01*
X0352600Y0267400D01*
X0334600Y0267400D01*
X0329400Y0264600D02*
X0347400Y0264600D01*
X0351000Y0261000D01*
X0356200Y0251000D02*
X0352600Y0247400D01*
X0334600Y0247400D01*
X0331000Y0251000D01*
X0331000Y0241000D02*
X0256200Y0241000D01*
X0252600Y0244600D01*
X0234600Y0244600D01*
X0231000Y0241000D01*
X0251000Y0231000D02*
X0325800Y0231000D01*
X0329400Y0227400D01*
X0347400Y0227400D01*
X0351000Y0231000D01*
X0356200Y0221000D02*
X0352600Y0217400D01*
X0334600Y0217400D01*
X0331000Y0221000D01*
X0325800Y0211000D02*
X0329400Y0207400D01*
X0347400Y0207400D01*
X0351000Y0211000D01*
X0347400Y0204600D02*
X0351000Y0201000D01*
X0347400Y0204600D02*
X0329400Y0204600D01*
X0325800Y0201000D01*
X0251000Y0201000D01*
X0251000Y0211000D02*
X0325800Y0211000D01*
X0356200Y0221000D02*
X0431000Y0221000D01*
X0431000Y0251000D02*
X0356200Y0251000D01*
X0329400Y0264600D02*
X0325800Y0261000D01*
X0251000Y0261000D01*
X0241000Y0271000D02*
X0236200Y0271000D01*
X0232600Y0274600D01*
X0236200Y0291000D02*
X0232600Y0294600D01*
X0236200Y0291000D02*
X0241000Y0291000D01*
X0251000Y0301000D02*
X0247400Y0304600D01*
X0244600Y0174600D02*
X0241000Y0171000D01*
X0244600Y0174600D02*
X0332600Y0174600D01*
X0336200Y0171000D01*
X0341000Y0171000D01*
X0344600Y0174600D01*
X0432600Y0174600D01*
X0436200Y0171000D01*
X0441000Y0171000D01*
X0444600Y0174600D01*
X0532600Y0174600D01*
X0536200Y0171000D01*
X0541000Y0171000D01*
X0544600Y0174600D01*
X0632600Y0174600D01*
X0636200Y0171000D01*
X0641000Y0171000D01*
X0632600Y0154600D02*
X0636200Y0151000D01*
X0641000Y0151000D01*
X0632600Y0144600D02*
X0544600Y0144600D01*
X0541000Y0141000D01*
X0536200Y0141000D01*
X0532600Y0144600D01*
X0531000Y0131000D02*
X0456200Y0131000D01*
X0452600Y0134600D01*
X0434600Y0134600D01*
X0436200Y0131000D02*
X0432600Y0127400D01*
X0436200Y0131000D02*
X0441000Y0131000D01*
X0444600Y0127400D01*
X0532600Y0127400D01*
X0536200Y0131000D01*
X0541000Y0131000D01*
X0544600Y0134600D01*
X0632600Y0134600D01*
X0636200Y0131000D01*
X0641000Y0131000D01*
X0641000Y0141000D02*
X0636200Y0141000D01*
X0632600Y0144600D01*
X0631000Y0101000D02*
X0556200Y0101000D01*
X0552600Y0097400D01*
X0534600Y0097400D01*
X0536200Y0101000D02*
X0532600Y0104600D01*
X0536200Y0101000D02*
X0541000Y0101000D01*
X0546200Y0091000D02*
X0542600Y0087400D01*
X0454600Y0087400D01*
X0451000Y0091000D01*
X0444600Y0124600D02*
X0532600Y0124600D01*
X0536200Y0121000D01*
X0541000Y0121000D01*
X0546200Y0091000D02*
X0551000Y0091000D01*
X0625800Y0091000D01*
X0629400Y0094600D01*
X0647400Y0094600D01*
X0651000Y0091000D01*
X0431000Y0161000D02*
X0356200Y0161000D01*
X0352600Y0157400D01*
X0334600Y0157400D01*
X0331000Y0161000D01*
X0329400Y0167400D02*
X0347400Y0167400D01*
X0351000Y0171000D01*
X0351000Y0151000D02*
X0347400Y0147400D01*
X0329400Y0167400D02*
X0325800Y0171000D01*
X0251000Y0171000D01*
X0251000Y0111000D02*
X0325800Y0111000D01*
X0329400Y0107400D01*
X0347400Y0107400D01*
D16*
X0355400Y0317000D03*
X0456600Y0318200D03*
X0546200Y0324600D03*
D17*
X0551000Y0371000D02*
X0541000Y0371000D01*
X0531000Y0371000D01*
X0451000Y0371000D01*
X0441000Y0371000D01*
X0431000Y0371000D01*
X0351000Y0371000D01*
X0341000Y0371000D01*
X0331000Y0371000D01*
X0251000Y0371000D01*
X0241000Y0371000D01*
X0231000Y0371000D01*
X0151000Y0371000D01*
X0141000Y0371000D01*
X0131000Y0371000D01*
X0051000Y0371000D01*
X0041000Y0371000D01*
X0031000Y0371000D01*
X0016000Y0371000D01*
X0016000Y0081000D01*
X0031000Y0081000D01*
X0041000Y0081000D01*
X0051000Y0081000D01*
X0131000Y0081000D01*
X0141000Y0081000D01*
X0151000Y0081000D01*
X0231000Y0081000D01*
X0241000Y0081000D01*
X0251000Y0081000D01*
X0331000Y0081000D01*
X0341000Y0081000D01*
X0351000Y0081000D01*
X0431000Y0081000D01*
X0441000Y0081000D01*
X0451000Y0081000D01*
X0531000Y0081000D01*
X0541000Y0081000D01*
X0551000Y0081000D01*
X0631000Y0081000D01*
X0641000Y0081000D01*
X0651000Y0081000D01*
X0666000Y0081000D01*
X0666000Y0151000D01*
X0681000Y0151000D01*
X0681000Y0076000D02*
X0681000Y0071000D01*
X0651000Y0071000D01*
X0641000Y0071000D01*
X0631000Y0071000D01*
X0601000Y0071000D01*
X0551000Y0071000D01*
X0541000Y0071000D01*
X0531000Y0071000D01*
X0501000Y0071000D01*
X0451000Y0071000D01*
X0441000Y0071000D01*
X0431000Y0071000D01*
X0401000Y0071000D01*
X0351000Y0071000D01*
X0341000Y0071000D01*
X0331000Y0071000D01*
X0301000Y0071000D01*
X0251000Y0071000D01*
X0241000Y0071000D01*
X0231000Y0071000D01*
X0196200Y0071000D01*
X0151000Y0071000D01*
X0141000Y0071000D01*
X0131000Y0071000D01*
X0101000Y0071000D01*
X0051000Y0071000D01*
X0041000Y0071000D01*
X0031000Y0071000D01*
X0006000Y0071000D01*
X0006000Y0381000D01*
X0031000Y0381000D01*
X0041000Y0381000D01*
X0051000Y0381000D01*
X0131000Y0381000D01*
X0141000Y0381000D01*
X0151000Y0381000D01*
X0231000Y0381000D01*
X0241000Y0381000D01*
X0251000Y0381000D01*
X0331000Y0381000D01*
X0341000Y0381000D01*
X0351000Y0381000D01*
X0431000Y0381000D01*
X0441000Y0381000D01*
X0451000Y0381000D01*
X0531000Y0381000D01*
X0541000Y0381000D01*
X0551000Y0381000D01*
X0631000Y0381000D01*
X0641000Y0381000D01*
X0651000Y0381000D01*
X0686000Y0381000D01*
X0671000Y0371000D02*
X0671000Y0351000D01*
X0691000Y0351000D01*
X0671000Y0371000D02*
X0651000Y0371000D01*
X0641000Y0371000D01*
X0631000Y0371000D01*
X0551000Y0371000D01*
D18*
X0686000Y0381000D02*
X0691000Y0381000D01*
X0601000Y0071000D02*
X0601000Y0026000D01*
X0501000Y0026000D02*
X0501000Y0071000D01*
X0401000Y0071000D02*
X0401000Y0026000D01*
X0301000Y0026000D02*
X0301000Y0071000D01*
X0196200Y0071000D02*
X0196200Y0026200D01*
X0196000Y0026000D01*
X0101000Y0026000D02*
X0101000Y0071000D01*
M02*
