G75*
%MOIN*%
%OFA0B0*%
%FSLAX25Y25*%
%IPPOS*%
%LPD*%
%AMOC8*
5,1,8,0,0,1.08239X$1,22.5*
%
%ADD10OC8,0.05400*%
%ADD11OC8,0.16400*%
%ADD12OC8,0.04800*%
%ADD13C,0.07500*%
%ADD14OC8,0.07500*%
%ADD15C,0.00600*%
%ADD16C,0.02700*%
%ADD17C,0.03937*%
D10*
X0031000Y0071000D03*
X0041000Y0071000D03*
X0041000Y0081000D03*
X0031000Y0081000D03*
X0031000Y0091000D03*
X0041000Y0091000D03*
X0041000Y0101000D03*
X0031000Y0101000D03*
X0031000Y0111000D03*
X0041000Y0111000D03*
X0041000Y0121000D03*
X0031000Y0121000D03*
X0031000Y0131000D03*
X0041000Y0131000D03*
X0041000Y0141000D03*
X0031000Y0141000D03*
X0031000Y0151000D03*
X0041000Y0151000D03*
X0041000Y0161000D03*
X0031000Y0161000D03*
X0031000Y0171000D03*
X0041000Y0171000D03*
X0051000Y0171000D03*
X0051000Y0161000D03*
X0051000Y0151000D03*
X0051000Y0141000D03*
X0051000Y0131000D03*
X0051000Y0121000D03*
X0051000Y0111000D03*
X0051000Y0101000D03*
X0051000Y0091000D03*
X0051000Y0081000D03*
X0051000Y0071000D03*
X0131000Y0071000D03*
X0131000Y0081000D03*
X0141000Y0081000D03*
X0151000Y0081000D03*
X0151000Y0071000D03*
X0141000Y0071000D03*
X0141000Y0091000D03*
X0151000Y0091000D03*
X0151000Y0101000D03*
X0141000Y0101000D03*
X0141000Y0111000D03*
X0151000Y0111000D03*
X0151000Y0121000D03*
X0141000Y0121000D03*
X0131000Y0121000D03*
X0131000Y0111000D03*
X0131000Y0101000D03*
X0131000Y0091000D03*
X0131000Y0131000D03*
X0131000Y0141000D03*
X0131000Y0151000D03*
X0131000Y0161000D03*
X0131000Y0171000D03*
X0141000Y0171000D03*
X0151000Y0171000D03*
X0151000Y0161000D03*
X0141000Y0161000D03*
X0141000Y0151000D03*
X0151000Y0151000D03*
X0151000Y0141000D03*
X0141000Y0141000D03*
X0141000Y0131000D03*
X0151000Y0131000D03*
X0151000Y0181000D03*
X0141000Y0181000D03*
X0141000Y0191000D03*
X0151000Y0191000D03*
X0151000Y0201000D03*
X0141000Y0201000D03*
X0141000Y0211000D03*
X0151000Y0211000D03*
X0151000Y0221000D03*
X0141000Y0221000D03*
X0141000Y0231000D03*
X0151000Y0231000D03*
X0151000Y0241000D03*
X0141000Y0241000D03*
X0141000Y0251000D03*
X0151000Y0251000D03*
X0151000Y0261000D03*
X0141000Y0261000D03*
X0131000Y0261000D03*
X0131000Y0251000D03*
X0131000Y0241000D03*
X0131000Y0231000D03*
X0131000Y0221000D03*
X0131000Y0211000D03*
X0131000Y0201000D03*
X0131000Y0191000D03*
X0131000Y0181000D03*
X0051000Y0181000D03*
X0051000Y0191000D03*
X0051000Y0201000D03*
X0051000Y0211000D03*
X0041000Y0211000D03*
X0031000Y0211000D03*
X0031000Y0201000D03*
X0041000Y0201000D03*
X0041000Y0191000D03*
X0031000Y0191000D03*
X0031000Y0181000D03*
X0041000Y0181000D03*
X0041000Y0221000D03*
X0031000Y0221000D03*
X0031000Y0231000D03*
X0041000Y0231000D03*
X0041000Y0241000D03*
X0031000Y0241000D03*
X0031000Y0251000D03*
X0041000Y0251000D03*
X0041000Y0261000D03*
X0031000Y0261000D03*
X0031000Y0271000D03*
X0041000Y0271000D03*
X0041000Y0281000D03*
X0031000Y0281000D03*
X0031000Y0291000D03*
X0041000Y0291000D03*
X0041000Y0301000D03*
X0031000Y0301000D03*
X0031000Y0311000D03*
X0041000Y0311000D03*
X0041000Y0321000D03*
X0031000Y0321000D03*
X0031000Y0331000D03*
X0041000Y0331000D03*
X0041000Y0341000D03*
X0031000Y0341000D03*
X0031000Y0351000D03*
X0041000Y0351000D03*
X0051000Y0351000D03*
X0051000Y0341000D03*
X0051000Y0331000D03*
X0051000Y0321000D03*
X0051000Y0311000D03*
X0051000Y0301000D03*
X0051000Y0291000D03*
X0051000Y0281000D03*
X0051000Y0271000D03*
X0051000Y0261000D03*
X0051000Y0251000D03*
X0051000Y0241000D03*
X0051000Y0231000D03*
X0051000Y0221000D03*
X0131000Y0271000D03*
X0131000Y0281000D03*
X0131000Y0291000D03*
X0131000Y0301000D03*
X0141000Y0301000D03*
X0151000Y0301000D03*
X0151000Y0291000D03*
X0141000Y0291000D03*
X0141000Y0281000D03*
X0151000Y0281000D03*
X0151000Y0271000D03*
X0141000Y0271000D03*
X0141000Y0311000D03*
X0151000Y0311000D03*
X0151000Y0321000D03*
X0141000Y0321000D03*
X0141000Y0331000D03*
X0151000Y0331000D03*
X0151000Y0341000D03*
X0141000Y0341000D03*
X0141000Y0351000D03*
X0151000Y0351000D03*
X0151000Y0361000D03*
X0141000Y0361000D03*
X0141000Y0371000D03*
X0151000Y0371000D03*
X0151000Y0381000D03*
X0141000Y0381000D03*
X0131000Y0381000D03*
X0131000Y0371000D03*
X0131000Y0361000D03*
X0131000Y0351000D03*
X0131000Y0341000D03*
X0131000Y0331000D03*
X0131000Y0321000D03*
X0131000Y0311000D03*
X0051000Y0361000D03*
X0051000Y0371000D03*
X0051000Y0381000D03*
X0041000Y0381000D03*
X0031000Y0381000D03*
X0031000Y0371000D03*
X0041000Y0371000D03*
X0041000Y0361000D03*
X0031000Y0361000D03*
X0231000Y0361000D03*
X0231000Y0371000D03*
X0231000Y0381000D03*
X0241000Y0381000D03*
X0251000Y0381000D03*
X0251000Y0371000D03*
X0241000Y0371000D03*
X0241000Y0361000D03*
X0251000Y0361000D03*
X0251000Y0351000D03*
X0241000Y0351000D03*
X0241000Y0341000D03*
X0251000Y0341000D03*
X0251000Y0331000D03*
X0241000Y0331000D03*
X0241000Y0321000D03*
X0251000Y0321000D03*
X0251000Y0311000D03*
X0241000Y0311000D03*
X0231000Y0311000D03*
X0231000Y0321000D03*
X0231000Y0331000D03*
X0231000Y0341000D03*
X0231000Y0351000D03*
X0231000Y0301000D03*
X0231000Y0291000D03*
X0231000Y0281000D03*
X0231000Y0271000D03*
X0241000Y0271000D03*
X0251000Y0271000D03*
X0251000Y0281000D03*
X0241000Y0281000D03*
X0241000Y0291000D03*
X0251000Y0291000D03*
X0251000Y0301000D03*
X0241000Y0301000D03*
X0241000Y0261000D03*
X0251000Y0261000D03*
X0251000Y0251000D03*
X0241000Y0251000D03*
X0241000Y0241000D03*
X0251000Y0241000D03*
X0251000Y0231000D03*
X0241000Y0231000D03*
X0241000Y0221000D03*
X0251000Y0221000D03*
X0251000Y0211000D03*
X0241000Y0211000D03*
X0241000Y0201000D03*
X0251000Y0201000D03*
X0251000Y0191000D03*
X0241000Y0191000D03*
X0241000Y0181000D03*
X0251000Y0181000D03*
X0251000Y0171000D03*
X0241000Y0171000D03*
X0241000Y0161000D03*
X0251000Y0161000D03*
X0251000Y0151000D03*
X0241000Y0151000D03*
X0241000Y0141000D03*
X0251000Y0141000D03*
X0251000Y0131000D03*
X0241000Y0131000D03*
X0231000Y0131000D03*
X0231000Y0141000D03*
X0231000Y0151000D03*
X0231000Y0161000D03*
X0231000Y0171000D03*
X0231000Y0181000D03*
X0231000Y0191000D03*
X0231000Y0201000D03*
X0231000Y0211000D03*
X0231000Y0221000D03*
X0231000Y0231000D03*
X0231000Y0241000D03*
X0231000Y0251000D03*
X0231000Y0261000D03*
X0331000Y0261000D03*
X0341000Y0261000D03*
X0341000Y0251000D03*
X0331000Y0251000D03*
X0331000Y0241000D03*
X0341000Y0241000D03*
X0341000Y0231000D03*
X0331000Y0231000D03*
X0331000Y0221000D03*
X0341000Y0221000D03*
X0351000Y0221000D03*
X0351000Y0231000D03*
X0351000Y0241000D03*
X0351000Y0251000D03*
X0351000Y0261000D03*
X0351000Y0271000D03*
X0351000Y0281000D03*
X0351000Y0291000D03*
X0351000Y0301000D03*
X0341000Y0301000D03*
X0331000Y0301000D03*
X0331000Y0291000D03*
X0341000Y0291000D03*
X0341000Y0281000D03*
X0331000Y0281000D03*
X0331000Y0271000D03*
X0341000Y0271000D03*
X0341000Y0311000D03*
X0331000Y0311000D03*
X0331000Y0321000D03*
X0341000Y0321000D03*
X0341000Y0331000D03*
X0331000Y0331000D03*
X0331000Y0341000D03*
X0341000Y0341000D03*
X0341000Y0351000D03*
X0331000Y0351000D03*
X0331000Y0361000D03*
X0341000Y0361000D03*
X0341000Y0371000D03*
X0331000Y0371000D03*
X0331000Y0381000D03*
X0341000Y0381000D03*
X0351000Y0381000D03*
X0351000Y0371000D03*
X0351000Y0361000D03*
X0351000Y0351000D03*
X0351000Y0341000D03*
X0351000Y0331000D03*
X0351000Y0321000D03*
X0351000Y0311000D03*
X0431000Y0311000D03*
X0441000Y0311000D03*
X0441000Y0321000D03*
X0431000Y0321000D03*
X0431000Y0331000D03*
X0441000Y0331000D03*
X0441000Y0341000D03*
X0431000Y0341000D03*
X0431000Y0351000D03*
X0441000Y0351000D03*
X0451000Y0351000D03*
X0451000Y0341000D03*
X0451000Y0331000D03*
X0451000Y0321000D03*
X0451000Y0311000D03*
X0451000Y0301000D03*
X0451000Y0291000D03*
X0451000Y0281000D03*
X0451000Y0271000D03*
X0441000Y0271000D03*
X0431000Y0271000D03*
X0431000Y0281000D03*
X0441000Y0281000D03*
X0441000Y0291000D03*
X0431000Y0291000D03*
X0431000Y0301000D03*
X0441000Y0301000D03*
X0441000Y0261000D03*
X0431000Y0261000D03*
X0431000Y0251000D03*
X0441000Y0251000D03*
X0441000Y0241000D03*
X0431000Y0241000D03*
X0431000Y0231000D03*
X0441000Y0231000D03*
X0441000Y0221000D03*
X0431000Y0221000D03*
X0431000Y0211000D03*
X0441000Y0211000D03*
X0441000Y0201000D03*
X0431000Y0201000D03*
X0431000Y0191000D03*
X0441000Y0191000D03*
X0441000Y0181000D03*
X0431000Y0181000D03*
X0431000Y0171000D03*
X0441000Y0171000D03*
X0441000Y0161000D03*
X0431000Y0161000D03*
X0431000Y0151000D03*
X0441000Y0151000D03*
X0441000Y0141000D03*
X0431000Y0141000D03*
X0431000Y0131000D03*
X0441000Y0131000D03*
X0451000Y0131000D03*
X0451000Y0141000D03*
X0451000Y0151000D03*
X0451000Y0161000D03*
X0451000Y0171000D03*
X0451000Y0181000D03*
X0451000Y0191000D03*
X0451000Y0201000D03*
X0451000Y0211000D03*
X0451000Y0221000D03*
X0451000Y0231000D03*
X0451000Y0241000D03*
X0451000Y0251000D03*
X0451000Y0261000D03*
X0531000Y0261000D03*
X0531000Y0251000D03*
X0531000Y0241000D03*
X0531000Y0231000D03*
X0531000Y0221000D03*
X0541000Y0221000D03*
X0551000Y0221000D03*
X0551000Y0231000D03*
X0541000Y0231000D03*
X0541000Y0241000D03*
X0551000Y0241000D03*
X0551000Y0251000D03*
X0541000Y0251000D03*
X0541000Y0261000D03*
X0551000Y0261000D03*
X0551000Y0271000D03*
X0541000Y0271000D03*
X0541000Y0281000D03*
X0551000Y0281000D03*
X0551000Y0291000D03*
X0541000Y0291000D03*
X0541000Y0301000D03*
X0551000Y0301000D03*
X0551000Y0311000D03*
X0541000Y0311000D03*
X0541000Y0321000D03*
X0551000Y0321000D03*
X0551000Y0331000D03*
X0541000Y0331000D03*
X0541000Y0341000D03*
X0551000Y0341000D03*
X0551000Y0351000D03*
X0541000Y0351000D03*
X0531000Y0351000D03*
X0531000Y0341000D03*
X0531000Y0331000D03*
X0531000Y0321000D03*
X0531000Y0311000D03*
X0531000Y0301000D03*
X0531000Y0291000D03*
X0531000Y0281000D03*
X0531000Y0271000D03*
X0531000Y0211000D03*
X0531000Y0201000D03*
X0531000Y0191000D03*
X0531000Y0181000D03*
X0541000Y0181000D03*
X0551000Y0181000D03*
X0551000Y0191000D03*
X0541000Y0191000D03*
X0541000Y0201000D03*
X0551000Y0201000D03*
X0551000Y0211000D03*
X0541000Y0211000D03*
X0541000Y0171000D03*
X0551000Y0171000D03*
X0551000Y0161000D03*
X0541000Y0161000D03*
X0541000Y0151000D03*
X0551000Y0151000D03*
X0551000Y0141000D03*
X0541000Y0141000D03*
X0541000Y0131000D03*
X0551000Y0131000D03*
X0551000Y0121000D03*
X0541000Y0121000D03*
X0541000Y0111000D03*
X0551000Y0111000D03*
X0551000Y0101000D03*
X0541000Y0101000D03*
X0541000Y0091000D03*
X0551000Y0091000D03*
X0551000Y0081000D03*
X0541000Y0081000D03*
X0541000Y0071000D03*
X0551000Y0071000D03*
X0531000Y0071000D03*
X0531000Y0081000D03*
X0531000Y0091000D03*
X0531000Y0101000D03*
X0531000Y0111000D03*
X0531000Y0121000D03*
X0531000Y0131000D03*
X0531000Y0141000D03*
X0531000Y0151000D03*
X0531000Y0161000D03*
X0531000Y0171000D03*
X0451000Y0121000D03*
X0451000Y0111000D03*
X0451000Y0101000D03*
X0451000Y0091000D03*
X0441000Y0091000D03*
X0431000Y0091000D03*
X0431000Y0101000D03*
X0441000Y0101000D03*
X0441000Y0111000D03*
X0431000Y0111000D03*
X0431000Y0121000D03*
X0441000Y0121000D03*
X0441000Y0081000D03*
X0431000Y0081000D03*
X0431000Y0071000D03*
X0441000Y0071000D03*
X0451000Y0071000D03*
X0451000Y0081000D03*
X0351000Y0081000D03*
X0351000Y0071000D03*
X0341000Y0071000D03*
X0331000Y0071000D03*
X0331000Y0081000D03*
X0341000Y0081000D03*
X0341000Y0091000D03*
X0331000Y0091000D03*
X0331000Y0101000D03*
X0341000Y0101000D03*
X0341000Y0111000D03*
X0331000Y0111000D03*
X0331000Y0121000D03*
X0341000Y0121000D03*
X0351000Y0121000D03*
X0351000Y0111000D03*
X0351000Y0101000D03*
X0351000Y0091000D03*
X0351000Y0131000D03*
X0351000Y0141000D03*
X0351000Y0151000D03*
X0351000Y0161000D03*
X0351000Y0171000D03*
X0341000Y0171000D03*
X0331000Y0171000D03*
X0331000Y0161000D03*
X0341000Y0161000D03*
X0341000Y0151000D03*
X0331000Y0151000D03*
X0331000Y0141000D03*
X0341000Y0141000D03*
X0341000Y0131000D03*
X0331000Y0131000D03*
X0331000Y0181000D03*
X0341000Y0181000D03*
X0341000Y0191000D03*
X0331000Y0191000D03*
X0331000Y0201000D03*
X0341000Y0201000D03*
X0341000Y0211000D03*
X0331000Y0211000D03*
X0351000Y0211000D03*
X0351000Y0201000D03*
X0351000Y0191000D03*
X0351000Y0181000D03*
X0251000Y0121000D03*
X0241000Y0121000D03*
X0241000Y0111000D03*
X0251000Y0111000D03*
X0251000Y0101000D03*
X0241000Y0101000D03*
X0241000Y0091000D03*
X0251000Y0091000D03*
X0251000Y0081000D03*
X0241000Y0081000D03*
X0241000Y0071000D03*
X0251000Y0071000D03*
X0231000Y0071000D03*
X0231000Y0081000D03*
X0231000Y0091000D03*
X0231000Y0101000D03*
X0231000Y0111000D03*
X0231000Y0121000D03*
X0431000Y0361000D03*
X0441000Y0361000D03*
X0441000Y0371000D03*
X0431000Y0371000D03*
X0431000Y0381000D03*
X0441000Y0381000D03*
X0451000Y0381000D03*
X0451000Y0371000D03*
X0451000Y0361000D03*
X0531000Y0361000D03*
X0531000Y0371000D03*
X0531000Y0381000D03*
X0541000Y0381000D03*
X0551000Y0381000D03*
X0551000Y0371000D03*
X0541000Y0371000D03*
X0541000Y0361000D03*
X0551000Y0361000D03*
X0631000Y0361000D03*
X0631000Y0371000D03*
X0631000Y0381000D03*
X0641000Y0381000D03*
X0651000Y0381000D03*
X0651000Y0371000D03*
X0641000Y0371000D03*
X0641000Y0361000D03*
X0651000Y0361000D03*
X0651000Y0351000D03*
X0641000Y0351000D03*
X0641000Y0341000D03*
X0651000Y0341000D03*
X0651000Y0331000D03*
X0641000Y0331000D03*
X0641000Y0321000D03*
X0651000Y0321000D03*
X0651000Y0311000D03*
X0641000Y0311000D03*
X0631000Y0311000D03*
X0631000Y0321000D03*
X0631000Y0331000D03*
X0631000Y0341000D03*
X0631000Y0351000D03*
X0631000Y0301000D03*
X0631000Y0291000D03*
X0631000Y0281000D03*
X0631000Y0271000D03*
X0641000Y0271000D03*
X0651000Y0271000D03*
X0651000Y0281000D03*
X0641000Y0281000D03*
X0641000Y0291000D03*
X0651000Y0291000D03*
X0651000Y0301000D03*
X0641000Y0301000D03*
X0641000Y0261000D03*
X0651000Y0261000D03*
X0651000Y0251000D03*
X0641000Y0251000D03*
X0641000Y0241000D03*
X0651000Y0241000D03*
X0651000Y0231000D03*
X0641000Y0231000D03*
X0641000Y0221000D03*
X0651000Y0221000D03*
X0651000Y0211000D03*
X0641000Y0211000D03*
X0641000Y0201000D03*
X0651000Y0201000D03*
X0651000Y0191000D03*
X0641000Y0191000D03*
X0641000Y0181000D03*
X0651000Y0181000D03*
X0651000Y0171000D03*
X0641000Y0171000D03*
X0641000Y0161000D03*
X0651000Y0161000D03*
X0651000Y0151000D03*
X0641000Y0151000D03*
X0641000Y0141000D03*
X0651000Y0141000D03*
X0651000Y0131000D03*
X0641000Y0131000D03*
X0631000Y0131000D03*
X0631000Y0141000D03*
X0631000Y0151000D03*
X0631000Y0161000D03*
X0631000Y0171000D03*
X0631000Y0181000D03*
X0631000Y0191000D03*
X0631000Y0201000D03*
X0631000Y0211000D03*
X0631000Y0221000D03*
X0631000Y0231000D03*
X0631000Y0241000D03*
X0631000Y0251000D03*
X0631000Y0261000D03*
X0631000Y0121000D03*
X0631000Y0111000D03*
X0631000Y0101000D03*
X0631000Y0091000D03*
X0641000Y0091000D03*
X0651000Y0091000D03*
X0651000Y0101000D03*
X0641000Y0101000D03*
X0641000Y0111000D03*
X0651000Y0111000D03*
X0651000Y0121000D03*
X0641000Y0121000D03*
X0641000Y0081000D03*
X0651000Y0081000D03*
X0651000Y0071000D03*
X0641000Y0071000D03*
X0631000Y0071000D03*
X0631000Y0081000D03*
D11*
X0691000Y0351000D03*
X0691000Y0381000D03*
D12*
X0681000Y0151000D03*
X0681000Y0111000D03*
X0681000Y0086000D03*
X0681000Y0076000D03*
D13*
X0581000Y0026000D03*
X0481000Y0026000D03*
X0381000Y0026000D03*
X0281000Y0026000D03*
X0176000Y0026000D03*
X0081000Y0026000D03*
D14*
X0101000Y0026000D03*
X0196000Y0026000D03*
X0301000Y0026000D03*
X0401000Y0026000D03*
X0501000Y0026000D03*
X0601000Y0026000D03*
D15*
X0632600Y0087400D02*
X0544600Y0087400D01*
X0541000Y0091000D01*
X0536200Y0091000D01*
X0532600Y0087400D01*
X0444600Y0087400D01*
X0441000Y0091000D01*
X0436200Y0091000D01*
X0432600Y0094600D01*
X0344600Y0094600D01*
X0341000Y0091000D01*
X0336200Y0091000D01*
X0332600Y0094600D01*
X0244600Y0094600D01*
X0241000Y0091000D01*
X0243400Y0095800D02*
X0248600Y0101000D01*
X0251000Y0101000D01*
X0252600Y0104600D02*
X0234600Y0104600D01*
X0231000Y0101000D01*
X0229400Y0097400D02*
X0222200Y0104600D01*
X0149400Y0104600D01*
X0145800Y0101000D01*
X0141000Y0101000D01*
X0137400Y0097400D01*
X0049400Y0097400D01*
X0045800Y0101000D01*
X0041000Y0101000D01*
X0039400Y0104600D02*
X0035800Y0101000D01*
X0031000Y0101000D01*
X0039400Y0104600D02*
X0127400Y0104600D01*
X0131000Y0101000D01*
X0129400Y0107400D02*
X0147400Y0107400D01*
X0151000Y0111000D01*
X0151000Y0110600D01*
X0154200Y0107400D01*
X0242600Y0107400D01*
X0246200Y0111000D01*
X0251000Y0111000D01*
X0252600Y0114600D02*
X0234600Y0114600D01*
X0231000Y0111000D01*
X0156200Y0111000D01*
X0152600Y0114600D01*
X0134200Y0114600D01*
X0131000Y0111400D01*
X0131000Y0111000D01*
X0127400Y0114600D01*
X0039400Y0114600D01*
X0035800Y0111000D01*
X0031000Y0111000D01*
X0031000Y0121000D02*
X0035800Y0121000D01*
X0039400Y0124600D01*
X0127400Y0124600D01*
X0131000Y0121000D01*
X0131000Y0121400D01*
X0134200Y0124600D01*
X0152600Y0124600D01*
X0156200Y0121000D01*
X0231000Y0121000D01*
X0234600Y0124600D01*
X0252600Y0124600D01*
X0256200Y0121000D01*
X0331000Y0121000D01*
X0334600Y0124600D01*
X0424600Y0124600D01*
X0428200Y0121000D01*
X0431000Y0121000D01*
X0435800Y0121000D01*
X0439400Y0124600D01*
X0527400Y0124600D01*
X0531000Y0121000D01*
X0531000Y0121400D01*
X0534200Y0124600D01*
X0552600Y0124600D01*
X0556200Y0121000D01*
X0631000Y0121000D01*
X0637400Y0117400D02*
X0641000Y0121000D01*
X0637400Y0117400D02*
X0549400Y0117400D01*
X0545800Y0121000D01*
X0541000Y0121000D01*
X0534600Y0114600D02*
X0531000Y0111000D01*
X0456200Y0111000D01*
X0452600Y0114600D01*
X0434600Y0114600D01*
X0431000Y0111000D01*
X0356200Y0111000D01*
X0352600Y0114600D01*
X0334600Y0114600D01*
X0331000Y0111000D01*
X0256200Y0111000D01*
X0252600Y0114600D01*
X0244600Y0117400D02*
X0241000Y0121000D01*
X0236200Y0121000D01*
X0232600Y0117400D01*
X0144200Y0117400D01*
X0141000Y0120600D01*
X0141000Y0121000D01*
X0137400Y0117400D01*
X0049400Y0117400D01*
X0045800Y0121000D01*
X0041000Y0121000D01*
X0039400Y0127400D02*
X0127400Y0127400D01*
X0131000Y0131000D01*
X0131000Y0130600D01*
X0134200Y0127400D01*
X0152600Y0127400D01*
X0156200Y0131000D01*
X0231000Y0131000D01*
X0234600Y0127400D01*
X0252600Y0127400D01*
X0256200Y0131000D01*
X0331000Y0131000D01*
X0334600Y0127400D01*
X0352600Y0127400D01*
X0356200Y0131000D01*
X0431000Y0131000D01*
X0432600Y0137400D02*
X0344600Y0137400D01*
X0341000Y0141000D01*
X0336200Y0141000D01*
X0332600Y0137400D01*
X0244600Y0137400D01*
X0241000Y0141000D01*
X0242600Y0144600D02*
X0154200Y0144600D01*
X0151000Y0141400D01*
X0151000Y0141000D01*
X0147400Y0144600D01*
X0129400Y0144600D01*
X0125800Y0141000D01*
X0051000Y0141000D01*
X0051000Y0131000D02*
X0125800Y0131000D01*
X0129400Y0134600D01*
X0147400Y0134600D01*
X0151000Y0131000D01*
X0151000Y0131400D01*
X0154200Y0134600D01*
X0242600Y0134600D01*
X0246200Y0131000D01*
X0251000Y0131000D01*
X0254600Y0134600D01*
X0342600Y0134600D01*
X0346200Y0131000D01*
X0351000Y0131000D01*
X0354600Y0134600D01*
X0442600Y0134600D01*
X0446200Y0131000D01*
X0451000Y0131000D01*
X0525800Y0131000D01*
X0529400Y0134600D01*
X0547400Y0134600D01*
X0551000Y0131000D01*
X0551000Y0131400D01*
X0554200Y0134600D01*
X0642600Y0134600D01*
X0646200Y0131000D01*
X0651000Y0131000D01*
X0651000Y0141000D02*
X0646200Y0141000D01*
X0642600Y0144600D01*
X0554600Y0144600D01*
X0551000Y0141000D01*
X0546200Y0141000D01*
X0542600Y0144600D01*
X0454200Y0144600D01*
X0451000Y0141400D01*
X0451000Y0141000D01*
X0447400Y0144600D01*
X0429400Y0144600D01*
X0425800Y0141000D01*
X0351000Y0141000D01*
X0347400Y0144600D01*
X0329400Y0144600D01*
X0325800Y0141000D01*
X0251000Y0141000D01*
X0246200Y0141000D01*
X0242600Y0144600D01*
X0246200Y0151000D02*
X0242600Y0154600D01*
X0154200Y0154600D01*
X0151000Y0151400D01*
X0151000Y0151000D01*
X0147400Y0154600D01*
X0129400Y0154600D01*
X0125800Y0151000D01*
X0051000Y0151000D01*
X0051000Y0161000D02*
X0125800Y0161000D01*
X0129400Y0164600D01*
X0147400Y0164600D01*
X0151000Y0161000D01*
X0151000Y0161400D01*
X0154200Y0164600D01*
X0242600Y0164600D01*
X0246200Y0161000D01*
X0251000Y0161000D01*
X0253800Y0161000D01*
X0257400Y0164600D01*
X0347400Y0164600D01*
X0351000Y0161000D01*
X0425800Y0161000D01*
X0429400Y0164600D01*
X0447400Y0164600D01*
X0451000Y0161000D01*
X0451000Y0161400D01*
X0454200Y0164600D01*
X0542600Y0164600D01*
X0546200Y0161000D01*
X0551000Y0161000D01*
X0554600Y0164600D01*
X0642600Y0164600D01*
X0646200Y0161000D01*
X0651000Y0161000D01*
X0641000Y0161000D02*
X0636200Y0161000D01*
X0632600Y0157400D01*
X0544600Y0157400D01*
X0541000Y0161000D01*
X0542600Y0154600D02*
X0454200Y0154600D01*
X0451000Y0151400D01*
X0451000Y0151000D01*
X0447400Y0154600D01*
X0429400Y0154600D01*
X0425800Y0151000D01*
X0351000Y0151000D01*
X0334600Y0147400D02*
X0331000Y0151000D01*
X0256200Y0151000D01*
X0252600Y0147400D01*
X0234600Y0147400D01*
X0231000Y0151000D01*
X0156200Y0151000D01*
X0152600Y0147400D01*
X0134200Y0147400D01*
X0131000Y0150600D01*
X0131000Y0151000D01*
X0127400Y0147400D01*
X0039400Y0147400D01*
X0035800Y0151000D01*
X0031000Y0151000D01*
X0039400Y0157400D02*
X0127400Y0157400D01*
X0131000Y0161000D01*
X0131000Y0160600D01*
X0134200Y0157400D01*
X0152600Y0157400D01*
X0156200Y0161000D01*
X0231000Y0161000D01*
X0234600Y0157400D01*
X0252600Y0157400D01*
X0256200Y0161000D01*
X0331000Y0161000D01*
X0334600Y0167400D02*
X0331000Y0171000D01*
X0256200Y0171000D01*
X0252600Y0167400D01*
X0234600Y0167400D01*
X0231000Y0171000D01*
X0156200Y0171000D01*
X0152600Y0167400D01*
X0134200Y0167400D01*
X0131000Y0170600D01*
X0131000Y0171000D01*
X0127400Y0167400D01*
X0039400Y0167400D01*
X0035800Y0171000D01*
X0031000Y0171000D01*
X0031000Y0161000D02*
X0035800Y0161000D01*
X0039400Y0157400D01*
X0035800Y0141000D02*
X0031000Y0141000D01*
X0035800Y0141000D02*
X0039400Y0137400D01*
X0127400Y0137400D01*
X0131000Y0141000D01*
X0131000Y0140600D01*
X0134200Y0137400D01*
X0152600Y0137400D01*
X0156200Y0141000D01*
X0231000Y0141000D01*
X0246200Y0151000D02*
X0251000Y0151000D01*
X0251000Y0171000D02*
X0246200Y0171000D01*
X0242600Y0174600D01*
X0154200Y0174600D01*
X0151000Y0171400D01*
X0151000Y0171000D01*
X0147400Y0174600D01*
X0129400Y0174600D01*
X0125800Y0171000D01*
X0051000Y0171000D01*
X0039400Y0177400D02*
X0127400Y0177400D01*
X0131000Y0181000D01*
X0131000Y0180600D01*
X0134200Y0177400D01*
X0152600Y0177400D01*
X0156200Y0181000D01*
X0231000Y0181000D01*
X0234600Y0187400D02*
X0231000Y0191000D01*
X0156200Y0191000D01*
X0152600Y0187400D01*
X0134200Y0187400D01*
X0131000Y0190600D01*
X0131000Y0191000D01*
X0127400Y0187400D01*
X0039400Y0187400D01*
X0035800Y0191000D01*
X0031000Y0191000D01*
X0039400Y0197400D02*
X0127400Y0197400D01*
X0131000Y0201000D01*
X0131000Y0200600D01*
X0134200Y0197400D01*
X0152600Y0197400D01*
X0156200Y0201000D01*
X0231000Y0201000D01*
X0234600Y0197400D01*
X0252600Y0197400D01*
X0256200Y0201000D01*
X0331000Y0201000D01*
X0334600Y0197400D01*
X0424600Y0197400D01*
X0428200Y0201000D01*
X0431000Y0201000D01*
X0435800Y0201000D01*
X0439400Y0197400D01*
X0527400Y0197400D01*
X0531000Y0201000D01*
X0531000Y0200600D01*
X0534200Y0197400D01*
X0552600Y0197400D01*
X0556200Y0201000D01*
X0631000Y0201000D01*
X0631000Y0191000D02*
X0556200Y0191000D01*
X0552600Y0187400D01*
X0534600Y0187400D01*
X0531000Y0191000D01*
X0456200Y0191000D01*
X0452600Y0187400D01*
X0434600Y0187400D01*
X0431000Y0191000D01*
X0429400Y0194600D02*
X0447400Y0194600D01*
X0451000Y0191000D01*
X0451000Y0191400D01*
X0454200Y0194600D01*
X0542600Y0194600D01*
X0546200Y0191000D01*
X0551000Y0191000D01*
X0554600Y0194600D01*
X0642600Y0194600D01*
X0646200Y0191000D01*
X0651000Y0191000D01*
X0651000Y0181000D02*
X0646200Y0181000D01*
X0642600Y0184600D01*
X0554600Y0184600D01*
X0551000Y0181000D01*
X0546200Y0181000D01*
X0542600Y0184600D01*
X0454200Y0184600D01*
X0451000Y0181400D01*
X0451000Y0181000D01*
X0447400Y0184600D01*
X0429400Y0184600D01*
X0425800Y0181000D01*
X0351000Y0181000D01*
X0347400Y0184600D01*
X0329400Y0184600D01*
X0325800Y0181000D01*
X0251000Y0181000D01*
X0246200Y0181000D01*
X0242600Y0184600D01*
X0154200Y0184600D01*
X0151000Y0181400D01*
X0151000Y0181000D01*
X0147400Y0184600D01*
X0129400Y0184600D01*
X0125800Y0181000D01*
X0051000Y0181000D01*
X0051000Y0191000D02*
X0125800Y0191000D01*
X0129400Y0194600D01*
X0147400Y0194600D01*
X0151000Y0191000D01*
X0151000Y0191400D01*
X0154200Y0194600D01*
X0242600Y0194600D01*
X0246200Y0191000D01*
X0251000Y0191000D01*
X0253800Y0191000D01*
X0257400Y0194600D01*
X0347400Y0194600D01*
X0351000Y0191000D01*
X0425800Y0191000D01*
X0429400Y0194600D01*
X0425800Y0201000D02*
X0429400Y0204600D01*
X0447400Y0204600D01*
X0451000Y0201000D01*
X0451000Y0201400D01*
X0454200Y0204600D01*
X0542600Y0204600D01*
X0546200Y0201000D01*
X0551000Y0201000D01*
X0554600Y0204600D01*
X0642600Y0204600D01*
X0646200Y0201000D01*
X0651000Y0201000D01*
X0651000Y0211000D02*
X0646200Y0211000D01*
X0642600Y0214600D01*
X0554600Y0214600D01*
X0551000Y0211000D01*
X0546200Y0211000D01*
X0542600Y0214600D01*
X0454200Y0214600D01*
X0451000Y0211400D01*
X0451000Y0211000D01*
X0447400Y0214600D01*
X0429400Y0214600D01*
X0425800Y0211000D01*
X0351000Y0211000D01*
X0351000Y0201000D02*
X0425800Y0201000D01*
X0424600Y0207400D02*
X0334600Y0207400D01*
X0331000Y0211000D01*
X0256200Y0211000D01*
X0252600Y0207400D01*
X0234600Y0207400D01*
X0231000Y0211000D01*
X0156200Y0211000D01*
X0152600Y0207400D01*
X0134200Y0207400D01*
X0131000Y0210600D01*
X0131000Y0211000D01*
X0127400Y0207400D01*
X0039400Y0207400D01*
X0035800Y0211000D01*
X0031000Y0211000D01*
X0031000Y0201000D02*
X0035800Y0201000D01*
X0039400Y0197400D01*
X0051000Y0201000D02*
X0125800Y0201000D01*
X0129400Y0204600D01*
X0147400Y0204600D01*
X0151000Y0201000D01*
X0151000Y0201400D01*
X0154200Y0204600D01*
X0242600Y0204600D01*
X0246200Y0201000D01*
X0251000Y0201000D01*
X0251000Y0211000D02*
X0246200Y0211000D01*
X0242600Y0214600D01*
X0154200Y0214600D01*
X0151000Y0211400D01*
X0151000Y0211000D01*
X0147400Y0214600D01*
X0129400Y0214600D01*
X0125800Y0211000D01*
X0051000Y0211000D01*
X0039400Y0217400D02*
X0127400Y0217400D01*
X0131000Y0221000D01*
X0131000Y0220600D01*
X0134200Y0217400D01*
X0152600Y0217400D01*
X0156200Y0221000D01*
X0231000Y0221000D01*
X0234600Y0217400D01*
X0252600Y0217400D01*
X0256200Y0221000D01*
X0331000Y0221000D01*
X0334600Y0227400D02*
X0331000Y0231000D01*
X0256200Y0231000D01*
X0252600Y0227400D01*
X0234600Y0227400D01*
X0231000Y0231000D01*
X0156200Y0231000D01*
X0152600Y0227400D01*
X0134200Y0227400D01*
X0131000Y0230600D01*
X0131000Y0231000D01*
X0127400Y0227400D01*
X0039400Y0227400D01*
X0035800Y0231000D01*
X0031000Y0231000D01*
X0039400Y0237400D02*
X0127400Y0237400D01*
X0131000Y0241000D01*
X0131000Y0240600D01*
X0134200Y0237400D01*
X0152600Y0237400D01*
X0156200Y0241000D01*
X0231000Y0241000D01*
X0234600Y0247400D02*
X0231000Y0251000D01*
X0156200Y0251000D01*
X0152600Y0247400D01*
X0134200Y0247400D01*
X0131000Y0250600D01*
X0131000Y0251000D01*
X0127400Y0247400D01*
X0039400Y0247400D01*
X0035800Y0251000D01*
X0031000Y0251000D01*
X0031000Y0241000D02*
X0035800Y0241000D01*
X0039400Y0237400D01*
X0051000Y0241000D02*
X0125800Y0241000D01*
X0129400Y0244600D01*
X0147400Y0244600D01*
X0151000Y0241000D01*
X0151000Y0241400D01*
X0154200Y0244600D01*
X0242600Y0244600D01*
X0246200Y0241000D01*
X0251000Y0241000D01*
X0325800Y0241000D01*
X0329400Y0244600D01*
X0347400Y0244600D01*
X0351000Y0241000D01*
X0425800Y0241000D01*
X0429400Y0244600D01*
X0447400Y0244600D01*
X0451000Y0241000D01*
X0451000Y0241400D01*
X0454200Y0244600D01*
X0542600Y0244600D01*
X0546200Y0241000D01*
X0551000Y0241000D01*
X0554600Y0244600D01*
X0642600Y0244600D01*
X0646200Y0241000D01*
X0651000Y0241000D01*
X0642600Y0234600D02*
X0554600Y0234600D01*
X0551000Y0231000D01*
X0546200Y0231000D01*
X0542600Y0234600D01*
X0454200Y0234600D01*
X0451000Y0231400D01*
X0451000Y0231000D01*
X0447400Y0234600D01*
X0429400Y0234600D01*
X0425800Y0231000D01*
X0351000Y0231000D01*
X0347400Y0224600D02*
X0351000Y0221000D01*
X0425800Y0221000D01*
X0429400Y0224600D01*
X0447400Y0224600D01*
X0451000Y0221000D01*
X0451000Y0221400D01*
X0454200Y0224600D01*
X0542600Y0224600D01*
X0546200Y0221000D01*
X0551000Y0221000D01*
X0554600Y0224600D01*
X0642600Y0224600D01*
X0646200Y0221000D01*
X0651000Y0221000D01*
X0641000Y0221000D02*
X0636200Y0221000D01*
X0632600Y0217400D01*
X0544600Y0217400D01*
X0541000Y0221000D01*
X0534200Y0227400D02*
X0531000Y0230600D01*
X0531000Y0231000D01*
X0527400Y0227400D01*
X0439400Y0227400D01*
X0435800Y0231000D01*
X0431000Y0231000D01*
X0428200Y0231000D01*
X0424600Y0227400D01*
X0334600Y0227400D01*
X0334600Y0237400D02*
X0331000Y0241000D01*
X0334600Y0237400D02*
X0424600Y0237400D01*
X0428200Y0241000D01*
X0431000Y0241000D01*
X0435800Y0241000D01*
X0439400Y0237400D01*
X0527400Y0237400D01*
X0531000Y0241000D01*
X0531000Y0240600D01*
X0534200Y0237400D01*
X0552600Y0237400D01*
X0556200Y0241000D01*
X0631000Y0241000D01*
X0631000Y0231000D02*
X0556200Y0231000D01*
X0552600Y0227400D01*
X0534200Y0227400D01*
X0531000Y0221000D02*
X0456200Y0221000D01*
X0452600Y0217400D01*
X0434600Y0217400D01*
X0431000Y0221000D01*
X0431000Y0211000D02*
X0428200Y0211000D01*
X0424600Y0207400D01*
X0431000Y0211000D02*
X0435800Y0211000D01*
X0439400Y0207400D01*
X0527400Y0207400D01*
X0531000Y0211000D01*
X0531000Y0210600D01*
X0534200Y0207400D01*
X0552600Y0207400D01*
X0556200Y0211000D01*
X0631000Y0211000D01*
X0646200Y0231000D02*
X0642600Y0234600D01*
X0646200Y0231000D02*
X0651000Y0231000D01*
X0651000Y0251000D02*
X0646200Y0251000D01*
X0642600Y0254600D01*
X0554600Y0254600D01*
X0551000Y0251000D01*
X0546200Y0251000D01*
X0542600Y0254600D01*
X0454200Y0254600D01*
X0451000Y0251400D01*
X0451000Y0251000D01*
X0447400Y0254600D01*
X0429400Y0254600D01*
X0425800Y0251000D01*
X0351000Y0251000D01*
X0347400Y0254600D01*
X0257400Y0254600D01*
X0253800Y0251000D01*
X0251000Y0251000D01*
X0246200Y0251000D01*
X0242600Y0254600D01*
X0154200Y0254600D01*
X0151000Y0251400D01*
X0151000Y0251000D01*
X0147400Y0254600D01*
X0129400Y0254600D01*
X0125800Y0251000D01*
X0051000Y0251000D01*
X0051000Y0261000D02*
X0125800Y0261000D01*
X0129400Y0264600D01*
X0147400Y0264600D01*
X0151000Y0261000D01*
X0151000Y0261400D01*
X0154200Y0264600D01*
X0242600Y0264600D01*
X0246200Y0261000D01*
X0251000Y0261000D01*
X0252600Y0257400D02*
X0234600Y0257400D01*
X0231000Y0261000D01*
X0156200Y0261000D01*
X0152600Y0257400D01*
X0134200Y0257400D01*
X0131000Y0260600D01*
X0131000Y0261000D01*
X0127400Y0257400D01*
X0039400Y0257400D01*
X0035800Y0261000D01*
X0031000Y0261000D01*
X0039400Y0267400D02*
X0127400Y0267400D01*
X0131000Y0271000D01*
X0131000Y0270600D01*
X0134200Y0267400D01*
X0152600Y0267400D01*
X0156200Y0271000D01*
X0231000Y0271000D01*
X0231000Y0281000D02*
X0156200Y0281000D01*
X0152600Y0277400D01*
X0134200Y0277400D01*
X0131000Y0280600D01*
X0131000Y0281000D01*
X0127400Y0277400D01*
X0039400Y0277400D01*
X0035800Y0281000D01*
X0031000Y0281000D01*
X0039400Y0287400D02*
X0127400Y0287400D01*
X0131000Y0291000D01*
X0131000Y0290600D01*
X0134200Y0287400D01*
X0152600Y0287400D01*
X0156200Y0291000D01*
X0231000Y0291000D01*
X0234600Y0297400D02*
X0231000Y0301000D01*
X0156200Y0301000D01*
X0152600Y0304600D01*
X0134200Y0304600D01*
X0131000Y0301400D01*
X0131000Y0301000D01*
X0127400Y0304600D01*
X0039400Y0304600D01*
X0035800Y0301000D01*
X0031000Y0301000D01*
X0031000Y0291000D02*
X0035800Y0291000D01*
X0039400Y0287400D01*
X0051000Y0291000D02*
X0125800Y0291000D01*
X0129400Y0294600D01*
X0147400Y0294600D01*
X0151000Y0291000D01*
X0151000Y0291400D01*
X0154200Y0294600D01*
X0242600Y0294600D01*
X0246200Y0291000D01*
X0251000Y0291000D01*
X0325800Y0291000D01*
X0329400Y0294600D01*
X0347400Y0294600D01*
X0351000Y0291000D01*
X0425800Y0291000D01*
X0429400Y0294600D01*
X0447400Y0294600D01*
X0451000Y0291000D01*
X0451000Y0291400D01*
X0454200Y0294600D01*
X0542600Y0294600D01*
X0546200Y0291000D01*
X0551000Y0291000D01*
X0554600Y0294600D01*
X0642600Y0294600D01*
X0646200Y0291000D01*
X0651000Y0291000D01*
X0642600Y0284600D02*
X0554600Y0284600D01*
X0551000Y0281000D01*
X0546200Y0281000D01*
X0542600Y0284600D01*
X0454200Y0284600D01*
X0451000Y0281400D01*
X0451000Y0281000D01*
X0447400Y0284600D01*
X0429400Y0284600D01*
X0425800Y0281000D01*
X0351000Y0281000D01*
X0347400Y0284600D01*
X0329400Y0284600D01*
X0325800Y0281000D01*
X0251000Y0281000D01*
X0246200Y0281000D01*
X0242600Y0284600D01*
X0154200Y0284600D01*
X0151000Y0281400D01*
X0151000Y0281000D01*
X0147400Y0284600D01*
X0129400Y0284600D01*
X0125800Y0281000D01*
X0051000Y0281000D01*
X0051000Y0271000D02*
X0125800Y0271000D01*
X0129400Y0274600D01*
X0147400Y0274600D01*
X0151000Y0271000D01*
X0151000Y0271400D01*
X0154200Y0274600D01*
X0242600Y0274600D01*
X0246200Y0271000D01*
X0251000Y0271000D01*
X0325800Y0271000D01*
X0329400Y0274600D01*
X0347400Y0274600D01*
X0351000Y0271000D01*
X0425800Y0271000D01*
X0429400Y0274600D01*
X0447400Y0274600D01*
X0451000Y0271000D01*
X0451000Y0271400D01*
X0454200Y0274600D01*
X0542600Y0274600D01*
X0546200Y0271000D01*
X0551000Y0271000D01*
X0554600Y0274600D01*
X0642600Y0274600D01*
X0646200Y0271000D01*
X0651000Y0271000D01*
X0651000Y0281000D02*
X0646200Y0281000D01*
X0642600Y0284600D01*
X0631000Y0281000D02*
X0556200Y0281000D01*
X0552600Y0277400D01*
X0534600Y0277400D01*
X0531000Y0281000D01*
X0456200Y0281000D01*
X0452600Y0277400D01*
X0434600Y0277400D01*
X0431000Y0281000D01*
X0434600Y0287400D02*
X0431000Y0291000D01*
X0434600Y0287400D02*
X0452600Y0287400D01*
X0456200Y0291000D01*
X0531000Y0291000D01*
X0534600Y0287400D01*
X0552600Y0287400D01*
X0556200Y0291000D01*
X0631000Y0291000D01*
X0631000Y0301000D02*
X0556200Y0301000D01*
X0552600Y0297400D01*
X0534600Y0297400D01*
X0531000Y0301000D01*
X0456200Y0301000D01*
X0452600Y0297400D01*
X0434600Y0297400D01*
X0431000Y0301000D01*
X0356200Y0301000D01*
X0352600Y0297400D01*
X0334600Y0297400D01*
X0331000Y0301000D01*
X0260200Y0301000D01*
X0256600Y0297400D01*
X0234600Y0297400D01*
X0241000Y0291000D02*
X0244600Y0287400D01*
X0332600Y0287400D01*
X0336200Y0291000D01*
X0341000Y0291000D01*
X0341000Y0281000D02*
X0336200Y0281000D01*
X0332600Y0277400D01*
X0244600Y0277400D01*
X0241000Y0281000D01*
X0241000Y0271000D02*
X0244600Y0267400D01*
X0332600Y0267400D01*
X0336200Y0271000D01*
X0341000Y0271000D01*
X0331000Y0261000D02*
X0334600Y0257400D01*
X0424600Y0257400D01*
X0428200Y0261000D01*
X0431000Y0261000D01*
X0435800Y0261000D01*
X0439400Y0257400D01*
X0527400Y0257400D01*
X0531000Y0261000D01*
X0531000Y0260600D01*
X0534200Y0257400D01*
X0552600Y0257400D01*
X0556200Y0261000D01*
X0631000Y0261000D01*
X0631000Y0251000D02*
X0556200Y0251000D01*
X0552600Y0247400D01*
X0534600Y0247400D01*
X0531000Y0251000D01*
X0456200Y0251000D01*
X0452600Y0247400D01*
X0434600Y0247400D01*
X0431000Y0251000D01*
X0425800Y0261000D02*
X0429400Y0264600D01*
X0447400Y0264600D01*
X0451000Y0261000D01*
X0451000Y0261400D01*
X0454200Y0264600D01*
X0542600Y0264600D01*
X0546200Y0261000D01*
X0551000Y0261000D01*
X0554600Y0264600D01*
X0642600Y0264600D01*
X0646200Y0261000D01*
X0651000Y0261000D01*
X0631000Y0271000D02*
X0556200Y0271000D01*
X0552600Y0267400D01*
X0534600Y0267400D01*
X0531000Y0271000D01*
X0456200Y0271000D01*
X0452600Y0267400D01*
X0434600Y0267400D01*
X0431000Y0271000D01*
X0425800Y0261000D02*
X0351000Y0261000D01*
X0331000Y0261000D02*
X0256200Y0261000D01*
X0252600Y0257400D01*
X0256200Y0251000D02*
X0252600Y0247400D01*
X0234600Y0247400D01*
X0242600Y0234600D02*
X0154200Y0234600D01*
X0151000Y0231400D01*
X0151000Y0231000D01*
X0147400Y0234600D01*
X0129400Y0234600D01*
X0125800Y0231000D01*
X0051000Y0231000D01*
X0051000Y0221000D02*
X0125800Y0221000D01*
X0129400Y0224600D01*
X0147400Y0224600D01*
X0151000Y0221000D01*
X0151000Y0221400D01*
X0154200Y0224600D01*
X0242600Y0224600D01*
X0246200Y0221000D01*
X0251000Y0221000D01*
X0253800Y0221000D01*
X0257400Y0224600D01*
X0347400Y0224600D01*
X0331000Y0251000D02*
X0256200Y0251000D01*
X0242600Y0234600D02*
X0246200Y0231000D01*
X0251000Y0231000D01*
X0256200Y0191000D02*
X0252600Y0187400D01*
X0234600Y0187400D01*
X0241000Y0181000D02*
X0244600Y0177400D01*
X0332600Y0177400D01*
X0336200Y0181000D01*
X0341000Y0181000D01*
X0331000Y0191000D02*
X0256200Y0191000D01*
X0334600Y0167400D02*
X0424600Y0167400D01*
X0428200Y0171000D01*
X0431000Y0171000D01*
X0435800Y0171000D01*
X0439400Y0167400D01*
X0527400Y0167400D01*
X0531000Y0171000D01*
X0531000Y0170600D01*
X0534200Y0167400D01*
X0552600Y0167400D01*
X0556200Y0171000D01*
X0631000Y0171000D01*
X0642600Y0174600D02*
X0554600Y0174600D01*
X0551000Y0171000D01*
X0546200Y0171000D01*
X0542600Y0174600D01*
X0454200Y0174600D01*
X0451000Y0171400D01*
X0451000Y0171000D01*
X0447400Y0174600D01*
X0429400Y0174600D01*
X0425800Y0171000D01*
X0351000Y0171000D01*
X0334600Y0147400D02*
X0424600Y0147400D01*
X0428200Y0151000D01*
X0431000Y0151000D01*
X0435800Y0151000D01*
X0439400Y0147400D01*
X0527400Y0147400D01*
X0531000Y0151000D01*
X0531000Y0150600D01*
X0534200Y0147400D01*
X0552600Y0147400D01*
X0556200Y0151000D01*
X0631000Y0151000D01*
X0631000Y0141000D02*
X0556200Y0141000D01*
X0552600Y0137400D01*
X0534600Y0137400D01*
X0531000Y0141000D01*
X0531000Y0131000D02*
X0534600Y0127400D01*
X0552600Y0127400D01*
X0556200Y0131000D01*
X0631000Y0131000D01*
X0646200Y0151000D02*
X0642600Y0154600D01*
X0554600Y0154600D01*
X0551000Y0151000D01*
X0546200Y0151000D01*
X0542600Y0154600D01*
X0531000Y0161000D02*
X0456200Y0161000D01*
X0452600Y0157400D01*
X0434600Y0157400D01*
X0431000Y0161000D01*
X0434600Y0177400D02*
X0431000Y0181000D01*
X0434600Y0177400D02*
X0452600Y0177400D01*
X0456200Y0181000D01*
X0531000Y0181000D01*
X0534600Y0177400D01*
X0552600Y0177400D01*
X0556200Y0181000D01*
X0631000Y0181000D01*
X0642600Y0174600D02*
X0646200Y0171000D01*
X0651000Y0171000D01*
X0651000Y0151000D02*
X0646200Y0151000D01*
X0641000Y0111000D02*
X0636200Y0111000D01*
X0632600Y0107400D01*
X0544600Y0107400D01*
X0541000Y0111000D01*
X0536200Y0111000D01*
X0532600Y0107400D01*
X0444200Y0107400D01*
X0441000Y0110600D01*
X0441000Y0111000D01*
X0437400Y0107400D01*
X0349400Y0107400D01*
X0345800Y0111000D01*
X0341000Y0111000D01*
X0334600Y0104600D02*
X0331000Y0101000D01*
X0256200Y0101000D01*
X0252600Y0104600D01*
X0241000Y0101000D02*
X0237400Y0097400D01*
X0229400Y0097400D01*
X0228600Y0095800D02*
X0243400Y0095800D01*
X0251000Y0091000D02*
X0247400Y0087400D01*
X0229400Y0087400D01*
X0225800Y0091000D01*
X0151000Y0091000D01*
X0147400Y0094600D01*
X0129400Y0094600D01*
X0125800Y0091000D01*
X0051000Y0091000D01*
X0039400Y0087400D02*
X0127400Y0087400D01*
X0131000Y0091000D01*
X0129400Y0107400D02*
X0125800Y0111000D01*
X0051000Y0111000D01*
X0039400Y0127400D02*
X0035800Y0131000D01*
X0031000Y0131000D01*
X0031000Y0091000D02*
X0035800Y0091000D01*
X0039400Y0087400D01*
X0151000Y0101000D02*
X0223400Y0101000D01*
X0228600Y0095800D01*
X0251000Y0091000D02*
X0325800Y0091000D01*
X0329400Y0087400D01*
X0347400Y0087400D01*
X0351000Y0091000D01*
X0356200Y0101000D02*
X0352600Y0104600D01*
X0334600Y0104600D01*
X0332600Y0117400D02*
X0244600Y0117400D01*
X0332600Y0117400D02*
X0336200Y0121000D01*
X0341000Y0121000D01*
X0351000Y0121000D02*
X0425800Y0121000D01*
X0429400Y0117400D01*
X0447400Y0117400D01*
X0451000Y0121000D01*
X0452600Y0104600D02*
X0434600Y0104600D01*
X0431000Y0101000D01*
X0356200Y0101000D01*
X0432600Y0137400D02*
X0436200Y0141000D01*
X0441000Y0141000D01*
X0452600Y0104600D02*
X0456200Y0101000D01*
X0531000Y0101000D01*
X0534600Y0094600D02*
X0531000Y0091000D01*
X0534600Y0094600D02*
X0552600Y0094600D01*
X0556200Y0091000D01*
X0631000Y0091000D01*
X0632600Y0087400D02*
X0636200Y0091000D01*
X0641000Y0091000D01*
X0647400Y0097400D02*
X0651000Y0101000D01*
X0647400Y0097400D02*
X0629400Y0097400D01*
X0625800Y0101000D01*
X0551000Y0101000D01*
X0546200Y0101000D01*
X0542600Y0097400D01*
X0454600Y0097400D01*
X0451000Y0101000D01*
X0534600Y0114600D02*
X0552600Y0114600D01*
X0556200Y0111000D01*
X0631000Y0111000D01*
X0632600Y0104600D02*
X0544600Y0104600D01*
X0541000Y0101000D01*
X0632600Y0104600D02*
X0636200Y0101000D01*
X0641000Y0101000D01*
X0681000Y0111000D02*
X0681000Y0086000D01*
X0551000Y0301000D02*
X0546200Y0301000D01*
X0542600Y0304600D01*
X0454600Y0304600D01*
X0451000Y0301000D01*
X0446200Y0301000D01*
X0442600Y0304600D01*
X0354200Y0304600D01*
X0351000Y0301400D01*
X0351000Y0301000D01*
X0347400Y0304600D01*
X0261400Y0304600D01*
X0257800Y0301000D01*
X0251000Y0301000D01*
X0252600Y0307400D02*
X0234600Y0307400D01*
X0231000Y0311000D01*
X0156200Y0311000D01*
X0152600Y0307400D01*
X0134200Y0307400D01*
X0131000Y0310600D01*
X0131000Y0311000D01*
X0127400Y0307400D01*
X0039400Y0307400D01*
X0035800Y0311000D01*
X0031000Y0311000D01*
X0039400Y0317400D02*
X0127400Y0317400D01*
X0131000Y0321000D01*
X0131000Y0320600D01*
X0134200Y0317400D01*
X0152600Y0317400D01*
X0156200Y0321000D01*
X0231000Y0321000D01*
X0234600Y0324600D01*
X0324600Y0324600D01*
X0328200Y0321000D01*
X0331000Y0321000D01*
X0335800Y0321000D01*
X0339400Y0324600D01*
X0427400Y0324600D01*
X0431000Y0321000D01*
X0434600Y0317400D01*
X0442200Y0317400D01*
X0443800Y0315800D01*
X0523000Y0315800D01*
X0528200Y0321000D01*
X0531000Y0321000D01*
X0535800Y0321000D01*
X0539400Y0317400D01*
X0627400Y0317400D01*
X0631000Y0321000D01*
X0629400Y0327400D02*
X0647400Y0327400D01*
X0651000Y0331000D01*
X0641000Y0341000D02*
X0636200Y0341000D01*
X0632600Y0344600D01*
X0544600Y0344600D01*
X0541000Y0341000D01*
X0536200Y0341000D01*
X0532600Y0344600D01*
X0444200Y0344600D01*
X0441000Y0341400D01*
X0441000Y0341000D01*
X0437400Y0344600D01*
X0349400Y0344600D01*
X0345800Y0341000D01*
X0341000Y0341000D01*
X0334600Y0337400D02*
X0331000Y0341000D01*
X0256200Y0341000D01*
X0252600Y0337400D01*
X0234600Y0337400D01*
X0231000Y0341000D01*
X0156200Y0341000D01*
X0152600Y0337400D01*
X0134200Y0337400D01*
X0131000Y0340600D01*
X0131000Y0341000D01*
X0127400Y0337400D01*
X0039400Y0337400D01*
X0035800Y0341000D01*
X0031000Y0341000D01*
X0031000Y0331000D02*
X0035800Y0331000D01*
X0039400Y0327400D01*
X0127400Y0327400D01*
X0131000Y0331000D01*
X0131000Y0330600D01*
X0134200Y0327400D01*
X0152600Y0327400D01*
X0156200Y0331000D01*
X0231000Y0331000D01*
X0234600Y0334600D01*
X0252600Y0334600D01*
X0256200Y0331000D01*
X0331000Y0331000D01*
X0334600Y0334600D01*
X0352600Y0334600D01*
X0356200Y0331000D01*
X0431000Y0331000D01*
X0434600Y0334600D01*
X0452600Y0334600D01*
X0456200Y0331000D01*
X0531000Y0331000D01*
X0534600Y0334600D01*
X0624600Y0334600D01*
X0628200Y0331000D01*
X0631000Y0331000D01*
X0629400Y0327400D02*
X0625800Y0331000D01*
X0551000Y0331000D01*
X0546200Y0331000D01*
X0542600Y0327400D01*
X0454600Y0327400D01*
X0451000Y0331000D01*
X0452600Y0337400D02*
X0434600Y0337400D01*
X0431000Y0341000D01*
X0356200Y0341000D01*
X0352600Y0337400D01*
X0334600Y0337400D01*
X0341000Y0331000D02*
X0341000Y0330600D01*
X0344200Y0327400D01*
X0432600Y0327400D01*
X0436200Y0331000D01*
X0441000Y0331000D01*
X0452600Y0337400D02*
X0456200Y0341000D01*
X0531000Y0341000D01*
X0534600Y0337400D01*
X0552600Y0337400D01*
X0556200Y0341000D01*
X0631000Y0341000D01*
X0632600Y0347400D02*
X0544200Y0347400D01*
X0541000Y0350600D01*
X0541000Y0351000D01*
X0537400Y0347400D01*
X0449400Y0347400D01*
X0445800Y0351000D01*
X0441000Y0351000D01*
X0447400Y0354600D02*
X0429400Y0354600D01*
X0425800Y0351000D01*
X0351000Y0351000D01*
X0347400Y0347400D01*
X0329400Y0347400D01*
X0325800Y0351000D01*
X0251000Y0351000D01*
X0244600Y0354600D02*
X0241000Y0351000D01*
X0236200Y0351000D01*
X0232600Y0354600D01*
X0144200Y0354600D01*
X0141000Y0351400D01*
X0141000Y0351000D01*
X0137400Y0354600D01*
X0049400Y0354600D01*
X0045800Y0351000D01*
X0041000Y0351000D01*
X0039400Y0347400D02*
X0127400Y0347400D01*
X0131000Y0351000D01*
X0131000Y0350600D01*
X0134200Y0347400D01*
X0152600Y0347400D01*
X0156200Y0351000D01*
X0231000Y0351000D01*
X0242600Y0357400D02*
X0154600Y0357400D01*
X0151000Y0361000D01*
X0147400Y0364600D01*
X0129400Y0364600D01*
X0125800Y0361000D01*
X0051000Y0361000D01*
X0049400Y0357400D02*
X0137400Y0357400D01*
X0141000Y0361000D01*
X0147400Y0344600D02*
X0129400Y0344600D01*
X0125800Y0341000D01*
X0051000Y0341000D01*
X0051000Y0331000D02*
X0125800Y0331000D01*
X0129400Y0334600D01*
X0147400Y0334600D01*
X0151000Y0331000D01*
X0147400Y0324600D02*
X0151000Y0321000D01*
X0147400Y0324600D02*
X0129400Y0324600D01*
X0125800Y0321000D01*
X0051000Y0321000D01*
X0051000Y0311000D02*
X0125800Y0311000D01*
X0129400Y0314600D01*
X0147400Y0314600D01*
X0151000Y0311000D01*
X0151000Y0311400D01*
X0154200Y0314600D01*
X0242600Y0314600D01*
X0246200Y0311000D01*
X0251000Y0311000D01*
X0254600Y0314600D01*
X0342600Y0314600D01*
X0346200Y0311000D01*
X0351000Y0311000D01*
X0354600Y0314600D01*
X0442600Y0314600D01*
X0446200Y0311000D01*
X0451000Y0311000D01*
X0452600Y0312600D01*
X0522200Y0312600D01*
X0524200Y0314600D01*
X0542600Y0314600D01*
X0546200Y0311000D01*
X0551000Y0311000D01*
X0552600Y0307400D02*
X0534600Y0307400D01*
X0531000Y0311000D01*
X0456200Y0311000D01*
X0452600Y0307400D01*
X0434600Y0307400D01*
X0431000Y0311000D01*
X0356200Y0311000D01*
X0352600Y0307400D01*
X0334600Y0307400D01*
X0331000Y0311000D01*
X0256200Y0311000D01*
X0252600Y0307400D01*
X0251000Y0321000D02*
X0325800Y0321000D01*
X0329400Y0317400D01*
X0347400Y0317400D01*
X0351000Y0321000D01*
X0351000Y0320600D01*
X0354600Y0317000D01*
X0355400Y0317000D01*
X0341000Y0331000D02*
X0337400Y0327400D01*
X0249400Y0327400D01*
X0245800Y0331000D01*
X0241000Y0331000D01*
X0246200Y0341000D02*
X0242600Y0344600D01*
X0154200Y0344600D01*
X0151000Y0341400D01*
X0151000Y0341000D01*
X0147400Y0344600D01*
X0151000Y0301000D02*
X0147400Y0297400D01*
X0129400Y0297400D01*
X0125800Y0301000D01*
X0051000Y0301000D01*
X0039400Y0317400D02*
X0035800Y0321000D01*
X0031000Y0321000D01*
X0039400Y0347400D02*
X0035800Y0351000D01*
X0031000Y0351000D01*
X0041000Y0361000D02*
X0045800Y0361000D01*
X0049400Y0357400D01*
X0035800Y0271000D02*
X0031000Y0271000D01*
X0035800Y0271000D02*
X0039400Y0267400D01*
X0035800Y0221000D02*
X0031000Y0221000D01*
X0035800Y0221000D02*
X0039400Y0217400D01*
X0035800Y0181000D02*
X0031000Y0181000D01*
X0035800Y0181000D02*
X0039400Y0177400D01*
X0246200Y0341000D02*
X0251000Y0341000D01*
X0244600Y0354600D02*
X0332600Y0354600D01*
X0336200Y0351000D01*
X0341000Y0351000D01*
X0344600Y0357400D02*
X0341000Y0361000D01*
X0336200Y0361000D01*
X0332600Y0364600D01*
X0244600Y0364600D01*
X0241000Y0361000D01*
X0242600Y0357400D02*
X0246200Y0361000D01*
X0251000Y0361000D01*
X0344600Y0357400D02*
X0432600Y0357400D01*
X0436200Y0361000D01*
X0441000Y0361000D01*
X0444600Y0357400D01*
X0532600Y0357400D01*
X0536200Y0361000D01*
X0541000Y0361000D01*
X0544600Y0357400D01*
X0632600Y0357400D01*
X0636200Y0361000D01*
X0641000Y0361000D01*
X0642600Y0364600D02*
X0554600Y0364600D01*
X0551000Y0361000D01*
X0546200Y0361000D01*
X0542600Y0364600D01*
X0454200Y0364600D01*
X0451000Y0361400D01*
X0451000Y0361000D01*
X0447400Y0364600D01*
X0429400Y0364600D01*
X0425800Y0361000D01*
X0351000Y0361000D01*
X0447400Y0354600D02*
X0451000Y0351000D01*
X0451000Y0351400D01*
X0454200Y0354600D01*
X0542600Y0354600D01*
X0546200Y0351000D01*
X0551000Y0351000D01*
X0554600Y0354600D01*
X0642600Y0354600D01*
X0646200Y0351000D01*
X0651000Y0351000D01*
X0641000Y0351000D02*
X0636200Y0351000D01*
X0632600Y0347400D01*
X0646200Y0361000D02*
X0642600Y0364600D01*
X0646200Y0361000D02*
X0651000Y0361000D01*
X0637400Y0324600D02*
X0641000Y0321000D01*
X0637400Y0324600D02*
X0549400Y0324600D01*
X0545800Y0321000D01*
X0541000Y0321000D01*
X0546200Y0324600D02*
X0529400Y0324600D01*
X0525800Y0321000D01*
X0456600Y0321000D01*
X0456600Y0318200D01*
X0456600Y0321000D02*
X0451000Y0321000D01*
X0552600Y0307400D02*
X0556200Y0311000D01*
X0631000Y0311000D01*
D16*
X0546200Y0324600D03*
X0456600Y0318200D03*
X0355400Y0317000D03*
D17*
X0081000Y0051000D02*
X0081000Y0026000D01*
X0081000Y0051000D02*
X0051000Y0081000D01*
X0151000Y0081000D02*
X0175800Y0056200D01*
X0175800Y0026200D01*
X0176000Y0026000D01*
X0251000Y0081000D02*
X0281000Y0051000D01*
X0281000Y0026000D01*
X0351000Y0081000D02*
X0381000Y0051000D01*
X0381000Y0026000D01*
X0451000Y0081000D02*
X0481000Y0051000D01*
X0481000Y0026000D01*
X0551000Y0081000D02*
X0581000Y0051000D01*
X0581000Y0026000D01*
M02*
