G04 EAGLE Gerber RS-274X export*
G75*
%MOMM*%
%FSLAX34Y34*%
%LPD*%
%INBottom Copper*%
%IPPOS*%
%AMOC8*
5,1,8,0,0,1.08239X$1,22.5*%
G01*
%ADD10P,1.484606X8X22.500000*%
%ADD11P,1.319650X8X22.500000*%
%ADD12C,1.371600*%
%ADD13C,0.508000*%
%ADD14C,0.152400*%


D10*
X50800Y965200D03*
X50800Y939800D03*
X50800Y914400D03*
X50800Y889000D03*
X50800Y863600D03*
X50800Y838200D03*
X50800Y812800D03*
X50800Y787400D03*
X50800Y762000D03*
X50800Y736600D03*
X50800Y711200D03*
X50800Y685800D03*
X50800Y660400D03*
X50800Y635000D03*
X50800Y609600D03*
X50800Y584200D03*
X101600Y965200D03*
X101600Y939800D03*
X101600Y914400D03*
X101600Y889000D03*
X101600Y863600D03*
X101600Y838200D03*
X101600Y812800D03*
X101600Y787400D03*
X101600Y762000D03*
X101600Y736600D03*
X101600Y711200D03*
X101600Y685800D03*
X101600Y660400D03*
X101600Y635000D03*
X101600Y609600D03*
X101600Y584200D03*
X76200Y965200D03*
X76200Y939800D03*
X76200Y914400D03*
X76200Y889000D03*
X76200Y863600D03*
X76200Y838200D03*
X76200Y812800D03*
X76200Y787400D03*
X76200Y762000D03*
X76200Y736600D03*
X76200Y711200D03*
X76200Y685800D03*
X76200Y660400D03*
X76200Y635000D03*
X76200Y609600D03*
X76200Y584200D03*
X50800Y558800D03*
X50800Y533400D03*
X50800Y508000D03*
X50800Y482600D03*
X50800Y457200D03*
X50800Y431800D03*
X50800Y406400D03*
X50800Y381000D03*
X50800Y355600D03*
X50800Y330200D03*
X50800Y304800D03*
X50800Y279400D03*
X50800Y254000D03*
X50800Y228600D03*
X50800Y203200D03*
X50800Y177800D03*
X101600Y558800D03*
X101600Y533400D03*
X101600Y508000D03*
X101600Y482600D03*
X101600Y457200D03*
X101600Y431800D03*
X101600Y406400D03*
X101600Y381000D03*
X101600Y355600D03*
X101600Y330200D03*
X101600Y304800D03*
X101600Y279400D03*
X101600Y254000D03*
X101600Y228600D03*
X101600Y203200D03*
X101600Y177800D03*
X76200Y558800D03*
X76200Y533400D03*
X76200Y508000D03*
X76200Y482600D03*
X76200Y457200D03*
X76200Y431800D03*
X76200Y406400D03*
X76200Y381000D03*
X76200Y355600D03*
X76200Y330200D03*
X76200Y304800D03*
X76200Y279400D03*
X76200Y254000D03*
X76200Y228600D03*
X76200Y203200D03*
X76200Y177800D03*
X660400Y965200D03*
X660400Y939800D03*
X660400Y914400D03*
X660400Y889000D03*
X660400Y863600D03*
X660400Y838200D03*
X660400Y812800D03*
X660400Y787400D03*
X660400Y762000D03*
X660400Y736600D03*
X660400Y711200D03*
X660400Y685800D03*
X660400Y660400D03*
X660400Y635000D03*
X660400Y609600D03*
X660400Y584200D03*
X711200Y965200D03*
X711200Y939800D03*
X711200Y914400D03*
X711200Y889000D03*
X711200Y863600D03*
X711200Y838200D03*
X711200Y812800D03*
X711200Y787400D03*
X711200Y762000D03*
X711200Y736600D03*
X711200Y711200D03*
X711200Y685800D03*
X711200Y660400D03*
X711200Y635000D03*
X711200Y609600D03*
X711200Y584200D03*
X685800Y965200D03*
X685800Y939800D03*
X685800Y914400D03*
X685800Y889000D03*
X685800Y863600D03*
X685800Y838200D03*
X685800Y812800D03*
X685800Y787400D03*
X685800Y762000D03*
X685800Y736600D03*
X685800Y711200D03*
X685800Y685800D03*
X685800Y660400D03*
X685800Y635000D03*
X685800Y609600D03*
X685800Y584200D03*
X660400Y558800D03*
X660400Y533400D03*
X660400Y508000D03*
X660400Y482600D03*
X660400Y457200D03*
X660400Y431800D03*
X660400Y406400D03*
X660400Y381000D03*
X660400Y355600D03*
X660400Y330200D03*
X660400Y304800D03*
X660400Y279400D03*
X660400Y254000D03*
X660400Y228600D03*
X660400Y203200D03*
X660400Y177800D03*
X711200Y558800D03*
X711200Y533400D03*
X711200Y508000D03*
X711200Y482600D03*
X711200Y457200D03*
X711200Y431800D03*
X711200Y406400D03*
X711200Y381000D03*
X711200Y355600D03*
X711200Y330200D03*
X711200Y304800D03*
X711200Y279400D03*
X711200Y254000D03*
X711200Y228600D03*
X711200Y203200D03*
X711200Y177800D03*
X685800Y558800D03*
X685800Y533400D03*
X685800Y508000D03*
X685800Y482600D03*
X685800Y457200D03*
X685800Y431800D03*
X685800Y406400D03*
X685800Y381000D03*
X685800Y355600D03*
X685800Y330200D03*
X685800Y304800D03*
X685800Y279400D03*
X685800Y254000D03*
X685800Y228600D03*
X685800Y203200D03*
X685800Y177800D03*
D11*
X177800Y1041400D03*
X203200Y1041400D03*
X254000Y1041400D03*
X355600Y1041400D03*
X546100Y1041400D03*
X571500Y1041400D03*
X406400Y1003300D03*
X508000Y1003300D03*
D12*
X393700Y108458D02*
X393700Y94742D01*
X368300Y94742D02*
X368300Y108458D01*
D13*
X555625Y1025525D02*
X571500Y1041400D01*
X555625Y1025525D02*
X203200Y1025525D01*
X203200Y1041400D01*
X727075Y193675D02*
X711200Y177800D01*
X727075Y193675D02*
X727075Y949325D01*
X711200Y965200D01*
D14*
X650875Y914400D02*
X101600Y914400D01*
X650875Y914400D02*
X650875Y920750D01*
X654050Y923925D01*
X711200Y923925D01*
X711200Y914400D01*
X650875Y889000D02*
X101600Y889000D01*
X650875Y889000D02*
X650875Y895350D01*
X654050Y898525D01*
X711200Y898525D01*
X711200Y889000D01*
X650875Y863600D02*
X101600Y863600D01*
X650875Y863600D02*
X650875Y869950D01*
X654050Y873125D01*
X711200Y873125D01*
X711200Y863600D01*
X650875Y838200D02*
X101600Y838200D01*
X650875Y838200D02*
X650875Y844550D01*
X654050Y847725D01*
X711200Y847725D01*
X711200Y838200D01*
X650875Y812800D02*
X101600Y812800D01*
X650875Y812800D02*
X650875Y819150D01*
X654050Y822325D01*
X711200Y822325D01*
X711200Y812800D01*
X650875Y787400D02*
X101600Y787400D01*
X650875Y787400D02*
X650875Y793750D01*
X654050Y796925D01*
X711200Y796925D01*
X711200Y787400D01*
X650875Y762000D02*
X101600Y762000D01*
X650875Y762000D02*
X650875Y768350D01*
X654050Y771525D01*
X711200Y771525D01*
X711200Y762000D01*
X650875Y736600D02*
X101600Y736600D01*
X650875Y736600D02*
X650875Y742950D01*
X654050Y746125D01*
X711200Y746125D01*
X711200Y736600D01*
X650875Y711200D02*
X101600Y711200D01*
X650875Y711200D02*
X650875Y717550D01*
X654050Y720725D01*
X711200Y720725D01*
X711200Y711200D01*
X650875Y685800D02*
X101600Y685800D01*
X650875Y685800D02*
X650875Y679450D01*
X654050Y676275D01*
X711200Y676275D01*
X711200Y685800D01*
X650875Y660400D02*
X101600Y660400D01*
X650875Y660400D02*
X650875Y666750D01*
X654050Y669925D01*
X711200Y669925D01*
X711200Y660400D01*
X650875Y635000D02*
X101600Y635000D01*
X650875Y635000D02*
X650875Y628650D01*
X654050Y625475D01*
X711200Y625475D01*
X711200Y635000D01*
X650875Y609600D02*
X101600Y609600D01*
X650875Y609600D02*
X650875Y603250D01*
X654050Y600075D01*
X711200Y600075D01*
X711200Y609600D01*
X650875Y584200D02*
X101600Y584200D01*
X650875Y584200D02*
X650875Y590550D01*
X654050Y593725D01*
X711200Y593725D01*
X711200Y584200D01*
X650875Y558800D02*
X101600Y558800D01*
X650875Y558800D02*
X650875Y565150D01*
X654050Y568325D01*
X711200Y568325D01*
X711200Y558800D01*
X650875Y533400D02*
X101600Y533400D01*
X650875Y533400D02*
X650875Y527050D01*
X654050Y523875D01*
X711200Y523875D01*
X711200Y533400D01*
X650875Y508000D02*
X101600Y508000D01*
X650875Y508000D02*
X650875Y514350D01*
X654050Y517525D01*
X711200Y517525D01*
X711200Y508000D01*
X650875Y482600D02*
X101600Y482600D01*
X650875Y482600D02*
X650875Y488950D01*
X654050Y492125D01*
X711200Y492125D01*
X711200Y482600D01*
X650875Y457200D02*
X101600Y457200D01*
X650875Y457200D02*
X650875Y450850D01*
X654050Y447675D01*
X711200Y447675D01*
X711200Y457200D01*
X650875Y431800D02*
X101600Y431800D01*
X650875Y431800D02*
X650875Y438150D01*
X654050Y441325D01*
X711200Y441325D01*
X711200Y431800D01*
X650875Y406400D02*
X101600Y406400D01*
X650875Y406400D02*
X650875Y412750D01*
X654050Y415925D01*
X711200Y415925D01*
X711200Y406400D01*
X650875Y381000D02*
X101600Y381000D01*
X650875Y381000D02*
X650875Y387350D01*
X654050Y390525D01*
X711200Y390525D01*
X711200Y381000D01*
X650875Y355600D02*
X101600Y355600D01*
X650875Y355600D02*
X650875Y361950D01*
X654050Y365125D01*
X711200Y365125D01*
X711200Y355600D01*
X650875Y330200D02*
X101600Y330200D01*
X650875Y330200D02*
X650875Y336550D01*
X654050Y339725D01*
X711200Y339725D01*
X711200Y330200D01*
X650875Y304800D02*
X101600Y304800D01*
X650875Y304800D02*
X650875Y311150D01*
X654050Y314325D01*
X711200Y314325D01*
X711200Y304800D01*
X650875Y279400D02*
X101600Y279400D01*
X650875Y279400D02*
X650875Y285750D01*
X654050Y288925D01*
X711200Y288925D01*
X711200Y279400D01*
X650875Y254000D02*
X101600Y254000D01*
X650875Y254000D02*
X650875Y260350D01*
X654050Y263525D01*
X711200Y263525D01*
X711200Y254000D01*
X650875Y228600D02*
X101600Y228600D01*
X650875Y228600D02*
X650875Y234950D01*
X654050Y238125D01*
X711200Y238125D01*
X711200Y228600D01*
D13*
X368300Y101600D02*
X266700Y203200D01*
X101600Y203200D01*
X34925Y923925D02*
X50800Y939800D01*
X34925Y923925D02*
X34925Y219075D01*
X50800Y203200D01*
X393700Y101600D02*
X495300Y203200D01*
X660400Y203200D01*
M02*
