M48
;GenerationSoftware,Autodesk,EAGLE,9.6.2*%
;CreationDate,2020-06-16T23:50:34Z*%
FMAT,2
ICI,OFF
METRIC,TZ,000.000
T3C0.813
T2C0.914
T1C2.794
%
G90
M71
T1
X7315Y102150
X7315Y12150
X68275Y102150
X68275Y12150
T2
X5080Y96520
X5080Y93980
X5080Y91440
X5080Y88900
X5080Y86360
X5080Y83820
X5080Y81280
X5080Y78740
X5080Y76200
X5080Y73660
X5080Y71120
X5080Y68580
X5080Y66040
X5080Y63500
X5080Y60960
X5080Y58420
X10160Y96520
X10160Y93980
X10160Y91440
X10160Y88900
X10160Y86360
X10160Y83820
X10160Y81280
X10160Y78740
X10160Y76200
X10160Y73660
X10160Y71120
X10160Y68580
X10160Y66040
X10160Y63500
X10160Y60960
X10160Y58420
X7620Y96520
X7620Y93980
X7620Y91440
X7620Y88900
X7620Y86360
X7620Y83820
X7620Y81280
X7620Y78740
X7620Y76200
X7620Y73660
X7620Y71120
X7620Y68580
X7620Y66040
X7620Y63500
X7620Y60960
X7620Y58420
X5080Y55880
X5080Y53340
X5080Y50800
X5080Y48260
X5080Y45720
X5080Y43180
X5080Y40640
X5080Y38100
X5080Y35560
X5080Y33020
X5080Y30480
X5080Y27940
X5080Y25400
X5080Y22860
X5080Y20320
X5080Y17780
X10160Y55880
X10160Y53340
X10160Y50800
X10160Y48260
X10160Y45720
X10160Y43180
X10160Y40640
X10160Y38100
X10160Y35560
X10160Y33020
X10160Y30480
X10160Y27940
X10160Y25400
X10160Y22860
X10160Y20320
X10160Y17780
X7620Y55880
X7620Y53340
X7620Y50800
X7620Y48260
X7620Y45720
X7620Y43180
X7620Y40640
X7620Y38100
X7620Y35560
X7620Y33020
X7620Y30480
X7620Y27940
X7620Y25400
X7620Y22860
X7620Y20320
X7620Y17780
X66040Y96520
X66040Y93980
X66040Y91440
X66040Y88900
X66040Y86360
X66040Y83820
X66040Y81280
X66040Y78740
X66040Y76200
X66040Y73660
X66040Y71120
X66040Y68580
X66040Y66040
X66040Y63500
X66040Y60960
X66040Y58420
X71120Y96520
X71120Y93980
X71120Y91440
X71120Y88900
X71120Y86360
X71120Y83820
X71120Y81280
X71120Y78740
X71120Y76200
X71120Y73660
X71120Y71120
X71120Y68580
X71120Y66040
X71120Y63500
X71120Y60960
X71120Y58420
X68580Y96520
X68580Y93980
X68580Y91440
X68580Y88900
X68580Y86360
X68580Y83820
X68580Y81280
X68580Y78740
X68580Y76200
X68580Y73660
X68580Y71120
X68580Y68580
X68580Y66040
X68580Y63500
X68580Y60960
X68580Y58420
X66040Y55880
X66040Y53340
X66040Y50800
X66040Y48260
X66040Y45720
X66040Y43180
X66040Y40640
X66040Y38100
X66040Y35560
X66040Y33020
X66040Y30480
X66040Y27940
X66040Y25400
X66040Y22860
X66040Y20320
X66040Y17780
X71120Y55880
X71120Y53340
X71120Y50800
X71120Y48260
X71120Y45720
X71120Y43180
X71120Y40640
X71120Y38100
X71120Y35560
X71120Y33020
X71120Y30480
X71120Y27940
X71120Y25400
X71120Y22860
X71120Y20320
X71120Y17780
X68580Y55880
X68580Y53340
X68580Y50800
X68580Y48260
X68580Y45720
X68580Y43180
X68580Y40640
X68580Y38100
X68580Y35560
X68580Y33020
X68580Y30480
X68580Y27940
X68580Y25400
X68580Y22860
X68580Y20320
X68580Y17780
X39370Y10160
X36830Y10160
T3
X17780Y104140
X20320Y104140
X25400Y104140
X35560Y104140
X54610Y104140
X57150Y104140
X40640Y100330
X50800Y100330
M30