G04 EAGLE Gerber RS-274X export*
G75*
%MOMM*%
%FSLAX34Y34*%
%LPD*%
%IN*%
%IPPOS*%
%AMOC8*
5,1,8,0,0,1.08239X$1,22.5*%
G01*
%ADD10C,0.254000*%


D10*
X0Y0D02*
X761800Y0D01*
X761800Y1139700D01*
X0Y1139700D01*
X0Y0D01*
X87122Y1021000D02*
X87051Y1020005D01*
X86909Y1019017D01*
X86697Y1018042D01*
X86416Y1017084D01*
X86067Y1016150D01*
X85652Y1015242D01*
X85174Y1014366D01*
X84635Y1013527D01*
X84037Y1012728D01*
X83383Y1011974D01*
X82677Y1011268D01*
X81923Y1010614D01*
X81125Y1010016D01*
X80285Y1009477D01*
X79409Y1008999D01*
X78502Y1008584D01*
X77567Y1008235D01*
X76609Y1007954D01*
X75634Y1007742D01*
X74646Y1007600D01*
X73651Y1007529D01*
X72653Y1007529D01*
X71658Y1007600D01*
X70670Y1007742D01*
X69695Y1007954D01*
X68737Y1008235D01*
X67803Y1008584D01*
X66895Y1008999D01*
X66019Y1009477D01*
X65180Y1010016D01*
X64381Y1010614D01*
X63627Y1011268D01*
X62921Y1011974D01*
X62267Y1012728D01*
X61669Y1013527D01*
X61130Y1014366D01*
X60652Y1015242D01*
X60237Y1016150D01*
X59888Y1017084D01*
X59607Y1018042D01*
X59395Y1019017D01*
X59253Y1020005D01*
X59182Y1021000D01*
X59182Y1021998D01*
X59253Y1022993D01*
X59395Y1023981D01*
X59607Y1024956D01*
X59888Y1025914D01*
X60237Y1026849D01*
X60652Y1027756D01*
X61130Y1028632D01*
X61669Y1029472D01*
X62267Y1030270D01*
X62921Y1031024D01*
X63627Y1031730D01*
X64381Y1032384D01*
X65180Y1032982D01*
X66019Y1033521D01*
X66895Y1033999D01*
X67803Y1034414D01*
X68737Y1034763D01*
X69695Y1035044D01*
X70670Y1035256D01*
X71658Y1035398D01*
X72653Y1035469D01*
X73651Y1035469D01*
X74646Y1035398D01*
X75634Y1035256D01*
X76609Y1035044D01*
X77567Y1034763D01*
X78502Y1034414D01*
X79409Y1033999D01*
X80285Y1033521D01*
X81125Y1032982D01*
X81923Y1032384D01*
X82677Y1031730D01*
X83383Y1031024D01*
X84037Y1030270D01*
X84635Y1029472D01*
X85174Y1028632D01*
X85652Y1027756D01*
X86067Y1026849D01*
X86416Y1025914D01*
X86697Y1024956D01*
X86909Y1023981D01*
X87051Y1022993D01*
X87122Y1021998D01*
X87122Y1021000D01*
X87122Y121002D02*
X87051Y120007D01*
X86909Y119019D01*
X86697Y118044D01*
X86416Y117086D01*
X86067Y116152D01*
X85652Y115244D01*
X85174Y114368D01*
X84635Y113529D01*
X84037Y112730D01*
X83383Y111976D01*
X82677Y111270D01*
X81923Y110616D01*
X81125Y110018D01*
X80285Y109479D01*
X79409Y109001D01*
X78502Y108586D01*
X77567Y108237D01*
X76609Y107956D01*
X75634Y107744D01*
X74646Y107602D01*
X73651Y107531D01*
X72653Y107531D01*
X71658Y107602D01*
X70670Y107744D01*
X69695Y107956D01*
X68737Y108237D01*
X67803Y108586D01*
X66895Y109001D01*
X66019Y109479D01*
X65180Y110018D01*
X64381Y110616D01*
X63627Y111270D01*
X62921Y111976D01*
X62267Y112730D01*
X61669Y113529D01*
X61130Y114368D01*
X60652Y115244D01*
X60237Y116152D01*
X59888Y117086D01*
X59607Y118044D01*
X59395Y119019D01*
X59253Y120007D01*
X59182Y121002D01*
X59182Y122000D01*
X59253Y122995D01*
X59395Y123983D01*
X59607Y124958D01*
X59888Y125916D01*
X60237Y126851D01*
X60652Y127758D01*
X61130Y128634D01*
X61669Y129474D01*
X62267Y130272D01*
X62921Y131026D01*
X63627Y131732D01*
X64381Y132386D01*
X65180Y132984D01*
X66019Y133523D01*
X66895Y134001D01*
X67803Y134416D01*
X68737Y134765D01*
X69695Y135046D01*
X70670Y135258D01*
X71658Y135400D01*
X72653Y135471D01*
X73651Y135471D01*
X74646Y135400D01*
X75634Y135258D01*
X76609Y135046D01*
X77567Y134765D01*
X78502Y134416D01*
X79409Y134001D01*
X80285Y133523D01*
X81125Y132984D01*
X81923Y132386D01*
X82677Y131732D01*
X83383Y131026D01*
X84037Y130272D01*
X84635Y129474D01*
X85174Y128634D01*
X85652Y127758D01*
X86067Y126851D01*
X86416Y125916D01*
X86697Y124958D01*
X86909Y123983D01*
X87051Y122995D01*
X87122Y122000D01*
X87122Y121002D01*
X696722Y1021000D02*
X696651Y1020005D01*
X696509Y1019017D01*
X696297Y1018042D01*
X696016Y1017084D01*
X695667Y1016150D01*
X695252Y1015242D01*
X694774Y1014366D01*
X694235Y1013527D01*
X693637Y1012728D01*
X692983Y1011974D01*
X692277Y1011268D01*
X691523Y1010614D01*
X690725Y1010016D01*
X689885Y1009477D01*
X689009Y1008999D01*
X688102Y1008584D01*
X687167Y1008235D01*
X686209Y1007954D01*
X685234Y1007742D01*
X684246Y1007600D01*
X683251Y1007529D01*
X682253Y1007529D01*
X681258Y1007600D01*
X680270Y1007742D01*
X679295Y1007954D01*
X678337Y1008235D01*
X677403Y1008584D01*
X676495Y1008999D01*
X675619Y1009477D01*
X674780Y1010016D01*
X673981Y1010614D01*
X673227Y1011268D01*
X672521Y1011974D01*
X671867Y1012728D01*
X671269Y1013527D01*
X670730Y1014366D01*
X670252Y1015242D01*
X669837Y1016150D01*
X669488Y1017084D01*
X669207Y1018042D01*
X668995Y1019017D01*
X668853Y1020005D01*
X668782Y1021000D01*
X668782Y1021998D01*
X668853Y1022993D01*
X668995Y1023981D01*
X669207Y1024956D01*
X669488Y1025914D01*
X669837Y1026849D01*
X670252Y1027756D01*
X670730Y1028632D01*
X671269Y1029472D01*
X671867Y1030270D01*
X672521Y1031024D01*
X673227Y1031730D01*
X673981Y1032384D01*
X674780Y1032982D01*
X675619Y1033521D01*
X676495Y1033999D01*
X677403Y1034414D01*
X678337Y1034763D01*
X679295Y1035044D01*
X680270Y1035256D01*
X681258Y1035398D01*
X682253Y1035469D01*
X683251Y1035469D01*
X684246Y1035398D01*
X685234Y1035256D01*
X686209Y1035044D01*
X687167Y1034763D01*
X688102Y1034414D01*
X689009Y1033999D01*
X689885Y1033521D01*
X690725Y1032982D01*
X691523Y1032384D01*
X692277Y1031730D01*
X692983Y1031024D01*
X693637Y1030270D01*
X694235Y1029472D01*
X694774Y1028632D01*
X695252Y1027756D01*
X695667Y1026849D01*
X696016Y1025914D01*
X696297Y1024956D01*
X696509Y1023981D01*
X696651Y1022993D01*
X696722Y1021998D01*
X696722Y1021000D01*
X696722Y121002D02*
X696651Y120007D01*
X696509Y119019D01*
X696297Y118044D01*
X696016Y117086D01*
X695667Y116152D01*
X695252Y115244D01*
X694774Y114368D01*
X694235Y113529D01*
X693637Y112730D01*
X692983Y111976D01*
X692277Y111270D01*
X691523Y110616D01*
X690725Y110018D01*
X689885Y109479D01*
X689009Y109001D01*
X688102Y108586D01*
X687167Y108237D01*
X686209Y107956D01*
X685234Y107744D01*
X684246Y107602D01*
X683251Y107531D01*
X682253Y107531D01*
X681258Y107602D01*
X680270Y107744D01*
X679295Y107956D01*
X678337Y108237D01*
X677403Y108586D01*
X676495Y109001D01*
X675619Y109479D01*
X674780Y110018D01*
X673981Y110616D01*
X673227Y111270D01*
X672521Y111976D01*
X671867Y112730D01*
X671269Y113529D01*
X670730Y114368D01*
X670252Y115244D01*
X669837Y116152D01*
X669488Y117086D01*
X669207Y118044D01*
X668995Y119019D01*
X668853Y120007D01*
X668782Y121002D01*
X668782Y122000D01*
X668853Y122995D01*
X668995Y123983D01*
X669207Y124958D01*
X669488Y125916D01*
X669837Y126851D01*
X670252Y127758D01*
X670730Y128634D01*
X671269Y129474D01*
X671867Y130272D01*
X672521Y131026D01*
X673227Y131732D01*
X673981Y132386D01*
X674780Y132984D01*
X675619Y133523D01*
X676495Y134001D01*
X677403Y134416D01*
X678337Y134765D01*
X679295Y135046D01*
X680270Y135258D01*
X681258Y135400D01*
X682253Y135471D01*
X683251Y135471D01*
X684246Y135400D01*
X685234Y135258D01*
X686209Y135046D01*
X687167Y134765D01*
X688102Y134416D01*
X689009Y134001D01*
X689885Y133523D01*
X690725Y132984D01*
X691523Y132386D01*
X692277Y131732D01*
X692983Y131026D01*
X693637Y130272D01*
X694235Y129474D01*
X694774Y128634D01*
X695252Y127758D01*
X695667Y126851D01*
X696016Y125916D01*
X696297Y124958D01*
X696509Y123983D01*
X696651Y122995D01*
X696722Y122000D01*
X696722Y121002D01*
M02*
