G04 EAGLE Gerber RS-274X export*
G75*
%MOMM*%
%FSLAX34Y34*%
%LPD*%
%INSoldermask Top*%
%IPPOS*%
%AMOC8*
5,1,8,0,0,1.08239X$1,22.5*%
G01*
%ADD10P,1.649562X8X22.500000*%
%ADD11C,2.946400*%
%ADD12P,1.484606X8X22.500000*%
%ADD13C,1.524000*%


D10*
X50800Y965200D03*
X50800Y939800D03*
X50800Y914400D03*
X50800Y889000D03*
X50800Y863600D03*
X50800Y838200D03*
X50800Y812800D03*
X50800Y787400D03*
X50800Y762000D03*
X50800Y736600D03*
X50800Y711200D03*
X50800Y685800D03*
X50800Y660400D03*
X50800Y635000D03*
X50800Y609600D03*
X50800Y584200D03*
X101600Y965200D03*
X101600Y939800D03*
X101600Y914400D03*
X101600Y889000D03*
X101600Y863600D03*
X101600Y838200D03*
X101600Y812800D03*
X101600Y787400D03*
X101600Y762000D03*
X101600Y736600D03*
X101600Y711200D03*
X101600Y685800D03*
X101600Y660400D03*
X101600Y635000D03*
X101600Y609600D03*
X101600Y584200D03*
X76200Y965200D03*
X76200Y939800D03*
X76200Y914400D03*
X76200Y889000D03*
X76200Y863600D03*
X76200Y838200D03*
X76200Y812800D03*
X76200Y787400D03*
X76200Y762000D03*
X76200Y736600D03*
X76200Y711200D03*
X76200Y685800D03*
X76200Y660400D03*
X76200Y635000D03*
X76200Y609600D03*
X76200Y584200D03*
X50800Y558800D03*
X50800Y533400D03*
X50800Y508000D03*
X50800Y482600D03*
X50800Y457200D03*
X50800Y431800D03*
X50800Y406400D03*
X50800Y381000D03*
X50800Y355600D03*
X50800Y330200D03*
X50800Y304800D03*
X50800Y279400D03*
X50800Y254000D03*
X50800Y228600D03*
X50800Y203200D03*
X50800Y177800D03*
X101600Y558800D03*
X101600Y533400D03*
X101600Y508000D03*
X101600Y482600D03*
X101600Y457200D03*
X101600Y431800D03*
X101600Y406400D03*
X101600Y381000D03*
X101600Y355600D03*
X101600Y330200D03*
X101600Y304800D03*
X101600Y279400D03*
X101600Y254000D03*
X101600Y228600D03*
X101600Y203200D03*
X101600Y177800D03*
X76200Y558800D03*
X76200Y533400D03*
X76200Y508000D03*
X76200Y482600D03*
X76200Y457200D03*
X76200Y431800D03*
X76200Y406400D03*
X76200Y381000D03*
X76200Y355600D03*
X76200Y330200D03*
X76200Y304800D03*
X76200Y279400D03*
X76200Y254000D03*
X76200Y228600D03*
X76200Y203200D03*
X76200Y177800D03*
D11*
X73152Y1021499D03*
X73152Y121501D03*
D10*
X660400Y965200D03*
X660400Y939800D03*
X660400Y914400D03*
X660400Y889000D03*
X660400Y863600D03*
X660400Y838200D03*
X660400Y812800D03*
X660400Y787400D03*
X660400Y762000D03*
X660400Y736600D03*
X660400Y711200D03*
X660400Y685800D03*
X660400Y660400D03*
X660400Y635000D03*
X660400Y609600D03*
X660400Y584200D03*
X711200Y965200D03*
X711200Y939800D03*
X711200Y914400D03*
X711200Y889000D03*
X711200Y863600D03*
X711200Y838200D03*
X711200Y812800D03*
X711200Y787400D03*
X711200Y762000D03*
X711200Y736600D03*
X711200Y711200D03*
X711200Y685800D03*
X711200Y660400D03*
X711200Y635000D03*
X711200Y609600D03*
X711200Y584200D03*
X685800Y965200D03*
X685800Y939800D03*
X685800Y914400D03*
X685800Y889000D03*
X685800Y863600D03*
X685800Y838200D03*
X685800Y812800D03*
X685800Y787400D03*
X685800Y762000D03*
X685800Y736600D03*
X685800Y711200D03*
X685800Y685800D03*
X685800Y660400D03*
X685800Y635000D03*
X685800Y609600D03*
X685800Y584200D03*
X660400Y558800D03*
X660400Y533400D03*
X660400Y508000D03*
X660400Y482600D03*
X660400Y457200D03*
X660400Y431800D03*
X660400Y406400D03*
X660400Y381000D03*
X660400Y355600D03*
X660400Y330200D03*
X660400Y304800D03*
X660400Y279400D03*
X660400Y254000D03*
X660400Y228600D03*
X660400Y203200D03*
X660400Y177800D03*
X711200Y558800D03*
X711200Y533400D03*
X711200Y508000D03*
X711200Y482600D03*
X711200Y457200D03*
X711200Y431800D03*
X711200Y406400D03*
X711200Y381000D03*
X711200Y355600D03*
X711200Y330200D03*
X711200Y304800D03*
X711200Y279400D03*
X711200Y254000D03*
X711200Y228600D03*
X711200Y203200D03*
X711200Y177800D03*
X685800Y558800D03*
X685800Y533400D03*
X685800Y508000D03*
X685800Y482600D03*
X685800Y457200D03*
X685800Y431800D03*
X685800Y406400D03*
X685800Y381000D03*
X685800Y355600D03*
X685800Y330200D03*
X685800Y304800D03*
X685800Y279400D03*
X685800Y254000D03*
X685800Y228600D03*
X685800Y203200D03*
X685800Y177800D03*
D11*
X682752Y1021499D03*
X682752Y121501D03*
D12*
X177800Y1041400D03*
X203200Y1041400D03*
X254000Y1041400D03*
X355600Y1041400D03*
X546100Y1041400D03*
X571500Y1041400D03*
X406400Y1003300D03*
X508000Y1003300D03*
D13*
X393700Y108458D02*
X393700Y94742D01*
X368300Y94742D02*
X368300Y108458D01*
M02*
