G04 EAGLE Gerber RS-274X export*
G75*
%MOMM*%
%FSLAX34Y34*%
%LPD*%
%INBottom Copper*%
%IPPOS*%
%AMOC8*
5,1,8,0,0,1.08239X$1,22.5*%
G01*
%ADD10C,1.219200*%
%ADD11C,1.219200*%
%ADD12P,1.539592X8X202.500000*%
%ADD13P,1.539592X8X112.500000*%
%ADD14R,1.500000X1.500000*%
%ADD15C,1.778000*%
%ADD16P,1.319650X8X22.500000*%
%ADD17P,1.319650X8X202.500000*%
%ADD18P,1.814519X8X112.500000*%
%ADD19P,1.319650X8X292.500000*%
%ADD20P,1.539592X8X22.500000*%
%ADD21C,1.524000*%
%ADD22P,1.649562X8X292.500000*%
%ADD23C,2.705100*%
%ADD24P,1.319650X8X112.500000*%
%ADD25P,1.539592X8X292.500000*%
%ADD26C,1.371600*%
%ADD27C,2.200000*%
%ADD28C,1.700000*%
%ADD29R,1.905000X1.905000*%
%ADD30C,1.905000*%
%ADD31C,0.127000*%
%ADD32C,0.457200*%


D10*
X890270Y1357630D03*
X890270Y1309370D03*
D11*
X501650Y1301496D02*
X501650Y1289304D01*
X527050Y1289304D02*
X527050Y1301496D01*
X552450Y1301496D02*
X552450Y1289304D01*
X577850Y1289304D02*
X577850Y1301496D01*
X603250Y1301496D02*
X603250Y1289304D01*
X628650Y1289304D02*
X628650Y1301496D01*
X654050Y1301496D02*
X654050Y1289304D01*
X679450Y1289304D02*
X679450Y1301496D01*
X704850Y1301496D02*
X704850Y1289304D01*
X730250Y1289304D02*
X730250Y1301496D01*
X755650Y1301496D02*
X755650Y1289304D01*
X781050Y1289304D02*
X781050Y1301496D01*
X806450Y1301496D02*
X806450Y1289304D01*
X831850Y1289304D02*
X831850Y1301496D01*
X831850Y1365504D02*
X831850Y1377696D01*
X806450Y1377696D02*
X806450Y1365504D01*
X781050Y1365504D02*
X781050Y1377696D01*
X755650Y1377696D02*
X755650Y1365504D01*
X730250Y1365504D02*
X730250Y1377696D01*
X704850Y1377696D02*
X704850Y1365504D01*
X679450Y1365504D02*
X679450Y1377696D01*
X654050Y1377696D02*
X654050Y1365504D01*
X628650Y1365504D02*
X628650Y1377696D01*
X603250Y1377696D02*
X603250Y1365504D01*
X577850Y1365504D02*
X577850Y1377696D01*
X552450Y1377696D02*
X552450Y1365504D01*
X527050Y1365504D02*
X527050Y1377696D01*
X501650Y1377696D02*
X501650Y1365504D01*
D12*
X971550Y1310640D03*
X946150Y1310640D03*
X974090Y1356360D03*
X948690Y1356360D03*
X1193800Y1860550D03*
X1168400Y1860550D03*
D13*
X438150Y1346200D03*
X438150Y1371600D03*
X438150Y1295400D03*
X438150Y1320800D03*
D11*
X1371854Y876300D02*
X1384046Y876300D01*
X1384046Y901700D02*
X1371854Y901700D01*
X1371854Y927100D02*
X1384046Y927100D01*
X1384046Y952500D02*
X1371854Y952500D01*
X1371854Y977900D02*
X1384046Y977900D01*
X1384046Y1003300D02*
X1371854Y1003300D01*
X1371854Y1028700D02*
X1384046Y1028700D01*
X1384046Y1054100D02*
X1371854Y1054100D01*
X1371854Y1079500D02*
X1384046Y1079500D01*
X1384046Y1104900D02*
X1371854Y1104900D01*
X1371854Y1130300D02*
X1384046Y1130300D01*
X1384046Y1155700D02*
X1371854Y1155700D01*
X1371854Y1181100D02*
X1384046Y1181100D01*
X1384046Y1206500D02*
X1371854Y1206500D01*
X1307846Y1206500D02*
X1295654Y1206500D01*
X1295654Y1181100D02*
X1307846Y1181100D01*
X1307846Y1155700D02*
X1295654Y1155700D01*
X1295654Y1130300D02*
X1307846Y1130300D01*
X1307846Y1104900D02*
X1295654Y1104900D01*
X1295654Y1079500D02*
X1307846Y1079500D01*
X1307846Y1054100D02*
X1295654Y1054100D01*
X1295654Y1028700D02*
X1307846Y1028700D01*
X1307846Y1003300D02*
X1295654Y1003300D01*
X1295654Y977900D02*
X1307846Y977900D01*
X1307846Y952500D02*
X1295654Y952500D01*
X1295654Y927100D02*
X1307846Y927100D01*
X1307846Y901700D02*
X1295654Y901700D01*
X1295654Y876300D02*
X1307846Y876300D01*
X888746Y876300D02*
X876554Y876300D01*
X876554Y901700D02*
X888746Y901700D01*
X888746Y927100D02*
X876554Y927100D01*
X876554Y952500D02*
X888746Y952500D01*
X888746Y977900D02*
X876554Y977900D01*
X876554Y1003300D02*
X888746Y1003300D01*
X888746Y1028700D02*
X876554Y1028700D01*
X876554Y1054100D02*
X888746Y1054100D01*
X888746Y1079500D02*
X876554Y1079500D01*
X876554Y1104900D02*
X888746Y1104900D01*
X888746Y1130300D02*
X876554Y1130300D01*
X876554Y1155700D02*
X888746Y1155700D01*
X888746Y1181100D02*
X876554Y1181100D01*
X876554Y1206500D02*
X888746Y1206500D01*
X812546Y1206500D02*
X800354Y1206500D01*
X800354Y1181100D02*
X812546Y1181100D01*
X812546Y1155700D02*
X800354Y1155700D01*
X800354Y1130300D02*
X812546Y1130300D01*
X812546Y1104900D02*
X800354Y1104900D01*
X800354Y1079500D02*
X812546Y1079500D01*
X812546Y1054100D02*
X800354Y1054100D01*
X800354Y1028700D02*
X812546Y1028700D01*
X812546Y1003300D02*
X800354Y1003300D01*
X800354Y977900D02*
X812546Y977900D01*
X812546Y952500D02*
X800354Y952500D01*
X800354Y927100D02*
X812546Y927100D01*
X812546Y901700D02*
X800354Y901700D01*
X800354Y876300D02*
X812546Y876300D01*
X558546Y876300D02*
X546354Y876300D01*
X546354Y901700D02*
X558546Y901700D01*
X558546Y927100D02*
X546354Y927100D01*
X546354Y952500D02*
X558546Y952500D01*
X558546Y977900D02*
X546354Y977900D01*
X546354Y1003300D02*
X558546Y1003300D01*
X558546Y1028700D02*
X546354Y1028700D01*
X546354Y1054100D02*
X558546Y1054100D01*
X558546Y1079500D02*
X546354Y1079500D01*
X546354Y1104900D02*
X558546Y1104900D01*
X558546Y1130300D02*
X546354Y1130300D01*
X546354Y1155700D02*
X558546Y1155700D01*
X558546Y1181100D02*
X546354Y1181100D01*
X546354Y1206500D02*
X558546Y1206500D01*
X482346Y1206500D02*
X470154Y1206500D01*
X470154Y1181100D02*
X482346Y1181100D01*
X482346Y1155700D02*
X470154Y1155700D01*
X470154Y1130300D02*
X482346Y1130300D01*
X482346Y1104900D02*
X470154Y1104900D01*
X470154Y1079500D02*
X482346Y1079500D01*
X482346Y1054100D02*
X470154Y1054100D01*
X470154Y1028700D02*
X482346Y1028700D01*
X482346Y1003300D02*
X470154Y1003300D01*
X470154Y977900D02*
X482346Y977900D01*
X482346Y952500D02*
X470154Y952500D01*
X470154Y927100D02*
X482346Y927100D01*
X482346Y901700D02*
X470154Y901700D01*
X470154Y876300D02*
X482346Y876300D01*
X1162050Y1289304D02*
X1162050Y1301496D01*
X1187450Y1301496D02*
X1187450Y1289304D01*
X1212850Y1289304D02*
X1212850Y1301496D01*
X1238250Y1301496D02*
X1238250Y1289304D01*
X1238250Y1365504D02*
X1238250Y1377696D01*
X1212850Y1377696D02*
X1212850Y1365504D01*
X1187450Y1365504D02*
X1187450Y1377696D01*
X1162050Y1377696D02*
X1162050Y1365504D01*
D14*
X1308100Y1917700D03*
D15*
X1282700Y1917700D03*
X1257300Y1917700D03*
X1231900Y1917700D03*
X1206500Y1917700D03*
X1181100Y1917700D03*
D16*
X1308100Y1454150D03*
X1409700Y1454150D03*
D17*
X1111250Y1358900D03*
X1009650Y1358900D03*
D18*
X933450Y1104900D03*
X933450Y1206500D03*
X603250Y1104900D03*
X603250Y1206500D03*
X1263650Y1104900D03*
X1263650Y1206500D03*
D17*
X1111250Y1308100D03*
X1009650Y1308100D03*
D11*
X1041654Y876300D02*
X1053846Y876300D01*
X1053846Y901700D02*
X1041654Y901700D01*
X1041654Y927100D02*
X1053846Y927100D01*
X1053846Y952500D02*
X1041654Y952500D01*
X1041654Y977900D02*
X1053846Y977900D01*
X1053846Y1003300D02*
X1041654Y1003300D01*
X1041654Y1028700D02*
X1053846Y1028700D01*
X1053846Y1054100D02*
X1041654Y1054100D01*
X1041654Y1079500D02*
X1053846Y1079500D01*
X1053846Y1104900D02*
X1041654Y1104900D01*
X1041654Y1130300D02*
X1053846Y1130300D01*
X1053846Y1155700D02*
X1041654Y1155700D01*
X1041654Y1181100D02*
X1053846Y1181100D01*
X1053846Y1206500D02*
X1041654Y1206500D01*
X977646Y1206500D02*
X965454Y1206500D01*
X965454Y1181100D02*
X977646Y1181100D01*
X977646Y1155700D02*
X965454Y1155700D01*
X965454Y1130300D02*
X977646Y1130300D01*
X977646Y1104900D02*
X965454Y1104900D01*
X965454Y1079500D02*
X977646Y1079500D01*
X977646Y1054100D02*
X965454Y1054100D01*
X965454Y1028700D02*
X977646Y1028700D01*
X977646Y1003300D02*
X965454Y1003300D01*
X965454Y977900D02*
X977646Y977900D01*
X977646Y952500D02*
X965454Y952500D01*
X965454Y927100D02*
X977646Y927100D01*
X977646Y901700D02*
X965454Y901700D01*
X965454Y876300D02*
X977646Y876300D01*
D18*
X1098550Y1104900D03*
X1098550Y1206500D03*
D11*
X723646Y876300D02*
X711454Y876300D01*
X711454Y901700D02*
X723646Y901700D01*
X723646Y927100D02*
X711454Y927100D01*
X711454Y952500D02*
X723646Y952500D01*
X723646Y977900D02*
X711454Y977900D01*
X711454Y1003300D02*
X723646Y1003300D01*
X723646Y1028700D02*
X711454Y1028700D01*
X711454Y1054100D02*
X723646Y1054100D01*
X723646Y1079500D02*
X711454Y1079500D01*
X711454Y1104900D02*
X723646Y1104900D01*
X723646Y1130300D02*
X711454Y1130300D01*
X711454Y1155700D02*
X723646Y1155700D01*
X723646Y1181100D02*
X711454Y1181100D01*
X711454Y1206500D02*
X723646Y1206500D01*
X647446Y1206500D02*
X635254Y1206500D01*
X635254Y1181100D02*
X647446Y1181100D01*
X647446Y1155700D02*
X635254Y1155700D01*
X635254Y1130300D02*
X647446Y1130300D01*
X647446Y1104900D02*
X635254Y1104900D01*
X635254Y1079500D02*
X647446Y1079500D01*
X647446Y1054100D02*
X635254Y1054100D01*
X635254Y1028700D02*
X647446Y1028700D01*
X647446Y1003300D02*
X635254Y1003300D01*
X635254Y977900D02*
X647446Y977900D01*
X647446Y952500D02*
X635254Y952500D01*
X635254Y927100D02*
X647446Y927100D01*
X647446Y901700D02*
X635254Y901700D01*
X635254Y876300D02*
X647446Y876300D01*
D18*
X438150Y1104900D03*
X438150Y1206500D03*
D19*
X762000Y1930400D03*
X762000Y1905000D03*
X990600Y1930400D03*
X990600Y1905000D03*
X838200Y1930400D03*
X838200Y1905000D03*
X1066800Y1930400D03*
X1066800Y1905000D03*
X914400Y1930400D03*
X914400Y1905000D03*
D16*
X863600Y1847850D03*
X965200Y1847850D03*
X781050Y1822450D03*
X882650Y1822450D03*
X711200Y1854200D03*
X812800Y1854200D03*
X946150Y1822450D03*
X1047750Y1822450D03*
X1016000Y1854200D03*
X1117600Y1854200D03*
D20*
X501650Y1244600D03*
X527050Y1244600D03*
X666750Y1244600D03*
X692150Y1244600D03*
X996950Y1244600D03*
X1022350Y1244600D03*
X1162050Y1244600D03*
X1187450Y1244600D03*
X1327150Y1244600D03*
X1352550Y1244600D03*
D11*
X520700Y1835404D02*
X520700Y1847596D01*
X546100Y1847596D02*
X546100Y1835404D01*
X571500Y1835404D02*
X571500Y1847596D01*
D15*
X520700Y1892300D03*
X571500Y1892300D03*
D11*
X622300Y1847596D02*
X622300Y1835404D01*
X647700Y1835404D02*
X647700Y1847596D01*
X673100Y1847596D02*
X673100Y1835404D01*
D15*
X622300Y1892300D03*
X673100Y1892300D03*
D21*
X1306830Y1308100D02*
X1322070Y1308100D01*
X1322070Y1333500D02*
X1306830Y1333500D01*
X1306830Y1358900D02*
X1322070Y1358900D01*
D11*
X1454404Y444500D02*
X1466596Y444500D01*
X1466596Y469900D02*
X1454404Y469900D01*
X1454404Y495300D02*
X1466596Y495300D01*
X1466596Y520700D02*
X1454404Y520700D01*
X1454404Y546100D02*
X1466596Y546100D01*
X1466596Y571500D02*
X1454404Y571500D01*
X1454404Y596900D02*
X1466596Y596900D01*
X1466596Y622300D02*
X1454404Y622300D01*
X1454404Y647700D02*
X1466596Y647700D01*
X1466596Y203200D02*
X1454404Y203200D01*
X1454404Y228600D02*
X1466596Y228600D01*
X1466596Y254000D02*
X1454404Y254000D01*
X1454404Y279400D02*
X1466596Y279400D01*
X1466596Y304800D02*
X1454404Y304800D01*
X1454404Y330200D02*
X1466596Y330200D01*
X1466596Y355600D02*
X1454404Y355600D01*
X1454404Y381000D02*
X1466596Y381000D01*
X1466596Y406400D02*
X1454404Y406400D01*
X399796Y444500D02*
X387604Y444500D01*
X387604Y469900D02*
X399796Y469900D01*
X399796Y495300D02*
X387604Y495300D01*
X387604Y520700D02*
X399796Y520700D01*
X399796Y546100D02*
X387604Y546100D01*
X387604Y571500D02*
X399796Y571500D01*
X399796Y596900D02*
X387604Y596900D01*
X387604Y622300D02*
X399796Y622300D01*
X399796Y647700D02*
X387604Y647700D01*
X387604Y203200D02*
X399796Y203200D01*
X399796Y228600D02*
X387604Y228600D01*
X387604Y254000D02*
X399796Y254000D01*
X399796Y279400D02*
X387604Y279400D01*
X387604Y304800D02*
X399796Y304800D01*
X399796Y330200D02*
X387604Y330200D01*
X387604Y355600D02*
X399796Y355600D01*
X399796Y381000D02*
X387604Y381000D01*
X387604Y406400D02*
X399796Y406400D01*
D22*
X1320800Y228600D03*
X1295400Y228600D03*
X1270000Y228600D03*
X1244600Y228600D03*
X1219200Y228600D03*
X1193800Y228600D03*
X1168400Y228600D03*
X1143000Y228600D03*
X1117600Y228600D03*
X1092200Y228600D03*
X1066800Y228600D03*
X1041400Y228600D03*
X1016000Y228600D03*
X990600Y228600D03*
X965200Y228600D03*
X939800Y228600D03*
X1320800Y254000D03*
X1295400Y254000D03*
X1270000Y254000D03*
X1244600Y254000D03*
X1219200Y254000D03*
X1193800Y254000D03*
X1168400Y254000D03*
X1143000Y254000D03*
X1117600Y254000D03*
X1092200Y254000D03*
X1066800Y254000D03*
X1041400Y254000D03*
X1016000Y254000D03*
X990600Y254000D03*
X965200Y254000D03*
X939800Y254000D03*
X1320800Y279400D03*
X1295400Y279400D03*
X1270000Y279400D03*
X1244600Y279400D03*
X1219200Y279400D03*
X1193800Y279400D03*
X1168400Y279400D03*
X1143000Y279400D03*
X1117600Y279400D03*
X1092200Y279400D03*
X1066800Y279400D03*
X1041400Y279400D03*
X1016000Y279400D03*
X990600Y279400D03*
X965200Y279400D03*
X939800Y279400D03*
X914400Y228600D03*
X889000Y228600D03*
X863600Y228600D03*
X838200Y228600D03*
X812800Y228600D03*
X787400Y228600D03*
X762000Y228600D03*
X736600Y228600D03*
X711200Y228600D03*
X685800Y228600D03*
X660400Y228600D03*
X635000Y228600D03*
X609600Y228600D03*
X584200Y228600D03*
X558800Y228600D03*
X533400Y228600D03*
X914400Y254000D03*
X889000Y254000D03*
X863600Y254000D03*
X838200Y254000D03*
X812800Y254000D03*
X787400Y254000D03*
X762000Y254000D03*
X736600Y254000D03*
X711200Y254000D03*
X685800Y254000D03*
X660400Y254000D03*
X635000Y254000D03*
X609600Y254000D03*
X584200Y254000D03*
X558800Y254000D03*
X533400Y254000D03*
X914400Y279400D03*
X889000Y279400D03*
X863600Y279400D03*
X838200Y279400D03*
X812800Y279400D03*
X787400Y279400D03*
X762000Y279400D03*
X736600Y279400D03*
X711200Y279400D03*
X685800Y279400D03*
X660400Y279400D03*
X635000Y279400D03*
X609600Y279400D03*
X584200Y279400D03*
X558800Y279400D03*
X533400Y279400D03*
D19*
X1460500Y1930400D03*
X1460500Y1905000D03*
X1460500Y1841500D03*
X1460500Y1739900D03*
D11*
X1218946Y876300D02*
X1206754Y876300D01*
X1206754Y901700D02*
X1218946Y901700D01*
X1218946Y927100D02*
X1206754Y927100D01*
X1206754Y952500D02*
X1218946Y952500D01*
X1218946Y977900D02*
X1206754Y977900D01*
X1206754Y1003300D02*
X1218946Y1003300D01*
X1218946Y1028700D02*
X1206754Y1028700D01*
X1206754Y1054100D02*
X1218946Y1054100D01*
X1218946Y1079500D02*
X1206754Y1079500D01*
X1206754Y1104900D02*
X1218946Y1104900D01*
X1218946Y1130300D02*
X1206754Y1130300D01*
X1206754Y1155700D02*
X1218946Y1155700D01*
X1218946Y1181100D02*
X1206754Y1181100D01*
X1206754Y1206500D02*
X1218946Y1206500D01*
X1142746Y1206500D02*
X1130554Y1206500D01*
X1130554Y1181100D02*
X1142746Y1181100D01*
X1142746Y1155700D02*
X1130554Y1155700D01*
X1130554Y1130300D02*
X1142746Y1130300D01*
X1142746Y1104900D02*
X1130554Y1104900D01*
X1130554Y1079500D02*
X1142746Y1079500D01*
X1142746Y1054100D02*
X1130554Y1054100D01*
X1130554Y1028700D02*
X1142746Y1028700D01*
X1142746Y1003300D02*
X1130554Y1003300D01*
X1130554Y977900D02*
X1142746Y977900D01*
X1142746Y952500D02*
X1130554Y952500D01*
X1130554Y927100D02*
X1142746Y927100D01*
X1142746Y901700D02*
X1130554Y901700D01*
X1130554Y876300D02*
X1142746Y876300D01*
D18*
X768350Y1104900D03*
X768350Y1206500D03*
D23*
X419926Y1659890D02*
X392875Y1659890D01*
X392875Y1612900D02*
X419926Y1612900D01*
X419926Y1565910D02*
X392875Y1565910D01*
X507175Y1659890D02*
X534226Y1659890D01*
X534226Y1612900D02*
X507175Y1612900D01*
X507175Y1565910D02*
X534226Y1565910D01*
X621475Y1659890D02*
X648526Y1659890D01*
X648526Y1612900D02*
X621475Y1612900D01*
X621475Y1565910D02*
X648526Y1565910D01*
X735775Y1659890D02*
X762826Y1659890D01*
X762826Y1612900D02*
X735775Y1612900D01*
X735775Y1565910D02*
X762826Y1565910D01*
X850075Y1659890D02*
X877126Y1659890D01*
X877126Y1612900D02*
X850075Y1612900D01*
X850075Y1565910D02*
X877126Y1565910D01*
X964375Y1659890D02*
X991426Y1659890D01*
X991426Y1612900D02*
X964375Y1612900D01*
X964375Y1565910D02*
X991426Y1565910D01*
X1078675Y1659890D02*
X1105726Y1659890D01*
X1105726Y1612900D02*
X1078675Y1612900D01*
X1078675Y1565910D02*
X1105726Y1565910D01*
X1192975Y1659890D02*
X1220026Y1659890D01*
X1220026Y1612900D02*
X1192975Y1612900D01*
X1192975Y1565910D02*
X1220026Y1565910D01*
X1383475Y1659890D02*
X1410526Y1659890D01*
X1410526Y1612900D02*
X1383475Y1612900D01*
X1383475Y1565910D02*
X1410526Y1565910D01*
D24*
X406400Y1750060D03*
X406400Y1775460D03*
X463550Y1558290D03*
X463550Y1659890D03*
X520700Y1750060D03*
X520700Y1775460D03*
X577850Y1558290D03*
X577850Y1659890D03*
X635000Y1752600D03*
X635000Y1778000D03*
X692150Y1558290D03*
X692150Y1659890D03*
X749300Y1752600D03*
X749300Y1778000D03*
X806450Y1558290D03*
X806450Y1659890D03*
X863600Y1750060D03*
X863600Y1775460D03*
X920750Y1558290D03*
X920750Y1659890D03*
X977900Y1752600D03*
X977900Y1778000D03*
X1035050Y1558290D03*
X1035050Y1659890D03*
X1092200Y1752600D03*
X1092200Y1778000D03*
X1149350Y1558290D03*
X1149350Y1659890D03*
X1206500Y1752600D03*
X1206500Y1778000D03*
X1263650Y1558290D03*
X1263650Y1659890D03*
X1397000Y1750060D03*
X1397000Y1775460D03*
X1339850Y1560830D03*
X1339850Y1662430D03*
D11*
X673100Y1422146D02*
X673100Y1409954D01*
X698500Y1409954D02*
X698500Y1422146D01*
X825500Y1422146D02*
X825500Y1409954D01*
X850900Y1409954D02*
X850900Y1422146D01*
X723900Y1422146D02*
X723900Y1409954D01*
X749300Y1409954D02*
X749300Y1422146D01*
X800100Y1422146D02*
X800100Y1409954D01*
X774700Y1409954D02*
X774700Y1422146D01*
X876300Y1422146D02*
X876300Y1409954D01*
X901700Y1409954D02*
X901700Y1422146D01*
X901700Y1486154D02*
X901700Y1498346D01*
X876300Y1498346D02*
X876300Y1486154D01*
X850900Y1486154D02*
X850900Y1498346D01*
X825500Y1498346D02*
X825500Y1486154D01*
X800100Y1486154D02*
X800100Y1498346D01*
X774700Y1498346D02*
X774700Y1486154D01*
X749300Y1486154D02*
X749300Y1498346D01*
X723900Y1498346D02*
X723900Y1486154D01*
X698500Y1486154D02*
X698500Y1498346D01*
X673100Y1498346D02*
X673100Y1486154D01*
X1041400Y1422146D02*
X1041400Y1409954D01*
X1066800Y1409954D02*
X1066800Y1422146D01*
X1193800Y1422146D02*
X1193800Y1409954D01*
X1219200Y1409954D02*
X1219200Y1422146D01*
X1092200Y1422146D02*
X1092200Y1409954D01*
X1117600Y1409954D02*
X1117600Y1422146D01*
X1168400Y1422146D02*
X1168400Y1409954D01*
X1143000Y1409954D02*
X1143000Y1422146D01*
X1244600Y1422146D02*
X1244600Y1409954D01*
X1270000Y1409954D02*
X1270000Y1422146D01*
X1270000Y1486154D02*
X1270000Y1498346D01*
X1244600Y1498346D02*
X1244600Y1486154D01*
X1219200Y1486154D02*
X1219200Y1498346D01*
X1193800Y1498346D02*
X1193800Y1486154D01*
X1168400Y1486154D02*
X1168400Y1498346D01*
X1143000Y1498346D02*
X1143000Y1486154D01*
X1117600Y1486154D02*
X1117600Y1498346D01*
X1092200Y1498346D02*
X1092200Y1486154D01*
X1066800Y1486154D02*
X1066800Y1498346D01*
X1041400Y1498346D02*
X1041400Y1486154D01*
D20*
X831850Y1244600D03*
X857250Y1244600D03*
D25*
X609600Y1466850D03*
X609600Y1441450D03*
X977900Y1466850D03*
X977900Y1441450D03*
D26*
X1390650Y1853692D02*
X1390650Y1867408D01*
X1365250Y1867408D02*
X1365250Y1853692D01*
X1282700Y1853692D02*
X1282700Y1867408D01*
X1257300Y1867408D02*
X1257300Y1853692D01*
D27*
X466800Y1905400D03*
X396800Y1905400D03*
D28*
X456800Y1930400D03*
X406800Y1930400D03*
D29*
X1370850Y1356000D03*
D30*
X1370850Y1311000D03*
X1435850Y1311000D03*
X1435850Y1356000D03*
D17*
X533400Y1454150D03*
X431800Y1454150D03*
D11*
X495300Y736346D02*
X495300Y724154D01*
X520700Y724154D02*
X520700Y736346D01*
X647700Y736346D02*
X647700Y724154D01*
X673100Y724154D02*
X673100Y736346D01*
X546100Y736346D02*
X546100Y724154D01*
X571500Y724154D02*
X571500Y736346D01*
X622300Y736346D02*
X622300Y724154D01*
X596900Y724154D02*
X596900Y736346D01*
X698500Y736346D02*
X698500Y724154D01*
X723900Y724154D02*
X723900Y736346D01*
X723900Y800354D02*
X723900Y812546D01*
X698500Y812546D02*
X698500Y800354D01*
X673100Y800354D02*
X673100Y812546D01*
X647700Y812546D02*
X647700Y800354D01*
X622300Y800354D02*
X622300Y812546D01*
X596900Y812546D02*
X596900Y800354D01*
X571500Y800354D02*
X571500Y812546D01*
X546100Y812546D02*
X546100Y800354D01*
X520700Y800354D02*
X520700Y812546D01*
X495300Y812546D02*
X495300Y800354D01*
X495300Y609346D02*
X495300Y597154D01*
X520700Y597154D02*
X520700Y609346D01*
X647700Y609346D02*
X647700Y597154D01*
X673100Y597154D02*
X673100Y609346D01*
X546100Y609346D02*
X546100Y597154D01*
X571500Y597154D02*
X571500Y609346D01*
X622300Y609346D02*
X622300Y597154D01*
X596900Y597154D02*
X596900Y609346D01*
X698500Y609346D02*
X698500Y597154D01*
X723900Y597154D02*
X723900Y609346D01*
X723900Y673354D02*
X723900Y685546D01*
X698500Y685546D02*
X698500Y673354D01*
X673100Y673354D02*
X673100Y685546D01*
X647700Y685546D02*
X647700Y673354D01*
X622300Y673354D02*
X622300Y685546D01*
X596900Y685546D02*
X596900Y673354D01*
X571500Y673354D02*
X571500Y685546D01*
X546100Y685546D02*
X546100Y673354D01*
X520700Y673354D02*
X520700Y685546D01*
X495300Y685546D02*
X495300Y673354D01*
X495300Y469646D02*
X495300Y457454D01*
X520700Y457454D02*
X520700Y469646D01*
X647700Y469646D02*
X647700Y457454D01*
X673100Y457454D02*
X673100Y469646D01*
X546100Y469646D02*
X546100Y457454D01*
X571500Y457454D02*
X571500Y469646D01*
X622300Y469646D02*
X622300Y457454D01*
X596900Y457454D02*
X596900Y469646D01*
X698500Y469646D02*
X698500Y457454D01*
X723900Y457454D02*
X723900Y469646D01*
X723900Y533654D02*
X723900Y545846D01*
X698500Y545846D02*
X698500Y533654D01*
X673100Y533654D02*
X673100Y545846D01*
X647700Y545846D02*
X647700Y533654D01*
X622300Y533654D02*
X622300Y545846D01*
X596900Y545846D02*
X596900Y533654D01*
X571500Y533654D02*
X571500Y545846D01*
X546100Y545846D02*
X546100Y533654D01*
X520700Y533654D02*
X520700Y545846D01*
X495300Y545846D02*
X495300Y533654D01*
X495300Y336296D02*
X495300Y324104D01*
X520700Y324104D02*
X520700Y336296D01*
X647700Y336296D02*
X647700Y324104D01*
X673100Y324104D02*
X673100Y336296D01*
X546100Y336296D02*
X546100Y324104D01*
X571500Y324104D02*
X571500Y336296D01*
X622300Y336296D02*
X622300Y324104D01*
X596900Y324104D02*
X596900Y336296D01*
X698500Y336296D02*
X698500Y324104D01*
X723900Y324104D02*
X723900Y336296D01*
X723900Y400304D02*
X723900Y412496D01*
X698500Y412496D02*
X698500Y400304D01*
X673100Y400304D02*
X673100Y412496D01*
X647700Y412496D02*
X647700Y400304D01*
X622300Y400304D02*
X622300Y412496D01*
X596900Y412496D02*
X596900Y400304D01*
X571500Y400304D02*
X571500Y412496D01*
X546100Y412496D02*
X546100Y400304D01*
X520700Y400304D02*
X520700Y412496D01*
X495300Y412496D02*
X495300Y400304D01*
X800100Y724154D02*
X800100Y736346D01*
X825500Y736346D02*
X825500Y724154D01*
X952500Y724154D02*
X952500Y736346D01*
X977900Y736346D02*
X977900Y724154D01*
X850900Y724154D02*
X850900Y736346D01*
X876300Y736346D02*
X876300Y724154D01*
X927100Y724154D02*
X927100Y736346D01*
X901700Y736346D02*
X901700Y724154D01*
X1003300Y724154D02*
X1003300Y736346D01*
X1028700Y736346D02*
X1028700Y724154D01*
X1028700Y800354D02*
X1028700Y812546D01*
X1003300Y812546D02*
X1003300Y800354D01*
X977900Y800354D02*
X977900Y812546D01*
X952500Y812546D02*
X952500Y800354D01*
X927100Y800354D02*
X927100Y812546D01*
X901700Y812546D02*
X901700Y800354D01*
X876300Y800354D02*
X876300Y812546D01*
X850900Y812546D02*
X850900Y800354D01*
X825500Y800354D02*
X825500Y812546D01*
X800100Y812546D02*
X800100Y800354D01*
X800100Y602996D02*
X800100Y590804D01*
X825500Y590804D02*
X825500Y602996D01*
X952500Y602996D02*
X952500Y590804D01*
X977900Y590804D02*
X977900Y602996D01*
X850900Y602996D02*
X850900Y590804D01*
X876300Y590804D02*
X876300Y602996D01*
X927100Y602996D02*
X927100Y590804D01*
X901700Y590804D02*
X901700Y602996D01*
X1003300Y602996D02*
X1003300Y590804D01*
X1028700Y590804D02*
X1028700Y602996D01*
X1028700Y667004D02*
X1028700Y679196D01*
X1003300Y679196D02*
X1003300Y667004D01*
X977900Y667004D02*
X977900Y679196D01*
X952500Y679196D02*
X952500Y667004D01*
X927100Y667004D02*
X927100Y679196D01*
X901700Y679196D02*
X901700Y667004D01*
X876300Y667004D02*
X876300Y679196D01*
X850900Y679196D02*
X850900Y667004D01*
X825500Y667004D02*
X825500Y679196D01*
X800100Y679196D02*
X800100Y667004D01*
X800100Y463296D02*
X800100Y451104D01*
X825500Y451104D02*
X825500Y463296D01*
X952500Y463296D02*
X952500Y451104D01*
X977900Y451104D02*
X977900Y463296D01*
X850900Y463296D02*
X850900Y451104D01*
X876300Y451104D02*
X876300Y463296D01*
X927100Y463296D02*
X927100Y451104D01*
X901700Y451104D02*
X901700Y463296D01*
X1003300Y463296D02*
X1003300Y451104D01*
X1028700Y451104D02*
X1028700Y463296D01*
X1028700Y527304D02*
X1028700Y539496D01*
X1003300Y539496D02*
X1003300Y527304D01*
X977900Y527304D02*
X977900Y539496D01*
X952500Y539496D02*
X952500Y527304D01*
X927100Y527304D02*
X927100Y539496D01*
X901700Y539496D02*
X901700Y527304D01*
X876300Y527304D02*
X876300Y539496D01*
X850900Y539496D02*
X850900Y527304D01*
X825500Y527304D02*
X825500Y539496D01*
X800100Y539496D02*
X800100Y527304D01*
X800100Y336296D02*
X800100Y324104D01*
X825500Y324104D02*
X825500Y336296D01*
X952500Y336296D02*
X952500Y324104D01*
X977900Y324104D02*
X977900Y336296D01*
X850900Y336296D02*
X850900Y324104D01*
X876300Y324104D02*
X876300Y336296D01*
X927100Y336296D02*
X927100Y324104D01*
X901700Y324104D02*
X901700Y336296D01*
X1003300Y336296D02*
X1003300Y324104D01*
X1028700Y324104D02*
X1028700Y336296D01*
X1028700Y400304D02*
X1028700Y412496D01*
X1003300Y412496D02*
X1003300Y400304D01*
X977900Y400304D02*
X977900Y412496D01*
X952500Y412496D02*
X952500Y400304D01*
X927100Y400304D02*
X927100Y412496D01*
X901700Y412496D02*
X901700Y400304D01*
X876300Y400304D02*
X876300Y412496D01*
X850900Y412496D02*
X850900Y400304D01*
X825500Y400304D02*
X825500Y412496D01*
X800100Y412496D02*
X800100Y400304D01*
X1111250Y724154D02*
X1111250Y736346D01*
X1136650Y736346D02*
X1136650Y724154D01*
X1263650Y724154D02*
X1263650Y736346D01*
X1289050Y736346D02*
X1289050Y724154D01*
X1162050Y724154D02*
X1162050Y736346D01*
X1187450Y736346D02*
X1187450Y724154D01*
X1238250Y724154D02*
X1238250Y736346D01*
X1212850Y736346D02*
X1212850Y724154D01*
X1314450Y724154D02*
X1314450Y736346D01*
X1339850Y736346D02*
X1339850Y724154D01*
X1339850Y800354D02*
X1339850Y812546D01*
X1314450Y812546D02*
X1314450Y800354D01*
X1289050Y800354D02*
X1289050Y812546D01*
X1263650Y812546D02*
X1263650Y800354D01*
X1238250Y800354D02*
X1238250Y812546D01*
X1212850Y812546D02*
X1212850Y800354D01*
X1187450Y800354D02*
X1187450Y812546D01*
X1162050Y812546D02*
X1162050Y800354D01*
X1136650Y800354D02*
X1136650Y812546D01*
X1111250Y812546D02*
X1111250Y800354D01*
X1111250Y596646D02*
X1111250Y584454D01*
X1136650Y584454D02*
X1136650Y596646D01*
X1263650Y596646D02*
X1263650Y584454D01*
X1289050Y584454D02*
X1289050Y596646D01*
X1162050Y596646D02*
X1162050Y584454D01*
X1187450Y584454D02*
X1187450Y596646D01*
X1238250Y596646D02*
X1238250Y584454D01*
X1212850Y584454D02*
X1212850Y596646D01*
X1314450Y596646D02*
X1314450Y584454D01*
X1339850Y584454D02*
X1339850Y596646D01*
X1339850Y660654D02*
X1339850Y672846D01*
X1314450Y672846D02*
X1314450Y660654D01*
X1289050Y660654D02*
X1289050Y672846D01*
X1263650Y672846D02*
X1263650Y660654D01*
X1238250Y660654D02*
X1238250Y672846D01*
X1212850Y672846D02*
X1212850Y660654D01*
X1187450Y660654D02*
X1187450Y672846D01*
X1162050Y672846D02*
X1162050Y660654D01*
X1136650Y660654D02*
X1136650Y672846D01*
X1111250Y672846D02*
X1111250Y660654D01*
X1111250Y456946D02*
X1111250Y444754D01*
X1136650Y444754D02*
X1136650Y456946D01*
X1263650Y456946D02*
X1263650Y444754D01*
X1289050Y444754D02*
X1289050Y456946D01*
X1162050Y456946D02*
X1162050Y444754D01*
X1187450Y444754D02*
X1187450Y456946D01*
X1238250Y456946D02*
X1238250Y444754D01*
X1212850Y444754D02*
X1212850Y456946D01*
X1314450Y456946D02*
X1314450Y444754D01*
X1339850Y444754D02*
X1339850Y456946D01*
X1339850Y520954D02*
X1339850Y533146D01*
X1314450Y533146D02*
X1314450Y520954D01*
X1289050Y520954D02*
X1289050Y533146D01*
X1263650Y533146D02*
X1263650Y520954D01*
X1238250Y520954D02*
X1238250Y533146D01*
X1212850Y533146D02*
X1212850Y520954D01*
X1187450Y520954D02*
X1187450Y533146D01*
X1162050Y533146D02*
X1162050Y520954D01*
X1136650Y520954D02*
X1136650Y533146D01*
X1111250Y533146D02*
X1111250Y520954D01*
D13*
X1079500Y476250D03*
X1079500Y501650D03*
X768350Y755650D03*
X768350Y781050D03*
X768350Y622300D03*
X768350Y647700D03*
X768350Y488950D03*
X768350Y514350D03*
X768350Y355600D03*
X768350Y381000D03*
X463550Y355600D03*
X463550Y381000D03*
X463550Y488950D03*
X463550Y514350D03*
D25*
X463550Y654050D03*
X463550Y628650D03*
D13*
X463550Y755650D03*
X463550Y781050D03*
X1079500Y755650D03*
X1079500Y781050D03*
X1079500Y615950D03*
X1079500Y641350D03*
D21*
X1263650Y388620D02*
X1263650Y373380D01*
X1289050Y373380D02*
X1289050Y388620D01*
X1314450Y388620D02*
X1314450Y373380D01*
X1263650Y337820D02*
X1263650Y322580D01*
X1289050Y322580D02*
X1289050Y337820D01*
X1314450Y337820D02*
X1314450Y322580D01*
D31*
X1450975Y238125D02*
X1460500Y228600D01*
X1450975Y238125D02*
X1279525Y238125D01*
X1270000Y228600D01*
X536575Y714375D02*
X520700Y730250D01*
X536575Y714375D02*
X536575Y663575D01*
X771525Y663575D01*
X796925Y688975D01*
X955675Y688975D01*
X968375Y676275D01*
X968375Y657225D01*
X1006475Y657225D01*
X1019175Y669925D01*
X1019175Y688975D01*
X1069975Y688975D01*
X1111250Y647700D01*
X1362075Y647700D01*
D32*
X1362075Y647700D03*
D31*
X622300Y184150D02*
X619125Y187325D01*
X622300Y184150D02*
X1200150Y184150D01*
X1244600Y228600D01*
X1447800Y241300D02*
X1460500Y254000D01*
X1447800Y241300D02*
X1257300Y241300D01*
X1244600Y228600D01*
D32*
X619125Y187325D03*
D31*
X720725Y203200D02*
X733425Y190500D01*
X1155700Y190500D01*
X1193800Y228600D01*
X1203325Y304800D02*
X1460500Y304800D01*
D32*
X720725Y203200D03*
X1203325Y304800D03*
D31*
X714375Y790575D02*
X698500Y806450D01*
X714375Y790575D02*
X736600Y790575D01*
X739775Y793750D01*
X749300Y196850D02*
X1136650Y196850D01*
X1168400Y228600D01*
X1441450Y311150D02*
X1460500Y330200D01*
X1441450Y311150D02*
X1177925Y311150D01*
D32*
X739775Y793750D03*
X749300Y196850D03*
X1177925Y311150D03*
D31*
X641350Y787400D02*
X622300Y806450D01*
X641350Y787400D02*
X739775Y787400D01*
X742950Y203200D02*
X793750Y203200D01*
X796925Y200025D01*
X1114425Y200025D01*
X1143000Y228600D01*
X1460500Y355600D02*
X1476375Y339725D01*
X1476375Y295275D01*
X1289050Y295275D01*
X1285875Y298450D01*
X1152525Y298450D01*
D32*
X739775Y787400D03*
X742950Y203200D03*
X1152525Y298450D03*
D31*
X612775Y822325D02*
X596900Y806450D01*
X612775Y822325D02*
X739775Y822325D01*
X796925Y206375D02*
X800100Y203200D01*
X1092200Y203200D01*
X1117600Y228600D01*
X1460500Y381000D02*
X1479550Y361950D01*
X1479550Y292100D01*
X1285875Y292100D01*
X1282700Y295275D01*
X1155700Y295275D01*
X1149350Y288925D01*
X1127125Y288925D01*
D32*
X739775Y822325D03*
X796925Y206375D03*
X1127125Y288925D03*
D31*
X555625Y771525D02*
X520700Y806450D01*
X555625Y771525D02*
X825500Y771525D01*
X841375Y787400D01*
X860425Y787400D01*
X876300Y771525D01*
X923925Y771525D01*
X927100Y774700D01*
X1063625Y774700D01*
X1069975Y768350D01*
X1365250Y768350D01*
X1479550Y654050D01*
X1479550Y406400D01*
X1460500Y406400D01*
X1133475Y406400D02*
X1130300Y409575D01*
X1133475Y406400D02*
X1460500Y406400D01*
D32*
X1130300Y409575D03*
D31*
X854075Y206375D02*
X847725Y212725D01*
X854075Y206375D02*
X1044575Y206375D01*
X1066800Y228600D01*
X1403350Y412750D02*
X1460500Y469900D01*
X1403350Y412750D02*
X1162050Y412750D01*
X1158875Y241300D02*
X1155700Y238125D01*
X1076325Y238125D01*
X1066800Y228600D01*
D32*
X847725Y212725D03*
X1162050Y412750D03*
X1158875Y241300D03*
D31*
X908050Y215900D02*
X904875Y212725D01*
X908050Y215900D02*
X1028700Y215900D01*
X1041400Y228600D01*
X1450975Y504825D02*
X1460500Y495300D01*
X1450975Y504825D02*
X1133475Y504825D01*
X1127125Y511175D01*
X974725Y511175D01*
X965200Y501650D01*
X904875Y501650D01*
D32*
X904875Y212725D03*
X904875Y501650D03*
D31*
X923925Y565150D02*
X917575Y571500D01*
X1060450Y565150D02*
X1416050Y565150D01*
X1060450Y565150D02*
X923925Y565150D01*
X1416050Y565150D02*
X1460500Y520700D01*
D32*
X917575Y571500D03*
X1060450Y565150D03*
D31*
X1460500Y546100D02*
X1476375Y561975D01*
X1476375Y581025D01*
X1349375Y581025D01*
X1343025Y574675D01*
X1158875Y574675D01*
X1146175Y587375D01*
X1146175Y606425D01*
X1092200Y606425D01*
X1089025Y603250D01*
X1041400Y603250D01*
X1031875Y612775D01*
X1012825Y612775D01*
D32*
X1012825Y612775D03*
D31*
X981075Y571500D02*
X1460500Y571500D01*
D32*
X981075Y571500D03*
X965200Y508000D03*
D31*
X930275Y765175D02*
X1060450Y765175D01*
X1060450Y654050D02*
X1063625Y650875D01*
X1089025Y650875D01*
X1104900Y635000D01*
X1244600Y635000D01*
X1254125Y625475D01*
X1431925Y625475D01*
X1460500Y596900D01*
X930275Y304800D02*
X930275Y273050D01*
X930275Y304800D02*
X1025525Y304800D01*
D32*
X930275Y765175D03*
X1060450Y765175D03*
X1060450Y654050D03*
X930275Y273050D03*
X1025525Y304800D03*
D31*
X914400Y752475D02*
X908050Y758825D01*
X914400Y752475D02*
X1066800Y752475D01*
X1073150Y746125D01*
X1085850Y746125D01*
X1098550Y758825D01*
X1260475Y758825D01*
X1266825Y752475D01*
X1349375Y752475D02*
X1374775Y752475D01*
X1349375Y752475D02*
X1266825Y752475D01*
X1374775Y752475D02*
X1476375Y650875D01*
X1476375Y622300D01*
X1460500Y622300D01*
X1349375Y752475D02*
X1349375Y755650D01*
D32*
X908050Y758825D03*
X1349375Y755650D03*
D31*
X1358900Y749300D02*
X1460500Y647700D01*
X1358900Y749300D02*
X1228725Y749300D01*
X1222375Y755650D01*
X1101725Y755650D01*
X1089025Y742950D01*
X1063625Y742950D01*
X1057275Y749300D01*
X854075Y749300D01*
D32*
X854075Y749300D03*
D31*
X403225Y238125D02*
X393700Y228600D01*
X403225Y238125D02*
X854075Y238125D01*
X863600Y228600D01*
X863600Y552450D02*
X1123950Y552450D01*
D32*
X1123950Y552450D03*
X863600Y552450D03*
D31*
X434975Y346075D02*
X431800Y349250D01*
X434975Y346075D02*
X476250Y346075D01*
X488950Y358775D01*
X752475Y358775D01*
X1196975Y714375D02*
X1212850Y730250D01*
X1196975Y714375D02*
X965200Y714375D01*
X958850Y708025D01*
X946150Y428625D02*
X774700Y428625D01*
D32*
X431800Y349250D03*
X752475Y358775D03*
X958850Y708025D03*
X946150Y428625D03*
X774700Y428625D03*
D31*
X447675Y279400D02*
X393700Y279400D01*
X520700Y206375D02*
X523875Y209550D01*
X793750Y209550D01*
X803275Y219075D02*
X812800Y228600D01*
X803275Y219075D02*
X793750Y209550D01*
X1228725Y266700D02*
X1228725Y288925D01*
X1228725Y266700D02*
X860425Y266700D01*
X854075Y260350D01*
X854075Y241300D01*
X866775Y241300D01*
X873125Y234950D01*
X873125Y219075D01*
X803275Y219075D01*
D32*
X447675Y279400D03*
X520700Y206375D03*
X1228725Y288925D03*
D31*
X409575Y288925D02*
X393700Y304800D01*
X409575Y288925D02*
X444500Y288925D01*
X501650Y231775D02*
X520700Y212725D01*
X768350Y212725D02*
X771525Y212725D01*
X768350Y212725D02*
X520700Y212725D01*
X771525Y212725D02*
X787400Y228600D01*
X1282700Y263525D02*
X1282700Y288925D01*
X1282700Y263525D02*
X1009650Y263525D01*
X1000125Y254000D01*
X1000125Y219075D01*
X898525Y219075D01*
X768350Y215900D02*
X768350Y212725D01*
D32*
X444500Y288925D03*
X501650Y231775D03*
X1282700Y288925D03*
X898525Y219075D03*
X768350Y215900D03*
D31*
X520700Y193675D02*
X514350Y187325D01*
X520700Y193675D02*
X625475Y193675D01*
X1314450Y806450D02*
X1333500Y787400D01*
X1358900Y787400D01*
D32*
X514350Y187325D03*
X625475Y193675D03*
X1358900Y787400D03*
D31*
X450850Y298450D02*
X393700Y355600D01*
X450850Y298450D02*
X454025Y298450D01*
X520700Y219075D02*
X523875Y215900D01*
X723900Y215900D01*
X736600Y228600D01*
X1193800Y1076325D02*
X1177925Y1092200D01*
X1016000Y1092200D01*
X1012825Y1095375D01*
X939800Y1095375D01*
X936625Y1092200D01*
X409575Y1092200D01*
X374650Y1057275D01*
X374650Y355600D01*
X393700Y355600D01*
D32*
X454025Y298450D03*
X520700Y219075D03*
X1193800Y1076325D03*
D31*
X438150Y336550D02*
X393700Y381000D01*
X438150Y336550D02*
X482600Y336550D01*
X495300Y349250D01*
X647700Y349250D01*
X663575Y333375D01*
X663575Y317500D01*
X1193800Y787400D02*
X1212850Y806450D01*
X1193800Y787400D02*
X1117600Y787400D01*
X1076325Y536575D02*
X1057275Y517525D01*
X781050Y517525D01*
X774700Y523875D01*
X622300Y523875D01*
X587375Y488950D01*
X479425Y488950D01*
X469900Y479425D01*
X384175Y479425D01*
X377825Y473075D01*
X377825Y381000D01*
X393700Y381000D01*
D32*
X663575Y317500D03*
X1117600Y787400D03*
X1076325Y536575D03*
D31*
X1111250Y1358900D02*
X1139825Y1387475D01*
X1196975Y1387475D01*
X1212850Y1371600D01*
X561975Y1165225D02*
X552450Y1155700D01*
X561975Y1165225D02*
X708025Y1165225D01*
X717550Y1155700D01*
X501650Y1311275D02*
X501650Y1371600D01*
X501650Y1311275D02*
X504825Y1311275D01*
X517525Y1298575D01*
X517525Y1165225D01*
X561975Y1165225D01*
X873125Y1165225D02*
X882650Y1155700D01*
X873125Y1165225D02*
X708025Y1165225D01*
X1038225Y1165225D02*
X1047750Y1155700D01*
X1038225Y1165225D02*
X873125Y1165225D01*
X1203325Y1165225D02*
X1212850Y1155700D01*
X1203325Y1165225D02*
X1038225Y1165225D01*
X1368425Y1165225D02*
X1377950Y1155700D01*
X1368425Y1165225D02*
X1203325Y1165225D01*
X1212850Y1181100D02*
X1203325Y1190625D01*
X1057275Y1190625D01*
X1047750Y1181100D01*
X1368425Y1190625D02*
X1377950Y1181100D01*
X1368425Y1190625D02*
X1203325Y1190625D01*
X561975Y1190625D02*
X552450Y1181100D01*
X561975Y1190625D02*
X708025Y1190625D01*
X717550Y1181100D01*
X873125Y1190625D02*
X882650Y1181100D01*
X873125Y1190625D02*
X708025Y1190625D01*
X1038225Y1190625D02*
X1047750Y1181100D01*
X1038225Y1190625D02*
X873125Y1190625D01*
X723900Y1314450D02*
X704850Y1295400D01*
X723900Y1314450D02*
X885825Y1314450D01*
X889000Y1311275D01*
X890270Y1309370D01*
X746125Y1311275D02*
X730250Y1295400D01*
X746125Y1311275D02*
X876300Y1311275D01*
X889000Y1298575D01*
X892175Y1298575D01*
X949325Y1355725D01*
X948690Y1356360D01*
X520700Y1841500D02*
X539750Y1860550D01*
X603250Y1860550D01*
X622300Y1841500D01*
X520700Y1841500D02*
X438150Y1758950D01*
X438150Y1568450D01*
X406400Y1568450D01*
X406400Y1565910D01*
X587375Y1355725D02*
X527050Y1295400D01*
X587375Y1355725D02*
X876300Y1355725D01*
X908050Y1387475D01*
D32*
X908050Y1387475D03*
D31*
X606425Y1349375D02*
X552450Y1295400D01*
X606425Y1349375D02*
X927100Y1349375D01*
X968375Y1390650D01*
X1263650Y1390650D01*
X1428750Y1555750D01*
X1428750Y1908175D01*
X1292225Y1908175D01*
X1282700Y1917700D01*
X1409700Y1454150D02*
X1409700Y1311275D01*
X1435100Y1311275D01*
X1435850Y1311000D01*
X1301750Y1130300D02*
X1276350Y1104900D01*
X1263650Y1104900D01*
X1127125Y1120775D02*
X1111250Y1104900D01*
X1127125Y1120775D02*
X1136650Y1130300D01*
X1111250Y1104900D02*
X1098550Y1104900D01*
X962025Y1120775D02*
X946150Y1104900D01*
X962025Y1120775D02*
X971550Y1130300D01*
X946150Y1104900D02*
X933450Y1104900D01*
X796925Y1120775D02*
X781050Y1104900D01*
X796925Y1120775D02*
X806450Y1130300D01*
X781050Y1104900D02*
X768350Y1104900D01*
X631825Y1120775D02*
X615950Y1104900D01*
X631825Y1120775D02*
X641350Y1130300D01*
X615950Y1104900D02*
X603250Y1104900D01*
X466725Y1120775D02*
X450850Y1104900D01*
X466725Y1120775D02*
X476250Y1130300D01*
X450850Y1104900D02*
X438150Y1104900D01*
X460375Y1254125D02*
X501650Y1295400D01*
X460375Y1254125D02*
X460375Y1130300D01*
X476250Y1130300D01*
X587375Y1120775D02*
X603250Y1104900D01*
X587375Y1120775D02*
X466725Y1120775D01*
X752475Y1120775D02*
X768350Y1104900D01*
X752475Y1120775D02*
X631825Y1120775D01*
X917575Y1120775D02*
X933450Y1104900D01*
X917575Y1120775D02*
X796925Y1120775D01*
X1082675Y1120775D02*
X1098550Y1104900D01*
X1082675Y1120775D02*
X962025Y1120775D01*
X1247775Y1120775D02*
X1263650Y1104900D01*
X1247775Y1120775D02*
X1127125Y1120775D01*
X679450Y1371600D02*
X663575Y1387475D01*
X454025Y1387475D01*
X438150Y1371600D01*
X400050Y501650D02*
X393700Y495300D01*
X400050Y501650D02*
X584200Y501650D01*
D32*
X584200Y501650D03*
X603250Y244475D03*
D31*
X600075Y508000D02*
X615950Y523875D01*
X600075Y508000D02*
X542925Y508000D01*
X539750Y504825D01*
X409575Y504825D01*
X393700Y520700D01*
D32*
X615950Y523875D03*
D31*
X406400Y558800D02*
X393700Y546100D01*
X558800Y558800D02*
X695325Y558800D01*
X558800Y558800D02*
X406400Y558800D01*
X558800Y558800D02*
X558800Y552450D01*
D32*
X695325Y558800D03*
X558800Y552450D03*
D31*
X400050Y565150D02*
X393700Y571500D01*
X400050Y565150D02*
X679450Y565150D01*
X946150Y244475D02*
X955675Y234950D01*
X946150Y244475D02*
X898525Y244475D01*
X869950Y482600D02*
X854075Y498475D01*
X679450Y498475D01*
D32*
X679450Y565150D03*
X955675Y234950D03*
X898525Y244475D03*
X869950Y482600D03*
X679450Y498475D03*
D31*
X415925Y619125D02*
X393700Y596900D01*
X415925Y619125D02*
X615950Y619125D01*
X1219200Y546100D02*
X1222375Y549275D01*
X1219200Y546100D02*
X1035050Y546100D01*
X1031875Y549275D01*
X866775Y549275D01*
X863600Y546100D01*
X857250Y546100D01*
X847725Y555625D01*
X781050Y555625D01*
X758825Y593725D02*
X733425Y619125D01*
X615950Y619125D01*
D32*
X615950Y619125D03*
X1222375Y549275D03*
X781050Y555625D03*
X758825Y593725D03*
D31*
X409575Y638175D02*
X393700Y622300D01*
X409575Y638175D02*
X590550Y638175D01*
X593725Y635000D01*
X1155700Y387350D02*
X1158875Y390525D01*
X1155700Y387350D02*
X968375Y387350D01*
X965200Y384175D01*
X955675Y384175D01*
X949325Y390525D01*
X806450Y390525D01*
X803275Y612775D02*
X781050Y635000D01*
X593725Y635000D01*
D32*
X593725Y635000D03*
X1158875Y390525D03*
X806450Y390525D03*
X803275Y612775D03*
D31*
X409575Y663575D02*
X393700Y647700D01*
X409575Y663575D02*
X504825Y663575D01*
X508000Y666750D02*
X520700Y679450D01*
X508000Y666750D02*
X504825Y663575D01*
X955675Y377825D02*
X1184275Y377825D01*
X955675Y377825D02*
X949325Y371475D01*
X860425Y371475D01*
X854075Y377825D01*
X844550Y638175D02*
X596900Y638175D01*
X590550Y644525D01*
X530225Y644525D01*
X508000Y666750D01*
D32*
X1184275Y377825D03*
X854075Y377825D03*
X844550Y638175D03*
D31*
X730250Y1371600D02*
X762000Y1403350D01*
D32*
X762000Y1403350D03*
D31*
X711200Y1854200D02*
X762000Y1905000D01*
X1187450Y1371600D02*
X1225550Y1333500D01*
X1314450Y1333500D01*
X914400Y361950D02*
X923925Y352425D01*
X1127125Y352425D01*
X1130300Y355600D01*
D32*
X914400Y361950D03*
X1130300Y355600D03*
D31*
X946150Y314325D02*
X942975Y317500D01*
X946150Y314325D02*
X1054100Y314325D01*
X1066800Y327025D01*
X1123950Y327025D01*
X1127125Y323850D01*
D32*
X942975Y317500D03*
X1127125Y323850D03*
D31*
X1012825Y419100D02*
X1009650Y422275D01*
X1012825Y419100D02*
X1022350Y419100D01*
X1025525Y422275D01*
X1098550Y422275D01*
D32*
X1009650Y422275D03*
X1098550Y422275D03*
X1069975Y596900D03*
D31*
X949325Y650875D02*
X927100Y673100D01*
X949325Y650875D02*
X984250Y650875D01*
D32*
X984250Y650875D03*
D31*
X930275Y644525D02*
X901700Y673100D01*
X930275Y644525D02*
X996950Y644525D01*
D32*
X996950Y644525D03*
D31*
X844550Y654050D02*
X825500Y673100D01*
X844550Y654050D02*
X914400Y654050D01*
X930275Y638175D01*
X984250Y638175D01*
D32*
X984250Y638175D03*
D31*
X1120775Y574675D02*
X1136650Y590550D01*
X1120775Y574675D02*
X1104900Y574675D01*
X1101725Y577850D01*
D32*
X1101725Y577850D03*
D31*
X1200150Y336550D02*
X1181100Y317500D01*
X1069975Y317500D01*
X1044575Y292100D01*
X962025Y292100D01*
X955675Y285750D01*
D32*
X1200150Y336550D03*
X955675Y285750D03*
D31*
X1222375Y384175D02*
X1235075Y396875D01*
X1222375Y384175D02*
X971550Y384175D01*
X968375Y381000D01*
X952500Y381000D01*
X949325Y377825D01*
X939800Y377825D01*
D32*
X1235075Y396875D03*
X939800Y377825D03*
D31*
X1282700Y622300D02*
X1314450Y590550D01*
X1282700Y622300D02*
X1089025Y622300D01*
X1085850Y625475D01*
X885825Y625475D01*
X882650Y622300D01*
D32*
X882650Y622300D03*
D31*
X920750Y238125D02*
X923925Y234950D01*
X920750Y238125D02*
X879475Y238125D01*
X863600Y254000D01*
D32*
X923925Y234950D03*
D31*
X1228725Y609600D02*
X1235075Y615950D01*
X1228725Y609600D02*
X1089025Y609600D01*
X1085850Y606425D01*
X1044575Y606425D01*
X1031875Y619125D01*
X885825Y619125D01*
X882650Y615950D01*
X835025Y615950D01*
X831850Y619125D01*
D32*
X1235075Y615950D03*
X831850Y619125D03*
D31*
X536575Y447675D02*
X520700Y463550D01*
X536575Y447675D02*
X749300Y447675D01*
D32*
X749300Y447675D03*
D31*
X720725Y298450D02*
X606425Y298450D01*
D32*
X606425Y298450D03*
X720725Y298450D03*
D31*
X635000Y263525D02*
X625475Y273050D01*
X635000Y263525D02*
X701675Y263525D01*
X711200Y254000D01*
D32*
X625475Y273050D03*
D31*
X698500Y244475D02*
X701675Y247650D01*
X698500Y244475D02*
X669925Y244475D01*
X660400Y254000D01*
D32*
X701675Y247650D03*
D31*
X631825Y292100D02*
X619125Y279400D01*
X619125Y254000D01*
X635000Y254000D01*
D32*
X631825Y292100D03*
D31*
X568325Y511175D02*
X596900Y539750D01*
X568325Y511175D02*
X539750Y511175D01*
D32*
X539750Y511175D03*
D31*
X511175Y342900D02*
X511175Y263525D01*
X574675Y263525D01*
X584200Y254000D01*
D32*
X511175Y342900D03*
D31*
X819150Y628650D02*
X1130300Y628650D01*
X819150Y628650D02*
X812800Y622300D01*
D32*
X1130300Y628650D03*
X812800Y622300D03*
D31*
X831850Y377825D02*
X841375Y368300D01*
X1066800Y368300D01*
X1079500Y355600D01*
X1123950Y355600D01*
X1130300Y361950D01*
X1250950Y361950D01*
X1254125Y358775D01*
D32*
X831850Y377825D03*
X1254125Y358775D03*
D31*
X917575Y441325D02*
X901700Y457200D01*
X917575Y441325D02*
X1063625Y441325D01*
X1082675Y371475D02*
X1235075Y371475D01*
D32*
X1063625Y441325D03*
X1082675Y371475D03*
X1235075Y371475D03*
D31*
X936625Y485775D02*
X933450Y482600D01*
X936625Y485775D02*
X1146175Y485775D01*
X1152525Y479425D01*
X1209675Y479425D01*
D32*
X933450Y482600D03*
X1209675Y479425D03*
D31*
X1019175Y473075D02*
X1003300Y457200D01*
X1019175Y473075D02*
X1060450Y473075D01*
X1069975Y463550D01*
X1104900Y463550D01*
X1108075Y466725D01*
X1158875Y466725D01*
D32*
X1158875Y466725D03*
D31*
X1149350Y488950D02*
X927100Y488950D01*
D32*
X927100Y488950D03*
X1149350Y488950D03*
D31*
X1139825Y311150D02*
X1117600Y288925D01*
X1085850Y288925D01*
X1076325Y279400D01*
X1066800Y279400D01*
D32*
X1139825Y311150D03*
D31*
X1295400Y403225D02*
X1298575Y400050D01*
X1295400Y403225D02*
X1044575Y403225D01*
X1031875Y390525D01*
X965200Y390525D01*
D32*
X1298575Y400050D03*
X965200Y390525D03*
D31*
X1279525Y415925D02*
X1314450Y450850D01*
X1279525Y415925D02*
X1165225Y415925D01*
X1162050Y419100D01*
X1133475Y419100D01*
X1101725Y311150D02*
X1079500Y288925D01*
X1000125Y288925D01*
X990600Y279400D01*
D32*
X1133475Y419100D03*
X1101725Y311150D03*
D31*
X1216025Y428625D02*
X1238250Y450850D01*
X1216025Y428625D02*
X1019175Y428625D01*
X1016000Y425450D01*
D32*
X1016000Y425450D03*
D31*
X1120775Y492125D02*
X1130300Y501650D01*
X1120775Y492125D02*
X930275Y492125D01*
X927100Y495300D01*
X889000Y495300D01*
D32*
X1130300Y501650D03*
X889000Y495300D03*
D31*
X927100Y330200D02*
X911225Y314325D01*
X819150Y314325D01*
X812800Y307975D01*
X625475Y307975D01*
X606425Y327025D01*
X606425Y346075D01*
X593725Y346075D01*
X587375Y339725D01*
X587375Y288925D01*
X600075Y288925D01*
X609600Y279400D01*
X635000Y279400D02*
X644525Y269875D01*
X895350Y269875D01*
X904875Y279400D01*
X904875Y311150D01*
X1057275Y311150D01*
X1066800Y320675D01*
X1079500Y361950D02*
X1082675Y365125D01*
X1257300Y365125D01*
X1260475Y361950D01*
X1270000Y361950D01*
X1289050Y381000D01*
D32*
X1066800Y320675D03*
X1079500Y361950D03*
D31*
X825500Y330200D02*
X809625Y346075D01*
X781050Y346075D01*
X777875Y342900D01*
X730250Y342900D01*
X727075Y346075D01*
X663575Y346075D01*
D32*
X663575Y346075D03*
D31*
X549275Y377825D02*
X520700Y406400D01*
X549275Y377825D02*
X676275Y377825D01*
D32*
X676275Y377825D03*
D31*
X644525Y384175D02*
X622300Y406400D01*
X644525Y384175D02*
X714375Y384175D01*
X720725Y377825D01*
D32*
X720725Y377825D03*
D31*
X717550Y387350D02*
X698500Y406400D01*
X717550Y387350D02*
X758825Y387350D01*
D32*
X758825Y387350D03*
D31*
X641350Y311150D02*
X622300Y330200D01*
X641350Y311150D02*
X809625Y311150D01*
X812800Y314325D01*
D32*
X812800Y314325D03*
D31*
X622300Y304800D02*
X596900Y330200D01*
X622300Y304800D02*
X812800Y304800D01*
X838200Y279400D01*
X679450Y1746250D02*
X647700Y1778000D01*
X635000Y1778000D01*
D32*
X679450Y1746250D03*
D31*
X593725Y1476375D02*
X593725Y1447800D01*
X593725Y1476375D02*
X708025Y1476375D01*
X723900Y1492250D01*
X1076325Y1431925D02*
X1092200Y1416050D01*
X1076325Y1431925D02*
X971550Y1431925D01*
X958850Y1444625D01*
X749300Y1444625D01*
X727075Y1466850D01*
D32*
X593725Y1447800D03*
X727075Y1466850D03*
D31*
X565150Y1041400D02*
X552450Y1028700D01*
X565150Y1041400D02*
X704850Y1041400D01*
X1108075Y1450975D02*
X1143000Y1416050D01*
X1108075Y1450975D02*
X752475Y1450975D01*
D32*
X704850Y1041400D03*
X752475Y1450975D03*
D31*
X692150Y1520825D02*
X688975Y1524000D01*
X692150Y1520825D02*
X796925Y1520825D01*
X806450Y1511300D02*
X825500Y1492250D01*
X806450Y1511300D02*
X796925Y1520825D01*
X1193800Y1416050D02*
X1254125Y1476375D01*
X1254125Y1511300D01*
X806450Y1511300D01*
D32*
X688975Y1524000D03*
D31*
X714375Y1476375D02*
X676275Y1438275D01*
X714375Y1476375D02*
X835025Y1476375D01*
X850900Y1492250D01*
X1184275Y1479550D02*
X1184275Y1508125D01*
X866775Y1508125D01*
X850900Y1492250D01*
D32*
X676275Y1438275D03*
X1184275Y1479550D03*
D31*
X565150Y965200D02*
X552450Y952500D01*
X565150Y965200D02*
X688975Y965200D01*
X692150Y968375D01*
X822325Y968375D01*
X838200Y984250D01*
X1177925Y1425575D02*
X1244600Y1492250D01*
X1177925Y1425575D02*
X1177925Y1393825D01*
X873125Y1393825D01*
D32*
X838200Y984250D03*
X873125Y1393825D03*
D31*
X536575Y942975D02*
X552450Y927100D01*
X536575Y942975D02*
X536575Y1019175D01*
X688975Y1019175D01*
X714375Y1044575D01*
X730250Y1044575D01*
X1193800Y1447800D02*
X1193800Y1492250D01*
X1193800Y1447800D02*
X1181100Y1447800D01*
X1152525Y1419225D01*
X1152525Y1400175D01*
X841375Y1400175D01*
X825500Y1416050D01*
D32*
X730250Y1044575D03*
D31*
X561975Y911225D02*
X552450Y901700D01*
X561975Y911225D02*
X577850Y911225D01*
X1108075Y1457325D02*
X1143000Y1492250D01*
X1108075Y1457325D02*
X755650Y1457325D01*
D32*
X577850Y911225D03*
X755650Y1457325D03*
D31*
X622300Y876300D02*
X552450Y876300D01*
X622300Y876300D02*
X631825Y885825D01*
X673100Y885825D01*
X676275Y882650D01*
X692150Y882650D01*
X1076325Y1476375D02*
X1092200Y1492250D01*
X1076325Y1476375D02*
X841375Y1476375D01*
X831850Y1466850D01*
X733425Y1466850D01*
D32*
X692150Y882650D03*
X733425Y1466850D03*
D31*
X552450Y1428750D02*
X517525Y1393825D01*
X552450Y1428750D02*
X666750Y1428750D01*
X669925Y1431925D01*
X809625Y1431925D01*
X815975Y1438275D01*
X958850Y1438275D01*
X981075Y1416050D01*
X1041400Y1416050D01*
D32*
X517525Y1393825D03*
D31*
X533400Y901700D02*
X476250Y901700D01*
X533400Y901700D02*
X549275Y917575D01*
X612775Y917575D01*
X631825Y936625D01*
X838200Y936625D01*
D32*
X838200Y936625D03*
D31*
X482600Y1539875D02*
X482600Y1638300D01*
X1285875Y1638300D01*
X1397000Y1749425D01*
X1397000Y1750060D01*
D32*
X482600Y1539875D03*
D31*
X568325Y1539875D02*
X571500Y1536700D01*
X1301750Y1536700D01*
X1377950Y1612900D01*
X1397000Y1612900D01*
D32*
X568325Y1539875D03*
D31*
X781050Y1752600D02*
X825500Y1708150D01*
X781050Y1752600D02*
X749300Y1752600D01*
D32*
X825500Y1708150D03*
D31*
X790575Y1730375D02*
X781050Y1739900D01*
X647700Y1739900D01*
X635000Y1752600D01*
D32*
X790575Y1730375D03*
D31*
X815975Y1431925D02*
X800100Y1416050D01*
X815975Y1431925D02*
X946150Y1431925D01*
D32*
X946150Y1431925D03*
D31*
X774700Y1492250D02*
X749300Y1517650D01*
X596900Y1517650D01*
D32*
X596900Y1517650D03*
D31*
X406400Y1676400D02*
X406400Y1750060D01*
X406400Y1676400D02*
X387350Y1676400D01*
X371475Y1660525D01*
X371475Y1508125D01*
X682625Y1508125D01*
X698500Y1492250D01*
X781050Y1647825D02*
X876300Y1743075D01*
X1082675Y1743075D01*
X1092200Y1752600D01*
D32*
X781050Y1647825D03*
D31*
X708025Y1641475D02*
X704850Y1644650D01*
X708025Y1641475D02*
X1038225Y1641475D01*
X1149350Y1752600D01*
X1206500Y1752600D01*
D32*
X704850Y1644650D03*
D31*
X1152525Y1628775D02*
X1168400Y1612900D01*
X1152525Y1628775D02*
X879475Y1628775D01*
X863600Y1612900D01*
D32*
X1168400Y1612900D03*
D31*
X1216025Y1593850D02*
X1266825Y1543050D01*
X1216025Y1593850D02*
X768350Y1593850D01*
X749300Y1612900D01*
D32*
X1266825Y1543050D03*
D31*
X1092200Y1517650D02*
X1076325Y1533525D01*
X403225Y1533525D01*
X374650Y1562100D01*
X374650Y1612900D01*
X406400Y1612900D01*
D32*
X1092200Y1517650D03*
D31*
X1143000Y1590675D02*
X1190625Y1543050D01*
X1143000Y1590675D02*
X657225Y1590675D01*
X635000Y1612900D01*
D32*
X1190625Y1543050D03*
D31*
X1152525Y1543050D02*
X1108075Y1587500D01*
X546100Y1587500D01*
X520700Y1612900D01*
D32*
X1152525Y1543050D03*
D31*
X1365250Y1860550D02*
X1320800Y1905000D01*
X1244600Y1905000D01*
X1231900Y1917700D01*
X571500Y1435100D02*
X552450Y1454150D01*
X533400Y1454150D01*
D32*
X571500Y1435100D03*
D31*
X644525Y203200D02*
X660400Y187325D01*
X1177925Y187325D01*
X1219200Y228600D01*
X1425575Y244475D02*
X1460500Y279400D01*
X1425575Y244475D02*
X1235075Y244475D01*
X1219200Y228600D01*
D32*
X644525Y203200D03*
D31*
X527050Y219075D02*
X514350Y231775D01*
X527050Y219075D02*
X676275Y219075D01*
X685800Y228600D01*
X1108075Y898525D02*
X1095375Y911225D01*
X669925Y911225D01*
X650875Y892175D01*
X549275Y892175D01*
X444500Y787400D01*
D32*
X514350Y231775D03*
X1108075Y898525D03*
X444500Y787400D03*
D31*
X400050Y476250D02*
X393700Y469900D01*
X463550Y476250D02*
X485775Y476250D01*
X463550Y476250D02*
X400050Y476250D01*
X485775Y476250D02*
X492125Y482600D01*
X631825Y431800D02*
X641350Y422275D01*
X631825Y431800D02*
X508000Y431800D01*
X463550Y476250D01*
D32*
X492125Y482600D03*
X641350Y422275D03*
D31*
X527050Y365125D02*
X854075Y365125D01*
X866775Y352425D01*
D32*
X527050Y365125D03*
X866775Y352425D03*
D31*
X581025Y441325D02*
X577850Y438150D01*
X581025Y441325D02*
X749300Y441325D01*
X768350Y460375D01*
X768350Y479425D01*
X866775Y479425D01*
X869950Y476250D01*
X1063625Y476250D01*
X1073150Y466725D01*
X1101725Y466725D01*
X1108075Y473075D01*
X1260475Y473075D01*
X1273175Y460375D01*
X1273175Y428625D01*
D32*
X577850Y438150D03*
X1273175Y428625D03*
D31*
X539750Y1066800D02*
X536575Y1069975D01*
X539750Y1066800D02*
X1289050Y1066800D01*
X1301750Y1054100D01*
D32*
X536575Y1069975D03*
D31*
X606425Y765175D02*
X571500Y730250D01*
X606425Y765175D02*
X923925Y765175D01*
X930275Y758825D01*
X984250Y758825D01*
X1025525Y1019175D02*
X1292225Y1019175D01*
X1301750Y1028700D01*
D32*
X984250Y758825D03*
X1025525Y1019175D03*
D31*
X663575Y714375D02*
X647700Y730250D01*
X663575Y714375D02*
X955675Y714375D01*
X968375Y727075D01*
X968375Y746125D01*
X1054100Y746125D01*
X1063625Y736600D01*
X1066800Y736600D01*
X1104900Y1000125D02*
X1120775Y1000125D01*
X1127125Y993775D01*
X1292225Y993775D01*
X1301750Y1003300D01*
D32*
X1066800Y736600D03*
X1104900Y1000125D03*
D31*
X663575Y971550D02*
X660400Y968375D01*
X600075Y968375D01*
X593725Y974725D01*
X593725Y993775D01*
X974725Y993775D01*
X977900Y990600D01*
X1111250Y990600D01*
X1114425Y987425D01*
X1292225Y987425D01*
X1301750Y977900D01*
D32*
X663575Y971550D03*
D31*
X676275Y889000D02*
X927100Y889000D01*
X930275Y892175D01*
X1184275Y892175D01*
X1187450Y889000D01*
X1231900Y889000D01*
X1263650Y920750D01*
D32*
X676275Y889000D03*
X1263650Y920750D03*
D31*
X663575Y876300D02*
X650875Y863600D01*
X663575Y876300D02*
X698500Y876300D01*
X708025Y885825D01*
X930275Y885825D01*
X933450Y889000D01*
X1181100Y889000D01*
X1184275Y885825D01*
X1266825Y885825D01*
X1301750Y920750D01*
X1301750Y927100D01*
D32*
X650875Y863600D03*
D31*
X600075Y974725D02*
X615950Y990600D01*
X939800Y990600D01*
X962025Y968375D01*
X1273175Y968375D01*
X1279525Y962025D01*
X1311275Y962025D01*
X1327150Y946150D01*
X1327150Y908050D01*
X1323975Y908050D01*
X1317625Y901700D01*
X1301750Y901700D01*
D32*
X600075Y974725D03*
D31*
X593725Y854075D02*
X546100Y806450D01*
X593725Y854075D02*
X723900Y854075D01*
X727075Y857250D01*
X908050Y857250D01*
X914400Y850900D01*
X1295400Y850900D01*
X1298575Y854075D01*
X1317625Y854075D01*
X1320800Y857250D01*
D32*
X1320800Y857250D03*
D31*
X1365250Y863600D02*
X1377950Y876300D01*
X1365250Y863600D02*
X1320800Y863600D01*
X1314450Y857250D01*
X914400Y857250D01*
D32*
X914400Y857250D03*
D31*
X876300Y777875D02*
X1066800Y777875D01*
X1073150Y771525D01*
X1336675Y771525D01*
X1346200Y781050D01*
D32*
X876300Y777875D03*
X1346200Y781050D03*
D31*
X1314450Y863600D02*
X965200Y863600D01*
X1314450Y863600D02*
X1377950Y927100D01*
D32*
X965200Y863600D03*
D31*
X990600Y873125D02*
X996950Y866775D01*
X1273175Y866775D01*
X1298575Y892175D01*
X1317625Y892175D01*
X1377950Y952500D01*
D32*
X990600Y873125D03*
D31*
X990600Y847725D02*
X984250Y841375D01*
X990600Y847725D02*
X1298575Y847725D01*
X1301750Y850900D01*
X1371600Y850900D01*
X1393825Y873125D01*
X1393825Y977900D01*
X1377950Y977900D01*
D32*
X984250Y841375D03*
D31*
X987425Y1000125D02*
X1000125Y1012825D01*
X1368425Y1012825D01*
X1377950Y1003300D01*
D32*
X987425Y1000125D03*
D31*
X876300Y806450D02*
X892175Y790575D01*
X1108075Y790575D01*
X1117600Y781050D01*
X1282700Y781050D01*
X1304925Y803275D01*
X1304925Y847725D01*
X1374775Y847725D01*
X1397000Y869950D01*
X1397000Y1028700D01*
X1377950Y1028700D01*
X835025Y1069975D02*
X831850Y1073150D01*
X835025Y1069975D02*
X1362075Y1069975D01*
X1377950Y1054100D01*
D32*
X831850Y1073150D03*
D31*
X806450Y1054100D02*
X815975Y1044575D01*
X1149350Y1044575D01*
X1152525Y1047750D01*
D32*
X1152525Y1047750D03*
D31*
X819150Y1041400D02*
X806450Y1028700D01*
X819150Y1041400D02*
X1177925Y1041400D01*
X1184275Y1047750D01*
X1222375Y749300D02*
X1219200Y746125D01*
X1203325Y746125D01*
X1187450Y730250D01*
D32*
X1184275Y1047750D03*
X1222375Y749300D03*
D31*
X854075Y768350D02*
X841375Y781050D01*
X854075Y768350D02*
X927100Y768350D01*
X930275Y771525D01*
X1060450Y771525D01*
X1066800Y765175D01*
X1260475Y765175D01*
X1263650Y762000D01*
D32*
X841375Y781050D03*
X1263650Y762000D03*
D31*
X1089025Y701675D02*
X815975Y701675D01*
X1089025Y701675D02*
X1098550Y711200D01*
X1270000Y711200D01*
X1289050Y730250D01*
D32*
X815975Y701675D03*
D31*
X806450Y952500D02*
X815975Y962025D01*
X1076325Y962025D01*
X1085850Y844550D02*
X1082675Y841375D01*
X1085850Y844550D02*
X1250950Y844550D01*
X1289050Y806450D01*
D32*
X1076325Y962025D03*
X1082675Y841375D03*
D31*
X809625Y930275D02*
X806450Y927100D01*
X809625Y930275D02*
X866775Y930275D01*
X876300Y939800D01*
X1257300Y939800D01*
D32*
X1257300Y939800D03*
D31*
X835025Y828675D02*
X822325Y841375D01*
X835025Y828675D02*
X1165225Y828675D01*
X1187450Y806450D01*
D32*
X822325Y841375D03*
D31*
X822325Y825500D02*
X806450Y841375D01*
X822325Y825500D02*
X1143000Y825500D01*
X1162050Y806450D01*
D32*
X806450Y841375D03*
D31*
X561975Y714375D02*
X542925Y695325D01*
X561975Y714375D02*
X625475Y714375D01*
X638175Y727075D01*
X638175Y746125D01*
X844550Y746125D01*
X854075Y755650D01*
X882650Y755650D01*
D32*
X542925Y695325D03*
X882650Y755650D03*
D31*
X584200Y889000D02*
X577850Y882650D01*
X584200Y889000D02*
X669925Y889000D01*
X676275Y895350D01*
X704850Y895350D01*
X708025Y892175D01*
X873125Y892175D01*
X882650Y901700D01*
D32*
X577850Y882650D03*
D31*
X654050Y917575D02*
X863600Y917575D01*
X873125Y927100D01*
X882650Y927100D01*
D32*
X654050Y917575D03*
D31*
X679450Y949325D02*
X695325Y965200D01*
X869950Y965200D01*
X882650Y977900D01*
D32*
X679450Y949325D03*
D31*
X628650Y911225D02*
X625475Y908050D01*
X628650Y911225D02*
X663575Y911225D01*
X666750Y914400D01*
X866775Y914400D01*
X869950Y917575D01*
D32*
X625475Y908050D03*
X869950Y917575D03*
D31*
X593725Y701675D02*
X571500Y679450D01*
X593725Y701675D02*
X758825Y701675D01*
X755650Y1019175D02*
X854075Y1019175D01*
X863600Y1028700D01*
X882650Y1028700D01*
D32*
X758825Y701675D03*
X755650Y1019175D03*
D31*
X574675Y708025D02*
X546100Y679450D01*
X574675Y708025D02*
X863600Y708025D01*
D32*
X863600Y708025D03*
D31*
X835025Y612775D02*
X850900Y596900D01*
X835025Y612775D02*
X815975Y612775D01*
X806450Y622300D01*
X806450Y631825D01*
X1025525Y631825D01*
X1047750Y654050D01*
D32*
X1047750Y654050D03*
D31*
X1019175Y1019175D02*
X898525Y1019175D01*
X1019175Y1019175D02*
X1038225Y1038225D01*
X1127125Y1038225D01*
X1136650Y1028700D01*
D32*
X898525Y1019175D03*
D31*
X952500Y596900D02*
X968375Y581025D01*
X1035050Y581025D01*
X1047750Y593725D01*
X1060450Y593725D01*
D32*
X1060450Y593725D03*
D31*
X1006475Y984250D02*
X1009650Y987425D01*
X1108075Y987425D01*
X1117600Y977900D01*
X1136650Y977900D01*
D32*
X1006475Y984250D03*
D31*
X996950Y692150D02*
X977900Y673100D01*
X996950Y692150D02*
X1073150Y692150D01*
X1098550Y952500D02*
X1136650Y952500D01*
D32*
X1073150Y692150D03*
X1098550Y952500D03*
D31*
X958850Y698500D02*
X955675Y695325D01*
X958850Y698500D02*
X1092200Y698500D01*
X1092200Y927100D02*
X1136650Y927100D01*
D32*
X955675Y695325D03*
X1092200Y698500D03*
X1092200Y927100D03*
D31*
X1174750Y876300D02*
X1212850Y876300D01*
D32*
X1174750Y876300D03*
D31*
X1187450Y895350D02*
X1193800Y901700D01*
X1212850Y901700D01*
D32*
X1187450Y895350D03*
D31*
X1270000Y895350D02*
X1270000Y927100D01*
X1212850Y927100D01*
D32*
X1270000Y895350D03*
D31*
X1282700Y917575D02*
X1282700Y939800D01*
X1263650Y939800D01*
X1250950Y952500D01*
X1212850Y952500D01*
D32*
X1282700Y917575D03*
D31*
X1276350Y971550D02*
X1270000Y977900D01*
X1212850Y977900D01*
D32*
X1276350Y971550D03*
D31*
X1225550Y704850D02*
X1187450Y666750D01*
X1225550Y704850D02*
X1235075Y704850D01*
D32*
X1235075Y704850D03*
D31*
X1168400Y1025525D02*
X1196975Y1054100D01*
X1212850Y1054100D01*
D32*
X1168400Y1025525D03*
D31*
X511175Y1044575D02*
X511175Y908050D01*
X511175Y1044575D02*
X631825Y1044575D01*
X641350Y1054100D01*
D32*
X511175Y908050D03*
D31*
X628650Y482600D02*
X647700Y463550D01*
D32*
X628650Y482600D03*
D31*
X654050Y482600D02*
X673100Y463550D01*
D32*
X654050Y482600D03*
D31*
X584200Y898525D02*
X587375Y901700D01*
X641350Y901700D01*
D32*
X584200Y898525D03*
D31*
X584200Y873125D02*
X530225Y819150D01*
X584200Y873125D02*
X638175Y873125D01*
X641350Y876300D01*
D32*
X530225Y819150D03*
D31*
X835025Y473075D02*
X850900Y457200D01*
X835025Y473075D02*
X774700Y473075D01*
X752475Y866775D02*
X742950Y876300D01*
X717550Y876300D01*
D32*
X774700Y473075D03*
X752475Y866775D03*
D31*
X860425Y504825D02*
X876300Y488950D01*
X860425Y504825D02*
X762000Y504825D01*
X768350Y898525D02*
X765175Y901700D01*
X717550Y901700D01*
D32*
X876300Y488950D03*
X762000Y504825D03*
X768350Y898525D03*
D31*
X923925Y847725D02*
X936625Y835025D01*
X923925Y847725D02*
X787400Y847725D01*
X781050Y854075D01*
X730250Y854075D01*
X727075Y850900D01*
D32*
X936625Y835025D03*
X727075Y850900D03*
D31*
X962025Y787400D02*
X965200Y784225D01*
X962025Y787400D02*
X866775Y787400D01*
X863600Y790575D01*
X749300Y790575D01*
X739775Y781050D01*
X704850Y781050D01*
D32*
X965200Y784225D03*
X704850Y781050D03*
D31*
X968375Y561975D02*
X971550Y558800D01*
X968375Y561975D02*
X781050Y561975D01*
X762000Y974725D02*
X758825Y977900D01*
X717550Y977900D01*
D32*
X971550Y558800D03*
X781050Y561975D03*
X762000Y974725D03*
D31*
X939800Y1012825D02*
X952500Y1000125D01*
X939800Y1012825D02*
X860425Y1012825D01*
X857250Y1009650D01*
X819150Y1009650D01*
X815975Y1012825D01*
X762000Y1012825D01*
X752475Y1003300D01*
X717550Y1003300D01*
D32*
X952500Y1000125D03*
D31*
X857250Y1016000D02*
X758825Y1016000D01*
X755650Y1012825D01*
X733425Y1012825D01*
X717550Y1028700D01*
D32*
X857250Y1016000D03*
D31*
X835025Y549275D02*
X850900Y533400D01*
X835025Y549275D02*
X768350Y549275D01*
X765175Y546100D01*
X758825Y546100D01*
X733425Y571500D01*
D32*
X733425Y571500D03*
D31*
X958850Y1028700D02*
X952500Y1035050D01*
X958850Y1028700D02*
X971550Y1028700D01*
D32*
X952500Y1035050D03*
D31*
X1247775Y466725D02*
X1263650Y450850D01*
X1247775Y466725D02*
X1165225Y466725D01*
X1114425Y993775D02*
X981075Y993775D01*
X971550Y1003300D01*
D32*
X1165225Y466725D03*
X1114425Y993775D03*
D31*
X1241425Y644525D02*
X1254125Y631825D01*
X1241425Y644525D02*
X1101725Y644525D01*
X1085850Y660400D01*
X1035050Y660400D01*
X1031875Y657225D01*
X1019175Y657225D01*
X1016000Y660400D01*
X1012825Y974725D02*
X1009650Y977900D01*
X971550Y977900D01*
D32*
X1254125Y631825D03*
X1016000Y660400D03*
X1012825Y974725D03*
D31*
X1320800Y942975D02*
X1320800Y911225D01*
X1320800Y942975D02*
X1279525Y942975D01*
X1260475Y962025D01*
X1165225Y962025D01*
X1146175Y942975D01*
X996950Y942975D01*
X987425Y952500D01*
X971550Y952500D01*
D32*
X1320800Y911225D03*
D31*
X1263650Y527050D02*
X1247775Y511175D01*
X1187450Y511175D01*
X1196975Y908050D02*
X1168400Y936625D01*
X981075Y936625D01*
X971550Y927100D01*
D32*
X1187450Y511175D03*
X1196975Y908050D03*
D31*
X1181100Y558800D02*
X1187450Y552450D01*
X1181100Y558800D02*
X1025525Y558800D01*
X1019175Y898525D02*
X1016000Y901700D01*
X971550Y901700D01*
D32*
X1187450Y552450D03*
X1025525Y558800D03*
X1019175Y898525D03*
D31*
X1146175Y835025D02*
X1149350Y838200D01*
X1146175Y835025D02*
X977900Y835025D01*
D32*
X1149350Y838200D03*
X977900Y835025D03*
D31*
X571500Y942975D02*
X568325Y939800D01*
X571500Y942975D02*
X984250Y942975D01*
X987425Y946150D01*
X993775Y879475D02*
X996950Y876300D01*
X1047750Y876300D01*
D32*
X568325Y939800D03*
X987425Y946150D03*
X993775Y879475D03*
D31*
X590550Y857250D02*
X561975Y828675D01*
X590550Y857250D02*
X720725Y857250D01*
X723900Y860425D01*
X911225Y860425D01*
X936625Y885825D01*
X1028700Y885825D01*
X1031875Y882650D01*
D32*
X561975Y828675D03*
X1031875Y882650D03*
D31*
X663575Y581025D02*
X660400Y577850D01*
X663575Y581025D02*
X879475Y581025D01*
X892175Y593725D01*
X892175Y612775D01*
X898525Y612775D01*
X946150Y917575D02*
X1038225Y917575D01*
X1047750Y927100D01*
D32*
X660400Y577850D03*
X898525Y612775D03*
X946150Y917575D03*
D31*
X879475Y695325D02*
X669925Y695325D01*
D32*
X669925Y695325D03*
X879475Y695325D03*
D31*
X698500Y577850D02*
X692150Y571500D01*
X698500Y577850D02*
X1038225Y577850D01*
X1025525Y974725D02*
X1028700Y977900D01*
X1047750Y977900D01*
D32*
X692150Y571500D03*
X1038225Y577850D03*
X1025525Y974725D03*
D31*
X663575Y422275D02*
X647700Y406400D01*
X663575Y422275D02*
X1003300Y422275D01*
X1012825Y431800D01*
X1111250Y431800D01*
X1123950Y444500D01*
D32*
X1123950Y444500D03*
X1092200Y974725D03*
D31*
X549275Y428625D02*
X571500Y406400D01*
X549275Y428625D02*
X447675Y428625D01*
X450850Y1066800D02*
X450850Y1089025D01*
X1012825Y1089025D01*
D32*
X447675Y428625D03*
X450850Y1066800D03*
X1012825Y1089025D03*
D31*
X530225Y422275D02*
X546100Y406400D01*
X530225Y422275D02*
X479425Y422275D01*
X504825Y908050D02*
X504825Y1063625D01*
X1038225Y1063625D01*
X1047750Y1054100D01*
D32*
X479425Y422275D03*
X504825Y908050D03*
D31*
X762000Y542925D02*
X781050Y523875D01*
X762000Y542925D02*
X739775Y542925D01*
X717550Y565150D01*
X685800Y565150D01*
X679450Y571500D01*
X412750Y571500D01*
X396875Y587375D01*
X384175Y587375D01*
X377825Y593725D01*
X377825Y1054100D01*
X476250Y1054100D01*
D32*
X781050Y523875D03*
D31*
X857250Y349250D02*
X876300Y330200D01*
X857250Y349250D02*
X777875Y349250D01*
X774700Y346075D01*
X733425Y346075D01*
X727075Y352425D01*
X488950Y352425D01*
X479425Y342900D01*
D32*
X479425Y342900D03*
D31*
X787400Y384175D02*
X949325Y384175D01*
X787400Y384175D02*
X774700Y371475D01*
X479425Y371475D01*
D32*
X949325Y384175D03*
X479425Y371475D03*
D31*
X962025Y346075D02*
X977900Y330200D01*
X962025Y346075D02*
X920750Y346075D01*
X917575Y342900D01*
X895350Y638175D02*
X882650Y650875D01*
X781050Y650875D01*
X774700Y657225D01*
X755650Y657225D01*
X746125Y647700D01*
X536575Y647700D01*
X530225Y654050D01*
X530225Y714375D01*
X488950Y714375D01*
X434975Y768350D01*
X434975Y977900D01*
X476250Y977900D01*
D32*
X917575Y342900D03*
X895350Y638175D03*
D31*
X1095375Y434975D02*
X1111250Y450850D01*
X1095375Y434975D02*
X822325Y434975D01*
X800100Y457200D01*
X511175Y587375D02*
X495300Y603250D01*
X511175Y587375D02*
X790575Y587375D01*
X800100Y596900D01*
X1323975Y542925D02*
X1339850Y527050D01*
X1323975Y542925D02*
X1038225Y542925D01*
X1028700Y533400D01*
X739775Y806450D02*
X755650Y822325D01*
X781050Y847725D01*
X739775Y806450D02*
X723900Y806450D01*
X1012825Y822325D02*
X1028700Y806450D01*
X1012825Y822325D02*
X755650Y822325D01*
D32*
X781050Y847725D03*
D31*
X901700Y349250D02*
X901700Y330200D01*
X901700Y349250D02*
X1254125Y349250D01*
X1263650Y358775D01*
X1292225Y358775D01*
X1314450Y381000D01*
X1019175Y346075D02*
X1003300Y330200D01*
X1019175Y346075D02*
X1257300Y346075D01*
X1260475Y349250D01*
X1295400Y349250D01*
X1314450Y330200D01*
X822325Y1254125D02*
X781050Y1295400D01*
X822325Y1254125D02*
X1279525Y1254125D01*
X1333500Y1200150D01*
D32*
X1333500Y1200150D03*
D31*
X857250Y1193800D02*
X755650Y1295400D01*
X857250Y1193800D02*
X1384300Y1193800D01*
X1482725Y1095375D01*
X1482725Y396875D01*
X1320800Y396875D01*
X1317625Y400050D01*
X1304925Y400050D01*
X1298575Y393700D01*
X1292225Y400050D01*
X1282700Y400050D01*
X1263650Y381000D01*
M02*
