G04 EAGLE Gerber RS-274X export*
G75*
%MOMM*%
%FSLAX34Y34*%
%LPD*%
%INSoldermask Top*%
%IPPOS*%
%AMOC8*
5,1,8,0,0,1.08239X$1,22.5*%
G01*
%ADD10C,1.346200*%
%ADD11C,1.346200*%
%ADD12P,1.677055X8X202.500000*%
%ADD13P,1.677055X8X112.500000*%
%ADD14R,1.627000X1.627000*%
%ADD15C,1.905000*%
%ADD16P,1.457113X8X22.500000*%
%ADD17P,1.457113X8X202.500000*%
%ADD18P,1.951982X8X112.500000*%
%ADD19P,1.457113X8X292.500000*%
%ADD20P,1.677055X8X22.500000*%
%ADD21C,1.651000*%
%ADD22P,1.787026X8X292.500000*%
%ADD23C,2.921000*%
%ADD24C,2.832100*%
%ADD25P,1.457113X8X112.500000*%
%ADD26P,1.677055X8X292.500000*%
%ADD27C,1.498600*%
%ADD28C,0.889000*%
%ADD29C,1.270000*%
%ADD30R,2.032000X2.032000*%
%ADD31C,2.032000*%
%ADD32C,0.584200*%


D10*
X890270Y1357630D03*
X890270Y1309370D03*
D11*
X501650Y1301496D02*
X501650Y1289304D01*
X527050Y1289304D02*
X527050Y1301496D01*
X552450Y1301496D02*
X552450Y1289304D01*
X577850Y1289304D02*
X577850Y1301496D01*
X603250Y1301496D02*
X603250Y1289304D01*
X628650Y1289304D02*
X628650Y1301496D01*
X654050Y1301496D02*
X654050Y1289304D01*
X679450Y1289304D02*
X679450Y1301496D01*
X704850Y1301496D02*
X704850Y1289304D01*
X730250Y1289304D02*
X730250Y1301496D01*
X755650Y1301496D02*
X755650Y1289304D01*
X781050Y1289304D02*
X781050Y1301496D01*
X806450Y1301496D02*
X806450Y1289304D01*
X831850Y1289304D02*
X831850Y1301496D01*
X831850Y1365504D02*
X831850Y1377696D01*
X806450Y1377696D02*
X806450Y1365504D01*
X781050Y1365504D02*
X781050Y1377696D01*
X755650Y1377696D02*
X755650Y1365504D01*
X730250Y1365504D02*
X730250Y1377696D01*
X704850Y1377696D02*
X704850Y1365504D01*
X679450Y1365504D02*
X679450Y1377696D01*
X654050Y1377696D02*
X654050Y1365504D01*
X628650Y1365504D02*
X628650Y1377696D01*
X603250Y1377696D02*
X603250Y1365504D01*
X577850Y1365504D02*
X577850Y1377696D01*
X552450Y1377696D02*
X552450Y1365504D01*
X527050Y1365504D02*
X527050Y1377696D01*
X501650Y1377696D02*
X501650Y1365504D01*
D12*
X971550Y1310640D03*
X946150Y1310640D03*
X974090Y1356360D03*
X948690Y1356360D03*
X1193800Y1860550D03*
X1168400Y1860550D03*
D13*
X438150Y1346200D03*
X438150Y1371600D03*
X438150Y1295400D03*
X438150Y1320800D03*
D11*
X1371854Y876300D02*
X1384046Y876300D01*
X1384046Y901700D02*
X1371854Y901700D01*
X1371854Y927100D02*
X1384046Y927100D01*
X1384046Y952500D02*
X1371854Y952500D01*
X1371854Y977900D02*
X1384046Y977900D01*
X1384046Y1003300D02*
X1371854Y1003300D01*
X1371854Y1028700D02*
X1384046Y1028700D01*
X1384046Y1054100D02*
X1371854Y1054100D01*
X1371854Y1079500D02*
X1384046Y1079500D01*
X1384046Y1104900D02*
X1371854Y1104900D01*
X1371854Y1130300D02*
X1384046Y1130300D01*
X1384046Y1155700D02*
X1371854Y1155700D01*
X1371854Y1181100D02*
X1384046Y1181100D01*
X1384046Y1206500D02*
X1371854Y1206500D01*
X1307846Y1206500D02*
X1295654Y1206500D01*
X1295654Y1181100D02*
X1307846Y1181100D01*
X1307846Y1155700D02*
X1295654Y1155700D01*
X1295654Y1130300D02*
X1307846Y1130300D01*
X1307846Y1104900D02*
X1295654Y1104900D01*
X1295654Y1079500D02*
X1307846Y1079500D01*
X1307846Y1054100D02*
X1295654Y1054100D01*
X1295654Y1028700D02*
X1307846Y1028700D01*
X1307846Y1003300D02*
X1295654Y1003300D01*
X1295654Y977900D02*
X1307846Y977900D01*
X1307846Y952500D02*
X1295654Y952500D01*
X1295654Y927100D02*
X1307846Y927100D01*
X1307846Y901700D02*
X1295654Y901700D01*
X1295654Y876300D02*
X1307846Y876300D01*
X888746Y876300D02*
X876554Y876300D01*
X876554Y901700D02*
X888746Y901700D01*
X888746Y927100D02*
X876554Y927100D01*
X876554Y952500D02*
X888746Y952500D01*
X888746Y977900D02*
X876554Y977900D01*
X876554Y1003300D02*
X888746Y1003300D01*
X888746Y1028700D02*
X876554Y1028700D01*
X876554Y1054100D02*
X888746Y1054100D01*
X888746Y1079500D02*
X876554Y1079500D01*
X876554Y1104900D02*
X888746Y1104900D01*
X888746Y1130300D02*
X876554Y1130300D01*
X876554Y1155700D02*
X888746Y1155700D01*
X888746Y1181100D02*
X876554Y1181100D01*
X876554Y1206500D02*
X888746Y1206500D01*
X812546Y1206500D02*
X800354Y1206500D01*
X800354Y1181100D02*
X812546Y1181100D01*
X812546Y1155700D02*
X800354Y1155700D01*
X800354Y1130300D02*
X812546Y1130300D01*
X812546Y1104900D02*
X800354Y1104900D01*
X800354Y1079500D02*
X812546Y1079500D01*
X812546Y1054100D02*
X800354Y1054100D01*
X800354Y1028700D02*
X812546Y1028700D01*
X812546Y1003300D02*
X800354Y1003300D01*
X800354Y977900D02*
X812546Y977900D01*
X812546Y952500D02*
X800354Y952500D01*
X800354Y927100D02*
X812546Y927100D01*
X812546Y901700D02*
X800354Y901700D01*
X800354Y876300D02*
X812546Y876300D01*
X558546Y876300D02*
X546354Y876300D01*
X546354Y901700D02*
X558546Y901700D01*
X558546Y927100D02*
X546354Y927100D01*
X546354Y952500D02*
X558546Y952500D01*
X558546Y977900D02*
X546354Y977900D01*
X546354Y1003300D02*
X558546Y1003300D01*
X558546Y1028700D02*
X546354Y1028700D01*
X546354Y1054100D02*
X558546Y1054100D01*
X558546Y1079500D02*
X546354Y1079500D01*
X546354Y1104900D02*
X558546Y1104900D01*
X558546Y1130300D02*
X546354Y1130300D01*
X546354Y1155700D02*
X558546Y1155700D01*
X558546Y1181100D02*
X546354Y1181100D01*
X546354Y1206500D02*
X558546Y1206500D01*
X482346Y1206500D02*
X470154Y1206500D01*
X470154Y1181100D02*
X482346Y1181100D01*
X482346Y1155700D02*
X470154Y1155700D01*
X470154Y1130300D02*
X482346Y1130300D01*
X482346Y1104900D02*
X470154Y1104900D01*
X470154Y1079500D02*
X482346Y1079500D01*
X482346Y1054100D02*
X470154Y1054100D01*
X470154Y1028700D02*
X482346Y1028700D01*
X482346Y1003300D02*
X470154Y1003300D01*
X470154Y977900D02*
X482346Y977900D01*
X482346Y952500D02*
X470154Y952500D01*
X470154Y927100D02*
X482346Y927100D01*
X482346Y901700D02*
X470154Y901700D01*
X470154Y876300D02*
X482346Y876300D01*
X1162050Y1289304D02*
X1162050Y1301496D01*
X1187450Y1301496D02*
X1187450Y1289304D01*
X1212850Y1289304D02*
X1212850Y1301496D01*
X1238250Y1301496D02*
X1238250Y1289304D01*
X1238250Y1365504D02*
X1238250Y1377696D01*
X1212850Y1377696D02*
X1212850Y1365504D01*
X1187450Y1365504D02*
X1187450Y1377696D01*
X1162050Y1377696D02*
X1162050Y1365504D01*
D14*
X1308100Y1917700D03*
D15*
X1282700Y1917700D03*
X1257300Y1917700D03*
X1231900Y1917700D03*
X1206500Y1917700D03*
X1181100Y1917700D03*
D16*
X1308100Y1454150D03*
X1409700Y1454150D03*
D17*
X1111250Y1358900D03*
X1009650Y1358900D03*
D18*
X933450Y1104900D03*
X933450Y1206500D03*
X603250Y1104900D03*
X603250Y1206500D03*
X1263650Y1104900D03*
X1263650Y1206500D03*
D17*
X1111250Y1308100D03*
X1009650Y1308100D03*
D11*
X1041654Y876300D02*
X1053846Y876300D01*
X1053846Y901700D02*
X1041654Y901700D01*
X1041654Y927100D02*
X1053846Y927100D01*
X1053846Y952500D02*
X1041654Y952500D01*
X1041654Y977900D02*
X1053846Y977900D01*
X1053846Y1003300D02*
X1041654Y1003300D01*
X1041654Y1028700D02*
X1053846Y1028700D01*
X1053846Y1054100D02*
X1041654Y1054100D01*
X1041654Y1079500D02*
X1053846Y1079500D01*
X1053846Y1104900D02*
X1041654Y1104900D01*
X1041654Y1130300D02*
X1053846Y1130300D01*
X1053846Y1155700D02*
X1041654Y1155700D01*
X1041654Y1181100D02*
X1053846Y1181100D01*
X1053846Y1206500D02*
X1041654Y1206500D01*
X977646Y1206500D02*
X965454Y1206500D01*
X965454Y1181100D02*
X977646Y1181100D01*
X977646Y1155700D02*
X965454Y1155700D01*
X965454Y1130300D02*
X977646Y1130300D01*
X977646Y1104900D02*
X965454Y1104900D01*
X965454Y1079500D02*
X977646Y1079500D01*
X977646Y1054100D02*
X965454Y1054100D01*
X965454Y1028700D02*
X977646Y1028700D01*
X977646Y1003300D02*
X965454Y1003300D01*
X965454Y977900D02*
X977646Y977900D01*
X977646Y952500D02*
X965454Y952500D01*
X965454Y927100D02*
X977646Y927100D01*
X977646Y901700D02*
X965454Y901700D01*
X965454Y876300D02*
X977646Y876300D01*
D18*
X1098550Y1104900D03*
X1098550Y1206500D03*
D11*
X723646Y876300D02*
X711454Y876300D01*
X711454Y901700D02*
X723646Y901700D01*
X723646Y927100D02*
X711454Y927100D01*
X711454Y952500D02*
X723646Y952500D01*
X723646Y977900D02*
X711454Y977900D01*
X711454Y1003300D02*
X723646Y1003300D01*
X723646Y1028700D02*
X711454Y1028700D01*
X711454Y1054100D02*
X723646Y1054100D01*
X723646Y1079500D02*
X711454Y1079500D01*
X711454Y1104900D02*
X723646Y1104900D01*
X723646Y1130300D02*
X711454Y1130300D01*
X711454Y1155700D02*
X723646Y1155700D01*
X723646Y1181100D02*
X711454Y1181100D01*
X711454Y1206500D02*
X723646Y1206500D01*
X647446Y1206500D02*
X635254Y1206500D01*
X635254Y1181100D02*
X647446Y1181100D01*
X647446Y1155700D02*
X635254Y1155700D01*
X635254Y1130300D02*
X647446Y1130300D01*
X647446Y1104900D02*
X635254Y1104900D01*
X635254Y1079500D02*
X647446Y1079500D01*
X647446Y1054100D02*
X635254Y1054100D01*
X635254Y1028700D02*
X647446Y1028700D01*
X647446Y1003300D02*
X635254Y1003300D01*
X635254Y977900D02*
X647446Y977900D01*
X647446Y952500D02*
X635254Y952500D01*
X635254Y927100D02*
X647446Y927100D01*
X647446Y901700D02*
X635254Y901700D01*
X635254Y876300D02*
X647446Y876300D01*
D18*
X438150Y1104900D03*
X438150Y1206500D03*
D19*
X762000Y1930400D03*
X762000Y1905000D03*
X990600Y1930400D03*
X990600Y1905000D03*
X838200Y1930400D03*
X838200Y1905000D03*
X1066800Y1930400D03*
X1066800Y1905000D03*
X914400Y1930400D03*
X914400Y1905000D03*
D16*
X863600Y1847850D03*
X965200Y1847850D03*
X781050Y1822450D03*
X882650Y1822450D03*
X711200Y1854200D03*
X812800Y1854200D03*
X946150Y1822450D03*
X1047750Y1822450D03*
X1016000Y1854200D03*
X1117600Y1854200D03*
D20*
X501650Y1244600D03*
X527050Y1244600D03*
X666750Y1244600D03*
X692150Y1244600D03*
X996950Y1244600D03*
X1022350Y1244600D03*
X1162050Y1244600D03*
X1187450Y1244600D03*
X1327150Y1244600D03*
X1352550Y1244600D03*
D11*
X520700Y1835404D02*
X520700Y1847596D01*
X546100Y1847596D02*
X546100Y1835404D01*
X571500Y1835404D02*
X571500Y1847596D01*
D15*
X520700Y1892300D03*
X571500Y1892300D03*
D11*
X622300Y1847596D02*
X622300Y1835404D01*
X647700Y1835404D02*
X647700Y1847596D01*
X673100Y1847596D02*
X673100Y1835404D01*
D15*
X622300Y1892300D03*
X673100Y1892300D03*
D21*
X1306830Y1308100D02*
X1322070Y1308100D01*
X1322070Y1333500D02*
X1306830Y1333500D01*
X1306830Y1358900D02*
X1322070Y1358900D01*
D11*
X1454404Y444500D02*
X1466596Y444500D01*
X1466596Y469900D02*
X1454404Y469900D01*
X1454404Y495300D02*
X1466596Y495300D01*
X1466596Y520700D02*
X1454404Y520700D01*
X1454404Y546100D02*
X1466596Y546100D01*
X1466596Y571500D02*
X1454404Y571500D01*
X1454404Y596900D02*
X1466596Y596900D01*
X1466596Y622300D02*
X1454404Y622300D01*
X1454404Y647700D02*
X1466596Y647700D01*
X1466596Y203200D02*
X1454404Y203200D01*
X1454404Y228600D02*
X1466596Y228600D01*
X1466596Y254000D02*
X1454404Y254000D01*
X1454404Y279400D02*
X1466596Y279400D01*
X1466596Y304800D02*
X1454404Y304800D01*
X1454404Y330200D02*
X1466596Y330200D01*
X1466596Y355600D02*
X1454404Y355600D01*
X1454404Y381000D02*
X1466596Y381000D01*
X1466596Y406400D02*
X1454404Y406400D01*
X399796Y444500D02*
X387604Y444500D01*
X387604Y469900D02*
X399796Y469900D01*
X399796Y495300D02*
X387604Y495300D01*
X387604Y520700D02*
X399796Y520700D01*
X399796Y546100D02*
X387604Y546100D01*
X387604Y571500D02*
X399796Y571500D01*
X399796Y596900D02*
X387604Y596900D01*
X387604Y622300D02*
X399796Y622300D01*
X399796Y647700D02*
X387604Y647700D01*
X387604Y203200D02*
X399796Y203200D01*
X399796Y228600D02*
X387604Y228600D01*
X387604Y254000D02*
X399796Y254000D01*
X399796Y279400D02*
X387604Y279400D01*
X387604Y304800D02*
X399796Y304800D01*
X399796Y330200D02*
X387604Y330200D01*
X387604Y355600D02*
X399796Y355600D01*
X399796Y381000D02*
X387604Y381000D01*
X387604Y406400D02*
X399796Y406400D01*
D22*
X1320800Y228600D03*
X1295400Y228600D03*
X1270000Y228600D03*
X1244600Y228600D03*
X1219200Y228600D03*
X1193800Y228600D03*
X1168400Y228600D03*
X1143000Y228600D03*
X1117600Y228600D03*
X1092200Y228600D03*
X1066800Y228600D03*
X1041400Y228600D03*
X1016000Y228600D03*
X990600Y228600D03*
X965200Y228600D03*
X939800Y228600D03*
X1320800Y254000D03*
X1295400Y254000D03*
X1270000Y254000D03*
X1244600Y254000D03*
X1219200Y254000D03*
X1193800Y254000D03*
X1168400Y254000D03*
X1143000Y254000D03*
X1117600Y254000D03*
X1092200Y254000D03*
X1066800Y254000D03*
X1041400Y254000D03*
X1016000Y254000D03*
X990600Y254000D03*
X965200Y254000D03*
X939800Y254000D03*
X1320800Y279400D03*
X1295400Y279400D03*
X1270000Y279400D03*
X1244600Y279400D03*
X1219200Y279400D03*
X1193800Y279400D03*
X1168400Y279400D03*
X1143000Y279400D03*
X1117600Y279400D03*
X1092200Y279400D03*
X1066800Y279400D03*
X1041400Y279400D03*
X1016000Y279400D03*
X990600Y279400D03*
X965200Y279400D03*
X939800Y279400D03*
X914400Y228600D03*
X889000Y228600D03*
X863600Y228600D03*
X838200Y228600D03*
X812800Y228600D03*
X787400Y228600D03*
X762000Y228600D03*
X736600Y228600D03*
X711200Y228600D03*
X685800Y228600D03*
X660400Y228600D03*
X635000Y228600D03*
X609600Y228600D03*
X584200Y228600D03*
X558800Y228600D03*
X533400Y228600D03*
X914400Y254000D03*
X889000Y254000D03*
X863600Y254000D03*
X838200Y254000D03*
X812800Y254000D03*
X787400Y254000D03*
X762000Y254000D03*
X736600Y254000D03*
X711200Y254000D03*
X685800Y254000D03*
X660400Y254000D03*
X635000Y254000D03*
X609600Y254000D03*
X584200Y254000D03*
X558800Y254000D03*
X533400Y254000D03*
X914400Y279400D03*
X889000Y279400D03*
X863600Y279400D03*
X838200Y279400D03*
X812800Y279400D03*
X787400Y279400D03*
X762000Y279400D03*
X736600Y279400D03*
X711200Y279400D03*
X685800Y279400D03*
X660400Y279400D03*
X635000Y279400D03*
X609600Y279400D03*
X584200Y279400D03*
X558800Y279400D03*
X533400Y279400D03*
D23*
X482536Y203200D03*
X1371664Y203200D03*
D19*
X1460500Y1930400D03*
X1460500Y1905000D03*
X1460500Y1841500D03*
X1460500Y1739900D03*
D11*
X1218946Y876300D02*
X1206754Y876300D01*
X1206754Y901700D02*
X1218946Y901700D01*
X1218946Y927100D02*
X1206754Y927100D01*
X1206754Y952500D02*
X1218946Y952500D01*
X1218946Y977900D02*
X1206754Y977900D01*
X1206754Y1003300D02*
X1218946Y1003300D01*
X1218946Y1028700D02*
X1206754Y1028700D01*
X1206754Y1054100D02*
X1218946Y1054100D01*
X1218946Y1079500D02*
X1206754Y1079500D01*
X1206754Y1104900D02*
X1218946Y1104900D01*
X1218946Y1130300D02*
X1206754Y1130300D01*
X1206754Y1155700D02*
X1218946Y1155700D01*
X1218946Y1181100D02*
X1206754Y1181100D01*
X1206754Y1206500D02*
X1218946Y1206500D01*
X1142746Y1206500D02*
X1130554Y1206500D01*
X1130554Y1181100D02*
X1142746Y1181100D01*
X1142746Y1155700D02*
X1130554Y1155700D01*
X1130554Y1130300D02*
X1142746Y1130300D01*
X1142746Y1104900D02*
X1130554Y1104900D01*
X1130554Y1079500D02*
X1142746Y1079500D01*
X1142746Y1054100D02*
X1130554Y1054100D01*
X1130554Y1028700D02*
X1142746Y1028700D01*
X1142746Y1003300D02*
X1130554Y1003300D01*
X1130554Y977900D02*
X1142746Y977900D01*
X1142746Y952500D02*
X1130554Y952500D01*
X1130554Y927100D02*
X1142746Y927100D01*
X1142746Y901700D02*
X1130554Y901700D01*
X1130554Y876300D02*
X1142746Y876300D01*
D18*
X768350Y1104900D03*
X768350Y1206500D03*
D24*
X419926Y1659890D02*
X392875Y1659890D01*
X392875Y1612900D02*
X419926Y1612900D01*
X419926Y1565910D02*
X392875Y1565910D01*
X507175Y1659890D02*
X534226Y1659890D01*
X534226Y1612900D02*
X507175Y1612900D01*
X507175Y1565910D02*
X534226Y1565910D01*
X621475Y1659890D02*
X648526Y1659890D01*
X648526Y1612900D02*
X621475Y1612900D01*
X621475Y1565910D02*
X648526Y1565910D01*
X735775Y1659890D02*
X762826Y1659890D01*
X762826Y1612900D02*
X735775Y1612900D01*
X735775Y1565910D02*
X762826Y1565910D01*
X850075Y1659890D02*
X877126Y1659890D01*
X877126Y1612900D02*
X850075Y1612900D01*
X850075Y1565910D02*
X877126Y1565910D01*
X964375Y1659890D02*
X991426Y1659890D01*
X991426Y1612900D02*
X964375Y1612900D01*
X964375Y1565910D02*
X991426Y1565910D01*
X1078675Y1659890D02*
X1105726Y1659890D01*
X1105726Y1612900D02*
X1078675Y1612900D01*
X1078675Y1565910D02*
X1105726Y1565910D01*
X1192975Y1659890D02*
X1220026Y1659890D01*
X1220026Y1612900D02*
X1192975Y1612900D01*
X1192975Y1565910D02*
X1220026Y1565910D01*
X1383475Y1659890D02*
X1410526Y1659890D01*
X1410526Y1612900D02*
X1383475Y1612900D01*
X1383475Y1565910D02*
X1410526Y1565910D01*
D25*
X406400Y1750060D03*
X406400Y1775460D03*
X463550Y1558290D03*
X463550Y1659890D03*
X520700Y1750060D03*
X520700Y1775460D03*
X577850Y1558290D03*
X577850Y1659890D03*
X635000Y1752600D03*
X635000Y1778000D03*
X692150Y1558290D03*
X692150Y1659890D03*
X749300Y1752600D03*
X749300Y1778000D03*
X806450Y1558290D03*
X806450Y1659890D03*
X863600Y1750060D03*
X863600Y1775460D03*
X920750Y1558290D03*
X920750Y1659890D03*
X977900Y1752600D03*
X977900Y1778000D03*
X1035050Y1558290D03*
X1035050Y1659890D03*
X1092200Y1752600D03*
X1092200Y1778000D03*
X1149350Y1558290D03*
X1149350Y1659890D03*
X1206500Y1752600D03*
X1206500Y1778000D03*
X1263650Y1558290D03*
X1263650Y1659890D03*
X1397000Y1750060D03*
X1397000Y1775460D03*
X1339850Y1560830D03*
X1339850Y1662430D03*
D11*
X673100Y1422146D02*
X673100Y1409954D01*
X698500Y1409954D02*
X698500Y1422146D01*
X825500Y1422146D02*
X825500Y1409954D01*
X850900Y1409954D02*
X850900Y1422146D01*
X723900Y1422146D02*
X723900Y1409954D01*
X749300Y1409954D02*
X749300Y1422146D01*
X800100Y1422146D02*
X800100Y1409954D01*
X774700Y1409954D02*
X774700Y1422146D01*
X876300Y1422146D02*
X876300Y1409954D01*
X901700Y1409954D02*
X901700Y1422146D01*
X901700Y1486154D02*
X901700Y1498346D01*
X876300Y1498346D02*
X876300Y1486154D01*
X850900Y1486154D02*
X850900Y1498346D01*
X825500Y1498346D02*
X825500Y1486154D01*
X800100Y1486154D02*
X800100Y1498346D01*
X774700Y1498346D02*
X774700Y1486154D01*
X749300Y1486154D02*
X749300Y1498346D01*
X723900Y1498346D02*
X723900Y1486154D01*
X698500Y1486154D02*
X698500Y1498346D01*
X673100Y1498346D02*
X673100Y1486154D01*
X1041400Y1422146D02*
X1041400Y1409954D01*
X1066800Y1409954D02*
X1066800Y1422146D01*
X1193800Y1422146D02*
X1193800Y1409954D01*
X1219200Y1409954D02*
X1219200Y1422146D01*
X1092200Y1422146D02*
X1092200Y1409954D01*
X1117600Y1409954D02*
X1117600Y1422146D01*
X1168400Y1422146D02*
X1168400Y1409954D01*
X1143000Y1409954D02*
X1143000Y1422146D01*
X1244600Y1422146D02*
X1244600Y1409954D01*
X1270000Y1409954D02*
X1270000Y1422146D01*
X1270000Y1486154D02*
X1270000Y1498346D01*
X1244600Y1498346D02*
X1244600Y1486154D01*
X1219200Y1486154D02*
X1219200Y1498346D01*
X1193800Y1498346D02*
X1193800Y1486154D01*
X1168400Y1486154D02*
X1168400Y1498346D01*
X1143000Y1498346D02*
X1143000Y1486154D01*
X1117600Y1486154D02*
X1117600Y1498346D01*
X1092200Y1498346D02*
X1092200Y1486154D01*
X1066800Y1486154D02*
X1066800Y1498346D01*
X1041400Y1498346D02*
X1041400Y1486154D01*
D20*
X831850Y1244600D03*
X857250Y1244600D03*
D26*
X609600Y1466850D03*
X609600Y1441450D03*
X977900Y1466850D03*
X977900Y1441450D03*
D27*
X1390650Y1853692D02*
X1390650Y1867408D01*
X1365250Y1867408D02*
X1365250Y1853692D01*
X1282700Y1853692D02*
X1282700Y1867408D01*
X1257300Y1867408D02*
X1257300Y1853692D01*
D28*
X406800Y1930400D03*
X456800Y1930400D03*
D29*
X466800Y1905400D03*
X396800Y1905400D03*
D30*
X1370850Y1356000D03*
D31*
X1370850Y1311000D03*
X1435850Y1311000D03*
X1435850Y1356000D03*
D17*
X533400Y1454150D03*
X431800Y1454150D03*
D11*
X495300Y736346D02*
X495300Y724154D01*
X520700Y724154D02*
X520700Y736346D01*
X647700Y736346D02*
X647700Y724154D01*
X673100Y724154D02*
X673100Y736346D01*
X546100Y736346D02*
X546100Y724154D01*
X571500Y724154D02*
X571500Y736346D01*
X622300Y736346D02*
X622300Y724154D01*
X596900Y724154D02*
X596900Y736346D01*
X698500Y736346D02*
X698500Y724154D01*
X723900Y724154D02*
X723900Y736346D01*
X723900Y800354D02*
X723900Y812546D01*
X698500Y812546D02*
X698500Y800354D01*
X673100Y800354D02*
X673100Y812546D01*
X647700Y812546D02*
X647700Y800354D01*
X622300Y800354D02*
X622300Y812546D01*
X596900Y812546D02*
X596900Y800354D01*
X571500Y800354D02*
X571500Y812546D01*
X546100Y812546D02*
X546100Y800354D01*
X520700Y800354D02*
X520700Y812546D01*
X495300Y812546D02*
X495300Y800354D01*
X495300Y609346D02*
X495300Y597154D01*
X520700Y597154D02*
X520700Y609346D01*
X647700Y609346D02*
X647700Y597154D01*
X673100Y597154D02*
X673100Y609346D01*
X546100Y609346D02*
X546100Y597154D01*
X571500Y597154D02*
X571500Y609346D01*
X622300Y609346D02*
X622300Y597154D01*
X596900Y597154D02*
X596900Y609346D01*
X698500Y609346D02*
X698500Y597154D01*
X723900Y597154D02*
X723900Y609346D01*
X723900Y673354D02*
X723900Y685546D01*
X698500Y685546D02*
X698500Y673354D01*
X673100Y673354D02*
X673100Y685546D01*
X647700Y685546D02*
X647700Y673354D01*
X622300Y673354D02*
X622300Y685546D01*
X596900Y685546D02*
X596900Y673354D01*
X571500Y673354D02*
X571500Y685546D01*
X546100Y685546D02*
X546100Y673354D01*
X520700Y673354D02*
X520700Y685546D01*
X495300Y685546D02*
X495300Y673354D01*
X495300Y469646D02*
X495300Y457454D01*
X520700Y457454D02*
X520700Y469646D01*
X647700Y469646D02*
X647700Y457454D01*
X673100Y457454D02*
X673100Y469646D01*
X546100Y469646D02*
X546100Y457454D01*
X571500Y457454D02*
X571500Y469646D01*
X622300Y469646D02*
X622300Y457454D01*
X596900Y457454D02*
X596900Y469646D01*
X698500Y469646D02*
X698500Y457454D01*
X723900Y457454D02*
X723900Y469646D01*
X723900Y533654D02*
X723900Y545846D01*
X698500Y545846D02*
X698500Y533654D01*
X673100Y533654D02*
X673100Y545846D01*
X647700Y545846D02*
X647700Y533654D01*
X622300Y533654D02*
X622300Y545846D01*
X596900Y545846D02*
X596900Y533654D01*
X571500Y533654D02*
X571500Y545846D01*
X546100Y545846D02*
X546100Y533654D01*
X520700Y533654D02*
X520700Y545846D01*
X495300Y545846D02*
X495300Y533654D01*
X495300Y336296D02*
X495300Y324104D01*
X520700Y324104D02*
X520700Y336296D01*
X647700Y336296D02*
X647700Y324104D01*
X673100Y324104D02*
X673100Y336296D01*
X546100Y336296D02*
X546100Y324104D01*
X571500Y324104D02*
X571500Y336296D01*
X622300Y336296D02*
X622300Y324104D01*
X596900Y324104D02*
X596900Y336296D01*
X698500Y336296D02*
X698500Y324104D01*
X723900Y324104D02*
X723900Y336296D01*
X723900Y400304D02*
X723900Y412496D01*
X698500Y412496D02*
X698500Y400304D01*
X673100Y400304D02*
X673100Y412496D01*
X647700Y412496D02*
X647700Y400304D01*
X622300Y400304D02*
X622300Y412496D01*
X596900Y412496D02*
X596900Y400304D01*
X571500Y400304D02*
X571500Y412496D01*
X546100Y412496D02*
X546100Y400304D01*
X520700Y400304D02*
X520700Y412496D01*
X495300Y412496D02*
X495300Y400304D01*
X800100Y724154D02*
X800100Y736346D01*
X825500Y736346D02*
X825500Y724154D01*
X952500Y724154D02*
X952500Y736346D01*
X977900Y736346D02*
X977900Y724154D01*
X850900Y724154D02*
X850900Y736346D01*
X876300Y736346D02*
X876300Y724154D01*
X927100Y724154D02*
X927100Y736346D01*
X901700Y736346D02*
X901700Y724154D01*
X1003300Y724154D02*
X1003300Y736346D01*
X1028700Y736346D02*
X1028700Y724154D01*
X1028700Y800354D02*
X1028700Y812546D01*
X1003300Y812546D02*
X1003300Y800354D01*
X977900Y800354D02*
X977900Y812546D01*
X952500Y812546D02*
X952500Y800354D01*
X927100Y800354D02*
X927100Y812546D01*
X901700Y812546D02*
X901700Y800354D01*
X876300Y800354D02*
X876300Y812546D01*
X850900Y812546D02*
X850900Y800354D01*
X825500Y800354D02*
X825500Y812546D01*
X800100Y812546D02*
X800100Y800354D01*
X800100Y602996D02*
X800100Y590804D01*
X825500Y590804D02*
X825500Y602996D01*
X952500Y602996D02*
X952500Y590804D01*
X977900Y590804D02*
X977900Y602996D01*
X850900Y602996D02*
X850900Y590804D01*
X876300Y590804D02*
X876300Y602996D01*
X927100Y602996D02*
X927100Y590804D01*
X901700Y590804D02*
X901700Y602996D01*
X1003300Y602996D02*
X1003300Y590804D01*
X1028700Y590804D02*
X1028700Y602996D01*
X1028700Y667004D02*
X1028700Y679196D01*
X1003300Y679196D02*
X1003300Y667004D01*
X977900Y667004D02*
X977900Y679196D01*
X952500Y679196D02*
X952500Y667004D01*
X927100Y667004D02*
X927100Y679196D01*
X901700Y679196D02*
X901700Y667004D01*
X876300Y667004D02*
X876300Y679196D01*
X850900Y679196D02*
X850900Y667004D01*
X825500Y667004D02*
X825500Y679196D01*
X800100Y679196D02*
X800100Y667004D01*
X800100Y463296D02*
X800100Y451104D01*
X825500Y451104D02*
X825500Y463296D01*
X952500Y463296D02*
X952500Y451104D01*
X977900Y451104D02*
X977900Y463296D01*
X850900Y463296D02*
X850900Y451104D01*
X876300Y451104D02*
X876300Y463296D01*
X927100Y463296D02*
X927100Y451104D01*
X901700Y451104D02*
X901700Y463296D01*
X1003300Y463296D02*
X1003300Y451104D01*
X1028700Y451104D02*
X1028700Y463296D01*
X1028700Y527304D02*
X1028700Y539496D01*
X1003300Y539496D02*
X1003300Y527304D01*
X977900Y527304D02*
X977900Y539496D01*
X952500Y539496D02*
X952500Y527304D01*
X927100Y527304D02*
X927100Y539496D01*
X901700Y539496D02*
X901700Y527304D01*
X876300Y527304D02*
X876300Y539496D01*
X850900Y539496D02*
X850900Y527304D01*
X825500Y527304D02*
X825500Y539496D01*
X800100Y539496D02*
X800100Y527304D01*
X800100Y336296D02*
X800100Y324104D01*
X825500Y324104D02*
X825500Y336296D01*
X952500Y336296D02*
X952500Y324104D01*
X977900Y324104D02*
X977900Y336296D01*
X850900Y336296D02*
X850900Y324104D01*
X876300Y324104D02*
X876300Y336296D01*
X927100Y336296D02*
X927100Y324104D01*
X901700Y324104D02*
X901700Y336296D01*
X1003300Y336296D02*
X1003300Y324104D01*
X1028700Y324104D02*
X1028700Y336296D01*
X1028700Y400304D02*
X1028700Y412496D01*
X1003300Y412496D02*
X1003300Y400304D01*
X977900Y400304D02*
X977900Y412496D01*
X952500Y412496D02*
X952500Y400304D01*
X927100Y400304D02*
X927100Y412496D01*
X901700Y412496D02*
X901700Y400304D01*
X876300Y400304D02*
X876300Y412496D01*
X850900Y412496D02*
X850900Y400304D01*
X825500Y400304D02*
X825500Y412496D01*
X800100Y412496D02*
X800100Y400304D01*
X1111250Y724154D02*
X1111250Y736346D01*
X1136650Y736346D02*
X1136650Y724154D01*
X1263650Y724154D02*
X1263650Y736346D01*
X1289050Y736346D02*
X1289050Y724154D01*
X1162050Y724154D02*
X1162050Y736346D01*
X1187450Y736346D02*
X1187450Y724154D01*
X1238250Y724154D02*
X1238250Y736346D01*
X1212850Y736346D02*
X1212850Y724154D01*
X1314450Y724154D02*
X1314450Y736346D01*
X1339850Y736346D02*
X1339850Y724154D01*
X1339850Y800354D02*
X1339850Y812546D01*
X1314450Y812546D02*
X1314450Y800354D01*
X1289050Y800354D02*
X1289050Y812546D01*
X1263650Y812546D02*
X1263650Y800354D01*
X1238250Y800354D02*
X1238250Y812546D01*
X1212850Y812546D02*
X1212850Y800354D01*
X1187450Y800354D02*
X1187450Y812546D01*
X1162050Y812546D02*
X1162050Y800354D01*
X1136650Y800354D02*
X1136650Y812546D01*
X1111250Y812546D02*
X1111250Y800354D01*
X1111250Y596646D02*
X1111250Y584454D01*
X1136650Y584454D02*
X1136650Y596646D01*
X1263650Y596646D02*
X1263650Y584454D01*
X1289050Y584454D02*
X1289050Y596646D01*
X1162050Y596646D02*
X1162050Y584454D01*
X1187450Y584454D02*
X1187450Y596646D01*
X1238250Y596646D02*
X1238250Y584454D01*
X1212850Y584454D02*
X1212850Y596646D01*
X1314450Y596646D02*
X1314450Y584454D01*
X1339850Y584454D02*
X1339850Y596646D01*
X1339850Y660654D02*
X1339850Y672846D01*
X1314450Y672846D02*
X1314450Y660654D01*
X1289050Y660654D02*
X1289050Y672846D01*
X1263650Y672846D02*
X1263650Y660654D01*
X1238250Y660654D02*
X1238250Y672846D01*
X1212850Y672846D02*
X1212850Y660654D01*
X1187450Y660654D02*
X1187450Y672846D01*
X1162050Y672846D02*
X1162050Y660654D01*
X1136650Y660654D02*
X1136650Y672846D01*
X1111250Y672846D02*
X1111250Y660654D01*
X1111250Y456946D02*
X1111250Y444754D01*
X1136650Y444754D02*
X1136650Y456946D01*
X1263650Y456946D02*
X1263650Y444754D01*
X1289050Y444754D02*
X1289050Y456946D01*
X1162050Y456946D02*
X1162050Y444754D01*
X1187450Y444754D02*
X1187450Y456946D01*
X1238250Y456946D02*
X1238250Y444754D01*
X1212850Y444754D02*
X1212850Y456946D01*
X1314450Y456946D02*
X1314450Y444754D01*
X1339850Y444754D02*
X1339850Y456946D01*
X1339850Y520954D02*
X1339850Y533146D01*
X1314450Y533146D02*
X1314450Y520954D01*
X1289050Y520954D02*
X1289050Y533146D01*
X1263650Y533146D02*
X1263650Y520954D01*
X1238250Y520954D02*
X1238250Y533146D01*
X1212850Y533146D02*
X1212850Y520954D01*
X1187450Y520954D02*
X1187450Y533146D01*
X1162050Y533146D02*
X1162050Y520954D01*
X1136650Y520954D02*
X1136650Y533146D01*
X1111250Y533146D02*
X1111250Y520954D01*
D13*
X1079500Y476250D03*
X1079500Y501650D03*
X768350Y755650D03*
X768350Y781050D03*
X768350Y622300D03*
X768350Y647700D03*
X768350Y488950D03*
X768350Y514350D03*
X768350Y355600D03*
X768350Y381000D03*
X463550Y355600D03*
X463550Y381000D03*
X463550Y488950D03*
X463550Y514350D03*
D26*
X463550Y654050D03*
X463550Y628650D03*
D13*
X463550Y755650D03*
X463550Y781050D03*
X1079500Y755650D03*
X1079500Y781050D03*
X1079500Y615950D03*
X1079500Y641350D03*
D21*
X1263650Y388620D02*
X1263650Y373380D01*
X1289050Y373380D02*
X1289050Y388620D01*
X1314450Y388620D02*
X1314450Y373380D01*
X1263650Y337820D02*
X1263650Y322580D01*
X1289050Y322580D02*
X1289050Y337820D01*
X1314450Y337820D02*
X1314450Y322580D01*
D32*
X1362075Y647700D03*
X619125Y187325D03*
X720725Y203200D03*
X1203325Y304800D03*
X739775Y793750D03*
X749300Y196850D03*
X1177925Y311150D03*
X739775Y787400D03*
X742950Y203200D03*
X1152525Y298450D03*
X739775Y822325D03*
X796925Y206375D03*
X1127125Y288925D03*
X1130300Y409575D03*
X847725Y212725D03*
X1162050Y412750D03*
X1158875Y241300D03*
X904875Y212725D03*
X904875Y501650D03*
X917575Y571500D03*
X1060450Y565150D03*
X1012825Y612775D03*
X981075Y571500D03*
X965200Y508000D03*
X930275Y765175D03*
X1060450Y765175D03*
X1060450Y654050D03*
X930275Y273050D03*
X1025525Y304800D03*
X908050Y758825D03*
X1349375Y755650D03*
X854075Y749300D03*
X1123950Y552450D03*
X863600Y552450D03*
X431800Y349250D03*
X752475Y358775D03*
X958850Y708025D03*
X946150Y428625D03*
X774700Y428625D03*
X447675Y279400D03*
X520700Y206375D03*
X1228725Y288925D03*
X444500Y288925D03*
X501650Y231775D03*
X1282700Y288925D03*
X898525Y219075D03*
X768350Y215900D03*
X514350Y187325D03*
X625475Y193675D03*
X1358900Y787400D03*
X454025Y298450D03*
X520700Y219075D03*
X1193800Y1076325D03*
X663575Y317500D03*
X1117600Y787400D03*
X1076325Y536575D03*
X908050Y1387475D03*
X584200Y501650D03*
X603250Y244475D03*
X615950Y523875D03*
X695325Y558800D03*
X558800Y552450D03*
X679450Y565150D03*
X955675Y234950D03*
X898525Y244475D03*
X869950Y482600D03*
X679450Y498475D03*
X615950Y619125D03*
X1222375Y549275D03*
X781050Y555625D03*
X758825Y593725D03*
X593725Y635000D03*
X1158875Y390525D03*
X806450Y390525D03*
X803275Y612775D03*
X1184275Y377825D03*
X854075Y377825D03*
X844550Y638175D03*
X762000Y1403350D03*
X914400Y361950D03*
X1130300Y355600D03*
X942975Y317500D03*
X1127125Y323850D03*
X1009650Y422275D03*
X1098550Y422275D03*
X1069975Y596900D03*
X984250Y650875D03*
X996950Y644525D03*
X984250Y638175D03*
X1101725Y577850D03*
X1200150Y336550D03*
X955675Y285750D03*
X1235075Y396875D03*
X939800Y377825D03*
X882650Y622300D03*
X923925Y234950D03*
X1235075Y615950D03*
X831850Y619125D03*
X749300Y447675D03*
X606425Y298450D03*
X720725Y298450D03*
X625475Y273050D03*
X701675Y247650D03*
X631825Y292100D03*
X539750Y511175D03*
X511175Y342900D03*
X1130300Y628650D03*
X812800Y622300D03*
X831850Y377825D03*
X1254125Y358775D03*
X1063625Y441325D03*
X1082675Y371475D03*
X1235075Y371475D03*
X933450Y482600D03*
X1209675Y479425D03*
X1158875Y466725D03*
X927100Y488950D03*
X1149350Y488950D03*
X1139825Y311150D03*
X1298575Y400050D03*
X965200Y390525D03*
X1133475Y419100D03*
X1101725Y311150D03*
X1016000Y425450D03*
X1130300Y501650D03*
X889000Y495300D03*
X1066800Y320675D03*
X1079500Y361950D03*
X663575Y346075D03*
X676275Y377825D03*
X720725Y377825D03*
X758825Y387350D03*
X812800Y314325D03*
X679450Y1746250D03*
X593725Y1447800D03*
X727075Y1466850D03*
X704850Y1041400D03*
X752475Y1450975D03*
X688975Y1524000D03*
X676275Y1438275D03*
X1184275Y1479550D03*
X838200Y984250D03*
X873125Y1393825D03*
X730250Y1044575D03*
X577850Y911225D03*
X755650Y1457325D03*
X692150Y882650D03*
X733425Y1466850D03*
X517525Y1393825D03*
X838200Y936625D03*
X482600Y1539875D03*
X568325Y1539875D03*
X825500Y1708150D03*
X790575Y1730375D03*
X946150Y1431925D03*
X596900Y1517650D03*
X781050Y1647825D03*
X704850Y1644650D03*
X1168400Y1612900D03*
X1266825Y1543050D03*
X1092200Y1517650D03*
X1190625Y1543050D03*
X1152525Y1543050D03*
X571500Y1435100D03*
X644525Y203200D03*
X514350Y231775D03*
X1108075Y898525D03*
X444500Y787400D03*
X492125Y482600D03*
X641350Y422275D03*
X527050Y365125D03*
X866775Y352425D03*
X577850Y438150D03*
X1273175Y428625D03*
X536575Y1069975D03*
X984250Y758825D03*
X1025525Y1019175D03*
X1066800Y736600D03*
X1104900Y1000125D03*
X663575Y971550D03*
X676275Y889000D03*
X1263650Y920750D03*
X650875Y863600D03*
X600075Y974725D03*
X1320800Y857250D03*
X914400Y857250D03*
X876300Y777875D03*
X1346200Y781050D03*
X965200Y863600D03*
X990600Y873125D03*
X984250Y841375D03*
X987425Y1000125D03*
X831850Y1073150D03*
X1152525Y1047750D03*
X1184275Y1047750D03*
X1222375Y749300D03*
X841375Y781050D03*
X1263650Y762000D03*
X815975Y701675D03*
X1076325Y962025D03*
X1082675Y841375D03*
X1257300Y939800D03*
X822325Y841375D03*
X806450Y841375D03*
X542925Y695325D03*
X882650Y755650D03*
X577850Y882650D03*
X654050Y917575D03*
X679450Y949325D03*
X625475Y908050D03*
X869950Y917575D03*
X758825Y701675D03*
X755650Y1019175D03*
X863600Y708025D03*
X1047750Y654050D03*
X898525Y1019175D03*
X1060450Y593725D03*
X1006475Y984250D03*
X1073150Y692150D03*
X1098550Y952500D03*
X955675Y695325D03*
X1092200Y698500D03*
X1092200Y927100D03*
X1174750Y876300D03*
X1187450Y895350D03*
X1270000Y895350D03*
X1282700Y917575D03*
X1276350Y971550D03*
X1235075Y704850D03*
X1168400Y1025525D03*
X511175Y908050D03*
X628650Y482600D03*
X654050Y482600D03*
X584200Y898525D03*
X530225Y819150D03*
X774700Y473075D03*
X752475Y866775D03*
X876300Y488950D03*
X762000Y504825D03*
X768350Y898525D03*
X936625Y835025D03*
X727075Y850900D03*
X965200Y784225D03*
X704850Y781050D03*
X971550Y558800D03*
X781050Y561975D03*
X762000Y974725D03*
X952500Y1000125D03*
X857250Y1016000D03*
X733425Y571500D03*
X952500Y1035050D03*
X1165225Y466725D03*
X1114425Y993775D03*
X1254125Y631825D03*
X1016000Y660400D03*
X1012825Y974725D03*
X1320800Y911225D03*
X1187450Y511175D03*
X1196975Y908050D03*
X1187450Y552450D03*
X1025525Y558800D03*
X1019175Y898525D03*
X1149350Y838200D03*
X977900Y835025D03*
X568325Y939800D03*
X987425Y946150D03*
X993775Y879475D03*
X561975Y828675D03*
X1031875Y882650D03*
X660400Y577850D03*
X898525Y612775D03*
X946150Y917575D03*
X669925Y695325D03*
X879475Y695325D03*
X692150Y571500D03*
X1038225Y577850D03*
X1025525Y974725D03*
X1123950Y444500D03*
X1092200Y974725D03*
X447675Y428625D03*
X450850Y1066800D03*
X1012825Y1089025D03*
X479425Y422275D03*
X504825Y908050D03*
X781050Y523875D03*
X479425Y342900D03*
X949325Y384175D03*
X479425Y371475D03*
X917575Y342900D03*
X895350Y638175D03*
X781050Y847725D03*
X1333500Y1200150D03*
M02*
