M48
;GenerationSoftware,Autodesk,EAGLE,9.6.2*%
;CreationDate,2020-06-17T00:12:14Z*%
FMAT,2
ICI,OFF
METRIC,TZ,000.000
T4C0.330
T3C0.813
T2C0.914
T1C2.794
%
G90
M71
T1
X128990Y11735
X218990Y11735
X12150Y11735
X102150Y11735
T2
X114300Y3810
X63500Y13970
X116840Y3810
X76200Y8890
X78740Y8890
X81280Y8890
X83820Y8890
X86360Y8890
X88900Y8890
X91440Y8890
X93980Y8890
X134620Y11430
X137160Y11430
X139700Y11430
X142240Y11430
X144780Y11430
X147320Y11430
X149860Y11430
X152400Y11430
X154940Y11430
X157480Y11430
X160020Y11430
X162560Y11430
X165100Y11430
X167640Y11430
X170180Y11430
X172720Y11430
X134620Y8890
X137160Y8890
X139700Y8890
X142240Y8890
X144780Y8890
X147320Y8890
X149860Y8890
X152400Y8890
X154940Y8890
X157480Y8890
X160020Y8890
X162560Y8890
X165100Y8890
X167640Y8890
X170180Y8890
X172720Y8890
X134620Y13970
X137160Y13970
X139700Y13970
X142240Y13970
X144780Y13970
X147320Y13970
X149860Y13970
X152400Y13970
X154940Y13970
X157480Y13970
X160020Y13970
X162560Y13970
X165100Y13970
X167640Y13970
X170180Y13970
X172720Y13970
X175260Y11430
X177800Y11430
X180340Y11430
X182880Y11430
X185420Y11430
X187960Y11430
X190500Y11430
X193040Y11430
X195580Y11430
X198120Y11430
X200660Y11430
X203200Y11430
X205740Y11430
X208280Y11430
X210820Y11430
X213360Y11430
X175260Y8890
X177800Y8890
X180340Y8890
X182880Y8890
X185420Y8890
X187960Y8890
X190500Y8890
X193040Y8890
X195580Y8890
X198120Y8890
X200660Y8890
X203200Y8890
X205740Y8890
X208280Y8890
X210820Y8890
X213360Y8890
X175260Y13970
X177800Y13970
X180340Y13970
X182880Y13970
X185420Y13970
X187960Y13970
X190500Y13970
X193040Y13970
X195580Y13970
X198120Y13970
X200660Y13970
X203200Y13970
X205740Y13970
X208280Y13970
X210820Y13970
X213360Y13970
X17780Y11430
X20320Y11430
X22860Y11430
X25400Y11430
X27940Y11430
X30480Y11430
X33020Y11430
X35560Y11430
X38100Y11430
X40640Y11430
X43180Y11430
X45720Y11430
X48260Y11430
X50800Y11430
X53340Y11430
X55880Y11430
X17780Y8890
X20320Y8890
X22860Y8890
X25400Y8890
X27940Y8890
X30480Y8890
X33020Y8890
X35560Y8890
X38100Y8890
X40640Y8890
X43180Y8890
X45720Y8890
X48260Y8890
X50800Y8890
X53340Y8890
X55880Y8890
X17780Y13970
X20320Y13970
X22860Y13970
X25400Y13970
X27940Y13970
X30480Y13970
X33020Y13970
X35560Y13970
X38100Y13970
X40640Y13970
X43180Y13970
X45720Y13970
X48260Y13970
X50800Y13970
X53340Y13970
X55880Y13970
X58420Y11430
X60960Y11430
X63500Y11430
X66040Y11430
X68580Y11430
X71120Y11430
X73660Y11430
X76200Y11430
X78740Y11430
X81280Y11430
X83820Y11430
X86360Y11430
X88900Y11430
X91440Y11430
X93980Y11430
X96520Y11430
X58420Y8890
X60960Y8890
X63500Y8890
X66040Y8890
X68580Y8890
X71120Y13970
X96520Y13970
X93980Y13970
X91440Y13970
X88900Y13970
X86360Y13970
X83820Y13970
X81280Y13970
X78740Y13970
X76200Y13970
X73660Y13970
X71120Y8890
X68580Y13970
X66040Y13970
X73660Y8890
X60960Y13970
X58420Y13970
X96520Y8890
T3
X78740Y25400
X81280Y25400
X100330Y25400
X90170Y25400
X153670Y25400
X156210Y25400
X143510Y25400
X133350Y25400
T4
X96520Y2223
X95567Y16192
X211137Y16192
X156528Y16192
X81598Y18733
X139383Y6667
X118745Y24447
X136843Y24447
X95250Y6667
X101282Y6667
X93980Y16192
X91122Y16510
X131128Y43815
X82550Y16510
X25717Y16510
X141288Y47307
X29527Y48577
X138430Y54292
X44450Y54292
X146050Y5080
X100012Y4763
X98425Y2540
X31432Y7302
X112395Y33338
X63817Y29210
X55562Y15875
X34290Y11747
X103187Y41593
X118110Y47942
X62865Y48895
X161608Y45402
X66993Y46672
X151448Y45720
X58420Y46672
X46990Y11112
X158750Y45402
X164148Y46672
X26987Y46037
X80645Y15875
X78740Y15557
X77153Y6350
X171768Y46037
X70485Y44450
X120015Y18733
X63182Y20320
X72073Y10478
X179705Y30162
X87630Y30480
X85090Y9208
X180340Y30797
X81598Y31115
X187007Y39370
X94297Y38100
X84773Y12382
X187007Y44767
X93980Y44450
X65723Y15875
X97790Y5080
X84138Y6032
X56515Y17780
X78105Y17145
X201930Y32385
X91757Y43180
X75883Y15875
X82233Y13017
X204787Y23812
X79375Y40958
X201295Y18415
X117157Y24447
X133668Y42228
X24130Y42228
X140970Y40005
X26352Y27940
X141923Y37465
X28892Y27940
X146368Y41593
X32067Y42863
X144145Y49530
X44450Y48895
X152400Y36830
X37148Y27940
X149543Y50165
X44450Y49847
X153670Y34925
X42228Y29210
X148590Y52070
X45085Y54927
X154305Y50800
X61595Y50800
X156528Y51435
X64452Y51435
X161608Y47307
X74930Y55562
X165100Y3810
X118427Y5398
X171768Y27622
X112395Y29210
X87313Y6985
X133033Y13652
X113030Y33973
X71120Y30797
X70803Y15240
X174625Y34608
X64452Y33973
X175895Y34290
X65087Y31115
X182562Y33973
X66993Y30480
X184150Y33338
X69850Y32385
X187642Y32702
X80328Y32702
X189865Y32067
X74930Y29845
X191770Y26352
X79058Y31432
X196850Y30480
X92710Y40323
X200025Y22860
X93662Y38735
X202565Y18415
X86678Y30162
X95250Y5398
X90487Y6985
X117792Y6032
X98425Y12700
X139383Y23812
X141923Y23177
X80645Y29210
X78105Y18415
X136208Y53340
X28257Y48260
X138430Y52070
X31115Y48895
X149543Y22860
X151448Y22542
X36513Y21907
X153353Y22225
X40640Y24130
X157480Y21907
X41593Y21907
X159068Y21590
X43815Y19050
X162243Y21273
X46037Y19050
X163830Y20955
X51435Y19050
X163830Y5398
X163513Y3175
X166688Y3810
X169228Y3810
X59690Y3810
X175895Y3810
X62547Y3175
X179705Y20638
X63817Y22542
X182562Y20003
X66358Y23812
X185420Y20955
X116840Y26987
X108902Y26987
X69215Y26035
X187642Y19685
X71755Y19050
X190182Y19368
X74295Y19050
X192405Y19050
X76518Y19050
X197485Y18733
X82868Y19050
X200342Y18415
X84138Y19050
X86678Y19050
X205422Y17463
X89852Y19050
X104775Y31115
X134938Y25717
M30