G04 EAGLE Gerber RS-274X export*
G75*
%MOMM*%
%FSLAX34Y34*%
%LPD*%
%INTop Copper*%
%IPPOS*%
%AMOC8*
5,1,8,0,0,1.08239X$1,22.5*%
G01*
%ADD10C,1.219200*%
%ADD11P,1.319650X8X112.500000*%
%ADD12P,1.649562X8X292.500000*%
%ADD13P,1.649562X8X202.500000*%
%ADD14P,1.319650X8X202.500000*%
%ADD15P,1.319650X8X22.500000*%
%ADD16C,1.524000*%
%ADD17C,0.127000*%
%ADD18C,0.457200*%


D10*
X1168400Y717804D02*
X1168400Y729996D01*
X1193800Y729996D02*
X1193800Y717804D01*
X1320800Y717804D02*
X1320800Y729996D01*
X1320800Y794004D02*
X1320800Y806196D01*
X1219200Y729996D02*
X1219200Y717804D01*
X1244600Y717804D02*
X1244600Y729996D01*
X1295400Y729996D02*
X1295400Y717804D01*
X1270000Y717804D02*
X1270000Y729996D01*
X1295400Y794004D02*
X1295400Y806196D01*
X1270000Y806196D02*
X1270000Y794004D01*
X1244600Y794004D02*
X1244600Y806196D01*
X1219200Y806196D02*
X1219200Y794004D01*
X1193800Y794004D02*
X1193800Y806196D01*
X1168400Y806196D02*
X1168400Y794004D01*
X1168400Y602996D02*
X1168400Y590804D01*
X1193800Y590804D02*
X1193800Y602996D01*
X1320800Y602996D02*
X1320800Y590804D01*
X1320800Y667004D02*
X1320800Y679196D01*
X1219200Y602996D02*
X1219200Y590804D01*
X1244600Y590804D02*
X1244600Y602996D01*
X1295400Y602996D02*
X1295400Y590804D01*
X1270000Y590804D02*
X1270000Y602996D01*
X1295400Y667004D02*
X1295400Y679196D01*
X1270000Y679196D02*
X1270000Y667004D01*
X1244600Y667004D02*
X1244600Y679196D01*
X1219200Y679196D02*
X1219200Y667004D01*
X1193800Y667004D02*
X1193800Y679196D01*
X1168400Y679196D02*
X1168400Y667004D01*
X1409700Y717804D02*
X1409700Y729996D01*
X1435100Y729996D02*
X1435100Y717804D01*
X1562100Y717804D02*
X1562100Y729996D01*
X1587500Y729996D02*
X1587500Y717804D01*
X1460500Y717804D02*
X1460500Y729996D01*
X1485900Y729996D02*
X1485900Y717804D01*
X1536700Y717804D02*
X1536700Y729996D01*
X1511300Y729996D02*
X1511300Y717804D01*
X1612900Y717804D02*
X1612900Y729996D01*
X1638300Y729996D02*
X1638300Y717804D01*
X1638300Y794004D02*
X1638300Y806196D01*
X1612900Y806196D02*
X1612900Y794004D01*
X1587500Y794004D02*
X1587500Y806196D01*
X1562100Y806196D02*
X1562100Y794004D01*
X1536700Y794004D02*
X1536700Y806196D01*
X1511300Y806196D02*
X1511300Y794004D01*
X1485900Y794004D02*
X1485900Y806196D01*
X1460500Y806196D02*
X1460500Y794004D01*
X1435100Y794004D02*
X1435100Y806196D01*
X1409700Y806196D02*
X1409700Y794004D01*
X241300Y602996D02*
X241300Y590804D01*
X266700Y590804D02*
X266700Y602996D01*
X393700Y602996D02*
X393700Y590804D01*
X419100Y590804D02*
X419100Y602996D01*
X292100Y602996D02*
X292100Y590804D01*
X317500Y590804D02*
X317500Y602996D01*
X368300Y602996D02*
X368300Y590804D01*
X342900Y590804D02*
X342900Y602996D01*
X419100Y667004D02*
X419100Y679196D01*
X393700Y679196D02*
X393700Y667004D01*
X368300Y667004D02*
X368300Y679196D01*
X342900Y679196D02*
X342900Y667004D01*
X317500Y667004D02*
X317500Y679196D01*
X292100Y679196D02*
X292100Y667004D01*
X266700Y667004D02*
X266700Y679196D01*
X241300Y679196D02*
X241300Y667004D01*
X266700Y94996D02*
X266700Y82804D01*
X292100Y82804D02*
X292100Y94996D01*
X419100Y94996D02*
X419100Y82804D01*
X419100Y159004D02*
X419100Y171196D01*
X317500Y94996D02*
X317500Y82804D01*
X342900Y82804D02*
X342900Y94996D01*
X393700Y94996D02*
X393700Y82804D01*
X368300Y82804D02*
X368300Y94996D01*
X393700Y159004D02*
X393700Y171196D01*
X368300Y171196D02*
X368300Y159004D01*
X342900Y159004D02*
X342900Y171196D01*
X317500Y171196D02*
X317500Y159004D01*
X292100Y159004D02*
X292100Y171196D01*
X266700Y171196D02*
X266700Y159004D01*
X190500Y463804D02*
X190500Y475996D01*
X215900Y475996D02*
X215900Y463804D01*
X342900Y463804D02*
X342900Y475996D01*
X368300Y475996D02*
X368300Y463804D01*
X241300Y463804D02*
X241300Y475996D01*
X266700Y475996D02*
X266700Y463804D01*
X317500Y463804D02*
X317500Y475996D01*
X292100Y475996D02*
X292100Y463804D01*
X393700Y463804D02*
X393700Y475996D01*
X419100Y475996D02*
X419100Y463804D01*
X419100Y540004D02*
X419100Y552196D01*
X393700Y552196D02*
X393700Y540004D01*
X368300Y540004D02*
X368300Y552196D01*
X342900Y552196D02*
X342900Y540004D01*
X317500Y540004D02*
X317500Y552196D01*
X292100Y552196D02*
X292100Y540004D01*
X266700Y540004D02*
X266700Y552196D01*
X241300Y552196D02*
X241300Y540004D01*
X215900Y540004D02*
X215900Y552196D01*
X190500Y552196D02*
X190500Y540004D01*
X508000Y475996D02*
X508000Y463804D01*
X533400Y463804D02*
X533400Y475996D01*
X660400Y475996D02*
X660400Y463804D01*
X685800Y463804D02*
X685800Y475996D01*
X558800Y475996D02*
X558800Y463804D01*
X584200Y463804D02*
X584200Y475996D01*
X635000Y475996D02*
X635000Y463804D01*
X609600Y463804D02*
X609600Y475996D01*
X711200Y475996D02*
X711200Y463804D01*
X736600Y463804D02*
X736600Y475996D01*
X736600Y540004D02*
X736600Y552196D01*
X711200Y552196D02*
X711200Y540004D01*
X685800Y540004D02*
X685800Y552196D01*
X660400Y552196D02*
X660400Y540004D01*
X635000Y540004D02*
X635000Y552196D01*
X609600Y552196D02*
X609600Y540004D01*
X584200Y540004D02*
X584200Y552196D01*
X558800Y552196D02*
X558800Y540004D01*
X533400Y540004D02*
X533400Y552196D01*
X508000Y552196D02*
X508000Y540004D01*
X508000Y844804D02*
X508000Y856996D01*
X533400Y856996D02*
X533400Y844804D01*
X660400Y844804D02*
X660400Y856996D01*
X685800Y856996D02*
X685800Y844804D01*
X558800Y844804D02*
X558800Y856996D01*
X584200Y856996D02*
X584200Y844804D01*
X635000Y844804D02*
X635000Y856996D01*
X609600Y856996D02*
X609600Y844804D01*
X711200Y844804D02*
X711200Y856996D01*
X736600Y856996D02*
X736600Y844804D01*
X736600Y921004D02*
X736600Y933196D01*
X711200Y933196D02*
X711200Y921004D01*
X685800Y921004D02*
X685800Y933196D01*
X660400Y933196D02*
X660400Y921004D01*
X635000Y921004D02*
X635000Y933196D01*
X609600Y933196D02*
X609600Y921004D01*
X584200Y921004D02*
X584200Y933196D01*
X558800Y933196D02*
X558800Y921004D01*
X533400Y921004D02*
X533400Y933196D01*
X508000Y933196D02*
X508000Y921004D01*
X825500Y729996D02*
X825500Y717804D01*
X850900Y717804D02*
X850900Y729996D01*
X977900Y729996D02*
X977900Y717804D01*
X1003300Y717804D02*
X1003300Y729996D01*
X876300Y729996D02*
X876300Y717804D01*
X901700Y717804D02*
X901700Y729996D01*
X952500Y729996D02*
X952500Y717804D01*
X927100Y717804D02*
X927100Y729996D01*
X1028700Y729996D02*
X1028700Y717804D01*
X1054100Y717804D02*
X1054100Y729996D01*
X1054100Y794004D02*
X1054100Y806196D01*
X1028700Y806196D02*
X1028700Y794004D01*
X1003300Y794004D02*
X1003300Y806196D01*
X977900Y806196D02*
X977900Y794004D01*
X952500Y794004D02*
X952500Y806196D01*
X927100Y806196D02*
X927100Y794004D01*
X901700Y794004D02*
X901700Y806196D01*
X876300Y806196D02*
X876300Y794004D01*
X850900Y794004D02*
X850900Y806196D01*
X825500Y806196D02*
X825500Y794004D01*
X508000Y602996D02*
X508000Y590804D01*
X533400Y590804D02*
X533400Y602996D01*
X660400Y602996D02*
X660400Y590804D01*
X685800Y590804D02*
X685800Y602996D01*
X558800Y602996D02*
X558800Y590804D01*
X584200Y590804D02*
X584200Y602996D01*
X635000Y602996D02*
X635000Y590804D01*
X609600Y590804D02*
X609600Y602996D01*
X711200Y602996D02*
X711200Y590804D01*
X736600Y590804D02*
X736600Y602996D01*
X736600Y667004D02*
X736600Y679196D01*
X711200Y679196D02*
X711200Y667004D01*
X685800Y667004D02*
X685800Y679196D01*
X660400Y679196D02*
X660400Y667004D01*
X635000Y667004D02*
X635000Y679196D01*
X609600Y679196D02*
X609600Y667004D01*
X584200Y667004D02*
X584200Y679196D01*
X558800Y679196D02*
X558800Y667004D01*
X533400Y667004D02*
X533400Y679196D01*
X508000Y679196D02*
X508000Y667004D01*
X508000Y717804D02*
X508000Y729996D01*
X533400Y729996D02*
X533400Y717804D01*
X660400Y717804D02*
X660400Y729996D01*
X685800Y729996D02*
X685800Y717804D01*
X558800Y717804D02*
X558800Y729996D01*
X584200Y729996D02*
X584200Y717804D01*
X635000Y717804D02*
X635000Y729996D01*
X609600Y729996D02*
X609600Y717804D01*
X711200Y717804D02*
X711200Y729996D01*
X736600Y729996D02*
X736600Y717804D01*
X736600Y794004D02*
X736600Y806196D01*
X711200Y806196D02*
X711200Y794004D01*
X685800Y794004D02*
X685800Y806196D01*
X660400Y806196D02*
X660400Y794004D01*
X635000Y794004D02*
X635000Y806196D01*
X609600Y806196D02*
X609600Y794004D01*
X584200Y794004D02*
X584200Y806196D01*
X558800Y806196D02*
X558800Y794004D01*
X533400Y794004D02*
X533400Y806196D01*
X508000Y806196D02*
X508000Y794004D01*
X241300Y348996D02*
X241300Y336804D01*
X266700Y336804D02*
X266700Y348996D01*
X393700Y348996D02*
X393700Y336804D01*
X419100Y336804D02*
X419100Y348996D01*
X292100Y348996D02*
X292100Y336804D01*
X317500Y336804D02*
X317500Y348996D01*
X368300Y348996D02*
X368300Y336804D01*
X342900Y336804D02*
X342900Y348996D01*
X419100Y413004D02*
X419100Y425196D01*
X393700Y425196D02*
X393700Y413004D01*
X368300Y413004D02*
X368300Y425196D01*
X342900Y425196D02*
X342900Y413004D01*
X317500Y413004D02*
X317500Y425196D01*
X292100Y425196D02*
X292100Y413004D01*
X266700Y413004D02*
X266700Y425196D01*
X241300Y425196D02*
X241300Y413004D01*
X558800Y221996D02*
X558800Y209804D01*
X584200Y209804D02*
X584200Y221996D01*
X711200Y221996D02*
X711200Y209804D01*
X736600Y209804D02*
X736600Y221996D01*
X609600Y221996D02*
X609600Y209804D01*
X635000Y209804D02*
X635000Y221996D01*
X685800Y221996D02*
X685800Y209804D01*
X660400Y209804D02*
X660400Y221996D01*
X736600Y286004D02*
X736600Y298196D01*
X711200Y298196D02*
X711200Y286004D01*
X685800Y286004D02*
X685800Y298196D01*
X660400Y298196D02*
X660400Y286004D01*
X635000Y286004D02*
X635000Y298196D01*
X609600Y298196D02*
X609600Y286004D01*
X584200Y286004D02*
X584200Y298196D01*
X558800Y298196D02*
X558800Y286004D01*
X1168400Y221996D02*
X1168400Y209804D01*
X1193800Y209804D02*
X1193800Y221996D01*
X1320800Y221996D02*
X1320800Y209804D01*
X1320800Y286004D02*
X1320800Y298196D01*
X1219200Y221996D02*
X1219200Y209804D01*
X1244600Y209804D02*
X1244600Y221996D01*
X1295400Y221996D02*
X1295400Y209804D01*
X1270000Y209804D02*
X1270000Y221996D01*
X1295400Y286004D02*
X1295400Y298196D01*
X1270000Y298196D02*
X1270000Y286004D01*
X1244600Y286004D02*
X1244600Y298196D01*
X1219200Y298196D02*
X1219200Y286004D01*
X1193800Y286004D02*
X1193800Y298196D01*
X1168400Y298196D02*
X1168400Y286004D01*
X1485900Y94996D02*
X1485900Y82804D01*
X1511300Y82804D02*
X1511300Y94996D01*
X1638300Y94996D02*
X1638300Y82804D01*
X1638300Y159004D02*
X1638300Y171196D01*
X1536700Y94996D02*
X1536700Y82804D01*
X1562100Y82804D02*
X1562100Y94996D01*
X1612900Y94996D02*
X1612900Y82804D01*
X1587500Y82804D02*
X1587500Y94996D01*
X1612900Y159004D02*
X1612900Y171196D01*
X1587500Y171196D02*
X1587500Y159004D01*
X1562100Y159004D02*
X1562100Y171196D01*
X1536700Y171196D02*
X1536700Y159004D01*
X1511300Y159004D02*
X1511300Y171196D01*
X1485900Y171196D02*
X1485900Y159004D01*
X241300Y209804D02*
X241300Y221996D01*
X266700Y221996D02*
X266700Y209804D01*
X393700Y209804D02*
X393700Y221996D01*
X419100Y221996D02*
X419100Y209804D01*
X292100Y209804D02*
X292100Y221996D01*
X317500Y221996D02*
X317500Y209804D01*
X368300Y209804D02*
X368300Y221996D01*
X342900Y221996D02*
X342900Y209804D01*
X419100Y286004D02*
X419100Y298196D01*
X393700Y298196D02*
X393700Y286004D01*
X368300Y286004D02*
X368300Y298196D01*
X342900Y298196D02*
X342900Y286004D01*
X317500Y286004D02*
X317500Y298196D01*
X292100Y298196D02*
X292100Y286004D01*
X266700Y286004D02*
X266700Y298196D01*
X241300Y298196D02*
X241300Y286004D01*
X584200Y94996D02*
X584200Y82804D01*
X609600Y82804D02*
X609600Y94996D01*
X736600Y94996D02*
X736600Y82804D01*
X736600Y159004D02*
X736600Y171196D01*
X635000Y94996D02*
X635000Y82804D01*
X660400Y82804D02*
X660400Y94996D01*
X711200Y94996D02*
X711200Y82804D01*
X685800Y82804D02*
X685800Y94996D01*
X711200Y159004D02*
X711200Y171196D01*
X685800Y171196D02*
X685800Y159004D01*
X660400Y159004D02*
X660400Y171196D01*
X635000Y171196D02*
X635000Y159004D01*
X609600Y159004D02*
X609600Y171196D01*
X584200Y171196D02*
X584200Y159004D01*
X215900Y971804D02*
X215900Y983996D01*
X241300Y983996D02*
X241300Y971804D01*
X266700Y971804D02*
X266700Y983996D01*
X292100Y983996D02*
X292100Y971804D01*
X317500Y971804D02*
X317500Y983996D01*
X342900Y983996D02*
X342900Y971804D01*
X368300Y971804D02*
X368300Y983996D01*
X393700Y983996D02*
X393700Y971804D01*
X419100Y971804D02*
X419100Y983996D01*
X215900Y1035304D02*
X215900Y1047496D01*
X241300Y1047496D02*
X241300Y1035304D01*
X266700Y1035304D02*
X266700Y1047496D01*
X292100Y1047496D02*
X292100Y1035304D01*
X317500Y1035304D02*
X317500Y1047496D01*
X342900Y1047496D02*
X342900Y1035304D01*
X368300Y1035304D02*
X368300Y1047496D01*
X393700Y1047496D02*
X393700Y1035304D01*
X419100Y1035304D02*
X419100Y1047496D01*
X190500Y856996D02*
X190500Y844804D01*
X215900Y844804D02*
X215900Y856996D01*
X342900Y856996D02*
X342900Y844804D01*
X368300Y844804D02*
X368300Y856996D01*
X241300Y856996D02*
X241300Y844804D01*
X266700Y844804D02*
X266700Y856996D01*
X317500Y856996D02*
X317500Y844804D01*
X292100Y844804D02*
X292100Y856996D01*
X393700Y856996D02*
X393700Y844804D01*
X419100Y844804D02*
X419100Y856996D01*
X419100Y921004D02*
X419100Y933196D01*
X393700Y933196D02*
X393700Y921004D01*
X368300Y921004D02*
X368300Y933196D01*
X342900Y933196D02*
X342900Y921004D01*
X317500Y921004D02*
X317500Y933196D01*
X292100Y933196D02*
X292100Y921004D01*
X266700Y921004D02*
X266700Y933196D01*
X241300Y933196D02*
X241300Y921004D01*
X215900Y921004D02*
X215900Y933196D01*
X190500Y933196D02*
X190500Y921004D01*
X190500Y729996D02*
X190500Y717804D01*
X215900Y717804D02*
X215900Y729996D01*
X342900Y729996D02*
X342900Y717804D01*
X368300Y717804D02*
X368300Y729996D01*
X241300Y729996D02*
X241300Y717804D01*
X266700Y717804D02*
X266700Y729996D01*
X317500Y729996D02*
X317500Y717804D01*
X292100Y717804D02*
X292100Y729996D01*
X393700Y729996D02*
X393700Y717804D01*
X419100Y717804D02*
X419100Y729996D01*
X419100Y794004D02*
X419100Y806196D01*
X393700Y806196D02*
X393700Y794004D01*
X368300Y794004D02*
X368300Y806196D01*
X342900Y806196D02*
X342900Y794004D01*
X317500Y794004D02*
X317500Y806196D01*
X292100Y806196D02*
X292100Y794004D01*
X266700Y794004D02*
X266700Y806196D01*
X241300Y806196D02*
X241300Y794004D01*
X215900Y794004D02*
X215900Y806196D01*
X190500Y806196D02*
X190500Y794004D01*
X1143000Y844804D02*
X1143000Y856996D01*
X1168400Y856996D02*
X1168400Y844804D01*
X1295400Y844804D02*
X1295400Y856996D01*
X1320800Y856996D02*
X1320800Y844804D01*
X1193800Y844804D02*
X1193800Y856996D01*
X1219200Y856996D02*
X1219200Y844804D01*
X1270000Y844804D02*
X1270000Y856996D01*
X1244600Y856996D02*
X1244600Y844804D01*
X1320800Y921004D02*
X1320800Y933196D01*
X1295400Y933196D02*
X1295400Y921004D01*
X1270000Y921004D02*
X1270000Y933196D01*
X1244600Y933196D02*
X1244600Y921004D01*
X1219200Y921004D02*
X1219200Y933196D01*
X1193800Y933196D02*
X1193800Y921004D01*
X1168400Y921004D02*
X1168400Y933196D01*
X1143000Y933196D02*
X1143000Y921004D01*
X1143000Y475996D02*
X1143000Y463804D01*
X1168400Y463804D02*
X1168400Y475996D01*
X1295400Y475996D02*
X1295400Y463804D01*
X1320800Y463804D02*
X1320800Y475996D01*
X1193800Y475996D02*
X1193800Y463804D01*
X1219200Y463804D02*
X1219200Y475996D01*
X1270000Y475996D02*
X1270000Y463804D01*
X1244600Y463804D02*
X1244600Y475996D01*
X1320800Y540004D02*
X1320800Y552196D01*
X1295400Y552196D02*
X1295400Y540004D01*
X1270000Y540004D02*
X1270000Y552196D01*
X1244600Y552196D02*
X1244600Y540004D01*
X1219200Y540004D02*
X1219200Y552196D01*
X1193800Y552196D02*
X1193800Y540004D01*
X1168400Y540004D02*
X1168400Y552196D01*
X1143000Y552196D02*
X1143000Y540004D01*
X1143000Y971804D02*
X1143000Y983996D01*
X1168400Y983996D02*
X1168400Y971804D01*
X1295400Y971804D02*
X1295400Y983996D01*
X1320800Y983996D02*
X1320800Y971804D01*
X1193800Y971804D02*
X1193800Y983996D01*
X1219200Y983996D02*
X1219200Y971804D01*
X1270000Y971804D02*
X1270000Y983996D01*
X1244600Y983996D02*
X1244600Y971804D01*
X1320800Y1048004D02*
X1320800Y1060196D01*
X1295400Y1060196D02*
X1295400Y1048004D01*
X1270000Y1048004D02*
X1270000Y1060196D01*
X1244600Y1060196D02*
X1244600Y1048004D01*
X1219200Y1048004D02*
X1219200Y1060196D01*
X1193800Y1060196D02*
X1193800Y1048004D01*
X1168400Y1048004D02*
X1168400Y1060196D01*
X1143000Y1060196D02*
X1143000Y1048004D01*
X1460500Y602996D02*
X1460500Y590804D01*
X1485900Y590804D02*
X1485900Y602996D01*
X1612900Y602996D02*
X1612900Y590804D01*
X1638300Y590804D02*
X1638300Y602996D01*
X1511300Y602996D02*
X1511300Y590804D01*
X1536700Y590804D02*
X1536700Y602996D01*
X1587500Y602996D02*
X1587500Y590804D01*
X1562100Y590804D02*
X1562100Y602996D01*
X1638300Y667004D02*
X1638300Y679196D01*
X1612900Y679196D02*
X1612900Y667004D01*
X1587500Y667004D02*
X1587500Y679196D01*
X1562100Y679196D02*
X1562100Y667004D01*
X1536700Y667004D02*
X1536700Y679196D01*
X1511300Y679196D02*
X1511300Y667004D01*
X1485900Y667004D02*
X1485900Y679196D01*
X1460500Y679196D02*
X1460500Y667004D01*
X1409700Y844804D02*
X1409700Y856996D01*
X1435100Y856996D02*
X1435100Y844804D01*
X1562100Y844804D02*
X1562100Y856996D01*
X1587500Y856996D02*
X1587500Y844804D01*
X1460500Y844804D02*
X1460500Y856996D01*
X1485900Y856996D02*
X1485900Y844804D01*
X1536700Y844804D02*
X1536700Y856996D01*
X1511300Y856996D02*
X1511300Y844804D01*
X1612900Y844804D02*
X1612900Y856996D01*
X1638300Y856996D02*
X1638300Y844804D01*
X1638300Y921004D02*
X1638300Y933196D01*
X1612900Y933196D02*
X1612900Y921004D01*
X1587500Y921004D02*
X1587500Y933196D01*
X1562100Y933196D02*
X1562100Y921004D01*
X1536700Y921004D02*
X1536700Y933196D01*
X1511300Y933196D02*
X1511300Y921004D01*
X1485900Y921004D02*
X1485900Y933196D01*
X1460500Y933196D02*
X1460500Y921004D01*
X1435100Y921004D02*
X1435100Y933196D01*
X1409700Y933196D02*
X1409700Y921004D01*
X1460500Y971804D02*
X1460500Y983996D01*
X1485900Y983996D02*
X1485900Y971804D01*
X1612900Y971804D02*
X1612900Y983996D01*
X1638300Y983996D02*
X1638300Y971804D01*
X1511300Y971804D02*
X1511300Y983996D01*
X1536700Y983996D02*
X1536700Y971804D01*
X1587500Y971804D02*
X1587500Y983996D01*
X1562100Y983996D02*
X1562100Y971804D01*
X1638300Y1048004D02*
X1638300Y1060196D01*
X1612900Y1060196D02*
X1612900Y1048004D01*
X1587500Y1048004D02*
X1587500Y1060196D01*
X1562100Y1060196D02*
X1562100Y1048004D01*
X1536700Y1048004D02*
X1536700Y1060196D01*
X1511300Y1060196D02*
X1511300Y1048004D01*
X1485900Y1048004D02*
X1485900Y1060196D01*
X1460500Y1060196D02*
X1460500Y1048004D01*
D11*
X876300Y495300D03*
X876300Y520700D03*
X1143000Y114300D03*
X1143000Y139700D03*
X215900Y622300D03*
X215900Y647700D03*
X1384300Y876300D03*
X1384300Y901700D03*
X1117600Y495300D03*
X1117600Y520700D03*
X1143000Y368300D03*
X1143000Y393700D03*
X241300Y114300D03*
X241300Y139700D03*
X482600Y495300D03*
X482600Y520700D03*
X215900Y241300D03*
X215900Y266700D03*
X1117600Y876300D03*
X1117600Y901700D03*
X800100Y749300D03*
X800100Y774700D03*
X1460500Y368300D03*
X1460500Y393700D03*
X1435100Y1003300D03*
X1435100Y1028700D03*
X1117600Y1003300D03*
X1117600Y1028700D03*
X1460500Y241300D03*
X1460500Y266700D03*
X482600Y368300D03*
X482600Y393700D03*
X215900Y368300D03*
X215900Y393700D03*
X482600Y876300D03*
X482600Y901700D03*
X876300Y1003300D03*
X876300Y1028700D03*
X1143000Y241300D03*
X1143000Y266700D03*
X876300Y876300D03*
X876300Y901700D03*
X1460500Y114300D03*
X1460500Y139700D03*
X533400Y241300D03*
X533400Y266700D03*
X165100Y749300D03*
X165100Y774700D03*
X165100Y876300D03*
X165100Y901700D03*
X1384300Y749300D03*
X1384300Y774700D03*
X1435100Y622300D03*
X1435100Y647700D03*
X1143000Y749300D03*
X1143000Y774700D03*
X1143000Y622300D03*
X1143000Y647700D03*
X1435100Y495300D03*
X1435100Y520700D03*
X876300Y241300D03*
X876300Y266700D03*
X876300Y114300D03*
X876300Y139700D03*
X558800Y114300D03*
X558800Y139700D03*
X482600Y990600D03*
X482600Y1016000D03*
X876300Y622300D03*
X876300Y647700D03*
X165100Y495300D03*
X165100Y520700D03*
X800100Y368300D03*
X800100Y393700D03*
D10*
X901700Y221996D02*
X901700Y209804D01*
X927100Y209804D02*
X927100Y221996D01*
X1054100Y221996D02*
X1054100Y209804D01*
X1054100Y286004D02*
X1054100Y298196D01*
X952500Y221996D02*
X952500Y209804D01*
X977900Y209804D02*
X977900Y221996D01*
X1028700Y221996D02*
X1028700Y209804D01*
X1003300Y209804D02*
X1003300Y221996D01*
X1028700Y286004D02*
X1028700Y298196D01*
X1003300Y298196D02*
X1003300Y286004D01*
X977900Y286004D02*
X977900Y298196D01*
X952500Y298196D02*
X952500Y286004D01*
X927100Y286004D02*
X927100Y298196D01*
X901700Y298196D02*
X901700Y286004D01*
X901700Y94996D02*
X901700Y82804D01*
X927100Y82804D02*
X927100Y94996D01*
X1054100Y94996D02*
X1054100Y82804D01*
X1054100Y159004D02*
X1054100Y171196D01*
X952500Y94996D02*
X952500Y82804D01*
X977900Y82804D02*
X977900Y94996D01*
X1028700Y94996D02*
X1028700Y82804D01*
X1003300Y82804D02*
X1003300Y94996D01*
X1028700Y159004D02*
X1028700Y171196D01*
X1003300Y171196D02*
X1003300Y159004D01*
X977900Y159004D02*
X977900Y171196D01*
X952500Y171196D02*
X952500Y159004D01*
X927100Y159004D02*
X927100Y171196D01*
X901700Y171196D02*
X901700Y159004D01*
X901700Y844804D02*
X901700Y856996D01*
X927100Y856996D02*
X927100Y844804D01*
X1054100Y844804D02*
X1054100Y856996D01*
X1054100Y921004D02*
X1054100Y933196D01*
X952500Y856996D02*
X952500Y844804D01*
X977900Y844804D02*
X977900Y856996D01*
X1028700Y856996D02*
X1028700Y844804D01*
X1003300Y844804D02*
X1003300Y856996D01*
X1028700Y921004D02*
X1028700Y933196D01*
X1003300Y933196D02*
X1003300Y921004D01*
X977900Y921004D02*
X977900Y933196D01*
X952500Y933196D02*
X952500Y921004D01*
X927100Y921004D02*
X927100Y933196D01*
X901700Y933196D02*
X901700Y921004D01*
X508000Y348996D02*
X508000Y336804D01*
X533400Y336804D02*
X533400Y348996D01*
X660400Y348996D02*
X660400Y336804D01*
X685800Y336804D02*
X685800Y348996D01*
X558800Y348996D02*
X558800Y336804D01*
X584200Y336804D02*
X584200Y348996D01*
X635000Y348996D02*
X635000Y336804D01*
X609600Y336804D02*
X609600Y348996D01*
X711200Y348996D02*
X711200Y336804D01*
X736600Y336804D02*
X736600Y348996D01*
X736600Y413004D02*
X736600Y425196D01*
X711200Y425196D02*
X711200Y413004D01*
X685800Y413004D02*
X685800Y425196D01*
X660400Y425196D02*
X660400Y413004D01*
X635000Y413004D02*
X635000Y425196D01*
X609600Y425196D02*
X609600Y413004D01*
X584200Y413004D02*
X584200Y425196D01*
X558800Y425196D02*
X558800Y413004D01*
X533400Y413004D02*
X533400Y425196D01*
X508000Y425196D02*
X508000Y413004D01*
X825500Y348996D02*
X825500Y336804D01*
X850900Y336804D02*
X850900Y348996D01*
X977900Y348996D02*
X977900Y336804D01*
X1003300Y336804D02*
X1003300Y348996D01*
X876300Y348996D02*
X876300Y336804D01*
X901700Y336804D02*
X901700Y348996D01*
X952500Y348996D02*
X952500Y336804D01*
X927100Y336804D02*
X927100Y348996D01*
X1028700Y348996D02*
X1028700Y336804D01*
X1054100Y336804D02*
X1054100Y348996D01*
X1054100Y413004D02*
X1054100Y425196D01*
X1028700Y425196D02*
X1028700Y413004D01*
X1003300Y413004D02*
X1003300Y425196D01*
X977900Y425196D02*
X977900Y413004D01*
X952500Y413004D02*
X952500Y425196D01*
X927100Y425196D02*
X927100Y413004D01*
X901700Y413004D02*
X901700Y425196D01*
X876300Y425196D02*
X876300Y413004D01*
X850900Y413004D02*
X850900Y425196D01*
X825500Y425196D02*
X825500Y413004D01*
X508000Y959104D02*
X508000Y971296D01*
X533400Y971296D02*
X533400Y959104D01*
X660400Y959104D02*
X660400Y971296D01*
X685800Y971296D02*
X685800Y959104D01*
X558800Y959104D02*
X558800Y971296D01*
X584200Y971296D02*
X584200Y959104D01*
X635000Y959104D02*
X635000Y971296D01*
X609600Y971296D02*
X609600Y959104D01*
X711200Y959104D02*
X711200Y971296D01*
X736600Y971296D02*
X736600Y959104D01*
X736600Y1035304D02*
X736600Y1047496D01*
X711200Y1047496D02*
X711200Y1035304D01*
X685800Y1035304D02*
X685800Y1047496D01*
X660400Y1047496D02*
X660400Y1035304D01*
X635000Y1035304D02*
X635000Y1047496D01*
X609600Y1047496D02*
X609600Y1035304D01*
X584200Y1035304D02*
X584200Y1047496D01*
X558800Y1047496D02*
X558800Y1035304D01*
X533400Y1035304D02*
X533400Y1047496D01*
X508000Y1047496D02*
X508000Y1035304D01*
X901700Y602996D02*
X901700Y590804D01*
X927100Y590804D02*
X927100Y602996D01*
X1054100Y602996D02*
X1054100Y590804D01*
X1054100Y667004D02*
X1054100Y679196D01*
X952500Y602996D02*
X952500Y590804D01*
X977900Y590804D02*
X977900Y602996D01*
X1028700Y602996D02*
X1028700Y590804D01*
X1003300Y590804D02*
X1003300Y602996D01*
X1028700Y667004D02*
X1028700Y679196D01*
X1003300Y679196D02*
X1003300Y667004D01*
X977900Y667004D02*
X977900Y679196D01*
X952500Y679196D02*
X952500Y667004D01*
X927100Y667004D02*
X927100Y679196D01*
X901700Y679196D02*
X901700Y667004D01*
X901700Y475996D02*
X901700Y463804D01*
X927100Y463804D02*
X927100Y475996D01*
X1054100Y475996D02*
X1054100Y463804D01*
X1054100Y540004D02*
X1054100Y552196D01*
X952500Y475996D02*
X952500Y463804D01*
X977900Y463804D02*
X977900Y475996D01*
X1028700Y475996D02*
X1028700Y463804D01*
X1003300Y463804D02*
X1003300Y475996D01*
X1028700Y540004D02*
X1028700Y552196D01*
X1003300Y552196D02*
X1003300Y540004D01*
X977900Y540004D02*
X977900Y552196D01*
X952500Y552196D02*
X952500Y540004D01*
X927100Y540004D02*
X927100Y552196D01*
X901700Y552196D02*
X901700Y540004D01*
X901700Y971804D02*
X901700Y983996D01*
X927100Y983996D02*
X927100Y971804D01*
X1054100Y971804D02*
X1054100Y983996D01*
X1054100Y1048004D02*
X1054100Y1060196D01*
X952500Y983996D02*
X952500Y971804D01*
X977900Y971804D02*
X977900Y983996D01*
X1028700Y983996D02*
X1028700Y971804D01*
X1003300Y971804D02*
X1003300Y983996D01*
X1028700Y1048004D02*
X1028700Y1060196D01*
X1003300Y1060196D02*
X1003300Y1048004D01*
X977900Y1048004D02*
X977900Y1060196D01*
X952500Y1060196D02*
X952500Y1048004D01*
X927100Y1048004D02*
X927100Y1060196D01*
X901700Y1060196D02*
X901700Y1048004D01*
X1485900Y221996D02*
X1485900Y209804D01*
X1511300Y209804D02*
X1511300Y221996D01*
X1638300Y221996D02*
X1638300Y209804D01*
X1638300Y286004D02*
X1638300Y298196D01*
X1536700Y221996D02*
X1536700Y209804D01*
X1562100Y209804D02*
X1562100Y221996D01*
X1612900Y221996D02*
X1612900Y209804D01*
X1587500Y209804D02*
X1587500Y221996D01*
X1612900Y286004D02*
X1612900Y298196D01*
X1587500Y298196D02*
X1587500Y286004D01*
X1562100Y286004D02*
X1562100Y298196D01*
X1536700Y298196D02*
X1536700Y286004D01*
X1511300Y286004D02*
X1511300Y298196D01*
X1485900Y298196D02*
X1485900Y286004D01*
X1485900Y336804D02*
X1485900Y348996D01*
X1511300Y348996D02*
X1511300Y336804D01*
X1638300Y336804D02*
X1638300Y348996D01*
X1638300Y413004D02*
X1638300Y425196D01*
X1536700Y348996D02*
X1536700Y336804D01*
X1562100Y336804D02*
X1562100Y348996D01*
X1612900Y348996D02*
X1612900Y336804D01*
X1587500Y336804D02*
X1587500Y348996D01*
X1612900Y413004D02*
X1612900Y425196D01*
X1587500Y425196D02*
X1587500Y413004D01*
X1562100Y413004D02*
X1562100Y425196D01*
X1536700Y425196D02*
X1536700Y413004D01*
X1511300Y413004D02*
X1511300Y425196D01*
X1485900Y425196D02*
X1485900Y413004D01*
X1168400Y348996D02*
X1168400Y336804D01*
X1193800Y336804D02*
X1193800Y348996D01*
X1320800Y348996D02*
X1320800Y336804D01*
X1320800Y413004D02*
X1320800Y425196D01*
X1219200Y348996D02*
X1219200Y336804D01*
X1244600Y336804D02*
X1244600Y348996D01*
X1295400Y348996D02*
X1295400Y336804D01*
X1270000Y336804D02*
X1270000Y348996D01*
X1295400Y413004D02*
X1295400Y425196D01*
X1270000Y425196D02*
X1270000Y413004D01*
X1244600Y413004D02*
X1244600Y425196D01*
X1219200Y425196D02*
X1219200Y413004D01*
X1193800Y413004D02*
X1193800Y425196D01*
X1168400Y425196D02*
X1168400Y413004D01*
X1168400Y94996D02*
X1168400Y82804D01*
X1193800Y82804D02*
X1193800Y94996D01*
X1320800Y94996D02*
X1320800Y82804D01*
X1320800Y159004D02*
X1320800Y171196D01*
X1219200Y94996D02*
X1219200Y82804D01*
X1244600Y82804D02*
X1244600Y94996D01*
X1295400Y94996D02*
X1295400Y82804D01*
X1270000Y82804D02*
X1270000Y94996D01*
X1295400Y159004D02*
X1295400Y171196D01*
X1270000Y171196D02*
X1270000Y159004D01*
X1244600Y159004D02*
X1244600Y171196D01*
X1219200Y171196D02*
X1219200Y159004D01*
X1193800Y159004D02*
X1193800Y171196D01*
X1168400Y171196D02*
X1168400Y159004D01*
X1460500Y463804D02*
X1460500Y475996D01*
X1485900Y475996D02*
X1485900Y463804D01*
X1612900Y463804D02*
X1612900Y475996D01*
X1638300Y475996D02*
X1638300Y463804D01*
X1511300Y463804D02*
X1511300Y475996D01*
X1536700Y475996D02*
X1536700Y463804D01*
X1587500Y463804D02*
X1587500Y475996D01*
X1562100Y475996D02*
X1562100Y463804D01*
X1638300Y540004D02*
X1638300Y552196D01*
X1612900Y552196D02*
X1612900Y540004D01*
X1587500Y540004D02*
X1587500Y552196D01*
X1562100Y552196D02*
X1562100Y540004D01*
X1536700Y540004D02*
X1536700Y552196D01*
X1511300Y552196D02*
X1511300Y540004D01*
X1485900Y540004D02*
X1485900Y552196D01*
X1460500Y552196D02*
X1460500Y540004D01*
D11*
X482600Y749300D03*
X482600Y774700D03*
X482600Y622300D03*
X482600Y647700D03*
D12*
X1714500Y635000D03*
X1714500Y609600D03*
X1714500Y584200D03*
X1714500Y558800D03*
X1714500Y533400D03*
X1739900Y635000D03*
X1739900Y609600D03*
X1739900Y584200D03*
X1739900Y558800D03*
X1739900Y533400D03*
D13*
X50800Y177800D03*
X50800Y203200D03*
X50800Y228600D03*
X50800Y254000D03*
X50800Y279400D03*
X50800Y304800D03*
X50800Y330200D03*
X50800Y355600D03*
X50800Y381000D03*
X50800Y406400D03*
X50800Y431800D03*
X50800Y457200D03*
X50800Y482600D03*
X50800Y508000D03*
X50800Y533400D03*
X50800Y558800D03*
X76200Y177800D03*
X76200Y203200D03*
X76200Y228600D03*
X76200Y254000D03*
X76200Y279400D03*
X76200Y304800D03*
X76200Y330200D03*
X76200Y355600D03*
X76200Y381000D03*
X76200Y406400D03*
X76200Y431800D03*
X76200Y457200D03*
X76200Y482600D03*
X76200Y508000D03*
X76200Y533400D03*
X76200Y558800D03*
X101600Y177800D03*
X101600Y203200D03*
X101600Y228600D03*
X101600Y254000D03*
X101600Y279400D03*
X101600Y304800D03*
X101600Y330200D03*
X101600Y355600D03*
X101600Y381000D03*
X101600Y406400D03*
X101600Y431800D03*
X101600Y457200D03*
X101600Y482600D03*
X101600Y508000D03*
X101600Y533400D03*
X101600Y558800D03*
X50800Y584200D03*
X50800Y609600D03*
X50800Y635000D03*
X50800Y660400D03*
X50800Y685800D03*
X50800Y711200D03*
X50800Y736600D03*
X50800Y762000D03*
X50800Y787400D03*
X50800Y812800D03*
X50800Y838200D03*
X50800Y863600D03*
X50800Y889000D03*
X50800Y914400D03*
X50800Y939800D03*
X50800Y965200D03*
X76200Y584200D03*
X76200Y609600D03*
X76200Y635000D03*
X76200Y660400D03*
X76200Y685800D03*
X76200Y711200D03*
X76200Y736600D03*
X76200Y762000D03*
X76200Y787400D03*
X76200Y812800D03*
X76200Y838200D03*
X76200Y863600D03*
X76200Y889000D03*
X76200Y914400D03*
X76200Y939800D03*
X76200Y965200D03*
X101600Y584200D03*
X101600Y609600D03*
X101600Y635000D03*
X101600Y660400D03*
X101600Y685800D03*
X101600Y711200D03*
X101600Y736600D03*
X101600Y762000D03*
X101600Y787400D03*
X101600Y812800D03*
X101600Y838200D03*
X101600Y863600D03*
X101600Y889000D03*
X101600Y914400D03*
X101600Y939800D03*
X101600Y965200D03*
D14*
X1752600Y38100D03*
X1727200Y38100D03*
D15*
X1549400Y38100D03*
X1651000Y38100D03*
D16*
X101600Y55880D02*
X101600Y71120D01*
X127000Y71120D02*
X127000Y55880D01*
X152400Y55880D02*
X152400Y71120D01*
X1389380Y355600D02*
X1404620Y355600D01*
X1404620Y381000D02*
X1389380Y381000D01*
X1389380Y406400D02*
X1404620Y406400D01*
D17*
X558800Y444500D02*
X533400Y469900D01*
X558800Y444500D02*
X558800Y419100D01*
X523875Y561975D02*
X520700Y565150D01*
X514350Y571500D01*
X523875Y561975D02*
X523875Y479425D01*
X533400Y469900D01*
X520700Y638175D02*
X530225Y647700D01*
X533400Y650875D01*
X542925Y660400D01*
X520700Y638175D02*
X520700Y565150D01*
X876300Y479425D02*
X876300Y419100D01*
X876300Y479425D02*
X885825Y488950D01*
X885825Y631825D01*
X542925Y635000D02*
X530225Y647700D01*
X1460500Y800100D02*
X1470025Y809625D01*
X1470025Y917575D01*
X1460500Y927100D01*
X549275Y866775D02*
X533400Y850900D01*
X549275Y866775D02*
X549275Y1031875D01*
X558800Y1041400D01*
X523875Y660400D02*
X533400Y650875D01*
X523875Y660400D02*
X523875Y841375D01*
X533400Y850900D01*
D18*
X514350Y571500D03*
X542925Y660400D03*
X885825Y631825D03*
X542925Y635000D03*
D17*
X1511300Y800100D02*
X1520825Y809625D01*
X1520825Y917575D01*
X1511300Y927100D01*
X584200Y469900D02*
X574675Y479425D01*
X574675Y688975D02*
X574675Y841375D01*
X574675Y688975D02*
X574675Y565150D01*
X574675Y479425D01*
X574675Y841375D02*
X584200Y850900D01*
X574675Y565150D02*
X565150Y565150D01*
X600075Y428625D02*
X609600Y419100D01*
X600075Y428625D02*
X600075Y482600D01*
X577850Y688975D02*
X574675Y688975D01*
X574675Y1006475D02*
X609600Y1041400D01*
X574675Y1006475D02*
X574675Y841375D01*
X1501775Y936625D02*
X1511300Y927100D01*
X1501775Y936625D02*
X1501775Y1089025D01*
X866775Y1104900D02*
X831850Y1069975D01*
X609600Y1069975D01*
X609600Y1041400D01*
D18*
X565150Y565150D03*
X600075Y482600D03*
X577850Y688975D03*
X885825Y463550D03*
X1501775Y1089025D03*
X866775Y1104900D03*
D17*
X1562100Y800100D02*
X1571625Y809625D01*
X1571625Y904875D01*
X1562100Y914400D01*
X1562100Y927100D01*
X635000Y469900D02*
X625475Y479425D01*
X625475Y647700D02*
X625475Y841375D01*
X625475Y647700D02*
X625475Y479425D01*
X625475Y841375D02*
X635000Y850900D01*
X660400Y1041400D02*
X644525Y1057275D01*
X625475Y1057275D01*
X625475Y841375D01*
X857250Y1085850D02*
X885825Y1085850D01*
X857250Y1085850D02*
X835025Y1063625D01*
X644525Y1063625D01*
X644525Y1057275D01*
D18*
X419100Y644525D03*
X885825Y1085850D03*
X625475Y647700D03*
D17*
X1612900Y800100D02*
X1622425Y809625D01*
X1622425Y917575D01*
X1612900Y927100D01*
X400050Y539750D02*
X393700Y546100D01*
X400050Y539750D02*
X400050Y488950D01*
X676275Y498475D02*
X685800Y488950D01*
X685800Y469900D01*
X711200Y393700D02*
X720725Y384175D01*
X711200Y393700D02*
X711200Y419100D01*
X676275Y685800D02*
X679450Y688975D01*
X676275Y685800D02*
X676275Y498475D01*
X676275Y841375D02*
X685800Y850900D01*
X676275Y841375D02*
X676275Y685800D01*
X708025Y1038225D02*
X711200Y1041400D01*
X708025Y1038225D02*
X708025Y984250D01*
X695325Y971550D01*
X695325Y860425D01*
X685800Y850900D01*
X1612900Y800100D02*
X1622425Y790575D01*
X1622425Y447675D01*
D18*
X400050Y488950D03*
X676275Y498475D03*
X720725Y384175D03*
X679450Y688975D03*
X1622425Y447675D03*
D17*
X1612900Y723900D02*
X1603375Y733425D01*
X1603375Y841375D01*
X1612900Y850900D01*
X736600Y939800D02*
X711200Y965200D01*
X736600Y939800D02*
X736600Y927100D01*
X393700Y504825D02*
X393700Y469900D01*
X733425Y577850D02*
X736600Y574675D01*
X736600Y546100D01*
X746125Y917575D02*
X736600Y927100D01*
X746125Y885825D02*
X746125Y584200D01*
X746125Y885825D02*
X746125Y917575D01*
X746125Y584200D02*
X736600Y574675D01*
X701675Y352425D02*
X711200Y342900D01*
X701675Y352425D02*
X701675Y498475D01*
D18*
X393700Y504825D03*
X733425Y577850D03*
X746125Y885825D03*
X701675Y498475D03*
D17*
X669925Y352425D02*
X660400Y342900D01*
X669925Y352425D02*
X669925Y511175D01*
X974725Y339725D02*
X977900Y342900D01*
X974725Y339725D02*
X974725Y317500D01*
X1552575Y733425D02*
X1562100Y723900D01*
X1552575Y733425D02*
X1552575Y841375D01*
X1562100Y850900D01*
X685800Y927100D02*
X660400Y952500D01*
X660400Y965200D01*
X701675Y1006475D01*
X701675Y1054100D01*
X704850Y1057275D01*
X752475Y1057275D01*
X752475Y701675D02*
X752475Y622300D01*
X752475Y701675D02*
X752475Y1057275D01*
X752475Y701675D02*
X796925Y701675D01*
D18*
X669925Y511175D03*
X974725Y317500D03*
X485775Y577850D03*
X752475Y622300D03*
X796925Y701675D03*
D17*
X1501775Y733425D02*
X1511300Y723900D01*
X1501775Y733425D02*
X1501775Y841375D01*
X1511300Y850900D01*
X635000Y514350D02*
X631825Y511175D01*
X635000Y514350D02*
X635000Y546100D01*
X619125Y352425D02*
X609600Y342900D01*
X619125Y352425D02*
X619125Y431800D01*
X644525Y457200D01*
X644525Y498475D01*
X631825Y511175D01*
X644525Y609600D02*
X641350Y612775D01*
X644525Y609600D02*
X644525Y555625D01*
X635000Y546100D01*
X923925Y339725D02*
X927100Y342900D01*
X923925Y339725D02*
X923925Y311150D01*
X644525Y917575D02*
X635000Y927100D01*
X644525Y917575D02*
X644525Y609600D01*
X1501775Y714375D02*
X1511300Y723900D01*
X1501775Y714375D02*
X1501775Y501650D01*
X1527175Y476250D01*
X1527175Y406400D01*
D18*
X631825Y511175D03*
X641350Y612775D03*
X923925Y311150D03*
X1527175Y406400D03*
D17*
X1460500Y723900D02*
X1450975Y733425D01*
X1450975Y841375D01*
X1460500Y850900D01*
X574675Y358775D02*
X558800Y342900D01*
X574675Y358775D02*
X574675Y438150D01*
X593725Y457200D01*
X593725Y536575D01*
X584200Y546100D01*
X593725Y609600D02*
X590550Y612775D01*
X593725Y609600D02*
X593725Y536575D01*
X593725Y917575D02*
X584200Y927100D01*
X593725Y917575D02*
X593725Y609600D01*
X1450975Y860425D02*
X1460500Y850900D01*
X1450975Y860425D02*
X1450975Y1089025D01*
X850900Y1098550D02*
X568325Y1098550D01*
X568325Y974725D01*
X558800Y965200D01*
D18*
X590550Y612775D03*
X1450975Y1089025D03*
X850900Y1098550D03*
D17*
X1235075Y860425D02*
X1244600Y850900D01*
X1235075Y860425D02*
X1235075Y1060450D01*
X1225550Y1069975D01*
X1209675Y1069975D01*
X1209675Y993775D01*
X1193800Y977900D01*
X1225550Y1082675D02*
X1425575Y1082675D01*
X1225550Y1082675D02*
X1225550Y1069975D01*
X892175Y444500D02*
X885825Y438150D01*
X882650Y434975D01*
X892175Y444500D02*
X892175Y587375D01*
X901700Y596900D01*
X460375Y708025D02*
X460375Y447675D01*
X850900Y723900D02*
X860425Y714375D01*
X860425Y596900D01*
X895350Y222250D02*
X901700Y215900D01*
X895350Y222250D02*
X895350Y276225D01*
X885825Y285750D01*
X885825Y438150D01*
X892175Y841375D02*
X901700Y850900D01*
X892175Y841375D02*
X892175Y587375D01*
D18*
X1425575Y1082675D03*
X882650Y434975D03*
X460375Y708025D03*
X460375Y447675D03*
X860425Y596900D03*
D17*
X434975Y447675D02*
X428625Y441325D01*
X434975Y447675D02*
X434975Y581025D01*
X454025Y600075D01*
X454025Y730250D01*
X1193800Y850900D02*
X1209675Y866775D01*
X1209675Y968375D01*
X1219200Y977900D01*
X968375Y225425D02*
X977900Y215900D01*
X968375Y225425D02*
X968375Y587375D01*
X977900Y596900D01*
X968375Y841375D02*
X977900Y850900D01*
X968375Y752475D02*
X968375Y587375D01*
X968375Y752475D02*
X968375Y841375D01*
D18*
X428625Y441325D03*
X454025Y730250D03*
X968375Y752475D03*
D17*
X384175Y698500D02*
X384175Y390525D01*
X682625Y701675D02*
X685800Y704850D01*
X685800Y723900D01*
X1485900Y596900D02*
X1489075Y600075D01*
X1489075Y619125D01*
X1244600Y927100D02*
X1270000Y952500D01*
X1270000Y977900D01*
X942975Y301625D02*
X952500Y292100D01*
X942975Y660400D02*
X942975Y663575D01*
X942975Y660400D02*
X942975Y301625D01*
X942975Y663575D02*
X952500Y673100D01*
X942975Y736600D02*
X946150Y739775D01*
X942975Y736600D02*
X942975Y663575D01*
X942975Y917575D02*
X952500Y927100D01*
X942975Y917575D02*
X942975Y736600D01*
X942975Y660400D02*
X936625Y660400D01*
D18*
X384175Y390525D03*
X384175Y698500D03*
X682625Y701675D03*
X1489075Y619125D03*
X946150Y739775D03*
X936625Y660400D03*
D17*
X727075Y301625D02*
X736600Y292100D01*
X727075Y530225D02*
X727075Y790575D01*
X727075Y530225D02*
X727075Y301625D01*
X727075Y790575D02*
X736600Y800100D01*
X825500Y88900D02*
X901700Y88900D01*
X825500Y88900D02*
X825500Y288925D01*
X1244600Y469900D02*
X1260475Y454025D01*
X1279525Y454025D01*
X1279525Y568325D01*
X962025Y555625D02*
X952500Y546100D01*
X962025Y952500D02*
X962025Y1044575D01*
X962025Y952500D02*
X962025Y777875D01*
X962025Y555625D01*
X962025Y1044575D02*
X952500Y1054100D01*
X962025Y952500D02*
X981075Y952500D01*
X1336675Y936625D02*
X1336675Y571500D01*
X1336675Y936625D02*
X1295400Y977900D01*
X746125Y530225D02*
X727075Y530225D01*
X746125Y530225D02*
X746125Y533400D01*
D18*
X825500Y288925D03*
X1279525Y568325D03*
X962025Y777875D03*
X981075Y952500D03*
X1336675Y571500D03*
X746125Y533400D03*
D17*
X1536700Y596900D02*
X1546225Y587375D01*
X1546225Y565150D02*
X1546225Y523875D01*
X1546225Y565150D02*
X1546225Y587375D01*
X911225Y968375D02*
X901700Y977900D01*
X911225Y835025D02*
X911225Y815975D01*
X911225Y835025D02*
X911225Y968375D01*
X695325Y301625D02*
X685800Y292100D01*
X695325Y492125D02*
X695325Y790575D01*
X695325Y492125D02*
X695325Y301625D01*
X695325Y790575D02*
X685800Y800100D01*
X936625Y130175D02*
X977900Y88900D01*
X762000Y130175D02*
X695325Y130175D01*
X695325Y301625D01*
X901700Y492125D02*
X904875Y495300D01*
X901700Y492125D02*
X901700Y469900D01*
X685800Y822325D02*
X698500Y835025D01*
X685800Y822325D02*
X685800Y800100D01*
X1533525Y565150D02*
X1546225Y565150D01*
X1203325Y508000D02*
X1193800Y498475D01*
X1193800Y469900D01*
D18*
X1546225Y523875D03*
X911225Y815975D03*
X936625Y130175D03*
X762000Y130175D03*
X695325Y492125D03*
X904875Y495300D03*
X911225Y835025D03*
X698500Y835025D03*
X1533525Y565150D03*
X1203325Y508000D03*
D17*
X1587500Y596900D02*
X1616075Y568325D01*
X968375Y149225D02*
X952500Y165100D01*
X968375Y149225D02*
X1089025Y149225D01*
X1089025Y530225D01*
X485775Y206375D02*
X485775Y63500D01*
X501650Y47625D01*
X1089025Y47625D01*
X1089025Y149225D01*
X1244600Y546100D02*
X1241425Y549275D01*
X1241425Y568325D01*
X1089025Y993775D02*
X1063625Y1019175D01*
X1028700Y1054100D01*
X1089025Y993775D02*
X1089025Y530225D01*
X1562100Y1054100D02*
X1508125Y1108075D01*
X1063625Y1108075D01*
X1063625Y1019175D01*
X1727200Y571500D02*
X1739900Y558800D01*
X1727200Y571500D02*
X1727200Y987425D01*
X1676400Y1038225D01*
X1562100Y1038225D01*
X1562100Y1054100D01*
X850900Y800100D02*
X841375Y809625D01*
X841375Y825500D01*
X828675Y838200D01*
X828675Y1003300D01*
X1060450Y1012825D02*
X1063625Y1016000D01*
X1063625Y1019175D01*
D18*
X1616075Y568325D03*
X1089025Y530225D03*
X485775Y206375D03*
X1241425Y568325D03*
X828675Y1003300D03*
X1060450Y1012825D03*
D17*
X260350Y815975D02*
X250825Y825500D01*
X250825Y917575D01*
X241300Y927100D01*
X250825Y1031875D02*
X241300Y1041400D01*
X250825Y1031875D02*
X250825Y917575D01*
X295275Y92075D02*
X292100Y88900D01*
X295275Y92075D02*
X295275Y146050D01*
X301625Y152400D01*
X301625Y425450D01*
X314325Y438150D01*
X320675Y438150D01*
X533400Y596900D02*
X533400Y625475D01*
X917575Y225425D02*
X927100Y215900D01*
X917575Y225425D02*
X917575Y587375D01*
X927100Y596900D01*
X917575Y841375D02*
X927100Y850900D01*
X917575Y695325D02*
X917575Y587375D01*
X917575Y695325D02*
X917575Y841375D01*
X1143000Y698500D02*
X1168400Y723900D01*
X930275Y695325D02*
X917575Y695325D01*
X428625Y584200D02*
X428625Y450850D01*
X447675Y603250D02*
X447675Y815975D01*
X447675Y603250D02*
X428625Y584200D01*
D18*
X260350Y815975D03*
X320675Y438150D03*
X533400Y625475D03*
X1143000Y698500D03*
X930275Y695325D03*
X428625Y450850D03*
X428625Y584200D03*
X447675Y815975D03*
D17*
X993775Y225425D02*
X1003300Y215900D01*
X993775Y225425D02*
X993775Y587375D01*
X1003300Y596900D01*
X993775Y841375D02*
X1003300Y850900D01*
X993775Y841375D02*
X993775Y587375D01*
X1244600Y723900D02*
X1260475Y708025D01*
X1260475Y625475D01*
X276225Y936625D02*
X266700Y927100D01*
X276225Y936625D02*
X276225Y1031875D01*
X266700Y1041400D01*
X327025Y98425D02*
X317500Y88900D01*
X327025Y193675D02*
X327025Y387350D01*
X327025Y193675D02*
X327025Y98425D01*
X327025Y387350D02*
X311150Y403225D01*
X333375Y565150D02*
X346075Y577850D01*
X333375Y565150D02*
X333375Y428625D01*
X342900Y419100D01*
X612775Y796925D02*
X609600Y800100D01*
X612775Y796925D02*
X612775Y771525D01*
X346075Y758825D02*
X333375Y746125D01*
X333375Y565150D01*
X276225Y917575D02*
X266700Y927100D01*
X276225Y917575D02*
X276225Y787400D01*
X285750Y777875D01*
X285750Y758825D01*
D18*
X1260475Y625475D03*
X311150Y403225D03*
X346075Y577850D03*
X612775Y771525D03*
X346075Y758825D03*
X285750Y758825D03*
X327025Y193675D03*
D17*
X333375Y98425D02*
X342900Y88900D01*
X333375Y98425D02*
X333375Y396875D01*
X317500Y412750D01*
X317500Y419100D01*
X292100Y927100D02*
X301625Y936625D01*
X301625Y1031875D01*
X292100Y1041400D01*
X1012825Y301625D02*
X1003300Y292100D01*
X1012825Y301625D02*
X1012825Y663575D01*
X1003300Y673100D01*
X1012825Y917575D02*
X1003300Y927100D01*
X1012825Y784225D02*
X1012825Y663575D01*
X1012825Y784225D02*
X1012825Y917575D01*
X336550Y1085850D02*
X292100Y1041400D01*
X336550Y1085850D02*
X336550Y1114425D01*
X339725Y1117600D01*
X882650Y1117600D01*
X882650Y1108075D01*
X920750Y1069975D01*
X993775Y1069975D01*
X993775Y936625D01*
X1003300Y927100D01*
X342900Y88900D02*
X346075Y85725D01*
X346075Y79375D01*
X387350Y38100D01*
X1095375Y38100D01*
X1095375Y269875D01*
D18*
X1012825Y784225D03*
X542925Y835025D03*
X1095375Y269875D03*
D17*
X384175Y104775D02*
X368300Y88900D01*
X384175Y104775D02*
X384175Y177800D01*
X403225Y196850D01*
X403225Y390525D01*
X317500Y927100D02*
X327025Y936625D01*
X327025Y1031875D01*
X317500Y1041400D01*
X936625Y301625D02*
X927100Y292100D01*
X936625Y301625D02*
X936625Y650875D01*
X927100Y660400D01*
X927100Y673100D01*
X936625Y917575D02*
X927100Y927100D01*
X936625Y771525D02*
X936625Y682625D01*
X936625Y771525D02*
X936625Y917575D01*
X936625Y682625D02*
X927100Y673100D01*
X327025Y917575D02*
X317500Y927100D01*
X327025Y917575D02*
X327025Y787400D01*
X708025Y777875D02*
X711200Y781050D01*
X711200Y800100D01*
X276225Y428625D02*
X266700Y419100D01*
X276225Y428625D02*
X276225Y777875D01*
D18*
X403225Y390525D03*
X758825Y669925D03*
X936625Y771525D03*
X327025Y787400D03*
X708025Y777875D03*
X276225Y777875D03*
D17*
X342900Y927100D02*
X352425Y936625D01*
X352425Y1031875D01*
X342900Y1041400D01*
X869950Y1111250D02*
X901700Y1079500D01*
X927100Y1054100D01*
X869950Y1111250D02*
X342900Y1111250D01*
X342900Y1041400D01*
X711200Y723900D02*
X714375Y720725D01*
X714375Y695325D01*
X511175Y139700D02*
X590550Y60325D01*
X774700Y60325D01*
X774700Y149225D02*
X774700Y228600D01*
X774700Y149225D02*
X774700Y60325D01*
X746125Y257175D02*
X711200Y292100D01*
X746125Y257175D02*
X774700Y228600D01*
X895350Y120650D02*
X927100Y88900D01*
X895350Y120650D02*
X895350Y136525D01*
X796925Y149225D02*
X774700Y149225D01*
X758825Y374650D02*
X758825Y657225D01*
X758825Y374650D02*
X746125Y361950D01*
X746125Y257175D01*
X866775Y1044575D02*
X901700Y1079500D01*
X866775Y1044575D02*
X866775Y831850D01*
X885825Y812800D01*
X885825Y682625D01*
D18*
X714375Y695325D03*
X511175Y139700D03*
X895350Y136525D03*
X796925Y149225D03*
X758825Y657225D03*
X885825Y682625D03*
D17*
X663575Y695325D02*
X660400Y698500D01*
X660400Y723900D01*
X1235075Y587375D02*
X1235075Y530225D01*
X1235075Y587375D02*
X1244600Y596900D01*
X796925Y615950D02*
X765175Y647700D01*
X796925Y615950D02*
X796925Y555625D01*
X371475Y168275D02*
X368300Y165100D01*
X371475Y168275D02*
X371475Y196850D01*
X377825Y203200D01*
X377825Y327025D02*
X377825Y917575D01*
X377825Y327025D02*
X377825Y203200D01*
X377825Y917575D02*
X368300Y927100D01*
X377825Y1031875D02*
X368300Y1041400D01*
X377825Y1031875D02*
X377825Y917575D01*
X390525Y327025D02*
X396875Y320675D01*
X390525Y327025D02*
X377825Y327025D01*
X942975Y149225D02*
X1003300Y88900D01*
X942975Y149225D02*
X911225Y149225D01*
X911225Y177800D01*
X901700Y187325D01*
X879475Y187325D01*
X879475Y206375D01*
X676275Y238125D02*
X660400Y254000D01*
X660400Y292100D01*
X927100Y977900D02*
X885825Y1019175D01*
X885825Y1050925D01*
X796925Y555625D02*
X784225Y542925D01*
X784225Y238125D01*
D18*
X663575Y695325D03*
X1235075Y530225D03*
X765175Y647700D03*
X796925Y555625D03*
X396875Y320675D03*
X879475Y206375D03*
X676275Y238125D03*
X885825Y1050925D03*
X784225Y238125D03*
D17*
X987425Y180975D02*
X1003300Y165100D01*
X987425Y447675D02*
X987425Y482600D01*
X987425Y447675D02*
X987425Y180975D01*
X1003300Y977900D02*
X1019175Y993775D01*
X1060450Y993775D01*
X1063625Y990600D01*
X1063625Y866775D02*
X1063625Y247650D01*
X1063625Y866775D02*
X1063625Y990600D01*
X1063625Y247650D02*
X1038225Y222250D01*
X1038225Y200025D01*
X1003300Y165100D01*
X1295400Y673100D02*
X1279525Y688975D01*
X1279525Y835025D01*
X434975Y146050D02*
X390525Y146050D01*
X434975Y146050D02*
X434975Y282575D01*
X612775Y720725D02*
X609600Y723900D01*
X612775Y720725D02*
X612775Y695325D01*
X393700Y927100D02*
X403225Y936625D01*
X403225Y1031875D01*
X393700Y1041400D01*
X606425Y727075D02*
X609600Y723900D01*
X606425Y727075D02*
X606425Y758825D01*
X422275Y765175D02*
X403225Y784225D01*
X403225Y936625D01*
X466725Y314325D02*
X434975Y282575D01*
X466725Y441325D02*
X466725Y488950D01*
X466725Y441325D02*
X466725Y314325D01*
X466725Y488950D02*
X473075Y495300D01*
X473075Y574675D01*
X479425Y581025D01*
X479425Y609600D01*
X473075Y615950D01*
X473075Y727075D01*
X454025Y746125D01*
X422275Y752475D02*
X422275Y765175D01*
D18*
X987425Y482600D03*
X1279525Y835025D03*
X1063625Y866775D03*
X390525Y146050D03*
X434975Y282575D03*
X612775Y695325D03*
X606425Y758825D03*
X422275Y765175D03*
X454025Y746125D03*
X422275Y752475D03*
X987425Y447675D03*
X466725Y441325D03*
D17*
X584200Y292100D02*
X574675Y282575D01*
X574675Y180975D01*
X419100Y927100D02*
X428625Y936625D01*
X428625Y1031875D01*
X419100Y1041400D01*
X517525Y819150D02*
X517525Y688975D01*
X517525Y819150D02*
X469900Y866775D01*
X469900Y876300D01*
X1069975Y993775D02*
X1069975Y574675D01*
X1069975Y993775D02*
X1038225Y1025525D01*
X1003300Y1025525D01*
X1003300Y1054100D01*
X482600Y1085850D02*
X428625Y1031875D01*
X889000Y1111250D02*
X1003300Y1111250D01*
X1003300Y1054100D01*
X1069975Y574675D02*
X1069975Y200025D01*
D18*
X574675Y180975D03*
X517525Y688975D03*
X469900Y876300D03*
X1069975Y574675D03*
X482600Y1085850D03*
X889000Y1111250D03*
X1069975Y200025D03*
D17*
X1196975Y898525D02*
X1168400Y927100D01*
X1196975Y898525D02*
X1196975Y879475D01*
X1292225Y879475D02*
X1311275Y860425D01*
X1311275Y809625D01*
X1320800Y800100D01*
D18*
X1196975Y879475D03*
X1292225Y879475D03*
D17*
X1254125Y809625D02*
X1244600Y800100D01*
X1254125Y809625D02*
X1254125Y911225D01*
X1270000Y927100D01*
X1228725Y733425D02*
X1219200Y723900D01*
X1228725Y733425D02*
X1228725Y755650D01*
X1260475Y787400D01*
X1260475Y841375D01*
X1270000Y850900D01*
X1228725Y511175D02*
X1270000Y469900D01*
X1228725Y511175D02*
X1228725Y587375D01*
X1219200Y596900D01*
X1177925Y555625D02*
X1168400Y546100D01*
X1177925Y555625D02*
X1177925Y644525D01*
D18*
X1177925Y644525D03*
D17*
X1254125Y561975D02*
X1270000Y546100D01*
X1254125Y561975D02*
X1254125Y663575D01*
X1244600Y673100D01*
X1209675Y841375D02*
X1219200Y850900D01*
X1209675Y841375D02*
X1209675Y698500D01*
X1425575Y698500D02*
X1435100Y708025D01*
X1435100Y723900D01*
D18*
X1209675Y698500D03*
X1425575Y698500D03*
D17*
X1184275Y809625D02*
X1143000Y850900D01*
X1184275Y809625D02*
X1184275Y771525D01*
X1466850Y784225D02*
X1485900Y765175D01*
X1485900Y723900D01*
D18*
X1184275Y771525D03*
X1466850Y784225D03*
D17*
X1222375Y923925D02*
X1219200Y927100D01*
X1222375Y923925D02*
X1222375Y869950D01*
X1228725Y863600D01*
X1228725Y765175D01*
X1533525Y758825D02*
X1536700Y755650D01*
X1536700Y723900D01*
D18*
X1228725Y765175D03*
X1533525Y758825D03*
D17*
X1577975Y908050D02*
X1574800Y911225D01*
X1577975Y908050D02*
X1577975Y733425D01*
X1587500Y723900D01*
D18*
X1574800Y911225D03*
D17*
X1374775Y539750D02*
X1336675Y501650D01*
X1374775Y539750D02*
X1374775Y711200D01*
D18*
X1336675Y501650D03*
X1374775Y711200D03*
D17*
X1143000Y469900D02*
X1127125Y485775D01*
X1127125Y774700D01*
X1114425Y787400D01*
X1114425Y828675D01*
D18*
X1114425Y828675D03*
D17*
X1216025Y549275D02*
X1219200Y546100D01*
X1216025Y549275D02*
X1216025Y577850D01*
X1209675Y584200D01*
X1209675Y688975D01*
X1235075Y714375D01*
X1235075Y736600D01*
X1263650Y765175D01*
D18*
X1263650Y765175D03*
D17*
X1304925Y555625D02*
X1295400Y546100D01*
X1304925Y555625D02*
X1304925Y577850D01*
X1431925Y581025D02*
X1476375Y581025D01*
X1476375Y692150D01*
X1495425Y711200D01*
X1495425Y790575D01*
X1485900Y800100D01*
D18*
X1304925Y577850D03*
X1431925Y581025D03*
D17*
X1330325Y501650D02*
X1317625Y488950D01*
X1330325Y501650D02*
X1330325Y917575D01*
X1320800Y927100D01*
D18*
X1317625Y488950D03*
D17*
X434975Y657225D02*
X434975Y828675D01*
X1082675Y828675D02*
X1082675Y438150D01*
X1219200Y269875D02*
X1219200Y215900D01*
X1219200Y269875D02*
X1203325Y285750D01*
X1203325Y333375D01*
X1193800Y342900D01*
D18*
X434975Y657225D03*
X434975Y828675D03*
X1082675Y828675D03*
X1082675Y438150D03*
D17*
X720725Y555625D02*
X711200Y546100D01*
X720725Y555625D02*
X720725Y917575D01*
X711200Y927100D01*
X708025Y473075D02*
X711200Y469900D01*
X708025Y473075D02*
X708025Y527050D01*
X701675Y533400D01*
X701675Y765175D02*
X701675Y828675D01*
X701675Y765175D02*
X701675Y533400D01*
X701675Y828675D02*
X711200Y838200D01*
X711200Y850900D01*
X1000125Y796925D02*
X1003300Y800100D01*
X1000125Y796925D02*
X1000125Y765175D01*
X714375Y765175D02*
X701675Y765175D01*
D18*
X1000125Y765175D03*
X714375Y765175D03*
D17*
X650875Y479425D02*
X660400Y469900D01*
X650875Y479425D02*
X650875Y841375D01*
X660400Y850900D01*
X606425Y473075D02*
X609600Y469900D01*
X606425Y473075D02*
X606425Y527050D01*
X600075Y533400D01*
X600075Y841375D01*
X609600Y850900D01*
D18*
X860425Y841375D03*
D17*
X549275Y479425D02*
X558800Y469900D01*
X549275Y479425D02*
X549275Y841375D01*
X558800Y850900D01*
X835025Y841375D02*
X876300Y800100D01*
X835025Y841375D02*
X835025Y873125D01*
D18*
X835025Y873125D03*
D17*
X466725Y701675D02*
X466725Y498475D01*
X1193800Y927100D02*
X1196975Y930275D01*
X1196975Y958850D01*
X1019175Y301625D02*
X1028700Y292100D01*
X1019175Y612775D02*
X1019175Y663575D01*
X1019175Y612775D02*
X1019175Y301625D01*
X1019175Y663575D02*
X1028700Y673100D01*
X1025525Y923925D02*
X1028700Y927100D01*
X1025525Y923925D02*
X1025525Y869950D01*
X1019175Y863600D01*
X1019175Y746125D02*
X1019175Y663575D01*
X1019175Y746125D02*
X1019175Y863600D01*
X1019175Y612775D02*
X1038225Y612775D01*
X1028700Y955675D02*
X1031875Y958850D01*
X1028700Y955675D02*
X1028700Y927100D01*
D18*
X466725Y498475D03*
X466725Y701675D03*
X1196975Y958850D03*
X1038225Y612775D03*
X1031875Y958850D03*
X1019175Y746125D03*
D17*
X609600Y292100D02*
X612775Y288925D01*
X612775Y234950D01*
X619125Y228600D01*
X619125Y127000D01*
X650875Y95250D01*
X650875Y76200D01*
X654050Y73025D01*
X695325Y73025D01*
X695325Y111125D01*
X977900Y469900D02*
X981075Y473075D01*
X981075Y523875D02*
X981075Y527050D01*
X981075Y523875D02*
X981075Y473075D01*
X981075Y527050D02*
X987425Y533400D01*
X987425Y784225D02*
X987425Y968375D01*
X987425Y784225D02*
X987425Y533400D01*
X987425Y968375D02*
X977900Y977900D01*
X981075Y523875D02*
X987425Y523875D01*
X987425Y784225D02*
X984250Y784225D01*
X1057275Y193675D02*
X1028700Y165100D01*
X1057275Y193675D02*
X1076325Y193675D01*
X1076325Y520700D01*
D18*
X695325Y111125D03*
X987425Y523875D03*
X984250Y784225D03*
X1076325Y520700D03*
D17*
X558800Y546100D02*
X558800Y574675D01*
X568325Y584200D01*
X568325Y917575D01*
X558800Y927100D01*
X873125Y727075D02*
X876300Y723900D01*
X873125Y727075D02*
X873125Y755650D01*
X835025Y793750D01*
X835025Y822325D01*
X822325Y835025D01*
X822325Y898525D01*
D18*
X822325Y898525D03*
D17*
X619125Y555625D02*
X609600Y546100D01*
X619125Y555625D02*
X619125Y917575D01*
X609600Y927100D01*
X901700Y723900D02*
X911225Y714375D01*
X911225Y612775D01*
D18*
X911225Y612775D03*
D17*
X669925Y555625D02*
X660400Y546100D01*
X669925Y758825D02*
X669925Y917575D01*
X669925Y758825D02*
X669925Y555625D01*
X669925Y917575D02*
X660400Y927100D01*
X977900Y752475D02*
X977900Y723900D01*
D18*
X977900Y752475D03*
X669925Y758825D03*
D17*
X342900Y342900D02*
X352425Y333375D01*
X352425Y250825D01*
X631825Y250825D02*
X635000Y247650D01*
X635000Y215900D01*
D18*
X352425Y250825D03*
X631825Y250825D03*
D17*
X600075Y317500D02*
X590550Y327025D01*
X600075Y317500D02*
X600075Y225425D01*
X609600Y215900D01*
D18*
X590550Y327025D03*
D17*
X523875Y349250D02*
X514350Y358775D01*
X523875Y349250D02*
X523875Y203200D01*
X577850Y149225D01*
X593725Y149225D01*
X593725Y206375D01*
X584200Y215900D01*
D18*
X514350Y358775D03*
D17*
X368300Y292100D02*
X365125Y295275D01*
X365125Y320675D01*
X241300Y320675D02*
X231775Y330200D01*
X231775Y587375D01*
X241300Y596900D01*
X1511300Y546100D02*
X1527175Y561975D01*
X1527175Y635000D01*
X1368425Y1006475D02*
X1320800Y1054100D01*
X1368425Y1006475D02*
X1368425Y692150D01*
X101600Y558800D02*
X88900Y571500D01*
X38100Y571500D01*
X38100Y673100D01*
X1231900Y1076325D02*
X1320800Y1076325D01*
X1320800Y1054100D01*
D18*
X365125Y320675D03*
X241300Y320675D03*
X1527175Y635000D03*
X1368425Y692150D03*
X38100Y673100D03*
X1231900Y1076325D03*
D17*
X393700Y292100D02*
X384175Y301625D01*
X384175Y320675D01*
X1485900Y469900D02*
X1495425Y479425D01*
X1495425Y635000D01*
X1355725Y993775D02*
X1295400Y1054100D01*
X1355725Y993775D02*
X1355725Y692150D01*
X307975Y327025D02*
X307975Y44450D01*
D18*
X384175Y320675D03*
X1495425Y635000D03*
X1355725Y692150D03*
X307975Y327025D03*
X307975Y44450D03*
D17*
X295275Y314325D02*
X282575Y327025D01*
X282575Y587375D01*
X292100Y596900D01*
X428625Y908050D02*
X501650Y981075D01*
X428625Y908050D02*
X428625Y631825D01*
D18*
X295275Y314325D03*
X501650Y981075D03*
X428625Y631825D03*
X828675Y390525D03*
D17*
X327025Y663575D02*
X317500Y673100D01*
X327025Y663575D02*
X327025Y558800D01*
X447675Y530225D02*
X450850Y527050D01*
X450850Y466725D01*
X847725Y447675D02*
X850900Y444500D01*
X850900Y419100D01*
X835025Y352425D02*
X825500Y342900D01*
X835025Y352425D02*
X835025Y447675D01*
D18*
X327025Y558800D03*
X447675Y530225D03*
X450850Y466725D03*
X847725Y447675D03*
X835025Y447675D03*
D17*
X508000Y393700D02*
X508000Y342900D01*
X517525Y403225D02*
X533400Y419100D01*
X517525Y403225D02*
X508000Y393700D01*
X517525Y403225D02*
X517525Y558800D01*
D18*
X517525Y558800D03*
D17*
X441325Y708025D02*
X441325Y898525D01*
X508000Y965200D01*
X508000Y1016000D02*
X533400Y1041400D01*
X508000Y1016000D02*
X508000Y965200D01*
D18*
X441325Y708025D03*
D17*
X215900Y495300D02*
X190500Y469900D01*
X215900Y495300D02*
X215900Y546100D01*
X225425Y631825D02*
X244475Y650875D01*
X225425Y631825D02*
X225425Y555625D01*
X215900Y546100D01*
D18*
X244475Y650875D03*
D17*
X1409700Y723900D02*
X1412875Y727075D01*
X1412875Y777875D01*
X1435100Y800100D01*
X1177925Y98425D02*
X1168400Y88900D01*
X1177925Y98425D02*
X1177925Y349250D01*
X1187450Y358775D01*
X1219200Y358775D01*
X1219200Y342900D01*
X1292225Y288925D02*
X1295400Y292100D01*
X1292225Y288925D02*
X1292225Y234950D01*
X1279525Y222250D01*
X1279525Y190500D01*
X1400175Y714375D02*
X1409700Y723900D01*
X1400175Y714375D02*
X1400175Y434975D01*
X1330325Y365125D01*
X1330325Y323850D01*
X1311275Y304800D01*
D18*
X1279525Y190500D03*
X1311275Y304800D03*
D17*
X514350Y603250D02*
X508000Y596900D01*
X514350Y603250D02*
X514350Y654050D01*
D18*
X514350Y654050D03*
D17*
X666750Y257175D02*
X685800Y238125D01*
X685800Y215900D01*
D18*
X666750Y257175D03*
D17*
X241300Y800100D02*
X238125Y803275D01*
X238125Y831850D01*
X231775Y838200D01*
X231775Y968375D01*
X241300Y977900D01*
X568325Y130175D02*
X609600Y88900D01*
X568325Y130175D02*
X568325Y149225D01*
X511175Y206375D01*
X511175Y238125D01*
X250825Y244475D02*
X250825Y790575D01*
X241300Y800100D01*
D18*
X511175Y238125D03*
X250825Y244475D03*
D17*
X266700Y800100D02*
X266700Y828675D01*
X257175Y838200D01*
X257175Y968375D01*
X266700Y977900D01*
X257175Y133350D02*
X285750Y104775D01*
X257175Y133350D02*
X257175Y790575D01*
X266700Y800100D01*
D18*
X285750Y104775D03*
D17*
X292100Y800100D02*
X282575Y809625D01*
X282575Y968375D01*
X292100Y977900D01*
X657225Y92075D02*
X660400Y88900D01*
X657225Y92075D02*
X657225Y120650D01*
X625475Y152400D01*
X625475Y390525D01*
X336550Y403225D02*
X327025Y412750D01*
X327025Y514350D01*
X301625Y539750D01*
X301625Y790575D01*
X292100Y800100D01*
D18*
X625475Y390525D03*
X336550Y403225D03*
D17*
X317500Y800100D02*
X314325Y803275D01*
X314325Y831850D01*
X307975Y838200D01*
X307975Y968375D01*
X317500Y977900D01*
X180975Y152400D02*
X238125Y95250D01*
X180975Y152400D02*
X180975Y660400D01*
X231775Y711200D01*
X231775Y746125D01*
X314325Y746125D02*
X317500Y749300D01*
X317500Y800100D01*
D18*
X238125Y95250D03*
X231775Y746125D03*
X314325Y746125D03*
D17*
X342900Y800100D02*
X333375Y809625D01*
X333375Y968375D01*
X342900Y977900D01*
X358775Y142875D02*
X371475Y130175D01*
X358775Y142875D02*
X358775Y387350D01*
X352425Y393700D01*
X352425Y768350D01*
X342900Y777875D01*
X342900Y800100D01*
D18*
X371475Y130175D03*
D17*
X368300Y800100D02*
X358775Y809625D01*
X358775Y968375D01*
X368300Y977900D01*
X650875Y200025D02*
X685800Y165100D01*
X650875Y200025D02*
X650875Y377825D01*
X371475Y384175D02*
X358775Y396875D01*
X358775Y809625D01*
D18*
X650875Y377825D03*
X371475Y384175D03*
D17*
X393700Y800100D02*
X390525Y803275D01*
X390525Y831850D01*
X384175Y838200D01*
X384175Y968375D01*
X393700Y977900D01*
X428625Y431800D02*
X428625Y152400D01*
X428625Y431800D02*
X406400Y454025D01*
X406400Y771525D01*
X393700Y784225D01*
X393700Y800100D01*
D18*
X428625Y152400D03*
D17*
X419100Y800100D02*
X409575Y809625D01*
X409575Y968375D01*
X419100Y977900D01*
X492125Y180975D02*
X498475Y174625D01*
X492125Y180975D02*
X492125Y723900D01*
X454025Y762000D01*
X454025Y790575D01*
D18*
X498475Y174625D03*
X454025Y790575D03*
D17*
X609600Y165100D02*
X612775Y161925D01*
X612775Y107950D01*
X625475Y95250D01*
X625475Y76200D01*
X635000Y66675D01*
X768350Y66675D01*
X768350Y187325D01*
X1260475Y133350D02*
X1263650Y130175D01*
X1260475Y133350D02*
X1260475Y333375D01*
X1270000Y342900D01*
D18*
X768350Y187325D03*
X1263650Y130175D03*
D17*
X1285875Y244475D02*
X1285875Y333375D01*
X1295400Y342900D01*
D18*
X1285875Y244475D03*
D17*
X352425Y206375D02*
X342900Y215900D01*
X352425Y206375D02*
X352425Y82550D01*
X390525Y44450D01*
X1524000Y44450D02*
X1552575Y73025D01*
X1552575Y133350D01*
X1577975Y158750D01*
X1577975Y282575D01*
X1587500Y292100D01*
D18*
X390525Y44450D03*
X1524000Y44450D03*
D17*
X1193800Y596900D02*
X1193800Y673100D01*
X1193800Y723900D01*
X1193800Y800100D01*
X1270000Y673100D02*
X1270000Y596900D01*
X1270000Y673100D02*
X1270000Y723900D01*
X1270000Y800100D01*
X1270000Y596900D02*
X1285875Y581025D01*
X1285875Y450850D01*
X1304925Y431800D01*
X1304925Y374650D01*
X1279525Y349250D01*
X1279525Y238125D01*
D18*
X1279525Y238125D03*
D17*
X139700Y654050D02*
X139700Y841375D01*
D18*
X139700Y841375D03*
X139700Y654050D03*
D17*
X114300Y812800D02*
X120650Y819150D01*
X114300Y812800D02*
X114300Y682625D01*
X104775Y673100D01*
X50800Y673100D01*
X50800Y660400D01*
D18*
X120650Y819150D03*
D17*
X133350Y844550D02*
X139700Y850900D01*
X133350Y844550D02*
X133350Y730250D01*
D18*
X139700Y850900D03*
X133350Y730250D03*
D17*
X146050Y752475D02*
X146050Y885825D01*
D18*
X146050Y885825D03*
X146050Y752475D03*
D17*
X225425Y758825D02*
X225425Y812800D01*
D18*
X225425Y812800D03*
X225425Y758825D03*
D17*
X342900Y850900D02*
X352425Y841375D01*
X352425Y777875D01*
D18*
X352425Y777875D03*
D17*
X200025Y885825D02*
X165100Y850900D01*
X165100Y812800D01*
D18*
X200025Y885825D03*
X165100Y812800D03*
D17*
X215900Y777875D02*
X215900Y723900D01*
X215900Y777875D02*
X200025Y793750D01*
X200025Y825500D01*
D18*
X200025Y825500D03*
D17*
X238125Y727075D02*
X241300Y723900D01*
X238125Y727075D02*
X238125Y781050D01*
X231775Y787400D01*
X231775Y815975D01*
X215900Y831850D01*
D18*
X215900Y831850D03*
D17*
X307975Y828675D02*
X307975Y708025D01*
X307975Y828675D02*
X301625Y835025D01*
X301625Y898525D01*
D18*
X307975Y708025D03*
X301625Y898525D03*
D17*
X292100Y771525D02*
X292100Y723900D01*
X152400Y793750D02*
X152400Y889000D01*
X139700Y901700D01*
X50800Y901700D01*
X50800Y914400D01*
D18*
X292100Y771525D03*
X152400Y793750D03*
D17*
X314325Y720725D02*
X317500Y723900D01*
X314325Y720725D02*
X314325Y692150D01*
X307975Y685800D01*
X307975Y631825D01*
D18*
X307975Y631825D03*
D17*
X200025Y730250D02*
X209550Y739775D01*
X200025Y730250D02*
X200025Y688975D01*
X174625Y663575D01*
X174625Y336550D01*
X104775Y266700D01*
X76200Y266700D01*
X76200Y254000D01*
D18*
X209550Y739775D03*
D17*
X193675Y701675D02*
X161925Y669925D01*
X161925Y533400D01*
X130175Y501650D01*
X130175Y317500D01*
X104775Y292100D01*
X76200Y292100D01*
X76200Y279400D01*
D18*
X193675Y701675D03*
D17*
X117475Y666750D02*
X114300Y663575D01*
X114300Y327025D01*
X104775Y317500D01*
X76200Y317500D01*
X76200Y304800D01*
D18*
X117475Y666750D03*
D17*
X104775Y190500D02*
X228600Y66675D01*
X104775Y190500D02*
X25400Y190500D01*
X25400Y727075D01*
X47625Y749300D01*
X101600Y749300D01*
X101600Y762000D01*
D18*
X228600Y66675D03*
D17*
X1635125Y692150D02*
X1647825Y704850D01*
X1647825Y917575D01*
X1638300Y927100D01*
D18*
X1635125Y692150D03*
D17*
X1520825Y682625D02*
X1511300Y673100D01*
X1520825Y682625D02*
X1520825Y711200D01*
D18*
X1520825Y711200D03*
D17*
X1527175Y682625D02*
X1536700Y673100D01*
X1527175Y682625D02*
X1527175Y917575D01*
X1536700Y927100D01*
X1552575Y479425D02*
X1562100Y469900D01*
X1552575Y479425D02*
X1552575Y663575D01*
X1562100Y673100D01*
X1546225Y962025D02*
X1562100Y977900D01*
X1546225Y962025D02*
X1546225Y688975D01*
X1562100Y673100D01*
X1419225Y565150D02*
X1489075Y495300D01*
X1419225Y565150D02*
X1419225Y762000D01*
X1444625Y787400D01*
X1444625Y841375D01*
X1435100Y850900D01*
X1444625Y841375D02*
X1444625Y1069975D01*
D18*
X1489075Y495300D03*
X1444625Y1069975D03*
D17*
X1203325Y1063625D02*
X1193800Y1054100D01*
X1203325Y1063625D02*
X1203325Y1073150D01*
X1231900Y1101725D01*
X1495425Y1101725D01*
X1495425Y860425D01*
X1485900Y850900D01*
X1228725Y1044575D02*
X1219200Y1054100D01*
X1228725Y1044575D02*
X1228725Y904875D01*
D18*
X1228725Y904875D03*
D17*
X1279525Y1019175D02*
X1244600Y1054100D01*
X1279525Y1019175D02*
X1279525Y873125D01*
D18*
X1279525Y873125D03*
D17*
X393700Y673100D02*
X390525Y676275D01*
X390525Y704850D01*
X384175Y711200D01*
X384175Y822325D01*
X1400175Y822325D02*
X1409700Y831850D01*
X1409700Y850900D01*
X1193800Y88900D02*
X1190625Y85725D01*
X1190625Y69850D01*
X1139825Y19050D01*
X1101725Y19050D01*
X1101725Y796925D01*
X1409700Y901700D02*
X1435100Y927100D01*
X1409700Y901700D02*
X1409700Y850900D01*
D18*
X384175Y822325D03*
X1400175Y822325D03*
X1101725Y796925D03*
D17*
X1612900Y596900D02*
X1616075Y600075D01*
X1616075Y635000D01*
D18*
X1616075Y635000D03*
D17*
X1393825Y514350D02*
X1317625Y438150D01*
X1393825Y514350D02*
X1393825Y1041400D01*
X1441450Y1089025D02*
X1447800Y1095375D01*
X1441450Y1089025D02*
X1393825Y1041400D01*
X1447800Y1095375D02*
X1476375Y1095375D01*
X1476375Y987425D01*
X1485900Y977900D01*
X155575Y660400D02*
X136525Y641350D01*
X155575Y660400D02*
X155575Y787400D01*
X158750Y790575D01*
X158750Y854075D01*
X174625Y869950D01*
X174625Y1031875D01*
X1228725Y1089025D02*
X1441450Y1089025D01*
D18*
X1317625Y438150D03*
X136525Y641350D03*
X174625Y1031875D03*
X1228725Y1089025D03*
D17*
X533400Y342900D02*
X568325Y307975D01*
X568325Y244475D01*
D18*
X568325Y244475D03*
D17*
X584200Y314325D02*
X584200Y342900D01*
X584200Y314325D02*
X593725Y304800D01*
X1000125Y257175D02*
X1028700Y228600D01*
X1028700Y215900D01*
D18*
X593725Y304800D03*
X1000125Y257175D03*
D17*
X638175Y346075D02*
X635000Y342900D01*
X638175Y346075D02*
X638175Y371475D01*
X1041400Y368300D02*
X1044575Y365125D01*
X1044575Y301625D01*
X1054100Y292100D01*
D18*
X638175Y371475D03*
X1041400Y368300D03*
D17*
X777875Y333375D02*
X752475Y358775D01*
X777875Y333375D02*
X777875Y292100D01*
D18*
X752475Y358775D03*
X777875Y292100D03*
D17*
X952500Y88900D02*
X936625Y73025D01*
X819150Y73025D01*
X819150Y327025D01*
X815975Y330200D01*
X815975Y412750D01*
X812800Y415925D01*
D18*
X812800Y415925D03*
D17*
X685800Y419100D02*
X676275Y409575D01*
X676275Y257175D01*
X790575Y244475D02*
X803275Y231775D01*
X803275Y73025D01*
X809625Y66675D01*
X1028700Y66675D01*
X1028700Y88900D01*
D18*
X676275Y257175D03*
X790575Y244475D03*
D17*
X644525Y409575D02*
X635000Y419100D01*
X644525Y409575D02*
X644525Y152400D01*
X663575Y133350D01*
D18*
X663575Y133350D03*
D17*
X600075Y403225D02*
X584200Y419100D01*
X600075Y403225D02*
X600075Y327025D01*
X619125Y307975D01*
X619125Y279400D01*
X831850Y276225D02*
X866775Y241300D01*
X866775Y228600D01*
X901700Y193675D01*
X977900Y193675D01*
X977900Y165100D01*
D18*
X619125Y279400D03*
X831850Y276225D03*
D17*
X850900Y342900D02*
X860425Y352425D01*
X860425Y568325D01*
D18*
X860425Y568325D03*
D17*
X911225Y352425D02*
X901700Y342900D01*
X911225Y352425D02*
X911225Y390525D01*
X1025525Y390525D02*
X1038225Y403225D01*
X1038225Y587375D01*
X1028700Y596900D01*
D18*
X911225Y390525D03*
X1025525Y390525D03*
D17*
X962025Y352425D02*
X952500Y342900D01*
X962025Y352425D02*
X962025Y374650D01*
X1108075Y377825D02*
X1108075Y644525D01*
D18*
X962025Y374650D03*
X1108075Y377825D03*
X1108075Y644525D03*
D17*
X1044575Y381000D02*
X1025525Y361950D01*
X1044575Y381000D02*
X1044575Y644525D01*
D18*
X1025525Y361950D03*
X1044575Y644525D03*
D17*
X952500Y469900D02*
X955675Y466725D01*
X955675Y441325D01*
D18*
X955675Y441325D03*
D17*
X962025Y428625D02*
X952500Y419100D01*
X962025Y428625D02*
X962025Y482600D01*
D18*
X962025Y482600D03*
D17*
X911225Y428625D02*
X901700Y419100D01*
X911225Y428625D02*
X911225Y501650D01*
X1050925Y501650D02*
X1054100Y504825D01*
X1054100Y546100D01*
D18*
X911225Y501650D03*
X1050925Y501650D03*
D17*
X600075Y971550D02*
X590550Y981075D01*
X600075Y971550D02*
X600075Y885825D01*
D18*
X590550Y981075D03*
X600075Y885825D03*
D17*
X1038225Y984250D02*
X1041400Y987425D01*
X1038225Y984250D02*
X1038225Y860425D01*
X1028700Y850900D01*
D18*
X1041400Y987425D03*
D17*
X952500Y977900D02*
X904875Y1025525D01*
D18*
X904875Y1025525D03*
D17*
X638175Y1038225D02*
X635000Y1041400D01*
X638175Y1038225D02*
X638175Y990600D01*
D18*
X638175Y990600D03*
D17*
X587375Y1044575D02*
X584200Y1041400D01*
X587375Y1044575D02*
X587375Y1085850D01*
X1009650Y1092200D02*
X1054100Y1092200D01*
X1054100Y1054100D01*
D18*
X587375Y1085850D03*
X1009650Y1092200D03*
D17*
X1536700Y215900D02*
X1552575Y200025D01*
X1571625Y200025D01*
X1571625Y355600D01*
X1628775Y412750D01*
X1628775Y812800D01*
D18*
X1628775Y812800D03*
D17*
X1527175Y250825D02*
X1562100Y215900D01*
X1527175Y250825D02*
X1527175Y393700D01*
X1520825Y400050D01*
X1520825Y431800D01*
X1498600Y454025D01*
X1416050Y454025D01*
X1416050Y542925D01*
D18*
X1416050Y542925D03*
D17*
X1390650Y314325D02*
X1450975Y254000D01*
X1450975Y165100D01*
X1485900Y130175D01*
X1485900Y88900D01*
D18*
X1390650Y314325D03*
D17*
X1511300Y977900D02*
X1536700Y1003300D01*
X1536700Y1054100D01*
X1714500Y469900D02*
X1587500Y342900D01*
X1714500Y469900D02*
X1714500Y533400D01*
X1701800Y1003300D02*
X1536700Y1003300D01*
X1701800Y1003300D02*
X1701800Y546100D01*
X1714500Y533400D01*
X473075Y301625D02*
X441325Y269875D01*
X473075Y301625D02*
X473075Y454025D01*
X1114425Y454025D02*
X1193800Y454025D01*
X1193800Y419100D01*
D18*
X441325Y269875D03*
X473075Y454025D03*
X1114425Y454025D03*
D17*
X1485900Y314325D02*
X1495425Y304800D01*
X1495425Y225425D01*
X1485900Y215900D01*
D18*
X1485900Y314325D03*
D17*
X1228725Y98425D02*
X1219200Y88900D01*
X1228725Y98425D02*
X1228725Y307975D01*
X1235075Y314325D01*
X1235075Y358775D01*
X1295400Y419100D01*
X1520825Y104775D02*
X1536700Y88900D01*
X1520825Y104775D02*
X1520825Y333375D01*
X1511300Y342900D01*
X292100Y165100D02*
X276225Y180975D01*
X276225Y282575D01*
X266700Y292100D01*
X1241425Y339725D02*
X1244600Y342900D01*
X1241425Y339725D02*
X1241425Y311150D01*
X1235075Y304800D01*
X1235075Y82550D01*
X1165225Y12700D01*
X301625Y12700D01*
X301625Y111125D01*
D18*
X301625Y111125D03*
D17*
X1536700Y419100D02*
X1552575Y403225D01*
X1603375Y403225D01*
X1603375Y460375D01*
X1612900Y469900D01*
X1536700Y165100D02*
X1546225Y155575D01*
X1546225Y76200D01*
X1476375Y6350D01*
X101600Y6350D01*
X101600Y63500D01*
X1485900Y342900D02*
X1511300Y368300D01*
X1511300Y419100D01*
X790575Y990600D02*
X765175Y1016000D01*
X790575Y990600D02*
X790575Y800100D01*
X809625Y781050D01*
X809625Y482600D01*
X841375Y450850D01*
X841375Y276225D01*
X854075Y263525D01*
X1317625Y250825D02*
X1409700Y342900D01*
X1485900Y342900D01*
D18*
X765175Y1016000D03*
X854075Y263525D03*
X1317625Y250825D03*
D17*
X1495425Y149225D02*
X1511300Y165100D01*
X1495425Y149225D02*
X1495425Y60325D01*
X222250Y60325D02*
X123825Y158750D01*
X19050Y158750D01*
X19050Y822325D01*
X47625Y850900D01*
X101600Y850900D01*
X101600Y863600D01*
D18*
X1495425Y60325D03*
X222250Y60325D03*
D17*
X1295400Y215900D02*
X1304925Y225425D01*
X1304925Y355600D01*
X1311275Y361950D02*
X1336675Y387350D01*
X1311275Y361950D02*
X1304925Y355600D01*
X1571625Y657225D02*
X1587500Y673100D01*
X1571625Y657225D02*
X1571625Y428625D01*
X1562100Y419100D01*
X1285875Y1038225D02*
X1270000Y1054100D01*
X1285875Y1038225D02*
X1285875Y704850D01*
X1311275Y679450D01*
X1311275Y361950D01*
D18*
X1336675Y387350D03*
D17*
X539750Y793750D02*
X533400Y800100D01*
X539750Y793750D02*
X539750Y752475D01*
X190500Y850900D02*
X180975Y841375D01*
X180975Y733425D01*
X190500Y723900D01*
D18*
X539750Y752475D03*
D17*
X533400Y495300D02*
X530225Y492125D01*
X533400Y495300D02*
X533400Y546100D01*
X1038225Y95250D02*
X1082675Y139700D01*
X1038225Y95250D02*
X1038225Y66675D01*
X1025525Y53975D01*
X504825Y53975D01*
X504825Y323850D01*
X498475Y330200D01*
X498475Y460375D01*
X508000Y469900D01*
X542925Y625475D02*
X530225Y638175D01*
X542925Y625475D02*
X542925Y555625D01*
X533400Y546100D01*
D18*
X530225Y492125D03*
X1082675Y139700D03*
X530225Y638175D03*
D17*
X101600Y711200D02*
X88900Y698500D01*
X88900Y692150D01*
X1108075Y25400D02*
X1136650Y25400D01*
X1184275Y73025D01*
X1184275Y282575D01*
X1193800Y292100D01*
D18*
X88900Y692150D03*
X1108075Y25400D03*
D17*
X508000Y850900D02*
X533400Y876300D01*
X533400Y927100D01*
X1212850Y234950D02*
X1193800Y215900D01*
X1212850Y234950D02*
X1212850Y257175D01*
X815975Y879475D02*
X796925Y898525D01*
X815975Y879475D02*
X815975Y781050D01*
X866775Y730250D01*
X866775Y295275D01*
X889000Y273050D01*
D18*
X1212850Y257175D03*
X796925Y898525D03*
X889000Y273050D03*
D17*
X1327150Y276225D02*
X1377950Y327025D01*
X1377950Y387350D01*
X1397000Y406400D01*
X1152525Y790575D02*
X1120775Y790575D01*
X1152525Y790575D02*
X1152525Y762000D01*
X1184275Y730250D01*
X1184275Y584200D01*
X1209675Y558800D01*
X1209675Y377825D01*
X1228725Y358775D01*
X1228725Y317500D01*
X1219200Y307975D01*
X1219200Y292100D01*
D18*
X1327150Y276225D03*
X1120775Y790575D03*
D17*
X1168400Y850900D02*
X1203325Y815975D01*
X1203325Y765175D01*
D18*
X1203325Y765175D03*
D17*
X1184275Y485775D02*
X1168400Y469900D01*
X1184275Y485775D02*
X1184275Y574675D01*
D18*
X1184275Y574675D03*
D17*
X1171575Y190500D02*
X1108075Y127000D01*
X1108075Y50800D01*
X295275Y50800D02*
X234950Y50800D01*
X234950Y85725D01*
X104775Y215900D01*
X31750Y215900D01*
X31750Y708025D01*
X47625Y723900D01*
X101600Y723900D01*
X101600Y736600D01*
D18*
X1171575Y190500D03*
X1108075Y50800D03*
X295275Y50800D03*
D17*
X215900Y800100D02*
X206375Y809625D01*
X206375Y917575D01*
X215900Y927100D01*
X809625Y76200D02*
X812800Y73025D01*
X809625Y76200D02*
X809625Y406400D01*
X803275Y412750D01*
X803275Y730250D01*
X758825Y774700D01*
X758825Y1009650D01*
D18*
X812800Y73025D03*
X758825Y1009650D03*
D17*
X123825Y812800D02*
X123825Y428625D01*
X123825Y812800D02*
X127000Y815975D01*
X127000Y822325D01*
X123825Y825500D01*
X101600Y825500D01*
X101600Y812800D01*
D18*
X123825Y428625D03*
D17*
X384175Y206375D02*
X393700Y215900D01*
X384175Y206375D02*
X384175Y187325D01*
D18*
X384175Y187325D03*
D17*
X1244600Y88900D02*
X1260475Y73025D01*
X1311275Y73025D01*
X1311275Y282575D01*
X1320800Y292100D01*
X1254125Y130175D02*
X1295400Y88900D01*
X1254125Y130175D02*
X1254125Y282575D01*
X1244600Y292100D01*
M02*
