G04 EAGLE Gerber RS-274X export*
G75*
%MOMM*%
%FSLAX34Y34*%
%LPD*%
%INTop Copper*%
%IPPOS*%
%AMOC8*
5,1,8,0,0,1.08239X$1,22.5*%
G01*
%ADD10C,1.219200*%
%ADD11P,1.319650X8X112.500000*%
%ADD12P,1.649562X8X292.500000*%
%ADD13P,1.649562X8X202.500000*%
%ADD14P,1.319650X8X202.500000*%
%ADD15P,1.319650X8X22.500000*%
%ADD16C,1.524000*%
%ADD17C,0.127000*%
%ADD18C,0.457200*%


D10*
X1168400Y717804D02*
X1168400Y729996D01*
X1193800Y729996D02*
X1193800Y717804D01*
X1320800Y717804D02*
X1320800Y729996D01*
X1320800Y794004D02*
X1320800Y806196D01*
X1219200Y729996D02*
X1219200Y717804D01*
X1244600Y717804D02*
X1244600Y729996D01*
X1295400Y729996D02*
X1295400Y717804D01*
X1270000Y717804D02*
X1270000Y729996D01*
X1295400Y794004D02*
X1295400Y806196D01*
X1270000Y806196D02*
X1270000Y794004D01*
X1244600Y794004D02*
X1244600Y806196D01*
X1219200Y806196D02*
X1219200Y794004D01*
X1193800Y794004D02*
X1193800Y806196D01*
X1168400Y806196D02*
X1168400Y794004D01*
X1168400Y602996D02*
X1168400Y590804D01*
X1193800Y590804D02*
X1193800Y602996D01*
X1320800Y602996D02*
X1320800Y590804D01*
X1320800Y667004D02*
X1320800Y679196D01*
X1219200Y602996D02*
X1219200Y590804D01*
X1244600Y590804D02*
X1244600Y602996D01*
X1295400Y602996D02*
X1295400Y590804D01*
X1270000Y590804D02*
X1270000Y602996D01*
X1295400Y667004D02*
X1295400Y679196D01*
X1270000Y679196D02*
X1270000Y667004D01*
X1244600Y667004D02*
X1244600Y679196D01*
X1219200Y679196D02*
X1219200Y667004D01*
X1193800Y667004D02*
X1193800Y679196D01*
X1168400Y679196D02*
X1168400Y667004D01*
X1409700Y717804D02*
X1409700Y729996D01*
X1435100Y729996D02*
X1435100Y717804D01*
X1562100Y717804D02*
X1562100Y729996D01*
X1587500Y729996D02*
X1587500Y717804D01*
X1460500Y717804D02*
X1460500Y729996D01*
X1485900Y729996D02*
X1485900Y717804D01*
X1536700Y717804D02*
X1536700Y729996D01*
X1511300Y729996D02*
X1511300Y717804D01*
X1612900Y717804D02*
X1612900Y729996D01*
X1638300Y729996D02*
X1638300Y717804D01*
X1638300Y794004D02*
X1638300Y806196D01*
X1612900Y806196D02*
X1612900Y794004D01*
X1587500Y794004D02*
X1587500Y806196D01*
X1562100Y806196D02*
X1562100Y794004D01*
X1536700Y794004D02*
X1536700Y806196D01*
X1511300Y806196D02*
X1511300Y794004D01*
X1485900Y794004D02*
X1485900Y806196D01*
X1460500Y806196D02*
X1460500Y794004D01*
X1435100Y794004D02*
X1435100Y806196D01*
X1409700Y806196D02*
X1409700Y794004D01*
X241300Y602996D02*
X241300Y590804D01*
X266700Y590804D02*
X266700Y602996D01*
X393700Y602996D02*
X393700Y590804D01*
X419100Y590804D02*
X419100Y602996D01*
X292100Y602996D02*
X292100Y590804D01*
X317500Y590804D02*
X317500Y602996D01*
X368300Y602996D02*
X368300Y590804D01*
X342900Y590804D02*
X342900Y602996D01*
X419100Y667004D02*
X419100Y679196D01*
X393700Y679196D02*
X393700Y667004D01*
X368300Y667004D02*
X368300Y679196D01*
X342900Y679196D02*
X342900Y667004D01*
X317500Y667004D02*
X317500Y679196D01*
X292100Y679196D02*
X292100Y667004D01*
X266700Y667004D02*
X266700Y679196D01*
X241300Y679196D02*
X241300Y667004D01*
X266700Y94996D02*
X266700Y82804D01*
X292100Y82804D02*
X292100Y94996D01*
X419100Y94996D02*
X419100Y82804D01*
X419100Y159004D02*
X419100Y171196D01*
X317500Y94996D02*
X317500Y82804D01*
X342900Y82804D02*
X342900Y94996D01*
X393700Y94996D02*
X393700Y82804D01*
X368300Y82804D02*
X368300Y94996D01*
X393700Y159004D02*
X393700Y171196D01*
X368300Y171196D02*
X368300Y159004D01*
X342900Y159004D02*
X342900Y171196D01*
X317500Y171196D02*
X317500Y159004D01*
X292100Y159004D02*
X292100Y171196D01*
X266700Y171196D02*
X266700Y159004D01*
X190500Y463804D02*
X190500Y475996D01*
X215900Y475996D02*
X215900Y463804D01*
X342900Y463804D02*
X342900Y475996D01*
X368300Y475996D02*
X368300Y463804D01*
X241300Y463804D02*
X241300Y475996D01*
X266700Y475996D02*
X266700Y463804D01*
X317500Y463804D02*
X317500Y475996D01*
X292100Y475996D02*
X292100Y463804D01*
X393700Y463804D02*
X393700Y475996D01*
X419100Y475996D02*
X419100Y463804D01*
X419100Y540004D02*
X419100Y552196D01*
X393700Y552196D02*
X393700Y540004D01*
X368300Y540004D02*
X368300Y552196D01*
X342900Y552196D02*
X342900Y540004D01*
X317500Y540004D02*
X317500Y552196D01*
X292100Y552196D02*
X292100Y540004D01*
X266700Y540004D02*
X266700Y552196D01*
X241300Y552196D02*
X241300Y540004D01*
X215900Y540004D02*
X215900Y552196D01*
X190500Y552196D02*
X190500Y540004D01*
X508000Y475996D02*
X508000Y463804D01*
X533400Y463804D02*
X533400Y475996D01*
X660400Y475996D02*
X660400Y463804D01*
X685800Y463804D02*
X685800Y475996D01*
X558800Y475996D02*
X558800Y463804D01*
X584200Y463804D02*
X584200Y475996D01*
X635000Y475996D02*
X635000Y463804D01*
X609600Y463804D02*
X609600Y475996D01*
X711200Y475996D02*
X711200Y463804D01*
X736600Y463804D02*
X736600Y475996D01*
X736600Y540004D02*
X736600Y552196D01*
X711200Y552196D02*
X711200Y540004D01*
X685800Y540004D02*
X685800Y552196D01*
X660400Y552196D02*
X660400Y540004D01*
X635000Y540004D02*
X635000Y552196D01*
X609600Y552196D02*
X609600Y540004D01*
X584200Y540004D02*
X584200Y552196D01*
X558800Y552196D02*
X558800Y540004D01*
X533400Y540004D02*
X533400Y552196D01*
X508000Y552196D02*
X508000Y540004D01*
X508000Y844804D02*
X508000Y856996D01*
X533400Y856996D02*
X533400Y844804D01*
X660400Y844804D02*
X660400Y856996D01*
X685800Y856996D02*
X685800Y844804D01*
X558800Y844804D02*
X558800Y856996D01*
X584200Y856996D02*
X584200Y844804D01*
X635000Y844804D02*
X635000Y856996D01*
X609600Y856996D02*
X609600Y844804D01*
X711200Y844804D02*
X711200Y856996D01*
X736600Y856996D02*
X736600Y844804D01*
X736600Y921004D02*
X736600Y933196D01*
X711200Y933196D02*
X711200Y921004D01*
X685800Y921004D02*
X685800Y933196D01*
X660400Y933196D02*
X660400Y921004D01*
X635000Y921004D02*
X635000Y933196D01*
X609600Y933196D02*
X609600Y921004D01*
X584200Y921004D02*
X584200Y933196D01*
X558800Y933196D02*
X558800Y921004D01*
X533400Y921004D02*
X533400Y933196D01*
X508000Y933196D02*
X508000Y921004D01*
X825500Y729996D02*
X825500Y717804D01*
X850900Y717804D02*
X850900Y729996D01*
X977900Y729996D02*
X977900Y717804D01*
X1003300Y717804D02*
X1003300Y729996D01*
X876300Y729996D02*
X876300Y717804D01*
X901700Y717804D02*
X901700Y729996D01*
X952500Y729996D02*
X952500Y717804D01*
X927100Y717804D02*
X927100Y729996D01*
X1028700Y729996D02*
X1028700Y717804D01*
X1054100Y717804D02*
X1054100Y729996D01*
X1054100Y794004D02*
X1054100Y806196D01*
X1028700Y806196D02*
X1028700Y794004D01*
X1003300Y794004D02*
X1003300Y806196D01*
X977900Y806196D02*
X977900Y794004D01*
X952500Y794004D02*
X952500Y806196D01*
X927100Y806196D02*
X927100Y794004D01*
X901700Y794004D02*
X901700Y806196D01*
X876300Y806196D02*
X876300Y794004D01*
X850900Y794004D02*
X850900Y806196D01*
X825500Y806196D02*
X825500Y794004D01*
X508000Y602996D02*
X508000Y590804D01*
X533400Y590804D02*
X533400Y602996D01*
X660400Y602996D02*
X660400Y590804D01*
X685800Y590804D02*
X685800Y602996D01*
X558800Y602996D02*
X558800Y590804D01*
X584200Y590804D02*
X584200Y602996D01*
X635000Y602996D02*
X635000Y590804D01*
X609600Y590804D02*
X609600Y602996D01*
X711200Y602996D02*
X711200Y590804D01*
X736600Y590804D02*
X736600Y602996D01*
X736600Y667004D02*
X736600Y679196D01*
X711200Y679196D02*
X711200Y667004D01*
X685800Y667004D02*
X685800Y679196D01*
X660400Y679196D02*
X660400Y667004D01*
X635000Y667004D02*
X635000Y679196D01*
X609600Y679196D02*
X609600Y667004D01*
X584200Y667004D02*
X584200Y679196D01*
X558800Y679196D02*
X558800Y667004D01*
X533400Y667004D02*
X533400Y679196D01*
X508000Y679196D02*
X508000Y667004D01*
X508000Y717804D02*
X508000Y729996D01*
X533400Y729996D02*
X533400Y717804D01*
X660400Y717804D02*
X660400Y729996D01*
X685800Y729996D02*
X685800Y717804D01*
X558800Y717804D02*
X558800Y729996D01*
X584200Y729996D02*
X584200Y717804D01*
X635000Y717804D02*
X635000Y729996D01*
X609600Y729996D02*
X609600Y717804D01*
X711200Y717804D02*
X711200Y729996D01*
X736600Y729996D02*
X736600Y717804D01*
X736600Y794004D02*
X736600Y806196D01*
X711200Y806196D02*
X711200Y794004D01*
X685800Y794004D02*
X685800Y806196D01*
X660400Y806196D02*
X660400Y794004D01*
X635000Y794004D02*
X635000Y806196D01*
X609600Y806196D02*
X609600Y794004D01*
X584200Y794004D02*
X584200Y806196D01*
X558800Y806196D02*
X558800Y794004D01*
X533400Y794004D02*
X533400Y806196D01*
X508000Y806196D02*
X508000Y794004D01*
X241300Y348996D02*
X241300Y336804D01*
X266700Y336804D02*
X266700Y348996D01*
X393700Y348996D02*
X393700Y336804D01*
X419100Y336804D02*
X419100Y348996D01*
X292100Y348996D02*
X292100Y336804D01*
X317500Y336804D02*
X317500Y348996D01*
X368300Y348996D02*
X368300Y336804D01*
X342900Y336804D02*
X342900Y348996D01*
X419100Y413004D02*
X419100Y425196D01*
X393700Y425196D02*
X393700Y413004D01*
X368300Y413004D02*
X368300Y425196D01*
X342900Y425196D02*
X342900Y413004D01*
X317500Y413004D02*
X317500Y425196D01*
X292100Y425196D02*
X292100Y413004D01*
X266700Y413004D02*
X266700Y425196D01*
X241300Y425196D02*
X241300Y413004D01*
X558800Y221996D02*
X558800Y209804D01*
X584200Y209804D02*
X584200Y221996D01*
X711200Y221996D02*
X711200Y209804D01*
X736600Y209804D02*
X736600Y221996D01*
X609600Y221996D02*
X609600Y209804D01*
X635000Y209804D02*
X635000Y221996D01*
X685800Y221996D02*
X685800Y209804D01*
X660400Y209804D02*
X660400Y221996D01*
X736600Y286004D02*
X736600Y298196D01*
X711200Y298196D02*
X711200Y286004D01*
X685800Y286004D02*
X685800Y298196D01*
X660400Y298196D02*
X660400Y286004D01*
X635000Y286004D02*
X635000Y298196D01*
X609600Y298196D02*
X609600Y286004D01*
X584200Y286004D02*
X584200Y298196D01*
X558800Y298196D02*
X558800Y286004D01*
X1168400Y221996D02*
X1168400Y209804D01*
X1193800Y209804D02*
X1193800Y221996D01*
X1320800Y221996D02*
X1320800Y209804D01*
X1320800Y286004D02*
X1320800Y298196D01*
X1219200Y221996D02*
X1219200Y209804D01*
X1244600Y209804D02*
X1244600Y221996D01*
X1295400Y221996D02*
X1295400Y209804D01*
X1270000Y209804D02*
X1270000Y221996D01*
X1295400Y286004D02*
X1295400Y298196D01*
X1270000Y298196D02*
X1270000Y286004D01*
X1244600Y286004D02*
X1244600Y298196D01*
X1219200Y298196D02*
X1219200Y286004D01*
X1193800Y286004D02*
X1193800Y298196D01*
X1168400Y298196D02*
X1168400Y286004D01*
X1485900Y94996D02*
X1485900Y82804D01*
X1511300Y82804D02*
X1511300Y94996D01*
X1638300Y94996D02*
X1638300Y82804D01*
X1638300Y159004D02*
X1638300Y171196D01*
X1536700Y94996D02*
X1536700Y82804D01*
X1562100Y82804D02*
X1562100Y94996D01*
X1612900Y94996D02*
X1612900Y82804D01*
X1587500Y82804D02*
X1587500Y94996D01*
X1612900Y159004D02*
X1612900Y171196D01*
X1587500Y171196D02*
X1587500Y159004D01*
X1562100Y159004D02*
X1562100Y171196D01*
X1536700Y171196D02*
X1536700Y159004D01*
X1511300Y159004D02*
X1511300Y171196D01*
X1485900Y171196D02*
X1485900Y159004D01*
X241300Y209804D02*
X241300Y221996D01*
X266700Y221996D02*
X266700Y209804D01*
X393700Y209804D02*
X393700Y221996D01*
X419100Y221996D02*
X419100Y209804D01*
X292100Y209804D02*
X292100Y221996D01*
X317500Y221996D02*
X317500Y209804D01*
X368300Y209804D02*
X368300Y221996D01*
X342900Y221996D02*
X342900Y209804D01*
X419100Y286004D02*
X419100Y298196D01*
X393700Y298196D02*
X393700Y286004D01*
X368300Y286004D02*
X368300Y298196D01*
X342900Y298196D02*
X342900Y286004D01*
X317500Y286004D02*
X317500Y298196D01*
X292100Y298196D02*
X292100Y286004D01*
X266700Y286004D02*
X266700Y298196D01*
X241300Y298196D02*
X241300Y286004D01*
X584200Y94996D02*
X584200Y82804D01*
X609600Y82804D02*
X609600Y94996D01*
X736600Y94996D02*
X736600Y82804D01*
X736600Y159004D02*
X736600Y171196D01*
X635000Y94996D02*
X635000Y82804D01*
X660400Y82804D02*
X660400Y94996D01*
X711200Y94996D02*
X711200Y82804D01*
X685800Y82804D02*
X685800Y94996D01*
X711200Y159004D02*
X711200Y171196D01*
X685800Y171196D02*
X685800Y159004D01*
X660400Y159004D02*
X660400Y171196D01*
X635000Y171196D02*
X635000Y159004D01*
X609600Y159004D02*
X609600Y171196D01*
X584200Y171196D02*
X584200Y159004D01*
X215900Y971804D02*
X215900Y983996D01*
X241300Y983996D02*
X241300Y971804D01*
X266700Y971804D02*
X266700Y983996D01*
X292100Y983996D02*
X292100Y971804D01*
X317500Y971804D02*
X317500Y983996D01*
X342900Y983996D02*
X342900Y971804D01*
X368300Y971804D02*
X368300Y983996D01*
X393700Y983996D02*
X393700Y971804D01*
X419100Y971804D02*
X419100Y983996D01*
X215900Y1035304D02*
X215900Y1047496D01*
X241300Y1047496D02*
X241300Y1035304D01*
X266700Y1035304D02*
X266700Y1047496D01*
X292100Y1047496D02*
X292100Y1035304D01*
X317500Y1035304D02*
X317500Y1047496D01*
X342900Y1047496D02*
X342900Y1035304D01*
X368300Y1035304D02*
X368300Y1047496D01*
X393700Y1047496D02*
X393700Y1035304D01*
X419100Y1035304D02*
X419100Y1047496D01*
X190500Y856996D02*
X190500Y844804D01*
X215900Y844804D02*
X215900Y856996D01*
X342900Y856996D02*
X342900Y844804D01*
X368300Y844804D02*
X368300Y856996D01*
X241300Y856996D02*
X241300Y844804D01*
X266700Y844804D02*
X266700Y856996D01*
X317500Y856996D02*
X317500Y844804D01*
X292100Y844804D02*
X292100Y856996D01*
X393700Y856996D02*
X393700Y844804D01*
X419100Y844804D02*
X419100Y856996D01*
X419100Y921004D02*
X419100Y933196D01*
X393700Y933196D02*
X393700Y921004D01*
X368300Y921004D02*
X368300Y933196D01*
X342900Y933196D02*
X342900Y921004D01*
X317500Y921004D02*
X317500Y933196D01*
X292100Y933196D02*
X292100Y921004D01*
X266700Y921004D02*
X266700Y933196D01*
X241300Y933196D02*
X241300Y921004D01*
X215900Y921004D02*
X215900Y933196D01*
X190500Y933196D02*
X190500Y921004D01*
X190500Y729996D02*
X190500Y717804D01*
X215900Y717804D02*
X215900Y729996D01*
X342900Y729996D02*
X342900Y717804D01*
X368300Y717804D02*
X368300Y729996D01*
X241300Y729996D02*
X241300Y717804D01*
X266700Y717804D02*
X266700Y729996D01*
X317500Y729996D02*
X317500Y717804D01*
X292100Y717804D02*
X292100Y729996D01*
X393700Y729996D02*
X393700Y717804D01*
X419100Y717804D02*
X419100Y729996D01*
X419100Y794004D02*
X419100Y806196D01*
X393700Y806196D02*
X393700Y794004D01*
X368300Y794004D02*
X368300Y806196D01*
X342900Y806196D02*
X342900Y794004D01*
X317500Y794004D02*
X317500Y806196D01*
X292100Y806196D02*
X292100Y794004D01*
X266700Y794004D02*
X266700Y806196D01*
X241300Y806196D02*
X241300Y794004D01*
X215900Y794004D02*
X215900Y806196D01*
X190500Y806196D02*
X190500Y794004D01*
X1143000Y844804D02*
X1143000Y856996D01*
X1168400Y856996D02*
X1168400Y844804D01*
X1295400Y844804D02*
X1295400Y856996D01*
X1320800Y856996D02*
X1320800Y844804D01*
X1193800Y844804D02*
X1193800Y856996D01*
X1219200Y856996D02*
X1219200Y844804D01*
X1270000Y844804D02*
X1270000Y856996D01*
X1244600Y856996D02*
X1244600Y844804D01*
X1320800Y921004D02*
X1320800Y933196D01*
X1295400Y933196D02*
X1295400Y921004D01*
X1270000Y921004D02*
X1270000Y933196D01*
X1244600Y933196D02*
X1244600Y921004D01*
X1219200Y921004D02*
X1219200Y933196D01*
X1193800Y933196D02*
X1193800Y921004D01*
X1168400Y921004D02*
X1168400Y933196D01*
X1143000Y933196D02*
X1143000Y921004D01*
X1143000Y475996D02*
X1143000Y463804D01*
X1168400Y463804D02*
X1168400Y475996D01*
X1295400Y475996D02*
X1295400Y463804D01*
X1320800Y463804D02*
X1320800Y475996D01*
X1193800Y475996D02*
X1193800Y463804D01*
X1219200Y463804D02*
X1219200Y475996D01*
X1270000Y475996D02*
X1270000Y463804D01*
X1244600Y463804D02*
X1244600Y475996D01*
X1320800Y540004D02*
X1320800Y552196D01*
X1295400Y552196D02*
X1295400Y540004D01*
X1270000Y540004D02*
X1270000Y552196D01*
X1244600Y552196D02*
X1244600Y540004D01*
X1219200Y540004D02*
X1219200Y552196D01*
X1193800Y552196D02*
X1193800Y540004D01*
X1168400Y540004D02*
X1168400Y552196D01*
X1143000Y552196D02*
X1143000Y540004D01*
X1143000Y971804D02*
X1143000Y983996D01*
X1168400Y983996D02*
X1168400Y971804D01*
X1295400Y971804D02*
X1295400Y983996D01*
X1320800Y983996D02*
X1320800Y971804D01*
X1193800Y971804D02*
X1193800Y983996D01*
X1219200Y983996D02*
X1219200Y971804D01*
X1270000Y971804D02*
X1270000Y983996D01*
X1244600Y983996D02*
X1244600Y971804D01*
X1320800Y1048004D02*
X1320800Y1060196D01*
X1295400Y1060196D02*
X1295400Y1048004D01*
X1270000Y1048004D02*
X1270000Y1060196D01*
X1244600Y1060196D02*
X1244600Y1048004D01*
X1219200Y1048004D02*
X1219200Y1060196D01*
X1193800Y1060196D02*
X1193800Y1048004D01*
X1168400Y1048004D02*
X1168400Y1060196D01*
X1143000Y1060196D02*
X1143000Y1048004D01*
X1460500Y602996D02*
X1460500Y590804D01*
X1485900Y590804D02*
X1485900Y602996D01*
X1612900Y602996D02*
X1612900Y590804D01*
X1638300Y590804D02*
X1638300Y602996D01*
X1511300Y602996D02*
X1511300Y590804D01*
X1536700Y590804D02*
X1536700Y602996D01*
X1587500Y602996D02*
X1587500Y590804D01*
X1562100Y590804D02*
X1562100Y602996D01*
X1638300Y667004D02*
X1638300Y679196D01*
X1612900Y679196D02*
X1612900Y667004D01*
X1587500Y667004D02*
X1587500Y679196D01*
X1562100Y679196D02*
X1562100Y667004D01*
X1536700Y667004D02*
X1536700Y679196D01*
X1511300Y679196D02*
X1511300Y667004D01*
X1485900Y667004D02*
X1485900Y679196D01*
X1460500Y679196D02*
X1460500Y667004D01*
X1409700Y844804D02*
X1409700Y856996D01*
X1435100Y856996D02*
X1435100Y844804D01*
X1562100Y844804D02*
X1562100Y856996D01*
X1587500Y856996D02*
X1587500Y844804D01*
X1460500Y844804D02*
X1460500Y856996D01*
X1485900Y856996D02*
X1485900Y844804D01*
X1536700Y844804D02*
X1536700Y856996D01*
X1511300Y856996D02*
X1511300Y844804D01*
X1612900Y844804D02*
X1612900Y856996D01*
X1638300Y856996D02*
X1638300Y844804D01*
X1638300Y921004D02*
X1638300Y933196D01*
X1612900Y933196D02*
X1612900Y921004D01*
X1587500Y921004D02*
X1587500Y933196D01*
X1562100Y933196D02*
X1562100Y921004D01*
X1536700Y921004D02*
X1536700Y933196D01*
X1511300Y933196D02*
X1511300Y921004D01*
X1485900Y921004D02*
X1485900Y933196D01*
X1460500Y933196D02*
X1460500Y921004D01*
X1435100Y921004D02*
X1435100Y933196D01*
X1409700Y933196D02*
X1409700Y921004D01*
X1460500Y971804D02*
X1460500Y983996D01*
X1485900Y983996D02*
X1485900Y971804D01*
X1612900Y971804D02*
X1612900Y983996D01*
X1638300Y983996D02*
X1638300Y971804D01*
X1511300Y971804D02*
X1511300Y983996D01*
X1536700Y983996D02*
X1536700Y971804D01*
X1587500Y971804D02*
X1587500Y983996D01*
X1562100Y983996D02*
X1562100Y971804D01*
X1638300Y1048004D02*
X1638300Y1060196D01*
X1612900Y1060196D02*
X1612900Y1048004D01*
X1587500Y1048004D02*
X1587500Y1060196D01*
X1562100Y1060196D02*
X1562100Y1048004D01*
X1536700Y1048004D02*
X1536700Y1060196D01*
X1511300Y1060196D02*
X1511300Y1048004D01*
X1485900Y1048004D02*
X1485900Y1060196D01*
X1460500Y1060196D02*
X1460500Y1048004D01*
D11*
X876300Y495300D03*
X876300Y520700D03*
X1143000Y114300D03*
X1143000Y139700D03*
X215900Y622300D03*
X215900Y647700D03*
X1384300Y876300D03*
X1384300Y901700D03*
X1117600Y495300D03*
X1117600Y520700D03*
X1143000Y368300D03*
X1143000Y393700D03*
X241300Y114300D03*
X241300Y139700D03*
X482600Y495300D03*
X482600Y520700D03*
X215900Y241300D03*
X215900Y266700D03*
X1117600Y876300D03*
X1117600Y901700D03*
X800100Y749300D03*
X800100Y774700D03*
X1460500Y368300D03*
X1460500Y393700D03*
X1435100Y1003300D03*
X1435100Y1028700D03*
X1117600Y1003300D03*
X1117600Y1028700D03*
X1460500Y241300D03*
X1460500Y266700D03*
X482600Y368300D03*
X482600Y393700D03*
X215900Y368300D03*
X215900Y393700D03*
X482600Y876300D03*
X482600Y901700D03*
X876300Y1003300D03*
X876300Y1028700D03*
X1143000Y241300D03*
X1143000Y266700D03*
X876300Y876300D03*
X876300Y901700D03*
X1460500Y114300D03*
X1460500Y139700D03*
X533400Y241300D03*
X533400Y266700D03*
X165100Y749300D03*
X165100Y774700D03*
X165100Y876300D03*
X165100Y901700D03*
X1384300Y749300D03*
X1384300Y774700D03*
X1435100Y622300D03*
X1435100Y647700D03*
X1143000Y749300D03*
X1143000Y774700D03*
X1143000Y622300D03*
X1143000Y647700D03*
X1435100Y495300D03*
X1435100Y520700D03*
X876300Y241300D03*
X876300Y266700D03*
X876300Y114300D03*
X876300Y139700D03*
X558800Y114300D03*
X558800Y139700D03*
X482600Y990600D03*
X482600Y1016000D03*
X876300Y622300D03*
X876300Y647700D03*
X165100Y495300D03*
X165100Y520700D03*
X800100Y368300D03*
X800100Y393700D03*
D10*
X901700Y221996D02*
X901700Y209804D01*
X927100Y209804D02*
X927100Y221996D01*
X1054100Y221996D02*
X1054100Y209804D01*
X1054100Y286004D02*
X1054100Y298196D01*
X952500Y221996D02*
X952500Y209804D01*
X977900Y209804D02*
X977900Y221996D01*
X1028700Y221996D02*
X1028700Y209804D01*
X1003300Y209804D02*
X1003300Y221996D01*
X1028700Y286004D02*
X1028700Y298196D01*
X1003300Y298196D02*
X1003300Y286004D01*
X977900Y286004D02*
X977900Y298196D01*
X952500Y298196D02*
X952500Y286004D01*
X927100Y286004D02*
X927100Y298196D01*
X901700Y298196D02*
X901700Y286004D01*
X901700Y94996D02*
X901700Y82804D01*
X927100Y82804D02*
X927100Y94996D01*
X1054100Y94996D02*
X1054100Y82804D01*
X1054100Y159004D02*
X1054100Y171196D01*
X952500Y94996D02*
X952500Y82804D01*
X977900Y82804D02*
X977900Y94996D01*
X1028700Y94996D02*
X1028700Y82804D01*
X1003300Y82804D02*
X1003300Y94996D01*
X1028700Y159004D02*
X1028700Y171196D01*
X1003300Y171196D02*
X1003300Y159004D01*
X977900Y159004D02*
X977900Y171196D01*
X952500Y171196D02*
X952500Y159004D01*
X927100Y159004D02*
X927100Y171196D01*
X901700Y171196D02*
X901700Y159004D01*
X901700Y844804D02*
X901700Y856996D01*
X927100Y856996D02*
X927100Y844804D01*
X1054100Y844804D02*
X1054100Y856996D01*
X1054100Y921004D02*
X1054100Y933196D01*
X952500Y856996D02*
X952500Y844804D01*
X977900Y844804D02*
X977900Y856996D01*
X1028700Y856996D02*
X1028700Y844804D01*
X1003300Y844804D02*
X1003300Y856996D01*
X1028700Y921004D02*
X1028700Y933196D01*
X1003300Y933196D02*
X1003300Y921004D01*
X977900Y921004D02*
X977900Y933196D01*
X952500Y933196D02*
X952500Y921004D01*
X927100Y921004D02*
X927100Y933196D01*
X901700Y933196D02*
X901700Y921004D01*
X508000Y348996D02*
X508000Y336804D01*
X533400Y336804D02*
X533400Y348996D01*
X660400Y348996D02*
X660400Y336804D01*
X685800Y336804D02*
X685800Y348996D01*
X558800Y348996D02*
X558800Y336804D01*
X584200Y336804D02*
X584200Y348996D01*
X635000Y348996D02*
X635000Y336804D01*
X609600Y336804D02*
X609600Y348996D01*
X711200Y348996D02*
X711200Y336804D01*
X736600Y336804D02*
X736600Y348996D01*
X736600Y413004D02*
X736600Y425196D01*
X711200Y425196D02*
X711200Y413004D01*
X685800Y413004D02*
X685800Y425196D01*
X660400Y425196D02*
X660400Y413004D01*
X635000Y413004D02*
X635000Y425196D01*
X609600Y425196D02*
X609600Y413004D01*
X584200Y413004D02*
X584200Y425196D01*
X558800Y425196D02*
X558800Y413004D01*
X533400Y413004D02*
X533400Y425196D01*
X508000Y425196D02*
X508000Y413004D01*
X825500Y348996D02*
X825500Y336804D01*
X850900Y336804D02*
X850900Y348996D01*
X977900Y348996D02*
X977900Y336804D01*
X1003300Y336804D02*
X1003300Y348996D01*
X876300Y348996D02*
X876300Y336804D01*
X901700Y336804D02*
X901700Y348996D01*
X952500Y348996D02*
X952500Y336804D01*
X927100Y336804D02*
X927100Y348996D01*
X1028700Y348996D02*
X1028700Y336804D01*
X1054100Y336804D02*
X1054100Y348996D01*
X1054100Y413004D02*
X1054100Y425196D01*
X1028700Y425196D02*
X1028700Y413004D01*
X1003300Y413004D02*
X1003300Y425196D01*
X977900Y425196D02*
X977900Y413004D01*
X952500Y413004D02*
X952500Y425196D01*
X927100Y425196D02*
X927100Y413004D01*
X901700Y413004D02*
X901700Y425196D01*
X876300Y425196D02*
X876300Y413004D01*
X850900Y413004D02*
X850900Y425196D01*
X825500Y425196D02*
X825500Y413004D01*
X508000Y959104D02*
X508000Y971296D01*
X533400Y971296D02*
X533400Y959104D01*
X660400Y959104D02*
X660400Y971296D01*
X685800Y971296D02*
X685800Y959104D01*
X558800Y959104D02*
X558800Y971296D01*
X584200Y971296D02*
X584200Y959104D01*
X635000Y959104D02*
X635000Y971296D01*
X609600Y971296D02*
X609600Y959104D01*
X711200Y959104D02*
X711200Y971296D01*
X736600Y971296D02*
X736600Y959104D01*
X736600Y1035304D02*
X736600Y1047496D01*
X711200Y1047496D02*
X711200Y1035304D01*
X685800Y1035304D02*
X685800Y1047496D01*
X660400Y1047496D02*
X660400Y1035304D01*
X635000Y1035304D02*
X635000Y1047496D01*
X609600Y1047496D02*
X609600Y1035304D01*
X584200Y1035304D02*
X584200Y1047496D01*
X558800Y1047496D02*
X558800Y1035304D01*
X533400Y1035304D02*
X533400Y1047496D01*
X508000Y1047496D02*
X508000Y1035304D01*
X901700Y602996D02*
X901700Y590804D01*
X927100Y590804D02*
X927100Y602996D01*
X1054100Y602996D02*
X1054100Y590804D01*
X1054100Y667004D02*
X1054100Y679196D01*
X952500Y602996D02*
X952500Y590804D01*
X977900Y590804D02*
X977900Y602996D01*
X1028700Y602996D02*
X1028700Y590804D01*
X1003300Y590804D02*
X1003300Y602996D01*
X1028700Y667004D02*
X1028700Y679196D01*
X1003300Y679196D02*
X1003300Y667004D01*
X977900Y667004D02*
X977900Y679196D01*
X952500Y679196D02*
X952500Y667004D01*
X927100Y667004D02*
X927100Y679196D01*
X901700Y679196D02*
X901700Y667004D01*
X901700Y475996D02*
X901700Y463804D01*
X927100Y463804D02*
X927100Y475996D01*
X1054100Y475996D02*
X1054100Y463804D01*
X1054100Y540004D02*
X1054100Y552196D01*
X952500Y475996D02*
X952500Y463804D01*
X977900Y463804D02*
X977900Y475996D01*
X1028700Y475996D02*
X1028700Y463804D01*
X1003300Y463804D02*
X1003300Y475996D01*
X1028700Y540004D02*
X1028700Y552196D01*
X1003300Y552196D02*
X1003300Y540004D01*
X977900Y540004D02*
X977900Y552196D01*
X952500Y552196D02*
X952500Y540004D01*
X927100Y540004D02*
X927100Y552196D01*
X901700Y552196D02*
X901700Y540004D01*
X901700Y971804D02*
X901700Y983996D01*
X927100Y983996D02*
X927100Y971804D01*
X1054100Y971804D02*
X1054100Y983996D01*
X1054100Y1048004D02*
X1054100Y1060196D01*
X952500Y983996D02*
X952500Y971804D01*
X977900Y971804D02*
X977900Y983996D01*
X1028700Y983996D02*
X1028700Y971804D01*
X1003300Y971804D02*
X1003300Y983996D01*
X1028700Y1048004D02*
X1028700Y1060196D01*
X1003300Y1060196D02*
X1003300Y1048004D01*
X977900Y1048004D02*
X977900Y1060196D01*
X952500Y1060196D02*
X952500Y1048004D01*
X927100Y1048004D02*
X927100Y1060196D01*
X901700Y1060196D02*
X901700Y1048004D01*
X1485900Y221996D02*
X1485900Y209804D01*
X1511300Y209804D02*
X1511300Y221996D01*
X1638300Y221996D02*
X1638300Y209804D01*
X1638300Y286004D02*
X1638300Y298196D01*
X1536700Y221996D02*
X1536700Y209804D01*
X1562100Y209804D02*
X1562100Y221996D01*
X1612900Y221996D02*
X1612900Y209804D01*
X1587500Y209804D02*
X1587500Y221996D01*
X1612900Y286004D02*
X1612900Y298196D01*
X1587500Y298196D02*
X1587500Y286004D01*
X1562100Y286004D02*
X1562100Y298196D01*
X1536700Y298196D02*
X1536700Y286004D01*
X1511300Y286004D02*
X1511300Y298196D01*
X1485900Y298196D02*
X1485900Y286004D01*
X1485900Y336804D02*
X1485900Y348996D01*
X1511300Y348996D02*
X1511300Y336804D01*
X1638300Y336804D02*
X1638300Y348996D01*
X1638300Y413004D02*
X1638300Y425196D01*
X1536700Y348996D02*
X1536700Y336804D01*
X1562100Y336804D02*
X1562100Y348996D01*
X1612900Y348996D02*
X1612900Y336804D01*
X1587500Y336804D02*
X1587500Y348996D01*
X1612900Y413004D02*
X1612900Y425196D01*
X1587500Y425196D02*
X1587500Y413004D01*
X1562100Y413004D02*
X1562100Y425196D01*
X1536700Y425196D02*
X1536700Y413004D01*
X1511300Y413004D02*
X1511300Y425196D01*
X1485900Y425196D02*
X1485900Y413004D01*
X1168400Y348996D02*
X1168400Y336804D01*
X1193800Y336804D02*
X1193800Y348996D01*
X1320800Y348996D02*
X1320800Y336804D01*
X1320800Y413004D02*
X1320800Y425196D01*
X1219200Y348996D02*
X1219200Y336804D01*
X1244600Y336804D02*
X1244600Y348996D01*
X1295400Y348996D02*
X1295400Y336804D01*
X1270000Y336804D02*
X1270000Y348996D01*
X1295400Y413004D02*
X1295400Y425196D01*
X1270000Y425196D02*
X1270000Y413004D01*
X1244600Y413004D02*
X1244600Y425196D01*
X1219200Y425196D02*
X1219200Y413004D01*
X1193800Y413004D02*
X1193800Y425196D01*
X1168400Y425196D02*
X1168400Y413004D01*
X1168400Y94996D02*
X1168400Y82804D01*
X1193800Y82804D02*
X1193800Y94996D01*
X1320800Y94996D02*
X1320800Y82804D01*
X1320800Y159004D02*
X1320800Y171196D01*
X1219200Y94996D02*
X1219200Y82804D01*
X1244600Y82804D02*
X1244600Y94996D01*
X1295400Y94996D02*
X1295400Y82804D01*
X1270000Y82804D02*
X1270000Y94996D01*
X1295400Y159004D02*
X1295400Y171196D01*
X1270000Y171196D02*
X1270000Y159004D01*
X1244600Y159004D02*
X1244600Y171196D01*
X1219200Y171196D02*
X1219200Y159004D01*
X1193800Y159004D02*
X1193800Y171196D01*
X1168400Y171196D02*
X1168400Y159004D01*
X1460500Y463804D02*
X1460500Y475996D01*
X1485900Y475996D02*
X1485900Y463804D01*
X1612900Y463804D02*
X1612900Y475996D01*
X1638300Y475996D02*
X1638300Y463804D01*
X1511300Y463804D02*
X1511300Y475996D01*
X1536700Y475996D02*
X1536700Y463804D01*
X1587500Y463804D02*
X1587500Y475996D01*
X1562100Y475996D02*
X1562100Y463804D01*
X1638300Y540004D02*
X1638300Y552196D01*
X1612900Y552196D02*
X1612900Y540004D01*
X1587500Y540004D02*
X1587500Y552196D01*
X1562100Y552196D02*
X1562100Y540004D01*
X1536700Y540004D02*
X1536700Y552196D01*
X1511300Y552196D02*
X1511300Y540004D01*
X1485900Y540004D02*
X1485900Y552196D01*
X1460500Y552196D02*
X1460500Y540004D01*
D11*
X482600Y749300D03*
X482600Y774700D03*
X482600Y622300D03*
X482600Y647700D03*
D12*
X1714500Y635000D03*
X1714500Y609600D03*
X1714500Y584200D03*
X1714500Y558800D03*
X1714500Y533400D03*
X1739900Y635000D03*
X1739900Y609600D03*
X1739900Y584200D03*
X1739900Y558800D03*
X1739900Y533400D03*
D13*
X50800Y177800D03*
X50800Y203200D03*
X50800Y228600D03*
X50800Y254000D03*
X50800Y279400D03*
X50800Y304800D03*
X50800Y330200D03*
X50800Y355600D03*
X50800Y381000D03*
X50800Y406400D03*
X50800Y431800D03*
X50800Y457200D03*
X50800Y482600D03*
X50800Y508000D03*
X50800Y533400D03*
X50800Y558800D03*
X76200Y177800D03*
X76200Y203200D03*
X76200Y228600D03*
X76200Y254000D03*
X76200Y279400D03*
X76200Y304800D03*
X76200Y330200D03*
X76200Y355600D03*
X76200Y381000D03*
X76200Y406400D03*
X76200Y431800D03*
X76200Y457200D03*
X76200Y482600D03*
X76200Y508000D03*
X76200Y533400D03*
X76200Y558800D03*
X101600Y177800D03*
X101600Y203200D03*
X101600Y228600D03*
X101600Y254000D03*
X101600Y279400D03*
X101600Y304800D03*
X101600Y330200D03*
X101600Y355600D03*
X101600Y381000D03*
X101600Y406400D03*
X101600Y431800D03*
X101600Y457200D03*
X101600Y482600D03*
X101600Y508000D03*
X101600Y533400D03*
X101600Y558800D03*
X50800Y584200D03*
X50800Y609600D03*
X50800Y635000D03*
X50800Y660400D03*
X50800Y685800D03*
X50800Y711200D03*
X50800Y736600D03*
X50800Y762000D03*
X50800Y787400D03*
X50800Y812800D03*
X50800Y838200D03*
X50800Y863600D03*
X50800Y889000D03*
X50800Y914400D03*
X50800Y939800D03*
X50800Y965200D03*
X76200Y584200D03*
X76200Y609600D03*
X76200Y635000D03*
X76200Y660400D03*
X76200Y685800D03*
X76200Y711200D03*
X76200Y736600D03*
X76200Y762000D03*
X76200Y787400D03*
X76200Y812800D03*
X76200Y838200D03*
X76200Y863600D03*
X76200Y889000D03*
X76200Y914400D03*
X76200Y939800D03*
X76200Y965200D03*
X101600Y584200D03*
X101600Y609600D03*
X101600Y635000D03*
X101600Y660400D03*
X101600Y685800D03*
X101600Y711200D03*
X101600Y736600D03*
X101600Y762000D03*
X101600Y787400D03*
X101600Y812800D03*
X101600Y838200D03*
X101600Y863600D03*
X101600Y889000D03*
X101600Y914400D03*
X101600Y939800D03*
X101600Y965200D03*
D14*
X1752600Y38100D03*
X1727200Y38100D03*
D15*
X1549400Y38100D03*
X1651000Y38100D03*
D16*
X101600Y55880D02*
X101600Y71120D01*
X127000Y71120D02*
X127000Y55880D01*
X152400Y55880D02*
X152400Y71120D01*
X1389380Y355600D02*
X1404620Y355600D01*
X1404620Y381000D02*
X1389380Y381000D01*
X1389380Y406400D02*
X1404620Y406400D01*
D17*
X257175Y530225D02*
X241300Y546100D01*
X257175Y530225D02*
X425450Y530225D01*
X860425Y403225D02*
X876300Y419100D01*
X860425Y403225D02*
X730250Y403225D01*
X717550Y390525D01*
X587375Y390525D01*
X558800Y419100D01*
X1431925Y955675D02*
X1460500Y927100D01*
X1431925Y955675D02*
X1098550Y955675D01*
X1041400Y1012825D01*
X708025Y1012825D01*
X692150Y996950D02*
X669925Y1019175D01*
X581025Y1019175D01*
X558800Y1041400D01*
D18*
X425450Y530225D03*
X708025Y1012825D03*
X692150Y996950D03*
D17*
X307975Y561975D02*
X292100Y546100D01*
X307975Y561975D02*
X469900Y561975D01*
X476250Y555625D01*
X847725Y498475D02*
X927100Y419100D01*
X847725Y498475D02*
X533400Y498475D01*
X1476375Y962025D02*
X1511300Y927100D01*
X1476375Y962025D02*
X1438275Y962025D01*
X1435100Y965200D01*
X1317625Y1082675D02*
X1311275Y1089025D01*
X768350Y1089025D01*
X755650Y1076325D01*
X644525Y1076325D01*
D18*
X476250Y555625D03*
X533400Y498475D03*
X1435100Y965200D03*
X1317625Y1082675D03*
X644525Y1076325D03*
D17*
X644525Y434975D02*
X635000Y434975D01*
X476250Y434975D01*
X644525Y434975D02*
X660400Y419100D01*
X635000Y434975D02*
X635000Y469900D01*
X1546225Y911225D02*
X1562100Y927100D01*
X1546225Y911225D02*
X1428750Y911225D01*
X1419225Y920750D01*
X1419225Y949325D01*
X1231900Y949325D01*
X1209675Y1000125D02*
X1136650Y1000125D01*
X1117600Y1019175D01*
X701675Y1019175D01*
D18*
X476250Y434975D03*
X1231900Y949325D03*
X1209675Y1000125D03*
X701675Y1019175D03*
D17*
X685800Y469900D02*
X685800Y434975D01*
X695325Y434975D01*
X711200Y419100D01*
X466725Y485775D02*
X460375Y479425D01*
X466725Y485775D02*
X669925Y485775D01*
X685800Y469900D01*
X1028700Y419100D02*
X1028700Y396875D01*
X825500Y396875D01*
X812800Y409575D02*
X787400Y434975D01*
X695325Y434975D01*
X1612900Y927100D02*
X1647825Y962025D01*
X1647825Y1038225D01*
X1631950Y1038225D01*
X1622425Y1047750D01*
X1622425Y1082675D01*
X1327150Y1082675D01*
X1314450Y1095375D01*
X765175Y1095375D01*
X752475Y1082675D01*
D18*
X460375Y479425D03*
X825500Y396875D03*
X812800Y409575D03*
X752475Y1082675D03*
D17*
X727075Y358775D02*
X711200Y342900D01*
X727075Y358775D02*
X1012825Y358775D01*
X1028700Y342900D01*
X434975Y511175D02*
X393700Y469900D01*
X434975Y511175D02*
X504825Y511175D01*
X523875Y530225D01*
X720725Y530225D01*
X736600Y546100D01*
X1597025Y835025D02*
X1612900Y850900D01*
X1597025Y835025D02*
X1428750Y835025D01*
X1419225Y844550D01*
X1419225Y866775D01*
X1238250Y866775D01*
X1225550Y879475D01*
X1130300Y879475D01*
X1123950Y885825D01*
X777875Y885825D01*
X771525Y892175D01*
D18*
X771525Y892175D03*
D17*
X977900Y342900D02*
X955675Y320675D01*
X682625Y320675D01*
X358775Y454025D02*
X342900Y469900D01*
X358775Y454025D02*
X425450Y454025D01*
X476250Y504825D01*
X508000Y504825D01*
X527050Y523875D01*
X663575Y523875D01*
X752475Y619125D02*
X752475Y701675D01*
X752475Y619125D02*
X682625Y619125D01*
X660400Y596900D01*
X1546225Y708025D02*
X1562100Y723900D01*
X1546225Y708025D02*
X942975Y708025D01*
X936625Y701675D01*
X752475Y701675D01*
D18*
X682625Y320675D03*
X663575Y523875D03*
X752475Y701675D03*
D17*
X752475Y561975D02*
X809625Y504825D01*
X752475Y561975D02*
X650875Y561975D01*
X635000Y546100D01*
X339725Y517525D02*
X292100Y469900D01*
X339725Y517525D02*
X457200Y517525D01*
X501650Y561975D01*
X574675Y561975D02*
X650875Y561975D01*
X574675Y561975D02*
X501650Y561975D01*
X574675Y561975D02*
X609600Y596900D01*
X1098550Y695325D02*
X1482725Y695325D01*
X1098550Y695325D02*
X1028700Y625475D01*
X933450Y625475D01*
X911225Y603250D01*
X911225Y574675D01*
X879475Y574675D01*
D18*
X809625Y504825D03*
X1482725Y695325D03*
X879475Y574675D03*
D17*
X295275Y523875D02*
X241300Y469900D01*
X295275Y523875D02*
X454025Y523875D01*
X504825Y574675D01*
X536575Y574675D01*
X558800Y596900D01*
X860425Y327025D02*
X876300Y342900D01*
X860425Y327025D02*
X577850Y327025D01*
X561975Y342900D01*
X558800Y342900D01*
X1425575Y885825D02*
X1460500Y850900D01*
X1425575Y885825D02*
X1133475Y885825D01*
X1127125Y892175D01*
X927100Y892175D01*
X908050Y911225D01*
X600075Y911225D01*
X584200Y927100D01*
X1228725Y866775D02*
X1244600Y850900D01*
X1228725Y866775D02*
X996950Y866775D01*
X990600Y873125D01*
X923925Y873125D01*
X901700Y850900D01*
X568325Y758825D02*
X533400Y723900D01*
X568325Y758825D02*
X815975Y758825D01*
X828675Y746125D01*
D18*
X828675Y746125D03*
D17*
X911225Y739775D02*
X927100Y723900D01*
X911225Y739775D02*
X600075Y739775D01*
X584200Y723900D01*
X1727200Y647700D02*
X1739900Y635000D01*
X1727200Y647700D02*
X1711325Y647700D01*
X1682750Y619125D01*
X1447800Y619125D01*
X1435100Y606425D01*
X1333500Y606425D01*
X1327150Y612775D01*
X993775Y612775D01*
X977900Y596900D01*
X1177925Y835025D02*
X1193800Y850900D01*
X1177925Y835025D02*
X993775Y835025D01*
X977900Y850900D01*
X1485900Y596900D02*
X1501775Y612775D01*
X1701800Y612775D01*
X1711325Y622300D01*
X1727200Y622300D01*
X1739900Y609600D01*
X257175Y327025D02*
X241300Y342900D01*
X257175Y327025D02*
X568325Y327025D01*
X581025Y314325D01*
X704850Y314325D01*
X711200Y307975D01*
X936625Y307975D01*
X952500Y292100D01*
X765175Y688975D02*
X758825Y695325D01*
X765175Y688975D02*
X936625Y688975D01*
X952500Y673100D01*
X1222375Y949325D02*
X1244600Y927100D01*
X1222375Y949325D02*
X987425Y949325D01*
X981075Y942975D01*
X971550Y942975D01*
X955675Y927100D01*
X952500Y927100D01*
X1470025Y581025D02*
X1485900Y596900D01*
X1470025Y581025D02*
X1162050Y581025D01*
X1155700Y587375D01*
D18*
X758825Y695325D03*
X1155700Y587375D03*
D17*
X1244600Y469900D02*
X1304925Y530225D01*
X1393825Y530225D01*
X1419225Y555625D01*
X1447800Y555625D01*
X1273175Y1000125D02*
X1266825Y1006475D01*
X1155700Y1006475D01*
X1123950Y1038225D01*
X968375Y1038225D01*
X952500Y1054100D01*
D18*
X1447800Y555625D03*
X1273175Y1000125D03*
D17*
X1555750Y644525D02*
X1536700Y625475D01*
X1555750Y644525D02*
X1698625Y644525D01*
X1708150Y654050D01*
X1736725Y654050D01*
X1752600Y638175D01*
X1752600Y584200D01*
X1739900Y584200D01*
X1193800Y469900D02*
X1177925Y454025D01*
X1019175Y454025D01*
X1508125Y568325D02*
X1536700Y596900D01*
X1508125Y568325D02*
X1295400Y568325D01*
X1282700Y555625D02*
X1282700Y517525D01*
X1241425Y517525D01*
X1193800Y469900D01*
D18*
X1536700Y625475D03*
X1019175Y454025D03*
X1295400Y568325D03*
X1282700Y555625D03*
D17*
X647700Y174625D02*
X647700Y149225D01*
X936625Y149225D01*
X952500Y165100D01*
X1054100Y568325D02*
X1244600Y568325D01*
X1054100Y568325D02*
X1031875Y546100D01*
X1028700Y546100D01*
X1587500Y596900D02*
X1612900Y571500D01*
X1727200Y571500D01*
X1739900Y558800D01*
X593725Y809625D02*
X584200Y800100D01*
X593725Y809625D02*
X596900Y809625D01*
X603250Y815975D01*
X831850Y815975D01*
X847725Y800100D01*
X850900Y800100D01*
X1562100Y1054100D02*
X1577975Y1038225D01*
X1593850Y1038225D01*
X1597025Y1041400D01*
X1597025Y1076325D01*
X1050925Y1076325D01*
X1028700Y1054100D01*
D18*
X647700Y174625D03*
X1244600Y568325D03*
D17*
X1133475Y688975D02*
X1063625Y619125D01*
X949325Y619125D01*
X927100Y596900D01*
X533400Y625475D02*
X533400Y657225D01*
X533400Y625475D02*
X533400Y619125D01*
X533400Y657225D02*
X539750Y657225D01*
X542925Y660400D01*
X542925Y708025D01*
X527050Y708025D01*
X523875Y711200D01*
X523875Y784225D01*
X542925Y784225D01*
X558800Y800100D01*
X295275Y873125D02*
X241300Y927100D01*
X295275Y873125D02*
X454025Y873125D01*
X498475Y828675D01*
X527050Y828675D01*
X533400Y625475D02*
X746125Y625475D01*
D18*
X1133475Y688975D03*
X533400Y619125D03*
X527050Y828675D03*
X746125Y625475D03*
D17*
X574675Y835025D02*
X501650Y835025D01*
X438150Y898525D01*
X295275Y898525D01*
X266700Y927100D01*
X603250Y581025D02*
X615950Y568325D01*
X974725Y568325D01*
X1003300Y596900D01*
X1228725Y739775D02*
X1244600Y723900D01*
X1228725Y739775D02*
X1136650Y739775D01*
X1054100Y822325D01*
X1031875Y822325D01*
X958850Y835025D02*
X574675Y835025D01*
X958850Y835025D02*
X968375Y844550D01*
X968375Y866775D01*
X987425Y866775D01*
X1003300Y850900D01*
D18*
X574675Y835025D03*
X603250Y581025D03*
X1031875Y822325D03*
D17*
X635000Y596900D02*
X635000Y574675D01*
X857250Y574675D01*
X939800Y657225D01*
X987425Y657225D01*
X1003300Y673100D01*
X314325Y904875D02*
X292100Y927100D01*
X314325Y904875D02*
X463550Y904875D01*
X482600Y885825D01*
X615950Y885825D01*
X622300Y879475D01*
D18*
X622300Y879475D03*
D17*
X701675Y612775D02*
X685800Y596900D01*
X701675Y612775D02*
X882650Y612775D01*
X920750Y650875D01*
X1165225Y911225D02*
X1184275Y892175D01*
X1165225Y911225D02*
X942975Y911225D01*
X927100Y927100D01*
X333375Y911225D02*
X317500Y927100D01*
X333375Y911225D02*
X568325Y911225D01*
X581025Y898525D01*
X863600Y898525D01*
X869950Y892175D01*
X892175Y892175D01*
X904875Y904875D01*
D18*
X920750Y650875D03*
X1184275Y892175D03*
X904875Y904875D03*
D17*
X409575Y180975D02*
X393700Y165100D01*
X409575Y180975D02*
X723900Y180975D01*
X927100Y546100D02*
X942975Y561975D01*
X1038225Y561975D01*
X1057275Y581025D01*
X1139825Y581025D01*
X1155700Y596900D01*
X1168400Y596900D01*
X365125Y1063625D02*
X342900Y1041400D01*
X365125Y1063625D02*
X863600Y1063625D01*
X882650Y1082675D01*
X898525Y1082675D01*
D18*
X723900Y180975D03*
X898525Y1082675D03*
D17*
X660400Y292100D02*
X660400Y250825D01*
X631825Y250825D01*
X628650Y247650D01*
X628650Y238125D01*
X854075Y238125D01*
X866775Y225425D01*
X889000Y225425D01*
X895350Y231775D01*
X933450Y231775D01*
X942975Y222250D01*
X942975Y200025D01*
X1016000Y200025D01*
X1038225Y177800D01*
X1038225Y104775D01*
X1019175Y104775D01*
X1003300Y88900D01*
X1092200Y561975D02*
X1200150Y561975D01*
X1092200Y561975D02*
X1022350Y492125D01*
X949325Y492125D01*
X942975Y485775D02*
X927100Y469900D01*
X942975Y485775D02*
X949325Y492125D01*
X866775Y492125D02*
X796925Y561975D01*
X866775Y492125D02*
X866775Y488950D01*
X869950Y485775D01*
X942975Y485775D01*
X857250Y1069975D02*
X349250Y1069975D01*
X333375Y1054100D01*
X333375Y1025525D01*
X352425Y1025525D01*
X368300Y1041400D01*
X546100Y238125D02*
X628650Y238125D01*
X546100Y238125D02*
X530225Y222250D01*
X447675Y222250D01*
D18*
X1200150Y561975D03*
X796925Y561975D03*
X857250Y1069975D03*
X447675Y222250D03*
D17*
X635000Y673100D02*
X635000Y708025D01*
X625475Y708025D01*
X609600Y723900D01*
X409575Y942975D02*
X962025Y942975D01*
X409575Y942975D02*
X393700Y927100D01*
X365125Y269875D02*
X333375Y238125D01*
X365125Y269875D02*
X514350Y269875D01*
X552450Y307975D01*
X619125Y307975D01*
X635000Y292100D01*
X981075Y187325D02*
X1003300Y165100D01*
X981075Y187325D02*
X911225Y187325D01*
X904875Y193675D01*
X333375Y193675D01*
X1254125Y631825D02*
X1295400Y673100D01*
X1254125Y631825D02*
X1127125Y631825D01*
X1114425Y619125D01*
D18*
X962025Y942975D03*
X333375Y238125D03*
X333375Y193675D03*
X1114425Y619125D03*
D17*
X339725Y187325D02*
X317500Y165100D01*
X508000Y187325D02*
X901700Y187325D01*
X508000Y187325D02*
X339725Y187325D01*
X901700Y187325D02*
X923925Y165100D01*
X927100Y165100D01*
X584200Y244475D02*
X584200Y292100D01*
X584200Y244475D02*
X565150Y244475D01*
X1098550Y619125D02*
X1136650Y657225D01*
X1203325Y657225D01*
X1219200Y673100D01*
X584200Y673100D02*
X584200Y708025D01*
X574675Y708025D01*
X558800Y723900D01*
X981075Y1076325D02*
X1003300Y1054100D01*
X981075Y1076325D02*
X885825Y1076325D01*
X866775Y1057275D01*
X434975Y1057275D01*
X419100Y1041400D01*
D18*
X565150Y244475D03*
X508000Y187325D03*
X1098550Y619125D03*
D17*
X1231900Y758825D02*
X1231900Y809625D01*
X1231900Y758825D02*
X1400175Y758825D01*
X1435100Y723900D01*
D18*
X1231900Y809625D03*
D17*
X1171575Y822325D02*
X1365250Y822325D01*
X1447800Y739775D01*
X1470025Y739775D01*
X1485900Y723900D01*
D18*
X1171575Y822325D03*
D17*
X1235075Y911225D02*
X1219200Y927100D01*
X1235075Y911225D02*
X1276350Y911225D01*
X1285875Y920750D01*
X1285875Y942975D01*
X1371600Y942975D01*
X1416050Y898525D01*
X1597025Y898525D01*
X1628775Y866775D01*
X1628775Y708025D01*
X1581150Y708025D01*
X1571625Y717550D01*
X1571625Y739775D01*
X1552575Y739775D01*
X1536700Y723900D01*
X1330325Y892175D02*
X1295400Y927100D01*
X1330325Y892175D02*
X1593850Y892175D01*
X1622425Y863600D01*
X1622425Y739775D01*
X1603375Y739775D01*
X1587500Y723900D01*
X1235075Y454025D02*
X1219200Y469900D01*
X1235075Y454025D02*
X1327150Y454025D01*
X1422400Y549275D01*
X1422400Y612775D02*
X1422400Y688975D01*
X1641475Y688975D01*
X1647825Y695325D01*
X1647825Y800100D01*
X1638300Y800100D01*
D18*
X1422400Y549275D03*
X1422400Y612775D03*
D17*
X1003300Y723900D02*
X1003300Y784225D01*
X1009650Y784225D01*
X1012825Y787400D01*
X1012825Y815975D01*
X841375Y815975D01*
D18*
X841375Y815975D03*
D17*
X971550Y768350D02*
X1003300Y800100D01*
X971550Y768350D02*
X822325Y768350D01*
D18*
X822325Y768350D03*
D17*
X952500Y774700D02*
X977900Y800100D01*
X952500Y774700D02*
X815975Y774700D01*
X806450Y765175D01*
X704850Y765175D01*
X692150Y777875D01*
D18*
X692150Y777875D03*
D17*
X768350Y841375D02*
X860425Y841375D01*
X768350Y841375D02*
X742950Y866775D01*
X625475Y866775D01*
X609600Y850900D01*
D18*
X860425Y841375D03*
D17*
X828675Y847725D02*
X803275Y873125D01*
X581025Y873125D01*
X558800Y850900D01*
D18*
X828675Y847725D03*
D17*
X650875Y708025D02*
X635000Y723900D01*
X650875Y708025D02*
X933450Y708025D01*
X949325Y723900D01*
X952500Y723900D01*
X1028700Y927100D02*
X1044575Y942975D01*
X1177925Y942975D01*
X1193800Y927100D01*
X333375Y377825D02*
X292100Y419100D01*
X333375Y377825D02*
X825500Y377825D01*
X838200Y365125D01*
X1028700Y365125D01*
X1038225Y355600D01*
X1038225Y292100D01*
X1028700Y292100D01*
X1631950Y701675D02*
X1638300Y695325D01*
X1631950Y701675D02*
X1057275Y701675D01*
X1028700Y673100D01*
D18*
X1638300Y695325D03*
D17*
X644525Y257175D02*
X609600Y292100D01*
X644525Y257175D02*
X654050Y257175D01*
X679450Y231775D02*
X850900Y231775D01*
X882650Y200025D01*
X933450Y200025D01*
X939800Y193675D01*
X1000125Y193675D01*
X1028700Y165100D01*
X650875Y784225D02*
X635000Y800100D01*
X650875Y784225D02*
X911225Y784225D01*
X927100Y800100D01*
X1562100Y596900D02*
X1597025Y561975D01*
X1711325Y561975D01*
X1714500Y558800D01*
X993775Y485775D02*
X977900Y469900D01*
X993775Y485775D02*
X1133475Y485775D01*
X1193800Y546100D01*
X1527175Y561975D02*
X1562100Y596900D01*
X1527175Y561975D02*
X1209675Y561975D01*
X1193800Y546100D01*
D18*
X654050Y257175D03*
X679450Y231775D03*
D17*
X704850Y904875D02*
X584200Y904875D01*
X561975Y927100D01*
X558800Y927100D01*
D18*
X704850Y904875D03*
D17*
X139700Y596900D02*
X101600Y558800D01*
X206375Y596900D02*
X241300Y596900D01*
X206375Y596900D02*
X139700Y596900D01*
X206375Y596900D02*
X206375Y447675D01*
X612775Y447675D01*
X812800Y390525D02*
X1117600Y390525D01*
X1174750Y447675D01*
X1412875Y447675D01*
X1511300Y546100D01*
D18*
X612775Y447675D03*
X812800Y390525D03*
D17*
X393700Y292100D02*
X377825Y276225D01*
X336550Y276225D01*
X327025Y285750D01*
X327025Y314325D01*
X250825Y314325D02*
X238125Y314325D01*
X250825Y314325D02*
X327025Y314325D01*
X238125Y314325D02*
X114300Y438150D01*
X114300Y527050D01*
X250825Y612775D02*
X266700Y596900D01*
X250825Y612775D02*
X231775Y612775D01*
X222250Y603250D01*
X120650Y603250D01*
X101600Y584200D01*
X250825Y314325D02*
X250825Y244475D01*
X238125Y244475D01*
X225425Y231775D01*
X225425Y60325D01*
X1111250Y60325D01*
X1209675Y158750D01*
X1209675Y187325D01*
X1231900Y187325D01*
X1244600Y200025D01*
X1593850Y200025D01*
X1603375Y209550D01*
X1603375Y276225D01*
X1619250Y276225D01*
X1622425Y279400D01*
X1622425Y403225D01*
X1504950Y403225D01*
X1495425Y412750D01*
X1495425Y469900D01*
X1485900Y469900D01*
D18*
X114300Y527050D03*
D17*
X269875Y619125D02*
X292100Y596900D01*
X257175Y619125D02*
X228600Y619125D01*
X257175Y619125D02*
X269875Y619125D01*
X228600Y619125D02*
X219075Y609600D01*
X101600Y609600D01*
X1457325Y1000125D02*
X1511300Y1054100D01*
X1457325Y1000125D02*
X1447800Y1000125D01*
X1431925Y984250D01*
X1336675Y984250D01*
X1327150Y993775D01*
X1136650Y993775D01*
X1104900Y962025D01*
X993775Y828675D02*
X536575Y828675D01*
X530225Y822325D01*
X469900Y822325D01*
X403225Y755650D01*
X403225Y695325D01*
X266700Y695325D01*
X257175Y685800D01*
X257175Y619125D01*
D18*
X1104900Y962025D03*
X993775Y828675D03*
D17*
X409575Y581025D02*
X393700Y596900D01*
X409575Y581025D02*
X514350Y581025D01*
X523875Y590550D01*
X523875Y612775D01*
X641350Y612775D01*
X650875Y603250D01*
X650875Y581025D01*
X723900Y581025D01*
X835025Y377825D02*
X841375Y371475D01*
X1123950Y371475D01*
X1152525Y342900D01*
X1168400Y342900D01*
D18*
X723900Y581025D03*
X835025Y377825D03*
D17*
X317500Y612775D02*
X317500Y673100D01*
X317500Y612775D02*
X323850Y612775D01*
X327025Y609600D01*
X327025Y568325D01*
X454025Y568325D01*
X517525Y504825D02*
X530225Y492125D01*
X777875Y492125D01*
X850900Y419100D01*
D18*
X454025Y568325D03*
X517525Y504825D03*
D17*
X352425Y606425D02*
X419100Y673100D01*
X352425Y606425D02*
X352425Y581025D01*
X333375Y581025D01*
X320675Y568325D02*
X238125Y568325D01*
X215900Y546100D01*
D18*
X333375Y581025D03*
X320675Y568325D03*
D17*
X1260475Y327025D02*
X1295400Y292100D01*
X1260475Y327025D02*
X1235075Y327025D01*
X1219200Y342900D01*
X508000Y596900D02*
X508000Y657225D01*
X517525Y657225D01*
X533400Y673100D01*
X282575Y688975D02*
X266700Y673100D01*
X282575Y688975D02*
X469900Y688975D01*
X501650Y657225D01*
X508000Y657225D01*
X292100Y215900D02*
X307975Y200025D01*
X695325Y200025D01*
X711200Y215900D01*
X266700Y215900D02*
X266700Y180975D01*
X273050Y180975D01*
X282575Y171450D01*
X282575Y104775D01*
X615950Y104775D01*
X628650Y117475D01*
D18*
X628650Y117475D03*
D17*
X257175Y231775D02*
X241300Y215900D01*
X257175Y231775D02*
X428625Y231775D01*
X444500Y215900D01*
X536575Y215900D01*
X552450Y231775D01*
X644525Y231775D01*
X660400Y215900D01*
X609600Y165100D02*
X644525Y130175D01*
X1006475Y130175D01*
D18*
X1006475Y130175D03*
D17*
X317500Y292100D02*
X263525Y238125D01*
X241300Y238125D01*
X231775Y228600D01*
X231775Y66675D01*
X1063625Y66675D01*
X1076325Y79375D01*
X1076325Y193675D01*
X1219200Y193675D01*
X1235075Y209550D01*
X1235075Y250825D01*
X1301750Y250825D01*
D18*
X1301750Y250825D03*
D17*
X371475Y123825D02*
X352425Y142875D01*
X371475Y123825D02*
X631825Y123825D01*
X644525Y111125D01*
X857250Y111125D01*
X895350Y73025D01*
X1060450Y73025D01*
X1069975Y82550D01*
X1069975Y200025D01*
X1174750Y200025D01*
X1184275Y209550D01*
X1184275Y269875D01*
X1447800Y269875D01*
X1454150Y276225D01*
X1571625Y276225D01*
X1587500Y292100D01*
D18*
X352425Y142875D03*
D17*
X1193800Y800100D02*
X1209675Y815975D01*
X1254125Y815975D01*
X1270000Y800100D01*
X1260475Y231775D02*
X1244600Y215900D01*
X1260475Y231775D02*
X1495425Y231775D01*
X1511300Y215900D01*
X1571625Y231775D02*
X1587500Y215900D01*
X1571625Y231775D02*
X1495425Y231775D01*
X266700Y850900D02*
X238125Y822325D01*
X177800Y822325D01*
X152400Y796925D01*
X139700Y736600D02*
X114300Y711200D01*
X114300Y698500D01*
X63500Y698500D01*
X50800Y685800D01*
D18*
X152400Y796925D03*
X139700Y736600D03*
D17*
X257175Y815975D02*
X292100Y850900D01*
X257175Y815975D02*
X180975Y815975D01*
X161925Y796925D01*
X146050Y752475D02*
X117475Y723900D01*
X63500Y723900D01*
X50800Y711200D01*
D18*
X161925Y796925D03*
X146050Y752475D03*
D17*
X301625Y809625D02*
X342900Y850900D01*
X301625Y809625D02*
X301625Y708025D01*
X209550Y708025D01*
X200025Y717550D01*
X200025Y758825D01*
X120650Y758825D01*
X104775Y774700D01*
X63500Y774700D01*
X50800Y762000D01*
X215900Y765175D02*
X215900Y723900D01*
X215900Y765175D02*
X187325Y765175D01*
X174625Y777875D01*
X174625Y790575D01*
X139700Y790575D01*
X104775Y825500D01*
X63500Y825500D01*
X50800Y838200D01*
X117475Y850900D02*
X155575Y812800D01*
X117475Y850900D02*
X63500Y850900D01*
X50800Y863600D01*
D18*
X155575Y812800D03*
D17*
X215900Y774700D02*
X266700Y723900D01*
X215900Y774700D02*
X187325Y774700D01*
X177800Y765175D02*
X139700Y765175D01*
X104775Y800100D01*
X47625Y800100D01*
X38100Y809625D01*
X38100Y889000D01*
X50800Y889000D01*
D18*
X187325Y774700D03*
X177800Y765175D03*
D17*
X228600Y787400D02*
X292100Y723900D01*
X228600Y787400D02*
X228600Y809625D01*
X209550Y828675D02*
X203200Y835025D01*
X171450Y835025D01*
X104775Y901700D01*
X98425Y901700D01*
X88900Y911225D01*
X88900Y927100D01*
X63500Y927100D01*
X50800Y914400D01*
D18*
X228600Y809625D03*
X209550Y828675D03*
D17*
X371475Y701675D02*
X393700Y723900D01*
X371475Y701675D02*
X136525Y701675D01*
X107950Y673100D01*
X73025Y673100D01*
X63500Y663575D01*
X63500Y304800D01*
X76200Y304800D01*
X1638300Y292100D02*
X1765300Y419100D01*
X1765300Y1108075D01*
X228600Y1108075D01*
X196850Y1076325D01*
X196850Y955675D01*
D18*
X196850Y955675D03*
D17*
X1485900Y673100D02*
X1508125Y650875D01*
X1647825Y650875D01*
X1660525Y663575D01*
X1660525Y927100D01*
X1638300Y927100D01*
X1511300Y673100D02*
X1527175Y657225D01*
X1644650Y657225D01*
X1654175Y666750D01*
X1654175Y911225D01*
X1603375Y911225D01*
X1587500Y927100D01*
X1184275Y1069975D02*
X1168400Y1054100D01*
X1371600Y1069975D02*
X1571625Y1069975D01*
X1371600Y1069975D02*
X1184275Y1069975D01*
X1571625Y1069975D02*
X1587500Y1054100D01*
X1371600Y1069975D02*
X1371600Y1019175D01*
D18*
X1371600Y1019175D03*
D17*
X1260475Y1012825D02*
X1219200Y1054100D01*
X1260475Y1012825D02*
X1397000Y1012825D01*
X1419225Y990600D01*
D18*
X1419225Y990600D03*
D17*
X473075Y752475D02*
X415925Y695325D01*
X473075Y752475D02*
X473075Y815975D01*
X593725Y815975D01*
X600075Y822325D01*
X1022350Y822325D01*
X1028700Y828675D01*
X1235075Y828675D01*
X1241425Y835025D01*
X1393825Y835025D01*
X1409700Y850900D01*
D18*
X415925Y695325D03*
D17*
X1168400Y977900D02*
X1184275Y962025D01*
X1422400Y962025D01*
X1454150Y993775D01*
X1597025Y993775D01*
X1612900Y977900D01*
X857250Y244475D02*
X635000Y244475D01*
X857250Y244475D02*
X869950Y231775D01*
X885825Y231775D01*
X892175Y238125D01*
X936625Y238125D01*
X952500Y222250D01*
X952500Y215900D01*
D18*
X635000Y244475D03*
D17*
X666750Y269875D02*
X685800Y250825D01*
X993775Y250825D01*
X1028700Y215900D01*
D18*
X666750Y269875D03*
D17*
X669925Y276225D02*
X669925Y307975D01*
X669925Y276225D02*
X1038225Y276225D01*
X1054100Y292100D01*
D18*
X669925Y307975D03*
D17*
X714375Y314325D02*
X955675Y314325D01*
X977900Y292100D01*
D18*
X714375Y314325D03*
D17*
X650875Y403225D02*
X635000Y419100D01*
X650875Y403225D02*
X720725Y403225D01*
X854075Y269875D02*
X866775Y257175D01*
X1009650Y257175D01*
X1044575Y222250D01*
X1044575Y165100D01*
X1054100Y165100D01*
D18*
X720725Y403225D03*
X854075Y269875D03*
D17*
X606425Y396875D02*
X584200Y419100D01*
X606425Y396875D02*
X704850Y396875D01*
D18*
X704850Y396875D03*
D17*
X952500Y469900D02*
X1003300Y419100D01*
X968375Y403225D02*
X952500Y419100D01*
X968375Y403225D02*
X1009650Y403225D01*
X1012825Y406400D01*
X1012825Y441325D01*
X1003300Y441325D01*
X1000125Y444500D01*
X1000125Y454025D01*
X1009650Y454025D01*
X1025525Y469900D01*
X1028700Y469900D01*
X939800Y530225D02*
X901700Y492125D01*
X939800Y530225D02*
X1038225Y530225D01*
X1054100Y546100D01*
D18*
X901700Y492125D03*
D17*
X533400Y965200D02*
X555625Y987425D01*
X812800Y987425D01*
D18*
X812800Y987425D03*
D17*
X650875Y981075D02*
X635000Y965200D01*
X650875Y981075D02*
X876300Y981075D01*
X901700Y955675D01*
X1025525Y955675D01*
D18*
X1025525Y955675D03*
D17*
X701675Y949325D02*
X685800Y965200D01*
X701675Y949325D02*
X977900Y949325D01*
D18*
X977900Y949325D03*
D17*
X746125Y1050925D02*
X736600Y1041400D01*
X746125Y1050925D02*
X876300Y1050925D01*
X895350Y1069975D01*
X962025Y1069975D01*
X977900Y1054100D01*
X685800Y1041400D02*
X685800Y1025525D01*
X711200Y1000125D01*
X863600Y1000125D01*
X869950Y993775D01*
X936625Y993775D01*
X952500Y977900D01*
X650875Y1025525D02*
X635000Y1041400D01*
X650875Y1025525D02*
X676275Y1025525D01*
X708025Y993775D01*
X860425Y993775D01*
X866775Y987425D01*
X882650Y987425D01*
X895350Y1000125D02*
X1006475Y1000125D01*
X1028700Y977900D01*
D18*
X882650Y987425D03*
X895350Y1000125D03*
D17*
X342900Y320675D02*
X342900Y292100D01*
X342900Y320675D02*
X241300Y320675D01*
X231775Y330200D01*
X231775Y434975D01*
X466725Y434975D01*
X517525Y384175D01*
X1158875Y384175D01*
X1193800Y419100D01*
X1533525Y396875D02*
X1587500Y342900D01*
X1533525Y396875D02*
X1473200Y396875D01*
X1435100Y434975D01*
X1209675Y434975D01*
X1193800Y419100D01*
X1320800Y419100D02*
X1419225Y419100D01*
X1460500Y377825D01*
X1501775Y377825D01*
X1536700Y342900D01*
X1031875Y146050D02*
X1009650Y123825D01*
X641350Y123825D01*
X615950Y149225D01*
X307975Y149225D01*
X292100Y165100D01*
D18*
X1031875Y146050D03*
D17*
X1536700Y419100D02*
X1571625Y454025D01*
X1597025Y454025D01*
X1612900Y469900D01*
X1536700Y165100D02*
X1412875Y41275D01*
X123825Y41275D01*
X101600Y63500D01*
X104775Y911225D02*
X101600Y914400D01*
X104775Y911225D02*
X222250Y911225D01*
X231775Y920750D01*
X231775Y1101725D01*
X1612900Y1101725D01*
X1758950Y955675D01*
X1758950Y485775D01*
X1530350Y485775D01*
X1520825Y476250D01*
X1520825Y419100D01*
X1511300Y419100D01*
X1511300Y165100D02*
X1470025Y123825D01*
X1377950Y123825D01*
X1301750Y47625D01*
X193675Y47625D01*
X76200Y165100D01*
X47625Y165100D01*
X31750Y180975D01*
X31750Y901700D01*
X79375Y901700D01*
X88900Y892175D01*
X88900Y863600D01*
X101600Y863600D01*
X508000Y784225D02*
X508000Y723900D01*
X508000Y784225D02*
X514350Y784225D01*
X530225Y800100D01*
X533400Y800100D01*
X190500Y723900D02*
X174625Y708025D01*
X133350Y708025D01*
X111125Y685800D01*
X101600Y685800D01*
X450850Y866775D02*
X488950Y828675D01*
X450850Y866775D02*
X206375Y866775D01*
X190500Y850900D01*
D18*
X488950Y828675D03*
D17*
X1168400Y257175D02*
X1168400Y215900D01*
X1168400Y257175D02*
X1019175Y257175D01*
X1006475Y269875D01*
X895350Y269875D01*
X628650Y441325D02*
X615950Y454025D01*
X523875Y454025D01*
X508000Y469900D01*
X101600Y660400D02*
X88900Y647700D01*
X88900Y546100D01*
X104775Y546100D01*
X155575Y495300D01*
X155575Y441325D01*
X628650Y441325D01*
D18*
X895350Y269875D03*
X628650Y441325D03*
D17*
X1193800Y292100D02*
X1209675Y276225D01*
X1327150Y276225D01*
X1397000Y346075D01*
X1397000Y355600D01*
X1558925Y47625D02*
X1549400Y38100D01*
X1558925Y47625D02*
X1743075Y47625D01*
X1752600Y38100D01*
X1193800Y215900D02*
X1193800Y257175D01*
X1574800Y257175D01*
X1609725Y292100D01*
X1612900Y292100D01*
X1219200Y292100D02*
X1184275Y327025D01*
X1184275Y368300D01*
X1409700Y368300D01*
X1416050Y374650D01*
X1416050Y406400D01*
X1397000Y406400D01*
X1177925Y746125D02*
X1177925Y815975D01*
X1177925Y746125D02*
X1273175Y746125D01*
X1295400Y723900D01*
D18*
X1177925Y815975D03*
D17*
X1228725Y530225D02*
X1168400Y469900D01*
X1228725Y530225D02*
X1250950Y530225D01*
X1257300Y536575D01*
X1257300Y555625D01*
D18*
X1257300Y555625D03*
D17*
X1247775Y193675D02*
X1228725Y174625D01*
X1228725Y53975D01*
X209550Y53975D01*
X88900Y174625D01*
X88900Y292100D01*
X47625Y292100D01*
X38100Y301625D01*
X38100Y749300D01*
X88900Y749300D01*
X101600Y736600D01*
D18*
X1247775Y193675D03*
D17*
X1495425Y98425D02*
X1562100Y165100D01*
X1495425Y98425D02*
X1495425Y34925D01*
X88900Y34925D01*
X6350Y117475D01*
X6350Y952500D01*
X190500Y952500D01*
X215900Y927100D01*
X1270000Y419100D02*
X1308100Y381000D01*
X1397000Y381000D01*
X1374775Y193675D02*
X1270000Y88900D01*
X1374775Y193675D02*
X1597025Y193675D01*
X1612900Y209550D01*
X1612900Y215900D01*
M02*
