G04 EAGLE Gerber RS-274X export*
G75*
%MOMM*%
%FSLAX34Y34*%
%LPD*%
%INBottom Copper*%
%IPPOS*%
%AMOC8*
5,1,8,0,0,1.08239X$1,22.5*%
G01*
%ADD10C,1.219200*%
%ADD11P,1.319650X8X112.500000*%
%ADD12P,1.649562X8X292.500000*%
%ADD13P,1.649562X8X202.500000*%
%ADD14P,1.319650X8X202.500000*%
%ADD15P,1.319650X8X22.500000*%
%ADD16C,1.524000*%
%ADD17C,0.127000*%
%ADD18C,0.457200*%


D10*
X1168400Y717804D02*
X1168400Y729996D01*
X1193800Y729996D02*
X1193800Y717804D01*
X1320800Y717804D02*
X1320800Y729996D01*
X1320800Y794004D02*
X1320800Y806196D01*
X1219200Y729996D02*
X1219200Y717804D01*
X1244600Y717804D02*
X1244600Y729996D01*
X1295400Y729996D02*
X1295400Y717804D01*
X1270000Y717804D02*
X1270000Y729996D01*
X1295400Y794004D02*
X1295400Y806196D01*
X1270000Y806196D02*
X1270000Y794004D01*
X1244600Y794004D02*
X1244600Y806196D01*
X1219200Y806196D02*
X1219200Y794004D01*
X1193800Y794004D02*
X1193800Y806196D01*
X1168400Y806196D02*
X1168400Y794004D01*
X1168400Y602996D02*
X1168400Y590804D01*
X1193800Y590804D02*
X1193800Y602996D01*
X1320800Y602996D02*
X1320800Y590804D01*
X1320800Y667004D02*
X1320800Y679196D01*
X1219200Y602996D02*
X1219200Y590804D01*
X1244600Y590804D02*
X1244600Y602996D01*
X1295400Y602996D02*
X1295400Y590804D01*
X1270000Y590804D02*
X1270000Y602996D01*
X1295400Y667004D02*
X1295400Y679196D01*
X1270000Y679196D02*
X1270000Y667004D01*
X1244600Y667004D02*
X1244600Y679196D01*
X1219200Y679196D02*
X1219200Y667004D01*
X1193800Y667004D02*
X1193800Y679196D01*
X1168400Y679196D02*
X1168400Y667004D01*
X1409700Y717804D02*
X1409700Y729996D01*
X1435100Y729996D02*
X1435100Y717804D01*
X1562100Y717804D02*
X1562100Y729996D01*
X1587500Y729996D02*
X1587500Y717804D01*
X1460500Y717804D02*
X1460500Y729996D01*
X1485900Y729996D02*
X1485900Y717804D01*
X1536700Y717804D02*
X1536700Y729996D01*
X1511300Y729996D02*
X1511300Y717804D01*
X1612900Y717804D02*
X1612900Y729996D01*
X1638300Y729996D02*
X1638300Y717804D01*
X1638300Y794004D02*
X1638300Y806196D01*
X1612900Y806196D02*
X1612900Y794004D01*
X1587500Y794004D02*
X1587500Y806196D01*
X1562100Y806196D02*
X1562100Y794004D01*
X1536700Y794004D02*
X1536700Y806196D01*
X1511300Y806196D02*
X1511300Y794004D01*
X1485900Y794004D02*
X1485900Y806196D01*
X1460500Y806196D02*
X1460500Y794004D01*
X1435100Y794004D02*
X1435100Y806196D01*
X1409700Y806196D02*
X1409700Y794004D01*
X241300Y602996D02*
X241300Y590804D01*
X266700Y590804D02*
X266700Y602996D01*
X393700Y602996D02*
X393700Y590804D01*
X419100Y590804D02*
X419100Y602996D01*
X292100Y602996D02*
X292100Y590804D01*
X317500Y590804D02*
X317500Y602996D01*
X368300Y602996D02*
X368300Y590804D01*
X342900Y590804D02*
X342900Y602996D01*
X419100Y667004D02*
X419100Y679196D01*
X393700Y679196D02*
X393700Y667004D01*
X368300Y667004D02*
X368300Y679196D01*
X342900Y679196D02*
X342900Y667004D01*
X317500Y667004D02*
X317500Y679196D01*
X292100Y679196D02*
X292100Y667004D01*
X266700Y667004D02*
X266700Y679196D01*
X241300Y679196D02*
X241300Y667004D01*
X266700Y94996D02*
X266700Y82804D01*
X292100Y82804D02*
X292100Y94996D01*
X419100Y94996D02*
X419100Y82804D01*
X419100Y159004D02*
X419100Y171196D01*
X317500Y94996D02*
X317500Y82804D01*
X342900Y82804D02*
X342900Y94996D01*
X393700Y94996D02*
X393700Y82804D01*
X368300Y82804D02*
X368300Y94996D01*
X393700Y159004D02*
X393700Y171196D01*
X368300Y171196D02*
X368300Y159004D01*
X342900Y159004D02*
X342900Y171196D01*
X317500Y171196D02*
X317500Y159004D01*
X292100Y159004D02*
X292100Y171196D01*
X266700Y171196D02*
X266700Y159004D01*
X190500Y463804D02*
X190500Y475996D01*
X215900Y475996D02*
X215900Y463804D01*
X342900Y463804D02*
X342900Y475996D01*
X368300Y475996D02*
X368300Y463804D01*
X241300Y463804D02*
X241300Y475996D01*
X266700Y475996D02*
X266700Y463804D01*
X317500Y463804D02*
X317500Y475996D01*
X292100Y475996D02*
X292100Y463804D01*
X393700Y463804D02*
X393700Y475996D01*
X419100Y475996D02*
X419100Y463804D01*
X419100Y540004D02*
X419100Y552196D01*
X393700Y552196D02*
X393700Y540004D01*
X368300Y540004D02*
X368300Y552196D01*
X342900Y552196D02*
X342900Y540004D01*
X317500Y540004D02*
X317500Y552196D01*
X292100Y552196D02*
X292100Y540004D01*
X266700Y540004D02*
X266700Y552196D01*
X241300Y552196D02*
X241300Y540004D01*
X215900Y540004D02*
X215900Y552196D01*
X190500Y552196D02*
X190500Y540004D01*
X508000Y475996D02*
X508000Y463804D01*
X533400Y463804D02*
X533400Y475996D01*
X660400Y475996D02*
X660400Y463804D01*
X685800Y463804D02*
X685800Y475996D01*
X558800Y475996D02*
X558800Y463804D01*
X584200Y463804D02*
X584200Y475996D01*
X635000Y475996D02*
X635000Y463804D01*
X609600Y463804D02*
X609600Y475996D01*
X711200Y475996D02*
X711200Y463804D01*
X736600Y463804D02*
X736600Y475996D01*
X736600Y540004D02*
X736600Y552196D01*
X711200Y552196D02*
X711200Y540004D01*
X685800Y540004D02*
X685800Y552196D01*
X660400Y552196D02*
X660400Y540004D01*
X635000Y540004D02*
X635000Y552196D01*
X609600Y552196D02*
X609600Y540004D01*
X584200Y540004D02*
X584200Y552196D01*
X558800Y552196D02*
X558800Y540004D01*
X533400Y540004D02*
X533400Y552196D01*
X508000Y552196D02*
X508000Y540004D01*
X508000Y844804D02*
X508000Y856996D01*
X533400Y856996D02*
X533400Y844804D01*
X660400Y844804D02*
X660400Y856996D01*
X685800Y856996D02*
X685800Y844804D01*
X558800Y844804D02*
X558800Y856996D01*
X584200Y856996D02*
X584200Y844804D01*
X635000Y844804D02*
X635000Y856996D01*
X609600Y856996D02*
X609600Y844804D01*
X711200Y844804D02*
X711200Y856996D01*
X736600Y856996D02*
X736600Y844804D01*
X736600Y921004D02*
X736600Y933196D01*
X711200Y933196D02*
X711200Y921004D01*
X685800Y921004D02*
X685800Y933196D01*
X660400Y933196D02*
X660400Y921004D01*
X635000Y921004D02*
X635000Y933196D01*
X609600Y933196D02*
X609600Y921004D01*
X584200Y921004D02*
X584200Y933196D01*
X558800Y933196D02*
X558800Y921004D01*
X533400Y921004D02*
X533400Y933196D01*
X508000Y933196D02*
X508000Y921004D01*
X825500Y729996D02*
X825500Y717804D01*
X850900Y717804D02*
X850900Y729996D01*
X977900Y729996D02*
X977900Y717804D01*
X1003300Y717804D02*
X1003300Y729996D01*
X876300Y729996D02*
X876300Y717804D01*
X901700Y717804D02*
X901700Y729996D01*
X952500Y729996D02*
X952500Y717804D01*
X927100Y717804D02*
X927100Y729996D01*
X1028700Y729996D02*
X1028700Y717804D01*
X1054100Y717804D02*
X1054100Y729996D01*
X1054100Y794004D02*
X1054100Y806196D01*
X1028700Y806196D02*
X1028700Y794004D01*
X1003300Y794004D02*
X1003300Y806196D01*
X977900Y806196D02*
X977900Y794004D01*
X952500Y794004D02*
X952500Y806196D01*
X927100Y806196D02*
X927100Y794004D01*
X901700Y794004D02*
X901700Y806196D01*
X876300Y806196D02*
X876300Y794004D01*
X850900Y794004D02*
X850900Y806196D01*
X825500Y806196D02*
X825500Y794004D01*
X508000Y602996D02*
X508000Y590804D01*
X533400Y590804D02*
X533400Y602996D01*
X660400Y602996D02*
X660400Y590804D01*
X685800Y590804D02*
X685800Y602996D01*
X558800Y602996D02*
X558800Y590804D01*
X584200Y590804D02*
X584200Y602996D01*
X635000Y602996D02*
X635000Y590804D01*
X609600Y590804D02*
X609600Y602996D01*
X711200Y602996D02*
X711200Y590804D01*
X736600Y590804D02*
X736600Y602996D01*
X736600Y667004D02*
X736600Y679196D01*
X711200Y679196D02*
X711200Y667004D01*
X685800Y667004D02*
X685800Y679196D01*
X660400Y679196D02*
X660400Y667004D01*
X635000Y667004D02*
X635000Y679196D01*
X609600Y679196D02*
X609600Y667004D01*
X584200Y667004D02*
X584200Y679196D01*
X558800Y679196D02*
X558800Y667004D01*
X533400Y667004D02*
X533400Y679196D01*
X508000Y679196D02*
X508000Y667004D01*
X508000Y717804D02*
X508000Y729996D01*
X533400Y729996D02*
X533400Y717804D01*
X660400Y717804D02*
X660400Y729996D01*
X685800Y729996D02*
X685800Y717804D01*
X558800Y717804D02*
X558800Y729996D01*
X584200Y729996D02*
X584200Y717804D01*
X635000Y717804D02*
X635000Y729996D01*
X609600Y729996D02*
X609600Y717804D01*
X711200Y717804D02*
X711200Y729996D01*
X736600Y729996D02*
X736600Y717804D01*
X736600Y794004D02*
X736600Y806196D01*
X711200Y806196D02*
X711200Y794004D01*
X685800Y794004D02*
X685800Y806196D01*
X660400Y806196D02*
X660400Y794004D01*
X635000Y794004D02*
X635000Y806196D01*
X609600Y806196D02*
X609600Y794004D01*
X584200Y794004D02*
X584200Y806196D01*
X558800Y806196D02*
X558800Y794004D01*
X533400Y794004D02*
X533400Y806196D01*
X508000Y806196D02*
X508000Y794004D01*
X241300Y348996D02*
X241300Y336804D01*
X266700Y336804D02*
X266700Y348996D01*
X393700Y348996D02*
X393700Y336804D01*
X419100Y336804D02*
X419100Y348996D01*
X292100Y348996D02*
X292100Y336804D01*
X317500Y336804D02*
X317500Y348996D01*
X368300Y348996D02*
X368300Y336804D01*
X342900Y336804D02*
X342900Y348996D01*
X419100Y413004D02*
X419100Y425196D01*
X393700Y425196D02*
X393700Y413004D01*
X368300Y413004D02*
X368300Y425196D01*
X342900Y425196D02*
X342900Y413004D01*
X317500Y413004D02*
X317500Y425196D01*
X292100Y425196D02*
X292100Y413004D01*
X266700Y413004D02*
X266700Y425196D01*
X241300Y425196D02*
X241300Y413004D01*
X558800Y221996D02*
X558800Y209804D01*
X584200Y209804D02*
X584200Y221996D01*
X711200Y221996D02*
X711200Y209804D01*
X736600Y209804D02*
X736600Y221996D01*
X609600Y221996D02*
X609600Y209804D01*
X635000Y209804D02*
X635000Y221996D01*
X685800Y221996D02*
X685800Y209804D01*
X660400Y209804D02*
X660400Y221996D01*
X736600Y286004D02*
X736600Y298196D01*
X711200Y298196D02*
X711200Y286004D01*
X685800Y286004D02*
X685800Y298196D01*
X660400Y298196D02*
X660400Y286004D01*
X635000Y286004D02*
X635000Y298196D01*
X609600Y298196D02*
X609600Y286004D01*
X584200Y286004D02*
X584200Y298196D01*
X558800Y298196D02*
X558800Y286004D01*
X1168400Y221996D02*
X1168400Y209804D01*
X1193800Y209804D02*
X1193800Y221996D01*
X1320800Y221996D02*
X1320800Y209804D01*
X1320800Y286004D02*
X1320800Y298196D01*
X1219200Y221996D02*
X1219200Y209804D01*
X1244600Y209804D02*
X1244600Y221996D01*
X1295400Y221996D02*
X1295400Y209804D01*
X1270000Y209804D02*
X1270000Y221996D01*
X1295400Y286004D02*
X1295400Y298196D01*
X1270000Y298196D02*
X1270000Y286004D01*
X1244600Y286004D02*
X1244600Y298196D01*
X1219200Y298196D02*
X1219200Y286004D01*
X1193800Y286004D02*
X1193800Y298196D01*
X1168400Y298196D02*
X1168400Y286004D01*
X1485900Y94996D02*
X1485900Y82804D01*
X1511300Y82804D02*
X1511300Y94996D01*
X1638300Y94996D02*
X1638300Y82804D01*
X1638300Y159004D02*
X1638300Y171196D01*
X1536700Y94996D02*
X1536700Y82804D01*
X1562100Y82804D02*
X1562100Y94996D01*
X1612900Y94996D02*
X1612900Y82804D01*
X1587500Y82804D02*
X1587500Y94996D01*
X1612900Y159004D02*
X1612900Y171196D01*
X1587500Y171196D02*
X1587500Y159004D01*
X1562100Y159004D02*
X1562100Y171196D01*
X1536700Y171196D02*
X1536700Y159004D01*
X1511300Y159004D02*
X1511300Y171196D01*
X1485900Y171196D02*
X1485900Y159004D01*
X241300Y209804D02*
X241300Y221996D01*
X266700Y221996D02*
X266700Y209804D01*
X393700Y209804D02*
X393700Y221996D01*
X419100Y221996D02*
X419100Y209804D01*
X292100Y209804D02*
X292100Y221996D01*
X317500Y221996D02*
X317500Y209804D01*
X368300Y209804D02*
X368300Y221996D01*
X342900Y221996D02*
X342900Y209804D01*
X419100Y286004D02*
X419100Y298196D01*
X393700Y298196D02*
X393700Y286004D01*
X368300Y286004D02*
X368300Y298196D01*
X342900Y298196D02*
X342900Y286004D01*
X317500Y286004D02*
X317500Y298196D01*
X292100Y298196D02*
X292100Y286004D01*
X266700Y286004D02*
X266700Y298196D01*
X241300Y298196D02*
X241300Y286004D01*
X584200Y94996D02*
X584200Y82804D01*
X609600Y82804D02*
X609600Y94996D01*
X736600Y94996D02*
X736600Y82804D01*
X736600Y159004D02*
X736600Y171196D01*
X635000Y94996D02*
X635000Y82804D01*
X660400Y82804D02*
X660400Y94996D01*
X711200Y94996D02*
X711200Y82804D01*
X685800Y82804D02*
X685800Y94996D01*
X711200Y159004D02*
X711200Y171196D01*
X685800Y171196D02*
X685800Y159004D01*
X660400Y159004D02*
X660400Y171196D01*
X635000Y171196D02*
X635000Y159004D01*
X609600Y159004D02*
X609600Y171196D01*
X584200Y171196D02*
X584200Y159004D01*
X215900Y971804D02*
X215900Y983996D01*
X241300Y983996D02*
X241300Y971804D01*
X266700Y971804D02*
X266700Y983996D01*
X292100Y983996D02*
X292100Y971804D01*
X317500Y971804D02*
X317500Y983996D01*
X342900Y983996D02*
X342900Y971804D01*
X368300Y971804D02*
X368300Y983996D01*
X393700Y983996D02*
X393700Y971804D01*
X419100Y971804D02*
X419100Y983996D01*
X215900Y1035304D02*
X215900Y1047496D01*
X241300Y1047496D02*
X241300Y1035304D01*
X266700Y1035304D02*
X266700Y1047496D01*
X292100Y1047496D02*
X292100Y1035304D01*
X317500Y1035304D02*
X317500Y1047496D01*
X342900Y1047496D02*
X342900Y1035304D01*
X368300Y1035304D02*
X368300Y1047496D01*
X393700Y1047496D02*
X393700Y1035304D01*
X419100Y1035304D02*
X419100Y1047496D01*
X190500Y856996D02*
X190500Y844804D01*
X215900Y844804D02*
X215900Y856996D01*
X342900Y856996D02*
X342900Y844804D01*
X368300Y844804D02*
X368300Y856996D01*
X241300Y856996D02*
X241300Y844804D01*
X266700Y844804D02*
X266700Y856996D01*
X317500Y856996D02*
X317500Y844804D01*
X292100Y844804D02*
X292100Y856996D01*
X393700Y856996D02*
X393700Y844804D01*
X419100Y844804D02*
X419100Y856996D01*
X419100Y921004D02*
X419100Y933196D01*
X393700Y933196D02*
X393700Y921004D01*
X368300Y921004D02*
X368300Y933196D01*
X342900Y933196D02*
X342900Y921004D01*
X317500Y921004D02*
X317500Y933196D01*
X292100Y933196D02*
X292100Y921004D01*
X266700Y921004D02*
X266700Y933196D01*
X241300Y933196D02*
X241300Y921004D01*
X215900Y921004D02*
X215900Y933196D01*
X190500Y933196D02*
X190500Y921004D01*
X190500Y729996D02*
X190500Y717804D01*
X215900Y717804D02*
X215900Y729996D01*
X342900Y729996D02*
X342900Y717804D01*
X368300Y717804D02*
X368300Y729996D01*
X241300Y729996D02*
X241300Y717804D01*
X266700Y717804D02*
X266700Y729996D01*
X317500Y729996D02*
X317500Y717804D01*
X292100Y717804D02*
X292100Y729996D01*
X393700Y729996D02*
X393700Y717804D01*
X419100Y717804D02*
X419100Y729996D01*
X419100Y794004D02*
X419100Y806196D01*
X393700Y806196D02*
X393700Y794004D01*
X368300Y794004D02*
X368300Y806196D01*
X342900Y806196D02*
X342900Y794004D01*
X317500Y794004D02*
X317500Y806196D01*
X292100Y806196D02*
X292100Y794004D01*
X266700Y794004D02*
X266700Y806196D01*
X241300Y806196D02*
X241300Y794004D01*
X215900Y794004D02*
X215900Y806196D01*
X190500Y806196D02*
X190500Y794004D01*
X1143000Y844804D02*
X1143000Y856996D01*
X1168400Y856996D02*
X1168400Y844804D01*
X1295400Y844804D02*
X1295400Y856996D01*
X1320800Y856996D02*
X1320800Y844804D01*
X1193800Y844804D02*
X1193800Y856996D01*
X1219200Y856996D02*
X1219200Y844804D01*
X1270000Y844804D02*
X1270000Y856996D01*
X1244600Y856996D02*
X1244600Y844804D01*
X1320800Y921004D02*
X1320800Y933196D01*
X1295400Y933196D02*
X1295400Y921004D01*
X1270000Y921004D02*
X1270000Y933196D01*
X1244600Y933196D02*
X1244600Y921004D01*
X1219200Y921004D02*
X1219200Y933196D01*
X1193800Y933196D02*
X1193800Y921004D01*
X1168400Y921004D02*
X1168400Y933196D01*
X1143000Y933196D02*
X1143000Y921004D01*
X1143000Y475996D02*
X1143000Y463804D01*
X1168400Y463804D02*
X1168400Y475996D01*
X1295400Y475996D02*
X1295400Y463804D01*
X1320800Y463804D02*
X1320800Y475996D01*
X1193800Y475996D02*
X1193800Y463804D01*
X1219200Y463804D02*
X1219200Y475996D01*
X1270000Y475996D02*
X1270000Y463804D01*
X1244600Y463804D02*
X1244600Y475996D01*
X1320800Y540004D02*
X1320800Y552196D01*
X1295400Y552196D02*
X1295400Y540004D01*
X1270000Y540004D02*
X1270000Y552196D01*
X1244600Y552196D02*
X1244600Y540004D01*
X1219200Y540004D02*
X1219200Y552196D01*
X1193800Y552196D02*
X1193800Y540004D01*
X1168400Y540004D02*
X1168400Y552196D01*
X1143000Y552196D02*
X1143000Y540004D01*
X1143000Y971804D02*
X1143000Y983996D01*
X1168400Y983996D02*
X1168400Y971804D01*
X1295400Y971804D02*
X1295400Y983996D01*
X1320800Y983996D02*
X1320800Y971804D01*
X1193800Y971804D02*
X1193800Y983996D01*
X1219200Y983996D02*
X1219200Y971804D01*
X1270000Y971804D02*
X1270000Y983996D01*
X1244600Y983996D02*
X1244600Y971804D01*
X1320800Y1048004D02*
X1320800Y1060196D01*
X1295400Y1060196D02*
X1295400Y1048004D01*
X1270000Y1048004D02*
X1270000Y1060196D01*
X1244600Y1060196D02*
X1244600Y1048004D01*
X1219200Y1048004D02*
X1219200Y1060196D01*
X1193800Y1060196D02*
X1193800Y1048004D01*
X1168400Y1048004D02*
X1168400Y1060196D01*
X1143000Y1060196D02*
X1143000Y1048004D01*
X1460500Y602996D02*
X1460500Y590804D01*
X1485900Y590804D02*
X1485900Y602996D01*
X1612900Y602996D02*
X1612900Y590804D01*
X1638300Y590804D02*
X1638300Y602996D01*
X1511300Y602996D02*
X1511300Y590804D01*
X1536700Y590804D02*
X1536700Y602996D01*
X1587500Y602996D02*
X1587500Y590804D01*
X1562100Y590804D02*
X1562100Y602996D01*
X1638300Y667004D02*
X1638300Y679196D01*
X1612900Y679196D02*
X1612900Y667004D01*
X1587500Y667004D02*
X1587500Y679196D01*
X1562100Y679196D02*
X1562100Y667004D01*
X1536700Y667004D02*
X1536700Y679196D01*
X1511300Y679196D02*
X1511300Y667004D01*
X1485900Y667004D02*
X1485900Y679196D01*
X1460500Y679196D02*
X1460500Y667004D01*
X1409700Y844804D02*
X1409700Y856996D01*
X1435100Y856996D02*
X1435100Y844804D01*
X1562100Y844804D02*
X1562100Y856996D01*
X1587500Y856996D02*
X1587500Y844804D01*
X1460500Y844804D02*
X1460500Y856996D01*
X1485900Y856996D02*
X1485900Y844804D01*
X1536700Y844804D02*
X1536700Y856996D01*
X1511300Y856996D02*
X1511300Y844804D01*
X1612900Y844804D02*
X1612900Y856996D01*
X1638300Y856996D02*
X1638300Y844804D01*
X1638300Y921004D02*
X1638300Y933196D01*
X1612900Y933196D02*
X1612900Y921004D01*
X1587500Y921004D02*
X1587500Y933196D01*
X1562100Y933196D02*
X1562100Y921004D01*
X1536700Y921004D02*
X1536700Y933196D01*
X1511300Y933196D02*
X1511300Y921004D01*
X1485900Y921004D02*
X1485900Y933196D01*
X1460500Y933196D02*
X1460500Y921004D01*
X1435100Y921004D02*
X1435100Y933196D01*
X1409700Y933196D02*
X1409700Y921004D01*
X1460500Y971804D02*
X1460500Y983996D01*
X1485900Y983996D02*
X1485900Y971804D01*
X1612900Y971804D02*
X1612900Y983996D01*
X1638300Y983996D02*
X1638300Y971804D01*
X1511300Y971804D02*
X1511300Y983996D01*
X1536700Y983996D02*
X1536700Y971804D01*
X1587500Y971804D02*
X1587500Y983996D01*
X1562100Y983996D02*
X1562100Y971804D01*
X1638300Y1048004D02*
X1638300Y1060196D01*
X1612900Y1060196D02*
X1612900Y1048004D01*
X1587500Y1048004D02*
X1587500Y1060196D01*
X1562100Y1060196D02*
X1562100Y1048004D01*
X1536700Y1048004D02*
X1536700Y1060196D01*
X1511300Y1060196D02*
X1511300Y1048004D01*
X1485900Y1048004D02*
X1485900Y1060196D01*
X1460500Y1060196D02*
X1460500Y1048004D01*
D11*
X876300Y495300D03*
X876300Y520700D03*
X1143000Y114300D03*
X1143000Y139700D03*
X215900Y622300D03*
X215900Y647700D03*
X1384300Y876300D03*
X1384300Y901700D03*
X1117600Y495300D03*
X1117600Y520700D03*
X1143000Y368300D03*
X1143000Y393700D03*
X241300Y114300D03*
X241300Y139700D03*
X482600Y495300D03*
X482600Y520700D03*
X215900Y241300D03*
X215900Y266700D03*
X1117600Y876300D03*
X1117600Y901700D03*
X800100Y749300D03*
X800100Y774700D03*
X1460500Y368300D03*
X1460500Y393700D03*
X1435100Y1003300D03*
X1435100Y1028700D03*
X1117600Y1003300D03*
X1117600Y1028700D03*
X1460500Y241300D03*
X1460500Y266700D03*
X482600Y368300D03*
X482600Y393700D03*
X215900Y368300D03*
X215900Y393700D03*
X482600Y876300D03*
X482600Y901700D03*
X876300Y1003300D03*
X876300Y1028700D03*
X1143000Y241300D03*
X1143000Y266700D03*
X876300Y876300D03*
X876300Y901700D03*
X1460500Y114300D03*
X1460500Y139700D03*
X533400Y241300D03*
X533400Y266700D03*
X165100Y749300D03*
X165100Y774700D03*
X165100Y876300D03*
X165100Y901700D03*
X1384300Y749300D03*
X1384300Y774700D03*
X1435100Y622300D03*
X1435100Y647700D03*
X1143000Y749300D03*
X1143000Y774700D03*
X1143000Y622300D03*
X1143000Y647700D03*
X1435100Y495300D03*
X1435100Y520700D03*
X876300Y241300D03*
X876300Y266700D03*
X876300Y114300D03*
X876300Y139700D03*
X558800Y114300D03*
X558800Y139700D03*
X482600Y990600D03*
X482600Y1016000D03*
X876300Y622300D03*
X876300Y647700D03*
X165100Y495300D03*
X165100Y520700D03*
X800100Y368300D03*
X800100Y393700D03*
D10*
X901700Y221996D02*
X901700Y209804D01*
X927100Y209804D02*
X927100Y221996D01*
X1054100Y221996D02*
X1054100Y209804D01*
X1054100Y286004D02*
X1054100Y298196D01*
X952500Y221996D02*
X952500Y209804D01*
X977900Y209804D02*
X977900Y221996D01*
X1028700Y221996D02*
X1028700Y209804D01*
X1003300Y209804D02*
X1003300Y221996D01*
X1028700Y286004D02*
X1028700Y298196D01*
X1003300Y298196D02*
X1003300Y286004D01*
X977900Y286004D02*
X977900Y298196D01*
X952500Y298196D02*
X952500Y286004D01*
X927100Y286004D02*
X927100Y298196D01*
X901700Y298196D02*
X901700Y286004D01*
X901700Y94996D02*
X901700Y82804D01*
X927100Y82804D02*
X927100Y94996D01*
X1054100Y94996D02*
X1054100Y82804D01*
X1054100Y159004D02*
X1054100Y171196D01*
X952500Y94996D02*
X952500Y82804D01*
X977900Y82804D02*
X977900Y94996D01*
X1028700Y94996D02*
X1028700Y82804D01*
X1003300Y82804D02*
X1003300Y94996D01*
X1028700Y159004D02*
X1028700Y171196D01*
X1003300Y171196D02*
X1003300Y159004D01*
X977900Y159004D02*
X977900Y171196D01*
X952500Y171196D02*
X952500Y159004D01*
X927100Y159004D02*
X927100Y171196D01*
X901700Y171196D02*
X901700Y159004D01*
X901700Y844804D02*
X901700Y856996D01*
X927100Y856996D02*
X927100Y844804D01*
X1054100Y844804D02*
X1054100Y856996D01*
X1054100Y921004D02*
X1054100Y933196D01*
X952500Y856996D02*
X952500Y844804D01*
X977900Y844804D02*
X977900Y856996D01*
X1028700Y856996D02*
X1028700Y844804D01*
X1003300Y844804D02*
X1003300Y856996D01*
X1028700Y921004D02*
X1028700Y933196D01*
X1003300Y933196D02*
X1003300Y921004D01*
X977900Y921004D02*
X977900Y933196D01*
X952500Y933196D02*
X952500Y921004D01*
X927100Y921004D02*
X927100Y933196D01*
X901700Y933196D02*
X901700Y921004D01*
X508000Y348996D02*
X508000Y336804D01*
X533400Y336804D02*
X533400Y348996D01*
X660400Y348996D02*
X660400Y336804D01*
X685800Y336804D02*
X685800Y348996D01*
X558800Y348996D02*
X558800Y336804D01*
X584200Y336804D02*
X584200Y348996D01*
X635000Y348996D02*
X635000Y336804D01*
X609600Y336804D02*
X609600Y348996D01*
X711200Y348996D02*
X711200Y336804D01*
X736600Y336804D02*
X736600Y348996D01*
X736600Y413004D02*
X736600Y425196D01*
X711200Y425196D02*
X711200Y413004D01*
X685800Y413004D02*
X685800Y425196D01*
X660400Y425196D02*
X660400Y413004D01*
X635000Y413004D02*
X635000Y425196D01*
X609600Y425196D02*
X609600Y413004D01*
X584200Y413004D02*
X584200Y425196D01*
X558800Y425196D02*
X558800Y413004D01*
X533400Y413004D02*
X533400Y425196D01*
X508000Y425196D02*
X508000Y413004D01*
X825500Y348996D02*
X825500Y336804D01*
X850900Y336804D02*
X850900Y348996D01*
X977900Y348996D02*
X977900Y336804D01*
X1003300Y336804D02*
X1003300Y348996D01*
X876300Y348996D02*
X876300Y336804D01*
X901700Y336804D02*
X901700Y348996D01*
X952500Y348996D02*
X952500Y336804D01*
X927100Y336804D02*
X927100Y348996D01*
X1028700Y348996D02*
X1028700Y336804D01*
X1054100Y336804D02*
X1054100Y348996D01*
X1054100Y413004D02*
X1054100Y425196D01*
X1028700Y425196D02*
X1028700Y413004D01*
X1003300Y413004D02*
X1003300Y425196D01*
X977900Y425196D02*
X977900Y413004D01*
X952500Y413004D02*
X952500Y425196D01*
X927100Y425196D02*
X927100Y413004D01*
X901700Y413004D02*
X901700Y425196D01*
X876300Y425196D02*
X876300Y413004D01*
X850900Y413004D02*
X850900Y425196D01*
X825500Y425196D02*
X825500Y413004D01*
X508000Y959104D02*
X508000Y971296D01*
X533400Y971296D02*
X533400Y959104D01*
X660400Y959104D02*
X660400Y971296D01*
X685800Y971296D02*
X685800Y959104D01*
X558800Y959104D02*
X558800Y971296D01*
X584200Y971296D02*
X584200Y959104D01*
X635000Y959104D02*
X635000Y971296D01*
X609600Y971296D02*
X609600Y959104D01*
X711200Y959104D02*
X711200Y971296D01*
X736600Y971296D02*
X736600Y959104D01*
X736600Y1035304D02*
X736600Y1047496D01*
X711200Y1047496D02*
X711200Y1035304D01*
X685800Y1035304D02*
X685800Y1047496D01*
X660400Y1047496D02*
X660400Y1035304D01*
X635000Y1035304D02*
X635000Y1047496D01*
X609600Y1047496D02*
X609600Y1035304D01*
X584200Y1035304D02*
X584200Y1047496D01*
X558800Y1047496D02*
X558800Y1035304D01*
X533400Y1035304D02*
X533400Y1047496D01*
X508000Y1047496D02*
X508000Y1035304D01*
X901700Y602996D02*
X901700Y590804D01*
X927100Y590804D02*
X927100Y602996D01*
X1054100Y602996D02*
X1054100Y590804D01*
X1054100Y667004D02*
X1054100Y679196D01*
X952500Y602996D02*
X952500Y590804D01*
X977900Y590804D02*
X977900Y602996D01*
X1028700Y602996D02*
X1028700Y590804D01*
X1003300Y590804D02*
X1003300Y602996D01*
X1028700Y667004D02*
X1028700Y679196D01*
X1003300Y679196D02*
X1003300Y667004D01*
X977900Y667004D02*
X977900Y679196D01*
X952500Y679196D02*
X952500Y667004D01*
X927100Y667004D02*
X927100Y679196D01*
X901700Y679196D02*
X901700Y667004D01*
X901700Y475996D02*
X901700Y463804D01*
X927100Y463804D02*
X927100Y475996D01*
X1054100Y475996D02*
X1054100Y463804D01*
X1054100Y540004D02*
X1054100Y552196D01*
X952500Y475996D02*
X952500Y463804D01*
X977900Y463804D02*
X977900Y475996D01*
X1028700Y475996D02*
X1028700Y463804D01*
X1003300Y463804D02*
X1003300Y475996D01*
X1028700Y540004D02*
X1028700Y552196D01*
X1003300Y552196D02*
X1003300Y540004D01*
X977900Y540004D02*
X977900Y552196D01*
X952500Y552196D02*
X952500Y540004D01*
X927100Y540004D02*
X927100Y552196D01*
X901700Y552196D02*
X901700Y540004D01*
X901700Y971804D02*
X901700Y983996D01*
X927100Y983996D02*
X927100Y971804D01*
X1054100Y971804D02*
X1054100Y983996D01*
X1054100Y1048004D02*
X1054100Y1060196D01*
X952500Y983996D02*
X952500Y971804D01*
X977900Y971804D02*
X977900Y983996D01*
X1028700Y983996D02*
X1028700Y971804D01*
X1003300Y971804D02*
X1003300Y983996D01*
X1028700Y1048004D02*
X1028700Y1060196D01*
X1003300Y1060196D02*
X1003300Y1048004D01*
X977900Y1048004D02*
X977900Y1060196D01*
X952500Y1060196D02*
X952500Y1048004D01*
X927100Y1048004D02*
X927100Y1060196D01*
X901700Y1060196D02*
X901700Y1048004D01*
X1485900Y221996D02*
X1485900Y209804D01*
X1511300Y209804D02*
X1511300Y221996D01*
X1638300Y221996D02*
X1638300Y209804D01*
X1638300Y286004D02*
X1638300Y298196D01*
X1536700Y221996D02*
X1536700Y209804D01*
X1562100Y209804D02*
X1562100Y221996D01*
X1612900Y221996D02*
X1612900Y209804D01*
X1587500Y209804D02*
X1587500Y221996D01*
X1612900Y286004D02*
X1612900Y298196D01*
X1587500Y298196D02*
X1587500Y286004D01*
X1562100Y286004D02*
X1562100Y298196D01*
X1536700Y298196D02*
X1536700Y286004D01*
X1511300Y286004D02*
X1511300Y298196D01*
X1485900Y298196D02*
X1485900Y286004D01*
X1485900Y336804D02*
X1485900Y348996D01*
X1511300Y348996D02*
X1511300Y336804D01*
X1638300Y336804D02*
X1638300Y348996D01*
X1638300Y413004D02*
X1638300Y425196D01*
X1536700Y348996D02*
X1536700Y336804D01*
X1562100Y336804D02*
X1562100Y348996D01*
X1612900Y348996D02*
X1612900Y336804D01*
X1587500Y336804D02*
X1587500Y348996D01*
X1612900Y413004D02*
X1612900Y425196D01*
X1587500Y425196D02*
X1587500Y413004D01*
X1562100Y413004D02*
X1562100Y425196D01*
X1536700Y425196D02*
X1536700Y413004D01*
X1511300Y413004D02*
X1511300Y425196D01*
X1485900Y425196D02*
X1485900Y413004D01*
X1168400Y348996D02*
X1168400Y336804D01*
X1193800Y336804D02*
X1193800Y348996D01*
X1320800Y348996D02*
X1320800Y336804D01*
X1320800Y413004D02*
X1320800Y425196D01*
X1219200Y348996D02*
X1219200Y336804D01*
X1244600Y336804D02*
X1244600Y348996D01*
X1295400Y348996D02*
X1295400Y336804D01*
X1270000Y336804D02*
X1270000Y348996D01*
X1295400Y413004D02*
X1295400Y425196D01*
X1270000Y425196D02*
X1270000Y413004D01*
X1244600Y413004D02*
X1244600Y425196D01*
X1219200Y425196D02*
X1219200Y413004D01*
X1193800Y413004D02*
X1193800Y425196D01*
X1168400Y425196D02*
X1168400Y413004D01*
X1168400Y94996D02*
X1168400Y82804D01*
X1193800Y82804D02*
X1193800Y94996D01*
X1320800Y94996D02*
X1320800Y82804D01*
X1320800Y159004D02*
X1320800Y171196D01*
X1219200Y94996D02*
X1219200Y82804D01*
X1244600Y82804D02*
X1244600Y94996D01*
X1295400Y94996D02*
X1295400Y82804D01*
X1270000Y82804D02*
X1270000Y94996D01*
X1295400Y159004D02*
X1295400Y171196D01*
X1270000Y171196D02*
X1270000Y159004D01*
X1244600Y159004D02*
X1244600Y171196D01*
X1219200Y171196D02*
X1219200Y159004D01*
X1193800Y159004D02*
X1193800Y171196D01*
X1168400Y171196D02*
X1168400Y159004D01*
X1460500Y463804D02*
X1460500Y475996D01*
X1485900Y475996D02*
X1485900Y463804D01*
X1612900Y463804D02*
X1612900Y475996D01*
X1638300Y475996D02*
X1638300Y463804D01*
X1511300Y463804D02*
X1511300Y475996D01*
X1536700Y475996D02*
X1536700Y463804D01*
X1587500Y463804D02*
X1587500Y475996D01*
X1562100Y475996D02*
X1562100Y463804D01*
X1638300Y540004D02*
X1638300Y552196D01*
X1612900Y552196D02*
X1612900Y540004D01*
X1587500Y540004D02*
X1587500Y552196D01*
X1562100Y552196D02*
X1562100Y540004D01*
X1536700Y540004D02*
X1536700Y552196D01*
X1511300Y552196D02*
X1511300Y540004D01*
X1485900Y540004D02*
X1485900Y552196D01*
X1460500Y552196D02*
X1460500Y540004D01*
D11*
X482600Y749300D03*
X482600Y774700D03*
X482600Y622300D03*
X482600Y647700D03*
D12*
X1714500Y635000D03*
X1714500Y609600D03*
X1714500Y584200D03*
X1714500Y558800D03*
X1714500Y533400D03*
X1739900Y635000D03*
X1739900Y609600D03*
X1739900Y584200D03*
X1739900Y558800D03*
X1739900Y533400D03*
D13*
X50800Y177800D03*
X50800Y203200D03*
X50800Y228600D03*
X50800Y254000D03*
X50800Y279400D03*
X50800Y304800D03*
X50800Y330200D03*
X50800Y355600D03*
X50800Y381000D03*
X50800Y406400D03*
X50800Y431800D03*
X50800Y457200D03*
X50800Y482600D03*
X50800Y508000D03*
X50800Y533400D03*
X50800Y558800D03*
X76200Y177800D03*
X76200Y203200D03*
X76200Y228600D03*
X76200Y254000D03*
X76200Y279400D03*
X76200Y304800D03*
X76200Y330200D03*
X76200Y355600D03*
X76200Y381000D03*
X76200Y406400D03*
X76200Y431800D03*
X76200Y457200D03*
X76200Y482600D03*
X76200Y508000D03*
X76200Y533400D03*
X76200Y558800D03*
X101600Y177800D03*
X101600Y203200D03*
X101600Y228600D03*
X101600Y254000D03*
X101600Y279400D03*
X101600Y304800D03*
X101600Y330200D03*
X101600Y355600D03*
X101600Y381000D03*
X101600Y406400D03*
X101600Y431800D03*
X101600Y457200D03*
X101600Y482600D03*
X101600Y508000D03*
X101600Y533400D03*
X101600Y558800D03*
X50800Y584200D03*
X50800Y609600D03*
X50800Y635000D03*
X50800Y660400D03*
X50800Y685800D03*
X50800Y711200D03*
X50800Y736600D03*
X50800Y762000D03*
X50800Y787400D03*
X50800Y812800D03*
X50800Y838200D03*
X50800Y863600D03*
X50800Y889000D03*
X50800Y914400D03*
X50800Y939800D03*
X50800Y965200D03*
X76200Y584200D03*
X76200Y609600D03*
X76200Y635000D03*
X76200Y660400D03*
X76200Y685800D03*
X76200Y711200D03*
X76200Y736600D03*
X76200Y762000D03*
X76200Y787400D03*
X76200Y812800D03*
X76200Y838200D03*
X76200Y863600D03*
X76200Y889000D03*
X76200Y914400D03*
X76200Y939800D03*
X76200Y965200D03*
X101600Y584200D03*
X101600Y609600D03*
X101600Y635000D03*
X101600Y660400D03*
X101600Y685800D03*
X101600Y711200D03*
X101600Y736600D03*
X101600Y762000D03*
X101600Y787400D03*
X101600Y812800D03*
X101600Y838200D03*
X101600Y863600D03*
X101600Y889000D03*
X101600Y914400D03*
X101600Y939800D03*
X101600Y965200D03*
D14*
X1752600Y38100D03*
X1727200Y38100D03*
D15*
X1549400Y38100D03*
X1651000Y38100D03*
D16*
X101600Y55880D02*
X101600Y71120D01*
X127000Y71120D02*
X127000Y55880D01*
X152400Y55880D02*
X152400Y71120D01*
X1389380Y355600D02*
X1404620Y355600D01*
X1404620Y381000D02*
X1389380Y381000D01*
X1389380Y406400D02*
X1404620Y406400D01*
D17*
X536575Y466725D02*
X533400Y469900D01*
X536575Y466725D02*
X536575Y457200D01*
X558800Y434975D01*
X558800Y419100D01*
X1460500Y800100D02*
X1470025Y809625D01*
X1470025Y917575D01*
X1460500Y927100D01*
X542925Y860425D02*
X533400Y850900D01*
X542925Y860425D02*
X542925Y1019175D01*
X558800Y1035050D01*
X558800Y1041400D01*
X523875Y708025D02*
X536575Y695325D01*
X523875Y708025D02*
X523875Y841375D01*
X533400Y850900D01*
X523875Y479425D02*
X533400Y469900D01*
X523875Y479425D02*
X523875Y708025D01*
D18*
X536575Y695325D03*
D17*
X1511300Y800100D02*
X1520825Y809625D01*
X1520825Y917575D01*
X1511300Y927100D01*
X584200Y469900D02*
X574675Y479425D01*
X574675Y695325D02*
X574675Y841375D01*
X574675Y695325D02*
X574675Y479425D01*
X574675Y841375D02*
X584200Y850900D01*
X587375Y695325D02*
X574675Y695325D01*
X549275Y981075D02*
X609600Y1041400D01*
X549275Y981075D02*
X549275Y952500D01*
X558800Y942975D01*
X571500Y942975D01*
X571500Y911225D01*
X584200Y898525D01*
X584200Y850900D01*
D18*
X587375Y695325D03*
D17*
X1562100Y800100D02*
X1571625Y809625D01*
X1571625Y917575D01*
X1562100Y927100D01*
X635000Y850900D02*
X625475Y841375D01*
X625475Y695325D02*
X625475Y479425D01*
X625475Y695325D02*
X625475Y841375D01*
X625475Y479425D02*
X635000Y469900D01*
X638175Y695325D02*
X625475Y695325D01*
X660400Y987425D02*
X660400Y1041400D01*
X660400Y987425D02*
X650875Y977900D01*
X650875Y866775D01*
D18*
X638175Y695325D03*
X650875Y866775D03*
D17*
X1612900Y800100D02*
X1622425Y809625D01*
X1622425Y917575D01*
X1612900Y927100D01*
X701675Y866775D02*
X685800Y850900D01*
X701675Y866775D02*
X701675Y1031875D01*
X711200Y1041400D01*
X676275Y708025D02*
X688975Y695325D01*
X676275Y708025D02*
X676275Y841375D01*
X685800Y850900D01*
X676275Y479425D02*
X685800Y469900D01*
X676275Y479425D02*
X676275Y708025D01*
D18*
X688975Y695325D03*
D17*
X1603375Y733425D02*
X1612900Y723900D01*
X1603375Y733425D02*
X1603375Y841375D01*
X1612900Y850900D01*
X736600Y939800D02*
X711200Y965200D01*
X736600Y939800D02*
X736600Y927100D01*
X746125Y917575D01*
X746125Y555625D01*
X736600Y546100D01*
X720725Y352425D02*
X711200Y342900D01*
X720725Y352425D02*
X720725Y530225D01*
D18*
X720725Y530225D03*
D17*
X1552575Y733425D02*
X1562100Y723900D01*
X1552575Y733425D02*
X1552575Y841375D01*
X1562100Y850900D01*
X685800Y927100D02*
X660400Y952500D01*
X660400Y965200D01*
X669925Y352425D02*
X660400Y342900D01*
X669925Y352425D02*
X669925Y530225D01*
D18*
X669925Y530225D03*
D17*
X1501775Y733425D02*
X1511300Y723900D01*
X1501775Y733425D02*
X1501775Y841375D01*
X1511300Y850900D01*
X635000Y939800D02*
X609600Y965200D01*
X635000Y939800D02*
X635000Y927100D01*
X644525Y377825D02*
X609600Y342900D01*
X644525Y377825D02*
X644525Y536575D01*
X635000Y546100D01*
X644525Y917575D02*
X635000Y927100D01*
X644525Y917575D02*
X644525Y536575D01*
X1450975Y733425D02*
X1460500Y723900D01*
X1450975Y733425D02*
X1450975Y841375D01*
X1460500Y850900D01*
X584200Y939800D02*
X558800Y965200D01*
X584200Y939800D02*
X584200Y927100D01*
X568325Y352425D02*
X558800Y342900D01*
X568325Y352425D02*
X568325Y393700D01*
X574675Y400050D01*
X574675Y438150D01*
X593725Y457200D01*
X593725Y536575D01*
X584200Y546100D01*
X593725Y917575D02*
X584200Y927100D01*
X593725Y917575D02*
X593725Y536575D01*
X425450Y425450D02*
X419100Y419100D01*
X425450Y425450D02*
X425450Y447675D01*
X454025Y476250D01*
X498475Y476250D01*
X498475Y457200D01*
X520700Y434975D01*
X549275Y434975D01*
X549275Y406400D01*
X552450Y403225D01*
X568325Y403225D01*
X568325Y438150D01*
X542925Y463550D01*
X542925Y714375D01*
X533400Y723900D01*
X885825Y231775D02*
X901700Y215900D01*
X885825Y231775D02*
X885825Y561975D01*
X901700Y577850D01*
X901700Y596900D01*
X850900Y723900D02*
X892175Y765175D01*
X892175Y841375D01*
X901700Y850900D01*
X1225550Y946150D02*
X1235075Y936625D01*
X1235075Y860425D01*
X1244600Y850900D01*
X1673225Y676275D02*
X1714500Y635000D01*
X1673225Y676275D02*
X1673225Y1095375D01*
X1666875Y1101725D01*
X1158875Y1101725D01*
X1158875Y914400D01*
X1162050Y911225D01*
X1177925Y911225D01*
X1177925Y955675D01*
X1193800Y971550D01*
X1193800Y977900D01*
X901700Y596900D02*
X850900Y596900D01*
X850900Y723900D01*
D18*
X1225550Y946150D03*
D17*
X368300Y419100D02*
X352425Y434975D01*
X352425Y628650D01*
X1190625Y854075D02*
X1193800Y850900D01*
X1190625Y854075D02*
X1190625Y908050D01*
X1184275Y914400D01*
X1184275Y942975D01*
X1219200Y977900D01*
X968375Y225425D02*
X977900Y215900D01*
X968375Y225425D02*
X968375Y587375D01*
X977900Y596900D01*
X968375Y841375D02*
X977900Y850900D01*
X968375Y765175D02*
X968375Y587375D01*
X968375Y765175D02*
X968375Y841375D01*
D18*
X352425Y628650D03*
X968375Y765175D03*
D17*
X1244600Y927100D02*
X1270000Y952500D01*
X1270000Y977900D01*
X942975Y301625D02*
X952500Y292100D01*
X942975Y301625D02*
X942975Y663575D01*
X952500Y673100D01*
X942975Y917575D02*
X952500Y927100D01*
X942975Y917575D02*
X942975Y663575D01*
X752475Y292100D02*
X736600Y292100D01*
X752475Y292100D02*
X885825Y158750D01*
X885825Y104775D01*
X901700Y88900D01*
X727075Y790575D02*
X736600Y800100D01*
X727075Y454025D02*
X727075Y301625D01*
X727075Y454025D02*
X727075Y790575D01*
X727075Y301625D02*
X736600Y292100D01*
X952500Y546100D02*
X962025Y555625D01*
X962025Y1016000D02*
X962025Y1044575D01*
X962025Y1016000D02*
X962025Y555625D01*
X962025Y1044575D02*
X952500Y1054100D01*
X1031875Y803275D02*
X1028700Y800100D01*
X1031875Y803275D02*
X1031875Y831850D01*
X1038225Y838200D01*
X1038225Y939800D01*
X1016000Y962025D01*
X993775Y962025D01*
X993775Y984250D01*
X962025Y1016000D01*
X1666875Y631825D02*
X1714500Y584200D01*
X1666875Y631825D02*
X1666875Y1092200D01*
X1663700Y1095375D01*
X1184275Y1095375D01*
X1184275Y1041400D01*
X1225550Y1000125D01*
X1295400Y1000125D01*
X1295400Y977900D01*
X1511300Y596900D02*
X1546225Y561975D01*
X752475Y454025D02*
X727075Y454025D01*
X752475Y454025D02*
X752475Y457200D01*
D18*
X1546225Y561975D03*
X752475Y457200D03*
D17*
X911225Y866775D02*
X911225Y968375D01*
X911225Y866775D02*
X911225Y838200D01*
X911225Y968375D02*
X901700Y977900D01*
X695325Y790575D02*
X685800Y800100D01*
X695325Y450850D02*
X695325Y301625D01*
X695325Y450850D02*
X695325Y790575D01*
X695325Y301625D02*
X685800Y292100D01*
X695325Y450850D02*
X714375Y450850D01*
X860425Y866775D02*
X911225Y866775D01*
X860425Y866775D02*
X860425Y755650D01*
X841375Y736600D01*
X841375Y450850D01*
D18*
X911225Y838200D03*
X714375Y450850D03*
X841375Y450850D03*
D17*
X1000125Y146050D02*
X1044575Y146050D01*
X1044575Y393700D01*
X1054100Y403225D01*
X1063625Y403225D01*
X1063625Y511175D01*
X1028700Y546100D01*
X1562100Y1054100D02*
X1565275Y1050925D01*
X1565275Y996950D01*
X1577975Y984250D01*
X1577975Y606425D01*
X1587500Y596900D01*
X1028700Y1054100D02*
X1012825Y1038225D01*
X968375Y1038225D01*
X968375Y1060450D01*
X958850Y1069975D01*
X850900Y1069975D01*
X850900Y800100D01*
X1038225Y555625D02*
X1028700Y546100D01*
X1038225Y555625D02*
X1038225Y828675D01*
X1044575Y835025D01*
X1044575Y1006475D01*
X1012825Y1038225D01*
D18*
X1000125Y146050D03*
D17*
X927100Y215900D02*
X923925Y219075D01*
X923925Y273050D01*
X917575Y279400D01*
X917575Y587375D01*
X927100Y596900D01*
X923925Y847725D02*
X927100Y850900D01*
X923925Y847725D02*
X923925Y819150D01*
X917575Y812800D01*
X917575Y587375D01*
X307975Y104775D02*
X292100Y88900D01*
X307975Y104775D02*
X307975Y355600D01*
X320675Y368300D01*
X241300Y927100D02*
X250825Y936625D01*
X250825Y1031875D01*
X241300Y1041400D01*
X403225Y428625D02*
X393700Y419100D01*
X403225Y428625D02*
X403225Y482600D01*
X530225Y565150D02*
X533400Y568325D01*
X533400Y596900D01*
D18*
X320675Y368300D03*
X403225Y482600D03*
X530225Y565150D03*
D17*
X317500Y88900D02*
X301625Y73025D01*
X282575Y73025D01*
X282575Y133350D01*
X301625Y152400D01*
X301625Y377825D01*
X307975Y384175D01*
X276225Y1031875D02*
X266700Y1041400D01*
X276225Y1031875D02*
X276225Y936625D01*
X266700Y927100D01*
X333375Y428625D02*
X342900Y419100D01*
X333375Y428625D02*
X333375Y625475D01*
X301625Y657225D01*
X301625Y768350D01*
X276225Y793750D01*
X276225Y936625D01*
X993775Y225425D02*
X1003300Y215900D01*
X993775Y225425D02*
X993775Y587375D01*
X1003300Y596900D01*
X993775Y841375D02*
X1003300Y850900D01*
X993775Y841375D02*
X993775Y587375D01*
D18*
X307975Y384175D03*
D17*
X333375Y98425D02*
X342900Y88900D01*
X333375Y98425D02*
X333375Y396875D01*
X317500Y412750D01*
X317500Y419100D01*
X292100Y927100D02*
X301625Y936625D01*
X301625Y1031875D01*
X292100Y1041400D01*
X1012825Y301625D02*
X1003300Y292100D01*
X1012825Y301625D02*
X1012825Y663575D01*
X1003300Y673100D01*
X1012825Y917575D02*
X1003300Y927100D01*
X1012825Y917575D02*
X1012825Y663575D01*
X317500Y419100D02*
X276225Y460375D01*
X276225Y488950D01*
X225425Y539750D01*
X225425Y635000D01*
X257175Y666750D01*
X257175Y692150D01*
X282575Y717550D01*
X282575Y774700D01*
X304800Y796925D02*
X301625Y800100D01*
X301625Y936625D01*
D18*
X282575Y774700D03*
X304800Y796925D03*
D17*
X368300Y88900D02*
X352425Y73025D01*
X327025Y73025D01*
X327025Y374650D01*
X298450Y403225D01*
X266700Y403225D01*
X266700Y419100D01*
X317500Y927100D02*
X327025Y936625D01*
X327025Y1031875D01*
X317500Y1041400D01*
X936625Y301625D02*
X927100Y292100D01*
X936625Y301625D02*
X936625Y663575D01*
X927100Y673100D01*
X936625Y917575D02*
X927100Y927100D01*
X936625Y917575D02*
X936625Y663575D01*
X371475Y92075D02*
X368300Y88900D01*
X371475Y92075D02*
X371475Y146050D01*
X384175Y158750D01*
X384175Y755650D01*
X371475Y768350D02*
X327025Y768350D01*
X327025Y936625D01*
D18*
X384175Y755650D03*
X371475Y768350D03*
D17*
X342900Y927100D02*
X352425Y936625D01*
X352425Y1031875D01*
X342900Y1041400D01*
X923925Y92075D02*
X927100Y88900D01*
X923925Y92075D02*
X923925Y146050D01*
X911225Y158750D01*
X911225Y695325D02*
X911225Y828675D01*
X911225Y695325D02*
X911225Y561975D01*
X911225Y184150D01*
X911225Y158750D01*
X911225Y828675D02*
X917575Y835025D01*
X917575Y1044575D01*
X927100Y1054100D01*
X911225Y695325D02*
X882650Y695325D01*
X790575Y304800D02*
X911225Y184150D01*
D18*
X882650Y695325D03*
X911225Y561975D03*
X790575Y304800D03*
D17*
X949325Y447675D02*
X962025Y434975D01*
X962025Y130175D01*
X1003300Y88900D01*
X377825Y174625D02*
X368300Y165100D01*
X377825Y174625D02*
X377825Y917575D01*
X368300Y927100D01*
X377825Y1031875D02*
X368300Y1041400D01*
X377825Y1031875D02*
X377825Y917575D01*
D18*
X949325Y447675D03*
D17*
X403225Y936625D02*
X393700Y927100D01*
X403225Y936625D02*
X403225Y1031875D01*
X393700Y1041400D01*
X987425Y482600D02*
X987425Y187325D01*
X1003300Y171450D01*
X1003300Y165100D01*
X1279525Y863600D02*
X1260475Y882650D01*
X1279525Y863600D02*
X1279525Y688975D01*
X1295400Y673100D01*
D18*
X987425Y482600D03*
X1260475Y882650D03*
D17*
X428625Y936625D02*
X419100Y927100D01*
X428625Y936625D02*
X428625Y1031875D01*
X419100Y1041400D01*
X434975Y762000D02*
X492125Y762000D01*
X434975Y762000D02*
X434975Y911225D01*
X419100Y927100D01*
X1060450Y581025D02*
X1063625Y584200D01*
X1063625Y641350D01*
X1044575Y660400D01*
X1044575Y819150D01*
X1063625Y838200D01*
X1063625Y1022350D01*
X1038225Y1047750D01*
X1038225Y1066800D01*
X1035050Y1069975D01*
X1003300Y1069975D01*
X1003300Y1054100D01*
X600075Y307975D02*
X584200Y292100D01*
X600075Y307975D02*
X600075Y387350D01*
X619125Y406400D01*
X619125Y574675D01*
D18*
X492125Y762000D03*
X1060450Y581025D03*
X619125Y574675D03*
D17*
X1168400Y927100D02*
X1171575Y930275D01*
X1171575Y958850D01*
X1184275Y971550D01*
X1184275Y990600D01*
X1187450Y993775D01*
X1285875Y993775D01*
X1285875Y835025D01*
X1320800Y800100D01*
X1254125Y809625D02*
X1244600Y800100D01*
X1254125Y809625D02*
X1254125Y911225D01*
X1270000Y927100D01*
X1260475Y765175D02*
X1219200Y723900D01*
X1260475Y765175D02*
X1260475Y841375D01*
X1270000Y850900D01*
X1270000Y523875D02*
X1270000Y469900D01*
X1257300Y536575D02*
X1254125Y539750D01*
X1254125Y561975D01*
X1219200Y596900D01*
D18*
X1270000Y523875D03*
X1257300Y536575D03*
D17*
X1266825Y565150D02*
X1311275Y565150D01*
X1311275Y663575D01*
X1320800Y673100D01*
D18*
X1266825Y565150D03*
D17*
X1260475Y555625D02*
X1270000Y546100D01*
X1260475Y555625D02*
X1260475Y657225D01*
X1244600Y673100D01*
X1184275Y511175D02*
X1143000Y469900D01*
X1184275Y511175D02*
X1184275Y736600D01*
X1187450Y739775D01*
D18*
X1187450Y739775D03*
D17*
X1219200Y546100D02*
X1235075Y530225D01*
X1330325Y530225D01*
X1330325Y742950D01*
D18*
X1330325Y742950D03*
D17*
X1349375Y523875D02*
X1295400Y469900D01*
X1349375Y523875D02*
X1349375Y784225D01*
X1343025Y790575D01*
X1343025Y904875D01*
X1320800Y927100D01*
X292100Y673100D02*
X231775Y612775D01*
X231775Y577850D01*
X257175Y552450D01*
X257175Y527050D01*
X307975Y476250D01*
X307975Y457200D01*
X320675Y444500D01*
X466725Y342900D02*
X523875Y285750D01*
X523875Y203200D01*
X615950Y111125D01*
X650875Y111125D01*
X650875Y76200D01*
X660400Y66675D01*
X1158875Y66675D01*
X1158875Y107950D01*
X1203325Y152400D01*
X1203325Y231775D02*
X1203325Y333375D01*
X1203325Y231775D02*
X1203325Y152400D01*
X1203325Y333375D02*
X1193800Y342900D01*
D18*
X320675Y444500D03*
X466725Y342900D03*
X1203325Y231775D03*
D17*
X720725Y555625D02*
X711200Y546100D01*
X720725Y555625D02*
X720725Y917575D01*
X711200Y927100D01*
X701675Y479425D02*
X711200Y469900D01*
X701675Y479425D02*
X701675Y841375D01*
X711200Y850900D01*
X650875Y479425D02*
X660400Y469900D01*
X650875Y479425D02*
X650875Y841375D01*
X660400Y850900D01*
X606425Y473075D02*
X609600Y469900D01*
X606425Y473075D02*
X606425Y527050D01*
X600075Y533400D01*
X600075Y841375D01*
X609600Y850900D01*
X549275Y479425D02*
X558800Y469900D01*
X549275Y479425D02*
X549275Y841375D01*
X558800Y850900D01*
X1193800Y927100D02*
X1244600Y977900D01*
X1019175Y301625D02*
X1028700Y292100D01*
X1019175Y301625D02*
X1019175Y663575D01*
X1028700Y673100D01*
X1019175Y917575D02*
X1028700Y927100D01*
X1019175Y917575D02*
X1019175Y663575D01*
X987425Y968375D02*
X977900Y977900D01*
X987425Y784225D02*
X987425Y492125D01*
X987425Y784225D02*
X987425Y968375D01*
X987425Y492125D02*
X977900Y482600D01*
X977900Y469900D01*
X984250Y784225D02*
X987425Y784225D01*
X1038225Y174625D02*
X1028700Y165100D01*
X1038225Y174625D02*
X1038225Y431800D01*
X1025525Y444500D01*
D18*
X984250Y784225D03*
X1025525Y444500D03*
D17*
X568325Y555625D02*
X558800Y546100D01*
X568325Y555625D02*
X568325Y904875D01*
X558800Y914400D01*
X558800Y927100D01*
X612775Y549275D02*
X609600Y546100D01*
X612775Y549275D02*
X612775Y577850D01*
X619125Y584200D01*
X619125Y917575D01*
X609600Y927100D01*
X857250Y679450D02*
X901700Y723900D01*
X857250Y679450D02*
X857250Y644525D01*
D18*
X857250Y644525D03*
D17*
X669925Y555625D02*
X660400Y546100D01*
X669925Y555625D02*
X669925Y917575D01*
X660400Y927100D01*
X460375Y358775D02*
X584200Y234950D01*
X584200Y215900D01*
D18*
X460375Y358775D03*
D17*
X368300Y292100D02*
X352425Y307975D01*
X352425Y387350D01*
X327025Y412750D01*
X327025Y488950D01*
X276225Y539750D01*
X276225Y561975D01*
X241300Y596900D01*
X1320800Y1054100D02*
X1358900Y1016000D01*
X1358900Y815975D01*
X1393825Y781050D01*
X1393825Y641350D01*
D18*
X1393825Y641350D03*
D17*
X1501775Y485775D02*
X1498600Y482600D01*
X1485900Y469900D01*
X1501775Y485775D02*
X1527175Y485775D01*
X1527175Y450850D01*
X1552575Y425450D01*
X1552575Y406400D01*
X1555750Y403225D01*
X1577975Y403225D01*
X1577975Y565150D01*
X1603375Y590550D01*
X1603375Y663575D01*
X1612900Y673100D01*
X1352550Y996950D02*
X1295400Y1054100D01*
X1352550Y996950D02*
X1352550Y790575D01*
X1374775Y768350D01*
X1374775Y606425D01*
X1393825Y587375D01*
X1419225Y561975D02*
X1498600Y482600D01*
D18*
X1393825Y587375D03*
X1419225Y561975D03*
D17*
X419100Y292100D02*
X409575Y301625D01*
X409575Y552450D01*
X390525Y571500D01*
D18*
X390525Y571500D03*
D17*
X825500Y342900D02*
X850900Y368300D01*
X850900Y419100D01*
X533400Y368300D02*
X508000Y342900D01*
X533400Y368300D02*
X533400Y419100D01*
X358775Y657225D02*
X342900Y673100D01*
X358775Y657225D02*
X358775Y457200D01*
X371475Y444500D01*
D18*
X371475Y444500D03*
D17*
X434975Y688975D02*
X498475Y688975D01*
X498475Y955675D01*
X508000Y965200D01*
X508000Y1016000D02*
X533400Y1041400D01*
X508000Y1016000D02*
X508000Y965200D01*
D18*
X434975Y688975D03*
D17*
X215900Y495300D02*
X190500Y469900D01*
X215900Y495300D02*
X215900Y546100D01*
X1409700Y723900D02*
X1435100Y749300D01*
X1435100Y800100D01*
X1209675Y130175D02*
X1168400Y88900D01*
X1209675Y130175D02*
X1209675Y333375D01*
X1219200Y342900D01*
X1406525Y720725D02*
X1409700Y723900D01*
X1406525Y720725D02*
X1406525Y450850D01*
X1304925Y349250D01*
X1304925Y301625D01*
X1295400Y292100D01*
X241300Y800100D02*
X231775Y809625D01*
X231775Y968375D01*
X241300Y977900D01*
X625475Y104775D02*
X609600Y88900D01*
X625475Y104775D02*
X644525Y104775D01*
X644525Y76200D01*
X606425Y38100D01*
X114300Y38100D01*
X114300Y241300D01*
X139700Y266700D01*
X139700Y320675D01*
X152400Y333375D02*
X180975Y361950D01*
X180975Y666750D01*
X231775Y717550D01*
X231775Y809625D01*
D18*
X139700Y320675D03*
X152400Y333375D03*
D17*
X266700Y800100D02*
X257175Y809625D01*
X257175Y968375D01*
X266700Y977900D01*
X635000Y88900D02*
X619125Y73025D01*
X454025Y73025D01*
X454025Y422275D01*
X431800Y444500D01*
X209550Y523875D02*
X206375Y527050D01*
X206375Y666750D01*
X257175Y717550D01*
X257175Y809625D01*
D18*
X431800Y444500D03*
X209550Y523875D03*
D17*
X292100Y800100D02*
X282575Y809625D01*
X282575Y968375D01*
X292100Y977900D01*
X657225Y92075D02*
X660400Y88900D01*
X657225Y92075D02*
X657225Y146050D01*
X644525Y158750D01*
X644525Y184150D01*
X619125Y209550D01*
X619125Y234950D01*
X574675Y279400D01*
X574675Y387350D01*
X600075Y412750D01*
X600075Y488950D01*
X346075Y622300D02*
X307975Y660400D01*
X307975Y784225D01*
X292100Y800100D01*
D18*
X600075Y488950D03*
X346075Y622300D03*
D17*
X317500Y800100D02*
X307975Y809625D01*
X307975Y968375D01*
X317500Y977900D01*
X768350Y171450D02*
X685800Y88900D01*
X768350Y171450D02*
X768350Y266700D01*
X784225Y282575D02*
X784225Y1069975D01*
X771525Y1082675D01*
X307975Y1082675D01*
X307975Y968375D01*
D18*
X768350Y266700D03*
X784225Y282575D03*
D17*
X342900Y800100D02*
X333375Y809625D01*
X333375Y968375D01*
X342900Y977900D01*
X762000Y215900D02*
X711200Y165100D01*
X762000Y215900D02*
X762000Y273050D01*
X777875Y288925D02*
X777875Y1066800D01*
X768350Y1076325D01*
X333375Y1076325D01*
X333375Y968375D01*
D18*
X762000Y273050D03*
X777875Y288925D03*
D17*
X368300Y800100D02*
X358775Y809625D01*
X358775Y968375D01*
X368300Y977900D01*
X727075Y206375D02*
X685800Y165100D01*
X727075Y206375D02*
X727075Y250825D01*
X755650Y279400D01*
X771525Y295275D02*
X771525Y1063625D01*
X765175Y1069975D01*
X358775Y1069975D01*
X358775Y968375D01*
D18*
X755650Y279400D03*
X771525Y295275D03*
D17*
X393700Y800100D02*
X384175Y809625D01*
X384175Y968375D01*
X393700Y977900D01*
X701675Y206375D02*
X660400Y165100D01*
X701675Y206375D02*
X701675Y234950D01*
X749300Y282575D01*
X749300Y285750D01*
X765175Y301625D02*
X765175Y1060450D01*
X762000Y1063625D01*
X384175Y1063625D01*
X384175Y968375D01*
D18*
X749300Y285750D03*
X765175Y301625D03*
D17*
X419100Y800100D02*
X409575Y809625D01*
X409575Y968375D01*
X419100Y977900D01*
X593725Y206375D02*
X635000Y165100D01*
X593725Y206375D02*
X593725Y234950D01*
X473075Y355600D01*
X473075Y469900D01*
X473075Y482600D02*
X428625Y527050D01*
X428625Y790575D01*
X419100Y800100D01*
D18*
X473075Y469900D03*
X473075Y482600D03*
D17*
X1193800Y596900D02*
X1193800Y673100D01*
X1193800Y723900D01*
X1193800Y800100D01*
X1270000Y673100D02*
X1270000Y596900D01*
X1270000Y673100D02*
X1270000Y723900D01*
X1270000Y800100D01*
X1193800Y596900D02*
X1203325Y587375D01*
X1203325Y381000D01*
X1228725Y355600D01*
X1228725Y231775D01*
D18*
X1228725Y231775D03*
D17*
X215900Y850900D02*
X215900Y876300D01*
X165100Y927100D01*
X31750Y927100D01*
X31750Y654050D01*
X50800Y635000D01*
X120650Y765175D02*
X133350Y777875D01*
X120650Y765175D02*
X120650Y688975D01*
X104775Y673100D01*
X50800Y673100D01*
X50800Y660400D01*
D18*
X133350Y777875D03*
D17*
X114300Y749300D02*
X50800Y749300D01*
X50800Y736600D01*
D18*
X114300Y749300D03*
D17*
X114300Y809625D02*
X127000Y809625D01*
X114300Y809625D02*
X104775Y800100D01*
X50800Y800100D01*
X50800Y787400D01*
D18*
X127000Y809625D03*
D17*
X174625Y873125D02*
X209550Y873125D01*
X174625Y873125D02*
X174625Y869950D01*
X130175Y825500D01*
X50800Y825500D01*
X50800Y812800D01*
D18*
X209550Y873125D03*
D17*
X133350Y596900D02*
X133350Y269875D01*
X104775Y241300D01*
X76200Y241300D01*
X76200Y228600D01*
D18*
X133350Y596900D03*
D17*
X127000Y581025D02*
X120650Y574675D01*
X120650Y282575D01*
X104775Y266700D01*
X76200Y266700D01*
X76200Y254000D01*
D18*
X127000Y581025D03*
D17*
X114300Y669925D02*
X133350Y688975D01*
X114300Y669925D02*
X114300Y301625D01*
X104775Y292100D01*
X76200Y292100D01*
X76200Y279400D01*
D18*
X133350Y688975D03*
D17*
X1527175Y682625D02*
X1536700Y673100D01*
X1527175Y682625D02*
X1527175Y917575D01*
X1536700Y927100D01*
X1520825Y962025D02*
X1485900Y927100D01*
X1546225Y962025D02*
X1562100Y962025D01*
X1546225Y962025D02*
X1520825Y962025D01*
X1562100Y962025D02*
X1562100Y977900D01*
X1552575Y479425D02*
X1562100Y469900D01*
X1552575Y479425D02*
X1552575Y663575D01*
X1562100Y673100D01*
X1546225Y688975D02*
X1546225Y962025D01*
X1546225Y688975D02*
X1562100Y673100D01*
X1533525Y473075D02*
X1536700Y469900D01*
X1533525Y473075D02*
X1533525Y501650D01*
X1495425Y539750D01*
X1495425Y615950D01*
X1444625Y666750D01*
X1444625Y841375D01*
X1435100Y850900D01*
X1209675Y1038225D02*
X1193800Y1054100D01*
X1209675Y1038225D02*
X1285875Y1038225D01*
X1285875Y1066800D01*
X1289050Y1069975D01*
X1365250Y1069975D01*
X1365250Y946150D01*
X1368425Y942975D01*
X1476375Y942975D01*
X1476375Y860425D01*
X1485900Y850900D01*
X1263650Y1073150D02*
X1244600Y1054100D01*
X1263650Y1073150D02*
X1263650Y1079500D01*
X1273175Y1089025D01*
X1660525Y1089025D01*
X1660525Y923925D01*
D18*
X1660525Y923925D03*
D17*
X1235075Y130175D02*
X1193800Y88900D01*
X1235075Y130175D02*
X1235075Y431800D01*
X1257300Y454025D01*
X1400175Y454025D01*
X1400175Y841375D01*
X1409700Y850900D01*
X1409700Y901700D02*
X1435100Y927100D01*
X1409700Y901700D02*
X1409700Y850900D01*
X1628775Y612775D02*
X1612900Y596900D01*
X1628775Y612775D02*
X1628775Y1044575D01*
X1638300Y1054100D01*
X1209675Y428625D02*
X1219200Y419100D01*
X1209675Y812800D02*
X1209675Y819150D01*
X1209675Y812800D02*
X1209675Y428625D01*
X1209675Y819150D02*
X1228725Y838200D01*
X1228725Y863600D01*
X1371600Y949325D02*
X1485900Y949325D01*
X1485900Y977900D01*
X101600Y635000D02*
X88900Y622300D01*
X63500Y622300D01*
X63500Y606425D01*
X53975Y596900D01*
X19050Y596900D01*
X19050Y958850D01*
X155575Y1095375D01*
X1152525Y1095375D01*
X1152525Y889000D01*
X1184275Y857250D01*
X1184275Y838200D01*
X1209675Y812800D01*
D18*
X1228725Y863600D03*
X1371600Y949325D03*
D17*
X936625Y104775D02*
X952500Y88900D01*
X936625Y104775D02*
X936625Y184150D01*
X917575Y203200D01*
X917575Y247650D01*
D18*
X917575Y247650D03*
D17*
X968375Y196850D02*
X993775Y171450D01*
X993775Y123825D01*
X1028700Y88900D01*
D18*
X968375Y196850D03*
D17*
X850900Y342900D02*
X866775Y358775D01*
X866775Y552450D01*
X895350Y581025D01*
D18*
X895350Y581025D03*
D17*
X892175Y352425D02*
X901700Y342900D01*
X892175Y352425D02*
X892175Y558800D01*
X904875Y571500D01*
D18*
X904875Y571500D03*
D17*
X1050925Y323850D02*
X1076325Y323850D01*
X1076325Y650875D01*
X1054100Y673100D01*
D18*
X1050925Y323850D03*
D17*
X1050925Y390525D02*
X1069975Y390525D01*
X1069975Y558800D01*
X1044575Y584200D01*
X1044575Y609600D01*
D18*
X1050925Y390525D03*
X1044575Y609600D03*
D17*
X1044575Y428625D02*
X1054100Y419100D01*
X1044575Y428625D02*
X1044575Y479425D01*
X1025525Y498475D01*
D18*
X1025525Y498475D03*
D17*
X584200Y965200D02*
X609600Y990600D01*
X654050Y990600D01*
D18*
X654050Y990600D03*
D17*
X781050Y1082675D02*
X1054100Y1082675D01*
X1054100Y1054100D01*
D18*
X781050Y1082675D03*
D17*
X1527175Y225425D02*
X1536700Y215900D01*
X1527175Y225425D02*
X1527175Y320675D01*
X1520825Y327025D01*
X1520825Y431800D01*
X1498600Y454025D01*
X1412875Y454025D01*
X1412875Y644525D01*
X1343025Y714375D02*
X1336675Y720725D01*
X1336675Y809625D01*
X1295400Y850900D01*
D18*
X1412875Y644525D03*
X1343025Y714375D03*
D17*
X1546225Y231775D02*
X1562100Y215900D01*
X1546225Y231775D02*
X1546225Y311150D01*
X1527175Y330200D01*
X1527175Y355600D01*
D18*
X1527175Y355600D03*
D17*
X1285875Y276225D02*
X1270000Y292100D01*
X1285875Y276225D02*
X1304925Y276225D01*
X1304925Y292100D01*
X1311275Y298450D01*
X1311275Y304800D01*
X1333500Y327025D01*
X1346200Y314325D02*
X1476375Y184150D01*
X1476375Y98425D01*
X1485900Y88900D01*
D18*
X1333500Y327025D03*
X1346200Y314325D03*
D17*
X1511300Y977900D02*
X1536700Y1003300D01*
X1536700Y1054100D01*
X1714500Y469900D02*
X1587500Y342900D01*
X1714500Y469900D02*
X1714500Y533400D01*
X1654175Y1082675D02*
X1536700Y1082675D01*
X1654175Y1082675D02*
X1654175Y593725D01*
X1714500Y533400D01*
D18*
X1536700Y1082675D03*
D17*
X1244600Y419100D02*
X1273175Y390525D01*
X1336675Y390525D01*
X1346200Y381000D02*
X1450975Y276225D01*
X1485900Y276225D01*
X1485900Y215900D01*
D18*
X1336675Y390525D03*
X1346200Y381000D03*
D17*
X1219200Y88900D02*
X1241425Y66675D01*
X1339850Y66675D01*
X1339850Y374650D01*
D18*
X1339850Y374650D03*
D17*
X1520825Y104775D02*
X1536700Y88900D01*
X1520825Y104775D02*
X1520825Y317500D01*
X1511300Y327025D01*
X1511300Y342900D01*
X1511300Y88900D02*
X1527175Y73025D01*
X1577975Y73025D01*
X1577975Y384175D01*
X1612900Y419100D01*
X292100Y165100D02*
X276225Y180975D01*
X276225Y282575D01*
X266700Y292100D01*
X88900Y520700D02*
X101600Y533400D01*
X88900Y520700D02*
X63500Y520700D01*
X63500Y101600D01*
X101600Y63500D01*
X1485900Y342900D02*
X1511300Y368300D01*
X1511300Y419100D01*
X1587500Y673100D02*
X1597025Y682625D01*
X1597025Y1022350D01*
X1571625Y1047750D01*
X1571625Y1066800D01*
X1562100Y1076325D01*
X1270000Y1076325D01*
X1270000Y1054100D01*
X1571625Y428625D02*
X1562100Y419100D01*
X1571625Y428625D02*
X1571625Y657225D01*
D18*
X1571625Y657225D03*
D17*
X190500Y850900D02*
X180975Y841375D01*
X180975Y733425D01*
X190500Y723900D01*
X101600Y711200D02*
X88900Y698500D01*
X38100Y698500D01*
X38100Y657225D01*
X47625Y647700D01*
X63500Y647700D01*
X63500Y631825D01*
X53975Y622300D01*
X25400Y622300D01*
X25400Y955675D01*
X158750Y1089025D01*
X1133475Y1089025D01*
X1133475Y419100D01*
X1177925Y374650D01*
X1177925Y320675D01*
D18*
X1177925Y320675D03*
D17*
X533400Y876300D02*
X508000Y850900D01*
X533400Y876300D02*
X533400Y927100D01*
X523875Y936625D01*
X523875Y1009650D01*
X549275Y1035050D01*
X549275Y1054100D01*
X552450Y1057275D01*
X758825Y1057275D01*
X758825Y295275D01*
X892175Y161925D01*
X892175Y120650D01*
X917575Y95250D01*
X917575Y76200D01*
X920750Y73025D01*
X1152525Y73025D01*
X1152525Y174625D01*
X1193800Y215900D01*
X1082675Y771525D02*
X1054100Y800100D01*
X1082675Y771525D02*
X1082675Y406400D01*
X1174750Y314325D01*
X1196975Y314325D01*
D18*
X1196975Y314325D03*
D17*
X225425Y809625D02*
X215900Y800100D01*
X225425Y809625D02*
X225425Y917575D01*
X215900Y927100D01*
X288925Y295275D02*
X292100Y292100D01*
X288925Y295275D02*
X288925Y311150D01*
X273050Y327025D01*
X139700Y327025D01*
X139700Y806450D01*
X130175Y815975D01*
X101600Y815975D01*
X101600Y812800D01*
X393700Y215900D02*
X403225Y206375D01*
X403225Y120650D01*
X377825Y95250D01*
X377825Y76200D01*
X346075Y44450D01*
X127000Y44450D01*
X127000Y63500D01*
X1244600Y88900D02*
X1260475Y73025D01*
X1311275Y73025D01*
X1311275Y282575D01*
X1320800Y292100D01*
X1254125Y130175D02*
X1295400Y88900D01*
X1254125Y130175D02*
X1254125Y282575D01*
X1244600Y292100D01*
M02*
