G04 EAGLE Gerber RS-274X export*
G75*
%MOMM*%
%FSLAX34Y34*%
%LPD*%
%INBottom Copper*%
%IPPOS*%
%AMOC8*
5,1,8,0,0,1.08239X$1,22.5*%
G01*
%ADD10C,1.219200*%
%ADD11P,1.319650X8X112.500000*%
%ADD12P,1.649562X8X292.500000*%
%ADD13P,1.649562X8X202.500000*%
%ADD14P,1.319650X8X202.500000*%
%ADD15P,1.319650X8X22.500000*%
%ADD16C,1.524000*%
%ADD17C,0.127000*%
%ADD18C,0.457200*%


D10*
X1168400Y717804D02*
X1168400Y729996D01*
X1193800Y729996D02*
X1193800Y717804D01*
X1320800Y717804D02*
X1320800Y729996D01*
X1320800Y794004D02*
X1320800Y806196D01*
X1219200Y729996D02*
X1219200Y717804D01*
X1244600Y717804D02*
X1244600Y729996D01*
X1295400Y729996D02*
X1295400Y717804D01*
X1270000Y717804D02*
X1270000Y729996D01*
X1295400Y794004D02*
X1295400Y806196D01*
X1270000Y806196D02*
X1270000Y794004D01*
X1244600Y794004D02*
X1244600Y806196D01*
X1219200Y806196D02*
X1219200Y794004D01*
X1193800Y794004D02*
X1193800Y806196D01*
X1168400Y806196D02*
X1168400Y794004D01*
X1168400Y602996D02*
X1168400Y590804D01*
X1193800Y590804D02*
X1193800Y602996D01*
X1320800Y602996D02*
X1320800Y590804D01*
X1320800Y667004D02*
X1320800Y679196D01*
X1219200Y602996D02*
X1219200Y590804D01*
X1244600Y590804D02*
X1244600Y602996D01*
X1295400Y602996D02*
X1295400Y590804D01*
X1270000Y590804D02*
X1270000Y602996D01*
X1295400Y667004D02*
X1295400Y679196D01*
X1270000Y679196D02*
X1270000Y667004D01*
X1244600Y667004D02*
X1244600Y679196D01*
X1219200Y679196D02*
X1219200Y667004D01*
X1193800Y667004D02*
X1193800Y679196D01*
X1168400Y679196D02*
X1168400Y667004D01*
X1409700Y717804D02*
X1409700Y729996D01*
X1435100Y729996D02*
X1435100Y717804D01*
X1562100Y717804D02*
X1562100Y729996D01*
X1587500Y729996D02*
X1587500Y717804D01*
X1460500Y717804D02*
X1460500Y729996D01*
X1485900Y729996D02*
X1485900Y717804D01*
X1536700Y717804D02*
X1536700Y729996D01*
X1511300Y729996D02*
X1511300Y717804D01*
X1612900Y717804D02*
X1612900Y729996D01*
X1638300Y729996D02*
X1638300Y717804D01*
X1638300Y794004D02*
X1638300Y806196D01*
X1612900Y806196D02*
X1612900Y794004D01*
X1587500Y794004D02*
X1587500Y806196D01*
X1562100Y806196D02*
X1562100Y794004D01*
X1536700Y794004D02*
X1536700Y806196D01*
X1511300Y806196D02*
X1511300Y794004D01*
X1485900Y794004D02*
X1485900Y806196D01*
X1460500Y806196D02*
X1460500Y794004D01*
X1435100Y794004D02*
X1435100Y806196D01*
X1409700Y806196D02*
X1409700Y794004D01*
X241300Y602996D02*
X241300Y590804D01*
X266700Y590804D02*
X266700Y602996D01*
X393700Y602996D02*
X393700Y590804D01*
X419100Y590804D02*
X419100Y602996D01*
X292100Y602996D02*
X292100Y590804D01*
X317500Y590804D02*
X317500Y602996D01*
X368300Y602996D02*
X368300Y590804D01*
X342900Y590804D02*
X342900Y602996D01*
X419100Y667004D02*
X419100Y679196D01*
X393700Y679196D02*
X393700Y667004D01*
X368300Y667004D02*
X368300Y679196D01*
X342900Y679196D02*
X342900Y667004D01*
X317500Y667004D02*
X317500Y679196D01*
X292100Y679196D02*
X292100Y667004D01*
X266700Y667004D02*
X266700Y679196D01*
X241300Y679196D02*
X241300Y667004D01*
X266700Y94996D02*
X266700Y82804D01*
X292100Y82804D02*
X292100Y94996D01*
X419100Y94996D02*
X419100Y82804D01*
X419100Y159004D02*
X419100Y171196D01*
X317500Y94996D02*
X317500Y82804D01*
X342900Y82804D02*
X342900Y94996D01*
X393700Y94996D02*
X393700Y82804D01*
X368300Y82804D02*
X368300Y94996D01*
X393700Y159004D02*
X393700Y171196D01*
X368300Y171196D02*
X368300Y159004D01*
X342900Y159004D02*
X342900Y171196D01*
X317500Y171196D02*
X317500Y159004D01*
X292100Y159004D02*
X292100Y171196D01*
X266700Y171196D02*
X266700Y159004D01*
X190500Y463804D02*
X190500Y475996D01*
X215900Y475996D02*
X215900Y463804D01*
X342900Y463804D02*
X342900Y475996D01*
X368300Y475996D02*
X368300Y463804D01*
X241300Y463804D02*
X241300Y475996D01*
X266700Y475996D02*
X266700Y463804D01*
X317500Y463804D02*
X317500Y475996D01*
X292100Y475996D02*
X292100Y463804D01*
X393700Y463804D02*
X393700Y475996D01*
X419100Y475996D02*
X419100Y463804D01*
X419100Y540004D02*
X419100Y552196D01*
X393700Y552196D02*
X393700Y540004D01*
X368300Y540004D02*
X368300Y552196D01*
X342900Y552196D02*
X342900Y540004D01*
X317500Y540004D02*
X317500Y552196D01*
X292100Y552196D02*
X292100Y540004D01*
X266700Y540004D02*
X266700Y552196D01*
X241300Y552196D02*
X241300Y540004D01*
X215900Y540004D02*
X215900Y552196D01*
X190500Y552196D02*
X190500Y540004D01*
X508000Y475996D02*
X508000Y463804D01*
X533400Y463804D02*
X533400Y475996D01*
X660400Y475996D02*
X660400Y463804D01*
X685800Y463804D02*
X685800Y475996D01*
X558800Y475996D02*
X558800Y463804D01*
X584200Y463804D02*
X584200Y475996D01*
X635000Y475996D02*
X635000Y463804D01*
X609600Y463804D02*
X609600Y475996D01*
X711200Y475996D02*
X711200Y463804D01*
X736600Y463804D02*
X736600Y475996D01*
X736600Y540004D02*
X736600Y552196D01*
X711200Y552196D02*
X711200Y540004D01*
X685800Y540004D02*
X685800Y552196D01*
X660400Y552196D02*
X660400Y540004D01*
X635000Y540004D02*
X635000Y552196D01*
X609600Y552196D02*
X609600Y540004D01*
X584200Y540004D02*
X584200Y552196D01*
X558800Y552196D02*
X558800Y540004D01*
X533400Y540004D02*
X533400Y552196D01*
X508000Y552196D02*
X508000Y540004D01*
X508000Y844804D02*
X508000Y856996D01*
X533400Y856996D02*
X533400Y844804D01*
X660400Y844804D02*
X660400Y856996D01*
X685800Y856996D02*
X685800Y844804D01*
X558800Y844804D02*
X558800Y856996D01*
X584200Y856996D02*
X584200Y844804D01*
X635000Y844804D02*
X635000Y856996D01*
X609600Y856996D02*
X609600Y844804D01*
X711200Y844804D02*
X711200Y856996D01*
X736600Y856996D02*
X736600Y844804D01*
X736600Y921004D02*
X736600Y933196D01*
X711200Y933196D02*
X711200Y921004D01*
X685800Y921004D02*
X685800Y933196D01*
X660400Y933196D02*
X660400Y921004D01*
X635000Y921004D02*
X635000Y933196D01*
X609600Y933196D02*
X609600Y921004D01*
X584200Y921004D02*
X584200Y933196D01*
X558800Y933196D02*
X558800Y921004D01*
X533400Y921004D02*
X533400Y933196D01*
X508000Y933196D02*
X508000Y921004D01*
X825500Y729996D02*
X825500Y717804D01*
X850900Y717804D02*
X850900Y729996D01*
X977900Y729996D02*
X977900Y717804D01*
X1003300Y717804D02*
X1003300Y729996D01*
X876300Y729996D02*
X876300Y717804D01*
X901700Y717804D02*
X901700Y729996D01*
X952500Y729996D02*
X952500Y717804D01*
X927100Y717804D02*
X927100Y729996D01*
X1028700Y729996D02*
X1028700Y717804D01*
X1054100Y717804D02*
X1054100Y729996D01*
X1054100Y794004D02*
X1054100Y806196D01*
X1028700Y806196D02*
X1028700Y794004D01*
X1003300Y794004D02*
X1003300Y806196D01*
X977900Y806196D02*
X977900Y794004D01*
X952500Y794004D02*
X952500Y806196D01*
X927100Y806196D02*
X927100Y794004D01*
X901700Y794004D02*
X901700Y806196D01*
X876300Y806196D02*
X876300Y794004D01*
X850900Y794004D02*
X850900Y806196D01*
X825500Y806196D02*
X825500Y794004D01*
X508000Y602996D02*
X508000Y590804D01*
X533400Y590804D02*
X533400Y602996D01*
X660400Y602996D02*
X660400Y590804D01*
X685800Y590804D02*
X685800Y602996D01*
X558800Y602996D02*
X558800Y590804D01*
X584200Y590804D02*
X584200Y602996D01*
X635000Y602996D02*
X635000Y590804D01*
X609600Y590804D02*
X609600Y602996D01*
X711200Y602996D02*
X711200Y590804D01*
X736600Y590804D02*
X736600Y602996D01*
X736600Y667004D02*
X736600Y679196D01*
X711200Y679196D02*
X711200Y667004D01*
X685800Y667004D02*
X685800Y679196D01*
X660400Y679196D02*
X660400Y667004D01*
X635000Y667004D02*
X635000Y679196D01*
X609600Y679196D02*
X609600Y667004D01*
X584200Y667004D02*
X584200Y679196D01*
X558800Y679196D02*
X558800Y667004D01*
X533400Y667004D02*
X533400Y679196D01*
X508000Y679196D02*
X508000Y667004D01*
X508000Y717804D02*
X508000Y729996D01*
X533400Y729996D02*
X533400Y717804D01*
X660400Y717804D02*
X660400Y729996D01*
X685800Y729996D02*
X685800Y717804D01*
X558800Y717804D02*
X558800Y729996D01*
X584200Y729996D02*
X584200Y717804D01*
X635000Y717804D02*
X635000Y729996D01*
X609600Y729996D02*
X609600Y717804D01*
X711200Y717804D02*
X711200Y729996D01*
X736600Y729996D02*
X736600Y717804D01*
X736600Y794004D02*
X736600Y806196D01*
X711200Y806196D02*
X711200Y794004D01*
X685800Y794004D02*
X685800Y806196D01*
X660400Y806196D02*
X660400Y794004D01*
X635000Y794004D02*
X635000Y806196D01*
X609600Y806196D02*
X609600Y794004D01*
X584200Y794004D02*
X584200Y806196D01*
X558800Y806196D02*
X558800Y794004D01*
X533400Y794004D02*
X533400Y806196D01*
X508000Y806196D02*
X508000Y794004D01*
X241300Y348996D02*
X241300Y336804D01*
X266700Y336804D02*
X266700Y348996D01*
X393700Y348996D02*
X393700Y336804D01*
X419100Y336804D02*
X419100Y348996D01*
X292100Y348996D02*
X292100Y336804D01*
X317500Y336804D02*
X317500Y348996D01*
X368300Y348996D02*
X368300Y336804D01*
X342900Y336804D02*
X342900Y348996D01*
X419100Y413004D02*
X419100Y425196D01*
X393700Y425196D02*
X393700Y413004D01*
X368300Y413004D02*
X368300Y425196D01*
X342900Y425196D02*
X342900Y413004D01*
X317500Y413004D02*
X317500Y425196D01*
X292100Y425196D02*
X292100Y413004D01*
X266700Y413004D02*
X266700Y425196D01*
X241300Y425196D02*
X241300Y413004D01*
X558800Y221996D02*
X558800Y209804D01*
X584200Y209804D02*
X584200Y221996D01*
X711200Y221996D02*
X711200Y209804D01*
X736600Y209804D02*
X736600Y221996D01*
X609600Y221996D02*
X609600Y209804D01*
X635000Y209804D02*
X635000Y221996D01*
X685800Y221996D02*
X685800Y209804D01*
X660400Y209804D02*
X660400Y221996D01*
X736600Y286004D02*
X736600Y298196D01*
X711200Y298196D02*
X711200Y286004D01*
X685800Y286004D02*
X685800Y298196D01*
X660400Y298196D02*
X660400Y286004D01*
X635000Y286004D02*
X635000Y298196D01*
X609600Y298196D02*
X609600Y286004D01*
X584200Y286004D02*
X584200Y298196D01*
X558800Y298196D02*
X558800Y286004D01*
X1168400Y221996D02*
X1168400Y209804D01*
X1193800Y209804D02*
X1193800Y221996D01*
X1320800Y221996D02*
X1320800Y209804D01*
X1320800Y286004D02*
X1320800Y298196D01*
X1219200Y221996D02*
X1219200Y209804D01*
X1244600Y209804D02*
X1244600Y221996D01*
X1295400Y221996D02*
X1295400Y209804D01*
X1270000Y209804D02*
X1270000Y221996D01*
X1295400Y286004D02*
X1295400Y298196D01*
X1270000Y298196D02*
X1270000Y286004D01*
X1244600Y286004D02*
X1244600Y298196D01*
X1219200Y298196D02*
X1219200Y286004D01*
X1193800Y286004D02*
X1193800Y298196D01*
X1168400Y298196D02*
X1168400Y286004D01*
X1485900Y94996D02*
X1485900Y82804D01*
X1511300Y82804D02*
X1511300Y94996D01*
X1638300Y94996D02*
X1638300Y82804D01*
X1638300Y159004D02*
X1638300Y171196D01*
X1536700Y94996D02*
X1536700Y82804D01*
X1562100Y82804D02*
X1562100Y94996D01*
X1612900Y94996D02*
X1612900Y82804D01*
X1587500Y82804D02*
X1587500Y94996D01*
X1612900Y159004D02*
X1612900Y171196D01*
X1587500Y171196D02*
X1587500Y159004D01*
X1562100Y159004D02*
X1562100Y171196D01*
X1536700Y171196D02*
X1536700Y159004D01*
X1511300Y159004D02*
X1511300Y171196D01*
X1485900Y171196D02*
X1485900Y159004D01*
X241300Y209804D02*
X241300Y221996D01*
X266700Y221996D02*
X266700Y209804D01*
X393700Y209804D02*
X393700Y221996D01*
X419100Y221996D02*
X419100Y209804D01*
X292100Y209804D02*
X292100Y221996D01*
X317500Y221996D02*
X317500Y209804D01*
X368300Y209804D02*
X368300Y221996D01*
X342900Y221996D02*
X342900Y209804D01*
X419100Y286004D02*
X419100Y298196D01*
X393700Y298196D02*
X393700Y286004D01*
X368300Y286004D02*
X368300Y298196D01*
X342900Y298196D02*
X342900Y286004D01*
X317500Y286004D02*
X317500Y298196D01*
X292100Y298196D02*
X292100Y286004D01*
X266700Y286004D02*
X266700Y298196D01*
X241300Y298196D02*
X241300Y286004D01*
X584200Y94996D02*
X584200Y82804D01*
X609600Y82804D02*
X609600Y94996D01*
X736600Y94996D02*
X736600Y82804D01*
X736600Y159004D02*
X736600Y171196D01*
X635000Y94996D02*
X635000Y82804D01*
X660400Y82804D02*
X660400Y94996D01*
X711200Y94996D02*
X711200Y82804D01*
X685800Y82804D02*
X685800Y94996D01*
X711200Y159004D02*
X711200Y171196D01*
X685800Y171196D02*
X685800Y159004D01*
X660400Y159004D02*
X660400Y171196D01*
X635000Y171196D02*
X635000Y159004D01*
X609600Y159004D02*
X609600Y171196D01*
X584200Y171196D02*
X584200Y159004D01*
X215900Y971804D02*
X215900Y983996D01*
X241300Y983996D02*
X241300Y971804D01*
X266700Y971804D02*
X266700Y983996D01*
X292100Y983996D02*
X292100Y971804D01*
X317500Y971804D02*
X317500Y983996D01*
X342900Y983996D02*
X342900Y971804D01*
X368300Y971804D02*
X368300Y983996D01*
X393700Y983996D02*
X393700Y971804D01*
X419100Y971804D02*
X419100Y983996D01*
X215900Y1035304D02*
X215900Y1047496D01*
X241300Y1047496D02*
X241300Y1035304D01*
X266700Y1035304D02*
X266700Y1047496D01*
X292100Y1047496D02*
X292100Y1035304D01*
X317500Y1035304D02*
X317500Y1047496D01*
X342900Y1047496D02*
X342900Y1035304D01*
X368300Y1035304D02*
X368300Y1047496D01*
X393700Y1047496D02*
X393700Y1035304D01*
X419100Y1035304D02*
X419100Y1047496D01*
X190500Y856996D02*
X190500Y844804D01*
X215900Y844804D02*
X215900Y856996D01*
X342900Y856996D02*
X342900Y844804D01*
X368300Y844804D02*
X368300Y856996D01*
X241300Y856996D02*
X241300Y844804D01*
X266700Y844804D02*
X266700Y856996D01*
X317500Y856996D02*
X317500Y844804D01*
X292100Y844804D02*
X292100Y856996D01*
X393700Y856996D02*
X393700Y844804D01*
X419100Y844804D02*
X419100Y856996D01*
X419100Y921004D02*
X419100Y933196D01*
X393700Y933196D02*
X393700Y921004D01*
X368300Y921004D02*
X368300Y933196D01*
X342900Y933196D02*
X342900Y921004D01*
X317500Y921004D02*
X317500Y933196D01*
X292100Y933196D02*
X292100Y921004D01*
X266700Y921004D02*
X266700Y933196D01*
X241300Y933196D02*
X241300Y921004D01*
X215900Y921004D02*
X215900Y933196D01*
X190500Y933196D02*
X190500Y921004D01*
X190500Y729996D02*
X190500Y717804D01*
X215900Y717804D02*
X215900Y729996D01*
X342900Y729996D02*
X342900Y717804D01*
X368300Y717804D02*
X368300Y729996D01*
X241300Y729996D02*
X241300Y717804D01*
X266700Y717804D02*
X266700Y729996D01*
X317500Y729996D02*
X317500Y717804D01*
X292100Y717804D02*
X292100Y729996D01*
X393700Y729996D02*
X393700Y717804D01*
X419100Y717804D02*
X419100Y729996D01*
X419100Y794004D02*
X419100Y806196D01*
X393700Y806196D02*
X393700Y794004D01*
X368300Y794004D02*
X368300Y806196D01*
X342900Y806196D02*
X342900Y794004D01*
X317500Y794004D02*
X317500Y806196D01*
X292100Y806196D02*
X292100Y794004D01*
X266700Y794004D02*
X266700Y806196D01*
X241300Y806196D02*
X241300Y794004D01*
X215900Y794004D02*
X215900Y806196D01*
X190500Y806196D02*
X190500Y794004D01*
X1143000Y844804D02*
X1143000Y856996D01*
X1168400Y856996D02*
X1168400Y844804D01*
X1295400Y844804D02*
X1295400Y856996D01*
X1320800Y856996D02*
X1320800Y844804D01*
X1193800Y844804D02*
X1193800Y856996D01*
X1219200Y856996D02*
X1219200Y844804D01*
X1270000Y844804D02*
X1270000Y856996D01*
X1244600Y856996D02*
X1244600Y844804D01*
X1320800Y921004D02*
X1320800Y933196D01*
X1295400Y933196D02*
X1295400Y921004D01*
X1270000Y921004D02*
X1270000Y933196D01*
X1244600Y933196D02*
X1244600Y921004D01*
X1219200Y921004D02*
X1219200Y933196D01*
X1193800Y933196D02*
X1193800Y921004D01*
X1168400Y921004D02*
X1168400Y933196D01*
X1143000Y933196D02*
X1143000Y921004D01*
X1143000Y475996D02*
X1143000Y463804D01*
X1168400Y463804D02*
X1168400Y475996D01*
X1295400Y475996D02*
X1295400Y463804D01*
X1320800Y463804D02*
X1320800Y475996D01*
X1193800Y475996D02*
X1193800Y463804D01*
X1219200Y463804D02*
X1219200Y475996D01*
X1270000Y475996D02*
X1270000Y463804D01*
X1244600Y463804D02*
X1244600Y475996D01*
X1320800Y540004D02*
X1320800Y552196D01*
X1295400Y552196D02*
X1295400Y540004D01*
X1270000Y540004D02*
X1270000Y552196D01*
X1244600Y552196D02*
X1244600Y540004D01*
X1219200Y540004D02*
X1219200Y552196D01*
X1193800Y552196D02*
X1193800Y540004D01*
X1168400Y540004D02*
X1168400Y552196D01*
X1143000Y552196D02*
X1143000Y540004D01*
X1143000Y971804D02*
X1143000Y983996D01*
X1168400Y983996D02*
X1168400Y971804D01*
X1295400Y971804D02*
X1295400Y983996D01*
X1320800Y983996D02*
X1320800Y971804D01*
X1193800Y971804D02*
X1193800Y983996D01*
X1219200Y983996D02*
X1219200Y971804D01*
X1270000Y971804D02*
X1270000Y983996D01*
X1244600Y983996D02*
X1244600Y971804D01*
X1320800Y1048004D02*
X1320800Y1060196D01*
X1295400Y1060196D02*
X1295400Y1048004D01*
X1270000Y1048004D02*
X1270000Y1060196D01*
X1244600Y1060196D02*
X1244600Y1048004D01*
X1219200Y1048004D02*
X1219200Y1060196D01*
X1193800Y1060196D02*
X1193800Y1048004D01*
X1168400Y1048004D02*
X1168400Y1060196D01*
X1143000Y1060196D02*
X1143000Y1048004D01*
X1460500Y602996D02*
X1460500Y590804D01*
X1485900Y590804D02*
X1485900Y602996D01*
X1612900Y602996D02*
X1612900Y590804D01*
X1638300Y590804D02*
X1638300Y602996D01*
X1511300Y602996D02*
X1511300Y590804D01*
X1536700Y590804D02*
X1536700Y602996D01*
X1587500Y602996D02*
X1587500Y590804D01*
X1562100Y590804D02*
X1562100Y602996D01*
X1638300Y667004D02*
X1638300Y679196D01*
X1612900Y679196D02*
X1612900Y667004D01*
X1587500Y667004D02*
X1587500Y679196D01*
X1562100Y679196D02*
X1562100Y667004D01*
X1536700Y667004D02*
X1536700Y679196D01*
X1511300Y679196D02*
X1511300Y667004D01*
X1485900Y667004D02*
X1485900Y679196D01*
X1460500Y679196D02*
X1460500Y667004D01*
X1409700Y844804D02*
X1409700Y856996D01*
X1435100Y856996D02*
X1435100Y844804D01*
X1562100Y844804D02*
X1562100Y856996D01*
X1587500Y856996D02*
X1587500Y844804D01*
X1460500Y844804D02*
X1460500Y856996D01*
X1485900Y856996D02*
X1485900Y844804D01*
X1536700Y844804D02*
X1536700Y856996D01*
X1511300Y856996D02*
X1511300Y844804D01*
X1612900Y844804D02*
X1612900Y856996D01*
X1638300Y856996D02*
X1638300Y844804D01*
X1638300Y921004D02*
X1638300Y933196D01*
X1612900Y933196D02*
X1612900Y921004D01*
X1587500Y921004D02*
X1587500Y933196D01*
X1562100Y933196D02*
X1562100Y921004D01*
X1536700Y921004D02*
X1536700Y933196D01*
X1511300Y933196D02*
X1511300Y921004D01*
X1485900Y921004D02*
X1485900Y933196D01*
X1460500Y933196D02*
X1460500Y921004D01*
X1435100Y921004D02*
X1435100Y933196D01*
X1409700Y933196D02*
X1409700Y921004D01*
X1460500Y971804D02*
X1460500Y983996D01*
X1485900Y983996D02*
X1485900Y971804D01*
X1612900Y971804D02*
X1612900Y983996D01*
X1638300Y983996D02*
X1638300Y971804D01*
X1511300Y971804D02*
X1511300Y983996D01*
X1536700Y983996D02*
X1536700Y971804D01*
X1587500Y971804D02*
X1587500Y983996D01*
X1562100Y983996D02*
X1562100Y971804D01*
X1638300Y1048004D02*
X1638300Y1060196D01*
X1612900Y1060196D02*
X1612900Y1048004D01*
X1587500Y1048004D02*
X1587500Y1060196D01*
X1562100Y1060196D02*
X1562100Y1048004D01*
X1536700Y1048004D02*
X1536700Y1060196D01*
X1511300Y1060196D02*
X1511300Y1048004D01*
X1485900Y1048004D02*
X1485900Y1060196D01*
X1460500Y1060196D02*
X1460500Y1048004D01*
D11*
X876300Y495300D03*
X876300Y520700D03*
X1143000Y114300D03*
X1143000Y139700D03*
X215900Y622300D03*
X215900Y647700D03*
X1384300Y876300D03*
X1384300Y901700D03*
X1117600Y495300D03*
X1117600Y520700D03*
X1143000Y368300D03*
X1143000Y393700D03*
X241300Y114300D03*
X241300Y139700D03*
X482600Y495300D03*
X482600Y520700D03*
X215900Y241300D03*
X215900Y266700D03*
X1117600Y876300D03*
X1117600Y901700D03*
X800100Y749300D03*
X800100Y774700D03*
X1460500Y368300D03*
X1460500Y393700D03*
X1435100Y1003300D03*
X1435100Y1028700D03*
X1117600Y1003300D03*
X1117600Y1028700D03*
X1460500Y241300D03*
X1460500Y266700D03*
X482600Y368300D03*
X482600Y393700D03*
X215900Y368300D03*
X215900Y393700D03*
X482600Y876300D03*
X482600Y901700D03*
X876300Y1003300D03*
X876300Y1028700D03*
X1143000Y241300D03*
X1143000Y266700D03*
X876300Y876300D03*
X876300Y901700D03*
X1460500Y114300D03*
X1460500Y139700D03*
X533400Y241300D03*
X533400Y266700D03*
X165100Y749300D03*
X165100Y774700D03*
X165100Y876300D03*
X165100Y901700D03*
X1384300Y749300D03*
X1384300Y774700D03*
X1435100Y622300D03*
X1435100Y647700D03*
X1143000Y749300D03*
X1143000Y774700D03*
X1143000Y622300D03*
X1143000Y647700D03*
X1435100Y495300D03*
X1435100Y520700D03*
X876300Y241300D03*
X876300Y266700D03*
X876300Y114300D03*
X876300Y139700D03*
X558800Y114300D03*
X558800Y139700D03*
X482600Y990600D03*
X482600Y1016000D03*
X876300Y622300D03*
X876300Y647700D03*
X165100Y495300D03*
X165100Y520700D03*
X800100Y368300D03*
X800100Y393700D03*
D10*
X901700Y221996D02*
X901700Y209804D01*
X927100Y209804D02*
X927100Y221996D01*
X1054100Y221996D02*
X1054100Y209804D01*
X1054100Y286004D02*
X1054100Y298196D01*
X952500Y221996D02*
X952500Y209804D01*
X977900Y209804D02*
X977900Y221996D01*
X1028700Y221996D02*
X1028700Y209804D01*
X1003300Y209804D02*
X1003300Y221996D01*
X1028700Y286004D02*
X1028700Y298196D01*
X1003300Y298196D02*
X1003300Y286004D01*
X977900Y286004D02*
X977900Y298196D01*
X952500Y298196D02*
X952500Y286004D01*
X927100Y286004D02*
X927100Y298196D01*
X901700Y298196D02*
X901700Y286004D01*
X901700Y94996D02*
X901700Y82804D01*
X927100Y82804D02*
X927100Y94996D01*
X1054100Y94996D02*
X1054100Y82804D01*
X1054100Y159004D02*
X1054100Y171196D01*
X952500Y94996D02*
X952500Y82804D01*
X977900Y82804D02*
X977900Y94996D01*
X1028700Y94996D02*
X1028700Y82804D01*
X1003300Y82804D02*
X1003300Y94996D01*
X1028700Y159004D02*
X1028700Y171196D01*
X1003300Y171196D02*
X1003300Y159004D01*
X977900Y159004D02*
X977900Y171196D01*
X952500Y171196D02*
X952500Y159004D01*
X927100Y159004D02*
X927100Y171196D01*
X901700Y171196D02*
X901700Y159004D01*
X901700Y844804D02*
X901700Y856996D01*
X927100Y856996D02*
X927100Y844804D01*
X1054100Y844804D02*
X1054100Y856996D01*
X1054100Y921004D02*
X1054100Y933196D01*
X952500Y856996D02*
X952500Y844804D01*
X977900Y844804D02*
X977900Y856996D01*
X1028700Y856996D02*
X1028700Y844804D01*
X1003300Y844804D02*
X1003300Y856996D01*
X1028700Y921004D02*
X1028700Y933196D01*
X1003300Y933196D02*
X1003300Y921004D01*
X977900Y921004D02*
X977900Y933196D01*
X952500Y933196D02*
X952500Y921004D01*
X927100Y921004D02*
X927100Y933196D01*
X901700Y933196D02*
X901700Y921004D01*
X508000Y348996D02*
X508000Y336804D01*
X533400Y336804D02*
X533400Y348996D01*
X660400Y348996D02*
X660400Y336804D01*
X685800Y336804D02*
X685800Y348996D01*
X558800Y348996D02*
X558800Y336804D01*
X584200Y336804D02*
X584200Y348996D01*
X635000Y348996D02*
X635000Y336804D01*
X609600Y336804D02*
X609600Y348996D01*
X711200Y348996D02*
X711200Y336804D01*
X736600Y336804D02*
X736600Y348996D01*
X736600Y413004D02*
X736600Y425196D01*
X711200Y425196D02*
X711200Y413004D01*
X685800Y413004D02*
X685800Y425196D01*
X660400Y425196D02*
X660400Y413004D01*
X635000Y413004D02*
X635000Y425196D01*
X609600Y425196D02*
X609600Y413004D01*
X584200Y413004D02*
X584200Y425196D01*
X558800Y425196D02*
X558800Y413004D01*
X533400Y413004D02*
X533400Y425196D01*
X508000Y425196D02*
X508000Y413004D01*
X825500Y348996D02*
X825500Y336804D01*
X850900Y336804D02*
X850900Y348996D01*
X977900Y348996D02*
X977900Y336804D01*
X1003300Y336804D02*
X1003300Y348996D01*
X876300Y348996D02*
X876300Y336804D01*
X901700Y336804D02*
X901700Y348996D01*
X952500Y348996D02*
X952500Y336804D01*
X927100Y336804D02*
X927100Y348996D01*
X1028700Y348996D02*
X1028700Y336804D01*
X1054100Y336804D02*
X1054100Y348996D01*
X1054100Y413004D02*
X1054100Y425196D01*
X1028700Y425196D02*
X1028700Y413004D01*
X1003300Y413004D02*
X1003300Y425196D01*
X977900Y425196D02*
X977900Y413004D01*
X952500Y413004D02*
X952500Y425196D01*
X927100Y425196D02*
X927100Y413004D01*
X901700Y413004D02*
X901700Y425196D01*
X876300Y425196D02*
X876300Y413004D01*
X850900Y413004D02*
X850900Y425196D01*
X825500Y425196D02*
X825500Y413004D01*
X508000Y959104D02*
X508000Y971296D01*
X533400Y971296D02*
X533400Y959104D01*
X660400Y959104D02*
X660400Y971296D01*
X685800Y971296D02*
X685800Y959104D01*
X558800Y959104D02*
X558800Y971296D01*
X584200Y971296D02*
X584200Y959104D01*
X635000Y959104D02*
X635000Y971296D01*
X609600Y971296D02*
X609600Y959104D01*
X711200Y959104D02*
X711200Y971296D01*
X736600Y971296D02*
X736600Y959104D01*
X736600Y1035304D02*
X736600Y1047496D01*
X711200Y1047496D02*
X711200Y1035304D01*
X685800Y1035304D02*
X685800Y1047496D01*
X660400Y1047496D02*
X660400Y1035304D01*
X635000Y1035304D02*
X635000Y1047496D01*
X609600Y1047496D02*
X609600Y1035304D01*
X584200Y1035304D02*
X584200Y1047496D01*
X558800Y1047496D02*
X558800Y1035304D01*
X533400Y1035304D02*
X533400Y1047496D01*
X508000Y1047496D02*
X508000Y1035304D01*
X901700Y602996D02*
X901700Y590804D01*
X927100Y590804D02*
X927100Y602996D01*
X1054100Y602996D02*
X1054100Y590804D01*
X1054100Y667004D02*
X1054100Y679196D01*
X952500Y602996D02*
X952500Y590804D01*
X977900Y590804D02*
X977900Y602996D01*
X1028700Y602996D02*
X1028700Y590804D01*
X1003300Y590804D02*
X1003300Y602996D01*
X1028700Y667004D02*
X1028700Y679196D01*
X1003300Y679196D02*
X1003300Y667004D01*
X977900Y667004D02*
X977900Y679196D01*
X952500Y679196D02*
X952500Y667004D01*
X927100Y667004D02*
X927100Y679196D01*
X901700Y679196D02*
X901700Y667004D01*
X901700Y475996D02*
X901700Y463804D01*
X927100Y463804D02*
X927100Y475996D01*
X1054100Y475996D02*
X1054100Y463804D01*
X1054100Y540004D02*
X1054100Y552196D01*
X952500Y475996D02*
X952500Y463804D01*
X977900Y463804D02*
X977900Y475996D01*
X1028700Y475996D02*
X1028700Y463804D01*
X1003300Y463804D02*
X1003300Y475996D01*
X1028700Y540004D02*
X1028700Y552196D01*
X1003300Y552196D02*
X1003300Y540004D01*
X977900Y540004D02*
X977900Y552196D01*
X952500Y552196D02*
X952500Y540004D01*
X927100Y540004D02*
X927100Y552196D01*
X901700Y552196D02*
X901700Y540004D01*
X901700Y971804D02*
X901700Y983996D01*
X927100Y983996D02*
X927100Y971804D01*
X1054100Y971804D02*
X1054100Y983996D01*
X1054100Y1048004D02*
X1054100Y1060196D01*
X952500Y983996D02*
X952500Y971804D01*
X977900Y971804D02*
X977900Y983996D01*
X1028700Y983996D02*
X1028700Y971804D01*
X1003300Y971804D02*
X1003300Y983996D01*
X1028700Y1048004D02*
X1028700Y1060196D01*
X1003300Y1060196D02*
X1003300Y1048004D01*
X977900Y1048004D02*
X977900Y1060196D01*
X952500Y1060196D02*
X952500Y1048004D01*
X927100Y1048004D02*
X927100Y1060196D01*
X901700Y1060196D02*
X901700Y1048004D01*
X1485900Y221996D02*
X1485900Y209804D01*
X1511300Y209804D02*
X1511300Y221996D01*
X1638300Y221996D02*
X1638300Y209804D01*
X1638300Y286004D02*
X1638300Y298196D01*
X1536700Y221996D02*
X1536700Y209804D01*
X1562100Y209804D02*
X1562100Y221996D01*
X1612900Y221996D02*
X1612900Y209804D01*
X1587500Y209804D02*
X1587500Y221996D01*
X1612900Y286004D02*
X1612900Y298196D01*
X1587500Y298196D02*
X1587500Y286004D01*
X1562100Y286004D02*
X1562100Y298196D01*
X1536700Y298196D02*
X1536700Y286004D01*
X1511300Y286004D02*
X1511300Y298196D01*
X1485900Y298196D02*
X1485900Y286004D01*
X1485900Y336804D02*
X1485900Y348996D01*
X1511300Y348996D02*
X1511300Y336804D01*
X1638300Y336804D02*
X1638300Y348996D01*
X1638300Y413004D02*
X1638300Y425196D01*
X1536700Y348996D02*
X1536700Y336804D01*
X1562100Y336804D02*
X1562100Y348996D01*
X1612900Y348996D02*
X1612900Y336804D01*
X1587500Y336804D02*
X1587500Y348996D01*
X1612900Y413004D02*
X1612900Y425196D01*
X1587500Y425196D02*
X1587500Y413004D01*
X1562100Y413004D02*
X1562100Y425196D01*
X1536700Y425196D02*
X1536700Y413004D01*
X1511300Y413004D02*
X1511300Y425196D01*
X1485900Y425196D02*
X1485900Y413004D01*
X1168400Y348996D02*
X1168400Y336804D01*
X1193800Y336804D02*
X1193800Y348996D01*
X1320800Y348996D02*
X1320800Y336804D01*
X1320800Y413004D02*
X1320800Y425196D01*
X1219200Y348996D02*
X1219200Y336804D01*
X1244600Y336804D02*
X1244600Y348996D01*
X1295400Y348996D02*
X1295400Y336804D01*
X1270000Y336804D02*
X1270000Y348996D01*
X1295400Y413004D02*
X1295400Y425196D01*
X1270000Y425196D02*
X1270000Y413004D01*
X1244600Y413004D02*
X1244600Y425196D01*
X1219200Y425196D02*
X1219200Y413004D01*
X1193800Y413004D02*
X1193800Y425196D01*
X1168400Y425196D02*
X1168400Y413004D01*
X1168400Y94996D02*
X1168400Y82804D01*
X1193800Y82804D02*
X1193800Y94996D01*
X1320800Y94996D02*
X1320800Y82804D01*
X1320800Y159004D02*
X1320800Y171196D01*
X1219200Y94996D02*
X1219200Y82804D01*
X1244600Y82804D02*
X1244600Y94996D01*
X1295400Y94996D02*
X1295400Y82804D01*
X1270000Y82804D02*
X1270000Y94996D01*
X1295400Y159004D02*
X1295400Y171196D01*
X1270000Y171196D02*
X1270000Y159004D01*
X1244600Y159004D02*
X1244600Y171196D01*
X1219200Y171196D02*
X1219200Y159004D01*
X1193800Y159004D02*
X1193800Y171196D01*
X1168400Y171196D02*
X1168400Y159004D01*
X1460500Y463804D02*
X1460500Y475996D01*
X1485900Y475996D02*
X1485900Y463804D01*
X1612900Y463804D02*
X1612900Y475996D01*
X1638300Y475996D02*
X1638300Y463804D01*
X1511300Y463804D02*
X1511300Y475996D01*
X1536700Y475996D02*
X1536700Y463804D01*
X1587500Y463804D02*
X1587500Y475996D01*
X1562100Y475996D02*
X1562100Y463804D01*
X1638300Y540004D02*
X1638300Y552196D01*
X1612900Y552196D02*
X1612900Y540004D01*
X1587500Y540004D02*
X1587500Y552196D01*
X1562100Y552196D02*
X1562100Y540004D01*
X1536700Y540004D02*
X1536700Y552196D01*
X1511300Y552196D02*
X1511300Y540004D01*
X1485900Y540004D02*
X1485900Y552196D01*
X1460500Y552196D02*
X1460500Y540004D01*
D11*
X482600Y749300D03*
X482600Y774700D03*
X482600Y622300D03*
X482600Y647700D03*
D12*
X1714500Y635000D03*
X1714500Y609600D03*
X1714500Y584200D03*
X1714500Y558800D03*
X1714500Y533400D03*
X1739900Y635000D03*
X1739900Y609600D03*
X1739900Y584200D03*
X1739900Y558800D03*
X1739900Y533400D03*
D13*
X50800Y177800D03*
X50800Y203200D03*
X50800Y228600D03*
X50800Y254000D03*
X50800Y279400D03*
X50800Y304800D03*
X50800Y330200D03*
X50800Y355600D03*
X50800Y381000D03*
X50800Y406400D03*
X50800Y431800D03*
X50800Y457200D03*
X50800Y482600D03*
X50800Y508000D03*
X50800Y533400D03*
X50800Y558800D03*
X76200Y177800D03*
X76200Y203200D03*
X76200Y228600D03*
X76200Y254000D03*
X76200Y279400D03*
X76200Y304800D03*
X76200Y330200D03*
X76200Y355600D03*
X76200Y381000D03*
X76200Y406400D03*
X76200Y431800D03*
X76200Y457200D03*
X76200Y482600D03*
X76200Y508000D03*
X76200Y533400D03*
X76200Y558800D03*
X101600Y177800D03*
X101600Y203200D03*
X101600Y228600D03*
X101600Y254000D03*
X101600Y279400D03*
X101600Y304800D03*
X101600Y330200D03*
X101600Y355600D03*
X101600Y381000D03*
X101600Y406400D03*
X101600Y431800D03*
X101600Y457200D03*
X101600Y482600D03*
X101600Y508000D03*
X101600Y533400D03*
X101600Y558800D03*
X50800Y584200D03*
X50800Y609600D03*
X50800Y635000D03*
X50800Y660400D03*
X50800Y685800D03*
X50800Y711200D03*
X50800Y736600D03*
X50800Y762000D03*
X50800Y787400D03*
X50800Y812800D03*
X50800Y838200D03*
X50800Y863600D03*
X50800Y889000D03*
X50800Y914400D03*
X50800Y939800D03*
X50800Y965200D03*
X76200Y584200D03*
X76200Y609600D03*
X76200Y635000D03*
X76200Y660400D03*
X76200Y685800D03*
X76200Y711200D03*
X76200Y736600D03*
X76200Y762000D03*
X76200Y787400D03*
X76200Y812800D03*
X76200Y838200D03*
X76200Y863600D03*
X76200Y889000D03*
X76200Y914400D03*
X76200Y939800D03*
X76200Y965200D03*
X101600Y584200D03*
X101600Y609600D03*
X101600Y635000D03*
X101600Y660400D03*
X101600Y685800D03*
X101600Y711200D03*
X101600Y736600D03*
X101600Y762000D03*
X101600Y787400D03*
X101600Y812800D03*
X101600Y838200D03*
X101600Y863600D03*
X101600Y889000D03*
X101600Y914400D03*
X101600Y939800D03*
X101600Y965200D03*
D14*
X1752600Y38100D03*
X1727200Y38100D03*
D15*
X1549400Y38100D03*
X1651000Y38100D03*
D16*
X101600Y55880D02*
X101600Y71120D01*
X127000Y71120D02*
X127000Y55880D01*
X152400Y55880D02*
X152400Y71120D01*
X1389380Y355600D02*
X1404620Y355600D01*
X1404620Y381000D02*
X1389380Y381000D01*
X1389380Y406400D02*
X1404620Y406400D01*
D17*
X266700Y571500D02*
X241300Y546100D01*
X266700Y571500D02*
X514350Y571500D01*
X546100Y660400D02*
X558800Y673100D01*
X546100Y660400D02*
X542925Y660400D01*
X882650Y635000D02*
X885825Y631825D01*
X882650Y635000D02*
X542925Y635000D01*
X1444625Y942975D02*
X1460500Y927100D01*
X1444625Y942975D02*
X1263650Y942975D01*
X1254125Y933450D01*
X1254125Y911225D01*
X1044575Y911225D01*
X1031875Y898525D01*
X889000Y898525D01*
X882650Y892175D01*
X574675Y892175D01*
X533400Y850900D01*
D18*
X514350Y571500D03*
X542925Y660400D03*
X885825Y631825D03*
X542925Y635000D03*
D17*
X311150Y565150D02*
X292100Y546100D01*
X311150Y565150D02*
X565150Y565150D01*
X600075Y482600D02*
X587375Y469900D01*
X584200Y469900D01*
X609600Y673100D02*
X593725Y688975D01*
X577850Y688975D01*
X869950Y479425D02*
X885825Y463550D01*
X869950Y479425D02*
X749300Y479425D01*
X742950Y485775D01*
X603250Y485775D01*
X600075Y482600D01*
X1482725Y1108075D02*
X1501775Y1089025D01*
X1482725Y1108075D02*
X895350Y1108075D01*
X892175Y1104900D01*
X866775Y1104900D01*
D18*
X565150Y565150D03*
X600075Y482600D03*
X577850Y688975D03*
X885825Y463550D03*
X1501775Y1089025D03*
X866775Y1104900D03*
D17*
X463550Y644525D02*
X419100Y644525D01*
X463550Y644525D02*
X476250Y657225D01*
X492125Y657225D01*
X501650Y647700D01*
X625475Y647700D02*
X635000Y647700D01*
X625475Y647700D02*
X501650Y647700D01*
X635000Y647700D02*
X660400Y673100D01*
X660400Y419100D02*
X676275Y403225D01*
X962025Y403225D01*
X977900Y419100D01*
X1562100Y927100D02*
X1597025Y962025D01*
X1619250Y962025D01*
X1622425Y965200D01*
X1622425Y1076325D01*
X1250950Y1076325D01*
X1231900Y1095375D01*
X1047750Y1095375D01*
X1038225Y1085850D01*
X885825Y1085850D01*
D18*
X419100Y644525D03*
X885825Y1085850D03*
X625475Y647700D03*
D17*
X403225Y485775D02*
X400050Y488950D01*
X403225Y485775D02*
X514350Y485775D01*
X527050Y498475D01*
X676275Y498475D01*
X1006475Y396875D02*
X1028700Y419100D01*
X1006475Y396875D02*
X819150Y396875D01*
X806450Y384175D01*
X720725Y384175D01*
X711200Y673100D02*
X695325Y688975D01*
X679450Y688975D01*
X1057275Y447675D02*
X1622425Y447675D01*
X1057275Y447675D02*
X1028700Y419100D01*
D18*
X400050Y488950D03*
X676275Y498475D03*
X720725Y384175D03*
X679450Y688975D03*
X1622425Y447675D03*
D17*
X727075Y327025D02*
X711200Y342900D01*
X727075Y327025D02*
X1012825Y327025D01*
X1028700Y342900D01*
X695325Y504825D02*
X393700Y504825D01*
X695325Y504825D02*
X736600Y546100D01*
X730250Y577850D02*
X711200Y596900D01*
X730250Y577850D02*
X733425Y577850D01*
X1577975Y885825D02*
X1612900Y850900D01*
X1577975Y885825D02*
X1133475Y885825D01*
X1127125Y892175D01*
X892175Y892175D01*
X885825Y885825D01*
X746125Y885825D01*
X695325Y504825D02*
X701675Y498475D01*
D18*
X393700Y504825D03*
X733425Y577850D03*
X746125Y885825D03*
X701675Y498475D03*
D17*
X669925Y530225D02*
X669925Y546100D01*
X669925Y530225D02*
X669925Y511175D01*
X669925Y546100D02*
X685800Y546100D01*
X685800Y317500D02*
X974725Y317500D01*
X685800Y317500D02*
X660400Y342900D01*
X485775Y577850D02*
X488950Y581025D01*
X600075Y581025D02*
X644525Y581025D01*
X600075Y581025D02*
X488950Y581025D01*
X644525Y581025D02*
X660400Y596900D01*
X742950Y612775D02*
X752475Y622300D01*
X742950Y612775D02*
X676275Y612775D01*
X660400Y596900D01*
X1543050Y704850D02*
X1562100Y723900D01*
X1543050Y704850D02*
X939800Y704850D01*
X936625Y701675D01*
X796925Y701675D01*
X669925Y530225D02*
X603250Y530225D01*
X600075Y533400D01*
X600075Y581025D01*
D18*
X669925Y511175D03*
X974725Y317500D03*
X485775Y577850D03*
X752475Y622300D03*
X796925Y701675D03*
D17*
X635000Y939800D02*
X609600Y965200D01*
X635000Y939800D02*
X635000Y927100D01*
X333375Y511175D02*
X292100Y469900D01*
X333375Y511175D02*
X631825Y511175D01*
X609600Y596900D02*
X625475Y612775D01*
X641350Y612775D01*
X647700Y311150D02*
X923925Y311150D01*
X647700Y311150D02*
X631825Y327025D01*
X625475Y327025D01*
X609600Y342900D01*
X1527175Y406400D02*
X1527175Y276225D01*
X1336675Y276225D01*
X1330325Y269875D01*
X1155700Y269875D01*
X1114425Y311150D01*
X923925Y311150D01*
D18*
X631825Y511175D03*
X641350Y612775D03*
X923925Y311150D03*
X1527175Y406400D03*
D17*
X584200Y939800D02*
X558800Y965200D01*
X584200Y939800D02*
X584200Y927100D01*
X295275Y523875D02*
X241300Y469900D01*
X295275Y523875D02*
X469900Y523875D01*
X476250Y530225D01*
X568325Y530225D01*
X584200Y546100D01*
X558800Y596900D02*
X574675Y612775D01*
X590550Y612775D01*
X860425Y358775D02*
X876300Y342900D01*
X860425Y358775D02*
X762000Y358775D01*
X755650Y365125D01*
X581025Y365125D01*
X558800Y342900D01*
X1438275Y1101725D02*
X1450975Y1089025D01*
X1438275Y1101725D02*
X1044575Y1101725D01*
X1041400Y1098550D01*
X850900Y1098550D01*
D18*
X590550Y612775D03*
X1450975Y1089025D03*
X850900Y1098550D03*
D17*
X1714500Y635000D02*
X1720850Y628650D01*
X1730375Y628650D01*
X1736725Y622300D01*
X1743075Y622300D01*
X1752600Y631825D01*
X1752600Y1082675D01*
X1425575Y1082675D01*
X428625Y428625D02*
X419100Y419100D01*
X460375Y428625D02*
X495300Y428625D01*
X460375Y428625D02*
X428625Y428625D01*
X495300Y428625D02*
X501650Y434975D01*
X882650Y434975D01*
X533400Y723900D02*
X517525Y708025D01*
X460375Y708025D01*
X460375Y447675D02*
X460375Y428625D01*
X860425Y596900D02*
X901700Y596900D01*
X1222375Y873125D02*
X1244600Y850900D01*
X1222375Y873125D02*
X1136650Y873125D01*
X1123950Y885825D01*
X990600Y885825D01*
X962025Y857250D01*
X962025Y835025D01*
X920750Y835025D01*
X904875Y850900D01*
X901700Y850900D01*
D18*
X1425575Y1082675D03*
X882650Y434975D03*
X460375Y708025D03*
X460375Y447675D03*
X860425Y596900D03*
D17*
X390525Y441325D02*
X368300Y419100D01*
X390525Y441325D02*
X428625Y441325D01*
X454025Y730250D02*
X457200Y733425D01*
X495300Y733425D01*
X501650Y739775D01*
X568325Y739775D01*
X584200Y723900D01*
X911225Y739775D02*
X917575Y733425D01*
X927100Y723900D01*
X911225Y739775D02*
X568325Y739775D01*
X1727200Y647700D02*
X1739900Y635000D01*
X1727200Y647700D02*
X1638300Y647700D01*
X1619250Y628650D01*
X1454150Y628650D01*
X1444625Y638175D01*
X1168400Y638175D01*
X1117600Y688975D01*
X946150Y688975D01*
X942975Y685800D01*
X942975Y619125D01*
X962025Y619125D01*
X977900Y603250D01*
X977900Y596900D01*
X1177925Y835025D02*
X1193800Y850900D01*
X1177925Y835025D02*
X993775Y835025D01*
X977900Y850900D01*
X936625Y752475D02*
X917575Y733425D01*
X936625Y752475D02*
X968375Y752475D01*
D18*
X428625Y441325D03*
X454025Y730250D03*
X968375Y752475D03*
D17*
X288925Y390525D02*
X241300Y342900D01*
X288925Y390525D02*
X384175Y390525D01*
X387350Y695325D02*
X384175Y698500D01*
X387350Y695325D02*
X603250Y695325D01*
X609600Y701675D01*
X682625Y701675D01*
X1489075Y619125D02*
X1492250Y622300D01*
X1727200Y622300D01*
X1739900Y609600D01*
X1028700Y723900D02*
X1012825Y739775D01*
X946150Y739775D01*
X1228725Y942975D02*
X1244600Y927100D01*
X1228725Y942975D02*
X968375Y942975D01*
X952500Y927100D01*
X1485900Y622300D02*
X1489075Y619125D01*
X1485900Y622300D02*
X1450975Y622300D01*
X1441450Y631825D01*
X1158875Y631825D01*
X1152525Y638175D01*
X987425Y638175D01*
X952500Y673100D01*
X787400Y701675D02*
X682625Y701675D01*
X787400Y701675D02*
X793750Y695325D01*
X920750Y695325D01*
X927100Y688975D01*
X933450Y688975D01*
X936625Y685800D01*
X936625Y660400D01*
D18*
X384175Y390525D03*
X384175Y698500D03*
X682625Y701675D03*
X1489075Y619125D03*
X946150Y739775D03*
X936625Y660400D03*
D17*
X815975Y298450D02*
X825500Y288925D01*
X815975Y298450D02*
X742950Y298450D01*
X736600Y292100D01*
X1279525Y568325D02*
X1282700Y571500D01*
X1336675Y571500D02*
X1435100Y571500D01*
X1336675Y571500D02*
X1282700Y571500D01*
X1435100Y571500D02*
X1444625Y581025D01*
X1495425Y581025D01*
X1511300Y596900D01*
X1704975Y574675D02*
X1714500Y584200D01*
X1704975Y574675D02*
X1543050Y574675D01*
X1536700Y581025D01*
X1495425Y581025D01*
X1028700Y800100D02*
X1012825Y815975D01*
X996950Y815975D01*
X990600Y809625D01*
X990600Y777875D01*
X962025Y777875D01*
X1270000Y952500D02*
X1295400Y977900D01*
X1270000Y952500D02*
X981075Y952500D01*
X774700Y561975D02*
X746125Y533400D01*
X774700Y561975D02*
X863600Y561975D01*
X895350Y530225D01*
X936625Y530225D01*
X952500Y546100D01*
D18*
X825500Y288925D03*
X1279525Y568325D03*
X962025Y777875D03*
X981075Y952500D03*
X1336675Y571500D03*
X746125Y533400D03*
D17*
X1546225Y523875D02*
X1549400Y520700D01*
X1743075Y520700D01*
X1758950Y536575D01*
X1758950Y584200D01*
X1739900Y584200D01*
X936625Y815975D02*
X911225Y815975D01*
X936625Y815975D02*
X952500Y800100D01*
X936625Y130175D02*
X762000Y130175D01*
X901700Y469900D02*
X885825Y485775D01*
X752475Y485775D01*
X746125Y492125D01*
X695325Y492125D01*
X1177925Y485775D02*
X1193800Y469900D01*
X1177925Y485775D02*
X1019175Y485775D01*
X1009650Y495300D01*
X904875Y495300D01*
X911225Y835025D02*
X698500Y835025D01*
X1530350Y561975D02*
X1533525Y565150D01*
X1530350Y561975D02*
X1444625Y561975D01*
X1419225Y536575D01*
X1333500Y536575D01*
X1304925Y508000D01*
X1203325Y508000D01*
D18*
X1546225Y523875D03*
X911225Y815975D03*
X936625Y130175D03*
X762000Y130175D03*
X695325Y492125D03*
X904875Y495300D03*
X911225Y835025D03*
X698500Y835025D03*
X1533525Y565150D03*
X1203325Y508000D03*
D17*
X600075Y815975D02*
X584200Y800100D01*
X600075Y815975D02*
X835025Y815975D01*
X850900Y800100D01*
X1616075Y568325D02*
X1708150Y568325D01*
X1711325Y571500D01*
X1717675Y571500D01*
X1730375Y558800D01*
X1739900Y558800D01*
X1089025Y530225D02*
X1044575Y530225D01*
X1028700Y546100D01*
X558800Y215900D02*
X549275Y206375D01*
X485775Y206375D01*
X1127125Y568325D02*
X1241425Y568325D01*
X1127125Y568325D02*
X1089025Y530225D01*
X828675Y1003300D02*
X838200Y1012825D01*
X1060450Y1012825D01*
D18*
X1616075Y568325D03*
X1089025Y530225D03*
X485775Y206375D03*
X1241425Y568325D03*
X828675Y1003300D03*
X1060450Y1012825D03*
D17*
X558800Y800100D02*
X542925Y815975D01*
X447675Y815975D02*
X260350Y815975D01*
X447675Y815975D02*
X542925Y815975D01*
X330200Y447675D02*
X320675Y438150D01*
X428625Y447675D02*
X431800Y447675D01*
X428625Y447675D02*
X330200Y447675D01*
X431800Y447675D02*
X434975Y444500D01*
X434975Y434975D01*
X409575Y434975D01*
X393700Y419100D01*
X533400Y625475D02*
X536575Y628650D01*
X787400Y628650D01*
X803275Y612775D01*
X882650Y612775D01*
X889000Y619125D01*
X914400Y619125D01*
X927100Y606425D01*
X927100Y596900D01*
X1139825Y695325D02*
X1143000Y698500D01*
X1139825Y695325D02*
X930275Y695325D01*
X428625Y450850D02*
X428625Y447675D01*
X428625Y584200D02*
X476250Y631825D01*
X527050Y631825D01*
X533400Y625475D01*
D18*
X260350Y815975D03*
X320675Y438150D03*
X533400Y625475D03*
X1143000Y698500D03*
X930275Y695325D03*
X428625Y450850D03*
X428625Y584200D03*
X447675Y815975D03*
D17*
X1155700Y625475D02*
X1260475Y625475D01*
X1155700Y625475D02*
X1149350Y631825D01*
X1038225Y631825D01*
X1003300Y596900D01*
X327025Y403225D02*
X311150Y403225D01*
X327025Y403225D02*
X342900Y419100D01*
X584200Y596900D02*
X596900Y609600D01*
X596900Y619125D01*
X495300Y619125D01*
X454025Y577850D01*
X346075Y577850D01*
X612775Y752475D02*
X612775Y771525D01*
X612775Y752475D02*
X549275Y752475D01*
X542925Y758825D01*
X346075Y758825D01*
X285750Y758825D01*
X987425Y200025D02*
X1003300Y215900D01*
X987425Y200025D02*
X942975Y200025D01*
X936625Y193675D01*
X327025Y193675D01*
D18*
X1260475Y625475D03*
X311150Y403225D03*
X346075Y577850D03*
X612775Y771525D03*
X346075Y758825D03*
X285750Y758825D03*
X327025Y193675D03*
D17*
X1279525Y784225D02*
X1295400Y800100D01*
X1279525Y784225D02*
X1012825Y784225D01*
X542925Y835025D02*
X457200Y835025D01*
X381000Y911225D01*
X307975Y911225D01*
X292100Y927100D01*
X1089025Y276225D02*
X1095375Y269875D01*
X1089025Y276225D02*
X1019175Y276225D01*
X1003300Y292100D01*
D18*
X1012825Y784225D03*
X542925Y835025D03*
X1095375Y269875D03*
D17*
X403225Y390525D02*
X396875Y396875D01*
X288925Y396875D01*
X266700Y419100D01*
X758825Y669925D02*
X777875Y688975D01*
X911225Y688975D01*
X927100Y673100D01*
X1219200Y800100D02*
X1235075Y815975D01*
X1301750Y815975D01*
X1304925Y812800D01*
X1304925Y777875D01*
X1162050Y777875D01*
X1149350Y765175D01*
X1009650Y765175D01*
X1003300Y771525D01*
X936625Y771525D01*
X330200Y784225D02*
X327025Y787400D01*
X330200Y784225D02*
X641350Y784225D01*
X647700Y777875D01*
X708025Y777875D01*
X282575Y784225D02*
X276225Y777875D01*
X282575Y784225D02*
X330200Y784225D01*
D18*
X403225Y390525D03*
X758825Y669925D03*
X936625Y771525D03*
X327025Y787400D03*
X708025Y777875D03*
X276225Y777875D03*
D17*
X927100Y546100D02*
X962025Y581025D01*
X1152525Y581025D01*
X1168400Y596900D01*
X752475Y657225D02*
X736600Y673100D01*
X885825Y657225D02*
X895350Y657225D01*
X885825Y657225D02*
X758825Y657225D01*
X752475Y657225D01*
X895350Y657225D02*
X939800Y612775D01*
X958850Y612775D01*
X962025Y609600D01*
X962025Y581025D01*
X736600Y673100D02*
X714375Y695325D01*
X393700Y165100D02*
X419100Y139700D01*
X511175Y139700D01*
X882650Y149225D02*
X895350Y136525D01*
X882650Y149225D02*
X796925Y149225D01*
X885825Y657225D02*
X885825Y682625D01*
D18*
X714375Y695325D03*
X511175Y139700D03*
X895350Y136525D03*
X796925Y149225D03*
X758825Y657225D03*
X885825Y682625D03*
D17*
X685800Y673100D02*
X663575Y695325D01*
X908050Y488950D02*
X927100Y469900D01*
X908050Y488950D02*
X901700Y488950D01*
X898525Y492125D01*
X898525Y511175D02*
X898525Y514350D01*
X898525Y511175D02*
X898525Y492125D01*
X898525Y514350D02*
X1108075Y514350D01*
X1111250Y511175D01*
X1196975Y511175D01*
X1216025Y530225D01*
X1235075Y530225D01*
X711200Y647700D02*
X685800Y673100D01*
X711200Y647700D02*
X765175Y647700D01*
X796925Y555625D02*
X841375Y511175D01*
X898525Y511175D01*
X660400Y292100D02*
X647700Y304800D01*
X644525Y304800D01*
X628650Y320675D01*
X396875Y320675D01*
X847725Y238125D02*
X879475Y206375D01*
X784225Y238125D02*
X676275Y238125D01*
X784225Y238125D02*
X847725Y238125D01*
X885825Y1050925D02*
X879475Y1057275D01*
X384175Y1057275D01*
X368300Y1041400D01*
D18*
X663575Y695325D03*
X1235075Y530225D03*
X765175Y647700D03*
X796925Y555625D03*
X396875Y320675D03*
X879475Y206375D03*
X676275Y238125D03*
X885825Y1050925D03*
X784225Y238125D03*
D17*
X1000125Y469900D02*
X987425Y482600D01*
X1000125Y469900D02*
X1003300Y469900D01*
X1212850Y835025D02*
X1279525Y835025D01*
X1212850Y835025D02*
X1203325Y844550D01*
X1203325Y866775D01*
X1063625Y866775D01*
X361950Y146050D02*
X342900Y165100D01*
X361950Y146050D02*
X390525Y146050D01*
X434975Y282575D02*
X463550Y311150D01*
X615950Y311150D01*
X635000Y292100D01*
X635000Y673100D02*
X612775Y695325D01*
X606425Y758825D02*
X600075Y765175D01*
X422275Y765175D01*
X447675Y752475D02*
X454025Y746125D01*
X447675Y752475D02*
X422275Y752475D01*
X857250Y447675D02*
X987425Y447675D01*
X857250Y447675D02*
X850900Y441325D01*
X466725Y441325D01*
D18*
X987425Y482600D03*
X1279525Y835025D03*
X1063625Y866775D03*
X390525Y146050D03*
X434975Y282575D03*
X612775Y695325D03*
X606425Y758825D03*
X422275Y765175D03*
X454025Y746125D03*
X422275Y752475D03*
X987425Y447675D03*
X466725Y441325D03*
D17*
X333375Y180975D02*
X317500Y165100D01*
X574675Y180975D02*
X755650Y180975D01*
X574675Y180975D02*
X333375Y180975D01*
X755650Y180975D02*
X765175Y171450D01*
X885825Y171450D01*
X895350Y180975D01*
X911225Y180975D01*
X927100Y165100D01*
X584200Y673100D02*
X568325Y688975D01*
X517525Y688975D01*
X469900Y876300D02*
X419100Y927100D01*
X1003300Y546100D02*
X1031875Y574675D01*
X1069975Y574675D01*
X508000Y1111250D02*
X482600Y1085850D01*
X508000Y1111250D02*
X889000Y1111250D01*
X942975Y180975D02*
X927100Y165100D01*
X942975Y180975D02*
X1050925Y180975D01*
X1069975Y200025D01*
D18*
X574675Y180975D03*
X517525Y688975D03*
X469900Y876300D03*
X1069975Y574675D03*
X482600Y1085850D03*
X889000Y1111250D03*
X1069975Y200025D03*
D17*
X1196975Y879475D02*
X1292225Y879475D01*
D18*
X1196975Y879475D03*
X1292225Y879475D03*
D17*
X1190625Y657225D02*
X1177925Y644525D01*
X1190625Y657225D02*
X1304925Y657225D01*
X1320800Y673100D01*
D18*
X1177925Y644525D03*
D17*
X1209675Y698500D02*
X1425575Y698500D01*
D18*
X1209675Y698500D03*
X1425575Y698500D03*
D17*
X1365250Y771525D02*
X1184275Y771525D01*
X1365250Y771525D02*
X1377950Y784225D01*
X1466850Y784225D01*
D18*
X1184275Y771525D03*
X1466850Y784225D03*
D17*
X1235075Y758825D02*
X1228725Y765175D01*
X1235075Y758825D02*
X1533525Y758825D01*
D18*
X1228725Y765175D03*
X1533525Y758825D03*
D17*
X1311275Y911225D02*
X1295400Y927100D01*
X1311275Y911225D02*
X1574800Y911225D01*
D18*
X1574800Y911225D03*
D17*
X1250950Y501650D02*
X1219200Y469900D01*
X1250950Y501650D02*
X1336675Y501650D01*
X1374775Y711200D02*
X1416050Y752475D01*
X1590675Y752475D01*
X1638300Y800100D01*
D18*
X1336675Y501650D03*
X1374775Y711200D03*
D17*
X1479550Y828675D02*
X1114425Y828675D01*
X1479550Y828675D02*
X1492250Y815975D01*
X1571625Y815975D01*
X1587500Y800100D01*
D18*
X1114425Y828675D03*
D17*
X1263650Y765175D02*
X1501775Y765175D01*
X1536700Y800100D01*
D18*
X1263650Y765175D03*
D17*
X1308100Y581025D02*
X1304925Y577850D01*
X1308100Y581025D02*
X1431925Y581025D01*
D18*
X1304925Y577850D03*
X1431925Y581025D03*
D17*
X1314450Y488950D02*
X1295400Y469900D01*
X1314450Y488950D02*
X1317625Y488950D01*
D18*
X1317625Y488950D03*
D17*
X307975Y657225D02*
X292100Y673100D01*
X307975Y657225D02*
X434975Y657225D01*
X434975Y828675D02*
X1082675Y828675D01*
X1082675Y438150D02*
X1143000Y377825D01*
X1158875Y377825D01*
X1193800Y342900D01*
D18*
X434975Y657225D03*
X434975Y828675D03*
X1082675Y828675D03*
X1082675Y438150D03*
D17*
X1000125Y765175D02*
X714375Y765175D01*
D18*
X1000125Y765175D03*
X714375Y765175D03*
D17*
X835025Y866775D02*
X860425Y841375D01*
X835025Y866775D02*
X625475Y866775D01*
X609600Y850900D01*
D18*
X860425Y841375D03*
D17*
X835025Y873125D02*
X581025Y873125D01*
X558800Y850900D01*
D18*
X835025Y873125D03*
D17*
X333375Y460375D02*
X292100Y419100D01*
X333375Y460375D02*
X333375Y495300D01*
X463550Y495300D01*
X466725Y498475D01*
X466725Y701675D02*
X600075Y701675D01*
X606425Y708025D01*
X619125Y708025D01*
X635000Y723900D01*
X939800Y711200D02*
X952500Y723900D01*
X939800Y711200D02*
X936625Y711200D01*
X933450Y708025D01*
X619125Y708025D01*
X1196975Y958850D02*
X1200150Y962025D01*
X1228725Y962025D01*
X1244600Y977900D01*
X1711325Y612775D02*
X1714500Y609600D01*
X1711325Y612775D02*
X1038225Y612775D01*
X1031875Y958850D02*
X1196975Y958850D01*
X952500Y723900D02*
X939800Y736600D01*
X939800Y746125D01*
X1019175Y746125D01*
D18*
X466725Y498475D03*
X466725Y701675D03*
X1196975Y958850D03*
X1038225Y612775D03*
X1031875Y958850D03*
X1019175Y746125D03*
D17*
X708025Y123825D02*
X695325Y111125D01*
X708025Y123825D02*
X987425Y123825D01*
X1028700Y165100D01*
X650875Y784225D02*
X635000Y800100D01*
X650875Y784225D02*
X911225Y784225D01*
X927100Y800100D01*
X1562100Y596900D02*
X1577975Y581025D01*
X1695450Y581025D01*
X1711325Y596900D01*
X1717675Y596900D01*
X1727200Y587375D01*
X1727200Y571500D01*
X1743075Y571500D01*
X1752600Y561975D01*
X1752600Y546100D01*
X1727200Y546100D01*
X1714500Y558800D01*
X1193800Y546100D02*
X1177925Y530225D01*
X1098550Y530225D01*
X1092200Y523875D01*
X1076325Y523875D02*
X987425Y523875D01*
X1076325Y523875D02*
X1092200Y523875D01*
X1711325Y561975D02*
X1714500Y558800D01*
X1711325Y561975D02*
X1546225Y561975D01*
X1536700Y571500D01*
X1444625Y571500D01*
X1435100Y561975D01*
X1209675Y561975D01*
X1193800Y546100D01*
X942975Y784225D02*
X927100Y800100D01*
X942975Y784225D02*
X984250Y784225D01*
X1076325Y523875D02*
X1076325Y520700D01*
D18*
X695325Y111125D03*
X987425Y523875D03*
X984250Y784225D03*
X1076325Y520700D03*
D17*
X822325Y898525D02*
X815975Y904875D01*
X581025Y904875D01*
X558800Y927100D01*
D18*
X822325Y898525D03*
D17*
X892175Y612775D02*
X911225Y612775D01*
X892175Y612775D02*
X882650Y603250D01*
X768350Y603250D01*
X727075Y561975D01*
X625475Y561975D01*
X609600Y546100D01*
D18*
X911225Y612775D03*
D17*
X977900Y752475D02*
X971550Y758825D01*
X669925Y758825D01*
D18*
X977900Y752475D03*
X669925Y758825D03*
D17*
X631825Y250825D02*
X352425Y250825D01*
D18*
X352425Y250825D03*
X631825Y250825D03*
D17*
X384175Y327025D02*
X368300Y342900D01*
X384175Y327025D02*
X590550Y327025D01*
D18*
X590550Y327025D03*
D17*
X409575Y358775D02*
X393700Y342900D01*
X409575Y358775D02*
X514350Y358775D01*
D18*
X514350Y358775D03*
D17*
X365125Y320675D02*
X241300Y320675D01*
X101600Y558800D02*
X88900Y571500D01*
X88900Y596900D01*
X241300Y596900D01*
X1527175Y635000D02*
X1543050Y650875D01*
X1616075Y650875D01*
X1638300Y673100D01*
X1495425Y692150D02*
X1368425Y692150D01*
X1495425Y692150D02*
X1501775Y698500D01*
X1638300Y698500D01*
X1641475Y695325D01*
X1641475Y673100D01*
X1638300Y673100D01*
X38100Y673100D02*
X38100Y806450D01*
X34925Y806450D01*
X31750Y809625D01*
X31750Y981075D01*
X133350Y981075D01*
X225425Y1073150D01*
X1177925Y1073150D01*
X1181100Y1076325D01*
X1231900Y1076325D01*
D18*
X365125Y320675D03*
X241300Y320675D03*
X1527175Y635000D03*
X1368425Y692150D03*
X38100Y673100D03*
X1231900Y1076325D03*
D17*
X384175Y320675D02*
X374650Y320675D01*
X368300Y327025D01*
X307975Y327025D02*
X234950Y327025D01*
X307975Y327025D02*
X368300Y327025D01*
X234950Y327025D02*
X120650Y441325D01*
X120650Y581025D02*
X120650Y584200D01*
X120650Y581025D02*
X120650Y441325D01*
X120650Y584200D02*
X101600Y584200D01*
X250825Y581025D02*
X266700Y596900D01*
X250825Y581025D02*
X120650Y581025D01*
X1495425Y635000D02*
X1517650Y657225D01*
X1597025Y657225D01*
X1612900Y673100D01*
X1390650Y657225D02*
X1355725Y692150D01*
X1390650Y657225D02*
X1517650Y657225D01*
X314325Y38100D02*
X307975Y44450D01*
X314325Y38100D02*
X1533525Y38100D01*
X1555750Y60325D01*
X1631950Y60325D01*
X1647825Y76200D01*
X1647825Y454025D01*
X1501775Y454025D01*
X1485900Y469900D01*
D18*
X384175Y320675D03*
X1495425Y635000D03*
X1355725Y692150D03*
X307975Y327025D03*
X307975Y44450D03*
D17*
X419100Y292100D02*
X396875Y314325D01*
X295275Y314325D01*
X1495425Y1038225D02*
X1511300Y1054100D01*
X1495425Y1038225D02*
X968375Y1038225D01*
X949325Y1019175D01*
X777875Y1019175D01*
X762000Y1003300D01*
X523875Y1003300D01*
X501650Y981075D01*
X428625Y631825D02*
X409575Y612775D01*
X307975Y612775D01*
X292100Y596900D01*
X104775Y612775D02*
X101600Y609600D01*
X104775Y612775D02*
X307975Y612775D01*
D18*
X295275Y314325D03*
X501650Y981075D03*
X428625Y631825D03*
D17*
X828675Y390525D02*
X835025Y384175D01*
X1111250Y384175D01*
X1152525Y342900D01*
X1168400Y342900D01*
D18*
X828675Y390525D03*
D17*
X327025Y530225D02*
X327025Y558800D01*
X327025Y530225D02*
X447675Y530225D01*
X450850Y466725D02*
X469900Y447675D01*
X835025Y447675D02*
X847725Y447675D01*
X835025Y447675D02*
X469900Y447675D01*
D18*
X327025Y558800D03*
X447675Y530225D03*
X450850Y466725D03*
X847725Y447675D03*
X835025Y447675D03*
X517525Y558800D03*
X441325Y708025D03*
D17*
X419100Y673100D02*
X428625Y663575D01*
X438150Y663575D01*
X441325Y660400D01*
X441325Y650875D01*
X244475Y650875D01*
D18*
X244475Y650875D03*
D17*
X1279525Y190500D02*
X1279525Y107950D01*
X1187450Y107950D01*
X1168400Y88900D01*
X1298575Y292100D02*
X1311275Y304800D01*
X1298575Y292100D02*
X1295400Y292100D01*
D18*
X1279525Y190500D03*
X1311275Y304800D03*
D17*
X533400Y673100D02*
X514350Y654050D01*
X282575Y688975D02*
X266700Y673100D01*
X282575Y688975D02*
X469900Y688975D01*
X504825Y654050D01*
X514350Y654050D01*
D18*
X514350Y654050D03*
D17*
X292100Y215900D02*
X307975Y200025D01*
X695325Y200025D01*
X711200Y215900D01*
X266700Y215900D02*
X250825Y200025D01*
X234950Y200025D01*
X231775Y203200D01*
X231775Y257175D01*
X666750Y257175D01*
D18*
X666750Y257175D03*
D17*
X257175Y231775D02*
X241300Y215900D01*
X257175Y231775D02*
X644525Y231775D01*
X660400Y215900D01*
X511175Y238125D02*
X504825Y244475D01*
X250825Y244475D01*
D18*
X511175Y238125D03*
X250825Y244475D03*
D17*
X619125Y104775D02*
X635000Y88900D01*
X619125Y104775D02*
X285750Y104775D01*
D18*
X285750Y104775D03*
D17*
X612775Y403225D02*
X625475Y390525D01*
X612775Y403225D02*
X336550Y403225D01*
D18*
X625475Y390525D03*
X336550Y403225D03*
D17*
X669925Y73025D02*
X685800Y88900D01*
X669925Y73025D02*
X260350Y73025D01*
X238125Y95250D01*
X231775Y746125D02*
X314325Y746125D01*
D18*
X238125Y95250D03*
X231775Y746125D03*
X314325Y746125D03*
D17*
X711200Y165100D02*
X685800Y139700D01*
X644525Y139700D01*
X635000Y130175D01*
X371475Y130175D01*
D18*
X371475Y130175D03*
D17*
X644525Y384175D02*
X650875Y377825D01*
X644525Y384175D02*
X371475Y384175D01*
D18*
X650875Y377825D03*
X371475Y384175D03*
D17*
X638175Y142875D02*
X660400Y165100D01*
X638175Y142875D02*
X571500Y142875D01*
X561975Y152400D01*
X428625Y152400D01*
D18*
X428625Y152400D03*
D17*
X619125Y149225D02*
X635000Y165100D01*
X619125Y149225D02*
X574675Y149225D01*
X549275Y174625D01*
X498475Y174625D01*
X454025Y790575D02*
X444500Y800100D01*
X419100Y800100D01*
D18*
X498475Y174625D03*
X454025Y790575D03*
D17*
X768350Y187325D02*
X955675Y187325D01*
X962025Y193675D01*
X1054100Y193675D01*
X1066800Y206375D01*
X1073150Y206375D01*
X1076325Y203200D01*
X1076325Y130175D01*
X1263650Y130175D01*
D18*
X768350Y187325D03*
X1263650Y130175D03*
D17*
X333375Y276225D02*
X317500Y292100D01*
X333375Y276225D02*
X577850Y276225D01*
X590550Y263525D01*
X838200Y263525D01*
X869950Y231775D01*
X1250950Y231775D01*
X1263650Y244475D01*
X1285875Y244475D01*
D18*
X1285875Y244475D03*
D17*
X1524000Y44450D02*
X390525Y44450D01*
D18*
X390525Y44450D03*
X1524000Y44450D03*
D17*
X1193800Y673100D02*
X1209675Y688975D01*
X1254125Y688975D01*
X1270000Y673100D01*
X1260475Y231775D02*
X1244600Y215900D01*
X1279525Y231775D02*
X1495425Y231775D01*
X1279525Y231775D02*
X1260475Y231775D01*
X1495425Y231775D02*
X1511300Y215900D01*
X1571625Y231775D02*
X1587500Y215900D01*
X1571625Y231775D02*
X1495425Y231775D01*
X1279525Y231775D02*
X1279525Y238125D01*
D18*
X1279525Y238125D03*
D17*
X215900Y850900D02*
X200025Y866775D01*
X180975Y866775D01*
X155575Y841375D01*
X139700Y841375D01*
X139700Y654050D02*
X133350Y647700D01*
X63500Y647700D01*
X50800Y635000D01*
D18*
X139700Y841375D03*
X139700Y654050D03*
D17*
X241300Y828675D02*
X241300Y850900D01*
X241300Y828675D02*
X222250Y828675D01*
X212725Y819150D01*
X120650Y819150D01*
D18*
X120650Y819150D03*
D17*
X244475Y873125D02*
X266700Y850900D01*
X244475Y873125D02*
X177800Y873125D01*
X155575Y850900D01*
X139700Y850900D01*
X133350Y730250D02*
X133350Y698500D01*
X63500Y698500D01*
X50800Y685800D01*
D18*
X139700Y850900D03*
X133350Y730250D03*
D17*
X263525Y879475D02*
X292100Y850900D01*
X263525Y879475D02*
X177800Y879475D01*
X171450Y885825D01*
X146050Y885825D01*
X146050Y752475D02*
X117475Y723900D01*
X63500Y723900D01*
X50800Y711200D01*
D18*
X146050Y885825D03*
X146050Y752475D03*
D17*
X288925Y822325D02*
X317500Y850900D01*
X288925Y822325D02*
X234950Y822325D01*
X225425Y812800D01*
X225425Y758825D02*
X114300Y758825D01*
X104775Y749300D01*
X63500Y749300D01*
X50800Y736600D01*
D18*
X225425Y812800D03*
X225425Y758825D03*
D17*
X339725Y765175D02*
X352425Y777875D01*
X339725Y765175D02*
X114300Y765175D01*
X104775Y774700D01*
X63500Y774700D01*
X50800Y762000D01*
D18*
X352425Y777875D03*
D17*
X368300Y850900D02*
X333375Y885825D01*
X200025Y885825D01*
X165100Y812800D02*
X152400Y800100D01*
X63500Y800100D01*
X50800Y787400D01*
D18*
X200025Y885825D03*
X165100Y812800D03*
D17*
X352425Y892175D02*
X393700Y850900D01*
X352425Y892175D02*
X120650Y892175D01*
X104775Y876300D01*
X47625Y876300D01*
X38100Y866775D01*
X38100Y812800D01*
X50800Y812800D01*
X63500Y825500D02*
X200025Y825500D01*
X63500Y825500D02*
X50800Y838200D01*
D18*
X200025Y825500D03*
D17*
X212725Y835025D02*
X215900Y831850D01*
X212725Y835025D02*
X120650Y835025D01*
X104775Y850900D01*
X63500Y850900D01*
X50800Y863600D01*
D18*
X215900Y831850D03*
D17*
X266700Y723900D02*
X282575Y708025D01*
X307975Y708025D01*
X301625Y898525D02*
X288925Y911225D01*
X114300Y911225D01*
X104775Y901700D01*
X63500Y901700D01*
X50800Y889000D01*
D18*
X307975Y708025D03*
X301625Y898525D03*
D17*
X292100Y771525D02*
X184150Y771525D01*
X161925Y793750D01*
X152400Y793750D01*
D18*
X292100Y771525D03*
X152400Y793750D03*
D17*
X114300Y631825D02*
X307975Y631825D01*
X114300Y631825D02*
X104775Y622300D01*
X73025Y622300D01*
X63500Y612775D01*
X63500Y546100D01*
X104775Y546100D01*
X114300Y536575D01*
X114300Y241300D01*
X88900Y241300D01*
X76200Y228600D01*
D18*
X307975Y631825D03*
D17*
X342900Y723900D02*
X327025Y739775D01*
X209550Y739775D01*
D18*
X209550Y739775D03*
D17*
X346075Y701675D02*
X368300Y723900D01*
X346075Y701675D02*
X193675Y701675D01*
D18*
X193675Y701675D03*
D17*
X365125Y695325D02*
X393700Y723900D01*
X365125Y695325D02*
X161925Y695325D01*
X133350Y666750D01*
X117475Y666750D01*
D18*
X117475Y666750D03*
D17*
X1638300Y292100D02*
X1638300Y231775D01*
X1631950Y231775D01*
X1628775Y228600D01*
X1628775Y66675D01*
X228600Y66675D01*
D18*
X228600Y66675D03*
D17*
X1485900Y673100D02*
X1504950Y692150D01*
X1635125Y692150D01*
D18*
X1635125Y692150D03*
D17*
X1520825Y711200D02*
X1520825Y746125D01*
X1606550Y746125D01*
X1647825Y787400D01*
X1647825Y911225D01*
X1603375Y911225D01*
X1587500Y927100D01*
D18*
X1520825Y711200D03*
D17*
X1485900Y927100D02*
X1520825Y962025D01*
X1546225Y962025D01*
X1562100Y977900D01*
X1184275Y1069975D02*
X1168400Y1054100D01*
X1444625Y1069975D02*
X1571625Y1069975D01*
X1444625Y1069975D02*
X1184275Y1069975D01*
X1571625Y1069975D02*
X1587500Y1054100D01*
X1511300Y495300D02*
X1536700Y469900D01*
X1511300Y495300D02*
X1489075Y495300D01*
D18*
X1489075Y495300D03*
X1444625Y1069975D03*
D17*
X1241425Y892175D02*
X1228725Y904875D01*
X1241425Y892175D02*
X1593850Y892175D01*
X1622425Y863600D01*
X1622425Y835025D01*
X1552575Y835025D01*
X1536700Y850900D01*
D18*
X1228725Y904875D03*
D17*
X1279525Y873125D02*
X1285875Y866775D01*
X1571625Y866775D01*
X1587500Y850900D01*
D18*
X1279525Y873125D03*
D17*
X1400175Y822325D02*
X1101725Y822325D01*
X384175Y822325D01*
X1101725Y822325D02*
X1101725Y796925D01*
D18*
X384175Y822325D03*
X1400175Y822325D03*
X1101725Y796925D03*
D17*
X1168400Y977900D02*
X1184275Y993775D01*
X1597025Y993775D01*
X1612900Y977900D01*
X1638300Y657225D02*
X1616075Y635000D01*
X1638300Y657225D02*
X1644650Y657225D01*
X1654175Y666750D01*
X1654175Y1054100D01*
X1638300Y1054100D01*
D18*
X1616075Y635000D03*
D17*
X1238250Y438150D02*
X1219200Y419100D01*
X1238250Y438150D02*
X1317625Y438150D01*
X107950Y641350D02*
X101600Y635000D01*
X107950Y641350D02*
X136525Y641350D01*
X174625Y1031875D02*
X222250Y1079500D01*
X1174750Y1079500D01*
X1184275Y1089025D01*
X1228725Y1089025D01*
D18*
X1317625Y438150D03*
X136525Y641350D03*
X174625Y1031875D03*
X1228725Y1089025D03*
D17*
X568325Y244475D02*
X574675Y238125D01*
X666750Y238125D01*
X673100Y231775D01*
X844550Y231775D01*
X876300Y200025D01*
X933450Y200025D01*
X949325Y215900D01*
X952500Y215900D01*
D18*
X568325Y244475D03*
D17*
X593725Y269875D02*
X593725Y304800D01*
X593725Y269875D02*
X857250Y269875D01*
X869950Y257175D01*
X1000125Y257175D01*
D18*
X593725Y304800D03*
X1000125Y257175D03*
D17*
X787400Y371475D02*
X638175Y371475D01*
X787400Y371475D02*
X793750Y377825D01*
X949325Y377825D01*
X958850Y368300D01*
X1041400Y368300D01*
D18*
X638175Y371475D03*
X1041400Y368300D03*
D17*
X701675Y358775D02*
X685800Y342900D01*
X701675Y358775D02*
X752475Y358775D01*
X777875Y292100D02*
X787400Y282575D01*
X889000Y282575D01*
X895350Y276225D01*
X962025Y276225D01*
X977900Y292100D01*
D18*
X752475Y358775D03*
X777875Y292100D03*
D17*
X812800Y415925D02*
X809625Y419100D01*
X736600Y419100D01*
D18*
X812800Y415925D03*
D17*
X676275Y257175D02*
X688975Y244475D01*
X790575Y244475D01*
D18*
X676275Y257175D03*
X790575Y244475D03*
D17*
X663575Y133350D02*
X692150Y104775D01*
X993775Y104775D01*
X1054100Y165100D01*
D18*
X663575Y133350D03*
D17*
X622300Y276225D02*
X619125Y279400D01*
X622300Y276225D02*
X831850Y276225D01*
D18*
X619125Y279400D03*
X831850Y276225D03*
D17*
X860425Y568325D02*
X873125Y581025D01*
X936625Y581025D01*
X952500Y596900D01*
D18*
X860425Y568325D03*
D17*
X911225Y390525D02*
X1025525Y390525D01*
D18*
X911225Y390525D03*
X1025525Y390525D03*
D17*
X965200Y377825D02*
X962025Y374650D01*
X965200Y377825D02*
X1108075Y377825D01*
X1108075Y644525D02*
X1079500Y673100D01*
X1054100Y673100D01*
D18*
X962025Y374650D03*
X1108075Y377825D03*
X1108075Y644525D03*
D17*
X1022350Y361950D02*
X1003300Y342900D01*
X1022350Y361950D02*
X1025525Y361950D01*
X1044575Y644525D02*
X1031875Y657225D01*
X993775Y657225D01*
X977900Y673100D01*
D18*
X1025525Y361950D03*
X1044575Y644525D03*
D17*
X955675Y441325D02*
X962025Y434975D01*
X987425Y434975D01*
X1003300Y419100D01*
D18*
X955675Y441325D03*
D17*
X962025Y482600D02*
X968375Y488950D01*
X1006475Y488950D01*
X1025525Y469900D01*
X1028700Y469900D01*
D18*
X962025Y482600D03*
D17*
X911225Y501650D02*
X1050925Y501650D01*
D18*
X911225Y501650D03*
X1050925Y501650D03*
D17*
X549275Y981075D02*
X533400Y965200D01*
X549275Y981075D02*
X590550Y981075D01*
X600075Y885825D02*
X606425Y879475D01*
X857250Y879475D01*
X869950Y866775D01*
X936625Y866775D01*
X952500Y850900D01*
D18*
X590550Y981075D03*
X600075Y885825D03*
D17*
X584200Y965200D02*
X615950Y996950D01*
X866775Y996950D01*
X869950Y993775D01*
X1035050Y993775D01*
X1041400Y987425D01*
D18*
X1041400Y987425D03*
D17*
X657225Y942975D02*
X635000Y965200D01*
X657225Y942975D02*
X692150Y942975D01*
X701675Y933450D01*
X701675Y911225D01*
X885825Y911225D01*
X892175Y904875D01*
X1028700Y904875D01*
X1050925Y927100D01*
X1054100Y927100D01*
X708025Y942975D02*
X685800Y965200D01*
X708025Y942975D02*
X863600Y942975D01*
X895350Y911225D01*
X962025Y911225D01*
X977900Y927100D01*
X739775Y1044575D02*
X736600Y1041400D01*
X739775Y1044575D02*
X889000Y1044575D01*
X895350Y1038225D01*
X958850Y1038225D01*
X974725Y1054100D01*
X977900Y1054100D01*
X701675Y1025525D02*
X685800Y1041400D01*
X701675Y1025525D02*
X857250Y1025525D01*
X869950Y1038225D01*
X885825Y1038225D01*
X898525Y1025525D01*
X904875Y1025525D01*
D18*
X904875Y1025525D03*
D17*
X641350Y987425D02*
X638175Y990600D01*
X641350Y987425D02*
X869950Y987425D01*
X895350Y962025D01*
X1012825Y962025D01*
X1028700Y977900D01*
D18*
X638175Y990600D03*
D17*
X587375Y1085850D02*
X593725Y1092200D01*
X1009650Y1092200D01*
D18*
X587375Y1085850D03*
X1009650Y1092200D03*
D17*
X1612900Y828675D02*
X1628775Y812800D01*
X1612900Y828675D02*
X1489075Y828675D01*
X1482725Y835025D01*
X1311275Y835025D01*
X1295400Y850900D01*
D18*
X1628775Y812800D03*
D17*
X1412875Y546100D02*
X1416050Y542925D01*
X1412875Y546100D02*
X1320800Y546100D01*
D18*
X1416050Y542925D03*
D17*
X1292225Y314325D02*
X1270000Y292100D01*
X1292225Y314325D02*
X1390650Y314325D01*
D18*
X1390650Y314325D03*
D17*
X342900Y292100D02*
X327025Y307975D01*
X311150Y307975D01*
X307975Y304800D01*
X307975Y269875D01*
X441325Y269875D01*
X473075Y454025D02*
X1114425Y454025D01*
X1711325Y530225D02*
X1714500Y533400D01*
X1711325Y530225D02*
X1403350Y530225D01*
X1327150Y454025D01*
X1114425Y454025D01*
D18*
X441325Y269875D03*
X473075Y454025D03*
X1114425Y454025D03*
D17*
X1244600Y419100D02*
X1295400Y368300D01*
X1431925Y368300D01*
X1485900Y314325D01*
D18*
X1485900Y314325D03*
D17*
X1343025Y441325D02*
X1320800Y419100D01*
X1343025Y441325D02*
X1562100Y441325D01*
X1571625Y431800D01*
X1571625Y361950D01*
X1543050Y361950D01*
X1536700Y355600D01*
X1536700Y342900D01*
X1577975Y155575D02*
X1511300Y88900D01*
X1577975Y155575D02*
X1577975Y193675D01*
X1612900Y193675D01*
X1622425Y203200D01*
X1622425Y419100D01*
X1612900Y419100D01*
X301625Y165100D02*
X301625Y111125D01*
X301625Y165100D02*
X292100Y165100D01*
D18*
X301625Y111125D03*
D17*
X88900Y520700D02*
X101600Y533400D01*
X88900Y520700D02*
X88900Y247650D01*
X85725Y247650D01*
X79375Y241300D01*
X73025Y241300D01*
X63500Y231775D01*
X63500Y146050D01*
X101600Y107950D01*
X101600Y63500D01*
X101600Y914400D02*
X193675Y1006475D01*
X504825Y1006475D01*
X514350Y1016000D01*
X765175Y1016000D01*
X854075Y263525D02*
X866775Y250825D01*
X1317625Y250825D01*
D18*
X765175Y1016000D03*
X854075Y263525D03*
X1317625Y250825D03*
D17*
X1495425Y60325D02*
X222250Y60325D01*
D18*
X1495425Y60325D03*
X222250Y60325D03*
D17*
X1336675Y387350D02*
X1384300Y434975D01*
X1546225Y434975D01*
X1562100Y419100D01*
D18*
X1336675Y387350D03*
D17*
X190500Y723900D02*
X174625Y708025D01*
X168275Y708025D02*
X152400Y708025D01*
X168275Y708025D02*
X174625Y708025D01*
X152400Y708025D02*
X130175Y685800D01*
X101600Y685800D01*
X441325Y723900D02*
X508000Y723900D01*
X425450Y739775D02*
X412750Y752475D01*
X425450Y739775D02*
X441325Y723900D01*
X412750Y752475D02*
X212725Y752475D01*
X168275Y708025D01*
X533400Y746125D02*
X539750Y752475D01*
X533400Y746125D02*
X495300Y746125D01*
X488950Y739775D01*
X425450Y739775D01*
D18*
X539750Y752475D03*
D17*
X530225Y492125D02*
X508000Y469900D01*
X1092200Y139700D02*
X1168400Y215900D01*
X1092200Y139700D02*
X1082675Y139700D01*
X225425Y660400D02*
X101600Y660400D01*
X225425Y660400D02*
X247650Y638175D01*
X530225Y638175D01*
D18*
X530225Y492125D03*
X1082675Y139700D03*
X530225Y638175D03*
D17*
X1193800Y292100D02*
X1228725Y327025D01*
X1368425Y327025D01*
X1397000Y355600D01*
X88900Y673100D02*
X88900Y692150D01*
X88900Y673100D02*
X47625Y673100D01*
X38100Y663575D01*
X38100Y158750D01*
X41275Y158750D01*
X88900Y111125D01*
X88900Y12700D01*
X1095375Y12700D01*
X1108075Y25400D01*
D18*
X88900Y692150D03*
X1108075Y25400D03*
D17*
X1549400Y38100D02*
X1558925Y47625D01*
X1743075Y47625D01*
X1752600Y38100D01*
X1577975Y257175D02*
X1212850Y257175D01*
X1577975Y257175D02*
X1612900Y292100D01*
X561975Y898525D02*
X533400Y927100D01*
X561975Y898525D02*
X796925Y898525D01*
X889000Y273050D02*
X898525Y263525D01*
X1130300Y263525D01*
X1136650Y257175D01*
X1212850Y257175D01*
D18*
X1212850Y257175D03*
X796925Y898525D03*
X889000Y273050D03*
D17*
X1219200Y292100D02*
X1235075Y276225D01*
X1327150Y276225D01*
X1063625Y790575D02*
X1054100Y800100D01*
X1063625Y790575D02*
X1120775Y790575D01*
D18*
X1327150Y276225D03*
X1120775Y790575D03*
D17*
X1203325Y765175D02*
X1228725Y739775D01*
X1279525Y739775D01*
X1295400Y723900D01*
D18*
X1203325Y765175D03*
D17*
X1190625Y581025D02*
X1184275Y574675D01*
X1190625Y581025D02*
X1279525Y581025D01*
X1295400Y596900D01*
D18*
X1184275Y574675D03*
D17*
X1270000Y215900D02*
X1244600Y190500D01*
X1171575Y190500D01*
X1108075Y50800D02*
X295275Y50800D01*
D18*
X1171575Y190500D03*
X1108075Y50800D03*
X295275Y50800D03*
D17*
X1501775Y104775D02*
X1562100Y165100D01*
X1501775Y104775D02*
X1358900Y104775D01*
X1327150Y73025D01*
X812800Y73025D01*
X758825Y1009650D02*
X517525Y1009650D01*
X450850Y942975D01*
X231775Y942975D01*
X215900Y927100D01*
D18*
X812800Y73025D03*
X758825Y1009650D03*
D17*
X269875Y314325D02*
X292100Y292100D01*
X269875Y314325D02*
X238125Y314325D01*
X123825Y428625D01*
D18*
X123825Y428625D03*
D17*
X250825Y187325D02*
X384175Y187325D01*
X250825Y187325D02*
X127000Y63500D01*
D18*
X384175Y187325D03*
D17*
X1270000Y419100D02*
X1308100Y381000D01*
X1397000Y381000D01*
X1381125Y200025D02*
X1270000Y88900D01*
X1381125Y200025D02*
X1597025Y200025D01*
X1612900Y215900D01*
M02*
