G04 EAGLE Gerber RS-274X export*
G75*
%MOMM*%
%FSLAX34Y34*%
%LPD*%
%INTop Copper*%
%IPPOS*%
%AMOC8*
5,1,8,0,0,1.08239X$1,22.5*%
G01*
%ADD10C,1.219200*%
%ADD11C,1.219200*%
%ADD12P,1.814519X8X22.500000*%
%ADD13P,1.814519X8X202.500000*%
%ADD14C,1.778000*%
%ADD15C,1.651000*%
%ADD16C,1.524000*%
%ADD17P,1.814519X8X292.500000*%
%ADD18C,2.200000*%
%ADD19C,1.700000*%
%ADD20P,1.814519X8X112.500000*%
%ADD21P,1.319650X8X202.500000*%
%ADD22P,1.319650X8X292.500000*%
%ADD23P,1.649562X8X202.500000*%
%ADD24P,1.319650X8X112.500000*%
%ADD25P,1.649562X8X292.500000*%
%ADD26C,0.127000*%
%ADD27C,0.457200*%


D10*
X806704Y1092200D02*
X818896Y1092200D01*
X818896Y1066800D02*
X806704Y1066800D01*
X806704Y939800D02*
X818896Y939800D01*
X818896Y914400D02*
X806704Y914400D01*
X806704Y1041400D02*
X818896Y1041400D01*
X818896Y1016000D02*
X806704Y1016000D01*
X806704Y965200D02*
X818896Y965200D01*
X818896Y990600D02*
X806704Y990600D01*
X806704Y889000D02*
X818896Y889000D01*
X818896Y863600D02*
X806704Y863600D01*
X882904Y863600D02*
X895096Y863600D01*
X895096Y889000D02*
X882904Y889000D01*
X882904Y914400D02*
X895096Y914400D01*
X895096Y939800D02*
X882904Y939800D01*
X882904Y965200D02*
X895096Y965200D01*
X895096Y990600D02*
X882904Y990600D01*
X882904Y1016000D02*
X895096Y1016000D01*
X895096Y1041400D02*
X882904Y1041400D01*
X882904Y1066800D02*
X895096Y1066800D01*
X895096Y1092200D02*
X882904Y1092200D01*
X818896Y774700D02*
X806704Y774700D01*
X806704Y749300D02*
X818896Y749300D01*
X818896Y622300D02*
X806704Y622300D01*
X806704Y596900D02*
X818896Y596900D01*
X818896Y723900D02*
X806704Y723900D01*
X806704Y698500D02*
X818896Y698500D01*
X818896Y647700D02*
X806704Y647700D01*
X806704Y673100D02*
X818896Y673100D01*
X818896Y571500D02*
X806704Y571500D01*
X806704Y546100D02*
X818896Y546100D01*
X882904Y546100D02*
X895096Y546100D01*
X895096Y571500D02*
X882904Y571500D01*
X882904Y596900D02*
X895096Y596900D01*
X895096Y622300D02*
X882904Y622300D01*
X882904Y647700D02*
X895096Y647700D01*
X895096Y673100D02*
X882904Y673100D01*
X882904Y698500D02*
X895096Y698500D01*
X895096Y723900D02*
X882904Y723900D01*
X882904Y749300D02*
X895096Y749300D01*
X895096Y774700D02*
X882904Y774700D01*
X508000Y615696D02*
X508000Y603504D01*
X533400Y603504D02*
X533400Y615696D01*
X660400Y615696D02*
X660400Y603504D01*
X685800Y603504D02*
X685800Y615696D01*
X558800Y615696D02*
X558800Y603504D01*
X584200Y603504D02*
X584200Y615696D01*
X635000Y615696D02*
X635000Y603504D01*
X609600Y603504D02*
X609600Y615696D01*
X711200Y615696D02*
X711200Y603504D01*
X736600Y603504D02*
X736600Y615696D01*
X736600Y679704D02*
X736600Y691896D01*
X711200Y691896D02*
X711200Y679704D01*
X685800Y679704D02*
X685800Y691896D01*
X660400Y691896D02*
X660400Y679704D01*
X635000Y679704D02*
X635000Y691896D01*
X609600Y691896D02*
X609600Y679704D01*
X584200Y679704D02*
X584200Y691896D01*
X558800Y691896D02*
X558800Y679704D01*
X533400Y679704D02*
X533400Y691896D01*
X508000Y691896D02*
X508000Y679704D01*
X215900Y336296D02*
X215900Y324104D01*
X241300Y324104D02*
X241300Y336296D01*
X368300Y336296D02*
X368300Y324104D01*
X393700Y324104D02*
X393700Y336296D01*
X266700Y336296D02*
X266700Y324104D01*
X292100Y324104D02*
X292100Y336296D01*
X342900Y336296D02*
X342900Y324104D01*
X317500Y324104D02*
X317500Y336296D01*
X419100Y336296D02*
X419100Y324104D01*
X444500Y324104D02*
X444500Y336296D01*
X444500Y400304D02*
X444500Y412496D01*
X419100Y412496D02*
X419100Y400304D01*
X393700Y400304D02*
X393700Y412496D01*
X368300Y412496D02*
X368300Y400304D01*
X342900Y400304D02*
X342900Y412496D01*
X317500Y412496D02*
X317500Y400304D01*
X292100Y400304D02*
X292100Y412496D01*
X266700Y412496D02*
X266700Y400304D01*
X241300Y400304D02*
X241300Y412496D01*
X215900Y412496D02*
X215900Y400304D01*
X215900Y984504D02*
X215900Y996696D01*
X241300Y996696D02*
X241300Y984504D01*
X368300Y984504D02*
X368300Y996696D01*
X393700Y996696D02*
X393700Y984504D01*
X266700Y984504D02*
X266700Y996696D01*
X292100Y996696D02*
X292100Y984504D01*
X342900Y984504D02*
X342900Y996696D01*
X317500Y996696D02*
X317500Y984504D01*
X419100Y984504D02*
X419100Y996696D01*
X444500Y996696D02*
X444500Y984504D01*
X444500Y1060704D02*
X444500Y1072896D01*
X419100Y1072896D02*
X419100Y1060704D01*
X393700Y1060704D02*
X393700Y1072896D01*
X368300Y1072896D02*
X368300Y1060704D01*
X342900Y1060704D02*
X342900Y1072896D01*
X317500Y1072896D02*
X317500Y1060704D01*
X292100Y1060704D02*
X292100Y1072896D01*
X266700Y1072896D02*
X266700Y1060704D01*
X241300Y1060704D02*
X241300Y1072896D01*
X215900Y1072896D02*
X215900Y1060704D01*
X806704Y444500D02*
X818896Y444500D01*
X818896Y419100D02*
X806704Y419100D01*
X806704Y292100D02*
X818896Y292100D01*
X818896Y266700D02*
X806704Y266700D01*
X806704Y393700D02*
X818896Y393700D01*
X818896Y368300D02*
X806704Y368300D01*
X806704Y317500D02*
X818896Y317500D01*
X818896Y342900D02*
X806704Y342900D01*
X806704Y241300D02*
X818896Y241300D01*
X818896Y215900D02*
X806704Y215900D01*
X882904Y215900D02*
X895096Y215900D01*
X895096Y241300D02*
X882904Y241300D01*
X882904Y266700D02*
X895096Y266700D01*
X895096Y292100D02*
X882904Y292100D01*
X882904Y317500D02*
X895096Y317500D01*
X895096Y342900D02*
X882904Y342900D01*
X882904Y368300D02*
X895096Y368300D01*
X895096Y393700D02*
X882904Y393700D01*
X882904Y419100D02*
X895096Y419100D01*
X895096Y444500D02*
X882904Y444500D01*
X1066800Y221996D02*
X1066800Y209804D01*
X1092200Y209804D02*
X1092200Y221996D01*
X1219200Y221996D02*
X1219200Y209804D01*
X1244600Y209804D02*
X1244600Y221996D01*
X1117600Y221996D02*
X1117600Y209804D01*
X1143000Y209804D02*
X1143000Y221996D01*
X1193800Y221996D02*
X1193800Y209804D01*
X1168400Y209804D02*
X1168400Y221996D01*
X1270000Y221996D02*
X1270000Y209804D01*
X1295400Y209804D02*
X1295400Y221996D01*
X1295400Y286004D02*
X1295400Y298196D01*
X1270000Y298196D02*
X1270000Y286004D01*
X1244600Y286004D02*
X1244600Y298196D01*
X1219200Y298196D02*
X1219200Y286004D01*
X1193800Y286004D02*
X1193800Y298196D01*
X1168400Y298196D02*
X1168400Y286004D01*
X1143000Y286004D02*
X1143000Y298196D01*
X1117600Y298196D02*
X1117600Y286004D01*
X1092200Y286004D02*
X1092200Y298196D01*
X1066800Y298196D02*
X1066800Y286004D01*
X1066800Y94996D02*
X1066800Y82804D01*
X1092200Y82804D02*
X1092200Y94996D01*
X1219200Y94996D02*
X1219200Y82804D01*
X1244600Y82804D02*
X1244600Y94996D01*
X1117600Y94996D02*
X1117600Y82804D01*
X1143000Y82804D02*
X1143000Y94996D01*
X1193800Y94996D02*
X1193800Y82804D01*
X1168400Y82804D02*
X1168400Y94996D01*
X1270000Y94996D02*
X1270000Y82804D01*
X1295400Y82804D02*
X1295400Y94996D01*
X1295400Y159004D02*
X1295400Y171196D01*
X1270000Y171196D02*
X1270000Y159004D01*
X1244600Y159004D02*
X1244600Y171196D01*
X1219200Y171196D02*
X1219200Y159004D01*
X1193800Y159004D02*
X1193800Y171196D01*
X1168400Y171196D02*
X1168400Y159004D01*
X1143000Y159004D02*
X1143000Y171196D01*
X1117600Y171196D02*
X1117600Y159004D01*
X1092200Y159004D02*
X1092200Y171196D01*
X1066800Y171196D02*
X1066800Y159004D01*
X1295400Y1009904D02*
X1295400Y1022096D01*
X1320800Y1022096D02*
X1320800Y1009904D01*
X1447800Y1009904D02*
X1447800Y1022096D01*
X1473200Y1022096D02*
X1473200Y1009904D01*
X1346200Y1009904D02*
X1346200Y1022096D01*
X1371600Y1022096D02*
X1371600Y1009904D01*
X1422400Y1009904D02*
X1422400Y1022096D01*
X1397000Y1022096D02*
X1397000Y1009904D01*
X1473200Y1086104D02*
X1473200Y1098296D01*
X1447800Y1098296D02*
X1447800Y1086104D01*
X1422400Y1086104D02*
X1422400Y1098296D01*
X1397000Y1098296D02*
X1397000Y1086104D01*
X1371600Y1086104D02*
X1371600Y1098296D01*
X1346200Y1098296D02*
X1346200Y1086104D01*
X1320800Y1086104D02*
X1320800Y1098296D01*
X1295400Y1098296D02*
X1295400Y1086104D01*
X1282700Y755396D02*
X1282700Y743204D01*
X1308100Y743204D02*
X1308100Y755396D01*
X1435100Y755396D02*
X1435100Y743204D01*
X1460500Y743204D02*
X1460500Y755396D01*
X1333500Y755396D02*
X1333500Y743204D01*
X1358900Y743204D02*
X1358900Y755396D01*
X1409700Y755396D02*
X1409700Y743204D01*
X1384300Y743204D02*
X1384300Y755396D01*
X1460500Y819404D02*
X1460500Y831596D01*
X1435100Y831596D02*
X1435100Y819404D01*
X1409700Y819404D02*
X1409700Y831596D01*
X1384300Y831596D02*
X1384300Y819404D01*
X1358900Y819404D02*
X1358900Y831596D01*
X1333500Y831596D02*
X1333500Y819404D01*
X1308100Y819404D02*
X1308100Y831596D01*
X1282700Y831596D02*
X1282700Y819404D01*
X1320800Y475996D02*
X1320800Y463804D01*
X1346200Y463804D02*
X1346200Y475996D01*
X1473200Y475996D02*
X1473200Y463804D01*
X1498600Y463804D02*
X1498600Y475996D01*
X1371600Y475996D02*
X1371600Y463804D01*
X1397000Y463804D02*
X1397000Y475996D01*
X1447800Y475996D02*
X1447800Y463804D01*
X1422400Y463804D02*
X1422400Y475996D01*
X1524000Y475996D02*
X1524000Y463804D01*
X1549400Y463804D02*
X1549400Y475996D01*
X1549400Y540004D02*
X1549400Y552196D01*
X1524000Y552196D02*
X1524000Y540004D01*
X1498600Y540004D02*
X1498600Y552196D01*
X1473200Y552196D02*
X1473200Y540004D01*
X1447800Y540004D02*
X1447800Y552196D01*
X1422400Y552196D02*
X1422400Y540004D01*
X1397000Y540004D02*
X1397000Y552196D01*
X1371600Y552196D02*
X1371600Y540004D01*
X1346200Y540004D02*
X1346200Y552196D01*
X1320800Y552196D02*
X1320800Y540004D01*
X508000Y463296D02*
X508000Y451104D01*
X533400Y451104D02*
X533400Y463296D01*
X660400Y463296D02*
X660400Y451104D01*
X685800Y451104D02*
X685800Y463296D01*
X558800Y463296D02*
X558800Y451104D01*
X584200Y451104D02*
X584200Y463296D01*
X635000Y463296D02*
X635000Y451104D01*
X609600Y451104D02*
X609600Y463296D01*
X711200Y463296D02*
X711200Y451104D01*
X736600Y451104D02*
X736600Y463296D01*
X736600Y527304D02*
X736600Y539496D01*
X711200Y539496D02*
X711200Y527304D01*
X685800Y527304D02*
X685800Y539496D01*
X660400Y539496D02*
X660400Y527304D01*
X635000Y527304D02*
X635000Y539496D01*
X609600Y539496D02*
X609600Y527304D01*
X584200Y527304D02*
X584200Y539496D01*
X558800Y539496D02*
X558800Y527304D01*
X533400Y527304D02*
X533400Y539496D01*
X508000Y539496D02*
X508000Y527304D01*
X190500Y82296D02*
X190500Y70104D01*
X215900Y70104D02*
X215900Y82296D01*
X342900Y82296D02*
X342900Y70104D01*
X368300Y70104D02*
X368300Y82296D01*
X241300Y82296D02*
X241300Y70104D01*
X266700Y70104D02*
X266700Y82296D01*
X317500Y82296D02*
X317500Y70104D01*
X292100Y70104D02*
X292100Y82296D01*
X368300Y146304D02*
X368300Y158496D01*
X342900Y158496D02*
X342900Y146304D01*
X317500Y146304D02*
X317500Y158496D01*
X292100Y158496D02*
X292100Y146304D01*
X266700Y146304D02*
X266700Y158496D01*
X241300Y158496D02*
X241300Y146304D01*
X215900Y146304D02*
X215900Y158496D01*
X190500Y158496D02*
X190500Y146304D01*
X1066800Y616204D02*
X1066800Y628396D01*
X1092200Y628396D02*
X1092200Y616204D01*
X1219200Y616204D02*
X1219200Y628396D01*
X1244600Y628396D02*
X1244600Y616204D01*
X1117600Y616204D02*
X1117600Y628396D01*
X1143000Y628396D02*
X1143000Y616204D01*
X1193800Y616204D02*
X1193800Y628396D01*
X1168400Y628396D02*
X1168400Y616204D01*
X1244600Y692404D02*
X1244600Y704596D01*
X1219200Y704596D02*
X1219200Y692404D01*
X1193800Y692404D02*
X1193800Y704596D01*
X1168400Y704596D02*
X1168400Y692404D01*
X1143000Y692404D02*
X1143000Y704596D01*
X1117600Y704596D02*
X1117600Y692404D01*
X1092200Y692404D02*
X1092200Y704596D01*
X1066800Y704596D02*
X1066800Y692404D01*
X508000Y336296D02*
X508000Y324104D01*
X533400Y324104D02*
X533400Y336296D01*
X660400Y336296D02*
X660400Y324104D01*
X685800Y324104D02*
X685800Y336296D01*
X558800Y336296D02*
X558800Y324104D01*
X584200Y324104D02*
X584200Y336296D01*
X635000Y336296D02*
X635000Y324104D01*
X609600Y324104D02*
X609600Y336296D01*
X711200Y336296D02*
X711200Y324104D01*
X736600Y324104D02*
X736600Y336296D01*
X736600Y400304D02*
X736600Y412496D01*
X711200Y412496D02*
X711200Y400304D01*
X685800Y400304D02*
X685800Y412496D01*
X660400Y412496D02*
X660400Y400304D01*
X635000Y400304D02*
X635000Y412496D01*
X609600Y412496D02*
X609600Y400304D01*
X584200Y400304D02*
X584200Y412496D01*
X558800Y412496D02*
X558800Y400304D01*
X533400Y400304D02*
X533400Y412496D01*
X508000Y412496D02*
X508000Y400304D01*
X1066800Y870204D02*
X1066800Y882396D01*
X1092200Y882396D02*
X1092200Y870204D01*
X1219200Y870204D02*
X1219200Y882396D01*
X1219200Y946404D02*
X1219200Y958596D01*
X1117600Y882396D02*
X1117600Y870204D01*
X1143000Y870204D02*
X1143000Y882396D01*
X1193800Y882396D02*
X1193800Y870204D01*
X1168400Y870204D02*
X1168400Y882396D01*
X1193800Y946404D02*
X1193800Y958596D01*
X1168400Y958596D02*
X1168400Y946404D01*
X1143000Y946404D02*
X1143000Y958596D01*
X1117600Y958596D02*
X1117600Y946404D01*
X1092200Y946404D02*
X1092200Y958596D01*
X1066800Y958596D02*
X1066800Y946404D01*
X406400Y209296D02*
X406400Y197104D01*
X431800Y197104D02*
X431800Y209296D01*
X558800Y209296D02*
X558800Y197104D01*
X558800Y273304D02*
X558800Y285496D01*
X457200Y209296D02*
X457200Y197104D01*
X482600Y197104D02*
X482600Y209296D01*
X533400Y209296D02*
X533400Y197104D01*
X508000Y197104D02*
X508000Y209296D01*
X533400Y273304D02*
X533400Y285496D01*
X508000Y285496D02*
X508000Y273304D01*
X482600Y273304D02*
X482600Y285496D01*
X457200Y285496D02*
X457200Y273304D01*
X431800Y273304D02*
X431800Y285496D01*
X406400Y285496D02*
X406400Y273304D01*
X508000Y730504D02*
X508000Y742696D01*
X533400Y742696D02*
X533400Y730504D01*
X660400Y730504D02*
X660400Y742696D01*
X660400Y806704D02*
X660400Y818896D01*
X558800Y742696D02*
X558800Y730504D01*
X584200Y730504D02*
X584200Y742696D01*
X635000Y742696D02*
X635000Y730504D01*
X609600Y730504D02*
X609600Y742696D01*
X635000Y806704D02*
X635000Y818896D01*
X609600Y818896D02*
X609600Y806704D01*
X584200Y806704D02*
X584200Y818896D01*
X558800Y818896D02*
X558800Y806704D01*
X533400Y806704D02*
X533400Y818896D01*
X508000Y818896D02*
X508000Y806704D01*
D11*
X1066800Y1016000D03*
X1219200Y1016000D03*
X1219200Y1092200D03*
X1066800Y1092200D03*
D10*
X1320800Y348996D02*
X1320800Y336804D01*
X1346200Y336804D02*
X1346200Y348996D01*
X1473200Y348996D02*
X1473200Y336804D01*
X1498600Y336804D02*
X1498600Y348996D01*
X1371600Y348996D02*
X1371600Y336804D01*
X1397000Y336804D02*
X1397000Y348996D01*
X1447800Y348996D02*
X1447800Y336804D01*
X1422400Y336804D02*
X1422400Y348996D01*
X1524000Y348996D02*
X1524000Y336804D01*
X1549400Y336804D02*
X1549400Y348996D01*
X1549400Y413004D02*
X1549400Y425196D01*
X1524000Y425196D02*
X1524000Y413004D01*
X1498600Y413004D02*
X1498600Y425196D01*
X1473200Y425196D02*
X1473200Y413004D01*
X1447800Y413004D02*
X1447800Y425196D01*
X1422400Y425196D02*
X1422400Y413004D01*
X1397000Y413004D02*
X1397000Y425196D01*
X1371600Y425196D02*
X1371600Y413004D01*
X1346200Y413004D02*
X1346200Y425196D01*
X1320800Y425196D02*
X1320800Y413004D01*
X1066800Y743204D02*
X1066800Y755396D01*
X1092200Y755396D02*
X1092200Y743204D01*
X1219200Y743204D02*
X1219200Y755396D01*
X1219200Y819404D02*
X1219200Y831596D01*
X1117600Y755396D02*
X1117600Y743204D01*
X1143000Y743204D02*
X1143000Y755396D01*
X1193800Y755396D02*
X1193800Y743204D01*
X1168400Y743204D02*
X1168400Y755396D01*
X1193800Y819404D02*
X1193800Y831596D01*
X1168400Y831596D02*
X1168400Y819404D01*
X1143000Y819404D02*
X1143000Y831596D01*
X1117600Y831596D02*
X1117600Y819404D01*
X1092200Y819404D02*
X1092200Y831596D01*
X1066800Y831596D02*
X1066800Y819404D01*
X1282700Y870204D02*
X1282700Y882396D01*
X1308100Y882396D02*
X1308100Y870204D01*
X1435100Y870204D02*
X1435100Y882396D01*
X1435100Y946404D02*
X1435100Y958596D01*
X1333500Y882396D02*
X1333500Y870204D01*
X1358900Y870204D02*
X1358900Y882396D01*
X1409700Y882396D02*
X1409700Y870204D01*
X1384300Y870204D02*
X1384300Y882396D01*
X1409700Y946404D02*
X1409700Y958596D01*
X1384300Y958596D02*
X1384300Y946404D01*
X1358900Y946404D02*
X1358900Y958596D01*
X1333500Y958596D02*
X1333500Y946404D01*
X1308100Y946404D02*
X1308100Y958596D01*
X1282700Y958596D02*
X1282700Y946404D01*
D12*
X1524000Y927100D03*
X1625600Y927100D03*
D13*
X1625600Y889000D03*
X1524000Y889000D03*
D10*
X190500Y209296D02*
X190500Y197104D01*
X215900Y197104D02*
X215900Y209296D01*
X342900Y209296D02*
X342900Y197104D01*
X342900Y273304D02*
X342900Y285496D01*
X241300Y209296D02*
X241300Y197104D01*
X266700Y197104D02*
X266700Y209296D01*
X317500Y209296D02*
X317500Y197104D01*
X292100Y197104D02*
X292100Y209296D01*
X317500Y273304D02*
X317500Y285496D01*
X292100Y285496D02*
X292100Y273304D01*
X266700Y273304D02*
X266700Y285496D01*
X241300Y285496D02*
X241300Y273304D01*
X215900Y273304D02*
X215900Y285496D01*
X190500Y285496D02*
X190500Y273304D01*
X1384300Y221996D02*
X1384300Y209804D01*
X1409700Y209804D02*
X1409700Y221996D01*
X1536700Y221996D02*
X1536700Y209804D01*
X1536700Y286004D02*
X1536700Y298196D01*
X1435100Y221996D02*
X1435100Y209804D01*
X1460500Y209804D02*
X1460500Y221996D01*
X1511300Y221996D02*
X1511300Y209804D01*
X1485900Y209804D02*
X1485900Y221996D01*
X1511300Y286004D02*
X1511300Y298196D01*
X1485900Y298196D02*
X1485900Y286004D01*
X1460500Y286004D02*
X1460500Y298196D01*
X1435100Y298196D02*
X1435100Y286004D01*
X1409700Y286004D02*
X1409700Y298196D01*
X1384300Y298196D02*
X1384300Y286004D01*
D12*
X1524000Y1079500D03*
X1625600Y1079500D03*
X1524000Y1041400D03*
X1625600Y1041400D03*
D10*
X1657604Y1092200D02*
X1669796Y1092200D01*
X1669796Y1066800D02*
X1657604Y1066800D01*
X1657604Y1041400D02*
X1669796Y1041400D01*
D14*
X1714500Y1092200D03*
X1714500Y1041400D03*
D12*
X1524000Y1003300D03*
X1625600Y1003300D03*
D13*
X1625600Y965200D03*
X1524000Y965200D03*
D10*
X1657604Y939800D02*
X1669796Y939800D01*
X1669796Y914400D02*
X1657604Y914400D01*
X1657604Y889000D02*
X1669796Y889000D01*
D14*
X1714500Y939800D03*
X1714500Y889000D03*
D10*
X736600Y82296D02*
X736600Y70104D01*
X762000Y70104D02*
X762000Y82296D01*
X889000Y82296D02*
X889000Y70104D01*
X889000Y146304D02*
X889000Y158496D01*
X787400Y82296D02*
X787400Y70104D01*
X812800Y70104D02*
X812800Y82296D01*
X863600Y82296D02*
X863600Y70104D01*
X838200Y70104D02*
X838200Y82296D01*
X863600Y146304D02*
X863600Y158496D01*
X838200Y158496D02*
X838200Y146304D01*
X812800Y146304D02*
X812800Y158496D01*
X787400Y158496D02*
X787400Y146304D01*
X762000Y146304D02*
X762000Y158496D01*
X736600Y158496D02*
X736600Y146304D01*
X1066800Y463804D02*
X1066800Y475996D01*
X1092200Y475996D02*
X1092200Y463804D01*
X1219200Y463804D02*
X1219200Y475996D01*
X1219200Y540004D02*
X1219200Y552196D01*
X1117600Y475996D02*
X1117600Y463804D01*
X1143000Y463804D02*
X1143000Y475996D01*
X1193800Y475996D02*
X1193800Y463804D01*
X1168400Y463804D02*
X1168400Y475996D01*
X1193800Y540004D02*
X1193800Y552196D01*
X1168400Y552196D02*
X1168400Y540004D01*
X1143000Y540004D02*
X1143000Y552196D01*
X1117600Y552196D02*
X1117600Y540004D01*
X1092200Y540004D02*
X1092200Y552196D01*
X1066800Y552196D02*
X1066800Y540004D01*
X508000Y984504D02*
X508000Y996696D01*
X533400Y996696D02*
X533400Y984504D01*
X660400Y984504D02*
X660400Y996696D01*
X685800Y996696D02*
X685800Y984504D01*
X558800Y984504D02*
X558800Y996696D01*
X584200Y996696D02*
X584200Y984504D01*
X635000Y984504D02*
X635000Y996696D01*
X609600Y996696D02*
X609600Y984504D01*
X711200Y984504D02*
X711200Y996696D01*
X736600Y996696D02*
X736600Y984504D01*
X736600Y1060704D02*
X736600Y1072896D01*
X711200Y1072896D02*
X711200Y1060704D01*
X685800Y1060704D02*
X685800Y1072896D01*
X660400Y1072896D02*
X660400Y1060704D01*
X635000Y1060704D02*
X635000Y1072896D01*
X609600Y1072896D02*
X609600Y1060704D01*
X584200Y1060704D02*
X584200Y1072896D01*
X558800Y1072896D02*
X558800Y1060704D01*
X533400Y1060704D02*
X533400Y1072896D01*
X508000Y1072896D02*
X508000Y1060704D01*
X508000Y869696D02*
X508000Y857504D01*
X533400Y857504D02*
X533400Y869696D01*
X660400Y869696D02*
X660400Y857504D01*
X685800Y857504D02*
X685800Y869696D01*
X558800Y869696D02*
X558800Y857504D01*
X584200Y857504D02*
X584200Y869696D01*
X635000Y869696D02*
X635000Y857504D01*
X609600Y857504D02*
X609600Y869696D01*
X711200Y869696D02*
X711200Y857504D01*
X736600Y857504D02*
X736600Y869696D01*
X736600Y933704D02*
X736600Y945896D01*
X711200Y945896D02*
X711200Y933704D01*
X685800Y933704D02*
X685800Y945896D01*
X660400Y945896D02*
X660400Y933704D01*
X635000Y933704D02*
X635000Y945896D01*
X609600Y945896D02*
X609600Y933704D01*
X584200Y933704D02*
X584200Y945896D01*
X558800Y945896D02*
X558800Y933704D01*
X533400Y933704D02*
X533400Y945896D01*
X508000Y945896D02*
X508000Y933704D01*
X1066800Y348996D02*
X1066800Y336804D01*
X1092200Y336804D02*
X1092200Y348996D01*
X1219200Y348996D02*
X1219200Y336804D01*
X1219200Y413004D02*
X1219200Y425196D01*
X1117600Y348996D02*
X1117600Y336804D01*
X1143000Y336804D02*
X1143000Y348996D01*
X1193800Y348996D02*
X1193800Y336804D01*
X1168400Y336804D02*
X1168400Y348996D01*
X1193800Y413004D02*
X1193800Y425196D01*
X1168400Y425196D02*
X1168400Y413004D01*
X1143000Y413004D02*
X1143000Y425196D01*
X1117600Y425196D02*
X1117600Y413004D01*
X1092200Y413004D02*
X1092200Y425196D01*
X1066800Y425196D02*
X1066800Y413004D01*
X1308100Y616204D02*
X1308100Y628396D01*
X1333500Y628396D02*
X1333500Y616204D01*
X1460500Y616204D02*
X1460500Y628396D01*
X1460500Y692404D02*
X1460500Y704596D01*
X1358900Y628396D02*
X1358900Y616204D01*
X1384300Y616204D02*
X1384300Y628396D01*
X1435100Y628396D02*
X1435100Y616204D01*
X1409700Y616204D02*
X1409700Y628396D01*
X1435100Y692404D02*
X1435100Y704596D01*
X1409700Y704596D02*
X1409700Y692404D01*
X1384300Y692404D02*
X1384300Y704596D01*
X1358900Y704596D02*
X1358900Y692404D01*
X1333500Y692404D02*
X1333500Y704596D01*
X1308100Y704596D02*
X1308100Y692404D01*
X215900Y857504D02*
X215900Y869696D01*
X241300Y869696D02*
X241300Y857504D01*
X368300Y857504D02*
X368300Y869696D01*
X393700Y869696D02*
X393700Y857504D01*
X266700Y857504D02*
X266700Y869696D01*
X292100Y869696D02*
X292100Y857504D01*
X342900Y857504D02*
X342900Y869696D01*
X317500Y869696D02*
X317500Y857504D01*
X419100Y857504D02*
X419100Y869696D01*
X444500Y869696D02*
X444500Y857504D01*
X444500Y933704D02*
X444500Y945896D01*
X419100Y945896D02*
X419100Y933704D01*
X393700Y933704D02*
X393700Y945896D01*
X368300Y945896D02*
X368300Y933704D01*
X342900Y933704D02*
X342900Y945896D01*
X317500Y945896D02*
X317500Y933704D01*
X292100Y933704D02*
X292100Y945896D01*
X266700Y945896D02*
X266700Y933704D01*
X241300Y933704D02*
X241300Y945896D01*
X215900Y945896D02*
X215900Y933704D01*
X215900Y742696D02*
X215900Y730504D01*
X241300Y730504D02*
X241300Y742696D01*
X368300Y742696D02*
X368300Y730504D01*
X393700Y730504D02*
X393700Y742696D01*
X266700Y742696D02*
X266700Y730504D01*
X292100Y730504D02*
X292100Y742696D01*
X342900Y742696D02*
X342900Y730504D01*
X317500Y730504D02*
X317500Y742696D01*
X419100Y742696D02*
X419100Y730504D01*
X444500Y730504D02*
X444500Y742696D01*
X444500Y806704D02*
X444500Y818896D01*
X419100Y818896D02*
X419100Y806704D01*
X393700Y806704D02*
X393700Y818896D01*
X368300Y818896D02*
X368300Y806704D01*
X342900Y806704D02*
X342900Y818896D01*
X317500Y818896D02*
X317500Y806704D01*
X292100Y806704D02*
X292100Y818896D01*
X266700Y818896D02*
X266700Y806704D01*
X241300Y806704D02*
X241300Y818896D01*
X215900Y818896D02*
X215900Y806704D01*
X215900Y615696D02*
X215900Y603504D01*
X241300Y603504D02*
X241300Y615696D01*
X368300Y615696D02*
X368300Y603504D01*
X393700Y603504D02*
X393700Y615696D01*
X266700Y615696D02*
X266700Y603504D01*
X292100Y603504D02*
X292100Y615696D01*
X342900Y615696D02*
X342900Y603504D01*
X317500Y603504D02*
X317500Y615696D01*
X419100Y615696D02*
X419100Y603504D01*
X444500Y603504D02*
X444500Y615696D01*
X444500Y679704D02*
X444500Y691896D01*
X419100Y691896D02*
X419100Y679704D01*
X393700Y679704D02*
X393700Y691896D01*
X368300Y691896D02*
X368300Y679704D01*
X342900Y679704D02*
X342900Y691896D01*
X317500Y691896D02*
X317500Y679704D01*
X292100Y679704D02*
X292100Y691896D01*
X266700Y691896D02*
X266700Y679704D01*
X241300Y679704D02*
X241300Y691896D01*
X215900Y691896D02*
X215900Y679704D01*
D15*
X1041400Y139700D03*
X1041400Y114300D03*
X1041400Y266700D03*
X1041400Y241300D03*
X1041400Y393700D03*
X1041400Y368300D03*
X419100Y127000D03*
X419100Y101600D03*
X1282700Y673100D03*
X1282700Y647700D03*
X1295400Y520700D03*
X1295400Y495300D03*
X1041400Y673100D03*
X1041400Y647700D03*
X1041400Y800100D03*
X1041400Y774700D03*
X838200Y469900D03*
X863600Y469900D03*
X482600Y381000D03*
X482600Y355600D03*
X863600Y1117600D03*
X838200Y1117600D03*
X381000Y254000D03*
X381000Y228600D03*
X838200Y800100D03*
X863600Y800100D03*
X711200Y101600D03*
X711200Y127000D03*
X482600Y508000D03*
X482600Y482600D03*
X482600Y660400D03*
X482600Y635000D03*
X482600Y787400D03*
X482600Y762000D03*
X482600Y914400D03*
X482600Y889000D03*
X190500Y1041400D03*
X190500Y1016000D03*
X482600Y1041400D03*
X482600Y1016000D03*
X190500Y914400D03*
X190500Y889000D03*
X190500Y787400D03*
X190500Y762000D03*
X190500Y660400D03*
X190500Y635000D03*
X190500Y508000D03*
X190500Y482600D03*
D10*
X215900Y463296D02*
X215900Y451104D01*
X241300Y451104D02*
X241300Y463296D01*
X368300Y463296D02*
X368300Y451104D01*
X393700Y451104D02*
X393700Y463296D01*
X266700Y463296D02*
X266700Y451104D01*
X292100Y451104D02*
X292100Y463296D01*
X342900Y463296D02*
X342900Y451104D01*
X317500Y451104D02*
X317500Y463296D01*
X419100Y463296D02*
X419100Y451104D01*
X444500Y451104D02*
X444500Y463296D01*
X444500Y527304D02*
X444500Y539496D01*
X419100Y539496D02*
X419100Y527304D01*
X393700Y527304D02*
X393700Y539496D01*
X368300Y539496D02*
X368300Y527304D01*
X342900Y527304D02*
X342900Y539496D01*
X317500Y539496D02*
X317500Y527304D01*
X292100Y527304D02*
X292100Y539496D01*
X266700Y539496D02*
X266700Y527304D01*
X241300Y527304D02*
X241300Y539496D01*
X215900Y539496D02*
X215900Y527304D01*
X444500Y82296D02*
X444500Y70104D01*
X469900Y70104D02*
X469900Y82296D01*
X596900Y82296D02*
X596900Y70104D01*
X622300Y70104D02*
X622300Y82296D01*
X495300Y82296D02*
X495300Y70104D01*
X520700Y70104D02*
X520700Y82296D01*
X571500Y82296D02*
X571500Y70104D01*
X546100Y70104D02*
X546100Y82296D01*
X647700Y82296D02*
X647700Y70104D01*
X673100Y70104D02*
X673100Y82296D01*
X673100Y146304D02*
X673100Y158496D01*
X647700Y158496D02*
X647700Y146304D01*
X622300Y146304D02*
X622300Y158496D01*
X596900Y158496D02*
X596900Y146304D01*
X571500Y146304D02*
X571500Y158496D01*
X546100Y158496D02*
X546100Y146304D01*
X520700Y146304D02*
X520700Y158496D01*
X495300Y158496D02*
X495300Y146304D01*
X469900Y146304D02*
X469900Y158496D01*
X444500Y158496D02*
X444500Y146304D01*
D15*
X1295400Y393700D03*
X1295400Y368300D03*
X1041400Y520700D03*
X1041400Y495300D03*
X190500Y381000D03*
X190500Y355600D03*
X165100Y254000D03*
X165100Y228600D03*
X165100Y127000D03*
X165100Y101600D03*
X1358900Y266700D03*
X1358900Y241300D03*
X1041400Y927100D03*
X1041400Y901700D03*
X1257300Y927100D03*
X1257300Y901700D03*
X1257300Y800100D03*
X1257300Y774700D03*
X1270000Y1066800D03*
X1270000Y1041400D03*
D10*
X1657604Y787400D02*
X1669796Y787400D01*
X1669796Y762000D02*
X1657604Y762000D01*
X1657604Y736600D02*
X1669796Y736600D01*
D14*
X1714500Y787400D03*
X1714500Y736600D03*
D10*
X1384300Y94996D02*
X1384300Y82804D01*
X1409700Y82804D02*
X1409700Y94996D01*
X1536700Y94996D02*
X1536700Y82804D01*
X1536700Y159004D02*
X1536700Y171196D01*
X1435100Y94996D02*
X1435100Y82804D01*
X1460500Y82804D02*
X1460500Y94996D01*
X1511300Y94996D02*
X1511300Y82804D01*
X1485900Y82804D02*
X1485900Y94996D01*
X1511300Y159004D02*
X1511300Y171196D01*
X1485900Y171196D02*
X1485900Y159004D01*
X1460500Y159004D02*
X1460500Y171196D01*
X1435100Y171196D02*
X1435100Y159004D01*
X1409700Y159004D02*
X1409700Y171196D01*
X1384300Y171196D02*
X1384300Y159004D01*
D16*
X1460500Y33020D02*
X1460500Y17780D01*
X1485900Y17780D02*
X1485900Y33020D01*
X1511300Y33020D02*
X1511300Y17780D01*
X1536700Y17780D02*
X1536700Y33020D01*
X1562100Y33020D02*
X1562100Y17780D01*
D15*
X1358900Y139700D03*
X1358900Y114300D03*
D17*
X1638300Y444500D03*
X1638300Y342900D03*
D10*
X622300Y209296D02*
X622300Y197104D01*
X647700Y197104D02*
X647700Y209296D01*
X774700Y209296D02*
X774700Y197104D01*
X774700Y273304D02*
X774700Y285496D01*
X673100Y209296D02*
X673100Y197104D01*
X698500Y197104D02*
X698500Y209296D01*
X749300Y209296D02*
X749300Y197104D01*
X723900Y197104D02*
X723900Y209296D01*
X749300Y273304D02*
X749300Y285496D01*
X723900Y285496D02*
X723900Y273304D01*
X698500Y273304D02*
X698500Y285496D01*
X673100Y285496D02*
X673100Y273304D01*
X647700Y273304D02*
X647700Y285496D01*
X622300Y285496D02*
X622300Y273304D01*
D18*
X1727600Y295200D03*
X1727600Y365200D03*
D19*
X1752600Y305200D03*
X1752600Y355200D03*
D20*
X1600200Y342900D03*
X1600200Y444500D03*
D18*
X1727600Y130100D03*
X1727600Y200100D03*
D19*
X1752600Y140100D03*
X1752600Y190100D03*
D20*
X1638300Y203200D03*
X1638300Y304800D03*
D21*
X1752600Y647700D03*
X1727200Y647700D03*
D22*
X1663700Y673100D03*
X1663700Y571500D03*
D15*
X596900Y228600D03*
X596900Y254000D03*
D23*
X50800Y177800D03*
X50800Y203200D03*
X50800Y228600D03*
X50800Y254000D03*
X50800Y279400D03*
X50800Y304800D03*
X50800Y330200D03*
X50800Y355600D03*
X50800Y381000D03*
X50800Y406400D03*
X50800Y431800D03*
X50800Y457200D03*
X50800Y482600D03*
X50800Y508000D03*
X50800Y533400D03*
X50800Y558800D03*
X76200Y177800D03*
X76200Y203200D03*
X76200Y228600D03*
X76200Y254000D03*
X76200Y279400D03*
X76200Y304800D03*
X76200Y330200D03*
X76200Y355600D03*
X76200Y381000D03*
X76200Y406400D03*
X76200Y431800D03*
X76200Y457200D03*
X76200Y482600D03*
X76200Y508000D03*
X76200Y533400D03*
X76200Y558800D03*
X101600Y177800D03*
X101600Y203200D03*
X101600Y228600D03*
X101600Y254000D03*
X101600Y279400D03*
X101600Y304800D03*
X101600Y330200D03*
X101600Y355600D03*
X101600Y381000D03*
X101600Y406400D03*
X101600Y431800D03*
X101600Y457200D03*
X101600Y482600D03*
X101600Y508000D03*
X101600Y533400D03*
X101600Y558800D03*
X50800Y584200D03*
X50800Y609600D03*
X50800Y635000D03*
X50800Y660400D03*
X50800Y685800D03*
X50800Y711200D03*
X50800Y736600D03*
X50800Y762000D03*
X50800Y787400D03*
X50800Y812800D03*
X50800Y838200D03*
X50800Y863600D03*
X50800Y889000D03*
X50800Y914400D03*
X50800Y939800D03*
X50800Y965200D03*
X76200Y584200D03*
X76200Y609600D03*
X76200Y635000D03*
X76200Y660400D03*
X76200Y685800D03*
X76200Y711200D03*
X76200Y736600D03*
X76200Y762000D03*
X76200Y787400D03*
X76200Y812800D03*
X76200Y838200D03*
X76200Y863600D03*
X76200Y889000D03*
X76200Y914400D03*
X76200Y939800D03*
X76200Y965200D03*
X101600Y584200D03*
X101600Y609600D03*
X101600Y635000D03*
X101600Y660400D03*
X101600Y685800D03*
X101600Y711200D03*
X101600Y736600D03*
X101600Y762000D03*
X101600Y787400D03*
X101600Y812800D03*
X101600Y838200D03*
X101600Y863600D03*
X101600Y889000D03*
X101600Y914400D03*
X101600Y939800D03*
X101600Y965200D03*
D21*
X1752600Y50800D03*
X1727200Y50800D03*
D24*
X1638300Y63500D03*
X1638300Y165100D03*
D25*
X952500Y1104900D03*
X952500Y1079500D03*
X952500Y1054100D03*
X952500Y1028700D03*
X952500Y1003300D03*
X952500Y977900D03*
X977900Y1104900D03*
X977900Y1079500D03*
X977900Y1054100D03*
X977900Y1028700D03*
X977900Y1003300D03*
X977900Y977900D03*
X952500Y952500D03*
X977900Y952500D03*
X952500Y927100D03*
X952500Y901700D03*
X952500Y876300D03*
X952500Y850900D03*
X952500Y825500D03*
X952500Y800100D03*
X977900Y927100D03*
X977900Y901700D03*
X977900Y876300D03*
X977900Y850900D03*
X977900Y825500D03*
X977900Y800100D03*
X952500Y774700D03*
X977900Y774700D03*
X952500Y749300D03*
X952500Y723900D03*
X952500Y698500D03*
X952500Y673100D03*
X952500Y647700D03*
X952500Y622300D03*
X977900Y749300D03*
X977900Y723900D03*
X977900Y698500D03*
X977900Y673100D03*
X977900Y647700D03*
X977900Y622300D03*
X952500Y520700D03*
X952500Y495300D03*
X952500Y469900D03*
X952500Y444500D03*
X952500Y419100D03*
X952500Y393700D03*
X977900Y520700D03*
X977900Y495300D03*
X977900Y469900D03*
X977900Y444500D03*
X977900Y419100D03*
X977900Y393700D03*
X952500Y368300D03*
X977900Y368300D03*
X952500Y342900D03*
X952500Y317500D03*
X952500Y292100D03*
X952500Y266700D03*
X952500Y241300D03*
X952500Y215900D03*
X977900Y342900D03*
X977900Y317500D03*
X977900Y292100D03*
X977900Y266700D03*
X977900Y241300D03*
X977900Y215900D03*
X952500Y190500D03*
X977900Y190500D03*
X952500Y165100D03*
X952500Y139700D03*
X952500Y114300D03*
X952500Y88900D03*
X952500Y63500D03*
X952500Y38100D03*
X977900Y165100D03*
X977900Y139700D03*
X977900Y114300D03*
X977900Y88900D03*
X977900Y63500D03*
X977900Y38100D03*
X952500Y584200D03*
X977900Y584200D03*
X952500Y558800D03*
X977900Y558800D03*
D10*
X1530604Y825500D02*
X1542796Y825500D01*
X1542796Y800100D02*
X1530604Y800100D01*
X1530604Y673100D02*
X1542796Y673100D01*
X1542796Y647700D02*
X1530604Y647700D01*
X1530604Y774700D02*
X1542796Y774700D01*
X1542796Y749300D02*
X1530604Y749300D01*
X1530604Y698500D02*
X1542796Y698500D01*
X1542796Y723900D02*
X1530604Y723900D01*
X1530604Y622300D02*
X1542796Y622300D01*
X1542796Y596900D02*
X1530604Y596900D01*
X1606804Y596900D02*
X1618996Y596900D01*
X1618996Y622300D02*
X1606804Y622300D01*
X1606804Y647700D02*
X1618996Y647700D01*
X1618996Y673100D02*
X1606804Y673100D01*
X1606804Y698500D02*
X1618996Y698500D01*
X1618996Y723900D02*
X1606804Y723900D01*
X1606804Y749300D02*
X1618996Y749300D01*
X1618996Y774700D02*
X1606804Y774700D01*
X1606804Y800100D02*
X1618996Y800100D01*
X1618996Y825500D02*
X1606804Y825500D01*
D16*
X88900Y1059180D02*
X88900Y1074420D01*
X63500Y1074420D02*
X63500Y1059180D01*
X38100Y1059180D02*
X38100Y1074420D01*
X1732280Y520700D02*
X1747520Y520700D01*
X1747520Y546100D02*
X1732280Y546100D01*
X1732280Y571500D02*
X1747520Y571500D01*
X1747520Y469900D02*
X1732280Y469900D01*
X1732280Y444500D02*
X1747520Y444500D01*
X1747520Y419100D02*
X1732280Y419100D01*
X1633220Y508000D02*
X1617980Y508000D01*
X1617980Y533400D02*
X1633220Y533400D01*
X63500Y1109980D02*
X63500Y1125220D01*
X38100Y1125220D02*
X38100Y1109980D01*
D26*
X1422400Y546100D02*
X1431925Y536575D01*
X1431925Y460375D01*
X1416050Y444500D01*
X1038225Y450850D02*
X1019175Y431800D01*
X1019175Y390525D01*
D27*
X1416050Y444500D03*
X1038225Y450850D03*
X1019175Y390525D03*
D26*
X990600Y584200D02*
X996950Y590550D01*
X990600Y584200D02*
X990600Y365125D01*
X987425Y361950D01*
X987425Y327025D01*
X977900Y317500D01*
D27*
X996950Y590550D03*
D26*
X1266825Y415925D02*
X1301750Y450850D01*
X1266825Y415925D02*
X1266825Y374650D01*
X1038225Y349250D02*
X1025525Y336550D01*
X1025525Y273050D01*
D27*
X1301750Y450850D03*
X1266825Y374650D03*
X1038225Y349250D03*
X1025525Y273050D03*
X1063625Y387350D03*
D26*
X1524000Y419100D02*
X1533525Y409575D01*
X1533525Y307975D01*
X1524000Y298450D01*
X1524000Y82550D01*
X1504950Y63500D01*
X1041400Y63500D02*
X1000125Y104775D01*
X1000125Y161925D01*
D27*
X1504950Y63500D03*
X1041400Y63500D03*
X1000125Y161925D03*
D26*
X1323975Y250825D02*
X1365250Y292100D01*
X1323975Y250825D02*
X1323975Y101600D01*
D27*
X1365250Y292100D03*
X1323975Y101600D03*
D26*
X1365250Y336550D02*
X1371600Y342900D01*
X1365250Y336550D02*
X1365250Y317500D01*
X1063625Y263525D02*
X1054100Y254000D01*
X1054100Y190500D01*
X1031875Y168275D01*
X993775Y168275D01*
X993775Y79375D01*
X977900Y63500D01*
D27*
X1365250Y317500D03*
X1063625Y263525D03*
D26*
X1000125Y552450D02*
X1003300Y555625D01*
X1000125Y552450D02*
X1000125Y349250D01*
D27*
X1003300Y555625D03*
X1000125Y349250D03*
D26*
X1054100Y352425D02*
X1073150Y371475D01*
X1054100Y352425D02*
X1054100Y301625D01*
D27*
X1073150Y371475D03*
X1054100Y301625D03*
D26*
X1365250Y412750D02*
X1371600Y419100D01*
X1365250Y412750D02*
X1365250Y393700D01*
X993775Y361950D02*
X990600Y358775D01*
X990600Y254000D01*
X977900Y241300D01*
D27*
X1365250Y393700D03*
X993775Y361950D03*
D26*
X1279525Y409575D02*
X1301750Y409575D01*
X1279525Y409575D02*
X1279525Y228600D01*
D27*
X1301750Y409575D03*
X1279525Y228600D03*
D26*
X1501775Y320675D02*
X1524000Y342900D01*
X1501775Y320675D02*
X1501775Y139700D01*
X1060450Y117475D02*
X1057275Y120650D01*
X1060450Y117475D02*
X1060450Y101600D01*
X1057275Y98425D01*
X1057275Y73025D01*
X1038225Y53975D01*
X968375Y53975D01*
X968375Y130175D01*
X977900Y139700D01*
D27*
X1501775Y139700D03*
X1057275Y120650D03*
D26*
X1019175Y336550D02*
X1025525Y342900D01*
X1019175Y336550D02*
X1019175Y231775D01*
X1003300Y215900D01*
X1003300Y184150D01*
X987425Y168275D01*
X987425Y98425D01*
X977900Y88900D01*
D27*
X1025525Y342900D03*
D26*
X939800Y307975D02*
X933450Y301625D01*
X939800Y307975D02*
X939800Y406400D01*
X952500Y419100D01*
D27*
X933450Y301625D03*
D26*
X727075Y1003300D02*
X723900Y1006475D01*
X727075Y1003300D02*
X727075Y822325D01*
X984250Y815975D02*
X987425Y812800D01*
X987425Y708025D01*
X977900Y698500D01*
D27*
X723900Y1006475D03*
X727075Y822325D03*
X984250Y815975D03*
D26*
X866775Y641350D02*
X857250Y631825D01*
X866775Y641350D02*
X866775Y644525D01*
D27*
X857250Y631825D03*
X866775Y644525D03*
D26*
X841375Y641350D02*
X828675Y628650D01*
X841375Y641350D02*
X841375Y644525D01*
D27*
X828675Y628650D03*
X841375Y644525D03*
D26*
X996950Y965200D02*
X1006475Y974725D01*
X996950Y965200D02*
X996950Y596900D01*
X987425Y587375D01*
X987425Y403225D01*
X977900Y393700D01*
D27*
X1006475Y974725D03*
D26*
X568325Y873125D02*
X558800Y863600D01*
X568325Y873125D02*
X568325Y958850D01*
X558800Y968375D01*
X558800Y990600D01*
X279400Y850900D02*
X266700Y863600D01*
X279400Y841375D02*
X279400Y441325D01*
X279400Y841375D02*
X279400Y850900D01*
X279400Y441325D02*
X266700Y428625D01*
X260350Y428625D01*
X260350Y450850D01*
X266700Y457200D01*
X50800Y635000D02*
X41275Y625475D01*
X41275Y542925D01*
X257175Y479425D02*
X266700Y469900D01*
X266700Y457200D01*
X511175Y92075D02*
X495300Y76200D01*
X511175Y92075D02*
X511175Y161925D01*
X542925Y193675D01*
X542925Y447675D01*
X533400Y457200D01*
X558800Y841375D02*
X558800Y863600D01*
X279400Y841375D02*
X276225Y841375D01*
D27*
X41275Y542925D03*
X257175Y479425D03*
X558800Y841375D03*
X276225Y841375D03*
D26*
X520700Y76200D02*
X546100Y76200D01*
X301625Y447675D02*
X292100Y457200D01*
X301625Y447675D02*
X301625Y434975D01*
X581025Y111125D02*
X546100Y76200D01*
X581025Y111125D02*
X581025Y168275D01*
X574675Y174625D01*
X574675Y447675D01*
X584200Y457200D01*
X600075Y990600D02*
X609600Y990600D01*
X600075Y990600D02*
X584200Y990600D01*
X295275Y860425D02*
X292100Y863600D01*
X295275Y860425D02*
X295275Y838200D01*
X577850Y835025D02*
X584200Y841375D01*
X584200Y863600D01*
X574675Y831850D02*
X574675Y711200D01*
X574675Y831850D02*
X577850Y835025D01*
X600075Y923925D02*
X600075Y990600D01*
X600075Y923925D02*
X584200Y908050D01*
X584200Y863600D01*
X574675Y466725D02*
X584200Y457200D01*
X574675Y466725D02*
X574675Y711200D01*
D27*
X301625Y434975D03*
X295275Y838200D03*
X577850Y835025D03*
X574675Y711200D03*
D26*
X660400Y863600D02*
X669925Y873125D01*
X669925Y981075D01*
X660400Y990600D01*
X596900Y76200D02*
X584200Y76200D01*
X571500Y76200D01*
X368300Y457200D02*
X355600Y469900D01*
X355600Y835025D02*
X355600Y850900D01*
X355600Y835025D02*
X355600Y701675D01*
X355600Y469900D01*
X355600Y850900D02*
X368300Y863600D01*
X368300Y438150D02*
X374650Y431800D01*
X368300Y438150D02*
X368300Y457200D01*
X584200Y171450D02*
X584200Y76200D01*
X584200Y171450D02*
X577850Y177800D01*
X577850Y304800D01*
X596900Y323850D01*
X596900Y539750D01*
X609600Y552450D01*
X628650Y552450D01*
X628650Y546100D01*
X625475Y542925D01*
X625475Y466725D01*
X635000Y457200D01*
X654050Y857250D02*
X660400Y863600D01*
X654050Y857250D02*
X654050Y835025D01*
X387350Y835025D02*
X355600Y835025D01*
D27*
X374650Y431800D03*
X355600Y701675D03*
X654050Y835025D03*
X387350Y835025D03*
D26*
X622300Y76200D02*
X647700Y76200D01*
X396875Y454025D02*
X393700Y457200D01*
X396875Y454025D02*
X396875Y428625D01*
X657225Y85725D02*
X647700Y76200D01*
X657225Y85725D02*
X657225Y314325D01*
X647700Y323850D01*
X647700Y422275D01*
X393700Y863600D02*
X384175Y873125D01*
X384175Y1038225D01*
X409575Y1063625D01*
X409575Y1085850D01*
X428625Y1104900D01*
X676275Y1104900D01*
X676275Y1000125D01*
X685800Y990600D01*
X676275Y873125D02*
X685800Y863600D01*
X676275Y873125D02*
X676275Y1000125D01*
X685800Y723900D02*
X679450Y717550D01*
X685800Y723900D02*
X685800Y863600D01*
X676275Y466725D02*
X685800Y457200D01*
X676275Y466725D02*
X676275Y561975D01*
X673100Y565150D01*
X673100Y711200D01*
X679450Y717550D01*
D27*
X396875Y428625D03*
X647700Y422275D03*
X679450Y717550D03*
D26*
X692150Y1066800D02*
X711200Y1066800D01*
X692150Y1066800D02*
X685800Y1066800D01*
X692150Y1066800D02*
X692150Y1003300D01*
X695325Y1000125D01*
X695325Y949325D01*
X685800Y939800D01*
X647700Y152400D02*
X631825Y152400D01*
X622300Y152400D01*
X631825Y152400D02*
X631825Y314325D01*
X622300Y323850D01*
X622300Y546100D01*
X695325Y930275D02*
X685800Y939800D01*
X695325Y930275D02*
X695325Y784225D01*
X692150Y781050D01*
X692150Y698500D01*
X695325Y695325D01*
X695325Y581025D01*
X692150Y577850D01*
X692150Y549275D01*
D27*
X622300Y546100D03*
X692150Y549275D03*
D26*
X374650Y539750D02*
X368300Y533400D01*
X374650Y539750D02*
X374650Y561975D01*
X679450Y565150D02*
X685800Y558800D01*
X685800Y533400D01*
X571500Y561975D02*
X571500Y152400D01*
X571500Y561975D02*
X568325Y565150D01*
X650875Y1066800D02*
X660400Y1066800D01*
X650875Y1066800D02*
X635000Y1066800D01*
X650875Y1066800D02*
X650875Y949325D01*
X660400Y939800D01*
X568325Y720725D02*
X568325Y565150D01*
X568325Y720725D02*
X571500Y723900D01*
X571500Y962025D01*
X568325Y965200D01*
D27*
X374650Y561975D03*
X679450Y565150D03*
X568325Y565150D03*
X568325Y965200D03*
D26*
X574675Y949325D02*
X584200Y939800D01*
X574675Y962025D02*
X574675Y1057275D01*
X574675Y962025D02*
X574675Y949325D01*
X574675Y1057275D02*
X584200Y1066800D01*
X609600Y1066800D01*
X546100Y152400D02*
X520700Y152400D01*
X292100Y533400D02*
X282575Y542925D01*
X282575Y555625D02*
X282575Y930275D01*
X282575Y555625D02*
X282575Y542925D01*
X282575Y930275D02*
X292100Y939800D01*
X631825Y536575D02*
X635000Y533400D01*
X631825Y536575D02*
X631825Y555625D01*
X292100Y555625D02*
X282575Y555625D01*
X50800Y787400D02*
X38100Y800100D01*
X38100Y917575D01*
X41275Y920750D01*
X546100Y555625D02*
X546100Y152400D01*
X574675Y962025D02*
X593725Y962025D01*
D27*
X631825Y555625D03*
X292100Y555625D03*
X41275Y920750D03*
X546100Y555625D03*
X593725Y962025D03*
D26*
X558800Y1066800D02*
X549275Y1066800D01*
X533400Y1066800D01*
X549275Y949325D02*
X558800Y939800D01*
X549275Y968375D02*
X549275Y1066800D01*
X549275Y968375D02*
X549275Y949325D01*
X254000Y546100D02*
X266700Y533400D01*
X254000Y828675D02*
X254000Y927100D01*
X254000Y828675D02*
X254000Y568325D01*
X254000Y546100D01*
X254000Y927100D02*
X266700Y939800D01*
X584200Y571500D02*
X584200Y533400D01*
X269875Y568325D02*
X254000Y568325D01*
X495300Y409575D02*
X495300Y152400D01*
X495300Y409575D02*
X498475Y412750D01*
X498475Y565150D01*
X549275Y968375D02*
X552450Y968375D01*
X276225Y968375D02*
X266700Y958850D01*
X266700Y939800D01*
D27*
X584200Y571500D03*
X269875Y568325D03*
X254000Y828675D03*
X498475Y565150D03*
X552450Y968375D03*
X276225Y968375D03*
D26*
X250825Y466725D02*
X241300Y457200D01*
X250825Y466725D02*
X250825Y704850D01*
X234950Y720725D01*
D27*
X234950Y720725D03*
D26*
X320675Y460375D02*
X317500Y457200D01*
X320675Y460375D02*
X320675Y517525D01*
X327025Y523875D01*
X327025Y577850D01*
X342900Y593725D01*
X352425Y593725D01*
X352425Y698500D01*
X330200Y720725D01*
X330200Y847725D01*
X327025Y850900D01*
D27*
X327025Y850900D03*
D26*
X333375Y466725D02*
X342900Y457200D01*
X333375Y466725D02*
X333375Y577850D01*
X612775Y587375D02*
X622300Y596900D01*
X622300Y850900D01*
X635000Y863600D01*
X136525Y879475D02*
X133350Y876300D01*
X133350Y590550D01*
X139700Y584200D01*
D27*
X333375Y577850D03*
X612775Y587375D03*
X136525Y879475D03*
X139700Y584200D03*
D26*
X441325Y479425D02*
X454025Y492125D01*
X454025Y654050D01*
X450850Y657225D01*
X450850Y673100D01*
X454025Y676275D01*
X454025Y790575D01*
X704850Y828675D02*
X711200Y835025D01*
X711200Y863600D01*
X50800Y914400D02*
X41275Y904875D01*
X41275Y806450D01*
X47625Y800100D01*
D27*
X441325Y479425D03*
X454025Y790575D03*
X704850Y828675D03*
X47625Y800100D03*
D26*
X403225Y517525D02*
X419100Y533400D01*
X403225Y517525D02*
X403225Y352425D01*
X698500Y927100D02*
X711200Y939800D01*
X698500Y927100D02*
X698500Y781050D01*
X695325Y777875D01*
X695325Y701675D01*
X698500Y698500D01*
X698500Y577850D01*
X422275Y568325D02*
X419100Y565150D01*
X419100Y533400D01*
D27*
X403225Y352425D03*
X698500Y577850D03*
X422275Y568325D03*
D26*
X342900Y533400D02*
X342900Y476250D01*
X352425Y466725D01*
X352425Y374650D01*
X79375Y368300D02*
X66675Y368300D01*
X66675Y263525D01*
X76200Y254000D01*
X619125Y923925D02*
X635000Y939800D01*
X619125Y923925D02*
X619125Y600075D01*
X612775Y593725D01*
X346075Y587375D02*
X342900Y584200D01*
X342900Y533400D01*
D27*
X352425Y374650D03*
X79375Y368300D03*
X612775Y593725D03*
X346075Y587375D03*
D26*
X317500Y533400D02*
X314325Y530225D01*
X314325Y511175D01*
X92075Y514350D02*
X85725Y508000D01*
X85725Y288925D01*
X76200Y279400D01*
X609600Y882650D02*
X609600Y939800D01*
X609600Y882650D02*
X596900Y869950D01*
X596900Y596900D01*
X361950Y590550D02*
X358775Y587375D01*
X358775Y511175D01*
X361950Y508000D01*
D27*
X314325Y511175D03*
X92075Y514350D03*
X596900Y596900D03*
X361950Y590550D03*
X361950Y508000D03*
D26*
X241300Y533400D02*
X234950Y527050D01*
X234950Y501650D02*
X234950Y469900D01*
X234950Y501650D02*
X234950Y527050D01*
X234950Y469900D02*
X225425Y460375D01*
X225425Y317500D01*
X542925Y930275D02*
X533400Y939800D01*
X542925Y930275D02*
X542925Y565150D01*
X517525Y539750D01*
X517525Y511175D01*
X244475Y501650D02*
X234950Y501650D01*
D27*
X225425Y317500D03*
X517525Y511175D03*
X244475Y501650D03*
D26*
X1155700Y742950D02*
X1158875Y746125D01*
X1158875Y866775D01*
X1168400Y876300D01*
X1155700Y742950D02*
X1155700Y720725D01*
X736600Y76200D02*
X742950Y69850D01*
X742950Y50800D01*
X774700Y19050D01*
X1130300Y19050D01*
X1130300Y457200D01*
X1117600Y469900D01*
X1143000Y469900D02*
X1143000Y546100D01*
X1155700Y558800D02*
X1155700Y720725D01*
X1155700Y558800D02*
X1143000Y546100D01*
D27*
X1155700Y742950D03*
X1155700Y720725D03*
D26*
X520700Y965200D02*
X511175Y974725D01*
X520700Y965200D02*
X520700Y777875D01*
X739775Y771525D02*
X749300Y762000D01*
X749300Y695325D01*
D27*
X511175Y974725D03*
X520700Y777875D03*
X739775Y771525D03*
X749300Y695325D03*
D26*
X390525Y1038225D02*
X419100Y1066800D01*
X69850Y949325D02*
X66675Y946150D01*
X66675Y755650D01*
X76200Y746125D01*
X111125Y746125D01*
X111125Y593725D01*
X101600Y584200D01*
D27*
X390525Y1038225D03*
X69850Y949325D03*
D26*
X368300Y1066800D02*
X374650Y1073150D01*
X374650Y1120775D01*
X946150Y1114425D02*
X993775Y1114425D01*
X993775Y638175D01*
X977900Y622300D01*
D27*
X374650Y1120775D03*
X946150Y1114425D03*
D26*
X774700Y330200D02*
X771525Y327025D01*
X774700Y330200D02*
X774700Y511175D01*
X771525Y514350D01*
D27*
X771525Y327025D03*
X771525Y514350D03*
X504825Y504825D03*
D26*
X292100Y1066800D02*
X339725Y1114425D01*
X444500Y1120775D02*
X825500Y1120775D01*
X825500Y1104900D01*
X866775Y1063625D01*
X866775Y812800D01*
X876300Y803275D01*
X876300Y787400D01*
X869950Y781050D01*
X869950Y688975D01*
X850900Y669925D01*
X850900Y552450D01*
X882650Y520700D01*
D27*
X339725Y1114425D03*
X444500Y1120775D03*
X882650Y520700D03*
D26*
X1384300Y749300D02*
X1393825Y758825D01*
X1393825Y1000125D01*
X1387475Y1006475D01*
X1387475Y1082675D01*
X1397000Y1092200D01*
X1143000Y292100D02*
X1139825Y288925D01*
X1139825Y238125D01*
X993775Y215900D02*
X977900Y200025D01*
X962025Y200025D01*
X962025Y149225D01*
X952500Y139700D01*
D27*
X1139825Y238125D03*
X993775Y215900D03*
D26*
X1168400Y342900D02*
X1181100Y355600D01*
X1181100Y815975D01*
X1397000Y1016000D02*
X1400175Y1012825D01*
X1400175Y885825D01*
X1409700Y876300D01*
D27*
X1181100Y815975D03*
D26*
X1336675Y479425D02*
X1346200Y469900D01*
X1336675Y479425D02*
X1336675Y596900D01*
X1346200Y606425D01*
X1346200Y1016000D01*
X1330325Y466725D02*
X1343025Y454025D01*
X1330325Y466725D02*
X1330325Y606425D01*
X1320800Y615950D01*
X1320800Y1016000D01*
D27*
X1343025Y454025D03*
D26*
X1438275Y479425D02*
X1447800Y469900D01*
X1438275Y479425D02*
X1438275Y606425D01*
X1444625Y612775D01*
X1444625Y962025D01*
X1422400Y984250D01*
X1422400Y1016000D01*
X1489075Y479425D02*
X1498600Y469900D01*
X1489075Y479425D02*
X1489075Y974725D01*
X1447800Y1016000D01*
X1333500Y749300D02*
X1343025Y739775D01*
X1343025Y609600D01*
X1339850Y606425D01*
D27*
X1339850Y606425D03*
D26*
X1495425Y549275D02*
X1498600Y546100D01*
X1495425Y549275D02*
X1495425Y739775D01*
D27*
X1495425Y739775D03*
D26*
X1397000Y565150D02*
X1393825Y561975D01*
X1397000Y565150D02*
X1397000Y736600D01*
X1409700Y749300D01*
D27*
X1393825Y561975D03*
D26*
X1400175Y549275D02*
X1397000Y546100D01*
X1400175Y549275D02*
X1400175Y714375D01*
X1435100Y749300D01*
X1000125Y314325D02*
X1000125Y196850D01*
X977900Y174625D01*
X965200Y174625D01*
X965200Y136525D01*
X958850Y130175D01*
X942975Y130175D01*
X942975Y155575D01*
X952500Y165100D01*
D27*
X1000125Y314325D03*
D26*
X568325Y415925D02*
X558800Y406400D01*
X568325Y415925D02*
X568325Y523875D01*
X558800Y533400D01*
X704850Y584200D02*
X714375Y593725D01*
X704850Y584200D02*
X704850Y546100D01*
X701675Y542925D01*
X701675Y469900D01*
D27*
X714375Y593725D03*
X701675Y469900D03*
D26*
X619125Y415925D02*
X609600Y406400D01*
X619125Y504825D02*
X619125Y523875D01*
X619125Y504825D02*
X619125Y415925D01*
X619125Y523875D02*
X609600Y533400D01*
X914400Y581025D02*
X936625Y603250D01*
X914400Y581025D02*
X914400Y523875D01*
X619125Y504825D02*
X615950Y504825D01*
D27*
X936625Y603250D03*
X914400Y523875D03*
X615950Y504825D03*
D26*
X669925Y415925D02*
X660400Y406400D01*
X669925Y415925D02*
X669925Y523875D01*
X660400Y533400D01*
X1158875Y688975D02*
X1168400Y698500D01*
X1158875Y688975D02*
X1158875Y609600D01*
X1162050Y606425D01*
X660400Y587375D02*
X660400Y533400D01*
D27*
X1162050Y606425D03*
X660400Y587375D03*
D26*
X720725Y415925D02*
X711200Y406400D01*
X720725Y415925D02*
X720725Y523875D01*
X711200Y533400D01*
X1133475Y688975D02*
X1143000Y698500D01*
X1133475Y688975D02*
X1133475Y558800D01*
D27*
X1133475Y558800D03*
D26*
X311150Y120650D02*
X266700Y76200D01*
X666750Y133350D02*
X701675Y133350D01*
X701675Y187325D01*
X711200Y196850D01*
X711200Y330200D01*
X701675Y447675D02*
X711200Y457200D01*
X701675Y447675D02*
X701675Y339725D01*
X711200Y330200D01*
D27*
X311150Y120650D03*
X666750Y133350D03*
D26*
X660400Y47625D02*
X511175Y47625D01*
X660400Y47625D02*
X660400Y330200D01*
X654050Y450850D02*
X660400Y457200D01*
X654050Y450850D02*
X654050Y419100D01*
X650875Y415925D01*
X650875Y339725D01*
X660400Y330200D01*
D27*
X511175Y47625D03*
D26*
X317500Y177800D02*
X292100Y152400D01*
X584200Y177800D02*
X609600Y203200D01*
X609600Y330200D01*
X600075Y447675D02*
X609600Y457200D01*
X600075Y447675D02*
X600075Y339725D01*
X609600Y330200D01*
D27*
X317500Y177800D03*
X584200Y177800D03*
D26*
X552450Y174625D02*
X549275Y177800D01*
X549275Y320675D01*
X558800Y330200D01*
X549275Y447675D02*
X558800Y457200D01*
X549275Y447675D02*
X549275Y320675D01*
D27*
X552450Y174625D03*
D26*
X339725Y231775D02*
X292100Y279400D01*
D27*
X339725Y231775D03*
D26*
X939800Y279400D02*
X942975Y276225D01*
X942975Y200025D01*
X952500Y190500D01*
D27*
X939800Y279400D03*
D26*
X784225Y171450D02*
X755650Y171450D01*
X784225Y171450D02*
X784225Y838200D01*
X787400Y841375D01*
X1111250Y841375D02*
X1117600Y847725D01*
X1117600Y876300D01*
X1450975Y708025D02*
X1460500Y698500D01*
X1450975Y708025D02*
X1450975Y793750D01*
D27*
X755650Y171450D03*
X787400Y841375D03*
X1111250Y841375D03*
X1450975Y793750D03*
D26*
X327025Y288925D02*
X317500Y279400D01*
X327025Y288925D02*
X327025Y339725D01*
X320675Y346075D01*
X314325Y346075D01*
X301625Y333375D01*
X301625Y320675D01*
X295275Y314325D01*
X282575Y314325D01*
X282575Y339725D01*
X307975Y365125D01*
X307975Y565150D01*
X333375Y590550D01*
X333375Y644525D01*
X600075Y666750D02*
X603250Y663575D01*
X600075Y666750D02*
X600075Y727075D01*
X609600Y736600D01*
D27*
X333375Y644525D03*
X603250Y663575D03*
D26*
X352425Y288925D02*
X342900Y279400D01*
X352425Y288925D02*
X352425Y304800D01*
X508000Y304800D02*
X520700Y317500D01*
X520700Y444500D01*
X508000Y457200D01*
X523875Y523875D02*
X533400Y533400D01*
X523875Y523875D02*
X523875Y473075D01*
X508000Y457200D01*
X546100Y822325D02*
X565150Y841375D01*
X546100Y822325D02*
X546100Y561975D01*
X533400Y549275D01*
X533400Y533400D01*
D27*
X352425Y304800D03*
X508000Y304800D03*
X565150Y841375D03*
D26*
X511175Y739775D02*
X508000Y736600D01*
X511175Y739775D02*
X511175Y765175D01*
X911225Y790575D02*
X914400Y787400D01*
X911225Y790575D02*
X911225Y838200D01*
X930275Y857250D01*
D27*
X511175Y765175D03*
X914400Y787400D03*
X930275Y857250D03*
D26*
X276225Y695325D02*
X266700Y685800D01*
X276225Y695325D02*
X276225Y803275D01*
X266700Y812800D01*
X276225Y444500D02*
X266700Y434975D01*
X276225Y444500D02*
X276225Y695325D01*
D27*
X266700Y434975D03*
D26*
X317500Y685800D02*
X327025Y695325D01*
X327025Y803275D01*
X317500Y812800D01*
X130175Y581025D02*
X130175Y415925D01*
X323850Y590550D02*
X327025Y593725D01*
X327025Y695325D01*
D27*
X130175Y415925D03*
X130175Y581025D03*
X323850Y590550D03*
D26*
X368300Y685800D02*
X377825Y695325D01*
X377825Y803275D01*
X368300Y812800D01*
X174625Y450850D02*
X177800Y447675D01*
X174625Y450850D02*
X174625Y828675D01*
D27*
X177800Y447675D03*
X174625Y828675D03*
D26*
X1377950Y82550D02*
X1384300Y88900D01*
X1377950Y82550D02*
X1377950Y53975D01*
X1343025Y19050D01*
X730250Y19050D02*
X454025Y19050D01*
X454025Y161925D01*
X422275Y193675D01*
X422275Y314325D01*
X428625Y320675D01*
X428625Y419100D01*
X425450Y422275D01*
X425450Y444500D01*
X428625Y447675D01*
X428625Y479425D02*
X428625Y600075D01*
X428625Y479425D02*
X428625Y447675D01*
X428625Y600075D02*
X419100Y609600D01*
X409575Y727075D02*
X419100Y736600D01*
X409575Y727075D02*
X409575Y619125D01*
X419100Y609600D01*
X412750Y479425D02*
X428625Y479425D01*
D27*
X1343025Y19050D03*
X730250Y19050D03*
X412750Y479425D03*
D26*
X368300Y609600D02*
X358775Y619125D01*
X358775Y698500D01*
X368300Y708025D01*
X368300Y736600D01*
X1381125Y60325D02*
X1409700Y88900D01*
X1381125Y60325D02*
X1381125Y50800D01*
X1349375Y19050D01*
X450850Y12700D02*
X393700Y69850D01*
X393700Y311150D01*
X381000Y323850D01*
X381000Y517525D02*
X381000Y590550D01*
X381000Y517525D02*
X381000Y323850D01*
X381000Y590550D02*
X368300Y603250D01*
X368300Y609600D01*
X371475Y517525D02*
X381000Y517525D01*
D27*
X1349375Y19050D03*
X450850Y12700D03*
X371475Y517525D03*
D26*
X317500Y609600D02*
X311150Y615950D01*
X311150Y673100D01*
X307975Y676275D01*
X307975Y727075D01*
X317500Y736600D01*
X1162050Y733425D02*
X1162050Y717550D01*
X88900Y546100D02*
X76200Y533400D01*
X88900Y546100D02*
X88900Y574675D01*
X311150Y574675D02*
X317500Y581025D01*
X317500Y609600D01*
D27*
X1162050Y717550D03*
X1162050Y733425D03*
X504825Y758825D03*
X479425Y733425D03*
X88900Y574675D03*
X311150Y574675D03*
D26*
X749300Y539750D02*
X749300Y304800D01*
X565150Y304800D02*
X558800Y298450D01*
X558800Y279400D01*
X171450Y822325D02*
X165100Y828675D01*
X171450Y822325D02*
X171450Y447675D01*
X190500Y428625D01*
X431800Y422275D02*
X431800Y279400D01*
D27*
X749300Y539750D03*
X749300Y304800D03*
X565150Y304800D03*
X165100Y828675D03*
X190500Y428625D03*
X431800Y422275D03*
D26*
X812800Y914400D02*
X796925Y930275D01*
X796925Y968375D01*
X806450Y977900D01*
X838200Y977900D01*
X838200Y1003300D01*
D27*
X838200Y1003300D03*
D26*
X911225Y923925D02*
X939800Y952500D01*
X939800Y965200D01*
X952500Y977900D01*
D27*
X911225Y923925D03*
D26*
X889000Y1041400D02*
X942975Y1041400D01*
X942975Y1060450D01*
X946150Y1063625D01*
X987425Y1063625D01*
X987425Y920750D01*
X977900Y911225D01*
X952500Y911225D01*
X952500Y901700D01*
X933450Y638175D02*
X927100Y631825D01*
X933450Y638175D02*
X933450Y768350D01*
X939800Y774700D01*
X939800Y812800D01*
X952500Y825500D01*
D27*
X927100Y631825D03*
D26*
X936625Y619125D02*
X927100Y609600D01*
X936625Y619125D02*
X936625Y765175D01*
X942975Y771525D01*
X942975Y790575D01*
X952500Y800100D01*
D27*
X927100Y609600D03*
D26*
X920750Y609600D02*
X914400Y603250D01*
X920750Y609600D02*
X920750Y762000D01*
X930275Y771525D01*
D27*
X914400Y603250D03*
X930275Y771525D03*
D26*
X1117600Y276225D02*
X1117600Y215900D01*
D27*
X1117600Y276225D03*
D26*
X311150Y1111250D02*
X266700Y1066800D01*
X438150Y1114425D02*
X688975Y1114425D01*
X688975Y1108075D01*
X727075Y1069975D01*
X727075Y1019175D01*
X746125Y1000125D01*
X746125Y790575D01*
X723900Y768350D01*
X723900Y577850D01*
X736600Y565150D01*
X933450Y558800D02*
X939800Y552450D01*
X939800Y508000D01*
X952500Y495300D01*
D27*
X311150Y1111250D03*
X438150Y1114425D03*
X736600Y565150D03*
X933450Y558800D03*
D26*
X828675Y384175D02*
X812800Y368300D01*
X930275Y415925D02*
X952500Y438150D01*
X952500Y444500D01*
D27*
X828675Y384175D03*
X930275Y415925D03*
D26*
X930275Y422275D02*
X942975Y434975D01*
X942975Y460375D01*
X952500Y469900D01*
D27*
X930275Y422275D03*
D26*
X444500Y406400D02*
X441325Y409575D01*
X441325Y441325D01*
X434975Y447675D01*
X434975Y708025D02*
X434975Y1057275D01*
X434975Y708025D02*
X434975Y447675D01*
X434975Y1057275D02*
X444500Y1066800D01*
X1285875Y174625D02*
X1295400Y165100D01*
X1285875Y174625D02*
X1285875Y282575D01*
X1295400Y292100D01*
X889000Y215900D02*
X873125Y231775D01*
X873125Y457200D01*
X889000Y473075D01*
X889000Y546100D01*
X873125Y679450D02*
X869950Y682625D01*
X873125Y679450D02*
X873125Y561975D01*
X889000Y546100D01*
X879475Y854075D02*
X889000Y863600D01*
X879475Y854075D02*
X879475Y784225D01*
X873125Y777875D01*
X873125Y679450D01*
X1006475Y317500D02*
X1006475Y225425D01*
X736600Y685800D02*
X736600Y711200D01*
D27*
X869950Y682625D03*
X1006475Y317500D03*
X1006475Y225425D03*
X434975Y708025D03*
X736600Y711200D03*
D26*
X1066800Y679450D02*
X1066800Y622300D01*
X1066800Y679450D02*
X1082675Y695325D01*
X1082675Y847725D01*
X190500Y76200D02*
X180975Y66675D01*
X44450Y66675D01*
X44450Y161925D01*
X28575Y177800D01*
X28575Y866775D01*
X1009650Y854075D02*
X1012825Y857250D01*
X1012825Y1009650D01*
X1009650Y1012825D01*
X1009650Y1069975D01*
X38100Y1095375D02*
X6350Y1063625D01*
X6350Y889000D01*
X28575Y866775D01*
D27*
X1082675Y847725D03*
X28575Y866775D03*
X1009650Y854075D03*
X1009650Y1069975D03*
X38100Y1095375D03*
D26*
X508000Y384175D02*
X508000Y330200D01*
X965200Y777875D02*
X968375Y781050D01*
X965200Y777875D02*
X965200Y612775D01*
X942975Y590550D01*
X942975Y546100D01*
X962025Y527050D01*
X962025Y349250D01*
D27*
X508000Y384175D03*
X968375Y781050D03*
X962025Y349250D03*
D26*
X1235075Y342900D02*
X1250950Y327025D01*
X1235075Y342900D02*
X1235075Y606425D01*
X1219200Y622300D01*
D27*
X1250950Y327025D03*
D26*
X1250950Y352425D02*
X1238250Y365125D01*
X1238250Y609600D01*
X1228725Y619125D01*
X1228725Y688975D01*
X1219200Y698500D01*
D27*
X1250950Y352425D03*
D26*
X1082675Y688975D02*
X1092200Y698500D01*
X1082675Y688975D02*
X1082675Y635000D01*
X1514475Y571500D02*
X1517650Y574675D01*
X1514475Y571500D02*
X1514475Y358775D01*
X1498600Y342900D01*
D27*
X1082675Y635000D03*
X1517650Y574675D03*
D26*
X1012825Y44450D02*
X1003300Y44450D01*
X1012825Y44450D02*
X1012825Y38100D01*
X1174750Y41275D02*
X1333500Y41275D01*
X1333500Y15875D01*
X1343025Y6350D01*
X1501775Y6350D01*
X1501775Y53975D01*
X1527175Y79375D01*
X1527175Y263525D01*
X1558925Y295275D01*
X1558925Y409575D01*
X1549400Y419100D01*
D27*
X1003300Y44450D03*
X1012825Y38100D03*
X1174750Y41275D03*
D26*
X387350Y31750D02*
X342900Y76200D01*
X387350Y31750D02*
X387350Y19050D01*
X1139825Y19050D02*
X1171575Y50800D01*
X1336675Y50800D01*
X1336675Y19050D01*
X1343025Y12700D01*
X1381125Y12700D01*
X1381125Y44450D01*
X1409700Y73025D01*
X1425575Y73025D01*
X1425575Y98425D01*
X1473200Y146050D01*
X1498600Y146050D01*
X1498600Y323850D01*
X1489075Y333375D01*
X1489075Y409575D01*
X1498600Y419100D01*
D27*
X387350Y19050D03*
X1139825Y19050D03*
D26*
X387350Y107950D02*
X342900Y152400D01*
X387350Y107950D02*
X387350Y79375D01*
X1012825Y98425D02*
X1054100Y98425D01*
X1054100Y111125D01*
X1381125Y104775D02*
X1422400Y146050D01*
X1422400Y323850D01*
X1438275Y339725D01*
X1438275Y409575D01*
X1447800Y419100D01*
D27*
X387350Y79375D03*
X1012825Y98425D03*
X1054100Y111125D03*
X1381125Y104775D03*
D26*
X257175Y111125D02*
X215900Y152400D01*
X257175Y111125D02*
X257175Y31750D01*
X1349375Y31750D02*
X1374775Y57150D01*
X1374775Y111125D01*
X1419225Y155575D01*
X1419225Y327025D01*
X1406525Y339725D01*
X1406525Y409575D01*
X1397000Y419100D01*
D27*
X257175Y31750D03*
X1349375Y31750D03*
D26*
X1219200Y952500D02*
X1187450Y984250D01*
X1193800Y990600D01*
X1298575Y990600D01*
X1298575Y911225D01*
X1317625Y892175D01*
X1317625Y561975D01*
X1311275Y555625D01*
X1311275Y479425D01*
X1320800Y469900D01*
X1076325Y98425D02*
X1066800Y88900D01*
X1076325Y98425D02*
X1076325Y206375D01*
X1066800Y215900D01*
X1320800Y342900D02*
X1330325Y352425D01*
X1330325Y403225D01*
X1346200Y419100D01*
X1355725Y536575D02*
X1346200Y546100D01*
X1355725Y434975D02*
X1355725Y428625D01*
X1355725Y434975D02*
X1355725Y536575D01*
X1355725Y428625D02*
X1346200Y419100D01*
X1066800Y241300D02*
X1066800Y215900D01*
X1314450Y244475D02*
X1320800Y250825D01*
X1320800Y342900D01*
X1355725Y434975D02*
X1320800Y469900D01*
X812800Y444500D02*
X796925Y460375D01*
X796925Y558800D02*
X796925Y758825D01*
X796925Y558800D02*
X796925Y460375D01*
X796925Y758825D02*
X812800Y774700D01*
X793750Y1073150D02*
X812800Y1092200D01*
X793750Y981075D02*
X793750Y857250D01*
X793750Y981075D02*
X793750Y1073150D01*
X793750Y857250D02*
X812800Y838200D01*
X812800Y774700D01*
X215900Y330200D02*
X206375Y339725D01*
X206375Y857250D02*
X206375Y981075D01*
X206375Y857250D02*
X206375Y561975D01*
X206375Y339725D01*
X206375Y981075D02*
X215900Y990600D01*
X508000Y609600D02*
X508000Y558800D01*
X222250Y561975D02*
X206375Y561975D01*
X206375Y857250D02*
X184150Y857250D01*
X790575Y558800D02*
X796925Y558800D01*
X825500Y984250D02*
X831850Y984250D01*
X825500Y984250D02*
X822325Y981075D01*
X793750Y981075D01*
D27*
X1066800Y241300D03*
X1314450Y244475D03*
X508000Y558800D03*
X222250Y561975D03*
X184150Y857250D03*
X790575Y558800D03*
X831850Y984250D03*
D26*
X1412875Y479425D02*
X1422400Y469900D01*
X1412875Y479425D02*
X1412875Y606425D01*
X1419225Y612775D01*
X1419225Y682625D01*
X1149350Y714375D02*
X1108075Y714375D01*
X1108075Y815975D01*
X1117600Y825500D01*
D27*
X1419225Y682625D03*
X1149350Y714375D03*
D26*
X1117600Y749300D02*
X1130300Y762000D01*
X1130300Y920750D01*
X1158875Y949325D01*
X1158875Y968375D01*
X1244600Y1054100D01*
X1330325Y1054100D02*
X1346200Y1054100D01*
X1330325Y1054100D02*
X1244600Y1054100D01*
X1346200Y1054100D02*
X1346200Y1092200D01*
X1323975Y835025D02*
X1333500Y825500D01*
X1323975Y835025D02*
X1323975Y1000125D01*
X1330325Y1006475D01*
X1330325Y1054100D01*
X1203325Y758825D02*
X1193800Y749300D01*
X1203325Y758825D02*
X1203325Y850900D01*
D27*
X1203325Y850900D03*
D26*
X1333500Y952500D02*
X1336675Y955675D01*
X1336675Y1025525D01*
X1343025Y1031875D01*
X1362075Y1031875D01*
X1362075Y968375D01*
X1374775Y955675D01*
X1374775Y561975D01*
X1381125Y555625D01*
X1381125Y307975D01*
X1374775Y301625D01*
X1374775Y225425D01*
X1384300Y215900D01*
X1168400Y749300D02*
X1174750Y755650D01*
X1174750Y771525D01*
X1349375Y803275D02*
X1352550Y800100D01*
X1349375Y803275D02*
X1349375Y942975D01*
X1358900Y952500D01*
D27*
X1174750Y771525D03*
X1352550Y800100D03*
D26*
X1155700Y762000D02*
X1143000Y749300D01*
X1155700Y762000D02*
X1155700Y920750D01*
D27*
X1155700Y920750D03*
D26*
X1219200Y1092200D02*
X1285875Y1092200D01*
X1285875Y1101725D01*
X1292225Y1108075D01*
X1409700Y1108075D01*
X1409700Y952500D01*
X1314450Y946150D02*
X1308100Y952500D01*
X1314450Y946150D02*
X1314450Y930275D01*
D27*
X1314450Y930275D03*
D26*
X1095375Y473075D02*
X1092200Y469900D01*
X1095375Y473075D02*
X1095375Y492125D01*
X1244600Y492125D02*
X1263650Y511175D01*
X1263650Y755650D01*
X1273175Y765175D01*
X1625600Y927100D02*
X1644650Y908050D01*
X1644650Y876300D01*
X1663700Y857250D01*
X1663700Y787400D01*
D27*
X1095375Y492125D03*
X1244600Y492125D03*
X1273175Y765175D03*
D26*
X1184275Y479425D02*
X1193800Y469900D01*
X1184275Y479425D02*
X1184275Y717550D01*
X1200150Y733425D01*
X1625600Y889000D02*
X1647825Y866775D01*
X1647825Y752475D01*
X1663700Y736600D01*
D27*
X1200150Y733425D03*
D26*
X1054100Y711200D02*
X1050925Y714375D01*
X1054100Y711200D02*
X1054100Y644525D01*
X1038225Y628650D01*
X1038225Y561975D01*
X654050Y555625D02*
X650875Y552450D01*
X650875Y520700D01*
X330200Y508000D02*
X327025Y511175D01*
X330200Y508000D02*
X330200Y361950D01*
X358775Y333375D01*
X358775Y225425D01*
X368300Y215900D01*
X368300Y152400D01*
D27*
X1050925Y714375D03*
X1038225Y561975D03*
X654050Y555625D03*
X650875Y520700D03*
X327025Y511175D03*
D26*
X1581150Y317500D02*
X1682750Y317500D01*
X1682750Y1073150D01*
X1663700Y1092200D01*
D27*
X1581150Y317500D03*
D26*
X1571625Y307975D02*
X1568450Y304800D01*
X1571625Y307975D02*
X1571625Y530225D01*
X1679575Y638175D01*
X1679575Y1025525D01*
X1663700Y1041400D01*
D27*
X1568450Y304800D03*
D26*
X1412875Y212725D02*
X1409700Y215900D01*
X1412875Y212725D02*
X1412875Y193675D01*
X1663700Y965200D02*
X1625600Y1003300D01*
X1663700Y965200D02*
X1663700Y939800D01*
D27*
X1412875Y193675D03*
D26*
X1647825Y942975D02*
X1625600Y965200D01*
X1647825Y942975D02*
X1647825Y904875D01*
X1663700Y889000D01*
X1460500Y215900D02*
X1450975Y215900D01*
X1435100Y215900D01*
X1485900Y927100D02*
X1441450Y971550D01*
X1485900Y927100D02*
X1485900Y311150D01*
X1495425Y301625D01*
X1495425Y155575D01*
X1489075Y149225D01*
X1450975Y149225D01*
X1450975Y215900D01*
D27*
X1441450Y971550D03*
D26*
X889000Y393700D02*
X927100Y355600D01*
X927100Y298450D01*
X942975Y282575D01*
X962025Y282575D01*
X962025Y307975D01*
X952500Y317500D01*
X908050Y349250D02*
X889000Y368300D01*
D27*
X908050Y349250D03*
D26*
X1244600Y146050D02*
X1244600Y88900D01*
X1244600Y146050D02*
X1257300Y158750D01*
X1257300Y454025D01*
X1057275Y457200D02*
X1028700Y485775D01*
D27*
X1257300Y454025D03*
X1057275Y457200D03*
X1028700Y485775D03*
D26*
X1165225Y365125D02*
X1168400Y368300D01*
X1168400Y419100D01*
D27*
X1165225Y365125D03*
D26*
X1219200Y419100D02*
X1228725Y428625D01*
X1228725Y444500D01*
X1393825Y444500D02*
X1409700Y460375D01*
X1409700Y622300D01*
D27*
X1228725Y444500D03*
X1393825Y444500D03*
D26*
X266700Y203200D02*
X257175Y212725D01*
X257175Y307975D01*
X796925Y307975D02*
X796925Y355600D01*
X1025525Y403225D02*
X1063625Y441325D01*
X1435100Y444500D02*
X1435100Y622300D01*
D27*
X257175Y307975D03*
X796925Y307975D03*
X796925Y355600D03*
X1025525Y403225D03*
X1063625Y441325D03*
X1435100Y444500D03*
D26*
X384175Y666750D02*
X374650Y657225D01*
X384175Y666750D02*
X384175Y784225D01*
X403225Y803275D01*
X403225Y920750D01*
X406400Y923925D01*
D27*
X374650Y657225D03*
X406400Y923925D03*
X469900Y854075D03*
D26*
X406400Y698500D02*
X393700Y685800D01*
X406400Y698500D02*
X406400Y742950D01*
X409575Y746125D01*
X409575Y835025D01*
X428625Y854075D01*
X428625Y971550D01*
X873125Y977900D02*
X873125Y1050925D01*
X889000Y1066800D01*
D27*
X428625Y971550D03*
X873125Y977900D03*
D26*
X828675Y717550D02*
X825500Y714375D01*
X828675Y717550D02*
X828675Y733425D01*
X812800Y749300D01*
D27*
X825500Y714375D03*
D26*
X241300Y736600D02*
X231775Y746125D01*
X231775Y841375D01*
X241300Y850900D01*
X241300Y863600D01*
X1247775Y841375D02*
X1270000Y819150D01*
X1247775Y841375D02*
X1247775Y866775D01*
X488950Y873125D02*
X469900Y873125D01*
X469900Y882650D01*
X247650Y885825D02*
X241300Y879475D01*
X241300Y863600D01*
D27*
X1270000Y819150D03*
X1247775Y866775D03*
X488950Y873125D03*
X469900Y882650D03*
X247650Y885825D03*
D26*
X301625Y746125D02*
X292100Y736600D01*
X301625Y746125D02*
X301625Y815975D01*
X317500Y831850D01*
X317500Y863600D01*
X1495425Y790575D02*
X1536700Y749300D01*
X1495425Y790575D02*
X1495425Y968375D01*
X371475Y1050925D02*
X327025Y1006475D01*
X327025Y873125D01*
X317500Y863600D01*
D27*
X1495425Y968375D03*
X371475Y1050925D03*
D26*
X333375Y746125D02*
X342900Y736600D01*
X333375Y746125D02*
X333375Y854075D01*
X342900Y863600D01*
X1536700Y698500D02*
X1555750Y698500D01*
X1555750Y990600D01*
X1457325Y1089025D01*
X1457325Y1104900D01*
X396875Y1127125D02*
X377825Y1108075D01*
X377825Y1044575D01*
X333375Y1000125D01*
X333375Y854075D01*
D27*
X1457325Y1104900D03*
X396875Y1127125D03*
D26*
X406400Y749300D02*
X393700Y736600D01*
X406400Y749300D02*
X406400Y850900D01*
X419100Y863600D01*
X1520825Y663575D02*
X1536700Y647700D01*
X1520825Y663575D02*
X1520825Y701675D01*
X1533525Y714375D01*
X1552575Y714375D01*
X1552575Y920750D01*
X1498600Y974725D01*
X666750Y1098550D02*
X428625Y1098550D01*
X428625Y977900D01*
X409575Y958850D01*
X409575Y927100D01*
X419100Y917575D01*
X419100Y863600D01*
D27*
X1498600Y974725D03*
X666750Y1098550D03*
D26*
X454025Y822325D02*
X444500Y812800D01*
X454025Y822325D02*
X454025Y908050D01*
D27*
X454025Y908050D03*
D26*
X393700Y844550D02*
X393700Y812800D01*
X393700Y844550D02*
X377825Y860425D01*
X377825Y904875D01*
X342900Y939800D01*
X352425Y822325D02*
X342900Y812800D01*
X352425Y822325D02*
X352425Y923925D01*
D27*
X352425Y923925D03*
D26*
X301625Y822325D02*
X292100Y812800D01*
X301625Y822325D02*
X301625Y949325D01*
X276225Y974725D01*
X241300Y974725D01*
X241300Y939800D01*
X241300Y755650D02*
X238125Y752475D01*
X241300Y787400D02*
X241300Y812800D01*
X241300Y787400D02*
X241300Y755650D01*
X682625Y193675D02*
X695325Y180975D01*
X682625Y193675D02*
X673100Y203200D01*
X1209675Y790575D02*
X1235075Y815975D01*
X1209675Y790575D02*
X1209675Y517525D01*
X1203325Y511175D01*
X1203325Y320675D01*
X1177925Y295275D01*
X1177925Y174625D01*
X1168400Y165100D01*
X650875Y777875D02*
X654050Y781050D01*
X650875Y777875D02*
X650875Y704850D01*
X654050Y701675D01*
X654050Y698500D01*
X650875Y695325D01*
X650875Y657225D01*
X669925Y638175D01*
X669925Y530225D01*
X673100Y527050D01*
X673100Y298450D01*
X682625Y288925D01*
X682625Y193675D01*
D27*
X238125Y752475D03*
X695325Y180975D03*
X1050925Y174625D03*
X1235075Y815975D03*
X241300Y787400D03*
X654050Y781050D03*
D26*
X812800Y939800D02*
X844550Y971550D01*
X844550Y1028700D01*
D27*
X844550Y1028700D03*
D26*
X517525Y717550D02*
X495300Y695325D01*
X517525Y717550D02*
X517525Y774700D01*
X514350Y777875D01*
X514350Y800100D01*
X517525Y803275D01*
X517525Y962025D01*
X498475Y981075D01*
X498475Y1022350D01*
X831850Y1028700D02*
X831850Y993775D01*
D27*
X495300Y695325D03*
X498475Y1022350D03*
X831850Y1028700D03*
X831850Y993775D03*
D26*
X812800Y1016000D02*
X844550Y1047750D01*
D27*
X844550Y1047750D03*
D26*
X790575Y155575D02*
X787400Y152400D01*
X790575Y155575D02*
X790575Y390525D01*
X809625Y409575D01*
X828675Y409575D01*
X828675Y438150D01*
X1187450Y441325D02*
X1193800Y434975D01*
X1193800Y419100D01*
D27*
X828675Y438150D03*
X1187450Y441325D03*
D26*
X501650Y231775D02*
X498475Y234950D01*
X498475Y301625D01*
X517525Y320675D01*
X517525Y374650D01*
X514350Y377825D01*
X1035050Y428625D02*
X1066800Y460375D01*
X1066800Y469900D01*
X1308100Y876300D02*
X1304925Y879475D01*
X1304925Y898525D01*
X1298575Y904875D01*
X1292225Y904875D01*
X1292225Y698500D01*
X1266825Y673100D01*
X1266825Y488950D01*
D27*
X501650Y231775D03*
X514350Y377825D03*
X1035050Y428625D03*
X1266825Y488950D03*
D26*
X733425Y212725D02*
X723900Y203200D01*
X733425Y212725D02*
X733425Y314325D01*
X727075Y320675D01*
X727075Y485775D01*
X739775Y498475D01*
X1006475Y504825D02*
X1009650Y508000D01*
X1009650Y669925D01*
X1114425Y720725D02*
X1133475Y739775D01*
X1133475Y815975D01*
X1143000Y825500D01*
D27*
X739775Y498475D03*
X1006475Y504825D03*
X1009650Y669925D03*
X1114425Y720725D03*
D26*
X889000Y317500D02*
X920750Y285750D01*
X920750Y73025D01*
X939800Y53975D01*
X1435100Y57150D02*
X1485900Y57150D01*
X1485900Y88900D01*
D27*
X939800Y53975D03*
X1435100Y57150D03*
D26*
X250825Y269875D02*
X241300Y279400D01*
X250825Y269875D02*
X250825Y254000D01*
X644525Y241300D02*
X647700Y238125D01*
X647700Y203200D01*
D27*
X250825Y254000D03*
X644525Y241300D03*
D26*
X584200Y736600D02*
X587375Y739775D01*
X587375Y787400D01*
X819150Y806450D02*
X822325Y809625D01*
X822325Y854075D01*
X844550Y876300D01*
X844550Y962025D01*
D27*
X587375Y787400D03*
X819150Y806450D03*
X844550Y962025D03*
D26*
X558800Y736600D02*
X549275Y727075D01*
X549275Y663575D01*
X561975Y650875D01*
X581025Y644525D02*
X593725Y631825D01*
X593725Y600075D01*
X590550Y596900D01*
X590550Y546100D01*
X593725Y542925D01*
X593725Y384175D01*
X590550Y381000D01*
X904875Y361950D02*
X923925Y342900D01*
X923925Y76200D01*
X952500Y47625D01*
X1000125Y47625D01*
X1003300Y50800D01*
X1044575Y50800D01*
D27*
X561975Y650875D03*
X581025Y644525D03*
X590550Y381000D03*
X904875Y361950D03*
X1044575Y50800D03*
D26*
X1104900Y939800D02*
X1092200Y952500D01*
X1104900Y939800D02*
X1104900Y654050D01*
X1127125Y631825D01*
X1127125Y466725D01*
X1152525Y441325D01*
X1152525Y238125D01*
X1149350Y234950D01*
X1149350Y228600D01*
X1152525Y225425D01*
X1152525Y76200D01*
D27*
X1152525Y76200D03*
D26*
X1393825Y149225D02*
X1409700Y165100D01*
X1393825Y149225D02*
X1371600Y149225D01*
X1371600Y304800D01*
X1358900Y317500D01*
X1358900Y533400D01*
X1371600Y546100D01*
X1425575Y174625D02*
X1435100Y165100D01*
X1425575Y174625D02*
X1425575Y234950D01*
X1428750Y238125D01*
X1155700Y234950D02*
X1155700Y533400D01*
X1168400Y546100D01*
D27*
X1428750Y238125D03*
X1155700Y234950D03*
D26*
X768350Y82550D02*
X762000Y76200D01*
X768350Y82550D02*
X768350Y95250D01*
X809625Y136525D01*
D27*
X809625Y136525D03*
D26*
X860425Y123825D02*
X889000Y152400D01*
X860425Y123825D02*
X860425Y117475D01*
X854075Y111125D01*
X847725Y111125D01*
X847725Y317500D01*
X844550Y320675D01*
X844550Y457200D01*
X847725Y460375D01*
X1016000Y479425D02*
X1025525Y488950D01*
X1025525Y755650D01*
X1028700Y758825D01*
X1028700Y974725D01*
X1054100Y1000125D01*
X1143000Y1000125D01*
X1143000Y952500D01*
D27*
X847725Y460375D03*
X1016000Y479425D03*
D26*
X1193800Y546100D02*
X1206500Y558800D01*
X1206500Y793750D01*
X1228725Y815975D01*
X1228725Y892175D01*
X1168400Y952500D01*
X431800Y88900D02*
X444500Y76200D01*
X431800Y88900D02*
X431800Y177800D01*
X415925Y193675D01*
X415925Y314325D01*
X403225Y327025D01*
X403225Y342900D01*
X384175Y361950D01*
X384175Y425450D01*
X387350Y428625D01*
X1250950Y146050D02*
X1270000Y165100D01*
X1250950Y146050D02*
X1250950Y114300D01*
X1123950Y114300D02*
X1108075Y98425D01*
X1108075Y44450D01*
X1085850Y22225D01*
X777875Y22225D01*
X777875Y63500D01*
D27*
X387350Y428625D03*
X1250950Y114300D03*
X1123950Y114300D03*
X777875Y63500D03*
D26*
X774700Y279400D02*
X777875Y282575D01*
X777875Y533400D01*
D27*
X777875Y533400D03*
D26*
X536575Y809625D02*
X533400Y812800D01*
X536575Y809625D02*
X536575Y765175D01*
X1003300Y755650D02*
X1003300Y590550D01*
X1060450Y590550D02*
X1092200Y558800D01*
X1092200Y546100D01*
D27*
X536575Y765175D03*
X1003300Y755650D03*
X1003300Y590550D03*
X1060450Y590550D03*
D26*
X1016000Y701675D02*
X1009650Y708025D01*
X1016000Y701675D02*
X1016000Y485775D01*
X1009650Y479425D01*
X1009650Y444500D01*
X1012825Y441325D01*
X1012825Y381000D01*
X1047750Y346075D01*
X1047750Y288925D01*
X1073150Y263525D01*
X1508125Y260350D02*
X1520825Y247650D01*
X1520825Y98425D01*
X1511300Y88900D01*
D27*
X679450Y730250D03*
X1009650Y708025D03*
X1073150Y263525D03*
X1508125Y260350D03*
D26*
X762000Y215900D02*
X749300Y203200D01*
X762000Y215900D02*
X762000Y358775D01*
X758825Y361950D01*
X758825Y590550D01*
X755650Y593725D01*
X771525Y609600D02*
X781050Y619125D01*
X781050Y987425D01*
X1193800Y984250D02*
X1273175Y984250D01*
X1273175Y885825D01*
X1282700Y876300D01*
D27*
X755650Y593725D03*
X771525Y609600D03*
X781050Y987425D03*
X1193800Y984250D03*
D26*
X473075Y234950D02*
X441325Y266700D01*
X473075Y234950D02*
X473075Y168275D01*
X485775Y155575D01*
X485775Y66675D01*
X511175Y41275D01*
X727075Y41275D01*
X727075Y85725D01*
X733425Y92075D01*
X746125Y92075D01*
X746125Y57150D01*
X771525Y31750D01*
X1387475Y44450D02*
X1428750Y44450D01*
X1428750Y57150D01*
X1460500Y88900D01*
D27*
X441325Y266700D03*
X771525Y31750D03*
X1387475Y44450D03*
D26*
X752475Y276225D02*
X749300Y279400D01*
X752475Y276225D02*
X752475Y254000D01*
D27*
X752475Y254000D03*
D26*
X422275Y688975D02*
X428625Y695325D01*
X428625Y803275D01*
X419100Y812800D01*
X63500Y469900D02*
X76200Y457200D01*
X63500Y469900D02*
X63500Y612775D01*
X73025Y622300D01*
X422275Y628650D02*
X425450Y625475D01*
X422275Y628650D02*
X422275Y688975D01*
X419100Y685800D01*
D27*
X73025Y622300D03*
X425450Y625475D03*
D26*
X266700Y609600D02*
X257175Y619125D01*
X257175Y727075D01*
X266700Y736600D01*
X1327150Y704850D02*
X1333500Y698500D01*
X1327150Y704850D02*
X1327150Y727075D01*
X82550Y565150D02*
X76200Y558800D01*
X82550Y565150D02*
X82550Y574675D01*
X85725Y577850D01*
X85725Y727075D01*
D27*
X1327150Y727075D03*
X85725Y727075D03*
D26*
X701675Y596900D02*
X704850Y593725D01*
X701675Y596900D02*
X701675Y777875D01*
D27*
X704850Y593725D03*
X701675Y777875D03*
X495300Y727075D03*
D26*
X647700Y701675D02*
X647700Y901700D01*
D27*
X647700Y701675D03*
X647700Y901700D03*
D26*
X241300Y330200D02*
X231775Y320675D01*
X231775Y234950D01*
D27*
X231775Y234950D03*
D26*
X276225Y288925D02*
X317500Y330200D01*
X276225Y288925D02*
X276225Y238125D01*
D27*
X276225Y238125D03*
D26*
X333375Y320675D02*
X342900Y330200D01*
X333375Y320675D02*
X333375Y304800D01*
D27*
X333375Y304800D03*
X381000Y317500D03*
D26*
X139700Y304800D02*
X120650Y323850D01*
X139700Y304800D02*
X139700Y184150D01*
X638175Y165100D02*
X638175Y314325D01*
X644525Y320675D01*
X644525Y419100D01*
X641350Y422275D01*
X641350Y444500D01*
X644525Y447675D01*
X644525Y698500D01*
X641350Y701675D01*
X641350Y723900D01*
X644525Y727075D01*
X644525Y889000D01*
X638175Y895350D01*
D27*
X120650Y323850D03*
X139700Y184150D03*
X638175Y165100D03*
X638175Y895350D03*
D26*
X1562100Y698500D02*
X1568450Y704850D01*
X1562100Y698500D02*
X1536700Y673100D01*
X1568450Y704850D02*
X1568450Y774700D01*
X1603375Y809625D01*
X1628775Y809625D01*
X1628775Y739775D01*
X1612900Y723900D01*
X200025Y292100D02*
X142875Y349250D01*
X200025Y292100D02*
X200025Y130175D01*
X1006475Y123825D02*
X1035050Y123825D01*
X1038225Y127000D01*
X1057275Y127000D01*
X1558925Y146050D02*
X1562100Y149225D01*
X1562100Y698500D01*
D27*
X142875Y349250D03*
X200025Y130175D03*
X1006475Y123825D03*
X1057275Y127000D03*
X1558925Y146050D03*
D26*
X1612900Y673100D02*
X1584325Y701675D01*
X111125Y371475D02*
X101600Y381000D01*
X111125Y371475D02*
X111125Y196850D01*
X177800Y130175D01*
X177800Y127000D01*
X854075Y117475D02*
X854075Y317500D01*
X869950Y333375D01*
X869950Y460375D01*
X882650Y473075D01*
X882650Y504825D01*
X1495425Y508000D02*
X1511300Y523875D01*
X1511300Y698500D01*
X1536700Y723900D01*
D27*
X1584325Y701675D03*
X177800Y127000D03*
X854075Y117475D03*
X882650Y504825D03*
X1495425Y508000D03*
D26*
X1612900Y622300D02*
X1577975Y657225D01*
X1577975Y739775D01*
X457200Y390525D02*
X447675Y381000D01*
X457200Y390525D02*
X457200Y657225D01*
D27*
X1577975Y739775D03*
X447675Y381000D03*
X457200Y657225D03*
X841375Y768350D03*
D26*
X333375Y1057275D02*
X266700Y990600D01*
X333375Y1057275D02*
X333375Y1085850D01*
X381000Y1133475D01*
X1022350Y1133475D01*
X1022350Y758825D01*
D27*
X1022350Y758825D03*
D26*
X317500Y1016000D02*
X292100Y990600D01*
X1016000Y1012825D02*
X1016000Y720725D01*
D27*
X317500Y1016000D03*
X1016000Y1012825D03*
X1016000Y720725D03*
D26*
X101600Y482600D02*
X92075Y473075D01*
X92075Y155575D01*
X174625Y73025D01*
X1574800Y482600D02*
X1625600Y533400D01*
X1574800Y482600D02*
X1574800Y88900D01*
X1511300Y25400D01*
D27*
X174625Y73025D03*
D26*
X495300Y657225D02*
X504825Y657225D01*
X495300Y657225D02*
X485775Y647700D01*
X473075Y647700D01*
X473075Y650875D01*
D27*
X504825Y657225D03*
X473075Y650875D03*
D26*
X850900Y765175D02*
X863600Y752475D01*
X850900Y765175D02*
X850900Y1073150D01*
X815975Y1108075D01*
X298450Y1104900D02*
X171450Y1104900D01*
X155575Y1089025D01*
X73025Y1089025D01*
X73025Y977900D01*
X63500Y968375D01*
X63500Y723900D01*
X76200Y711200D01*
D27*
X863600Y752475D03*
X815975Y1108075D03*
X298450Y1104900D03*
D26*
X381000Y657225D02*
X403225Y657225D01*
X381000Y657225D02*
X374650Y650875D01*
X368300Y650875D01*
X368300Y666750D01*
X381000Y679450D01*
X381000Y787400D01*
X384175Y790575D01*
D27*
X403225Y657225D03*
X384175Y790575D03*
D26*
X625475Y695325D02*
X635000Y685800D01*
X625475Y695325D02*
X625475Y749300D01*
X628650Y752475D01*
X203200Y777875D02*
X200025Y774700D01*
X203200Y777875D02*
X203200Y819150D01*
X184150Y838200D01*
D27*
X628650Y752475D03*
X200025Y774700D03*
X184150Y838200D03*
D26*
X523875Y695325D02*
X533400Y685800D01*
X523875Y695325D02*
X523875Y774700D01*
X527050Y777875D01*
X527050Y800100D01*
X523875Y803275D01*
X523875Y825500D01*
X527050Y828675D01*
X311150Y835025D02*
X307975Y838200D01*
X307975Y876300D01*
X117475Y873125D02*
X85725Y873125D01*
X85725Y904875D01*
X76200Y914400D01*
D27*
X527050Y828675D03*
X311150Y835025D03*
X307975Y876300D03*
X117475Y873125D03*
D26*
X749300Y968375D02*
X762000Y981075D01*
X749300Y968375D02*
X749300Y787400D01*
X727075Y765175D01*
X727075Y581025D01*
X755650Y552450D01*
X755650Y355600D01*
D27*
X762000Y981075D03*
X755650Y355600D03*
D26*
X936625Y295275D02*
X942975Y301625D01*
X942975Y358775D01*
X952500Y368300D01*
D27*
X936625Y295275D03*
D26*
X504825Y638175D02*
X469900Y603250D01*
X469900Y488950D01*
X69850Y498475D02*
X66675Y501650D01*
X66675Y574675D01*
X76200Y584200D01*
D27*
X504825Y638175D03*
X469900Y488950D03*
X69850Y498475D03*
D26*
X923925Y409575D02*
X936625Y409575D01*
X923925Y409575D02*
X923925Y441325D01*
X396875Y473075D02*
X384175Y485775D01*
X384175Y593725D01*
D27*
X936625Y409575D03*
X923925Y441325D03*
X396875Y473075D03*
X384175Y593725D03*
D26*
X650875Y574675D02*
X654050Y571500D01*
X650875Y574675D02*
X650875Y638175D01*
D27*
X654050Y571500D03*
X650875Y638175D03*
D26*
X317500Y203200D02*
X301625Y187325D01*
X203200Y187325D01*
X203200Y400050D01*
X136525Y466725D01*
X136525Y565150D01*
D27*
X136525Y565150D03*
D26*
X1638300Y63500D02*
X1752600Y63500D01*
X1752600Y50800D01*
X758825Y628650D02*
X755650Y625475D01*
X758825Y628650D02*
X758825Y742950D01*
X762000Y746125D01*
X762000Y946150D01*
D27*
X755650Y625475D03*
X762000Y946150D03*
D26*
X292100Y685800D02*
X292100Y663575D01*
D27*
X292100Y663575D03*
D26*
X904875Y1047750D02*
X939800Y1082675D01*
X952500Y1082675D01*
X952500Y1079500D01*
D27*
X904875Y1047750D03*
D26*
X393700Y406400D02*
X396875Y403225D01*
X396875Y365125D01*
X765175Y361950D02*
X771525Y368300D01*
X771525Y508000D01*
X765175Y514350D01*
X765175Y736600D01*
X774700Y746125D01*
X774700Y796925D01*
X968375Y809625D02*
X968375Y841375D01*
X977900Y850900D01*
D27*
X396875Y365125D03*
X765175Y361950D03*
X774700Y796925D03*
X968375Y809625D03*
D26*
X762000Y371475D02*
X765175Y368300D01*
X762000Y371475D02*
X762000Y606425D01*
X749300Y619125D01*
X749300Y688975D01*
X755650Y695325D01*
X755650Y746125D01*
X914400Y755650D02*
X917575Y758825D01*
X917575Y771525D01*
D27*
X765175Y368300D03*
X755650Y746125D03*
X914400Y755650D03*
X917575Y771525D03*
D26*
X1016000Y222250D02*
X1047750Y190500D01*
D27*
X1047750Y190500D03*
X1016000Y222250D03*
D26*
X469900Y365125D02*
X460375Y374650D01*
X469900Y365125D02*
X469900Y269875D01*
X488950Y250825D01*
X968375Y301625D02*
X968375Y765175D01*
X977900Y774700D01*
D27*
X460375Y374650D03*
X488950Y250825D03*
X968375Y301625D03*
D26*
X790575Y698500D02*
X793750Y701675D01*
X793750Y850900D01*
D27*
X790575Y698500D03*
X793750Y850900D03*
D26*
X663575Y612775D02*
X660400Y609600D01*
X663575Y612775D02*
X663575Y638175D01*
D27*
X663575Y638175D03*
D26*
X755650Y619125D02*
X762000Y625475D01*
X762000Y739775D01*
X768350Y746125D01*
X768350Y1073150D01*
D27*
X755650Y619125D03*
X768350Y1073150D03*
D26*
X904875Y711200D02*
X901700Y708025D01*
X904875Y711200D02*
X904875Y996950D01*
X952500Y1044575D01*
X977900Y1044575D01*
X977900Y1054100D01*
D27*
X901700Y708025D03*
D26*
X669925Y695325D02*
X660400Y685800D01*
X669925Y695325D02*
X669925Y866775D01*
X673100Y869950D01*
X673100Y1076325D01*
X669925Y1079500D01*
D27*
X669925Y1079500D03*
D26*
X593725Y695325D02*
X584200Y685800D01*
X593725Y695325D02*
X593725Y911225D01*
X603250Y920750D01*
X923925Y949325D02*
X936625Y962025D01*
X936625Y977900D01*
X952500Y993775D01*
X977900Y993775D01*
X977900Y1003300D01*
D27*
X603250Y920750D03*
X923925Y949325D03*
D26*
X565150Y692150D02*
X558800Y685800D01*
X565150Y692150D02*
X565150Y723900D01*
X568325Y727075D01*
X568325Y784225D01*
X565150Y787400D01*
X917575Y828675D02*
X942975Y828675D01*
X942975Y958850D01*
X952500Y968375D01*
X977900Y968375D01*
X977900Y977900D01*
D27*
X565150Y787400D03*
X917575Y828675D03*
D26*
X282575Y346075D02*
X266700Y330200D01*
X282575Y346075D02*
X282575Y504825D01*
X304800Y527050D01*
X304800Y638175D01*
X466725Y641350D02*
X469900Y638175D01*
X466725Y641350D02*
X466725Y844550D01*
X495300Y873125D01*
X495300Y908050D01*
D27*
X304800Y638175D03*
X469900Y638175D03*
X495300Y908050D03*
D26*
X323850Y361950D02*
X292100Y330200D01*
X323850Y361950D02*
X323850Y365125D01*
X454025Y374650D02*
X495300Y415925D01*
X495300Y561975D01*
X492125Y565150D01*
X492125Y619125D01*
X511175Y638175D01*
X511175Y663575D01*
X488950Y685800D01*
X488950Y746125D01*
X498475Y755650D01*
X498475Y904875D01*
X501650Y908050D01*
D27*
X323850Y365125D03*
X454025Y374650D03*
X501650Y908050D03*
D26*
X914400Y492125D02*
X927100Y504825D01*
X927100Y581025D01*
X962025Y615950D01*
X962025Y885825D01*
X977900Y901700D01*
D27*
X914400Y492125D03*
D26*
X854075Y323850D02*
X850900Y320675D01*
X854075Y323850D02*
X854075Y463550D01*
X850900Y466725D01*
X850900Y546100D01*
X847725Y549275D01*
X847725Y774700D01*
X825500Y796925D01*
X825500Y841375D01*
X844550Y860425D01*
D27*
X850900Y320675D03*
X844550Y860425D03*
D26*
X406400Y1079500D02*
X393700Y1066800D01*
X406400Y1079500D02*
X406400Y1089025D01*
X447675Y1130300D01*
X901700Y1130300D01*
X901700Y1104900D01*
X917575Y1089025D01*
X990600Y1089025D01*
X990600Y660400D01*
X977900Y647700D01*
X1206500Y101600D02*
X1219200Y88900D01*
X1206500Y101600D02*
X1206500Y508000D01*
X1209675Y511175D01*
D27*
X1209675Y511175D03*
D26*
X1133475Y174625D02*
X1143000Y165100D01*
X1133475Y174625D02*
X1133475Y393700D01*
X1136650Y396875D01*
D27*
X1136650Y396875D03*
D26*
X828675Y282575D02*
X812800Y266700D01*
X828675Y282575D02*
X828675Y320675D01*
X825500Y323850D01*
X825500Y336550D01*
X831850Y342900D01*
X831850Y377825D01*
D27*
X831850Y377825D03*
D26*
X174625Y974725D02*
X155575Y955675D01*
X155575Y565150D01*
X158750Y561975D01*
X158750Y460375D01*
D27*
X174625Y974725D03*
X158750Y460375D03*
D26*
X142875Y879475D02*
X142875Y981075D01*
X142875Y879475D02*
X136525Y873125D01*
X136525Y593725D01*
X146050Y584200D01*
X146050Y542925D01*
D27*
X142875Y981075D03*
X146050Y542925D03*
D26*
X812800Y241300D02*
X831850Y260350D01*
X831850Y323850D01*
D27*
X831850Y323850D03*
D26*
X485775Y282575D02*
X482600Y279400D01*
X485775Y282575D02*
X485775Y327025D01*
D27*
X485775Y327025D03*
D26*
X523875Y288925D02*
X533400Y279400D01*
X523875Y288925D02*
X523875Y365125D01*
X536575Y377825D01*
D27*
X536575Y377825D03*
D26*
X1082675Y431800D02*
X1085850Y434975D01*
X1082675Y431800D02*
X1082675Y273050D01*
X1095375Y260350D01*
X1187450Y260350D02*
X1193800Y254000D01*
X1193800Y215900D01*
D27*
X463550Y460375D03*
X1085850Y434975D03*
X1095375Y260350D03*
X1187450Y260350D03*
D26*
X1260475Y225425D02*
X1270000Y215900D01*
X1260475Y225425D02*
X1260475Y450850D01*
X1282700Y473075D01*
X1282700Y628650D01*
X1292225Y638175D01*
X1425575Y666750D02*
X1435100Y676275D01*
X1435100Y698500D01*
D27*
X1292225Y638175D03*
X1425575Y666750D03*
D26*
X939800Y196850D02*
X930275Y187325D01*
X1235075Y200025D02*
X1235075Y273050D01*
D27*
X930275Y187325D03*
X939800Y196850D03*
X1235075Y200025D03*
X1235075Y273050D03*
D26*
X190500Y203200D02*
X180975Y193675D01*
X180975Y130175D01*
X225425Y85725D01*
X225425Y60325D01*
X1136650Y44450D02*
X1165225Y73025D01*
X1181100Y73025D01*
X1181100Y279400D01*
X1193800Y292100D01*
D27*
X225425Y60325D03*
X1136650Y44450D03*
D26*
X1143000Y307975D02*
X1143000Y342900D01*
D27*
X1143000Y307975D03*
D26*
X454025Y949325D02*
X444500Y939800D01*
X454025Y949325D02*
X454025Y1076325D01*
X444500Y1085850D01*
X450850Y1092200D01*
X625475Y1092200D01*
X625475Y968375D01*
X650875Y942975D01*
X650875Y914400D01*
X663575Y901700D01*
X908050Y898525D02*
X911225Y901700D01*
X908050Y898525D02*
X908050Y396875D01*
X933450Y371475D01*
D27*
X663575Y901700D03*
X911225Y901700D03*
X933450Y371475D03*
X1031875Y349250D03*
D26*
X1158875Y98425D02*
X1168400Y88900D01*
X1158875Y98425D02*
X1158875Y231775D01*
X1162050Y234950D01*
X1162050Y279400D01*
X1158875Y282575D01*
X1158875Y508000D01*
X1162050Y511175D01*
X1076325Y517525D02*
X1054100Y539750D01*
X1054100Y638175D01*
X1057275Y641350D01*
X1057275Y990600D01*
X1054100Y993775D01*
D27*
X1162050Y511175D03*
X1076325Y517525D03*
X1054100Y993775D03*
D26*
X1273175Y92075D02*
X1270000Y88900D01*
X1273175Y92075D02*
X1273175Y123825D01*
X1308100Y158750D01*
X1308100Y603250D01*
X1298575Y612775D01*
X1298575Y898525D01*
D27*
X1298575Y898525D03*
D26*
X1193800Y146050D02*
X1187450Y139700D01*
X1193800Y146050D02*
X1193800Y165100D01*
D27*
X1187450Y139700D03*
D26*
X250825Y1000125D02*
X241300Y990600D01*
X250825Y1000125D02*
X250825Y1076325D01*
X244475Y1082675D01*
X228600Y1082675D01*
X228600Y1022350D01*
X158750Y952500D01*
X158750Y641350D01*
X165100Y635000D01*
X165100Y606425D01*
X168275Y603250D01*
X168275Y441325D01*
D27*
X168275Y441325D03*
D26*
X1092200Y215900D02*
X1098550Y209550D01*
X1098550Y177800D01*
X1104900Y171450D01*
X1104900Y47625D01*
X1082675Y25400D01*
X898525Y25400D01*
X898525Y187325D01*
X860425Y225425D01*
X860425Y263525D01*
X127000Y295275D02*
X114300Y307975D01*
X114300Y419100D01*
X111125Y422275D01*
X111125Y498475D01*
X101600Y508000D01*
D27*
X860425Y263525D03*
X127000Y295275D03*
D26*
X419100Y990600D02*
X396875Y1012825D01*
X196850Y1003300D02*
X152400Y958850D01*
X152400Y561975D01*
D27*
X396875Y1012825D03*
X196850Y1003300D03*
X152400Y561975D03*
D26*
X200025Y1028700D02*
X222250Y1050925D01*
X200025Y1028700D02*
X149225Y1028700D01*
X149225Y955675D01*
X146050Y952500D01*
X146050Y876300D01*
X142875Y873125D01*
X142875Y638175D01*
D27*
X222250Y1050925D03*
X142875Y638175D03*
D26*
X301625Y1050925D02*
X317500Y1066800D01*
X301625Y1050925D02*
X254000Y1050925D01*
X254000Y1079500D01*
X247650Y1085850D01*
X130175Y1085850D01*
X130175Y650875D01*
X117475Y638175D01*
D27*
X117475Y638175D03*
D26*
X231775Y1057275D02*
X241300Y1066800D01*
X231775Y1057275D02*
X231775Y847725D01*
X228600Y844550D01*
X228600Y638175D01*
D27*
X228600Y638175D03*
D26*
X790575Y441325D02*
X812800Y419100D01*
X790575Y441325D02*
X790575Y460375D01*
D27*
X790575Y460375D03*
X244475Y485775D03*
D26*
X803275Y352425D02*
X812800Y342900D01*
X803275Y352425D02*
X803275Y355600D01*
X796925Y361950D01*
D27*
X796925Y361950D03*
X447675Y422275D03*
D26*
X796925Y301625D02*
X812800Y317500D01*
X796925Y301625D02*
X796925Y292100D01*
X177800Y273050D02*
X136525Y314325D01*
X136525Y403225D01*
X114300Y425450D01*
X114300Y561975D01*
X101600Y574675D01*
X95250Y574675D01*
X92075Y577850D01*
X92075Y727075D01*
X101600Y736600D01*
D27*
X796925Y292100D03*
X177800Y273050D03*
D26*
X466725Y260350D02*
X488950Y238125D01*
X466725Y260350D02*
X466725Y355600D01*
X434975Y387350D01*
X434975Y419100D01*
X438150Y422275D01*
X438150Y438150D01*
X431800Y444500D01*
X431800Y666750D01*
X428625Y669925D01*
X120650Y688975D02*
X114300Y695325D01*
X114300Y774700D01*
X101600Y787400D01*
D27*
X488950Y238125D03*
X428625Y669925D03*
X120650Y688975D03*
X942975Y638175D03*
X1073150Y647700D03*
X946150Y663575D03*
X860425Y644525D03*
D26*
X1082675Y98425D02*
X1092200Y88900D01*
X1082675Y98425D02*
X1082675Y190500D01*
X1079500Y193675D01*
X1079500Y508000D01*
X1031875Y555625D01*
X1031875Y584200D01*
X463550Y574675D02*
X463550Y1019175D01*
X469900Y1025525D02*
X473075Y1028700D01*
X469900Y1025525D02*
X463550Y1019175D01*
X473075Y1028700D02*
X508000Y1028700D01*
X508000Y990600D01*
X469900Y1066800D02*
X450850Y1085850D01*
X469900Y1066800D02*
X469900Y1025525D01*
D27*
X1031875Y584200D03*
X463550Y574675D03*
X450850Y1085850D03*
D26*
X1193800Y130175D02*
X1193800Y88900D01*
X892175Y136525D02*
X847725Y92075D01*
X771525Y92075D01*
X771525Y66675D01*
X765175Y60325D01*
X749300Y60325D01*
X749300Y184150D01*
X739775Y193675D01*
X739775Y314325D01*
X746125Y320675D01*
X746125Y504825D01*
X720725Y530225D01*
X720725Y1000125D01*
X698500Y1022350D01*
D27*
X1193800Y130175D03*
X892175Y136525D03*
X698500Y1022350D03*
D26*
X1228725Y180975D02*
X1244600Y165100D01*
X1228725Y180975D02*
X1228725Y323850D01*
X1012825Y320675D02*
X1006475Y327025D01*
X1006475Y441325D01*
D27*
X1228725Y323850D03*
X1012825Y320675D03*
X1006475Y441325D03*
D26*
X1082675Y552450D02*
X1060450Y574675D01*
X1082675Y552450D02*
X1082675Y444500D01*
X1092200Y434975D01*
X1092200Y419100D01*
D27*
X1060450Y574675D03*
D26*
X307975Y219075D02*
X292100Y203200D01*
X307975Y219075D02*
X358775Y219075D01*
X358775Y165100D01*
X755650Y136525D02*
X803275Y136525D01*
X803275Y187325D01*
X838200Y222250D01*
X838200Y396875D01*
X901700Y409575D02*
X904875Y412750D01*
X904875Y631825D01*
X889000Y647700D01*
D27*
X358775Y165100D03*
X755650Y136525D03*
X838200Y396875D03*
X901700Y409575D03*
D26*
X1384300Y311150D02*
X1384300Y622300D01*
X1384300Y311150D02*
X1397000Y298450D01*
X1397000Y174625D01*
D27*
X1397000Y174625D03*
D26*
X1479550Y133350D02*
X1435100Y88900D01*
X1479550Y133350D02*
X1511300Y133350D01*
X1511300Y165100D01*
X1485900Y165100D02*
X1473200Y177800D01*
X1473200Y323850D01*
X1457325Y339725D01*
X1457325Y428625D01*
X1447800Y438150D01*
X1387475Y438150D01*
X1387475Y606425D01*
X1393825Y612775D01*
X1393825Y688975D01*
X1384300Y698500D01*
X238125Y631825D02*
X228600Y622300D01*
X215900Y609600D01*
X238125Y631825D02*
X238125Y682625D01*
X241300Y685800D01*
X688975Y212725D02*
X698500Y203200D01*
X688975Y212725D02*
X688975Y314325D01*
X695325Y320675D01*
X695325Y501650D01*
X228600Y495300D02*
X228600Y622300D01*
X1571625Y758825D02*
X1612900Y800100D01*
X1571625Y758825D02*
X1571625Y536575D01*
X876300Y485775D02*
X857250Y504825D01*
D27*
X695325Y501650D03*
X228600Y495300D03*
X1571625Y536575D03*
X876300Y485775D03*
X857250Y504825D03*
D26*
X508000Y863600D02*
X508000Y920750D01*
X469900Y958850D01*
X469900Y1019175D01*
D27*
X469900Y1019175D03*
D26*
X1739900Y444500D02*
X1758950Y463550D01*
X1758950Y552450D01*
X1739900Y571500D01*
X1625600Y508000D02*
X1622425Y504825D01*
X1622425Y358775D01*
X1638300Y342900D01*
X1111250Y231775D02*
X1104900Y238125D01*
X1104900Y568325D01*
X962025Y568325D02*
X952500Y577850D01*
X952500Y584200D01*
D27*
X1111250Y231775D03*
X1104900Y568325D03*
X962025Y568325D03*
D26*
X1101725Y180975D02*
X1117600Y165100D01*
X1101725Y180975D02*
X1101725Y555625D01*
X1082675Y574675D01*
D27*
X1082675Y574675D03*
D26*
X146050Y88900D02*
X60325Y174625D01*
X60325Y1047750D01*
X53975Y1054100D01*
X53975Y1108075D01*
X63500Y1117600D01*
D27*
X1016000Y107950D03*
X146050Y88900D03*
D26*
X1092200Y165100D02*
X1101725Y155575D01*
X1101725Y50800D01*
X1079500Y28575D01*
X939800Y28575D01*
X939800Y47625D01*
X44450Y168275D02*
X34925Y177800D01*
X34925Y996950D01*
X47625Y1009650D01*
X47625Y1108075D01*
X38100Y1117600D01*
D27*
X939800Y47625D03*
X44450Y168275D03*
D26*
X1108075Y374650D02*
X1123950Y358775D01*
X1108075Y374650D02*
X1108075Y565150D01*
X1111250Y568325D01*
X1111250Y609600D01*
X1101725Y619125D01*
X1101725Y739775D01*
X1092200Y749300D01*
D27*
X1123950Y358775D03*
M02*
