%
M48
M72
T01C0.01300
T02C0.03150
T03C0.03200
T04C0.03600
T05C0.03937
T06C0.04000
T07C0.04400
T08C0.04500
T09C0.04724
T10C0.07100
T11C0.11000
%
T01
X185167Y90250
X176417Y84000
X210167Y77750
X200167Y77750
X160167Y81500
X157667Y86500
X165167Y89000
X167667Y84000
X127667Y76500
X100167Y77750
X105167Y81500
X65167Y39000
X172667Y35250
X142667Y91500
X168917Y112750
X171417Y119000
X176417Y124000
X186417Y131500
X197667Y134000
X200167Y141500
X208917Y390250
X191417Y571500
X386417Y221500
X388917Y67750
X416417Y172750
X421417Y175250
X401417Y76500
X395167Y115250
X401417Y112750
X386417Y84000
X355167Y214000
X352667Y127750
X350167Y120250
X345167Y132750
X340167Y112750
X337667Y151500
X335167Y107750
X326417Y86500
X332667Y79000
X337667Y79000
X365167Y97750
X380167Y129000
X380167Y115250
X382667Y91500
X385167Y54000
X378917Y44000
X381417Y41500
X357667Y44000
X362667Y79000
X362667Y202750
X283917Y397750
X321417Y510250
X318917Y451500
X315167Y79000
X312667Y81500
X327667Y81500
X305167Y69000
X297667Y142750
X297667Y155250
X290167Y162750
X290167Y92750
X287667Y171500
X267667Y115250
X257667Y105250
X262667Y76500
X357667Y130250
X345167Y160250
X342667Y157750
X330167Y200250
X318917Y105250
X310167Y86500
X323917Y131500
X295167Y206500
X281417Y90250
X278917Y95250
X277667Y142750
X277667Y146500
X270167Y144000
X262667Y174000
X275167Y112750
X267667Y87750
X252667Y90250
X247667Y87750
X240167Y85250
X235167Y92750
X218917Y117750
X221417Y137750
X200167Y220250
X197667Y215250
X205167Y392750
X282667Y464000
X252667Y84000
X282667Y81500
X227667Y105250
X225167Y110250
X221417Y107750
X208917Y120250
X206417Y125250
X206417Y130250
X216417Y149000
X218917Y135250
X225167Y152750
X228917Y419000
X227667Y424000
X203917Y415250
X186417Y424000
X176417Y421500
X176417Y415250
X116417Y389000
X102667Y409000
X98917Y662750
X147667Y569000
X83917Y384000
X67667Y287750
X172667Y384000
X162667Y395250
X158917Y400250
X176417Y494000
X130167Y490250
X127667Y494000
X83917Y491500
X55167Y542750
X123917Y205250
X123917Y192750
X107667Y149000
X95167Y151500
X92667Y314000
X131417Y240250
X151417Y252750
X160167Y334000
X151417Y352750
X62667Y175250
X55167Y70250
X60167Y75250
X57667Y81500
X72667Y129000
X80167Y135250
X147667Y146500
X151417Y155250
X155167Y155250
X155167Y136500
X138917Y172750
X133917Y192750
X157667Y220250
X138917Y240250
X171417Y185250
X171417Y175250
X187667Y175250
X212667Y157750
X218917Y180250
X225167Y202750
X237667Y206500
X192667Y229000
X192667Y225250
X188917Y210250
X171417Y205250
X171417Y195250
X186417Y190250
X192667Y182750
X198917Y185250
X236417Y232750
X257667Y169000
X252667Y166500
X233917Y174000
X202667Y262750
T02
X40009Y721500
X20324Y721500
T03
X15167Y41500
X15167Y136500
X15167Y146500
X210167Y216500
X210167Y226500
X210167Y236500
X205167Y406500
X205167Y575500
X205167Y585500
X205167Y597500
X295167Y576500
X295167Y586500
X295167Y597500
X295167Y637500
X250167Y637500
X250167Y651500
X220167Y651500
X190167Y651500
X280167Y721500
X280167Y711500
X280167Y691500
X280167Y651500
X250167Y691500
X250167Y711500
X250167Y721500
X220167Y721500
X220167Y711500
X220167Y691500
X190167Y691500
X190167Y711500
X190167Y721500
X160167Y711500
X160167Y721500
X320167Y681500
X425167Y396500
X395167Y311500
X385167Y311500
X375167Y296500
X375167Y286500
X375167Y276500
X375167Y266500
X405167Y286500
X405167Y276500
X405167Y266500
X375167Y226500
X375167Y236500
X435167Y51500
X435167Y61500
X405167Y256500
X405167Y246500
X405167Y236500
X405167Y226500
X405167Y216500
X375167Y216500
X405167Y206500
X405167Y196500
X405167Y186500
X405167Y176500
X405167Y166500
X435167Y156500
X435167Y166500
X435167Y176500
X435167Y186500
X435167Y196500
X435167Y206500
X435167Y216500
X435167Y41500
X435167Y136500
X435167Y146500
X435167Y121500
X435167Y111500
X435167Y101500
X435167Y91500
X435167Y81500
X435167Y71500
X375167Y176500
X375167Y186500
X375167Y166500
X340167Y196500
X340167Y206500
X340167Y216500
X340167Y226500
X340167Y236500
X405167Y296500
X310167Y371500
X310167Y341500
X320167Y341500
X330167Y341500
X340167Y341500
X340167Y371500
X330167Y371500
X320167Y371500
X275167Y276500
X275167Y286500
X290167Y346500
X290167Y366500
X280167Y406500
X290167Y406500
X340167Y576500
X340167Y586500
X340167Y597500
X340167Y637500
X330167Y681500
X415167Y575500
X415167Y585500
X415167Y598500
X415167Y638500
X435167Y711500
X435167Y721500
X435167Y686500
X435167Y646500
X320167Y436500
X310167Y436500
X280167Y436500
X255167Y416500
X255167Y426500
X235167Y347500
X300167Y406500
X310167Y406500
X320167Y406500
X330167Y406500
X350167Y406500
X340167Y406500
X360167Y406500
X370167Y406500
X385167Y396500
X370167Y436500
X360167Y436500
X350167Y436500
X340167Y436500
X330167Y436500
X300167Y436500
X290167Y436500
X250167Y366500
X250167Y346500
X230167Y296500
X245167Y296500
X275167Y246500
X275167Y256500
X310167Y276500
X310167Y286500
X330167Y311500
X340167Y296500
X340167Y286500
X340167Y276500
X340167Y266500
X340167Y256500
X310167Y296500
X320167Y311500
X295167Y296500
X310167Y266500
X310167Y256500
X310167Y246500
X310167Y236500
X275167Y166500
X275167Y176500
X275167Y186500
X340167Y166500
X340167Y176500
X340167Y186500
X310167Y186500
X310167Y166500
X310167Y176500
X310167Y196500
X310167Y206500
X310167Y216500
X310167Y226500
X295167Y256500
X210167Y206500
X210167Y246500
X200167Y311500
X195167Y436500
X205167Y436500
X215167Y436500
X185167Y436500
X165167Y406500
X175167Y406500
X205167Y637500
X250167Y597500
X250167Y586500
X250167Y576500
X225167Y436500
X225167Y406500
X215167Y406500
X195167Y406500
X185167Y406500
X180167Y371500
X170167Y371500
X165167Y436500
X175167Y436500
X155167Y436500
X145167Y436500
X135167Y436500
X135167Y406500
X110167Y426500
X110167Y371500
X110167Y416500
X130167Y371500
X160167Y691500
X105167Y686500
X125167Y686500
X115167Y686500
X160167Y651500
X160167Y637500
X160167Y597500
X160167Y586500
X160167Y576500
X115167Y576500
X115167Y586500
X115167Y597500
X80167Y421500
X70167Y396500
X80167Y396500
X80167Y371500
X70167Y371500
X60167Y371500
X50167Y266500
X50167Y276500
X35167Y296500
X50167Y296500
X50167Y286500
X60167Y311500
X70167Y311500
X80167Y296500
X80167Y286500
X80167Y276500
X80167Y266500
X80167Y256500
X80167Y246500
X80167Y236500
X80167Y226500
X80167Y216500
X100167Y371500
X90167Y371500
X85167Y686500
X75167Y686500
X65167Y686500
X40167Y421500
X55167Y396500
X45167Y396500
X50167Y371500
X60167Y341500
X120167Y371500
X140167Y371500
X150167Y371500
X160167Y371500
X150167Y341500
X160167Y341500
X170167Y341500
X180167Y341500
X190167Y311500
X180167Y296500
X165167Y296500
X145167Y296500
X145167Y286500
X145167Y276500
X145167Y266500
X145167Y256500
X125167Y311500
X135167Y311500
X130167Y341500
X120167Y341500
X110167Y341500
X115167Y296500
X115167Y286500
X115167Y276500
X115167Y266500
X115167Y256500
X115167Y246500
X115167Y236500
X115167Y226500
X115167Y216500
X115167Y206500
X115167Y196500
X115167Y186500
X80167Y166500
X100167Y341500
X90167Y341500
X80167Y341500
X70167Y341500
X100167Y296500
X100167Y256500
X155167Y406500
X70167Y575500
X70167Y585500
X70167Y597500
X70167Y637500
X115167Y637500
X25167Y637500
X25167Y597500
X25167Y585500
X25167Y575500
X50167Y341500
X50167Y256500
X50167Y246500
X50167Y236500
X50167Y176500
X50167Y166500
X50167Y186500
X50167Y196500
X15167Y216500
X15167Y206500
X15167Y196500
X15167Y186500
X15167Y176500
X15167Y166500
X80167Y176500
X80167Y186500
X80167Y196500
X80167Y206500
X50167Y206500
X50167Y216500
X50167Y226500
X35167Y256500
X15167Y156500
X15167Y121500
X15167Y111500
X15167Y101500
X15167Y91500
X15167Y81500
X15167Y71500
X15167Y61500
X15167Y51500
X115167Y166500
X115167Y176500
X145167Y166500
X145167Y176500
X145167Y186500
X145167Y196500
X145167Y206500
X145167Y226500
X145167Y216500
X145167Y236500
X145167Y246500
X180167Y176500
X180167Y166500
X245167Y166500
X210167Y166500
X210167Y176500
X210167Y186500
X210167Y196500
X180167Y186500
X180167Y196500
X180167Y206500
X180167Y226500
X180167Y216500
X180167Y236500
X180167Y246500
X180167Y256500
X180167Y266500
X165167Y256500
X180167Y276500
X180167Y286500
X210167Y296500
X210167Y286500
X210167Y276500
X210167Y266500
X210167Y256500
X245167Y236500
X275167Y226500
X275167Y216500
X275167Y206500
X275167Y196500
X225167Y347500
X226167Y365500
X236167Y365500
X203167Y366000
X203167Y347000
X140167Y341500
X145167Y406500
X230167Y256500
X245167Y256500
X245167Y246500
X245167Y266500
X245167Y276500
X245167Y286500
X255167Y311500
X265167Y311500
X275167Y296500
X275167Y266500
X275167Y236500
X245167Y196500
X245167Y186500
X245167Y176500
X245167Y206500
X245167Y216500
X245167Y226500
X340167Y246500
X360167Y296500
X360167Y256500
X375167Y256500
X375167Y246500
X375167Y206500
X375167Y196500
T04
X365167Y656500
X365167Y681500
X375167Y681500
X375167Y656500
T05
X375167Y716500
T06
X120167Y51500
X130167Y51500
X130167Y61500
X140167Y61500
X150167Y51500
X170167Y51500
X170167Y61500
X180167Y51500
X180167Y61500
X190167Y61500
X200167Y51500
X210167Y51500
X190167Y51500
X200167Y61500
X210167Y61500
X210167Y71500
X220167Y61500
X230167Y61500
X240167Y61500
X220167Y51500
X220167Y71500
X200167Y71500
X190167Y71500
X180167Y71500
X170167Y71500
X160167Y51500
X160167Y61500
X160167Y71500
X150167Y71500
X150167Y61500
X140167Y51500
X120167Y61500
X130167Y71500
X120167Y71500
X110167Y61500
X110167Y71500
X100167Y61500
X100167Y51500
X110167Y51500
X90167Y61500
X100167Y71500
X90167Y71500
X90167Y51500
X80167Y51500
X80167Y61500
X70167Y61500
X70167Y51500
X140167Y71500
X365167Y716500
X355167Y716500
X345167Y716500
X335167Y716500
X325167Y716500
X310167Y51500
X320167Y71500
X300167Y61500
X320167Y51500
X330167Y51500
X330167Y61500
X330167Y71500
X340167Y71500
X350167Y71500
X340167Y61500
X350167Y61500
X360167Y61500
X380167Y71500
X380167Y61500
X380167Y51500
X370167Y61500
X370167Y51500
X360167Y51500
X350167Y51500
X340167Y51500
X360167Y71500
X370167Y346500
X370167Y356500
X370167Y366500
X320167Y61500
X310167Y61500
X310167Y71500
X300167Y71500
X260167Y71500
X270167Y71500
X270167Y61500
X280167Y61500
X290167Y71500
X280167Y71500
X290167Y61500
X290167Y51500
X300167Y51500
X370167Y71500
X240167Y71500
X230167Y71500
X250167Y71500
X250167Y61500
X250167Y51500
X260167Y51500
X260167Y61500
X270167Y51500
X280167Y51500
X70167Y71500
X240167Y51500
X230167Y51500
X80167Y71500
T07
X125167Y706500
X105167Y706500
X65167Y706500
X85167Y706500
T08
X417962Y365358
X417962Y347642
X392371Y347642
X392371Y365358
T09
X43946Y711657
X16387Y711657
T10
X205167Y540000
X205167Y521500
X205167Y503000
X160167Y521500
X160167Y540000
X295167Y540000
X295167Y521500
X295167Y503000
X340167Y521500
X250167Y521500
X250167Y540000
X340167Y503000
X340167Y540000
X415167Y540000
X415167Y521500
X415167Y503000
X250167Y503000
X160167Y503000
X70167Y540000
X70167Y521500
X70167Y503000
X25167Y540000
X25167Y521500
X25167Y503000
X115167Y521500
X115167Y540000
X115167Y503000
T11
X50141Y41500
X400192Y41500
M30
