G04 EAGLE Gerber RS-274X export*
G75*
%MOMM*%
%FSLAX34Y34*%
%LPD*%
%INCopper Layer 2*%
%IPPOS*%
%AMOC8*
5,1,8,0,0,1.08239X$1,22.5*%
G01*
%ADD10C,1.371600*%
%ADD11C,2.400300*%
%ADD12C,1.219200*%
%ADD13C,0.254000*%
%ADD14C,0.609600*%


D10*
X-1422400Y-393700D03*
X-1422400Y-368300D03*
X-1422400Y-342900D03*
X-1422400Y-317500D03*
X-1422400Y-292100D03*
X-1422400Y-266700D03*
X-1422400Y-241300D03*
X-1422400Y-215900D03*
X-1422400Y-190500D03*
X-1422400Y-165100D03*
X-1422400Y-139700D03*
X-1422400Y-114300D03*
X-1422400Y-88900D03*
X-1422400Y-63500D03*
X-1422400Y-38100D03*
X-1422400Y-12700D03*
X-1422400Y12700D03*
X-1422400Y38100D03*
X-1422400Y63500D03*
X-1422400Y88900D03*
X-1422400Y114300D03*
X-1422400Y139700D03*
X-1422400Y165100D03*
X-1422400Y190500D03*
X-1422400Y215900D03*
X-1422400Y241300D03*
X-1422400Y266700D03*
X-1422400Y292100D03*
X-1422400Y317500D03*
X-1422400Y342900D03*
X-1422400Y368300D03*
X-1422400Y393700D03*
X-1473200Y-393700D03*
X-1473200Y-368300D03*
X-1473200Y-342900D03*
X-1473200Y-317500D03*
X-1473200Y-292100D03*
X-1473200Y-266700D03*
X-1473200Y-241300D03*
X-1473200Y-215900D03*
X-1473200Y-190500D03*
X-1473200Y-165100D03*
X-1473200Y-139700D03*
X-1473200Y-114300D03*
X-1473200Y-88900D03*
X-1473200Y-63500D03*
X-1473200Y-38100D03*
X-1473200Y-12700D03*
X-1473200Y12700D03*
X-1473200Y38100D03*
X-1473200Y63500D03*
X-1473200Y88900D03*
X-1473200Y114300D03*
X-1473200Y139700D03*
X-1473200Y165100D03*
X-1473200Y190500D03*
X-1473200Y215900D03*
X-1473200Y241300D03*
X-1473200Y266700D03*
X-1473200Y292100D03*
X-1473200Y317500D03*
X-1473200Y342900D03*
X-1473200Y368300D03*
X-1473200Y393700D03*
X-1447800Y-393700D03*
X-1447800Y-368300D03*
X-1447800Y-342900D03*
X-1447800Y-317500D03*
X-1447800Y-292100D03*
X-1447800Y-266700D03*
X-1447800Y-241300D03*
X-1447800Y-215900D03*
X-1447800Y-190500D03*
X-1447800Y-165100D03*
X-1447800Y-139700D03*
X-1447800Y-114300D03*
X-1447800Y-88900D03*
X-1447800Y-63500D03*
X-1447800Y-38100D03*
X-1447800Y-12700D03*
X-1447800Y12700D03*
X-1447800Y38100D03*
X-1447800Y63500D03*
X-1447800Y88900D03*
X-1447800Y114300D03*
X-1447800Y139700D03*
X-1447800Y165100D03*
X-1447800Y190500D03*
X-1447800Y215900D03*
X-1447800Y241300D03*
X-1447800Y266700D03*
X-1447800Y292100D03*
X-1447800Y317500D03*
X-1447800Y342900D03*
X-1447800Y368300D03*
X-1447800Y393700D03*
X393700Y-1422400D03*
X368300Y-1422400D03*
X342900Y-1422400D03*
X317500Y-1422400D03*
X292100Y-1422400D03*
X266700Y-1422400D03*
X241300Y-1422400D03*
X215900Y-1422400D03*
X190500Y-1422400D03*
X165100Y-1422400D03*
X139700Y-1422400D03*
X114300Y-1422400D03*
X88900Y-1422400D03*
X63500Y-1422400D03*
X38100Y-1422400D03*
X12700Y-1422400D03*
X-12700Y-1422400D03*
X-38100Y-1422400D03*
X-63500Y-1422400D03*
X-88900Y-1422400D03*
X-114300Y-1422400D03*
X-139700Y-1422400D03*
X-165100Y-1422400D03*
X-190500Y-1422400D03*
X-215900Y-1422400D03*
X-241300Y-1422400D03*
X-266700Y-1422400D03*
X-292100Y-1422400D03*
X-317500Y-1422400D03*
X-342900Y-1422400D03*
X-368300Y-1422400D03*
X-393700Y-1422400D03*
X393700Y-1473200D03*
X368300Y-1473200D03*
X342900Y-1473200D03*
X317500Y-1473200D03*
X292100Y-1473200D03*
X266700Y-1473200D03*
X241300Y-1473200D03*
X215900Y-1473200D03*
X190500Y-1473200D03*
X165100Y-1473200D03*
X139700Y-1473200D03*
X114300Y-1473200D03*
X88900Y-1473200D03*
X63500Y-1473200D03*
X38100Y-1473200D03*
X12700Y-1473200D03*
X-12700Y-1473200D03*
X-38100Y-1473200D03*
X-63500Y-1473200D03*
X-88900Y-1473200D03*
X-114300Y-1473200D03*
X-139700Y-1473200D03*
X-165100Y-1473200D03*
X-190500Y-1473200D03*
X-215900Y-1473200D03*
X-241300Y-1473200D03*
X-266700Y-1473200D03*
X-292100Y-1473200D03*
X-317500Y-1473200D03*
X-342900Y-1473200D03*
X-368300Y-1473200D03*
X-393700Y-1473200D03*
X393700Y-1447800D03*
X368300Y-1447800D03*
X342900Y-1447800D03*
X317500Y-1447800D03*
X292100Y-1447800D03*
X266700Y-1447800D03*
X241300Y-1447800D03*
X215900Y-1447800D03*
X190500Y-1447800D03*
X165100Y-1447800D03*
X139700Y-1447800D03*
X114300Y-1447800D03*
X88900Y-1447800D03*
X63500Y-1447800D03*
X38100Y-1447800D03*
X12700Y-1447800D03*
X-12700Y-1447800D03*
X-38100Y-1447800D03*
X-63500Y-1447800D03*
X-88900Y-1447800D03*
X-114300Y-1447800D03*
X-139700Y-1447800D03*
X-165100Y-1447800D03*
X-190500Y-1447800D03*
X-215900Y-1447800D03*
X-241300Y-1447800D03*
X-266700Y-1447800D03*
X-292100Y-1447800D03*
X-317500Y-1447800D03*
X-342900Y-1447800D03*
X-368300Y-1447800D03*
X-393700Y-1447800D03*
X-393700Y1422400D03*
X-368300Y1422400D03*
X-342900Y1422400D03*
X-317500Y1422400D03*
X-292100Y1422400D03*
X-266700Y1422400D03*
X-241300Y1422400D03*
X-215900Y1422400D03*
X-190500Y1422400D03*
X-165100Y1422400D03*
X-139700Y1422400D03*
X-114300Y1422400D03*
X-88900Y1422400D03*
X-63500Y1422400D03*
X-38100Y1422400D03*
X-12700Y1422400D03*
X12700Y1422400D03*
X38100Y1422400D03*
X63500Y1422400D03*
X88900Y1422400D03*
X114300Y1422400D03*
X139700Y1422400D03*
X165100Y1422400D03*
X190500Y1422400D03*
X215900Y1422400D03*
X241300Y1422400D03*
X266700Y1422400D03*
X292100Y1422400D03*
X317500Y1422400D03*
X342900Y1422400D03*
X368300Y1422400D03*
X393700Y1422400D03*
X-393700Y1473200D03*
X-368300Y1473200D03*
X-342900Y1473200D03*
X-317500Y1473200D03*
X-292100Y1473200D03*
X-266700Y1473200D03*
X-241300Y1473200D03*
X-215900Y1473200D03*
X-190500Y1473200D03*
X-165100Y1473200D03*
X-139700Y1473200D03*
X-114300Y1473200D03*
X-88900Y1473200D03*
X-63500Y1473200D03*
X-38100Y1473200D03*
X-12700Y1473200D03*
X12700Y1473200D03*
X38100Y1473200D03*
X63500Y1473200D03*
X88900Y1473200D03*
X114300Y1473200D03*
X139700Y1473200D03*
X165100Y1473200D03*
X190500Y1473200D03*
X215900Y1473200D03*
X241300Y1473200D03*
X266700Y1473200D03*
X292100Y1473200D03*
X317500Y1473200D03*
X342900Y1473200D03*
X368300Y1473200D03*
X393700Y1473200D03*
X-393700Y1447800D03*
X-368300Y1447800D03*
X-342900Y1447800D03*
X-317500Y1447800D03*
X-292100Y1447800D03*
X-266700Y1447800D03*
X-241300Y1447800D03*
X-215900Y1447800D03*
X-190500Y1447800D03*
X-165100Y1447800D03*
X-139700Y1447800D03*
X-114300Y1447800D03*
X-88900Y1447800D03*
X-63500Y1447800D03*
X-38100Y1447800D03*
X-12700Y1447800D03*
X12700Y1447800D03*
X38100Y1447800D03*
X63500Y1447800D03*
X88900Y1447800D03*
X114300Y1447800D03*
X139700Y1447800D03*
X165100Y1447800D03*
X190500Y1447800D03*
X215900Y1447800D03*
X241300Y1447800D03*
X266700Y1447800D03*
X292100Y1447800D03*
X317500Y1447800D03*
X342900Y1447800D03*
X368300Y1447800D03*
X393700Y1447800D03*
X724829Y1285109D03*
X742790Y1267148D03*
X760750Y1249188D03*
X778711Y1231227D03*
X796671Y1213267D03*
X814632Y1195306D03*
X832592Y1177346D03*
X850553Y1159385D03*
X868513Y1141425D03*
X886474Y1123464D03*
X904434Y1105504D03*
X922395Y1087543D03*
X940355Y1069583D03*
X958316Y1051622D03*
X976276Y1033662D03*
X994237Y1015701D03*
X1012197Y997741D03*
X1030158Y979780D03*
X1048118Y961820D03*
X1066079Y943859D03*
X1084039Y925899D03*
X1102000Y907938D03*
X1119960Y889978D03*
X1137921Y872017D03*
X1155881Y854057D03*
X1173842Y836096D03*
X1191802Y818136D03*
X1209763Y800175D03*
X1227723Y782215D03*
X1245684Y764254D03*
X1263644Y746293D03*
X1281605Y728333D03*
X760750Y1321030D03*
X778711Y1303069D03*
X796671Y1285109D03*
X814632Y1267148D03*
X832592Y1249188D03*
X850553Y1231227D03*
X868513Y1213267D03*
X886474Y1195306D03*
X904434Y1177346D03*
X922395Y1159385D03*
X940355Y1141425D03*
X958316Y1123464D03*
X976276Y1105504D03*
X994237Y1087543D03*
X1012197Y1069583D03*
X1030158Y1051622D03*
X1048118Y1033662D03*
X1066079Y1015701D03*
X1084039Y997741D03*
X1102000Y979780D03*
X1119960Y961820D03*
X1137921Y943859D03*
X1155881Y925899D03*
X1173842Y907938D03*
X1191802Y889978D03*
X1209763Y872017D03*
X1227723Y854057D03*
X1245684Y836096D03*
X1263644Y818136D03*
X1281605Y800175D03*
X1299565Y782215D03*
X1317526Y764254D03*
X742790Y1303069D03*
X760750Y1285109D03*
X778711Y1267148D03*
X796671Y1249188D03*
X814632Y1231227D03*
X832592Y1213267D03*
X850553Y1195306D03*
X868513Y1177346D03*
X886474Y1159385D03*
X904434Y1141425D03*
X922395Y1123464D03*
X940355Y1105504D03*
X958316Y1087543D03*
X976276Y1069583D03*
X994237Y1051622D03*
X1012197Y1033662D03*
X1030158Y1015701D03*
X1048118Y997741D03*
X1066079Y979780D03*
X1084039Y961820D03*
X1102000Y943859D03*
X1119960Y925899D03*
X1137921Y907938D03*
X1155881Y889978D03*
X1173842Y872017D03*
X1191802Y854057D03*
X1209763Y836096D03*
X1227723Y818136D03*
X1245684Y800175D03*
X1263644Y782215D03*
X1281605Y764254D03*
X1299565Y746293D03*
X-1284769Y724009D03*
X-1266809Y741970D03*
X-1248848Y759930D03*
X-1230888Y777891D03*
X-1212927Y795851D03*
X-1194967Y813812D03*
X-1177006Y831772D03*
X-1159046Y849733D03*
X-1141085Y867694D03*
X-1123125Y885654D03*
X-1105164Y903615D03*
X-1087204Y921575D03*
X-1069243Y939536D03*
X-1051283Y957496D03*
X-1033322Y975457D03*
X-1015362Y993417D03*
X-997401Y1011378D03*
X-979441Y1029338D03*
X-961480Y1047299D03*
X-943520Y1065259D03*
X-925559Y1083220D03*
X-907599Y1101180D03*
X-889638Y1119141D03*
X-871678Y1137101D03*
X-853717Y1155062D03*
X-835757Y1173022D03*
X-817796Y1190983D03*
X-799836Y1208943D03*
X-781875Y1226904D03*
X-763915Y1244864D03*
X-745954Y1262825D03*
X-727994Y1280785D03*
X-1320690Y759930D03*
X-1302730Y777891D03*
X-1284769Y795851D03*
X-1266809Y813812D03*
X-1248848Y831772D03*
X-1230888Y849733D03*
X-1212927Y867694D03*
X-1194967Y885654D03*
X-1177006Y903615D03*
X-1159046Y921575D03*
X-1141085Y939536D03*
X-1123125Y957496D03*
X-1105164Y975457D03*
X-1087204Y993417D03*
X-1069243Y1011378D03*
X-1051283Y1029338D03*
X-1033322Y1047299D03*
X-1015362Y1065259D03*
X-997401Y1083220D03*
X-979441Y1101180D03*
X-961480Y1119141D03*
X-943520Y1137101D03*
X-925559Y1155062D03*
X-907599Y1173022D03*
X-889638Y1190983D03*
X-871678Y1208943D03*
X-853717Y1226904D03*
X-835757Y1244864D03*
X-817796Y1262825D03*
X-799836Y1280785D03*
X-781875Y1298746D03*
X-763915Y1316706D03*
X-1302730Y741970D03*
X-1284769Y759930D03*
X-1266809Y777891D03*
X-1248848Y795851D03*
X-1230888Y813812D03*
X-1212927Y831772D03*
X-1194967Y849733D03*
X-1177006Y867694D03*
X-1159046Y885654D03*
X-1141085Y903615D03*
X-1123125Y921575D03*
X-1105164Y939536D03*
X-1087204Y957496D03*
X-1069243Y975457D03*
X-1051283Y993417D03*
X-1033322Y1011378D03*
X-1015362Y1029338D03*
X-997401Y1047299D03*
X-979441Y1065259D03*
X-961480Y1083220D03*
X-943520Y1101180D03*
X-925559Y1119141D03*
X-907599Y1137101D03*
X-889638Y1155062D03*
X-871678Y1173022D03*
X-853717Y1190983D03*
X-835757Y1208943D03*
X-817796Y1226904D03*
X-799836Y1244864D03*
X-781875Y1262825D03*
X-763915Y1280785D03*
X-745954Y1298746D03*
X1279245Y-724274D03*
X1261284Y-742234D03*
X1243324Y-760195D03*
X1225363Y-778155D03*
X1207403Y-796116D03*
X1189442Y-814076D03*
X1171481Y-832037D03*
X1153521Y-849997D03*
X1135560Y-867958D03*
X1117600Y-885918D03*
X1099639Y-903879D03*
X1081679Y-921839D03*
X1063718Y-939800D03*
X1045758Y-957760D03*
X1027797Y-975721D03*
X1009837Y-993682D03*
X991876Y-1011642D03*
X973916Y-1029603D03*
X955955Y-1047563D03*
X937995Y-1065524D03*
X920034Y-1083484D03*
X902074Y-1101445D03*
X884113Y-1119405D03*
X866153Y-1137366D03*
X848192Y-1155326D03*
X830232Y-1173287D03*
X812271Y-1191247D03*
X794311Y-1209208D03*
X776350Y-1227168D03*
X758390Y-1245129D03*
X740429Y-1263089D03*
X722469Y-1281050D03*
X1315166Y-760195D03*
X1297205Y-778155D03*
X1279245Y-796116D03*
X1261284Y-814076D03*
X1243324Y-832037D03*
X1225363Y-849997D03*
X1207403Y-867958D03*
X1189442Y-885918D03*
X1171481Y-903879D03*
X1153521Y-921839D03*
X1135560Y-939800D03*
X1117600Y-957760D03*
X1099639Y-975721D03*
X1081679Y-993682D03*
X1063718Y-1011642D03*
X1045758Y-1029603D03*
X1027797Y-1047563D03*
X1009837Y-1065524D03*
X991876Y-1083484D03*
X973916Y-1101445D03*
X955955Y-1119405D03*
X937995Y-1137366D03*
X920034Y-1155326D03*
X902074Y-1173287D03*
X884113Y-1191247D03*
X866153Y-1209208D03*
X848192Y-1227168D03*
X830232Y-1245129D03*
X812271Y-1263089D03*
X794311Y-1281050D03*
X776350Y-1299010D03*
X758390Y-1316971D03*
X1297205Y-742234D03*
X1279245Y-760195D03*
X1261284Y-778155D03*
X1243324Y-796116D03*
X1225363Y-814076D03*
X1207403Y-832037D03*
X1189442Y-849997D03*
X1171481Y-867958D03*
X1153521Y-885918D03*
X1135560Y-903879D03*
X1117600Y-921839D03*
X1099639Y-939800D03*
X1081679Y-957760D03*
X1063718Y-975721D03*
X1045758Y-993682D03*
X1027797Y-1011642D03*
X1009837Y-1029603D03*
X991876Y-1047563D03*
X973916Y-1065524D03*
X955955Y-1083484D03*
X937995Y-1101445D03*
X920034Y-1119405D03*
X902074Y-1137366D03*
X884113Y-1155326D03*
X866153Y-1173287D03*
X848192Y-1191247D03*
X830232Y-1209208D03*
X812271Y-1227168D03*
X794311Y-1245129D03*
X776350Y-1263089D03*
X758390Y-1281050D03*
X740429Y-1299010D03*
X-730173Y-1286046D03*
X-748133Y-1268085D03*
X-766094Y-1250125D03*
X-784054Y-1232164D03*
X-802015Y-1214204D03*
X-819975Y-1196243D03*
X-837936Y-1178283D03*
X-855896Y-1160322D03*
X-873857Y-1142362D03*
X-891817Y-1124401D03*
X-909778Y-1106441D03*
X-927738Y-1088480D03*
X-945699Y-1070520D03*
X-963659Y-1052559D03*
X-981620Y-1034599D03*
X-999580Y-1016638D03*
X-1017541Y-998678D03*
X-1035501Y-980717D03*
X-1053462Y-962757D03*
X-1071422Y-944796D03*
X-1089383Y-926836D03*
X-1107343Y-908875D03*
X-1125304Y-890915D03*
X-1143264Y-872954D03*
X-1161225Y-854994D03*
X-1179185Y-837033D03*
X-1197146Y-819073D03*
X-1215106Y-801112D03*
X-1233067Y-783151D03*
X-1251027Y-765191D03*
X-1268988Y-747230D03*
X-1286948Y-729270D03*
X-766094Y-1321967D03*
X-784054Y-1304006D03*
X-802015Y-1286046D03*
X-819975Y-1268085D03*
X-837936Y-1250125D03*
X-855896Y-1232164D03*
X-873857Y-1214204D03*
X-891817Y-1196243D03*
X-909778Y-1178283D03*
X-927738Y-1160322D03*
X-945699Y-1142362D03*
X-963659Y-1124401D03*
X-981620Y-1106441D03*
X-999580Y-1088480D03*
X-1017541Y-1070520D03*
X-1035501Y-1052559D03*
X-1053462Y-1034599D03*
X-1071422Y-1016638D03*
X-1089383Y-998678D03*
X-1107343Y-980717D03*
X-1125304Y-962757D03*
X-1143264Y-944796D03*
X-1161225Y-926836D03*
X-1179185Y-908875D03*
X-1197146Y-890915D03*
X-1215106Y-872954D03*
X-1233067Y-854994D03*
X-1251027Y-837033D03*
X-1268988Y-819073D03*
X-1286948Y-801112D03*
X-1304909Y-783151D03*
X-1322869Y-765191D03*
X-748133Y-1304006D03*
X-766094Y-1286046D03*
X-784054Y-1268085D03*
X-802015Y-1250125D03*
X-819975Y-1232164D03*
X-837936Y-1214204D03*
X-855896Y-1196243D03*
X-873857Y-1178283D03*
X-891817Y-1160322D03*
X-909778Y-1142362D03*
X-927738Y-1124401D03*
X-945699Y-1106441D03*
X-963659Y-1088480D03*
X-981620Y-1070520D03*
X-999580Y-1052559D03*
X-1017541Y-1034599D03*
X-1035501Y-1016638D03*
X-1053462Y-998678D03*
X-1071422Y-980717D03*
X-1089383Y-962757D03*
X-1107343Y-944796D03*
X-1125304Y-926836D03*
X-1143264Y-908875D03*
X-1161225Y-890915D03*
X-1179185Y-872954D03*
X-1197146Y-854994D03*
X-1215106Y-837033D03*
X-1233067Y-819073D03*
X-1251027Y-801112D03*
X-1268988Y-783151D03*
X-1286948Y-765191D03*
X-1304909Y-747230D03*
D11*
X-1384300Y-520700D03*
X-1346200Y-622300D03*
D12*
X-546100Y-1460500D03*
X-546100Y-1485900D03*
X-546100Y-1409700D03*
X-546100Y-1308100D03*
X-1293859Y-379459D03*
X-1344659Y-379459D03*
X-650782Y-1185458D03*
X-686703Y-1221379D03*
X383817Y-1291680D03*
X383817Y-1342480D03*
X1179559Y-649241D03*
X1215480Y-685162D03*
X1293221Y381000D03*
X1344021Y381000D03*
X640899Y1190080D03*
X676820Y1226001D03*
D10*
X1422400Y393700D03*
X1422400Y368300D03*
X1422400Y342900D03*
X1422400Y317500D03*
X1422400Y292100D03*
X1422400Y266700D03*
X1422400Y241300D03*
X1422400Y215900D03*
X1422400Y190500D03*
X1422400Y165100D03*
X1422400Y139700D03*
X1422400Y114300D03*
X1422400Y88900D03*
X1422400Y63500D03*
X1422400Y38100D03*
X1422400Y12700D03*
X1422400Y-12700D03*
X1422400Y-38100D03*
X1422400Y-63500D03*
X1422400Y-88900D03*
X1422400Y-114300D03*
X1422400Y-139700D03*
X1422400Y-165100D03*
X1422400Y-190500D03*
X1422400Y-215900D03*
X1422400Y-241300D03*
X1422400Y-266700D03*
X1422400Y-292100D03*
X1422400Y-317500D03*
X1422400Y-342900D03*
X1422400Y-368300D03*
X1422400Y-393700D03*
X1473200Y393700D03*
X1473200Y368300D03*
X1473200Y342900D03*
X1473200Y317500D03*
X1473200Y292100D03*
X1473200Y266700D03*
X1473200Y241300D03*
X1473200Y215900D03*
X1473200Y190500D03*
X1473200Y165100D03*
X1473200Y139700D03*
X1473200Y114300D03*
X1473200Y88900D03*
X1473200Y63500D03*
X1473200Y38100D03*
X1473200Y12700D03*
X1473200Y-12700D03*
X1473200Y-38100D03*
X1473200Y-63500D03*
X1473200Y-88900D03*
X1473200Y-114300D03*
X1473200Y-139700D03*
X1473200Y-165100D03*
X1473200Y-190500D03*
X1473200Y-215900D03*
X1473200Y-241300D03*
X1473200Y-266700D03*
X1473200Y-292100D03*
X1473200Y-317500D03*
X1473200Y-342900D03*
X1473200Y-368300D03*
X1473200Y-393700D03*
X1447800Y393700D03*
X1447800Y368300D03*
X1447800Y342900D03*
X1447800Y317500D03*
X1447800Y292100D03*
X1447800Y266700D03*
X1447800Y241300D03*
X1447800Y215900D03*
X1447800Y190500D03*
X1447800Y165100D03*
X1447800Y139700D03*
X1447800Y114300D03*
X1447800Y88900D03*
X1447800Y63500D03*
X1447800Y38100D03*
X1447800Y12700D03*
X1447800Y-12700D03*
X1447800Y-38100D03*
X1447800Y-63500D03*
X1447800Y-88900D03*
X1447800Y-114300D03*
X1447800Y-139700D03*
X1447800Y-165100D03*
X1447800Y-190500D03*
X1447800Y-215900D03*
X1447800Y-241300D03*
X1447800Y-266700D03*
X1447800Y-292100D03*
X1447800Y-317500D03*
X1447800Y-342900D03*
X1447800Y-368300D03*
X1447800Y-393700D03*
D12*
X-390618Y1295400D03*
X-390618Y1346200D03*
X-1190080Y646159D03*
X-1226001Y682080D03*
D13*
X1200150Y-755650D02*
X1219200Y-774700D01*
X1200150Y-755650D02*
X1193800Y-755650D01*
X1219200Y-774700D02*
X1225363Y-778155D01*
D14*
X-647700Y-336550D03*
X-1358900Y-336550D03*
X412750Y-946150D03*
X-736600Y-908050D03*
X1193800Y-755650D03*
X723900Y-755650D03*
X723900Y-939800D03*
X-1174750Y666750D03*
X-869950Y641350D03*
X730250Y1092200D03*
X-406400Y1073150D03*
X723900Y336550D03*
D13*
X330200Y-1441450D02*
X317500Y-1441450D01*
X330200Y-1441450D02*
X336550Y-1435100D01*
X349250Y-1435100D01*
X355600Y-1428750D01*
X355600Y-1416050D01*
X438150Y-1333500D01*
X317500Y-1441450D02*
X317500Y-1447800D01*
X-1250950Y774700D02*
X-1250950Y793750D01*
X-1250950Y774700D02*
X-1263650Y762000D01*
X-1263650Y755650D01*
X-1270000Y755650D01*
X-1301750Y723900D01*
X-1301750Y692150D01*
X-1333500Y660400D01*
X-1333500Y635000D01*
X-1327150Y628650D01*
X-1250950Y793750D02*
X-1248848Y795851D01*
X1428750Y304800D02*
X1441450Y317500D01*
X1428750Y304800D02*
X1390650Y304800D01*
X1365250Y330200D01*
X1441450Y317500D02*
X1447800Y317500D01*
D14*
X438150Y-1333500D03*
X438150Y-514350D03*
X1123950Y-514350D03*
X-1358900Y-323850D03*
X438150Y-323850D03*
X-1327150Y628650D03*
X-1327150Y501650D03*
X-965200Y361950D03*
X-965200Y-323850D03*
X-736600Y-1231900D03*
X-609600Y-330200D03*
X-469900Y1371600D03*
X-495300Y-260350D03*
X1365250Y330200D03*
X438150Y323850D03*
X482600Y1212850D03*
D13*
X-1289050Y266700D02*
X-1289050Y254000D01*
X-1289050Y266700D02*
X-1320800Y298450D01*
X-1320800Y381000D02*
X-1320800Y400050D01*
X-1320800Y381000D02*
X-1320800Y298450D01*
X-1320800Y400050D02*
X-1365250Y444500D01*
X-1365250Y501650D01*
X-1377950Y514350D01*
X-1377950Y628650D02*
X-1314450Y692150D01*
X-1314450Y749300D01*
X-1270000Y793750D01*
X-1270000Y812800D01*
X-1266809Y813812D01*
X-330200Y1466850D02*
X-317500Y1466850D01*
X-330200Y1466850D02*
X-336550Y1460500D01*
X-406400Y1460500D01*
X-546100Y1320800D01*
X-552450Y1320800D01*
X-317500Y1466850D02*
X-317500Y1473200D01*
X1454150Y304800D02*
X1466850Y317500D01*
X1454150Y304800D02*
X1441450Y304800D01*
X1435100Y298450D01*
X1435100Y285750D01*
X1428750Y279400D01*
X1390650Y279400D01*
X1339850Y330200D01*
X1339850Y342900D01*
X1466850Y317500D02*
X1473200Y317500D01*
D14*
X-704850Y-1231900D03*
X463550Y-958850D03*
X1263650Y-622300D03*
X641350Y-679450D03*
X463550Y-806450D03*
X-1390650Y-342900D03*
X-1301750Y-273050D03*
X-1289050Y254000D03*
X-1377950Y514350D03*
X-1377950Y628650D03*
X-552450Y1320800D03*
X-495300Y387350D03*
X-1320800Y381000D03*
X1339850Y342900D03*
X393700Y1320800D03*
X425450Y361950D03*
X412750Y-666750D03*
D13*
X-1397000Y609600D02*
X-1428750Y577850D01*
X-1397000Y609600D02*
X-1377950Y609600D01*
X342900Y1466850D02*
X355600Y1454150D01*
X355600Y1416050D01*
X361950Y1409700D01*
X406400Y1409700D01*
X425450Y1390650D01*
X425450Y1174750D01*
X400050Y1149350D01*
X342900Y1466850D02*
X342900Y1473200D01*
X1466850Y-342900D02*
X1454150Y-355600D01*
X1409700Y-355600D01*
X1231900Y-533400D01*
X1206500Y-533400D01*
X1466850Y-342900D02*
X1473200Y-342900D01*
D14*
X-1428750Y577850D03*
X-1377950Y609600D03*
X-1377950Y527050D03*
X-793750Y533400D03*
X-800100Y996950D03*
X400050Y1149350D03*
X12700Y1136650D03*
X12700Y558800D03*
X1295400Y660400D03*
X1016000Y463550D03*
X12700Y469900D03*
X527050Y-996950D03*
X527050Y-1409700D03*
X736600Y-1346200D03*
X-1365250Y-666750D03*
X-1295400Y-457200D03*
X-222250Y-463550D03*
X-171450Y-1003300D03*
X1206500Y-533400D03*
X1079500Y-533400D03*
D13*
X1428750Y-330200D02*
X1441450Y-342900D01*
X1428750Y-330200D02*
X1365250Y-330200D01*
X1301750Y-393700D01*
X1441450Y-342900D02*
X1447800Y-342900D01*
X-342900Y-1441450D02*
X-355600Y-1428750D01*
X-355600Y-1416050D01*
X-450850Y-1320800D01*
X-450850Y-1270000D01*
X-342900Y-1441450D02*
X-342900Y-1447800D01*
X-1282700Y336550D02*
X-1282700Y393700D01*
X-1282700Y336550D02*
X-1225550Y279400D01*
X-1225550Y0D01*
X-1231900Y-6350D01*
X-1231900Y-654050D02*
X-1231900Y-666750D01*
X-1276350Y-711200D01*
X-1276350Y-736600D01*
X-1282700Y-742950D01*
X-1282700Y-749300D01*
X-1276350Y-755650D01*
X-1276350Y-774700D01*
X-1270000Y-781050D01*
X-1268988Y-783151D01*
X-768350Y1130300D02*
X-768350Y1174750D01*
X-768350Y1130300D02*
X-793750Y1104900D01*
X-793750Y1054100D01*
X-901700Y946150D01*
X-914400Y946150D01*
X-431800Y-1003300D02*
X-349250Y-1003300D01*
X-431800Y-1003300D02*
X-895350Y-539750D01*
X-1181100Y-539750D01*
X-1193800Y-527050D01*
X-1225550Y-558800D01*
X-1225550Y-647700D01*
X-1231900Y-654050D01*
D14*
X368300Y1377950D03*
X387350Y698500D03*
X1231900Y692150D03*
X1301750Y-393700D03*
X-450850Y-1270000D03*
X241300Y-1276350D03*
X-1377950Y317500D03*
X-1282700Y393700D03*
X-1231900Y-6350D03*
X-1231900Y-654050D03*
X-768350Y1174750D03*
X-914400Y946150D03*
X-946150Y387350D03*
X-342900Y-1270000D03*
X-349250Y-1003300D03*
X374650Y857250D03*
X-914400Y882650D03*
D13*
X-1435100Y400050D02*
X-1435100Y381000D01*
X-1435100Y400050D02*
X-1441450Y406400D01*
X-1441450Y419100D01*
X-1466850Y444500D01*
X-1466850Y501650D01*
X-1397000Y571500D01*
X-1282700Y571500D01*
X-1257300Y596900D01*
X-1231900Y571500D01*
X-787400Y508000D02*
X-730250Y565150D01*
X-787400Y508000D02*
X-793750Y508000D01*
D14*
X-260350Y-819150D03*
X-273050Y-1231900D03*
X692150Y-1168400D03*
X787400Y-1149350D03*
X800100Y-869950D03*
X-1435100Y381000D03*
X-1231900Y571500D03*
X-730250Y565150D03*
X-723900Y1168400D03*
X431800Y1301750D03*
X444500Y450850D03*
X1257300Y381000D03*
X1295400Y-304800D03*
X-793750Y508000D03*
X425450Y-863600D03*
D13*
X-1454150Y330200D02*
X-1466850Y317500D01*
X-1454150Y330200D02*
X-1365250Y330200D01*
X-1225550Y-698500D02*
X-1257300Y-730250D01*
X-1257300Y-755650D01*
X-1263650Y-762000D01*
X-1263650Y-768350D01*
X-1257300Y-774700D01*
X-1257300Y-787400D01*
X-1270000Y-800100D01*
X-1270000Y-812800D01*
X-1466850Y317500D02*
X-1473200Y317500D01*
X-1270000Y-812800D02*
X-1268988Y-819073D01*
X-793750Y1149350D02*
X-793750Y1162050D01*
X-793750Y1149350D02*
X-787400Y1143000D01*
X-787400Y1123950D01*
X-806450Y1104900D01*
X-806450Y1066800D01*
X-933450Y939800D01*
X317500Y1466850D02*
X330200Y1454150D01*
X330200Y1403350D01*
X355600Y1377950D01*
X355600Y1346200D01*
X311150Y1301750D01*
X304800Y1301750D01*
X317500Y1466850D02*
X317500Y1473200D01*
X1263650Y812800D02*
X1263650Y800100D01*
X1314450Y749300D01*
X1314450Y692150D01*
X1327150Y679450D01*
X1327150Y622300D01*
X1206500Y501650D01*
X1263650Y812800D02*
X1263644Y818136D01*
D14*
X-1365250Y330200D03*
X-1225550Y-698500D03*
X-793750Y1162050D03*
X-933450Y939800D03*
X-933450Y469900D03*
X-971550Y431800D03*
X-1250950Y431800D03*
X-419100Y-1466850D03*
X-488950Y-1466850D03*
X-431800Y431800D03*
X304800Y1301750D03*
X304800Y406400D03*
X609600Y-1327150D03*
X622300Y-1149350D03*
X355600Y-1143000D03*
X1206500Y501650D03*
X304800Y501650D03*
X1123950Y-488950D03*
X330200Y-488950D03*
D13*
X-1460500Y361950D02*
X-1460500Y381000D01*
X-1460500Y361950D02*
X-1454150Y355600D01*
X-1384300Y355600D01*
X-1377950Y349250D01*
X-793750Y1244600D02*
X-781050Y1244600D01*
X-768350Y1231900D01*
X-546100Y1231900D01*
X-539750Y1238250D01*
X-533400Y812800D02*
X-514350Y793750D01*
X-508000Y793750D01*
X-495300Y781050D01*
X-495300Y546100D01*
X-660400Y381000D01*
X-660400Y361950D01*
X-647700Y349250D01*
X-590550Y349250D01*
X-571500Y368300D01*
X-793750Y1244600D02*
X-799836Y1244864D01*
D14*
X812800Y-1111250D03*
X971550Y-419100D03*
X1397000Y-419100D03*
X-584200Y-1498600D03*
X-571500Y-628650D03*
X-1168400Y-628650D03*
X-1206500Y-755650D03*
X-1460500Y381000D03*
X-1377950Y349250D03*
X-571500Y368300D03*
X-539750Y1238250D03*
X-533400Y812800D03*
X457200Y1225550D03*
X457200Y800100D03*
X-520700Y787400D03*
X679450Y806450D03*
X971550Y-88900D03*
X901700Y-88900D03*
X908050Y673100D03*
D13*
X-412750Y-863600D02*
X-450850Y-863600D01*
X-495300Y-819150D01*
X-508000Y-819150D01*
X-1403350Y317500D02*
X-1422400Y317500D01*
X-1403350Y317500D02*
X-1333500Y247650D01*
X-749300Y1193800D02*
X-781050Y1225550D01*
X-749300Y1193800D02*
X-679450Y1193800D01*
X-622300Y1136650D01*
X-590550Y1136650D01*
X-781050Y1225550D02*
X-781875Y1226904D01*
X774700Y-1231900D02*
X774700Y-1244600D01*
X723900Y-1295400D01*
X596900Y-1295400D01*
X571500Y-1320800D01*
X774700Y-1231900D02*
X776350Y-1227168D01*
X1377950Y-317500D02*
X1422400Y-317500D01*
D14*
X-412750Y-863600D03*
X-508000Y-819150D03*
X-1333500Y247650D03*
X-1371600Y-76200D03*
X-508000Y-101600D03*
X-590550Y1136650D03*
X-546100Y-101600D03*
X323850Y1377950D03*
X-25400Y1320800D03*
X-25400Y1136650D03*
X571500Y-1320800D03*
X565150Y-260350D03*
X1377950Y-317500D03*
X850900Y469900D03*
X838200Y-260350D03*
D13*
X-495300Y-1066800D02*
X-546100Y-1016000D01*
X-571500Y-1016000D01*
X-717550Y-869950D01*
X-717550Y-857250D01*
X-850900Y-723900D01*
X-920750Y-723900D01*
X-1016000Y-628650D01*
X-1104900Y-628650D01*
X-1155700Y-577850D01*
X-1168400Y-577850D01*
X-1174750Y-584200D02*
X-1206500Y-615950D01*
X-1174750Y-584200D02*
X-1168400Y-577850D01*
X-1206500Y-615950D02*
X-1206500Y-730250D01*
X-1225550Y-749300D01*
X-1454150Y279400D02*
X-1466850Y292100D01*
X-1454150Y279400D02*
X-1416050Y279400D01*
X-1327150Y190500D01*
X-1320800Y190500D01*
X-1466850Y292100D02*
X-1473200Y292100D01*
X844550Y-876300D02*
X844550Y-882650D01*
X844550Y-876300D02*
X927100Y-793750D01*
X927100Y-476250D01*
X1403350Y-476250D02*
X1422400Y-457200D01*
X1422400Y-438150D01*
X1460500Y-400050D01*
X1460500Y-361950D01*
X1466850Y-355600D01*
X1479550Y-355600D01*
X1485900Y-349250D01*
X1485900Y-304800D01*
X1473200Y-292100D01*
X1473200Y-292100D01*
X279400Y1454150D02*
X292100Y1466850D01*
X279400Y1454150D02*
X279400Y1409700D01*
X342900Y1346200D01*
X355600Y1022350D02*
X387350Y1022350D01*
X355600Y1022350D02*
X342900Y1022350D01*
X387350Y1022350D02*
X673100Y736600D01*
X806450Y736600D01*
X990600Y552450D01*
X292100Y1466850D02*
X292100Y1473200D01*
X69850Y698500D02*
X0Y698500D01*
X69850Y698500D02*
X355600Y984250D01*
X355600Y1022350D01*
X-1206500Y-552450D02*
X-1174750Y-584200D01*
D14*
X-495300Y-1428750D03*
X-495300Y-1066800D03*
X-1225550Y-749300D03*
X-1320800Y190500D03*
X-730250Y190500D03*
X-742950Y1111250D03*
X749300Y-1346200D03*
X590550Y-1352550D03*
X590550Y-1123950D03*
X825500Y-1123950D03*
X844550Y-882650D03*
X927100Y-476250D03*
X1403350Y-476250D03*
X1206500Y552450D03*
X990600Y552450D03*
X990600Y57150D03*
X927100Y57150D03*
X342900Y1346200D03*
X342900Y1022350D03*
X-742950Y698500D03*
X0Y698500D03*
X-1206500Y-552450D03*
X-1187450Y-38100D03*
X-762000Y-38100D03*
D13*
X1428750Y-304800D02*
X1441450Y-292100D01*
X1428750Y-304800D02*
X1377950Y-304800D01*
X1244600Y-438150D01*
X1231900Y-438150D01*
X1219200Y-450850D01*
X1441450Y-292100D02*
X1447800Y-292100D01*
X-292100Y-1441450D02*
X-304800Y-1428750D01*
X-304800Y-1390650D01*
X-323850Y-1371600D01*
X330200Y-1377950D02*
X374650Y-1377950D01*
X527050Y-1225550D01*
X762000Y-1225550D01*
X774700Y-1212850D01*
X781050Y-1212850D01*
X793750Y-1225550D01*
X806450Y-1225550D01*
X-292100Y-1441450D02*
X-292100Y-1447800D01*
X806450Y-1225550D02*
X812271Y-1227168D01*
X-914400Y-920750D02*
X-958850Y-920750D01*
X-914400Y-920750D02*
X-908050Y-914400D01*
X-825500Y-914400D01*
X-546100Y-1193800D01*
X-546100Y-1206500D01*
D14*
X-1339850Y304800D03*
X-755650Y311150D03*
X-749300Y1143000D03*
X-50800Y1485900D03*
X1219200Y-450850D03*
X1174750Y711200D03*
X-323850Y-1371600D03*
X330200Y-1377950D03*
X-1155700Y-793750D03*
X-1155700Y-736600D03*
X-958850Y-920750D03*
X-546100Y-1206500D03*
X-323850Y-1206500D03*
X1193800Y-393700D03*
X-336550Y-387350D03*
X-406400Y457200D03*
D13*
X-857250Y-939800D02*
X-850900Y-946150D01*
X-850900Y-984250D01*
X-781050Y-1054100D01*
X-781050Y-1193800D01*
X-800100Y-1212850D01*
X-802015Y-1214204D01*
X-1270000Y431800D02*
X-1282700Y431800D01*
X-1270000Y431800D02*
X-927100Y88900D01*
X-292100Y1384300D02*
X-292100Y1422400D01*
D14*
X-1358900Y-311150D03*
X-920750Y-285750D03*
X-901700Y-889000D03*
X-857250Y-939800D03*
X-1244600Y622300D03*
X-1282700Y431800D03*
X-927100Y88900D03*
X-292100Y1384300D03*
X-247650Y133350D03*
X292100Y-1390650D03*
X292100Y-603250D03*
X831850Y-869950D03*
X831850Y-819150D03*
X292100Y-819150D03*
X787400Y546100D03*
X-247650Y546100D03*
X787400Y292100D03*
D13*
X1333500Y-749300D02*
X1346200Y-749300D01*
X1333500Y-749300D02*
X1187450Y-603250D01*
X1111250Y-603250D01*
X1104900Y-596900D01*
X1092200Y-609600D01*
X1092200Y-641350D01*
X1104900Y-654050D01*
X-1066800Y-488950D02*
X-1079500Y-501650D01*
X-1066800Y-488950D02*
X-882650Y-488950D01*
X-806450Y-412750D01*
X-793750Y-412750D01*
X-774700Y-393700D01*
X1447800Y285750D02*
X1447800Y292100D01*
X1447800Y285750D02*
X1435100Y273050D01*
X1435100Y260350D01*
X1428750Y254000D01*
X1390650Y254000D01*
X1377950Y241300D01*
X1447800Y292100D02*
X1447800Y292100D01*
D14*
X-660400Y-1200150D03*
X368300Y-1301750D03*
X381000Y-1149350D03*
X247650Y-1111250D03*
X228600Y-939800D03*
X-146050Y-920750D03*
X1346200Y-749300D03*
X1104900Y-654050D03*
X228600Y-654050D03*
X-1460500Y-412750D03*
X-1308100Y-457200D03*
X-1308100Y-412750D03*
X-1111250Y-736600D03*
X-1066800Y-730250D03*
X-1079500Y-501650D03*
X-774700Y-393700D03*
X-774700Y-139700D03*
X-1301750Y501650D03*
X-977900Y508000D03*
X723900Y1181100D03*
X571500Y996950D03*
X571500Y685800D03*
X647700Y685800D03*
X647700Y-654050D03*
X1377950Y241300D03*
X647700Y241300D03*
D13*
X-1473200Y-292100D02*
X-1473200Y-298450D01*
X-1460500Y-311150D01*
X-1460500Y-400050D01*
X-1371600Y-488950D01*
X-869950Y-927100D02*
X-869950Y-996950D01*
X-844550Y-1022350D01*
X-844550Y-1168400D01*
X-889000Y-1212850D01*
X-889000Y-1219200D01*
X-863600Y-1244600D01*
X-838200Y-1244600D01*
X-1473200Y-292100D02*
X-1473200Y-292100D01*
X-838200Y-1244600D02*
X-837936Y-1250125D01*
X-304800Y1454150D02*
X-292100Y1466850D01*
X-304800Y1454150D02*
X-304800Y1441450D01*
X-311150Y1435100D01*
X-323850Y1435100D01*
X-330200Y1428750D01*
X-330200Y1390650D01*
X-425450Y1295400D01*
X-431800Y1295400D01*
X-463550Y1263650D01*
X-463550Y1244600D01*
X-457200Y1238250D01*
X-419100Y1238250D01*
X-393700Y1263650D01*
X-292100Y1466850D02*
X-292100Y1473200D01*
X812800Y1250950D02*
X831850Y1250950D01*
X812800Y1250950D02*
X768350Y1295400D01*
X755650Y1295400D01*
X723900Y1263650D01*
X571500Y1263650D01*
X831850Y1250950D02*
X832592Y1249188D01*
D14*
X1054100Y-1060450D03*
X-1371600Y-488950D03*
X-869950Y-514350D03*
X-869950Y-927100D03*
X-1308100Y584200D03*
X-1276350Y488950D03*
X-584200Y444500D03*
X-584200Y-514350D03*
X-393700Y1263650D03*
X-361950Y438150D03*
X571500Y1263650D03*
X-139700Y1250950D03*
X-152400Y1358900D03*
X546100Y419100D03*
X685800Y-1301750D03*
X685800Y-1200150D03*
X241300Y-1219200D03*
X203200Y-514350D03*
D13*
X-1403350Y-266700D02*
X-1422400Y-266700D01*
X-1403350Y-266700D02*
X-1390650Y-279400D01*
X-266700Y1377950D02*
X-266700Y1422400D01*
X-539750Y1104900D02*
X-857250Y787400D01*
X-539750Y1104900D02*
X-266700Y1377950D01*
X-857250Y787400D02*
X-1003300Y787400D01*
X-1009650Y781050D01*
X-1162050Y781050D01*
X-1193800Y812800D01*
X-1194967Y813812D01*
X254000Y-1365250D02*
X266700Y-1377950D01*
X266700Y-1422400D01*
X209550Y-838200D02*
X196850Y-838200D01*
X209550Y-838200D02*
X323850Y-723900D01*
X368300Y-723900D01*
X546100Y-546100D01*
X546100Y-292100D01*
X965200Y127000D01*
X965200Y165100D01*
D14*
X-1390650Y-279400D03*
X-1181100Y-266700D03*
X254000Y-1238250D03*
X254000Y-1365250D03*
X1149350Y-742950D03*
X1181100Y158750D03*
X965200Y165100D03*
X234950Y-1231900D03*
X196850Y-838200D03*
X-539750Y1104900D03*
X831850Y1104900D03*
D13*
X-647700Y-260350D02*
X-673100Y-234950D01*
X-1384300Y-247650D02*
X-1409700Y-247650D01*
X-1416050Y-254000D01*
X-1428750Y-254000D01*
X-1441450Y-266700D01*
X-1447800Y-266700D01*
X266700Y-1441450D02*
X279400Y-1428750D01*
X279400Y-1346200D01*
X266700Y-1333500D01*
X266700Y-1441450D02*
X266700Y-1447800D01*
X1206500Y-831850D02*
X1206500Y-812800D01*
X1104900Y-711200D01*
X1104900Y-692150D01*
X1073150Y-660400D01*
X1073150Y-539750D01*
X1060450Y-527050D01*
X1206500Y-831850D02*
X1207403Y-832037D01*
X1447800Y260350D02*
X1447800Y266700D01*
X1447800Y260350D02*
X1435100Y247650D01*
X1435100Y234950D01*
X1428750Y228600D01*
X1390650Y228600D01*
X1447800Y266700D02*
X1447800Y266700D01*
X831850Y1212850D02*
X825500Y1212850D01*
X819150Y1206500D01*
X806450Y1206500D01*
X800100Y1200150D01*
X565150Y1200150D01*
X546100Y1181100D01*
X546100Y1085850D01*
X831850Y1212850D02*
X832592Y1213267D01*
D14*
X-717550Y-1212850D03*
X-723900Y-1079500D03*
X-673100Y-234950D03*
X-647700Y-260350D03*
X-1384300Y-247650D03*
X266700Y-1333500D03*
X266700Y-920750D03*
X-133350Y-920750D03*
X-133350Y-717550D03*
X-666750Y-717550D03*
X1060450Y-527050D03*
X266700Y-539750D03*
X1390650Y228600D03*
X1346200Y-19050D03*
X1047750Y-19050D03*
X-1092200Y552450D03*
X-679450Y552450D03*
X546100Y1085850D03*
X558800Y-19050D03*
X-304800Y1384300D03*
X-298450Y584200D03*
D13*
X-1384300Y-457200D02*
X-1397000Y-444500D01*
X-1403350Y-444500D01*
X-1435100Y-412750D01*
X-1435100Y-311150D01*
X-1441450Y-304800D01*
X-1454150Y-304800D01*
X-1460500Y-298450D01*
X-1460500Y-285750D01*
X-1473200Y-273050D01*
X-1473200Y-266700D01*
X-1473200Y-266700D01*
X400050Y-1301750D02*
X425450Y-1276350D01*
X-1377950Y438150D02*
X-1377950Y501650D01*
X-1377950Y438150D02*
X-1333500Y393700D01*
X-1333500Y273050D01*
X-1257300Y196850D01*
X-1257300Y-171450D01*
X-1187450Y-241300D01*
X-1187450Y-355600D01*
X-1066800Y-476250D01*
X-1028700Y-476250D01*
X850900Y1225550D02*
X876300Y1225550D01*
X933450Y1168400D01*
X933450Y1149350D01*
X863600Y1079500D01*
X609600Y1079500D01*
X603250Y1085850D01*
X850900Y1225550D02*
X850553Y1231227D01*
D14*
X-819150Y-1136650D03*
X-971550Y-882650D03*
X-1028700Y-476250D03*
X-1384300Y-457200D03*
X400050Y-1301750D03*
X425450Y-1276350D03*
X425450Y-958850D03*
X-88900Y-965200D03*
X-88900Y-755650D03*
X-787400Y-762000D03*
X1206500Y-654050D03*
X215900Y-622300D03*
X215900Y-755650D03*
X1320800Y355600D03*
X1212850Y-552450D03*
X-1377950Y501650D03*
X603250Y1085850D03*
X609600Y349250D03*
X-482600Y1428750D03*
X-482600Y1009650D03*
X609600Y1016000D03*
D13*
X-977900Y698500D02*
X-1181100Y698500D01*
X-977900Y698500D02*
X-901700Y774700D01*
X-857250Y774700D01*
X-241300Y1390650D01*
X-241300Y1422400D01*
X241300Y-1377950D02*
X241300Y-1422400D01*
X241300Y-1377950D02*
X215900Y-1352550D01*
X215900Y-1225550D01*
X228600Y-1212850D01*
D14*
X1155700Y139700D03*
X977900Y139700D03*
X-1181100Y698500D03*
X-1079500Y-514350D03*
X-990600Y-793750D03*
X228600Y-1212850D03*
X-1143000Y-127000D03*
X-1143000Y247650D03*
D13*
X565150Y1187450D02*
X584200Y1168400D01*
X679450Y1168400D01*
X692150Y1155700D01*
X742950Y1155700D01*
X755650Y1168400D01*
X806450Y1168400D01*
X831850Y1193800D01*
X844550Y1193800D01*
X850553Y1195306D01*
X-1409700Y546100D02*
X-1409700Y539750D01*
X-1447800Y501650D01*
X-1447800Y482600D01*
X-1371600Y406400D01*
X-1371600Y374650D01*
X-1352550Y355600D01*
X-1352550Y279400D01*
X-1282700Y209550D01*
X-1282700Y-38100D01*
X-1276350Y-44450D01*
X-1276350Y-165100D01*
X-1231900Y-209550D01*
X-1231900Y-400050D01*
X-1225550Y-406400D01*
X-1225550Y-431800D01*
X-1143000Y-514350D01*
X-1117600Y-514350D01*
D14*
X-412750Y1358900D03*
X-374650Y1187450D03*
X565150Y1187450D03*
X317500Y-1339850D03*
X317500Y-514350D03*
X-787400Y-1181100D03*
X-285750Y-1174750D03*
X-298450Y-527050D03*
X889000Y-882650D03*
X889000Y-641350D03*
X304800Y-641350D03*
X-1358900Y-501650D03*
X-1409700Y546100D03*
X-1117600Y-514350D03*
X-381000Y673100D03*
X-469900Y673100D03*
X-450850Y-527050D03*
D13*
X241300Y-1466850D02*
X254000Y-1466850D01*
X260350Y-1460500D01*
X349250Y-1460500D01*
X355600Y-1454150D01*
X355600Y-1441450D01*
X361950Y-1435100D01*
X431800Y-1435100D01*
X469900Y-1397000D01*
X711200Y-1397000D01*
X241300Y-1466850D02*
X241300Y-1473200D01*
X1511300Y-19050D02*
X1504950Y-12700D01*
X1511300Y-19050D02*
X1511300Y-635000D01*
X1092200Y-1054100D01*
X1079500Y-1054100D01*
X-857250Y-1212850D02*
X-869950Y-1212850D01*
X-857250Y-1212850D02*
X-800100Y-1155700D01*
X-736600Y-857250D02*
X-812800Y-781050D01*
X-876300Y-781050D01*
X-1016000Y-641350D01*
X-1117600Y-641350D01*
X-1168400Y-590550D01*
X-1314450Y-514350D02*
X-1390650Y-438150D01*
X-1390650Y-425450D01*
X-1409700Y-406400D01*
X-1409700Y-285750D01*
X-1416050Y-279400D01*
X-1454150Y-279400D01*
X-1460500Y-273050D01*
X-1460500Y-247650D01*
X-1466850Y-241300D01*
X-873857Y-1214204D02*
X-869950Y-1212850D01*
X-1212850Y850900D02*
X-1212850Y863600D01*
X-1212850Y850900D02*
X-1225550Y838200D01*
X-1225550Y825500D01*
X-1200150Y800100D01*
X-1200150Y742950D01*
X-1333500Y609600D01*
X-1346200Y609600D01*
X-1390650Y-234950D02*
X-1409700Y-234950D01*
X-1416050Y-228600D01*
X-1454150Y-228600D01*
X-1466850Y-241300D01*
X-1212850Y863600D02*
X-1212927Y867694D01*
X-1466850Y-241300D02*
X-1473200Y-241300D01*
X1270000Y425450D02*
X1314450Y425450D01*
X1270000Y425450D02*
X1193800Y501650D01*
X1193800Y552450D01*
X1168400Y577850D01*
X1060450Y577850D01*
X1054100Y571500D01*
X908050Y717550D01*
X908050Y863600D01*
X984250Y939800D01*
D14*
X711200Y-1397000D03*
X1079500Y-1054100D03*
X1504950Y-12700D03*
X-349250Y1384300D03*
X-349250Y958850D03*
X889000Y990600D03*
X-800100Y-1155700D03*
X-736600Y-857250D03*
X-1168400Y-590550D03*
X-1314450Y-514350D03*
X-1346200Y609600D03*
X-1346200Y514350D03*
X-1320800Y279400D03*
X-1390650Y-234950D03*
X-349250Y520700D03*
X-1092200Y520700D03*
X1314450Y425450D03*
X984250Y939800D03*
D13*
X1390650Y215900D02*
X1422400Y215900D01*
X1390650Y215900D02*
X990600Y615950D01*
X-1066800Y-425450D02*
X-1079500Y-425450D01*
X-1066800Y-425450D02*
X-977900Y-336550D01*
X-869950Y-336550D01*
X-806450Y-400050D01*
X-793750Y-400050D01*
X215900Y-1422400D02*
X228600Y-1435100D01*
X247650Y-1435100D01*
X254000Y-1428750D01*
X254000Y-1377950D01*
X234950Y-1358900D01*
X234950Y-1333500D01*
X215900Y-1422400D02*
X215900Y-1422400D01*
X-215900Y1403350D02*
X-215900Y1422400D01*
X-215900Y1403350D02*
X-927100Y692150D01*
X-971550Y692150D01*
D14*
X990600Y615950D03*
X-1079500Y-425450D03*
X-793750Y-400050D03*
X-793750Y-749300D03*
X-711200Y-749300D03*
X-711200Y-1130300D03*
X234950Y-1333500D03*
X190500Y-1104900D03*
X-127000Y-1104900D03*
X-266700Y-1130300D03*
X1066800Y-768350D03*
X698500Y-768350D03*
X-1155700Y717550D03*
X-1155700Y635000D03*
X-819150Y628650D03*
X-971550Y692150D03*
D13*
X1092200Y-704850D02*
X1092200Y-749300D01*
X1143000Y-800100D01*
X1143000Y-857250D01*
X1149350Y-863600D01*
X1168400Y-863600D01*
X1171481Y-867958D01*
X-1206500Y628650D02*
X-1231900Y654050D01*
X-228600Y1460500D02*
X-215900Y1447800D01*
X-228600Y1460500D02*
X-273050Y1460500D01*
X-279400Y1454150D01*
X-279400Y1441450D01*
X-285750Y1435100D01*
X-298450Y1435100D01*
X-304800Y1428750D01*
X-304800Y1397000D01*
X-444500Y1257300D01*
X-444500Y1250950D01*
X-215900Y1447800D02*
X-215900Y1447800D01*
X1447800Y215900D02*
X1460500Y228600D01*
X1460500Y298450D01*
X1466850Y304800D01*
X1479550Y304800D01*
X1485900Y311150D01*
X1485900Y323850D01*
X1479550Y330200D01*
X1403350Y330200D01*
X1390650Y317500D01*
X1377950Y330200D01*
X1447800Y215900D02*
X1447800Y215900D01*
D14*
X304800Y-1339850D03*
X304800Y-692150D03*
X1092200Y-704850D03*
X-1136650Y-527050D03*
X-1231900Y654050D03*
X-1206500Y628650D03*
X-635000Y609600D03*
X-635000Y-539750D03*
X-596900Y-1333500D03*
X-584200Y-539750D03*
X-444500Y1250950D03*
X-444500Y800100D03*
X1377950Y330200D03*
X-635000Y311150D03*
X596900Y996950D03*
X596900Y825500D03*
D13*
X-889000Y-1174750D02*
X-889000Y-1193800D01*
X-889000Y-1174750D02*
X-863600Y-1149350D01*
X-863600Y-1041400D01*
X-946150Y-958850D01*
X-946150Y-946150D01*
X-889000Y-1193800D02*
X-891817Y-1196243D01*
D14*
X381000Y-1460500D03*
X539750Y-1327150D03*
X552450Y-552450D03*
X1301750Y-539750D03*
X-946150Y-946150D03*
X-958850Y-438150D03*
X-1397000Y-438150D03*
X-1168400Y635000D03*
X-1168400Y101600D03*
X-1104900Y101600D03*
X-1016000Y-190500D03*
X-323850Y1136650D03*
X-323850Y-190500D03*
X577850Y1009650D03*
X584200Y755650D03*
X-323850Y736600D03*
X1371600Y171450D03*
X571500Y190500D03*
X698500Y-546100D03*
X698500Y190500D03*
D13*
X234950Y-1193800D02*
X247650Y-1206500D01*
X234950Y-1193800D02*
X171450Y-1257300D01*
X171450Y-1397000D01*
X190500Y-1416050D01*
X190500Y-1422400D01*
X1403350Y190500D02*
X1422400Y190500D01*
X1403350Y190500D02*
X869950Y723900D01*
X869950Y1009650D01*
X-279400Y1327150D02*
X-946150Y660400D01*
X-279400Y1327150D02*
X-190500Y1416050D01*
X-946150Y660400D02*
X-1098550Y660400D01*
X-1117600Y641350D01*
X-190500Y1416050D02*
X-190500Y1422400D01*
D14*
X234950Y-1155700D03*
X247650Y-1206500D03*
X635000Y-1181100D03*
X869950Y1009650D03*
X-1117600Y-298450D03*
X-1117600Y641350D03*
X-279400Y984250D03*
X-279400Y1327150D03*
X-774700Y-1117600D03*
X-831850Y-889000D03*
X-933450Y-298450D03*
D13*
X863600Y1155700D02*
X882650Y1155700D01*
X863600Y1155700D02*
X850900Y1143000D01*
X654050Y1143000D01*
X647700Y1149350D01*
X882650Y1155700D02*
X886474Y1159385D01*
X76200Y-793750D02*
X88900Y-806450D01*
D14*
X1136650Y-812800D03*
X996950Y-876300D03*
X1016000Y114300D03*
X1371600Y120650D03*
X25400Y-1435100D03*
X0Y-1352550D03*
X-381000Y-1346200D03*
X-1358900Y-215900D03*
X-1358900Y-165100D03*
X-361950Y-152400D03*
X-381000Y660400D03*
X-1174750Y755650D03*
X-215900Y1339850D03*
X-215900Y673100D03*
X647700Y1149350D03*
X-215900Y1123950D03*
X-400050Y-806450D03*
X-298450Y-806450D03*
X996950Y-838200D03*
X88900Y-806450D03*
X76200Y-793750D03*
D13*
X-869950Y698500D02*
X-457200Y1111250D01*
X-869950Y698500D02*
X-869950Y666750D01*
X-882650Y654050D01*
X63500Y-1358900D02*
X63500Y-1403350D01*
X76200Y-1416050D01*
X76200Y-1479550D01*
X82550Y-1485900D01*
X120650Y-1485900D01*
X127000Y-1479550D01*
X127000Y-1466850D01*
X133350Y-1460500D01*
X184150Y-1460500D01*
X190500Y-1466850D01*
X190500Y-1473200D01*
X1187450Y-869950D02*
X1257300Y-800100D01*
X1263650Y-800100D01*
X1270000Y-806450D01*
X1289050Y-806450D01*
X1308100Y-787400D01*
X1308100Y-768350D01*
X1244600Y-704850D01*
X1193800Y-704850D01*
X1130300Y-641350D01*
X1123950Y-641350D01*
X1104900Y-622300D01*
X1104900Y-609600D01*
X1339850Y762000D02*
X1339850Y781050D01*
X1339850Y762000D02*
X1416050Y685800D01*
X1416050Y508000D01*
X1498600Y425450D01*
X1498600Y215900D01*
X1473200Y190500D01*
X1473200Y190500D01*
D14*
X-1130300Y-311150D03*
X-1130300Y647700D03*
X-571500Y1117600D03*
X-457200Y1111250D03*
X-882650Y654050D03*
X-831850Y-1117600D03*
X-673100Y-831850D03*
X63500Y-831850D03*
X63500Y-1358900D03*
X1187450Y-869950D03*
X1104900Y-609600D03*
X304800Y-609600D03*
X1352550Y127000D03*
X882650Y127000D03*
X876300Y-603250D03*
X984250Y1136650D03*
X1092200Y1047750D03*
X1339850Y781050D03*
X-1130300Y-273050D03*
X-488950Y-273050D03*
X-495300Y-831850D03*
D13*
X-1117600Y819150D02*
X-1117600Y882650D01*
X-1117600Y819150D02*
X-1130300Y806450D01*
X-1136650Y806450D01*
X-1212850Y882650D01*
X-1219200Y882650D01*
X-1365250Y736600D01*
X-1365250Y679450D01*
X-1352550Y666750D01*
X-1123125Y885654D02*
X-1117600Y882650D01*
X787400Y-844550D02*
X825500Y-806450D01*
X857250Y1117600D02*
X882650Y1117600D01*
X857250Y1117600D02*
X831850Y1092200D01*
X819150Y1092200D01*
X850900Y844550D02*
X850900Y717550D01*
X850900Y844550D02*
X850900Y933450D01*
X850900Y717550D02*
X1403350Y165100D01*
X1422400Y165100D01*
X882650Y1117600D02*
X886474Y1123464D01*
X19050Y1231900D02*
X-165100Y1416050D01*
X19050Y1231900D02*
X19050Y1212850D01*
X190500Y1041400D01*
X469900Y1041400D01*
X666750Y844550D01*
X762000Y844550D02*
X850900Y844550D01*
X762000Y844550D02*
X666750Y844550D01*
X-165100Y1416050D02*
X-165100Y1422400D01*
X762000Y844550D02*
X762000Y755650D01*
D14*
X-1155700Y-273050D03*
X-1149350Y-552450D03*
X-641350Y-552450D03*
X-1352550Y666750D03*
X-1314450Y603250D03*
X-1155700Y584200D03*
X673100Y-1250950D03*
X736600Y-1212850D03*
X787400Y-844550D03*
X825500Y-806450D03*
X1066800Y-806450D03*
X819150Y1092200D03*
X850900Y933450D03*
X825500Y-679450D03*
X762000Y-679450D03*
X762000Y755650D03*
X-1155700Y260350D03*
X762000Y292100D03*
D13*
X1339850Y215900D02*
X1403350Y152400D01*
X1339850Y215900D02*
X1016000Y539750D01*
X1403350Y152400D02*
X1428750Y152400D01*
X1441450Y165100D01*
X1447800Y165100D01*
X-165100Y1447800D02*
X-171450Y1447800D01*
X-184150Y1435100D01*
X-273050Y1435100D01*
X-279400Y1428750D01*
X-279400Y1377950D01*
X-292100Y1365250D01*
X-165100Y1447800D02*
X-165100Y1447800D01*
X1206500Y82550D02*
X1339850Y215900D01*
X1206500Y82550D02*
X1206500Y57150D01*
D14*
X1016000Y539750D03*
X-292100Y1365250D03*
X-292100Y1098550D03*
X927100Y1041400D03*
X-1390650Y-139700D03*
X-1365250Y317500D03*
X-787400Y-139700D03*
X177800Y-1390650D03*
X177800Y-679450D03*
X-495300Y-673100D03*
X1111250Y-825500D03*
X1117600Y-711200D03*
X1206500Y57150D03*
X1162050Y-711200D03*
D13*
X-927100Y-1143000D02*
X-927100Y-1155700D01*
X-927100Y-1143000D02*
X-914400Y-1130300D01*
X-914400Y-1117600D01*
X-920750Y-1111250D01*
X-927100Y-1111250D01*
X-933450Y-1104900D01*
X-933450Y-1098550D01*
X-939800Y-1092200D01*
X-939800Y-1079500D01*
X-933450Y-1073150D01*
X-933450Y-1066800D01*
X-958850Y-1041400D01*
X-958850Y-1028700D01*
X-1079500Y-908050D01*
X-1066800Y-895350D01*
X-996950Y-895350D01*
X-914400Y-812800D01*
X-908050Y-819150D01*
X-857250Y-819150D02*
X-850900Y-819150D01*
X-857250Y-819150D02*
X-908050Y-819150D01*
X-850900Y-819150D02*
X-838200Y-806450D01*
X-825500Y-806450D01*
X-723900Y-908050D01*
X-927100Y-1155700D02*
X-927738Y-1160322D01*
X-1454150Y-177800D02*
X-1466850Y-165100D01*
X-1454150Y-177800D02*
X-1441450Y-177800D01*
X-1435100Y-184150D01*
X-1435100Y-196850D01*
X-1428750Y-203200D01*
X-1403350Y-203200D01*
X-1371600Y-234950D01*
X-1371600Y-438150D01*
X-1270000Y-539750D01*
X-1270000Y-552450D01*
X-1466850Y-165100D02*
X-1473200Y-165100D01*
X-1155700Y901700D02*
X-1155700Y920750D01*
X-1155700Y901700D02*
X-1130300Y876300D01*
X-1130300Y819150D01*
X-1155700Y920750D02*
X-1159046Y921575D01*
X-368300Y1136650D02*
X-368300Y1174750D01*
D14*
X330200Y-1327150D03*
X330200Y-939800D03*
X1035050Y-901700D03*
X-723900Y-908050D03*
X330200Y-977900D03*
X-1270000Y-552450D03*
X-1257300Y-679450D03*
X-857250Y-717550D03*
X-857250Y-819150D03*
X-1130300Y819150D03*
X-1104900Y723900D03*
X-1104900Y495300D03*
X-660400Y463550D03*
X-660400Y-400050D03*
X673100Y1181100D03*
X-368300Y1174750D03*
X-368300Y1136650D03*
D13*
X1390650Y139700D02*
X1422400Y139700D01*
X1390650Y139700D02*
X1384300Y146050D01*
X1149350Y-88900D02*
X1092200Y-146050D01*
X1149350Y-88900D02*
X1384300Y146050D01*
X1092200Y-146050D02*
X1092200Y-196850D01*
X914400Y-374650D01*
X914400Y-793750D01*
X1149350Y-88900D02*
X1003300Y57150D01*
X-127000Y1416050D02*
X-139700Y1416050D01*
X-127000Y1416050D02*
X-69850Y1358900D01*
X-50800Y1358900D01*
X-139700Y1416050D02*
X-139700Y1422400D01*
X-914400Y-1073150D02*
X-914400Y-1104900D01*
X-914400Y-1073150D02*
X-946150Y-1041400D01*
X-946150Y-1028700D01*
X-958850Y-1016000D01*
X-958850Y-946150D01*
X-946150Y-933450D01*
X-876300Y-1003300D01*
X-349250Y-889000D02*
X-311150Y-850900D01*
X-304800Y-850900D01*
X-260350Y-806450D01*
X-909778Y-1106441D02*
X-914400Y-1104900D01*
D14*
X368300Y-1263650D03*
X368300Y-793750D03*
X914400Y-793750D03*
X1003300Y57150D03*
X-50800Y1358900D03*
X-38100Y946150D03*
X914400Y965200D03*
X-876300Y-1003300D03*
X-571500Y-1003300D03*
X-349250Y-889000D03*
X-260350Y-806450D03*
D13*
X1016000Y-831850D02*
X1022350Y-825500D01*
X1022350Y-279400D01*
X1371600Y69850D01*
X1371600Y88900D01*
X1397000Y114300D01*
X1422400Y114300D01*
X927100Y1092200D02*
X927100Y1111250D01*
X952500Y1136650D01*
X952500Y1174750D01*
X793750Y1333500D01*
X723900Y1333500D01*
X673100Y1282700D01*
X514350Y1282700D01*
X482600Y1250950D01*
X482600Y1225550D01*
X495300Y1212850D01*
X495300Y1200150D01*
X922395Y1087543D02*
X927100Y1092200D01*
X-1403350Y-114300D02*
X-1422400Y-114300D01*
X-1403350Y-114300D02*
X-1365250Y-152400D01*
X-939800Y438150D02*
X-1085850Y584200D01*
X-939800Y438150D02*
X-939800Y234950D01*
X-869950Y165100D01*
X-63500Y1047750D02*
X-63500Y1060450D01*
X-63500Y1047750D02*
X-50800Y1035050D01*
X-50800Y933450D01*
X-279400Y704850D01*
X-279400Y-152400D01*
X-19050Y-412750D01*
X-19050Y-488950D01*
D14*
X1016000Y-831850D03*
X495300Y1200150D03*
X495300Y1054100D03*
X-63500Y1060450D03*
X-114300Y1390650D03*
X-381000Y-1333500D03*
X114300Y-1365250D03*
X-1365250Y-152400D03*
X-882650Y-152400D03*
X-882650Y-476250D03*
X-19050Y-488950D03*
X-25400Y-1333500D03*
X-1085850Y800100D03*
X-1085850Y584200D03*
X-869950Y165100D03*
X1060450Y-793750D03*
X-19050Y-781050D03*
D13*
X-1066800Y882650D02*
X-1066800Y933450D01*
X-1066800Y882650D02*
X-984250Y800100D01*
X-977900Y800100D01*
X-971550Y806450D01*
X-882650Y806450D01*
X-812800Y876300D01*
X-1066800Y933450D02*
X-1069243Y939536D01*
D14*
X254000Y-1092200D03*
X1035050Y-914400D03*
X1390650Y95250D03*
X1028700Y82550D03*
X-812800Y876300D03*
X-527050Y869950D03*
X-1320800Y-63500D03*
X-520700Y-76200D03*
X-577850Y869950D03*
X1028700Y704850D03*
X-520700Y647700D03*
D13*
X958850Y1054100D02*
X977900Y1054100D01*
X1009650Y1085850D01*
X1009650Y1136650D01*
X635000Y1511300D01*
X31750Y1511300D01*
X0Y1479550D01*
X0Y1416050D01*
X-6350Y1409700D01*
X-12700Y1409700D02*
X-57150Y1409700D01*
X-12700Y1409700D02*
X-6350Y1409700D01*
X-57150Y1409700D02*
X-63500Y1416050D01*
X958850Y1054100D02*
X958316Y1051622D01*
X-63500Y1416050D02*
X-63500Y1422400D01*
X1047750Y-304800D02*
X1047750Y-952500D01*
X1047750Y-304800D02*
X1104900Y-247650D01*
X1104900Y-234950D01*
X1308100Y-31750D01*
X1320800Y-31750D01*
X1416050Y63500D01*
X1047750Y-952500D02*
X1045758Y-957760D01*
X1416050Y63500D02*
X1422400Y63500D01*
X-1365250Y-114300D02*
X-1416050Y-63500D01*
X-1422400Y-63500D01*
X1035050Y-952500D02*
X1041400Y-952500D01*
X1035050Y-952500D02*
X1028700Y-946150D01*
X990600Y-946150D01*
X1041400Y-952500D02*
X1045758Y-957760D01*
X-12700Y1390650D02*
X-12700Y1409700D01*
D14*
X50800Y-1054100D03*
X50800Y-1365250D03*
X-1365250Y-114300D03*
X-762000Y-114300D03*
X-793750Y-1054100D03*
X-1104900Y990600D03*
X-1123950Y768350D03*
X-977900Y749300D03*
X-882650Y781050D03*
X-876300Y698500D03*
X-819150Y698500D03*
X990600Y-946150D03*
X-12700Y1390650D03*
X-25400Y685800D03*
D13*
X38100Y-1377950D02*
X38100Y-1422400D01*
X38100Y-1377950D02*
X31750Y-1371600D01*
X31750Y-1358900D01*
X63500Y-1327150D01*
X101600Y-1327150D01*
X127000Y-1352550D01*
X806450Y-971550D02*
X1022350Y-971550D01*
X806450Y-971550D02*
X711200Y-876300D01*
X628650Y-876300D02*
X127000Y-876300D01*
X628650Y-876300D02*
X711200Y-876300D01*
X127000Y-876300D02*
X114300Y-863600D01*
X1022350Y-971550D02*
X1027797Y-975721D01*
X1079500Y-38100D02*
X1047750Y-6350D01*
X1079500Y-38100D02*
X1079500Y-196850D01*
X628650Y-647700D01*
X628650Y-876300D01*
D14*
X1047750Y-6350D03*
X-1346200Y-63500D03*
X-1346200Y-177800D03*
X-419100Y-165100D03*
X-419100Y844550D03*
X-1041400Y889000D03*
X-1390650Y-692150D03*
X-1212850Y-666750D03*
X-819150Y-692150D03*
X-819150Y-349250D03*
X-419100Y-349250D03*
X127000Y-1352550D03*
X114300Y-412750D03*
X-419100Y-406400D03*
X114300Y-863600D03*
D13*
X-12700Y1422400D02*
X-25400Y1435100D01*
X-146050Y1435100D01*
X-152400Y1428750D01*
X-152400Y1416050D01*
X133350Y1130300D01*
X393700Y1130300D01*
X647700Y876300D01*
X774700Y876300D02*
X825500Y876300D01*
X774700Y876300D02*
X647700Y876300D01*
X-12700Y1422400D02*
X-12700Y1422400D01*
X12700Y-1422400D02*
X12700Y-1428750D01*
X0Y-1441450D01*
X0Y-1479550D01*
X-31750Y-1511300D01*
X-635000Y-1511300D01*
X-1028700Y-1117600D01*
X-1028700Y-1066800D02*
X-1028700Y-1060450D01*
X-1028700Y-1066800D02*
X-1028700Y-1117600D01*
X-1028700Y-1060450D02*
X-1003300Y-1035050D01*
X-1003300Y-1022350D01*
X-999580Y-1016638D01*
X-1435100Y-25400D02*
X-1422400Y-12700D01*
X-1435100Y-25400D02*
X-1479550Y-25400D01*
X-1517650Y-63500D01*
X-1517650Y-628650D01*
X-1079500Y-1066800D01*
X-1028700Y-1066800D01*
X-1422400Y-12700D02*
X-1422400Y-12700D01*
X-1035050Y996950D02*
X-1016000Y996950D01*
X-1035050Y996950D02*
X-1060450Y1022350D01*
X-1123950Y1022350D01*
X-1498600Y647700D01*
X-1498600Y-6350D01*
X-1479550Y-25400D01*
X-1015362Y993417D02*
X-1016000Y996950D01*
X1016000Y-996950D02*
X1016000Y-1016000D01*
X1041400Y-1041400D01*
X1041400Y-1104900D01*
X628650Y-1517650D01*
X38100Y-1517650D01*
X0Y-1479550D01*
X1009837Y-993682D02*
X1016000Y-996950D01*
X1422400Y6350D02*
X1422400Y12700D01*
X1422400Y6350D02*
X1435100Y-6350D01*
X1435100Y-44450D01*
X1441450Y-50800D01*
X1479550Y-50800D01*
X1498600Y-69850D01*
X1498600Y-622300D01*
X1079500Y-1041400D01*
X1041400Y-1041400D01*
X1422400Y12700D02*
X1422400Y12700D01*
X774700Y857250D02*
X774700Y876300D01*
D14*
X825500Y876300D03*
X774700Y857250D03*
X774700Y25400D03*
X1352550Y25400D03*
D13*
X38100Y1390650D02*
X12700Y1416050D01*
X12700Y1422400D01*
X1276350Y-660400D02*
X1276350Y-673100D01*
X1276350Y-660400D02*
X1435100Y-501650D01*
D14*
X-977900Y774700D03*
X25400Y749300D03*
X38100Y1390650D03*
X565150Y1365250D03*
X1276350Y-704850D03*
X1276350Y-673100D03*
X1435100Y-501650D03*
X-1041400Y-1085850D03*
X-1460500Y-152400D03*
X-1079500Y-1041400D03*
X-889000Y-1003300D03*
D13*
X-977900Y1035050D02*
X-977900Y1047750D01*
X-908050Y1117600D01*
X-895350Y1104900D01*
X-895350Y1060450D01*
X-908050Y1047750D01*
X-908050Y1035050D01*
X-977900Y1035050D02*
X-979441Y1029338D01*
X63500Y-1314450D02*
X0Y-1377950D01*
X-38100Y-1416050D01*
X63500Y-1314450D02*
X88900Y-1314450D01*
X260350Y-1143000D01*
X266700Y-1149350D01*
X317500Y-1149350D01*
X431800Y-1035050D01*
X762000Y-1035050D02*
X971550Y-1035050D01*
X762000Y-1035050D02*
X431800Y-1035050D01*
X-38100Y-1416050D02*
X-38100Y-1422400D01*
X971550Y-1035050D02*
X973916Y-1029603D01*
X1358900Y-38100D02*
X1422400Y-38100D01*
D14*
X-908050Y1035050D03*
X0Y1047750D03*
X12700Y1390650D03*
X1358900Y-38100D03*
X774700Y-31750D03*
X762000Y-1035050D03*
X-165100Y-1041400D03*
X0Y-1377950D03*
X-12700Y609600D03*
X800100Y628650D03*
D13*
X-76200Y-1041400D02*
X-76200Y-1162050D01*
X-44450Y-1193800D01*
X-44450Y-1206500D01*
X-63500Y-1225550D01*
X-63500Y-1422400D01*
X508000Y-1047750D02*
X952500Y-1047750D01*
X508000Y-1047750D02*
X361950Y-1193800D01*
X355600Y-1193800D01*
X952500Y-1047750D02*
X955955Y-1047563D01*
D14*
X-76200Y-1041400D03*
X355600Y-1193800D03*
X-76200Y-1193800D03*
X1092200Y-323850D03*
X-76200Y-336550D03*
X-1028700Y-463550D03*
X-76200Y-501650D03*
X825500Y857250D03*
X812800Y-323850D03*
X-1016000Y723900D03*
X63500Y1276350D03*
X50800Y901700D03*
D13*
X-88900Y-1041400D02*
X-88900Y-1422400D01*
X95250Y-857250D02*
X101600Y-850900D01*
X95250Y-857250D02*
X-88900Y-1041400D01*
X101600Y-850900D02*
X273050Y-850900D01*
X1054100Y-69850D01*
X1066800Y-69850D01*
X1390650Y-88900D02*
X1422400Y-88900D01*
D14*
X-1003300Y-946150D03*
X1066800Y-69850D03*
X876300Y-1016000D03*
X876300Y-876300D03*
X990600Y-889000D03*
X984250Y-82550D03*
X1390650Y-88900D03*
X-1003300Y-425450D03*
X95250Y-425450D03*
X95250Y-857250D03*
D13*
X228600Y1352550D02*
X209550Y1371600D01*
X184150Y1371600D01*
X171450Y1384300D01*
X146050Y1384300D01*
X133350Y1397000D01*
X120650Y1397000D01*
X114300Y1403350D01*
X114300Y1422400D01*
X-114300Y-990600D02*
X-114300Y-1003300D01*
X-114300Y-1422400D01*
X-114300Y-990600D02*
X-165100Y-939800D01*
X-222250Y-939800D01*
X1073150Y920750D02*
X1079500Y920750D01*
X1073150Y920750D02*
X1066800Y914400D01*
X1054100Y914400D01*
X1079500Y920750D02*
X1084039Y925899D01*
X1403350Y-114300D02*
X1422400Y-114300D01*
X1403350Y-114300D02*
X1397000Y-120650D01*
X1358900Y-120650D01*
X1352550Y-114300D01*
D14*
X-1358900Y101600D03*
X-1181100Y101600D03*
X-1181100Y412750D03*
X279400Y374650D03*
X228600Y1352550D03*
X-882650Y-1066800D03*
X-806450Y-914400D03*
X-831850Y412750D03*
X-222250Y-939800D03*
X-292100Y374650D03*
X584200Y-1111250D03*
X584200Y-984250D03*
X-114300Y-1003300D03*
X1054100Y914400D03*
X571500Y1073150D03*
X-692150Y1092200D03*
X-692150Y412750D03*
X1352550Y-114300D03*
X1346200Y-57150D03*
X609600Y-57150D03*
X622300Y374650D03*
D13*
X-1104900Y-793750D02*
X-1104900Y-908050D01*
X-1104900Y-793750D02*
X-1079500Y-768350D01*
X-901700Y-768350D01*
X-876300Y-793750D01*
X-825500Y-793750D01*
X-571500Y-1047750D01*
X-571500Y-1066800D01*
X-1104900Y-908050D02*
X-1107343Y-908875D01*
X-908050Y1066800D02*
X-908050Y1098550D01*
X-908050Y1066800D02*
X-984250Y990600D01*
X-984250Y920750D01*
X-958850Y895350D01*
X-869950Y895350D01*
X-850900Y914400D01*
X-908050Y1098550D02*
X-907599Y1101180D01*
X704850Y-1206500D02*
X698500Y-1212850D01*
X527050Y-1212850D01*
X374650Y-1365250D01*
X342900Y-1365250D01*
X1403350Y-139700D02*
X1422400Y-139700D01*
X1403350Y-139700D02*
X1390650Y-152400D01*
X1060450Y863600D02*
X1098550Y901700D01*
X1060450Y863600D02*
X1054100Y863600D01*
X1098550Y901700D02*
X1102000Y907938D01*
D14*
X-571500Y-1066800D03*
X-565150Y-1206500D03*
X-266700Y-1219200D03*
X-1308100Y215900D03*
X-533400Y203200D03*
X-520700Y-1066800D03*
X-850900Y914400D03*
X-869950Y203200D03*
X190500Y1352550D03*
X190500Y920750D03*
X704850Y-1206500D03*
X342900Y-1365250D03*
X203200Y-1365250D03*
X76200Y-1390650D03*
X-139700Y-1390650D03*
X1390650Y-152400D03*
X215900Y-152400D03*
X1054100Y863600D03*
D13*
X1123950Y895350D02*
X1143000Y895350D01*
X1168400Y920750D01*
X1181100Y920750D01*
X1206500Y895350D01*
X1206500Y889000D01*
X1181100Y863600D01*
X1181100Y844550D01*
X1187450Y838200D01*
X1187450Y831850D01*
X1181100Y825500D01*
X1181100Y812800D01*
X1314450Y679450D01*
X1314450Y673100D01*
X1119960Y889978D02*
X1123950Y895350D01*
X-139700Y-1231900D02*
X-139700Y-1365250D01*
X-165100Y-1390650D01*
X-165100Y-1422400D01*
X-1384300Y133350D02*
X-1416050Y165100D01*
X-1384300Y133350D02*
X-1384300Y95250D01*
X-1314450Y25400D01*
X-1181100Y-12700D02*
X-971550Y-12700D01*
X-958850Y0D01*
X-825500Y-133350D01*
X-825500Y-146050D01*
X-831850Y-152400D01*
X-819150Y-165100D01*
X-666750Y-165100D01*
X-552450Y-279400D01*
X-533400Y-279400D01*
X-114300Y-698500D01*
X-114300Y-933450D01*
X-1416050Y165100D02*
X-1422400Y165100D01*
X876300Y-1117600D02*
X882650Y-1117600D01*
X876300Y-1117600D02*
X831850Y-1073150D01*
X673100Y-1073150D01*
X641350Y-1104900D01*
X635000Y-1098550D01*
X882650Y-1117600D02*
X884113Y-1119405D01*
D14*
X-882650Y1079500D03*
X-679450Y1104900D03*
X-679450Y647700D03*
X165100Y635000D03*
X165100Y1352550D03*
X1314450Y673100D03*
X1181100Y641350D03*
X-222250Y-977900D03*
X-114300Y-933450D03*
X-139700Y-1231900D03*
X-1314450Y25400D03*
X-1181100Y-12700D03*
X635000Y-1098550D03*
X-139700Y-1130300D03*
X635000Y-952500D03*
X635000Y666750D03*
X622300Y-190500D03*
X1219200Y-215900D03*
D13*
X1301750Y-190500D02*
X1422400Y-190500D01*
X1301750Y-190500D02*
X1270000Y-222250D01*
X1143000Y-222250D01*
X1117600Y-247650D01*
X266700Y1339850D02*
X190500Y1416050D01*
X266700Y1339850D02*
X266700Y1276350D01*
X330200Y1212850D01*
X190500Y1416050D02*
X190500Y1422400D01*
X-323850Y-958850D02*
X-177800Y-1104900D01*
X-171450Y-1104900D01*
X-158750Y-1117600D01*
X-158750Y-1358900D01*
X-190500Y-1390650D01*
X-190500Y-1422400D01*
D14*
X1117600Y-247650D03*
X330200Y1212850D03*
X330200Y654050D03*
X1111250Y641350D03*
X-323850Y-958850D03*
X825500Y-1111250D03*
X825500Y-895350D03*
X-323850Y-889000D03*
X-1352550Y203200D03*
X-1054100Y203200D03*
X-857250Y0D03*
X-844550Y-958850D03*
X-781050Y1104900D03*
X863600Y-222250D03*
D13*
X-254000Y-1377950D02*
X-215900Y-1416050D01*
X-215900Y-1422400D01*
X825500Y-1149350D02*
X844550Y-1149350D01*
X825500Y-1149350D02*
X787400Y-1111250D01*
X736600Y-1111250D01*
X844550Y-1149350D02*
X848192Y-1155326D01*
X1384300Y-247650D02*
X1416050Y-215900D01*
X1384300Y-247650D02*
X1384300Y-260350D01*
X1320800Y-323850D01*
X1314450Y-323850D01*
X1301750Y-336550D01*
X1301750Y-355600D01*
X1206500Y-450850D01*
X1416050Y-215900D02*
X1422400Y-215900D01*
D14*
X-1301750Y254000D03*
X-609600Y285750D03*
X-635000Y1047750D03*
X-895350Y1047750D03*
X203200Y1352550D03*
X203200Y996950D03*
X-946150Y996950D03*
X-1155700Y-590550D03*
X-209550Y-584200D03*
X-254000Y-1377950D03*
X736600Y-1111250D03*
X736600Y-450850D03*
X-323850Y-438150D03*
X-323850Y-577850D03*
X1270000Y831850D03*
X533400Y444500D03*
X527050Y-438150D03*
X1206500Y-450850D03*
D13*
X1143000Y-234950D02*
X1384300Y-234950D01*
X1416050Y-203200D01*
X1428750Y-203200D01*
X1435100Y-209550D01*
X1435100Y-228600D01*
X1422400Y-241300D01*
X1422400Y-241300D01*
X-825500Y-831850D02*
X-914400Y-831850D01*
X-825500Y-831850D02*
X-241300Y-1416050D01*
X-241300Y-1422400D01*
X-1416050Y228600D02*
X-1416050Y241300D01*
X-1416050Y228600D02*
X-1314450Y127000D01*
X-1314450Y76200D01*
X-1181100Y76200D02*
X-952500Y76200D01*
X-920750Y44450D01*
X-1416050Y241300D02*
X-1422400Y241300D01*
D14*
X1143000Y-234950D03*
X-914400Y-831850D03*
X-1314450Y76200D03*
X-1181100Y76200D03*
X-920750Y44450D03*
X-831850Y1104900D03*
X-419100Y1073150D03*
X-393700Y44450D03*
X158750Y1371600D03*
X152400Y1149350D03*
X-393700Y1149350D03*
X1143000Y482600D03*
X-393700Y482600D03*
D13*
X-1098550Y-717550D02*
X-1104900Y-723900D01*
X-1123950Y-723900D01*
X-1193800Y-793750D01*
X-1193800Y-812800D01*
X-1197146Y-819073D01*
X-266700Y-1403350D02*
X-266700Y-1422400D01*
X-266700Y-1403350D02*
X-819150Y-850900D01*
X-927100Y-850900D01*
X-971550Y-895350D01*
X-984250Y-895350D01*
X-819150Y1143000D02*
X-819150Y1187450D01*
X-819150Y1143000D02*
X-863600Y1098550D01*
X-863600Y1054100D01*
X-971550Y946150D01*
X-971550Y920750D01*
X-958850Y908050D01*
X-876300Y908050D01*
X-863600Y920750D01*
X-819150Y1187450D02*
X-817796Y1190983D01*
D14*
X800100Y-1149350D03*
X838200Y-298450D03*
X1289050Y-254000D03*
X1168400Y-285750D03*
X-1104900Y476250D03*
X-1098550Y-717550D03*
X-984250Y-895350D03*
X-863600Y920750D03*
X-882650Y101600D03*
X-1092200Y101600D03*
X266700Y1365250D03*
X254000Y933450D03*
X1168400Y800100D03*
D13*
X304800Y1416050D02*
X292100Y1416050D01*
X304800Y1416050D02*
X342900Y1377950D01*
X292100Y1416050D02*
X292100Y1422400D01*
X-1168400Y-698500D02*
X-1168400Y-717550D01*
X-1193800Y-742950D01*
X-1193800Y-781050D01*
X-1212850Y-800100D01*
X-1215106Y-801112D01*
X412750Y-628650D02*
X450850Y-628650D01*
X412750Y-628650D02*
X330200Y-711200D01*
X25400Y-711200D01*
X-44450Y-781050D01*
D14*
X1238250Y-279400D03*
X342900Y1377950D03*
X355600Y742950D03*
X1193800Y742950D03*
X-336550Y-1308100D03*
X-374650Y-1308100D03*
X-374650Y-781050D03*
X-1168400Y-698500D03*
X476250Y-1384300D03*
X450850Y-628650D03*
X-44450Y-781050D03*
X-1365250Y381000D03*
X-749300Y1187450D03*
X-660400Y1187450D03*
X-1219200Y260350D03*
X463550Y-311150D03*
D13*
X152400Y-1428750D02*
X139700Y-1441450D01*
X152400Y-1428750D02*
X152400Y-1365250D01*
X139700Y-1441450D02*
X139700Y-1447800D01*
X-1447800Y-146050D02*
X-1447800Y-139700D01*
X-1447800Y-146050D02*
X-1435100Y-158750D01*
X-1435100Y-171450D01*
X-1428750Y-177800D01*
X-1416050Y-177800D01*
X-1320800Y-273050D01*
X-1320800Y-311150D01*
X-1098550Y-615950D02*
X-1035050Y-615950D01*
X-1028700Y-609600D01*
X-952500Y-609600D01*
X-692150Y-869950D01*
X-692150Y-876300D01*
X-673100Y-895350D01*
X-660400Y-895350D01*
X-1447800Y-139700D02*
X-1447800Y-139700D01*
X-793750Y698500D02*
X-508000Y984250D01*
X1428750Y127000D02*
X1441450Y139700D01*
X1428750Y127000D02*
X1390650Y127000D01*
X1384300Y133350D01*
X1441450Y139700D02*
X1447800Y139700D01*
X901700Y1162050D02*
X869950Y1193800D01*
X863600Y1193800D01*
X825500Y1155700D01*
X762000Y1155700D01*
D14*
X152400Y-1365250D03*
X127000Y-863600D03*
X-654050Y-876300D03*
X-660400Y-1104900D03*
X-1320800Y-311150D03*
X-1098550Y-615950D03*
X-660400Y-895350D03*
X-1111250Y762000D03*
X-1016000Y736600D03*
X-1079500Y-438150D03*
X-501650Y1485900D03*
X-508000Y984250D03*
X-793750Y698500D03*
X946150Y-882650D03*
X952500Y-419100D03*
X127000Y-419100D03*
X1384300Y133350D03*
X952500Y95250D03*
X901700Y1162050D03*
X762000Y1155700D03*
X762000Y1035050D03*
X838200Y990600D03*
D13*
X139700Y-1473200D02*
X152400Y-1485900D01*
X571500Y-1485900D01*
X635000Y-1485900D02*
X647700Y-1485900D01*
X1016000Y-1117600D01*
X1016000Y-1079500D01*
X139700Y-1473200D02*
X139700Y-1473200D01*
X1473200Y406400D02*
X1485900Y419100D01*
X1473200Y406400D02*
X1416050Y406400D01*
X1352550Y342900D01*
X1352550Y330200D01*
X-1054100Y800100D02*
X-1054100Y857250D01*
X-1092200Y895350D01*
X-1092200Y908050D01*
X-1098550Y914400D01*
X-1111250Y914400D01*
X-1117600Y908050D01*
X-1130300Y908050D01*
X-1143000Y920750D01*
X-1143000Y933450D01*
X-1141085Y939536D01*
D14*
X571500Y-1485900D03*
X635000Y-1485900D03*
X1016000Y-1079500D03*
X1485900Y419100D03*
X1352550Y330200D03*
X1339850Y-400050D03*
X-742950Y-1327150D03*
X-635000Y-1231900D03*
X-508000Y-1066800D03*
X-508000Y-25400D03*
X-1079500Y-25400D03*
X-1054100Y800100D03*
X-1289050Y-400050D03*
X-1079500Y-381000D03*
X-203200Y1352550D03*
X-247650Y88900D03*
X571500Y1276350D03*
X-203200Y1263650D03*
X1333500Y190500D03*
X-203200Y285750D03*
D13*
X-1485900Y622300D02*
X-1485900Y647700D01*
X-1181100Y952500D01*
X-1136650Y952500D01*
X-1123950Y939800D01*
X-1111250Y939800D01*
X-1105164Y939536D01*
X-234950Y1498600D02*
X-228600Y1492250D01*
X-234950Y1498600D02*
X-635000Y1498600D01*
X-1028700Y1104900D01*
X-1028700Y1060450D01*
X-984250Y1016000D01*
X-984250Y1009650D01*
X-1041400Y952500D02*
X-1047750Y946150D01*
X-1041400Y952500D02*
X-984250Y1009650D01*
X-1047750Y946150D02*
X-1060450Y946150D01*
X-1066800Y952500D01*
X-1073150Y952500D01*
X-1085850Y939800D01*
X-1104900Y939800D01*
X-1105164Y939536D01*
X1066800Y-825500D02*
X1066800Y-850900D01*
X1111250Y-895350D01*
X1111250Y-908050D01*
X1098550Y-920750D01*
X1098550Y-933450D01*
X1099639Y-939800D01*
X819150Y1219200D02*
X857250Y1257300D01*
X819150Y1219200D02*
X806450Y1219200D01*
X781050Y1244600D01*
X774700Y1244600D01*
X768350Y1238250D01*
X660400Y1238250D01*
X654050Y1231900D01*
X-984250Y895350D02*
X-1041400Y952500D01*
X-984250Y895350D02*
X-984250Y889000D01*
D14*
X-1485900Y622300D03*
X-228600Y1492250D03*
X647700Y-1441450D03*
X647700Y-857250D03*
X1066800Y-825500D03*
X-971550Y-908050D03*
X-787400Y-908050D03*
X-774700Y-730250D03*
X635000Y-730250D03*
X857250Y1257300D03*
X654050Y1231900D03*
X127000Y1238250D03*
X254000Y-730250D03*
X1409700Y419100D03*
X1054100Y393700D03*
X266700Y393700D03*
X-984250Y889000D03*
X50800Y971550D03*
X50800Y1238250D03*
D13*
X-749300Y1346200D02*
X-749300Y1352550D01*
X-647700Y1454150D01*
X-615950Y1422400D01*
X-501650Y1422400D01*
X-438150Y1485900D01*
X-234950Y1485900D01*
X-228600Y1479550D01*
X-222250Y1485900D01*
X-127000Y1485900D01*
X-114300Y1473200D01*
X-114300Y1473200D01*
X127000Y-1454150D02*
X114300Y-1466850D01*
X127000Y-1454150D02*
X127000Y-1403350D01*
X139700Y-1390650D01*
X139700Y-1352550D01*
X114300Y-1327150D01*
X114300Y-1301750D01*
X158750Y-1257300D01*
X-546100Y-1257300D02*
X-546100Y-1238250D01*
X-590550Y-1193800D01*
X-590550Y-1181100D01*
X-609600Y-1162050D01*
X-711200Y-1162050D01*
X-768350Y-1219200D01*
X-787400Y-1219200D01*
X-831850Y-1263650D01*
X-857250Y-1263650D01*
X-965200Y-1155700D01*
X-965200Y-1130300D01*
X114300Y-1466850D02*
X114300Y-1473200D01*
X-965200Y-1130300D02*
X-963659Y-1124401D01*
X1117600Y-952500D02*
X1117600Y-939800D01*
X1149350Y-908050D01*
X1149350Y-901700D01*
X1079500Y-831850D01*
X1079500Y-692150D01*
X1060450Y-673100D01*
X1060450Y-590550D01*
X1117600Y-952500D02*
X1117600Y-957760D01*
X-1454150Y-127000D02*
X-1466850Y-114300D01*
X-1454150Y-127000D02*
X-1441450Y-127000D01*
X-1435100Y-133350D01*
X-1435100Y-146050D01*
X-1428750Y-152400D01*
X-1409700Y-152400D01*
X-1333500Y-228600D01*
X-1333500Y-234950D01*
X-1466850Y-114300D02*
X-1473200Y-114300D01*
X-234950Y1308100D02*
X-241300Y1314450D01*
X-234950Y1308100D02*
X-234950Y1231900D01*
X-241300Y1225550D01*
X-241300Y1212850D01*
X-63500Y1035050D01*
D14*
X-749300Y1346200D03*
X158750Y-1257300D03*
X-546100Y-1257300D03*
X1060450Y-590550D03*
X165100Y-590550D03*
X-1333500Y-234950D03*
X139700Y-311150D03*
X139700Y-590550D03*
X1377950Y76200D03*
X939800Y69850D03*
X939800Y-590550D03*
X742950Y1003300D03*
X736600Y298450D03*
X-425450Y1346200D03*
X-425450Y1289050D03*
X-241300Y1314450D03*
X-63500Y1035050D03*
D13*
X101600Y1485900D02*
X120650Y1485900D01*
X133350Y1498600D01*
X387350Y1498600D01*
X425450Y1460500D01*
X425450Y1422400D01*
X469900Y1377950D01*
X469900Y1143000D01*
X546100Y1066800D01*
X920750Y1066800D01*
X939800Y1085850D01*
X952500Y1085850D01*
X958316Y1087543D01*
X-742950Y-1244600D02*
X-781050Y-1282700D01*
X-742950Y-1244600D02*
X-558800Y-1244600D01*
X-1441450Y-101600D02*
X-1441450Y-88900D01*
X-1441450Y-101600D02*
X-1435100Y-107950D01*
X-1435100Y-120650D01*
X-1428750Y-127000D01*
X-1416050Y-127000D01*
X-1339850Y-203200D01*
X-1441450Y-88900D02*
X-1447800Y-88900D01*
X1428750Y101600D02*
X1441450Y88900D01*
X1428750Y101600D02*
X1416050Y101600D01*
X1085850Y-228600D01*
X1085850Y-254000D01*
X1035050Y-304800D01*
X1035050Y-889000D01*
X1009650Y-914400D01*
X1009650Y-927100D01*
X1441450Y88900D02*
X1447800Y88900D01*
X469900Y1143000D02*
X450850Y1143000D01*
X444500Y1136650D01*
X400050Y1136650D01*
X387350Y1149350D01*
D14*
X101600Y1485900D03*
X158750Y-1346200D03*
X342900Y-1346200D03*
X342900Y-939800D03*
X1009650Y-927100D03*
X-781050Y-1282700D03*
X-558800Y-1244600D03*
X342900Y-1263650D03*
X-1339850Y-203200D03*
X-463550Y-203200D03*
X-463550Y-1244600D03*
X-1098550Y831850D03*
X-1003300Y768350D03*
X-1003300Y-203200D03*
X387350Y1149350D03*
X381000Y-927100D03*
D13*
X-977900Y-1111250D02*
X-977900Y-1155700D01*
X-850900Y-1282700D01*
X-819150Y-1282700D01*
X-768350Y-1231900D01*
X-749300Y-1231900D01*
X-692150Y-1174750D01*
X-609600Y-1174750D01*
X-603250Y-1181100D01*
X-977900Y-1111250D02*
X-981620Y-1106441D01*
X88900Y-1466850D02*
X101600Y-1454150D01*
X101600Y-1416050D01*
X127000Y-1390650D01*
X127000Y-1365250D01*
X88900Y-1466850D02*
X88900Y-1473200D01*
X1104900Y-977900D02*
X1117600Y-977900D01*
X1231900Y-863600D01*
X1104900Y-977900D02*
X1099639Y-975721D01*
X1301750Y-450850D02*
X1365250Y-387350D01*
X1301750Y-450850D02*
X1231900Y-450850D01*
X1130300Y-552450D01*
X1130300Y-577850D01*
X1117600Y-590550D01*
X1104900Y-577850D01*
X1104900Y-552450D01*
X1143000Y-514350D01*
X1143000Y-508000D01*
X1136650Y-501650D01*
X-1206500Y901700D02*
X-1219200Y901700D01*
X-1416050Y704850D01*
X-1416050Y692150D01*
X-1327150Y476250D02*
X-1244600Y476250D01*
X-1225550Y457200D01*
X-1206500Y457200D01*
X-863600Y114300D01*
X-863600Y19050D01*
X-812800Y-31750D01*
X-812800Y-146050D01*
X-819150Y-152400D01*
X330200Y971550D02*
X342900Y984250D01*
X330200Y971550D02*
X317500Y971550D01*
X260350Y1028700D01*
X171450Y1028700D01*
X95250Y1104900D01*
X-107950Y1104900D01*
X-228600Y1225550D01*
D14*
X-603250Y-1181100D03*
X-596900Y273050D03*
X-228600Y285750D03*
X-228600Y1225550D03*
X127000Y-1365250D03*
X393700Y-1123950D03*
X-615950Y-1104900D03*
X1231900Y-863600D03*
X1136650Y-501650D03*
X450850Y-501650D03*
X400050Y-742950D03*
X-1174750Y-228600D03*
X-819150Y-234950D03*
X-819150Y-152400D03*
X-596900Y-139700D03*
X1390650Y63500D03*
X1365250Y-387350D03*
X-1206500Y901700D03*
X-1416050Y692150D03*
X-1435100Y412750D03*
X-1327150Y476250D03*
X819150Y984250D03*
X342900Y984250D03*
D13*
X-1428750Y-76200D02*
X-1441450Y-63500D01*
X-1428750Y-76200D02*
X-1416050Y-76200D01*
X-1371600Y-120650D01*
X-1371600Y-133350D01*
X-1333500Y-171450D01*
X-1333500Y-190500D01*
X-1314450Y-209550D01*
X-1441450Y-63500D02*
X-1447800Y-63500D01*
X1066800Y-952500D02*
X1066800Y-971550D01*
X1066800Y-952500D02*
X1079500Y-939800D01*
X1060450Y-920750D01*
X1060450Y-889000D01*
X1358900Y-6350D02*
X1416050Y50800D01*
X1428750Y50800D01*
X1441450Y63500D01*
X1066800Y-971550D02*
X1063718Y-975721D01*
X1441450Y63500D02*
X1447800Y63500D01*
X1073150Y1054100D02*
X1047750Y1054100D01*
X1073150Y1054100D02*
X1079500Y1060450D01*
X-190500Y228600D02*
X-260350Y158750D01*
X-260350Y-107950D01*
X-95250Y-273050D01*
X82550Y-273050D01*
D14*
X-1314450Y-209550D03*
X-1206500Y-209550D03*
X-1206500Y495300D03*
X-190500Y1346200D03*
X-190500Y838200D03*
X-1041400Y838200D03*
X101600Y-1289050D03*
X101600Y-1092200D03*
X-901700Y-1092200D03*
X1060450Y-889000D03*
X1079500Y-6350D03*
X1358900Y-6350D03*
X1047750Y1054100D03*
X1079500Y1060450D03*
X82550Y-273050D03*
X1092200Y-273050D03*
X-190500Y228600D03*
D13*
X971550Y1085850D02*
X990600Y1085850D01*
X971550Y1085850D02*
X939800Y1054100D01*
X685800Y1054100D01*
X990600Y1085850D02*
X994237Y1087543D01*
X-1473200Y-63500D02*
X-1504950Y-95250D01*
X-1504950Y-431800D01*
X-1416050Y-520700D01*
X-1416050Y-527050D01*
X-1333500Y-609600D01*
X-1282700Y-609600D01*
X-1473200Y-63500D02*
X-1473200Y-63500D01*
X1060450Y-990600D02*
X1079500Y-990600D01*
X1060450Y-990600D02*
X1028700Y-958850D01*
X825500Y-958850D01*
X723900Y-857250D01*
X698500Y-857250D01*
X647700Y-806450D01*
X1079500Y-990600D02*
X1081679Y-993682D01*
D14*
X-1073150Y1060450D03*
X685800Y1054100D03*
X-711200Y-1397000D03*
X-647700Y-1257300D03*
X514350Y-857250D03*
X527050Y-1441450D03*
X-1282700Y-609600D03*
X-1250950Y-711200D03*
X-400050Y-641350D03*
X647700Y-806450D03*
X514350Y-806450D03*
X1365250Y38100D03*
X514350Y38100D03*
X558800Y1054100D03*
X558800Y793750D03*
X520700Y793750D03*
D13*
X95250Y-1282700D02*
X-6350Y-1282700D01*
X95250Y-1282700D02*
X355600Y-1022350D01*
X501650Y-1022350D02*
X831850Y-1022350D01*
X501650Y-1022350D02*
X355600Y-1022350D01*
X831850Y-1022350D02*
X838200Y-1016000D01*
X-1485900Y-120650D02*
X-1492250Y-114300D01*
X-1485900Y-120650D02*
X-1485900Y-438150D01*
X-1403350Y-520700D01*
X-1403350Y-527050D01*
X-1377950Y-552450D01*
X-1365250Y-552450D01*
X-1193800Y-539750D02*
X-1168400Y-565150D01*
X-882650Y-565150D01*
X-558800Y-889000D01*
X-558800Y-901700D01*
X1447800Y38100D02*
X1447800Y44450D01*
X1460500Y57150D01*
X1460500Y69850D01*
X1454150Y76200D01*
X1416050Y76200D01*
X1320800Y-19050D01*
X1308100Y-19050D01*
X1117600Y-209550D01*
X1447800Y38100D02*
X1447800Y38100D01*
D14*
X-571500Y-1384300D03*
X-571500Y-1231900D03*
X-6350Y-1282700D03*
X838200Y-1016000D03*
X-1492250Y-114300D03*
X-1365250Y-552450D03*
X-1193800Y-539750D03*
X-558800Y-901700D03*
X-6350Y-908050D03*
X501650Y-1022350D03*
X-1193800Y901700D03*
X-1282700Y323850D03*
X-88900Y336550D03*
X-88900Y1320800D03*
X774700Y920750D03*
X317500Y920750D03*
X317500Y336550D03*
X1117600Y-209550D03*
X323850Y-209550D03*
X501650Y-209550D03*
D13*
X1066800Y-1009650D02*
X1098550Y-1009650D01*
X1485900Y-622300D01*
X1485900Y-603250D01*
X1066800Y-1009650D02*
X1063718Y-1011642D01*
X-1358900Y-127000D02*
X-1358900Y-120650D01*
X-1352550Y-114300D01*
X-1416050Y-50800D01*
X-1454150Y-50800D01*
X-1466850Y-38100D01*
X-1473200Y-38100D01*
X38100Y-1466850D02*
X50800Y-1454150D01*
X50800Y-1377950D01*
X44450Y-1371600D01*
X44450Y-1358900D01*
X63500Y-1339850D01*
X76200Y-1339850D01*
X-171450Y-1117600D02*
X-349250Y-1117600D01*
X-552450Y-914400D01*
X-558800Y-914400D01*
X-711200Y-762000D01*
X-749300Y-762000D01*
X38100Y-1466850D02*
X38100Y-1473200D01*
D14*
X1485900Y-603250D03*
X-749300Y-1073150D03*
X-749300Y-88900D03*
X-1358900Y-127000D03*
X76200Y-1339850D03*
X25400Y-1117600D03*
X-171450Y-1117600D03*
X-749300Y-762000D03*
X1473200Y-412750D03*
X698500Y-990600D03*
X25400Y-1041400D03*
X-762000Y1358900D03*
X-1060450Y1060450D03*
D13*
X-1333500Y-6350D02*
X-1333500Y-57150D01*
X-1333500Y-6350D02*
X-1327150Y0D01*
X-12700Y-1308100D02*
X-12700Y-1377950D01*
X-12700Y-1308100D02*
X-38100Y-1282700D01*
X-38100Y-1212850D01*
X38100Y-1136650D01*
X38100Y-939800D01*
X44450Y-933450D01*
X1123950Y-1009650D02*
X1181100Y-952500D01*
X1447800Y12700D02*
X1460500Y25400D01*
X1460500Y44450D01*
X1466850Y50800D01*
X1479550Y50800D01*
X1485900Y57150D01*
X1485900Y171450D01*
X1479550Y177800D01*
X1403350Y177800D01*
X1352550Y228600D01*
X1447800Y12700D02*
X1447800Y12700D01*
D14*
X-1333500Y-57150D03*
X-1327150Y0D03*
X-749300Y12700D03*
X-717550Y685800D03*
X-12700Y-1377950D03*
X44450Y-933450D03*
X984250Y1123950D03*
X514350Y1295400D03*
X-63500Y1289050D03*
X1123950Y-1009650D03*
X1181100Y-952500D03*
X1358900Y-673100D03*
X1358900Y-488950D03*
X1181100Y-488950D03*
X1181100Y-336550D03*
X-44450Y-349250D03*
X1352550Y228600D03*
X635000Y-349250D03*
D13*
X635000Y-977900D02*
X723900Y-977900D01*
X635000Y-977900D02*
X603250Y-1009650D01*
X203200Y-1009650D01*
X184150Y-1028700D01*
X-1460500Y254000D02*
X-1460500Y273050D01*
X-1466850Y279400D01*
X-1479550Y279400D01*
X-1485900Y285750D01*
X-1485900Y495300D01*
X-1397000Y584200D01*
X-1320800Y584200D01*
X-1295400Y609600D01*
X-1212850Y609600D01*
X-1047750Y1035050D02*
X-1047750Y1066800D01*
X-1054100Y1073150D01*
X-1054100Y1092200D01*
X-635000Y1511300D01*
X-120650Y1511300D01*
X-101600Y1492250D01*
X-1047750Y1035050D02*
X-1051283Y1029338D01*
X1009650Y1047750D02*
X1028700Y1047750D01*
X1009650Y1047750D02*
X984250Y1022350D01*
X660400Y1022350D01*
X1028700Y1047750D02*
X1030158Y1051622D01*
D14*
X-76200Y-1435100D03*
X184150Y-1028700D03*
X-933450Y-1016000D03*
X723900Y-977900D03*
X-1460500Y254000D03*
X-1212850Y609600D03*
X-171450Y596900D03*
X-177800Y1390650D03*
X-101600Y1492250D03*
X1333500Y406400D03*
X1054100Y431800D03*
X-171450Y431800D03*
X660400Y1022350D03*
X660400Y412750D03*
X622300Y-952500D03*
X596900Y412750D03*
D13*
X-1479550Y-469900D02*
X-1485900Y-476250D01*
X-1485900Y-647700D01*
X-1104900Y-1028700D01*
X-1066800Y-1028700D01*
X-1054100Y-1016000D01*
X-1041400Y-1016000D01*
X-1035501Y-1016638D01*
X-12700Y-1441450D02*
X0Y-1428750D01*
X0Y-1390650D01*
X12700Y-1377950D01*
X-12700Y-1441450D02*
X-12700Y-1447800D01*
X12700Y1447800D02*
X25400Y1460500D01*
X44450Y1460500D01*
X50800Y1454150D01*
X50800Y1416050D01*
X69850Y1397000D01*
X95250Y1397000D01*
X107950Y1384300D01*
X12700Y1447800D02*
X12700Y1447800D01*
X1447800Y-6350D02*
X1447800Y-12700D01*
X1447800Y-6350D02*
X1435100Y6350D01*
X1435100Y19050D01*
X1428750Y25400D01*
X1403350Y25400D01*
X1333500Y-44450D01*
X1327150Y-44450D01*
X1447800Y-12700D02*
X1447800Y-12700D01*
D14*
X1504950Y-628650D03*
X1492250Y-38100D03*
X-1479550Y-469900D03*
X12700Y-1377950D03*
X6350Y-660400D03*
X-1028700Y-666750D03*
X-1028700Y-781050D03*
X-965200Y977900D03*
X-311150Y723900D03*
X-234950Y-660400D03*
X895350Y895350D03*
X850900Y514350D03*
X-304800Y520700D03*
X107950Y1384300D03*
X107950Y520700D03*
X1327150Y-44450D03*
X1231900Y-44450D03*
X1206500Y476250D03*
D13*
X-1035050Y-1035050D02*
X-1047750Y-1035050D01*
X-1035050Y-1035050D02*
X-1003300Y-1003300D01*
X-1003300Y-996950D01*
X-1092200Y-908050D01*
X-1092200Y-869950D01*
X-1079500Y-857250D01*
X-1079500Y-781050D01*
X-1301750Y-203200D02*
X-1320800Y-184150D01*
X-1320800Y-171450D01*
X-1333500Y-158750D01*
X-1333500Y-101600D01*
X-1409700Y-25400D01*
X-1409700Y-6350D01*
X-1416050Y0D01*
X-1454150Y0D01*
X-1466850Y12700D01*
X-1053462Y-1034599D02*
X-1047750Y-1035050D01*
X-1466850Y12700D02*
X-1473200Y12700D01*
X-25400Y-1454150D02*
X-12700Y-1466850D01*
X-25400Y-1454150D02*
X-25400Y-1441450D01*
X-31750Y-1435100D01*
X-44450Y-1435100D01*
X-50800Y-1428750D01*
X-50800Y-1390650D01*
X-38100Y-1377950D01*
X-12700Y-1466850D02*
X-12700Y-1473200D01*
X-635000Y190500D02*
X-647700Y190500D01*
X-635000Y190500D02*
X-31750Y-412750D01*
X-31750Y-450850D01*
X-63500Y1492250D02*
X-88900Y1492250D01*
X-101600Y1479550D01*
X-101600Y1466850D01*
X-107950Y1460500D01*
X-146050Y1460500D01*
X-152400Y1454150D01*
X-152400Y1441450D01*
X-158750Y1435100D01*
X-171450Y1435100D01*
X-177800Y1428750D01*
X-177800Y1416050D01*
X-260350Y1333500D01*
X-260350Y1104900D01*
X-101600Y946150D01*
X-101600Y914400D01*
X-539750Y476250D01*
X-539750Y463550D01*
X-641350Y361950D01*
X-647700Y361950D01*
X-1035050Y-501650D02*
X-1066800Y-501650D01*
X-1035050Y-501650D02*
X-1028700Y-508000D01*
X-889000Y-508000D01*
X-825500Y-444500D01*
X-488950Y-444500D01*
X-482600Y-438150D01*
D14*
X-1079500Y-781050D03*
X-1301750Y-203200D03*
X-38100Y-1377950D03*
X-31750Y-450850D03*
X1384300Y-457200D03*
X-971550Y863600D03*
X-654050Y857250D03*
X-647700Y190500D03*
X-63500Y1492250D03*
X-647700Y361950D03*
X1098550Y-1035050D03*
X-1066800Y-501650D03*
X-482600Y-438150D03*
D13*
X1447800Y-38100D02*
X1460500Y-25400D01*
X1479550Y-25400D01*
X1517650Y12700D01*
X1517650Y628650D01*
X1136650Y1009650D01*
X1079500Y1009650D01*
X1066800Y996950D01*
X1054100Y996950D01*
X1447800Y-38100D02*
X1447800Y-38100D01*
X1054100Y996950D02*
X1048118Y997741D01*
X-1428750Y50800D02*
X-1441450Y38100D01*
X-1428750Y50800D02*
X-1416050Y50800D01*
X-1365250Y0D01*
X-1365250Y-12700D01*
X-1441450Y38100D02*
X-1447800Y38100D01*
X25400Y1428750D02*
X38100Y1441450D01*
X25400Y1428750D02*
X25400Y1416050D01*
X57150Y1384300D01*
X88900Y1384300D01*
X38100Y1441450D02*
X38100Y1447800D01*
D14*
X1060450Y1079500D03*
X-1365250Y-12700D03*
X-1314450Y-76200D03*
X-1028700Y901700D03*
X-1231900Y336550D03*
X241300Y-1092200D03*
X260350Y349250D03*
X88900Y1384300D03*
X82550Y349250D03*
D13*
X-1346200Y-400050D02*
X-1346200Y-412750D01*
X-1346200Y-400050D02*
X-1276350Y-330200D01*
X-1276350Y-203200D01*
X-1320800Y-158750D01*
X-1320800Y-101600D01*
X-1397000Y-25400D01*
X-1397000Y6350D01*
X-1416050Y25400D01*
X-1454150Y25400D01*
X-1466850Y38100D01*
X-1473200Y38100D01*
X-977900Y-349250D02*
X-933450Y-393700D01*
X1047750Y1016000D02*
X1060450Y1016000D01*
X1047750Y1016000D02*
X965200Y933450D01*
X882650Y933450D01*
X869950Y539750D02*
X850900Y520700D01*
X844550Y520700D01*
X584200Y260350D01*
X-114300Y260350D01*
X-158750Y215900D01*
X1060450Y1016000D02*
X1066079Y1015701D01*
X869950Y539750D02*
X1257300Y152400D01*
D14*
X190500Y-1079500D03*
X914400Y-1022350D03*
X889000Y-615950D03*
X889000Y-895350D03*
X920750Y-895350D03*
X-1377950Y-679450D03*
X-1346200Y-412750D03*
X-958850Y819150D03*
X-977900Y-349250D03*
X-933450Y-393700D03*
X76200Y1460500D03*
X-158750Y844550D03*
X-158750Y215900D03*
X-977900Y215900D03*
X882650Y933450D03*
X869950Y539750D03*
X1257300Y-228600D03*
X1257300Y152400D03*
X-622300Y1485900D03*
X-1397000Y-558800D03*
X-1193800Y-552450D03*
X-1130300Y-742950D03*
X-127000Y-1485900D03*
X-285750Y-1308100D03*
X-127000Y-1308100D03*
X-114300Y-285750D03*
X749300Y-285750D03*
X952500Y-1143000D03*
X749300Y-1098550D03*
X-1181100Y-50800D03*
X-120650Y-234950D03*
X-615950Y1060450D03*
X-336550Y1047750D03*
X-336550Y-44450D03*
D13*
X-63500Y-1473200D02*
X-88900Y-1498600D01*
X-387350Y-1498600D01*
X-406400Y-1479550D01*
X-406400Y-1390650D01*
X-488950Y-1308100D01*
X-488950Y-1193800D01*
X-819150Y-863600D01*
X-63500Y-1473200D02*
X-63500Y-1473200D01*
X971550Y-1079500D02*
X990600Y-1079500D01*
X971550Y-1079500D02*
X965200Y-1073150D01*
X946150Y-1073150D01*
X939800Y-1079500D01*
X933450Y-1079500D01*
X914400Y-1060450D01*
X539750Y-1060450D01*
X488950Y-1111250D01*
X990600Y-1079500D02*
X991876Y-1083484D01*
X1371600Y-488950D02*
X1473200Y-488950D01*
X1371600Y-488950D02*
X1282700Y-577850D01*
X1174750Y-577850D01*
D14*
X31750Y1498600D03*
X1504950Y-25400D03*
X-819150Y-863600D03*
X488950Y-1111250D03*
X488950Y-952500D03*
X1473200Y-488950D03*
X1174750Y-577850D03*
X584200Y-571500D03*
X584200Y-952500D03*
X609600Y1206500D03*
X673100Y1155700D03*
X679450Y819150D03*
D13*
X1212850Y-139700D02*
X1117600Y-234950D01*
X1212850Y-139700D02*
X1225550Y-139700D01*
X1295400Y-69850D01*
X1384300Y-69850D01*
X1390650Y-76200D01*
X1428750Y-76200D01*
X1441450Y-88900D01*
X1447800Y-88900D01*
X-88900Y-1447800D02*
X-95250Y-1447800D01*
X-107950Y-1460500D01*
X-120650Y-1460500D01*
X-127000Y-1454150D01*
X-127000Y-1441450D01*
X-133350Y-1435100D01*
X-196850Y-1435100D01*
X-203200Y-1428750D01*
X-203200Y-1416050D01*
X-298450Y-1320800D01*
X-298450Y-1314450D01*
X-298450Y-939800D02*
X-304800Y-933450D01*
X-482600Y-933450D01*
X-825500Y-590550D01*
X-825500Y-546100D01*
X-869950Y-501650D01*
X-88900Y-1447800D02*
X-88900Y-1447800D01*
X1079500Y939800D02*
X1079500Y958850D01*
X1079500Y939800D02*
X1066800Y927100D01*
X1009650Y927100D01*
X920750Y838200D01*
X920750Y787400D01*
X939800Y768350D01*
X1079500Y958850D02*
X1084039Y961820D01*
D14*
X863600Y-1016000D03*
X901700Y-234950D03*
X1117600Y-234950D03*
X-895350Y996950D03*
X-920750Y114300D03*
X-1352550Y114300D03*
X-958850Y-869950D03*
X-895350Y-387350D03*
X-298450Y-1314450D03*
X-298450Y-939800D03*
X-869950Y-501650D03*
X165100Y1390650D03*
X177800Y1022350D03*
X939800Y768350D03*
X177800Y787400D03*
X749300Y-228600D03*
X749300Y781050D03*
D13*
X-971550Y-920750D02*
X-971550Y-977900D01*
X-971550Y-920750D02*
X-952500Y-901700D01*
X-857250Y-901700D02*
X-806450Y-901700D01*
X-857250Y-901700D02*
X-952500Y-901700D01*
X-806450Y-901700D02*
X-501650Y-1206500D01*
X-501650Y-1358900D01*
X-476250Y-1384300D01*
X-476250Y-1473200D01*
X971550Y-1149350D02*
X971550Y-1104900D01*
X971550Y-1149350D02*
X654050Y-1466850D01*
X622300Y-1466850D01*
X584200Y-1504950D01*
X44450Y-1504950D01*
X25400Y-1485900D01*
X971550Y-1104900D02*
X973916Y-1101445D01*
X-857250Y-901700D02*
X-857250Y-869950D01*
D14*
X203200Y1460500D03*
X1028700Y1035050D03*
X-971550Y-977900D03*
X-476250Y-1473200D03*
X25400Y-1485900D03*
X-1358900Y184150D03*
X-1104900Y177800D03*
X-857250Y-869950D03*
X838200Y933450D03*
X812800Y-476250D03*
X-831850Y-463550D03*
D13*
X-101600Y-1428750D02*
X-114300Y-1441450D01*
X-101600Y-1428750D02*
X-101600Y-990600D01*
X-190500Y-901700D01*
X-469900Y-901700D01*
X-717550Y-654050D01*
X-1187450Y-654050D02*
X-1187450Y-723900D01*
X-1219200Y-755650D01*
X-1219200Y-787400D01*
X-1225550Y-793750D01*
X-1225550Y-806450D01*
X-1111250Y-920750D01*
X-1111250Y-939800D01*
X-114300Y-1441450D02*
X-114300Y-1447800D01*
X-1107343Y-944796D02*
X-1111250Y-939800D01*
X914400Y-1104900D02*
X933450Y-1104900D01*
X914400Y-1104900D02*
X889000Y-1130300D01*
X876300Y-1130300D01*
X831850Y-1085850D01*
X673100Y-1085850D01*
X622300Y-1136650D01*
X450850Y-1136650D01*
X203200Y-806450D02*
X107950Y-806450D01*
X-76200Y-990600D01*
X-101600Y-990600D01*
X933450Y-1104900D02*
X937995Y-1101445D01*
X1441450Y-114300D02*
X1428750Y-101600D01*
X1276350Y-101600D01*
X1206500Y-171450D01*
X1441450Y-114300D02*
X1447800Y-114300D01*
X-946150Y1104900D02*
X-946150Y1123950D01*
X-958850Y1136650D01*
X-958850Y1155700D01*
X-787400Y1327150D01*
X-723900Y1327150D01*
X-704850Y1308100D01*
X-495300Y1308100D01*
X-943520Y1101180D02*
X-946150Y1104900D01*
X114300Y1447800D02*
X114300Y1454150D01*
X127000Y1466850D01*
X127000Y1479550D01*
X133350Y1485900D01*
X247650Y1485900D01*
X254000Y1479550D01*
X254000Y1409700D01*
X292100Y1371600D01*
X292100Y1289050D01*
X279400Y1276350D01*
D14*
X-717550Y-654050D03*
X-1187450Y-654050D03*
X450850Y-1136650D03*
X450850Y-806450D03*
X203200Y-806450D03*
X1206500Y-171450D03*
X-1352550Y127000D03*
X-717550Y127000D03*
X-495300Y1308100D03*
X-495300Y812800D03*
X0Y838200D03*
X-495300Y857250D03*
X279400Y1276350D03*
X279400Y1060450D03*
D13*
X-825500Y-711200D02*
X-831850Y-717550D01*
X-825500Y-711200D02*
X-793750Y-711200D01*
X-787400Y-717550D01*
X-787400Y-742950D01*
X-666750Y-863600D01*
X-654050Y-863600D01*
X-311150Y-1206500D01*
X-311150Y-1212850D02*
X-311150Y-1333500D01*
X-311150Y-1212850D02*
X-311150Y-1206500D01*
X-311150Y-1333500D02*
X-228600Y-1416050D01*
X-228600Y-1428750D01*
X-222250Y-1435100D01*
X-209550Y-1435100D01*
X-203200Y-1441450D01*
X-203200Y-1454150D01*
X-196850Y-1460500D01*
X-133350Y-1460500D01*
X-120650Y-1473200D01*
X-114300Y-1473200D01*
X-114300Y-1473200D01*
X-1454150Y101600D02*
X-1466850Y114300D01*
X-1454150Y101600D02*
X-1416050Y101600D01*
X-1365250Y50800D01*
X-1466850Y114300D02*
X-1473200Y114300D01*
X406400Y1301750D02*
X406400Y1397000D01*
X406400Y1301750D02*
X330200Y1225550D01*
X-171450Y-1174750D02*
X-273050Y-1174750D01*
X-311150Y-1212850D01*
X1117600Y939800D02*
X1117600Y958850D01*
X1117600Y939800D02*
X952500Y774700D01*
X952500Y768350D01*
X939800Y755650D01*
X933450Y755650D01*
X1117600Y958850D02*
X1119960Y961820D01*
D14*
X-1111250Y-857250D03*
X-831850Y-863600D03*
X-831850Y-717550D03*
X-1365250Y50800D03*
X-844550Y76200D03*
X-946150Y1009650D03*
X-882650Y819150D03*
X-565150Y774700D03*
X-508000Y82550D03*
X406400Y1397000D03*
X330200Y1225550D03*
X25400Y1219200D03*
X25400Y762000D03*
X596900Y-1181100D03*
X-171450Y-1174750D03*
X1365250Y-133350D03*
X787400Y-107950D03*
X933450Y755650D03*
X393700Y768350D03*
X400050Y342900D03*
D13*
X939800Y869950D02*
X1009650Y939800D01*
X1041400Y939800D01*
X1079500Y977900D01*
X1085850Y977900D01*
X1104900Y958850D01*
X-1327150Y203200D02*
X-1352550Y228600D01*
X-1327150Y203200D02*
X-1320800Y203200D01*
X-1301750Y184150D01*
X-1301750Y0D01*
X-1314450Y-12700D01*
X-1314450Y-63500D01*
X-1301750Y-76200D01*
X-1301750Y-165100D01*
X-1257300Y-209550D01*
X-1257300Y-654050D01*
X-1333500Y-730250D01*
X-1333500Y-787400D01*
X-1181100Y-939800D01*
X-1155700Y-939800D01*
X-1143000Y-927100D01*
X-1130300Y-927100D01*
X-1125304Y-926836D01*
D14*
X-781050Y1162050D03*
X133350Y1384300D03*
X1390650Y-63500D03*
X965200Y6350D03*
X939800Y869950D03*
X1104900Y958850D03*
X139700Y558800D03*
X933450Y546100D03*
X-1352550Y228600D03*
X-222250Y-1231900D03*
X-228600Y-965200D03*
X660400Y-1250950D03*
X-127000Y-1231900D03*
X139700Y323850D03*
X-1327150Y292100D03*
D13*
X127000Y1454150D02*
X139700Y1466850D01*
X127000Y1454150D02*
X127000Y1441450D01*
X120650Y1435100D01*
X107950Y1435100D01*
X101600Y1428750D01*
X101600Y1403350D01*
X120650Y1384300D01*
X120650Y1346200D01*
X317500Y1149350D01*
X139700Y1466850D02*
X139700Y1473200D01*
X-1473200Y139700D02*
X-1485900Y152400D01*
X-1485900Y222250D01*
X-1479550Y228600D01*
X-1441450Y228600D01*
X-1435100Y222250D01*
X-1435100Y209550D01*
X-1428750Y203200D01*
X-1416050Y203200D01*
X-1377950Y165100D01*
X-1377950Y152400D01*
X-1365250Y139700D01*
X-1473200Y139700D02*
X-1473200Y139700D01*
X-139700Y-1473200D02*
X-152400Y-1485900D01*
X-374650Y-1485900D01*
X-381000Y-1479550D01*
X-381000Y-1403350D01*
X-476250Y-1308100D01*
X-476250Y-1295400D01*
X-139700Y-1473200D02*
X-139700Y-1473200D01*
X-920750Y1143000D02*
X-939800Y1143000D01*
X-920750Y1143000D02*
X-895350Y1168400D01*
X-882650Y1168400D01*
X-876300Y1162050D01*
X-863600Y1162050D01*
X-819150Y1206500D01*
X-812800Y1206500D01*
X-806450Y1200150D01*
X-806450Y1143000D01*
X-819150Y1130300D01*
X-819150Y1085850D01*
X-958850Y946150D01*
X-958850Y920750D01*
X-943520Y1137101D02*
X-939800Y1143000D01*
X939800Y-1143000D02*
X939800Y-1168400D01*
X742950Y-1365250D01*
X419100Y-1365250D01*
X400050Y-1384300D01*
X939800Y-1143000D02*
X937995Y-1137366D01*
D14*
X317500Y1149350D03*
X1390650Y-133350D03*
X1092200Y-120650D03*
X1092200Y838200D03*
X1054100Y844550D03*
X-1365250Y139700D03*
X-1041400Y139700D03*
X-1066800Y-742950D03*
X-476250Y-1295400D03*
X-482600Y-127000D03*
X-1041400Y-127000D03*
X-958850Y920750D03*
X-1066800Y165100D03*
X400050Y-1384300D03*
X355600Y-1231900D03*
X400050Y-1231900D03*
X381000Y-1066800D03*
X-476250Y-1066800D03*
D13*
X901700Y-1143000D02*
X901700Y-1155700D01*
X863600Y-1193800D01*
X901700Y-1143000D02*
X902074Y-1137366D01*
X-920750Y-755650D02*
X-1079500Y-755650D01*
X-1092200Y-742950D01*
X-1098550Y-742950D01*
X-1441450Y165100D02*
X-1428750Y177800D01*
X-1416050Y177800D01*
X-1358900Y120650D01*
X-1358900Y107950D01*
X-1352550Y107950D01*
X-1327150Y82550D01*
X-1327150Y76200D01*
X-1441450Y165100D02*
X-1447800Y165100D01*
X165100Y1441450D02*
X177800Y1428750D01*
X177800Y1416050D01*
X241300Y1352550D01*
X228600Y1339850D01*
X190500Y1339850D01*
X171450Y1358900D01*
X133350Y1358900D01*
X165100Y1441450D02*
X165100Y1447800D01*
X1117600Y908050D02*
X1136650Y908050D01*
X1117600Y908050D02*
X1098550Y889000D01*
X1098550Y869950D01*
X939800Y711200D01*
X939800Y704850D01*
X1054100Y590550D01*
X1054100Y584200D01*
X1136650Y908050D02*
X1137921Y907938D01*
X1428750Y-152400D02*
X1441450Y-165100D01*
X1428750Y-152400D02*
X1403350Y-152400D01*
X1390650Y-165100D01*
X1263650Y-165100D01*
X1244600Y-146050D01*
X1441450Y-165100D02*
X1447800Y-165100D01*
D14*
X863600Y-1193800D03*
X984250Y-1136650D03*
X1079500Y-977900D03*
X-203200Y-1390650D03*
X-368300Y-1390650D03*
X-361950Y-1181100D03*
X-450850Y-1181100D03*
X-450850Y-704850D03*
X-920750Y-755650D03*
X-1098550Y-742950D03*
X-1327150Y76200D03*
X-933450Y1028700D03*
X-774700Y1060450D03*
X-781050Y958850D03*
X-781050Y69850D03*
X133350Y1358900D03*
X-127000Y1346200D03*
X-127000Y946150D03*
X1054100Y584200D03*
X-127000Y584200D03*
X1244600Y-146050D03*
X1219200Y584200D03*
D13*
X1308100Y-50800D02*
X1314450Y-57150D01*
X1333500Y-57150D01*
X1339850Y-50800D01*
X1428750Y-50800D01*
X1435100Y-57150D01*
X1435100Y-69850D01*
X1441450Y-76200D01*
X1454150Y-76200D01*
X1460500Y-82550D01*
X1460500Y-158750D01*
X1466850Y-165100D01*
X1473200Y-165100D01*
X-1409700Y304800D02*
X-1460500Y304800D01*
X-1409700Y304800D02*
X-1339850Y234950D01*
X-1339850Y228600D01*
X914400Y-1155700D02*
X914400Y-1181100D01*
X762000Y-1333500D01*
X723900Y-1333500D01*
X704850Y-1314450D01*
X635000Y-1314450D01*
X622300Y-1327150D01*
X609600Y-1314450D01*
X914400Y-1155700D02*
X920034Y-1155326D01*
X279400Y996950D02*
X215900Y996950D01*
X196850Y1016000D01*
X171450Y1016000D01*
X95250Y1092200D01*
X-44450Y1092200D01*
X-76200Y1060450D01*
X1244600Y222250D02*
X1270000Y222250D01*
X1244600Y222250D02*
X742950Y723900D01*
X450850Y723900D01*
X292100Y882650D01*
X279400Y882650D01*
D14*
X1282700Y749300D03*
X1308100Y-50800D03*
X-1346200Y-742950D03*
X-1314450Y-539750D03*
X-1162050Y-520700D03*
X-1168400Y-412750D03*
X-698500Y-412750D03*
X-704850Y1079500D03*
X-869950Y1079500D03*
X-1460500Y304800D03*
X-1339850Y228600D03*
X-1244600Y285750D03*
X-1238250Y241300D03*
X-698500Y234950D03*
X-203200Y-1377950D03*
X-234950Y-1079500D03*
X-698500Y-1079500D03*
X609600Y-1314450D03*
X609600Y-1181100D03*
X88900Y-1168400D03*
X88900Y-1079500D03*
X330200Y1346200D03*
X279400Y996950D03*
X-76200Y1060450D03*
X1270000Y222250D03*
X279400Y882650D03*
D13*
X863600Y-1155700D02*
X882650Y-1155700D01*
X863600Y-1155700D02*
X850900Y-1168400D01*
X844550Y-1168400D01*
X838200Y-1162050D01*
X749300Y-1162050D01*
X685800Y-1098550D01*
X882650Y-1155700D02*
X884113Y-1155326D01*
X-1162050Y-908050D02*
X-1162050Y-895350D01*
X-1162050Y-908050D02*
X-1174750Y-920750D01*
X-1187450Y-920750D01*
X-1320800Y-787400D01*
X-1320800Y-781050D01*
X-1308100Y-768350D01*
X-1308100Y-762000D01*
X-1320800Y-749300D01*
X-1320800Y-730250D01*
X-1238250Y-647700D01*
X-1238250Y-406400D01*
X-1244600Y-400050D01*
X-1244600Y-209550D01*
X-1289050Y-165100D01*
X-1289050Y-44450D01*
X-1301750Y-31750D01*
X-1301750Y-12700D01*
X-1161225Y-890915D02*
X-1162050Y-895350D01*
X203200Y1428750D02*
X190500Y1441450D01*
X203200Y1428750D02*
X203200Y1416050D01*
X266700Y1352550D01*
X266700Y882650D02*
X514350Y635000D01*
X673100Y635000D01*
X190500Y1441450D02*
X190500Y1447800D01*
D14*
X-1377950Y203200D03*
X-749300Y165100D03*
X-812800Y1022350D03*
X-933450Y1016000D03*
X-171450Y-1384300D03*
X-273050Y165100D03*
X685800Y-1098550D03*
X685800Y-768350D03*
X-184150Y-768350D03*
X-1301750Y-12700D03*
X-1352550Y25400D03*
X673100Y635000D03*
X266700Y1352550D03*
X266700Y882650D03*
X1403350Y-431800D03*
X673100Y-431800D03*
D13*
X1454150Y-177800D02*
X1466850Y-190500D01*
X1454150Y-177800D02*
X1301750Y-177800D01*
X1282700Y-196850D01*
X1466850Y-190500D02*
X1473200Y-190500D01*
X-1295400Y419100D02*
X-1295400Y463550D01*
X-1295400Y419100D02*
X-1200150Y323850D01*
X-1200150Y-177800D01*
X-1143000Y-234950D01*
X-1143000Y-336550D02*
X-1143000Y-355600D01*
X-1143000Y-336550D02*
X-1143000Y-234950D01*
X-1143000Y-355600D02*
X-1111250Y-387350D01*
X-1225550Y-711200D02*
X-1238250Y-723900D01*
X-1238250Y-768350D01*
X-1244600Y-774700D01*
X-1244600Y-787400D01*
X-1238250Y-793750D01*
X-1238250Y-806450D01*
X-1244600Y-812800D01*
X-1244600Y-825500D01*
X-1181100Y-889000D01*
X-1181100Y-908050D01*
X-1179185Y-908875D01*
X-901700Y1174750D02*
X-901700Y1200150D01*
X-806450Y1295400D01*
X-793750Y1295400D01*
X-749300Y1250950D01*
X-698500Y1250950D01*
X-901700Y1174750D02*
X-907599Y1173022D01*
X177800Y1466850D02*
X190500Y1466850D01*
X177800Y1466850D02*
X171450Y1460500D01*
X158750Y1460500D01*
X152400Y1454150D01*
X152400Y1416050D01*
X184150Y1384300D01*
X190500Y1466850D02*
X190500Y1473200D01*
X-190500Y-1473200D02*
X-196850Y-1473200D01*
X-209550Y-1460500D01*
X-323850Y-1460500D01*
X-330200Y-1454150D01*
X-330200Y-1377950D01*
X-336550Y-1371600D01*
X-336550Y-1365250D01*
X-323850Y-590550D02*
X-469900Y-444500D01*
X-469900Y-438150D01*
X-539750Y-368300D01*
X-825500Y-368300D01*
X-1016000Y-177800D01*
X-1028700Y-177800D01*
X-1060450Y-209550D01*
X-1060450Y-279400D01*
X-1117600Y-336550D01*
X-1143000Y-336550D01*
X-190500Y-1473200D02*
X-190500Y-1473200D01*
D14*
X1282700Y-196850D03*
X1244600Y679450D03*
X1104900Y679450D03*
X-1320800Y488950D03*
X-1295400Y463550D03*
X-1111250Y-387350D03*
X-1111250Y-717550D03*
X-1225550Y-711200D03*
X-698500Y1250950D03*
X-457200Y1250950D03*
X-933450Y400050D03*
X184150Y1384300D03*
X-381000Y1212850D03*
X-336550Y-1365250D03*
X-247650Y-590550D03*
X-323850Y-590550D03*
X196850Y596900D03*
D13*
X-215900Y-1447800D02*
X-222250Y-1447800D01*
X-234950Y-1435100D01*
X-273050Y-1435100D01*
X-279400Y-1428750D01*
X-279400Y-1403350D01*
X-342900Y-1339850D01*
X-361950Y-1339850D01*
X-387350Y-1314450D01*
X-387350Y-1308100D01*
X-215900Y-1447800D02*
X-215900Y-1447800D01*
X-1441450Y50800D02*
X-1460500Y50800D01*
X-1441450Y50800D02*
X-1435100Y57150D01*
X-1435100Y69850D01*
X-1428750Y76200D01*
X-1403350Y76200D01*
X-1365250Y38100D01*
D14*
X647700Y1485900D03*
X711200Y825500D03*
X1130300Y825500D03*
X-387350Y-1308100D03*
X-387350Y-577850D03*
X-1301750Y-590550D03*
X685800Y-1111250D03*
X596900Y-1111250D03*
X596900Y-361950D03*
X-387350Y-361950D03*
X-1460500Y50800D03*
X-1365250Y38100D03*
X-946150Y44450D03*
X-920750Y-577850D03*
X-819150Y958850D03*
X-939800Y952500D03*
X1377950Y-228600D03*
X711200Y-361950D03*
D13*
X-1346200Y-31750D02*
X-1346200Y-6350D01*
X-1333500Y6350D01*
X-1333500Y31750D01*
X-1409700Y107950D01*
X-1409700Y146050D01*
X-1416050Y152400D01*
X-1454150Y152400D01*
X-1460500Y158750D01*
X-1460500Y209550D01*
X-1466850Y215900D01*
X-1473200Y215900D01*
X-558800Y-984250D02*
X-558800Y-1003300D01*
X-558800Y-984250D02*
X-723900Y-819150D01*
X-730250Y-819150D01*
X228600Y1454150D02*
X215900Y1466850D01*
X228600Y1454150D02*
X228600Y1416050D01*
X266700Y1377950D01*
X273050Y1377950D01*
X279400Y1371600D01*
X279400Y1308100D01*
X215900Y1466850D02*
X215900Y1473200D01*
X1174750Y889000D02*
X1187450Y889000D01*
X1174750Y889000D02*
X996950Y711200D01*
X952500Y711200D01*
X1187450Y889000D02*
X1191802Y889978D01*
X901700Y-565150D02*
X901700Y-641350D01*
X698500Y-844550D01*
D14*
X-1168400Y-787400D03*
X-1263650Y-514350D03*
X-1346200Y-31750D03*
X-647700Y1301750D03*
X-622300Y31750D03*
X-558800Y-1003300D03*
X-730250Y-819150D03*
X-730250Y31750D03*
X279400Y1308100D03*
X-76200Y1308100D03*
X-641350Y812800D03*
X1028700Y-1092200D03*
X565150Y-1358900D03*
X450850Y-1358900D03*
X450850Y-1231900D03*
X717550Y-1238250D03*
X723900Y-990600D03*
X622300Y-977900D03*
X698500Y-844550D03*
X152400Y-844550D03*
X152400Y-685800D03*
X-711200Y-692150D03*
X952500Y711200D03*
X228600Y711200D03*
X228600Y1308100D03*
X1162050Y-565150D03*
X901700Y-565150D03*
D13*
X-1428750Y254000D02*
X-1441450Y241300D01*
X-1428750Y254000D02*
X-1416050Y254000D01*
X-1327150Y165100D01*
X-1320800Y165100D01*
X-1441450Y241300D02*
X-1447800Y241300D01*
X825500Y-1187450D02*
X844550Y-1187450D01*
X825500Y-1187450D02*
X812800Y-1174750D01*
X723900Y-1174750D01*
X711200Y-1162050D01*
X844550Y-1187450D02*
X848192Y-1191247D01*
X1428750Y-254000D02*
X1441450Y-241300D01*
X1428750Y-254000D02*
X1416050Y-254000D01*
X1295400Y-374650D01*
X1441450Y-241300D02*
X1447800Y-241300D01*
D14*
X-628650Y-1504950D03*
X-628650Y-679450D03*
X-1117600Y-666750D03*
X-1320800Y165100D03*
X-609600Y177800D03*
X-628650Y1200150D03*
X584200Y1485900D03*
X660400Y1155700D03*
X711200Y-1162050D03*
X711200Y-374650D03*
X-622300Y-374650D03*
X647700Y819150D03*
X1295400Y-374650D03*
X-285750Y-1320800D03*
X-311150Y-844550D03*
X361950Y-1320800D03*
X1117600Y-438150D03*
X419100Y1384300D03*
X387350Y1352550D03*
X533400Y527050D03*
X1130300Y527050D03*
X-793750Y1136650D03*
X-431800Y1162050D03*
X-431800Y533400D03*
X-158750Y-844550D03*
X-260350Y533400D03*
D13*
X806450Y-1206500D02*
X825500Y-1206500D01*
X806450Y-1206500D02*
X787400Y-1187450D01*
X673100Y-1187450D01*
X825500Y-1206500D02*
X830232Y-1209208D01*
X-1397000Y596900D02*
X-1428750Y565150D01*
X-1397000Y596900D02*
X-1333500Y596900D01*
X-1200150Y730250D01*
X-1073150Y730250D01*
X-1073150Y558800D02*
X-1073150Y349250D01*
X-400050Y-323850D01*
X-400050Y-400050D01*
X673100Y990600D02*
X615950Y1047750D01*
X673100Y990600D02*
X762000Y990600D01*
X819150Y933450D01*
X1022350Y952500D02*
X1047750Y977900D01*
X1022350Y952500D02*
X1009650Y952500D01*
X984250Y927100D01*
D14*
X-412750Y-603250D03*
X-1282700Y-596900D03*
X673100Y-1187450D03*
X660400Y-400050D03*
X-400050Y-400050D03*
X-1428750Y565150D03*
X-1073150Y730250D03*
X-1073150Y558800D03*
X-762000Y1130300D03*
X-679450Y1123950D03*
X-666750Y577850D03*
X-1066800Y584200D03*
X615950Y1047750D03*
X819150Y933450D03*
X800100Y-400050D03*
X1047750Y977900D03*
X984250Y927100D03*
X1130300Y-400050D03*
D13*
X-603250Y1073150D02*
X-711200Y1181100D01*
X-755650Y1181100D01*
X-812800Y1238250D01*
X-825500Y1238250D01*
X-831850Y1231900D01*
X-850900Y1231900D01*
X-853717Y1226904D01*
X266700Y1473200D02*
X279400Y1485900D01*
X374650Y1485900D01*
X381000Y1479550D01*
X381000Y1441450D01*
X387350Y1435100D01*
X400050Y1435100D01*
X457200Y1377950D01*
X457200Y1276350D01*
X266700Y1473200D02*
X266700Y1473200D01*
D14*
X736600Y-1162050D03*
X812800Y-349250D03*
X1327150Y-304800D03*
X-1365250Y292100D03*
X-558800Y285750D03*
X-603250Y1073150D03*
X-520700Y-1390650D03*
X-1270000Y-615950D03*
X-1130300Y-615950D03*
X-1117600Y-311150D03*
X-558800Y-311150D03*
X457200Y1276350D03*
X469900Y793750D03*
X914400Y-349250D03*
X914400Y139700D03*
X882650Y139700D03*
X882650Y552450D03*
D13*
X-1250950Y742950D02*
X-1250950Y755650D01*
X-1250950Y742950D02*
X-1289050Y704850D01*
X-1289050Y692150D01*
X-1295400Y685800D01*
X-1295400Y660400D01*
X-1308100Y647700D01*
X-1320800Y660400D01*
X-1250950Y755650D02*
X-1248848Y759930D01*
X279400Y-1301750D02*
X279400Y-1327150D01*
X298450Y-1346200D01*
X298450Y-1365250D01*
X342900Y-1409700D01*
X342900Y-1422400D01*
X1403350Y342900D02*
X1422400Y342900D01*
X1403350Y342900D02*
X1390650Y330200D01*
X-342900Y1416050D02*
X-476250Y1282700D01*
X-476250Y1257300D01*
X-533400Y1200150D01*
X-533400Y1149350D01*
X-520700Y1136650D01*
X-342900Y1416050D02*
X-342900Y1422400D01*
D14*
X-1320800Y660400D03*
X-1244600Y558800D03*
X-1371600Y361950D03*
X-1257300Y457200D03*
X-971550Y482600D03*
X-711200Y-1250950D03*
X-444500Y-1295400D03*
X279400Y-1301750D03*
X1250950Y-635000D03*
X279400Y-704850D03*
X-1181100Y-565150D03*
X1390650Y330200D03*
X685800Y273050D03*
X685800Y-704850D03*
X742950Y1181100D03*
X692150Y1035050D03*
X-520700Y1136650D03*
D13*
X-1041400Y742950D02*
X-1098550Y742950D01*
X-1041400Y742950D02*
X-1016000Y768350D01*
X-857250Y895350D02*
X-812800Y939800D01*
X-723900Y939800D01*
X-546100Y1117600D01*
X-546100Y1206500D02*
X-546100Y1219200D01*
X-546100Y1206500D02*
X-546100Y1117600D01*
X-546100Y1219200D02*
X-488950Y1276350D01*
X-488950Y1295400D01*
X-374650Y1409700D01*
X-361950Y1409700D01*
X-355600Y1416050D01*
X-355600Y1428750D01*
X-342900Y1441450D01*
X-342900Y1447800D01*
X1098550Y-673100D02*
X1136650Y-673100D01*
X1238250Y-774700D01*
X1257300Y-774700D01*
X1261284Y-778155D01*
X-1358900Y-400050D02*
X-1358900Y-361950D01*
X-1289050Y-292100D01*
X-1289050Y-228600D01*
X755650Y1263650D02*
X774700Y1263650D01*
X755650Y1263650D02*
X742950Y1250950D01*
X533400Y1250950D01*
X508000Y1225550D01*
X774700Y1263650D02*
X778711Y1267148D01*
X-539750Y1206500D02*
X-546100Y1206500D01*
D14*
X-1270000Y762000D03*
X-1225550Y584200D03*
X-1225550Y628650D03*
X-1098550Y742950D03*
X-1016000Y768350D03*
X-996950Y863600D03*
X-857250Y895350D03*
X552450Y-1454150D03*
X552450Y-666750D03*
X1098550Y-673100D03*
X-1358900Y-400050D03*
X-1289050Y-228600D03*
X488950Y-298450D03*
X488950Y-666750D03*
X-762000Y-1181100D03*
X-806450Y-234950D03*
X1308100Y355600D03*
X1308100Y203200D03*
X488950Y203200D03*
X508000Y1225550D03*
X-539750Y1206500D03*
D13*
X501650Y-1346200D02*
X533400Y-1346200D01*
X641350Y-1238250D01*
X660400Y-1238250D01*
X1200150Y-723900D02*
X1225550Y-723900D01*
X1276350Y-774700D01*
X1276350Y-793750D01*
X1279245Y-796116D01*
X-800100Y-1289050D02*
X-800100Y-1308100D01*
X-742950Y-1365250D01*
X-508000Y-1365250D01*
X-800100Y-1289050D02*
X-802015Y-1286046D01*
X-1270000Y546100D02*
X-1282700Y546100D01*
X-1301750Y527050D01*
X-1320800Y527050D01*
X-1339850Y508000D01*
X-1339850Y431800D01*
X-1301750Y393700D01*
X-1301750Y292100D01*
X-1244600Y234950D01*
X-1244600Y-146050D01*
X-1168400Y-222250D01*
X-1168400Y-361950D01*
X-495300Y1085850D02*
X-406400Y1174750D01*
X-495300Y1085850D02*
X-508000Y1085850D01*
X-920750Y673100D01*
X-920750Y641350D01*
X-939800Y622300D01*
X-1104900Y622300D01*
X-1181100Y546100D01*
X-1270000Y546100D01*
D14*
X1028700Y1066800D03*
X1327150Y781050D03*
X501650Y-1346200D03*
X660400Y-1238250D03*
X647700Y-742950D03*
X1200150Y-723900D03*
X-508000Y-1365250D03*
X-546100Y-742950D03*
X-1358900Y-412750D03*
X-546100Y-361950D03*
X-1377950Y641350D03*
X-1314450Y641350D03*
X-1270000Y546100D03*
X-1168400Y-361950D03*
X-406400Y1174750D03*
X1377950Y393700D03*
X558800Y438150D03*
X527050Y-749300D03*
M02*
