M48
;GenerationSoftware,Autodesk,EAGLE,9.6.2*%
;CreationDate,2020-06-20T10:04:28Z*%
FMAT,2
ICI,OFF
METRIC,TZ,000.000
T4C0.254
T3C0.813
T2C1.016
T1C2.794
%
G90
M71
T1
X2540Y12694
X2540Y101606
T2
X10160Y91440
X10160Y88900
X10160Y86360
X10160Y83820
X10160Y81280
X10160Y78740
X10160Y76200
X10160Y73660
X10160Y71120
X10160Y68580
X10160Y66040
X10160Y63500
X10160Y60960
X10160Y58420
X7620Y96520
X7620Y93980
X7620Y91440
X7620Y88900
X7620Y86360
X7620Y83820
X7620Y81280
X7620Y78740
X7620Y76200
X7620Y73660
X7620Y71120
X7620Y68580
X7620Y66040
X7620Y63500
X7620Y60960
X7620Y58420
X5080Y96520
X5080Y93980
X5080Y91440
X5080Y88900
X5080Y86360
X5080Y83820
X5080Y81280
X5080Y78740
X5080Y76200
X5080Y73660
X5080Y71120
X5080Y68580
X5080Y66040
X5080Y63500
X5080Y60960
X5080Y58420
X10160Y55880
X10160Y53340
X10160Y50800
X10160Y48260
X10160Y45720
X10160Y43180
X10160Y40640
X10160Y38100
X10160Y35560
X10160Y93980
X10160Y96520
X5080Y17780
X5080Y20320
X5080Y22860
X5080Y25400
X5080Y27940
X5080Y30480
X5080Y33020
X5080Y35560
X5080Y38100
X5080Y40640
X5080Y43180
X5080Y45720
X5080Y48260
X5080Y50800
X5080Y53340
X5080Y55880
X7620Y17780
X7620Y20320
X7620Y22860
X7620Y25400
X7620Y27940
X7620Y30480
X7620Y33020
X7620Y35560
X7620Y38100
X7620Y40640
X7620Y43180
X7620Y45720
X7620Y48260
X7620Y50800
X7620Y53340
X7620Y55880
X10160Y17780
X10160Y20320
X10160Y22860
X10160Y25400
X10160Y27940
X10160Y30480
X10160Y33020
T3
X93980Y38100
X41910Y55880
X96520Y38100
X99060Y38100
X101600Y38100
X104140Y38100
X106680Y38100
X109220Y38100
X111760Y38100
X114300Y38100
X116840Y38100
X116840Y30480
X114300Y30480
X104140Y30480
X106680Y30480
X101600Y30480
X99060Y30480
X111760Y30480
X109220Y30480
X96520Y30480
X93980Y30480
X93980Y55880
X96520Y55880
X99060Y55880
X101600Y55880
X104140Y55880
X106680Y55880
X109220Y55880
X111760Y55880
X114300Y55880
X116840Y55880
X116840Y48260
X114300Y48260
X104140Y48260
X106680Y48260
X101600Y48260
X99060Y48260
X111760Y48260
X109220Y48260
X96520Y48260
X93980Y48260
X143510Y34290
X140970Y34290
X138430Y34290
X135890Y34290
X133350Y34290
X130810Y34290
X128270Y34290
X125730Y34290
X123190Y34290
X143510Y87630
X140970Y87630
X138430Y87630
X135890Y87630
X133350Y87630
X130810Y87630
X39370Y30480
X175260Y3810
X172720Y3810
X165100Y3810
X154940Y3810
X31750Y83820
X34290Y83820
X46990Y83820
X49530Y83820
X36830Y83820
X39370Y83820
X44450Y83820
X41910Y83820
X52070Y83820
X54610Y83820
X54610Y91440
X52070Y91440
X49530Y91440
X46990Y91440
X44450Y91440
X41910Y91440
X39370Y91440
X36830Y91440
X34290Y91440
X31750Y91440
X31750Y30480
X34290Y30480
X46990Y30480
X49530Y30480
X36830Y30480
X128270Y87630
X44450Y30480
X41910Y30480
X52070Y30480
X54610Y30480
X54610Y38100
X52070Y38100
X49530Y38100
X46990Y38100
X44450Y38100
X41910Y38100
X39370Y38100
X36830Y38100
X34290Y38100
X31750Y38100
X31750Y66040
X34290Y66040
X46990Y66040
X49530Y66040
X36830Y66040
X39370Y66040
X44450Y66040
X41910Y66040
X52070Y66040
X54610Y66040
X54610Y73660
X52070Y73660
X49530Y73660
X46990Y73660
X44450Y73660
X41910Y73660
X39370Y73660
X36830Y73660
X34290Y73660
X31750Y73660
X31750Y48260
X34290Y48260
X46990Y48260
X49530Y48260
X36830Y48260
X39370Y48260
X44450Y48260
X41910Y48260
X52070Y48260
X54610Y48260
X54610Y55880
X52070Y55880
X49530Y55880
X46990Y55880
X44450Y55880
X125730Y87630
X39370Y55880
X36830Y55880
X34290Y55880
X31750Y55880
X39370Y12700
X41910Y12700
X54610Y12700
X54610Y20320
X44450Y12700
X46990Y12700
X52070Y12700
X49530Y12700
X52070Y20320
X49530Y20320
X46990Y20320
X44450Y20320
X41910Y20320
X39370Y20320
X59690Y87630
X62230Y87630
X64770Y87630
X67310Y87630
X69850Y87630
X72390Y87630
X74930Y87630
X77470Y87630
X80010Y87630
X59690Y34290
X62230Y34290
X64770Y34290
X67310Y34290
X69850Y34290
X72390Y34290
X74930Y34290
X77470Y34290
X80010Y34290
X93980Y83820
X96520Y83820
X109220Y83820
X111760Y83820
X99060Y83820
X101600Y83820
X106680Y83820
X104140Y83820
X114300Y83820
X116840Y83820
X116840Y91440
X114300Y91440
X111760Y91440
X109220Y91440
X106680Y91440
X104140Y91440
X101600Y91440
X99060Y91440
X96520Y91440
X93980Y91440
X93980Y66040
X96520Y66040
X109220Y66040
X111760Y66040
X99060Y66040
X101600Y66040
X106680Y66040
X104140Y66040
X114300Y66040
X116840Y66040
X116840Y73660
X114300Y73660
X111760Y73660
X109220Y73660
X106680Y73660
X104140Y73660
X101600Y73660
X99060Y73660
X96520Y73660
X93980Y73660
X123190Y87630
T4
X116205Y26670
X116205Y27622
X54927Y33973
X116522Y34290
X119380Y83820
X114617Y81598
X50482Y71438
X50482Y80963
X49212Y80328
X110172Y72073
X17463Y74613
X34925Y80645
X119062Y66040
X47625Y78105
X115887Y35878
X53657Y86678
X53340Y58737
X46037Y25400
X46037Y26670
X111125Y28892
X17145Y35878
X47942Y69850
X48577Y81598
X37783Y80010
X20955Y80645
X29527Y51435
X57467Y66675
X58102Y70168
X20638Y67945
X56832Y43180
X53022Y89217
X16510Y79375
X72073Y90487
X44767Y51435
X72073Y71438
X19368Y70485
X73343Y94297
X20638Y72390
X56832Y33338
X33338Y44450
X40958Y32702
X43498Y35878
X57467Y46672
X57467Y55245
X58102Y53975
X18733Y54610
X73978Y40323
X32067Y59690
X27305Y24765
X20003Y47307
X30797Y27305
X36830Y11112
X27622Y26035
X55245Y18733
X56197Y54610
X56197Y72708
X57467Y84773
M30