M48
;GenerationSoftware,Autodesk,EAGLE,9.6.2*%
;CreationDate,2020-07-07T17:50:56Z*%
FMAT,2
ICI,OFF
METRIC,TZ,000.000
T1C0.254
%
G90
M71
T1
X46355Y52070
X49530Y53657
X62865Y39688
X82233Y77153
X76835Y82550
X49530Y54292
X64135Y74613
X48260Y45720
X74613Y107950
X96520Y89217
X95885Y89852
X64452Y50165
X95567Y32067
X90170Y31750
X71120Y75883
X65405Y88582
X151765Y62865
X71438Y69533
X94615Y94615
X127000Y100330
X112395Y55562
X155575Y61277
X58102Y19368
X64770Y87630
X81915Y69215
X72390Y14287
X61912Y25717
X61912Y17780
X115887Y55880
X114617Y57150
X130810Y65723
X133985Y83820
X126047Y73660
X158115Y52070
X120650Y71438
X140335Y57467
X33020Y66675
X97155Y82550
X88265Y82550
X83820Y84455
X67628Y69533
X169228Y63182
X101600Y95250
X98742Y56832
X74930Y89535
X82233Y89535
X58102Y25082
X59372Y26352
X35560Y50482
X32067Y65087
X57785Y18733
X117792Y18733
X113665Y38100
X20003Y74295
X30162Y86360
X13652Y80645
X2540Y81280
X16192Y53340
X133350Y99695
X140653Y99695
X160338Y87313
X42863Y70803
X56515Y31115
X69850Y21907
X66358Y30797
X74930Y30162
X101600Y47625
X102552Y50165
X84773Y95885
X93662Y93980
X102552Y95885
X95567Y95250
X58420Y107632
X83503Y30480
X86360Y33338
X69215Y26987
X43180Y69850
X120650Y24765
X63182Y30797
X112077Y37465
X125412Y20003
M30