G04 EAGLE Gerber RS-274X export*
G75*
%MOMM*%
%FSLAX34Y34*%
%LPD*%
%INTop Copper*%
%IPPOS*%
%AMOC8*
5,1,8,0,0,1.08239X$1,22.5*%
G01*
%ADD10P,1.429621X8X112.500000*%
%ADD11C,1.320800*%
%ADD12P,2.034460X8X22.500000*%
%ADD13P,1.649562X8X292.500000*%
%ADD14P,1.649562X8X202.500000*%
%ADD15P,1.429621X8X202.500000*%
%ADD16C,0.152400*%
%ADD17C,0.756400*%


D10*
X152400Y901700D03*
X152400Y927100D03*
X812800Y114300D03*
X812800Y139700D03*
X571500Y368300D03*
X571500Y393700D03*
X508000Y495300D03*
X508000Y520700D03*
X508000Y1028700D03*
X508000Y1054100D03*
X584200Y901700D03*
X584200Y927100D03*
X508000Y774700D03*
X508000Y800100D03*
X584200Y647700D03*
X584200Y673100D03*
X228600Y1028700D03*
X228600Y1054100D03*
X495300Y241300D03*
X495300Y266700D03*
X203200Y368300D03*
X203200Y393700D03*
X825500Y368300D03*
X825500Y393700D03*
X152400Y635000D03*
X152400Y660400D03*
X203200Y495300D03*
X203200Y520700D03*
X825500Y901700D03*
X825500Y927100D03*
X825500Y774700D03*
X825500Y800100D03*
X228600Y241300D03*
X228600Y266700D03*
X1168400Y368300D03*
X1168400Y393700D03*
X1092200Y495300D03*
X1092200Y520700D03*
X152400Y774700D03*
X152400Y800100D03*
X1168400Y647700D03*
X1168400Y673100D03*
X1092200Y774700D03*
X1092200Y800100D03*
X1168400Y901700D03*
X1168400Y927100D03*
X1092200Y1028700D03*
X1092200Y1054100D03*
X1409700Y1028700D03*
X1409700Y1054100D03*
X1409700Y901700D03*
X1409700Y927100D03*
X1409700Y368300D03*
X1409700Y393700D03*
X1409700Y114300D03*
X1409700Y139700D03*
X1409700Y774700D03*
X1409700Y800100D03*
X1409700Y495300D03*
X1409700Y520700D03*
X1092200Y241300D03*
X1092200Y266700D03*
X1409700Y241300D03*
X1409700Y266700D03*
X1409700Y647700D03*
X1409700Y673100D03*
X825500Y1028700D03*
X825500Y1054100D03*
X825500Y647700D03*
X825500Y673100D03*
X825500Y495300D03*
X825500Y520700D03*
X812800Y241300D03*
X812800Y266700D03*
D11*
X241300Y336296D02*
X241300Y349504D01*
X266700Y349504D02*
X266700Y336296D01*
X393700Y336296D02*
X393700Y349504D01*
X419100Y349504D02*
X419100Y336296D01*
X292100Y336296D02*
X292100Y349504D01*
X317500Y349504D02*
X317500Y336296D01*
X368300Y336296D02*
X368300Y349504D01*
X342900Y349504D02*
X342900Y336296D01*
X419100Y412496D02*
X419100Y425704D01*
X393700Y425704D02*
X393700Y412496D01*
X368300Y412496D02*
X368300Y425704D01*
X342900Y425704D02*
X342900Y412496D01*
X317500Y412496D02*
X317500Y425704D01*
X292100Y425704D02*
X292100Y412496D01*
X266700Y412496D02*
X266700Y425704D01*
X241300Y425704D02*
X241300Y412496D01*
X190500Y869696D02*
X190500Y882904D01*
X215900Y882904D02*
X215900Y869696D01*
X342900Y869696D02*
X342900Y882904D01*
X368300Y882904D02*
X368300Y869696D01*
X241300Y869696D02*
X241300Y882904D01*
X266700Y882904D02*
X266700Y869696D01*
X317500Y869696D02*
X317500Y882904D01*
X292100Y882904D02*
X292100Y869696D01*
X393700Y869696D02*
X393700Y882904D01*
X419100Y882904D02*
X419100Y869696D01*
X419100Y945896D02*
X419100Y959104D01*
X393700Y959104D02*
X393700Y945896D01*
X368300Y945896D02*
X368300Y959104D01*
X342900Y959104D02*
X342900Y945896D01*
X317500Y945896D02*
X317500Y959104D01*
X292100Y959104D02*
X292100Y945896D01*
X266700Y945896D02*
X266700Y959104D01*
X241300Y959104D02*
X241300Y945896D01*
X215900Y945896D02*
X215900Y959104D01*
X190500Y959104D02*
X190500Y945896D01*
X1447800Y628904D02*
X1447800Y615696D01*
X1473200Y615696D02*
X1473200Y628904D01*
X1600200Y628904D02*
X1600200Y615696D01*
X1625600Y615696D02*
X1625600Y628904D01*
X1498600Y628904D02*
X1498600Y615696D01*
X1524000Y615696D02*
X1524000Y628904D01*
X1574800Y628904D02*
X1574800Y615696D01*
X1549400Y615696D02*
X1549400Y628904D01*
X1625600Y691896D02*
X1625600Y705104D01*
X1600200Y705104D02*
X1600200Y691896D01*
X1574800Y691896D02*
X1574800Y705104D01*
X1549400Y705104D02*
X1549400Y691896D01*
X1524000Y691896D02*
X1524000Y705104D01*
X1498600Y705104D02*
X1498600Y691896D01*
X1473200Y691896D02*
X1473200Y705104D01*
X1447800Y705104D02*
X1447800Y691896D01*
X1447800Y742696D02*
X1447800Y755904D01*
X1473200Y755904D02*
X1473200Y742696D01*
X1600200Y742696D02*
X1600200Y755904D01*
X1625600Y755904D02*
X1625600Y742696D01*
X1498600Y742696D02*
X1498600Y755904D01*
X1524000Y755904D02*
X1524000Y742696D01*
X1574800Y742696D02*
X1574800Y755904D01*
X1549400Y755904D02*
X1549400Y742696D01*
X1625600Y818896D02*
X1625600Y832104D01*
X1600200Y832104D02*
X1600200Y818896D01*
X1574800Y818896D02*
X1574800Y832104D01*
X1549400Y832104D02*
X1549400Y818896D01*
X1524000Y818896D02*
X1524000Y832104D01*
X1498600Y832104D02*
X1498600Y818896D01*
X1473200Y818896D02*
X1473200Y832104D01*
X1447800Y832104D02*
X1447800Y818896D01*
X1447800Y996696D02*
X1447800Y1009904D01*
X1473200Y1009904D02*
X1473200Y996696D01*
X1600200Y996696D02*
X1600200Y1009904D01*
X1625600Y1009904D02*
X1625600Y996696D01*
X1498600Y996696D02*
X1498600Y1009904D01*
X1524000Y1009904D02*
X1524000Y996696D01*
X1574800Y996696D02*
X1574800Y1009904D01*
X1549400Y1009904D02*
X1549400Y996696D01*
X1625600Y1072896D02*
X1625600Y1086104D01*
X1600200Y1086104D02*
X1600200Y1072896D01*
X1574800Y1072896D02*
X1574800Y1086104D01*
X1549400Y1086104D02*
X1549400Y1072896D01*
X1524000Y1072896D02*
X1524000Y1086104D01*
X1498600Y1086104D02*
X1498600Y1072896D01*
X1473200Y1072896D02*
X1473200Y1086104D01*
X1447800Y1086104D02*
X1447800Y1072896D01*
X1447800Y882904D02*
X1447800Y869696D01*
X1473200Y869696D02*
X1473200Y882904D01*
X1600200Y882904D02*
X1600200Y869696D01*
X1625600Y869696D02*
X1625600Y882904D01*
X1498600Y882904D02*
X1498600Y869696D01*
X1524000Y869696D02*
X1524000Y882904D01*
X1574800Y882904D02*
X1574800Y869696D01*
X1549400Y869696D02*
X1549400Y882904D01*
X1625600Y945896D02*
X1625600Y959104D01*
X1600200Y959104D02*
X1600200Y945896D01*
X1574800Y945896D02*
X1574800Y959104D01*
X1549400Y959104D02*
X1549400Y945896D01*
X1524000Y945896D02*
X1524000Y959104D01*
X1498600Y959104D02*
X1498600Y945896D01*
X1473200Y945896D02*
X1473200Y959104D01*
X1447800Y959104D02*
X1447800Y945896D01*
X1130300Y755904D02*
X1130300Y742696D01*
X1155700Y742696D02*
X1155700Y755904D01*
X1282700Y755904D02*
X1282700Y742696D01*
X1308100Y742696D02*
X1308100Y755904D01*
X1181100Y755904D02*
X1181100Y742696D01*
X1206500Y742696D02*
X1206500Y755904D01*
X1257300Y755904D02*
X1257300Y742696D01*
X1231900Y742696D02*
X1231900Y755904D01*
X1333500Y755904D02*
X1333500Y742696D01*
X1358900Y742696D02*
X1358900Y755904D01*
X1358900Y818896D02*
X1358900Y832104D01*
X1333500Y832104D02*
X1333500Y818896D01*
X1308100Y818896D02*
X1308100Y832104D01*
X1282700Y832104D02*
X1282700Y818896D01*
X1257300Y818896D02*
X1257300Y832104D01*
X1231900Y832104D02*
X1231900Y818896D01*
X1206500Y818896D02*
X1206500Y832104D01*
X1181100Y832104D02*
X1181100Y818896D01*
X1155700Y818896D02*
X1155700Y832104D01*
X1130300Y832104D02*
X1130300Y818896D01*
X241300Y476504D02*
X241300Y463296D01*
X266700Y463296D02*
X266700Y476504D01*
X393700Y476504D02*
X393700Y463296D01*
X419100Y463296D02*
X419100Y476504D01*
X292100Y476504D02*
X292100Y463296D01*
X317500Y463296D02*
X317500Y476504D01*
X368300Y476504D02*
X368300Y463296D01*
X342900Y463296D02*
X342900Y476504D01*
X419100Y539496D02*
X419100Y552704D01*
X393700Y552704D02*
X393700Y539496D01*
X368300Y539496D02*
X368300Y552704D01*
X342900Y552704D02*
X342900Y539496D01*
X317500Y539496D02*
X317500Y552704D01*
X292100Y552704D02*
X292100Y539496D01*
X266700Y539496D02*
X266700Y552704D01*
X241300Y552704D02*
X241300Y539496D01*
X1130300Y996696D02*
X1130300Y1009904D01*
X1155700Y1009904D02*
X1155700Y996696D01*
X1282700Y996696D02*
X1282700Y1009904D01*
X1308100Y1009904D02*
X1308100Y996696D01*
X1181100Y996696D02*
X1181100Y1009904D01*
X1206500Y1009904D02*
X1206500Y996696D01*
X1257300Y996696D02*
X1257300Y1009904D01*
X1231900Y1009904D02*
X1231900Y996696D01*
X1333500Y996696D02*
X1333500Y1009904D01*
X1358900Y1009904D02*
X1358900Y996696D01*
X1358900Y1072896D02*
X1358900Y1086104D01*
X1333500Y1086104D02*
X1333500Y1072896D01*
X1308100Y1072896D02*
X1308100Y1086104D01*
X1282700Y1086104D02*
X1282700Y1072896D01*
X1257300Y1072896D02*
X1257300Y1086104D01*
X1231900Y1086104D02*
X1231900Y1072896D01*
X1206500Y1072896D02*
X1206500Y1086104D01*
X1181100Y1086104D02*
X1181100Y1072896D01*
X1155700Y1072896D02*
X1155700Y1086104D01*
X1130300Y1086104D02*
X1130300Y1072896D01*
X190500Y628904D02*
X190500Y615696D01*
X215900Y615696D02*
X215900Y628904D01*
X342900Y628904D02*
X342900Y615696D01*
X368300Y615696D02*
X368300Y628904D01*
X241300Y628904D02*
X241300Y615696D01*
X266700Y615696D02*
X266700Y628904D01*
X317500Y628904D02*
X317500Y615696D01*
X292100Y615696D02*
X292100Y628904D01*
X393700Y628904D02*
X393700Y615696D01*
X419100Y615696D02*
X419100Y628904D01*
X419100Y691896D02*
X419100Y705104D01*
X393700Y705104D02*
X393700Y691896D01*
X368300Y691896D02*
X368300Y705104D01*
X342900Y705104D02*
X342900Y691896D01*
X317500Y691896D02*
X317500Y705104D01*
X292100Y705104D02*
X292100Y691896D01*
X266700Y691896D02*
X266700Y705104D01*
X241300Y705104D02*
X241300Y691896D01*
X215900Y691896D02*
X215900Y705104D01*
X190500Y705104D02*
X190500Y691896D01*
X863600Y996696D02*
X863600Y1009904D01*
X889000Y1009904D02*
X889000Y996696D01*
X1016000Y996696D02*
X1016000Y1009904D01*
X1041400Y1009904D02*
X1041400Y996696D01*
X914400Y996696D02*
X914400Y1009904D01*
X939800Y1009904D02*
X939800Y996696D01*
X990600Y996696D02*
X990600Y1009904D01*
X965200Y1009904D02*
X965200Y996696D01*
X1041400Y1072896D02*
X1041400Y1086104D01*
X1016000Y1086104D02*
X1016000Y1072896D01*
X990600Y1072896D02*
X990600Y1086104D01*
X965200Y1086104D02*
X965200Y1072896D01*
X939800Y1072896D02*
X939800Y1086104D01*
X914400Y1086104D02*
X914400Y1072896D01*
X889000Y1072896D02*
X889000Y1086104D01*
X863600Y1086104D02*
X863600Y1072896D01*
X863600Y882904D02*
X863600Y869696D01*
X889000Y869696D02*
X889000Y882904D01*
X1016000Y882904D02*
X1016000Y869696D01*
X1041400Y869696D02*
X1041400Y882904D01*
X914400Y882904D02*
X914400Y869696D01*
X939800Y869696D02*
X939800Y882904D01*
X990600Y882904D02*
X990600Y869696D01*
X965200Y869696D02*
X965200Y882904D01*
X1041400Y945896D02*
X1041400Y959104D01*
X1016000Y959104D02*
X1016000Y945896D01*
X990600Y945896D02*
X990600Y959104D01*
X965200Y959104D02*
X965200Y945896D01*
X939800Y945896D02*
X939800Y959104D01*
X914400Y959104D02*
X914400Y945896D01*
X889000Y945896D02*
X889000Y959104D01*
X863600Y959104D02*
X863600Y945896D01*
X863600Y755904D02*
X863600Y742696D01*
X889000Y742696D02*
X889000Y755904D01*
X1016000Y755904D02*
X1016000Y742696D01*
X1041400Y742696D02*
X1041400Y755904D01*
X914400Y755904D02*
X914400Y742696D01*
X939800Y742696D02*
X939800Y755904D01*
X990600Y755904D02*
X990600Y742696D01*
X965200Y742696D02*
X965200Y755904D01*
X1041400Y818896D02*
X1041400Y832104D01*
X1016000Y832104D02*
X1016000Y818896D01*
X990600Y818896D02*
X990600Y832104D01*
X965200Y832104D02*
X965200Y818896D01*
X939800Y818896D02*
X939800Y832104D01*
X914400Y832104D02*
X914400Y818896D01*
X889000Y818896D02*
X889000Y832104D01*
X863600Y832104D02*
X863600Y818896D01*
X863600Y628904D02*
X863600Y615696D01*
X889000Y615696D02*
X889000Y628904D01*
X1016000Y628904D02*
X1016000Y615696D01*
X1041400Y615696D02*
X1041400Y628904D01*
X914400Y628904D02*
X914400Y615696D01*
X939800Y615696D02*
X939800Y628904D01*
X990600Y628904D02*
X990600Y615696D01*
X965200Y615696D02*
X965200Y628904D01*
X1041400Y691896D02*
X1041400Y705104D01*
X1016000Y705104D02*
X1016000Y691896D01*
X990600Y691896D02*
X990600Y705104D01*
X965200Y705104D02*
X965200Y691896D01*
X939800Y691896D02*
X939800Y705104D01*
X914400Y705104D02*
X914400Y691896D01*
X889000Y691896D02*
X889000Y705104D01*
X863600Y705104D02*
X863600Y691896D01*
X546100Y996696D02*
X546100Y1009904D01*
X571500Y1009904D02*
X571500Y996696D01*
X698500Y996696D02*
X698500Y1009904D01*
X723900Y1009904D02*
X723900Y996696D01*
X596900Y996696D02*
X596900Y1009904D01*
X622300Y1009904D02*
X622300Y996696D01*
X673100Y996696D02*
X673100Y1009904D01*
X647700Y1009904D02*
X647700Y996696D01*
X749300Y996696D02*
X749300Y1009904D01*
X774700Y1009904D02*
X774700Y996696D01*
X774700Y1072896D02*
X774700Y1086104D01*
X749300Y1086104D02*
X749300Y1072896D01*
X723900Y1072896D02*
X723900Y1086104D01*
X698500Y1086104D02*
X698500Y1072896D01*
X673100Y1072896D02*
X673100Y1086104D01*
X647700Y1086104D02*
X647700Y1072896D01*
X622300Y1072896D02*
X622300Y1086104D01*
X596900Y1086104D02*
X596900Y1072896D01*
X571500Y1072896D02*
X571500Y1086104D01*
X546100Y1086104D02*
X546100Y1072896D01*
X546100Y755904D02*
X546100Y742696D01*
X571500Y742696D02*
X571500Y755904D01*
X698500Y755904D02*
X698500Y742696D01*
X723900Y742696D02*
X723900Y755904D01*
X596900Y755904D02*
X596900Y742696D01*
X622300Y742696D02*
X622300Y755904D01*
X673100Y755904D02*
X673100Y742696D01*
X647700Y742696D02*
X647700Y755904D01*
X749300Y755904D02*
X749300Y742696D01*
X774700Y742696D02*
X774700Y755904D01*
X774700Y818896D02*
X774700Y832104D01*
X749300Y832104D02*
X749300Y818896D01*
X723900Y818896D02*
X723900Y832104D01*
X698500Y832104D02*
X698500Y818896D01*
X673100Y818896D02*
X673100Y832104D01*
X647700Y832104D02*
X647700Y818896D01*
X622300Y818896D02*
X622300Y832104D01*
X596900Y832104D02*
X596900Y818896D01*
X571500Y818896D02*
X571500Y832104D01*
X546100Y832104D02*
X546100Y818896D01*
X1447800Y95504D02*
X1447800Y82296D01*
X1473200Y82296D02*
X1473200Y95504D01*
X1600200Y95504D02*
X1600200Y82296D01*
X1625600Y82296D02*
X1625600Y95504D01*
X1498600Y95504D02*
X1498600Y82296D01*
X1524000Y82296D02*
X1524000Y95504D01*
X1574800Y95504D02*
X1574800Y82296D01*
X1549400Y82296D02*
X1549400Y95504D01*
X1625600Y158496D02*
X1625600Y171704D01*
X1600200Y171704D02*
X1600200Y158496D01*
X1574800Y158496D02*
X1574800Y171704D01*
X1549400Y171704D02*
X1549400Y158496D01*
X1524000Y158496D02*
X1524000Y171704D01*
X1498600Y171704D02*
X1498600Y158496D01*
X1473200Y158496D02*
X1473200Y171704D01*
X1447800Y171704D02*
X1447800Y158496D01*
X863600Y463296D02*
X863600Y476504D01*
X889000Y476504D02*
X889000Y463296D01*
X1016000Y463296D02*
X1016000Y476504D01*
X1041400Y476504D02*
X1041400Y463296D01*
X914400Y463296D02*
X914400Y476504D01*
X939800Y476504D02*
X939800Y463296D01*
X990600Y463296D02*
X990600Y476504D01*
X965200Y476504D02*
X965200Y463296D01*
X1041400Y539496D02*
X1041400Y552704D01*
X1016000Y552704D02*
X1016000Y539496D01*
X990600Y539496D02*
X990600Y552704D01*
X965200Y552704D02*
X965200Y539496D01*
X939800Y539496D02*
X939800Y552704D01*
X914400Y552704D02*
X914400Y539496D01*
X889000Y539496D02*
X889000Y552704D01*
X863600Y552704D02*
X863600Y539496D01*
X863600Y349504D02*
X863600Y336296D01*
X889000Y336296D02*
X889000Y349504D01*
X1016000Y349504D02*
X1016000Y336296D01*
X1041400Y336296D02*
X1041400Y349504D01*
X914400Y349504D02*
X914400Y336296D01*
X939800Y336296D02*
X939800Y349504D01*
X990600Y349504D02*
X990600Y336296D01*
X965200Y336296D02*
X965200Y349504D01*
X1041400Y412496D02*
X1041400Y425704D01*
X1016000Y425704D02*
X1016000Y412496D01*
X990600Y412496D02*
X990600Y425704D01*
X965200Y425704D02*
X965200Y412496D01*
X939800Y412496D02*
X939800Y425704D01*
X914400Y425704D02*
X914400Y412496D01*
X889000Y412496D02*
X889000Y425704D01*
X863600Y425704D02*
X863600Y412496D01*
X850900Y222504D02*
X850900Y209296D01*
X876300Y209296D02*
X876300Y222504D01*
X1003300Y222504D02*
X1003300Y209296D01*
X1028700Y209296D02*
X1028700Y222504D01*
X901700Y222504D02*
X901700Y209296D01*
X927100Y209296D02*
X927100Y222504D01*
X977900Y222504D02*
X977900Y209296D01*
X952500Y209296D02*
X952500Y222504D01*
X1028700Y285496D02*
X1028700Y298704D01*
X1003300Y298704D02*
X1003300Y285496D01*
X977900Y285496D02*
X977900Y298704D01*
X952500Y298704D02*
X952500Y285496D01*
X927100Y285496D02*
X927100Y298704D01*
X901700Y298704D02*
X901700Y285496D01*
X876300Y285496D02*
X876300Y298704D01*
X850900Y298704D02*
X850900Y285496D01*
X850900Y95504D02*
X850900Y82296D01*
X876300Y82296D02*
X876300Y95504D01*
X1003300Y95504D02*
X1003300Y82296D01*
X1028700Y82296D02*
X1028700Y95504D01*
X901700Y95504D02*
X901700Y82296D01*
X927100Y82296D02*
X927100Y95504D01*
X977900Y95504D02*
X977900Y82296D01*
X952500Y82296D02*
X952500Y95504D01*
X1028700Y158496D02*
X1028700Y171704D01*
X1003300Y171704D02*
X1003300Y158496D01*
X977900Y158496D02*
X977900Y171704D01*
X952500Y171704D02*
X952500Y158496D01*
X927100Y158496D02*
X927100Y171704D01*
X901700Y171704D02*
X901700Y158496D01*
X876300Y158496D02*
X876300Y171704D01*
X850900Y171704D02*
X850900Y158496D01*
X190500Y742696D02*
X190500Y755904D01*
X215900Y755904D02*
X215900Y742696D01*
X342900Y742696D02*
X342900Y755904D01*
X368300Y755904D02*
X368300Y742696D01*
X241300Y742696D02*
X241300Y755904D01*
X266700Y755904D02*
X266700Y742696D01*
X317500Y742696D02*
X317500Y755904D01*
X292100Y755904D02*
X292100Y742696D01*
X393700Y742696D02*
X393700Y755904D01*
X419100Y755904D02*
X419100Y742696D01*
X419100Y818896D02*
X419100Y832104D01*
X393700Y832104D02*
X393700Y818896D01*
X368300Y818896D02*
X368300Y832104D01*
X342900Y832104D02*
X342900Y818896D01*
X317500Y818896D02*
X317500Y832104D01*
X292100Y832104D02*
X292100Y818896D01*
X266700Y818896D02*
X266700Y832104D01*
X241300Y832104D02*
X241300Y818896D01*
X215900Y818896D02*
X215900Y832104D01*
X190500Y832104D02*
X190500Y818896D01*
X546100Y476504D02*
X546100Y463296D01*
X571500Y463296D02*
X571500Y476504D01*
X698500Y476504D02*
X698500Y463296D01*
X723900Y463296D02*
X723900Y476504D01*
X596900Y476504D02*
X596900Y463296D01*
X622300Y463296D02*
X622300Y476504D01*
X673100Y476504D02*
X673100Y463296D01*
X647700Y463296D02*
X647700Y476504D01*
X749300Y476504D02*
X749300Y463296D01*
X774700Y463296D02*
X774700Y476504D01*
X774700Y539496D02*
X774700Y552704D01*
X749300Y552704D02*
X749300Y539496D01*
X723900Y539496D02*
X723900Y552704D01*
X698500Y552704D02*
X698500Y539496D01*
X673100Y539496D02*
X673100Y552704D01*
X647700Y552704D02*
X647700Y539496D01*
X622300Y539496D02*
X622300Y552704D01*
X596900Y552704D02*
X596900Y539496D01*
X571500Y539496D02*
X571500Y552704D01*
X546100Y552704D02*
X546100Y539496D01*
X533400Y222504D02*
X533400Y209296D01*
X558800Y209296D02*
X558800Y222504D01*
X685800Y222504D02*
X685800Y209296D01*
X711200Y209296D02*
X711200Y222504D01*
X584200Y222504D02*
X584200Y209296D01*
X609600Y209296D02*
X609600Y222504D01*
X660400Y222504D02*
X660400Y209296D01*
X635000Y209296D02*
X635000Y222504D01*
X736600Y222504D02*
X736600Y209296D01*
X762000Y209296D02*
X762000Y222504D01*
X762000Y285496D02*
X762000Y298704D01*
X736600Y298704D02*
X736600Y285496D01*
X711200Y285496D02*
X711200Y298704D01*
X685800Y298704D02*
X685800Y285496D01*
X660400Y285496D02*
X660400Y298704D01*
X635000Y298704D02*
X635000Y285496D01*
X609600Y285496D02*
X609600Y298704D01*
X584200Y298704D02*
X584200Y285496D01*
X558800Y285496D02*
X558800Y298704D01*
X533400Y298704D02*
X533400Y285496D01*
X1447800Y222504D02*
X1447800Y209296D01*
X1473200Y209296D02*
X1473200Y222504D01*
X1600200Y222504D02*
X1600200Y209296D01*
X1625600Y209296D02*
X1625600Y222504D01*
X1498600Y222504D02*
X1498600Y209296D01*
X1524000Y209296D02*
X1524000Y222504D01*
X1574800Y222504D02*
X1574800Y209296D01*
X1549400Y209296D02*
X1549400Y222504D01*
X1625600Y285496D02*
X1625600Y298704D01*
X1600200Y298704D02*
X1600200Y285496D01*
X1574800Y285496D02*
X1574800Y298704D01*
X1549400Y298704D02*
X1549400Y285496D01*
X1524000Y285496D02*
X1524000Y298704D01*
X1498600Y298704D02*
X1498600Y285496D01*
X1473200Y285496D02*
X1473200Y298704D01*
X1447800Y298704D02*
X1447800Y285496D01*
X1447800Y336296D02*
X1447800Y349504D01*
X1473200Y349504D02*
X1473200Y336296D01*
X1600200Y336296D02*
X1600200Y349504D01*
X1625600Y349504D02*
X1625600Y336296D01*
X1498600Y336296D02*
X1498600Y349504D01*
X1524000Y349504D02*
X1524000Y336296D01*
X1574800Y336296D02*
X1574800Y349504D01*
X1549400Y349504D02*
X1549400Y336296D01*
X1625600Y412496D02*
X1625600Y425704D01*
X1600200Y425704D02*
X1600200Y412496D01*
X1574800Y412496D02*
X1574800Y425704D01*
X1549400Y425704D02*
X1549400Y412496D01*
X1524000Y412496D02*
X1524000Y425704D01*
X1498600Y425704D02*
X1498600Y412496D01*
X1473200Y412496D02*
X1473200Y425704D01*
X1447800Y425704D02*
X1447800Y412496D01*
X1447800Y463296D02*
X1447800Y476504D01*
X1473200Y476504D02*
X1473200Y463296D01*
X1600200Y463296D02*
X1600200Y476504D01*
X1625600Y476504D02*
X1625600Y463296D01*
X1498600Y463296D02*
X1498600Y476504D01*
X1524000Y476504D02*
X1524000Y463296D01*
X1574800Y463296D02*
X1574800Y476504D01*
X1549400Y476504D02*
X1549400Y463296D01*
X1625600Y539496D02*
X1625600Y552704D01*
X1600200Y552704D02*
X1600200Y539496D01*
X1574800Y539496D02*
X1574800Y552704D01*
X1549400Y552704D02*
X1549400Y539496D01*
X1524000Y539496D02*
X1524000Y552704D01*
X1498600Y552704D02*
X1498600Y539496D01*
X1473200Y539496D02*
X1473200Y552704D01*
X1447800Y552704D02*
X1447800Y539496D01*
X1130300Y222504D02*
X1130300Y209296D01*
X1155700Y209296D02*
X1155700Y222504D01*
X1282700Y222504D02*
X1282700Y209296D01*
X1308100Y209296D02*
X1308100Y222504D01*
X1181100Y222504D02*
X1181100Y209296D01*
X1206500Y209296D02*
X1206500Y222504D01*
X1257300Y222504D02*
X1257300Y209296D01*
X1231900Y209296D02*
X1231900Y222504D01*
X1333500Y222504D02*
X1333500Y209296D01*
X1358900Y209296D02*
X1358900Y222504D01*
X1358900Y285496D02*
X1358900Y298704D01*
X1333500Y298704D02*
X1333500Y285496D01*
X1308100Y285496D02*
X1308100Y298704D01*
X1282700Y298704D02*
X1282700Y285496D01*
X1257300Y285496D02*
X1257300Y298704D01*
X1231900Y298704D02*
X1231900Y285496D01*
X1206500Y285496D02*
X1206500Y298704D01*
X1181100Y298704D02*
X1181100Y285496D01*
X1155700Y285496D02*
X1155700Y298704D01*
X1130300Y298704D02*
X1130300Y285496D01*
X1130300Y463296D02*
X1130300Y476504D01*
X1155700Y476504D02*
X1155700Y463296D01*
X1282700Y463296D02*
X1282700Y476504D01*
X1308100Y476504D02*
X1308100Y463296D01*
X1181100Y463296D02*
X1181100Y476504D01*
X1206500Y476504D02*
X1206500Y463296D01*
X1257300Y463296D02*
X1257300Y476504D01*
X1231900Y476504D02*
X1231900Y463296D01*
X1333500Y463296D02*
X1333500Y476504D01*
X1358900Y476504D02*
X1358900Y463296D01*
X1358900Y539496D02*
X1358900Y552704D01*
X1333500Y552704D02*
X1333500Y539496D01*
X1308100Y539496D02*
X1308100Y552704D01*
X1282700Y552704D02*
X1282700Y539496D01*
X1257300Y539496D02*
X1257300Y552704D01*
X1231900Y552704D02*
X1231900Y539496D01*
X1206500Y539496D02*
X1206500Y552704D01*
X1181100Y552704D02*
X1181100Y539496D01*
X1155700Y539496D02*
X1155700Y552704D01*
X1130300Y552704D02*
X1130300Y539496D01*
D12*
X76200Y25400D03*
X76200Y50800D03*
X101600Y25400D03*
X101600Y50800D03*
X127000Y25400D03*
X127000Y50800D03*
X152400Y25400D03*
X152400Y50800D03*
X76200Y1092200D03*
X76200Y1117600D03*
X101600Y1092200D03*
X101600Y1117600D03*
X127000Y1092200D03*
X127000Y1117600D03*
X152400Y1092200D03*
X152400Y1117600D03*
D13*
X1727200Y1117600D03*
X1752600Y1117600D03*
X1727200Y1092200D03*
X1752600Y1092200D03*
X1727200Y1066800D03*
X1752600Y1066800D03*
X1727200Y1041400D03*
X1752600Y1041400D03*
X1727200Y1016000D03*
X1752600Y1016000D03*
X1727200Y990600D03*
X1752600Y990600D03*
X1727200Y965200D03*
X1752600Y965200D03*
X1727200Y939800D03*
X1752600Y939800D03*
X1727200Y914400D03*
X1752600Y914400D03*
X1727200Y889000D03*
X1752600Y889000D03*
X1727200Y863600D03*
X1752600Y863600D03*
X1727200Y838200D03*
X1752600Y838200D03*
X1727200Y812800D03*
X1752600Y812800D03*
X1727200Y787400D03*
X1752600Y787400D03*
X1727200Y762000D03*
X1752600Y762000D03*
X1727200Y736600D03*
X1752600Y736600D03*
X1727200Y711200D03*
X1752600Y711200D03*
X1727200Y685800D03*
X1752600Y685800D03*
X1727200Y660400D03*
X1752600Y660400D03*
X1727200Y635000D03*
X1752600Y635000D03*
X1727200Y584200D03*
X1752600Y584200D03*
X1727200Y558800D03*
X1752600Y558800D03*
X1727200Y533400D03*
X1752600Y533400D03*
X1727200Y508000D03*
X1752600Y508000D03*
X1727200Y482600D03*
X1752600Y482600D03*
X1727200Y457200D03*
X1752600Y457200D03*
X1727200Y431800D03*
X1752600Y431800D03*
X1727200Y406400D03*
X1752600Y406400D03*
X1727200Y381000D03*
X1752600Y381000D03*
X1727200Y355600D03*
X1752600Y355600D03*
X1727200Y330200D03*
X1752600Y330200D03*
X1727200Y304800D03*
X1752600Y304800D03*
X1727200Y279400D03*
X1752600Y279400D03*
X1727200Y254000D03*
X1752600Y254000D03*
X1727200Y228600D03*
X1752600Y228600D03*
X1727200Y203200D03*
X1752600Y203200D03*
X1727200Y177800D03*
X1752600Y177800D03*
X1727200Y152400D03*
X1752600Y152400D03*
X1727200Y127000D03*
X1752600Y127000D03*
X1727200Y101600D03*
X1752600Y101600D03*
D11*
X673100Y120396D02*
X673100Y133604D01*
X647700Y133604D02*
X647700Y120396D01*
X622300Y120396D02*
X622300Y133604D01*
X596900Y133604D02*
X596900Y120396D01*
X571500Y120396D02*
X571500Y133604D01*
X546100Y133604D02*
X546100Y120396D01*
X520700Y120396D02*
X520700Y133604D01*
X495300Y133604D02*
X495300Y120396D01*
X469900Y120396D02*
X469900Y133604D01*
X419100Y133604D02*
X419100Y120396D01*
X393700Y120396D02*
X393700Y133604D01*
X368300Y133604D02*
X368300Y120396D01*
X342900Y120396D02*
X342900Y133604D01*
X317500Y133604D02*
X317500Y120396D01*
X292100Y120396D02*
X292100Y133604D01*
X266700Y133604D02*
X266700Y120396D01*
X241300Y120396D02*
X241300Y133604D01*
X215900Y133604D02*
X215900Y120396D01*
D14*
X50800Y177800D03*
X50800Y203200D03*
X50800Y228600D03*
X50800Y254000D03*
X50800Y279400D03*
X50800Y304800D03*
X50800Y330200D03*
X50800Y355600D03*
X50800Y381000D03*
X50800Y406400D03*
X50800Y431800D03*
X50800Y457200D03*
X50800Y482600D03*
X50800Y508000D03*
X50800Y533400D03*
X50800Y558800D03*
X76200Y177800D03*
X76200Y203200D03*
X76200Y228600D03*
X76200Y254000D03*
X76200Y279400D03*
X76200Y304800D03*
X76200Y330200D03*
X76200Y355600D03*
X76200Y381000D03*
X76200Y406400D03*
X76200Y431800D03*
X76200Y457200D03*
X76200Y482600D03*
X76200Y508000D03*
X76200Y533400D03*
X76200Y558800D03*
X101600Y177800D03*
X101600Y203200D03*
X101600Y228600D03*
X101600Y254000D03*
X101600Y279400D03*
X101600Y304800D03*
X101600Y330200D03*
X101600Y355600D03*
X101600Y381000D03*
X101600Y406400D03*
X101600Y431800D03*
X101600Y457200D03*
X101600Y482600D03*
X101600Y508000D03*
X101600Y533400D03*
X101600Y558800D03*
X50800Y584200D03*
X50800Y609600D03*
X50800Y635000D03*
X50800Y660400D03*
X50800Y685800D03*
X50800Y711200D03*
X50800Y736600D03*
X50800Y762000D03*
X50800Y787400D03*
X50800Y812800D03*
X50800Y838200D03*
X50800Y863600D03*
X50800Y889000D03*
X50800Y914400D03*
X50800Y939800D03*
X50800Y965200D03*
X76200Y584200D03*
X76200Y609600D03*
X76200Y635000D03*
X76200Y660400D03*
X76200Y685800D03*
X76200Y711200D03*
X76200Y736600D03*
X76200Y762000D03*
X76200Y787400D03*
X76200Y812800D03*
X76200Y838200D03*
X76200Y863600D03*
X76200Y889000D03*
X76200Y914400D03*
X76200Y939800D03*
X76200Y965200D03*
X101600Y584200D03*
X101600Y609600D03*
X101600Y635000D03*
X101600Y660400D03*
X101600Y685800D03*
X101600Y711200D03*
X101600Y736600D03*
X101600Y762000D03*
X101600Y787400D03*
X101600Y812800D03*
X101600Y838200D03*
X101600Y863600D03*
X101600Y889000D03*
X101600Y914400D03*
X101600Y939800D03*
X101600Y965200D03*
D15*
X1739900Y38100D03*
X1714500Y38100D03*
X1549400Y38100D03*
X1447800Y38100D03*
D11*
X266700Y209296D02*
X266700Y222504D01*
X292100Y222504D02*
X292100Y209296D01*
X419100Y209296D02*
X419100Y222504D01*
X419100Y285496D02*
X419100Y298704D01*
X317500Y222504D02*
X317500Y209296D01*
X342900Y209296D02*
X342900Y222504D01*
X393700Y222504D02*
X393700Y209296D01*
X368300Y209296D02*
X368300Y222504D01*
X393700Y285496D02*
X393700Y298704D01*
X368300Y298704D02*
X368300Y285496D01*
X342900Y285496D02*
X342900Y298704D01*
X317500Y298704D02*
X317500Y285496D01*
X292100Y285496D02*
X292100Y298704D01*
X266700Y298704D02*
X266700Y285496D01*
X609600Y336296D02*
X609600Y349504D01*
X635000Y349504D02*
X635000Y336296D01*
X762000Y336296D02*
X762000Y349504D01*
X762000Y412496D02*
X762000Y425704D01*
X660400Y349504D02*
X660400Y336296D01*
X685800Y336296D02*
X685800Y349504D01*
X736600Y349504D02*
X736600Y336296D01*
X711200Y336296D02*
X711200Y349504D01*
X736600Y412496D02*
X736600Y425704D01*
X711200Y425704D02*
X711200Y412496D01*
X685800Y412496D02*
X685800Y425704D01*
X660400Y425704D02*
X660400Y412496D01*
X635000Y412496D02*
X635000Y425704D01*
X609600Y425704D02*
X609600Y412496D01*
X622300Y615696D02*
X622300Y628904D01*
X647700Y628904D02*
X647700Y615696D01*
X774700Y615696D02*
X774700Y628904D01*
X774700Y691896D02*
X774700Y705104D01*
X673100Y628904D02*
X673100Y615696D01*
X698500Y615696D02*
X698500Y628904D01*
X749300Y628904D02*
X749300Y615696D01*
X723900Y615696D02*
X723900Y628904D01*
X749300Y691896D02*
X749300Y705104D01*
X723900Y705104D02*
X723900Y691896D01*
X698500Y691896D02*
X698500Y705104D01*
X673100Y705104D02*
X673100Y691896D01*
X647700Y691896D02*
X647700Y705104D01*
X622300Y705104D02*
X622300Y691896D01*
X622300Y869696D02*
X622300Y882904D01*
X647700Y882904D02*
X647700Y869696D01*
X774700Y869696D02*
X774700Y882904D01*
X774700Y945896D02*
X774700Y959104D01*
X673100Y882904D02*
X673100Y869696D01*
X698500Y869696D02*
X698500Y882904D01*
X749300Y882904D02*
X749300Y869696D01*
X723900Y869696D02*
X723900Y882904D01*
X749300Y945896D02*
X749300Y959104D01*
X723900Y959104D02*
X723900Y945896D01*
X698500Y945896D02*
X698500Y959104D01*
X673100Y959104D02*
X673100Y945896D01*
X647700Y945896D02*
X647700Y959104D01*
X622300Y959104D02*
X622300Y945896D01*
X1206500Y349504D02*
X1206500Y336296D01*
X1231900Y336296D02*
X1231900Y349504D01*
X1358900Y349504D02*
X1358900Y336296D01*
X1358900Y412496D02*
X1358900Y425704D01*
X1257300Y349504D02*
X1257300Y336296D01*
X1282700Y336296D02*
X1282700Y349504D01*
X1333500Y349504D02*
X1333500Y336296D01*
X1308100Y336296D02*
X1308100Y349504D01*
X1333500Y412496D02*
X1333500Y425704D01*
X1308100Y425704D02*
X1308100Y412496D01*
X1282700Y412496D02*
X1282700Y425704D01*
X1257300Y425704D02*
X1257300Y412496D01*
X1231900Y412496D02*
X1231900Y425704D01*
X1206500Y425704D02*
X1206500Y412496D01*
X1206500Y615696D02*
X1206500Y628904D01*
X1231900Y628904D02*
X1231900Y615696D01*
X1358900Y615696D02*
X1358900Y628904D01*
X1358900Y691896D02*
X1358900Y705104D01*
X1257300Y628904D02*
X1257300Y615696D01*
X1282700Y615696D02*
X1282700Y628904D01*
X1333500Y628904D02*
X1333500Y615696D01*
X1308100Y615696D02*
X1308100Y628904D01*
X1333500Y691896D02*
X1333500Y705104D01*
X1308100Y705104D02*
X1308100Y691896D01*
X1282700Y691896D02*
X1282700Y705104D01*
X1257300Y705104D02*
X1257300Y691896D01*
X1231900Y691896D02*
X1231900Y705104D01*
X1206500Y705104D02*
X1206500Y691896D01*
X1206500Y869696D02*
X1206500Y882904D01*
X1231900Y882904D02*
X1231900Y869696D01*
X1358900Y869696D02*
X1358900Y882904D01*
X1358900Y945896D02*
X1358900Y959104D01*
X1257300Y882904D02*
X1257300Y869696D01*
X1282700Y869696D02*
X1282700Y882904D01*
X1333500Y882904D02*
X1333500Y869696D01*
X1308100Y869696D02*
X1308100Y882904D01*
X1333500Y945896D02*
X1333500Y959104D01*
X1308100Y959104D02*
X1308100Y945896D01*
X1282700Y945896D02*
X1282700Y959104D01*
X1257300Y959104D02*
X1257300Y945896D01*
X1231900Y945896D02*
X1231900Y959104D01*
X1206500Y959104D02*
X1206500Y945896D01*
X266700Y996696D02*
X266700Y1009904D01*
X292100Y1009904D02*
X292100Y996696D01*
X419100Y996696D02*
X419100Y1009904D01*
X419100Y1072896D02*
X419100Y1086104D01*
X317500Y1009904D02*
X317500Y996696D01*
X342900Y996696D02*
X342900Y1009904D01*
X393700Y1009904D02*
X393700Y996696D01*
X368300Y996696D02*
X368300Y1009904D01*
X393700Y1072896D02*
X393700Y1086104D01*
X368300Y1086104D02*
X368300Y1072896D01*
X342900Y1072896D02*
X342900Y1086104D01*
X317500Y1086104D02*
X317500Y1072896D01*
X292100Y1072896D02*
X292100Y1086104D01*
X266700Y1086104D02*
X266700Y1072896D01*
D16*
X76200Y965200D02*
X50800Y965200D01*
X76200Y965200D02*
X101600Y965200D01*
X104775Y968375D01*
X196850Y968375D01*
X200025Y965200D01*
X200025Y927100D01*
X152400Y927100D01*
X266700Y1003300D02*
X282575Y1019175D01*
X352425Y1019175D01*
X368300Y1003300D01*
X403225Y1019175D02*
X419100Y1003300D01*
X403225Y1019175D02*
X352425Y1019175D01*
X419100Y1079500D02*
X444500Y1054100D01*
X508000Y1054100D01*
X228600Y1054100D02*
X212725Y1038225D01*
X212725Y1019175D01*
X282575Y1019175D01*
X571500Y914400D02*
X584200Y927100D01*
X571500Y914400D02*
X527050Y914400D01*
X488950Y876300D01*
X419100Y876300D01*
X76200Y177800D02*
X50800Y177800D01*
X76200Y177800D02*
X101600Y177800D01*
X495300Y266700D02*
X511175Y250825D01*
X511175Y215900D01*
X419100Y215900D01*
X533400Y622300D02*
X584200Y673100D01*
X533400Y622300D02*
X419100Y622300D01*
X111125Y187325D02*
X101600Y177800D01*
X111125Y187325D02*
X390525Y187325D01*
X419100Y215900D01*
X158750Y654050D02*
X152400Y660400D01*
X158750Y654050D02*
X304800Y654050D01*
X320675Y638175D01*
X403225Y638175D01*
X419100Y622300D01*
X1727200Y101600D02*
X1752600Y101600D01*
X1752600Y584200D02*
X1727200Y584200D01*
X1638300Y635000D02*
X1625600Y622300D01*
X1638300Y635000D02*
X1727200Y635000D01*
X1752600Y635000D01*
X1727200Y635000D02*
X1727200Y584200D01*
X1727200Y1117600D02*
X1752600Y1117600D01*
X1041400Y1003300D02*
X1025525Y1019175D01*
X857250Y1019175D01*
X841375Y1003300D01*
X774700Y1003300D01*
X1168400Y927100D02*
X1171575Y930275D01*
X1406525Y930275D01*
X1409700Y927100D01*
X1171575Y676275D02*
X1168400Y673100D01*
X1171575Y676275D02*
X1365250Y676275D01*
X1368425Y679450D01*
X1403350Y679450D01*
X1409700Y673100D01*
X508000Y520700D02*
X203200Y520700D01*
X571500Y393700D02*
X825500Y393700D01*
X825500Y520700D02*
X1092200Y520700D01*
X1168400Y393700D02*
X1165225Y390525D01*
X828675Y390525D01*
X825500Y393700D01*
X825500Y800100D02*
X1092200Y800100D01*
X825500Y520700D02*
X508000Y520700D01*
X1092200Y266700D02*
X1409700Y266700D01*
X1625600Y1003300D02*
X1590675Y1038225D01*
X1590675Y1054100D01*
X1409700Y1054100D01*
X825500Y927100D02*
X584200Y927100D01*
X508000Y1028700D02*
X546100Y1066800D01*
X546100Y1079500D01*
X76200Y939800D02*
X50800Y939800D01*
X76200Y939800D02*
X101600Y939800D01*
X114300Y952500D01*
X190500Y952500D01*
X228600Y1028700D02*
X508000Y1028700D01*
X533400Y292100D02*
X517525Y276225D01*
X492125Y276225D01*
X485775Y269875D01*
X485775Y241300D01*
X495300Y241300D01*
X76200Y203200D02*
X50800Y203200D01*
X76200Y203200D02*
X101600Y203200D01*
X266700Y292100D02*
X282575Y307975D01*
X298450Y307975D01*
X301625Y304800D01*
X301625Y269875D02*
X301625Y241300D01*
X301625Y269875D02*
X301625Y304800D01*
X301625Y241300D02*
X228600Y241300D01*
X139700Y241300D02*
X101600Y203200D01*
X139700Y241300D02*
X228600Y241300D01*
X234950Y495300D02*
X203200Y495300D01*
X234950Y495300D02*
X508000Y495300D01*
X485775Y269875D02*
X301625Y269875D01*
X1168400Y901700D02*
X1171575Y898525D01*
X1406525Y898525D01*
X1409700Y901700D01*
X825500Y774700D02*
X508000Y774700D01*
X628650Y901700D02*
X825500Y901700D01*
X628650Y901700D02*
X584200Y901700D01*
X676275Y123825D02*
X685800Y114300D01*
X812800Y114300D01*
X835025Y149225D02*
X850900Y165100D01*
X835025Y149225D02*
X742950Y149225D01*
X727075Y133350D01*
X685800Y133350D01*
X676275Y123825D01*
X673100Y127000D01*
X584200Y647700D02*
X825500Y647700D01*
X571500Y368300D02*
X574675Y365125D01*
X609600Y365125D02*
X822325Y365125D01*
X609600Y365125D02*
X574675Y365125D01*
X822325Y365125D02*
X825500Y368300D01*
X825500Y774700D02*
X1092200Y774700D01*
X1406525Y650875D02*
X1409700Y647700D01*
X1406525Y650875D02*
X1171575Y650875D01*
X1168400Y647700D01*
D17*
X234950Y495300D03*
X628650Y901700D03*
X609600Y365125D03*
D16*
X241300Y825500D02*
X260350Y844550D01*
X546100Y844550D01*
X552450Y850900D01*
X606425Y850900D01*
X609600Y847725D01*
X733425Y847725D01*
X736600Y850900D01*
X787400Y1041400D02*
X889000Y1041400D01*
X1358900Y977900D02*
X1466850Y977900D01*
X663575Y142875D02*
X647700Y127000D01*
X663575Y142875D02*
X704850Y142875D01*
X879475Y508000D02*
X882650Y511175D01*
X885825Y514350D01*
X879475Y508000D02*
X752475Y508000D01*
X1323975Y514350D02*
X1330325Y508000D01*
X1323975Y514350D02*
X1098550Y514350D01*
X1095375Y511175D01*
X882650Y511175D01*
X1466850Y508000D02*
X1473200Y514350D01*
X1466850Y508000D02*
X1330325Y508000D01*
D17*
X736600Y850900D03*
X889000Y1041400D03*
X787400Y1041400D03*
X1358900Y977900D03*
X1466850Y977900D03*
X704850Y142875D03*
X885825Y514350D03*
X752475Y508000D03*
X1330325Y508000D03*
X1473200Y514350D03*
D16*
X260350Y936625D02*
X257175Y933450D01*
X260350Y936625D02*
X533400Y936625D01*
X581025Y984250D01*
X679450Y984250D01*
X682625Y987425D02*
X698500Y1003300D01*
X682625Y987425D02*
X679450Y984250D01*
X847725Y987425D02*
X863600Y1003300D01*
X847725Y987425D02*
X682625Y987425D01*
X1266825Y987425D02*
X1282700Y1003300D01*
X1266825Y987425D02*
X847725Y987425D01*
X1298575Y485775D02*
X1282700Y469900D01*
X1298575Y485775D02*
X1393825Y485775D01*
X1409700Y469900D01*
X1447800Y469900D01*
X863600Y469900D02*
X847725Y454025D01*
X714375Y454025D01*
X698500Y469900D01*
X1266825Y485775D02*
X1282700Y469900D01*
X1266825Y485775D02*
X879475Y485775D01*
X863600Y469900D01*
X847725Y485775D01*
D17*
X257175Y933450D03*
X847725Y485775D03*
D16*
X1016000Y546100D02*
X1031875Y530225D01*
X1057275Y530225D01*
X1060450Y533400D01*
X1073150Y533400D02*
X1114425Y533400D01*
X1073150Y533400D02*
X1060450Y533400D01*
X1114425Y533400D02*
X1127125Y520700D01*
X1225550Y520700D01*
X1228725Y517525D01*
X1400175Y517525D01*
X1406525Y511175D01*
X1460500Y511175D01*
X1470025Y520700D01*
X1622425Y520700D01*
X1635125Y533400D01*
X1635125Y561975D01*
X1616075Y561975D01*
X1600200Y546100D01*
X631825Y485775D02*
X606425Y485775D01*
X631825Y485775D02*
X647700Y469900D01*
X295275Y977900D02*
X298450Y981075D01*
X501650Y981075D01*
X539750Y1019175D01*
X631825Y1019175D01*
X647700Y1003300D01*
X1003300Y596900D02*
X1012825Y587375D01*
X1003300Y596900D02*
X657225Y596900D01*
D17*
X1225550Y520700D03*
X1073150Y533400D03*
X606425Y485775D03*
X295275Y977900D03*
X1012825Y587375D03*
X657225Y596900D03*
D16*
X307975Y968375D02*
X317500Y977900D01*
X523875Y977900D01*
X533400Y987425D01*
X581025Y987425D01*
X596900Y1003300D01*
X1041400Y546100D02*
X1047750Y539750D01*
X1114425Y539750D01*
X1127125Y527050D01*
X1171575Y527050D01*
X1403350Y527050D01*
X1406525Y530225D01*
X1435100Y530225D01*
X1441450Y523875D01*
X1603375Y523875D01*
X1625600Y546100D01*
X981075Y590550D02*
X609600Y590550D01*
X981075Y590550D02*
X990600Y581025D01*
X990600Y561975D01*
X1025525Y561975D01*
X1041400Y546100D01*
D17*
X307975Y968375D03*
X1171575Y527050D03*
X609600Y590550D03*
D16*
X904875Y936625D02*
X889000Y952500D01*
X904875Y936625D02*
X1117600Y936625D01*
X1146175Y965200D01*
X1165225Y965200D01*
X1460500Y1092200D02*
X1473200Y1079500D01*
X1460500Y1092200D02*
X1457325Y1092200D01*
X1454150Y1095375D01*
X1196975Y1095375D01*
X1181100Y1079500D01*
X885825Y450850D02*
X549275Y450850D01*
X361950Y806450D02*
X342900Y825500D01*
X361950Y806450D02*
X501650Y806450D01*
X504825Y809625D01*
X527050Y809625D01*
X1136650Y454025D02*
X1143000Y460375D01*
X1136650Y454025D02*
X889000Y454025D01*
X885825Y450850D01*
X1466850Y447675D02*
X1470025Y450850D01*
X1466850Y447675D02*
X1358900Y447675D01*
X1355725Y450850D01*
X1162050Y450850D01*
X1181100Y1079500D02*
X1165225Y1095375D01*
X612775Y1095375D01*
X596900Y1079500D01*
D17*
X1165225Y965200D03*
X885825Y450850D03*
X549275Y450850D03*
X527050Y809625D03*
X1143000Y460375D03*
X1470025Y450850D03*
X1162050Y450850D03*
D16*
X368300Y825500D02*
X352425Y841375D01*
X336550Y841375D01*
X333375Y838200D01*
X333375Y793750D01*
X501650Y793750D01*
X504825Y790575D01*
X644525Y790575D01*
X854075Y917575D02*
X860425Y923925D01*
X854075Y917575D02*
X638175Y917575D01*
X635000Y920750D01*
X523875Y311150D02*
X520700Y307975D01*
X641350Y311150D02*
X844550Y311150D01*
X641350Y311150D02*
X523875Y311150D01*
X1235075Y317500D02*
X1238250Y314325D01*
X1270000Y314325D01*
X1279525Y323850D01*
X1428750Y323850D01*
X1447800Y342900D01*
X1374775Y530225D02*
X1384300Y539750D01*
X1374775Y530225D02*
X1247775Y530225D01*
X1231900Y546100D01*
X854075Y320675D02*
X844550Y311150D01*
X854075Y320675D02*
X1231900Y320675D01*
X1235075Y317500D01*
X641350Y314325D02*
X641350Y311150D01*
D17*
X644525Y790575D03*
X860425Y923925D03*
X635000Y920750D03*
X520700Y307975D03*
X844550Y311150D03*
X1235075Y317500D03*
X1384300Y539750D03*
X641350Y314325D03*
D16*
X1003300Y1050925D02*
X1016000Y1063625D01*
X1266825Y1063625D01*
X1282700Y1079500D01*
X1584325Y1063625D02*
X1600200Y1079500D01*
X1584325Y1063625D02*
X1419225Y1063625D01*
X1416050Y1066800D01*
X1368425Y1066800D01*
X1365250Y1063625D01*
X1266825Y1063625D01*
X1047750Y508000D02*
X1031875Y492125D01*
X1047750Y508000D02*
X1263650Y508000D01*
X1416050Y488950D02*
X1609725Y488950D01*
X1416050Y488950D02*
X1412875Y485775D01*
X1406525Y485775D01*
X1393825Y498475D01*
X1276350Y498475D01*
X1266825Y508000D01*
X1263650Y508000D01*
X536575Y530225D02*
X530225Y536575D01*
X536575Y530225D02*
X682625Y530225D01*
X698500Y546100D01*
X409575Y809625D02*
X393700Y825500D01*
X409575Y809625D02*
X498475Y809625D01*
X504825Y815975D01*
X514350Y815975D01*
X1019175Y504825D02*
X1031875Y492125D01*
X1019175Y504825D02*
X774700Y504825D01*
X765175Y495300D01*
X742950Y495300D01*
X1003300Y1050925D02*
X990600Y1063625D01*
X857250Y1063625D01*
X854075Y1066800D01*
X784225Y1066800D01*
X781050Y1063625D01*
X714375Y1063625D01*
X698500Y1079500D01*
D17*
X1003300Y1050925D03*
X1031875Y492125D03*
X1263650Y508000D03*
X1609725Y488950D03*
X530225Y536575D03*
X514350Y815975D03*
X742950Y495300D03*
D16*
X1577975Y1108075D02*
X1590675Y1095375D01*
X1609725Y1095375D01*
X1625600Y1079500D01*
X1050925Y428625D02*
X1041400Y419100D01*
X1050925Y428625D02*
X1060450Y428625D01*
X1320800Y441325D02*
X1323975Y438150D01*
X1320800Y441325D02*
X1060450Y441325D01*
X1619250Y441325D02*
X1622425Y444500D01*
X1533525Y441325D02*
X1352550Y441325D01*
X1533525Y441325D02*
X1619250Y441325D01*
X1352550Y441325D02*
X1349375Y444500D01*
X1330325Y444500D01*
X1323975Y438150D01*
X1533525Y441325D02*
X1533525Y444500D01*
X523875Y523875D02*
X520700Y527050D01*
X523875Y523875D02*
X727075Y523875D01*
X749300Y546100D01*
X422275Y822325D02*
X419100Y825500D01*
X422275Y822325D02*
X501650Y822325D01*
X704850Y809625D02*
X711200Y815975D01*
X704850Y809625D02*
X536575Y809625D01*
X523875Y822325D01*
X501650Y822325D01*
X1028700Y984250D02*
X1031875Y981075D01*
X1028700Y984250D02*
X736600Y984250D01*
X733425Y981075D01*
D17*
X1577975Y1108075D03*
X1060450Y428625D03*
X1323975Y438150D03*
X1060450Y441325D03*
X1622425Y444500D03*
X1533525Y444500D03*
X520700Y527050D03*
X501650Y822325D03*
X711200Y815975D03*
X1031875Y981075D03*
X733425Y981075D03*
D16*
X403225Y1044575D02*
X368300Y1079500D01*
X403225Y1044575D02*
X511175Y1044575D01*
X536575Y1069975D01*
X536575Y1114425D01*
X885825Y1114425D01*
X1470025Y1108075D02*
X1498600Y1079500D01*
X1470025Y1108075D02*
X917575Y1108075D01*
X911225Y1114425D01*
X885825Y1114425D01*
D17*
X885825Y1114425D03*
D16*
X1374775Y434975D02*
X1358900Y419100D01*
X1374775Y434975D02*
X1558925Y434975D01*
X1574800Y419100D01*
X1285875Y320675D02*
X1282700Y317500D01*
X1285875Y320675D02*
X1565275Y320675D01*
D17*
X1282700Y317500D03*
X1565275Y320675D03*
D16*
X1625600Y438150D02*
X1346200Y438150D01*
X1625600Y438150D02*
X1628775Y441325D01*
X1628775Y454025D01*
X1539875Y454025D01*
X1524000Y469900D01*
D17*
X1346200Y438150D03*
D16*
X1247775Y574675D02*
X1250950Y577850D01*
X1247775Y574675D02*
X1184275Y574675D01*
D17*
X1250950Y577850D03*
X1184275Y574675D03*
D16*
X1327150Y590550D02*
X1330325Y593725D01*
X1327150Y590550D02*
X1212850Y590550D01*
D17*
X1330325Y593725D03*
X1212850Y590550D03*
D16*
X1292225Y314325D02*
X1552575Y314325D01*
X1574800Y292100D01*
D17*
X1292225Y314325D03*
D16*
X1352550Y254000D02*
X1470025Y254000D01*
X1333500Y749300D02*
X1311275Y771525D01*
X1311275Y787400D01*
X1466850Y787400D01*
X415925Y149225D02*
X393700Y127000D01*
X415925Y149225D02*
X733425Y149225D01*
X752475Y806450D02*
X755650Y809625D01*
X873125Y809625D01*
X889000Y825500D01*
X263525Y720725D02*
X241300Y698500D01*
X263525Y720725D02*
X330200Y720725D01*
X339725Y730250D01*
X450850Y730250D01*
X504825Y784225D01*
X749300Y784225D01*
X752475Y781050D01*
X752475Y276225D02*
X768350Y276225D01*
X771525Y279400D01*
X825500Y279400D01*
X828675Y276225D01*
X860425Y276225D01*
X876300Y292100D01*
X993775Y787400D02*
X1311275Y787400D01*
X993775Y787400D02*
X987425Y781050D01*
X831850Y781050D01*
X828675Y784225D01*
X749300Y784225D01*
D17*
X1352550Y254000D03*
X1470025Y254000D03*
X1466850Y787400D03*
X733425Y149225D03*
X752475Y806450D03*
X752475Y781050D03*
X752475Y276225D03*
D16*
X698500Y749300D02*
X714375Y765175D01*
X806450Y765175D01*
X822325Y749300D01*
X863600Y749300D01*
X1282700Y749300D02*
X1298575Y733425D01*
X1371600Y733425D01*
X1387475Y749300D01*
X1447800Y749300D01*
X879475Y733425D02*
X863600Y749300D01*
X879475Y733425D02*
X1298575Y733425D01*
X1282700Y215900D02*
X1298575Y200025D01*
X1377950Y200025D01*
X1393825Y215900D01*
X1447800Y215900D01*
X396875Y155575D02*
X368300Y127000D01*
X396875Y155575D02*
X679450Y155575D01*
X835025Y200025D02*
X850900Y215900D01*
X835025Y200025D02*
X701675Y200025D01*
X685800Y215900D01*
X1266825Y200025D02*
X1282700Y215900D01*
X1266825Y200025D02*
X866775Y200025D01*
X850900Y215900D01*
X323850Y641350D02*
X266700Y698500D01*
X323850Y641350D02*
X409575Y641350D01*
D17*
X679450Y155575D03*
X409575Y641350D03*
D16*
X377825Y161925D02*
X342900Y127000D01*
X377825Y161925D02*
X606425Y161925D01*
X339725Y127000D02*
X304800Y161925D01*
X339725Y127000D02*
X342900Y127000D01*
X647700Y749300D02*
X666750Y768350D01*
X809625Y768350D01*
X815975Y762000D01*
X854075Y762000D01*
X857250Y765175D01*
X1000125Y765175D01*
X1196975Y784225D02*
X1231900Y749300D01*
X1196975Y784225D02*
X1016000Y784225D01*
X1012825Y781050D01*
X650875Y231775D02*
X635000Y215900D01*
X650875Y231775D02*
X803275Y231775D01*
X806450Y228600D01*
X841375Y228600D01*
X844550Y231775D01*
X1012825Y231775D01*
D17*
X606425Y161925D03*
X304800Y161925D03*
X1000125Y765175D03*
X1012825Y781050D03*
X1012825Y231775D03*
D16*
X1625600Y825500D02*
X1641475Y809625D01*
X1165225Y231775D02*
X1181100Y215900D01*
X1165225Y231775D02*
X1044575Y231775D01*
X1031875Y244475D01*
X1181100Y749300D02*
X1165225Y765175D01*
X1050925Y765175D01*
X1047750Y768350D01*
X584200Y117475D02*
X577850Y111125D01*
X333375Y111125D01*
X317500Y127000D01*
X596900Y749300D02*
X581025Y765175D01*
X492125Y765175D01*
X447675Y720725D01*
X336550Y720725D01*
X317500Y701675D01*
X317500Y698500D01*
X1044575Y771525D02*
X1047750Y768350D01*
X1044575Y771525D02*
X835025Y771525D01*
X828675Y765175D01*
X819150Y765175D01*
X812800Y771525D01*
X619125Y771525D01*
X596900Y749300D01*
X1031875Y244475D02*
X1025525Y238125D01*
X822325Y238125D01*
X815975Y231775D01*
X809625Y231775D01*
X806450Y234950D01*
X603250Y234950D01*
X584200Y215900D01*
X1625600Y260350D02*
X1625600Y292100D01*
X1625600Y260350D02*
X1416050Y260350D01*
X1412875Y257175D01*
X1358900Y257175D01*
X1355725Y260350D01*
X1212850Y260350D01*
D17*
X1641475Y809625D03*
X1031875Y244475D03*
X1047750Y768350D03*
X584200Y117475D03*
X1212850Y260350D03*
D16*
X292100Y168275D02*
X292100Y127000D01*
X568325Y168275D02*
X831850Y168275D01*
X568325Y168275D02*
X292100Y168275D01*
X831850Y168275D02*
X844550Y180975D01*
X860425Y180975D01*
X876300Y165100D01*
X1165225Y276225D02*
X1181100Y292100D01*
X1165225Y276225D02*
X866775Y276225D01*
X863600Y273050D01*
X819150Y273050D01*
X815975Y276225D01*
X774700Y276225D01*
X768350Y269875D01*
X606425Y269875D01*
X584200Y292100D01*
X1457325Y180975D02*
X1473200Y165100D01*
X1457325Y180975D02*
X1298575Y180975D01*
X1295400Y177800D01*
X1038225Y177800D01*
X1035050Y180975D01*
X860425Y180975D01*
X889000Y698500D02*
X873125Y714375D01*
X587375Y714375D02*
X358775Y714375D01*
X587375Y714375D02*
X873125Y714375D01*
X358775Y714375D02*
X342900Y698500D01*
X1457325Y714375D02*
X1473200Y698500D01*
X1171575Y714375D02*
X873125Y714375D01*
X1171575Y714375D02*
X1457325Y714375D01*
X587375Y714375D02*
X587375Y711200D01*
D17*
X568325Y168275D03*
X587375Y711200D03*
X1171575Y714375D03*
D16*
X1250950Y800100D02*
X1260475Y790575D01*
X1419225Y790575D01*
X1422400Y793750D01*
X641350Y723900D02*
X635000Y717550D01*
X339725Y717550D01*
X333375Y711200D01*
X333375Y682625D01*
X352425Y682625D01*
X358775Y688975D02*
X368300Y698500D01*
X358775Y688975D02*
X352425Y682625D01*
X250825Y142875D02*
X266700Y127000D01*
X250825Y142875D02*
X234950Y142875D01*
X231775Y139700D01*
X231775Y88900D01*
X638175Y88900D02*
X850900Y88900D01*
X638175Y88900D02*
X231775Y88900D01*
X638175Y88900D02*
X638175Y98425D01*
X371475Y676275D02*
X358775Y688975D01*
X371475Y676275D02*
X574675Y676275D01*
X581025Y682625D01*
X609600Y682625D01*
X612775Y679450D01*
X806450Y679450D01*
X822325Y663575D01*
X857250Y663575D01*
X860425Y666750D01*
X1438275Y98425D02*
X1447800Y88900D01*
X1438275Y98425D02*
X1041400Y98425D01*
X1035050Y104775D01*
X866775Y104775D01*
X850900Y88900D01*
D17*
X1250950Y800100D03*
X1422400Y793750D03*
X641350Y723900D03*
X638175Y98425D03*
X860425Y666750D03*
D16*
X260350Y107950D02*
X241300Y127000D01*
X260350Y107950D02*
X660400Y107950D01*
X1003300Y165100D02*
X1019175Y149225D01*
X1276350Y149225D02*
X1397000Y149225D01*
X1276350Y149225D02*
X1019175Y149225D01*
X1397000Y149225D02*
X1400175Y152400D01*
X1438275Y152400D01*
X1441450Y149225D01*
X1584325Y149225D01*
X1600200Y165100D01*
X1276350Y165100D02*
X1276350Y149225D01*
X393700Y698500D02*
X377825Y682625D01*
X1016000Y698500D02*
X1031875Y682625D01*
X1270000Y682625D02*
X1584325Y682625D01*
X1270000Y682625D02*
X1031875Y682625D01*
X1584325Y682625D02*
X1600200Y698500D01*
X409575Y682625D02*
X393700Y698500D01*
X409575Y682625D02*
X574675Y682625D01*
X577850Y685800D01*
X612775Y685800D01*
X615950Y682625D01*
X711200Y682625D02*
X1031875Y682625D01*
X711200Y682625D02*
X615950Y682625D01*
X711200Y682625D02*
X711200Y685800D01*
D17*
X660400Y107950D03*
X1276350Y165100D03*
X377825Y682625D03*
X1270000Y682625D03*
X711200Y685800D03*
D16*
X215900Y174625D02*
X215900Y127000D01*
X438150Y174625D02*
X717550Y174625D01*
X438150Y174625D02*
X215900Y174625D01*
X428625Y688975D02*
X419100Y698500D01*
X428625Y688975D02*
X450850Y688975D01*
X749300Y850900D02*
X752475Y854075D01*
X984250Y854075D01*
X993775Y844550D01*
X1054100Y844550D02*
X1314450Y844550D01*
X1054100Y844550D02*
X993775Y844550D01*
X1314450Y844550D02*
X1333500Y825500D01*
X1292225Y171450D02*
X1035050Y171450D01*
X1028700Y165100D01*
X1606550Y184150D02*
X1625600Y165100D01*
X1606550Y184150D02*
X1292225Y184150D01*
X1647825Y676275D02*
X1625600Y698500D01*
X1054100Y806450D02*
X1054100Y844550D01*
X727075Y184150D02*
X717550Y174625D01*
X727075Y184150D02*
X1292225Y184150D01*
D17*
X717550Y174625D03*
X450850Y688975D03*
X438150Y174625D03*
X749300Y850900D03*
X1292225Y171450D03*
X1292225Y184150D03*
X1647825Y676275D03*
X1054100Y806450D03*
D16*
X1358900Y546100D02*
X1425575Y546100D01*
X1441450Y530225D01*
X1508125Y530225D01*
D17*
X1508125Y530225D03*
D16*
X1323975Y501650D02*
X1317625Y508000D01*
X1323975Y501650D02*
X1403350Y501650D01*
X1406525Y504825D01*
X1447800Y504825D01*
X1457325Y495300D01*
D17*
X1317625Y508000D03*
X1457325Y495300D03*
D16*
X1260475Y488950D02*
X1257300Y492125D01*
X1260475Y488950D02*
X1397000Y488950D01*
X1403350Y482600D01*
X1438275Y482600D01*
X1441450Y485775D01*
X1558925Y485775D01*
X1574800Y469900D01*
D17*
X1257300Y492125D03*
D16*
X1206500Y546100D02*
X1206500Y568325D01*
X1644650Y568325D01*
X1676400Y536575D01*
X1676400Y485775D01*
X1616075Y485775D01*
X1600200Y469900D01*
X1155700Y469900D02*
X1155700Y444500D01*
X1323975Y444500D01*
X1327150Y447675D01*
X1352550Y447675D01*
X1355725Y444500D01*
X1492250Y444500D01*
X1495425Y447675D01*
D17*
X1495425Y447675D03*
D16*
X1222375Y454025D02*
X1206500Y469900D01*
X1222375Y454025D02*
X1457325Y454025D01*
D17*
X1457325Y454025D03*
D16*
X1311275Y358775D02*
X1298575Y371475D01*
X1311275Y358775D02*
X1400175Y358775D01*
X1403350Y355600D01*
X1438275Y355600D01*
X1441450Y358775D01*
X1558925Y358775D01*
X1574800Y342900D01*
D17*
X1298575Y371475D03*
D16*
X1317625Y371475D02*
X1327150Y361950D01*
X1403350Y361950D01*
X1406525Y358775D01*
X1435100Y358775D01*
X1438275Y361950D01*
X1581150Y361950D01*
X1600200Y342900D01*
D17*
X1317625Y371475D03*
D16*
X1358900Y292100D02*
X1371600Y279400D01*
X1438275Y279400D01*
X1444625Y273050D01*
X1495425Y273050D01*
D17*
X1495425Y273050D03*
D16*
X1323975Y307975D02*
X1308100Y292100D01*
X1323975Y307975D02*
X1457325Y307975D01*
D17*
X1457325Y307975D03*
D16*
X1390650Y203200D02*
X1393825Y200025D01*
X1558925Y200025D01*
X1574800Y215900D01*
D17*
X1390650Y203200D03*
D16*
X1222375Y276225D02*
X1206500Y292100D01*
X1222375Y276225D02*
X1435100Y276225D01*
X1444625Y266700D01*
X1593850Y266700D01*
D17*
X1593850Y266700D03*
D16*
X1047750Y101600D02*
X1044575Y104775D01*
X1047750Y101600D02*
X1438275Y101600D01*
X1441450Y104775D01*
X1482725Y104775D01*
X1498600Y88900D01*
D17*
X1044575Y104775D03*
D16*
X1206500Y215900D02*
X1225550Y234950D01*
X1403350Y234950D01*
X1406525Y231775D01*
X1435100Y231775D01*
X1441450Y238125D01*
X1447800Y238125D01*
D17*
X1447800Y238125D03*
D16*
X1304925Y127000D02*
X1301750Y130175D01*
X1304925Y127000D02*
X1543050Y127000D01*
X1546225Y130175D01*
D17*
X1301750Y130175D03*
X1546225Y130175D03*
D16*
X1323975Y231775D02*
X1308100Y215900D01*
X1323975Y231775D02*
X1400175Y231775D01*
X1403350Y228600D01*
X1438275Y228600D01*
X1441450Y231775D01*
X1508125Y231775D01*
D17*
X1508125Y231775D03*
D16*
X771525Y438150D02*
X768350Y441325D01*
X771525Y438150D02*
X977900Y438150D01*
X981075Y441325D01*
D17*
X768350Y441325D03*
X981075Y441325D03*
D16*
X974725Y377825D02*
X669925Y377825D01*
D17*
X669925Y377825D03*
X974725Y377825D03*
D16*
X749300Y447675D02*
X742950Y441325D01*
X749300Y447675D02*
X879475Y447675D01*
X885825Y441325D01*
X927100Y441325D01*
X933450Y447675D01*
D17*
X742950Y441325D03*
X933450Y447675D03*
D16*
X663575Y495300D02*
X660400Y492125D01*
X568325Y492125D01*
X546100Y469900D01*
D17*
X663575Y495300D03*
D16*
X581025Y501650D02*
X762000Y501650D01*
D17*
X762000Y501650D03*
X581025Y501650D03*
D16*
X685800Y419100D02*
X704850Y400050D01*
X819150Y400050D01*
X822325Y403225D01*
X850900Y403225D01*
X857250Y396875D01*
X981075Y396875D01*
D17*
X981075Y396875D03*
D16*
X1358900Y952500D02*
X1374775Y968375D01*
X1558925Y968375D01*
X1574800Y952500D01*
X1273175Y860425D02*
X1257300Y876300D01*
X1273175Y860425D02*
X1533525Y860425D01*
X1549400Y876300D01*
X1349375Y892175D02*
X1333500Y876300D01*
X1349375Y892175D02*
X1508125Y892175D01*
X1524000Y876300D01*
X1374775Y917575D02*
X1371600Y920750D01*
X1200150Y920750D01*
D17*
X1374775Y917575D03*
X1200150Y920750D03*
D16*
X1273175Y723900D02*
X1276350Y720725D01*
X1273175Y723900D02*
X1155700Y723900D01*
D17*
X1276350Y720725D03*
X1155700Y723900D03*
D16*
X1343025Y723900D02*
X1349375Y717550D01*
X1555750Y717550D01*
X1574800Y698500D01*
D17*
X1343025Y723900D03*
D16*
X1311275Y1098550D02*
X1460500Y1098550D01*
X1311275Y1098550D02*
X1308100Y1101725D01*
D17*
X1460500Y1098550D03*
X1308100Y1101725D03*
D16*
X1289050Y1047750D02*
X1295400Y1041400D01*
X1584325Y1041400D01*
D17*
X1289050Y1047750D03*
X1584325Y1041400D03*
D16*
X1190625Y1038225D02*
X1155700Y1003300D01*
X1190625Y1038225D02*
X1463675Y1038225D01*
X1498600Y1003300D01*
X1222375Y1019175D02*
X1206500Y1003300D01*
X1222375Y1019175D02*
X1457325Y1019175D01*
X1473200Y1003300D01*
X1323975Y987425D02*
X1308100Y1003300D01*
X1323975Y987425D02*
X1584325Y987425D01*
X1600200Y1003300D01*
X1365250Y819150D02*
X1358900Y825500D01*
X1365250Y819150D02*
X1431925Y819150D01*
X1444625Y806450D01*
X1495425Y806450D01*
D17*
X1495425Y806450D03*
D16*
X1333500Y765175D02*
X1317625Y781050D01*
X1333500Y765175D02*
X1457325Y765175D01*
X1473200Y749300D01*
D17*
X1317625Y781050D03*
D16*
X1263650Y803275D02*
X1260475Y800100D01*
X1263650Y803275D02*
X1400175Y803275D01*
X1406525Y809625D01*
X1412875Y809625D01*
X1422400Y800100D01*
X1571625Y800100D01*
X1609725Y762000D01*
X1609725Y733425D01*
X1590675Y733425D01*
X1574800Y749300D01*
D17*
X1260475Y800100D03*
D16*
X1225550Y806450D02*
X1206500Y825500D01*
X1225550Y806450D02*
X1397000Y806450D01*
X1403350Y812800D01*
X1419225Y812800D01*
X1450975Y781050D02*
X1466850Y765175D01*
X1584325Y765175D01*
X1600200Y749300D01*
D17*
X1419225Y812800D03*
X1450975Y781050D03*
D16*
X1190625Y666750D02*
X1187450Y663575D01*
X1190625Y666750D02*
X1403350Y666750D01*
X1406525Y663575D01*
X1463675Y663575D01*
X1466850Y666750D01*
X1489075Y666750D01*
D17*
X1187450Y663575D03*
X1489075Y666750D03*
D16*
X1470025Y660400D02*
X1219200Y660400D01*
D17*
X1219200Y660400D03*
X1470025Y660400D03*
D16*
X1552575Y600075D02*
X1238250Y600075D01*
X1552575Y600075D02*
X1574800Y622300D01*
D17*
X1238250Y600075D03*
D16*
X1311275Y644525D02*
X1317625Y638175D01*
X1584325Y638175D01*
X1600200Y622300D01*
D17*
X1311275Y644525D03*
D16*
X790575Y968375D02*
X774700Y952500D01*
X790575Y968375D02*
X974725Y968375D01*
X990600Y952500D01*
X717550Y1019175D02*
X711200Y1012825D01*
X717550Y1019175D02*
X850900Y1019175D01*
X854075Y1022350D01*
X1012825Y1022350D01*
X1016000Y1025525D01*
X1016000Y1035050D01*
X971550Y1035050D01*
D17*
X711200Y1012825D03*
X971550Y1035050D03*
D16*
X936625Y977900D02*
X765175Y977900D01*
D17*
X765175Y977900D03*
X936625Y977900D03*
D16*
X758825Y847725D02*
X755650Y844550D01*
X555625Y844550D01*
D17*
X758825Y847725D03*
X555625Y844550D03*
D16*
X685800Y730250D02*
X695325Y720725D01*
X685800Y730250D02*
X565150Y730250D01*
X546100Y749300D01*
D17*
X695325Y720725D03*
D16*
X663575Y1101725D02*
X965200Y1101725D01*
D17*
X663575Y1101725D03*
X965200Y1101725D03*
D16*
X857250Y1047750D02*
X847725Y1057275D01*
X857250Y1047750D02*
X911225Y1047750D01*
X1679575Y1114425D02*
X1727200Y1066800D01*
X1679575Y1114425D02*
X1314450Y1114425D01*
X949325Y1047750D02*
X911225Y1047750D01*
D17*
X847725Y1057275D03*
X911225Y1047750D03*
X1314450Y1114425D03*
X949325Y1047750D03*
D16*
X692150Y1060450D02*
X673100Y1079500D01*
X692150Y1060450D02*
X819150Y1060450D01*
X822325Y1063625D01*
X850900Y1063625D01*
X860425Y1054100D01*
X987425Y1054100D01*
X1593850Y1060450D02*
X1638300Y1016000D01*
X1593850Y1060450D02*
X1416050Y1060450D01*
X1412875Y1063625D01*
X1371600Y1063625D01*
X1368425Y1060450D01*
X1111250Y1060450D01*
X1095375Y1044575D01*
X996950Y1044575D01*
X987425Y1054100D01*
D17*
X987425Y1054100D03*
X1638300Y1016000D03*
D16*
X666750Y1035050D02*
X622300Y1079500D01*
X666750Y1035050D02*
X819150Y1035050D01*
X822325Y1038225D01*
X882650Y1038225D01*
X892175Y1028700D01*
X1009650Y1028700D01*
X1727200Y990600D02*
X1739900Y977900D01*
X1739900Y927100D01*
X1422400Y927100D01*
X1412875Y917575D01*
X1384300Y917575D01*
X1374775Y927100D01*
X1181100Y927100D01*
X1171575Y917575D01*
X1054100Y917575D01*
D17*
X1009650Y1028700D03*
X1054100Y917575D03*
D16*
X644525Y1108075D02*
X638175Y1101725D01*
X644525Y1108075D02*
X908050Y1108075D01*
X1631950Y1060450D02*
X1727200Y965200D01*
X1631950Y1060450D02*
X1622425Y1060450D01*
D17*
X638175Y1101725D03*
X908050Y1108075D03*
X1622425Y1060450D03*
D16*
X619125Y914400D02*
X612775Y920750D01*
X619125Y914400D02*
X863600Y914400D01*
X1724025Y936625D02*
X1727200Y939800D01*
X1724025Y936625D02*
X1298575Y936625D01*
X1295400Y933450D01*
X1174750Y933450D01*
X1171575Y936625D01*
X1130300Y936625D01*
X1117600Y923925D01*
X996950Y923925D01*
X987425Y914400D01*
X863600Y914400D01*
D17*
X612775Y920750D03*
X863600Y914400D03*
D16*
X876300Y930275D02*
X885825Y920750D01*
X984250Y920750D01*
X1219200Y971550D02*
X1670050Y971550D01*
X1219200Y971550D02*
X1216025Y974725D01*
X1012825Y974725D01*
X1009650Y977900D01*
D17*
X876300Y930275D03*
X984250Y920750D03*
X1670050Y971550D03*
X1009650Y977900D03*
D16*
X717550Y857250D02*
X714375Y854075D01*
X717550Y857250D02*
X990600Y857250D01*
X993775Y854075D01*
X1704975Y911225D02*
X1727200Y889000D01*
X1704975Y911225D02*
X1238250Y911225D01*
X1231900Y904875D01*
X1187450Y904875D01*
X1136650Y854075D02*
X993775Y854075D01*
D17*
X714375Y854075D03*
X993775Y854075D03*
X1187450Y904875D03*
X1136650Y854075D03*
D16*
X914400Y847725D02*
X796925Y847725D01*
X1714500Y850900D02*
X1727200Y863600D01*
X1714500Y850900D02*
X1174750Y850900D01*
X1158875Y866775D02*
X1133475Y892175D01*
X930275Y892175D01*
D17*
X796925Y847725D03*
X914400Y847725D03*
X1174750Y850900D03*
X1158875Y866775D03*
X930275Y892175D03*
D16*
X758825Y790575D02*
X723900Y825500D01*
X758825Y790575D02*
X882650Y790575D01*
X885825Y793750D01*
X1724025Y841375D02*
X1727200Y838200D01*
X1724025Y841375D02*
X1352550Y841375D01*
X1343025Y831850D01*
X1343025Y809625D01*
X1250950Y809625D01*
X1241425Y819150D01*
X1241425Y841375D01*
X1123950Y841375D01*
X1101725Y819150D01*
X1101725Y790575D01*
X990600Y790575D01*
X987425Y793750D01*
X885825Y793750D01*
D17*
X885825Y793750D03*
D16*
X698500Y787400D02*
X682625Y803275D01*
X698500Y787400D02*
X984250Y787400D01*
X1609725Y584200D02*
X1654175Y628650D01*
X1609725Y584200D02*
X1260475Y584200D01*
X1257300Y587375D01*
X1219200Y587375D01*
X1216025Y584200D01*
X1057275Y584200D01*
X1041400Y600075D01*
D17*
X682625Y803275D03*
X984250Y787400D03*
X1654175Y628650D03*
X1041400Y600075D03*
D16*
X638175Y841375D02*
X622300Y825500D01*
X638175Y841375D02*
X996950Y841375D01*
X1006475Y831850D01*
X1006475Y806450D01*
X1022350Y806450D01*
X1670050Y730250D02*
X1727200Y787400D01*
X1670050Y730250D02*
X1377950Y730250D01*
X1371600Y673100D02*
X1368425Y669925D01*
X1177925Y669925D01*
X1171575Y663575D01*
X1044575Y663575D01*
X1031875Y676275D01*
D17*
X1022350Y806450D03*
X1377950Y730250D03*
X1371600Y673100D03*
X1031875Y676275D03*
D16*
X638175Y733425D02*
X622300Y749300D01*
X638175Y733425D02*
X733425Y733425D01*
X746125Y720725D01*
X863600Y720725D01*
X1727200Y736600D02*
X1739900Y749300D01*
X1739900Y876300D01*
X1647825Y876300D01*
X1628775Y857250D01*
X1165225Y857250D01*
X1158875Y850900D01*
X1123950Y723900D02*
X1120775Y720725D01*
X863600Y720725D01*
D17*
X863600Y720725D03*
X1158875Y850900D03*
X1123950Y723900D03*
D16*
X698500Y660400D02*
X685800Y673100D01*
X698500Y660400D02*
X958850Y660400D01*
X1670050Y654050D02*
X1727200Y711200D01*
X1670050Y654050D02*
X1416050Y654050D01*
X1412875Y657225D01*
X1225550Y657225D01*
X1222375Y654050D01*
X1174750Y654050D01*
X1168400Y660400D01*
X958850Y660400D01*
D17*
X685800Y673100D03*
X958850Y660400D03*
D16*
X746125Y727075D02*
X723900Y749300D01*
X746125Y727075D02*
X958850Y727075D01*
X1727200Y685800D02*
X1739900Y698500D01*
X1739900Y723900D01*
X1352550Y723900D01*
X1346200Y730250D01*
X962025Y730250D01*
X958850Y727075D01*
D17*
X958850Y727075D03*
D16*
X774700Y546100D02*
X790575Y530225D01*
X923925Y530225D01*
X1638300Y565150D02*
X1670050Y533400D01*
X1638300Y565150D02*
X1597025Y565150D01*
X1593850Y561975D01*
X1225550Y561975D01*
X1216025Y552450D01*
X1216025Y530225D01*
X1200150Y530225D01*
X1190625Y539750D01*
X1190625Y565150D01*
X1066800Y565150D01*
X1063625Y561975D01*
X1063625Y527050D02*
X927100Y527050D01*
X923925Y530225D01*
D17*
X923925Y530225D03*
X1670050Y533400D03*
X1063625Y561975D03*
X1063625Y527050D03*
D16*
X739775Y561975D02*
X723900Y546100D01*
X739775Y561975D02*
X879475Y561975D01*
X1727200Y508000D02*
X1739900Y495300D01*
X1739900Y393700D01*
X1422400Y393700D01*
X1412875Y384175D01*
X1241425Y384175D01*
X1231900Y393700D01*
X1209675Y393700D01*
X1136650Y314325D02*
X873125Y314325D01*
D17*
X879475Y561975D03*
X1209675Y393700D03*
X1136650Y314325D03*
X873125Y314325D03*
D16*
X984250Y568325D02*
X679450Y568325D01*
X1698625Y511175D02*
X1727200Y482600D01*
X1698625Y511175D02*
X1698625Y581025D01*
X1257300Y581025D01*
X1254125Y584200D01*
X1222375Y584200D01*
X1219200Y581025D01*
X1006475Y581025D01*
X996950Y571500D01*
D17*
X679450Y568325D03*
X984250Y568325D03*
X996950Y571500D03*
D16*
X622300Y577850D02*
X622300Y546100D01*
X622300Y577850D02*
X984250Y577850D01*
X1695450Y488950D02*
X1727200Y457200D01*
X1695450Y488950D02*
X1695450Y571500D01*
X1190625Y571500D01*
X1187450Y568325D01*
X1009650Y568325D01*
X1006475Y571500D01*
D17*
X984250Y577850D03*
X1006475Y571500D03*
D16*
X793750Y79375D02*
X809625Y63500D01*
X977900Y63500D01*
X1682750Y107950D02*
X1727200Y152400D01*
X1682750Y107950D02*
X1682750Y63500D01*
X977900Y63500D01*
D17*
X793750Y79375D03*
X977900Y63500D03*
D16*
X666750Y111125D02*
X660400Y117475D01*
X666750Y111125D02*
X803275Y111125D01*
X809625Y104775D01*
X838200Y104775D01*
X847725Y114300D01*
X952500Y114300D01*
X1727200Y177800D02*
X1739900Y190500D01*
X1739900Y241300D01*
X1724025Y241300D01*
X1638300Y155575D01*
X1638300Y142875D01*
X1631950Y142875D01*
X1597025Y107950D01*
X1416050Y107950D01*
X1412875Y104775D01*
X1054100Y104775D01*
X1041400Y117475D01*
X955675Y117475D01*
X952500Y114300D01*
D17*
X660400Y117475D03*
X952500Y114300D03*
D16*
X628650Y196850D02*
X609600Y215900D01*
X628650Y196850D02*
X847725Y196850D01*
X1679575Y155575D02*
X1727200Y203200D01*
X1679575Y155575D02*
X1679575Y69850D01*
X895350Y69850D01*
X876300Y88900D01*
D17*
X847725Y196850D03*
D16*
X625475Y307975D02*
X609600Y292100D01*
X625475Y307975D02*
X806450Y307975D01*
X831850Y282575D01*
X831850Y266700D02*
X835025Y263525D01*
X974725Y263525D01*
X1416050Y146050D02*
X1619250Y146050D01*
X1416050Y146050D02*
X1412875Y149225D01*
X1403350Y149225D01*
X1400175Y146050D01*
X1000125Y146050D01*
D17*
X831850Y282575D03*
X831850Y266700D03*
X974725Y263525D03*
X1619250Y146050D03*
X1000125Y146050D03*
D16*
X962025Y127000D02*
X688975Y127000D01*
X1635125Y187325D02*
X1727200Y279400D01*
X1635125Y187325D02*
X1635125Y149225D01*
X1631950Y149225D01*
X1606550Y123825D01*
X965200Y123825D01*
X962025Y127000D01*
D17*
X688975Y127000D03*
X962025Y127000D03*
D16*
X727075Y257175D02*
X720725Y263525D01*
X727075Y257175D02*
X847725Y257175D01*
X1635125Y212725D02*
X1727200Y304800D01*
X1635125Y212725D02*
X1635125Y196850D01*
X857250Y196850D01*
X850900Y190500D01*
X587375Y190500D01*
X574675Y203200D01*
X574675Y263525D01*
X720725Y263525D01*
D17*
X720725Y263525D03*
X847725Y257175D03*
D16*
X898525Y250825D02*
X796925Y250825D01*
X1644650Y247650D02*
X1727200Y330200D01*
X1644650Y247650D02*
X1416050Y247650D01*
X1412875Y250825D01*
X1358900Y250825D01*
X1355725Y247650D01*
X1098550Y247650D01*
X1095375Y250825D01*
X898525Y250825D01*
D17*
X796925Y250825D03*
X898525Y250825D03*
D16*
X806450Y333375D02*
X828675Y355600D01*
X854075Y355600D01*
X857250Y358775D01*
X1000125Y358775D01*
X1016000Y342900D01*
X1704975Y377825D02*
X1727200Y355600D01*
X1704975Y377825D02*
X1050925Y377825D01*
X1044575Y371475D01*
D17*
X806450Y333375D03*
X1044575Y371475D03*
D16*
X688975Y485775D02*
X673100Y469900D01*
X688975Y485775D02*
X838200Y485775D01*
X844550Y492125D01*
X1016000Y492125D01*
X1000125Y381000D02*
X1727200Y381000D01*
D17*
X1016000Y492125D03*
X1000125Y381000D03*
D16*
X628650Y384175D02*
X625475Y387350D01*
X628650Y384175D02*
X889000Y384175D01*
X1724025Y403225D02*
X1727200Y406400D01*
X1724025Y403225D02*
X1298575Y403225D01*
X1295400Y400050D01*
X1187450Y400050D01*
X1171575Y384175D01*
X1022350Y384175D01*
X1019175Y387350D01*
X892175Y387350D01*
X889000Y384175D01*
D17*
X625475Y387350D03*
X889000Y384175D03*
D16*
X1676400Y177800D02*
X1727200Y228600D01*
X1676400Y177800D02*
X1676400Y73025D01*
X917575Y73025D01*
X901700Y88900D01*
X622300Y622300D02*
X638175Y638175D01*
X682625Y638175D01*
X698500Y622300D01*
X333375Y327025D02*
X317500Y342900D01*
X333375Y327025D02*
X593725Y327025D01*
X609600Y342900D01*
X669925Y327025D02*
X685800Y342900D01*
X669925Y327025D02*
X593725Y327025D01*
X622300Y876300D02*
X638175Y892175D01*
X682625Y892175D01*
X698500Y876300D01*
X377825Y377825D02*
X342900Y342900D01*
X377825Y377825D02*
X660400Y377825D01*
X666750Y371475D01*
X755650Y371475D01*
X765175Y666750D02*
X708025Y666750D01*
D17*
X755650Y371475D03*
X708025Y666750D03*
X765175Y666750D03*
D16*
X1212850Y644525D02*
X1216025Y647700D01*
X1257300Y647700D01*
X1260475Y644525D01*
X384175Y358775D02*
X368300Y342900D01*
X384175Y358775D02*
X844550Y358775D01*
X850900Y365125D01*
X1158875Y365125D01*
X1165225Y358775D02*
X1181100Y342900D01*
X1165225Y358775D02*
X1158875Y365125D01*
X1181100Y342900D02*
X1206500Y342900D01*
X1266825Y358775D02*
X1282700Y342900D01*
X1266825Y358775D02*
X1165225Y358775D01*
D17*
X1212850Y644525D03*
X1260475Y644525D03*
D16*
X406400Y323850D02*
X403225Y320675D01*
X406400Y323850D02*
X1241425Y323850D01*
X1244600Y320675D01*
D17*
X403225Y320675D03*
X1244600Y320675D03*
D16*
X365125Y396875D02*
X342900Y419100D01*
X365125Y396875D02*
X561975Y396875D01*
X568325Y403225D01*
X644525Y403225D01*
X660400Y419100D01*
X730250Y438150D02*
X733425Y441325D01*
X730250Y438150D02*
X361950Y438150D01*
X342900Y419100D01*
D17*
X733425Y441325D03*
D16*
X292100Y419100D02*
X276225Y434975D01*
X120650Y434975D01*
X104775Y419100D01*
X73025Y419100D01*
X63500Y428625D01*
X63500Y482600D01*
X76200Y482600D01*
X295275Y441325D02*
X317500Y419100D01*
X295275Y441325D02*
X111125Y441325D01*
D17*
X111125Y441325D03*
D16*
X250825Y384175D02*
X292100Y342900D01*
X250825Y384175D02*
X114300Y384175D01*
X104775Y393700D01*
X88900Y393700D01*
X76200Y406400D01*
X250825Y358775D02*
X266700Y342900D01*
X250825Y358775D02*
X114300Y358775D01*
X104775Y368300D01*
X88900Y368300D01*
X76200Y381000D01*
X393700Y419100D02*
X409575Y434975D01*
X1241425Y434975D01*
X1257300Y419100D01*
X1317625Y434975D02*
X1333500Y419100D01*
X1317625Y434975D02*
X1241425Y434975D01*
X266700Y469900D02*
X244475Y447675D01*
X107950Y447675D01*
X104775Y444500D01*
X88900Y444500D01*
X76200Y431800D01*
X276225Y485775D02*
X292100Y469900D01*
X276225Y485775D02*
X212725Y485775D01*
X196850Y469900D01*
X88900Y469900D01*
X76200Y457200D01*
X276225Y561975D02*
X292100Y546100D01*
X276225Y561975D02*
X120650Y561975D01*
X104775Y546100D01*
X88900Y546100D01*
X76200Y533400D01*
X292100Y571500D02*
X317500Y546100D01*
X292100Y571500D02*
X88900Y571500D01*
X76200Y558800D01*
X374650Y234950D02*
X393700Y215900D01*
X374650Y234950D02*
X269875Y234950D01*
D17*
X269875Y234950D03*
D16*
X101600Y50800D02*
X76200Y50800D01*
X101600Y50800D02*
X127000Y50800D01*
X152400Y50800D01*
X101600Y1117600D02*
X76200Y1117600D01*
X101600Y1117600D02*
X127000Y1117600D01*
X139700Y1117600D01*
X152400Y1117600D01*
X139700Y1117600D02*
X139700Y1063625D01*
X276225Y1063625D01*
X292100Y1079500D01*
X298450Y488950D02*
X317500Y469900D01*
X298450Y488950D02*
X209550Y488950D01*
X196850Y476250D01*
X127000Y476250D01*
D17*
X127000Y476250D03*
D16*
X352425Y180975D02*
X349250Y177800D01*
X212725Y177800D01*
X165100Y130175D01*
X165100Y38100D01*
X114300Y38100D01*
X101600Y25400D01*
D17*
X352425Y180975D03*
D16*
X327025Y428625D02*
X368300Y469900D01*
X327025Y428625D02*
X327025Y403225D01*
X184150Y403225D01*
D17*
X184150Y403225D03*
D16*
X352425Y987425D02*
X355600Y990600D01*
X352425Y987425D02*
X180975Y987425D01*
X76200Y1092200D01*
D17*
X355600Y990600D03*
D16*
X390525Y568325D02*
X368300Y546100D01*
X390525Y568325D02*
X438150Y568325D01*
D17*
X438150Y568325D03*
D16*
X349250Y590550D02*
X342900Y596900D01*
X193675Y596900D01*
D17*
X349250Y590550D03*
X193675Y596900D03*
D16*
X431800Y1089025D02*
X425450Y1095375D01*
X155575Y1095375D01*
X152400Y1092200D01*
D17*
X431800Y1089025D03*
D16*
X368300Y419100D02*
X384175Y403225D01*
X444500Y403225D01*
X495300Y892175D02*
X539750Y936625D01*
X657225Y936625D01*
X673100Y952500D01*
X733425Y968375D02*
X749300Y952500D01*
X733425Y968375D02*
X688975Y968375D01*
X673100Y952500D01*
D17*
X444500Y403225D03*
X495300Y892175D03*
D16*
X428625Y428625D02*
X419100Y419100D01*
X428625Y428625D02*
X444500Y428625D01*
X488950Y850900D02*
X549275Y911225D01*
X857250Y911225D01*
X860425Y908050D01*
X1162050Y908050D01*
X1168400Y914400D01*
X1231900Y914400D01*
X1317625Y968375D02*
X1333500Y952500D01*
X1317625Y968375D02*
X1273175Y968375D01*
X1257300Y952500D01*
D17*
X444500Y428625D03*
X488950Y850900D03*
X1231900Y914400D03*
D16*
X282575Y231775D02*
X266700Y215900D01*
X282575Y231775D02*
X327025Y231775D01*
X342900Y215900D01*
X209550Y215900D02*
X190500Y234950D01*
X209550Y215900D02*
X266700Y215900D01*
D17*
X190500Y234950D03*
D16*
X50800Y635000D02*
X63500Y647700D01*
X190500Y647700D01*
X215900Y622300D01*
X60325Y669925D02*
X50800Y660400D01*
X60325Y669925D02*
X69850Y669925D01*
X73025Y673100D01*
X127000Y673100D01*
X149225Y650875D01*
X212725Y650875D01*
X241300Y622300D01*
X63500Y698500D02*
X50800Y685800D01*
X63500Y698500D02*
X168275Y698500D01*
X184150Y682625D01*
X257175Y682625D01*
D17*
X257175Y682625D03*
D16*
X63500Y723900D02*
X50800Y711200D01*
X63500Y723900D02*
X282575Y723900D01*
X285750Y727075D01*
D17*
X285750Y727075D03*
D16*
X63500Y749300D02*
X50800Y736600D01*
X63500Y749300D02*
X168275Y749300D01*
X184150Y733425D01*
X301625Y733425D01*
X317500Y749300D01*
X63500Y774700D02*
X50800Y762000D01*
X63500Y774700D02*
X104775Y774700D01*
X117475Y787400D01*
X333375Y787400D01*
D17*
X333375Y787400D03*
D16*
X123825Y784225D02*
X111125Y771525D01*
X123825Y784225D02*
X327025Y784225D01*
X342900Y768350D01*
X396875Y768350D01*
X403225Y762000D01*
X403225Y733425D01*
X384175Y733425D01*
X368300Y749300D01*
D17*
X111125Y771525D03*
D16*
X133350Y777875D02*
X146050Y765175D01*
X377825Y765175D01*
X393700Y749300D01*
D17*
X133350Y777875D03*
D16*
X193675Y854075D02*
X215900Y876300D01*
X193675Y854075D02*
X107950Y854075D01*
X104775Y850900D01*
X63500Y850900D01*
X50800Y838200D01*
X225425Y892175D02*
X241300Y876300D01*
X225425Y892175D02*
X161925Y892175D01*
X146050Y876300D01*
X63500Y876300D01*
X50800Y863600D01*
X247650Y895350D02*
X266700Y876300D01*
X247650Y895350D02*
X158750Y895350D01*
X155575Y892175D01*
X114300Y892175D01*
X104775Y901700D01*
X63500Y901700D01*
X50800Y889000D01*
X266700Y850900D02*
X292100Y876300D01*
X266700Y850900D02*
X120650Y850900D01*
X117475Y847725D01*
D17*
X117475Y847725D03*
D16*
X317500Y876300D02*
X352425Y911225D01*
X406400Y911225D01*
X412750Y917575D01*
X412750Y927100D01*
X244475Y927100D01*
X225425Y946150D01*
X225425Y977900D01*
X57150Y977900D01*
D17*
X57150Y977900D03*
D16*
X330200Y917575D02*
X333375Y920750D01*
X330200Y917575D02*
X114300Y917575D01*
X104775Y927100D01*
X41275Y927100D01*
X34925Y933450D01*
D17*
X333375Y920750D03*
X34925Y933450D03*
D16*
X352425Y860425D02*
X368300Y876300D01*
X352425Y860425D02*
X311150Y860425D01*
X301625Y869950D01*
X301625Y911225D01*
X120650Y911225D01*
X117475Y908050D01*
D17*
X117475Y908050D03*
D16*
X365125Y847725D02*
X393700Y876300D01*
X365125Y847725D02*
X127000Y847725D01*
X104775Y825500D01*
X44450Y825500D01*
D17*
X44450Y825500D03*
D16*
X257175Y584200D02*
X428625Y584200D01*
D17*
X428625Y584200D03*
X257175Y584200D03*
D16*
X317500Y292100D02*
X333375Y276225D01*
X352425Y276225D01*
X368300Y292100D01*
X587375Y584200D02*
X574675Y596900D01*
X587375Y584200D02*
X908050Y584200D01*
D17*
X574675Y596900D03*
X908050Y584200D03*
D16*
X276225Y254000D02*
X273050Y257175D01*
X165100Y257175D01*
X104775Y317500D01*
X88900Y317500D01*
X76200Y330200D01*
D17*
X276225Y254000D03*
D16*
X400050Y914400D02*
X406400Y920750D01*
X400050Y914400D02*
X101600Y914400D01*
D17*
X406400Y920750D03*
D16*
X723900Y876300D02*
X739775Y892175D01*
X920750Y892175D01*
X927100Y898525D01*
X1158875Y898525D01*
X1165225Y892175D01*
X1292225Y892175D01*
X1308100Y876300D01*
X727075Y327025D02*
X711200Y342900D01*
X727075Y327025D02*
X1292225Y327025D01*
X1308100Y342900D01*
X76200Y685800D02*
X63500Y673100D01*
X47625Y673100D01*
X38100Y663575D01*
X38100Y495300D01*
X190500Y495300D01*
X200025Y504825D01*
X511175Y504825D01*
X536575Y479425D01*
X536575Y444500D01*
X704850Y444500D01*
D17*
X704850Y444500D03*
D16*
X1225550Y492125D02*
X1231900Y498475D01*
X1266825Y498475D01*
X619125Y860425D02*
X612775Y854075D01*
X619125Y860425D02*
X631825Y860425D01*
X647700Y876300D01*
X146050Y577850D02*
X127000Y596900D01*
X146050Y577850D02*
X615950Y577850D01*
X1216025Y860425D02*
X1231900Y876300D01*
X1216025Y860425D02*
X631825Y860425D01*
D17*
X1225550Y492125D03*
X1266825Y498475D03*
X612775Y854075D03*
X127000Y596900D03*
X615950Y577850D03*
D16*
X1549400Y38100D02*
X1558925Y47625D01*
X1730375Y47625D01*
X1739900Y38100D01*
X368300Y215900D02*
X342900Y190500D01*
X47625Y190500D01*
X38100Y200025D01*
X38100Y342900D01*
X63500Y342900D01*
X76200Y355600D01*
X276225Y276225D02*
X292100Y292100D01*
X276225Y276225D02*
X200025Y276225D01*
X139700Y336550D01*
X374650Y984250D02*
X393700Y1003300D01*
X374650Y984250D02*
X53975Y984250D01*
X28575Y958850D01*
X28575Y800100D01*
X88900Y800100D01*
X101600Y787400D01*
D17*
X139700Y336550D03*
D16*
X647700Y622300D02*
X663575Y606425D01*
X708025Y606425D01*
X1216025Y606425D02*
X1231900Y622300D01*
X1216025Y606425D02*
X708025Y606425D01*
X1216025Y606425D02*
X1317625Y606425D01*
X88900Y596900D02*
X76200Y584200D01*
X88900Y596900D02*
X117475Y596900D01*
X123825Y603250D01*
X628650Y603250D01*
X647700Y622300D01*
D17*
X708025Y606425D03*
X1317625Y606425D03*
D16*
X739775Y936625D02*
X723900Y952500D01*
X739775Y936625D02*
X898525Y936625D01*
X901700Y933450D01*
X1120775Y933450D01*
X1127125Y939800D01*
X1196975Y939800D01*
X1200150Y936625D01*
X1292225Y936625D01*
X1308100Y952500D01*
X727075Y403225D02*
X711200Y419100D01*
X727075Y403225D02*
X815975Y403225D01*
X819150Y406400D01*
X854075Y406400D01*
X857250Y403225D01*
X1292225Y403225D01*
X1308100Y419100D01*
X76200Y609600D02*
X63500Y596900D01*
X63500Y520700D01*
X190500Y520700D01*
X203200Y508000D01*
X692150Y508000D01*
D17*
X692150Y508000D03*
D16*
X723900Y622300D02*
X739775Y638175D01*
X1231900Y638175D02*
X1292225Y638175D01*
X1231900Y638175D02*
X847725Y638175D01*
X739775Y638175D01*
X1292225Y638175D02*
X1308100Y622300D01*
X669925Y657225D02*
X654050Y673100D01*
X669925Y657225D02*
X828675Y657225D01*
X847725Y638175D01*
X1231900Y638175D02*
X1231900Y641350D01*
X88900Y622300D02*
X76200Y635000D01*
X88900Y622300D02*
X168275Y622300D01*
X184150Y606425D01*
X530225Y606425D01*
X596900Y673100D01*
X654050Y673100D01*
D17*
X654050Y673100D03*
X1231900Y641350D03*
D16*
X1228725Y387350D02*
X1190625Y387350D01*
X650875Y571500D02*
X641350Y561975D01*
X635000Y555625D01*
X650875Y571500D02*
X663575Y571500D01*
X133350Y574675D02*
X117475Y590550D01*
X133350Y574675D02*
X482600Y574675D01*
X530225Y527050D01*
X701675Y527050D01*
X708025Y533400D01*
X708025Y561975D01*
X641350Y561975D01*
X1212850Y971550D02*
X1231900Y952500D01*
X1212850Y971550D02*
X666750Y971550D01*
X647700Y952500D01*
D17*
X1228725Y387350D03*
X1190625Y387350D03*
X635000Y555625D03*
X663575Y571500D03*
X117475Y590550D03*
M02*
