M48
;GenerationSoftware,Autodesk,EAGLE,9.6.2*%
;CreationDate,2020-06-16T18:32:03Z*%
FMAT,2
ICI,OFF
METRIC,TZ,000.000
T4C0.350
T3C0.813
T2C1.016
T1C2.794
%
G90
M71
T1
X2540Y101606
X2540Y12694
T2
X10160Y93980
X10160Y91440
X10160Y88900
X10160Y86360
X10160Y83820
X10160Y81280
X10160Y78740
X10160Y76200
X10160Y73660
X10160Y71120
X10160Y68580
X10160Y66040
X10160Y63500
X10160Y60960
X10160Y58420
X7620Y96520
X7620Y93980
X7620Y91440
X7620Y88900
X7620Y86360
X7620Y83820
X7620Y81280
X7620Y78740
X7620Y76200
X7620Y73660
X7620Y71120
X7620Y68580
X7620Y66040
X7620Y63500
X7620Y60960
X7620Y58420
X5080Y96520
X5080Y93980
X5080Y91440
X5080Y88900
X5080Y86360
X5080Y83820
X5080Y81280
X5080Y78740
X5080Y76200
X5080Y73660
X5080Y71120
X5080Y68580
X5080Y66040
X5080Y63500
X5080Y60960
X5080Y58420
X10160Y55880
X10160Y53340
X10160Y50800
X10160Y48260
X10160Y45720
X10160Y43180
X10160Y40640
X10160Y38100
X10160Y35560
X10160Y33020
X10160Y30480
X10160Y27940
X10160Y25400
X10160Y22860
X10160Y20320
X10160Y17780
X7620Y55880
X7620Y53340
X7620Y50800
X7620Y48260
X7620Y45720
X7620Y43180
X7620Y40640
X7620Y38100
X7620Y35560
X7620Y33020
X7620Y30480
X7620Y27940
X7620Y25400
X7620Y22860
X7620Y20320
X7620Y17780
X5080Y55880
X5080Y53340
X5080Y50800
X5080Y48260
X5080Y45720
X5080Y43180
X5080Y40640
X5080Y38100
X5080Y35560
X5080Y33020
X5080Y30480
X5080Y27940
X5080Y25400
X5080Y22860
X5080Y20320
X5080Y17780
X172720Y101600
X172720Y10160
X175260Y12700
X172720Y12700
X175260Y15240
X172720Y15240
X175260Y17780
X172720Y17780
X175260Y20320
X172720Y20320
X175260Y22860
X172720Y22860
X175260Y25400
X172720Y25400
X175260Y27940
X172720Y27940
X175260Y30480
X172720Y30480
X175260Y33020
X172720Y33020
X175260Y35560
X172720Y35560
X175260Y38100
X172720Y38100
X175260Y40640
X172720Y40640
X175260Y43180
X172720Y43180
X175260Y45720
X172720Y45720
X175260Y48260
X172720Y48260
X175260Y50800
X172720Y50800
X175260Y53340
X172720Y53340
X175260Y55880
X172720Y55880
X175260Y58420
X172720Y58420
X175260Y63500
X172720Y63500
X175260Y66040
X172720Y66040
X175260Y68580
X172720Y68580
X175260Y71120
X172720Y71120
X175260Y73660
X172720Y73660
X175260Y76200
X172720Y76200
X175260Y78740
X172720Y78740
X175260Y81280
X172720Y81280
X175260Y83820
X172720Y83820
X175260Y86360
X172720Y86360
X175260Y88900
X172720Y88900
X175260Y91440
X172720Y91440
X175260Y93980
X172720Y93980
X175260Y96520
X172720Y96520
X175260Y99060
X172720Y99060
X175260Y101600
X175260Y104140
X172720Y104140
X175260Y106680
X172720Y106680
X175260Y109220
X172720Y109220
X175260Y111760
X172720Y111760
X15240Y111760
X15240Y109220
X12700Y111760
X12700Y109220
X10160Y111760
X10160Y109220
X7620Y111760
X7620Y109220
X15240Y5080
X15240Y2540
X12700Y5080
X12700Y2540
X10160Y5080
X10160Y2540
X7620Y5080
X7620Y2540
X10160Y96520
X175260Y10160
T3
X96520Y62230
X154940Y100330
X29210Y107950
X31750Y107950
X34290Y107950
X36830Y107950
X39370Y107950
X36830Y100330
X39370Y100330
X34290Y100330
X31750Y100330
X41910Y107950
X41910Y100330
X29210Y100330
X26670Y100330
X120650Y95250
X123190Y95250
X125730Y95250
X128270Y95250
X130810Y95250
X133350Y95250
X130810Y87630
X133350Y87630
X128270Y87630
X125730Y87630
X135890Y95250
X135890Y87630
X123190Y87630
X120650Y87630
X120650Y69850
X123190Y69850
X125730Y69850
X128270Y69850
X130810Y69850
X133350Y69850
X130810Y62230
X133350Y62230
X128270Y62230
X125730Y62230
X135890Y69850
X135890Y62230
X123190Y62230
X120650Y62230
X120650Y41910
X123190Y41910
X125730Y41910
X128270Y41910
X130810Y41910
X133350Y41910
X130810Y34290
X133350Y34290
X128270Y34290
X125730Y34290
X135890Y41910
X135890Y34290
X123190Y34290
X120650Y34290
X62230Y95250
X64770Y95250
X67310Y95250
X69850Y95250
X72390Y95250
X74930Y95250
X72390Y87630
X74930Y87630
X69850Y87630
X67310Y87630
X77470Y95250
X77470Y87630
X64770Y87630
X62230Y87630
X62230Y69850
X64770Y69850
X67310Y69850
X69850Y69850
X72390Y69850
X74930Y69850
X72390Y62230
X74930Y62230
X69850Y62230
X67310Y62230
X77470Y69850
X77470Y62230
X64770Y62230
X62230Y62230
X60960Y41910
X63500Y41910
X66040Y41910
X68580Y41910
X71120Y41910
X73660Y41910
X71120Y34290
X73660Y34290
X68580Y34290
X66040Y34290
X76200Y41910
X76200Y34290
X63500Y34290
X60960Y34290
X26670Y29210
X29210Y29210
X31750Y29210
X34290Y29210
X36830Y29210
X15240Y90170
X15240Y92710
X81280Y11430
X81280Y13970
X57150Y36830
X57150Y39370
X50800Y49530
X50800Y52070
X50800Y102870
X50800Y105410
X58420Y90170
X58420Y92710
X50800Y77470
X50800Y80010
X58420Y64770
X58420Y67310
X22860Y102870
X22860Y105410
X49530Y24130
X49530Y26670
X20320Y36830
X20320Y39370
X82550Y36830
X82550Y39370
X15240Y63500
X15240Y66040
X20320Y49530
X20320Y52070
X82550Y90170
X82550Y92710
X82550Y77470
X82550Y80010
X22860Y24130
X22860Y26670
X116840Y36830
X116840Y39370
X109220Y49530
X109220Y52070
X15240Y77470
X15240Y80010
X116840Y64770
X116840Y67310
X109220Y77470
X109220Y80010
X116840Y90170
X116840Y92710
X109220Y102870
X109220Y105410
X140970Y102870
X140970Y105410
X140970Y90170
X140970Y92710
X140970Y36830
X140970Y39370
X140970Y11430
X140970Y13970
X140970Y77470
X140970Y80010
X140970Y49530
X140970Y52070
X109220Y24130
X109220Y26670
X140970Y24130
X140970Y26670
X140970Y64770
X140970Y67310
X82550Y102870
X82550Y105410
X82550Y64770
X82550Y67310
X82550Y49530
X82550Y52070
X81280Y24130
X81280Y26670
X24130Y34290
X26670Y34290
X39370Y34290
X41910Y34290
X29210Y34290
X31750Y34290
X36830Y34290
X34290Y34290
X41910Y41910
X39370Y41910
X36830Y41910
X34290Y41910
X31750Y41910
X29210Y41910
X26670Y41910
X24130Y41910
X19050Y87630
X21590Y87630
X34290Y87630
X36830Y87630
X24130Y87630
X26670Y87630
X31750Y87630
X29210Y87630
X39370Y87630
X41910Y87630
X41910Y95250
X39370Y95250
X36830Y95250
X34290Y95250
X31750Y95250
X29210Y95250
X26670Y95250
X24130Y95250
X21590Y95250
X19050Y95250
X144780Y62230
X147320Y62230
X160020Y62230
X162560Y62230
X149860Y62230
X152400Y62230
X157480Y62230
X154940Y62230
X162560Y69850
X160020Y69850
X157480Y69850
X154940Y69850
X152400Y69850
X149860Y69850
X147320Y69850
X144780Y69850
X144780Y74930
X147320Y74930
X160020Y74930
X162560Y74930
X149860Y74930
X152400Y74930
X157480Y74930
X154940Y74930
X162560Y82550
X160020Y82550
X157480Y82550
X154940Y82550
X152400Y82550
X149860Y82550
X147320Y82550
X144780Y82550
X144780Y100330
X147320Y100330
X160020Y100330
X162560Y100330
X149860Y100330
X152400Y100330
X157480Y100330
X85090Y21590
X162560Y107950
X160020Y107950
X157480Y107950
X154940Y107950
X152400Y107950
X149860Y107950
X147320Y107950
X144780Y107950
X144780Y87630
X147320Y87630
X160020Y87630
X162560Y87630
X149860Y87630
X152400Y87630
X157480Y87630
X154940Y87630
X162560Y95250
X160020Y95250
X157480Y95250
X154940Y95250
X152400Y95250
X149860Y95250
X147320Y95250
X144780Y95250
X113030Y74930
X115570Y74930
X128270Y74930
X130810Y74930
X118110Y74930
X120650Y74930
X125730Y74930
X123190Y74930
X133350Y74930
X135890Y74930
X135890Y82550
X133350Y82550
X130810Y82550
X128270Y82550
X125730Y82550
X123190Y82550
X120650Y82550
X118110Y82550
X115570Y82550
X113030Y82550
X24130Y46990
X26670Y46990
X39370Y46990
X41910Y46990
X29210Y46990
X31750Y46990
X36830Y46990
X34290Y46990
X41910Y54610
X39370Y54610
X36830Y54610
X34290Y54610
X31750Y54610
X29210Y54610
X26670Y54610
X24130Y54610
X113030Y100330
X115570Y100330
X128270Y100330
X130810Y100330
X118110Y100330
X120650Y100330
X125730Y100330
X123190Y100330
X133350Y100330
X135890Y100330
X135890Y107950
X133350Y107950
X130810Y107950
X128270Y107950
X125730Y107950
X123190Y107950
X120650Y107950
X118110Y107950
X115570Y107950
X113030Y107950
X19050Y62230
X21590Y62230
X34290Y62230
X36830Y62230
X24130Y62230
X26670Y62230
X31750Y62230
X29210Y62230
X39370Y62230
X41910Y62230
X41910Y69850
X39370Y69850
X36830Y69850
X34290Y69850
X31750Y69850
X29210Y69850
X26670Y69850
X24130Y69850
X21590Y69850
X19050Y69850
X86360Y100330
X88900Y100330
X101600Y100330
X104140Y100330
X91440Y100330
X93980Y100330
X99060Y100330
X96520Y100330
X104140Y107950
X101600Y107950
X99060Y107950
X96520Y107950
X93980Y107950
X91440Y107950
X88900Y107950
X86360Y107950
X86360Y87630
X88900Y87630
X101600Y87630
X104140Y87630
X91440Y87630
X93980Y87630
X99060Y87630
X96520Y87630
X104140Y95250
X101600Y95250
X99060Y95250
X96520Y95250
X93980Y95250
X91440Y95250
X88900Y95250
X86360Y95250
X86360Y74930
X88900Y74930
X101600Y74930
X104140Y74930
X91440Y74930
X93980Y74930
X99060Y74930
X96520Y74930
X104140Y82550
X101600Y82550
X99060Y82550
X96520Y82550
X93980Y82550
X91440Y82550
X88900Y82550
X86360Y82550
X86360Y62230
X88900Y62230
X101600Y62230
X104140Y62230
X91440Y62230
X93980Y62230
X99060Y62230
X39370Y29210
X104140Y69850
X101600Y69850
X99060Y69850
X96520Y69850
X93980Y69850
X91440Y69850
X88900Y69850
X86360Y69850
X54610Y100330
X57150Y100330
X69850Y100330
X72390Y100330
X59690Y100330
X62230Y100330
X67310Y100330
X64770Y100330
X74930Y100330
X77470Y100330
X77470Y107950
X74930Y107950
X72390Y107950
X69850Y107950
X67310Y107950
X64770Y107950
X62230Y107950
X59690Y107950
X57150Y107950
X54610Y107950
X54610Y74930
X57150Y74930
X69850Y74930
X72390Y74930
X59690Y74930
X62230Y74930
X67310Y74930
X64770Y74930
X74930Y74930
X77470Y74930
X77470Y82550
X74930Y82550
X72390Y82550
X69850Y82550
X67310Y82550
X64770Y82550
X62230Y82550
X59690Y82550
X57150Y82550
X54610Y82550
X144780Y8890
X147320Y8890
X160020Y8890
X162560Y8890
X149860Y8890
X152400Y8890
X157480Y8890
X154940Y8890
X162560Y16510
X160020Y16510
X157480Y16510
X154940Y16510
X152400Y16510
X149860Y16510
X147320Y16510
X144780Y16510
X86360Y46990
X88900Y46990
X101600Y46990
X104140Y46990
X91440Y46990
X93980Y46990
X99060Y46990
X96520Y46990
X104140Y54610
X101600Y54610
X99060Y54610
X96520Y54610
X93980Y54610
X91440Y54610
X88900Y54610
X86360Y54610
X86360Y34290
X88900Y34290
X101600Y34290
X104140Y34290
X91440Y34290
X93980Y34290
X99060Y34290
X96520Y34290
X104140Y41910
X101600Y41910
X99060Y41910
X96520Y41910
X93980Y41910
X91440Y41910
X88900Y41910
X86360Y41910
X36830Y21590
X87630Y21590
X100330Y21590
X102870Y21590
X90170Y21590
X92710Y21590
X97790Y21590
X95250Y21590
X102870Y29210
X100330Y29210
X97790Y29210
X95250Y29210
X92710Y29210
X90170Y29210
X87630Y29210
X85090Y29210
X85090Y8890
X87630Y8890
X100330Y8890
X102870Y8890
X90170Y8890
X92710Y8890
X97790Y8890
X95250Y8890
X102870Y16510
X100330Y16510
X97790Y16510
X95250Y16510
X92710Y16510
X90170Y16510
X87630Y16510
X85090Y16510
X19050Y74930
X21590Y74930
X34290Y74930
X36830Y74930
X24130Y74930
X26670Y74930
X31750Y74930
X29210Y74930
X39370Y74930
X41910Y74930
X41910Y82550
X39370Y82550
X36830Y82550
X34290Y82550
X31750Y82550
X29210Y82550
X26670Y82550
X24130Y82550
X21590Y82550
X19050Y82550
X54610Y46990
X57150Y46990
X69850Y46990
X72390Y46990
X59690Y46990
X62230Y46990
X67310Y46990
X64770Y46990
X74930Y46990
X77470Y46990
X77470Y54610
X74930Y54610
X72390Y54610
X69850Y54610
X67310Y54610
X64770Y54610
X62230Y54610
X59690Y54610
X57150Y54610
X54610Y54610
X53340Y21590
X55880Y21590
X68580Y21590
X71120Y21590
X58420Y21590
X60960Y21590
X66040Y21590
X63500Y21590
X73660Y21590
X76200Y21590
X76200Y29210
X73660Y29210
X71120Y29210
X68580Y29210
X66040Y29210
X63500Y29210
X60960Y29210
X58420Y29210
X55880Y29210
X53340Y29210
X144780Y21590
X147320Y21590
X160020Y21590
X162560Y21590
X149860Y21590
X152400Y21590
X157480Y21590
X154940Y21590
X162560Y29210
X160020Y29210
X157480Y29210
X154940Y29210
X152400Y29210
X149860Y29210
X147320Y29210
X144780Y29210
X144780Y34290
X147320Y34290
X160020Y34290
X162560Y34290
X149860Y34290
X152400Y34290
X157480Y34290
X154940Y34290
X162560Y41910
X160020Y41910
X157480Y41910
X154940Y41910
X152400Y41910
X149860Y41910
X147320Y41910
X144780Y41910
X144780Y46990
X147320Y46990
X160020Y46990
X162560Y46990
X149860Y46990
X152400Y46990
X157480Y46990
X154940Y46990
X162560Y54610
X160020Y54610
X157480Y54610
X154940Y54610
X152400Y54610
X149860Y54610
X147320Y54610
X144780Y54610
X113030Y21590
X115570Y21590
X128270Y21590
X130810Y21590
X118110Y21590
X120650Y21590
X125730Y21590
X123190Y21590
X133350Y21590
X135890Y21590
X135890Y29210
X133350Y29210
X130810Y29210
X128270Y29210
X125730Y29210
X123190Y29210
X120650Y29210
X118110Y29210
X115570Y29210
X113030Y29210
X113030Y46990
X115570Y46990
X128270Y46990
X130810Y46990
X118110Y46990
X120650Y46990
X125730Y46990
X123190Y46990
X133350Y46990
X135890Y46990
X135890Y54610
X133350Y54610
X130810Y54610
X128270Y54610
X125730Y54610
X123190Y54610
X120650Y54610
X118110Y54610
X115570Y54610
X113030Y54610
X39370Y21590
X34290Y21590
X31750Y21590
X41910Y29210
X41910Y21590
X29210Y21590
X26670Y21590
X144780Y3810
X154940Y3810
X171450Y3810
X173990Y3810
X21590Y12700
X24130Y12700
X26670Y12700
X29210Y12700
X31750Y12700
X34290Y12700
X36830Y12700
X39370Y12700
X41910Y12700
X46990Y12700
X49530Y12700
X52070Y12700
X54610Y12700
X26670Y107950
X57150Y12700
X59690Y12700
X62230Y12700
X64770Y12700
X67310Y12700
T4
X84773Y105727
X96520Y110172
X66358Y110172
X69533Y72073
X55562Y84455
X75883Y84773
X93662Y97790
X76518Y97790
X97155Y103505
X71120Y101282
X131128Y64452
X123825Y60007
X147003Y66040
X121920Y66040
X148908Y66675
X118745Y66358
X145098Y78105
X141923Y81280
X126047Y80010
X131763Y78105
X149543Y80645
X158433Y104140
X128905Y104775
X130810Y110172
X146050Y109855
X134303Y72390
X115570Y72390
X127635Y72073
X120015Y92075
X137478Y91757
X98107Y39688
X58102Y50165
X76200Y50165
X66358Y49530
X93345Y44767
X74295Y44132
X97472Y37783
X66993Y37783
X98107Y44132
X76835Y44132
X150813Y23177
X154623Y13017
X130175Y13017
X144780Y23812
X104457Y10478
X159385Y26670
X139065Y20320
X145733Y30797
X149543Y27305
X131763Y37148
X129857Y37148
X145733Y45402
X149543Y44767
X125730Y49212
X145733Y49530
X131763Y50800
X150813Y53022
X105410Y80645
X164783Y67628
X129222Y18415
X129222Y17145
X74930Y85090
X43815Y17463
X45085Y68898
X71755Y17463
X71120Y68580
X91122Y104775
X131445Y111442
X94932Y104775
X98742Y105410
X163830Y101600
X100965Y102870
X105410Y91757
X63817Y110172
X90805Y110807
X162243Y106045
X61277Y92075
X86360Y91440
X87630Y93027
X98425Y92075
X167005Y97155
X100965Y97790
X71438Y85408
X99377Y85408
X127000Y68263
X37783Y68263
X127635Y16510
X66040Y10795
X86043Y66675
X63817Y9843
X64135Y72390
X142240Y79375
X125095Y80010
X117157Y71438
X58737Y71120
X56832Y16828
X121285Y26035
X58420Y11747
X104775Y76835
X103187Y24447
X164148Y80963
X101282Y23177
X101282Y78105
X100012Y76518
X30480Y16192
X60642Y16192
X40958Y64135
X67945Y15557
X75248Y27622
X75248Y78105
X75248Y80645
X73343Y14922
X146685Y78740
X147003Y25400
X135255Y25400
X129222Y31432
X121285Y59055
X133033Y59372
X118427Y57467
X125095Y57785
X134620Y43815
X156528Y32067
X128270Y31750
X88582Y111442
X73343Y98107
X103187Y98107
X71120Y81598
X50165Y82233
X52070Y52705
X153353Y44450
X162243Y44450
X106045Y44132
X132398Y43815
X106045Y42863
X157798Y110807
X74295Y49530
X51435Y81598
X53022Y53657
X160973Y48895
X126365Y50800
X103187Y49212
X100330Y105092
X64135Y31432
X138430Y53975
X123507Y31750
X84455Y31115
X52070Y30797
X63500Y92075
X86043Y92392
X64452Y79058
X116205Y45085
X147003Y45085
X114300Y46037
X52705Y80963
X54927Y45085
X88582Y45085
X116522Y96520
X60960Y59055
X117157Y52705
X30797Y96837
X65723Y59690
X101282Y58737
X29527Y97790
X60642Y48577
X107315Y53340
X122555Y52070
X84773Y48577
X25717Y93345
X147320Y51435
X133033Y50800
X75248Y50800
X88582Y51435
X70485Y14287
X146685Y97790
X135890Y97790
X78740Y104140
X88900Y104140
X73660Y85090
X60960Y36513
X62865Y90170
X118745Y90487
X113665Y85408
X79693Y84773
X91440Y84773
X117475Y85090
X115887Y86678
X93027Y89217
X88582Y79375
X68263Y80328
X98425Y78740
X165418Y62865
X137160Y67310
X137795Y73025
X104140Y60007
X102235Y80645
X11747Y59055
X66358Y57150
X63500Y55562
X119062Y38735
X122872Y38735
X123190Y64135
X65405Y67310
X69215Y50800
X131763Y60642
X70803Y60642
X13970Y33655
X61595Y57785
X12700Y59690
X61277Y85408
X126682Y49847
X122555Y49212
X70485Y44450
X40640Y92075
X27622Y25400
X90805Y58420
X57467Y59690
X25717Y58420
X42863Y58420
X4445Y82550
X11747Y90805
X3492Y93345
X33338Y92075
X5715Y97790
X11747Y84773
X13335Y77788
X11112Y77153
X33338Y78740
X28575Y72708
X25717Y68263
X19050Y23495
X123190Y91440
X48895Y85090
X44450Y42863
X49530Y89217
X44450Y40323
X43180Y108902
X19368Y59690
X34925Y59055
X43815Y56832
X35560Y99060
X18415Y40323
X35243Y18098
X12700Y47625
X26987Y23495
X11112Y44132
X73343Y44132
X124460Y32067
X40323Y32067
X126047Y64452
X121285Y64452
X76518Y66675
X70803Y66675
X75565Y37148
X88900Y38418
X62547Y38735
X100012Y38100
X101600Y49212
X104457Y37148
X80645Y33338
X89852Y25082
X79693Y25082
X84773Y25717
X72073Y26352
X96202Y12700
X68898Y12700
X100012Y14605
X161925Y14605
X97472Y26352
X83185Y26670
X83185Y28257
X84773Y19685
X95250Y11430
X66040Y11747
X97790Y6350
X79375Y7937
X100647Y57150
X98425Y57785
X99695Y57150
X98425Y56832
X67945Y56832
X87313Y31432
X113665Y31432
X120967Y39370
X87947Y56197
X106362Y52705
X106362Y56197
X167005Y53340
X92392Y53022
X95885Y72708
X95885Y66040
X68580Y67310
X112395Y72390
X115887Y85090
X86360Y72073
X103187Y67628
X23495Y49530
M30