M48
;GenerationSoftware,Autodesk,EAGLE,9.6.2*%
;CreationDate,2021-07-19T19:34:34Z*%
FMAT,2
ICI,OFF
METRIC,TZ,000.000
T4C0.254
T3C0.813
T2C1.016
T1C2.794
%
G90
M71
T1
X2540Y101606
X2540Y12694
T2
X10160Y93980
X10160Y91440
X10160Y88900
X10160Y86360
X10160Y83820
X10160Y81280
X10160Y78740
X10160Y76200
X10160Y73660
X10160Y71120
X10160Y68580
X10160Y66040
X10160Y63500
X10160Y60960
X10160Y58420
X7620Y96520
X7620Y93980
X7620Y91440
X7620Y88900
X7620Y86360
X7620Y83820
X7620Y81280
X7620Y78740
X7620Y76200
X7620Y73660
X7620Y71120
X7620Y68580
X7620Y66040
X7620Y63500
X7620Y60960
X7620Y58420
X5080Y96520
X5080Y93980
X5080Y91440
X5080Y88900
X5080Y86360
X5080Y83820
X5080Y81280
X5080Y78740
X5080Y76200
X5080Y73660
X5080Y71120
X5080Y68580
X5080Y66040
X5080Y63500
X5080Y60960
X5080Y58420
X175260Y111760
X10160Y53340
X10160Y50800
X10160Y48260
X10160Y45720
X10160Y43180
X10160Y40640
X10160Y38100
X10160Y35560
X10160Y33020
X10160Y30480
X10160Y27940
X10160Y25400
X10160Y22860
X10160Y20320
X10160Y17780
X7620Y55880
X7620Y53340
X7620Y50800
X7620Y48260
X7620Y45720
X7620Y43180
X7620Y40640
X7620Y38100
X7620Y35560
X7620Y33020
X7620Y30480
X7620Y27940
X7620Y25400
X7620Y22860
X7620Y20320
X7620Y17780
X5080Y55880
X5080Y53340
X5080Y50800
X5080Y48260
X5080Y45720
X5080Y43180
X5080Y40640
X5080Y38100
X5080Y35560
X5080Y33020
X5080Y30480
X5080Y27940
X5080Y25400
X5080Y22860
X5080Y20320
X5080Y17780
X10160Y96520
X10160Y55880
T3
X38100Y25400
X62230Y5080
X35560Y25400
X38100Y50800
X35560Y50800
X38100Y76200
X35560Y76200
X127000Y87630
X124460Y87630
X127000Y60960
X124460Y60960
X127000Y34290
X124460Y34290
X127000Y7620
X124460Y7620
X152400Y87630
X149860Y87630
X152400Y59690
X149860Y59690
X152400Y34290
X149860Y34290
X152400Y7620
X149860Y7620
X76200Y87630
X73660Y87630
X76200Y60960
X73660Y60960
X76200Y34290
X73660Y34290
X76200Y7620
X73660Y7620
X101600Y87630
X99060Y87630
X101600Y60960
X99060Y60960
X101600Y34290
X99060Y34290
X101600Y7620
X99060Y7620
X152400Y20320
X149860Y20320
X152400Y46990
X149860Y46990
X152400Y72390
X149860Y72390
X152400Y100330
X149860Y100330
X127000Y20320
X124460Y20320
X127000Y46990
X124460Y46990
X127000Y73660
X124460Y73660
X127000Y100330
X124460Y100330
X133350Y33020
X133350Y35560
X133350Y38100
X133350Y40640
X133350Y43180
X133350Y45720
X133350Y48260
X133350Y50800
X133350Y53340
X82550Y34290
X82550Y36830
X82550Y39370
X82550Y41910
X82550Y44450
X82550Y46990
X82550Y49530
X82550Y52070
X82550Y54610
X101600Y20320
X99060Y20320
X101600Y46990
X99060Y46990
X101600Y73660
X99060Y73660
X101600Y100330
X99060Y100330
X76200Y20320
X73660Y20320
X76200Y46990
X73660Y46990
X76200Y73660
X73660Y73660
X76200Y100330
X73660Y100330
X133350Y87630
X133350Y90170
X133350Y92710
X133350Y95250
X133350Y97790
X133350Y100330
X133350Y102870
X133350Y105410
X133350Y107950
X82550Y87630
X82550Y90170
X82550Y92710
X82550Y95250
X82550Y97790
X82550Y100330
X82550Y102870
X82550Y105410
X175260Y3810
X172720Y3810
X175260Y10160
X175260Y20320
X19050Y96520
X19050Y93980
X19050Y81280
X26670Y81280
X19050Y91440
X19050Y88900
X19050Y83820
X19050Y86360
X26670Y83820
X26670Y86360
X26670Y88900
X26670Y91440
X26670Y93980
X26670Y96520
X19050Y73660
X19050Y71120
X19050Y58420
X19050Y55880
X19050Y68580
X19050Y66040
X19050Y60960
X19050Y63500
X26670Y55880
X26670Y58420
X26670Y60960
X26670Y63500
X26670Y66040
X26670Y68580
X26670Y71120
X26670Y73660
X19050Y48260
X19050Y45720
X19050Y33020
X19050Y30480
X19050Y43180
X19050Y40640
X19050Y35560
X19050Y38100
X26670Y30480
X26670Y33020
X26670Y35560
X26670Y38100
X26670Y40640
X26670Y43180
X26670Y45720
X26670Y48260
X73660Y107950
X73660Y105410
X73660Y81280
X73660Y78740
X73660Y54610
X73660Y52070
X73660Y27940
X73660Y25400
X99060Y107950
X99060Y105410
X99060Y81280
X99060Y78740
X99060Y54610
X99060Y52070
X99060Y27940
X99060Y25400
X124460Y107950
X124460Y105410
X124460Y81280
X124460Y78740
X124460Y54610
X124460Y52070
X124460Y27940
X124460Y25400
X149860Y107950
X149860Y105410
X149860Y80010
X149860Y77470
X149860Y54610
X149860Y52070
X149860Y27940
X149860Y25400
X21590Y99060
X24130Y99060
X21590Y76200
X24130Y76200
X21590Y50800
X24130Y50800
X21590Y25400
X24130Y25400
X19050Y22860
X19050Y20320
X19050Y7620
X19050Y5080
X19050Y17780
X19050Y15240
X19050Y10160
X19050Y12700
X26670Y5080
X26670Y7620
X26670Y10160
X26670Y12700
X26670Y15240
X26670Y17780
X26670Y20320
X26670Y22860
X24130Y111760
X21590Y111760
X8890Y111760
X8890Y104140
X19050Y111760
X16510Y111760
X11430Y111760
X13970Y111760
X11430Y104140
X13970Y104140
X16510Y104140
X19050Y104140
X21590Y104140
X24130Y104140
X7620Y10160
X7620Y7620
X15240Y7620
X15240Y10160
X7620Y5080
X7620Y2540
X15240Y5080
X15240Y2540
X29210Y107950
X26670Y107950
X15240Y26670
X15240Y24130
X15240Y21590
X15240Y19050
X15240Y16510
X40640Y22860
X62230Y107950
X62230Y105410
X62230Y92710
X62230Y90170
X62230Y102870
X62230Y100330
X62230Y95250
X62230Y97790
X62230Y87630
X62230Y85090
X69850Y85090
X69850Y87630
X69850Y90170
X69850Y92710
X69850Y95250
X69850Y97790
X69850Y100330
X69850Y102870
X69850Y105410
X69850Y107950
X33020Y73660
X33020Y71120
X33020Y58420
X33020Y55880
X33020Y68580
X33020Y66040
X33020Y60960
X33020Y63500
X40640Y55880
X40640Y58420
X40640Y60960
X40640Y63500
X40640Y66040
X40640Y68580
X40640Y71120
X40640Y73660
X33020Y48260
X33020Y45720
X33020Y33020
X33020Y30480
X33020Y43180
X33020Y40640
X33020Y35560
X33020Y38100
X40640Y30480
X40640Y33020
X40640Y35560
X40640Y38100
X40640Y40640
X40640Y43180
X40640Y45720
X40640Y48260
X33020Y22860
X33020Y20320
X33020Y7620
X40640Y7620
X33020Y17780
X33020Y15240
X33020Y10160
X33020Y12700
X40640Y10160
X40640Y12700
X40640Y15240
X40640Y17780
X40640Y20320
X82550Y107950
X62230Y81280
X62230Y78740
X62230Y66040
X62230Y63500
X62230Y76200
X62230Y73660
X62230Y68580
X62230Y71120
X62230Y60960
X62230Y58420
X69850Y58420
X69850Y60960
X69850Y63500
X69850Y66040
X69850Y68580
X69850Y71120
X69850Y73660
X69850Y76200
X69850Y78740
X69850Y81280
X62230Y54610
X62230Y52070
X62230Y39370
X62230Y36830
X62230Y49530
X62230Y46990
X62230Y41910
X62230Y44450
X62230Y34290
X62230Y31750
X69850Y31750
X69850Y34290
X69850Y36830
X69850Y39370
X69850Y41910
X69850Y44450
X69850Y46990
X69850Y49530
X69850Y52070
X69850Y54610
X62230Y27940
X62230Y25400
X62230Y12700
X62230Y10160
X62230Y22860
X62230Y20320
X62230Y15240
X62230Y17780
X62230Y7620
X146050Y27940
X69850Y5080
X69850Y7620
X69850Y10160
X69850Y12700
X69850Y15240
X69850Y17780
X69850Y20320
X69850Y22860
X69850Y25400
X69850Y27940
X87630Y107950
X87630Y105410
X87630Y92710
X87630Y90170
X87630Y102870
X87630Y100330
X87630Y95250
X87630Y97790
X87630Y87630
X87630Y85090
X95250Y85090
X95250Y87630
X95250Y90170
X95250Y92710
X95250Y95250
X95250Y97790
X95250Y100330
X95250Y102870
X95250Y105410
X95250Y107950
X87630Y81280
X87630Y78740
X87630Y66040
X87630Y63500
X87630Y76200
X87630Y73660
X87630Y68580
X87630Y71120
X87630Y60960
X87630Y58420
X95250Y58420
X95250Y60960
X95250Y63500
X95250Y66040
X95250Y68580
X95250Y71120
X95250Y73660
X95250Y76200
X95250Y78740
X95250Y81280
X87630Y54610
X87630Y52070
X87630Y39370
X87630Y36830
X87630Y49530
X87630Y46990
X87630Y41910
X87630Y44450
X87630Y34290
X87630Y31750
X95250Y31750
X95250Y34290
X95250Y36830
X95250Y39370
X95250Y41910
X95250Y44450
X95250Y46990
X95250Y49530
X95250Y52070
X95250Y54610
X87630Y27940
X87630Y25400
X87630Y12700
X87630Y10160
X87630Y22860
X87630Y20320
X87630Y15240
X87630Y17780
X87630Y7620
X87630Y5080
X95250Y5080
X95250Y7620
X95250Y10160
X95250Y12700
X95250Y15240
X95250Y17780
X95250Y20320
X95250Y22860
X95250Y25400
X95250Y27940
X113030Y107950
X113030Y105410
X113030Y92710
X113030Y90170
X113030Y102870
X113030Y100330
X113030Y95250
X113030Y97790
X113030Y87630
X113030Y85090
X120650Y85090
X120650Y87630
X120650Y90170
X120650Y92710
X120650Y95250
X120650Y97790
X120650Y100330
X120650Y102870
X120650Y105410
X120650Y107950
X113030Y81280
X113030Y78740
X113030Y66040
X113030Y63500
X113030Y76200
X113030Y73660
X113030Y68580
X113030Y71120
X113030Y60960
X113030Y58420
X120650Y58420
X120650Y60960
X120650Y63500
X120650Y66040
X120650Y68580
X120650Y71120
X120650Y73660
X120650Y76200
X120650Y78740
X120650Y81280
X113030Y54610
X113030Y52070
X113030Y39370
X113030Y36830
X113030Y49530
X113030Y46990
X113030Y41910
X113030Y44450
X113030Y34290
X113030Y31750
X120650Y31750
X120650Y34290
X120650Y36830
X120650Y39370
X120650Y41910
X120650Y44450
X120650Y46990
X120650Y49530
X120650Y52070
X120650Y54610
X113030Y27940
X113030Y25400
X113030Y12700
X113030Y10160
X113030Y22860
X113030Y20320
X113030Y15240
X113030Y17780
X113030Y7620
X113030Y5080
X120650Y5080
X120650Y7620
X120650Y10160
X120650Y12700
X120650Y15240
X120650Y17780
X120650Y20320
X120650Y22860
X120650Y25400
X120650Y27940
X138430Y107950
X138430Y105410
X138430Y92710
X138430Y90170
X138430Y102870
X138430Y100330
X138430Y95250
X138430Y97790
X138430Y87630
X138430Y85090
X146050Y85090
X146050Y87630
X146050Y90170
X146050Y92710
X146050Y95250
X146050Y97790
X146050Y100330
X146050Y102870
X146050Y105410
X146050Y107950
X138430Y81280
X138430Y78740
X138430Y66040
X138430Y63500
X138430Y76200
X138430Y73660
X138430Y68580
X138430Y71120
X138430Y60960
X138430Y58420
X146050Y58420
X146050Y60960
X146050Y63500
X146050Y66040
X146050Y68580
X146050Y71120
X146050Y73660
X146050Y76200
X146050Y78740
X146050Y81280
X138430Y54610
X138430Y52070
X138430Y39370
X138430Y36830
X138430Y49530
X138430Y46990
X138430Y41910
X138430Y44450
X138430Y34290
X138430Y31750
X146050Y31750
X146050Y34290
X146050Y36830
X146050Y39370
X146050Y41910
X146050Y44450
X146050Y46990
X146050Y49530
X146050Y52070
X146050Y54610
X138430Y27940
X138430Y25400
X138430Y12700
X138430Y10160
X138430Y22860
X138430Y20320
X138430Y15240
X138430Y17780
X138430Y7620
X138430Y5080
X146050Y5080
X146050Y7620
X146050Y10160
X146050Y12700
X146050Y15240
X146050Y17780
X146050Y20320
X146050Y22860
X146050Y25400
T4
X85090Y59055
X78105Y46355
X125412Y56832
X78740Y30797
X80645Y104457
X126047Y103822
X115252Y77153
X11112Y56832
X64452Y47307
X115252Y23812
X65087Y73978
X11430Y86995
X23177Y69533
X23495Y66993
X71120Y74613
X92075Y43498
X67628Y73978
X118427Y49847
X66993Y79693
X143828Y25717
X16828Y71755
X17463Y31432
X16192Y71120
X36513Y44132
X11747Y59372
X23177Y32067
X6985Y14287
X24447Y37148
X16828Y96202
X4763Y90170
X4763Y87630
X3810Y85090
X24765Y78423
X23177Y82868
X24130Y59372
X17780Y82233
X15557Y69850
X12065Y89217
X37148Y78423
X12065Y79058
X9208Y98107
X14287Y32067
X22542Y23812
X22542Y87313
X56197Y72708
X28892Y80328
X63817Y72708
X28892Y56197
X67628Y51117
X66993Y54292
X71120Y28892
X23177Y34290
X38735Y91122
X93662Y101917
X56197Y60007
X59372Y80328
X86360Y70168
X86360Y46037
X23812Y56197
X93345Y27622
X29527Y80963
X34925Y68263
X109537Y74930
X126047Y53657
X110490Y38418
X111760Y21907
X30162Y44767
X41910Y44767
X41910Y32067
X60007Y76200
X44450Y62865
X3492Y36830
X23812Y21273
X14287Y41275
X14287Y65405
X43815Y80963
X43815Y57467
X74295Y57785
X63817Y65087
X65723Y32702
X64452Y61912
X103505Y63817
X101282Y85408
X103505Y56197
X98425Y31750
X54927Y80963
X123825Y84455
X100965Y42863
X110807Y58420
X100965Y37783
X149225Y35878
X59372Y56515
X31432Y26352
X99695Y88900
X97472Y91757
X39053Y21590
X131763Y47625
X135890Y23177
X84138Y85725
X78423Y52705
X129540Y49212
X134938Y8573
X148273Y43498
X129540Y45402
X134938Y85725
X80963Y86360
X72390Y86043
M30