G04 EAGLE Gerber RS-274X export*
G75*
%MOMM*%
%FSLAX34Y34*%
%LPD*%
%INBottom Copper*%
%IPPOS*%
%AMOC8*
5,1,8,0,0,1.08239X$1,22.5*%
G01*
%ADD10P,1.649562X8X202.500000*%
%ADD11P,1.319650X8X202.500000*%
%ADD12P,1.319650X8X112.500000*%
%ADD13C,1.219200*%
%ADD14P,1.319650X8X292.500000*%
%ADD15P,1.319650X8X22.500000*%
%ADD16P,1.649562X8X22.500000*%
%ADD17P,1.814519X8X22.500000*%
%ADD18C,0.254000*%
%ADD19C,0.558800*%


D10*
X50800Y177800D03*
X50800Y203200D03*
X50800Y228600D03*
X50800Y254000D03*
X50800Y279400D03*
X50800Y304800D03*
X50800Y330200D03*
X50800Y355600D03*
X50800Y381000D03*
X50800Y406400D03*
X50800Y431800D03*
X50800Y457200D03*
X50800Y482600D03*
X50800Y508000D03*
X50800Y533400D03*
X50800Y558800D03*
X76200Y177800D03*
X76200Y203200D03*
X76200Y228600D03*
X76200Y254000D03*
X76200Y279400D03*
X76200Y304800D03*
X76200Y330200D03*
X76200Y355600D03*
X76200Y381000D03*
X76200Y406400D03*
X76200Y431800D03*
X76200Y457200D03*
X76200Y482600D03*
X76200Y508000D03*
X76200Y533400D03*
X76200Y558800D03*
X101600Y177800D03*
X101600Y203200D03*
X101600Y228600D03*
X101600Y254000D03*
X101600Y279400D03*
X101600Y304800D03*
X101600Y330200D03*
X101600Y355600D03*
X101600Y381000D03*
X101600Y406400D03*
X101600Y431800D03*
X101600Y457200D03*
X101600Y482600D03*
X101600Y508000D03*
X101600Y533400D03*
X101600Y558800D03*
X50800Y584200D03*
X50800Y609600D03*
X50800Y635000D03*
X50800Y660400D03*
X50800Y685800D03*
X50800Y711200D03*
X50800Y736600D03*
X50800Y762000D03*
X50800Y787400D03*
X50800Y812800D03*
X50800Y838200D03*
X50800Y863600D03*
X50800Y889000D03*
X50800Y914400D03*
X50800Y939800D03*
X50800Y965200D03*
X76200Y584200D03*
X76200Y609600D03*
X76200Y635000D03*
X76200Y660400D03*
X76200Y685800D03*
X76200Y711200D03*
X76200Y736600D03*
X76200Y762000D03*
X76200Y787400D03*
X76200Y812800D03*
X76200Y838200D03*
X76200Y863600D03*
X76200Y889000D03*
X76200Y914400D03*
X76200Y939800D03*
X76200Y965200D03*
X101600Y584200D03*
X101600Y609600D03*
X101600Y635000D03*
X101600Y660400D03*
X101600Y685800D03*
X101600Y711200D03*
X101600Y736600D03*
X101600Y762000D03*
X101600Y787400D03*
X101600Y812800D03*
X101600Y838200D03*
X101600Y863600D03*
X101600Y889000D03*
X101600Y914400D03*
X101600Y939800D03*
X101600Y965200D03*
D11*
X1752600Y38100D03*
X1727200Y38100D03*
D12*
X1752600Y101600D03*
X1752600Y203200D03*
D13*
X196596Y965200D02*
X184404Y965200D01*
X184404Y939800D02*
X196596Y939800D01*
X196596Y812800D02*
X184404Y812800D01*
X260604Y812800D02*
X272796Y812800D01*
X196596Y914400D02*
X184404Y914400D01*
X184404Y889000D02*
X196596Y889000D01*
X196596Y838200D02*
X184404Y838200D01*
X184404Y863600D02*
X196596Y863600D01*
X260604Y838200D02*
X272796Y838200D01*
X272796Y863600D02*
X260604Y863600D01*
X260604Y889000D02*
X272796Y889000D01*
X272796Y914400D02*
X260604Y914400D01*
X260604Y939800D02*
X272796Y939800D01*
X272796Y965200D02*
X260604Y965200D01*
X196596Y736600D02*
X184404Y736600D01*
X184404Y711200D02*
X196596Y711200D01*
X196596Y584200D02*
X184404Y584200D01*
X184404Y558800D02*
X196596Y558800D01*
X196596Y685800D02*
X184404Y685800D01*
X184404Y660400D02*
X196596Y660400D01*
X196596Y609600D02*
X184404Y609600D01*
X184404Y635000D02*
X196596Y635000D01*
X260604Y558800D02*
X272796Y558800D01*
X272796Y584200D02*
X260604Y584200D01*
X260604Y609600D02*
X272796Y609600D01*
X272796Y635000D02*
X260604Y635000D01*
X260604Y660400D02*
X272796Y660400D01*
X272796Y685800D02*
X260604Y685800D01*
X260604Y711200D02*
X272796Y711200D01*
X272796Y736600D02*
X260604Y736600D01*
X196596Y482600D02*
X184404Y482600D01*
X184404Y457200D02*
X196596Y457200D01*
X196596Y330200D02*
X184404Y330200D01*
X184404Y304800D02*
X196596Y304800D01*
X196596Y431800D02*
X184404Y431800D01*
X184404Y406400D02*
X196596Y406400D01*
X196596Y355600D02*
X184404Y355600D01*
X184404Y381000D02*
X196596Y381000D01*
X260604Y304800D02*
X272796Y304800D01*
X272796Y330200D02*
X260604Y330200D01*
X260604Y355600D02*
X272796Y355600D01*
X272796Y381000D02*
X260604Y381000D01*
X260604Y406400D02*
X272796Y406400D01*
X272796Y431800D02*
X260604Y431800D01*
X260604Y457200D02*
X272796Y457200D01*
X272796Y482600D02*
X260604Y482600D01*
D14*
X736600Y1079500D03*
X736600Y1054100D03*
X736600Y812800D03*
X736600Y787400D03*
X736600Y546100D03*
X736600Y520700D03*
X736600Y279400D03*
X736600Y254000D03*
X990600Y1079500D03*
X990600Y1054100D03*
X990600Y812800D03*
X990600Y787400D03*
X990600Y546100D03*
X990600Y520700D03*
X990600Y279400D03*
X990600Y254000D03*
X1244600Y1079500D03*
X1244600Y1054100D03*
X1244600Y812800D03*
X1244600Y787400D03*
X1244600Y546100D03*
X1244600Y520700D03*
X1244600Y279400D03*
X1244600Y254000D03*
X1498600Y1079500D03*
X1498600Y1054100D03*
X1498600Y800100D03*
X1498600Y774700D03*
X1498600Y546100D03*
X1498600Y520700D03*
X1498600Y279400D03*
X1498600Y254000D03*
D15*
X215900Y990600D03*
X241300Y990600D03*
X215900Y762000D03*
X241300Y762000D03*
X215900Y508000D03*
X241300Y508000D03*
X215900Y254000D03*
X241300Y254000D03*
D13*
X196596Y228600D02*
X184404Y228600D01*
X184404Y203200D02*
X196596Y203200D01*
X196596Y76200D02*
X184404Y76200D01*
X184404Y50800D02*
X196596Y50800D01*
X196596Y177800D02*
X184404Y177800D01*
X184404Y152400D02*
X196596Y152400D01*
X196596Y101600D02*
X184404Y101600D01*
X184404Y127000D02*
X196596Y127000D01*
X260604Y50800D02*
X272796Y50800D01*
X272796Y76200D02*
X260604Y76200D01*
X260604Y101600D02*
X272796Y101600D01*
X272796Y127000D02*
X260604Y127000D01*
X260604Y152400D02*
X272796Y152400D01*
X272796Y177800D02*
X260604Y177800D01*
X260604Y203200D02*
X272796Y203200D01*
X272796Y228600D02*
X260604Y228600D01*
X241300Y1111504D02*
X241300Y1123696D01*
X215900Y1123696D02*
X215900Y1111504D01*
X88900Y1111504D02*
X88900Y1123696D01*
X88900Y1047496D02*
X88900Y1035304D01*
X190500Y1111504D02*
X190500Y1123696D01*
X165100Y1123696D02*
X165100Y1111504D01*
X114300Y1111504D02*
X114300Y1123696D01*
X139700Y1123696D02*
X139700Y1111504D01*
X114300Y1047496D02*
X114300Y1035304D01*
X139700Y1035304D02*
X139700Y1047496D01*
X165100Y1047496D02*
X165100Y1035304D01*
X190500Y1035304D02*
X190500Y1047496D01*
X215900Y1047496D02*
X215900Y1035304D01*
X241300Y1035304D02*
X241300Y1047496D01*
X82296Y101600D02*
X70104Y101600D01*
X70104Y76200D02*
X82296Y76200D01*
X146304Y76200D02*
X158496Y76200D01*
X158496Y101600D02*
X146304Y101600D01*
X82296Y50800D02*
X70104Y50800D01*
X70104Y25400D02*
X82296Y25400D01*
X146304Y50800D02*
X158496Y50800D01*
X158496Y25400D02*
X146304Y25400D01*
D11*
X292100Y1079500D03*
X266700Y1079500D03*
D13*
X158496Y266700D02*
X146304Y266700D01*
X146304Y241300D02*
X158496Y241300D01*
X158496Y215900D02*
X146304Y215900D01*
X146304Y190500D02*
X158496Y190500D01*
X158496Y165100D02*
X146304Y165100D01*
D16*
X1752600Y1117600D03*
D13*
X628396Y1079500D02*
X616204Y1079500D01*
X616204Y1054100D02*
X628396Y1054100D01*
X628396Y927100D02*
X616204Y927100D01*
X616204Y901700D02*
X628396Y901700D01*
X628396Y1028700D02*
X616204Y1028700D01*
X616204Y1003300D02*
X628396Y1003300D01*
X628396Y952500D02*
X616204Y952500D01*
X616204Y977900D02*
X628396Y977900D01*
X628396Y876300D02*
X616204Y876300D01*
X616204Y850900D02*
X628396Y850900D01*
X692404Y850900D02*
X704596Y850900D01*
X704596Y876300D02*
X692404Y876300D01*
X692404Y901700D02*
X704596Y901700D01*
X704596Y927100D02*
X692404Y927100D01*
X692404Y952500D02*
X704596Y952500D01*
X704596Y977900D02*
X692404Y977900D01*
X692404Y1003300D02*
X704596Y1003300D01*
X704596Y1028700D02*
X692404Y1028700D01*
X692404Y1054100D02*
X704596Y1054100D01*
X704596Y1079500D02*
X692404Y1079500D01*
X336296Y736600D02*
X324104Y736600D01*
X324104Y711200D02*
X336296Y711200D01*
X336296Y584200D02*
X324104Y584200D01*
X324104Y558800D02*
X336296Y558800D01*
X336296Y685800D02*
X324104Y685800D01*
X324104Y660400D02*
X336296Y660400D01*
X336296Y609600D02*
X324104Y609600D01*
X324104Y635000D02*
X336296Y635000D01*
X400304Y558800D02*
X412496Y558800D01*
X412496Y584200D02*
X400304Y584200D01*
X400304Y609600D02*
X412496Y609600D01*
X412496Y635000D02*
X400304Y635000D01*
X400304Y660400D02*
X412496Y660400D01*
X412496Y685800D02*
X400304Y685800D01*
X400304Y711200D02*
X412496Y711200D01*
X412496Y736600D02*
X400304Y736600D01*
X336296Y482600D02*
X324104Y482600D01*
X324104Y457200D02*
X336296Y457200D01*
X336296Y330200D02*
X324104Y330200D01*
X324104Y304800D02*
X336296Y304800D01*
X336296Y431800D02*
X324104Y431800D01*
X324104Y406400D02*
X336296Y406400D01*
X336296Y355600D02*
X324104Y355600D01*
X324104Y381000D02*
X336296Y381000D01*
X400304Y304800D02*
X412496Y304800D01*
X412496Y330200D02*
X400304Y330200D01*
X400304Y355600D02*
X412496Y355600D01*
X412496Y381000D02*
X400304Y381000D01*
X400304Y406400D02*
X412496Y406400D01*
X412496Y431800D02*
X400304Y431800D01*
X400304Y457200D02*
X412496Y457200D01*
X412496Y482600D02*
X400304Y482600D01*
X336296Y228600D02*
X324104Y228600D01*
X324104Y203200D02*
X336296Y203200D01*
X336296Y76200D02*
X324104Y76200D01*
X400304Y76200D02*
X412496Y76200D01*
X336296Y177800D02*
X324104Y177800D01*
X324104Y152400D02*
X336296Y152400D01*
X336296Y101600D02*
X324104Y101600D01*
X324104Y127000D02*
X336296Y127000D01*
X400304Y101600D02*
X412496Y101600D01*
X412496Y127000D02*
X400304Y127000D01*
X400304Y152400D02*
X412496Y152400D01*
X412496Y177800D02*
X400304Y177800D01*
X400304Y203200D02*
X412496Y203200D01*
X412496Y228600D02*
X400304Y228600D01*
X616204Y812800D02*
X628396Y812800D01*
X628396Y787400D02*
X616204Y787400D01*
X616204Y660400D02*
X628396Y660400D01*
X628396Y635000D02*
X616204Y635000D01*
X616204Y762000D02*
X628396Y762000D01*
X628396Y736600D02*
X616204Y736600D01*
X616204Y685800D02*
X628396Y685800D01*
X628396Y711200D02*
X616204Y711200D01*
X616204Y609600D02*
X628396Y609600D01*
X628396Y584200D02*
X616204Y584200D01*
X692404Y584200D02*
X704596Y584200D01*
X704596Y609600D02*
X692404Y609600D01*
X692404Y635000D02*
X704596Y635000D01*
X704596Y660400D02*
X692404Y660400D01*
X692404Y685800D02*
X704596Y685800D01*
X704596Y711200D02*
X692404Y711200D01*
X692404Y736600D02*
X704596Y736600D01*
X704596Y762000D02*
X692404Y762000D01*
X692404Y787400D02*
X704596Y787400D01*
X704596Y812800D02*
X692404Y812800D01*
X628396Y546100D02*
X616204Y546100D01*
X616204Y520700D02*
X628396Y520700D01*
X628396Y393700D02*
X616204Y393700D01*
X616204Y368300D02*
X628396Y368300D01*
X628396Y495300D02*
X616204Y495300D01*
X616204Y469900D02*
X628396Y469900D01*
X628396Y419100D02*
X616204Y419100D01*
X616204Y444500D02*
X628396Y444500D01*
X628396Y342900D02*
X616204Y342900D01*
X616204Y317500D02*
X628396Y317500D01*
X692404Y317500D02*
X704596Y317500D01*
X704596Y342900D02*
X692404Y342900D01*
X692404Y368300D02*
X704596Y368300D01*
X704596Y393700D02*
X692404Y393700D01*
X692404Y419100D02*
X704596Y419100D01*
X704596Y444500D02*
X692404Y444500D01*
X692404Y469900D02*
X704596Y469900D01*
X704596Y495300D02*
X692404Y495300D01*
X692404Y520700D02*
X704596Y520700D01*
X704596Y546100D02*
X692404Y546100D01*
X628396Y279400D02*
X616204Y279400D01*
X616204Y254000D02*
X628396Y254000D01*
X628396Y127000D02*
X616204Y127000D01*
X616204Y101600D02*
X628396Y101600D01*
X628396Y228600D02*
X616204Y228600D01*
X616204Y203200D02*
X628396Y203200D01*
X628396Y152400D02*
X616204Y152400D01*
X616204Y177800D02*
X628396Y177800D01*
X628396Y76200D02*
X616204Y76200D01*
X616204Y50800D02*
X628396Y50800D01*
X692404Y50800D02*
X704596Y50800D01*
X704596Y76200D02*
X692404Y76200D01*
X692404Y101600D02*
X704596Y101600D01*
X704596Y127000D02*
X692404Y127000D01*
X692404Y152400D02*
X704596Y152400D01*
X704596Y177800D02*
X692404Y177800D01*
X692404Y203200D02*
X704596Y203200D01*
X704596Y228600D02*
X692404Y228600D01*
X692404Y254000D02*
X704596Y254000D01*
X704596Y279400D02*
X692404Y279400D01*
X870204Y1079500D02*
X882396Y1079500D01*
X882396Y1054100D02*
X870204Y1054100D01*
X870204Y927100D02*
X882396Y927100D01*
X882396Y901700D02*
X870204Y901700D01*
X870204Y1028700D02*
X882396Y1028700D01*
X882396Y1003300D02*
X870204Y1003300D01*
X870204Y952500D02*
X882396Y952500D01*
X882396Y977900D02*
X870204Y977900D01*
X870204Y876300D02*
X882396Y876300D01*
X882396Y850900D02*
X870204Y850900D01*
X946404Y850900D02*
X958596Y850900D01*
X958596Y876300D02*
X946404Y876300D01*
X946404Y901700D02*
X958596Y901700D01*
X958596Y927100D02*
X946404Y927100D01*
X946404Y952500D02*
X958596Y952500D01*
X958596Y977900D02*
X946404Y977900D01*
X946404Y1003300D02*
X958596Y1003300D01*
X958596Y1028700D02*
X946404Y1028700D01*
X946404Y1054100D02*
X958596Y1054100D01*
X958596Y1079500D02*
X946404Y1079500D01*
X882396Y812800D02*
X870204Y812800D01*
X870204Y787400D02*
X882396Y787400D01*
X882396Y660400D02*
X870204Y660400D01*
X870204Y635000D02*
X882396Y635000D01*
X882396Y762000D02*
X870204Y762000D01*
X870204Y736600D02*
X882396Y736600D01*
X882396Y685800D02*
X870204Y685800D01*
X870204Y711200D02*
X882396Y711200D01*
X882396Y609600D02*
X870204Y609600D01*
X870204Y584200D02*
X882396Y584200D01*
X946404Y584200D02*
X958596Y584200D01*
X958596Y609600D02*
X946404Y609600D01*
X946404Y635000D02*
X958596Y635000D01*
X958596Y660400D02*
X946404Y660400D01*
X946404Y685800D02*
X958596Y685800D01*
X958596Y711200D02*
X946404Y711200D01*
X946404Y736600D02*
X958596Y736600D01*
X958596Y762000D02*
X946404Y762000D01*
X946404Y787400D02*
X958596Y787400D01*
X958596Y812800D02*
X946404Y812800D01*
X882396Y546100D02*
X870204Y546100D01*
X870204Y520700D02*
X882396Y520700D01*
X882396Y393700D02*
X870204Y393700D01*
X870204Y368300D02*
X882396Y368300D01*
X882396Y495300D02*
X870204Y495300D01*
X870204Y469900D02*
X882396Y469900D01*
X882396Y419100D02*
X870204Y419100D01*
X870204Y444500D02*
X882396Y444500D01*
X882396Y342900D02*
X870204Y342900D01*
X870204Y317500D02*
X882396Y317500D01*
X946404Y317500D02*
X958596Y317500D01*
X958596Y342900D02*
X946404Y342900D01*
X946404Y368300D02*
X958596Y368300D01*
X958596Y393700D02*
X946404Y393700D01*
X946404Y419100D02*
X958596Y419100D01*
X958596Y444500D02*
X946404Y444500D01*
X946404Y469900D02*
X958596Y469900D01*
X958596Y495300D02*
X946404Y495300D01*
X946404Y520700D02*
X958596Y520700D01*
X958596Y546100D02*
X946404Y546100D01*
X882396Y279400D02*
X870204Y279400D01*
X870204Y254000D02*
X882396Y254000D01*
X882396Y127000D02*
X870204Y127000D01*
X870204Y101600D02*
X882396Y101600D01*
X882396Y228600D02*
X870204Y228600D01*
X870204Y203200D02*
X882396Y203200D01*
X882396Y152400D02*
X870204Y152400D01*
X870204Y177800D02*
X882396Y177800D01*
X882396Y76200D02*
X870204Y76200D01*
X870204Y50800D02*
X882396Y50800D01*
X946404Y50800D02*
X958596Y50800D01*
X958596Y76200D02*
X946404Y76200D01*
X946404Y101600D02*
X958596Y101600D01*
X958596Y127000D02*
X946404Y127000D01*
X946404Y152400D02*
X958596Y152400D01*
X958596Y177800D02*
X946404Y177800D01*
X946404Y203200D02*
X958596Y203200D01*
X958596Y228600D02*
X946404Y228600D01*
X946404Y254000D02*
X958596Y254000D01*
X958596Y279400D02*
X946404Y279400D01*
X1124204Y1079500D02*
X1136396Y1079500D01*
X1136396Y1054100D02*
X1124204Y1054100D01*
X1124204Y927100D02*
X1136396Y927100D01*
X1136396Y901700D02*
X1124204Y901700D01*
X1124204Y1028700D02*
X1136396Y1028700D01*
X1136396Y1003300D02*
X1124204Y1003300D01*
X1124204Y952500D02*
X1136396Y952500D01*
X1136396Y977900D02*
X1124204Y977900D01*
X1124204Y876300D02*
X1136396Y876300D01*
X1136396Y850900D02*
X1124204Y850900D01*
X1200404Y850900D02*
X1212596Y850900D01*
X1212596Y876300D02*
X1200404Y876300D01*
X1200404Y901700D02*
X1212596Y901700D01*
X1212596Y927100D02*
X1200404Y927100D01*
X1200404Y952500D02*
X1212596Y952500D01*
X1212596Y977900D02*
X1200404Y977900D01*
X1200404Y1003300D02*
X1212596Y1003300D01*
X1212596Y1028700D02*
X1200404Y1028700D01*
X1200404Y1054100D02*
X1212596Y1054100D01*
X1212596Y1079500D02*
X1200404Y1079500D01*
X1136396Y812800D02*
X1124204Y812800D01*
X1124204Y787400D02*
X1136396Y787400D01*
X1136396Y660400D02*
X1124204Y660400D01*
X1124204Y635000D02*
X1136396Y635000D01*
X1136396Y762000D02*
X1124204Y762000D01*
X1124204Y736600D02*
X1136396Y736600D01*
X1136396Y685800D02*
X1124204Y685800D01*
X1124204Y711200D02*
X1136396Y711200D01*
X1136396Y609600D02*
X1124204Y609600D01*
X1124204Y584200D02*
X1136396Y584200D01*
X1200404Y584200D02*
X1212596Y584200D01*
X1212596Y609600D02*
X1200404Y609600D01*
X1200404Y635000D02*
X1212596Y635000D01*
X1212596Y660400D02*
X1200404Y660400D01*
X1200404Y685800D02*
X1212596Y685800D01*
X1212596Y711200D02*
X1200404Y711200D01*
X1200404Y736600D02*
X1212596Y736600D01*
X1212596Y762000D02*
X1200404Y762000D01*
X1200404Y787400D02*
X1212596Y787400D01*
X1212596Y812800D02*
X1200404Y812800D01*
X1136396Y546100D02*
X1124204Y546100D01*
X1124204Y520700D02*
X1136396Y520700D01*
X1136396Y393700D02*
X1124204Y393700D01*
X1124204Y368300D02*
X1136396Y368300D01*
X1136396Y495300D02*
X1124204Y495300D01*
X1124204Y469900D02*
X1136396Y469900D01*
X1136396Y419100D02*
X1124204Y419100D01*
X1124204Y444500D02*
X1136396Y444500D01*
X1136396Y342900D02*
X1124204Y342900D01*
X1124204Y317500D02*
X1136396Y317500D01*
X1200404Y317500D02*
X1212596Y317500D01*
X1212596Y342900D02*
X1200404Y342900D01*
X1200404Y368300D02*
X1212596Y368300D01*
X1212596Y393700D02*
X1200404Y393700D01*
X1200404Y419100D02*
X1212596Y419100D01*
X1212596Y444500D02*
X1200404Y444500D01*
X1200404Y469900D02*
X1212596Y469900D01*
X1212596Y495300D02*
X1200404Y495300D01*
X1200404Y520700D02*
X1212596Y520700D01*
X1212596Y546100D02*
X1200404Y546100D01*
X1136396Y279400D02*
X1124204Y279400D01*
X1124204Y254000D02*
X1136396Y254000D01*
X1136396Y127000D02*
X1124204Y127000D01*
X1124204Y101600D02*
X1136396Y101600D01*
X1136396Y228600D02*
X1124204Y228600D01*
X1124204Y203200D02*
X1136396Y203200D01*
X1136396Y152400D02*
X1124204Y152400D01*
X1124204Y177800D02*
X1136396Y177800D01*
X1136396Y76200D02*
X1124204Y76200D01*
X1124204Y50800D02*
X1136396Y50800D01*
X1200404Y50800D02*
X1212596Y50800D01*
X1212596Y76200D02*
X1200404Y76200D01*
X1200404Y101600D02*
X1212596Y101600D01*
X1212596Y127000D02*
X1200404Y127000D01*
X1200404Y152400D02*
X1212596Y152400D01*
X1212596Y177800D02*
X1200404Y177800D01*
X1200404Y203200D02*
X1212596Y203200D01*
X1212596Y228600D02*
X1200404Y228600D01*
X1200404Y254000D02*
X1212596Y254000D01*
X1212596Y279400D02*
X1200404Y279400D01*
X1378204Y1079500D02*
X1390396Y1079500D01*
X1390396Y1054100D02*
X1378204Y1054100D01*
X1378204Y927100D02*
X1390396Y927100D01*
X1390396Y901700D02*
X1378204Y901700D01*
X1378204Y1028700D02*
X1390396Y1028700D01*
X1390396Y1003300D02*
X1378204Y1003300D01*
X1378204Y952500D02*
X1390396Y952500D01*
X1390396Y977900D02*
X1378204Y977900D01*
X1378204Y876300D02*
X1390396Y876300D01*
X1390396Y850900D02*
X1378204Y850900D01*
X1454404Y850900D02*
X1466596Y850900D01*
X1466596Y876300D02*
X1454404Y876300D01*
X1454404Y901700D02*
X1466596Y901700D01*
X1466596Y927100D02*
X1454404Y927100D01*
X1454404Y952500D02*
X1466596Y952500D01*
X1466596Y977900D02*
X1454404Y977900D01*
X1454404Y1003300D02*
X1466596Y1003300D01*
X1466596Y1028700D02*
X1454404Y1028700D01*
X1454404Y1054100D02*
X1466596Y1054100D01*
X1466596Y1079500D02*
X1454404Y1079500D01*
X1390396Y812800D02*
X1378204Y812800D01*
X1378204Y787400D02*
X1390396Y787400D01*
X1390396Y660400D02*
X1378204Y660400D01*
X1378204Y635000D02*
X1390396Y635000D01*
X1390396Y762000D02*
X1378204Y762000D01*
X1378204Y736600D02*
X1390396Y736600D01*
X1390396Y685800D02*
X1378204Y685800D01*
X1378204Y711200D02*
X1390396Y711200D01*
X1390396Y609600D02*
X1378204Y609600D01*
X1378204Y584200D02*
X1390396Y584200D01*
X1454404Y584200D02*
X1466596Y584200D01*
X1466596Y609600D02*
X1454404Y609600D01*
X1454404Y635000D02*
X1466596Y635000D01*
X1466596Y660400D02*
X1454404Y660400D01*
X1454404Y685800D02*
X1466596Y685800D01*
X1466596Y711200D02*
X1454404Y711200D01*
X1454404Y736600D02*
X1466596Y736600D01*
X1466596Y762000D02*
X1454404Y762000D01*
X1454404Y787400D02*
X1466596Y787400D01*
X1466596Y812800D02*
X1454404Y812800D01*
X1390396Y546100D02*
X1378204Y546100D01*
X1378204Y520700D02*
X1390396Y520700D01*
X1390396Y393700D02*
X1378204Y393700D01*
X1378204Y368300D02*
X1390396Y368300D01*
X1390396Y495300D02*
X1378204Y495300D01*
X1378204Y469900D02*
X1390396Y469900D01*
X1390396Y419100D02*
X1378204Y419100D01*
X1378204Y444500D02*
X1390396Y444500D01*
X1390396Y342900D02*
X1378204Y342900D01*
X1378204Y317500D02*
X1390396Y317500D01*
X1454404Y317500D02*
X1466596Y317500D01*
X1466596Y342900D02*
X1454404Y342900D01*
X1454404Y368300D02*
X1466596Y368300D01*
X1466596Y393700D02*
X1454404Y393700D01*
X1454404Y419100D02*
X1466596Y419100D01*
X1466596Y444500D02*
X1454404Y444500D01*
X1454404Y469900D02*
X1466596Y469900D01*
X1466596Y495300D02*
X1454404Y495300D01*
X1454404Y520700D02*
X1466596Y520700D01*
X1466596Y546100D02*
X1454404Y546100D01*
X1390396Y279400D02*
X1378204Y279400D01*
X1378204Y254000D02*
X1390396Y254000D01*
X1390396Y127000D02*
X1378204Y127000D01*
X1378204Y101600D02*
X1390396Y101600D01*
X1390396Y228600D02*
X1378204Y228600D01*
X1378204Y203200D02*
X1390396Y203200D01*
X1390396Y152400D02*
X1378204Y152400D01*
X1378204Y177800D02*
X1390396Y177800D01*
X1390396Y76200D02*
X1378204Y76200D01*
X1378204Y50800D02*
X1390396Y50800D01*
X1454404Y50800D02*
X1466596Y50800D01*
X1466596Y76200D02*
X1454404Y76200D01*
X1454404Y101600D02*
X1466596Y101600D01*
X1466596Y127000D02*
X1454404Y127000D01*
X1454404Y152400D02*
X1466596Y152400D01*
X1466596Y177800D02*
X1454404Y177800D01*
X1454404Y203200D02*
X1466596Y203200D01*
X1466596Y228600D02*
X1454404Y228600D01*
X1454404Y254000D02*
X1466596Y254000D01*
X1466596Y279400D02*
X1454404Y279400D01*
X831596Y1079500D02*
X819404Y1079500D01*
X819404Y1054100D02*
X831596Y1054100D01*
X831596Y1028700D02*
X819404Y1028700D01*
X819404Y1003300D02*
X831596Y1003300D01*
X831596Y977900D02*
X819404Y977900D01*
X819404Y952500D02*
X831596Y952500D01*
X831596Y927100D02*
X819404Y927100D01*
X819404Y901700D02*
X831596Y901700D01*
X831596Y876300D02*
X819404Y876300D01*
X1327404Y1079500D02*
X1339596Y1079500D01*
X1339596Y1054100D02*
X1327404Y1054100D01*
X1327404Y1028700D02*
X1339596Y1028700D01*
X1339596Y1003300D02*
X1327404Y1003300D01*
X1327404Y977900D02*
X1339596Y977900D01*
X1339596Y952500D02*
X1327404Y952500D01*
X1327404Y927100D02*
X1339596Y927100D01*
X1339596Y901700D02*
X1327404Y901700D01*
X1327404Y876300D02*
X1339596Y876300D01*
D17*
X736600Y1003300D03*
X762000Y1003300D03*
X736600Y736600D03*
X762000Y736600D03*
X736600Y469900D03*
X762000Y469900D03*
X736600Y203200D03*
X762000Y203200D03*
X990600Y1003300D03*
X1016000Y1003300D03*
X990600Y736600D03*
X1016000Y736600D03*
X990600Y469900D03*
X1016000Y469900D03*
X990600Y203200D03*
X1016000Y203200D03*
D13*
X831596Y546100D02*
X819404Y546100D01*
X819404Y520700D02*
X831596Y520700D01*
X831596Y495300D02*
X819404Y495300D01*
X819404Y469900D02*
X831596Y469900D01*
X831596Y444500D02*
X819404Y444500D01*
X819404Y419100D02*
X831596Y419100D01*
X831596Y393700D02*
X819404Y393700D01*
X819404Y368300D02*
X831596Y368300D01*
X831596Y342900D02*
X819404Y342900D01*
X1327404Y533400D02*
X1339596Y533400D01*
X1339596Y508000D02*
X1327404Y508000D01*
X1327404Y482600D02*
X1339596Y482600D01*
X1339596Y457200D02*
X1327404Y457200D01*
X1327404Y431800D02*
X1339596Y431800D01*
X1339596Y406400D02*
X1327404Y406400D01*
X1327404Y381000D02*
X1339596Y381000D01*
X1339596Y355600D02*
X1327404Y355600D01*
X1327404Y330200D02*
X1339596Y330200D01*
D17*
X1244600Y1003300D03*
X1270000Y1003300D03*
X1244600Y736600D03*
X1270000Y736600D03*
X1244600Y469900D03*
X1270000Y469900D03*
X1244600Y203200D03*
X1270000Y203200D03*
X1498600Y1003300D03*
X1524000Y1003300D03*
X1498600Y723900D03*
X1524000Y723900D03*
X1498600Y469900D03*
X1524000Y469900D03*
X1498600Y203200D03*
X1524000Y203200D03*
X990600Y76200D03*
X1016000Y76200D03*
X990600Y342900D03*
X1016000Y342900D03*
X990600Y609600D03*
X1016000Y609600D03*
X990600Y876300D03*
X1016000Y876300D03*
X736600Y76200D03*
X762000Y76200D03*
X736600Y342900D03*
X762000Y342900D03*
X736600Y609600D03*
X762000Y609600D03*
X736600Y876300D03*
X762000Y876300D03*
X1498600Y76200D03*
X1524000Y76200D03*
X1498600Y342900D03*
X1524000Y342900D03*
X1498600Y596900D03*
X1524000Y596900D03*
X1498600Y876300D03*
X1524000Y876300D03*
X1244600Y76200D03*
X1270000Y76200D03*
X1244600Y342900D03*
X1270000Y342900D03*
X1244600Y609600D03*
X1270000Y609600D03*
X1244600Y876300D03*
X1270000Y876300D03*
D15*
X355600Y762000D03*
X381000Y762000D03*
X355600Y508000D03*
X381000Y508000D03*
X355600Y254000D03*
X381000Y254000D03*
D18*
X622300Y850900D02*
X625475Y854075D01*
X679450Y854075D01*
X685800Y860425D01*
X723900Y860425D02*
X742950Y860425D01*
X723900Y860425D02*
X685800Y860425D01*
X742950Y860425D02*
X752475Y850900D01*
X876300Y850900D01*
X1120775Y860425D02*
X1130300Y850900D01*
X1120775Y860425D02*
X885825Y860425D01*
X876300Y850900D01*
X990600Y787400D02*
X1000125Y796925D01*
X1235075Y796925D01*
X1244600Y787400D01*
X885825Y574675D02*
X876300Y584200D01*
X885825Y574675D02*
X1120775Y574675D01*
X1130300Y584200D01*
X1374775Y574675D02*
X1384300Y584200D01*
X1254125Y574675D02*
X1120775Y574675D01*
X1254125Y574675D02*
X1374775Y574675D01*
X1498600Y774700D02*
X1514475Y790575D01*
X1514475Y841375D01*
X1393825Y841375D01*
X1384300Y850900D01*
X1000125Y530225D02*
X990600Y520700D01*
X1000125Y530225D02*
X1235075Y530225D01*
X1241425Y523875D01*
X1489075Y530225D02*
X1498600Y520700D01*
X1489075Y530225D02*
X1352550Y530225D01*
X1346200Y523875D01*
X1241425Y523875D01*
X1244600Y520700D01*
X1254125Y568325D02*
X1254125Y574675D01*
X1130300Y850900D02*
X1139825Y860425D01*
X1250950Y860425D01*
X1260475Y850900D01*
X1384300Y850900D01*
X250825Y771525D02*
X241300Y762000D01*
X250825Y771525D02*
X371475Y771525D01*
X381000Y762000D01*
X241300Y990600D02*
X276225Y1025525D01*
X276225Y1079500D01*
X266700Y1079500D01*
X101600Y965200D02*
X76200Y965200D01*
X225425Y974725D02*
X241300Y990600D01*
X225425Y974725D02*
X111125Y974725D01*
X101600Y965200D01*
X631825Y60325D02*
X622300Y50800D01*
X631825Y60325D02*
X866775Y60325D01*
X876300Y50800D01*
X1120775Y41275D02*
X1130300Y50800D01*
X1120775Y41275D02*
X885825Y41275D01*
X876300Y50800D01*
X1374775Y41275D02*
X1384300Y50800D01*
X1374775Y41275D02*
X1120775Y41275D01*
X1724025Y41275D02*
X1727200Y38100D01*
X1724025Y41275D02*
X1374775Y41275D01*
X746125Y263525D02*
X736600Y254000D01*
X746125Y263525D02*
X981075Y263525D01*
X990600Y254000D01*
X1235075Y263525D02*
X1244600Y254000D01*
X1235075Y263525D02*
X981075Y263525D01*
X1489075Y263525D02*
X1498600Y254000D01*
X1489075Y263525D02*
X1235075Y263525D01*
X631825Y307975D02*
X622300Y317500D01*
X787400Y307975D02*
X866775Y307975D01*
X787400Y307975D02*
X631825Y307975D01*
X866775Y307975D02*
X876300Y317500D01*
X1120775Y307975D02*
X1130300Y317500D01*
X1120775Y307975D02*
X866775Y307975D01*
X1374775Y307975D02*
X1384300Y317500D01*
X1374775Y307975D02*
X1120775Y307975D01*
X241300Y254000D02*
X190500Y304800D01*
X101600Y177800D02*
X76200Y177800D01*
X295275Y41275D02*
X320675Y66675D01*
X330200Y76200D01*
X295275Y41275D02*
X200025Y41275D01*
X190500Y50800D01*
X101600Y177800D02*
X127000Y203200D01*
X190500Y203200D01*
X241300Y508000D02*
X215900Y533400D01*
X190500Y558800D01*
X320675Y568325D02*
X330200Y558800D01*
X320675Y568325D02*
X254000Y568325D01*
X219075Y533400D01*
X215900Y533400D01*
X619125Y581025D02*
X622300Y584200D01*
X619125Y581025D02*
X425450Y581025D01*
X412750Y568325D01*
X320675Y568325D01*
X619125Y314325D02*
X622300Y317500D01*
X619125Y314325D02*
X339725Y314325D01*
X330200Y304800D01*
X606425Y66675D02*
X622300Y50800D01*
X422275Y66675D02*
X320675Y66675D01*
X422275Y66675D02*
X606425Y66675D01*
X396875Y238125D02*
X381000Y254000D01*
X396875Y238125D02*
X419100Y238125D01*
X422275Y234950D01*
X422275Y66675D01*
D19*
X723900Y860425D03*
X1254125Y568325D03*
X787400Y307975D03*
D18*
X266700Y228600D02*
X250825Y244475D01*
X225425Y244475D01*
X215900Y254000D01*
X403225Y231775D02*
X406400Y228600D01*
X403225Y231775D02*
X377825Y231775D01*
X368300Y241300D02*
X355600Y254000D01*
X368300Y241300D02*
X377825Y231775D01*
X276225Y219075D02*
X266700Y228600D01*
X276225Y219075D02*
X346075Y219075D01*
X368300Y241300D01*
X215900Y254000D02*
X212725Y250825D01*
X139700Y250825D01*
X92075Y203200D01*
X76200Y203200D01*
X215900Y990600D02*
X215900Y1025525D01*
X225425Y1025525D01*
X241300Y1041400D01*
X101600Y939800D02*
X76200Y939800D01*
X101600Y939800D02*
X117475Y955675D01*
X257175Y955675D01*
X266700Y965200D01*
X269875Y485775D02*
X266700Y482600D01*
X269875Y485775D02*
X311150Y485775D01*
X323850Y498475D02*
X333375Y508000D01*
X323850Y498475D02*
X311150Y485775D01*
X333375Y508000D02*
X355600Y508000D01*
X390525Y498475D02*
X406400Y482600D01*
X390525Y498475D02*
X323850Y498475D01*
X266700Y736600D02*
X292100Y762000D01*
X355600Y762000D01*
X390525Y752475D02*
X406400Y736600D01*
X390525Y752475D02*
X365125Y752475D01*
X355600Y762000D01*
X241300Y736600D02*
X215900Y762000D01*
X241300Y736600D02*
X266700Y736600D01*
X1460500Y279400D02*
X1498600Y279400D01*
X1676400Y279400D02*
X1752600Y203200D01*
X1676400Y279400D02*
X1498600Y279400D01*
X1244600Y279400D02*
X1206500Y279400D01*
X736600Y279400D02*
X698500Y279400D01*
X952500Y279400D02*
X990600Y279400D01*
X746125Y288925D02*
X736600Y279400D01*
X746125Y288925D02*
X942975Y288925D01*
X952500Y279400D01*
X1196975Y288925D02*
X1206500Y279400D01*
X1196975Y288925D02*
X1000125Y288925D01*
X990600Y279400D01*
X1450975Y288925D02*
X1460500Y279400D01*
X1450975Y288925D02*
X1254125Y288925D01*
X1244600Y279400D01*
X990600Y546100D02*
X952500Y546100D01*
X736600Y546100D02*
X698500Y546100D01*
X736600Y546100D02*
X825500Y546100D01*
X942975Y555625D02*
X952500Y546100D01*
X942975Y555625D02*
X847725Y555625D01*
X838200Y546100D01*
X825500Y546100D01*
X1460500Y546100D02*
X1498600Y546100D01*
X1244600Y546100D02*
X1206500Y546100D01*
X1320800Y546100D02*
X1333500Y533400D01*
X1320800Y546100D02*
X1244600Y546100D01*
X1450975Y555625D02*
X1460500Y546100D01*
X1450975Y555625D02*
X1355725Y555625D01*
X1333500Y533400D01*
X1000125Y555625D02*
X990600Y546100D01*
X1000125Y555625D02*
X1196975Y555625D01*
X1206500Y546100D01*
X952500Y1079500D02*
X942975Y1089025D01*
X835025Y1089025D01*
X825500Y1079500D01*
X1450975Y1089025D02*
X1460500Y1079500D01*
X1450975Y1089025D02*
X1343025Y1089025D01*
X1333500Y1079500D01*
X1000125Y1089025D02*
X990600Y1079500D01*
X1000125Y1089025D02*
X1196975Y1089025D01*
X1206500Y1079500D01*
X1460500Y812800D02*
X1473200Y800100D01*
X1498600Y800100D01*
X1244600Y812800D02*
X1206500Y812800D01*
X736600Y812800D02*
X698500Y812800D01*
X736600Y812800D02*
X746125Y822325D01*
X942975Y822325D01*
X952500Y812800D01*
X1196975Y822325D02*
X1206500Y812800D01*
X1196975Y822325D02*
X1000125Y822325D01*
X990600Y812800D01*
X1450975Y822325D02*
X1460500Y812800D01*
X1450975Y822325D02*
X1254125Y822325D01*
X1244600Y812800D01*
X301625Y1089025D02*
X292100Y1079500D01*
X301625Y1089025D02*
X688975Y1089025D01*
X698500Y1079500D01*
X631825Y771525D02*
X622300Y762000D01*
X631825Y771525D02*
X866775Y771525D01*
X876300Y762000D01*
X1120775Y771525D02*
X1130300Y762000D01*
X1120775Y771525D02*
X866775Y771525D01*
X1374775Y771525D02*
X1384300Y762000D01*
X1152525Y771525D02*
X1120775Y771525D01*
X1152525Y771525D02*
X1374775Y771525D01*
X885825Y504825D02*
X876300Y495300D01*
X885825Y504825D02*
X1120775Y504825D01*
X1130300Y495300D01*
X1381125Y517525D02*
X1384300Y520700D01*
X1381125Y517525D02*
X1257300Y517525D01*
X1244600Y504825D01*
X1120775Y504825D01*
X631825Y1044575D02*
X622300Y1054100D01*
X631825Y1044575D02*
X806450Y1044575D01*
X1120775Y1038225D02*
X1130300Y1028700D01*
X1120775Y1038225D02*
X885825Y1038225D01*
X876300Y1028700D01*
X1120775Y1038225D02*
X1260475Y1038225D01*
X180975Y498475D02*
X111125Y568325D01*
X180975Y498475D02*
X304800Y498475D01*
X330200Y523875D01*
X619125Y523875D01*
X622300Y520700D01*
X622300Y228600D02*
X631825Y219075D01*
X866775Y219075D01*
X876300Y228600D01*
X1130300Y228600D02*
X1139825Y238125D01*
X1152525Y238125D02*
X1257300Y238125D01*
X1152525Y238125D02*
X1139825Y238125D01*
X1257300Y238125D02*
X1273175Y254000D01*
X1384300Y254000D01*
X885825Y219075D02*
X876300Y228600D01*
X885825Y219075D02*
X1108075Y219075D01*
X1117600Y228600D01*
X1130300Y228600D01*
X644525Y473075D02*
X622300Y495300D01*
D19*
X806450Y1044575D03*
X1260475Y1038225D03*
X1152525Y771525D03*
X111125Y568325D03*
X644525Y473075D03*
X1152525Y238125D03*
D18*
X631825Y701675D02*
X622300Y711200D01*
X631825Y701675D02*
X854075Y701675D01*
X863600Y711200D01*
X876300Y711200D01*
X650875Y739775D02*
X647700Y736600D01*
X622300Y736600D01*
X1120775Y968375D02*
X1130300Y977900D01*
X1120775Y968375D02*
X885825Y968375D01*
X876300Y977900D01*
X1371600Y990600D02*
X1384300Y977900D01*
X1371600Y990600D02*
X1203325Y990600D01*
X1200150Y993775D01*
X1139825Y993775D01*
X1130300Y1003300D01*
X63500Y647700D02*
X50800Y660400D01*
X63500Y647700D02*
X63500Y577850D01*
X60325Y577850D01*
X53975Y571500D01*
X47625Y571500D01*
X38100Y561975D01*
X38100Y546100D01*
X123825Y546100D01*
X177800Y492125D01*
X307975Y492125D01*
X333375Y517525D01*
X574675Y517525D01*
X622300Y469900D01*
X866775Y454025D02*
X876300Y444500D01*
X866775Y454025D02*
X631825Y454025D01*
X622300Y444500D01*
X1381125Y441325D02*
X1384300Y444500D01*
X1381125Y441325D02*
X1225550Y441325D01*
X1219200Y434975D01*
X1139825Y434975D01*
X1130300Y444500D01*
X1374775Y701675D02*
X1384300Y711200D01*
X1374775Y701675D02*
X1139825Y701675D01*
X1130300Y711200D01*
X631825Y187325D02*
X622300Y177800D01*
X631825Y187325D02*
X866775Y187325D01*
X876300Y177800D01*
X1130300Y177800D02*
X1139825Y168275D01*
X1374775Y168275D01*
X1384300Y177800D01*
X889000Y190500D02*
X876300Y177800D01*
X889000Y190500D02*
X1111250Y190500D01*
X1123950Y203200D01*
X1130300Y203200D01*
X885825Y454025D02*
X876300Y444500D01*
X885825Y454025D02*
X971550Y454025D01*
X974725Y450850D01*
X1104900Y450850D01*
X1123950Y469900D01*
X1130300Y469900D01*
X860425Y695325D02*
X854075Y701675D01*
X860425Y695325D02*
X1114425Y695325D01*
X1130300Y711200D01*
D19*
X650875Y739775D03*
D18*
X1130300Y368300D02*
X1139825Y377825D01*
X1314450Y377825D01*
X1320800Y371475D01*
X1381125Y371475D01*
X1384300Y368300D01*
X1139825Y625475D02*
X1130300Y635000D01*
X1139825Y625475D02*
X1374775Y625475D01*
X1384300Y635000D01*
X123825Y879475D02*
X114300Y869950D01*
X123825Y879475D02*
X234950Y879475D01*
X254000Y898525D01*
X619125Y898525D01*
X622300Y901700D01*
X866775Y111125D02*
X876300Y101600D01*
X866775Y111125D02*
X631825Y111125D01*
X622300Y101600D01*
X1120775Y111125D02*
X1130300Y101600D01*
X1120775Y111125D02*
X866775Y111125D01*
X1374775Y111125D02*
X1384300Y101600D01*
X1374775Y111125D02*
X1120775Y111125D01*
X866775Y625475D02*
X876300Y635000D01*
X866775Y625475D02*
X631825Y625475D01*
X622300Y635000D01*
D19*
X114300Y869950D03*
D18*
X952500Y368300D02*
X955675Y365125D01*
X1111250Y365125D01*
X1117600Y358775D01*
X1190625Y358775D01*
X1200150Y368300D01*
X1206500Y368300D01*
X952500Y101600D02*
X942975Y92075D01*
X708025Y92075D01*
X698500Y101600D01*
X1196975Y92075D02*
X1206500Y101600D01*
X1196975Y92075D02*
X942975Y92075D01*
X1450975Y92075D02*
X1460500Y101600D01*
X1450975Y92075D02*
X1196975Y92075D01*
X63500Y723900D02*
X50800Y736600D01*
X63500Y723900D02*
X139700Y723900D01*
X168275Y695325D01*
X231775Y695325D01*
X234950Y669925D02*
X663575Y669925D01*
X688975Y644525D02*
X698500Y635000D01*
X688975Y644525D02*
X663575Y669925D01*
X942975Y644525D02*
X952500Y635000D01*
X942975Y644525D02*
X688975Y644525D01*
X1196975Y644525D02*
X1206500Y635000D01*
X1196975Y644525D02*
X942975Y644525D01*
X952500Y901700D02*
X942975Y911225D01*
X708025Y911225D01*
X698500Y901700D01*
X1196975Y911225D02*
X1206500Y901700D01*
X1196975Y911225D02*
X942975Y911225D01*
X1450975Y644525D02*
X1460500Y635000D01*
X1450975Y644525D02*
X1196975Y644525D01*
X1460500Y901700D02*
X1450975Y911225D01*
X1196975Y911225D01*
D19*
X231775Y695325D03*
X234950Y669925D03*
D18*
X63500Y749300D02*
X50800Y762000D01*
X63500Y749300D02*
X187325Y749300D01*
X215900Y777875D01*
X574675Y777875D01*
X606425Y746125D01*
X711200Y746125D01*
X942975Y403225D02*
X952500Y393700D01*
X942975Y403225D02*
X708025Y403225D01*
X698500Y393700D01*
X952500Y952500D02*
X962025Y962025D01*
X1196975Y962025D01*
X1206500Y952500D01*
X1450975Y917575D02*
X1460500Y927100D01*
X1450975Y917575D02*
X1216025Y917575D01*
X1206500Y927100D01*
X698500Y127000D02*
X708025Y117475D01*
X942975Y117475D01*
X952500Y127000D01*
X1196975Y117475D02*
X1206500Y127000D01*
X1196975Y117475D02*
X942975Y117475D01*
X1460500Y660400D02*
X1450975Y669925D01*
X1216025Y669925D01*
X1206500Y660400D01*
X962025Y669925D02*
X952500Y660400D01*
X962025Y669925D02*
X1216025Y669925D01*
D19*
X711200Y746125D03*
D18*
X698500Y177800D02*
X708025Y168275D01*
X942975Y168275D01*
X952500Y177800D01*
X1206500Y177800D02*
X1216025Y187325D01*
X1450975Y187325D01*
X1460500Y177800D01*
X955675Y180975D02*
X952500Y177800D01*
X955675Y180975D02*
X1111250Y180975D01*
X1117600Y187325D01*
X1216025Y187325D01*
X708025Y434975D02*
X698500Y444500D01*
X920750Y434975D02*
X942975Y434975D01*
X920750Y434975D02*
X708025Y434975D01*
X942975Y434975D02*
X952500Y444500D01*
X1193800Y482600D02*
X1206500Y469900D01*
X1184275Y482600D02*
X965200Y482600D01*
X1184275Y482600D02*
X1193800Y482600D01*
X965200Y482600D02*
X952500Y469900D01*
X1450975Y454025D02*
X1460500Y444500D01*
X1450975Y454025D02*
X1352550Y454025D01*
X1346200Y447675D01*
X1209675Y447675D01*
X1206500Y444500D01*
X50800Y787400D02*
X31750Y806450D01*
X31750Y927100D01*
X393700Y927100D01*
X479425Y1012825D01*
X688975Y1012825D01*
X698500Y1003300D01*
X698500Y711200D02*
X854075Y711200D01*
X863600Y720725D01*
X942975Y720725D01*
X952500Y711200D01*
X952500Y977900D02*
X962025Y987425D01*
X1196975Y987425D01*
X1206500Y977900D01*
X971550Y755650D02*
X952500Y736600D01*
X971550Y755650D02*
X1114425Y755650D01*
X1123950Y746125D01*
X1196975Y746125D01*
X1206500Y736600D01*
X1450975Y968375D02*
X1460500Y977900D01*
X1450975Y968375D02*
X1216025Y968375D01*
X1206500Y977900D01*
X679450Y736600D02*
X676275Y739775D01*
X679450Y736600D02*
X698500Y736600D01*
X1184275Y498475D02*
X1184275Y482600D01*
D19*
X920750Y434975D03*
X676275Y739775D03*
X1184275Y498475D03*
D18*
X631825Y136525D02*
X622300Y127000D01*
X631825Y136525D02*
X866775Y136525D01*
X876300Y127000D01*
X1120775Y136525D02*
X1130300Y127000D01*
X1120775Y136525D02*
X866775Y136525D01*
X1374775Y136525D02*
X1384300Y127000D01*
X1374775Y136525D02*
X1120775Y136525D01*
X876300Y927100D02*
X885825Y936625D01*
X1120775Y936625D01*
X1130300Y927100D01*
X63500Y673100D02*
X50800Y685800D01*
X63500Y673100D02*
X228600Y673100D01*
X231775Y676275D01*
X612775Y676275D01*
X622300Y685800D01*
X866775Y676275D02*
X876300Y685800D01*
X866775Y676275D02*
X612775Y676275D01*
X1120775Y676275D02*
X1130300Y685800D01*
X1120775Y676275D02*
X866775Y676275D01*
X1374775Y676275D02*
X1384300Y685800D01*
X1374775Y676275D02*
X1120775Y676275D01*
X1139825Y942975D02*
X1130300Y952500D01*
X1139825Y942975D02*
X1374775Y942975D01*
X1384300Y952500D01*
X63500Y800100D02*
X50800Y812800D01*
X63500Y800100D02*
X282575Y800100D01*
X285750Y796925D01*
X669925Y796925D02*
X688975Y796925D01*
X669925Y796925D02*
X285750Y796925D01*
X688975Y796925D02*
X698500Y787400D01*
X942975Y752475D02*
X952500Y762000D01*
X942975Y752475D02*
X708025Y752475D01*
X698500Y762000D01*
X708025Y238125D02*
X698500Y228600D01*
X708025Y238125D02*
X942975Y238125D01*
X952500Y228600D01*
X1196975Y244475D02*
X1206500Y254000D01*
X1196975Y244475D02*
X962025Y244475D01*
X952500Y254000D01*
X1450975Y238125D02*
X1460500Y228600D01*
X1438275Y238125D02*
X1266825Y238125D01*
X1438275Y238125D02*
X1450975Y238125D01*
X1266825Y238125D02*
X1257300Y228600D01*
X1206500Y228600D01*
X701675Y517525D02*
X698500Y520700D01*
X701675Y517525D02*
X723900Y517525D01*
X755650Y485775D01*
X942975Y485775D01*
X952500Y495300D01*
X1196975Y511175D02*
X1206500Y520700D01*
X1196975Y511175D02*
X962025Y511175D01*
X952500Y520700D01*
X1206500Y1054100D02*
X1216025Y1063625D01*
X1450975Y1063625D01*
X1460500Y1054100D01*
X1206500Y762000D02*
X1216025Y752475D01*
X1450975Y752475D01*
X1460500Y762000D01*
X1209675Y498475D02*
X1206500Y495300D01*
X1209675Y498475D02*
X1365250Y498475D01*
X1371600Y504825D01*
X1450975Y504825D01*
X1460500Y495300D01*
X1438275Y257175D02*
X1438275Y238125D01*
X962025Y777875D02*
X952500Y787400D01*
X962025Y777875D02*
X1196975Y777875D01*
X1206500Y787400D01*
D19*
X669925Y796925D03*
X1438275Y257175D03*
D18*
X200025Y727075D02*
X190500Y736600D01*
X200025Y727075D02*
X320675Y727075D01*
X330200Y736600D01*
X190500Y482600D02*
X200025Y473075D01*
X320675Y473075D01*
X330200Y482600D01*
X171450Y717550D02*
X190500Y736600D01*
X171450Y717550D02*
X168275Y717550D01*
D19*
X168275Y717550D03*
D18*
X190500Y711200D02*
X200025Y720725D01*
X320675Y720725D01*
X330200Y711200D01*
X200025Y466725D02*
X190500Y457200D01*
X200025Y466725D02*
X320675Y466725D01*
X330200Y457200D01*
X63500Y266700D02*
X50800Y254000D01*
X63500Y266700D02*
X127000Y266700D01*
X174625Y314325D01*
X161925Y711200D02*
X190500Y711200D01*
D19*
X174625Y314325D03*
X161925Y711200D03*
D18*
X190500Y685800D02*
X193675Y688975D01*
X247650Y688975D01*
X254000Y695325D01*
X320675Y695325D01*
X330200Y685800D01*
X200025Y441325D02*
X190500Y431800D01*
X200025Y441325D02*
X320675Y441325D01*
X330200Y431800D01*
X63500Y292100D02*
X50800Y279400D01*
X63500Y292100D02*
X63500Y317500D01*
X47625Y317500D01*
X28575Y336550D01*
X28575Y419100D01*
X177800Y419100D01*
X190500Y431800D01*
X355600Y431800D02*
X365125Y441325D01*
X355600Y431800D02*
X330200Y431800D01*
D19*
X365125Y441325D03*
D18*
X50800Y304800D02*
X38100Y292100D01*
X38100Y158750D01*
X44450Y158750D01*
X85725Y117475D01*
X320675Y117475D01*
X330200Y127000D01*
X190500Y635000D02*
X200025Y644525D01*
X320675Y644525D01*
X330200Y635000D01*
X158750Y635000D02*
X117475Y593725D01*
X158750Y635000D02*
X190500Y635000D01*
D19*
X117475Y593725D03*
D18*
X209550Y342900D02*
X231775Y320675D01*
X209550Y342900D02*
X63500Y342900D01*
X50800Y330200D01*
D19*
X231775Y320675D03*
D18*
X250825Y142875D02*
X266700Y127000D01*
X250825Y142875D02*
X69850Y142875D01*
D19*
X69850Y142875D03*
D18*
X244475Y371475D02*
X222250Y393700D01*
X63500Y393700D01*
X50800Y406400D01*
D19*
X244475Y371475D03*
D18*
X168275Y962025D02*
X114300Y962025D01*
X104775Y952500D01*
X47625Y952500D01*
X25400Y930275D01*
X25400Y431800D01*
X50800Y431800D01*
D19*
X168275Y962025D03*
D18*
X190500Y914400D02*
X187325Y911225D01*
X114300Y911225D01*
X104775Y901700D01*
X47625Y901700D01*
D19*
X47625Y901700D03*
D18*
X187325Y885825D02*
X190500Y889000D01*
X187325Y885825D02*
X114300Y885825D01*
X104775Y876300D01*
X47625Y876300D01*
D19*
X47625Y876300D03*
D18*
X177800Y850900D02*
X190500Y863600D01*
X177800Y850900D02*
X38100Y850900D01*
D19*
X38100Y850900D03*
D18*
X114300Y784225D02*
X247650Y784225D01*
X114300Y784225D02*
X104775Y774700D01*
X47625Y774700D01*
X31750Y758825D01*
X31750Y533400D01*
X50800Y533400D01*
D19*
X247650Y784225D03*
D18*
X231775Y828675D02*
X266700Y863600D01*
X241300Y593725D02*
X127000Y593725D01*
X104775Y571500D01*
X63500Y571500D01*
X50800Y558800D01*
D19*
X231775Y828675D03*
X241300Y593725D03*
D18*
X200025Y822325D02*
X266700Y889000D01*
X200025Y822325D02*
X177800Y822325D01*
X155575Y698500D02*
X47625Y698500D01*
X38100Y688975D01*
X38100Y584200D01*
X50800Y584200D01*
D19*
X177800Y822325D03*
X155575Y698500D03*
D18*
X257175Y904875D02*
X266700Y914400D01*
X257175Y904875D02*
X133350Y904875D01*
X120650Y892175D01*
D19*
X120650Y892175D03*
D18*
X365125Y790575D02*
X371475Y784225D01*
X365125Y790575D02*
X120650Y790575D01*
D19*
X371475Y784225D03*
X120650Y790575D03*
D18*
X155575Y981075D02*
X215900Y1041400D01*
X155575Y981075D02*
X92075Y981075D01*
D19*
X92075Y981075D03*
D18*
X295275Y263525D02*
X330200Y228600D01*
X295275Y263525D02*
X254000Y263525D01*
X196850Y320675D01*
X142875Y320675D01*
D19*
X142875Y320675D03*
D18*
X320675Y212725D02*
X330200Y203200D01*
X320675Y212725D02*
X250825Y212725D01*
X225425Y238125D01*
X168275Y863600D02*
X101600Y863600D01*
X168275Y863600D02*
X177800Y873125D01*
X225425Y873125D01*
D19*
X225425Y238125D03*
X225425Y873125D03*
D18*
X266700Y711200D02*
X276225Y701675D01*
X358775Y701675D01*
X384175Y727075D01*
X561975Y727075D01*
D19*
X561975Y727075D03*
D18*
X584200Y803275D02*
X288925Y803275D01*
X584200Y803275D02*
X593725Y812800D01*
X622300Y812800D01*
X749300Y723900D02*
X762000Y736600D01*
X749300Y723900D02*
X717550Y723900D01*
X714375Y727075D01*
X638175Y727075D01*
D19*
X288925Y803275D03*
X638175Y727075D03*
D18*
X304800Y546100D02*
X288925Y561975D01*
X304800Y546100D02*
X622300Y546100D01*
X720725Y511175D02*
X762000Y469900D01*
X720725Y511175D02*
X676275Y511175D01*
X669925Y542925D02*
X666750Y546100D01*
X622300Y546100D01*
D19*
X288925Y561975D03*
X676275Y511175D03*
X669925Y542925D03*
D18*
X631825Y288925D02*
X622300Y279400D01*
X631825Y288925D02*
X711200Y288925D01*
X260350Y314325D02*
X231775Y342900D01*
X260350Y314325D02*
X298450Y314325D01*
X333375Y279400D01*
X622300Y279400D01*
D19*
X711200Y288925D03*
X231775Y342900D03*
D18*
X387350Y911225D02*
X466725Y990600D01*
X790575Y990600D01*
X819150Y1019175D01*
X838200Y1019175D01*
X854075Y1035050D01*
X854075Y1079500D01*
X876300Y1079500D01*
X1000125Y1019175D02*
X1016000Y1003300D01*
X1000125Y1019175D02*
X936625Y1019175D01*
D19*
X387350Y911225D03*
X936625Y1019175D03*
D18*
X269875Y587375D02*
X266700Y584200D01*
X269875Y587375D02*
X311150Y587375D01*
X317500Y593725D01*
X406400Y593725D01*
X412750Y600075D01*
X561975Y600075D01*
X593725Y803275D02*
X866775Y803275D01*
X876300Y812800D01*
X981075Y701675D02*
X1016000Y736600D01*
X981075Y701675D02*
X863600Y701675D01*
D19*
X561975Y600075D03*
X593725Y803275D03*
X863600Y701675D03*
D18*
X288925Y536575D02*
X266700Y558800D01*
X288925Y536575D02*
X866775Y536575D01*
X876300Y546100D01*
X1003300Y457200D02*
X1016000Y469900D01*
X1003300Y457200D02*
X977900Y457200D01*
X974725Y460375D01*
X863600Y460375D01*
D19*
X863600Y460375D03*
D18*
X212725Y561975D02*
X190500Y584200D01*
X212725Y561975D02*
X238125Y561975D01*
X876300Y279400D02*
X879475Y276225D01*
X933450Y276225D01*
D19*
X238125Y561975D03*
X933450Y276225D03*
D18*
X342900Y857250D02*
X295275Y809625D01*
X342900Y857250D02*
X581025Y857250D01*
X615950Y892175D01*
X641350Y892175D01*
X692150Y942975D01*
X768350Y942975D01*
X819150Y993775D01*
X838200Y993775D01*
X860425Y1016000D01*
X860425Y1044575D01*
X1095375Y1044575D01*
X1130300Y1079500D01*
D19*
X295275Y809625D03*
D18*
X387350Y720725D02*
X349250Y682625D01*
X387350Y720725D02*
X711200Y720725D01*
X714375Y717550D01*
X850900Y717550D01*
X860425Y727075D01*
X965200Y727075D01*
X977900Y739775D01*
X977900Y749300D01*
X1095375Y749300D01*
X1120775Y723900D01*
X1257300Y723900D01*
X1270000Y736600D01*
D19*
X349250Y682625D03*
X1095375Y749300D03*
D18*
X282575Y422275D02*
X266700Y406400D01*
X282575Y422275D02*
X596900Y422275D01*
X609600Y409575D01*
X1073150Y409575D01*
X1120775Y457200D01*
X1257300Y457200D01*
X1270000Y469900D01*
X1139825Y536575D02*
X1130300Y546100D01*
X1139825Y536575D02*
X1260475Y536575D01*
D19*
X1260475Y536575D03*
D18*
X301625Y415925D02*
X266700Y381000D01*
X301625Y415925D02*
X577850Y415925D01*
X609600Y384175D01*
X1104900Y384175D01*
X1254125Y219075D02*
X1270000Y203200D01*
X1254125Y219075D02*
X1117600Y219075D01*
D19*
X1104900Y384175D03*
X1117600Y219075D03*
D18*
X419100Y447675D02*
X301625Y447675D01*
X1524000Y1003300D02*
X1524000Y1069975D01*
X1393825Y1069975D01*
X1384300Y1079500D01*
D19*
X301625Y447675D03*
X419100Y447675D03*
D18*
X276225Y320675D02*
X266700Y330200D01*
X276225Y320675D02*
X419100Y320675D01*
X600075Y762000D02*
X615950Y777875D01*
X920750Y777875D01*
X946150Y803275D01*
X1374775Y803275D01*
X1384300Y812800D01*
X1470025Y777875D02*
X1524000Y723900D01*
X1470025Y777875D02*
X1419225Y777875D01*
X1384300Y812800D01*
D19*
X419100Y320675D03*
X600075Y762000D03*
D18*
X1384300Y546100D02*
X1393825Y536575D01*
X1498600Y536575D01*
X1524000Y511175D01*
X1524000Y469900D01*
X193675Y327025D02*
X190500Y330200D01*
X193675Y327025D02*
X215900Y327025D01*
X273050Y269875D01*
X1374775Y269875D01*
X1384300Y279400D01*
X1524000Y269875D02*
X1524000Y203200D01*
X1524000Y269875D02*
X1374775Y269875D01*
X330200Y355600D02*
X320675Y365125D01*
X200025Y365125D01*
X190500Y355600D01*
X200025Y600075D02*
X190500Y609600D01*
X200025Y600075D02*
X320675Y600075D01*
X330200Y609600D01*
X434975Y619125D02*
X444500Y628650D01*
X434975Y619125D02*
X339725Y619125D01*
X330200Y609600D01*
D19*
X444500Y628650D03*
D18*
X165100Y1041400D02*
X139700Y1041400D01*
X190500Y381000D02*
X177800Y368300D01*
X34925Y368300D01*
D19*
X34925Y368300D03*
D18*
X152400Y101600D02*
X136525Y85725D01*
X136525Y60325D01*
X257175Y60325D01*
X266700Y50800D01*
X168275Y92075D02*
X152400Y76200D01*
X168275Y92075D02*
X257175Y92075D01*
X266700Y101600D01*
X155575Y212725D02*
X152400Y215900D01*
X155575Y212725D02*
X238125Y212725D01*
D19*
X238125Y212725D03*
D18*
X254000Y190500D02*
X266700Y177800D01*
X254000Y190500D02*
X152400Y190500D01*
X187325Y225425D02*
X190500Y228600D01*
X187325Y225425D02*
X139700Y225425D01*
X104775Y190500D01*
X73025Y190500D01*
X63500Y180975D01*
X63500Y165100D01*
X152400Y165100D01*
X190500Y406400D02*
X184150Y412750D01*
X142875Y412750D01*
X142875Y654050D02*
X149225Y660400D01*
X190500Y660400D01*
D19*
X142875Y412750D03*
X142875Y654050D03*
D18*
X438150Y809625D02*
X469900Y841375D01*
X590550Y841375D02*
X688975Y841375D01*
X590550Y841375D02*
X469900Y841375D01*
X688975Y841375D02*
X698500Y850900D01*
X749300Y889000D02*
X762000Y876300D01*
X749300Y889000D02*
X657225Y889000D01*
X628650Y860425D01*
X609600Y860425D01*
X590550Y841375D01*
D19*
X438150Y809625D03*
D18*
X438150Y574675D02*
X688975Y574675D01*
X692150Y577850D02*
X698500Y584200D01*
X692150Y577850D02*
X688975Y574675D01*
X692150Y577850D02*
X742950Y577850D01*
D19*
X438150Y574675D03*
X742950Y577850D03*
D18*
X415925Y650875D02*
X406400Y660400D01*
X415925Y650875D02*
X638175Y650875D01*
X657225Y327025D02*
X666750Y317500D01*
X698500Y317500D01*
D19*
X638175Y650875D03*
X657225Y327025D03*
D18*
X600075Y635000D02*
X406400Y635000D01*
X600075Y635000D02*
X615950Y619125D01*
X644525Y619125D01*
D19*
X644525Y619125D03*
D18*
X409575Y606425D02*
X406400Y609600D01*
X409575Y606425D02*
X603250Y606425D01*
X609600Y600075D01*
X727075Y600075D01*
X730250Y596900D01*
X841375Y596900D01*
X863600Y619125D01*
X981075Y619125D01*
X1000125Y638175D01*
X1035050Y638175D01*
X952500Y850900D02*
X955675Y854075D01*
X1012825Y854075D01*
D19*
X1035050Y638175D03*
X1012825Y854075D03*
D18*
X415925Y593725D02*
X406400Y584200D01*
X415925Y593725D02*
X723900Y593725D01*
X733425Y584200D01*
X854075Y584200D01*
X863600Y593725D01*
X942975Y593725D01*
X952500Y584200D01*
X990600Y584200D02*
X1016000Y609600D01*
X990600Y584200D02*
X952500Y584200D01*
X841375Y558800D02*
X406400Y558800D01*
X841375Y558800D02*
X844550Y561975D01*
X1035050Y561975D01*
X984250Y317500D02*
X952500Y317500D01*
D19*
X1035050Y561975D03*
X984250Y317500D03*
D18*
X1016000Y76200D02*
X990600Y50800D01*
X952500Y50800D01*
X549275Y809625D02*
X574675Y835025D01*
X1190625Y835025D01*
X1200150Y844550D02*
X1206500Y850900D01*
X1200150Y844550D02*
X1190625Y835025D01*
X1200150Y844550D02*
X1238250Y844550D01*
D19*
X549275Y809625D03*
X1238250Y844550D03*
D18*
X409575Y428625D02*
X406400Y431800D01*
X409575Y428625D02*
X1009650Y428625D01*
X1108075Y584200D02*
X1117600Y593725D01*
X1196975Y593725D01*
X1206500Y584200D01*
X1244600Y584200D02*
X1270000Y609600D01*
X1244600Y584200D02*
X1206500Y584200D01*
D19*
X1009650Y428625D03*
X1108075Y584200D03*
D18*
X406400Y406400D02*
X390525Y390525D01*
X390525Y339725D01*
X603250Y339725D01*
X609600Y333375D01*
X727075Y333375D01*
X733425Y327025D01*
X977900Y327025D01*
X981075Y323850D01*
X1114425Y323850D01*
X1117600Y327025D01*
X1196975Y327025D01*
X1206500Y317500D01*
X1244600Y317500D02*
X1270000Y342900D01*
X1244600Y317500D02*
X1206500Y317500D01*
X409575Y377825D02*
X406400Y381000D01*
X409575Y377825D02*
X1009650Y377825D01*
X1270000Y76200D02*
X1244600Y50800D01*
X1206500Y50800D01*
D19*
X1009650Y377825D03*
D18*
X790575Y355600D02*
X406400Y355600D01*
X790575Y355600D02*
X812800Y333375D01*
X981075Y333375D01*
X984250Y330200D01*
X1111250Y330200D01*
X1114425Y333375D01*
X1174750Y333375D01*
X1200150Y358775D01*
X1314450Y358775D01*
X1320800Y365125D01*
X1365250Y365125D01*
X1371600Y358775D01*
X1492250Y358775D01*
X1460500Y850900D02*
X1473200Y863600D01*
X1511300Y863600D01*
X1524000Y876300D01*
D19*
X1492250Y358775D03*
D18*
X596900Y568325D02*
X593725Y565150D01*
X596900Y568325D02*
X1244600Y568325D01*
X1250950Y561975D01*
X1438275Y561975D01*
X1460500Y584200D01*
X1511300Y584200D02*
X1524000Y596900D01*
X1511300Y584200D02*
X1460500Y584200D01*
D19*
X593725Y565150D03*
D18*
X406400Y304800D02*
X409575Y301625D01*
X1444625Y301625D01*
X1460500Y317500D01*
X1498600Y317500D02*
X1524000Y342900D01*
X1498600Y317500D02*
X1460500Y317500D01*
X488950Y263525D02*
X314325Y263525D01*
X488950Y263525D02*
X609600Y142875D01*
X1422400Y142875D01*
X1454150Y111125D01*
X1489075Y111125D01*
X1520825Y79375D01*
X1473200Y63500D02*
X1460500Y50800D01*
X1473200Y63500D02*
X1504950Y63500D01*
X1520825Y79375D01*
X1524000Y76200D01*
D19*
X314325Y263525D03*
D18*
X787400Y1016000D02*
X825500Y1054100D01*
X787400Y1016000D02*
X749300Y1016000D01*
X736600Y1003300D01*
X825500Y952500D02*
X866775Y993775D01*
X981075Y993775D01*
X990600Y1003300D01*
X838200Y889000D02*
X825500Y901700D01*
X838200Y889000D02*
X996950Y889000D01*
D19*
X996950Y889000D03*
D18*
X835025Y917575D02*
X825500Y927100D01*
X835025Y917575D02*
X974725Y917575D01*
D19*
X974725Y917575D03*
D18*
X200025Y168275D02*
X190500Y177800D01*
X200025Y168275D02*
X342900Y168275D01*
X390525Y215900D01*
D19*
X390525Y215900D03*
D18*
X1295400Y1016000D02*
X1333500Y1054100D01*
X1295400Y1016000D02*
X1257300Y1016000D01*
X1244600Y1003300D01*
X1333500Y952500D02*
X1343025Y962025D01*
X1466850Y962025D01*
X1498600Y993775D01*
X1498600Y1003300D01*
X1343025Y936625D02*
X1333500Y927100D01*
X1343025Y936625D02*
X1482725Y936625D01*
X1536700Y882650D01*
X1536700Y711200D01*
X1511300Y711200D01*
X1498600Y723900D01*
X1317625Y476250D02*
X1320800Y473075D01*
X1365250Y473075D01*
X1371600Y479425D01*
X1489075Y479425D01*
X1498600Y469900D01*
D19*
X1317625Y476250D03*
D18*
X1358900Y231775D02*
X1377950Y212725D01*
X1489075Y212725D01*
X1498600Y203200D01*
D19*
X1358900Y231775D03*
D18*
X841375Y857250D02*
X755650Y857250D01*
X736600Y876300D01*
D19*
X841375Y857250D03*
D18*
X793750Y527050D02*
X825500Y495300D01*
X793750Y527050D02*
X784225Y527050D01*
D19*
X784225Y527050D03*
D18*
X825500Y469900D02*
X819150Y463550D01*
X781050Y463550D01*
D19*
X781050Y463550D03*
D18*
X850900Y590550D02*
X860425Y600075D01*
X981075Y600075D01*
X990600Y609600D01*
D19*
X850900Y590550D03*
D18*
X809625Y863600D02*
X812800Y866775D01*
X981075Y866775D01*
X990600Y876300D01*
D19*
X809625Y863600D03*
D18*
X825500Y368300D02*
X841375Y352425D01*
X981075Y352425D01*
X990600Y342900D01*
X1349375Y857250D02*
X1343025Y863600D01*
X1257300Y863600D01*
X1244600Y876300D01*
D19*
X1349375Y857250D03*
D18*
X1333500Y457200D02*
X1330325Y454025D01*
X1295400Y454025D01*
D19*
X1295400Y454025D03*
D18*
X1333500Y406400D02*
X1362075Y434975D01*
X1482725Y434975D01*
D19*
X1482725Y434975D03*
D18*
X1336675Y352425D02*
X1333500Y355600D01*
X1336675Y352425D02*
X1489075Y352425D01*
X1498600Y342900D01*
X1489075Y85725D02*
X1349375Y85725D01*
X1489075Y85725D02*
X1498600Y76200D01*
D19*
X1349375Y85725D03*
D18*
X1333500Y381000D02*
X1362075Y409575D01*
X1482725Y409575D01*
X1536700Y463550D01*
X1536700Y609600D01*
X1511300Y609600D01*
X1498600Y596900D01*
X1333500Y482600D02*
X1323975Y492125D01*
X1295400Y492125D01*
D19*
X1295400Y492125D03*
M02*
